G04 ================== begin FILE IDENTIFICATION RECORD ==================*
G04 Layout Name:  E:/GitHub/MBEDBoard/USBHUB_V10A/PCB/USBHUB_V10A.brd*
G04 Film Name:    Drill_Legend*
G04 File Format:  Gerber RS274X*
G04 File Origin:  Cadence Allegro 16.6-2015-S071*
G04 Origin Date:  Wed Nov 02 15:51:48 2016*
G04 *
G04 Layer:  BOARD GEOMETRY/OUTLINE*
G04 Layer:  MANUFACTURING/NCDRILL_LEGEND*
G04 Layer:  BOARD GEOMETRY/DIMENSION*
G04 Layer:  MANUFACTURING/NCDRILL_FIGURE*
G04 Layer:  MANUFACTURING/NCLEGEND-1-2*
G04 *
G04 Offset:    (0.0000 0.0000)*
G04 Mirror:    No*
G04 Mode:      Positive*
G04 Rotation:  0*
G04 FullContactRelief:  No*
G04 UndefLineWidth:     0.1524*
G04 ================== end FILE IDENTIFICATION RECORD ====================*
%FSLAX55Y55*MOMM*%
%IR0*IPPOS*OFA0.00000B0.00000*MIA0B0*SFA1.00000B1.00000*%
%AMMACRO13*
1,1,.1524,.476346,-1.15*
20,1,.1524,.476346,-1.15,-.476346,-1.15,0.0*
1,1,.1524,-.476346,-1.15*
20,1,.1524,-.476346,-1.15,-1.15,-.476346,0.0*
1,1,.1524,-1.15,-.476346*
20,1,.1524,-1.15,-.476346,-1.15,.476346,0.0*
1,1,.1524,-1.15,.476346*
20,1,.1524,-1.15,.476346,-.476346,1.15,0.0*
1,1,.1524,-.476346,1.15*
20,1,.1524,-.476346,1.15,.476346,1.15,0.0*
1,1,.1524,.476346,1.15*
20,1,.1524,.476346,1.15,1.15,.476346,0.0*
1,1,.1524,1.15,.476346*
20,1,.1524,1.15,.476346,1.15,-.476346,0.0*
1,1,.1524,1.15,-.476346*
20,1,.1524,1.15,-.476346,.476346,-1.15,0.0*
1,1,.1524,.476346,-1.15*
%
%ADD13MACRO13*%
%AMMACRO17*
1,1,.1524,.4,.4*
20,1,.1524,.4,.4,.4,-.4,0.0*
1,1,.1524,.4,-.4*
20,1,.1524,.4,-.4,-.4,-.4,0.0*
1,1,.1524,-.4,-.4*
20,1,.1524,-.4,-.4,-.4,.4,0.0*
1,1,.1524,-.4,.4*
20,1,.1524,-.4,.4,.4,.4,0.0*
1,1,.1524,.4,.4*
%
%ADD17MACRO17*%
%AMMACRO11*
1,1,.1524,.1524,0.0*
20,1,.1524,.1524,0.0,-.1524,0.0,0.0*
1,1,.1524,-.1524,0.0*
1,1,.1524,0.0,.1524*
20,1,.1524,0.0,.1524,0.0,-.1524,0.0*
1,1,.1524,0.0,-.1524*
%
%ADD11MACRO11*%
%AMMACRO10*
1,1,.1524,1.7018,0.0*
20,1,.1524,1.7018,0.0,0.0,-1.7018,0.0*
1,1,.1524,0.0,-1.7018*
20,1,.1524,0.0,-1.7018,-1.7018,0.0,0.0*
1,1,.1524,-1.7018,0.0*
20,1,.1524,-1.7018,0.0,0.0,1.7018,0.0*
1,1,.1524,0.0,1.7018*
20,1,.1524,0.0,1.7018,1.7018,0.0,0.0*
1,1,.1524,1.7018,0.0*
%
%ADD10MACRO10*%
%AMMACRO12*
1,1,.1524,-.5,-1.*
20,1,.1524,-.5,-1.,-.5,1.,0.0*
1,1,.1524,-.5,1.*
20,1,.1524,-.5,1.,-.492404,1.086824,0.0*
1,1,.1524,-.492404,1.086824*
20,1,.1524,-.492404,1.086824,-.469846,1.17101,0.0*
1,1,.1524,-.469846,1.17101*
20,1,.1524,-.469846,1.17101,-.433013,1.25,0.0*
1,1,.1524,-.433013,1.25*
20,1,.1524,-.433013,1.25,-.383022,1.321394,0.0*
1,1,.1524,-.383022,1.321394*
20,1,.1524,-.383022,1.321394,-.321394,1.383022,0.0*
1,1,.1524,-.321394,1.383022*
20,1,.1524,-.321394,1.383022,-.25,1.433013,0.0*
1,1,.1524,-.25,1.433013*
20,1,.1524,-.25,1.433013,-.17101,1.469846,0.0*
1,1,.1524,-.17101,1.469846*
20,1,.1524,-.17101,1.469846,-.086824,1.492404,0.0*
1,1,.1524,-.086824,1.492404*
20,1,.1524,-.086824,1.492404,0.0,1.5,0.0*
1,1,.1524,0.0,1.5*
20,1,.1524,0.0,1.5,.086824,1.492404,0.0*
1,1,.1524,.086824,1.492404*
20,1,.1524,.086824,1.492404,.17101,1.469846,0.0*
1,1,.1524,.17101,1.469846*
20,1,.1524,.17101,1.469846,.25,1.433013,0.0*
1,1,.1524,.25,1.433013*
20,1,.1524,.25,1.433013,.321394,1.383022,0.0*
1,1,.1524,.321394,1.383022*
20,1,.1524,.321394,1.383022,.383022,1.321394,0.0*
1,1,.1524,.383022,1.321394*
20,1,.1524,.383022,1.321394,.433013,1.25,0.0*
1,1,.1524,.433013,1.25*
20,1,.1524,.433013,1.25,.469846,1.17101,0.0*
1,1,.1524,.469846,1.17101*
20,1,.1524,.469846,1.17101,.492404,1.086824,0.0*
1,1,.1524,.492404,1.086824*
20,1,.1524,.492404,1.086824,.5,1.,0.0*
1,1,.1524,.5,1.*
20,1,.1524,.5,1.,.5,-1.,0.0*
1,1,.1524,.5,-1.*
20,1,.1524,.5,-1.,.492404,-1.086824,0.0*
1,1,.1524,.492404,-1.086824*
20,1,.1524,.492404,-1.086824,.469846,-1.17101,0.0*
1,1,.1524,.469846,-1.17101*
20,1,.1524,.469846,-1.17101,.433013,-1.25,0.0*
1,1,.1524,.433013,-1.25*
20,1,.1524,.433013,-1.25,.383022,-1.321394,0.0*
1,1,.1524,.383022,-1.321394*
20,1,.1524,.383022,-1.321394,.321394,-1.383022,0.0*
1,1,.1524,.321394,-1.383022*
20,1,.1524,.321394,-1.383022,.25,-1.433013,0.0*
1,1,.1524,.25,-1.433013*
20,1,.1524,.25,-1.433013,.17101,-1.469846,0.0*
1,1,.1524,.17101,-1.469846*
20,1,.1524,.17101,-1.469846,.086824,-1.492404,0.0*
1,1,.1524,.086824,-1.492404*
20,1,.1524,.086824,-1.492404,0.0,-1.5,0.0*
1,1,.1524,0.0,-1.5*
20,1,.1524,0.0,-1.5,-.086824,-1.492404,0.0*
1,1,.1524,-.086824,-1.492404*
20,1,.1524,-.086824,-1.492404,-.17101,-1.469846,0.0*
1,1,.1524,-.17101,-1.469846*
20,1,.1524,-.17101,-1.469846,-.25,-1.433013,0.0*
1,1,.1524,-.25,-1.433013*
20,1,.1524,-.25,-1.433013,-.321394,-1.383022,0.0*
1,1,.1524,-.321394,-1.383022*
20,1,.1524,-.321394,-1.383022,-.383022,-1.321394,0.0*
1,1,.1524,-.383022,-1.321394*
20,1,.1524,-.383022,-1.321394,-.433013,-1.25,0.0*
1,1,.1524,-.433013,-1.25*
20,1,.1524,-.433013,-1.25,-.469846,-1.17101,0.0*
1,1,.1524,-.469846,-1.17101*
20,1,.1524,-.469846,-1.17101,-.492404,-1.086824,0.0*
1,1,.1524,-.492404,-1.086824*
20,1,.1524,-.492404,-1.086824,-.5,-1.,0.0*
1,1,.1524,-.5,-1.*
1,1,.1524,-.25,-.25*
20,1,.1524,-.25,-.25,-.3167,-.2417,0.0*
1,1,.1524,-.3167,-.2417*
20,1,.1524,-.3167,-.2417,-.375,-.2083,0.0*
1,1,.1524,-.375,-.2083*
20,1,.1524,-.375,-.2083,-.425,-.1583,0.0*
1,1,.1524,-.425,-.1583*
20,1,.1524,-.425,-.1583,-.4583,-.1,0.0*
1,1,.1524,-.4583,-.1*
20,1,.1524,-.4583,-.1,-.475,-.0333,0.0*
1,1,.1524,-.475,-.0333*
20,1,.1524,-.475,-.0333,-.475,.0333,0.0*
1,1,.1524,-.475,.0333*
20,1,.1524,-.475,.0333,-.4583,.1,0.0*
1,1,.1524,-.4583,.1*
20,1,.1524,-.4583,.1,-.425,.1583,0.0*
1,1,.1524,-.425,.1583*
20,1,.1524,-.425,.1583,-.375,.2083,0.0*
1,1,.1524,-.375,.2083*
20,1,.1524,-.375,.2083,-.3167,.2417,0.0*
1,1,.1524,-.3167,.2417*
20,1,.1524,-.3167,.2417,-.25,.25,0.0*
1,1,.1524,-.25,.25*
20,1,.1524,-.25,.25,-.1833,.2417,0.0*
1,1,.1524,-.1833,.2417*
20,1,.1524,-.1833,.2417,-.125,.2083,0.0*
1,1,.1524,-.125,.2083*
20,1,.1524,-.125,.2083,-.075,.1583,0.0*
1,1,.1524,-.075,.1583*
20,1,.1524,-.075,.1583,-.0417,.1,0.0*
1,1,.1524,-.0417,.1*
20,1,.1524,-.0417,.1,-.025,.0333,0.0*
1,1,.1524,-.025,.0333*
20,1,.1524,-.025,.0333,-.025,-.0333,0.0*
1,1,.1524,-.025,-.0333*
20,1,.1524,-.025,-.0333,-.0417,-.1,0.0*
1,1,.1524,-.0417,-.1*
20,1,.1524,-.0417,-.1,-.075,-.1583,0.0*
1,1,.1524,-.075,-.1583*
20,1,.1524,-.075,-.1583,-.125,-.2083,0.0*
1,1,.1524,-.125,-.2083*
20,1,.1524,-.125,-.2083,-.1833,-.2417,0.0*
1,1,.1524,-.1833,-.2417*
20,1,.1524,-.1833,-.2417,-.25,-.25,0.0*
1,1,.1524,-.25,-.25*
1,1,.1524,.0418,-.25*
20,1,.1524,.0418,-.25,.2501,.25,0.0*
1,1,.1524,.2501,.25*
20,1,.1524,.2501,.25,.4584,-.25,0.0*
1,1,.1524,.4584,-.25*
1,1,.1524,.3834,-.075*
20,1,.1524,.3834,-.075,.1168,-.075,0.0*
1,1,.1524,.1168,-.075*
%
%ADD12MACRO12*%
%AMMACRO14*
1,1,.1524,-1.,.5*
20,1,.1524,-1.,.5,1.,.5,0.0*
1,1,.1524,1.,.5*
20,1,.1524,1.,.5,1.086824,.492404,0.0*
1,1,.1524,1.086824,.492404*
20,1,.1524,1.086824,.492404,1.17101,.469846,0.0*
1,1,.1524,1.17101,.469846*
20,1,.1524,1.17101,.469846,1.25,.433013,0.0*
1,1,.1524,1.25,.433013*
20,1,.1524,1.25,.433013,1.321394,.383022,0.0*
1,1,.1524,1.321394,.383022*
20,1,.1524,1.321394,.383022,1.383022,.321394,0.0*
1,1,.1524,1.383022,.321394*
20,1,.1524,1.383022,.321394,1.433013,.25,0.0*
1,1,.1524,1.433013,.25*
20,1,.1524,1.433013,.25,1.469846,.17101,0.0*
1,1,.1524,1.469846,.17101*
20,1,.1524,1.469846,.17101,1.492404,.086824,0.0*
1,1,.1524,1.492404,.086824*
20,1,.1524,1.492404,.086824,1.5,0.0,0.0*
1,1,.1524,1.5,0.0*
20,1,.1524,1.5,0.0,1.492404,-.086824,0.0*
1,1,.1524,1.492404,-.086824*
20,1,.1524,1.492404,-.086824,1.469846,-.17101,0.0*
1,1,.1524,1.469846,-.17101*
20,1,.1524,1.469846,-.17101,1.433013,-.25,0.0*
1,1,.1524,1.433013,-.25*
20,1,.1524,1.433013,-.25,1.383022,-.321394,0.0*
1,1,.1524,1.383022,-.321394*
20,1,.1524,1.383022,-.321394,1.321394,-.383022,0.0*
1,1,.1524,1.321394,-.383022*
20,1,.1524,1.321394,-.383022,1.25,-.433013,0.0*
1,1,.1524,1.25,-.433013*
20,1,.1524,1.25,-.433013,1.17101,-.469846,0.0*
1,1,.1524,1.17101,-.469846*
20,1,.1524,1.17101,-.469846,1.086824,-.492404,0.0*
1,1,.1524,1.086824,-.492404*
20,1,.1524,1.086824,-.492404,1.,-.5,0.0*
1,1,.1524,1.,-.5*
20,1,.1524,1.,-.5,-1.,-.5,0.0*
1,1,.1524,-1.,-.5*
20,1,.1524,-1.,-.5,-1.086824,-.492404,0.0*
1,1,.1524,-1.086824,-.492404*
20,1,.1524,-1.086824,-.492404,-1.17101,-.469846,0.0*
1,1,.1524,-1.17101,-.469846*
20,1,.1524,-1.17101,-.469846,-1.25,-.433013,0.0*
1,1,.1524,-1.25,-.433013*
20,1,.1524,-1.25,-.433013,-1.321394,-.383022,0.0*
1,1,.1524,-1.321394,-.383022*
20,1,.1524,-1.321394,-.383022,-1.383022,-.321394,0.0*
1,1,.1524,-1.383022,-.321394*
20,1,.1524,-1.383022,-.321394,-1.433013,-.25,0.0*
1,1,.1524,-1.433013,-.25*
20,1,.1524,-1.433013,-.25,-1.469846,-.17101,0.0*
1,1,.1524,-1.469846,-.17101*
20,1,.1524,-1.469846,-.17101,-1.492404,-.086824,0.0*
1,1,.1524,-1.492404,-.086824*
20,1,.1524,-1.492404,-.086824,-1.5,0.0,0.0*
1,1,.1524,-1.5,0.0*
20,1,.1524,-1.5,0.0,-1.492404,.086824,0.0*
1,1,.1524,-1.492404,.086824*
20,1,.1524,-1.492404,.086824,-1.469846,.17101,0.0*
1,1,.1524,-1.469846,.17101*
20,1,.1524,-1.469846,.17101,-1.433013,.25,0.0*
1,1,.1524,-1.433013,.25*
20,1,.1524,-1.433013,.25,-1.383022,.321394,0.0*
1,1,.1524,-1.383022,.321394*
20,1,.1524,-1.383022,.321394,-1.321394,.383022,0.0*
1,1,.1524,-1.321394,.383022*
20,1,.1524,-1.321394,.383022,-1.25,.433013,0.0*
1,1,.1524,-1.25,.433013*
20,1,.1524,-1.25,.433013,-1.17101,.469846,0.0*
1,1,.1524,-1.17101,.469846*
20,1,.1524,-1.17101,.469846,-1.086824,.492404,0.0*
1,1,.1524,-1.086824,.492404*
20,1,.1524,-1.086824,.492404,-1.,.5,0.0*
1,1,.1524,-1.,.5*
1,1,.1524,-.25,-.25*
20,1,.1524,-.25,-.25,-.3167,-.2417,0.0*
1,1,.1524,-.3167,-.2417*
20,1,.1524,-.3167,-.2417,-.375,-.2083,0.0*
1,1,.1524,-.375,-.2083*
20,1,.1524,-.375,-.2083,-.425,-.1583,0.0*
1,1,.1524,-.425,-.1583*
20,1,.1524,-.425,-.1583,-.4583,-.1,0.0*
1,1,.1524,-.4583,-.1*
20,1,.1524,-.4583,-.1,-.475,-.0333,0.0*
1,1,.1524,-.475,-.0333*
20,1,.1524,-.475,-.0333,-.475,.0333,0.0*
1,1,.1524,-.475,.0333*
20,1,.1524,-.475,.0333,-.4583,.1,0.0*
1,1,.1524,-.4583,.1*
20,1,.1524,-.4583,.1,-.425,.1583,0.0*
1,1,.1524,-.425,.1583*
20,1,.1524,-.425,.1583,-.375,.2083,0.0*
1,1,.1524,-.375,.2083*
20,1,.1524,-.375,.2083,-.3167,.2417,0.0*
1,1,.1524,-.3167,.2417*
20,1,.1524,-.3167,.2417,-.25,.25,0.0*
1,1,.1524,-.25,.25*
20,1,.1524,-.25,.25,-.1833,.2417,0.0*
1,1,.1524,-.1833,.2417*
20,1,.1524,-.1833,.2417,-.125,.2083,0.0*
1,1,.1524,-.125,.2083*
20,1,.1524,-.125,.2083,-.075,.1583,0.0*
1,1,.1524,-.075,.1583*
20,1,.1524,-.075,.1583,-.0417,.1,0.0*
1,1,.1524,-.0417,.1*
20,1,.1524,-.0417,.1,-.025,.0333,0.0*
1,1,.1524,-.025,.0333*
20,1,.1524,-.025,.0333,-.025,-.0333,0.0*
1,1,.1524,-.025,-.0333*
20,1,.1524,-.025,-.0333,-.0417,-.1,0.0*
1,1,.1524,-.0417,-.1*
20,1,.1524,-.0417,-.1,-.075,-.1583,0.0*
1,1,.1524,-.075,-.1583*
20,1,.1524,-.075,-.1583,-.125,-.2083,0.0*
1,1,.1524,-.125,-.2083*
20,1,.1524,-.125,-.2083,-.1833,-.2417,0.0*
1,1,.1524,-.1833,-.2417*
20,1,.1524,-.1833,-.2417,-.25,-.25,0.0*
1,1,.1524,-.25,-.25*
1,1,.1524,.0418,-.25*
20,1,.1524,.0418,-.25,.2501,.25,0.0*
1,1,.1524,.2501,.25*
20,1,.1524,.2501,.25,.4584,-.25,0.0*
1,1,.1524,.4584,-.25*
1,1,.1524,.3834,-.075*
20,1,.1524,.3834,-.075,.1168,-.075,0.0*
1,1,.1524,.1168,-.075*
%
%ADD14MACRO14*%
%AMMACRO15*
1,1,.1524,0.0,.45*
20,1,.1524,0.0,.45,-.389711,.225,0.0*
1,1,.1524,-.389711,.225*
20,1,.1524,-.389711,.225,-.389711,-.225,0.0*
1,1,.1524,-.389711,-.225*
20,1,.1524,-.389711,-.225,0.0,-.45,0.0*
1,1,.1524,0.0,-.45*
20,1,.1524,0.0,-.45,.389711,-.225,0.0*
1,1,.1524,.389711,-.225*
20,1,.1524,.389711,-.225,.389711,.225,0.0*
1,1,.1524,.389711,.225*
20,1,.1524,.389711,.225,0.0,.45,0.0*
1,1,.1524,0.0,.45*
%
%ADD15MACRO15*%
%AMMACRO16*
1,1,.1524,.4064,0.0*
20,1,.1524,.4064,0.0,.2032,.351953,0.0*
1,1,.1524,.2032,.351953*
20,1,.1524,.2032,.351953,-.2032,.351953,0.0*
1,1,.1524,-.2032,.351953*
20,1,.1524,-.2032,.351953,-.4064,0.0,0.0*
1,1,.1524,-.4064,0.0*
20,1,.1524,-.4064,0.0,-.2032,-.351953,0.0*
1,1,.1524,-.2032,-.351953*
20,1,.1524,-.2032,-.351953,.2032,-.351953,0.0*
1,1,.1524,.2032,-.351953*
20,1,.1524,.2032,-.351953,.4064,0.0,0.0*
1,1,.1524,.4064,0.0*
%
%ADD16MACRO16*%
%ADD18C,.1524*%
G75*
%LPD*%
G75*
G54D10*
X330000Y330000D03*
Y4150000D03*
X6800000Y330000D03*
Y4150000D03*
X8811730Y1607500D03*
G54D11*
X148680Y754840D03*
Y1008840D03*
Y1262840D03*
Y1516840D03*
Y1770840D03*
Y2024840D03*
Y2278840D03*
Y2532840D03*
Y2786840D03*
Y3040840D03*
Y3294840D03*
Y3548840D03*
X811040Y1175900D03*
Y1429900D03*
X841040Y2305900D03*
Y2559900D03*
X1002100Y3861040D03*
X1090000Y1600000D03*
Y1820000D03*
Y2060000D03*
Y2230000D03*
X1320000Y1600000D03*
Y1820000D03*
Y2060000D03*
Y2230000D03*
X1250100Y2641040D03*
X1256100Y3861040D03*
X1500000Y1090000D03*
Y1180000D03*
X1504100Y2641040D03*
X1440000Y3100000D03*
Y3260000D03*
Y3410000D03*
Y3570000D03*
X1510100Y3861040D03*
X1590000Y3100000D03*
Y3260000D03*
Y3410000D03*
Y3570000D03*
X1764100Y3861040D03*
X2050000Y2020000D03*
X2020000Y2380000D03*
X2060000Y2610000D03*
Y2740000D03*
X2020000Y3920000D03*
X2123640Y1505380D03*
X2180000Y3050000D03*
X2100000D03*
Y3140000D03*
X2180000D03*
X2377640Y1505380D03*
X2380000Y2270000D03*
X2270000Y2610000D03*
X2274420Y2739410D03*
X2260000Y3050000D03*
Y3140000D03*
X2330100Y3461040D03*
X2430100Y1241040D03*
Y1891040D03*
X2500000Y2610000D03*
Y2740000D03*
X2470100Y3941040D03*
X2633800Y1106200D03*
X2684100Y1241040D03*
Y1891040D03*
X2584100Y3461040D03*
X2724100Y3941040D03*
X2903800Y1106200D03*
X2800000Y2630000D03*
X2810000Y2860000D03*
X3010000Y1290000D03*
Y1490000D03*
X2980000Y1980000D03*
X3060000D03*
X2990100Y2231040D03*
X2980100Y2501040D03*
X3024100Y2851040D03*
X2930100Y3461040D03*
X2990100Y3941040D03*
X3186200Y1106200D03*
X3170000Y1980000D03*
X3244100Y2231040D03*
X3234100Y2501040D03*
X3184100Y3461040D03*
X3244100Y3941040D03*
X3300000Y1980000D03*
X3380000D03*
X3340000Y2850000D03*
X3466200Y1106200D03*
X3500000Y2290000D03*
X3580000Y2370000D03*
X3590000Y3000000D03*
X3500000D03*
Y3120000D03*
X3450100Y3461040D03*
X3510100Y3941040D03*
X3710000Y1430000D03*
X3650000Y1680000D03*
X3760000Y2650000D03*
X3670000Y3000000D03*
X3704100Y3461040D03*
X3930000Y1430000D03*
X3780000Y1870000D03*
X3850000Y1970000D03*
X3890000Y2050000D03*
X3860000Y2380000D03*
X3764100Y3941040D03*
X3970000Y530000D03*
X4060000D03*
X3970000Y720000D03*
X4060000D03*
X3994600Y1080000D03*
X4050000Y2120000D03*
X4080000Y2560000D03*
X4100000Y3260000D03*
X4030000Y3330000D03*
X4010000Y3590000D03*
X4100000D03*
Y3780000D03*
X4010000D03*
X4150000Y530000D03*
Y630000D03*
Y720000D03*
X4265400Y1080000D03*
X4140000Y1530000D03*
X4180000Y3450000D03*
X4190000Y3590000D03*
Y3690000D03*
Y3780000D03*
X4410000Y1090000D03*
X4400000Y1530000D03*
Y1660000D03*
X4310000Y2120000D03*
X4300000Y2560000D03*
Y2710000D03*
X4560000Y530000D03*
Y720000D03*
X4584600Y940000D03*
X4520000Y3450000D03*
X4490000Y3875000D03*
X4570000Y3780000D03*
X4740000Y530000D03*
X4650000D03*
X4740000Y630000D03*
Y720000D03*
X4650000D03*
X4630000Y1530000D03*
Y1660000D03*
X4620000Y2560000D03*
Y2710000D03*
X4750000Y3680000D03*
X4720000Y3875000D03*
X4750000Y3780000D03*
X4660000D03*
X4855400Y940000D03*
X4850000Y1530000D03*
Y1670000D03*
X4910000Y2560000D03*
X4880000Y3350000D03*
X4980000Y1242330D03*
Y1358300D03*
Y1841700D03*
Y1957670D03*
Y2397670D03*
Y2281700D03*
Y2872330D03*
Y2988300D03*
Y3100000D03*
X5210000Y970000D03*
X5130000D03*
X5250000Y2000000D03*
X5450000Y1230000D03*
X5370000D03*
X6515560Y822840D03*
Y1076840D03*
Y1330840D03*
Y1584840D03*
Y1838840D03*
Y2092840D03*
Y2346840D03*
Y2600840D03*
Y2854840D03*
Y3108840D03*
Y3362840D03*
Y3616840D03*
X6769560Y822840D03*
Y1076840D03*
Y1330840D03*
Y1584840D03*
Y1838840D03*
Y2092840D03*
Y2346840D03*
Y2600840D03*
Y2854840D03*
Y3108840D03*
Y3362840D03*
Y3616840D03*
X7023560Y822840D03*
Y1076840D03*
Y1330840D03*
Y1584840D03*
Y1838840D03*
Y2092840D03*
Y2346840D03*
Y2600840D03*
Y2854840D03*
Y3108840D03*
Y3362840D03*
Y3616840D03*
X8811730Y4782500D03*
G54D12*
X630000Y3380000D03*
X1230000D03*
X8811730Y972500D03*
G54D13*
X839000Y678000D03*
Y1882000D03*
X5558020Y671420D03*
Y2001420D03*
X5560000Y2470000D03*
Y3800000D03*
X6138020Y671420D03*
Y2001420D03*
X6140000Y2470000D03*
Y3800000D03*
X8811730Y2242500D03*
G54D14*
X950000Y2900000D03*
X8811730Y337500D03*
G54D15*
X1110000Y1155000D03*
Y1405000D03*
X1310000Y1155000D03*
Y1405000D03*
X8811730Y2877500D03*
G54D16*
X5608020Y991420D03*
X5610000Y2790000D03*
X5868020Y991420D03*
X5870000Y2790000D03*
X8811730Y3512500D03*
G54D17*
X5608020Y1241420D03*
Y1441420D03*
Y1691420D03*
X5610000Y3040000D03*
Y3240000D03*
Y3490000D03*
X5868020Y1241420D03*
Y1441420D03*
Y1691420D03*
X5870000Y3040000D03*
Y3240000D03*
Y3490000D03*
X8811730Y4147500D03*
G54D18*
G01X-827300Y2264750D02*
Y2455250D01*
X-915020Y2318730D01*
X-796480D01*
G01X-636800Y2264750D02*
Y2455250D01*
X-724520Y2318730D01*
X-605980D01*
G01X-474750Y2258400D02*
X-479490Y2261580D01*
Y2267920D01*
X-474750Y2271100D01*
X-470010Y2267920D01*
Y2261580D01*
X-474750Y2258400D01*
G01X-284250Y2264750D02*
X-267660Y2267920D01*
X-248690Y2277450D01*
X-236840Y2293320D01*
X-232100Y2315550D01*
X-236840Y2337770D01*
X-251060Y2356820D01*
X-272400Y2366350D01*
X-296100D01*
X-310330Y2372700D01*
X-322180Y2388570D01*
X-326920Y2410800D01*
X-319810Y2433020D01*
X-303220Y2448900D01*
X-284250Y2455250D01*
X-265290Y2448900D01*
X-248690Y2433020D01*
X-241580Y2410800D01*
X-246320Y2388570D01*
X-258170Y2372700D01*
X-272400Y2366350D01*
X-296100D01*
X-317440Y2356820D01*
X-331660Y2337770D01*
X-336400Y2315550D01*
X-331660Y2293320D01*
X-319810Y2277450D01*
X-300840Y2267920D01*
X-284250Y2264750D01*
G01X6800000Y4480000D02*
G02X7130000Y4150000I0J-330000D01*
G01Y330000D01*
G02X6800000Y0I-330000J0D01*
G02X6470000Y330000I0J330000D01*
G01Y380000D01*
G03X6370000Y480000I-100000J0D01*
G01X760000D01*
G03X660000Y380000I0J-100000D01*
G01Y330000D01*
G02X330000Y0I-330000J0D01*
G02X0Y330000I0J330000D01*
G01Y4150000D01*
G02X330000Y4480000I330000J0D01*
G02X660000Y4150000I0J-330000D01*
G01Y4100000D01*
G03X760000Y4000000I100000J0D01*
G01X6370000D01*
G03X6470000Y4100000I0J100000D01*
G01Y4150000D01*
G02X6800000Y4480000I330000J0D01*
G01X3049510Y-245250D02*
X3054250Y-203980D01*
X3061360Y-169050D01*
X3070840Y-137300D01*
X3082700Y-102380D01*
X3101660Y-54750D01*
X3006840D01*
G01X3244750Y-245250D02*
Y-54750D01*
X3216300Y-92850D01*
G01Y-245250D02*
X3273190D01*
G01X3435250Y-251600D02*
X3430510Y-248420D01*
Y-242080D01*
X3435250Y-238900D01*
X3439990Y-242080D01*
Y-248420D01*
X3435250Y-251600D01*
G01X3573600Y-207150D02*
X3587820Y-229380D01*
X3606780Y-242080D01*
X3628120Y-245250D01*
X3647090Y-242080D01*
X3666050Y-226200D01*
X3677900Y-207150D01*
X3680270Y-188100D01*
X3675530Y-165880D01*
X3658940Y-150000D01*
X3642340Y-143650D01*
X3621010D01*
G01X3642340D02*
X3656570Y-134130D01*
X3668420Y-118250D01*
X3673160Y-99200D01*
X3668420Y-80150D01*
X3656570Y-64280D01*
X3635230Y-54750D01*
X3613900Y-57920D01*
X3592560Y-70630D01*
G01X7949520Y5258750D02*
Y5576250D01*
X8099140D01*
G01X8044010Y5422800D02*
X7949520D01*
G01X8292050Y5576250D02*
X8386530D01*
G01X8339290D02*
Y5258750D01*
G01X8292050D02*
X8386530D01*
G01X8677870Y5417500D02*
X8756620D01*
Y5322250D01*
X8732990Y5290490D01*
X8705430Y5269330D01*
X8666060Y5258750D01*
X8626690Y5269330D01*
X8599130Y5290490D01*
X8575510Y5322250D01*
X8559760Y5359290D01*
X8551880Y5401620D01*
Y5438670D01*
X8559760Y5470410D01*
X8575510Y5507460D01*
X8599130Y5539210D01*
X8622750Y5560370D01*
X8654250Y5576250D01*
X8681810D01*
X8713300Y5565670D01*
X8736930Y5544500D01*
G01X8882600Y5576250D02*
Y5348710D01*
X8898340Y5301070D01*
X8929840Y5269330D01*
X8969210Y5258750D01*
X9008580Y5269330D01*
X9040080Y5301070D01*
X9055820Y5348710D01*
Y5576250D01*
G01X9205430Y5258750D02*
Y5576250D01*
X9303850D01*
X9335350Y5560370D01*
X9355040Y5539210D01*
X9362910Y5496870D01*
X9355040Y5454540D01*
X9331410Y5428090D01*
X9303850Y5412200D01*
X9205430D01*
G01X9303850D02*
X9362910Y5258750D01*
G01X9677870D02*
X9520390D01*
Y5576250D01*
X9677870D01*
G01X9614880Y5422800D02*
X9520390D01*
G01X9461330Y5893750D02*
X9559760Y6211250D01*
X9658190Y5893750D01*
G01X9622750Y6004870D02*
X9496760D01*
G01X9795980Y6211250D02*
Y5893750D01*
X9953460D01*
G01X10110940Y6211250D02*
Y5893750D01*
X10268420D01*
G01X10732990Y6211250D02*
Y5983710D01*
X10748730Y5936070D01*
X10780230Y5904330D01*
X10819600Y5893750D01*
X10858970Y5904330D01*
X10890470Y5936070D01*
X10906210Y5983710D01*
Y6211250D01*
G01X11044010Y5893750D02*
Y6211250D01*
X11225110Y5893750D01*
Y6211250D01*
G01X11402280D02*
X11496760D01*
G01X11449520D02*
Y5893750D01*
G01X11402280D02*
X11496760D01*
G01X11764480Y6211250D02*
Y5893750D01*
G01X11673930Y6211250D02*
X11855030D01*
G01X11996760Y5936070D02*
X12028260Y5909620D01*
X12063690Y5893750D01*
X12095190D01*
X12126680Y5909620D01*
X12150310Y5936070D01*
X12162120Y5973130D01*
X12154250Y6010160D01*
X12134560Y6041910D01*
X12099120Y6063090D01*
X12051880Y6073670D01*
X12024320Y6094830D01*
X12012510Y6131870D01*
X12020390Y6168920D01*
X12040070Y6195370D01*
X12067630Y6211250D01*
X12095190D01*
X12122750Y6200670D01*
X12146370Y6174210D01*
G01X12610930Y5893750D02*
X12709360Y6211250D01*
X12807790Y5893750D01*
G01X12772350Y6004870D02*
X12646360D01*
G01X12945580Y5893750D02*
Y6211250D01*
X13044000D01*
X13075500Y6195370D01*
X13095190Y6174210D01*
X13103060Y6131870D01*
X13095190Y6089540D01*
X13071560Y6063090D01*
X13044000Y6047200D01*
X12945580D01*
G01X13044000D02*
X13103060Y5893750D01*
G01X13418020D02*
X13260540D01*
Y6211250D01*
X13418020D01*
G01X13355030Y6057800D02*
X13260540D01*
G01X13921960Y6211250D02*
X14016440D01*
G01X13969200D02*
Y5893750D01*
G01X13921960D02*
X14016440D01*
G01X14193610D02*
Y6211250D01*
X14374710Y5893750D01*
Y6211250D01*
G01X14811710Y5893750D02*
Y6211250D01*
X14914080Y5946670D01*
X15016450Y6211250D01*
Y5893750D01*
G01X15181800Y6211250D02*
X15276280D01*
G01X15229040D02*
Y5893750D01*
G01X15181800D02*
X15276280D01*
G01X15465260Y6211250D02*
Y5893750D01*
X15622740D01*
G01X15780220Y6211250D02*
Y5893750D01*
X15937700D01*
G01X16126680Y6211250D02*
X16221160D01*
G01X16173920D02*
Y5893750D01*
G01X16126680D02*
X16221160D01*
G01X16386510D02*
Y6211250D01*
X16488880Y5946670D01*
X16591250Y6211250D01*
Y5893750D01*
G01X16882580D02*
X16725100D01*
Y6211250D01*
X16882580D01*
G01X16819590Y6057800D02*
X16725100D01*
G01X17118800Y6211250D02*
Y5893750D01*
G01X17028250Y6211250D02*
X17209350D01*
G01X17512500Y5893750D02*
X17355020D01*
Y6211250D01*
X17512500D01*
G01X17449510Y6057800D02*
X17355020D01*
G01X17669980Y5893750D02*
Y6211250D01*
X17768400D01*
X17799900Y6195370D01*
X17819590Y6174210D01*
X17827460Y6131870D01*
X17819590Y6089540D01*
X17795960Y6063090D01*
X17768400Y6047200D01*
X17669980D01*
G01X17768400D02*
X17827460Y5893750D01*
G01X17981000Y5936070D02*
X18012500Y5909620D01*
X18047930Y5893750D01*
X18079430D01*
X18110920Y5909620D01*
X18134550Y5936070D01*
X18146360Y5973130D01*
X18138490Y6010160D01*
X18118800Y6041910D01*
X18083360Y6063090D01*
X18036120Y6073670D01*
X18008560Y6094830D01*
X17996750Y6131870D01*
X18004630Y6168920D01*
X18024310Y6195370D01*
X18051870Y6211250D01*
X18079430D01*
X18106990Y6200670D01*
X18130610Y6174210D01*
G01X9788110Y6543750D02*
Y6861250D01*
X9866840D01*
X9898340Y6845370D01*
X9921960Y6824210D01*
X9941650Y6792460D01*
X9957400Y6755410D01*
X9961330Y6702500D01*
X9957400Y6649580D01*
X9941650Y6612540D01*
X9921960Y6580780D01*
X9898340Y6559620D01*
X9866840Y6543750D01*
X9788110D01*
G01X10110940D02*
Y6861250D01*
X10209360D01*
X10240860Y6845370D01*
X10260550Y6824210D01*
X10268420Y6781870D01*
X10260550Y6739540D01*
X10236920Y6713090D01*
X10209360Y6697200D01*
X10110940D01*
G01X10209360D02*
X10268420Y6543750D01*
G01X10457400Y6861250D02*
X10551880D01*
G01X10504640D02*
Y6543750D01*
G01X10457400D02*
X10551880D01*
G01X10740860Y6861250D02*
Y6543750D01*
X10898340D01*
G01X11055820Y6861250D02*
Y6543750D01*
X11213300D01*
G01X11851090Y6834790D02*
X11827470Y6850670D01*
X11799920Y6861250D01*
X11768420D01*
X11732980Y6845370D01*
X11705430Y6818920D01*
X11685740Y6787160D01*
X11669990Y6734250D01*
X11666050Y6686620D01*
X11673930Y6639000D01*
X11685740Y6607250D01*
X11709360Y6575490D01*
X11736920Y6554330D01*
X11764480Y6543750D01*
X11792040D01*
X11819600Y6554330D01*
X11843220Y6570200D01*
X11862910Y6591360D01*
G01X11996760Y6543750D02*
Y6861250D01*
G01X12162120D02*
Y6543750D01*
G01Y6702500D02*
X11996760D01*
G01X12295970Y6543750D02*
X12394400Y6861250D01*
X12492830Y6543750D01*
G01X12457390Y6654870D02*
X12331400D01*
G01X12630620Y6543750D02*
Y6861250D01*
X12729040D01*
X12760540Y6845370D01*
X12780230Y6824210D01*
X12788100Y6781870D01*
X12780230Y6739540D01*
X12756600Y6713090D01*
X12729040Y6697200D01*
X12630620D01*
G01X12729040D02*
X12788100Y6543750D01*
G01X13024320Y6861250D02*
Y6543750D01*
G01X12933770Y6861250D02*
X13114870D01*
G01X13339280Y6533170D02*
X13331400Y6538460D01*
Y6549040D01*
X13339280Y6554330D01*
X13347160Y6549040D01*
Y6538460D01*
X13339280Y6533170D01*
G01Y6676030D02*
X13331400Y6681330D01*
Y6691910D01*
X13339280Y6697200D01*
X13347160Y6691910D01*
Y6681330D01*
X13339280Y6676030D01*
G01X13969200Y6861250D02*
Y6543750D01*
G01X13878650Y6861250D02*
X14059750D01*
G01X14284160Y6543750D02*
X14252660Y6549040D01*
X14225110Y6570200D01*
X14201480Y6601960D01*
X14185730Y6639000D01*
X14177860Y6681330D01*
Y6723670D01*
X14185730Y6766000D01*
X14201480Y6803040D01*
X14225110Y6834790D01*
X14252660Y6855960D01*
X14284160Y6861250D01*
X14315650Y6855960D01*
X14343210Y6834790D01*
X14366840Y6803040D01*
X14382590Y6766000D01*
X14390460Y6723670D01*
Y6681330D01*
X14382590Y6639000D01*
X14366840Y6601960D01*
X14343210Y6570200D01*
X14315650Y6549040D01*
X14284160Y6543750D01*
G01X14520380D02*
Y6861250D01*
X14614870D01*
X14646360Y6845370D01*
X14669990Y6808330D01*
X14677860Y6766000D01*
X14669990Y6723670D01*
X14650300Y6691910D01*
X14614870Y6676030D01*
X14520380D01*
G01X15229040Y6861250D02*
Y6543750D01*
G01X15173920Y6755410D02*
X15284160D01*
G01X15544000Y6543750D02*
X15520380Y6549040D01*
X15496760Y6570200D01*
X15481000Y6607250D01*
X15473130Y6649580D01*
X15481000Y6691910D01*
X15496760Y6728960D01*
X15520380Y6750120D01*
X15544000Y6755410D01*
X15567620Y6750120D01*
X15591240Y6728960D01*
X15606990Y6691910D01*
X15610930Y6649580D01*
X15606990Y6607250D01*
X15591240Y6570200D01*
X15567620Y6549040D01*
X15544000Y6543750D01*
G01X16205410Y6713090D02*
X16221160Y6728960D01*
X16232970Y6755410D01*
X16240850Y6792460D01*
X16232970Y6824210D01*
X16217230Y6845370D01*
X16189670Y6861250D01*
X16083370D01*
Y6543750D01*
X16213290D01*
X16240850Y6564910D01*
X16256600Y6596670D01*
X16264470Y6633710D01*
X16256600Y6670740D01*
X16232970Y6702500D01*
X16205410Y6713090D01*
X16083370D01*
G01X16488880Y6543750D02*
X16457380Y6549040D01*
X16429830Y6570200D01*
X16406200Y6601960D01*
X16390450Y6639000D01*
X16382580Y6681330D01*
Y6723670D01*
X16390450Y6766000D01*
X16406200Y6803040D01*
X16429830Y6834790D01*
X16457380Y6855960D01*
X16488880Y6861250D01*
X16520370Y6855960D01*
X16547930Y6834790D01*
X16571560Y6803040D01*
X16587310Y6766000D01*
X16595180Y6723670D01*
Y6681330D01*
X16587310Y6639000D01*
X16571560Y6601960D01*
X16547930Y6570200D01*
X16520370Y6549040D01*
X16488880Y6543750D01*
G01X16803840Y6861250D02*
Y6543750D01*
G01X16713290Y6861250D02*
X16894390D01*
G01X17118800D02*
Y6543750D01*
G01X17028250Y6861250D02*
X17209350D01*
G01X17433760Y6543750D02*
X17402260Y6549040D01*
X17374710Y6570200D01*
X17351080Y6601960D01*
X17335330Y6639000D01*
X17327460Y6681330D01*
Y6723670D01*
X17335330Y6766000D01*
X17351080Y6803040D01*
X17374710Y6834790D01*
X17402260Y6855960D01*
X17433760Y6861250D01*
X17465250Y6855960D01*
X17492810Y6834790D01*
X17516440Y6803040D01*
X17532190Y6766000D01*
X17540060Y6723670D01*
Y6681330D01*
X17532190Y6639000D01*
X17516440Y6601960D01*
X17492810Y6570200D01*
X17465250Y6549040D01*
X17433760Y6543750D01*
G01X17646350D02*
Y6861250D01*
X17748720Y6596670D01*
X17851090Y6861250D01*
Y6543750D01*
G01X11323540Y242250D02*
X11347150Y205200D01*
X11378650Y184040D01*
X11414090Y178750D01*
X11445590Y184040D01*
X11477080Y210490D01*
X11496760Y242250D01*
X11500700Y274000D01*
X11492830Y311030D01*
X11465270Y337500D01*
X11437710Y348090D01*
X11402270D01*
G01X11437710D02*
X11461330Y363960D01*
X11481020Y390410D01*
X11488890Y422160D01*
X11481020Y453920D01*
X11461330Y480370D01*
X11425900Y496250D01*
X11390470Y490960D01*
X11355030Y469790D01*
G01X11725110Y168170D02*
X11717230Y173460D01*
Y184040D01*
X11725110Y189330D01*
X11732990Y184040D01*
Y173460D01*
X11725110Y168170D01*
G01X12040070Y496250D02*
X12008570Y485670D01*
X11984950Y459210D01*
X11969200Y427460D01*
X11957390Y385120D01*
X11953460Y337500D01*
X11957390Y289870D01*
X11969200Y247540D01*
X11984950Y215780D01*
X12008570Y189330D01*
X12040070Y178750D01*
X12071560Y189330D01*
X12095190Y215780D01*
X12110940Y247540D01*
X12122750Y289870D01*
X12126680Y337500D01*
X12122750Y385120D01*
X12110940Y427460D01*
X12095190Y459210D01*
X12071560Y485670D01*
X12040070Y496250D01*
G01X12295980Y390410D02*
X12414080Y178750D01*
G01Y390410D02*
X12295980Y178750D01*
G01X12669990D02*
Y496250D01*
X12622750Y432750D01*
G01Y178750D02*
X12717230D01*
G01X12984950Y168170D02*
X12977070Y173460D01*
Y184040D01*
X12984950Y189330D01*
X12992830Y184040D01*
Y173460D01*
X12984950Y168170D01*
G01X13299910Y496250D02*
X13268410Y485670D01*
X13244790Y459210D01*
X13229040Y427460D01*
X13217230Y385120D01*
X13213300Y337500D01*
X13217230Y289870D01*
X13229040Y247540D01*
X13244790Y215780D01*
X13268410Y189330D01*
X13299910Y178750D01*
X13331400Y189330D01*
X13355030Y215780D01*
X13370780Y247540D01*
X13382590Y289870D01*
X13386520Y337500D01*
X13382590Y385120D01*
X13370780Y427460D01*
X13355030Y459210D01*
X13331400Y485670D01*
X13299910Y496250D01*
G01X11323540Y877250D02*
X11347150Y840200D01*
X11378650Y819040D01*
X11414090Y813750D01*
X11445590Y819040D01*
X11477080Y845490D01*
X11496760Y877250D01*
X11500700Y909000D01*
X11492830Y946030D01*
X11465270Y972500D01*
X11437710Y983090D01*
X11402270D01*
G01X11437710D02*
X11461330Y998960D01*
X11481020Y1025410D01*
X11488890Y1057160D01*
X11481020Y1088920D01*
X11461330Y1115370D01*
X11425900Y1131250D01*
X11390470Y1125960D01*
X11355030Y1104790D01*
G01X11725110Y803170D02*
X11717230Y808460D01*
Y819040D01*
X11725110Y824330D01*
X11732990Y819040D01*
Y808460D01*
X11725110Y803170D01*
G01X12040070Y1131250D02*
X12008570Y1120670D01*
X11984950Y1094210D01*
X11969200Y1062460D01*
X11957390Y1020120D01*
X11953460Y972500D01*
X11957390Y924870D01*
X11969200Y882540D01*
X11984950Y850780D01*
X12008570Y824330D01*
X12040070Y813750D01*
X12071560Y824330D01*
X12095190Y850780D01*
X12110940Y882540D01*
X12122750Y924870D01*
X12126680Y972500D01*
X12122750Y1020120D01*
X12110940Y1062460D01*
X12095190Y1094210D01*
X12071560Y1120670D01*
X12040070Y1131250D01*
G01X12295980Y1025410D02*
X12414080Y813750D01*
G01Y1025410D02*
X12295980Y813750D01*
G01X12669990D02*
Y1131250D01*
X12622750Y1067750D01*
G01Y813750D02*
X12717230D01*
G01X12984950Y803170D02*
X12977070Y808460D01*
Y819040D01*
X12984950Y824330D01*
X12992830Y819040D01*
Y808460D01*
X12984950Y803170D01*
G01X13299910Y1131250D02*
X13268410Y1120670D01*
X13244790Y1094210D01*
X13229040Y1062460D01*
X13217230Y1020120D01*
X13213300Y972500D01*
X13217230Y924870D01*
X13229040Y882540D01*
X13244790Y850780D01*
X13268410Y824330D01*
X13299910Y813750D01*
X13331400Y824330D01*
X13355030Y850780D01*
X13370780Y882540D01*
X13382590Y924870D01*
X13386520Y972500D01*
X13382590Y1020120D01*
X13370780Y1062460D01*
X13355030Y1094210D01*
X13331400Y1120670D01*
X13299910Y1131250D01*
G01X11481020Y1512250D02*
X11504630Y1475200D01*
X11536130Y1454040D01*
X11571570Y1448750D01*
X11603070Y1454040D01*
X11634560Y1480490D01*
X11654240Y1512250D01*
X11658180Y1544000D01*
X11650310Y1581030D01*
X11622750Y1607500D01*
X11595190Y1618090D01*
X11559750D01*
G01X11595190D02*
X11618810Y1633960D01*
X11638500Y1660410D01*
X11646370Y1692160D01*
X11638500Y1723920D01*
X11618810Y1750370D01*
X11583380Y1766250D01*
X11547950Y1760960D01*
X11512510Y1739790D01*
G01X11882590Y1438170D02*
X11874710Y1443460D01*
Y1454040D01*
X11882590Y1459330D01*
X11890470Y1454040D01*
Y1443460D01*
X11882590Y1438170D01*
G01X12244790Y1448750D02*
Y1766250D01*
X12099120Y1538710D01*
X12295980D01*
G01X12512510Y1766250D02*
X12481010Y1755670D01*
X12457390Y1729210D01*
X12441640Y1697460D01*
X12429830Y1655120D01*
X12425900Y1607500D01*
X12429830Y1559870D01*
X12441640Y1517540D01*
X12457390Y1485780D01*
X12481010Y1459330D01*
X12512510Y1448750D01*
X12544000Y1459330D01*
X12567630Y1485780D01*
X12583380Y1517540D01*
X12595190Y1559870D01*
X12599120Y1607500D01*
X12595190Y1655120D01*
X12583380Y1697460D01*
X12567630Y1729210D01*
X12544000Y1755670D01*
X12512510Y1766250D01*
G01X12740860Y1512250D02*
X12764470Y1475200D01*
X12795970Y1454040D01*
X12831410Y1448750D01*
X12862910Y1454040D01*
X12894400Y1480490D01*
X12914080Y1512250D01*
X12918020Y1544000D01*
X12910150Y1581030D01*
X12882590Y1607500D01*
X12855030Y1618090D01*
X12819590D01*
G01X12855030D02*
X12878650Y1633960D01*
X12898340Y1660410D01*
X12906210Y1692160D01*
X12898340Y1723920D01*
X12878650Y1750370D01*
X12843220Y1766250D01*
X12807790Y1760960D01*
X12772350Y1739790D01*
G01X13067620Y1581030D02*
X13095190Y1618090D01*
X13118810Y1639250D01*
X13150310Y1649830D01*
X13177870Y1639250D01*
X13197550Y1618090D01*
X13213300Y1586330D01*
X13217240Y1549290D01*
X13213300Y1517540D01*
X13197550Y1485780D01*
X13173920Y1459330D01*
X13146370Y1448750D01*
X13114870Y1459330D01*
X13087310Y1491070D01*
X13071560Y1538710D01*
X13067620Y1591620D01*
X13075500Y1660410D01*
X13087310Y1697460D01*
X13106990Y1734500D01*
X13134550Y1760960D01*
X13162110Y1766250D01*
X13189670Y1755670D01*
X13209360Y1729210D01*
G01X11567630Y3671250D02*
X11536130Y3660670D01*
X11512510Y3634210D01*
X11496760Y3602460D01*
X11484950Y3560120D01*
X11481020Y3512500D01*
X11484950Y3464870D01*
X11496760Y3422540D01*
X11512510Y3390780D01*
X11536130Y3364330D01*
X11567630Y3353750D01*
X11599120Y3364330D01*
X11622750Y3390780D01*
X11638500Y3422540D01*
X11650310Y3464870D01*
X11654240Y3512500D01*
X11650310Y3560120D01*
X11638500Y3602460D01*
X11622750Y3634210D01*
X11599120Y3660670D01*
X11567630Y3671250D01*
G01X11882590Y3343170D02*
X11874710Y3348460D01*
Y3359040D01*
X11882590Y3364330D01*
X11890470Y3359040D01*
Y3348460D01*
X11882590Y3343170D01*
G01X12197550Y3353750D02*
X12225110Y3359040D01*
X12256600Y3374910D01*
X12276290Y3401360D01*
X12284160Y3438420D01*
X12276290Y3475450D01*
X12252670Y3507200D01*
X12217230Y3523090D01*
X12177870D01*
X12154240Y3533670D01*
X12134550Y3560120D01*
X12126680Y3597160D01*
X12138500Y3634210D01*
X12166050Y3660670D01*
X12197550Y3671250D01*
X12229040Y3660670D01*
X12256600Y3634210D01*
X12268420Y3597160D01*
X12260540Y3560120D01*
X12240860Y3533670D01*
X12217230Y3523090D01*
X12177870D01*
X12142430Y3507200D01*
X12118810Y3475450D01*
X12110940Y3438420D01*
X12118810Y3401360D01*
X12138500Y3374910D01*
X12169990Y3359040D01*
X12197550Y3353750D01*
G01X12512510D02*
Y3671250D01*
X12465270Y3607750D01*
G01Y3353750D02*
X12559750D01*
G01X12752660Y3618330D02*
X12776290Y3650080D01*
X12803850Y3665960D01*
X12835350Y3671250D01*
X12874710Y3660670D01*
X12902280Y3634210D01*
X12910150Y3602460D01*
X12906210Y3570700D01*
X12890460Y3544250D01*
X12811720Y3491330D01*
X12776290Y3454290D01*
X12752660Y3401360D01*
X12744790Y3353750D01*
X12910150D01*
G01X13142430D02*
X13169990Y3359040D01*
X13201480Y3374910D01*
X13221170Y3401360D01*
X13229040Y3438420D01*
X13221170Y3475450D01*
X13197550Y3507200D01*
X13162110Y3523090D01*
X13122750D01*
X13099120Y3533670D01*
X13079430Y3560120D01*
X13071560Y3597160D01*
X13083380Y3634210D01*
X13110930Y3660670D01*
X13142430Y3671250D01*
X13173920Y3660670D01*
X13201480Y3634210D01*
X13213300Y3597160D01*
X13205420Y3560120D01*
X13185740Y3533670D01*
X13162110Y3523090D01*
X13122750D01*
X13087310Y3507200D01*
X13063690Y3475450D01*
X13055820Y3438420D01*
X13063690Y3401360D01*
X13083380Y3374910D01*
X13114870Y3359040D01*
X13142430Y3353750D01*
G01X11567630Y4941250D02*
X11536130Y4930670D01*
X11512510Y4904210D01*
X11496760Y4872460D01*
X11484950Y4830120D01*
X11481020Y4782500D01*
X11484950Y4734870D01*
X11496760Y4692540D01*
X11512510Y4660780D01*
X11536130Y4634330D01*
X11567630Y4623750D01*
X11599120Y4634330D01*
X11622750Y4660780D01*
X11638500Y4692540D01*
X11650310Y4734870D01*
X11654240Y4782500D01*
X11650310Y4830120D01*
X11638500Y4872460D01*
X11622750Y4904210D01*
X11599120Y4930670D01*
X11567630Y4941250D01*
G01X11882590Y4613170D02*
X11874710Y4618460D01*
Y4629040D01*
X11882590Y4634330D01*
X11890470Y4629040D01*
Y4618460D01*
X11882590Y4613170D01*
G01X12110940Y4687250D02*
X12134550Y4650200D01*
X12166050Y4629040D01*
X12201490Y4623750D01*
X12232990Y4629040D01*
X12264480Y4655490D01*
X12284160Y4687250D01*
X12288100Y4719000D01*
X12280230Y4756030D01*
X12252670Y4782500D01*
X12225110Y4793090D01*
X12189670D01*
G01X12225110D02*
X12248730Y4808960D01*
X12268420Y4835410D01*
X12276290Y4867160D01*
X12268420Y4898920D01*
X12248730Y4925370D01*
X12213300Y4941250D01*
X12177870Y4935960D01*
X12142430Y4914790D01*
G01X12512510Y4941250D02*
X12481010Y4930670D01*
X12457390Y4904210D01*
X12441640Y4872460D01*
X12429830Y4830120D01*
X12425900Y4782500D01*
X12429830Y4734870D01*
X12441640Y4692540D01*
X12457390Y4660780D01*
X12481010Y4634330D01*
X12512510Y4623750D01*
X12544000Y4634330D01*
X12567630Y4660780D01*
X12583380Y4692540D01*
X12595190Y4734870D01*
X12599120Y4782500D01*
X12595190Y4830120D01*
X12583380Y4872460D01*
X12567630Y4904210D01*
X12544000Y4930670D01*
X12512510Y4941250D01*
G01X12874710Y4623750D02*
Y4941250D01*
X12729040Y4713710D01*
X12925900D01*
G01X13142430Y4623750D02*
X13169990Y4629040D01*
X13201480Y4644910D01*
X13221170Y4671360D01*
X13229040Y4708420D01*
X13221170Y4745450D01*
X13197550Y4777200D01*
X13162110Y4793090D01*
X13122750D01*
X13099120Y4803670D01*
X13079430Y4830120D01*
X13071560Y4867160D01*
X13083380Y4904210D01*
X13110930Y4930670D01*
X13142430Y4941250D01*
X13173920Y4930670D01*
X13201480Y4904210D01*
X13213300Y4867160D01*
X13205420Y4830120D01*
X13185740Y4803670D01*
X13162110Y4793090D01*
X13122750D01*
X13087310Y4777200D01*
X13063690Y4745450D01*
X13055820Y4708420D01*
X13063690Y4671360D01*
X13083380Y4644910D01*
X13114870Y4629040D01*
X13142430Y4623750D01*
G01X11799910Y5301070D02*
X11831410Y5274620D01*
X11866840Y5258750D01*
X11898340D01*
X11929830Y5274620D01*
X11953460Y5301070D01*
X11965270Y5338130D01*
X11957400Y5375160D01*
X11937710Y5406910D01*
X11902270Y5428090D01*
X11855030Y5438670D01*
X11827470Y5459830D01*
X11815660Y5496870D01*
X11823540Y5533920D01*
X11843220Y5560370D01*
X11870780Y5576250D01*
X11898340D01*
X11925900Y5565670D01*
X11949520Y5539210D01*
G01X12150310Y5576250D02*
X12244790D01*
G01X12197550D02*
Y5258750D01*
G01X12150310D02*
X12244790D01*
G01X12437700Y5576250D02*
X12587320D01*
X12437700Y5258750D01*
X12587320D01*
G01X12906210D02*
X12748730D01*
Y5576250D01*
X12906210D01*
G01X12843220Y5422800D02*
X12748730D01*
G01X11965260Y2348330D02*
X11988890Y2380080D01*
X12016450Y2395960D01*
X12047950Y2401250D01*
X12087310Y2390670D01*
X12114880Y2364210D01*
X12122750Y2332460D01*
X12118810Y2300700D01*
X12103060Y2274250D01*
X12024320Y2221330D01*
X11988890Y2184290D01*
X11965260Y2131360D01*
X11957390Y2083750D01*
X12122750D01*
G01X12355030Y2073170D02*
X12347150Y2078460D01*
Y2089040D01*
X12355030Y2094330D01*
X12362910Y2089040D01*
Y2078460D01*
X12355030Y2073170D01*
G01X12583380Y2147250D02*
X12606990Y2110200D01*
X12638490Y2089040D01*
X12673930Y2083750D01*
X12705430Y2089040D01*
X12736920Y2115490D01*
X12756600Y2147250D01*
X12760540Y2179000D01*
X12752670Y2216030D01*
X12725110Y2242500D01*
X12697550Y2253090D01*
X12662110D01*
G01X12697550D02*
X12721170Y2268960D01*
X12740860Y2295410D01*
X12748730Y2327160D01*
X12740860Y2358920D01*
X12721170Y2385370D01*
X12685740Y2401250D01*
X12650310Y2395960D01*
X12614870Y2374790D01*
G01X12040070Y3036250D02*
X12008570Y3025670D01*
X11984950Y2999210D01*
X11969200Y2967460D01*
X11957390Y2925120D01*
X11953460Y2877500D01*
X11957390Y2829870D01*
X11969200Y2787540D01*
X11984950Y2755780D01*
X12008570Y2729330D01*
X12040070Y2718750D01*
X12071560Y2729330D01*
X12095190Y2755780D01*
X12110940Y2787540D01*
X12122750Y2829870D01*
X12126680Y2877500D01*
X12122750Y2925120D01*
X12110940Y2967460D01*
X12095190Y2999210D01*
X12071560Y3025670D01*
X12040070Y3036250D01*
G01X12355030Y2708170D02*
X12347150Y2713460D01*
Y2724040D01*
X12355030Y2729330D01*
X12362910Y2724040D01*
Y2713460D01*
X12355030Y2708170D01*
G01X12603060Y2755780D02*
X12630620Y2729330D01*
X12662110Y2718750D01*
X12693610Y2729330D01*
X12721170Y2761070D01*
X12740860Y2808710D01*
X12748730Y2856330D01*
Y2914540D01*
X12740860Y2962160D01*
X12721170Y3004500D01*
X12697550Y3025670D01*
X12669990Y3036250D01*
X12638490Y3025670D01*
X12614870Y3004500D01*
X12599120Y2972750D01*
X12591250Y2930410D01*
X12599120Y2893380D01*
X12618810Y2856330D01*
X12642430Y2835160D01*
X12669990Y2829870D01*
X12701480Y2840450D01*
X12725110Y2866910D01*
X12748730Y2914540D01*
G01X12040070Y4306250D02*
X12008570Y4295670D01*
X11984950Y4269210D01*
X11969200Y4237460D01*
X11957390Y4195120D01*
X11953460Y4147500D01*
X11957390Y4099870D01*
X11969200Y4057540D01*
X11984950Y4025780D01*
X12008570Y3999330D01*
X12040070Y3988750D01*
X12071560Y3999330D01*
X12095190Y4025780D01*
X12110940Y4057540D01*
X12122750Y4099870D01*
X12126680Y4147500D01*
X12122750Y4195120D01*
X12110940Y4237460D01*
X12095190Y4269210D01*
X12071560Y4295670D01*
X12040070Y4306250D01*
G01X12355030Y3978170D02*
X12347150Y3983460D01*
Y3994040D01*
X12355030Y3999330D01*
X12362910Y3994040D01*
Y3983460D01*
X12355030Y3978170D01*
G01X12669990Y3988750D02*
X12697550Y3994040D01*
X12729040Y4009910D01*
X12748730Y4036360D01*
X12756600Y4073420D01*
X12748730Y4110450D01*
X12725110Y4142200D01*
X12689670Y4158090D01*
X12650310D01*
X12626680Y4168670D01*
X12606990Y4195120D01*
X12599120Y4232160D01*
X12610940Y4269210D01*
X12638490Y4295670D01*
X12669990Y4306250D01*
X12701480Y4295670D01*
X12729040Y4269210D01*
X12740860Y4232160D01*
X12732980Y4195120D01*
X12713300Y4168670D01*
X12689670Y4158090D01*
X12650310D01*
X12614870Y4142200D01*
X12591250Y4110450D01*
X12583380Y4073420D01*
X12591250Y4036360D01*
X12610940Y4009910D01*
X12642430Y3994040D01*
X12669990Y3988750D01*
G01X15504630Y178750D02*
Y496250D01*
X15599120D01*
X15630610Y480370D01*
X15654240Y443330D01*
X15662110Y401000D01*
X15654240Y358670D01*
X15634550Y326910D01*
X15599120Y311030D01*
X15504630D01*
G01X15819590Y496250D02*
Y178750D01*
X15977070D01*
G01X16114860D02*
X16213290Y496250D01*
X16311720Y178750D01*
G01X16276280Y289870D02*
X16150290D01*
G01X16528250Y496250D02*
Y178750D01*
G01X16437700Y496250D02*
X16618800D01*
G01X16921950Y178750D02*
X16764470D01*
Y496250D01*
X16921950D01*
G01X16858960Y342800D02*
X16764470D01*
G01X17071560Y178750D02*
Y496250D01*
X17150290D01*
X17181790Y480370D01*
X17205410Y459210D01*
X17225100Y427460D01*
X17240850Y390410D01*
X17244780Y337500D01*
X17240850Y284580D01*
X17225100Y247540D01*
X17205410Y215780D01*
X17181790Y194620D01*
X17150290Y178750D01*
X17071560D01*
G01X15504630Y813750D02*
Y1131250D01*
X15599120D01*
X15630610Y1115370D01*
X15654240Y1078330D01*
X15662110Y1036000D01*
X15654240Y993670D01*
X15634550Y961910D01*
X15599120Y946030D01*
X15504630D01*
G01X15819590Y1131250D02*
Y813750D01*
X15977070D01*
G01X16114860D02*
X16213290Y1131250D01*
X16311720Y813750D01*
G01X16276280Y924870D02*
X16150290D01*
G01X16528250Y1131250D02*
Y813750D01*
G01X16437700Y1131250D02*
X16618800D01*
G01X16921950Y813750D02*
X16764470D01*
Y1131250D01*
X16921950D01*
G01X16858960Y977800D02*
X16764470D01*
G01X17071560Y813750D02*
Y1131250D01*
X17150290D01*
X17181790Y1115370D01*
X17205410Y1094210D01*
X17225100Y1062460D01*
X17240850Y1025410D01*
X17244780Y972500D01*
X17240850Y919580D01*
X17225100Y882540D01*
X17205410Y850780D01*
X17181790Y829620D01*
X17150290Y813750D01*
X17071560D01*
G01X15504630Y1448750D02*
Y1766250D01*
X15599120D01*
X15630610Y1750370D01*
X15654240Y1713330D01*
X15662110Y1671000D01*
X15654240Y1628670D01*
X15634550Y1596910D01*
X15599120Y1581030D01*
X15504630D01*
G01X15819590Y1766250D02*
Y1448750D01*
X15977070D01*
G01X16114860D02*
X16213290Y1766250D01*
X16311720Y1448750D01*
G01X16276280Y1559870D02*
X16150290D01*
G01X16528250Y1766250D02*
Y1448750D01*
G01X16437700Y1766250D02*
X16618800D01*
G01X16921950Y1448750D02*
X16764470D01*
Y1766250D01*
X16921950D01*
G01X16858960Y1612800D02*
X16764470D01*
G01X17071560Y1448750D02*
Y1766250D01*
X17150290D01*
X17181790Y1750370D01*
X17205410Y1729210D01*
X17225100Y1697460D01*
X17240850Y1660410D01*
X17244780Y1607500D01*
X17240850Y1554580D01*
X17225100Y1517540D01*
X17205410Y1485780D01*
X17181790Y1464620D01*
X17150290Y1448750D01*
X17071560D01*
G01X15504630Y2083750D02*
Y2401250D01*
X15599120D01*
X15630610Y2385370D01*
X15654240Y2348330D01*
X15662110Y2306000D01*
X15654240Y2263670D01*
X15634550Y2231910D01*
X15599120Y2216030D01*
X15504630D01*
G01X15819590Y2401250D02*
Y2083750D01*
X15977070D01*
G01X16114860D02*
X16213290Y2401250D01*
X16311720Y2083750D01*
G01X16276280Y2194870D02*
X16150290D01*
G01X16528250Y2401250D02*
Y2083750D01*
G01X16437700Y2401250D02*
X16618800D01*
G01X16921950Y2083750D02*
X16764470D01*
Y2401250D01*
X16921950D01*
G01X16858960Y2247800D02*
X16764470D01*
G01X17071560Y2083750D02*
Y2401250D01*
X17150290D01*
X17181790Y2385370D01*
X17205410Y2364210D01*
X17225100Y2332460D01*
X17240850Y2295410D01*
X17244780Y2242500D01*
X17240850Y2189580D01*
X17225100Y2152540D01*
X17205410Y2120780D01*
X17181790Y2099620D01*
X17150290Y2083750D01*
X17071560D01*
G01X15504630Y2718750D02*
Y3036250D01*
X15599120D01*
X15630610Y3020370D01*
X15654240Y2983330D01*
X15662110Y2941000D01*
X15654240Y2898670D01*
X15634550Y2866910D01*
X15599120Y2851030D01*
X15504630D01*
G01X15819590Y3036250D02*
Y2718750D01*
X15977070D01*
G01X16114860D02*
X16213290Y3036250D01*
X16311720Y2718750D01*
G01X16276280Y2829870D02*
X16150290D01*
G01X16528250Y3036250D02*
Y2718750D01*
G01X16437700Y3036250D02*
X16618800D01*
G01X16921950Y2718750D02*
X16764470D01*
Y3036250D01*
X16921950D01*
G01X16858960Y2882800D02*
X16764470D01*
G01X17071560Y2718750D02*
Y3036250D01*
X17150290D01*
X17181790Y3020370D01*
X17205410Y2999210D01*
X17225100Y2967460D01*
X17240850Y2930410D01*
X17244780Y2877500D01*
X17240850Y2824580D01*
X17225100Y2787540D01*
X17205410Y2755780D01*
X17181790Y2734620D01*
X17150290Y2718750D01*
X17071560D01*
G01X15504630Y3353750D02*
Y3671250D01*
X15599120D01*
X15630610Y3655370D01*
X15654240Y3618330D01*
X15662110Y3576000D01*
X15654240Y3533670D01*
X15634550Y3501910D01*
X15599120Y3486030D01*
X15504630D01*
G01X15819590Y3671250D02*
Y3353750D01*
X15977070D01*
G01X16114860D02*
X16213290Y3671250D01*
X16311720Y3353750D01*
G01X16276280Y3464870D02*
X16150290D01*
G01X16528250Y3671250D02*
Y3353750D01*
G01X16437700Y3671250D02*
X16618800D01*
G01X16921950Y3353750D02*
X16764470D01*
Y3671250D01*
X16921950D01*
G01X16858960Y3517800D02*
X16764470D01*
G01X17071560Y3353750D02*
Y3671250D01*
X17150290D01*
X17181790Y3655370D01*
X17205410Y3634210D01*
X17225100Y3602460D01*
X17240850Y3565410D01*
X17244780Y3512500D01*
X17240850Y3459580D01*
X17225100Y3422540D01*
X17205410Y3390780D01*
X17181790Y3369620D01*
X17150290Y3353750D01*
X17071560D01*
G01X15504630Y3988750D02*
Y4306250D01*
X15599120D01*
X15630610Y4290370D01*
X15654240Y4253330D01*
X15662110Y4211000D01*
X15654240Y4168670D01*
X15634550Y4136910D01*
X15599120Y4121030D01*
X15504630D01*
G01X15819590Y4306250D02*
Y3988750D01*
X15977070D01*
G01X16114860D02*
X16213290Y4306250D01*
X16311720Y3988750D01*
G01X16276280Y4099870D02*
X16150290D01*
G01X16528250Y4306250D02*
Y3988750D01*
G01X16437700Y4306250D02*
X16618800D01*
G01X16921950Y3988750D02*
X16764470D01*
Y4306250D01*
X16921950D01*
G01X16858960Y4152800D02*
X16764470D01*
G01X17071560Y3988750D02*
Y4306250D01*
X17150290D01*
X17181790Y4290370D01*
X17205410Y4269210D01*
X17225100Y4237460D01*
X17240850Y4200410D01*
X17244780Y4147500D01*
X17240850Y4094580D01*
X17225100Y4057540D01*
X17205410Y4025780D01*
X17181790Y4004620D01*
X17150290Y3988750D01*
X17071560D01*
G01X15504630Y4623750D02*
Y4941250D01*
X15599120D01*
X15630610Y4925370D01*
X15654240Y4888330D01*
X15662110Y4846000D01*
X15654240Y4803670D01*
X15634550Y4771910D01*
X15599120Y4756030D01*
X15504630D01*
G01X15819590Y4941250D02*
Y4623750D01*
X15977070D01*
G01X16114860D02*
X16213290Y4941250D01*
X16311720Y4623750D01*
G01X16276280Y4734870D02*
X16150290D01*
G01X16528250Y4941250D02*
Y4623750D01*
G01X16437700Y4941250D02*
X16618800D01*
G01X16921950Y4623750D02*
X16764470D01*
Y4941250D01*
X16921950D01*
G01X16858960Y4787800D02*
X16764470D01*
G01X17071560Y4623750D02*
Y4941250D01*
X17150290D01*
X17181790Y4925370D01*
X17205410Y4904210D01*
X17225100Y4872460D01*
X17240850Y4835410D01*
X17244780Y4782500D01*
X17240850Y4729580D01*
X17225100Y4692540D01*
X17205410Y4660780D01*
X17181790Y4639620D01*
X17150290Y4623750D01*
X17071560D01*
G01X15504630Y5258750D02*
Y5576250D01*
X15599120D01*
X15630610Y5560370D01*
X15654240Y5523330D01*
X15662110Y5481000D01*
X15654240Y5438670D01*
X15634550Y5406910D01*
X15599120Y5391030D01*
X15504630D01*
G01X15819590Y5576250D02*
Y5258750D01*
X15977070D01*
G01X16114860D02*
X16213290Y5576250D01*
X16311720Y5258750D01*
G01X16276280Y5369870D02*
X16150290D01*
G01X16528250Y5576250D02*
Y5258750D01*
G01X16437700Y5576250D02*
X16618800D01*
G01X16921950Y5258750D02*
X16764470D01*
Y5576250D01*
X16921950D01*
G01X16858960Y5422800D02*
X16764470D01*
G01X17071560Y5258750D02*
Y5576250D01*
X17150290D01*
X17181790Y5560370D01*
X17205410Y5539210D01*
X17225100Y5507460D01*
X17240850Y5470410D01*
X17244780Y5417500D01*
X17240850Y5364580D01*
X17225100Y5327540D01*
X17205410Y5295780D01*
X17181790Y5274620D01*
X17150290Y5258750D01*
X17071560D01*
G01X18579420Y4888330D02*
X18603050Y4920080D01*
X18630610Y4935960D01*
X18662110Y4941250D01*
X18701470Y4930670D01*
X18729040Y4904210D01*
X18736910Y4872460D01*
X18732970Y4840700D01*
X18717220Y4814250D01*
X18638480Y4761330D01*
X18603050Y4724290D01*
X18579420Y4671360D01*
X18571550Y4623750D01*
X18736910D01*
G01X18969190Y4941250D02*
X18937690Y4930670D01*
X18914070Y4904210D01*
X18898320Y4872460D01*
X18886510Y4830120D01*
X18882580Y4782500D01*
X18886510Y4734870D01*
X18898320Y4692540D01*
X18914070Y4660780D01*
X18937690Y4634330D01*
X18969190Y4623750D01*
X19000680Y4634330D01*
X19024310Y4660780D01*
X19040060Y4692540D01*
X19051870Y4734870D01*
X19055800Y4782500D01*
X19051870Y4830120D01*
X19040060Y4872460D01*
X19024310Y4904210D01*
X19000680Y4930670D01*
X18969190Y4941250D01*
G01X19217220Y4660780D02*
X19244780Y4634330D01*
X19276270Y4623750D01*
X19307770Y4634330D01*
X19335330Y4666070D01*
X19355020Y4713710D01*
X19362890Y4761330D01*
Y4819540D01*
X19355020Y4867160D01*
X19335330Y4909500D01*
X19311710Y4930670D01*
X19284150Y4941250D01*
X19252650Y4930670D01*
X19229030Y4909500D01*
X19213280Y4877750D01*
X19205410Y4835410D01*
X19213280Y4798380D01*
X19232970Y4761330D01*
X19256590Y4740160D01*
X19284150Y4734870D01*
X19315640Y4745450D01*
X19339270Y4771910D01*
X19362890Y4819540D01*
G01X18654230Y5258750D02*
X18622730Y5264040D01*
X18595180Y5285200D01*
X18571550Y5316960D01*
X18555800Y5354000D01*
X18547930Y5396330D01*
Y5438670D01*
X18555800Y5481000D01*
X18571550Y5518040D01*
X18595180Y5549790D01*
X18622730Y5570960D01*
X18654230Y5576250D01*
X18685720Y5570960D01*
X18713280Y5549790D01*
X18736910Y5518040D01*
X18752660Y5481000D01*
X18760530Y5438670D01*
Y5396330D01*
X18752660Y5354000D01*
X18736910Y5316960D01*
X18713280Y5285200D01*
X18685720Y5264040D01*
X18654230Y5258750D01*
G01X18685720Y5343420D02*
X18732970Y5258750D01*
G01X18969190Y5576250D02*
Y5258750D01*
G01X18878640Y5576250D02*
X19059740D01*
G01X19284150Y5258750D02*
Y5401620D01*
X19205410Y5576250D01*
G01X19362890D02*
X19284150Y5401620D01*
G01X18811710Y2083750D02*
Y2401250D01*
X18764470Y2337750D01*
G01Y2083750D02*
X18858950D01*
G01X19126670Y2401250D02*
X19095170Y2390670D01*
X19071550Y2364210D01*
X19055800Y2332460D01*
X19043990Y2290120D01*
X19040060Y2242500D01*
X19043990Y2194870D01*
X19055800Y2152540D01*
X19071550Y2120780D01*
X19095170Y2094330D01*
X19126670Y2083750D01*
X19158160Y2094330D01*
X19181790Y2120780D01*
X19197540Y2152540D01*
X19209350Y2194870D01*
X19213280Y2242500D01*
X19209350Y2290120D01*
X19197540Y2332460D01*
X19181790Y2364210D01*
X19158160Y2390670D01*
X19126670Y2401250D01*
G01X18811710Y3988750D02*
Y4306250D01*
X18764470Y4242750D01*
G01Y3988750D02*
X18858950D01*
G01X19051860Y4253330D02*
X19075490Y4285080D01*
X19103050Y4300960D01*
X19134550Y4306250D01*
X19173910Y4295670D01*
X19201480Y4269210D01*
X19209350Y4237460D01*
X19205410Y4205700D01*
X19189660Y4179250D01*
X19110920Y4126330D01*
X19075490Y4089290D01*
X19051860Y4036360D01*
X19043990Y3988750D01*
X19209350D01*
G01X18969190Y178750D02*
Y496250D01*
X18921950Y432750D01*
G01Y178750D02*
X19016430D01*
G01X18894380Y1078330D02*
X18918010Y1110080D01*
X18945570Y1125960D01*
X18977070Y1131250D01*
X19016430Y1120670D01*
X19044000Y1094210D01*
X19051870Y1062460D01*
X19047930Y1030700D01*
X19032180Y1004250D01*
X18953440Y951330D01*
X18918010Y914290D01*
X18894380Y861360D01*
X18886510Y813750D01*
X19051870D01*
G01X19016430Y1448750D02*
Y1766250D01*
X18870760Y1538710D01*
X19067620D01*
G01X19016430Y2718750D02*
Y3036250D01*
X18870760Y2808710D01*
X19067620D01*
G01X19016430Y3353750D02*
Y3671250D01*
X18870760Y3443710D01*
X19067620D01*
G01X80000Y0D02*
X-820000D01*
G01X80000Y4480000D02*
X-820000D01*
G01X-570000Y2114260D02*
Y0D01*
G01X-632500Y400000D02*
X-570000Y0D01*
X-507500Y400000D01*
X-632500D01*
G01X-570000Y2605740D02*
Y4480000D01*
G01X-507500Y4080000D02*
X-570000Y4480000D01*
X-632500Y4080000D01*
X-507500D01*
G01X0Y260000D02*
Y-400000D01*
G01X400000Y-87500D02*
X0Y-150000D01*
X400000Y-212500D01*
Y-87500D01*
G01X2832640Y-150000D02*
X0D01*
G01X3847360D02*
X7130000D01*
G01X6730000Y-212500D02*
X7130000Y-150000D01*
X6730000Y-87500D01*
Y-212500D01*
G01X7130000Y260000D02*
Y-400000D01*
G01X7670000Y20000D02*
Y7020000D01*
X19953440D01*
Y20000D01*
X7670000D01*
G01Y655000D02*
X19953440D01*
G01X7670000Y1290000D02*
X19953440D01*
G01X7670000Y1925000D02*
X19953440D01*
G01X7670000Y2560000D02*
X19953440D01*
G01X7670000Y3195000D02*
X19953440D01*
G01X7670000Y3830000D02*
X19953440D01*
G01X7670000Y4465000D02*
X19953440D01*
G01X7670000Y5100000D02*
X19953440D01*
G01X7670000Y5735000D02*
X19953440D01*
G01X7670000Y6370000D02*
X19953440D01*
G01X9953460Y5735000D02*
Y20000D01*
G01X14756600Y5735000D02*
Y20000D01*
G01X17984940Y5735000D02*
Y20000D01*
M02*
