G04 ================== begin FILE IDENTIFICATION RECORD ==================*
G04 Layout Name:  E:/GitHub/MBEDBoard/USBHUB_V10A/PCB/USBHUB_V10A.brd*
G04 Film Name:    TOP*
G04 File Format:  Gerber RS274X*
G04 File Origin:  Cadence Allegro 16.6-2015-S071*
G04 Origin Date:  Wed Nov 02 15:51:48 2016*
G04 *
G04 Layer:  BOARD GEOMETRY/OUTLINE*
G04 Layer:  VIA CLASS/TOP*
G04 Layer:  PIN/TOP*
G04 Layer:  ETCH/TOP*
G04 *
G04 Offset:    (0.0000 0.0000)*
G04 Mirror:    No*
G04 Mode:      Positive*
G04 Rotation:  0*
G04 FullContactRelief:  No*
G04 UndefLineWidth:     0.1524*
G04 ================== end FILE IDENTIFICATION RECORD ====================*
%FSLAX55Y55*MOMM*%
%IR0*IPPOS*OFA0.00000B0.00000*MIA0B0*SFA1.00000B1.00000*%
%ADD26R,.5X1.45*%
%ADD25R,1.45X.5*%
%ADD19R,1.06X.65*%
%ADD11C,.6096*%
%ADD14O,4.X2.*%
%ADD12O,2.X4.*%
%ADD24R,5.5X2.*%
%ADD13C,3.3*%
%ADD20R,1.27X1.27*%
%ADD15C,1.6*%
%ADD18C,1.016*%
%ADD21R,1.2192X1.016*%
%ADD29C,1.27*%
%ADD16R,1.6X1.6*%
%ADD10C,6.35*%
%ADD28R,1.27X1.27*%
%ADD17R,.4318X.8128*%
%ADD27R,.8128X.4318*%
%ADD23R,.9144X.9144*%
%ADD22R,.9144X.9144*%
%ADD30C,.7*%
%ADD31C,.2032*%
%ADD32C,.254*%
%ADD33C,.7112*%
%ADD34C,.1524*%
%ADD35C,.508*%
%ADD37C,4.2148*%
%ADD36C,2.1848*%
G75*
%LPD*%
G75*
G36*
G01X692530Y469540D02*
G02X661890Y477630I-12073J16344D01*
G03X46200Y556710I-331885J-147631D01*
G02X10000Y569390I-15879J12681D01*
G01Y3910610D01*
G02X46200Y3923290I20321J-1D01*
G03X661890Y4002370I283805J226711D01*
G02X692530Y4010460I18567J-8254D01*
G03X759770Y3989990I62472J84540D01*
G01X760010Y3990000D01*
X3808300D01*
G02X3822670Y3955310I0J-20321D01*
G01X3791560Y3924210D01*
Y3795740D01*
X3184260D01*
Y3504260D01*
X3245360D01*
Y3380390D01*
X3225680Y3358120D01*
X3215000Y3348690D01*
X3189240Y3371460D01*
X2882340D01*
Y3368870D01*
X2869220Y3363900D01*
X2854640Y3380390D01*
Y3504260D01*
X2875740D01*
Y3795740D01*
X2234260D01*
Y3504260D01*
X2737760D01*
Y3380390D01*
X2704740Y3343040D01*
Y3188540D01*
X2805010D01*
X3081560Y2911990D01*
Y2803860D01*
X3069260Y2788840D01*
Y2581760D01*
X3290740D01*
Y2788840D01*
X3278440Y2803860D01*
Y3058010D01*
X3165250Y3171200D01*
G02X3172430Y3188540I7186J7181D01*
G01X3189240D01*
X3215000Y3211310D01*
X3240760Y3188540D01*
X3404260D01*
Y2941050D01*
X3426610Y2918700D01*
Y2901720D01*
X3388860Y2863970D01*
Y2540530D01*
X3428860Y2500530D01*
Y2499470D01*
X3370530Y2441140D01*
X2928240D01*
Y2600740D01*
X2720820D01*
X2703180Y2585900D01*
X2696800D01*
X2677120Y2566220D01*
X2467170D01*
X2357170Y2456220D01*
X2216630D01*
X2195260Y2477590D01*
Y2581460D01*
X2040440D01*
X2034640Y2576210D01*
G02X2017660Y2583740I-6821J7528D01*
G01Y2731460D01*
X1948440D01*
Y2776760D01*
X2084140D01*
Y2944260D01*
X2258950D01*
X2299470Y2984790D01*
X2300450Y2985400D01*
G03X2324600Y3009550I-40450J64600D01*
G01X2325210Y3010530D01*
X2335740Y3021050D01*
Y3041440D01*
X2335800Y3041980D01*
G03Y3058020I-75800J8020D01*
G01X2335740Y3058560D01*
Y3131440D01*
X2335800Y3131980D01*
G03Y3148020I-75800J8020D01*
G01X2335740Y3148560D01*
Y3395740D01*
X2064260D01*
Y3248950D01*
X2011050Y3195740D01*
X1875740D01*
Y3628950D01*
X1788950Y3715740D01*
X1245370D01*
X1244470Y3715900D01*
G03X1215530I-14470J-80000D01*
G01X1214630Y3715740D01*
X1121050D01*
X1024260Y3618950D01*
Y3451140D01*
X1000530D01*
X810360Y3260970D01*
G02X775680Y3275910I-14368J14368D01*
G03X775740Y3280000I-145679J4183D01*
G01Y3480000D01*
G03X484260I-145740J0D01*
G01Y3280000D01*
G03X634090Y3134320I145737J0D01*
G02X649030Y3099640I572J-20312D01*
G01X468860Y2919470D01*
Y1080530D01*
X640530Y908860D01*
X743810D01*
G02X752180Y870030I-5J-20318D01*
G03X709140Y512030I86820J-192025D01*
G02X706070Y478040I-12523J-16003D01*
G03X692530Y469540I48958J-93022D01*
G37*
G36*
G01X699470Y1051140D02*
X611140Y1139470D01*
Y1780430D01*
G02X649710Y1789370I20320J5D01*
G03Y1974630I189290J92630D01*
G02X611140Y1983570I-18250J8935D01*
G01Y2860530D01*
X669640Y2919030D01*
G02X704320Y2904090I14368J-14368D01*
G03X850000Y2754260I145680J-4093D01*
G01X1050000D01*
G03X1123690Y2774260I4J145741D01*
G01X1797090D01*
G02X1804270Y2756920I-6J-10159D01*
G01X1790970Y2743610D01*
X1682340Y2723910D01*
Y2538150D01*
X1674650Y2466110D01*
X1664450Y2455900D01*
X1610830D01*
Y2575600D01*
X1349170D01*
Y2456550D01*
X1283170D01*
G03X1243640Y2440180I0J-55913D01*
G01X1133780Y2330310D01*
Y1535820D01*
X1110000D01*
G03X1040460Y1294190I0J-130822D01*
G02X1040840Y1260010I-10799J-17212D01*
G03X1006860Y1083080I69160J-105010D01*
G02X990190Y1051140I-16670J-11620D01*
G01X699470D01*
G37*
G36*
G01X830970Y3080360D02*
X989570Y3238960D01*
G02X1024260Y3224600I14371J-14364D01*
G01Y3045740D01*
X850000D01*
G03X845910Y3045680I93J-145739D01*
G02X830970Y3080360I-572J20312D01*
G37*
G36*
G01X997970Y490000D02*
G02X983990Y525070I-1J20321D01*
G03X925820Y870030I-144991J152935D01*
G02X934190Y908860I8375J18512D01*
G01X1809470D01*
X1821200Y920590D01*
G02X1838540Y913400I7181J-7186D01*
G01Y891820D01*
X1844570Y884410D01*
X1823300Y859030D01*
Y695060D01*
X2036700D01*
Y859030D01*
X2015430Y884410D01*
X2021460Y891820D01*
Y1135080D01*
G02X2056150Y1149440I20319J-4D01*
G01X2108540Y1097050D01*
Y891820D01*
X2114570Y884410D01*
X2093300Y859030D01*
Y695060D01*
X2306700D01*
Y859030D01*
X2285430Y884410D01*
X2291460Y891820D01*
Y1197660D01*
X2209150D01*
X2045670Y1361140D01*
X1542960D01*
X1521140Y1382960D01*
Y1850530D01*
X1609470Y1938860D01*
X1834740D01*
Y1808540D01*
X1935010D01*
X1991990Y1751560D01*
X2190410D01*
X2247390Y1808540D01*
X2347660D01*
Y1908810D01*
X2670410Y2231560D01*
X2691760D01*
Y2139260D01*
X2928240D01*
Y2298860D01*
X3423640D01*
X3423790Y2288850D01*
G03X3548930Y2231560I76211J1151D01*
G01X3591760D01*
Y1918240D01*
X3467190D01*
G02X3448840Y1947280I3J20320D01*
G03X3340000Y2044880I-68840J32720D01*
G03X3231160Y1947280I-40000J-64880D01*
G02X3212810Y1918240I-18353J-8720D01*
G01X3147190D01*
G02X3128840Y1947280I3J20320D01*
G03X3020000Y2044880I-68840J32720D01*
G03X2919470Y1933680I-39999J-64881D01*
G01X2921560Y1930950D01*
Y1903860D01*
X2909260Y1888840D01*
Y1681760D01*
X3089140D01*
X3103780Y1667120D01*
Y1389690D01*
X3270010Y1223460D01*
X4113690D01*
X4124740Y1212410D01*
Y1108540D01*
X4169210D01*
G02X4189460Y1086490I3J-20321D01*
G03X4206960Y1031070I75942J-6493D01*
G01Y909860D01*
X4166660Y865040D01*
Y816470D01*
G02X4147110Y796170I-20318J4D01*
G03X4141980Y795800I2915J-76167D01*
G01X4141440Y795740D01*
X4093340D01*
Y865040D01*
X4053040Y909860D01*
Y1031070D01*
G03X3936160I-58440J48930D01*
G01Y909860D01*
X3895860Y865040D01*
Y795740D01*
X3884260D01*
Y490000D01*
X1704290D01*
G02X1693960Y527820I-3J20320D01*
G03X1526040I-83960J142180D01*
G02X1515710Y490000I-10327J-17500D01*
G01X997970D01*
G37*
G36*
G01X1179840Y1485000D02*
X1110000D01*
X1108200Y1403200D01*
X1190000Y1405000D01*
Y1474840D01*
G03X1179840Y1485000I-10160J0D01*
G37*
G36*
G01X1210390Y2820000D02*
G02X1191350Y2847410I4J20321D01*
G03X1078260Y3048150I-141352J52593D01*
G01X1070000Y3049720D01*
Y3190190D01*
G02X1107410Y3201180I20319J2D01*
G03X1375740Y3280000I122589J78820D01*
G01Y3480000D01*
G03X1107410Y3558820I-145741J0D01*
G02X1070000Y3569810I-17091J10988D01*
G01Y3600000D01*
X1140000Y3670000D01*
X1770000D01*
X1830000Y3610000D01*
Y3060000D01*
X1798240Y3028240D01*
X1615860D01*
Y3010000D01*
X1590000D01*
X1580000Y3000000D01*
Y2910000D01*
X1600000Y2890000D01*
X1615860D01*
Y2871760D01*
X1748860D01*
Y2829470D01*
X1739390Y2820000D01*
X1210390D01*
G37*
G36*
G01X1395000Y1260400D02*
X1230000Y1235000D01*
X1305380Y1150650D01*
X1390000Y1075000D01*
X1420390Y1234210D01*
G03X1395000Y1260400I-25390J788D01*
G37*
G36*
G01X1230000Y1474840D02*
Y1405000D01*
X1311800Y1403200D01*
X1310000Y1485000D01*
X1240160D01*
G03X1230000Y1474840I0J-10160D01*
G37*
G36*
G01X1352010Y1528890D02*
G03X1310000Y1535820I-42013J-123889D01*
G01X1286220D01*
Y2267170D01*
X1322830Y2303780D01*
X1349170D01*
Y2184400D01*
X1421560D01*
Y2135790D01*
X1495790Y2061560D01*
X1506420D01*
G02X1513610Y2044220I4J-10159D01*
G01X1378860Y1909470D01*
Y1548130D01*
G02X1352010Y1528890I-20320J2D01*
G37*
G36*
G01X1441790Y1075270D02*
X1466770Y1206170D01*
X1479470Y1218860D01*
X1986730D01*
X1990590Y1215000D01*
G02X1983400Y1197660I-7186J-7181D01*
G01X1857680D01*
X1805710Y1106320D01*
X1750530Y1051140D01*
X1461750D01*
G02X1441790Y1075270I-1J20319D01*
G37*
G36*
G01X1531460Y1307960D02*
X1465510Y1373900D01*
X1450000Y1290000D01*
X1513500D01*
X1531460Y1307960D01*
G37*
G36*
G01X1484830Y2209510D02*
X1501590Y2230140D01*
X1480000Y2273960D01*
X1458410Y2230140D01*
X1475170Y2209510D01*
G03X1484830I4830J11750D01*
G37*
G36*
G01X1538750Y2331820D02*
X1521910Y2311420D01*
X1543500Y2268240D01*
X1565090Y2311420D01*
X1548250Y2331820D01*
G03X1538750I-4750J-8980D01*
G37*
G36*
G01X1475170Y2550490D02*
X1458410Y2529860D01*
X1480000Y2486040D01*
X1501590Y2529860D01*
X1484830Y2550490D01*
G03X1475170I-4830J-11750D01*
G37*
G36*
G01X1548250Y2428180D02*
X1565090Y2448580D01*
X1543500Y2491760D01*
X1521910Y2448580D01*
X1538750Y2428180D01*
G03X1548250I4750J8980D01*
G37*
G36*
G01X1684770Y2112570D02*
X1728080Y2074280D01*
X1776980Y2120000D01*
X1728080Y2165720D01*
X1684770Y2127430D01*
G03Y2112570I10300J-7430D01*
G37*
G36*
G01X1625740Y2935740D02*
Y2964260D01*
X1798950D01*
X1801450Y2966760D01*
X1831560D01*
Y2935740D01*
X1625740D01*
G37*
G36*
G01X1860480Y1035080D02*
X1975720Y1060480D01*
X1935310Y1109690D01*
X1884280Y1151920D01*
X1835900Y1066880D01*
G03X1860480Y1035080I24580J-6400D01*
G37*
G36*
G01X1886880Y2025900D02*
X1971920Y2074280D01*
X1929690Y2125310D01*
X1880480Y2165720D01*
X1855080Y2050480D01*
G03X1886880Y2025900I25400J0D01*
G37*
G36*
G01X2040440Y2361460D02*
X2015000Y2338410D01*
X1989560Y2361460D01*
X1834740D01*
Y2359720D01*
X1766230Y2369730D01*
G02X1766160Y2389830I1465J10055D01*
G01X1834740Y2400340D01*
Y2398540D01*
X1989560D01*
X2015000Y2421590D01*
X2040440Y2398540D01*
X2116210D01*
X2134750Y2380000D01*
X2116210Y2361460D01*
X2040440D01*
G37*
G36*
G01X1717920Y2318880D02*
X1728080Y2224280D01*
X1775540Y2268140D01*
X1819520Y2315720D01*
X1728430Y2329030D01*
G03X1717920Y2318880I-354J-10150D01*
G37*
G36*
G01X1728500Y2430330D02*
X1819520Y2444280D01*
X1775520Y2491870D01*
X1728080Y2535720D01*
X1717920Y2440480D01*
G03X1728500Y2430330I10159J0D01*
G37*
G36*
G01X1818990Y2702210D02*
X1728080Y2685720D01*
X1771650Y2637670D01*
X1819520Y2594280D01*
X1832220Y2689520D01*
G03X1818990Y2702210I-12701J0D01*
G37*
G36*
G01X1917200Y899890D02*
X1869040Y842400D01*
X1930000Y785250D01*
X1990960Y842400D01*
X1942800Y899890D01*
G03X1917200I-12800J-21940D01*
G37*
G36*
G01X1940310Y864560D02*
X1975720Y908080D01*
X1930000Y960150D01*
X1884280Y908080D01*
X1919690Y864560D01*
G03X1940310I10310J23210D01*
G37*
G36*
G01X2145670Y2076280D02*
X2100360Y2030960D01*
X2028580Y1980910D01*
X2017660Y1986610D01*
Y1991460D01*
X1995650D01*
G02X1985600Y2029440I1J20320D01*
G01X2017660Y2047680D01*
Y2176260D01*
G02X2034640Y2183790I10159J2D01*
G01X2040440Y2178540D01*
X2141550D01*
G02X2161470Y2154180I5J-20320D01*
G01X2145670Y2076280D01*
G37*
G36*
G01X2014510Y2263760D02*
X2058080Y2224280D01*
X2106340Y2270000D01*
X2058080Y2315720D01*
X2014510Y2276240D01*
G03Y2263760I8020J-6240D01*
G37*
G36*
G01X2015490Y2276240D02*
X1971920Y2315720D01*
X1923660Y2270000D01*
X1971920Y2224280D01*
X2015490Y2263760D01*
G03Y2276240I-8020J6240D01*
G37*
G36*
G01X2014510Y2483760D02*
X2058080Y2444280D01*
X2106340Y2490000D01*
X2058080Y2535720D01*
X2014510Y2496240D01*
G03Y2483760I8020J-6240D01*
G37*
G36*
G01X1919960Y2579290D02*
X1880480Y2535720D01*
X1926200Y2487460D01*
X1971920Y2535720D01*
X1932440Y2579290D01*
G03X1919960I-6240J-8020D01*
G37*
G36*
G01X2015490Y2496240D02*
X1971920Y2535720D01*
X1923660Y2490000D01*
X1971920Y2444280D01*
X2015490Y2483760D01*
G03Y2496240I-8020J6240D01*
G37*
G36*
G01X1932440Y2550710D02*
X1971920Y2594280D01*
X1926200Y2642540D01*
X1880480Y2594280D01*
X1919960Y2550710D01*
G03X1932440I6240J8020D01*
G37*
G36*
G01X1920000Y2990000D02*
Y3150000D01*
X2030000D01*
X2040760Y3160760D01*
X2063380D01*
Y3183380D01*
X2110000Y3230000D01*
Y3350000D01*
X2290000D01*
Y3040000D01*
X2240000Y2990000D01*
X1920000D01*
G37*
G36*
G01X2187200Y899890D02*
X2139040Y842400D01*
X2200000Y785250D01*
X2260960Y842400D01*
X2212800Y899890D01*
G03X2187200I-12800J-21940D01*
G37*
G36*
G01X2210310Y864560D02*
X2245720Y908080D01*
X2200000Y960150D01*
X2154280Y908080D01*
X2189690Y864560D01*
G03X2210310I10310J23210D01*
G37*
G36*
G01X2140710Y2003340D02*
X2058080Y1945720D01*
X2100630Y1894500D01*
X2149520Y1854280D01*
X2174920Y1979520D01*
G03X2140710Y2003340I-25398J0D01*
G37*
G36*
G01X2219290Y2016660D02*
X2301920Y2074280D01*
X2259370Y2125500D01*
X2210480Y2165720D01*
X2185080Y2040480D01*
G03X2219290Y2016660I25398J0D01*
G37*
G36*
G01X2347220Y2187830D02*
X2318180Y2211460D01*
X2195260D01*
Y2282410D01*
X2216630Y2303780D01*
X2420310D01*
X2530310Y2413780D01*
X2548640D01*
G02X2555830Y2396440I4J-10159D01*
G01X2347220Y2187830D01*
G37*
G36*
G01X2345440Y2130310D02*
X2301920Y2165720D01*
X2249850Y2120000D01*
X2301920Y2074280D01*
X2345440Y2109690D01*
G03Y2130310I-23210J10310D01*
G37*
G36*
G01X2713810Y2284400D02*
X2737500Y2265000D01*
X2813180Y2290000D01*
X2737500Y2315000D01*
X2713810Y2295600D01*
G03Y2284400I11400J-5600D01*
G37*
G36*
G01X2713930Y2524820D02*
X2737500Y2505000D01*
X2812540Y2530000D01*
X2737500Y2555000D01*
X2713930Y2535180D01*
G03Y2524820I8740J-5180D01*
G37*
G36*
G01Y2444820D02*
X2737500Y2425000D01*
X2812540Y2450000D01*
X2737500Y2475000D01*
X2713930Y2455180D01*
G03Y2444820I8740J-5180D01*
G37*
G36*
G01X2788770Y3369030D02*
X2750480Y3325720D01*
X2796200Y3276820D01*
X2841920Y3325720D01*
X2803630Y3369030D01*
G03X2788770I-7430J-10300D01*
G37*
G36*
G01X2974400Y1896190D02*
X2955000Y1872500D01*
X2980000Y1796820D01*
X3005000Y1872500D01*
X2985600Y1896190D01*
G03X2974400I-5600J-11400D01*
G37*
G36*
G01X3054400D02*
X3035000Y1872500D01*
X3060000Y1796820D01*
X3085000Y1872500D01*
X3065600Y1896190D01*
G03X3054400I-5600J-11400D01*
G37*
G36*
G01X2988980Y1945880D02*
X3001540Y1958460D01*
X2980000Y1983180D01*
X2958460Y1958460D01*
X2971020Y1945880D01*
G03X2988980I8980J8980D01*
G37*
G36*
G01X3068980D02*
X3081540Y1958460D01*
X3060000Y1983180D01*
X3038460Y1958460D01*
X3051020Y1945880D01*
G03X3068980I8980J8980D01*
G37*
G36*
G01X3145180Y1703930D02*
X3165000Y1727500D01*
X3140000Y1802540D01*
X3115000Y1727500D01*
X3134820Y1703930D01*
G03X3145180I5180J8740D01*
G37*
G36*
G01X3225180D02*
X3245000Y1727500D01*
X3220000Y1802540D01*
X3195000Y1727500D01*
X3214820Y1703930D01*
G03X3225180I5180J8740D01*
G37*
G36*
G01X3134400Y2796190D02*
X3115000Y2772500D01*
X3140000Y2696820D01*
X3165000Y2772500D01*
X3145600Y2796190D01*
G03X3134400I-5600J-11400D01*
G37*
G36*
G01X3214400D02*
X3195000Y2772500D01*
X3220000Y2696820D01*
X3245000Y2772500D01*
X3225600Y2796190D01*
G03X3214400I-5600J-11400D01*
G37*
G36*
G01X3214770Y3272570D02*
X3258080Y3234280D01*
X3306980Y3280000D01*
X3258080Y3325720D01*
X3214770Y3287430D01*
G03Y3272570I10300J-7430D01*
G37*
G36*
G01X3215230Y3287430D02*
X3171920Y3325720D01*
X3123020Y3280000D01*
X3171920Y3234280D01*
X3215230Y3272570D01*
G03Y3287430I-10300J7430D01*
G37*
G36*
G01X4809000Y1376540D02*
X4787490Y1491460D01*
X4640440D01*
X4625000Y1477470D01*
X4609560Y1491460D01*
X4330440D01*
X4305000Y1468410D01*
X4279560Y1491460D01*
X4124740D01*
Y1387590D01*
X4113050Y1375900D01*
X3333150D01*
X3256220Y1452830D01*
Y1667120D01*
X3270860Y1681760D01*
X3409140D01*
X3423780Y1667120D01*
Y1589690D01*
X3520010Y1493460D01*
X3829990D01*
X3926540Y1590010D01*
Y1757490D01*
X3992510Y1823460D01*
X4117050D01*
X4129390Y1708540D01*
X4279560D01*
X4305000Y1731590D01*
X4330440Y1708540D01*
X4609560D01*
X4625000Y1722530D01*
X4640440Y1708540D01*
X4787490D01*
X4809000Y1823460D01*
X4905640D01*
X4908020Y1816640D01*
G03X5030100Y1784260I71981J25061D01*
G02X5063780Y1768950I13360J-15310D01*
G01Y1720830D01*
X4944400D01*
Y1459170D01*
X5063780D01*
Y1431050D01*
G02X5030100Y1415740I-20320J0D01*
G03X4908020Y1383360I-50099J-57441D01*
G01X4905640Y1376540D01*
X4809000D01*
G37*
G36*
G01X3294400Y1896190D02*
X3275000Y1872500D01*
X3300000Y1796820D01*
X3325000Y1872500D01*
X3305600Y1896190D01*
G03X3294400I-5600J-11400D01*
G37*
G36*
G01X3374400D02*
X3355000Y1872500D01*
X3380000Y1796820D01*
X3405000Y1872500D01*
X3385600Y1896190D01*
G03X3374400I-5600J-11400D01*
G37*
G36*
G01X3308980Y1945880D02*
X3321540Y1958460D01*
X3300000Y1983180D01*
X3278460Y1958460D01*
X3291020Y1945880D01*
G03X3308980I8980J8980D01*
G37*
G36*
G01X3388980D02*
X3401540Y1958460D01*
X3380000Y1983180D01*
X3358460Y1958460D01*
X3371020Y1945880D01*
G03X3388980I8980J8980D01*
G37*
G36*
G01X3755740Y3058440D02*
Y3165460D01*
X3785100Y3199500D01*
Y3389240D01*
X3566620D01*
Y3205740D01*
X3395260D01*
Y3343040D01*
X3362240Y3380390D01*
Y3504260D01*
X3791560D01*
Y3485790D01*
X3953990Y3323360D01*
X3954450Y3319950D01*
G03X3993550Y3263060I75554J10046D01*
G02X3998200Y3230850I-9719J-17844D01*
G01X3825790Y3058440D01*
X3755740D01*
G37*
G36*
G01X3296370Y3369030D02*
X3258080Y3325720D01*
X3303800Y3276820D01*
X3349520Y3325720D01*
X3311230Y3369030D01*
G03X3296370I-7430J-10300D01*
G37*
G36*
G01X3465180Y1703930D02*
X3485000Y1727500D01*
X3460000Y1802540D01*
X3435000Y1727500D01*
X3454820Y1703930D01*
G03X3465180I5180J8740D01*
G37*
G36*
G01X3545180D02*
X3565000Y1727500D01*
X3540000Y1802540D01*
X3515000Y1727500D01*
X3534820Y1703930D01*
G03X3545180I5180J8740D01*
G37*
G36*
G01X3534120Y2298980D02*
X3521540Y2311540D01*
X3496820Y2290000D01*
X3521540Y2268460D01*
X3534120Y2281020D01*
G03Y2298980I-8980J8980D01*
G37*
G36*
G01X3710000Y2960000D02*
X3680000Y2930000D01*
X3480000D01*
X3450000Y2960000D01*
Y3160000D01*
X3710000D01*
Y2960000D01*
G37*
G36*
G01X3807500Y1906360D02*
X3813510Y1903080D01*
G03X3816740Y1901420I36446J66943D01*
G02X3822240Y1868770I-8871J-18283D01*
G01X3774100Y1820630D01*
Y1653150D01*
X3766850Y1645900D01*
X3583150D01*
X3576220Y1652830D01*
Y1667120D01*
X3595900Y1686800D01*
Y1693180D01*
X3610740Y1710820D01*
Y1899260D01*
X3798840D01*
X3807500Y1906360D01*
G37*
G36*
G01X3806190Y1975600D02*
X3782500Y1995000D01*
X3706820Y1970000D01*
X3782500Y1945000D01*
X3806190Y1964400D01*
G03Y1975600I-11400J5600D01*
G37*
G36*
G01Y2055600D02*
X3782500Y2075000D01*
X3706820Y2050000D01*
X3782500Y2025000D01*
X3806190Y2044400D01*
G03Y2055600I-11400J5600D01*
G37*
G36*
G01X3806070Y2135180D02*
X3782500Y2155000D01*
X3707460Y2130000D01*
X3782500Y2105000D01*
X3806070Y2124820D01*
G03Y2135180I-8740J5180D01*
G37*
G36*
G01X3613810Y2284400D02*
X3637500Y2265000D01*
X3713180Y2290000D01*
X3637500Y2315000D01*
X3613810Y2295600D01*
G03Y2284400I11400J-5600D01*
G37*
G36*
G01Y2364400D02*
X3637500Y2345000D01*
X3713180Y2370000D01*
X3637500Y2395000D01*
X3613810Y2375600D01*
G03Y2364400I11400J-5600D01*
G37*
G36*
G01X3614120Y2378980D02*
X3601540Y2391540D01*
X3576820Y2370000D01*
X3601540Y2348460D01*
X3614120Y2361020D01*
G03Y2378980I-8980J8980D01*
G37*
G36*
G01X3806070Y2215180D02*
X3782500Y2235000D01*
X3707460Y2210000D01*
X3782500Y2185000D01*
X3806070Y2204820D01*
G03Y2215180I-8740J5180D01*
G37*
G36*
G01Y2535180D02*
X3782500Y2555000D01*
X3707460Y2530000D01*
X3782500Y2505000D01*
X3806070Y2524820D01*
G03Y2535180I-8740J5180D01*
G37*
G36*
G01Y2455180D02*
X3782500Y2475000D01*
X3707460Y2450000D01*
X3782500Y2425000D01*
X3806070Y2444820D01*
G03Y2455180I-8740J5180D01*
G37*
G36*
G01X3807400Y2593820D02*
X3799180Y2600740D01*
X3611140D01*
Y2859470D01*
X3603690Y2866920D01*
G02X3610880Y2884260I7186J7181D01*
G01X3698950D01*
X3756250Y2941560D01*
X3845970D01*
G02X3860340Y2906870I1J-20321D01*
G01X3824100Y2870630D01*
Y2601600D01*
G02X3807400Y2593820I-10161J-3D01*
G37*
G36*
G01X3653490Y3199240D02*
X3618080Y3155720D01*
X3663800Y3103650D01*
X3709520Y3155720D01*
X3674110Y3199240D01*
G03X3653490I-10310J-23210D01*
G37*
G36*
G01X3677850Y3145190D02*
X3739360Y3216500D01*
X3676530Y3286310D01*
X3612360Y3216500D01*
X3646070Y3148160D01*
G03X3677850Y3145190I17729J18190D01*
G37*
G36*
G01X3815880Y1961020D02*
X3828460Y1948460D01*
X3853180Y1970000D01*
X3828460Y1991540D01*
X3815880Y1978980D01*
G03Y1961020I8980J-8980D01*
G37*
G36*
G01X3855880Y2041020D02*
X3868460Y2028460D01*
X3893180Y2050000D01*
X3868460Y2071540D01*
X3855880Y2058980D01*
G03Y2041020I8980J-8980D01*
G37*
G36*
G01X4813150Y2415900D02*
X4807560Y2421490D01*
X4787760Y2531460D01*
X4640440D01*
X4625000Y2517470D01*
X4609560Y2531460D01*
X4330440D01*
X4305000Y2508410D01*
X4279560Y2531460D01*
X4124740D01*
Y2427590D01*
X4113050Y2415900D01*
X3946850D01*
X3854100Y2323150D01*
Y2259530D01*
G02X3836760Y2252350I-10159J5D01*
G01X3828240Y2260860D01*
Y2399140D01*
X3842880Y2413780D01*
X3899670D01*
X3976540Y2490650D01*
Y2807490D01*
X4022510Y2853460D01*
X4111000D01*
X4132510Y2738540D01*
X4279560D01*
X4305000Y2761590D01*
X4330440Y2738540D01*
X4609560D01*
X4625000Y2752530D01*
X4640440Y2738540D01*
X4787760D01*
X4807560Y2848510D01*
X4813150Y2854100D01*
X4905640D01*
X4908010Y2847280D01*
G03X5030100Y2814890I71987J25050D01*
G02X5063780Y2799580I13360J-15310D01*
G01Y2760830D01*
X4944400D01*
Y2499170D01*
X5063780D01*
Y2470420D01*
G02X5030100Y2455110I-20320J0D01*
G03X4908010Y2422720I-50103J-57440D01*
G01X4905640Y2415900D01*
X4813150D01*
G37*
G36*
G01X3930000Y500000D02*
Y736760D01*
X4093340D01*
Y750000D01*
X4180000D01*
Y500000D01*
X3930000D01*
G37*
G36*
G01X3986910Y897900D02*
X3941600Y847500D01*
X3994600Y811820D01*
X4047600Y847500D01*
X4002290Y897900D01*
G03X3986910I-7690J-10110D01*
G37*
G36*
G01X4003580Y1045880D02*
X4016140Y1058460D01*
X3994600Y1083180D01*
X3973060Y1058460D01*
X3985620Y1045880D01*
G03X4003580I8980J8980D01*
G37*
G36*
G01X4640440Y2148540D02*
X4787490D01*
X4809000Y2263460D01*
X4905640D01*
X4908020Y2256640D01*
G03X5052180Y2257210I71982J25060D01*
G01X5054520Y2264100D01*
X5130630D01*
X5216220Y2349690D01*
Y2499170D01*
X5291560D01*
Y1720830D01*
X5216220D01*
Y1890310D01*
X5130620Y1975910D01*
X5054360D01*
X5051980Y1982730D01*
G03X4908010Y1982720I-71983J-25059D01*
G01X4905640Y1975900D01*
X4813150D01*
X4807560Y1981490D01*
X4787760Y2091460D01*
X4640420D01*
X4625790Y2078180D01*
X4611920Y2090750D01*
X4332800D01*
X4306560Y2066970D01*
X4279580Y2091460D01*
X4129360D01*
X4117030Y1975900D01*
X3970170D01*
G02X3953300Y2007540I3J20319D01*
G03X3945940Y2101770I-63300J42458D01*
G02X3946480Y2129950I14908J13810D01*
G01X4006540Y2190010D01*
Y2260010D01*
X4009990Y2263460D01*
X4113690D01*
X4124740Y2252410D01*
Y2148540D01*
X4279560D01*
X4305000Y2171590D01*
X4330440Y2148540D01*
X4609560D01*
X4625000Y2162530D01*
X4640440Y2148540D01*
G37*
G36*
G01X3973230Y3040590D02*
X4064210Y3131560D01*
X4109750D01*
G02X4129750Y3107640I3J-20319D01*
G01X4112440Y3011490D01*
X4106850Y3005900D01*
X3987600D01*
G02X3973230Y3040590I0J20321D01*
G37*
G36*
G01X3974560Y3019690D02*
X4018080Y2984280D01*
X4070150Y3030000D01*
X4018080Y3075720D01*
X3974560Y3040310D01*
G03Y3019690I23210J-10310D01*
G37*
G36*
G01X3999520Y3347780D02*
Y3330000D01*
X4032250Y3327750D01*
X4030000Y3360480D01*
X4012220D01*
G03X3999520Y3347780I0J-12700D01*
G37*
G36*
G01X4276270Y3599950D02*
X4386960Y3489260D01*
X4846560D01*
X5052690Y3283130D01*
G02X5038320Y3248440I-14368J-14369D01*
G01X4176210D01*
Y3258760D01*
G03X4158440Y3308930I-76210J1239D01*
G01Y3384210D01*
X4063070Y3479570D01*
G02X4077440Y3514260I14370J14369D01*
G01X4091440D01*
X4091980Y3514200D01*
G03X4108020I8020J75800D01*
G01X4108560Y3514260D01*
X4181440D01*
X4181980Y3514200D01*
G03X4198020I8020J75800D01*
G01X4198560Y3514260D01*
X4265740D01*
Y3581440D01*
X4265800Y3581980D01*
G03X4266120Y3586100I-75804J7960D01*
G01X4266320Y3590000D01*
X4276270Y3599950D01*
G37*
G36*
G01X3982650Y3560000D02*
X3978440Y3564210D01*
Y3796760D01*
X4133340D01*
Y3810000D01*
X4206660D01*
Y3701760D01*
X4220000D01*
Y3560000D01*
X3982650D01*
G37*
G36*
G01X3953690Y3869220D02*
X3981600Y3842500D01*
X4037780Y3875000D01*
X3981600Y3907500D01*
X3953690Y3880780D01*
G03Y3869220I11310J-5780D01*
G37*
G36*
G01X4225970Y703240D02*
Y713790D01*
X4226000Y714180D01*
G03X4226170Y717190I-76000J5802D01*
G02X4246470Y736760I20305J-749D01*
G01X4364140D01*
Y865040D01*
X4323840Y909860D01*
Y1031070D01*
G03X4341340Y1086490I-58442J48927D01*
G02X4361590Y1108540I20247J1729D01*
G01X4445300D01*
G02X4459670Y1073850I2J-20321D01*
G01X4389260Y1003440D01*
Y733440D01*
X4381480Y725670D01*
G02X4377640Y723260I-7183J7181D01*
G02X4375230Y719420I-9591J3343D01*
G01X4361560Y705740D01*
X4265400D01*
G03X4246590Y703520I-7J-80741D01*
G01X4245430Y703240D01*
X4225970D01*
G37*
G36*
G01X4257710Y897900D02*
X4212400Y847500D01*
X4265400Y811820D01*
X4318400Y847500D01*
X4273090Y897900D01*
G03X4257710I-7690J-10110D01*
G37*
G36*
G01X4305490Y1206240D02*
X4261920Y1245720D01*
X4213660Y1200000D01*
X4261920Y1154280D01*
X4305490Y1193760D01*
G03Y1206240I-8020J6240D01*
G37*
G36*
G01Y1406240D02*
X4261920Y1445720D01*
X4213660Y1400000D01*
X4261920Y1354280D01*
X4305490Y1393760D01*
G03Y1406240I-8020J6240D01*
G37*
G36*
G01X4160320Y1848880D02*
X4170480Y1754280D01*
X4217940Y1798140D01*
X4261920Y1845720D01*
X4170830Y1859030D01*
G03X4160320Y1848880I-354J-10150D01*
G37*
G36*
G01X4305490Y1806240D02*
X4261920Y1845720D01*
X4213660Y1800000D01*
X4261920Y1754280D01*
X4305490Y1793760D01*
G03Y1806240I-8020J6240D01*
G37*
G36*
G01X4170900Y1940330D02*
X4261920Y1954280D01*
X4217920Y2001870D01*
X4170480Y2045720D01*
X4160320Y1950480D01*
G03X4170900Y1940330I10159J0D01*
G37*
G36*
G01X4306190Y2005540D02*
X4261920Y2045720D01*
X4213660Y2000020D01*
X4261920Y1954280D01*
X4306090Y1992920D01*
G03X4306190Y2005540I-7911J6373D01*
G37*
G36*
G01X4305490Y2246240D02*
X4261920Y2285720D01*
X4213660Y2240000D01*
X4261920Y2194280D01*
X4305490Y2233760D01*
G03Y2246240I-8020J6240D01*
G37*
G36*
G01Y2446240D02*
X4261920Y2485720D01*
X4213660Y2440000D01*
X4261920Y2394280D01*
X4305490Y2433760D01*
G03Y2446240I-8020J6240D01*
G37*
G36*
G01X4153510Y2874960D02*
X4170480Y2784280D01*
X4218120Y2828330D01*
X4261920Y2875720D01*
X4163640Y2885880D01*
G03X4153510Y2874960I0J-10159D01*
G37*
G36*
G01X4305490Y2836240D02*
X4261920Y2875720D01*
X4213660Y2830000D01*
X4261920Y2784280D01*
X4305490Y2823760D01*
G03Y2836240I-8020J6240D01*
G37*
G36*
G01X4164280Y2974120D02*
X4261920Y2984280D01*
X4218110Y3031680D01*
X4170480Y3075720D01*
X4154140Y2984970D01*
G03X4164280Y2974120I10140J-687D01*
G37*
G36*
G01X4305490Y3036240D02*
X4261920Y3075720D01*
X4213660Y3030000D01*
X4261920Y2984280D01*
X4305490Y3023760D01*
G03Y3036240I-8020J6240D01*
G37*
G36*
G01X4091020Y3294120D02*
X4078460Y3281540D01*
X4100000Y3256820D01*
X4121540Y3281540D01*
X4108980Y3294120D01*
G03X4091020I-8980J-8980D01*
G37*
G36*
G01X4274380Y1045880D02*
X4286940Y1058460D01*
X4265400Y1083180D01*
X4243860Y1058460D01*
X4256420Y1045880D01*
G03X4274380I8980J8980D01*
G37*
G36*
G01X4304510Y1193760D02*
X4348080Y1154280D01*
X4396340Y1200000D01*
X4348080Y1245720D01*
X4304510Y1206240D01*
G03Y1193760I8020J-6240D01*
G37*
G36*
G01Y1393760D02*
X4348080Y1354280D01*
X4396340Y1400000D01*
X4348080Y1445720D01*
X4304510Y1406240D01*
G03Y1393760I8020J-6240D01*
G37*
G36*
G01Y1793760D02*
X4348080Y1754280D01*
X4396340Y1800000D01*
X4348080Y1845720D01*
X4304510Y1806240D01*
G03Y1793760I8020J-6240D01*
G37*
G36*
G01X4306870Y1993050D02*
X4350440Y1953570D01*
X4398700Y1999290D01*
X4350440Y2045010D01*
X4306870Y2005530D01*
G03Y1993050I8020J-6240D01*
G37*
G36*
G01X4304510Y2233760D02*
X4348080Y2194280D01*
X4396340Y2240000D01*
X4348080Y2285720D01*
X4304510Y2246240D01*
G03Y2233760I8020J-6240D01*
G37*
G36*
G01Y2433760D02*
X4348080Y2394280D01*
X4396340Y2440000D01*
X4348080Y2485720D01*
X4304510Y2446240D01*
G03Y2433760I8020J-6240D01*
G37*
G36*
G01Y2823760D02*
X4348080Y2784280D01*
X4396340Y2830000D01*
X4348080Y2875720D01*
X4304510Y2836240D01*
G03Y2823760I8020J-6240D01*
G37*
G36*
G01Y3023760D02*
X4348080Y2984280D01*
X4396340Y3030000D01*
X4348080Y3075720D01*
X4304510Y3036240D01*
G03Y3023760I8020J-6240D01*
G37*
G36*
G01X4453840Y3650740D02*
X4404140Y3700440D01*
Y3763240D01*
X4325370D01*
X4324210Y3763520D01*
G03X4286590I-18810J-78520D01*
G01X4285430Y3763240D01*
X4265970D01*
Y3773790D01*
X4266000Y3774180D01*
G03X4266170Y3777190I-76000J5802D01*
G02X4286470Y3796760I20305J-749D01*
G01X4404140D01*
Y3804120D01*
G02X4438250Y3819040I20319J-3D01*
G03X4475970Y3800080I51753J55958D01*
G01X4484260Y3798530D01*
Y3650740D01*
X4453840D01*
G37*
G36*
G01X4239700Y3907600D02*
X4252400Y3842500D01*
X4308100Y3873340D01*
X4358400Y3907500D01*
X4252410Y3920300D01*
G03X4239700Y3907600I-10J-12700D01*
G37*
G36*
G01X4973520Y3750660D02*
X4964140Y3760040D01*
Y3763240D01*
X4960940D01*
X4958440Y3765740D01*
X4865400D01*
G03X4846590Y3763520I-7J-80741D01*
G01X4845430Y3763240D01*
X4825970D01*
Y3773790D01*
X4826000Y3774180D01*
G03X4826170Y3777190I-76000J5802D01*
G02X4846470Y3796760I20305J-749D01*
G01X4964140D01*
Y3953240D01*
X4795660D01*
X4772230Y3933440D01*
X4768930D01*
G03X4705440Y3949820I-48935J-58438D01*
G01X4704480Y3949630D01*
X4693340D01*
Y3953240D01*
X4524860D01*
X4516910Y3946520D01*
X4511660Y3948080D01*
G03X4438250Y3930960I-21658J-73079D01*
G02X4404140Y3945880I-13791J14923D01*
G01Y3948050D01*
X4279550Y3963090D01*
X4269990Y3972660D01*
G02X4277170Y3990000I7186J7181D01*
G01X5403170D01*
G02X5416960Y3954760I-4J-20320D01*
G03X5359930Y3866210I143038J-154763D01*
G02X5321940Y3864640I-19291J6383D01*
G03X5007840Y3768860I-151943J-64639D01*
G02X4973520Y3750660I-19956J-3828D01*
G37*
G36*
G01X4520000Y500000D02*
Y635820D01*
X4550740Y666560D01*
Y736760D01*
X4683340D01*
Y750000D01*
X4770000D01*
Y500000D01*
X4520000D01*
G37*
G36*
G01X4576910Y897900D02*
X4531600Y847500D01*
X4584600Y811820D01*
X4637600Y847500D01*
X4592290Y897900D01*
G03X4576910I-7690J-10110D01*
G37*
G36*
G01X4593580Y905880D02*
X4606140Y918460D01*
X4584600Y943180D01*
X4563060Y918460D01*
X4575620Y905880D01*
G03X4593580I8980J8980D01*
G37*
G36*
G01X4635490Y1206240D02*
X4591920Y1245720D01*
X4543660Y1200000D01*
X4591920Y1154280D01*
X4635490Y1193760D01*
G03Y1206240I-8020J6240D01*
G37*
G36*
G01Y1406240D02*
X4591920Y1445720D01*
X4543660Y1400000D01*
X4591920Y1354280D01*
X4635490Y1393760D01*
G03Y1406240I-8020J6240D01*
G37*
G36*
G01Y1806240D02*
X4591920Y1845720D01*
X4543660Y1800000D01*
X4591920Y1754280D01*
X4635490Y1793760D01*
G03Y1806240I-8020J6240D01*
G37*
G36*
G01X4637850Y2005530D02*
X4594280Y2045010D01*
X4546020Y1999290D01*
X4594280Y1953570D01*
X4637850Y1993050D01*
G03Y2005530I-8020J6240D01*
G37*
G36*
G01X4635490Y2246240D02*
X4591920Y2285720D01*
X4543660Y2240000D01*
X4591920Y2194280D01*
X4635490Y2233760D01*
G03Y2246240I-8020J6240D01*
G37*
G36*
G01Y2446240D02*
X4591920Y2485720D01*
X4543660Y2440000D01*
X4591920Y2394280D01*
X4635490Y2433760D01*
G03Y2446240I-8020J6240D01*
G37*
G36*
G01Y2836240D02*
X4591920Y2875720D01*
X4543660Y2830000D01*
X4591920Y2784280D01*
X4635490Y2823760D01*
G03Y2836240I-8020J6240D01*
G37*
G36*
G01Y3036240D02*
X4591920Y3075720D01*
X4543660Y3030000D01*
X4591920Y2984280D01*
X4635490Y3023760D01*
G03Y3036240I-8020J6240D01*
G37*
G36*
G01X4530000Y3650740D02*
Y3796760D01*
X4693340D01*
Y3800370D01*
X4704480D01*
X4705440Y3800180D01*
G03X4740800Y3801670I14559J74819D01*
G02X4766660Y3782120I5541J-19549D01*
G01Y3701760D01*
X4780000D01*
Y3650740D01*
X4530000D01*
G37*
G36*
G01X4510960Y3868390D02*
X4541600Y3842500D01*
X4597780Y3875000D01*
X4541600Y3907500D01*
X4510960Y3881610D01*
G03Y3868390I10850J-6610D01*
G37*
G36*
G01X4524120Y3883980D02*
X4511540Y3896540D01*
X4486820Y3875000D01*
X4511540Y3853460D01*
X4524120Y3866020D01*
G03Y3883980I-8980J8980D01*
G37*
G36*
G01X4755720Y1255880D02*
X4658080Y1245720D01*
X4701890Y1198320D01*
X4749520Y1154280D01*
X4765860Y1245030D01*
G03X4755720Y1255880I-10140J687D01*
G37*
G36*
G01X4614510Y1193760D02*
X4658080Y1154280D01*
X4706340Y1200000D01*
X4658080Y1245720D01*
X4614510Y1206240D01*
G03Y1193760I8020J-6240D01*
G37*
G36*
G01X4766490Y1355040D02*
X4749520Y1445720D01*
X4701880Y1401670D01*
X4658080Y1354280D01*
X4756360Y1344120D01*
G03X4766490Y1355040I0J10159D01*
G37*
G36*
G01X4614510Y1393760D02*
X4658080Y1354280D01*
X4706340Y1400000D01*
X4658080Y1445720D01*
X4614510Y1406240D01*
G03Y1393760I8020J-6240D01*
G37*
G36*
G01X4756360Y1855880D02*
X4658080Y1845720D01*
X4701880Y1798330D01*
X4749520Y1754280D01*
X4766490Y1844960D01*
G03X4756360Y1855880I-10130J761D01*
G37*
G36*
G01X4614510Y1793760D02*
X4658080Y1754280D01*
X4706340Y1800000D01*
X4658080Y1845720D01*
X4614510Y1806240D01*
G03Y1793760I8020J-6240D01*
G37*
G36*
G01X4765860Y1954970D02*
X4749520Y2045720D01*
X4701890Y2001680D01*
X4658080Y1954280D01*
X4755720Y1944120D01*
G03X4765860Y1954970I0J10163D01*
G37*
G36*
G01X4613910Y1992920D02*
X4658080Y1954280D01*
X4706340Y2000020D01*
X4658080Y2045720D01*
X4613810Y2005540D01*
G03X4613910Y1992920I8011J-6247D01*
G37*
G36*
G01X4614510Y2233760D02*
X4658080Y2194280D01*
X4706340Y2240000D01*
X4658080Y2285720D01*
X4614510Y2246240D01*
G03Y2233760I8020J-6240D01*
G37*
G36*
G01X4756360Y2295880D02*
X4658080Y2285720D01*
X4701880Y2238330D01*
X4749520Y2194280D01*
X4766490Y2284960D01*
G03X4756360Y2295880I-10130J761D01*
G37*
G36*
G01X4765860Y2394970D02*
X4749520Y2485720D01*
X4701890Y2441680D01*
X4658080Y2394280D01*
X4755720Y2384120D01*
G03X4765860Y2394970I0J10163D01*
G37*
G36*
G01X4614510Y2433760D02*
X4658080Y2394280D01*
X4706340Y2440000D01*
X4658080Y2485720D01*
X4614510Y2446240D01*
G03Y2433760I8020J-6240D01*
G37*
G36*
G01X4755720Y2885880D02*
X4658080Y2875720D01*
X4701890Y2828320D01*
X4749520Y2784280D01*
X4765860Y2875030D01*
G03X4755720Y2885880I-10140J687D01*
G37*
G36*
G01X4614510Y2823760D02*
X4658080Y2784280D01*
X4706340Y2830000D01*
X4658080Y2875720D01*
X4614510Y2836240D01*
G03Y2823760I8020J-6240D01*
G37*
G36*
G01X4766490Y2985040D02*
X4749520Y3075720D01*
X4701880Y3031670D01*
X4658080Y2984280D01*
X4756360Y2974120D01*
G03X4766490Y2985040I0J10159D01*
G37*
G36*
G01X4614510Y3023760D02*
X4658080Y2984280D01*
X4706340Y3030000D01*
X4658080Y3075720D01*
X4614510Y3036240D01*
G03Y3023760I8020J-6240D01*
G37*
G36*
G01X4754120Y3883980D02*
X4741540Y3896540D01*
X4716820Y3875000D01*
X4741540Y3853460D01*
X4754120Y3866020D01*
G03Y3883980I-8980J8980D01*
G37*
G36*
G01X4815740Y490000D02*
Y521440D01*
X4815800Y521980D01*
G03X4816000Y535820I-75799J8017D01*
G01X4815970Y536210D01*
Y546760D01*
X4835430D01*
X4836590Y546480D01*
G03X4855400Y544260I18803J78521D01*
G01X5118440D01*
X5320720Y746540D01*
G02X5354690Y726830I14365J-14370D01*
G03X5406950Y524490I203328J-55404D01*
G02X5392380Y490000I-14565J-14170D01*
G01X4815740D01*
G37*
G36*
G01X5140960Y1036780D02*
X5333540D01*
G02X5347910Y1002090I2J-20321D01*
G01X5051560Y705740D01*
X4855400D01*
G03X4836590Y703520I-7J-80741D01*
G01X4835430Y703240D01*
X4815970D01*
Y713790D01*
X4816000Y714180D01*
G03X4816170Y717190I-76000J5802D01*
G02X4836470Y736760I20305J-749D01*
G01X4954140D01*
Y865040D01*
X4921460Y901390D01*
X4924340Y907490D01*
G03X4931620Y939160I-68937J32518D01*
G02X4951930Y959260I20317J-218D01*
G01X5063440D01*
X5140960Y1036780D01*
G37*
G36*
G01X4847710Y897900D02*
X4802400Y847500D01*
X4855400Y811820D01*
X4908400Y847500D01*
X4863090Y897900D01*
G03X4847710I-7690J-10110D01*
G37*
G36*
G01X4864380Y905880D02*
X4876940Y918460D01*
X4855400Y943180D01*
X4833860Y918460D01*
X4846420Y905880D01*
G03X4864380I8980J8980D01*
G37*
G36*
G01X6468470Y478440D02*
G02X6437930Y470340I-18546J8300D01*
G03X6370320Y490020I-60928J-83341D01*
G01X6369990Y490000D01*
X6303660D01*
G02X6289090Y524490I-5J20320D01*
G03X5986950I-151070J146930D01*
G02X5972380Y490000I-14565J-14170D01*
G01X5723660D01*
G02X5709090Y524490I-5J20320D01*
G03X5683840Y840480I-151070J146932D01*
G02X5695970Y877100I12131J16301D01*
G01X5722340D01*
Y998950D01*
G02X5739680Y1006130I10158J-4D01*
G01X5753700Y992120D01*
Y877100D01*
X5982340D01*
Y1105740D01*
X5868440D01*
X5857190Y1116990D01*
X5867230Y1127030D01*
X5871270Y1127150D01*
G03X5944570Y1326330I-3249J114273D01*
G02Y1356510I13605J15090D01*
G03X5791470I-76550J84910D01*
G02Y1326330I-13605J-15090D01*
G03X5755360Y1222030I76552J-84904D01*
G02X5735330Y1198260I-20026J-3449D01*
G01X5717890D01*
Y1209790D01*
X5718250Y1211110D01*
G03X5684570Y1326330I-110230J30311D01*
G02Y1356510I13605J15090D01*
G03X5531470I-76550J84910D01*
G02Y1326330I-13605J-15090D01*
G03X5495360Y1222030I76552J-84904D01*
G02X5475330Y1198260I-20026J-3449D01*
G01X5074080D01*
X4996560Y1120740D01*
X4814260D01*
G02X4794260Y1144660I0J20321D01*
G01X4807560Y1218510D01*
X4813150Y1224100D01*
X4905640D01*
X4908010Y1217280D01*
G03X5051980Y1217270I71987J25049D01*
G01X5054360Y1224090D01*
X5130620D01*
X5216220Y1309690D01*
Y1459170D01*
X5335600D01*
Y1531560D01*
X5344210D01*
X5408440Y1595790D01*
Y1809900D01*
G02X5440130Y1826740I20320J-1D01*
G03X5513740Y1795390I117878J174686D01*
G02X5524920Y1762330I-4275J-19866D01*
G03X5664610Y1784860I83099J-70910D01*
G02X5664840Y1819760I10526J17381D01*
G03X5440130Y2176100I-106813J181665D01*
G02X5408440Y2192940I-11370J16841D01*
G01Y2279830D01*
G02X5440300Y2296550I20318J-2D01*
G03X5685820Y2639060I119699J173449D01*
G02X5697950Y2675680I12131J16301D01*
G01X5724320D01*
Y2796970D01*
G02X5741660Y2804150I10158J-4D01*
G01X5755680Y2790140D01*
Y2675680D01*
X5984320D01*
Y2904320D01*
X5869860D01*
X5858630Y2915560D01*
X5868690Y2925620D01*
X5872750Y2925710D01*
G03X5946550Y3124910I-2748J114289D01*
G02Y3155090I13605J15090D01*
G03X5793450I-76550J84910D01*
G02Y3124910I-13605J-15090D01*
G03X5757340Y3020610I76552J-84904D01*
G02X5737310Y2996840I-20026J-3449D01*
G01X5719870D01*
Y3008370D01*
X5720230Y3009690D01*
G03X5686550Y3124910I-110230J30311D01*
G02Y3155090I13605J15090D01*
G03X5499240Y3268330I-76554J84907D01*
G02X5465190Y3258990I-19686J5031D01*
G01X5120660Y3603520D01*
G02X5138860Y3637840I14372J14364D01*
G03X5321940Y3735360I31137J162158D01*
G02X5359930Y3733790I18699J-7953D01*
G03X5515720Y3593970I200066J66215D01*
G02X5526900Y3560910I-4275J-19866D01*
G03X5666590Y3583440I83099J-70910D01*
G02X5666820Y3618340I10526J17381D01*
G03X5703040Y3954760I-106820J181660D01*
G02X5716830Y3990000I13794J14920D01*
G01X5983170D01*
G02X5996960Y3954760I-4J-20320D01*
G03X6283040I143040J-154760D01*
G02X6296830Y3990000I13794J14920D01*
G01X6369990D01*
X6370230Y3989990D01*
G03X6437470Y4010460I4768J105010D01*
G02X6468110Y4002370I12073J-16344D01*
G03X7083800Y3923290I331885J147631D01*
G02X7120000Y3910610I15879J-12681D01*
G01Y569390D01*
G02X7083800Y556710I-20321J1D01*
G03X6468470Y478440I-283805J-226711D01*
G37*
G36*
G01X5181870Y2944670D02*
X5120000Y3006540D01*
X5054360D01*
X5051980Y3013360D01*
G03X4908020I-71980J-25060D01*
G01X4905640Y3006540D01*
X4809000D01*
X4790110Y3107500D01*
G02X4810080Y3131560I19971J3741D01*
G01X5105790D01*
X5216560Y3020790D01*
Y2959040D01*
G02X5181870Y2944670I-20321J-1D01*
G37*
G36*
G01X4781760Y3868390D02*
X4812400Y3842500D01*
X4868580Y3875000D01*
X4812400Y3907500D01*
X4781760Y3881610D01*
G03Y3868390I10850J-6610D01*
G37*
G36*
G01X5000320Y1272810D02*
X4980000D01*
X4978200Y1240530D01*
X5010480Y1242330D01*
Y1262650D01*
G03X5000320Y1272810I-10160J0D01*
G37*
G36*
G01X4949520Y1262650D02*
Y1242330D01*
X4981800Y1240530D01*
X4980000Y1272810D01*
X4959680D01*
G03X4949520Y1262650I0J-10160D01*
G37*
G36*
G01X5010480Y1337980D02*
Y1358300D01*
X4978200Y1360100D01*
X4980000Y1327820D01*
X5000320D01*
G03X5010480Y1337980I0J10160D01*
G37*
G36*
G01X4959680Y1327820D02*
X4980000D01*
X4981800Y1360100D01*
X4949520Y1358300D01*
Y1337980D01*
G03X4959680Y1327820I10160J0D01*
G37*
G36*
G01X5091820Y1531250D02*
X5071420Y1548090D01*
X5028240Y1526500D01*
X5071420Y1504910D01*
X5091820Y1521750D01*
G03Y1531250I-8980J4750D01*
G37*
G36*
G01X4969510Y1585170D02*
X4990140Y1568410D01*
X5033960Y1590000D01*
X4990140Y1611590D01*
X4969510Y1594830D01*
G03Y1585170I11750J-4830D01*
G37*
G36*
G01X5091820Y1658250D02*
X5071420Y1675090D01*
X5028240Y1653500D01*
X5071420Y1631910D01*
X5091820Y1648750D01*
G03Y1658250I-8980J4750D01*
G37*
G36*
G01X5000320Y1872180D02*
X4980000D01*
X4978200Y1839900D01*
X5010480Y1841700D01*
Y1862020D01*
G03X5000320Y1872180I-10160J0D01*
G37*
G36*
G01X4949520Y1862020D02*
Y1841700D01*
X4981800Y1839900D01*
X4980000Y1872180D01*
X4959680D01*
G03X4949520Y1862020I0J-10160D01*
G37*
G36*
G01X5010480Y1937350D02*
Y1957670D01*
X4978200Y1959470D01*
X4980000Y1927190D01*
X5000320D01*
G03X5010480Y1937350I0J10160D01*
G37*
G36*
G01X4959680Y1927190D02*
X4980000D01*
X4981800Y1959470D01*
X4949520Y1957670D01*
Y1937350D01*
G03X4959680Y1927190I10160J0D01*
G37*
G36*
G01X5010480Y2377350D02*
Y2397670D01*
X4978200Y2399470D01*
X4980000Y2367190D01*
X5000320D01*
G03X5010480Y2377350I0J10160D01*
G37*
G36*
G01X4959680Y2367190D02*
X4980000D01*
X4981800Y2399470D01*
X4949520Y2397670D01*
Y2377350D01*
G03X4959680Y2367190I10160J0D01*
G37*
G36*
G01X5000320Y2312180D02*
X4980000D01*
X4978200Y2279900D01*
X5010480Y2281700D01*
Y2302020D01*
G03X5000320Y2312180I-10160J0D01*
G37*
G36*
G01X4949520Y2302020D02*
Y2281700D01*
X4981800Y2279900D01*
X4980000Y2312180D01*
X4959680D01*
G03X4949520Y2302020I0J-10160D01*
G37*
G36*
G01X4969510Y2625170D02*
X4990140Y2608410D01*
X5033960Y2630000D01*
X4990140Y2651590D01*
X4969510Y2634830D01*
G03Y2625170I11750J-4830D01*
G37*
G36*
G01X5091820Y2698250D02*
X5071420Y2715090D01*
X5028240Y2693500D01*
X5071420Y2671910D01*
X5091820Y2688750D01*
G03Y2698250I-8980J4750D01*
G37*
G36*
G01Y2571250D02*
X5071420Y2588090D01*
X5028240Y2566500D01*
X5071420Y2544910D01*
X5091820Y2561750D01*
G03Y2571250I-8980J4750D01*
G37*
G36*
G01X5000320Y2902810D02*
X4980000D01*
X4978200Y2870530D01*
X5010480Y2872330D01*
Y2892650D01*
G03X5000320Y2902810I-10160J0D01*
G37*
G36*
G01X4949520Y2892650D02*
Y2872330D01*
X4981800Y2870530D01*
X4980000Y2902810D01*
X4959680D01*
G03X4949520Y2892650I0J-10160D01*
G37*
G36*
G01X5010480Y2967980D02*
Y2988300D01*
X4978200Y2990100D01*
X4980000Y2957820D01*
X5000320D01*
G03X5010480Y2967980I0J10160D01*
G37*
G36*
G01X4959680Y2957820D02*
X4980000D01*
X4981800Y2990100D01*
X4949520Y2988300D01*
Y2967980D01*
G03X4959680Y2957820I10160J0D01*
G37*
G36*
G01X5188180Y1521750D02*
X5208580Y1504910D01*
X5251760Y1526500D01*
X5208580Y1548090D01*
X5188180Y1531250D01*
G03Y1521750I8980J-4750D01*
G37*
G36*
G01X5310490Y1594830D02*
X5289860Y1611590D01*
X5246040Y1590000D01*
X5289860Y1568410D01*
X5310490Y1585170D01*
G03Y1594830I-11750J4830D01*
G37*
G36*
G01X5188180Y1648750D02*
X5208580Y1631910D01*
X5251760Y1653500D01*
X5208580Y1675090D01*
X5188180Y1658250D01*
G03Y1648750I8980J-4750D01*
G37*
G36*
G01X5310490Y2634830D02*
X5289860Y2651590D01*
X5246040Y2630000D01*
X5289860Y2608410D01*
X5310490Y2625170D01*
G03Y2634830I-11750J4830D01*
G37*
G36*
G01X5188180Y2688750D02*
X5208580Y2671910D01*
X5251760Y2693500D01*
X5208580Y2715090D01*
X5188180Y2698250D01*
G03Y2688750I8980J-4750D01*
G37*
G36*
G01Y2561750D02*
X5208580Y2544910D01*
X5251760Y2566500D01*
X5208580Y2588090D01*
X5188180Y2571250D01*
G03Y2561750I8980J-4750D01*
G37*
G36*
G01X5305100Y2621020D02*
X5341020Y2585100D01*
X5353180Y2617300D01*
Y2642700D01*
X5341020Y2674900D01*
X5305100Y2638980D01*
G03Y2621020I8980J-8980D01*
G37*
%LPC*%
G75*
G36*
G01X2656150Y1179260D02*
X2676960Y1197660D01*
X2831460D01*
Y1187530D01*
G03X2862730Y1170410I20319J-4D01*
G02X2927740Y1178560I41066J-64211D01*
G01X2933280Y1176730D01*
X2956960Y1197660D01*
X3111460D01*
Y1185940D01*
G03X3143230Y1169160I20318J3D01*
G02X3208580Y1179060I42963J-62960D01*
G01X3214030Y1177390D01*
X3236960Y1197660D01*
X3391460D01*
Y1185940D01*
G03X3423230Y1169160I20318J3D01*
G02X3488580Y1179060I42963J-62960D01*
G01X3494030Y1177390D01*
X3516960Y1197660D01*
X3671460D01*
Y891820D01*
X3665430Y884410D01*
X3686700Y859030D01*
Y695060D01*
X3473300D01*
Y859030D01*
X3494570Y884410D01*
X3488540Y891820D01*
Y1009680D01*
G03X3467800Y1030000I-20321J4D01*
G02X3423230Y1043240I-1614J76204D01*
G03X3391460Y1026460I-11452J-16783D01*
G01Y891820D01*
X3385430Y884410D01*
X3406700Y859030D01*
Y695060D01*
X3193300D01*
Y859030D01*
X3214570Y884410D01*
X3208540Y891820D01*
Y1009680D01*
G03X3187800Y1030000I-20321J4D01*
G02X3143230Y1043240I-1614J76204D01*
G03X3111460Y1026460I-11452J-16783D01*
G01Y891820D01*
X3105430Y884410D01*
X3126700Y859030D01*
Y695060D01*
X2913300D01*
Y859030D01*
X2934570Y884410D01*
X2928540Y891820D01*
Y1009760D01*
G03X2907290Y1030060I-20320J2D01*
G02X2862730Y1041990I-3492J76140D01*
G03X2831460Y1024870I-10951J-17116D01*
G01Y891820D01*
X2825430Y884410D01*
X2846700Y859030D01*
Y695060D01*
X2633300D01*
Y859030D01*
X2654570Y884410D01*
X2648540Y891820D01*
Y1009820D01*
G03X2629390Y1030110I-20320J3D01*
G02X2651040Y1180440I4397J76091D01*
G01X2656150Y1179260D01*
G37*
G54D37*
X6138020Y2001420D03*
X6140000Y2470000D03*
G54D36*
X5868020Y1691420D03*
X5870000Y3490000D03*
%LPD*%
G75*
G36*
G01X2727200Y899890D02*
X2679040Y842400D01*
X2740000Y785250D01*
X2800960Y842400D01*
X2752800Y899890D01*
G03X2727200I-12800J-21940D01*
G37*
G36*
G01X2750310Y864560D02*
X2785720Y908080D01*
X2740000Y960150D01*
X2694280Y908080D01*
X2729690Y864560D01*
G03X2750310I10310J23210D01*
G37*
G36*
G01X2650970Y1098770D02*
X2694280Y1060480D01*
X2743180Y1106200D01*
X2694280Y1151920D01*
X2650970Y1113630D01*
G03Y1098770I10300J-7430D01*
G37*
G36*
G01X2667920Y1115180D02*
X2655340Y1127740D01*
X2630620Y1106200D01*
X2655340Y1084660D01*
X2667920Y1097220D01*
G03Y1115180I-8980J8980D01*
G37*
G36*
G01X3007200Y899890D02*
X2959040Y842400D01*
X3020000Y785250D01*
X3080960Y842400D01*
X3032800Y899890D01*
G03X3007200I-12800J-21940D01*
G37*
G36*
G01X3030310Y864560D02*
X3065720Y908080D01*
X3020000Y960150D01*
X2974280Y908080D01*
X3009690Y864560D01*
G03X3030310I10310J23210D01*
G37*
G36*
G01X2930970Y1098770D02*
X2974280Y1060480D01*
X3023180Y1106200D01*
X2974280Y1151920D01*
X2930970Y1113630D01*
G03Y1098770I10300J-7430D01*
G37*
G36*
G01X2937920Y1115180D02*
X2925340Y1127740D01*
X2900620Y1106200D01*
X2925340Y1084660D01*
X2937920Y1097220D01*
G03Y1115180I-8980J8980D01*
G37*
G36*
G01X3210970Y1098770D02*
X3254280Y1060480D01*
X3303180Y1106200D01*
X3254280Y1151920D01*
X3210970Y1113630D01*
G03Y1098770I10300J-7430D01*
G37*
G36*
G01X3220320Y1115180D02*
X3207740Y1127740D01*
X3183020Y1106200D01*
X3207740Y1084660D01*
X3220320Y1097220D01*
G03Y1115180I-8980J8980D01*
G37*
G36*
G01X3287200Y899890D02*
X3239040Y842400D01*
X3300000Y785250D01*
X3360960Y842400D01*
X3312800Y899890D01*
G03X3287200I-12800J-21940D01*
G37*
G36*
G01X3310310Y864560D02*
X3345720Y908080D01*
X3300000Y960150D01*
X3254280Y908080D01*
X3289690Y864560D01*
G03X3310310I10310J23210D01*
G37*
G36*
G01X3567200Y899890D02*
X3519040Y842400D01*
X3580000Y785250D01*
X3640960Y842400D01*
X3592800Y899890D01*
G03X3567200I-12800J-21940D01*
G37*
G36*
G01X3590310Y864560D02*
X3625720Y908080D01*
X3580000Y960150D01*
X3534280Y908080D01*
X3569690Y864560D01*
G03X3590310I10310J23210D01*
G37*
G36*
G01X3490970Y1098770D02*
X3534280Y1060480D01*
X3583180Y1106200D01*
X3534280Y1151920D01*
X3490970Y1113630D01*
G03Y1098770I10300J-7430D01*
G37*
G36*
G01X3500320Y1115180D02*
X3487740Y1127740D01*
X3463020Y1106200D01*
X3487740Y1084660D01*
X3500320Y1097220D01*
G03Y1115180I-8980J8980D01*
G37*
G36*
G01X3704120Y3008980D02*
X3691540Y3021540D01*
X3666820Y3000000D01*
X3691540Y2978460D01*
X3704120Y2991020D01*
G03Y3008980I-8980J8980D01*
G37*
G54D10*
X330000Y330000D03*
Y4150000D03*
X6800000Y330000D03*
Y4150000D03*
G54D20*
X1745860Y3270000D03*
Y3460000D03*
X1954140Y3270000D03*
Y3460000D03*
X2195860Y3270000D03*
X2404140D03*
X3675860Y3280000D03*
X3884140D03*
G54D11*
X148680Y754840D03*
Y1008840D03*
Y1262840D03*
Y1516840D03*
Y1770840D03*
Y2024840D03*
Y2278840D03*
Y2532840D03*
Y2786840D03*
Y3040840D03*
Y3294840D03*
Y3548840D03*
X811040Y1175900D03*
Y1429900D03*
X841040Y2305900D03*
Y2559900D03*
X1002100Y3861040D03*
X1090000Y1600000D03*
Y1820000D03*
Y2060000D03*
Y2230000D03*
X1320000Y1600000D03*
Y1820000D03*
Y2060000D03*
Y2230000D03*
X1250100Y2641040D03*
X1256100Y3861040D03*
X1500000Y1090000D03*
Y1180000D03*
X1504100Y2641040D03*
X1440000Y3100000D03*
Y3260000D03*
Y3410000D03*
Y3570000D03*
X1510100Y3861040D03*
X1590000Y3100000D03*
Y3260000D03*
Y3410000D03*
Y3570000D03*
X1764100Y3861040D03*
X2050000Y2020000D03*
X2020000Y2380000D03*
X2060000Y2610000D03*
Y2740000D03*
X2020000Y3920000D03*
X2123640Y1505380D03*
X2180000Y3050000D03*
X2100000D03*
Y3140000D03*
X2180000D03*
X2377640Y1505380D03*
X2380000Y2270000D03*
X2270000Y2610000D03*
X2274420Y2739410D03*
X2260000Y3050000D03*
Y3140000D03*
X2330100Y3461040D03*
X2430100Y1241040D03*
Y1891040D03*
X2500000Y2610000D03*
Y2740000D03*
X2470100Y3941040D03*
X2633800Y1106200D03*
X2684100Y1241040D03*
Y1891040D03*
X2584100Y3461040D03*
X2724100Y3941040D03*
X2903800Y1106200D03*
X2800000Y2630000D03*
X2810000Y2860000D03*
X3010000Y1290000D03*
Y1490000D03*
X2980000Y1980000D03*
X3060000D03*
X2990100Y2231040D03*
X2980100Y2501040D03*
X3024100Y2851040D03*
X2930100Y3461040D03*
X2990100Y3941040D03*
X3186200Y1106200D03*
X3170000Y1980000D03*
X3244100Y2231040D03*
X3234100Y2501040D03*
X3184100Y3461040D03*
X3244100Y3941040D03*
X3300000Y1980000D03*
X3380000D03*
X3340000Y2850000D03*
X3466200Y1106200D03*
X3500000Y2290000D03*
X3580000Y2370000D03*
X3590000Y3000000D03*
X3500000D03*
Y3120000D03*
X3450100Y3461040D03*
X3510100Y3941040D03*
X3710000Y1430000D03*
X3650000Y1680000D03*
X3760000Y2650000D03*
X3670000Y3000000D03*
X3704100Y3461040D03*
X3930000Y1430000D03*
X3780000Y1870000D03*
X3850000Y1970000D03*
X3890000Y2050000D03*
X3860000Y2380000D03*
X3764100Y3941040D03*
X3970000Y530000D03*
X4060000D03*
X3970000Y720000D03*
X4060000D03*
X3994600Y1080000D03*
X4050000Y2120000D03*
X4080000Y2560000D03*
X4100000Y3260000D03*
X4030000Y3330000D03*
X4010000Y3590000D03*
X4100000D03*
Y3780000D03*
X4010000D03*
X4150000Y530000D03*
Y630000D03*
Y720000D03*
X4265400Y1080000D03*
X4140000Y1530000D03*
X4180000Y3450000D03*
X4190000Y3590000D03*
Y3690000D03*
Y3780000D03*
X4410000Y1090000D03*
X4400000Y1530000D03*
Y1660000D03*
X4310000Y2120000D03*
X4300000Y2560000D03*
Y2710000D03*
X4560000Y530000D03*
Y720000D03*
X4584600Y940000D03*
X4520000Y3450000D03*
X4490000Y3875000D03*
X4570000Y3780000D03*
X4740000Y530000D03*
X4650000D03*
X4740000Y630000D03*
Y720000D03*
X4650000D03*
X4630000Y1530000D03*
Y1660000D03*
X4620000Y2560000D03*
Y2710000D03*
X4750000Y3680000D03*
X4720000Y3875000D03*
X4750000Y3780000D03*
X4660000D03*
X4855400Y940000D03*
X4850000Y1530000D03*
Y1670000D03*
X4910000Y2560000D03*
X4880000Y3350000D03*
X4980000Y1242330D03*
Y1358300D03*
Y1841700D03*
Y1957670D03*
Y2397670D03*
Y2281700D03*
Y2872330D03*
Y2988300D03*
Y3100000D03*
X5210000Y970000D03*
X5130000D03*
X5250000Y2000000D03*
X5450000Y1230000D03*
X5370000D03*
X6515560Y822840D03*
Y1076840D03*
Y1330840D03*
Y1584840D03*
Y1838840D03*
Y2092840D03*
Y2346840D03*
Y2600840D03*
Y2854840D03*
Y3108840D03*
Y3362840D03*
Y3616840D03*
X6769560Y822840D03*
Y1076840D03*
Y1330840D03*
Y1584840D03*
Y1838840D03*
Y2092840D03*
Y2346840D03*
Y2600840D03*
Y2854840D03*
Y3108840D03*
Y3362840D03*
Y3616840D03*
X7023560Y822840D03*
Y1076840D03*
Y1330840D03*
Y1584840D03*
Y1838840D03*
Y2092840D03*
Y2346840D03*
Y2600840D03*
Y2854840D03*
Y3108840D03*
Y3362840D03*
Y3616840D03*
G54D30*
G01X4265400Y625000D02*
X4395000D01*
X4470000Y700000D01*
Y970000D01*
X4540000Y1040000D01*
X5030000D01*
X5107520Y1117520D01*
X5742480D01*
X5868020Y991980D01*
Y991420D01*
G01X5610000Y2790000D02*
X5470000D01*
X5350000Y2910000D01*
Y3100000D01*
X4880000Y3570000D01*
X4420400D01*
X4305400Y3685000D01*
G01X4855400Y625000D02*
X5085000D01*
X5451420Y991420D01*
X5608020D01*
G01X5870000Y2790000D02*
X5743900Y2916100D01*
X5530000D01*
X5460000Y2986100D01*
Y3150000D01*
X4925000Y3685000D01*
X4865400D01*
G54D21*
X1930000Y588400D03*
Y791600D03*
X2200000Y588400D03*
Y791600D03*
X2740000Y588400D03*
Y791600D03*
X3020000Y588400D03*
Y791600D03*
X3300000Y588400D03*
Y791600D03*
X3580000Y588400D03*
Y791600D03*
G54D12*
X630000Y3380000D03*
X1230000D03*
G54D31*
G01X1110000Y1405000D02*
X1189680Y1484680D01*
Y2307160D01*
X1283160Y2400640D01*
G01X1310000Y1405000D02*
X1230320Y1484680D01*
Y2290320D01*
X1299680Y2359680D01*
G01D02*
X1300000Y2360000D01*
G01X1543500Y2338480D02*
Y2339360D01*
X1523180Y2359680D01*
X1299680D01*
G01X1283160Y2400640D02*
X1283170Y2400650D01*
X1316830D01*
X1316840Y2400640D01*
G01D02*
X1283160D01*
G01X1543500Y2420960D02*
X1523180Y2400640D01*
X1316840D01*
G01X1543500Y2338480D02*
X1564380Y2359360D01*
X1687600D01*
X1773800Y2273160D01*
Y2270000D01*
G01X1543500Y2270780D02*
Y2338480D01*
G01Y2420960D02*
Y2420320D01*
X1563820Y2400000D01*
X1687600D01*
X1773800Y2486200D01*
Y2490000D01*
G01X1543500Y2489220D02*
Y2420960D01*
G01X1926200Y2270000D02*
X2103800D01*
G01X1926200Y2490000D02*
X2103800D01*
G01X1926200Y2640000D02*
Y2490000D01*
G01X2103800Y2270000D02*
X2193480Y2359680D01*
X2397160D01*
X2507160Y2469680D01*
X2700270D01*
X2719950Y2450000D01*
X2810000D01*
G01X2103800Y2490000D02*
X2193480Y2400320D01*
X2380320D01*
X2490320Y2510320D01*
X2700270D01*
X2719950Y2530000D01*
X2810000D01*
G01X4216200Y1200000D02*
X4136840Y1279360D01*
X3293160D01*
X3159680Y1412840D01*
Y1690270D01*
X3140000Y1709950D01*
Y1800000D01*
G01X4216200Y1400000D02*
X4136200Y1320000D01*
X3310000D01*
X3200320Y1429680D01*
Y1690270D01*
X3220000Y1709950D01*
Y1800000D01*
G01X4216200D02*
Y1803160D01*
X4140000Y1879360D01*
X3969360D01*
X3870640Y1780640D01*
Y1613160D01*
X3806840Y1549360D01*
X3543160D01*
X3479680Y1612840D01*
Y1690270D01*
X3460000Y1709950D01*
Y1800000D01*
G01X4216200Y2000000D02*
Y1996200D01*
X4140000Y1920000D01*
X3952520D01*
X3830000Y1797480D01*
Y1630000D01*
X3790000Y1590000D01*
X3560000D01*
X3520320Y1629680D01*
Y1690270D01*
X3540000Y1709950D01*
Y1800000D01*
G01X4216200Y2240000D02*
X4136840Y2319360D01*
X3986840D01*
X3950640Y2283160D01*
Y2213160D01*
X3887160Y2149680D01*
X3819730D01*
X3800050Y2130000D01*
X3710000D01*
G01X4216200Y2440000D02*
X4136200Y2360000D01*
X3970000D01*
X3910000Y2300000D01*
Y2230000D01*
X3870320Y2190320D01*
X3819730D01*
X3800050Y2210000D01*
X3710000D01*
G01Y2530000D02*
X3800050D01*
X3819730Y2510320D01*
X3859680D01*
X3880000Y2530640D01*
Y2847480D01*
X3982520Y2950000D01*
X4130000D01*
X4210000Y3030000D01*
X4216200D01*
G01X3710000Y2450000D02*
X3800050D01*
X3819730Y2469680D01*
X3876520D01*
X3920640Y2513800D01*
Y2830640D01*
X3999360Y2909360D01*
X4130000D01*
X4209360Y2830000D01*
X4216200D01*
G01Y1200000D02*
X4393800D01*
G01X4216200Y1400000D02*
X4393800D01*
G01X4216200Y1800000D02*
X4393800D01*
G01X4216200Y2000000D02*
X4216910Y1999290D01*
X4396160D01*
G01X4216200Y2240000D02*
X4393800D01*
G01X4216200Y2440000D02*
X4393800D01*
G01X4216200Y2830000D02*
X4393800D01*
G01X4216200Y3030000D02*
X4393800D01*
G01X4546200Y1200000D02*
X4703800D01*
G01X4546200Y1400000D02*
X4703800D01*
G01Y1800000D02*
X4546200D01*
G01X4703800Y2000000D02*
X4703090Y1999290D01*
X4548560D01*
G01X4546200Y2240000D02*
X4703800D01*
G01X4546200Y2440000D02*
X4703800D01*
G01X4546200Y2830000D02*
X4703800D01*
G01X4546200Y3030000D02*
X4703800D01*
G01X4980000Y1242330D02*
X4942330Y1280000D01*
X4790000D01*
X4710000Y1200000D01*
X4703800D01*
G01X4980000Y1358300D02*
X4942340Y1320640D01*
X4790000D01*
X4710640Y1400000D01*
X4703800D01*
G01X4980000Y1841700D02*
X4942340Y1879360D01*
X4790000D01*
X4710640Y1800000D01*
X4703800D01*
G01X4980000Y1957670D02*
X4942330Y1920000D01*
X4790000D01*
X4710000Y2000000D01*
X4703800D01*
G01X4980000Y2281700D02*
X4942340Y2319360D01*
X4790000D01*
X4710640Y2240000D01*
X4703800D01*
G01X4980000Y2397670D02*
X4942330Y2360000D01*
X4790000D01*
X4710000Y2440000D01*
X4703800D01*
G01X4980000Y2872330D02*
X4942330Y2910000D01*
X4790000D01*
X4710000Y2830000D01*
X4703800D01*
G01X4980000Y2988300D02*
X4942340Y2950640D01*
X4790000D01*
X4710640Y3030000D01*
X4703800D01*
G01X4980000Y1242330D02*
X5017660Y1279990D01*
X5107470D01*
X5160320Y1332840D01*
Y1506180D01*
X5180640Y1526500D01*
X5249220D01*
G01X5030780D02*
X5099360D01*
X5119680Y1506180D01*
Y1349680D01*
X5090630Y1320630D01*
X5017670D01*
X4980000Y1358300D01*
G01X5030780Y1653500D02*
X5099360D01*
X5119680Y1673820D01*
Y1850320D01*
X5090630Y1879370D01*
X5017670D01*
X4980000Y1841700D01*
G01Y1957670D02*
X5017660Y1920010D01*
X5107470D01*
X5160320Y1867160D01*
Y1673820D01*
X5180640Y1653500D01*
X5249220D01*
G01X4980000Y2397670D02*
X5017030Y2360640D01*
X5090640D01*
X5119680Y2389680D01*
Y2546180D01*
X5099360Y2566500D01*
X5030780D01*
G01X4980000Y2281700D02*
X5018300Y2320000D01*
X5107480D01*
X5160320Y2372840D01*
Y2546180D01*
X5180640Y2566500D01*
X5249220D01*
G01X4980000Y2872330D02*
X5017670Y2910000D01*
X5080010D01*
X5119680Y2870330D01*
Y2713820D01*
X5099360Y2693500D01*
X5030780D01*
G01X5249220D02*
X5180640D01*
X5160320Y2713820D01*
Y2887170D01*
X5096850Y2950640D01*
X5017660D01*
X4980000Y2988300D01*
G54D22*
X1773800Y1900000D03*
Y2120000D03*
Y2270000D03*
Y2490000D03*
Y2640000D03*
X1926200Y1900000D03*
Y2120000D03*
Y2270000D03*
Y2490000D03*
Y2640000D03*
X2103800Y1900000D03*
Y2120000D03*
Y2270000D03*
Y2490000D03*
X2256200Y1900000D03*
Y2120000D03*
Y2270000D03*
Y2490000D03*
X2643800Y3280000D03*
X2796200D03*
X2973800D03*
X3126200D03*
X3303800D03*
X3456200D03*
X3663800Y3110000D03*
X3816200D03*
X4063800Y1200000D03*
Y1400000D03*
Y1800000D03*
Y2000000D03*
Y2240000D03*
Y2440000D03*
Y2830000D03*
Y3030000D03*
X4216200Y1200000D03*
Y1400000D03*
Y1800000D03*
Y2000000D03*
Y2240000D03*
Y2440000D03*
Y2830000D03*
Y3030000D03*
X4393800Y1200000D03*
Y1400000D03*
Y1800000D03*
X4396160Y1999290D03*
X4393800Y2240000D03*
Y2440000D03*
Y2830000D03*
Y3030000D03*
X4546200Y1200000D03*
Y1400000D03*
Y1800000D03*
X4548560Y1999290D03*
X4546200Y2240000D03*
Y2440000D03*
Y2830000D03*
Y3030000D03*
X4703800Y1200000D03*
Y1400000D03*
Y1800000D03*
Y2000000D03*
Y2240000D03*
Y2440000D03*
Y2830000D03*
Y3030000D03*
X4856200Y1200000D03*
Y1400000D03*
Y1800000D03*
Y2000000D03*
Y2240000D03*
Y2440000D03*
Y2830000D03*
Y3030000D03*
G54D13*
X839000Y678000D03*
Y1882000D03*
X5558020Y671420D03*
Y2001420D03*
X5560000Y2470000D03*
Y3800000D03*
X6138020Y671420D03*
Y2001420D03*
X6140000Y2470000D03*
Y3800000D03*
G54D32*
G01X1773800Y2120000D02*
X1520000D01*
X1480000Y2160000D01*
Y2270780D01*
G01Y2489220D02*
Y2590000D01*
G01X1975000Y3045000D02*
X1890000Y2960000D01*
Y2760000D01*
X1773800Y2643800D01*
Y2640000D01*
G01X2256200Y1900000D02*
X2166200Y1810000D01*
X2016200D01*
X1926200Y1900000D01*
G01X1985400Y3045000D02*
X1975000D01*
G01X2253800Y2270000D02*
X2103800Y2120000D01*
G01X2810000Y2290000D02*
X2646200D01*
X2256200Y1900000D01*
G01Y2270000D02*
X2253800D01*
G01X2740000Y1106200D02*
X2633800D01*
G01X2796200Y3280000D02*
Y3603800D01*
X2750000Y3650000D01*
X2555000D01*
G01X3140000Y2700000D02*
Y2936200D01*
X2796200Y3280000D01*
G01X3020000Y1106200D02*
X2903800D01*
G01X2980000Y1800000D02*
Y1980000D01*
G01X3060000D02*
Y1800000D01*
G01X3220000Y2700000D02*
Y3033800D01*
X2973800Y3280000D01*
G01X3300000Y1106200D02*
X3186200D01*
G01X3126200Y3280000D02*
X3303800D01*
G01X3300000Y1980000D02*
Y1800000D01*
G01X3380000Y1980000D02*
Y1800000D01*
G01X3303800Y3280000D02*
Y3603800D01*
X3350000Y3650000D01*
X3505000D01*
G01X3580000Y1106200D02*
X3466200D01*
G01X3710000Y2290000D02*
X3500000D01*
G01X3710000Y1970000D02*
X3850000D01*
G01X3710000Y2050000D02*
X3890000D01*
G01X3710000Y2370000D02*
X3580000D01*
G01X3680000Y2990000D02*
X3670000Y3000000D01*
G01X5350000Y2630000D02*
Y2800000D01*
X5275000Y2875000D01*
Y3045000D01*
X5130000Y3190000D01*
X4040000D01*
X3850000Y3000000D01*
X3670000D01*
G01X4030000Y3330000D02*
X3850000Y3510000D01*
Y3900000D01*
X3900000Y3950000D01*
X4210000D01*
X4285000Y3875000D01*
X4305400D01*
G01X3994600Y815000D02*
Y1080000D01*
G01X4100000Y3260000D02*
Y3360000D01*
X3920000Y3540000D01*
Y3830000D01*
X3965000Y3875000D01*
X4034600D01*
G01X4856200Y3063800D02*
X4790000Y3130000D01*
X4120000D01*
X4100000Y3110000D01*
G01X4265400Y815000D02*
Y1080000D01*
G01X4594600Y3875000D02*
X4490000D01*
G01X4584600Y815000D02*
Y940000D01*
G01X4865400Y3875000D02*
X4720000D01*
G01X4855400Y815000D02*
Y940000D01*
G01X5030780Y1590000D02*
X4920000D01*
G01X5030780Y2630000D02*
X4920000D01*
G01X4856200Y3030000D02*
Y3063800D01*
G01X5350000Y2630000D02*
Y1620000D01*
X5320000Y1590000D01*
X5249220D01*
G01X5350000Y2630000D02*
X5249220D01*
G54D23*
X1930000Y953800D03*
Y1106200D03*
X2200000Y953800D03*
Y1106200D03*
X2740000Y953800D03*
Y1106200D03*
X3020000Y953800D03*
Y1106200D03*
X3300000Y953800D03*
Y1106200D03*
X3580000Y953800D03*
Y1106200D03*
G54D14*
X950000Y2900000D03*
G54D33*
G01X474100Y3380000D02*
X630000D01*
G01X618100Y678000D02*
X839000D01*
G01X694100Y2900000D02*
X950000D01*
G01X630000Y3124100D02*
Y3380000D01*
G01D02*
Y3635900D01*
G01Y3380000D02*
X785900D01*
G01X839000Y678000D02*
X1059900D01*
G01X839000Y1661100D02*
Y1882000D01*
G01D02*
Y2102900D01*
G01Y1882000D02*
X1059900D01*
G01X950000Y2744100D02*
Y2900000D01*
G01D02*
Y3055900D01*
G01X1230000Y3124100D02*
Y3380000D01*
G01D02*
Y3635900D01*
G01Y3380000D02*
X1385900D01*
G01X5337120Y671420D02*
X5558020D01*
G01D02*
X5778920D01*
G01X5608020Y1572020D02*
Y1691420D01*
G01X5488620D02*
X5608020D01*
G01D02*
X5727420D01*
G01X5558020Y2001420D02*
Y2222320D01*
G01Y2001420D02*
X5778920D01*
G01X5560000Y2249100D02*
Y2470000D01*
G01D02*
X5780900D01*
G01X5610000Y3370600D02*
Y3490000D01*
G01X5490600D02*
X5610000D01*
G01D02*
X5729400D01*
G01X5748620Y1691420D02*
X5868020D01*
G01X5750600Y3490000D02*
X5870000D01*
G01X5917120Y671420D02*
X6138020D01*
G01X5868020Y1572020D02*
Y1691420D01*
G01D02*
Y1810820D01*
G01Y1691420D02*
X5987420D01*
G01X5917120Y2001420D02*
X6138020D01*
G01X5919100Y2470000D02*
X6140000D01*
G01X5870000Y3370600D02*
Y3490000D01*
G01D02*
Y3609400D01*
G01Y3490000D02*
X5989400D01*
G01X5919100Y3800000D02*
X6140000D01*
G01X6138020Y671420D02*
Y892320D01*
G01Y671420D02*
X6358920D01*
G01X6138020Y1780520D02*
Y2001420D01*
G01D02*
Y2222320D01*
G01Y2001420D02*
X6358920D01*
G01X6140000Y2249100D02*
Y2470000D01*
G01D02*
Y2690900D01*
G01Y2470000D02*
X6360900D01*
G01X6140000Y3579100D02*
Y3800000D01*
G01D02*
X6360900D01*
G54D15*
X1110000Y1155000D03*
Y1405000D03*
X1310000D03*
G54D24*
X2555000Y3650000D03*
X3505000D03*
G54D34*
G01X6800000Y4480000D02*
G02X7130000Y4150000I0J-330000D01*
G01Y330000D01*
G02X6800000Y0I-330000J0D01*
G02X6470000Y330000I0J330000D01*
G01Y380000D01*
G03X6370000Y480000I-100000J0D01*
G01X760000D01*
G03X660000Y380000I0J-100000D01*
G01Y330000D01*
G02X330000Y0I-330000J0D01*
G02X0Y330000I0J330000D01*
G01Y4150000D01*
G02X330000Y4480000I330000J0D01*
G02X660000Y4150000I0J-330000D01*
G01Y4100000D01*
G03X760000Y4000000I100000J0D01*
G01X6370000D01*
G03X6470000Y4100000I0J100000D01*
G01Y4150000D01*
G02X6800000Y4480000I330000J0D01*
G54D16*
X1310000Y1155000D03*
G54D25*
X2810000Y2050000D03*
Y1970000D03*
Y2210000D03*
Y2130000D03*
Y2370000D03*
Y2290000D03*
Y2530000D03*
Y2450000D03*
X3710000Y2050000D03*
Y1970000D03*
Y2210000D03*
Y2130000D03*
Y2370000D03*
Y2290000D03*
Y2530000D03*
Y2450000D03*
G54D35*
G01X1230000Y3380000D02*
X1030000D01*
X540000Y2890000D01*
Y1110000D01*
X670000Y980000D01*
X1780000D01*
X1906200Y1106200D01*
X1930000D01*
G01X1310000Y1155000D02*
X1315000D01*
X1450000Y1290000D01*
G01D02*
Y1880000D01*
X1580000Y2010000D01*
X1840000D01*
X1926200Y2096200D01*
Y2120000D01*
G01X1450000Y1290000D02*
X2016200D01*
X2200000Y1106200D01*
G01X1714600Y2950000D02*
X1800000D01*
G01D02*
X1820000Y2930000D01*
Y2800000D01*
X1770000Y2750000D01*
G01X1930000Y953800D02*
Y791600D01*
G01X2200000Y953800D02*
Y791600D01*
G01X2256200Y2120000D02*
Y2086200D01*
X2103800Y1933800D01*
Y1900000D01*
G01X2256200Y2120000D02*
X2380000D01*
X2630000Y2370000D01*
X2810000D01*
G01X2740000Y953800D02*
Y791600D01*
G01X3500000Y2530000D02*
Y2470000D01*
X3400000Y2370000D01*
X2810000D01*
G01X3020000Y953800D02*
Y791600D01*
G01X3300000Y953800D02*
Y791600D01*
G01X3580000Y953800D02*
Y791600D01*
G01X3540000Y2700000D02*
Y2570000D01*
X3500000Y2530000D01*
G01D02*
X3460000Y2570000D01*
Y2700000D01*
G01X3540000D02*
Y2830000D01*
X3497750Y2872250D01*
G01D02*
X3460000Y2834500D01*
Y2700000D01*
G01X3497750Y2872250D02*
Y2943950D01*
G01D02*
X3663800Y3110000D01*
G01D02*
Y3267940D01*
X3675860Y3280000D01*
G01X3970000Y3030000D02*
X3820000Y2880000D01*
G01X4063800Y3030000D02*
X3970000D01*
G01X4440000Y3950000D02*
X4410000Y3920000D01*
Y3800000D01*
G01D02*
X4400000Y3790000D01*
G01X5550000Y3800000D02*
X5380000Y3630000D01*
G01X5550000Y3800000D02*
X5390000Y3960000D01*
G01X5560000Y3800000D02*
X5550000D01*
G54D17*
X1543500Y2270780D03*
X1480000D03*
X1416500D03*
Y2489220D03*
X1480000D03*
X1543500D03*
G54D26*
X3060000Y1800000D03*
X2980000D03*
Y2700000D03*
X3060000D03*
X3220000Y1800000D03*
X3140000D03*
Y2700000D03*
X3220000D03*
X3380000Y1800000D03*
X3300000D03*
Y2700000D03*
X3380000D03*
X3540000Y1800000D03*
X3460000D03*
Y2700000D03*
X3540000D03*
G54D27*
X5030780Y1526500D03*
Y1590000D03*
Y1653500D03*
Y2566500D03*
Y2630000D03*
Y2693500D03*
X5249220Y1526500D03*
Y1653500D03*
Y1590000D03*
Y2566500D03*
Y2693500D03*
Y2630000D03*
G54D18*
X1610000Y670000D03*
X5170000Y3800000D03*
G54D28*
X5608020Y991420D03*
X5610000Y2790000D03*
X5868020Y991420D03*
X5870000Y2790000D03*
G54D19*
X1714600Y2855000D03*
Y2950000D03*
Y3045000D03*
X1985400Y2855000D03*
Y3045000D03*
X3994600Y625000D03*
Y815000D03*
X4034600Y3685000D03*
Y3875000D03*
X4265400Y625000D03*
Y815000D03*
Y720000D03*
X4305400Y3685000D03*
Y3875000D03*
Y3780000D03*
X4584600Y625000D03*
Y815000D03*
X4594600Y3685000D03*
Y3875000D03*
X4855400Y625000D03*
Y815000D03*
Y720000D03*
X4865400Y3685000D03*
Y3875000D03*
Y3780000D03*
G54D29*
X5608020Y1241420D03*
Y1441420D03*
Y1691420D03*
X5610000Y3040000D03*
Y3240000D03*
Y3490000D03*
X5868020Y1241420D03*
Y1441420D03*
Y1691420D03*
X5870000Y3040000D03*
Y3240000D03*
Y3490000D03*
M02*
