M48
METRIC,TZ
T01C.3048
T02C.4572
T03C.889
T04C1.0008
T05C1.7
T06C3.4036
T07C3.3
;LEADER: 12 
;HEADER: 
;CODE  : ASCII 
;FILE  : 88E6071_TEST_V10B-1-2.drl for board H:/GitHub/MBEDBoard/88E6071_TEST_V10B/PCB/#Taaaabz06208.tmp ... layers TOP and BOTTOM
;T01 Holesize 1. = 0.304800 Tolerance = +0.000000/-0.000000 PLATED MM Quantity = 353
;T02 Holesize 2. = 0.457200 Tolerance = +0.000000/-0.000000 PLATED MM Quantity = 9
;T03 Holesize 3. = 0.889000 Tolerance = +0.000000/-0.000000 PLATED MM Quantity = 6
;T04 Holesize 4. = 1.000800 Tolerance = +0.000000/-0.000000 PLATED MM Quantity = 60
;T05 Holesize 5. = 1.700000 Tolerance = +0.000000/-0.000000 PLATED MM Quantity = 10
;T06 Holesize 6. = 3.403600 Tolerance = +0.000000/-0.000000 PLATED MM Quantity = 4
;T07 Holesize 7. = 3.300000 Tolerance = +0.000000/-0.000000 NON_PLATED MM Quantity = 10
%
G90
T01
X1058150Y202300
X1458150Y202300
X1858150Y202300
X2258150Y202300
X2658150Y202300
X3058150Y202300
X3458150Y202300
X3858150Y202300
X4258150Y202300
X4658150Y202300
X5058150Y202300
X5458150Y202300
X5858150Y202300
X6258150Y202300
X6658150Y202300
X7058150Y202300
X7458150Y202300
X7858150Y202300
X8258150Y202300
X9472940Y1320720
X9472940Y920720
X112940Y1310720
X112940Y910720
X112940Y1710720
X112940Y2110720
X1360000Y2220000
X3010000Y2220000
X4690000Y2220000
X6340000Y2220000
X8000000Y2220000
X9472940Y1720720
X9472940Y2120720
X9472940Y2920720
X9472940Y2520720
X9131790Y2811140
X9131790Y2411140
X8880000Y2510000
X8851790Y3021140
X8491790Y3011140
X8491790Y2611140
X8071790Y2991140
X8071790Y2591140
X7691790Y2991140
X7691790Y2591140
X7291790Y2991140
X7291790Y2591140
X7210000Y2360000
X7020000Y2700000
X6960000Y2330000
X6840000Y2490000
X6800000Y2910000
X6610000Y2650000
X6440000Y2940000
X6250000Y2650000
X6120000Y2940000
X5900000Y2360000
X5890000Y2910000
X5880000Y2590000
X5700000Y2770000
X5670000Y2910000
X5580000Y2340000
X5520000Y2910000
X5450000Y2610000
X5300000Y2910000
X5270000Y2790000
X5200000Y2320000
X5160000Y2530000
X5090000Y2910000
X5020000Y2690000
X4890000Y2910000
X4810000Y2780000
X4720000Y2910000
X4560000Y2590000
X4510000Y2910000
X4460000Y2740000
X3930000Y2480000
X3710000Y2760000
X3650000Y2410000
X3390000Y2840000
X3330000Y2560000
X3070000Y2840000
X2661790Y2871140
X2661790Y2471140
X2351790Y2891140
X2351790Y2491140
X2091790Y2851140
X2091790Y2451140
X1801790Y2851140
X1801790Y2451140
X1531790Y2891140
X1131140Y2888210
X731140Y2888210
X511140Y2928210
X112940Y2910720
X112940Y2510720
X112940Y3310720
X112940Y3710720
X508210Y3328860
X508210Y3728860
X731140Y3288210
X731140Y3688210
X1131140Y3288210
X1131140Y3688210
X1531790Y3291140
X1531790Y3691140
X1801790Y3251140
X1870000Y3780000
X2091790Y3251140
X2351790Y3291140
X2470000Y3770000
X2661790Y3271140
X2850000Y3540000
X2990000Y3230000
X2990000Y3460000
X2990000Y3610000
X3040000Y3050000
X3470000Y3540000
X3660000Y3540000
X3880000Y3550000
X4090000Y3720000
X4421790Y3341140
X4421790Y3741140
X4740000Y3420000
X4860000Y3310000
X4890000Y3610000
X5110000Y3400000
X5200000Y3640000
X5280000Y3320000
X5490000Y3580000
X5610000Y3330000
X5710000Y3720000
X5920000Y3500000
X5960000Y3330000
X6150000Y3720000
X6350000Y3400000
X6400000Y3720000
X6880000Y3420000
X6880000Y3640000
X6880000Y3790000
X7281790Y3711140
X7291790Y3391140
X7681790Y3711140
X7691790Y3391140
X8061790Y3711140
X8071790Y3391140
X8491790Y3411140
X8851790Y3421140
X9131790Y3211140
X9472940Y3320720
X9472940Y3720720
X9472940Y4520720
X9472940Y4120720
X9121790Y4551140
X9121790Y4151140
X8851790Y3821140
X8781790Y4491140
X8091790Y4101140
X7711790Y4101140
X7311790Y4101140
X6880000Y4010000
X6690000Y4160000
X6370000Y4050000
X6020000Y4080000
X5930000Y3830000
X5850000Y4380000
X5730000Y4000000
X5556200Y4380000
X5450000Y4010000
X5440000Y3810000
X5190000Y4540000
X5130000Y4020000
X5000000Y3850000
X4940000Y4540000
X4730000Y4530000
X4421790Y4141140
X4420000Y4320000
X4140000Y4380000
X4140000Y4000000
X3920000Y4560000
X3910000Y4260000
X3870000Y4020000
X3720000Y3910000
X3670000Y4360000
X3470000Y3900000
X3460000Y4270000
X2990000Y4560000
X2990000Y4340000
X2990000Y4190000
X2990000Y3980000
X2990000Y3830000
X2850000Y3900000
X2750000Y4270000
X2461140Y4568210
X2390000Y4270000
X2100000Y4060000
X2061140Y4568210
X1710000Y4420000
X1541790Y4081140
X1200000Y4520000
X1141140Y4078210
X741140Y4078210
X690000Y4420000
X481140Y4378210
X112940Y4510720
X112940Y4110720
X112940Y4910720
X112940Y5310720
X478210Y4778860
X478210Y5178860
X690000Y4820000
X690000Y5220000
X770000Y4620000
X770000Y5020000
X1200000Y4920000
X1200000Y5320000
X1640000Y4620000
X1640000Y5020000
X1710000Y4820000
X1710000Y5220000
X2061140Y4968210
X2461140Y4968210
X3380000Y4990000
X3410000Y5250000
X3450000Y4620000
X3540000Y4890000
X3620000Y5250000
X3750000Y4780000
X3820000Y5250000
X4030000Y5250000
X4595000Y5185000
X4600000Y4650000
X4600000Y4830000
X4600000Y5030000
X4895000Y5185000
X5230000Y4730000
X5230000Y4860000
X5230000Y4990000
X5690000Y5300000
X5700000Y4600000
X5950000Y4810000
X6040000Y4810000
X6131790Y4601140
X6221790Y5041140
X6330000Y4770000
X6531790Y4601140
X6621790Y5041140
X7260000Y4600000
X7260000Y4810000
X7531790Y4981140
X7931790Y4981140
X8781790Y4891140
X8781790Y5291140
X9121790Y4951140
X9472940Y4920720
X9472940Y5320720
X9472940Y5720720
X9131790Y5831140
X9131790Y5431140
X8791790Y5771140
X7961790Y5581140
X7561790Y5581140
X6961790Y5601140
X6561790Y5601140
X6340000Y5470000
X6160000Y5790000
X5690000Y5470000
X5670000Y5790000
X5440000Y6000000
X5440000Y5800000
X5420000Y5510000
X4580000Y5500000
X3000000Y5660000
X3000000Y5380000
X2461140Y5368210
X2100000Y5840000
X2100000Y5766340
X2100000Y5692680
X2061140Y5368210
X1640000Y5420000
X770000Y5420000
X511140Y5718210
X112940Y5710720
X110000Y6500000
X112940Y6110720
X508210Y6118860
X508210Y6518860
X3140000Y6430000
X3250000Y6790000
X3460000Y6580000
X3461140Y6408210
X3720000Y6710000
X3720000Y6790000
X3861140Y6408210
X4030000Y6590000
X4040000Y6410000
X4261790Y6411140
X5150000Y6790000
X5300000Y6320000
X5450000Y6320000
X5841790Y6241140
X5841790Y6641140
X6241790Y6241140
X6241790Y6641140
X6641790Y6241140
X6641790Y6641140
X7041790Y6241140
X7041790Y6641140
X7441790Y6241140
X7441790Y6641140
X7841790Y6241140
X7841790Y6641140
X8241790Y6241140
X8241790Y6641140
X8791790Y6171140
X8791790Y6571140
X9131790Y6231140
X9470000Y6510000
X9472940Y6120720
X8288150Y7402300
X8241790Y7041140
X7888150Y7402300
X7841790Y7041140
X7488150Y7402300
X7441790Y7041140
X7088150Y7402300
X7041790Y7041140
X6688150Y7402300
X6641790Y7041140
X6288150Y7402300
X6241790Y7041140
X5888150Y7402300
X5841790Y7041140
X5488150Y7402300
X5101790Y7201140
X5088150Y7402300
X4701140Y7198210
X4688150Y7402300
X4301140Y7198210
X4288150Y7402300
X3961790Y7181140
X3888150Y7402300
X3561140Y7178210
X3488150Y7402300
X3161140Y7178210
X3088150Y7402300
X2688150Y7402300
X2591790Y6911140
X2288150Y7402300
X2191140Y6908210
X1888150Y7402300
X1791140Y6908210
X1488150Y7402300
X1088150Y7402300
T02
X4790000Y4730000
X4790000Y4860000
X4790000Y4990000
X5050000Y4990000
X4920000Y4990000
X5050000Y4860000
X4920000Y4860000
X5050000Y4730000
X4920000Y4730000
T03
X1946000Y6635000
X2200000Y6635000
X2454000Y6635000
X2454000Y7165000
X2200000Y7165000
X1946000Y7165000
T04
X827500Y600000
X1081500Y600000
X1898500Y600000
X2152500Y600000
X2477500Y600000
X2731500Y600000
X3548500Y600000
X3802500Y600000
X4127500Y600000
X4381500Y600000
X5198500Y600000
X5452500Y600000
X5777500Y600000
X6031500Y600000
X6848500Y600000
X7102500Y600000
X7427500Y600000
X7681500Y600000
X8498500Y600000
X8752500Y600000
X8534000Y1979000
X8407000Y1725000
X8280000Y1979000
X8153000Y1725000
X8026000Y1979000
X7899000Y1725000
X7772000Y1979000
X7645000Y1725000
X6884000Y1979000
X6757000Y1725000
X6630000Y1979000
X6503000Y1725000
X6376000Y1979000
X6249000Y1725000
X6122000Y1979000
X5995000Y1725000
X5234000Y1979000
X5107000Y1725000
X4980000Y1979000
X4853000Y1725000
X4726000Y1979000
X4599000Y1725000
X4472000Y1979000
X4345000Y1725000
X3584000Y1979000
X3457000Y1725000
X3330000Y1979000
X3203000Y1725000
X3076000Y1979000
X2949000Y1725000
X2822000Y1979000
X2695000Y1725000
X1934000Y1979000
X1807000Y1725000
X1680000Y1979000
X1553000Y1725000
X1426000Y1979000
X1299000Y1725000
X1172000Y1979000
X1045000Y1725000
T05
X715500Y1395000
X2264500Y1395000
X2365500Y1395000
X3914500Y1395000
X4015500Y1395000
X5564500Y1395000
X5665500Y1395000
X7214500Y1395000
X7315500Y1395000
X8864500Y1395000
T06
X330000Y330000
X330000Y7170000
X9250000Y7170000
X9250000Y330000
T07
X918500Y1090000
X2061500Y1090000
X2568500Y1090000
X3711500Y1090000
X4218500Y1090000
X5361500Y1090000
X5868500Y1090000
X7011500Y1090000
X7518500Y1090000
X8661500Y1090000
M30
