G04 ================== begin FILE IDENTIFICATION RECORD ==================*
G04 Layout Name:  H:/GitHub/MBEDBoard/88E6071_TEST_V10B/PCB/88E6071_TEST_V10B.brd*
G04 Film Name:    Drill_Legend*
G04 File Format:  Gerber RS274X*
G04 File Origin:  Cadence Allegro 16.6-2015-S088*
G04 Origin Date:  Tue Aug 15 16:33:53 2017*
G04 *
G04 Layer:  BOARD GEOMETRY/OUTLINE*
G04 Layer:  MANUFACTURING/NCDRILL_LEGEND*
G04 Layer:  BOARD GEOMETRY/DIMENSION*
G04 Layer:  MANUFACTURING/NCDRILL_FIGURE*
G04 Layer:  MANUFACTURING/NCLEGEND-1-2*
G04 *
G04 Offset:    (0.0000 0.0000)*
G04 Mirror:    No*
G04 Mode:      Positive*
G04 Rotation:  0*
G04 FullContactRelief:  No*
G04 UndefLineWidth:     0.1524*
G04 ================== end FILE IDENTIFICATION RECORD ====================*
%FSLAX55Y55*MOMM*%
%IR0*IPPOS*OFA0.00000B0.00000*MIA0B0*SFA1.00000B1.00000*%
%AMMACRO12*
1,1,.1524,.352082,-.85*
20,1,.1524,.352082,-.85,-.352082,-.85,0.0*
1,1,.1524,-.352082,-.85*
20,1,.1524,-.352082,-.85,-.85,-.352082,0.0*
1,1,.1524,-.85,-.352082*
20,1,.1524,-.85,-.352082,-.85,.352082,0.0*
1,1,.1524,-.85,.352082*
20,1,.1524,-.85,.352082,-.352082,.85,0.0*
1,1,.1524,-.352082,.85*
20,1,.1524,-.352082,.85,.352082,.85,0.0*
1,1,.1524,.352082,.85*
20,1,.1524,.352082,.85,.85,.352082,0.0*
1,1,.1524,.85,.352082*
20,1,.1524,.85,.352082,.85,-.352082,0.0*
1,1,.1524,.85,-.352082*
20,1,.1524,.85,-.352082,.352082,-.85,0.0*
1,1,.1524,.352082,-.85*
%
%ADD12MACRO12*%
%AMMACRO11*
1,1,.1524,.1524,0.0*
20,1,.1524,.1524,0.0,-.1524,0.0,0.0*
1,1,.1524,-.1524,0.0*
1,1,.1524,0.0,.1524*
20,1,.1524,0.0,.1524,0.0,-.1524,0.0*
1,1,.1524,0.0,-.1524*
%
%ADD11MACRO11*%
%AMMACRO10*
1,1,.1524,1.7018,0.0*
20,1,.1524,1.7018,0.0,0.0,-1.7018,0.0*
1,1,.1524,0.0,-1.7018*
20,1,.1524,0.0,-1.7018,-1.7018,0.0,0.0*
1,1,.1524,-1.7018,0.0*
20,1,.1524,-1.7018,0.0,0.0,1.7018,0.0*
1,1,.1524,0.0,1.7018*
20,1,.1524,0.0,1.7018,1.7018,0.0,0.0*
1,1,.1524,1.7018,0.0*
%
%ADD10MACRO10*%
%AMMACRO18*
1,1,.1524,.2286,.2286*
20,1,.1524,.2286,.2286,.2286,-.2286,0.0*
1,1,.1524,.2286,-.2286*
20,1,.1524,.2286,-.2286,-.2286,-.2286,0.0*
1,1,.1524,-.2286,-.2286*
20,1,.1524,-.2286,-.2286,-.2286,.2286,0.0*
1,1,.1524,-.2286,.2286*
20,1,.1524,-.2286,.2286,.2286,.2286,0.0*
1,1,.1524,.2286,.2286*
%
%ADD18MACRO18*%
%AMMACRO13*
1,1,.1524,-.5,-1.*
20,1,.1524,-.5,-1.,-.5,1.,0.0*
1,1,.1524,-.5,1.*
20,1,.1524,-.5,1.,-.492404,1.086824,0.0*
1,1,.1524,-.492404,1.086824*
20,1,.1524,-.492404,1.086824,-.469846,1.17101,0.0*
1,1,.1524,-.469846,1.17101*
20,1,.1524,-.469846,1.17101,-.433013,1.25,0.0*
1,1,.1524,-.433013,1.25*
20,1,.1524,-.433013,1.25,-.383022,1.321394,0.0*
1,1,.1524,-.383022,1.321394*
20,1,.1524,-.383022,1.321394,-.321394,1.383022,0.0*
1,1,.1524,-.321394,1.383022*
20,1,.1524,-.321394,1.383022,-.25,1.433013,0.0*
1,1,.1524,-.25,1.433013*
20,1,.1524,-.25,1.433013,-.17101,1.469846,0.0*
1,1,.1524,-.17101,1.469846*
20,1,.1524,-.17101,1.469846,-.086824,1.492404,0.0*
1,1,.1524,-.086824,1.492404*
20,1,.1524,-.086824,1.492404,0.0,1.5,0.0*
1,1,.1524,0.0,1.5*
20,1,.1524,0.0,1.5,.086824,1.492404,0.0*
1,1,.1524,.086824,1.492404*
20,1,.1524,.086824,1.492404,.17101,1.469846,0.0*
1,1,.1524,.17101,1.469846*
20,1,.1524,.17101,1.469846,.25,1.433013,0.0*
1,1,.1524,.25,1.433013*
20,1,.1524,.25,1.433013,.321394,1.383022,0.0*
1,1,.1524,.321394,1.383022*
20,1,.1524,.321394,1.383022,.383022,1.321394,0.0*
1,1,.1524,.383022,1.321394*
20,1,.1524,.383022,1.321394,.433013,1.25,0.0*
1,1,.1524,.433013,1.25*
20,1,.1524,.433013,1.25,.469846,1.17101,0.0*
1,1,.1524,.469846,1.17101*
20,1,.1524,.469846,1.17101,.492404,1.086824,0.0*
1,1,.1524,.492404,1.086824*
20,1,.1524,.492404,1.086824,.5,1.,0.0*
1,1,.1524,.5,1.*
20,1,.1524,.5,1.,.5,-1.,0.0*
1,1,.1524,.5,-1.*
20,1,.1524,.5,-1.,.492404,-1.086824,0.0*
1,1,.1524,.492404,-1.086824*
20,1,.1524,.492404,-1.086824,.469846,-1.17101,0.0*
1,1,.1524,.469846,-1.17101*
20,1,.1524,.469846,-1.17101,.433013,-1.25,0.0*
1,1,.1524,.433013,-1.25*
20,1,.1524,.433013,-1.25,.383022,-1.321394,0.0*
1,1,.1524,.383022,-1.321394*
20,1,.1524,.383022,-1.321394,.321394,-1.383022,0.0*
1,1,.1524,.321394,-1.383022*
20,1,.1524,.321394,-1.383022,.25,-1.433013,0.0*
1,1,.1524,.25,-1.433013*
20,1,.1524,.25,-1.433013,.17101,-1.469846,0.0*
1,1,.1524,.17101,-1.469846*
20,1,.1524,.17101,-1.469846,.086824,-1.492404,0.0*
1,1,.1524,.086824,-1.492404*
20,1,.1524,.086824,-1.492404,0.0,-1.5,0.0*
1,1,.1524,0.0,-1.5*
20,1,.1524,0.0,-1.5,-.086824,-1.492404,0.0*
1,1,.1524,-.086824,-1.492404*
20,1,.1524,-.086824,-1.492404,-.17101,-1.469846,0.0*
1,1,.1524,-.17101,-1.469846*
20,1,.1524,-.17101,-1.469846,-.25,-1.433013,0.0*
1,1,.1524,-.25,-1.433013*
20,1,.1524,-.25,-1.433013,-.321394,-1.383022,0.0*
1,1,.1524,-.321394,-1.383022*
20,1,.1524,-.321394,-1.383022,-.383022,-1.321394,0.0*
1,1,.1524,-.383022,-1.321394*
20,1,.1524,-.383022,-1.321394,-.433013,-1.25,0.0*
1,1,.1524,-.433013,-1.25*
20,1,.1524,-.433013,-1.25,-.469846,-1.17101,0.0*
1,1,.1524,-.469846,-1.17101*
20,1,.1524,-.469846,-1.17101,-.492404,-1.086824,0.0*
1,1,.1524,-.492404,-1.086824*
20,1,.1524,-.492404,-1.086824,-.5,-1.,0.0*
1,1,.1524,-.5,-1.*
1,1,.1524,-.25,-.25*
20,1,.1524,-.25,-.25,-.3167,-.2417,0.0*
1,1,.1524,-.3167,-.2417*
20,1,.1524,-.3167,-.2417,-.375,-.2083,0.0*
1,1,.1524,-.375,-.2083*
20,1,.1524,-.375,-.2083,-.425,-.1583,0.0*
1,1,.1524,-.425,-.1583*
20,1,.1524,-.425,-.1583,-.4583,-.1,0.0*
1,1,.1524,-.4583,-.1*
20,1,.1524,-.4583,-.1,-.475,-.0333,0.0*
1,1,.1524,-.475,-.0333*
20,1,.1524,-.475,-.0333,-.475,.0333,0.0*
1,1,.1524,-.475,.0333*
20,1,.1524,-.475,.0333,-.4583,.1,0.0*
1,1,.1524,-.4583,.1*
20,1,.1524,-.4583,.1,-.425,.1583,0.0*
1,1,.1524,-.425,.1583*
20,1,.1524,-.425,.1583,-.375,.2083,0.0*
1,1,.1524,-.375,.2083*
20,1,.1524,-.375,.2083,-.3167,.2417,0.0*
1,1,.1524,-.3167,.2417*
20,1,.1524,-.3167,.2417,-.25,.25,0.0*
1,1,.1524,-.25,.25*
20,1,.1524,-.25,.25,-.1833,.2417,0.0*
1,1,.1524,-.1833,.2417*
20,1,.1524,-.1833,.2417,-.125,.2083,0.0*
1,1,.1524,-.125,.2083*
20,1,.1524,-.125,.2083,-.075,.1583,0.0*
1,1,.1524,-.075,.1583*
20,1,.1524,-.075,.1583,-.0417,.1,0.0*
1,1,.1524,-.0417,.1*
20,1,.1524,-.0417,.1,-.025,.0333,0.0*
1,1,.1524,-.025,.0333*
20,1,.1524,-.025,.0333,-.025,-.0333,0.0*
1,1,.1524,-.025,-.0333*
20,1,.1524,-.025,-.0333,-.0417,-.1,0.0*
1,1,.1524,-.0417,-.1*
20,1,.1524,-.0417,-.1,-.075,-.1583,0.0*
1,1,.1524,-.075,-.1583*
20,1,.1524,-.075,-.1583,-.125,-.2083,0.0*
1,1,.1524,-.125,-.2083*
20,1,.1524,-.125,-.2083,-.1833,-.2417,0.0*
1,1,.1524,-.1833,-.2417*
20,1,.1524,-.1833,-.2417,-.25,-.25,0.0*
1,1,.1524,-.25,-.25*
1,1,.1524,.0418,-.25*
20,1,.1524,.0418,-.25,.2501,.25,0.0*
1,1,.1524,.2501,.25*
20,1,.1524,.2501,.25,.4584,-.25,0.0*
1,1,.1524,.4584,-.25*
1,1,.1524,.3834,-.075*
20,1,.1524,.3834,-.075,.1168,-.075,0.0*
1,1,.1524,.1168,-.075*
%
%ADD13MACRO13*%
%AMMACRO16*
1,1,.1524,-1.,.5*
20,1,.1524,-1.,.5,1.,.5,0.0*
1,1,.1524,1.,.5*
20,1,.1524,1.,.5,1.086824,.492404,0.0*
1,1,.1524,1.086824,.492404*
20,1,.1524,1.086824,.492404,1.17101,.469846,0.0*
1,1,.1524,1.17101,.469846*
20,1,.1524,1.17101,.469846,1.25,.433013,0.0*
1,1,.1524,1.25,.433013*
20,1,.1524,1.25,.433013,1.321394,.383022,0.0*
1,1,.1524,1.321394,.383022*
20,1,.1524,1.321394,.383022,1.383022,.321394,0.0*
1,1,.1524,1.383022,.321394*
20,1,.1524,1.383022,.321394,1.433013,.25,0.0*
1,1,.1524,1.433013,.25*
20,1,.1524,1.433013,.25,1.469846,.17101,0.0*
1,1,.1524,1.469846,.17101*
20,1,.1524,1.469846,.17101,1.492404,.086824,0.0*
1,1,.1524,1.492404,.086824*
20,1,.1524,1.492404,.086824,1.5,0.0,0.0*
1,1,.1524,1.5,0.0*
20,1,.1524,1.5,0.0,1.492404,-.086824,0.0*
1,1,.1524,1.492404,-.086824*
20,1,.1524,1.492404,-.086824,1.469846,-.17101,0.0*
1,1,.1524,1.469846,-.17101*
20,1,.1524,1.469846,-.17101,1.433013,-.25,0.0*
1,1,.1524,1.433013,-.25*
20,1,.1524,1.433013,-.25,1.383022,-.321394,0.0*
1,1,.1524,1.383022,-.321394*
20,1,.1524,1.383022,-.321394,1.321394,-.383022,0.0*
1,1,.1524,1.321394,-.383022*
20,1,.1524,1.321394,-.383022,1.25,-.433013,0.0*
1,1,.1524,1.25,-.433013*
20,1,.1524,1.25,-.433013,1.17101,-.469846,0.0*
1,1,.1524,1.17101,-.469846*
20,1,.1524,1.17101,-.469846,1.086824,-.492404,0.0*
1,1,.1524,1.086824,-.492404*
20,1,.1524,1.086824,-.492404,1.,-.5,0.0*
1,1,.1524,1.,-.5*
20,1,.1524,1.,-.5,-1.,-.5,0.0*
1,1,.1524,-1.,-.5*
20,1,.1524,-1.,-.5,-1.086824,-.492404,0.0*
1,1,.1524,-1.086824,-.492404*
20,1,.1524,-1.086824,-.492404,-1.17101,-.469846,0.0*
1,1,.1524,-1.17101,-.469846*
20,1,.1524,-1.17101,-.469846,-1.25,-.433013,0.0*
1,1,.1524,-1.25,-.433013*
20,1,.1524,-1.25,-.433013,-1.321394,-.383022,0.0*
1,1,.1524,-1.321394,-.383022*
20,1,.1524,-1.321394,-.383022,-1.383022,-.321394,0.0*
1,1,.1524,-1.383022,-.321394*
20,1,.1524,-1.383022,-.321394,-1.433013,-.25,0.0*
1,1,.1524,-1.433013,-.25*
20,1,.1524,-1.433013,-.25,-1.469846,-.17101,0.0*
1,1,.1524,-1.469846,-.17101*
20,1,.1524,-1.469846,-.17101,-1.492404,-.086824,0.0*
1,1,.1524,-1.492404,-.086824*
20,1,.1524,-1.492404,-.086824,-1.5,0.0,0.0*
1,1,.1524,-1.5,0.0*
20,1,.1524,-1.5,0.0,-1.492404,.086824,0.0*
1,1,.1524,-1.492404,.086824*
20,1,.1524,-1.492404,.086824,-1.469846,.17101,0.0*
1,1,.1524,-1.469846,.17101*
20,1,.1524,-1.469846,.17101,-1.433013,.25,0.0*
1,1,.1524,-1.433013,.25*
20,1,.1524,-1.433013,.25,-1.383022,.321394,0.0*
1,1,.1524,-1.383022,.321394*
20,1,.1524,-1.383022,.321394,-1.321394,.383022,0.0*
1,1,.1524,-1.321394,.383022*
20,1,.1524,-1.321394,.383022,-1.25,.433013,0.0*
1,1,.1524,-1.25,.433013*
20,1,.1524,-1.25,.433013,-1.17101,.469846,0.0*
1,1,.1524,-1.17101,.469846*
20,1,.1524,-1.17101,.469846,-1.086824,.492404,0.0*
1,1,.1524,-1.086824,.492404*
20,1,.1524,-1.086824,.492404,-1.,.5,0.0*
1,1,.1524,-1.,.5*
1,1,.1524,-.25,-.25*
20,1,.1524,-.25,-.25,-.3167,-.2417,0.0*
1,1,.1524,-.3167,-.2417*
20,1,.1524,-.3167,-.2417,-.375,-.2083,0.0*
1,1,.1524,-.375,-.2083*
20,1,.1524,-.375,-.2083,-.425,-.1583,0.0*
1,1,.1524,-.425,-.1583*
20,1,.1524,-.425,-.1583,-.4583,-.1,0.0*
1,1,.1524,-.4583,-.1*
20,1,.1524,-.4583,-.1,-.475,-.0333,0.0*
1,1,.1524,-.475,-.0333*
20,1,.1524,-.475,-.0333,-.475,.0333,0.0*
1,1,.1524,-.475,.0333*
20,1,.1524,-.475,.0333,-.4583,.1,0.0*
1,1,.1524,-.4583,.1*
20,1,.1524,-.4583,.1,-.425,.1583,0.0*
1,1,.1524,-.425,.1583*
20,1,.1524,-.425,.1583,-.375,.2083,0.0*
1,1,.1524,-.375,.2083*
20,1,.1524,-.375,.2083,-.3167,.2417,0.0*
1,1,.1524,-.3167,.2417*
20,1,.1524,-.3167,.2417,-.25,.25,0.0*
1,1,.1524,-.25,.25*
20,1,.1524,-.25,.25,-.1833,.2417,0.0*
1,1,.1524,-.1833,.2417*
20,1,.1524,-.1833,.2417,-.125,.2083,0.0*
1,1,.1524,-.125,.2083*
20,1,.1524,-.125,.2083,-.075,.1583,0.0*
1,1,.1524,-.075,.1583*
20,1,.1524,-.075,.1583,-.0417,.1,0.0*
1,1,.1524,-.0417,.1*
20,1,.1524,-.0417,.1,-.025,.0333,0.0*
1,1,.1524,-.025,.0333*
20,1,.1524,-.025,.0333,-.025,-.0333,0.0*
1,1,.1524,-.025,-.0333*
20,1,.1524,-.025,-.0333,-.0417,-.1,0.0*
1,1,.1524,-.0417,-.1*
20,1,.1524,-.0417,-.1,-.075,-.1583,0.0*
1,1,.1524,-.075,-.1583*
20,1,.1524,-.075,-.1583,-.125,-.2083,0.0*
1,1,.1524,-.125,-.2083*
20,1,.1524,-.125,-.2083,-.1833,-.2417,0.0*
1,1,.1524,-.1833,-.2417*
20,1,.1524,-.1833,-.2417,-.25,-.25,0.0*
1,1,.1524,-.25,-.25*
1,1,.1524,.0418,-.25*
20,1,.1524,.0418,-.25,.2501,.25,0.0*
1,1,.1524,.2501,.25*
20,1,.1524,.2501,.25,.4584,-.25,0.0*
1,1,.1524,.4584,-.25*
1,1,.1524,.3834,-.075*
20,1,.1524,.3834,-.075,.1168,-.075,0.0*
1,1,.1524,.1168,-.075*
%
%ADD16MACRO16*%
%AMMACRO15*
1,1,.1524,0.0,1.65*
20,1,.1524,0.0,1.65,1.65,-1.65,0.0*
1,1,.1524,1.65,-1.65*
20,1,.1524,1.65,-1.65,-1.65,-1.65,0.0*
1,1,.1524,-1.65,-1.65*
20,1,.1524,-1.65,-1.65,0.0,1.65,0.0*
1,1,.1524,0.0,1.65*
%
%ADD15MACRO15*%
%AMMACRO14*
1,1,.1524,0.0,.5004*
20,1,.1524,0.0,.5004,-.433359,.2502,0.0*
1,1,.1524,-.433359,.2502*
20,1,.1524,-.433359,.2502,-.433359,-.2502,0.0*
1,1,.1524,-.433359,-.2502*
20,1,.1524,-.433359,-.2502,0.0,-.5004,0.0*
1,1,.1524,0.0,-.5004*
20,1,.1524,0.0,-.5004,.433359,-.2502,0.0*
1,1,.1524,.433359,-.2502*
20,1,.1524,.433359,-.2502,.433359,.2502,0.0*
1,1,.1524,.433359,.2502*
20,1,.1524,.433359,.2502,0.0,.5004,0.0*
1,1,.1524,0.0,.5004*
%
%ADD14MACRO14*%
%AMMACRO17*
1,1,.1524,.4445,0.0*
20,1,.1524,.4445,0.0,.22225,.384948,0.0*
1,1,.1524,.22225,.384948*
20,1,.1524,.22225,.384948,-.22225,.384948,0.0*
1,1,.1524,-.22225,.384948*
20,1,.1524,-.22225,.384948,-.4445,0.0,0.0*
1,1,.1524,-.4445,0.0*
20,1,.1524,-.4445,0.0,-.22225,-.384948,0.0*
1,1,.1524,-.22225,-.384948*
20,1,.1524,-.22225,-.384948,.22225,-.384948,0.0*
1,1,.1524,.22225,-.384948*
20,1,.1524,.22225,-.384948,.4445,0.0,0.0*
1,1,.1524,.4445,0.0*
%
%ADD17MACRO17*%
%ADD19C,.1524*%
G75*
%LPD*%
G75*
G54D10*
X330000Y330000D03*
Y7170000D03*
X9250000Y330000D03*
Y7170000D03*
X11451730Y2307500D03*
G54D11*
X112940Y910720D03*
Y1310720D03*
Y1710720D03*
Y2110720D03*
Y2510720D03*
Y2910720D03*
Y3310720D03*
Y3710720D03*
Y4110720D03*
Y4510720D03*
Y4910720D03*
Y5310720D03*
Y5710720D03*
Y6110720D03*
X110000Y6500000D03*
X511140Y2928210D03*
X508210Y3328860D03*
Y3728860D03*
X481140Y4378210D03*
X478210Y4778860D03*
Y5178860D03*
X511140Y5718210D03*
X508210Y6118860D03*
Y6518860D03*
X690000Y4420000D03*
Y4820000D03*
Y5220000D03*
X731140Y2888210D03*
Y3288210D03*
Y3688210D03*
X741140Y4078210D03*
X770000Y4620000D03*
Y5020000D03*
Y5420000D03*
X1058150Y202300D03*
X1131140Y2888210D03*
Y3288210D03*
Y3688210D03*
X1141140Y4078210D03*
X1200000Y4520000D03*
Y4920000D03*
Y5320000D03*
X1088150Y7402300D03*
X1360000Y2220000D03*
X1458150Y202300D03*
X1531790Y2891140D03*
Y3291140D03*
Y3691140D03*
X1541790Y4081140D03*
X1488150Y7402300D03*
X1710000Y4420000D03*
X1640000Y4620000D03*
X1710000Y4820000D03*
X1640000Y5020000D03*
X1710000Y5220000D03*
X1640000Y5420000D03*
X1858150Y202300D03*
X1801790Y2451140D03*
Y2851140D03*
Y3251140D03*
X1870000Y3780000D03*
X1791140Y6908210D03*
X1888150Y7402300D03*
X2061140Y4568210D03*
Y4968210D03*
Y5368210D03*
X2091790Y2451140D03*
Y2851140D03*
Y3251140D03*
X2100000Y4060000D03*
Y5692680D03*
Y5766340D03*
Y5840000D03*
X2191140Y6908210D03*
X2258150Y202300D03*
X2351790Y2491140D03*
Y2891140D03*
Y3291140D03*
X2390000Y4270000D03*
X2288150Y7402300D03*
X2470000Y3770000D03*
X2461140Y4568210D03*
Y4968210D03*
Y5368210D03*
X2658150Y202300D03*
X2661790Y2471140D03*
Y2871140D03*
Y3271140D03*
X2591790Y6911140D03*
X2688150Y7402300D03*
X2850000Y3540000D03*
Y3900000D03*
X2750000Y4270000D03*
X3058150Y202300D03*
X3010000Y2220000D03*
X3070000Y2840000D03*
X3040000Y3050000D03*
X2990000Y3230000D03*
Y3460000D03*
Y3610000D03*
Y3830000D03*
Y3980000D03*
Y4190000D03*
Y4340000D03*
Y4560000D03*
X3000000Y5380000D03*
Y5660000D03*
X3140000Y6430000D03*
X3250000Y6790000D03*
X3161140Y7178210D03*
X3088150Y7402300D03*
X3330000Y2560000D03*
X3390000Y2840000D03*
X3380000Y4990000D03*
X3410000Y5250000D03*
X3458150Y202300D03*
X3470000Y3540000D03*
Y3900000D03*
X3460000Y4270000D03*
X3450000Y4620000D03*
X3540000Y4890000D03*
X3461140Y6408210D03*
X3460000Y6580000D03*
X3561140Y7178210D03*
X3488150Y7402300D03*
X3650000Y2410000D03*
X3710000Y2760000D03*
X3660000Y3540000D03*
X3720000Y3910000D03*
X3670000Y4360000D03*
X3750000Y4780000D03*
X3620000Y5250000D03*
X3720000Y6790000D03*
Y6710000D03*
X3858150Y202300D03*
X3930000Y2480000D03*
X3880000Y3550000D03*
X3870000Y4020000D03*
X3910000Y4260000D03*
X3920000Y4560000D03*
X3820000Y5250000D03*
X3861140Y6408210D03*
X3888150Y7402300D03*
X4090000Y3720000D03*
X4030000Y5250000D03*
X4040000Y6410000D03*
X4030000Y6590000D03*
X3961790Y7181140D03*
X4258150Y202300D03*
X4140000Y4000000D03*
Y4380000D03*
X4261790Y6411140D03*
X4421790Y3341140D03*
Y3741140D03*
Y4141140D03*
X4420000Y4320000D03*
X4301140Y7198210D03*
X4288150Y7402300D03*
X4560000Y2590000D03*
X4460000Y2740000D03*
X4510000Y2910000D03*
X4600000Y4650000D03*
Y4830000D03*
Y5030000D03*
X4595000Y5185000D03*
X4580000Y5500000D03*
X4658150Y202300D03*
X4690000Y2220000D03*
X4720000Y2910000D03*
X4740000Y3420000D03*
X4730000Y4530000D03*
X4701140Y7198210D03*
X4688150Y7402300D03*
X4810000Y2780000D03*
X4890000Y2910000D03*
X4860000Y3310000D03*
X4890000Y3610000D03*
X4940000Y4540000D03*
X4895000Y5185000D03*
X5058150Y202300D03*
X5020000Y2690000D03*
X5090000Y2910000D03*
X5110000Y3400000D03*
X5000000Y3850000D03*
X5101790Y7201140D03*
X5088150Y7402300D03*
X5200000Y2320000D03*
X5160000Y2530000D03*
X5270000Y2790000D03*
X5280000Y3320000D03*
X5200000Y3640000D03*
X5130000Y4020000D03*
X5190000Y4540000D03*
X5230000Y4730000D03*
Y4860000D03*
Y4990000D03*
X5150000Y6790000D03*
X5450000Y2610000D03*
X5300000Y2910000D03*
X5440000Y3810000D03*
X5450000Y4010000D03*
X5420000Y5510000D03*
X5440000Y5800000D03*
Y6000000D03*
X5300000Y6320000D03*
X5450000D03*
X5458150Y202300D03*
X5580000Y2340000D03*
X5520000Y2910000D03*
X5610000Y3330000D03*
X5490000Y3580000D03*
X5556200Y4380000D03*
X5488150Y7402300D03*
X5700000Y2770000D03*
X5670000Y2910000D03*
X5710000Y3720000D03*
X5730000Y4000000D03*
X5700000Y4600000D03*
X5690000Y5300000D03*
Y5470000D03*
X5670000Y5790000D03*
X5858150Y202300D03*
X5900000Y2360000D03*
X5880000Y2590000D03*
X5890000Y2910000D03*
X5960000Y3330000D03*
X5920000Y3500000D03*
X5930000Y3830000D03*
X5850000Y4380000D03*
X5950000Y4810000D03*
X5841790Y6241140D03*
Y6641140D03*
Y7041140D03*
X5888150Y7402300D03*
X6120000Y2940000D03*
X6020000Y4080000D03*
X6131790Y4601140D03*
X6040000Y4810000D03*
X6258150Y202300D03*
X6250000Y2650000D03*
X6150000Y3720000D03*
X6221790Y5041140D03*
X6160000Y5790000D03*
X6241790Y6241140D03*
Y6641140D03*
Y7041140D03*
X6288150Y7402300D03*
X6340000Y2220000D03*
X6440000Y2940000D03*
X6350000Y3400000D03*
X6400000Y3720000D03*
X6370000Y4050000D03*
X6330000Y4770000D03*
X6340000Y5470000D03*
X6610000Y2650000D03*
X6531790Y4601140D03*
X6621790Y5041140D03*
X6561790Y5601140D03*
X6641790Y6241140D03*
Y6641140D03*
Y7041140D03*
X6658150Y202300D03*
X6800000Y2910000D03*
X6690000Y4160000D03*
X6688150Y7402300D03*
X6960000Y2330000D03*
X6840000Y2490000D03*
X6880000Y3420000D03*
Y3640000D03*
Y3790000D03*
Y4010000D03*
X6961790Y5601140D03*
X7058150Y202300D03*
X7020000Y2700000D03*
X7041790Y6241140D03*
Y6641140D03*
Y7041140D03*
X7088150Y7402300D03*
X7210000Y2360000D03*
X7291790Y2591140D03*
Y2991140D03*
Y3391140D03*
X7281790Y3711140D03*
X7311790Y4101140D03*
X7260000Y4600000D03*
Y4810000D03*
X7458150Y202300D03*
X7441790Y6241140D03*
Y6641140D03*
Y7041140D03*
X7488150Y7402300D03*
X7531790Y4981140D03*
X7561790Y5581140D03*
X7691790Y2591140D03*
Y2991140D03*
Y3391140D03*
X7681790Y3711140D03*
X7711790Y4101140D03*
X7858150Y202300D03*
X7931790Y4981140D03*
X7961790Y5581140D03*
X7841790Y6241140D03*
Y6641140D03*
Y7041140D03*
X7888150Y7402300D03*
X8000000Y2220000D03*
X8071790Y2591140D03*
Y2991140D03*
Y3391140D03*
X8061790Y3711140D03*
X8091790Y4101140D03*
X8258150Y202300D03*
X8241790Y6241140D03*
Y6641140D03*
Y7041140D03*
X8288150Y7402300D03*
X8491790Y2611140D03*
Y3011140D03*
Y3411140D03*
X8781790Y4491140D03*
Y4891140D03*
Y5291140D03*
X8791790Y5771140D03*
Y6171140D03*
Y6571140D03*
X8880000Y2510000D03*
X8851790Y3021140D03*
Y3421140D03*
Y3821140D03*
X9131790Y2411140D03*
Y2811140D03*
Y3211140D03*
X9121790Y4151140D03*
Y4551140D03*
Y4951140D03*
X9131790Y5431140D03*
Y5831140D03*
Y6231140D03*
X9472940Y920720D03*
Y1320720D03*
Y1720720D03*
Y2120720D03*
Y2520720D03*
Y2920720D03*
Y3320720D03*
Y3720720D03*
Y4120720D03*
Y4520720D03*
Y4920720D03*
Y5320720D03*
Y5720720D03*
Y6120720D03*
X9470000Y6510000D03*
X11451730Y5482500D03*
G54D12*
X715500Y1395000D03*
X2264500D03*
X2365500D03*
X4015500D03*
X3914500D03*
X5564500D03*
X5665500D03*
X7214500D03*
X7315500D03*
X8864500D03*
X11451730Y2942500D03*
G54D13*
X810000Y6760000D03*
X11451730Y1037500D03*
G54D14*
X827500Y600000D03*
X1081500D03*
X1045000Y1725000D03*
X1172000Y1979000D03*
X1299000Y1725000D03*
X1426000Y1979000D03*
X1553000Y1725000D03*
X1680000Y1979000D03*
X1898500Y600000D03*
X1807000Y1725000D03*
X1934000Y1979000D03*
X2152500Y600000D03*
X2477500D03*
X2731500D03*
X2695000Y1725000D03*
X2949000D03*
X2822000Y1979000D03*
X3076000D03*
X3203000Y1725000D03*
X3457000D03*
X3330000Y1979000D03*
X3548500Y600000D03*
X3584000Y1979000D03*
X3802500Y600000D03*
X4127500D03*
X4381500D03*
X4345000Y1725000D03*
X4472000Y1979000D03*
X4599000Y1725000D03*
X4726000Y1979000D03*
X4853000Y1725000D03*
X4980000Y1979000D03*
X5107000Y1725000D03*
X5198500Y600000D03*
X5234000Y1979000D03*
X5452500Y600000D03*
X5777500D03*
X5995000Y1725000D03*
X6031500Y600000D03*
X6122000Y1979000D03*
X6249000Y1725000D03*
X6503000D03*
X6376000Y1979000D03*
X6630000D03*
X6848500Y600000D03*
X6757000Y1725000D03*
X6884000Y1979000D03*
X7102500Y600000D03*
X7427500D03*
X7681500D03*
X7645000Y1725000D03*
X7772000Y1979000D03*
X7899000Y1725000D03*
X8026000Y1979000D03*
X8153000Y1725000D03*
X8280000Y1979000D03*
X8498500Y600000D03*
X8407000Y1725000D03*
X8534000Y1979000D03*
X8752500Y600000D03*
X11451730Y3577500D03*
G54D15*
X918500Y1090000D03*
X2061500D03*
X2568500D03*
X3711500D03*
X4218500D03*
X5361500D03*
X5868500D03*
X7011500D03*
X7518500D03*
X8661500D03*
X11451730Y1672500D03*
G54D16*
X1290000Y6480000D03*
Y7080000D03*
X11451730Y402500D03*
G54D17*
X1946000Y6635000D03*
Y7165000D03*
X2200000Y6635000D03*
Y7165000D03*
X2454000Y6635000D03*
Y7165000D03*
X11451730Y4212500D03*
G54D18*
X4790000Y4730000D03*
X4920000D03*
X4790000Y4860000D03*
X4920000D03*
Y4990000D03*
X4790000D03*
X5050000Y4730000D03*
Y4860000D03*
Y4990000D03*
X11451730Y4847500D03*
G54D19*
G01X-1449990Y3579750D02*
X-1445250Y3621020D01*
X-1438140Y3655950D01*
X-1428660Y3687700D01*
X-1416800Y3722620D01*
X-1397840Y3770250D01*
X-1492660D01*
G01X-1306900Y3608320D02*
X-1292680Y3592450D01*
X-1276090Y3582920D01*
X-1254750Y3579750D01*
X-1233410Y3586100D01*
X-1216820Y3598800D01*
X-1204970Y3621020D01*
X-1202600Y3646420D01*
X-1207340Y3671820D01*
X-1219190Y3687700D01*
X-1235790Y3700400D01*
X-1252380Y3703570D01*
X-1268970Y3700400D01*
X-1290310Y3687700D01*
X-1283200Y3770250D01*
X-1219190D01*
G01X-1010490Y3300460D02*
X-1005750Y3341730D01*
X-998640Y3376660D01*
X-989160Y3408410D01*
X-977300Y3443330D01*
X-958340Y3490960D01*
X-1053160D01*
G01X-815250Y3300460D02*
Y3490960D01*
X-843700Y3452860D01*
G01Y3300460D02*
X-786810D01*
G01X-624750Y3294110D02*
X-629490Y3297290D01*
Y3303630D01*
X-624750Y3306810D01*
X-620010Y3303630D01*
Y3297290D01*
X-624750Y3294110D01*
G01X-438990Y3300460D02*
X-434250Y3341730D01*
X-427140Y3376660D01*
X-417660Y3408410D01*
X-405800Y3443330D01*
X-386840Y3490960D01*
X-481660D01*
G01X-582650Y102850D02*
X-568430Y80620D01*
X-549470Y67920D01*
X-528130Y64750D01*
X-509160Y67920D01*
X-490200Y83800D01*
X-478350Y102850D01*
X-475980Y121900D01*
X-480720Y144120D01*
X-497310Y160000D01*
X-513910Y166350D01*
X-535240D01*
G01X-513910D02*
X-499680Y175870D01*
X-487830Y191750D01*
X-483090Y210800D01*
X-487830Y229850D01*
X-499680Y245720D01*
X-521020Y255250D01*
X-542350Y252080D01*
X-563690Y239370D01*
G01X-340000Y58400D02*
X-344740Y61580D01*
Y67920D01*
X-340000Y71100D01*
X-335260Y67920D01*
Y61580D01*
X-340000Y58400D01*
G01X-201650Y102850D02*
X-187430Y80620D01*
X-168470Y67920D01*
X-147130Y64750D01*
X-128160Y67920D01*
X-109200Y83800D01*
X-97350Y102850D01*
X-94980Y121900D01*
X-99720Y144120D01*
X-116310Y160000D01*
X-132910Y166350D01*
X-154240D01*
G01X-132910D02*
X-118680Y175870D01*
X-106830Y191750D01*
X-102090Y210800D01*
X-106830Y229850D01*
X-118680Y245720D01*
X-140020Y255250D01*
X-161350Y252080D01*
X-182690Y239370D01*
G01X-102650Y-617150D02*
X-88430Y-639380D01*
X-69470Y-652080D01*
X-48130Y-655250D01*
X-29160Y-652080D01*
X-10200Y-636200D01*
X1650Y-617150D01*
X4020Y-598100D01*
X-720Y-575880D01*
X-17310Y-560000D01*
X-33910Y-553650D01*
X-55240D01*
G01X-33910D02*
X-19680Y-544130D01*
X-7830Y-528250D01*
X-3090Y-509200D01*
X-7830Y-490150D01*
X-19680Y-474280D01*
X-41020Y-464750D01*
X-62350Y-467920D01*
X-83690Y-480630D01*
G01X140000Y-661600D02*
X135260Y-658420D01*
Y-652080D01*
X140000Y-648900D01*
X144740Y-652080D01*
Y-658420D01*
X140000Y-661600D01*
G01X278350Y-617150D02*
X292570Y-639380D01*
X311530Y-652080D01*
X332870Y-655250D01*
X351840Y-652080D01*
X370800Y-636200D01*
X382650Y-617150D01*
X385020Y-598100D01*
X380280Y-575880D01*
X363690Y-560000D01*
X347090Y-553650D01*
X325760D01*
G01X347090D02*
X361320Y-544130D01*
X373170Y-528250D01*
X377910Y-509200D01*
X373170Y-490150D01*
X361320Y-474280D01*
X339980Y-464750D01*
X318650Y-467920D01*
X297310Y-480630D01*
G01X330000Y0D02*
X9250000D01*
G03X9580000Y330000I0J330000D01*
G01Y7170000D01*
G03X9250000Y7500000I-330000J0D01*
G01X330000D01*
G03X0Y7170000I0J-330000D01*
G01Y330000D01*
G03X330000Y0I330000J0D01*
G01X4443950Y-943030D02*
X4460540Y-958900D01*
X4479510Y-965250D01*
X4498470Y-958900D01*
X4515070Y-939860D01*
X4526920Y-911270D01*
X4531660Y-882700D01*
Y-847780D01*
X4526920Y-819200D01*
X4515070Y-793800D01*
X4500840Y-781100D01*
X4484250Y-774750D01*
X4465280Y-781100D01*
X4451060Y-793800D01*
X4441580Y-812850D01*
X4436840Y-838250D01*
X4441580Y-860470D01*
X4453430Y-882700D01*
X4467660Y-895400D01*
X4484250Y-898580D01*
X4503210Y-892230D01*
X4517440Y-876350D01*
X4531660Y-847780D01*
G01X4629710Y-806500D02*
X4643930Y-787450D01*
X4660530Y-777920D01*
X4679490Y-774750D01*
X4703200Y-781100D01*
X4719790Y-796980D01*
X4724530Y-816020D01*
X4722160Y-835080D01*
X4712680Y-850950D01*
X4665270Y-882700D01*
X4643930Y-904930D01*
X4629710Y-936680D01*
X4624970Y-965250D01*
X4724530D01*
G01X4865250Y-971600D02*
X4860510Y-968420D01*
Y-962080D01*
X4865250Y-958900D01*
X4869990Y-962080D01*
Y-968420D01*
X4865250Y-971600D01*
G01X5003600Y-936680D02*
X5017820Y-952550D01*
X5034410Y-962080D01*
X5055750Y-965250D01*
X5077090Y-958900D01*
X5093680Y-946200D01*
X5105530Y-923980D01*
X5107900Y-898580D01*
X5103160Y-873180D01*
X5091310Y-857300D01*
X5074710Y-844600D01*
X5058120Y-841430D01*
X5041530Y-844600D01*
X5020190Y-857300D01*
X5027300Y-774750D01*
X5091310D01*
G01X4753260Y-1363030D02*
X4769850Y-1378900D01*
X4788820Y-1385250D01*
X4807780Y-1378900D01*
X4824380Y-1359860D01*
X4836230Y-1331270D01*
X4840970Y-1302700D01*
Y-1267780D01*
X4836230Y-1239200D01*
X4824380Y-1213800D01*
X4810150Y-1201100D01*
X4793560Y-1194750D01*
X4774590Y-1201100D01*
X4760370Y-1213800D01*
X4750890Y-1232850D01*
X4746150Y-1258250D01*
X4750890Y-1280470D01*
X4762740Y-1302700D01*
X4776970Y-1315400D01*
X4793560Y-1318580D01*
X4812520Y-1312230D01*
X4826750Y-1296350D01*
X4840970Y-1267780D01*
G01X4931910Y-1356680D02*
X4946130Y-1372550D01*
X4962720Y-1382080D01*
X4984060Y-1385250D01*
X5005400Y-1378900D01*
X5021990Y-1366200D01*
X5033840Y-1343980D01*
X5036210Y-1318580D01*
X5031470Y-1293180D01*
X5019620Y-1277300D01*
X5003020Y-1264600D01*
X4986430Y-1261430D01*
X4969840Y-1264600D01*
X4948500Y-1277300D01*
X4955610Y-1194750D01*
X5019620D01*
G01X5174560Y-1391600D02*
X5169820Y-1388420D01*
Y-1382080D01*
X5174560Y-1378900D01*
X5179300Y-1382080D01*
Y-1388420D01*
X5174560Y-1391600D01*
G01X5365060Y-1385250D02*
X5381650Y-1382080D01*
X5400620Y-1372550D01*
X5412470Y-1356680D01*
X5417210Y-1334450D01*
X5412470Y-1312230D01*
X5398250Y-1293180D01*
X5376910Y-1283650D01*
X5353210D01*
X5338980Y-1277300D01*
X5327130Y-1261430D01*
X5322390Y-1239200D01*
X5329500Y-1216980D01*
X5346090Y-1201100D01*
X5365060Y-1194750D01*
X5384020Y-1201100D01*
X5400620Y-1216980D01*
X5407730Y-1239200D01*
X5402990Y-1261430D01*
X5391140Y-1277300D01*
X5376910Y-1283650D01*
X5353210D01*
X5331870Y-1293180D01*
X5317650Y-1312230D01*
X5312910Y-1334450D01*
X5317650Y-1356680D01*
X5329500Y-1372550D01*
X5348470Y-1382080D01*
X5365060Y-1385250D01*
G01X10589520Y5958750D02*
Y6276250D01*
X10739140D01*
G01X10684010Y6122800D02*
X10589520D01*
G01X10932050Y6276250D02*
X11026530D01*
G01X10979290D02*
Y5958750D01*
G01X10932050D02*
X11026530D01*
G01X11317870Y6117500D02*
X11396620D01*
Y6022250D01*
X11372990Y5990490D01*
X11345430Y5969330D01*
X11306060Y5958750D01*
X11266690Y5969330D01*
X11239130Y5990490D01*
X11215510Y6022250D01*
X11199760Y6059290D01*
X11191880Y6101620D01*
Y6138670D01*
X11199760Y6170410D01*
X11215510Y6207460D01*
X11239130Y6239210D01*
X11262750Y6260370D01*
X11294250Y6276250D01*
X11321810D01*
X11353300Y6265670D01*
X11376930Y6244500D01*
G01X11522600Y6276250D02*
Y6048710D01*
X11538340Y6001070D01*
X11569840Y5969330D01*
X11609210Y5958750D01*
X11648580Y5969330D01*
X11680080Y6001070D01*
X11695820Y6048710D01*
Y6276250D01*
G01X11845430Y5958750D02*
Y6276250D01*
X11943850D01*
X11975350Y6260370D01*
X11995040Y6239210D01*
X12002910Y6196870D01*
X11995040Y6154540D01*
X11971410Y6128090D01*
X11943850Y6112200D01*
X11845430D01*
G01X11943850D02*
X12002910Y5958750D01*
G01X12317870D02*
X12160390D01*
Y6276250D01*
X12317870D01*
G01X12254880Y6122800D02*
X12160390D01*
G01X12101330Y6593750D02*
X12199760Y6911250D01*
X12298190Y6593750D01*
G01X12262750Y6704870D02*
X12136760D01*
G01X12435980Y6911250D02*
Y6593750D01*
X12593460D01*
G01X12750940Y6911250D02*
Y6593750D01*
X12908420D01*
G01X13372990Y6911250D02*
Y6683710D01*
X13388730Y6636070D01*
X13420230Y6604330D01*
X13459600Y6593750D01*
X13498970Y6604330D01*
X13530470Y6636070D01*
X13546210Y6683710D01*
Y6911250D01*
G01X13684010Y6593750D02*
Y6911250D01*
X13865110Y6593750D01*
Y6911250D01*
G01X14042280D02*
X14136760D01*
G01X14089520D02*
Y6593750D01*
G01X14042280D02*
X14136760D01*
G01X14404480Y6911250D02*
Y6593750D01*
G01X14313930Y6911250D02*
X14495030D01*
G01X14636760Y6636070D02*
X14668260Y6609620D01*
X14703690Y6593750D01*
X14735190D01*
X14766680Y6609620D01*
X14790310Y6636070D01*
X14802120Y6673130D01*
X14794250Y6710160D01*
X14774560Y6741910D01*
X14739120Y6763090D01*
X14691880Y6773670D01*
X14664320Y6794830D01*
X14652510Y6831870D01*
X14660390Y6868920D01*
X14680070Y6895370D01*
X14707630Y6911250D01*
X14735190D01*
X14762750Y6900670D01*
X14786370Y6874210D01*
G01X15250930Y6593750D02*
X15349360Y6911250D01*
X15447790Y6593750D01*
G01X15412350Y6704870D02*
X15286360D01*
G01X15585580Y6593750D02*
Y6911250D01*
X15684000D01*
X15715500Y6895370D01*
X15735190Y6874210D01*
X15743060Y6831870D01*
X15735190Y6789540D01*
X15711560Y6763090D01*
X15684000Y6747200D01*
X15585580D01*
G01X15684000D02*
X15743060Y6593750D01*
G01X16058020D02*
X15900540D01*
Y6911250D01*
X16058020D01*
G01X15995030Y6757800D02*
X15900540D01*
G01X16561960Y6911250D02*
X16656440D01*
G01X16609200D02*
Y6593750D01*
G01X16561960D02*
X16656440D01*
G01X16833610D02*
Y6911250D01*
X17014710Y6593750D01*
Y6911250D01*
G01X17451710Y6593750D02*
Y6911250D01*
X17554080Y6646670D01*
X17656450Y6911250D01*
Y6593750D01*
G01X17821800Y6911250D02*
X17916280D01*
G01X17869040D02*
Y6593750D01*
G01X17821800D02*
X17916280D01*
G01X18105260Y6911250D02*
Y6593750D01*
X18262740D01*
G01X18420220Y6911250D02*
Y6593750D01*
X18577700D01*
G01X18766680Y6911250D02*
X18861160D01*
G01X18813920D02*
Y6593750D01*
G01X18766680D02*
X18861160D01*
G01X19026510D02*
Y6911250D01*
X19128880Y6646670D01*
X19231250Y6911250D01*
Y6593750D01*
G01X19522580D02*
X19365100D01*
Y6911250D01*
X19522580D01*
G01X19459590Y6757800D02*
X19365100D01*
G01X19758800Y6911250D02*
Y6593750D01*
G01X19668250Y6911250D02*
X19849350D01*
G01X20152500Y6593750D02*
X19995020D01*
Y6911250D01*
X20152500D01*
G01X20089510Y6757800D02*
X19995020D01*
G01X20309980Y6593750D02*
Y6911250D01*
X20408400D01*
X20439900Y6895370D01*
X20459590Y6874210D01*
X20467460Y6831870D01*
X20459590Y6789540D01*
X20435960Y6763090D01*
X20408400Y6747200D01*
X20309980D01*
G01X20408400D02*
X20467460Y6593750D01*
G01X20621000Y6636070D02*
X20652500Y6609620D01*
X20687930Y6593750D01*
X20719430D01*
X20750920Y6609620D01*
X20774550Y6636070D01*
X20786360Y6673130D01*
X20778490Y6710160D01*
X20758800Y6741910D01*
X20723360Y6763090D01*
X20676120Y6773670D01*
X20648560Y6794830D01*
X20636750Y6831870D01*
X20644630Y6868920D01*
X20664310Y6895370D01*
X20691870Y6911250D01*
X20719430D01*
X20746990Y6900670D01*
X20770610Y6874210D01*
G01X12428110Y7243750D02*
Y7561250D01*
X12506840D01*
X12538340Y7545370D01*
X12561960Y7524210D01*
X12581650Y7492460D01*
X12597400Y7455410D01*
X12601330Y7402500D01*
X12597400Y7349580D01*
X12581650Y7312540D01*
X12561960Y7280780D01*
X12538340Y7259620D01*
X12506840Y7243750D01*
X12428110D01*
G01X12750940D02*
Y7561250D01*
X12849360D01*
X12880860Y7545370D01*
X12900550Y7524210D01*
X12908420Y7481870D01*
X12900550Y7439540D01*
X12876920Y7413090D01*
X12849360Y7397200D01*
X12750940D01*
G01X12849360D02*
X12908420Y7243750D01*
G01X13097400Y7561250D02*
X13191880D01*
G01X13144640D02*
Y7243750D01*
G01X13097400D02*
X13191880D01*
G01X13380860Y7561250D02*
Y7243750D01*
X13538340D01*
G01X13695820Y7561250D02*
Y7243750D01*
X13853300D01*
G01X14491090Y7534790D02*
X14467470Y7550670D01*
X14439920Y7561250D01*
X14408420D01*
X14372980Y7545370D01*
X14345430Y7518920D01*
X14325740Y7487160D01*
X14309990Y7434250D01*
X14306050Y7386620D01*
X14313930Y7339000D01*
X14325740Y7307250D01*
X14349360Y7275490D01*
X14376920Y7254330D01*
X14404480Y7243750D01*
X14432040D01*
X14459600Y7254330D01*
X14483220Y7270200D01*
X14502910Y7291360D01*
G01X14636760Y7243750D02*
Y7561250D01*
G01X14802120D02*
Y7243750D01*
G01Y7402500D02*
X14636760D01*
G01X14935970Y7243750D02*
X15034400Y7561250D01*
X15132830Y7243750D01*
G01X15097390Y7354870D02*
X14971400D01*
G01X15270620Y7243750D02*
Y7561250D01*
X15369040D01*
X15400540Y7545370D01*
X15420230Y7524210D01*
X15428100Y7481870D01*
X15420230Y7439540D01*
X15396600Y7413090D01*
X15369040Y7397200D01*
X15270620D01*
G01X15369040D02*
X15428100Y7243750D01*
G01X15664320Y7561250D02*
Y7243750D01*
G01X15573770Y7561250D02*
X15754870D01*
G01X15979280Y7233170D02*
X15971400Y7238460D01*
Y7249040D01*
X15979280Y7254330D01*
X15987160Y7249040D01*
Y7238460D01*
X15979280Y7233170D01*
G01Y7376030D02*
X15971400Y7381330D01*
Y7391910D01*
X15979280Y7397200D01*
X15987160Y7391910D01*
Y7381330D01*
X15979280Y7376030D01*
G01X16609200Y7561250D02*
Y7243750D01*
G01X16518650Y7561250D02*
X16699750D01*
G01X16924160Y7243750D02*
X16892660Y7249040D01*
X16865110Y7270200D01*
X16841480Y7301960D01*
X16825730Y7339000D01*
X16817860Y7381330D01*
Y7423670D01*
X16825730Y7466000D01*
X16841480Y7503040D01*
X16865110Y7534790D01*
X16892660Y7555960D01*
X16924160Y7561250D01*
X16955650Y7555960D01*
X16983210Y7534790D01*
X17006840Y7503040D01*
X17022590Y7466000D01*
X17030460Y7423670D01*
Y7381330D01*
X17022590Y7339000D01*
X17006840Y7301960D01*
X16983210Y7270200D01*
X16955650Y7249040D01*
X16924160Y7243750D01*
G01X17160380D02*
Y7561250D01*
X17254870D01*
X17286360Y7545370D01*
X17309990Y7508330D01*
X17317860Y7466000D01*
X17309990Y7423670D01*
X17290300Y7391910D01*
X17254870Y7376030D01*
X17160380D01*
G01X17869040Y7561250D02*
Y7243750D01*
G01X17813920Y7455410D02*
X17924160D01*
G01X18184000Y7243750D02*
X18160380Y7249040D01*
X18136760Y7270200D01*
X18121000Y7307250D01*
X18113130Y7349580D01*
X18121000Y7391910D01*
X18136760Y7428960D01*
X18160380Y7450120D01*
X18184000Y7455410D01*
X18207620Y7450120D01*
X18231240Y7428960D01*
X18246990Y7391910D01*
X18250930Y7349580D01*
X18246990Y7307250D01*
X18231240Y7270200D01*
X18207620Y7249040D01*
X18184000Y7243750D01*
G01X18845410Y7413090D02*
X18861160Y7428960D01*
X18872970Y7455410D01*
X18880850Y7492460D01*
X18872970Y7524210D01*
X18857230Y7545370D01*
X18829670Y7561250D01*
X18723370D01*
Y7243750D01*
X18853290D01*
X18880850Y7264910D01*
X18896600Y7296670D01*
X18904470Y7333710D01*
X18896600Y7370740D01*
X18872970Y7402500D01*
X18845410Y7413090D01*
X18723370D01*
G01X19128880Y7243750D02*
X19097380Y7249040D01*
X19069830Y7270200D01*
X19046200Y7301960D01*
X19030450Y7339000D01*
X19022580Y7381330D01*
Y7423670D01*
X19030450Y7466000D01*
X19046200Y7503040D01*
X19069830Y7534790D01*
X19097380Y7555960D01*
X19128880Y7561250D01*
X19160370Y7555960D01*
X19187930Y7534790D01*
X19211560Y7503040D01*
X19227310Y7466000D01*
X19235180Y7423670D01*
Y7381330D01*
X19227310Y7339000D01*
X19211560Y7301960D01*
X19187930Y7270200D01*
X19160370Y7249040D01*
X19128880Y7243750D01*
G01X19443840Y7561250D02*
Y7243750D01*
G01X19353290Y7561250D02*
X19534390D01*
G01X19758800D02*
Y7243750D01*
G01X19668250Y7561250D02*
X19849350D01*
G01X20073760Y7243750D02*
X20042260Y7249040D01*
X20014710Y7270200D01*
X19991080Y7301960D01*
X19975330Y7339000D01*
X19967460Y7381330D01*
Y7423670D01*
X19975330Y7466000D01*
X19991080Y7503040D01*
X20014710Y7534790D01*
X20042260Y7555960D01*
X20073760Y7561250D01*
X20105250Y7555960D01*
X20132810Y7534790D01*
X20156440Y7503040D01*
X20172190Y7466000D01*
X20180060Y7423670D01*
Y7381330D01*
X20172190Y7339000D01*
X20156440Y7301960D01*
X20132810Y7270200D01*
X20105250Y7249040D01*
X20073760Y7243750D01*
G01X20286350D02*
Y7561250D01*
X20388720Y7296670D01*
X20491090Y7561250D01*
Y7243750D01*
G01X13963540Y307250D02*
X13987150Y270200D01*
X14018650Y249040D01*
X14054090Y243750D01*
X14085590Y249040D01*
X14117080Y275490D01*
X14136760Y307250D01*
X14140700Y339000D01*
X14132830Y376030D01*
X14105270Y402500D01*
X14077710Y413090D01*
X14042270D01*
G01X14077710D02*
X14101330Y428960D01*
X14121020Y455410D01*
X14128890Y487160D01*
X14121020Y518920D01*
X14101330Y545370D01*
X14065900Y561250D01*
X14030470Y555960D01*
X13995030Y534790D01*
G01X14365110Y233170D02*
X14357230Y238460D01*
Y249040D01*
X14365110Y254330D01*
X14372990Y249040D01*
Y238460D01*
X14365110Y233170D01*
G01X14680070Y561250D02*
X14648570Y550670D01*
X14624950Y524210D01*
X14609200Y492460D01*
X14597390Y450120D01*
X14593460Y402500D01*
X14597390Y354870D01*
X14609200Y312540D01*
X14624950Y280780D01*
X14648570Y254330D01*
X14680070Y243750D01*
X14711560Y254330D01*
X14735190Y280780D01*
X14750940Y312540D01*
X14762750Y354870D01*
X14766680Y402500D01*
X14762750Y450120D01*
X14750940Y492460D01*
X14735190Y524210D01*
X14711560Y550670D01*
X14680070Y561250D01*
G01X14935980Y455410D02*
X15054080Y243750D01*
G01Y455410D02*
X14935980Y243750D01*
G01X15309990D02*
Y561250D01*
X15262750Y497750D01*
G01Y243750D02*
X15357230D01*
G01X15624950Y233170D02*
X15617070Y238460D01*
Y249040D01*
X15624950Y254330D01*
X15632830Y249040D01*
Y238460D01*
X15624950Y233170D01*
G01X15939910Y561250D02*
X15908410Y550670D01*
X15884790Y524210D01*
X15869040Y492460D01*
X15857230Y450120D01*
X15853300Y402500D01*
X15857230Y354870D01*
X15869040Y312540D01*
X15884790Y280780D01*
X15908410Y254330D01*
X15939910Y243750D01*
X15971400Y254330D01*
X15995030Y280780D01*
X16010780Y312540D01*
X16022590Y354870D01*
X16026520Y402500D01*
X16022590Y450120D01*
X16010780Y492460D01*
X15995030Y524210D01*
X15971400Y550670D01*
X15939910Y561250D01*
G01X13963540Y942250D02*
X13987150Y905200D01*
X14018650Y884040D01*
X14054090Y878750D01*
X14085590Y884040D01*
X14117080Y910490D01*
X14136760Y942250D01*
X14140700Y974000D01*
X14132830Y1011030D01*
X14105270Y1037500D01*
X14077710Y1048090D01*
X14042270D01*
G01X14077710D02*
X14101330Y1063960D01*
X14121020Y1090410D01*
X14128890Y1122160D01*
X14121020Y1153920D01*
X14101330Y1180370D01*
X14065900Y1196250D01*
X14030470Y1190960D01*
X13995030Y1169790D01*
G01X14365110Y868170D02*
X14357230Y873460D01*
Y884040D01*
X14365110Y889330D01*
X14372990Y884040D01*
Y873460D01*
X14365110Y868170D01*
G01X14680070Y1196250D02*
X14648570Y1185670D01*
X14624950Y1159210D01*
X14609200Y1127460D01*
X14597390Y1085120D01*
X14593460Y1037500D01*
X14597390Y989870D01*
X14609200Y947540D01*
X14624950Y915780D01*
X14648570Y889330D01*
X14680070Y878750D01*
X14711560Y889330D01*
X14735190Y915780D01*
X14750940Y947540D01*
X14762750Y989870D01*
X14766680Y1037500D01*
X14762750Y1085120D01*
X14750940Y1127460D01*
X14735190Y1159210D01*
X14711560Y1185670D01*
X14680070Y1196250D01*
G01X14935980Y1090410D02*
X15054080Y878750D01*
G01Y1090410D02*
X14935980Y878750D01*
G01X15309990D02*
Y1196250D01*
X15262750Y1132750D01*
G01Y878750D02*
X15357230D01*
G01X15624950Y868170D02*
X15617070Y873460D01*
Y884040D01*
X15624950Y889330D01*
X15632830Y884040D01*
Y873460D01*
X15624950Y868170D01*
G01X15939910Y1196250D02*
X15908410Y1185670D01*
X15884790Y1159210D01*
X15869040Y1127460D01*
X15857230Y1085120D01*
X15853300Y1037500D01*
X15857230Y989870D01*
X15869040Y947540D01*
X15884790Y915780D01*
X15908410Y889330D01*
X15939910Y878750D01*
X15971400Y889330D01*
X15995030Y915780D01*
X16010780Y947540D01*
X16022590Y989870D01*
X16026520Y1037500D01*
X16022590Y1085120D01*
X16010780Y1127460D01*
X15995030Y1159210D01*
X15971400Y1185670D01*
X15939910Y1196250D01*
G01X14121020Y2212250D02*
X14144630Y2175200D01*
X14176130Y2154040D01*
X14211570Y2148750D01*
X14243070Y2154040D01*
X14274560Y2180490D01*
X14294240Y2212250D01*
X14298180Y2244000D01*
X14290310Y2281030D01*
X14262750Y2307500D01*
X14235190Y2318090D01*
X14199750D01*
G01X14235190D02*
X14258810Y2333960D01*
X14278500Y2360410D01*
X14286370Y2392160D01*
X14278500Y2423920D01*
X14258810Y2450370D01*
X14223380Y2466250D01*
X14187950Y2460960D01*
X14152510Y2439790D01*
G01X14522590Y2138170D02*
X14514710Y2143460D01*
Y2154040D01*
X14522590Y2159330D01*
X14530470Y2154040D01*
Y2143460D01*
X14522590Y2138170D01*
G01X14884790Y2148750D02*
Y2466250D01*
X14739120Y2238710D01*
X14935980D01*
G01X15152510Y2466250D02*
X15121010Y2455670D01*
X15097390Y2429210D01*
X15081640Y2397460D01*
X15069830Y2355120D01*
X15065900Y2307500D01*
X15069830Y2259870D01*
X15081640Y2217540D01*
X15097390Y2185780D01*
X15121010Y2159330D01*
X15152510Y2148750D01*
X15184000Y2159330D01*
X15207630Y2185780D01*
X15223380Y2217540D01*
X15235190Y2259870D01*
X15239120Y2307500D01*
X15235190Y2355120D01*
X15223380Y2397460D01*
X15207630Y2429210D01*
X15184000Y2455670D01*
X15152510Y2466250D01*
G01X15380860Y2212250D02*
X15404470Y2175200D01*
X15435970Y2154040D01*
X15471410Y2148750D01*
X15502910Y2154040D01*
X15534400Y2180490D01*
X15554080Y2212250D01*
X15558020Y2244000D01*
X15550150Y2281030D01*
X15522590Y2307500D01*
X15495030Y2318090D01*
X15459590D01*
G01X15495030D02*
X15518650Y2333960D01*
X15538340Y2360410D01*
X15546210Y2392160D01*
X15538340Y2423920D01*
X15518650Y2450370D01*
X15483220Y2466250D01*
X15447790Y2460960D01*
X15412350Y2439790D01*
G01X15707620Y2281030D02*
X15735190Y2318090D01*
X15758810Y2339250D01*
X15790310Y2349830D01*
X15817870Y2339250D01*
X15837550Y2318090D01*
X15853300Y2286330D01*
X15857240Y2249290D01*
X15853300Y2217540D01*
X15837550Y2185780D01*
X15813920Y2159330D01*
X15786370Y2148750D01*
X15754870Y2159330D01*
X15727310Y2191070D01*
X15711560Y2238710D01*
X15707620Y2291620D01*
X15715500Y2360410D01*
X15727310Y2397460D01*
X15746990Y2434500D01*
X15774550Y2460960D01*
X15802110Y2466250D01*
X15829670Y2455670D01*
X15849360Y2429210D01*
G01X14207630Y3418750D02*
Y3736250D01*
X14160390Y3672750D01*
G01Y3418750D02*
X14254870D01*
G01X14522590Y3408170D02*
X14514710Y3413460D01*
Y3424040D01*
X14522590Y3429330D01*
X14530470Y3424040D01*
Y3413460D01*
X14522590Y3408170D01*
G01X14837550Y3736250D02*
X14806050Y3725670D01*
X14782430Y3699210D01*
X14766680Y3667460D01*
X14754870Y3625120D01*
X14750940Y3577500D01*
X14754870Y3529870D01*
X14766680Y3487540D01*
X14782430Y3455780D01*
X14806050Y3429330D01*
X14837550Y3418750D01*
X14869040Y3429330D01*
X14892670Y3455780D01*
X14908420Y3487540D01*
X14920230Y3529870D01*
X14924160Y3577500D01*
X14920230Y3625120D01*
X14908420Y3667460D01*
X14892670Y3699210D01*
X14869040Y3725670D01*
X14837550Y3736250D01*
G01X15152510D02*
X15121010Y3725670D01*
X15097390Y3699210D01*
X15081640Y3667460D01*
X15069830Y3625120D01*
X15065900Y3577500D01*
X15069830Y3529870D01*
X15081640Y3487540D01*
X15097390Y3455780D01*
X15121010Y3429330D01*
X15152510Y3418750D01*
X15184000Y3429330D01*
X15207630Y3455780D01*
X15223380Y3487540D01*
X15235190Y3529870D01*
X15239120Y3577500D01*
X15235190Y3625120D01*
X15223380Y3667460D01*
X15207630Y3699210D01*
X15184000Y3725670D01*
X15152510Y3736250D01*
G01X15467470D02*
X15435970Y3725670D01*
X15412350Y3699210D01*
X15396600Y3667460D01*
X15384790Y3625120D01*
X15380860Y3577500D01*
X15384790Y3529870D01*
X15396600Y3487540D01*
X15412350Y3455780D01*
X15435970Y3429330D01*
X15467470Y3418750D01*
X15498960Y3429330D01*
X15522590Y3455780D01*
X15538340Y3487540D01*
X15550150Y3529870D01*
X15554080Y3577500D01*
X15550150Y3625120D01*
X15538340Y3667460D01*
X15522590Y3699210D01*
X15498960Y3725670D01*
X15467470Y3736250D01*
G01X15782430Y3418750D02*
X15809990Y3424040D01*
X15841480Y3439910D01*
X15861170Y3466360D01*
X15869040Y3503420D01*
X15861170Y3540450D01*
X15837550Y3572200D01*
X15802110Y3588090D01*
X15762750D01*
X15739120Y3598670D01*
X15719430Y3625120D01*
X15711560Y3662160D01*
X15723380Y3699210D01*
X15750930Y3725670D01*
X15782430Y3736250D01*
X15813920Y3725670D01*
X15841480Y3699210D01*
X15853300Y3662160D01*
X15845420Y3625120D01*
X15825740Y3598670D01*
X15802110Y3588090D01*
X15762750D01*
X15727310Y3572200D01*
X15703690Y3540450D01*
X15695820Y3503420D01*
X15703690Y3466360D01*
X15723380Y3439910D01*
X15754870Y3424040D01*
X15782430Y3418750D01*
G01X14207630Y5006250D02*
X14176130Y4995670D01*
X14152510Y4969210D01*
X14136760Y4937460D01*
X14124950Y4895120D01*
X14121020Y4847500D01*
X14124950Y4799870D01*
X14136760Y4757540D01*
X14152510Y4725780D01*
X14176130Y4699330D01*
X14207630Y4688750D01*
X14239120Y4699330D01*
X14262750Y4725780D01*
X14278500Y4757540D01*
X14290310Y4799870D01*
X14294240Y4847500D01*
X14290310Y4895120D01*
X14278500Y4937460D01*
X14262750Y4969210D01*
X14239120Y4995670D01*
X14207630Y5006250D01*
G01X14522590Y4678170D02*
X14514710Y4683460D01*
Y4694040D01*
X14522590Y4699330D01*
X14530470Y4694040D01*
Y4683460D01*
X14522590Y4678170D01*
G01X14884790Y4688750D02*
Y5006250D01*
X14739120Y4778710D01*
X14935980D01*
G01X15065900Y4736360D02*
X15089510Y4709910D01*
X15117070Y4694040D01*
X15152510Y4688750D01*
X15187950Y4699330D01*
X15215500Y4720490D01*
X15235190Y4757540D01*
X15239120Y4799870D01*
X15231250Y4842200D01*
X15211560Y4868670D01*
X15184000Y4889830D01*
X15156450Y4895120D01*
X15128890Y4889830D01*
X15093460Y4868670D01*
X15105270Y5006250D01*
X15211560D01*
G01X15459590Y4688750D02*
X15467470Y4757540D01*
X15479280Y4815740D01*
X15495030Y4868670D01*
X15514710Y4926870D01*
X15546210Y5006250D01*
X15388730D01*
G01X15707620Y4953330D02*
X15731250Y4985080D01*
X15758810Y5000960D01*
X15790310Y5006250D01*
X15829670Y4995670D01*
X15857240Y4969210D01*
X15865110Y4937460D01*
X15861170Y4905700D01*
X15845420Y4879250D01*
X15766680Y4826330D01*
X15731250Y4789290D01*
X15707620Y4736360D01*
X15699750Y4688750D01*
X15865110D01*
G01X14207630Y5641250D02*
X14176130Y5630670D01*
X14152510Y5604210D01*
X14136760Y5572460D01*
X14124950Y5530120D01*
X14121020Y5482500D01*
X14124950Y5434870D01*
X14136760Y5392540D01*
X14152510Y5360780D01*
X14176130Y5334330D01*
X14207630Y5323750D01*
X14239120Y5334330D01*
X14262750Y5360780D01*
X14278500Y5392540D01*
X14290310Y5434870D01*
X14294240Y5482500D01*
X14290310Y5530120D01*
X14278500Y5572460D01*
X14262750Y5604210D01*
X14239120Y5630670D01*
X14207630Y5641250D01*
G01X14522590Y5313170D02*
X14514710Y5318460D01*
Y5329040D01*
X14522590Y5334330D01*
X14530470Y5329040D01*
Y5318460D01*
X14522590Y5313170D01*
G01X14750940Y5387250D02*
X14774550Y5350200D01*
X14806050Y5329040D01*
X14841490Y5323750D01*
X14872990Y5329040D01*
X14904480Y5355490D01*
X14924160Y5387250D01*
X14928100Y5419000D01*
X14920230Y5456030D01*
X14892670Y5482500D01*
X14865110Y5493090D01*
X14829670D01*
G01X14865110D02*
X14888730Y5508960D01*
X14908420Y5535410D01*
X14916290Y5567160D01*
X14908420Y5598920D01*
X14888730Y5625370D01*
X14853300Y5641250D01*
X14817870Y5635960D01*
X14782430Y5614790D01*
G01X15152510Y5641250D02*
X15121010Y5630670D01*
X15097390Y5604210D01*
X15081640Y5572460D01*
X15069830Y5530120D01*
X15065900Y5482500D01*
X15069830Y5434870D01*
X15081640Y5392540D01*
X15097390Y5360780D01*
X15121010Y5334330D01*
X15152510Y5323750D01*
X15184000Y5334330D01*
X15207630Y5360780D01*
X15223380Y5392540D01*
X15235190Y5434870D01*
X15239120Y5482500D01*
X15235190Y5530120D01*
X15223380Y5572460D01*
X15207630Y5604210D01*
X15184000Y5630670D01*
X15152510Y5641250D01*
G01X15514710Y5323750D02*
Y5641250D01*
X15369040Y5413710D01*
X15565900D01*
G01X15782430Y5323750D02*
X15809990Y5329040D01*
X15841480Y5344910D01*
X15861170Y5371360D01*
X15869040Y5408420D01*
X15861170Y5445450D01*
X15837550Y5477200D01*
X15802110Y5493090D01*
X15762750D01*
X15739120Y5503670D01*
X15719430Y5530120D01*
X15711560Y5567160D01*
X15723380Y5604210D01*
X15750930Y5630670D01*
X15782430Y5641250D01*
X15813920Y5630670D01*
X15841480Y5604210D01*
X15853300Y5567160D01*
X15845420Y5530120D01*
X15825740Y5503670D01*
X15802110Y5493090D01*
X15762750D01*
X15727310Y5477200D01*
X15703690Y5445450D01*
X15695820Y5408420D01*
X15703690Y5371360D01*
X15723380Y5344910D01*
X15754870Y5329040D01*
X15782430Y5323750D01*
G01X14365110Y4371250D02*
X14333610Y4360670D01*
X14309990Y4334210D01*
X14294240Y4302460D01*
X14282430Y4260120D01*
X14278500Y4212500D01*
X14282430Y4164870D01*
X14294240Y4122540D01*
X14309990Y4090780D01*
X14333610Y4064330D01*
X14365110Y4053750D01*
X14396600Y4064330D01*
X14420230Y4090780D01*
X14435980Y4122540D01*
X14447790Y4164870D01*
X14451720Y4212500D01*
X14447790Y4260120D01*
X14435980Y4302460D01*
X14420230Y4334210D01*
X14396600Y4360670D01*
X14365110Y4371250D01*
G01X14680070Y4043170D02*
X14672190Y4048460D01*
Y4059040D01*
X14680070Y4064330D01*
X14687950Y4059040D01*
Y4048460D01*
X14680070Y4043170D01*
G01X14995030Y4053750D02*
X15022590Y4059040D01*
X15054080Y4074910D01*
X15073770Y4101360D01*
X15081640Y4138420D01*
X15073770Y4175450D01*
X15050150Y4207200D01*
X15014710Y4223090D01*
X14975350D01*
X14951720Y4233670D01*
X14932030Y4260120D01*
X14924160Y4297160D01*
X14935980Y4334210D01*
X14963530Y4360670D01*
X14995030Y4371250D01*
X15026520Y4360670D01*
X15054080Y4334210D01*
X15065900Y4297160D01*
X15058020Y4260120D01*
X15038340Y4233670D01*
X15014710Y4223090D01*
X14975350D01*
X14939910Y4207200D01*
X14916290Y4175450D01*
X14908420Y4138420D01*
X14916290Y4101360D01*
X14935980Y4074910D01*
X14967470Y4059040D01*
X14995030Y4053750D01*
G01X15309990D02*
X15337550Y4059040D01*
X15369040Y4074910D01*
X15388730Y4101360D01*
X15396600Y4138420D01*
X15388730Y4175450D01*
X15365110Y4207200D01*
X15329670Y4223090D01*
X15290310D01*
X15266680Y4233670D01*
X15246990Y4260120D01*
X15239120Y4297160D01*
X15250940Y4334210D01*
X15278490Y4360670D01*
X15309990Y4371250D01*
X15341480Y4360670D01*
X15369040Y4334210D01*
X15380860Y4297160D01*
X15372980Y4260120D01*
X15353300Y4233670D01*
X15329670Y4223090D01*
X15290310D01*
X15254870Y4207200D01*
X15231250Y4175450D01*
X15223380Y4138420D01*
X15231250Y4101360D01*
X15250940Y4074910D01*
X15282430Y4059040D01*
X15309990Y4053750D01*
G01X15558020Y4090780D02*
X15585580Y4064330D01*
X15617070Y4053750D01*
X15648570Y4064330D01*
X15676130Y4096070D01*
X15695820Y4143710D01*
X15703690Y4191330D01*
Y4249540D01*
X15695820Y4297160D01*
X15676130Y4339500D01*
X15652510Y4360670D01*
X15624950Y4371250D01*
X15593450Y4360670D01*
X15569830Y4339500D01*
X15554080Y4307750D01*
X15546210Y4265410D01*
X15554080Y4228380D01*
X15573770Y4191330D01*
X15597390Y4170160D01*
X15624950Y4164870D01*
X15656440Y4175450D01*
X15680070Y4201910D01*
X15703690Y4249540D01*
G01X14593460Y1577250D02*
X14617070Y1540200D01*
X14648570Y1519040D01*
X14684010Y1513750D01*
X14715510Y1519040D01*
X14747000Y1545490D01*
X14766680Y1577250D01*
X14770620Y1609000D01*
X14762750Y1646030D01*
X14735190Y1672500D01*
X14707630Y1683090D01*
X14672190D01*
G01X14707630D02*
X14731250Y1698960D01*
X14750940Y1725410D01*
X14758810Y1757160D01*
X14750940Y1788920D01*
X14731250Y1815370D01*
X14695820Y1831250D01*
X14660390Y1825960D01*
X14624950Y1804790D01*
G01X14995030Y1503170D02*
X14987150Y1508460D01*
Y1519040D01*
X14995030Y1524330D01*
X15002910Y1519040D01*
Y1508460D01*
X14995030Y1503170D01*
G01X15223380Y1577250D02*
X15246990Y1540200D01*
X15278490Y1519040D01*
X15313930Y1513750D01*
X15345430Y1519040D01*
X15376920Y1545490D01*
X15396600Y1577250D01*
X15400540Y1609000D01*
X15392670Y1646030D01*
X15365110Y1672500D01*
X15337550Y1683090D01*
X15302110D01*
G01X15337550D02*
X15361170Y1698960D01*
X15380860Y1725410D01*
X15388730Y1757160D01*
X15380860Y1788920D01*
X15361170Y1815370D01*
X15325740Y1831250D01*
X15290310Y1825960D01*
X15254870Y1804790D01*
G01X14680070Y2783750D02*
Y3101250D01*
X14632830Y3037750D01*
G01Y2783750D02*
X14727310D01*
G01X14995030Y2773170D02*
X14987150Y2778460D01*
Y2789040D01*
X14995030Y2794330D01*
X15002910Y2789040D01*
Y2778460D01*
X14995030Y2773170D01*
G01X15302110Y2783750D02*
X15309990Y2852540D01*
X15321800Y2910740D01*
X15337550Y2963670D01*
X15357230Y3021870D01*
X15388730Y3101250D01*
X15231250D01*
G01X14439910Y6001070D02*
X14471410Y5974620D01*
X14506840Y5958750D01*
X14538340D01*
X14569830Y5974620D01*
X14593460Y6001070D01*
X14605270Y6038130D01*
X14597400Y6075160D01*
X14577710Y6106910D01*
X14542270Y6128090D01*
X14495030Y6138670D01*
X14467470Y6159830D01*
X14455660Y6196870D01*
X14463540Y6233920D01*
X14483220Y6260370D01*
X14510780Y6276250D01*
X14538340D01*
X14565900Y6265670D01*
X14589520Y6239210D01*
G01X14790310Y6276250D02*
X14884790D01*
G01X14837550D02*
Y5958750D01*
G01X14790310D02*
X14884790D01*
G01X15077700Y6276250D02*
X15227320D01*
X15077700Y5958750D01*
X15227320D01*
G01X15546210D02*
X15388730D01*
Y6276250D01*
X15546210D01*
G01X15483220Y6122800D02*
X15388730D01*
G01X17502900Y1513750D02*
Y1831250D01*
X17684000Y1513750D01*
Y1831250D01*
G01X17908410Y1513750D02*
X17876910Y1519040D01*
X17849360Y1540200D01*
X17825730Y1571960D01*
X17809980Y1609000D01*
X17802110Y1651330D01*
Y1693670D01*
X17809980Y1736000D01*
X17825730Y1773040D01*
X17849360Y1804790D01*
X17876910Y1825960D01*
X17908410Y1831250D01*
X17939900Y1825960D01*
X17967460Y1804790D01*
X17991090Y1773040D01*
X18006840Y1736000D01*
X18014710Y1693670D01*
Y1651330D01*
X18006840Y1609000D01*
X17991090Y1571960D01*
X17967460Y1540200D01*
X17939900Y1519040D01*
X17908410Y1513750D01*
G01X18132820D02*
Y1831250D01*
X18313920Y1513750D01*
Y1831250D01*
G01X18487150Y1619580D02*
X18589510D01*
G01X18774550Y1513750D02*
Y1831250D01*
X18869040D01*
X18900530Y1815370D01*
X18924160Y1778330D01*
X18932030Y1736000D01*
X18924160Y1693670D01*
X18904470Y1661910D01*
X18869040Y1646030D01*
X18774550D01*
G01X19089510Y1831250D02*
Y1513750D01*
X19246990D01*
G01X19384780D02*
X19483210Y1831250D01*
X19581640Y1513750D01*
G01X19546200Y1624870D02*
X19420210D01*
G01X19798170Y1831250D02*
Y1513750D01*
G01X19707620Y1831250D02*
X19888720D01*
G01X20191870Y1513750D02*
X20034390D01*
Y1831250D01*
X20191870D01*
G01X20128880Y1677800D02*
X20034390D01*
G01X20341480Y1513750D02*
Y1831250D01*
X20420210D01*
X20451710Y1815370D01*
X20475330Y1794210D01*
X20495020Y1762460D01*
X20510770Y1725410D01*
X20514700Y1672500D01*
X20510770Y1619580D01*
X20495020Y1582540D01*
X20475330Y1550780D01*
X20451710Y1529620D01*
X20420210Y1513750D01*
X20341480D01*
G01X18144630Y243750D02*
Y561250D01*
X18239120D01*
X18270610Y545370D01*
X18294240Y508330D01*
X18302110Y466000D01*
X18294240Y423670D01*
X18274550Y391910D01*
X18239120Y376030D01*
X18144630D01*
G01X18459590Y561250D02*
Y243750D01*
X18617070D01*
G01X18754860D02*
X18853290Y561250D01*
X18951720Y243750D01*
G01X18916280Y354870D02*
X18790290D01*
G01X19168250Y561250D02*
Y243750D01*
G01X19077700Y561250D02*
X19258800D01*
G01X19561950Y243750D02*
X19404470D01*
Y561250D01*
X19561950D01*
G01X19498960Y407800D02*
X19404470D01*
G01X19711560Y243750D02*
Y561250D01*
X19790290D01*
X19821790Y545370D01*
X19845410Y524210D01*
X19865100Y492460D01*
X19880850Y455410D01*
X19884780Y402500D01*
X19880850Y349580D01*
X19865100Y312540D01*
X19845410Y280780D01*
X19821790Y259620D01*
X19790290Y243750D01*
X19711560D01*
G01X18144630Y878750D02*
Y1196250D01*
X18239120D01*
X18270610Y1180370D01*
X18294240Y1143330D01*
X18302110Y1101000D01*
X18294240Y1058670D01*
X18274550Y1026910D01*
X18239120Y1011030D01*
X18144630D01*
G01X18459590Y1196250D02*
Y878750D01*
X18617070D01*
G01X18754860D02*
X18853290Y1196250D01*
X18951720Y878750D01*
G01X18916280Y989870D02*
X18790290D01*
G01X19168250Y1196250D02*
Y878750D01*
G01X19077700Y1196250D02*
X19258800D01*
G01X19561950Y878750D02*
X19404470D01*
Y1196250D01*
X19561950D01*
G01X19498960Y1042800D02*
X19404470D01*
G01X19711560Y878750D02*
Y1196250D01*
X19790290D01*
X19821790Y1180370D01*
X19845410Y1159210D01*
X19865100Y1127460D01*
X19880850Y1090410D01*
X19884780Y1037500D01*
X19880850Y984580D01*
X19865100Y947540D01*
X19845410Y915780D01*
X19821790Y894620D01*
X19790290Y878750D01*
X19711560D01*
G01X18144630Y2148750D02*
Y2466250D01*
X18239120D01*
X18270610Y2450370D01*
X18294240Y2413330D01*
X18302110Y2371000D01*
X18294240Y2328670D01*
X18274550Y2296910D01*
X18239120Y2281030D01*
X18144630D01*
G01X18459590Y2466250D02*
Y2148750D01*
X18617070D01*
G01X18754860D02*
X18853290Y2466250D01*
X18951720Y2148750D01*
G01X18916280Y2259870D02*
X18790290D01*
G01X19168250Y2466250D02*
Y2148750D01*
G01X19077700Y2466250D02*
X19258800D01*
G01X19561950Y2148750D02*
X19404470D01*
Y2466250D01*
X19561950D01*
G01X19498960Y2312800D02*
X19404470D01*
G01X19711560Y2148750D02*
Y2466250D01*
X19790290D01*
X19821790Y2450370D01*
X19845410Y2429210D01*
X19865100Y2397460D01*
X19880850Y2360410D01*
X19884780Y2307500D01*
X19880850Y2254580D01*
X19865100Y2217540D01*
X19845410Y2185780D01*
X19821790Y2164620D01*
X19790290Y2148750D01*
X19711560D01*
G01X18144630Y2783750D02*
Y3101250D01*
X18239120D01*
X18270610Y3085370D01*
X18294240Y3048330D01*
X18302110Y3006000D01*
X18294240Y2963670D01*
X18274550Y2931910D01*
X18239120Y2916030D01*
X18144630D01*
G01X18459590Y3101250D02*
Y2783750D01*
X18617070D01*
G01X18754860D02*
X18853290Y3101250D01*
X18951720Y2783750D01*
G01X18916280Y2894870D02*
X18790290D01*
G01X19168250Y3101250D02*
Y2783750D01*
G01X19077700Y3101250D02*
X19258800D01*
G01X19561950Y2783750D02*
X19404470D01*
Y3101250D01*
X19561950D01*
G01X19498960Y2947800D02*
X19404470D01*
G01X19711560Y2783750D02*
Y3101250D01*
X19790290D01*
X19821790Y3085370D01*
X19845410Y3064210D01*
X19865100Y3032460D01*
X19880850Y2995410D01*
X19884780Y2942500D01*
X19880850Y2889580D01*
X19865100Y2852540D01*
X19845410Y2820780D01*
X19821790Y2799620D01*
X19790290Y2783750D01*
X19711560D01*
G01X18144630Y3418750D02*
Y3736250D01*
X18239120D01*
X18270610Y3720370D01*
X18294240Y3683330D01*
X18302110Y3641000D01*
X18294240Y3598670D01*
X18274550Y3566910D01*
X18239120Y3551030D01*
X18144630D01*
G01X18459590Y3736250D02*
Y3418750D01*
X18617070D01*
G01X18754860D02*
X18853290Y3736250D01*
X18951720Y3418750D01*
G01X18916280Y3529870D02*
X18790290D01*
G01X19168250Y3736250D02*
Y3418750D01*
G01X19077700Y3736250D02*
X19258800D01*
G01X19561950Y3418750D02*
X19404470D01*
Y3736250D01*
X19561950D01*
G01X19498960Y3582800D02*
X19404470D01*
G01X19711560Y3418750D02*
Y3736250D01*
X19790290D01*
X19821790Y3720370D01*
X19845410Y3699210D01*
X19865100Y3667460D01*
X19880850Y3630410D01*
X19884780Y3577500D01*
X19880850Y3524580D01*
X19865100Y3487540D01*
X19845410Y3455780D01*
X19821790Y3434620D01*
X19790290Y3418750D01*
X19711560D01*
G01X18144630Y4053750D02*
Y4371250D01*
X18239120D01*
X18270610Y4355370D01*
X18294240Y4318330D01*
X18302110Y4276000D01*
X18294240Y4233670D01*
X18274550Y4201910D01*
X18239120Y4186030D01*
X18144630D01*
G01X18459590Y4371250D02*
Y4053750D01*
X18617070D01*
G01X18754860D02*
X18853290Y4371250D01*
X18951720Y4053750D01*
G01X18916280Y4164870D02*
X18790290D01*
G01X19168250Y4371250D02*
Y4053750D01*
G01X19077700Y4371250D02*
X19258800D01*
G01X19561950Y4053750D02*
X19404470D01*
Y4371250D01*
X19561950D01*
G01X19498960Y4217800D02*
X19404470D01*
G01X19711560Y4053750D02*
Y4371250D01*
X19790290D01*
X19821790Y4355370D01*
X19845410Y4334210D01*
X19865100Y4302460D01*
X19880850Y4265410D01*
X19884780Y4212500D01*
X19880850Y4159580D01*
X19865100Y4122540D01*
X19845410Y4090780D01*
X19821790Y4069620D01*
X19790290Y4053750D01*
X19711560D01*
G01X18144630Y4688750D02*
Y5006250D01*
X18239120D01*
X18270610Y4990370D01*
X18294240Y4953330D01*
X18302110Y4911000D01*
X18294240Y4868670D01*
X18274550Y4836910D01*
X18239120Y4821030D01*
X18144630D01*
G01X18459590Y5006250D02*
Y4688750D01*
X18617070D01*
G01X18754860D02*
X18853290Y5006250D01*
X18951720Y4688750D01*
G01X18916280Y4799870D02*
X18790290D01*
G01X19168250Y5006250D02*
Y4688750D01*
G01X19077700Y5006250D02*
X19258800D01*
G01X19561950Y4688750D02*
X19404470D01*
Y5006250D01*
X19561950D01*
G01X19498960Y4852800D02*
X19404470D01*
G01X19711560Y4688750D02*
Y5006250D01*
X19790290D01*
X19821790Y4990370D01*
X19845410Y4969210D01*
X19865100Y4937460D01*
X19880850Y4900410D01*
X19884780Y4847500D01*
X19880850Y4794580D01*
X19865100Y4757540D01*
X19845410Y4725780D01*
X19821790Y4704620D01*
X19790290Y4688750D01*
X19711560D01*
G01X18144630Y5323750D02*
Y5641250D01*
X18239120D01*
X18270610Y5625370D01*
X18294240Y5588330D01*
X18302110Y5546000D01*
X18294240Y5503670D01*
X18274550Y5471910D01*
X18239120Y5456030D01*
X18144630D01*
G01X18459590Y5641250D02*
Y5323750D01*
X18617070D01*
G01X18754860D02*
X18853290Y5641250D01*
X18951720Y5323750D01*
G01X18916280Y5434870D02*
X18790290D01*
G01X19168250Y5641250D02*
Y5323750D01*
G01X19077700Y5641250D02*
X19258800D01*
G01X19561950Y5323750D02*
X19404470D01*
Y5641250D01*
X19561950D01*
G01X19498960Y5487800D02*
X19404470D01*
G01X19711560Y5323750D02*
Y5641250D01*
X19790290D01*
X19821790Y5625370D01*
X19845410Y5604210D01*
X19865100Y5572460D01*
X19880850Y5535410D01*
X19884780Y5482500D01*
X19880850Y5429580D01*
X19865100Y5392540D01*
X19845410Y5360780D01*
X19821790Y5339620D01*
X19790290Y5323750D01*
X19711560D01*
G01X18144630Y5958750D02*
Y6276250D01*
X18239120D01*
X18270610Y6260370D01*
X18294240Y6223330D01*
X18302110Y6181000D01*
X18294240Y6138670D01*
X18274550Y6106910D01*
X18239120Y6091030D01*
X18144630D01*
G01X18459590Y6276250D02*
Y5958750D01*
X18617070D01*
G01X18754860D02*
X18853290Y6276250D01*
X18951720Y5958750D01*
G01X18916280Y6069870D02*
X18790290D01*
G01X19168250Y6276250D02*
Y5958750D01*
G01X19077700Y6276250D02*
X19258800D01*
G01X19561950Y5958750D02*
X19404470D01*
Y6276250D01*
X19561950D01*
G01X19498960Y6122800D02*
X19404470D01*
G01X19711560Y5958750D02*
Y6276250D01*
X19790290D01*
X19821790Y6260370D01*
X19845410Y6239210D01*
X19865100Y6207460D01*
X19880850Y6170410D01*
X19884780Y6117500D01*
X19880850Y6064580D01*
X19865100Y6027540D01*
X19845410Y5995780D01*
X19821790Y5974620D01*
X19790290Y5958750D01*
X19711560D01*
G01X21451710Y1513750D02*
Y1831250D01*
X21404470Y1767750D01*
G01Y1513750D02*
X21498950D01*
G01X21766670Y1831250D02*
X21735170Y1820670D01*
X21711550Y1794210D01*
X21695800Y1762460D01*
X21683990Y1720120D01*
X21680060Y1672500D01*
X21683990Y1624870D01*
X21695800Y1582540D01*
X21711550Y1550780D01*
X21735170Y1524330D01*
X21766670Y1513750D01*
X21798160Y1524330D01*
X21821790Y1550780D01*
X21837540Y1582540D01*
X21849350Y1624870D01*
X21853280Y1672500D01*
X21849350Y1720120D01*
X21837540Y1762460D01*
X21821790Y1794210D01*
X21798160Y1820670D01*
X21766670Y1831250D01*
G01X21451710Y2783750D02*
Y3101250D01*
X21404470Y3037750D01*
G01Y2783750D02*
X21498950D01*
G01X21766670Y3101250D02*
X21735170Y3090670D01*
X21711550Y3064210D01*
X21695800Y3032460D01*
X21683990Y2990120D01*
X21680060Y2942500D01*
X21683990Y2894870D01*
X21695800Y2852540D01*
X21711550Y2820780D01*
X21735170Y2794330D01*
X21766670Y2783750D01*
X21798160Y2794330D01*
X21821790Y2820780D01*
X21837540Y2852540D01*
X21849350Y2894870D01*
X21853280Y2942500D01*
X21849350Y2990120D01*
X21837540Y3032460D01*
X21821790Y3064210D01*
X21798160Y3090670D01*
X21766670Y3101250D01*
G01X21376900Y3551030D02*
X21404470Y3588090D01*
X21428090Y3609250D01*
X21459590Y3619830D01*
X21487150Y3609250D01*
X21506830Y3588090D01*
X21522580Y3556330D01*
X21526520Y3519290D01*
X21522580Y3487540D01*
X21506830Y3455780D01*
X21483200Y3429330D01*
X21455650Y3418750D01*
X21424150Y3429330D01*
X21396590Y3461070D01*
X21380840Y3508710D01*
X21376900Y3561620D01*
X21384780Y3630410D01*
X21396590Y3667460D01*
X21416270Y3704500D01*
X21443830Y3730960D01*
X21471390Y3736250D01*
X21498950Y3725670D01*
X21518640Y3699210D01*
G01X21766670Y3736250D02*
X21735170Y3725670D01*
X21711550Y3699210D01*
X21695800Y3667460D01*
X21683990Y3625120D01*
X21680060Y3577500D01*
X21683990Y3529870D01*
X21695800Y3487540D01*
X21711550Y3455780D01*
X21735170Y3429330D01*
X21766670Y3418750D01*
X21798160Y3429330D01*
X21821790Y3455780D01*
X21837540Y3487540D01*
X21849350Y3529870D01*
X21853280Y3577500D01*
X21849350Y3625120D01*
X21837540Y3667460D01*
X21821790Y3699210D01*
X21798160Y3725670D01*
X21766670Y3736250D01*
G01X21207620Y5387250D02*
X21231230Y5350200D01*
X21262730Y5329040D01*
X21298170Y5323750D01*
X21329670Y5329040D01*
X21361160Y5355490D01*
X21380840Y5387250D01*
X21384780Y5419000D01*
X21376910Y5456030D01*
X21349350Y5482500D01*
X21321790Y5493090D01*
X21286350D01*
G01X21321790D02*
X21345410Y5508960D01*
X21365100Y5535410D01*
X21372970Y5567160D01*
X21365100Y5598920D01*
X21345410Y5625370D01*
X21309980Y5641250D01*
X21274550Y5635960D01*
X21239110Y5614790D01*
G01X21522580Y5371360D02*
X21546190Y5344910D01*
X21573750Y5329040D01*
X21609190Y5323750D01*
X21644630Y5334330D01*
X21672180Y5355490D01*
X21691870Y5392540D01*
X21695800Y5434870D01*
X21687930Y5477200D01*
X21668240Y5503670D01*
X21640680Y5524830D01*
X21613130Y5530120D01*
X21585570Y5524830D01*
X21550140Y5503670D01*
X21561950Y5641250D01*
X21668240D01*
G01X21837540Y5387250D02*
X21861150Y5350200D01*
X21892650Y5329040D01*
X21928090Y5323750D01*
X21959590Y5329040D01*
X21991080Y5355490D01*
X22010760Y5387250D01*
X22014700Y5419000D01*
X22006830Y5456030D01*
X21979270Y5482500D01*
X21951710Y5493090D01*
X21916270D01*
G01X21951710D02*
X21975330Y5508960D01*
X21995020Y5535410D01*
X22002890Y5567160D01*
X21995020Y5598920D01*
X21975330Y5625370D01*
X21939900Y5641250D01*
X21904470Y5635960D01*
X21869030Y5614790D01*
G01X21294230Y5958750D02*
X21262730Y5964040D01*
X21235180Y5985200D01*
X21211550Y6016960D01*
X21195800Y6054000D01*
X21187930Y6096330D01*
Y6138670D01*
X21195800Y6181000D01*
X21211550Y6218040D01*
X21235180Y6249790D01*
X21262730Y6270960D01*
X21294230Y6276250D01*
X21325720Y6270960D01*
X21353280Y6249790D01*
X21376910Y6218040D01*
X21392660Y6181000D01*
X21400530Y6138670D01*
Y6096330D01*
X21392660Y6054000D01*
X21376910Y6016960D01*
X21353280Y5985200D01*
X21325720Y5964040D01*
X21294230Y5958750D01*
G01X21325720Y6043420D02*
X21372970Y5958750D01*
G01X21609190Y6276250D02*
Y5958750D01*
G01X21518640Y6276250D02*
X21699740D01*
G01X21924150Y5958750D02*
Y6101620D01*
X21845410Y6276250D01*
G01X22002890D02*
X21924150Y6101620D01*
G01X21534380Y508330D02*
X21558010Y540080D01*
X21585570Y555960D01*
X21617070Y561250D01*
X21656430Y550670D01*
X21684000Y524210D01*
X21691870Y492460D01*
X21687930Y460700D01*
X21672180Y434250D01*
X21593440Y381330D01*
X21558010Y344290D01*
X21534380Y291360D01*
X21526510Y243750D01*
X21691870D01*
G01X21609190Y878750D02*
Y1196250D01*
X21561950Y1132750D01*
G01Y878750D02*
X21656430D01*
G01Y2148750D02*
Y2466250D01*
X21510760Y2238710D01*
X21707620D01*
G01X21534380Y4186030D02*
X21561950Y4223090D01*
X21585570Y4244250D01*
X21617070Y4254830D01*
X21644630Y4244250D01*
X21664310Y4223090D01*
X21680060Y4191330D01*
X21684000Y4154290D01*
X21680060Y4122540D01*
X21664310Y4090780D01*
X21640680Y4064330D01*
X21613130Y4053750D01*
X21581630Y4064330D01*
X21554070Y4096070D01*
X21538320Y4143710D01*
X21534380Y4196620D01*
X21542260Y4265410D01*
X21554070Y4302460D01*
X21573750Y4339500D01*
X21601310Y4365960D01*
X21628870Y4371250D01*
X21656430Y4360670D01*
X21676120Y4334210D01*
G01X21542260Y4725780D02*
X21569820Y4699330D01*
X21601310Y4688750D01*
X21632810Y4699330D01*
X21660370Y4731070D01*
X21680060Y4778710D01*
X21687930Y4826330D01*
Y4884540D01*
X21680060Y4932160D01*
X21660370Y4974500D01*
X21636750Y4995670D01*
X21609190Y5006250D01*
X21577690Y4995670D01*
X21554070Y4974500D01*
X21538320Y4942750D01*
X21530450Y4900410D01*
X21538320Y4863380D01*
X21558010Y4826330D01*
X21581630Y4805160D01*
X21609190Y4799870D01*
X21640680Y4810450D01*
X21664310Y4836910D01*
X21687930Y4884540D01*
G01X-250000Y0D02*
X-1600000D01*
G01X730820Y7500000D02*
X-1600000D01*
G01X-1412500Y400000D02*
X-1350000Y0D01*
X-1287500Y400000D01*
X-1412500D01*
G01X-1287500Y7100000D02*
X-1350000Y7500000D01*
X-1412500Y7100000D01*
X-1287500D01*
G01X-1350000Y3429260D02*
Y0D01*
G01Y3920740D02*
Y7500000D01*
G01X-250000Y0D02*
X-970000D01*
G01X80000Y7170000D02*
X-970000D01*
G01X-720000Y3149970D02*
Y0D01*
G01X-782500Y400000D02*
X-720000Y0D01*
X-657500Y400000D01*
X-782500D01*
G01X-720000Y3641450D02*
Y7170000D01*
G01X-657500Y6770000D02*
X-720000Y7170000D01*
X-782500Y6770000D01*
X-657500D01*
G01X-250000Y0D02*
X-590000D01*
G01X80000Y330000D02*
X-590000D01*
G01X-400000Y-622500D02*
X0Y-560000D01*
X-400000Y-497500D01*
Y-622500D01*
G01X-277500Y-400000D02*
X-340000Y0D01*
X-402500Y-400000D01*
X-277500D01*
G01X-340000Y-85740D02*
Y0D01*
G01Y405740D02*
Y330000D01*
G01X-402500Y730000D02*
X-340000Y330000D01*
X-277500Y730000D01*
X-402500D01*
G01X-272110Y-560000D02*
X0D01*
G01Y-250000D02*
Y-1540000D01*
G01X4571950Y-1290000D02*
X0D01*
G01X400000Y-1227500D02*
X0Y-1290000D01*
X400000Y-1352500D01*
Y-1227500D01*
G01X0Y-250000D02*
Y-1120000D01*
G01X4262640Y-870000D02*
X0D01*
G01X400000Y-807500D02*
X0Y-870000D01*
X400000Y-932500D01*
Y-807500D01*
G01X0Y-250000D02*
Y-810000D01*
G01X330000Y80000D02*
Y-810000D01*
G01X552110Y-560000D02*
X330000D01*
G01X730000Y-497500D02*
X330000Y-560000D01*
X730000Y-622500D01*
Y-497500D01*
G01X5277360Y-870000D02*
X9250000D01*
G01X5586670Y-1290000D02*
X9580000D01*
G01X8850000Y-932500D02*
X9250000Y-870000D01*
X8850000Y-807500D01*
Y-932500D01*
G01X9180000Y-1352500D02*
X9580000Y-1290000D01*
X9180000Y-1227500D01*
Y-1352500D01*
G01X9250000Y80000D02*
Y-1120000D01*
G01X9580000Y390000D02*
Y-1540000D01*
G01X10310000Y85000D02*
Y7720000D01*
X22593440D01*
Y85000D01*
X10310000D01*
G01Y720000D02*
X22593440D01*
G01X10310000Y1355000D02*
X22593440D01*
G01X10310000Y1990000D02*
X22593440D01*
G01X10310000Y2625000D02*
X22593440D01*
G01X10310000Y3260000D02*
X22593440D01*
G01X10310000Y3895000D02*
X22593440D01*
G01X10310000Y4530000D02*
X22593440D01*
G01X10310000Y5165000D02*
X22593440D01*
G01X10310000Y5800000D02*
X22593440D01*
G01X10310000Y6435000D02*
X22593440D01*
G01X10310000Y7070000D02*
X22593440D01*
G01X12593460Y6435000D02*
Y85000D01*
G01X17396600Y6435000D02*
Y85000D01*
G01X20624940Y6435000D02*
Y85000D01*
M02*
