G04 ================== begin FILE IDENTIFICATION RECORD ==================*
G04 Layout Name:  H:/GitHub/MBEDBoard/88E6071_TEST_V10B/PCB/88E6071_TEST_V10B.brd*
G04 Film Name:    SilkScreen_Top*
G04 File Format:  Gerber RS274X*
G04 File Origin:  Cadence Allegro 16.6-2015-S088*
G04 Origin Date:  Tue Aug 15 16:33:53 2017*
G04 *
G04 Layer:  REF DES/SILKSCREEN_TOP*
G04 Layer:  BOARD GEOMETRY/OUTLINE*
G04 Layer:  PACKAGE GEOMETRY/SILKSCREEN_TOP*
G04 Layer:  BOARD GEOMETRY/SILKSCREEN_TOP*
G04 *
G04 Offset:    (0.0000 0.0000)*
G04 Mirror:    No*
G04 Mode:      Positive*
G04 Rotation:  0*
G04 FullContactRelief:  No*
G04 UndefLineWidth:     0.1524*
G04 ================== end FILE IDENTIFICATION RECORD ====================*
%FSLAX55Y55*MOMM*%
%IR0*IPPOS*OFA0.00000B0.00000*MIA0B0*SFA1.00000B1.00000*%
%ADD10C,.2*%
%ADD11C,.2032*%
%ADD12C,.127*%
%ADD13C,.254*%
%ADD14C,.1524*%
%ADD15C,.1778*%
%ADD16C,.1999*%
G75*
%LPD*%
G75*
G36*
G01X7300000Y6090000D02*
G03I-40000J0D01*
G37*
G36*
G01X7850000Y5260000D02*
X7750000D01*
Y5150000D01*
X7850000D01*
Y5260000D01*
G37*
G36*
G01Y5520000D02*
X7750000D01*
Y5410000D01*
X7850000D01*
Y5520000D01*
G37*
G36*
G01Y5770000D02*
X7750000D01*
Y5660000D01*
X7850000D01*
Y5770000D01*
G37*
G36*
G01Y6030000D02*
X7750000D01*
Y5910000D01*
X7850000D01*
Y6030000D01*
G37*
G54D10*
G01X7530000Y4480000D02*
Y4400000D01*
G01X8150000D02*
Y4480000D01*
G01X7530000Y4700000D02*
Y4780000D01*
G01X8150000D02*
Y4700000D01*
G54D11*
G01X1167800Y4508900D02*
X812200D01*
Y4331100D01*
X1167800D01*
Y4508900D01*
G01Y4708900D02*
X812200D01*
Y4531100D01*
X1167800D01*
Y4708900D01*
G01Y4908900D02*
X812200D01*
Y4731100D01*
X1167800D01*
Y4908900D01*
G01Y5108900D02*
X812200D01*
Y4931100D01*
X1167800D01*
Y5108900D01*
G01Y5308900D02*
X812200D01*
Y5131100D01*
X1167800D01*
Y5308900D01*
G01Y5508900D02*
X812200D01*
Y5331100D01*
X1167800D01*
Y5508900D01*
G01X812200Y5651100D02*
X1167800D01*
Y5828900D01*
X812200D01*
Y5651100D01*
G01X752040Y6048720D02*
G02Y6211280I106888J81280D01*
G01X754580Y6048720D02*
X1125420D01*
G01Y6211280D02*
X754580D01*
G01X1125420Y6048720D02*
G03Y6211280I-106888J81280D01*
G01X1296500Y2569700D02*
Y2290300D01*
G01X1423500Y2287760D02*
G02X1296500I-63500J73330D01*
G01X1423500Y2569700D02*
G03X1296500I-63500J-71651D01*
G01X1242200Y4331100D02*
X1597800D01*
Y4508900D01*
X1242200D01*
Y4331100D01*
G01Y4531100D02*
X1597800D01*
Y4708900D01*
X1242200D01*
Y4531100D01*
G01Y4731100D02*
X1597800D01*
Y4908900D01*
X1242200D01*
Y4731100D01*
G01Y4931100D02*
X1597800D01*
Y5108900D01*
X1242200D01*
Y4931100D01*
G01Y5131100D02*
X1597800D01*
Y5308900D01*
X1242200D01*
Y5131100D01*
G01Y5331100D02*
X1597800D01*
Y5508900D01*
X1242200D01*
Y5331100D01*
G01X1549700Y5676500D02*
X1270300D01*
Y5803500D01*
X1549700D01*
G01X1423500Y2290300D02*
Y2569700D01*
G01X1446500D02*
Y2290300D01*
G01X1573500Y2287760D02*
G02X1446500I-63500J73330D01*
G01X1573500Y2569700D02*
G03X1446500I-63500J-71651D01*
G01X1573500Y2290300D02*
Y2569700D01*
G01X1549700Y5803500D02*
Y5676500D01*
G01X1912040Y6248720D02*
G02Y6411280I106888J81280D01*
G01X1914580Y6248720D02*
X2285420D01*
G01Y6411280D02*
X1914580D01*
G01X2285420Y6248720D02*
G03Y6411280I-106888J81280D01*
G01X2946500Y2569700D02*
Y2290300D01*
G01X3073500Y2287760D02*
G02X2946500I-63500J73330D01*
G01X3073500Y2569700D02*
G03X2946500I-63500J-71651D01*
G01X3329700Y3166500D02*
X3050300D01*
Y3293500D01*
X3329700D01*
G01Y3396500D02*
X3050300D01*
Y3523500D01*
X3329700D01*
G01Y3546500D02*
X3050300D01*
Y3673500D01*
X3329700D01*
G01Y3766500D02*
X3050300D01*
Y3893500D01*
X3329700D01*
G01Y3916500D02*
X3050300D01*
Y4043500D01*
X3329700D01*
G01Y4126500D02*
X3050300D01*
Y4253500D01*
X3329700D01*
G01Y4276500D02*
X3050300D01*
Y4403500D01*
X3329700D01*
G01Y4496500D02*
X3050300D01*
Y4623500D01*
X3329700D01*
G01Y4676500D02*
X3050300D01*
Y4803500D01*
X3329700D01*
G01X3050300Y4886500D02*
X3329700D01*
G01X3047760D02*
G02Y5013500I73330J63500D01*
G01X3329700D02*
X3050300D01*
G01Y5156500D02*
X3329700D01*
G01X3047760D02*
G02Y5283500I73330J63500D01*
G01X3329700D02*
X3050300D01*
G01Y5316500D02*
Y5443500D01*
G01D02*
X3329700D01*
Y5316500D01*
X3050300D01*
G01Y5596500D02*
Y5723500D01*
G01D02*
X3329700D01*
Y5596500D01*
X3050300D01*
G01Y5746500D02*
Y5873500D01*
G01D02*
X3329700D01*
Y5746500D01*
X3050300D01*
G01Y5936500D02*
Y6063500D01*
G01D02*
X3329700D01*
Y5936500D01*
X3050300D01*
G01Y6086500D02*
Y6213500D01*
G01D02*
X3329700D01*
Y6086500D01*
X3050300D01*
G01Y6236500D02*
Y6363500D01*
G01D02*
X3329700D01*
Y6236500D01*
X3050300D01*
G01X3073500Y2290300D02*
Y2569700D01*
G01X3223500Y2290300D02*
Y2569700D01*
G01X3096500D02*
Y2290300D01*
G01X3223500Y2287760D02*
G02X3096500I-63500J73330D01*
G01X3223500Y2569700D02*
G03X3096500I-63500J-71651D01*
G01X3329700Y3293500D02*
Y3166500D01*
G01Y3523500D02*
Y3396500D01*
G01Y3673500D02*
Y3546500D01*
G01Y3893500D02*
Y3766500D01*
G01Y4043500D02*
Y3916500D01*
G01Y4253500D02*
Y4126500D01*
G01Y4403500D02*
Y4276500D01*
G01Y4623500D02*
Y4496500D01*
G01Y4803500D02*
Y4676500D01*
G01Y4886500D02*
G03Y5013500I-71651J63500D01*
G01Y5156500D02*
G03Y5283500I-71651J63500D01*
G01X3931280Y6492040D02*
G02X3768720I-81280J106888D01*
G01Y6865420D02*
Y6494580D01*
G01X3931280Y6865420D02*
G03X3768720I-81280J-106888D01*
G01X3931280Y6494580D02*
Y6865420D01*
G01X4463500Y6729700D02*
Y6450300D01*
X4336500D01*
Y6729700D01*
G01D02*
X4463500D01*
G01X4573500Y3249700D02*
Y2970300D01*
X4446500D01*
Y3249700D01*
G01D02*
X4573500D01*
G01X4613500Y6729700D02*
Y6450300D01*
X4486500D01*
Y6729700D01*
G01D02*
X4613500D01*
G01X4626500Y2559700D02*
Y2280300D01*
G01X4753500Y2277760D02*
G02X4626500I-63500J73330D01*
G01X4753500Y2559700D02*
G03X4626500I-63500J-71651D01*
G01X4783500Y3249700D02*
Y2970300D01*
X4656500D01*
Y3249700D01*
G01D02*
X4783500D01*
G01X4763500Y6729700D02*
Y6450300D01*
X4636500D01*
Y6729700D01*
G01D02*
X4763500D01*
G01X4913500Y2280300D02*
Y2559700D01*
G01X4786500D02*
Y2280300D01*
G01X4913500Y2277760D02*
G02X4786500I-63500J73330D01*
G01X4753500Y2280300D02*
Y2559700D01*
G01X4913500D02*
G03X4786500I-63500J-71651D01*
G01X4953500Y3249700D02*
Y2970300D01*
X4826500D01*
Y3249700D01*
G01D02*
X4953500D01*
G01X4913500Y6729700D02*
Y6450300D01*
X4786500D01*
Y6729700D01*
G01D02*
X4913500D01*
G01X5153500Y3249700D02*
Y2970300D01*
X5026500D01*
Y3249700D01*
G01D02*
X5153500D01*
G01X5213500Y6729700D02*
Y6450300D01*
X5086500D01*
Y6729700D01*
G01X5063500D02*
Y6450300D01*
X4936500D01*
Y6729700D01*
G01X5086500D02*
X5213500D01*
G01X4936500D02*
X5063500D01*
G01X5363500Y3249700D02*
Y2970300D01*
X5236500D01*
Y3249700D01*
G01D02*
X5363500D01*
G01Y6729700D02*
Y6450300D01*
X5236500D01*
Y6729700D01*
G01D02*
X5363500D01*
G01X5513500D02*
Y6450300D01*
X5386500D01*
Y6729700D01*
G01D02*
X5513500D01*
G01X5583500Y3249700D02*
Y2970300D01*
X5456500D01*
Y3249700D01*
G01D02*
X5583500D01*
G01X5733500D02*
Y2970300D01*
X5606500D01*
Y3249700D01*
G01D02*
X5733500D01*
G01X5953500D02*
Y2970300D01*
X5826500D01*
Y3249700D01*
G01D02*
X5953500D01*
G01X6426500Y2559700D02*
Y2280300D01*
G01X6553500Y2277760D02*
G02X6426500I-63500J73330D01*
G01X6403500Y2280300D02*
Y2559700D01*
G01X6276500D02*
Y2280300D01*
G01X6403500Y2277760D02*
G02X6276500I-63500J73330D01*
G01X6553500Y2559700D02*
G03X6426500I-63500J-71651D01*
G01X6403500D02*
G03X6276500I-63500J-71651D01*
G01X6553500Y2280300D02*
Y2559700D01*
G01X6540300Y3356500D02*
Y3483500D01*
G01D02*
X6819700D01*
Y3356500D01*
X6540300D01*
G01Y3576500D02*
Y3703500D01*
G01D02*
X6819700D01*
Y3576500D01*
X6540300D01*
G01Y3726500D02*
Y3853500D01*
G01D02*
X6819700D01*
Y3726500D01*
X6540300D01*
G01Y3946500D02*
Y4073500D01*
G01D02*
X6819700D01*
Y3946500D01*
X6540300D01*
G01X6610300Y4536500D02*
X6889700D01*
G01X6607760D02*
G02Y4663500I73330J63500D01*
G01X6889700D02*
X6610300D01*
G01X6562200Y4721100D02*
X6917800D01*
Y4898900D01*
X6562200D01*
Y4721100D01*
G01X6889700Y5146500D02*
X6610300D01*
Y5273500D01*
X6889700D01*
G01Y5396500D02*
X6610300D01*
Y5523500D01*
X6889700D01*
G01Y5666500D02*
X6610300D01*
Y5793500D01*
X6889700D01*
G01Y5906500D02*
X6610300D01*
Y6033500D01*
X6889700D01*
G01Y4536500D02*
G03Y4663500I-71651J63500D01*
G01X6940300Y4536500D02*
Y4663500D01*
G01D02*
X7219700D01*
Y4536500D01*
X6940300D01*
G01X7219700Y4746500D02*
X6940300D01*
Y4873500D01*
X7219700D01*
G01Y4926500D02*
X6940300D01*
Y5053500D01*
X7219700D01*
G01X6889700Y5273500D02*
Y5146500D01*
G01Y5523500D02*
Y5396500D01*
G01Y5793500D02*
Y5666500D01*
G01Y6033500D02*
Y5906500D01*
G01X7219700Y4873500D02*
Y4746500D01*
G01Y5053500D02*
Y4926500D01*
G01X7490000Y5188320D02*
X7568740D01*
X7512310Y5224340D01*
Y5175660D01*
G01X7505750Y5481420D02*
X7496560Y5475580D01*
X7491310Y5467790D01*
X7490000Y5459030D01*
X7491310Y5451240D01*
X7497870Y5443450D01*
X7505750Y5438580D01*
X7513620Y5437610D01*
X7522810Y5439550D01*
X7529370Y5446370D01*
X7532000Y5453180D01*
Y5461950D01*
G01Y5453180D02*
X7535930Y5447340D01*
X7542490Y5442470D01*
X7550370Y5440530D01*
X7558240Y5442470D01*
X7564800Y5447340D01*
X7568740Y5456110D01*
X7567430Y5464870D01*
X7562180Y5473630D01*
G01X7555620Y5728500D02*
X7563490Y5722660D01*
X7567430Y5715840D01*
X7568740Y5708050D01*
X7566120Y5698320D01*
X7559550Y5691500D01*
X7551680Y5689550D01*
X7543800Y5690530D01*
X7537240Y5694420D01*
X7524120Y5713890D01*
X7514930Y5722660D01*
X7501810Y5728500D01*
X7490000Y5730450D01*
Y5689550D01*
G01Y5960000D02*
X7568740D01*
X7552990Y5971680D01*
G01X7490000D02*
Y5948320D01*
G01X7936500Y2559700D02*
Y2280300D01*
G01X8063500Y2277760D02*
G02X7936500I-63500J73330D01*
G01X8063500Y2559700D02*
G03X7936500I-63500J-71651D01*
G01X7940000Y6009370D02*
X7941310Y6017160D01*
X7946560Y6023970D01*
X7954430Y6029820D01*
X7963620Y6033710D01*
X7974120Y6035660D01*
X7984620D01*
X7995120Y6033710D01*
X8004310Y6029820D01*
X8012180Y6023970D01*
X8017430Y6017160D01*
X8018740Y6009370D01*
X8017430Y6001580D01*
X8012180Y5994770D01*
X8004310Y5988920D01*
X7995120Y5985030D01*
X7984620Y5983080D01*
X7974120D01*
X7963620Y5985030D01*
X7954430Y5988920D01*
X7946560Y5994770D01*
X7941310Y6001580D01*
X7940000Y6009370D01*
G01Y5953020D02*
X8018740D01*
X7940000Y5908240D01*
X8018740D01*
G01X8086500Y2559700D02*
Y2280300D01*
G01X8213500Y2277760D02*
G02X8086500I-63500J73330D01*
G01X8063500Y2280300D02*
Y2559700D01*
G01X8213500D02*
G03X8086500I-63500J-71651D01*
G01X8213500Y2280300D02*
Y2559700D01*
G54D12*
G01X110800Y3553500D02*
X301300D01*
G01X110800Y3540800D02*
X301300D01*
G01X110800Y3528100D02*
X301300D01*
G01X98100Y3515400D02*
X326700D01*
G01X85400Y3502700D02*
X339400D01*
G01X98100Y3490000D02*
X148900D01*
G01X174300D02*
X187000D01*
G01X110800Y3731300D02*
X161600D01*
G01X110800Y3718600D02*
X148900D01*
G01X110800Y3705900D02*
X148900D01*
G01X110800Y3693200D02*
X136200D01*
G01X110800Y3680500D02*
X136200D01*
G01X161600D02*
X174300D01*
G01X110800Y3667800D02*
X123500D01*
G01X110800Y3655100D02*
X123500D01*
G01X110800Y3642400D02*
X123500D01*
G01X110800Y3629700D02*
X123500D01*
G01X161600D02*
X174300D01*
G01X110800Y3617000D02*
X123500D01*
G01X110800Y3604300D02*
X136200D01*
G01X110800Y3591600D02*
X301300D01*
G01X110800Y3578900D02*
X301300D01*
G01X110800Y3566200D02*
X301300D01*
G01X161600Y3896400D02*
X174300D01*
G01X148900Y3883700D02*
X161600D01*
G01X123500Y3871000D02*
X136200D01*
G01X110800Y3858300D02*
X123500D01*
G01X174300D02*
X275900D01*
G01X98100Y3845600D02*
X110800D01*
G01X161600D02*
X263200D01*
G01X85400Y3832900D02*
X98100D01*
G01X136200D02*
X250500D01*
G01X60000Y3820200D02*
X85400D01*
G01X123500D02*
X237800D01*
G01X110800Y3807500D02*
X225100D01*
G01X110800Y3794800D02*
X212400D01*
G01X123500Y3782100D02*
X199700D01*
G01X110800Y3769400D02*
X187000D01*
G01X110800Y3756700D02*
X174300D01*
G01X110800Y3744000D02*
X174300D01*
G01X110800Y4061500D02*
X301300D01*
G01X110800Y4048800D02*
X301300D01*
G01X110800Y4036100D02*
X301300D01*
G01X110800Y4023400D02*
X301300D01*
G01X110800Y4010700D02*
X301300D01*
G01X110800Y3998000D02*
X301300D01*
G01X110800Y3985300D02*
X301300D01*
G01X110800Y3972600D02*
X250500D01*
G01X110800Y3959900D02*
X212400D01*
G01X123500Y3947200D02*
X187000D01*
G01X110800Y3934500D02*
X161600D01*
G01X110800Y3921800D02*
X136200D01*
G01X110800Y3909100D02*
X123500D01*
G01X98100Y4175800D02*
X326700D01*
G01X85400Y4163100D02*
X326700D01*
G01X110800Y4150400D02*
X301300D01*
G01X110800Y4137700D02*
X301300D01*
G01X110800Y4125000D02*
X301300D01*
G01X123500Y4112300D02*
X301300D01*
G01X110800Y4099600D02*
X301300D01*
G01X110800Y4086900D02*
X301300D01*
G01X110800Y4074200D02*
X301300D01*
G01X142640Y4575160D02*
X173120D01*
G01X137560Y4570080D02*
X173120D01*
G01X127400Y4565000D02*
X188360D01*
G01X142640Y4610720D02*
X173120D01*
G01X142640Y4605640D02*
X173120D01*
G01X142640Y4600560D02*
X173120D01*
G01X142640Y4595480D02*
X173120D01*
G01X142640Y4590400D02*
X173120D01*
G01X142640Y4585320D02*
X173120D01*
G01X142640Y4580240D02*
X173120D01*
G01X127400Y4686920D02*
X203600D01*
G01X137560Y4681840D02*
X218840D01*
G01X142640Y4676760D02*
X173120D01*
G01X142640Y4671680D02*
X173120D01*
G01X142640Y4666600D02*
X173120D01*
G01X142640Y4661520D02*
X173120D01*
G01X142640Y4656440D02*
X173120D01*
G01X142640Y4651360D02*
X173120D01*
G01X142640Y4646280D02*
X173120D01*
G01X142640Y4641200D02*
X173120D01*
G01X142640Y4636120D02*
X173120D01*
G01X142640Y4631040D02*
X173120D01*
G01X142640Y4625960D02*
X213760D01*
G01X142640Y4620880D02*
X203600D01*
G01X142640Y4615800D02*
X173120D01*
G01X127400Y4765040D02*
X188360D01*
G01X137560Y4770120D02*
X173120D01*
G01X142640Y4775200D02*
X173120D01*
G01X142640Y4780280D02*
X173120D01*
G01X142640Y4836160D02*
X173120D01*
G01X142640Y4841240D02*
X173120D01*
G01X142640Y4846320D02*
X173120D01*
G01X142640Y4851400D02*
X173120D01*
G01X142640Y4856480D02*
X173120D01*
G01X142640Y4861560D02*
X173120D01*
G01X142640Y4866640D02*
X173120D01*
G01X142640Y4871720D02*
X173120D01*
G01X142640Y4876800D02*
X173120D01*
G01X137560Y4881880D02*
X218840D01*
G01X127400Y4886960D02*
X203600D01*
G01X142640Y4785360D02*
X173120D01*
G01X142640Y4790440D02*
X173120D01*
G01X142640Y4795520D02*
X173120D01*
G01X142640Y4800600D02*
X173120D01*
G01X142640Y4805680D02*
X173120D01*
G01X142640Y4810760D02*
X173120D01*
G01X142640Y4815840D02*
X173120D01*
G01X142640Y4820920D02*
X203600D01*
G01X142640Y4826000D02*
X213760D01*
G01X142640Y4831080D02*
X173120D01*
G01X127400Y4970000D02*
X188360D01*
G01X137560Y4975080D02*
X173120D01*
G01X142640Y4980160D02*
X173120D01*
G01X142640Y4985240D02*
X173120D01*
G01X142640Y4990320D02*
X173120D01*
G01X142640Y4995400D02*
X173120D01*
G01X142640Y5000480D02*
X173120D01*
G01X142640Y5005560D02*
X173120D01*
G01X142640Y5061440D02*
X173120D01*
G01X142640Y5066520D02*
X173120D01*
G01X142640Y5071600D02*
X173120D01*
G01X142640Y5076680D02*
X173120D01*
G01X142640Y5081760D02*
X173120D01*
G01X142640Y5010640D02*
X173120D01*
G01X142640Y5015720D02*
X173120D01*
G01X142640Y5020800D02*
X173120D01*
G01X142640Y5025880D02*
X203600D01*
G01X142640Y5030960D02*
X213760D01*
G01X142640Y5036040D02*
X173120D01*
G01X142640Y5041120D02*
X173120D01*
G01X142640Y5046200D02*
X173120D01*
G01X142640Y5051280D02*
X173120D01*
G01X142640Y5056360D02*
X173120D01*
G01X137560Y5086840D02*
X218840D01*
G01X127400Y5091920D02*
X203600D01*
G01X127400Y5170040D02*
X188360D01*
G01X137560Y5175120D02*
X173120D01*
G01X142640Y5180200D02*
X173120D01*
G01X142640Y5185280D02*
X173120D01*
G01X142640Y5190360D02*
X173120D01*
G01X142640Y5195440D02*
X173120D01*
G01X142640Y5200520D02*
X173120D01*
G01X142640Y5205600D02*
X173120D01*
G01X142640Y5210680D02*
X173120D01*
G01X142640Y5215760D02*
X173120D01*
G01X142640Y5220840D02*
X173120D01*
G01X142640Y5225920D02*
X203600D01*
G01X142640Y5231000D02*
X213760D01*
G01X142640Y5236080D02*
X173120D01*
G01X142640Y5241160D02*
X173120D01*
G01X142640Y5246240D02*
X173120D01*
G01X142640Y5251320D02*
X173120D01*
G01X142640Y5281800D02*
X173120D01*
G01X137560Y5286880D02*
X218840D01*
G01X127400Y5291960D02*
X203600D01*
G01X142640Y5256400D02*
X173120D01*
G01X142640Y5261480D02*
X173120D01*
G01X142640Y5266560D02*
X173120D01*
G01X142640Y5271640D02*
X173120D01*
G01X142640Y5276720D02*
X173120D01*
G01X127400Y5355000D02*
X188360D01*
G01X137560Y5360080D02*
X173120D01*
G01X142640Y5365160D02*
X173120D01*
G01X142640Y5370240D02*
X173120D01*
G01X142640Y5375320D02*
X173120D01*
G01X142640Y5380400D02*
X173120D01*
G01X142640Y5385480D02*
X173120D01*
G01X142640Y5390560D02*
X173120D01*
G01X142640Y5395640D02*
X173120D01*
G01X142640Y5400720D02*
X173120D01*
G01X142640Y5405800D02*
X173120D01*
G01X142640Y5410880D02*
X203600D01*
G01X142640Y5415960D02*
X213760D01*
G01X142640Y5421040D02*
X173120D01*
G01X142640Y5426120D02*
X173120D01*
G01X142640Y5431200D02*
X173120D01*
G01X142640Y5436280D02*
X173120D01*
G01X142640Y5441360D02*
X173120D01*
G01X142640Y5446440D02*
X173120D01*
G01X142640Y5451520D02*
X173120D01*
G01X142640Y5456600D02*
X173120D01*
G01X142640Y5461680D02*
X173120D01*
G01X142640Y5466760D02*
X173120D01*
G01X137560Y5471840D02*
X218840D01*
G01X127400Y5476920D02*
X203600D01*
G01X212400Y3490000D02*
X263200D01*
G01X314000D02*
X326700D01*
G01X237800Y3731300D02*
X263200D01*
G01X301300D02*
X314000D01*
G01X187000Y3718600D02*
X199700D01*
G01X225100D02*
X250500D01*
G01X288600D02*
X301300D01*
G01X225100Y3705900D02*
X237800D01*
G01X275900D02*
X288600D01*
G01X263200Y3693200D02*
X275900D01*
G01X250500Y3680500D02*
X263200D01*
G01X288600Y3667800D02*
X301300D01*
G01X212400Y3655100D02*
X225100D01*
G01X275900D02*
X301300D01*
G01X199700Y3642400D02*
X212400D01*
G01X263200D02*
X301300D01*
G01X250500Y3629700D02*
X301300D01*
G01X225100Y3617000D02*
X301300D01*
G01X199700Y3604300D02*
X301300D01*
G01X225100Y3896400D02*
X301300D01*
G01X212400Y3883700D02*
X301300D01*
G01X187000Y3871000D02*
X288600D01*
G01X339400D02*
X364800D01*
G01X326700Y3858300D02*
X339400D01*
G01X301300Y3845600D02*
X314000D01*
G01X288600Y3832900D02*
X301300D01*
G01X275900Y3820200D02*
X288600D01*
G01X263200Y3807500D02*
X275900D01*
G01X250500Y3794800D02*
X263200D01*
G01X237800Y3782100D02*
X250500D01*
G01X288600D02*
X301300D01*
G01X339400D02*
X352100D01*
G01X225100Y3769400D02*
X237800D01*
G01X275900D02*
X301300D01*
G01X326700D02*
X339400D01*
G01X212400Y3756700D02*
X225100D01*
G01X263200D02*
X288600D01*
G01X199700Y3744000D02*
X212400D01*
G01X250500D02*
X275900D01*
G01X314000D02*
X326700D01*
G01X314000Y3947200D02*
X339400D01*
G01X225100Y3934500D02*
X237800D01*
G01X199700Y3921800D02*
X212400D01*
G01X263200Y3909100D02*
X301300D01*
G01X269640Y4575160D02*
X300120D01*
G01X325520D02*
X350920D01*
G01X279800Y4570080D02*
X345840D01*
G01X289960Y4565000D02*
X330600D01*
G01X188360Y4676760D02*
X223920D01*
G01X193440Y4671680D02*
X229000D01*
G01X198520Y4666600D02*
X229000D01*
G01X198520Y4661520D02*
X229000D01*
G01X198520Y4656440D02*
X229000D01*
G01X198520Y4651360D02*
X229000D01*
G01X198520Y4646280D02*
X229000D01*
G01X198520Y4641200D02*
X229000D01*
G01X193440Y4636120D02*
X229000D01*
G01X188360Y4631040D02*
X223920D01*
G01X340760Y4605640D02*
X376320D01*
G01X340760Y4600560D02*
X371240D01*
G01X254400Y4595480D02*
X284880D01*
G01X340760D02*
X371240D01*
G01X254400Y4590400D02*
X284880D01*
G01X340760D02*
X366160D01*
G01X259480Y4585320D02*
X284880D01*
G01X335680D02*
X361080D01*
G01X264560Y4580240D02*
X289960D01*
G01X330600D02*
X361080D01*
G01X249320Y4610720D02*
X279800D01*
G01X249320Y4605640D02*
X279800D01*
G01X249320Y4600560D02*
X279800D01*
G01X289960Y4686920D02*
X335680D01*
G01X279800Y4681840D02*
X345840D01*
G01X269640Y4676760D02*
X300120D01*
G01X325520D02*
X356000D01*
G01X264560Y4671680D02*
X289960D01*
G01X330600D02*
X361080D01*
G01X259480Y4666600D02*
X289960D01*
G01X335680D02*
X366160D01*
G01X254400Y4661520D02*
X284880D01*
G01X340760D02*
X366160D01*
G01X254400Y4656440D02*
X284880D01*
G01X340760D02*
X371240D01*
G01X340760Y4651360D02*
X371240D01*
G01X249320D02*
X279800D01*
G01X249320Y4646280D02*
X279800D01*
G01X249320Y4641200D02*
X279800D01*
G01X244240Y4636120D02*
X279800D01*
G01X244240Y4631040D02*
X279800D01*
G01X244240Y4625960D02*
X279800D01*
G01X244240Y4620880D02*
X279800D01*
G01X244240Y4615800D02*
X279800D01*
G01X193440Y4836160D02*
X229000D01*
G01X198520Y4841240D02*
X229000D01*
G01X198520Y4846320D02*
X229000D01*
G01X198520Y4851400D02*
X229000D01*
G01X198520Y4856480D02*
X229000D01*
G01X198520Y4861560D02*
X229000D01*
G01X198520Y4866640D02*
X229000D01*
G01X193440Y4871720D02*
X229000D01*
G01X188360Y4876800D02*
X223920D01*
G01X188360Y4831080D02*
X223920D01*
G01X289960Y4765040D02*
X330600D01*
G01X279800Y4770120D02*
X345840D01*
G01X325520Y4775200D02*
X350920D01*
G01X269640D02*
X300120D01*
G01X330600Y4780280D02*
X361080D01*
G01X264560D02*
X289960D01*
G01X340760Y4851400D02*
X371240D01*
G01X340760Y4856480D02*
X371240D01*
G01X254400D02*
X284880D01*
G01X340760Y4861560D02*
X366160D01*
G01X254400D02*
X284880D01*
G01X335680Y4866640D02*
X366160D01*
G01X259480D02*
X289960D01*
G01X330600Y4871720D02*
X361080D01*
G01X264560D02*
X289960D01*
G01X325520Y4876800D02*
X356000D01*
G01X269640D02*
X300120D01*
G01X279800Y4881880D02*
X345840D01*
G01X289960Y4886960D02*
X335680D01*
G01Y4785360D02*
X361080D01*
G01X259480D02*
X284880D01*
G01X340760Y4790440D02*
X366160D01*
G01X254400D02*
X284880D01*
G01X340760Y4795520D02*
X371240D01*
G01X254400D02*
X284880D01*
G01X340760Y4800600D02*
X371240D01*
G01X340760Y4805680D02*
X376320D01*
G01X244240Y4836160D02*
X279800D01*
G01X249320Y4841240D02*
X279800D01*
G01X249320Y4846320D02*
X279800D01*
G01X249320Y4851400D02*
X279800D01*
G01X249320Y4800600D02*
X279800D01*
G01X249320Y4805680D02*
X279800D01*
G01X249320Y4810760D02*
X279800D01*
G01X244240Y4815840D02*
X279800D01*
G01X244240Y4820920D02*
X279800D01*
G01X244240Y4826000D02*
X279800D01*
G01X244240Y4831080D02*
X279800D01*
G01X198520Y5061440D02*
X229000D01*
G01X198520Y5066520D02*
X229000D01*
G01X198520Y5071600D02*
X229000D01*
G01X193440Y5076680D02*
X229000D01*
G01X188360Y5081760D02*
X223920D01*
G01X188360Y5036040D02*
X223920D01*
G01X193440Y5041120D02*
X229000D01*
G01X198520Y5046200D02*
X229000D01*
G01X198520Y5051280D02*
X229000D01*
G01X198520Y5056360D02*
X229000D01*
G01X289960Y4970000D02*
X330600D01*
G01X279800Y4975080D02*
X345840D01*
G01X325520Y4980160D02*
X350920D01*
G01X269640D02*
X300120D01*
G01X330600Y4985240D02*
X361080D01*
G01X264560D02*
X289960D01*
G01X335680Y4990320D02*
X361080D01*
G01X259480D02*
X284880D01*
G01X340760Y4995400D02*
X366160D01*
G01X254400D02*
X284880D01*
G01X340760Y5000480D02*
X371240D01*
G01X254400D02*
X284880D01*
G01X340760Y5005560D02*
X371240D01*
G01X249320D02*
X279800D01*
G01X340760Y5061440D02*
X371240D01*
G01X254400D02*
X284880D01*
G01X340760Y5066520D02*
X366160D01*
G01X254400D02*
X284880D01*
G01X335680Y5071600D02*
X366160D01*
G01X259480D02*
X289960D01*
G01X330600Y5076680D02*
X361080D01*
G01X264560D02*
X289960D01*
G01X325520Y5081760D02*
X356000D01*
G01X269640D02*
X300120D01*
G01X340760Y5010640D02*
X376320D01*
G01X340760Y5056360D02*
X371240D01*
G01X249320Y5010640D02*
X279800D01*
G01X249320Y5015720D02*
X279800D01*
G01X244240Y5020800D02*
X279800D01*
G01X244240Y5025880D02*
X279800D01*
G01X244240Y5030960D02*
X279800D01*
G01X244240Y5036040D02*
X279800D01*
G01X244240Y5041120D02*
X279800D01*
G01X249320Y5046200D02*
X279800D01*
G01X249320Y5051280D02*
X279800D01*
G01X249320Y5056360D02*
X279800D01*
G01X188360Y5236080D02*
X223920D01*
G01X193440Y5241160D02*
X229000D01*
G01X198520Y5246240D02*
X229000D01*
G01X198520Y5251320D02*
X229000D01*
G01X279800Y5086840D02*
X345840D01*
G01X289960Y5091920D02*
X335680D01*
G01X289960Y5170040D02*
X330600D01*
G01X279800Y5175120D02*
X345840D01*
G01X325520Y5180200D02*
X350920D01*
G01X269640D02*
X300120D01*
G01X330600Y5185280D02*
X361080D01*
G01X264560D02*
X289960D01*
G01X335680Y5190360D02*
X361080D01*
G01X259480D02*
X284880D01*
G01X340760Y5195440D02*
X366160D01*
G01X254400D02*
X284880D01*
G01X340760Y5200520D02*
X371240D01*
G01X254400D02*
X284880D01*
G01X340760Y5205600D02*
X371240D01*
G01X340760Y5210680D02*
X376320D01*
G01X249320Y5205600D02*
X279800D01*
G01X249320Y5210680D02*
X279800D01*
G01X249320Y5215760D02*
X279800D01*
G01X244240Y5220840D02*
X279800D01*
G01X244240Y5225920D02*
X279800D01*
G01X244240Y5231000D02*
X279800D01*
G01X244240Y5236080D02*
X279800D01*
G01X244240Y5241160D02*
X279800D01*
G01X249320Y5246240D02*
X279800D01*
G01X249320Y5251320D02*
X279800D01*
G01X188360Y5281800D02*
X223920D01*
G01X198520Y5256400D02*
X229000D01*
G01X198520Y5261480D02*
X229000D01*
G01X198520Y5266560D02*
X229000D01*
G01X198520Y5271640D02*
X229000D01*
G01X193440Y5276720D02*
X229000D01*
G01X188360Y5421040D02*
X223920D01*
G01X325520Y5281800D02*
X356000D01*
G01X269640D02*
X300120D01*
G01X279800Y5286880D02*
X345840D01*
G01X289960Y5291960D02*
X335680D01*
G01X340760Y5256400D02*
X371240D01*
G01X340760Y5261480D02*
X371240D01*
G01X254400D02*
X284880D01*
G01X340760Y5266560D02*
X366160D01*
G01X254400D02*
X284880D01*
G01X335680Y5271640D02*
X366160D01*
G01X259480D02*
X289960D01*
G01X330600Y5276720D02*
X361080D01*
G01X264560D02*
X289960D01*
G01X249320Y5256400D02*
X279800D01*
G01X289960Y5355000D02*
X330600D01*
G01X279800Y5360080D02*
X345840D01*
G01X325520Y5365160D02*
X350920D01*
G01X269640D02*
X300120D01*
G01X330600Y5370240D02*
X361080D01*
G01X264560D02*
X289960D01*
G01X335680Y5375320D02*
X361080D01*
G01X259480D02*
X284880D01*
G01X340760Y5380400D02*
X366160D01*
G01X254400D02*
X284880D01*
G01X340760Y5385480D02*
X371240D01*
G01X254400D02*
X284880D01*
G01X340760Y5390560D02*
X371240D01*
G01X340760Y5395640D02*
X376320D01*
G01X249320Y5390560D02*
X279800D01*
G01X249320Y5395640D02*
X279800D01*
G01X249320Y5400720D02*
X279800D01*
G01X244240Y5405800D02*
X279800D01*
G01X244240Y5410880D02*
X279800D01*
G01X244240Y5415960D02*
X279800D01*
G01X244240Y5421040D02*
X279800D01*
G01X193440Y5426120D02*
X229000D01*
G01X198520Y5431200D02*
X229000D01*
G01X198520Y5436280D02*
X229000D01*
G01X198520Y5441360D02*
X229000D01*
G01X198520Y5446440D02*
X229000D01*
G01X198520Y5451520D02*
X229000D01*
G01X198520Y5456600D02*
X229000D01*
G01X193440Y5461680D02*
X229000D01*
G01X188360Y5466760D02*
X223920D01*
G01X244240Y5426120D02*
X279800D01*
G01X249320Y5431200D02*
X279800D01*
G01X249320Y5436280D02*
X279800D01*
G01X340760Y5441360D02*
X371240D01*
G01X340760Y5446440D02*
X371240D01*
G01X254400D02*
X284880D01*
G01X340760Y5451520D02*
X366160D01*
G01X254400D02*
X284880D01*
G01X335680Y5456600D02*
X366160D01*
G01X259480D02*
X289960D01*
G01X330600Y5461680D02*
X361080D01*
G01X264560D02*
X289960D01*
G01X325520Y5466760D02*
X356000D01*
G01X269640D02*
X300120D01*
G01X279800Y5471840D02*
X345840D01*
G01X289960Y5476920D02*
X335680D01*
G01X249320Y5441360D02*
X279800D01*
G01X504500Y3553500D02*
X695000D01*
G01X504500Y3540800D02*
X695000D01*
G01X504500Y3528100D02*
X695000D01*
G01X491800Y3515400D02*
X707700D01*
G01X479100Y3502700D02*
X720400D01*
G01X491800Y3490000D02*
X517200D01*
G01X504500Y3731300D02*
X695000D01*
G01X504500Y3718600D02*
X695000D01*
G01X504500Y3705900D02*
X695000D01*
G01X504500Y3693200D02*
X695000D01*
G01X504500Y3680500D02*
X695000D01*
G01X504500Y3667800D02*
X695000D01*
G01X504500Y3655100D02*
X695000D01*
G01X504500Y3642400D02*
X695000D01*
G01X504500Y3629700D02*
X695000D01*
G01X504500Y3617000D02*
X695000D01*
G01X504500Y3604300D02*
X695000D01*
G01X504500Y3591600D02*
X695000D01*
G01X504500Y3578900D02*
X695000D01*
G01X504500Y3566200D02*
X695000D01*
G01X377500Y3896400D02*
X402900D01*
G01X504500D02*
X695000D01*
G01X377500Y3883700D02*
X390200D01*
G01X504500D02*
X695000D01*
G01X504500Y3871000D02*
X695000D01*
G01X504500Y3858300D02*
X695000D01*
G01X364800Y3845600D02*
X377500D01*
G01X504500D02*
X695000D01*
G01X364800Y3832900D02*
X377500D01*
G01X504500D02*
X695000D01*
G01X504500Y3820200D02*
X695000D01*
G01X352100Y3807500D02*
X364800D01*
G01X504500D02*
X695000D01*
G01X504500Y3794800D02*
X695000D01*
G01X504500Y3782100D02*
X695000D01*
G01X504500Y3769400D02*
X695000D01*
G01X504500Y3756700D02*
X695000D01*
G01X504500Y3744000D02*
X695000D01*
G01X504500Y4061500D02*
X695000D01*
G01X504500Y4048800D02*
X682300D01*
G01X504500Y4036100D02*
X631500D01*
G01X504500Y4023400D02*
X593400D01*
G01X504500Y4010700D02*
X555300D01*
G01X504500Y3998000D02*
X529900D01*
G01X491800Y3947200D02*
X504500D01*
G01X352100Y3934500D02*
X364800D01*
G01X453700D02*
X479100D01*
G01X364800Y3921800D02*
X377500D01*
G01X428300D02*
X453700D01*
G01X402900Y3909100D02*
X428300D01*
G01X504500D02*
X695000D01*
G01X479100Y4175800D02*
X720400D01*
G01X479100Y4163100D02*
X720400D01*
G01X504500Y4150400D02*
X695000D01*
G01X504500Y4137700D02*
X695000D01*
G01X504500Y4125000D02*
X695000D01*
G01X504500Y4112300D02*
X695000D01*
G01X504500Y4099600D02*
X695000D01*
G01X504500Y4086900D02*
X695000D01*
G01X504500Y4074200D02*
X695000D01*
G01X472840Y4575160D02*
X508400D01*
G01X477920Y4570080D02*
X513480D01*
G01X483000Y4565000D02*
X523640D01*
G01X406800Y4575160D02*
X437280D01*
G01X401720Y4570080D02*
X437280D01*
G01X391560Y4565000D02*
X452520D01*
G01X345840Y4610720D02*
X376320D01*
G01X345840Y4646280D02*
X376320D01*
G01X345840Y4641200D02*
X376320D01*
G01X345840Y4636120D02*
X376320D01*
G01X345840Y4631040D02*
X376320D01*
G01X345840Y4625960D02*
X376320D01*
G01X345840Y4620880D02*
X376320D01*
G01X345840Y4615800D02*
X376320D01*
G01X447440Y4610720D02*
X483000D01*
G01X452520Y4605640D02*
X488080D01*
G01X457600Y4600560D02*
X488080D01*
G01X462680Y4595480D02*
X493160D01*
G01X462680Y4590400D02*
X498240D01*
G01X467760Y4585320D02*
X503320D01*
G01X472840Y4580240D02*
X503320D01*
G01X406800Y4610720D02*
X437280D01*
G01X406800Y4605640D02*
X437280D01*
G01X406800Y4600560D02*
X437280D01*
G01X406800Y4595480D02*
X437280D01*
G01X406800Y4590400D02*
X437280D01*
G01X406800Y4585320D02*
X437280D01*
G01X406800Y4580240D02*
X437280D01*
G01X462680Y4676760D02*
X493160D01*
G01X467760Y4671680D02*
X498240D01*
G01X472840Y4666600D02*
X503320D01*
G01X472840Y4661520D02*
X503320D01*
G01X472840Y4656440D02*
X503320D01*
G01X472840Y4651360D02*
X503320D01*
G01X472840Y4646280D02*
X503320D01*
G01X472840Y4641200D02*
X498240D01*
G01X467760Y4636120D02*
X498240D01*
G01X462680Y4631040D02*
X493160D01*
G01X447440Y4615800D02*
X477920D01*
G01X391560Y4686920D02*
X477920D01*
G01X401720Y4681840D02*
X488080D01*
G01X406800Y4676760D02*
X437280D01*
G01X406800Y4671680D02*
X437280D01*
G01X406800Y4666600D02*
X437280D01*
G01X406800Y4661520D02*
X437280D01*
G01X406800Y4656440D02*
X437280D01*
G01X406800Y4651360D02*
X437280D01*
G01X406800Y4646280D02*
X437280D01*
G01X406800Y4641200D02*
X437280D01*
G01X406800Y4636120D02*
X437280D01*
G01X406800Y4631040D02*
X437280D01*
G01X406800Y4625960D02*
X483000D01*
G01X406800Y4620880D02*
X477920D01*
G01X406800Y4615800D02*
X437280D01*
G01X345840Y4836160D02*
X376320D01*
G01X345840Y4841240D02*
X376320D01*
G01X345840Y4846320D02*
X376320D01*
G01X345840Y4810760D02*
X376320D01*
G01X345840Y4815840D02*
X376320D01*
G01X345840Y4820920D02*
X376320D01*
G01X345840Y4826000D02*
X376320D01*
G01X345840Y4831080D02*
X376320D01*
G01X483000Y4765040D02*
X523640D01*
G01X477920Y4770120D02*
X513480D01*
G01X472840Y4775200D02*
X508400D01*
G01X472840Y4780280D02*
X503320D01*
G01X391560Y4765040D02*
X452520D01*
G01X401720Y4770120D02*
X437280D01*
G01X406800Y4775200D02*
X437280D01*
G01X406800Y4780280D02*
X437280D01*
G01X467760Y4836160D02*
X498240D01*
G01X472840Y4841240D02*
X498240D01*
G01X472840Y4846320D02*
X503320D01*
G01X472840Y4851400D02*
X503320D01*
G01X472840Y4856480D02*
X503320D01*
G01X472840Y4861560D02*
X503320D01*
G01X472840Y4866640D02*
X503320D01*
G01X467760Y4871720D02*
X498240D01*
G01X462680Y4876800D02*
X493160D01*
G01X467760Y4785360D02*
X503320D01*
G01X462680Y4790440D02*
X498240D01*
G01X462680Y4795520D02*
X493160D01*
G01X457600Y4800600D02*
X488080D01*
G01X452520Y4805680D02*
X488080D01*
G01X447440Y4810760D02*
X483000D01*
G01X447440Y4815840D02*
X477920D01*
G01X462680Y4831080D02*
X493160D01*
G01X406800Y4836160D02*
X437280D01*
G01X406800Y4841240D02*
X437280D01*
G01X406800Y4846320D02*
X437280D01*
G01X406800Y4851400D02*
X437280D01*
G01X406800Y4856480D02*
X437280D01*
G01X406800Y4861560D02*
X437280D01*
G01X406800Y4866640D02*
X437280D01*
G01X406800Y4871720D02*
X437280D01*
G01X406800Y4876800D02*
X437280D01*
G01X401720Y4881880D02*
X488080D01*
G01X391560Y4886960D02*
X477920D01*
G01X406800Y4785360D02*
X437280D01*
G01X406800Y4790440D02*
X437280D01*
G01X406800Y4795520D02*
X437280D01*
G01X406800Y4800600D02*
X437280D01*
G01X406800Y4805680D02*
X437280D01*
G01X406800Y4810760D02*
X437280D01*
G01X406800Y4815840D02*
X437280D01*
G01X406800Y4820920D02*
X477920D01*
G01X406800Y4826000D02*
X483000D01*
G01X406800Y4831080D02*
X437280D01*
G01X345840Y5015720D02*
X376320D01*
G01X345840Y5020800D02*
X376320D01*
G01X345840Y5025880D02*
X376320D01*
G01X345840Y5030960D02*
X376320D01*
G01X345840Y5036040D02*
X376320D01*
G01X345840Y5041120D02*
X376320D01*
G01X345840Y5046200D02*
X376320D01*
G01X345840Y5051280D02*
X376320D01*
G01X483000Y4970000D02*
X523640D01*
G01X477920Y4975080D02*
X513480D01*
G01X472840Y4980160D02*
X508400D01*
G01X472840Y4985240D02*
X503320D01*
G01X467760Y4990320D02*
X503320D01*
G01X462680Y4995400D02*
X498240D01*
G01X462680Y5000480D02*
X493160D01*
G01X457600Y5005560D02*
X488080D01*
G01X391560Y4970000D02*
X452520D01*
G01X401720Y4975080D02*
X437280D01*
G01X406800Y4980160D02*
X437280D01*
G01X406800Y4985240D02*
X437280D01*
G01X406800Y4990320D02*
X437280D01*
G01X406800Y4995400D02*
X437280D01*
G01X406800Y5000480D02*
X437280D01*
G01X406800Y5005560D02*
X437280D01*
G01X472840Y5061440D02*
X503320D01*
G01X472840Y5066520D02*
X503320D01*
G01X472840Y5071600D02*
X503320D01*
G01X467760Y5076680D02*
X498240D01*
G01X462680Y5081760D02*
X493160D01*
G01X452520Y5010640D02*
X488080D01*
G01X447440Y5015720D02*
X483000D01*
G01X447440Y5020800D02*
X477920D01*
G01X462680Y5036040D02*
X493160D01*
G01X467760Y5041120D02*
X498240D01*
G01X472840Y5046200D02*
X498240D01*
G01X472840Y5051280D02*
X503320D01*
G01X472840Y5056360D02*
X503320D01*
G01X406800Y5061440D02*
X437280D01*
G01X406800Y5066520D02*
X437280D01*
G01X406800Y5071600D02*
X437280D01*
G01X406800Y5076680D02*
X437280D01*
G01X406800Y5081760D02*
X437280D01*
G01X406800Y5010640D02*
X437280D01*
G01X406800Y5015720D02*
X437280D01*
G01X406800Y5020800D02*
X437280D01*
G01X406800Y5025880D02*
X477920D01*
G01X406800Y5030960D02*
X483000D01*
G01X406800Y5036040D02*
X437280D01*
G01X406800Y5041120D02*
X437280D01*
G01X406800Y5046200D02*
X437280D01*
G01X406800Y5051280D02*
X437280D01*
G01X406800Y5056360D02*
X437280D01*
G01X345840Y5215760D02*
X376320D01*
G01X345840Y5220840D02*
X376320D01*
G01X345840Y5225920D02*
X376320D01*
G01X345840Y5231000D02*
X376320D01*
G01X345840Y5236080D02*
X376320D01*
G01X345840Y5241160D02*
X376320D01*
G01X345840Y5246240D02*
X376320D01*
G01X345840Y5251320D02*
X376320D01*
G01X401720Y5086840D02*
X488080D01*
G01X391560Y5091920D02*
X477920D01*
G01X483000Y5170040D02*
X523640D01*
G01X477920Y5175120D02*
X513480D01*
G01X472840Y5180200D02*
X508400D01*
G01X472840Y5185280D02*
X503320D01*
G01X467760Y5190360D02*
X503320D01*
G01X462680Y5195440D02*
X498240D01*
G01X462680Y5200520D02*
X493160D01*
G01X457600Y5205600D02*
X488080D01*
G01X452520Y5210680D02*
X488080D01*
G01X447440Y5215760D02*
X483000D01*
G01X447440Y5220840D02*
X477920D01*
G01X391560Y5170040D02*
X452520D01*
G01X401720Y5175120D02*
X437280D01*
G01X406800Y5180200D02*
X437280D01*
G01X406800Y5185280D02*
X437280D01*
G01X406800Y5190360D02*
X437280D01*
G01X406800Y5195440D02*
X437280D01*
G01X406800Y5200520D02*
X437280D01*
G01X406800Y5205600D02*
X437280D01*
G01X406800Y5210680D02*
X437280D01*
G01X406800Y5215760D02*
X437280D01*
G01X406800Y5220840D02*
X437280D01*
G01X406800Y5225920D02*
X477920D01*
G01X462680Y5236080D02*
X493160D01*
G01X467760Y5241160D02*
X498240D01*
G01X472840Y5246240D02*
X498240D01*
G01X472840Y5251320D02*
X503320D01*
G01X406800Y5231000D02*
X483000D01*
G01X406800Y5236080D02*
X437280D01*
G01X406800Y5241160D02*
X437280D01*
G01X406800Y5246240D02*
X437280D01*
G01X406800Y5251320D02*
X437280D01*
G01X345840Y5400720D02*
X376320D01*
G01X345840Y5405800D02*
X376320D01*
G01X345840Y5410880D02*
X376320D01*
G01X345840Y5415960D02*
X376320D01*
G01X345840Y5421040D02*
X376320D01*
G01X462680Y5281800D02*
X493160D01*
G01X472840Y5256400D02*
X503320D01*
G01X472840Y5261480D02*
X503320D01*
G01X472840Y5266560D02*
X503320D01*
G01X472840Y5271640D02*
X503320D01*
G01X467760Y5276720D02*
X498240D01*
G01X406800Y5281800D02*
X437280D01*
G01X401720Y5286880D02*
X488080D01*
G01X391560Y5291960D02*
X477920D01*
G01X406800Y5256400D02*
X437280D01*
G01X406800Y5261480D02*
X437280D01*
G01X406800Y5266560D02*
X437280D01*
G01X406800Y5271640D02*
X437280D01*
G01X406800Y5276720D02*
X437280D01*
G01X483000Y5355000D02*
X523640D01*
G01X477920Y5360080D02*
X513480D01*
G01X472840Y5365160D02*
X508400D01*
G01X472840Y5370240D02*
X503320D01*
G01X467760Y5375320D02*
X503320D01*
G01X462680Y5380400D02*
X498240D01*
G01X462680Y5385480D02*
X493160D01*
G01X457600Y5390560D02*
X488080D01*
G01X452520Y5395640D02*
X488080D01*
G01X447440Y5400720D02*
X483000D01*
G01X447440Y5405800D02*
X477920D01*
G01X462680Y5421040D02*
X493160D01*
G01X391560Y5355000D02*
X452520D01*
G01X401720Y5360080D02*
X437280D01*
G01X406800Y5365160D02*
X437280D01*
G01X406800Y5370240D02*
X437280D01*
G01X406800Y5375320D02*
X437280D01*
G01X406800Y5380400D02*
X437280D01*
G01X406800Y5385480D02*
X437280D01*
G01X406800Y5390560D02*
X437280D01*
G01X406800Y5395640D02*
X437280D01*
G01X406800Y5400720D02*
X437280D01*
G01X406800Y5405800D02*
X437280D01*
G01X406800Y5410880D02*
X477920D01*
G01X406800Y5415960D02*
X483000D01*
G01X406800Y5421040D02*
X437280D01*
G01X345840Y5426120D02*
X376320D01*
G01X345840Y5431200D02*
X376320D01*
G01X345840Y5436280D02*
X376320D01*
G01X467760Y5426120D02*
X498240D01*
G01X472840Y5431200D02*
X498240D01*
G01X472840Y5436280D02*
X503320D01*
G01X406800Y5426120D02*
X437280D01*
G01X406800Y5431200D02*
X437280D01*
G01X406800Y5436280D02*
X437280D01*
G01X472840Y5441360D02*
X503320D01*
G01X472840Y5446440D02*
X503320D01*
G01X472840Y5451520D02*
X503320D01*
G01X472840Y5456600D02*
X503320D01*
G01X467760Y5461680D02*
X498240D01*
G01X462680Y5466760D02*
X493160D01*
G01X406800Y5441360D02*
X437280D01*
G01X406800Y5446440D02*
X437280D01*
G01X406800Y5451520D02*
X437280D01*
G01X406800Y5456600D02*
X437280D01*
G01X406800Y5461680D02*
X437280D01*
G01X406800Y5466760D02*
X437280D01*
G01X401720Y5471840D02*
X488080D01*
G01X391560Y5476920D02*
X477920D01*
G01X675240Y2205240D02*
X705720D01*
G01X675240Y2200160D02*
X705720D01*
G01X670160Y2195080D02*
X705720D01*
G01X660000Y2190000D02*
X720960D01*
G01X660000Y2311920D02*
X736200D01*
G01X670160Y2306840D02*
X751440D01*
G01X675240Y2301760D02*
X705720D01*
G01X675240Y2296680D02*
X705720D01*
G01X675240Y2291600D02*
X705720D01*
G01X675240Y2286520D02*
X705720D01*
G01X675240Y2281440D02*
X705720D01*
G01X675240Y2276360D02*
X705720D01*
G01X675240Y2271280D02*
X705720D01*
G01X675240Y2266200D02*
X705720D01*
G01X675240Y2261120D02*
X705720D01*
G01X675240Y2256040D02*
X705720D01*
G01X675240Y2250960D02*
X746360D01*
G01X675240Y2245880D02*
X736200D01*
G01X675240Y2240800D02*
X705720D01*
G01X675240Y2235720D02*
X705720D01*
G01X675240Y2230640D02*
X705720D01*
G01X675240Y2225560D02*
X705720D01*
G01X675240Y2220480D02*
X705720D01*
G01X675240Y2215400D02*
X705720D01*
G01X675240Y2210320D02*
X705720D01*
G01X542600Y3490000D02*
X568000D01*
G01X593400D02*
X656900D01*
G01X618800Y3998000D02*
X631500D01*
G01X593400Y3985300D02*
X606100D01*
G01X555300Y3972600D02*
X568000D01*
G01X656900D02*
X695000D01*
G01X618800Y3959900D02*
X695000D01*
G01X593400Y3947200D02*
X695000D01*
G01X555300Y3934500D02*
X695000D01*
G01X517200Y3921800D02*
X695000D01*
G01X549040Y4565000D02*
X610000D01*
G01X564280Y4575160D02*
X594760D01*
G01X559200Y4570080D02*
X594760D01*
G01X523640Y4686920D02*
X635400D01*
G01X523640Y4681840D02*
X635400D01*
G01X523640Y4676760D02*
X538880D01*
G01X523640Y4671680D02*
X533800D01*
G01X523640Y4666600D02*
X528720D01*
G01X523640Y4661520D02*
X528720D01*
G01X650640Y4610720D02*
X731920D01*
G01X650640Y4605640D02*
X731920D01*
G01X650640Y4600560D02*
X731920D01*
G01X650640Y4595480D02*
X731920D01*
G01X564280Y4610720D02*
X594760D01*
G01X564280Y4605640D02*
X594760D01*
G01X564280Y4600560D02*
X594760D01*
G01X564280Y4595480D02*
X594760D01*
G01X564280Y4590400D02*
X594760D01*
G01X564280Y4585320D02*
X594760D01*
G01X564280Y4580240D02*
X594760D01*
G01X620160Y4676760D02*
X635400D01*
G01X625240Y4671680D02*
X635400D01*
G01X625240Y4666600D02*
X635400D01*
G01X630320Y4661520D02*
X635400D01*
G01X630320Y4656440D02*
X635400D01*
G01X681120D02*
X716680D01*
G01X676040Y4651360D02*
X686200D01*
G01X676040Y4646280D02*
X681120D01*
G01X670960Y4641200D02*
X676040D01*
G01X665880Y4636120D02*
X676040D01*
G01X660800Y4631040D02*
X670960D01*
G01X655720Y4625960D02*
X665880D01*
G01X655720Y4620880D02*
X660800D01*
G01X650640Y4615800D02*
X660800D01*
G01X564280Y4676760D02*
X594760D01*
G01X564280Y4671680D02*
X594760D01*
G01X564280Y4666600D02*
X594760D01*
G01X564280Y4661520D02*
X594760D01*
G01X564280Y4656440D02*
X594760D01*
G01X564280Y4651360D02*
X594760D01*
G01X564280Y4646280D02*
X594760D01*
G01X564280Y4641200D02*
X594760D01*
G01X564280Y4636120D02*
X594760D01*
G01X564280Y4631040D02*
X594760D01*
G01X564280Y4625960D02*
X594760D01*
G01X564280Y4620880D02*
X594760D01*
G01X564280Y4615800D02*
X594760D01*
G01X549040Y4765040D02*
X610000D01*
G01X523640Y4861560D02*
X528720D01*
G01X523640Y4866640D02*
X528720D01*
G01X523640Y4871720D02*
X533800D01*
G01X523640Y4876800D02*
X538880D01*
G01X523640Y4881880D02*
X635400D01*
G01X523640Y4886960D02*
X635400D01*
G01X660800Y4765040D02*
X691280D01*
G01X650640Y4770120D02*
X701440D01*
G01X645560Y4775200D02*
X711600D01*
G01X645560Y4780280D02*
X676040D01*
G01X559200Y4770120D02*
X594760D01*
G01X564280Y4775200D02*
X594760D01*
G01X564280Y4780280D02*
X594760D01*
G01X681120Y4836160D02*
X711600D01*
G01X630320Y4856480D02*
X635400D01*
G01X630320Y4861560D02*
X635400D01*
G01X650640Y4866640D02*
X655720D01*
G01X625240D02*
X635400D01*
G01X655720Y4871720D02*
X665880D01*
G01X625240D02*
X635400D01*
G01X660800Y4876800D02*
X716680D01*
G01X620160D02*
X635400D01*
G01X665880Y4881880D02*
X711600D01*
G01X676040Y4886960D02*
X701440D01*
G01X645560Y4785360D02*
X670960D01*
G01X650640Y4790440D02*
X665880D01*
G01X681120Y4826000D02*
X721760D01*
G01X670960Y4831080D02*
X716680D01*
G01X564280Y4836160D02*
X594760D01*
G01X564280Y4841240D02*
X594760D01*
G01X564280Y4846320D02*
X594760D01*
G01X564280Y4851400D02*
X594760D01*
G01X564280Y4856480D02*
X594760D01*
G01X564280Y4861560D02*
X594760D01*
G01X564280Y4866640D02*
X594760D01*
G01X564280Y4871720D02*
X594760D01*
G01X564280Y4876800D02*
X594760D01*
G01X564280Y4785360D02*
X594760D01*
G01X564280Y4790440D02*
X594760D01*
G01X564280Y4795520D02*
X594760D01*
G01X564280Y4800600D02*
X594760D01*
G01X564280Y4805680D02*
X594760D01*
G01X564280Y4810760D02*
X594760D01*
G01X564280Y4815840D02*
X594760D01*
G01X564280Y4820920D02*
X594760D01*
G01X564280Y4826000D02*
X594760D01*
G01X564280Y4831080D02*
X594760D01*
G01X549040Y4970000D02*
X610000D01*
G01X523640Y5066520D02*
X528720D01*
G01X523640Y5071600D02*
X528720D01*
G01X523640Y5076680D02*
X533800D01*
G01X523640Y5081760D02*
X538880D01*
G01X650640Y4970000D02*
X721760D01*
G01X650640Y4975080D02*
X721760D01*
G01X655720Y4980160D02*
X721760D01*
G01X660800Y4985240D02*
X721760D01*
G01X665880Y4990320D02*
X726840D01*
G01X665880Y4995400D02*
X676040D01*
G01X670960Y5000480D02*
X681120D01*
G01X676040Y5005560D02*
X686200D01*
G01X559200Y4975080D02*
X594760D01*
G01X564280Y4980160D02*
X594760D01*
G01X564280Y4985240D02*
X594760D01*
G01X564280Y4990320D02*
X594760D01*
G01X564280Y4995400D02*
X594760D01*
G01X564280Y5000480D02*
X594760D01*
G01X564280Y5005560D02*
X594760D01*
G01X650640Y5061440D02*
X655720D01*
G01X630320D02*
X635400D01*
G01X650640Y5066520D02*
X655720D01*
G01X630320D02*
X635400D01*
G01X655720Y5071600D02*
X665880D01*
G01X625240D02*
X635400D01*
G01X655720Y5076680D02*
X716680D01*
G01X625240D02*
X635400D01*
G01X660800Y5081760D02*
X716680D01*
G01X620160D02*
X635400D01*
G01X681120Y5010640D02*
X691280D01*
G01X681120Y5015720D02*
X696360D01*
G01X564280Y5061440D02*
X594760D01*
G01X564280Y5066520D02*
X594760D01*
G01X564280Y5071600D02*
X594760D01*
G01X564280Y5076680D02*
X594760D01*
G01X564280Y5081760D02*
X594760D01*
G01X564280Y5010640D02*
X594760D01*
G01X564280Y5015720D02*
X594760D01*
G01X564280Y5020800D02*
X594760D01*
G01X564280Y5025880D02*
X594760D01*
G01X564280Y5030960D02*
X594760D01*
G01X564280Y5036040D02*
X594760D01*
G01X564280Y5041120D02*
X594760D01*
G01X564280Y5046200D02*
X594760D01*
G01X564280Y5051280D02*
X594760D01*
G01X564280Y5056360D02*
X594760D01*
G01X523640Y5086840D02*
X635400D01*
G01X523640Y5091920D02*
X635400D01*
G01X549040Y5170040D02*
X610000D01*
G01X665880Y5086840D02*
X711600D01*
G01X676040Y5091920D02*
X701440D01*
G01X655720Y5170040D02*
X721760D01*
G01X670960Y5175120D02*
X706520D01*
G01X676040Y5180200D02*
X706520D01*
G01X676040Y5185280D02*
X701440D01*
G01X676040Y5190360D02*
X701440D01*
G01X676040Y5195440D02*
X701440D01*
G01X676040Y5200520D02*
X701440D01*
G01X676040Y5205600D02*
X701440D01*
G01X676040Y5210680D02*
X701440D01*
G01X676040Y5215760D02*
X701440D01*
G01X676040Y5220840D02*
X701440D01*
G01X676040Y5225920D02*
X701440D01*
G01X559200Y5175120D02*
X594760D01*
G01X564280Y5180200D02*
X594760D01*
G01X564280Y5185280D02*
X594760D01*
G01X564280Y5190360D02*
X594760D01*
G01X564280Y5195440D02*
X594760D01*
G01X564280Y5200520D02*
X594760D01*
G01X564280Y5205600D02*
X594760D01*
G01X564280Y5210680D02*
X594760D01*
G01X564280Y5215760D02*
X594760D01*
G01X564280Y5220840D02*
X594760D01*
G01X564280Y5225920D02*
X594760D01*
G01X676040Y5231000D02*
X701440D01*
G01X676040Y5236080D02*
X701440D01*
G01X676040Y5241160D02*
X701440D01*
G01X676040Y5246240D02*
X701440D01*
G01X676040Y5251320D02*
X701440D01*
G01X564280Y5231000D02*
X594760D01*
G01X564280Y5236080D02*
X594760D01*
G01X564280Y5241160D02*
X594760D01*
G01X564280Y5246240D02*
X594760D01*
G01X564280Y5251320D02*
X594760D01*
G01X523640Y5281800D02*
X538880D01*
G01X523640Y5286880D02*
X635400D01*
G01X523640Y5291960D02*
X635400D01*
G01X523640Y5266560D02*
X528720D01*
G01X523640Y5271640D02*
X528720D01*
G01X523640Y5276720D02*
X533800D01*
G01X549040Y5355000D02*
X610000D01*
G01X670960Y5281800D02*
X701440D01*
G01X620160D02*
X635400D01*
G01X676040Y5256400D02*
X701440D01*
G01X676040Y5261480D02*
X701440D01*
G01X630320D02*
X635400D01*
G01X676040Y5266560D02*
X701440D01*
G01X630320D02*
X635400D01*
G01X670960Y5271640D02*
X701440D01*
G01X655720D02*
X665880D01*
G01X625240D02*
X635400D01*
G01X660800Y5276720D02*
X701440D01*
G01X625240D02*
X635400D01*
G01X564280Y5281800D02*
X594760D01*
G01X564280Y5256400D02*
X594760D01*
G01X564280Y5261480D02*
X594760D01*
G01X564280Y5266560D02*
X594760D01*
G01X564280Y5271640D02*
X594760D01*
G01X564280Y5276720D02*
X594760D01*
G01X676040Y5355000D02*
X701440D01*
G01X670960Y5360080D02*
X681120D01*
G01X665880Y5365160D02*
X681120D01*
G01X660800Y5370240D02*
X676040D01*
G01X655720Y5375320D02*
X676040D01*
G01X655720Y5380400D02*
X676040D01*
G01X655720Y5385480D02*
X676040D01*
G01X650640Y5390560D02*
X676040D01*
G01X650640Y5395640D02*
X676040D01*
G01X650640Y5400720D02*
X676040D01*
G01X650640Y5405800D02*
X676040D01*
G01X650640Y5410880D02*
X676040D01*
G01X650640Y5415960D02*
X676040D01*
G01X650640Y5421040D02*
X676040D01*
G01X559200Y5360080D02*
X594760D01*
G01X564280Y5365160D02*
X594760D01*
G01X564280Y5370240D02*
X594760D01*
G01X564280Y5375320D02*
X594760D01*
G01X564280Y5380400D02*
X594760D01*
G01X564280Y5385480D02*
X594760D01*
G01X564280Y5390560D02*
X594760D01*
G01X564280Y5395640D02*
X594760D01*
G01X564280Y5400720D02*
X594760D01*
G01X564280Y5405800D02*
X594760D01*
G01X564280Y5410880D02*
X594760D01*
G01X564280Y5415960D02*
X594760D01*
G01X564280Y5421040D02*
X594760D01*
G01X523640Y5451520D02*
X528720D01*
G01X523640Y5456600D02*
X528720D01*
G01X523640Y5461680D02*
X533800D01*
G01X523640Y5466760D02*
X538880D01*
G01X523640Y5471840D02*
X635400D01*
G01X523640Y5476920D02*
X635400D01*
G01X650640Y5426120D02*
X676040D01*
G01X650640Y5431200D02*
X676040D01*
G01X650640Y5436280D02*
X676040D01*
G01X564280Y5426120D02*
X594760D01*
G01X564280Y5431200D02*
X594760D01*
G01X564280Y5436280D02*
X594760D01*
G01X650640Y5441360D02*
X676040D01*
G01X655720Y5446440D02*
X676040D01*
G01X630320D02*
X635400D01*
G01X655720Y5451520D02*
X676040D01*
G01X630320D02*
X635400D01*
G01X655720Y5456600D02*
X676040D01*
G01X625240D02*
X635400D01*
G01X660800Y5461680D02*
X676040D01*
G01X625240D02*
X635400D01*
G01X665880Y5466760D02*
X681120D01*
G01X620160D02*
X635400D01*
G01X670960Y5471840D02*
X681120D01*
G01X676040Y5476920D02*
X701440D01*
G01X564280Y5441360D02*
X594760D01*
G01X564280Y5446440D02*
X594760D01*
G01X564280Y5451520D02*
X594760D01*
G01X564280Y5456600D02*
X594760D01*
G01X564280Y5461680D02*
X594760D01*
G01X564280Y5466760D02*
X594760D01*
G01X797160Y2205240D02*
X822560D01*
G01X802240Y2200160D02*
X832720D01*
G01X812400Y2195080D02*
X878440D01*
G01X822560Y2190000D02*
X863200D01*
G01X822560Y2311920D02*
X868280D01*
G01X812400Y2306840D02*
X878440D01*
G01X720960Y2301760D02*
X756520D01*
G01X802240D02*
X832720D01*
G01X726040Y2296680D02*
X761600D01*
G01X797160D02*
X822560D01*
G01X731120Y2291600D02*
X761600D01*
G01X792080D02*
X822560D01*
G01X731120Y2286520D02*
X761600D01*
G01X787000D02*
X817480D01*
G01X731120Y2281440D02*
X761600D01*
G01X787000D02*
X817480D01*
G01X731120Y2276360D02*
X761600D01*
G01X781920D02*
X812400D01*
G01X731120Y2271280D02*
X761600D01*
G01X781920D02*
X812400D01*
G01X731120Y2266200D02*
X761600D01*
G01X781920D02*
X812400D01*
G01X726040Y2261120D02*
X761600D01*
G01X776840D02*
X812400D01*
G01X720960Y2256040D02*
X756520D01*
G01X776840D02*
X812400D01*
G01X776840Y2250960D02*
X812400D01*
G01X776840Y2245880D02*
X812400D01*
G01X776840Y2240800D02*
X812400D01*
G01X781920Y2235720D02*
X812400D01*
G01X781920Y2230640D02*
X812400D01*
G01X781920Y2225560D02*
X812400D01*
G01X787000Y2220480D02*
X817480D01*
G01X787000Y2215400D02*
X817480D01*
G01X792080Y2210320D02*
X817480D01*
G01X695000Y3490000D02*
X707700D01*
G01X783900Y4048800D02*
X809300D01*
G01X695000Y4023400D02*
X733100D01*
G01X691280Y4575160D02*
X716680D01*
G01X691280Y4570080D02*
X716680D01*
G01X691280Y4565000D02*
X716680D01*
G01X691280Y4590400D02*
X716680D01*
G01X691280Y4585320D02*
X716680D01*
G01X691280Y4580240D02*
X716680D01*
G01X706520Y4686920D02*
X716680D01*
G01X701440Y4681840D02*
X716680D01*
G01X696360Y4676760D02*
X716680D01*
G01X691280Y4671680D02*
X716680D01*
G01X691280Y4666600D02*
X716680D01*
G01X686200Y4661520D02*
X716680D01*
G01X691280Y4651360D02*
X716680D01*
G01X691280Y4646280D02*
X716680D01*
G01X691280Y4641200D02*
X716680D01*
G01X691280Y4636120D02*
X716680D01*
G01X691280Y4631040D02*
X716680D01*
G01X691280Y4625960D02*
X716680D01*
G01X691280Y4620880D02*
X716680D01*
G01X691280Y4615800D02*
X716680D01*
G01X696360Y4780280D02*
X716680D01*
G01X686200Y4841240D02*
X706520D01*
G01X691280Y4846320D02*
X711600D01*
G01X696360Y4851400D02*
X716680D01*
G01X696360Y4856480D02*
X716680D01*
G01X696360Y4861560D02*
X716680D01*
G01X691280Y4866640D02*
X716680D01*
G01X686200Y4871720D02*
X716680D01*
G01X701440Y4785360D02*
X721760D01*
G01X706520Y4790440D02*
X721760D01*
G01X706520Y4795520D02*
X721760D01*
G01X706520Y4800600D02*
X726840D01*
G01X701440Y4805680D02*
X726840D01*
G01X701440Y4810760D02*
X726840D01*
G01X696360Y4815840D02*
X726840D01*
G01X691280Y4820920D02*
X726840D01*
G01X716680Y4995400D02*
X726840D01*
G01X721760Y5000480D02*
X726840D01*
G01X691280Y5061440D02*
X721760D01*
G01X691280Y5066520D02*
X721760D01*
G01X686200Y5071600D02*
X721760D01*
G01X686200Y5020800D02*
X701440D01*
G01X691280Y5025880D02*
X706520D01*
G01X691280Y5030960D02*
X706520D01*
G01X691280Y5036040D02*
X711600D01*
G01X696360Y5041120D02*
X716680D01*
G01X696360Y5046200D02*
X716680D01*
G01X696360Y5051280D02*
X721760D01*
G01X696360Y5056360D02*
X721760D01*
G01X686200Y5286880D02*
X701440D01*
G01X696360Y5291960D02*
X701440D01*
G01X696360Y5360080D02*
X711600D01*
G01X701440Y5365160D02*
X716680D01*
G01X701440Y5370240D02*
X716680D01*
G01X701440Y5375320D02*
X721760D01*
G01X701440Y5380400D02*
X721760D01*
G01X701440Y5385480D02*
X726840D01*
G01X701440Y5390560D02*
X726840D01*
G01X701440Y5395640D02*
X726840D01*
G01X701440Y5400720D02*
X726840D01*
G01X701440Y5405800D02*
X726840D01*
G01X701440Y5410880D02*
X726840D01*
G01X701440Y5415960D02*
X726840D01*
G01X701440Y5421040D02*
X726840D01*
G01X701440Y5426120D02*
X726840D01*
G01X701440Y5431200D02*
X726840D01*
G01X701440Y5436280D02*
X726840D01*
G01X701440Y5441360D02*
X726840D01*
G01X701440Y5446440D02*
X726840D01*
G01X701440Y5451520D02*
X721760D01*
G01X701440Y5456600D02*
X721760D01*
G01X701440Y5461680D02*
X721760D01*
G01X701440Y5466760D02*
X716680D01*
G01X696360Y5471840D02*
X711600D01*
G01X863200Y2205240D02*
X893680D01*
G01X939400D02*
X969880D01*
G01X1005440D02*
X1035920D01*
G01X858120Y2200160D02*
X883520D01*
G01X939400D02*
X969880D01*
G01X1005440D02*
X1041000D01*
G01X934320Y2195080D02*
X969880D01*
G01X1010520D02*
X1046080D01*
G01X924160Y2190000D02*
X985120D01*
G01X1015600D02*
X1056240D01*
G01X924160Y2311920D02*
X1010520D01*
G01X934320Y2306840D02*
X1020680D01*
G01X858120Y2301760D02*
X888600D01*
G01X939400D02*
X969880D01*
G01X995280D02*
X1025760D01*
G01X863200Y2296680D02*
X893680D01*
G01X939400D02*
X969880D01*
G01X1000360D02*
X1030840D01*
G01X868280Y2291600D02*
X898760D01*
G01X939400D02*
X969880D01*
G01X1005440D02*
X1035920D01*
G01X873360Y2286520D02*
X898760D01*
G01X939400D02*
X969880D01*
G01X1005440D02*
X1035920D01*
G01X873360Y2281440D02*
X903840D01*
G01X939400D02*
X969880D01*
G01X1005440D02*
X1035920D01*
G01X873360Y2276360D02*
X903840D01*
G01X939400D02*
X969880D01*
G01X1005440D02*
X1035920D01*
G01X878440Y2271280D02*
X908920D01*
G01X939400D02*
X969880D01*
G01X1005440D02*
X1035920D01*
G01X878440Y2266200D02*
X908920D01*
G01X939400D02*
X969880D01*
G01X1005440D02*
X1030840D01*
G01X878440Y2261120D02*
X908920D01*
G01X939400D02*
X969880D01*
G01X1000360D02*
X1030840D01*
G01X878440Y2256040D02*
X908920D01*
G01X939400D02*
X969880D01*
G01X995280D02*
X1025760D01*
G01X878440Y2250960D02*
X908920D01*
G01X939400D02*
X1015600D01*
G01X878440Y2245880D02*
X908920D01*
G01X939400D02*
X1010520D01*
G01X878440Y2240800D02*
X908920D01*
G01X939400D02*
X969880D01*
G01X980040D02*
X1010520D01*
G01X878440Y2235720D02*
X908920D01*
G01X939400D02*
X969880D01*
G01X980040D02*
X1015600D01*
G01X873360Y2230640D02*
X908920D01*
G01X939400D02*
X969880D01*
G01X985120D02*
X1020680D01*
G01X873360Y2225560D02*
X903840D01*
G01X939400D02*
X969880D01*
G01X990200D02*
X1020680D01*
G01X873360Y2220480D02*
X903840D01*
G01X939400D02*
X969880D01*
G01X995280D02*
X1025760D01*
G01X873360Y2215400D02*
X898760D01*
G01X939400D02*
X969880D01*
G01X995280D02*
X1030840D01*
G01X868280Y2210320D02*
X893680D01*
G01X939400D02*
X969880D01*
G01X1000360D02*
X1035920D01*
G01X1096880Y2205240D02*
X1127360D01*
G01X1096880Y2200160D02*
X1127360D01*
G01X1091800Y2195080D02*
X1127360D01*
G01X1081640Y2190000D02*
X1142600D01*
G01X1056240Y2311920D02*
X1168000D01*
G01X1056240Y2306840D02*
X1168000D01*
G01X1056240Y2301760D02*
X1071480D01*
G01X1096880D02*
X1127360D01*
G01X1152760D02*
X1168000D01*
G01X1056240Y2296680D02*
X1066400D01*
G01X1096880D02*
X1127360D01*
G01X1157840D02*
X1168000D01*
G01X1056240Y2291600D02*
X1061320D01*
G01X1096880D02*
X1127360D01*
G01X1157840D02*
X1168000D01*
G01X1188320D02*
X1208640D01*
G01X1056240Y2286520D02*
X1061320D01*
G01X1096880D02*
X1127360D01*
G01X1162920D02*
X1168000D01*
G01X1188320D02*
X1208640D01*
G01X1096880Y2281440D02*
X1127360D01*
G01X1162920D02*
X1168000D01*
G01X1188320D02*
X1208640D01*
G01X1096880Y2276360D02*
X1127360D01*
G01X1183240D02*
X1208640D01*
G01X1096880Y2271280D02*
X1127360D01*
G01X1183240D02*
X1208640D01*
G01X1096880Y2266200D02*
X1127360D01*
G01X1183240D02*
X1208640D01*
G01X1096880Y2261120D02*
X1127360D01*
G01X1183240D02*
X1208640D01*
G01X1096880Y2256040D02*
X1127360D01*
G01X1183240D02*
X1208640D01*
G01X1096880Y2250960D02*
X1127360D01*
G01X1183240D02*
X1208640D01*
G01X1096880Y2245880D02*
X1127360D01*
G01X1183240D02*
X1208640D01*
G01X1096880Y2240800D02*
X1127360D01*
G01X1183240D02*
X1208640D01*
G01X1096880Y2235720D02*
X1127360D01*
G01X1183240D02*
X1208640D01*
G01X1096880Y2230640D02*
X1127360D01*
G01X1183240D02*
X1208640D01*
G01X1096880Y2225560D02*
X1127360D01*
G01X1183240D02*
X1208640D01*
G01X1096880Y2220480D02*
X1127360D01*
G01X1188320D02*
X1208640D01*
G01X1096880Y2215400D02*
X1127360D01*
G01X1188320D02*
X1208640D01*
G01X1096880Y2210320D02*
X1127360D01*
G01X1188320D02*
X1208640D01*
G01X1193400Y2205240D02*
X1208640D01*
G01X1234040D02*
X1249280D01*
G01X1198480Y2200160D02*
X1213720D01*
G01X1234040D02*
X1249280D01*
G01X1203560Y2195080D02*
X1213720D01*
G01X1228960D02*
X1244200D01*
G01X1208640Y2190000D02*
X1234040D01*
G01X1208640Y2311920D02*
X1234040D01*
G01X1203560Y2306840D02*
X1213720D01*
G01X1228960D02*
X1244200D01*
G01X1198480Y2301760D02*
X1213720D01*
G01X1234040D02*
X1249280D01*
G01X1193400Y2296680D02*
X1208640D01*
G01X1234040D02*
X1254360D01*
G01X1234040Y2291600D02*
X1254360D01*
G01X1234040Y2286520D02*
X1254360D01*
G01X1234040Y2281440D02*
X1259440D01*
G01X1234040Y2276360D02*
X1259440D01*
G01X1234040Y2271280D02*
X1259440D01*
G01X1234040Y2266200D02*
X1259440D01*
G01X1234040Y2261120D02*
X1259440D01*
G01X1234040Y2256040D02*
X1259440D01*
G01X1234040Y2250960D02*
X1259440D01*
G01X1234040Y2245880D02*
X1259440D01*
G01X1234040Y2240800D02*
X1259440D01*
G01X1234040Y2235720D02*
X1259440D01*
G01X1234040Y2230640D02*
X1259440D01*
G01X1234040Y2225560D02*
X1259440D01*
G01X1234040Y2220480D02*
X1259440D01*
G01X1234040Y2215400D02*
X1254360D01*
G01X1234040Y2210320D02*
X1254360D01*
G01X2335240Y2205360D02*
X2365720D01*
G01X2335240Y2200280D02*
X2365720D01*
G01X2335240Y2195200D02*
X2365720D01*
G01X2330160Y2190120D02*
X2365720D01*
G01X2320000Y2185040D02*
X2380960D01*
G01X2320000Y2306960D02*
X2396200D01*
G01X2330160Y2301880D02*
X2411440D01*
G01X2335240Y2296800D02*
X2365720D01*
G01X2335240Y2291720D02*
X2365720D01*
G01X2335240Y2286640D02*
X2365720D01*
G01X2335240Y2281560D02*
X2365720D01*
G01X2335240Y2276480D02*
X2365720D01*
G01X2335240Y2271400D02*
X2365720D01*
G01X2335240Y2266320D02*
X2365720D01*
G01X2335240Y2261240D02*
X2365720D01*
G01X2335240Y2256160D02*
X2365720D01*
G01X2335240Y2251080D02*
X2365720D01*
G01X2335240Y2246000D02*
X2406360D01*
G01X2335240Y2240920D02*
X2396200D01*
G01X2335240Y2235840D02*
X2365720D01*
G01X2335240Y2230760D02*
X2365720D01*
G01X2335240Y2225680D02*
X2365720D01*
G01X2335240Y2220600D02*
X2365720D01*
G01X2335240Y2215520D02*
X2365720D01*
G01X2335240Y2210440D02*
X2365720D01*
G01X2452080Y2205360D02*
X2477480D01*
G01X2528280D02*
X2553680D01*
G01X2457160Y2200280D02*
X2482560D01*
G01X2523200D02*
X2553680D01*
G01X2462240Y2195200D02*
X2492720D01*
G01X2518120D02*
X2543520D01*
G01X2472400Y2190120D02*
X2538440D01*
G01X2482560Y2185040D02*
X2523200D01*
G01X2482560Y2306960D02*
X2528280D01*
G01X2472400Y2301880D02*
X2538440D01*
G01X2380960Y2296800D02*
X2416520D01*
G01X2462240D02*
X2492720D01*
G01X2518120D02*
X2548600D01*
G01X2386040Y2291720D02*
X2421600D01*
G01X2457160D02*
X2482560D01*
G01X2523200D02*
X2553680D01*
G01X2391120Y2286640D02*
X2421600D01*
G01X2452080D02*
X2482560D01*
G01X2528280D02*
X2558760D01*
G01X2391120Y2281560D02*
X2421600D01*
G01X2447000D02*
X2477480D01*
G01X2533360D02*
X2558760D01*
G01X2391120Y2276480D02*
X2421600D01*
G01X2447000D02*
X2477480D01*
G01X2533360D02*
X2563840D01*
G01X2391120Y2271400D02*
X2421600D01*
G01X2441920D02*
X2472400D01*
G01X2533360D02*
X2563840D01*
G01X2391120Y2266320D02*
X2421600D01*
G01X2441920D02*
X2472400D01*
G01X2538440D02*
X2568920D01*
G01X2391120Y2261240D02*
X2421600D01*
G01X2441920D02*
X2472400D01*
G01X2538440D02*
X2568920D01*
G01X2386040Y2256160D02*
X2421600D01*
G01X2436840D02*
X2472400D01*
G01X2538440D02*
X2568920D01*
G01X2380960Y2251080D02*
X2416520D01*
G01X2436840D02*
X2472400D01*
G01X2538440D02*
X2568920D01*
G01X2436840Y2246000D02*
X2472400D01*
G01X2538440D02*
X2568920D01*
G01X2436840Y2240920D02*
X2472400D01*
G01X2538440D02*
X2568920D01*
G01X2436840Y2235840D02*
X2472400D01*
G01X2538440D02*
X2568920D01*
G01X2441920Y2230760D02*
X2472400D01*
G01X2538440D02*
X2568920D01*
G01X2441920Y2225680D02*
X2472400D01*
G01X2533360D02*
X2568920D01*
G01X2441920Y2220600D02*
X2472400D01*
G01X2533360D02*
X2563840D01*
G01X2447000Y2215520D02*
X2477480D01*
G01X2533360D02*
X2563840D01*
G01X2447000Y2210440D02*
X2477480D01*
G01X2533360D02*
X2558760D01*
G01X2599400Y2205360D02*
X2629880D01*
G01X2660360D02*
X2695920D01*
G01X2599400Y2200280D02*
X2629880D01*
G01X2665440D02*
X2695920D01*
G01X2599400Y2195200D02*
X2629880D01*
G01X2665440D02*
X2701000D01*
G01X2594320Y2190120D02*
X2629880D01*
G01X2670520D02*
X2706080D01*
G01X2584160Y2185040D02*
X2645120D01*
G01X2675600D02*
X2716240D01*
G01X2584160Y2306960D02*
X2670520D01*
G01X2594320Y2301880D02*
X2680680D01*
G01X2599400Y2296800D02*
X2629880D01*
G01X2655280D02*
X2685760D01*
G01X2599400Y2291720D02*
X2629880D01*
G01X2660360D02*
X2690840D01*
G01X2599400Y2286640D02*
X2629880D01*
G01X2665440D02*
X2695920D01*
G01X2599400Y2281560D02*
X2629880D01*
G01X2665440D02*
X2695920D01*
G01X2599400Y2276480D02*
X2629880D01*
G01X2665440D02*
X2695920D01*
G01X2599400Y2271400D02*
X2629880D01*
G01X2665440D02*
X2695920D01*
G01X2599400Y2266320D02*
X2629880D01*
G01X2665440D02*
X2695920D01*
G01X2599400Y2261240D02*
X2629880D01*
G01X2665440D02*
X2690840D01*
G01X2599400Y2256160D02*
X2629880D01*
G01X2660360D02*
X2690840D01*
G01X2599400Y2251080D02*
X2629880D01*
G01X2655280D02*
X2685760D01*
G01X2599400Y2246000D02*
X2675600D01*
G01X2599400Y2240920D02*
X2670520D01*
G01X2599400Y2235840D02*
X2629880D01*
G01X2640040D02*
X2670520D01*
G01X2599400Y2230760D02*
X2629880D01*
G01X2640040D02*
X2675600D01*
G01X2599400Y2225680D02*
X2629880D01*
G01X2645120D02*
X2680680D01*
G01X2599400Y2220600D02*
X2629880D01*
G01X2650200D02*
X2680680D01*
G01X2599400Y2215520D02*
X2629880D01*
G01X2655280D02*
X2685760D01*
G01X2599400Y2210440D02*
X2629880D01*
G01X2655280D02*
X2690840D01*
G01X2756880Y2205360D02*
X2787360D01*
G01X2868640D02*
X2894040D01*
G01X2756880Y2200280D02*
X2787360D01*
G01X2868640D02*
X2894040D01*
G01X2756880Y2195200D02*
X2787360D01*
G01X2868640D02*
X2899120D01*
G01X2751800Y2190120D02*
X2787360D01*
G01X2863560D02*
X2899120D01*
G01X2741640Y2185040D02*
X2802600D01*
G01X2848320D02*
X2914360D01*
G01X2716240Y2306960D02*
X2828000D01*
G01X2716240Y2301880D02*
X2828000D01*
G01X2878800D02*
X2894040D01*
G01X2716240Y2296800D02*
X2731480D01*
G01X2756880D02*
X2787360D01*
G01X2812760D02*
X2828000D01*
G01X2863560D02*
X2894040D01*
G01X2716240Y2291720D02*
X2726400D01*
G01X2756880D02*
X2787360D01*
G01X2817840D02*
X2828000D01*
G01X2853400D02*
X2894040D01*
G01X2716240Y2286640D02*
X2721320D01*
G01X2756880D02*
X2787360D01*
G01X2817840D02*
X2828000D01*
G01X2848320D02*
X2858480D01*
G01X2863560D02*
X2894040D01*
G01X2716240Y2281560D02*
X2721320D01*
G01X2756880D02*
X2787360D01*
G01X2822920D02*
X2828000D01*
G01X2868640D02*
X2894040D01*
G01X2756880Y2276480D02*
X2787360D01*
G01X2822920D02*
X2828000D01*
G01X2868640D02*
X2894040D01*
G01X2756880Y2271400D02*
X2787360D01*
G01X2868640D02*
X2894040D01*
G01X2756880Y2266320D02*
X2787360D01*
G01X2868640D02*
X2894040D01*
G01X2756880Y2261240D02*
X2787360D01*
G01X2868640D02*
X2894040D01*
G01X2756880Y2256160D02*
X2787360D01*
G01X2868640D02*
X2894040D01*
G01X2756880Y2251080D02*
X2787360D01*
G01X2868640D02*
X2894040D01*
G01X2756880Y2246000D02*
X2787360D01*
G01X2868640D02*
X2894040D01*
G01X2756880Y2240920D02*
X2787360D01*
G01X2868640D02*
X2894040D01*
G01X2756880Y2235840D02*
X2787360D01*
G01X2868640D02*
X2894040D01*
G01X2756880Y2230760D02*
X2787360D01*
G01X2868640D02*
X2894040D01*
G01X2756880Y2225680D02*
X2787360D01*
G01X2868640D02*
X2894040D01*
G01X2756880Y2220600D02*
X2787360D01*
G01X2868640D02*
X2894040D01*
G01X2756880Y2215520D02*
X2787360D01*
G01X2868640D02*
X2894040D01*
G01X2756880Y2210440D02*
X2787360D01*
G01X2868640D02*
X2894040D01*
G01X2888960Y2306960D02*
X2894040D01*
G01X3995240Y2205320D02*
X4025720D01*
G01X3995240Y2200240D02*
X4025720D01*
G01X3995240Y2195160D02*
X4025720D01*
G01X3990160Y2190080D02*
X4025720D01*
G01X3980000Y2185000D02*
X4040960D01*
G01X3980000Y2306920D02*
X4056200D01*
G01X3990160Y2301840D02*
X4071440D01*
G01X3995240Y2296760D02*
X4025720D01*
G01X4040960D02*
X4076520D01*
G01X3995240Y2291680D02*
X4025720D01*
G01X4046040D02*
X4081600D01*
G01X3995240Y2286600D02*
X4025720D01*
G01X4051120D02*
X4081600D01*
G01X3995240Y2281520D02*
X4025720D01*
G01X4051120D02*
X4081600D01*
G01X3995240Y2276440D02*
X4025720D01*
G01X4051120D02*
X4081600D01*
G01X3995240Y2271360D02*
X4025720D01*
G01X4051120D02*
X4081600D01*
G01X3995240Y2266280D02*
X4025720D01*
G01X4051120D02*
X4081600D01*
G01X3995240Y2261200D02*
X4025720D01*
G01X4051120D02*
X4081600D01*
G01X3995240Y2256120D02*
X4025720D01*
G01X4046040D02*
X4081600D01*
G01X3995240Y2251040D02*
X4025720D01*
G01X4040960D02*
X4076520D01*
G01X3995240Y2245960D02*
X4066360D01*
G01X3995240Y2240880D02*
X4056200D01*
G01X3995240Y2235800D02*
X4025720D01*
G01X3995240Y2230720D02*
X4025720D01*
G01X3995240Y2225640D02*
X4025720D01*
G01X3995240Y2220560D02*
X4025720D01*
G01X3995240Y2215480D02*
X4025720D01*
G01X3995240Y2210400D02*
X4025720D01*
G01X4112080Y2205320D02*
X4137480D01*
G01X4188280D02*
X4213680D01*
G01X4117160Y2200240D02*
X4142560D01*
G01X4183200D02*
X4213680D01*
G01X4122240Y2195160D02*
X4152720D01*
G01X4178120D02*
X4203520D01*
G01X4132400Y2190080D02*
X4198440D01*
G01X4142560Y2185000D02*
X4183200D01*
G01X4142560Y2306920D02*
X4188280D01*
G01X4132400Y2301840D02*
X4198440D01*
G01X4122240Y2296760D02*
X4152720D01*
G01X4178120D02*
X4208600D01*
G01X4117160Y2291680D02*
X4142560D01*
G01X4183200D02*
X4213680D01*
G01X4112080Y2286600D02*
X4142560D01*
G01X4188280D02*
X4218760D01*
G01X4107000Y2281520D02*
X4137480D01*
G01X4193360D02*
X4218760D01*
G01X4107000Y2276440D02*
X4137480D01*
G01X4193360D02*
X4223840D01*
G01X4101920Y2271360D02*
X4132400D01*
G01X4193360D02*
X4223840D01*
G01X4101920Y2266280D02*
X4132400D01*
G01X4198440D02*
X4228920D01*
G01X4101920Y2261200D02*
X4132400D01*
G01X4198440D02*
X4228920D01*
G01X4096840Y2256120D02*
X4132400D01*
G01X4198440D02*
X4228920D01*
G01X4096840Y2251040D02*
X4132400D01*
G01X4198440D02*
X4228920D01*
G01X4096840Y2245960D02*
X4132400D01*
G01X4198440D02*
X4228920D01*
G01X4096840Y2240880D02*
X4132400D01*
G01X4198440D02*
X4228920D01*
G01X4096840Y2235800D02*
X4132400D01*
G01X4198440D02*
X4228920D01*
G01X4101920Y2230720D02*
X4132400D01*
G01X4198440D02*
X4228920D01*
G01X4101920Y2225640D02*
X4132400D01*
G01X4193360D02*
X4228920D01*
G01X4101920Y2220560D02*
X4132400D01*
G01X4193360D02*
X4223840D01*
G01X4107000Y2215480D02*
X4137480D01*
G01X4193360D02*
X4223840D01*
G01X4107000Y2210400D02*
X4137480D01*
G01X4193360D02*
X4218760D01*
G01X4259400Y2205320D02*
X4289880D01*
G01X4320360D02*
X4355920D01*
G01X4259400Y2200240D02*
X4289880D01*
G01X4325440D02*
X4355920D01*
G01X4259400Y2195160D02*
X4289880D01*
G01X4325440D02*
X4361000D01*
G01X4254320Y2190080D02*
X4289880D01*
G01X4330520D02*
X4366080D01*
G01X4244160Y2185000D02*
X4305120D01*
G01X4335600D02*
X4376240D01*
G01X4401640D02*
X4462600D01*
G01X4244160Y2306920D02*
X4330520D01*
G01X4376240D02*
X4488000D01*
G01X4254320Y2301840D02*
X4340680D01*
G01X4376240D02*
X4488000D01*
G01X4259400Y2296760D02*
X4289880D01*
G01X4315280D02*
X4345760D01*
G01X4376240D02*
X4391480D01*
G01X4259400Y2291680D02*
X4289880D01*
G01X4320360D02*
X4350840D01*
G01X4376240D02*
X4386400D01*
G01X4259400Y2286600D02*
X4289880D01*
G01X4325440D02*
X4355920D01*
G01X4376240D02*
X4381320D01*
G01X4259400Y2281520D02*
X4289880D01*
G01X4325440D02*
X4355920D01*
G01X4376240D02*
X4381320D01*
G01X4259400Y2276440D02*
X4289880D01*
G01X4325440D02*
X4355920D01*
G01X4259400Y2271360D02*
X4289880D01*
G01X4325440D02*
X4355920D01*
G01X4259400Y2266280D02*
X4289880D01*
G01X4325440D02*
X4355920D01*
G01X4259400Y2261200D02*
X4289880D01*
G01X4325440D02*
X4350840D01*
G01X4259400Y2256120D02*
X4289880D01*
G01X4320360D02*
X4350840D01*
G01X4259400Y2251040D02*
X4289880D01*
G01X4315280D02*
X4345760D01*
G01X4259400Y2245960D02*
X4335600D01*
G01X4259400Y2240880D02*
X4330520D01*
G01X4259400Y2235800D02*
X4289880D01*
G01X4300040D02*
X4330520D01*
G01X4259400Y2230720D02*
X4289880D01*
G01X4300040D02*
X4335600D01*
G01X4259400Y2225640D02*
X4289880D01*
G01X4305120D02*
X4340680D01*
G01X4259400Y2220560D02*
X4289880D01*
G01X4310200D02*
X4340680D01*
G01X4259400Y2215480D02*
X4289880D01*
G01X4315280D02*
X4345760D01*
G01X4259400Y2210400D02*
X4289880D01*
G01X4315280D02*
X4350840D01*
G01X4463500Y7090000D02*
G03I-63500J0D01*
G01X4416880Y2205320D02*
X4447360D01*
G01X4518480D02*
X4579440D01*
G01X4416880Y2200240D02*
X4447360D01*
G01X4513400D02*
X4574360D01*
G01X4416880Y2195160D02*
X4447360D01*
G01X4508320D02*
X4574360D01*
G01X4411800Y2190080D02*
X4447360D01*
G01X4503240D02*
X4574360D01*
G01X4503240Y2185000D02*
X4574360D01*
G01X4528640Y2306920D02*
X4554040D01*
G01X4518480Y2301840D02*
X4564200D01*
G01X4416880Y2296760D02*
X4447360D01*
G01X4472760D02*
X4488000D01*
G01X4513400D02*
X4569280D01*
G01X4416880Y2291680D02*
X4447360D01*
G01X4477840D02*
X4488000D01*
G01X4508320D02*
X4569280D01*
G01X4416880Y2286600D02*
X4447360D01*
G01X4477840D02*
X4488000D01*
G01X4508320D02*
X4518480D01*
G01X4538800D02*
X4574360D01*
G01X4416880Y2281520D02*
X4447360D01*
G01X4482920D02*
X4488000D01*
G01X4503240D02*
X4508320D01*
G01X4543880D02*
X4574360D01*
G01X4416880Y2276440D02*
X4447360D01*
G01X4482920D02*
X4488000D01*
G01X4503240D02*
X4508320D01*
G01X4543880D02*
X4574360D01*
G01X4416880Y2271360D02*
X4447360D01*
G01X4548960D02*
X4574360D01*
G01X4416880Y2266280D02*
X4447360D01*
G01X4548960D02*
X4574360D01*
G01X4416880Y2261200D02*
X4447360D01*
G01X4548960D02*
X4569280D01*
G01X4416880Y2256120D02*
X4447360D01*
G01X4548960D02*
X4569280D01*
G01X4416880Y2251040D02*
X4447360D01*
G01X4543880D02*
X4564200D01*
G01X4416880Y2245960D02*
X4447360D01*
G01X4543880D02*
X4559120D01*
G01X4416880Y2240880D02*
X4447360D01*
G01X4543880D02*
X4559120D01*
G01X4416880Y2235800D02*
X4447360D01*
G01X4538800D02*
X4554040D01*
G01X4416880Y2230720D02*
X4447360D01*
G01X4533720D02*
X4548960D01*
G01X4416880Y2225640D02*
X4447360D01*
G01X4533720D02*
X4543880D01*
G01X4416880Y2220560D02*
X4447360D01*
G01X4528640D02*
X4538800D01*
G01X4416880Y2215480D02*
X4447360D01*
G01X4523560D02*
X4533720D01*
G01X4574360D02*
X4579440D01*
G01X4416880Y2210400D02*
X4447360D01*
G01X4518480D02*
X4528640D01*
G01X4569280D02*
X4579440D01*
G01X4613500Y7090000D02*
G03I-63500J0D01*
G01X4763500D02*
G03I-63500J0D01*
G01X4913500D02*
G03I-63500J0D01*
G01X5063500D02*
G03I-63500J0D01*
G01X5363500D02*
G03I-63500J0D01*
G01X5513500D02*
G03I-63500J0D01*
G01X5665240Y2205440D02*
X5695720D01*
G01X5665240Y2200360D02*
X5695720D01*
G01X5665240Y2195280D02*
X5695720D01*
G01X5665240Y2190200D02*
X5695720D01*
G01X5660160Y2185120D02*
X5695720D01*
G01X5650000Y2180040D02*
X5710960D01*
G01X5650000Y2301960D02*
X5726200D01*
G01X5660160Y2296880D02*
X5741440D01*
G01X5665240Y2291800D02*
X5695720D01*
G01X5710960D02*
X5746520D01*
G01X5665240Y2286720D02*
X5695720D01*
G01X5716040D02*
X5751600D01*
G01X5665240Y2281640D02*
X5695720D01*
G01X5721120D02*
X5751600D01*
G01X5665240Y2276560D02*
X5695720D01*
G01X5721120D02*
X5751600D01*
G01X5665240Y2271480D02*
X5695720D01*
G01X5721120D02*
X5751600D01*
G01X5665240Y2266400D02*
X5695720D01*
G01X5721120D02*
X5751600D01*
G01X5665240Y2261320D02*
X5695720D01*
G01X5721120D02*
X5751600D01*
G01X5665240Y2256240D02*
X5695720D01*
G01X5721120D02*
X5751600D01*
G01X5665240Y2251160D02*
X5695720D01*
G01X5716040D02*
X5751600D01*
G01X5665240Y2246080D02*
X5695720D01*
G01X5710960D02*
X5746520D01*
G01X5665240Y2241000D02*
X5736360D01*
G01X5665240Y2235920D02*
X5726200D01*
G01X5665240Y2230840D02*
X5695720D01*
G01X5665240Y2225760D02*
X5695720D01*
G01X5665240Y2220680D02*
X5695720D01*
G01X5665240Y2215600D02*
X5695720D01*
G01X5665240Y2210520D02*
X5695720D01*
G01X5777000Y2205440D02*
X5807480D01*
G01X5863360D02*
X5888760D01*
G01X5929400D02*
X5959880D01*
G01X5782080Y2200360D02*
X5807480D01*
G01X5858280D02*
X5883680D01*
G01X5929400D02*
X5959880D01*
G01X5787160Y2195280D02*
X5812560D01*
G01X5853200D02*
X5883680D01*
G01X5929400D02*
X5959880D01*
G01X5792240Y2190200D02*
X5822720D01*
G01X5848120D02*
X5873520D01*
G01X5929400D02*
X5959880D01*
G01X5802400Y2185120D02*
X5868440D01*
G01X5924320D02*
X5959880D01*
G01X5812560Y2180040D02*
X5853200D01*
G01X5914160D02*
X5975120D01*
G01X5812560Y2301960D02*
X5858280D01*
G01X5914160D02*
X6000520D01*
G01X5802400Y2296880D02*
X5868440D01*
G01X5924320D02*
X6010680D01*
G01X5792240Y2291800D02*
X5822720D01*
G01X5848120D02*
X5878600D01*
G01X5929400D02*
X5959880D01*
G01X5787160Y2286720D02*
X5812560D01*
G01X5853200D02*
X5883680D01*
G01X5929400D02*
X5959880D01*
G01X5782080Y2281640D02*
X5812560D01*
G01X5858280D02*
X5888760D01*
G01X5929400D02*
X5959880D01*
G01X5777000Y2276560D02*
X5807480D01*
G01X5863360D02*
X5888760D01*
G01X5929400D02*
X5959880D01*
G01X5777000Y2271480D02*
X5807480D01*
G01X5863360D02*
X5893840D01*
G01X5929400D02*
X5959880D01*
G01X5771920Y2266400D02*
X5802400D01*
G01X5863360D02*
X5893840D01*
G01X5929400D02*
X5959880D01*
G01X5771920Y2261320D02*
X5802400D01*
G01X5868440D02*
X5898920D01*
G01X5929400D02*
X5959880D01*
G01X5771920Y2256240D02*
X5802400D01*
G01X5868440D02*
X5898920D01*
G01X5929400D02*
X5959880D01*
G01X5766840Y2251160D02*
X5802400D01*
G01X5868440D02*
X5898920D01*
G01X5929400D02*
X5959880D01*
G01X5766840Y2246080D02*
X5802400D01*
G01X5868440D02*
X5898920D01*
G01X5929400D02*
X5959880D01*
G01X5766840Y2241000D02*
X5802400D01*
G01X5868440D02*
X5898920D01*
G01X5929400D02*
X6005600D01*
G01X5766840Y2235920D02*
X5802400D01*
G01X5868440D02*
X5898920D01*
G01X5929400D02*
X6000520D01*
G01X5766840Y2230840D02*
X5802400D01*
G01X5868440D02*
X5898920D01*
G01X5929400D02*
X5959880D01*
G01X5771920Y2225760D02*
X5802400D01*
G01X5868440D02*
X5898920D01*
G01X5929400D02*
X5959880D01*
G01X5771920Y2220680D02*
X5802400D01*
G01X5863360D02*
X5898920D01*
G01X5929400D02*
X5959880D01*
G01X5771920Y2215600D02*
X5802400D01*
G01X5863360D02*
X5893840D01*
G01X5929400D02*
X5959880D01*
G01X5777000Y2210520D02*
X5807480D01*
G01X5863360D02*
X5893840D01*
G01X5929400D02*
X5959880D01*
G01X5985280Y2205440D02*
X6020840D01*
G01X6086880D02*
X6117360D01*
G01X5990360Y2200360D02*
X6025920D01*
G01X6086880D02*
X6117360D01*
G01X5995440Y2195280D02*
X6025920D01*
G01X6086880D02*
X6117360D01*
G01X5995440Y2190200D02*
X6031000D01*
G01X6086880D02*
X6117360D01*
G01X6000520Y2185120D02*
X6036080D01*
G01X6081800D02*
X6117360D01*
G01X6005600Y2180040D02*
X6046240D01*
G01X6071640D02*
X6132600D01*
G01X6046240Y2301960D02*
X6158000D01*
G01X6046240Y2296880D02*
X6158000D01*
G01X5985280Y2291800D02*
X6015760D01*
G01X6046240D02*
X6061480D01*
G01X6086880D02*
X6117360D01*
G01X5990360Y2286720D02*
X6020840D01*
G01X6046240D02*
X6056400D01*
G01X6086880D02*
X6117360D01*
G01X5995440Y2281640D02*
X6025920D01*
G01X6046240D02*
X6051320D01*
G01X6086880D02*
X6117360D01*
G01X5995440Y2276560D02*
X6025920D01*
G01X6046240D02*
X6051320D01*
G01X6086880D02*
X6117360D01*
G01X5995440Y2271480D02*
X6025920D01*
G01X6086880D02*
X6117360D01*
G01X5995440Y2266400D02*
X6025920D01*
G01X6086880D02*
X6117360D01*
G01X5995440Y2261320D02*
X6025920D01*
G01X6086880D02*
X6117360D01*
G01X5995440Y2256240D02*
X6020840D01*
G01X6086880D02*
X6117360D01*
G01X5990360Y2251160D02*
X6020840D01*
G01X6086880D02*
X6117360D01*
G01X5985280Y2246080D02*
X6015760D01*
G01X6086880D02*
X6117360D01*
G01X6086880Y2241000D02*
X6117360D01*
G01X6086880Y2235920D02*
X6117360D01*
G01X5970040Y2230840D02*
X6000520D01*
G01X6086880D02*
X6117360D01*
G01X5970040Y2225760D02*
X6005600D01*
G01X6086880D02*
X6117360D01*
G01X5975120Y2220680D02*
X6010680D01*
G01X6086880D02*
X6117360D01*
G01X5980200Y2215600D02*
X6010680D01*
G01X6086880D02*
X6117360D01*
G01X5985280Y2210520D02*
X6015760D01*
G01X6086880D02*
X6117360D01*
G01X6173240Y2205440D02*
X6188480D01*
G01X6229120D02*
X6244360D01*
G01X6168160Y2200360D02*
X6193560D01*
G01X6224040D02*
X6244360D01*
G01X6168160Y2195280D02*
X6198640D01*
G01X6218960D02*
X6239280D01*
G01X6168160Y2190200D02*
X6234200D01*
G01X6173240Y2185120D02*
X6224040D01*
G01X6183400Y2180040D02*
X6213880D01*
G01X6198640Y2301960D02*
X6224040D01*
G01X6188480Y2296880D02*
X6234200D01*
G01X6142760Y2291800D02*
X6158000D01*
G01X6183400D02*
X6239280D01*
G01X6147840Y2286720D02*
X6158000D01*
G01X6178320D02*
X6188480D01*
G01X6208800D02*
X6239280D01*
G01X6147840Y2281640D02*
X6158000D01*
G01X6173240D02*
X6178320D01*
G01X6213880D02*
X6239280D01*
G01X6152920Y2276560D02*
X6158000D01*
G01X6218960D02*
X6239280D01*
G01X6152920Y2271480D02*
X6158000D01*
G01X6218960D02*
X6239280D01*
G01X6218960Y2266400D02*
X6239280D01*
G01X6213880Y2261320D02*
X6234200D01*
G01X6208800Y2256240D02*
X6229120D01*
G01X6203720Y2251160D02*
X6234200D01*
G01X6193560Y2246080D02*
X6239280D01*
G01X6203720Y2241000D02*
X6244360D01*
G01X6213880Y2235920D02*
X6249440D01*
G01X6218960Y2230840D02*
X6249440D01*
G01X6224040Y2225760D02*
X6249440D01*
G01X6224040Y2220680D02*
X6249440D01*
G01X6229120Y2215600D02*
X6249440D01*
G01X6229120Y2210520D02*
X6244360D01*
G01X7275240Y2205240D02*
X7305720D01*
G01X7275240Y2200160D02*
X7305720D01*
G01X7270160Y2195080D02*
X7305720D01*
G01X7260000Y2190000D02*
X7320960D01*
G01X7260000Y2311920D02*
X7336200D01*
G01X7270160Y2306840D02*
X7351440D01*
G01X7275240Y2301760D02*
X7305720D01*
G01X7275240Y2296680D02*
X7305720D01*
G01X7275240Y2291600D02*
X7305720D01*
G01X7275240Y2286520D02*
X7305720D01*
G01X7275240Y2281440D02*
X7305720D01*
G01X7275240Y2276360D02*
X7305720D01*
G01X7275240Y2271280D02*
X7305720D01*
G01X7275240Y2266200D02*
X7305720D01*
G01X7275240Y2261120D02*
X7305720D01*
G01X7275240Y2256040D02*
X7305720D01*
G01X7275240Y2250960D02*
X7346360D01*
G01X7275240Y2245880D02*
X7336200D01*
G01X7275240Y2240800D02*
X7305720D01*
G01X7275240Y2235720D02*
X7305720D01*
G01X7275240Y2230640D02*
X7305720D01*
G01X7275240Y2225560D02*
X7305720D01*
G01X7275240Y2220480D02*
X7305720D01*
G01X7275240Y2215400D02*
X7305720D01*
G01X7275240Y2210320D02*
X7305720D01*
G01X7397160Y2205240D02*
X7422560D01*
G01X7402240Y2200160D02*
X7432720D01*
G01X7412400Y2195080D02*
X7478440D01*
G01X7422560Y2190000D02*
X7463200D01*
G01X7422560Y2311920D02*
X7468280D01*
G01X7412400Y2306840D02*
X7478440D01*
G01X7320960Y2301760D02*
X7356520D01*
G01X7402240D02*
X7432720D01*
G01X7326040Y2296680D02*
X7361600D01*
G01X7397160D02*
X7422560D01*
G01X7331120Y2291600D02*
X7361600D01*
G01X7392080D02*
X7422560D01*
G01X7331120Y2286520D02*
X7361600D01*
G01X7387000D02*
X7417480D01*
G01X7331120Y2281440D02*
X7361600D01*
G01X7387000D02*
X7417480D01*
G01X7331120Y2276360D02*
X7361600D01*
G01X7381920D02*
X7412400D01*
G01X7331120Y2271280D02*
X7361600D01*
G01X7381920D02*
X7412400D01*
G01X7331120Y2266200D02*
X7361600D01*
G01X7381920D02*
X7412400D01*
G01X7326040Y2261120D02*
X7361600D01*
G01X7376840D02*
X7412400D01*
G01X7320960Y2256040D02*
X7356520D01*
G01X7376840D02*
X7412400D01*
G01X7376840Y2250960D02*
X7412400D01*
G01X7376840Y2245880D02*
X7412400D01*
G01X7376840Y2240800D02*
X7412400D01*
G01X7381920Y2235720D02*
X7412400D01*
G01X7381920Y2230640D02*
X7412400D01*
G01X7381920Y2225560D02*
X7412400D01*
G01X7387000Y2220480D02*
X7417480D01*
G01X7387000Y2215400D02*
X7417480D01*
G01X7392080Y2210320D02*
X7417480D01*
G01X7463200Y2205240D02*
X7493680D01*
G01X7539400D02*
X7569880D01*
G01X7605440D02*
X7635920D01*
G01X7458120Y2200160D02*
X7483520D01*
G01X7539400D02*
X7569880D01*
G01X7605440D02*
X7641000D01*
G01X7534320Y2195080D02*
X7569880D01*
G01X7610520D02*
X7646080D01*
G01X7524160Y2190000D02*
X7585120D01*
G01X7615600D02*
X7656240D01*
G01X7524160Y2311920D02*
X7610520D01*
G01X7534320Y2306840D02*
X7620680D01*
G01X7458120Y2301760D02*
X7488600D01*
G01X7539400D02*
X7569880D01*
G01X7595280D02*
X7625760D01*
G01X7463200Y2296680D02*
X7493680D01*
G01X7539400D02*
X7569880D01*
G01X7600360D02*
X7630840D01*
G01X7468280Y2291600D02*
X7498760D01*
G01X7539400D02*
X7569880D01*
G01X7605440D02*
X7635920D01*
G01X7473360Y2286520D02*
X7498760D01*
G01X7539400D02*
X7569880D01*
G01X7605440D02*
X7635920D01*
G01X7473360Y2281440D02*
X7503840D01*
G01X7539400D02*
X7569880D01*
G01X7605440D02*
X7635920D01*
G01X7473360Y2276360D02*
X7503840D01*
G01X7539400D02*
X7569880D01*
G01X7605440D02*
X7635920D01*
G01X7478440Y2271280D02*
X7508920D01*
G01X7539400D02*
X7569880D01*
G01X7605440D02*
X7635920D01*
G01X7478440Y2266200D02*
X7508920D01*
G01X7539400D02*
X7569880D01*
G01X7605440D02*
X7630840D01*
G01X7478440Y2261120D02*
X7508920D01*
G01X7539400D02*
X7569880D01*
G01X7600360D02*
X7630840D01*
G01X7478440Y2256040D02*
X7508920D01*
G01X7539400D02*
X7569880D01*
G01X7595280D02*
X7625760D01*
G01X7478440Y2250960D02*
X7508920D01*
G01X7539400D02*
X7615600D01*
G01X7478440Y2245880D02*
X7508920D01*
G01X7539400D02*
X7610520D01*
G01X7478440Y2240800D02*
X7508920D01*
G01X7539400D02*
X7569880D01*
G01X7580040D02*
X7610520D01*
G01X7478440Y2235720D02*
X7508920D01*
G01X7539400D02*
X7569880D01*
G01X7580040D02*
X7615600D01*
G01X7473360Y2230640D02*
X7508920D01*
G01X7539400D02*
X7569880D01*
G01X7585120D02*
X7620680D01*
G01X7473360Y2225560D02*
X7503840D01*
G01X7539400D02*
X7569880D01*
G01X7590200D02*
X7620680D01*
G01X7473360Y2220480D02*
X7503840D01*
G01X7539400D02*
X7569880D01*
G01X7595280D02*
X7625760D01*
G01X7473360Y2215400D02*
X7498760D01*
G01X7539400D02*
X7569880D01*
G01X7595280D02*
X7630840D01*
G01X7468280Y2210320D02*
X7493680D01*
G01X7539400D02*
X7569880D01*
G01X7600360D02*
X7635920D01*
G01X7696880Y2205240D02*
X7727360D01*
G01X7696880Y2200160D02*
X7727360D01*
G01X7691800Y2195080D02*
X7727360D01*
G01X7681640Y2190000D02*
X7742600D01*
G01X7656240Y2311920D02*
X7768000D01*
G01X7656240Y2306840D02*
X7768000D01*
G01X7656240Y2301760D02*
X7671480D01*
G01X7696880D02*
X7727360D01*
G01X7752760D02*
X7768000D01*
G01X7656240Y2296680D02*
X7666400D01*
G01X7696880D02*
X7727360D01*
G01X7757840D02*
X7768000D01*
G01X7656240Y2291600D02*
X7661320D01*
G01X7696880D02*
X7727360D01*
G01X7757840D02*
X7768000D01*
G01X7656240Y2286520D02*
X7661320D01*
G01X7696880D02*
X7727360D01*
G01X7762920D02*
X7768000D01*
G01X7696880Y2281440D02*
X7727360D01*
G01X7762920D02*
X7768000D01*
G01X7696880Y2276360D02*
X7727360D01*
G01X7696880Y2271280D02*
X7727360D01*
G01X7696880Y2266200D02*
X7727360D01*
G01X7696880Y2261120D02*
X7727360D01*
G01X7696880Y2256040D02*
X7727360D01*
G01X7793400D02*
X7803560D01*
G01X7696880Y2250960D02*
X7727360D01*
G01X7788320D02*
X7798480D01*
G01X7696880Y2245880D02*
X7727360D01*
G01X7788320D02*
X7793400D01*
G01X7696880Y2240800D02*
X7727360D01*
G01X7783240D02*
X7793400D01*
G01X7696880Y2235720D02*
X7727360D01*
G01X7783240D02*
X7864520D01*
G01X7696880Y2230640D02*
X7727360D01*
G01X7783240D02*
X7864520D01*
G01X7696880Y2225560D02*
X7727360D01*
G01X7783240D02*
X7864520D01*
G01X7696880Y2220480D02*
X7727360D01*
G01X7783240D02*
X7864520D01*
G01X7696880Y2215400D02*
X7727360D01*
G01X7696880Y2210320D02*
X7727360D01*
G01X7823880Y2205240D02*
X7849280D01*
G01X7823880Y2200160D02*
X7849280D01*
G01X7823880Y2195080D02*
X7849280D01*
G01X7823880Y2190000D02*
X7849280D01*
G01X7839120Y2311920D02*
X7849280D01*
G01X7834040Y2306840D02*
X7849280D01*
G01X7828960Y2301760D02*
X7849280D01*
G01X7823880Y2296680D02*
X7849280D01*
G01X7823880Y2291600D02*
X7849280D01*
G01X7818800Y2286520D02*
X7849280D01*
G01X7813720Y2281440D02*
X7849280D01*
G01X7808640Y2276360D02*
X7818800D01*
G01X7823880D02*
X7849280D01*
G01X7808640Y2271280D02*
X7813720D01*
G01X7823880D02*
X7849280D01*
G01X7803560Y2266200D02*
X7808640D01*
G01X7823880D02*
X7849280D01*
G01X7798480Y2261120D02*
X7808640D01*
G01X7823880D02*
X7849280D01*
G01X7823880Y2256040D02*
X7849280D01*
G01X7823880Y2250960D02*
X7849280D01*
G01X7823880Y2245880D02*
X7849280D01*
G01X7823880Y2240800D02*
X7849280D01*
G01X7823880Y2215400D02*
X7849280D01*
G01X7823880Y2210320D02*
X7849280D01*
G54D13*
G01X260000Y2710000D02*
X520000D01*
Y2350000D01*
X260000D01*
Y2710000D01*
G01X240000Y6670000D02*
X660000D01*
Y6480000D01*
X240000D01*
Y6670000D01*
G01X2295000Y-2000D02*
X685000D01*
Y2128000D01*
X2295000D01*
Y-2000D01*
G01X1710000Y7930000D02*
Y6480000D01*
X810000D01*
Y7930000D01*
X1710000D01*
G01X1181080Y6292560D02*
X1678920D01*
Y5967440D01*
X1181080D01*
Y6292560D01*
G01X1770000Y7330000D02*
X2630000D01*
Y6470000D01*
X1770000D01*
Y7330000D01*
G01X2070000Y7040000D02*
X2330000D01*
Y6760000D01*
X2070000D01*
Y7040000D01*
G01X3945000Y-2000D02*
X2335000D01*
Y2128000D01*
X3945000D01*
Y-2000D01*
G01X2650000Y4880000D02*
Y5280000D01*
X2970000D01*
Y4880000D01*
X2650000D01*
G01X2810000D02*
Y5060000D01*
X2970000D01*
G01X3660000Y7220000D02*
Y6520000D01*
X2780000D01*
Y7220000D01*
X3660000D01*
G01X3420000Y3360000D02*
X6420000D01*
Y6360000D01*
X3420000D01*
Y3360000D01*
G01X5595000Y-2000D02*
X3985000D01*
Y2128000D01*
X5595000D01*
Y-2000D01*
G01X4450000Y4450000D02*
Y4390000D01*
X4510000D01*
G01Y5330000D02*
X4450000D01*
Y5270000D01*
G01X5330000Y4390000D02*
X5390000D01*
Y4450000D01*
G01Y5270000D02*
Y5330000D01*
X5330000D01*
G01X7245000Y-2000D02*
X5635000D01*
Y2128000D01*
X7245000D01*
Y-2000D01*
G01X8895000D02*
X7285000D01*
Y2128000D01*
X8895000D01*
Y-2000D01*
G01X7450000Y6100000D02*
Y5080000D01*
X8050000D01*
Y6100000D01*
X7450000D01*
G01X7900000Y5270000D02*
X7600000D01*
Y5150000D01*
X7900000D01*
Y5270000D01*
G01Y5520000D02*
X7600000D01*
Y5400000D01*
X7900000D01*
Y5520000D01*
G01Y5780000D02*
X7600000D01*
Y5650000D01*
X7900000D01*
Y5780000D01*
G01Y6030000D02*
X7600000D01*
Y5910000D01*
X7900000D01*
Y6030000D01*
X7850000D01*
Y5910000D01*
G01X7750000Y5148000D02*
Y5268000D01*
X7850000D01*
Y5150000D01*
G01X7750000Y5402000D02*
Y5522000D01*
X7850000D01*
Y5410000D01*
G01X7750000Y5656000D02*
Y5776000D01*
X7850000D01*
Y5660000D01*
G01Y6030000D02*
X7750000D01*
Y5910000D01*
G54D14*
G01X330000Y0D02*
X9250000D01*
G03X9580000Y330000I0J330000D01*
G01Y7170000D01*
G03X9250000Y7500000I-330000J0D01*
G01X330000D01*
G03X0Y7170000I0J-330000D01*
G01Y330000D01*
G03X330000Y0I330000J0D01*
G01X100670Y2930000D02*
Y3040000D01*
X127330D01*
X138000Y3034500D01*
X146000Y3027170D01*
X152670Y3016170D01*
X158000Y3003330D01*
X159330Y2985000D01*
X158000Y2966670D01*
X152670Y2953830D01*
X146000Y2942830D01*
X138000Y2935500D01*
X127330Y2930000D01*
X100670D01*
G01X186670D02*
X220000Y3040000D01*
X253330Y2930000D01*
G01X241330Y2968500D02*
X198670D01*
G01X310000Y3040000D02*
Y2930000D01*
G01X279330Y3040000D02*
X340670D01*
G01X426670Y2930000D02*
X373330D01*
Y3040000D01*
X426670D01*
G01X405330Y2986830D02*
X373330D01*
G01X490000Y2926330D02*
X487330Y2928170D01*
Y2931830D01*
X490000Y2933670D01*
X492670Y2931830D01*
Y2928170D01*
X490000Y2926330D01*
G01Y2975830D02*
X487330Y2977670D01*
Y2981330D01*
X490000Y2983170D01*
X492670Y2981330D01*
Y2977670D01*
X490000Y2975830D01*
G01X554670Y3021670D02*
X562670Y3032660D01*
X572000Y3038170D01*
X582670Y3040000D01*
X596000Y3036330D01*
X605330Y3027170D01*
X608000Y3016170D01*
X606670Y3005160D01*
X601330Y2996000D01*
X574670Y2977670D01*
X562670Y2964830D01*
X554670Y2946500D01*
X552000Y2930000D01*
X608000D01*
G01X670000Y3040000D02*
X659330Y3036330D01*
X651330Y3027170D01*
X646000Y3016170D01*
X642000Y3001500D01*
X640670Y2985000D01*
X642000Y2968500D01*
X646000Y2953830D01*
X651330Y2942830D01*
X659330Y2933670D01*
X670000Y2930000D01*
X680670Y2933670D01*
X688670Y2942830D01*
X694000Y2953830D01*
X698000Y2968500D01*
X699330Y2985000D01*
X698000Y3001500D01*
X694000Y3016170D01*
X688670Y3027170D01*
X680670Y3036330D01*
X670000Y3040000D01*
G01X760000Y2930000D02*
Y3040000D01*
X744000Y3018000D01*
G01Y2930000D02*
X776000D01*
G01X847330D02*
X850000Y2953830D01*
X854000Y2974000D01*
X859330Y2992330D01*
X866000Y3012500D01*
X876670Y3040000D01*
X823330D01*
G01X900000Y2893330D02*
X980000D01*
G01X1030000Y3040000D02*
X1019330Y3036330D01*
X1011330Y3027170D01*
X1006000Y3016170D01*
X1002000Y3001500D01*
X1000670Y2985000D01*
X1002000Y2968500D01*
X1006000Y2953830D01*
X1011330Y2942830D01*
X1019330Y2933670D01*
X1030000Y2930000D01*
X1040670Y2933670D01*
X1048670Y2942830D01*
X1054000Y2953830D01*
X1058000Y2968500D01*
X1059330Y2985000D01*
X1058000Y3001500D01*
X1054000Y3016170D01*
X1048670Y3027170D01*
X1040670Y3036330D01*
X1030000Y3040000D01*
G01X1120000Y2930000D02*
X1129330Y2931830D01*
X1140000Y2937330D01*
X1146670Y2946500D01*
X1149330Y2959330D01*
X1146670Y2972160D01*
X1138670Y2983170D01*
X1126670Y2988670D01*
X1113330D01*
X1105330Y2992330D01*
X1098670Y3001500D01*
X1096000Y3014330D01*
X1100000Y3027170D01*
X1109330Y3036330D01*
X1120000Y3040000D01*
X1130670Y3036330D01*
X1140000Y3027170D01*
X1144000Y3014330D01*
X1141330Y3001500D01*
X1134670Y2992330D01*
X1126670Y2988670D01*
X1113330D01*
X1101330Y2983170D01*
X1093330Y2972160D01*
X1090670Y2959330D01*
X1093330Y2946500D01*
X1100000Y2937330D01*
X1110670Y2931830D01*
X1120000Y2930000D01*
G01X1170000Y2893330D02*
X1250000D01*
G01X1300000Y2930000D02*
Y3040000D01*
X1284000Y3018000D01*
G01Y2930000D02*
X1316000D01*
G01X1360670Y2946500D02*
X1368670Y2937330D01*
X1378000Y2931830D01*
X1390000Y2930000D01*
X1402000Y2933670D01*
X1411330Y2941000D01*
X1418000Y2953830D01*
X1419330Y2968500D01*
X1416670Y2983170D01*
X1410000Y2992330D01*
X1400670Y2999670D01*
X1391330Y3001500D01*
X1382000Y2999670D01*
X1370000Y2992330D01*
X1374000Y3040000D01*
X1410000D01*
G01X99330Y3120000D02*
Y3230000D01*
X160670Y3120000D01*
Y3230000D01*
G01X186670Y3120000D02*
X220000Y3230000D01*
X253330Y3120000D01*
G01X241330Y3158500D02*
X198670D01*
G01X275330Y3120000D02*
Y3230000D01*
X310000Y3138330D01*
X344670Y3230000D01*
Y3120000D01*
G01X426670D02*
X373330D01*
Y3230000D01*
X426670D01*
G01X405330Y3176830D02*
X373330D01*
G01X490000Y3116330D02*
X487330Y3118170D01*
Y3121830D01*
X490000Y3123670D01*
X492670Y3121830D01*
Y3118170D01*
X490000Y3116330D01*
G01Y3165830D02*
X487330Y3167670D01*
Y3171330D01*
X490000Y3173170D01*
X492670Y3171330D01*
Y3167670D01*
X490000Y3165830D01*
G01X580000Y3120000D02*
X589330Y3121830D01*
X600000Y3127330D01*
X606670Y3136500D01*
X609330Y3149330D01*
X606670Y3162160D01*
X598670Y3173170D01*
X586670Y3178670D01*
X573330D01*
X565330Y3182330D01*
X558670Y3191500D01*
X556000Y3204330D01*
X560000Y3217170D01*
X569330Y3226330D01*
X580000Y3230000D01*
X590670Y3226330D01*
X600000Y3217170D01*
X604000Y3204330D01*
X601330Y3191500D01*
X594670Y3182330D01*
X586670Y3178670D01*
X573330D01*
X561330Y3173170D01*
X553330Y3162160D01*
X550670Y3149330D01*
X553330Y3136500D01*
X560000Y3127330D01*
X570670Y3121830D01*
X580000Y3120000D01*
G01X670000D02*
X679330Y3121830D01*
X690000Y3127330D01*
X696670Y3136500D01*
X699330Y3149330D01*
X696670Y3162160D01*
X688670Y3173170D01*
X676670Y3178670D01*
X663330D01*
X655330Y3182330D01*
X648670Y3191500D01*
X646000Y3204330D01*
X650000Y3217170D01*
X659330Y3226330D01*
X670000Y3230000D01*
X680670Y3226330D01*
X690000Y3217170D01*
X694000Y3204330D01*
X691330Y3191500D01*
X684670Y3182330D01*
X676670Y3178670D01*
X663330D01*
X651330Y3173170D01*
X643330Y3162160D01*
X640670Y3149330D01*
X643330Y3136500D01*
X650000Y3127330D01*
X660670Y3121830D01*
X670000Y3120000D01*
G01X786670D02*
X733330D01*
Y3230000D01*
X786670D01*
G01X765330Y3176830D02*
X733330D01*
G01X824670Y3165830D02*
X834000Y3178670D01*
X842000Y3186000D01*
X852670Y3189670D01*
X862000Y3186000D01*
X868670Y3178670D01*
X874000Y3167670D01*
X875330Y3154830D01*
X874000Y3143830D01*
X868670Y3132830D01*
X860670Y3123670D01*
X851330Y3120000D01*
X840670Y3123670D01*
X831330Y3134660D01*
X826000Y3151170D01*
X824670Y3169500D01*
X827330Y3193330D01*
X831330Y3206170D01*
X838000Y3219000D01*
X847330Y3228170D01*
X856670Y3230000D01*
X866000Y3226330D01*
X872670Y3217170D01*
G01X940000Y3230000D02*
X929330Y3226330D01*
X921330Y3217170D01*
X916000Y3206170D01*
X912000Y3191500D01*
X910670Y3175000D01*
X912000Y3158500D01*
X916000Y3143830D01*
X921330Y3132830D01*
X929330Y3123670D01*
X940000Y3120000D01*
X950670Y3123670D01*
X958670Y3132830D01*
X964000Y3143830D01*
X968000Y3158500D01*
X969330Y3175000D01*
X968000Y3191500D01*
X964000Y3206170D01*
X958670Y3217170D01*
X950670Y3226330D01*
X940000Y3230000D01*
G01X1027330Y3120000D02*
X1030000Y3143830D01*
X1034000Y3164000D01*
X1039330Y3182330D01*
X1046000Y3202500D01*
X1056670Y3230000D01*
X1003330D01*
G01X1120000Y3120000D02*
Y3230000D01*
X1104000Y3208000D01*
G01Y3120000D02*
X1136000D01*
G01X1170000Y3083330D02*
X1250000D01*
G01X1300000Y3230000D02*
Y3120000D01*
G01X1269330Y3230000D02*
X1330670D01*
G01X1416670Y3120000D02*
X1363330D01*
Y3230000D01*
X1416670D01*
G01X1395330Y3176830D02*
X1363330D01*
G01X1452000Y3134660D02*
X1462670Y3125500D01*
X1474670Y3120000D01*
X1485330D01*
X1496000Y3125500D01*
X1504000Y3134660D01*
X1508000Y3147500D01*
X1505330Y3160330D01*
X1498670Y3171330D01*
X1486670Y3178670D01*
X1470670Y3182330D01*
X1461330Y3189670D01*
X1457330Y3202500D01*
X1460000Y3215330D01*
X1466670Y3224500D01*
X1476000Y3230000D01*
X1485330D01*
X1494670Y3226330D01*
X1502670Y3217170D01*
G01X1570000Y3230000D02*
Y3120000D01*
G01X1539330Y3230000D02*
X1600670D01*
G01X1620000Y3083330D02*
X1700000D01*
G01X1716670Y3230000D02*
X1750000Y3120000D01*
X1783330Y3230000D01*
G01X1840000Y3120000D02*
Y3230000D01*
X1824000Y3208000D01*
G01Y3120000D02*
X1856000D01*
G01X1930000Y3230000D02*
X1919330Y3226330D01*
X1911330Y3217170D01*
X1906000Y3206170D01*
X1902000Y3191500D01*
X1900670Y3175000D01*
X1902000Y3158500D01*
X1906000Y3143830D01*
X1911330Y3132830D01*
X1919330Y3123670D01*
X1930000Y3120000D01*
X1940670Y3123670D01*
X1948670Y3132830D01*
X1954000Y3143830D01*
X1958000Y3158500D01*
X1959330Y3175000D01*
X1958000Y3191500D01*
X1954000Y3206170D01*
X1948670Y3217170D01*
X1940670Y3226330D01*
X1930000Y3230000D01*
G01X2030670Y3178670D02*
X2036000Y3184170D01*
X2040000Y3193330D01*
X2042670Y3206170D01*
X2040000Y3217170D01*
X2034670Y3224500D01*
X2025330Y3230000D01*
X1989330D01*
Y3120000D01*
X2033330D01*
X2042670Y3127330D01*
X2048000Y3138330D01*
X2050670Y3151170D01*
X2048000Y3164000D01*
X2040000Y3175000D01*
X2030670Y3178670D01*
X1989330D01*
G01X2110000Y3116330D02*
X2107330Y3118170D01*
Y3121830D01*
X2110000Y3123670D01*
X2112670Y3121830D01*
Y3118170D01*
X2110000Y3116330D01*
G01X2210670Y3178670D02*
X2216000Y3184170D01*
X2220000Y3193330D01*
X2222670Y3206170D01*
X2220000Y3217170D01*
X2214670Y3224500D01*
X2205330Y3230000D01*
X2169330D01*
Y3120000D01*
X2213330D01*
X2222670Y3127330D01*
X2228000Y3138330D01*
X2230670Y3151170D01*
X2228000Y3164000D01*
X2220000Y3175000D01*
X2210670Y3178670D01*
X2169330D01*
G01X2263330Y3120000D02*
Y3230000D01*
X2296670D01*
X2307330Y3224500D01*
X2314000Y3217170D01*
X2316670Y3202500D01*
X2314000Y3187830D01*
X2306000Y3178670D01*
X2296670Y3173170D01*
X2263330D01*
G01X2296670D02*
X2316670Y3120000D01*
G01X2350670D02*
Y3230000D01*
X2377330D01*
X2388000Y3224500D01*
X2396000Y3217170D01*
X2402670Y3206170D01*
X2408000Y3193330D01*
X2409330Y3175000D01*
X2408000Y3156670D01*
X2402670Y3143830D01*
X2396000Y3132830D01*
X2388000Y3125500D01*
X2377330Y3120000D01*
X2350670D01*
G01X92000Y3310000D02*
Y3420000D01*
G01X148000D02*
Y3310000D01*
G01Y3365000D02*
X92000D01*
G01X210000Y3310000D02*
Y3359500D01*
X183330Y3420000D01*
G01X236670D02*
X210000Y3359500D01*
G01X300000Y3310000D02*
X289330Y3311830D01*
X280000Y3319160D01*
X272000Y3330170D01*
X266670Y3343000D01*
X264000Y3357670D01*
Y3372330D01*
X266670Y3387000D01*
X272000Y3399830D01*
X280000Y3410830D01*
X289330Y3418170D01*
X300000Y3420000D01*
X310670Y3418170D01*
X320000Y3410830D01*
X328000Y3399830D01*
X333330Y3387000D01*
X336000Y3372330D01*
Y3357670D01*
X333330Y3343000D01*
X328000Y3330170D01*
X320000Y3319160D01*
X310670Y3311830D01*
X300000Y3310000D01*
G01X419330Y3410830D02*
X411330Y3416330D01*
X402000Y3420000D01*
X391330D01*
X379330Y3414500D01*
X370000Y3405330D01*
X363330Y3394330D01*
X358000Y3376000D01*
X356670Y3359500D01*
X359330Y3343000D01*
X363330Y3332000D01*
X371330Y3321000D01*
X380670Y3313670D01*
X390000Y3310000D01*
X399330D01*
X408670Y3313670D01*
X416670Y3319160D01*
X423330Y3326500D01*
G01X65330Y6720000D02*
Y6830000D01*
X100000Y6738330D01*
X134670Y6830000D01*
Y6720000D01*
G01X162000D02*
Y6830000D01*
G01X218000D02*
Y6720000D01*
G01Y6775000D02*
X162000D01*
G01X296000Y6720000D02*
Y6830000D01*
X246670Y6751170D01*
X313330D01*
G01X206010Y715880D02*
Y825880D01*
X240680Y734210D01*
X275350Y825880D01*
Y715880D01*
G01X302680D02*
Y825880D01*
G01X358680D02*
Y715880D01*
G01Y770880D02*
X302680D01*
G01X420680Y715880D02*
Y825880D01*
X404680Y803880D01*
G01Y715880D02*
X436680D01*
G01X284670Y2760000D02*
Y2870000D01*
X335330D01*
G01X316670Y2816830D02*
X284670D01*
G01X410670Y2818670D02*
X416000Y2824170D01*
X420000Y2833330D01*
X422670Y2846170D01*
X420000Y2857170D01*
X414670Y2864500D01*
X405330Y2870000D01*
X369330D01*
Y2760000D01*
X413330D01*
X422670Y2767330D01*
X428000Y2778330D01*
X430670Y2791170D01*
X428000Y2804000D01*
X420000Y2815000D01*
X410670Y2818670D01*
X369330D01*
G01X490000Y2760000D02*
Y2870000D01*
X474000Y2848000D01*
G01Y2760000D02*
X506000D01*
G01X313330Y4370000D02*
Y4480000D01*
X345330D01*
X356000Y4474500D01*
X364000Y4461670D01*
X366670Y4447000D01*
X364000Y4432330D01*
X357330Y4421330D01*
X345330Y4415830D01*
X313330D01*
G01X430000Y4370000D02*
X419330Y4371830D01*
X410000Y4379160D01*
X402000Y4390170D01*
X396670Y4403000D01*
X394000Y4417670D01*
Y4432330D01*
X396670Y4447000D01*
X402000Y4459830D01*
X410000Y4470830D01*
X419330Y4478170D01*
X430000Y4480000D01*
X440670Y4478170D01*
X450000Y4470830D01*
X458000Y4459830D01*
X463330Y4447000D01*
X466000Y4432330D01*
Y4417670D01*
X463330Y4403000D01*
X458000Y4390170D01*
X450000Y4379160D01*
X440670Y4371830D01*
X430000Y4370000D01*
G01X493330D02*
Y4480000D01*
X526670D01*
X537330Y4474500D01*
X544000Y4467170D01*
X546670Y4452500D01*
X544000Y4437830D01*
X536000Y4428670D01*
X526670Y4423170D01*
X493330D01*
G01X526670D02*
X546670Y4370000D01*
G01X610000Y4480000D02*
Y4370000D01*
G01X579330Y4480000D02*
X640670D01*
G01X670670Y4386500D02*
X678670Y4377330D01*
X688000Y4371830D01*
X700000Y4370000D01*
X712000Y4373670D01*
X721330Y4381000D01*
X728000Y4393830D01*
X729330Y4408500D01*
X726670Y4423170D01*
X720000Y4432330D01*
X710670Y4439670D01*
X701330Y4441500D01*
X692000Y4439670D01*
X680000Y4432330D01*
X684000Y4480000D01*
X720000D01*
G01X280670Y6520000D02*
Y6630000D01*
X307330D01*
X318000Y6624500D01*
X326000Y6617170D01*
X332670Y6606170D01*
X338000Y6593330D01*
X339330Y6575000D01*
X338000Y6556670D01*
X332670Y6543830D01*
X326000Y6532830D01*
X318000Y6525500D01*
X307330Y6520000D01*
X280670D01*
G01X429330Y6620830D02*
X421330Y6626330D01*
X412000Y6630000D01*
X401330D01*
X389330Y6624500D01*
X380000Y6615330D01*
X373330Y6604330D01*
X368000Y6586000D01*
X366670Y6569500D01*
X369330Y6553000D01*
X373330Y6542000D01*
X381330Y6531000D01*
X390670Y6523670D01*
X400000Y6520000D01*
X409330D01*
X418670Y6523670D01*
X426670Y6529160D01*
X433330Y6536500D01*
G01X460670D02*
X468670Y6527330D01*
X478000Y6521830D01*
X490000Y6520000D01*
X502000Y6523670D01*
X511330Y6531000D01*
X518000Y6543830D01*
X519330Y6558500D01*
X516670Y6573170D01*
X510000Y6582330D01*
X500670Y6589670D01*
X491330Y6591500D01*
X482000Y6589670D01*
X470000Y6582330D01*
X474000Y6630000D01*
X510000D01*
G01X546670D02*
X580000Y6520000D01*
X613330Y6630000D01*
G01X519330Y6180830D02*
X511330Y6186330D01*
X502000Y6190000D01*
X491330D01*
X479330Y6184500D01*
X470000Y6175330D01*
X463330Y6164330D01*
X458000Y6146000D01*
X456670Y6129500D01*
X459330Y6113000D01*
X463330Y6102000D01*
X471330Y6091000D01*
X480670Y6083670D01*
X490000Y6080000D01*
X499330D01*
X508670Y6083670D01*
X516670Y6089160D01*
X523330Y6096500D01*
G01X596000Y6080000D02*
Y6190000D01*
X546670Y6111170D01*
X613330D01*
G01X670000Y6080000D02*
Y6190000D01*
X654000Y6168000D01*
G01Y6080000D02*
X686000D01*
G01X543070Y5688100D02*
Y5798100D01*
X569730D01*
X580400Y5792600D01*
X588400Y5785270D01*
X595070Y5774270D01*
X600400Y5761430D01*
X601730Y5743100D01*
X600400Y5724770D01*
X595070Y5711930D01*
X588400Y5700930D01*
X580400Y5693600D01*
X569730Y5688100D01*
X543070D01*
G01X662400D02*
Y5798100D01*
X646400Y5776100D01*
G01Y5688100D02*
X678400D01*
G01X768400D02*
Y5798100D01*
X719070Y5719270D01*
X785730D01*
G01X813330Y4290000D02*
Y4180000D01*
X866670D01*
G01X914000Y4290000D02*
X946000D01*
G01X930000D02*
Y4180000D01*
G01X914000D02*
X946000D01*
G01X989330D02*
Y4290000D01*
X1050670Y4180000D01*
Y4290000D01*
G01X1080670Y4180000D02*
Y4290000D01*
G01X1131330D02*
X1080670Y4222160D01*
G01X1139330Y4180000D02*
X1103330Y4253330D01*
G01X820670Y6320000D02*
Y6430000D01*
X847330D01*
X858000Y6424500D01*
X866000Y6417170D01*
X872670Y6406170D01*
X878000Y6393330D01*
X879330Y6375000D01*
X878000Y6356670D01*
X872670Y6343830D01*
X866000Y6332830D01*
X858000Y6325500D01*
X847330Y6320000D01*
X820670D01*
G01X969330Y6420830D02*
X961330Y6426330D01*
X952000Y6430000D01*
X941330D01*
X929330Y6424500D01*
X920000Y6415330D01*
X913330Y6404330D01*
X908000Y6386000D01*
X906670Y6369500D01*
X909330Y6353000D01*
X913330Y6342000D01*
X921330Y6331000D01*
X930670Y6323670D01*
X940000Y6320000D01*
X949330D01*
X958670Y6323670D01*
X966670Y6329160D01*
X973330Y6336500D01*
G01X1030000Y6320000D02*
Y6430000D01*
X1014000Y6408000D01*
G01Y6320000D02*
X1046000D01*
G01X1299170Y2689330D02*
X1293670Y2681330D01*
X1290000Y2672000D01*
Y2661330D01*
X1295500Y2649330D01*
X1304670Y2640000D01*
X1315670Y2633330D01*
X1334000Y2628000D01*
X1350500Y2626670D01*
X1367000Y2629330D01*
X1378000Y2633330D01*
X1389000Y2641330D01*
X1396330Y2650670D01*
X1400000Y2660000D01*
Y2669330D01*
X1396330Y2678670D01*
X1390840Y2686670D01*
X1383500Y2693330D01*
G01Y2720670D02*
X1392670Y2728670D01*
X1398170Y2738000D01*
X1400000Y2750000D01*
X1396330Y2762000D01*
X1389000Y2771330D01*
X1376170Y2778000D01*
X1361500Y2779330D01*
X1346830Y2776670D01*
X1337670Y2770000D01*
X1330330Y2760670D01*
X1328500Y2751330D01*
X1330330Y2742000D01*
X1337670Y2730000D01*
X1290000Y2734000D01*
Y2770000D01*
G01X1242000Y4194660D02*
X1252670Y4185500D01*
X1264670Y4180000D01*
X1275330D01*
X1286000Y4185500D01*
X1294000Y4194660D01*
X1298000Y4207500D01*
X1295330Y4220330D01*
X1288670Y4231330D01*
X1276670Y4238670D01*
X1260670Y4242330D01*
X1251330Y4249670D01*
X1247330Y4262500D01*
X1250000Y4275330D01*
X1256670Y4284500D01*
X1266000Y4290000D01*
X1275330D01*
X1284670Y4286330D01*
X1292670Y4277170D01*
G01X1333330Y4180000D02*
Y4290000D01*
X1365330D01*
X1376000Y4284500D01*
X1384000Y4271670D01*
X1386670Y4257000D01*
X1384000Y4242330D01*
X1377330Y4231330D01*
X1365330Y4225830D01*
X1333330D01*
G01X1476670Y4180000D02*
X1423330D01*
Y4290000D01*
X1476670D01*
G01X1455330Y4236830D02*
X1423330D01*
G01X1566670Y4180000D02*
X1513330D01*
Y4290000D01*
X1566670D01*
G01X1545330Y4236830D02*
X1513330D01*
G01X1600670Y4180000D02*
Y4290000D01*
X1627330D01*
X1638000Y4284500D01*
X1646000Y4277170D01*
X1652670Y4266170D01*
X1658000Y4253330D01*
X1659330Y4235000D01*
X1658000Y4216670D01*
X1652670Y4203830D01*
X1646000Y4192830D01*
X1638000Y4185500D01*
X1627330Y4180000D01*
X1600670D01*
G01X1459170Y2689330D02*
X1453670Y2681330D01*
X1450000Y2672000D01*
Y2661330D01*
X1455500Y2649330D01*
X1464670Y2640000D01*
X1475670Y2633330D01*
X1494000Y2628000D01*
X1510500Y2626670D01*
X1527000Y2629330D01*
X1538000Y2633330D01*
X1549000Y2641330D01*
X1556330Y2650670D01*
X1560000Y2660000D01*
Y2669330D01*
X1556330Y2678670D01*
X1550840Y2686670D01*
X1543500Y2693330D01*
G01X1514170Y2724670D02*
X1501330Y2734000D01*
X1494000Y2742000D01*
X1490330Y2752670D01*
X1494000Y2762000D01*
X1501330Y2768670D01*
X1512330Y2774000D01*
X1525170Y2775330D01*
X1536170Y2774000D01*
X1547170Y2768670D01*
X1556330Y2760670D01*
X1560000Y2751330D01*
X1556330Y2740670D01*
X1545340Y2731330D01*
X1528830Y2726000D01*
X1510500Y2724670D01*
X1486670Y2727330D01*
X1473830Y2731330D01*
X1461000Y2738000D01*
X1451830Y2747330D01*
X1450000Y2756670D01*
X1453670Y2766000D01*
X1462830Y2772670D01*
G01X1660670Y4370000D02*
Y4480000D01*
X1687330D01*
X1698000Y4474500D01*
X1706000Y4467170D01*
X1712670Y4456170D01*
X1718000Y4443330D01*
X1719330Y4425000D01*
X1718000Y4406670D01*
X1712670Y4393830D01*
X1706000Y4382830D01*
X1698000Y4375500D01*
X1687330Y4370000D01*
X1660670D01*
G01X1780000D02*
Y4480000D01*
X1764000Y4458000D01*
G01Y4370000D02*
X1796000D01*
G01X1840670Y4392000D02*
X1848670Y4379160D01*
X1859330Y4371830D01*
X1871330Y4370000D01*
X1882000Y4371830D01*
X1892670Y4381000D01*
X1899330Y4392000D01*
X1900670Y4403000D01*
X1898000Y4415830D01*
X1888670Y4425000D01*
X1879330Y4428670D01*
X1867330D01*
G01X1879330D02*
X1887330Y4434170D01*
X1894000Y4443330D01*
X1896670Y4454330D01*
X1894000Y4465330D01*
X1887330Y4474500D01*
X1875330Y4480000D01*
X1863330Y4478170D01*
X1851330Y4470830D01*
G01X1658270Y4568380D02*
Y4678380D01*
X1684930D01*
X1695600Y4672880D01*
X1703600Y4665550D01*
X1710270Y4654550D01*
X1715600Y4641710D01*
X1716930Y4623380D01*
X1715600Y4605050D01*
X1710270Y4592210D01*
X1703600Y4581210D01*
X1695600Y4573880D01*
X1684930Y4568380D01*
X1658270D01*
G01X1777600D02*
Y4678380D01*
X1761600Y4656380D01*
G01Y4568380D02*
X1793600D01*
G01X1842270Y4660050D02*
X1850270Y4671040D01*
X1859600Y4676550D01*
X1870270Y4678380D01*
X1883600Y4674710D01*
X1892930Y4665550D01*
X1895600Y4654550D01*
X1894270Y4643540D01*
X1888930Y4634380D01*
X1862270Y4616050D01*
X1850270Y4603210D01*
X1842270Y4584880D01*
X1839600Y4568380D01*
X1895600D01*
G01X1658270Y4766760D02*
Y4876760D01*
X1684930D01*
X1695600Y4871260D01*
X1703600Y4863930D01*
X1710270Y4852930D01*
X1715600Y4840090D01*
X1716930Y4821760D01*
X1715600Y4803430D01*
X1710270Y4790590D01*
X1703600Y4779590D01*
X1695600Y4772260D01*
X1684930Y4766760D01*
X1658270D01*
G01X1777600D02*
Y4876760D01*
X1761600Y4854760D01*
G01Y4766760D02*
X1793600D01*
G01X1867600D02*
Y4876760D01*
X1851600Y4854760D01*
G01Y4766760D02*
X1883600D01*
G01X1658270Y4965140D02*
Y5075140D01*
X1684930D01*
X1695600Y5069640D01*
X1703600Y5062310D01*
X1710270Y5051310D01*
X1715600Y5038470D01*
X1716930Y5020140D01*
X1715600Y5001810D01*
X1710270Y4988970D01*
X1703600Y4977970D01*
X1695600Y4970640D01*
X1684930Y4965140D01*
X1658270D01*
G01X1777600D02*
Y5075140D01*
X1761600Y5053140D01*
G01Y4965140D02*
X1793600D01*
G01X1867600Y5075140D02*
X1856930Y5071470D01*
X1848930Y5062310D01*
X1843600Y5051310D01*
X1839600Y5036640D01*
X1838270Y5020140D01*
X1839600Y5003640D01*
X1843600Y4988970D01*
X1848930Y4977970D01*
X1856930Y4968810D01*
X1867600Y4965140D01*
X1878270Y4968810D01*
X1886270Y4977970D01*
X1891600Y4988970D01*
X1895600Y5003640D01*
X1896930Y5020140D01*
X1895600Y5036640D01*
X1891600Y5051310D01*
X1886270Y5062310D01*
X1878270Y5071470D01*
X1867600Y5075140D01*
G01X1658270Y5163520D02*
Y5273520D01*
X1684930D01*
X1695600Y5268020D01*
X1703600Y5260690D01*
X1710270Y5249690D01*
X1715600Y5236850D01*
X1716930Y5218520D01*
X1715600Y5200190D01*
X1710270Y5187350D01*
X1703600Y5176350D01*
X1695600Y5169020D01*
X1684930Y5163520D01*
X1658270D01*
G01X1754930Y5176350D02*
X1764270Y5167190D01*
X1774930Y5163520D01*
X1785600Y5167190D01*
X1794930Y5178180D01*
X1801600Y5194690D01*
X1804270Y5211190D01*
Y5231350D01*
X1801600Y5247850D01*
X1794930Y5262520D01*
X1786930Y5269850D01*
X1777600Y5273520D01*
X1766930Y5269850D01*
X1758930Y5262520D01*
X1753600Y5251520D01*
X1750930Y5236850D01*
X1753600Y5224020D01*
X1760270Y5211190D01*
X1768270Y5203850D01*
X1777600Y5202020D01*
X1788270Y5205680D01*
X1796270Y5214850D01*
X1804270Y5231350D01*
G01X1658270Y5361900D02*
Y5471900D01*
X1684930D01*
X1695600Y5466400D01*
X1703600Y5459070D01*
X1710270Y5448070D01*
X1715600Y5435230D01*
X1716930Y5416900D01*
X1715600Y5398570D01*
X1710270Y5385730D01*
X1703600Y5374730D01*
X1695600Y5367400D01*
X1684930Y5361900D01*
X1658270D01*
G01X1777600D02*
X1786930Y5363730D01*
X1797600Y5369230D01*
X1804270Y5378400D01*
X1806930Y5391230D01*
X1804270Y5404060D01*
X1796270Y5415070D01*
X1784270Y5420570D01*
X1770930D01*
X1762930Y5424230D01*
X1756270Y5433400D01*
X1753600Y5446230D01*
X1757600Y5459070D01*
X1766930Y5468230D01*
X1777600Y5471900D01*
X1788270Y5468230D01*
X1797600Y5459070D01*
X1801600Y5446230D01*
X1798930Y5433400D01*
X1792270Y5424230D01*
X1784270Y5420570D01*
X1770930D01*
X1758930Y5415070D01*
X1750930Y5404060D01*
X1748270Y5391230D01*
X1750930Y5378400D01*
X1757600Y5369230D01*
X1768270Y5363730D01*
X1777600Y5361900D01*
G01X1603330Y5700000D02*
Y5810000D01*
X1636670D01*
X1647330Y5804500D01*
X1654000Y5797170D01*
X1656670Y5782500D01*
X1654000Y5767830D01*
X1646000Y5758670D01*
X1636670Y5753170D01*
X1603330D01*
G01X1636670D02*
X1656670Y5700000D01*
G01X1736000D02*
Y5810000D01*
X1686670Y5731170D01*
X1753330D01*
G01X1784670Y5791670D02*
X1792670Y5802660D01*
X1802000Y5808170D01*
X1812670Y5810000D01*
X1826000Y5806330D01*
X1835330Y5797170D01*
X1838000Y5786170D01*
X1836670Y5775160D01*
X1831330Y5766000D01*
X1804670Y5747670D01*
X1792670Y5734830D01*
X1784670Y5716500D01*
X1782000Y5700000D01*
X1838000D01*
G01X1744670Y6010000D02*
Y6120000D01*
X1795330D01*
G01X1776670Y6066830D02*
X1744670D01*
G01X1860000Y6010000D02*
Y6120000D01*
X1844000Y6098000D01*
G01Y6010000D02*
X1876000D01*
G01X1770670Y7470000D02*
Y7391170D01*
X1776000Y7374660D01*
X1786670Y7363670D01*
X1800000Y7360000D01*
X1813330Y7363670D01*
X1824000Y7374660D01*
X1829330Y7391170D01*
Y7470000D01*
G01X1864670Y7451670D02*
X1872670Y7462660D01*
X1882000Y7468170D01*
X1892670Y7470000D01*
X1906000Y7466330D01*
X1915330Y7457170D01*
X1918000Y7446170D01*
X1916670Y7435160D01*
X1911330Y7426000D01*
X1884670Y7407670D01*
X1872670Y7394830D01*
X1864670Y7376500D01*
X1862000Y7360000D01*
X1918000D01*
G01X1980000D02*
Y7470000D01*
X1964000Y7448000D01*
G01Y7360000D02*
X1996000D01*
G01X1903330Y2202000D02*
X1910000Y2191000D01*
X1918000Y2183670D01*
X1927330Y2180000D01*
X1938000Y2183670D01*
X1946000Y2191000D01*
X1954000Y2202000D01*
X1956670Y2216670D01*
Y2290000D01*
G01X2020000Y2180000D02*
Y2290000D01*
X2004000Y2268000D01*
G01Y2180000D02*
X2036000D01*
G01X1990670Y4380000D02*
Y4490000D01*
X2017330D01*
X2028000Y4484500D01*
X2036000Y4477170D01*
X2042670Y4466170D01*
X2048000Y4453330D01*
X2049330Y4435000D01*
X2048000Y4416670D01*
X2042670Y4403830D01*
X2036000Y4392830D01*
X2028000Y4385500D01*
X2017330Y4380000D01*
X1990670D01*
G01X2107330D02*
X2110000Y4403830D01*
X2114000Y4424000D01*
X2119330Y4442330D01*
X2126000Y4462500D01*
X2136670Y4490000D01*
X2083330D01*
G01X1993070Y4575620D02*
Y4685620D01*
X2019730D01*
X2030400Y4680120D01*
X2038400Y4672790D01*
X2045070Y4661790D01*
X2050400Y4648950D01*
X2051730Y4630620D01*
X2050400Y4612290D01*
X2045070Y4599450D01*
X2038400Y4588450D01*
X2030400Y4581120D01*
X2019730Y4575620D01*
X1993070D01*
G01X2087070Y4621450D02*
X2096400Y4634290D01*
X2104400Y4641620D01*
X2115070Y4645290D01*
X2124400Y4641620D01*
X2131070Y4634290D01*
X2136400Y4623290D01*
X2137730Y4610450D01*
X2136400Y4599450D01*
X2131070Y4588450D01*
X2123070Y4579290D01*
X2113730Y4575620D01*
X2103070Y4579290D01*
X2093730Y4590280D01*
X2088400Y4606790D01*
X2087070Y4625120D01*
X2089730Y4648950D01*
X2093730Y4661790D01*
X2100400Y4674620D01*
X2109730Y4683790D01*
X2119070Y4685620D01*
X2128400Y4681950D01*
X2135070Y4672790D01*
G01X1993070Y4771240D02*
Y4881240D01*
X2019730D01*
X2030400Y4875740D01*
X2038400Y4868410D01*
X2045070Y4857410D01*
X2050400Y4844570D01*
X2051730Y4826240D01*
X2050400Y4807910D01*
X2045070Y4795070D01*
X2038400Y4784070D01*
X2030400Y4776740D01*
X2019730Y4771240D01*
X1993070D01*
G01X2083070Y4787740D02*
X2091070Y4778570D01*
X2100400Y4773070D01*
X2112400Y4771240D01*
X2124400Y4774910D01*
X2133730Y4782240D01*
X2140400Y4795070D01*
X2141730Y4809740D01*
X2139070Y4824410D01*
X2132400Y4833570D01*
X2123070Y4840910D01*
X2113730Y4842740D01*
X2104400Y4840910D01*
X2092400Y4833570D01*
X2096400Y4881240D01*
X2132400D01*
G01X1993070Y4966860D02*
Y5076860D01*
X2019730D01*
X2030400Y5071360D01*
X2038400Y5064030D01*
X2045070Y5053030D01*
X2050400Y5040190D01*
X2051730Y5021860D01*
X2050400Y5003530D01*
X2045070Y4990690D01*
X2038400Y4979690D01*
X2030400Y4972360D01*
X2019730Y4966860D01*
X1993070D01*
G01X2128400D02*
Y5076860D01*
X2079070Y4998030D01*
X2145730D01*
G01X1993070Y5162480D02*
Y5272480D01*
X2019730D01*
X2030400Y5266980D01*
X2038400Y5259650D01*
X2045070Y5248650D01*
X2050400Y5235810D01*
X2051730Y5217480D01*
X2050400Y5199150D01*
X2045070Y5186310D01*
X2038400Y5175310D01*
X2030400Y5167980D01*
X2019730Y5162480D01*
X1993070D01*
G01X2083070Y5184480D02*
X2091070Y5171640D01*
X2101730Y5164310D01*
X2113730Y5162480D01*
X2124400Y5164310D01*
X2135070Y5173480D01*
X2141730Y5184480D01*
X2143070Y5195480D01*
X2140400Y5208310D01*
X2131070Y5217480D01*
X2121730Y5221150D01*
X2109730D01*
G01X2121730D02*
X2129730Y5226650D01*
X2136400Y5235810D01*
X2139070Y5246810D01*
X2136400Y5257810D01*
X2129730Y5266980D01*
X2117730Y5272480D01*
X2105730Y5270650D01*
X2093730Y5263310D01*
G01X1993070Y5358100D02*
Y5468100D01*
X2019730D01*
X2030400Y5462600D01*
X2038400Y5455270D01*
X2045070Y5444270D01*
X2050400Y5431430D01*
X2051730Y5413100D01*
X2050400Y5394770D01*
X2045070Y5381930D01*
X2038400Y5370930D01*
X2030400Y5363600D01*
X2019730Y5358100D01*
X1993070D01*
G01X2087070Y5449770D02*
X2095070Y5460760D01*
X2104400Y5466270D01*
X2115070Y5468100D01*
X2128400Y5464430D01*
X2137730Y5455270D01*
X2140400Y5444270D01*
X2139070Y5433260D01*
X2133730Y5424100D01*
X2107070Y5405770D01*
X2095070Y5392930D01*
X2087070Y5374600D01*
X2084400Y5358100D01*
X2140400D01*
G01X2409330Y6380830D02*
X2401330Y6386330D01*
X2392000Y6390000D01*
X2381330D01*
X2369330Y6384500D01*
X2360000Y6375330D01*
X2353330Y6364330D01*
X2348000Y6346000D01*
X2346670Y6329500D01*
X2349330Y6313000D01*
X2353330Y6302000D01*
X2361330Y6291000D01*
X2370670Y6283670D01*
X2380000Y6280000D01*
X2389330D01*
X2398670Y6283670D01*
X2406670Y6289160D01*
X2413330Y6296500D01*
G01X2486000Y6280000D02*
Y6390000D01*
X2436670Y6311170D01*
X2503330D01*
G01X2530670Y6302000D02*
X2538670Y6289160D01*
X2549330Y6281830D01*
X2561330Y6280000D01*
X2572000Y6281830D01*
X2582670Y6291000D01*
X2589330Y6302000D01*
X2590670Y6313000D01*
X2588000Y6325830D01*
X2578670Y6335000D01*
X2569330Y6338670D01*
X2557330D01*
G01X2569330D02*
X2577330Y6344170D01*
X2584000Y6353330D01*
X2586670Y6364330D01*
X2584000Y6375330D01*
X2577330Y6384500D01*
X2565330Y6390000D01*
X2553330Y6388170D01*
X2541330Y6380830D01*
G01X2440670Y5150000D02*
Y5071170D01*
X2446000Y5054660D01*
X2456670Y5043670D01*
X2470000Y5040000D01*
X2483330Y5043670D01*
X2494000Y5054660D01*
X2499330Y5071170D01*
Y5150000D01*
G01X2534670Y5131670D02*
X2542670Y5142660D01*
X2552000Y5148170D01*
X2562670Y5150000D01*
X2576000Y5146330D01*
X2585330Y5137170D01*
X2588000Y5126170D01*
X2586670Y5115160D01*
X2581330Y5106000D01*
X2554670Y5087670D01*
X2542670Y5074830D01*
X2534670Y5056500D01*
X2532000Y5040000D01*
X2588000D01*
G01X2790670Y7370000D02*
Y7291170D01*
X2796000Y7274660D01*
X2806670Y7263670D01*
X2820000Y7260000D01*
X2833330Y7263670D01*
X2844000Y7274660D01*
X2849330Y7291170D01*
Y7370000D01*
G01X2880670Y7282000D02*
X2888670Y7269160D01*
X2899330Y7261830D01*
X2911330Y7260000D01*
X2922000Y7261830D01*
X2932670Y7271000D01*
X2939330Y7282000D01*
X2940670Y7293000D01*
X2938000Y7305830D01*
X2928670Y7315000D01*
X2919330Y7318670D01*
X2907330D01*
G01X2919330D02*
X2927330Y7324170D01*
X2934000Y7333330D01*
X2936670Y7344330D01*
X2934000Y7355330D01*
X2927330Y7364500D01*
X2915330Y7370000D01*
X2903330Y7368170D01*
X2891330Y7360830D01*
G01X2959170Y2689330D02*
X2953670Y2681330D01*
X2950000Y2672000D01*
Y2661330D01*
X2955500Y2649330D01*
X2964670Y2640000D01*
X2975670Y2633330D01*
X2994000Y2628000D01*
X3010500Y2626670D01*
X3027000Y2629330D01*
X3038000Y2633330D01*
X3049000Y2641330D01*
X3056330Y2650670D01*
X3060000Y2660000D01*
Y2669330D01*
X3056330Y2678670D01*
X3050840Y2686670D01*
X3043500Y2693330D01*
G01X3060000Y2747330D02*
X3036170Y2750000D01*
X3016000Y2754000D01*
X2997670Y2759330D01*
X2977500Y2766000D01*
X2950000Y2776670D01*
Y2723330D01*
G01X3109170Y2689330D02*
X3103670Y2681330D01*
X3100000Y2672000D01*
Y2661330D01*
X3105500Y2649330D01*
X3114670Y2640000D01*
X3125670Y2633330D01*
X3144000Y2628000D01*
X3160500Y2626670D01*
X3177000Y2629330D01*
X3188000Y2633330D01*
X3199000Y2641330D01*
X3206330Y2650670D01*
X3210000Y2660000D01*
Y2669330D01*
X3206330Y2678670D01*
X3200840Y2686670D01*
X3193500Y2693330D01*
G01X3210000Y2750000D02*
X3208170Y2759330D01*
X3202670Y2770000D01*
X3193500Y2776670D01*
X3180670Y2779330D01*
X3167840Y2776670D01*
X3156830Y2768670D01*
X3151330Y2756670D01*
Y2743330D01*
X3147670Y2735330D01*
X3138500Y2728670D01*
X3125670Y2726000D01*
X3112830Y2730000D01*
X3103670Y2739330D01*
X3100000Y2750000D01*
X3103670Y2760670D01*
X3112830Y2770000D01*
X3125670Y2774000D01*
X3138500Y2771330D01*
X3147670Y2764670D01*
X3151330Y2756670D01*
Y2743330D01*
X3156830Y2731330D01*
X3167840Y2723330D01*
X3180670Y2720670D01*
X3193500Y2723330D01*
X3202670Y2730000D01*
X3208170Y2740670D01*
X3210000Y2750000D01*
G01X3553330Y2202000D02*
X3560000Y2191000D01*
X3568000Y2183670D01*
X3577330Y2180000D01*
X3588000Y2183670D01*
X3596000Y2191000D01*
X3604000Y2202000D01*
X3606670Y2216670D01*
Y2290000D01*
G01X3644670Y2271670D02*
X3652670Y2282660D01*
X3662000Y2288170D01*
X3672670Y2290000D01*
X3686000Y2286330D01*
X3695330Y2277170D01*
X3698000Y2266170D01*
X3696670Y2255160D01*
X3691330Y2246000D01*
X3664670Y2227670D01*
X3652670Y2214830D01*
X3644670Y2196500D01*
X3642000Y2180000D01*
X3698000D01*
G01X3463330Y3180000D02*
Y3290000D01*
X3496670D01*
X3507330Y3284500D01*
X3514000Y3277170D01*
X3516670Y3262500D01*
X3514000Y3247830D01*
X3506000Y3238670D01*
X3496670Y3233170D01*
X3463330D01*
G01X3496670D02*
X3516670Y3180000D01*
G01X3580000D02*
X3589330Y3181830D01*
X3600000Y3187330D01*
X3606670Y3196500D01*
X3609330Y3209330D01*
X3606670Y3222160D01*
X3598670Y3233170D01*
X3586670Y3238670D01*
X3573330D01*
X3565330Y3242330D01*
X3558670Y3251500D01*
X3556000Y3264330D01*
X3560000Y3277170D01*
X3569330Y3286330D01*
X3580000Y3290000D01*
X3590670Y3286330D01*
X3600000Y3277170D01*
X3604000Y3264330D01*
X3601330Y3251500D01*
X3594670Y3242330D01*
X3586670Y3238670D01*
X3573330D01*
X3561330Y3233170D01*
X3553330Y3222160D01*
X3550670Y3209330D01*
X3553330Y3196500D01*
X3560000Y3187330D01*
X3570670Y3181830D01*
X3580000Y3180000D01*
G01X3453330Y3410000D02*
Y3520000D01*
X3486670D01*
X3497330Y3514500D01*
X3504000Y3507170D01*
X3506670Y3492500D01*
X3504000Y3477830D01*
X3496000Y3468670D01*
X3486670Y3463170D01*
X3453330D01*
G01X3486670D02*
X3506670Y3410000D01*
G01X3570000D02*
Y3520000D01*
X3554000Y3498000D01*
G01Y3410000D02*
X3586000D01*
G01X3660000Y3520000D02*
X3649330Y3516330D01*
X3641330Y3507170D01*
X3636000Y3496170D01*
X3632000Y3481500D01*
X3630670Y3465000D01*
X3632000Y3448500D01*
X3636000Y3433830D01*
X3641330Y3422830D01*
X3649330Y3413670D01*
X3660000Y3410000D01*
X3670670Y3413670D01*
X3678670Y3422830D01*
X3684000Y3433830D01*
X3688000Y3448500D01*
X3689330Y3465000D01*
X3688000Y3481500D01*
X3684000Y3496170D01*
X3678670Y3507170D01*
X3670670Y3516330D01*
X3660000Y3520000D01*
G01X3463330Y3570000D02*
Y3680000D01*
X3496670D01*
X3507330Y3674500D01*
X3514000Y3667170D01*
X3516670Y3652500D01*
X3514000Y3637830D01*
X3506000Y3628670D01*
X3496670Y3623170D01*
X3463330D01*
G01X3496670D02*
X3516670Y3570000D01*
G01X3580000D02*
Y3680000D01*
X3564000Y3658000D01*
G01Y3570000D02*
X3596000D01*
G01X3453330Y3780000D02*
Y3890000D01*
X3486670D01*
X3497330Y3884500D01*
X3504000Y3877170D01*
X3506670Y3862500D01*
X3504000Y3847830D01*
X3496000Y3838670D01*
X3486670Y3833170D01*
X3453330D01*
G01X3486670D02*
X3506670Y3780000D01*
G01X3544670Y3825830D02*
X3554000Y3838670D01*
X3562000Y3846000D01*
X3572670Y3849670D01*
X3582000Y3846000D01*
X3588670Y3838670D01*
X3594000Y3827670D01*
X3595330Y3814830D01*
X3594000Y3803830D01*
X3588670Y3792830D01*
X3580670Y3783670D01*
X3571330Y3780000D01*
X3560670Y3783670D01*
X3551330Y3794660D01*
X3546000Y3811170D01*
X3544670Y3829500D01*
X3547330Y3853330D01*
X3551330Y3866170D01*
X3558000Y3879000D01*
X3567330Y3888170D01*
X3576670Y3890000D01*
X3586000Y3886330D01*
X3592670Y3877170D01*
G01X3453330Y3920000D02*
Y4030000D01*
X3486670D01*
X3497330Y4024500D01*
X3504000Y4017170D01*
X3506670Y4002500D01*
X3504000Y3987830D01*
X3496000Y3978670D01*
X3486670Y3973170D01*
X3453330D01*
G01X3486670D02*
X3506670Y3920000D01*
G01X3540670Y3936500D02*
X3548670Y3927330D01*
X3558000Y3921830D01*
X3570000Y3920000D01*
X3582000Y3923670D01*
X3591330Y3931000D01*
X3598000Y3943830D01*
X3599330Y3958500D01*
X3596670Y3973170D01*
X3590000Y3982330D01*
X3580670Y3989670D01*
X3571330Y3991500D01*
X3562000Y3989670D01*
X3550000Y3982330D01*
X3554000Y4030000D01*
X3590000D01*
G01X3453330Y4130000D02*
Y4240000D01*
X3486670D01*
X3497330Y4234500D01*
X3504000Y4227170D01*
X3506670Y4212500D01*
X3504000Y4197830D01*
X3496000Y4188670D01*
X3486670Y4183170D01*
X3453330D01*
G01X3486670D02*
X3506670Y4130000D01*
G01X3586000D02*
Y4240000D01*
X3536670Y4161170D01*
X3603330D01*
G01X3453330Y4290000D02*
Y4400000D01*
X3486670D01*
X3497330Y4394500D01*
X3504000Y4387170D01*
X3506670Y4372500D01*
X3504000Y4357830D01*
X3496000Y4348670D01*
X3486670Y4343170D01*
X3453330D01*
G01X3486670D02*
X3506670Y4290000D01*
G01X3547330Y4302830D02*
X3556670Y4293670D01*
X3567330Y4290000D01*
X3578000Y4293670D01*
X3587330Y4304660D01*
X3594000Y4321170D01*
X3596670Y4337670D01*
Y4357830D01*
X3594000Y4374330D01*
X3587330Y4389000D01*
X3579330Y4396330D01*
X3570000Y4400000D01*
X3559330Y4396330D01*
X3551330Y4389000D01*
X3546000Y4378000D01*
X3543330Y4363330D01*
X3546000Y4350500D01*
X3552670Y4337670D01*
X3560670Y4330330D01*
X3570000Y4328500D01*
X3580670Y4332160D01*
X3588670Y4341330D01*
X3596670Y4357830D01*
G01X3473330Y4500000D02*
Y4610000D01*
X3506670D01*
X3517330Y4604500D01*
X3524000Y4597170D01*
X3526670Y4582500D01*
X3524000Y4567830D01*
X3516000Y4558670D01*
X3506670Y4553170D01*
X3473330D01*
G01X3506670D02*
X3526670Y4500000D01*
G01X3587330D02*
X3590000Y4523830D01*
X3594000Y4544000D01*
X3599330Y4562330D01*
X3606000Y4582500D01*
X3616670Y4610000D01*
X3563330D01*
G01X3473330Y4690000D02*
Y4800000D01*
X3506670D01*
X3517330Y4794500D01*
X3524000Y4787170D01*
X3526670Y4772500D01*
X3524000Y4757830D01*
X3516000Y4748670D01*
X3506670Y4743170D01*
X3473330D01*
G01X3506670D02*
X3526670Y4690000D01*
G01X3564670Y4781670D02*
X3572670Y4792660D01*
X3582000Y4798170D01*
X3592670Y4800000D01*
X3606000Y4796330D01*
X3615330Y4787170D01*
X3618000Y4776170D01*
X3616670Y4765160D01*
X3611330Y4756000D01*
X3584670Y4737670D01*
X3572670Y4724830D01*
X3564670Y4706500D01*
X3562000Y4690000D01*
X3618000D01*
G01X3529330Y5010830D02*
X3521330Y5016330D01*
X3512000Y5020000D01*
X3501330D01*
X3489330Y5014500D01*
X3480000Y5005330D01*
X3473330Y4994330D01*
X3468000Y4976000D01*
X3466670Y4959500D01*
X3469330Y4943000D01*
X3473330Y4932000D01*
X3481330Y4921000D01*
X3490670Y4913670D01*
X3500000Y4910000D01*
X3509330D01*
X3518670Y4913670D01*
X3526670Y4919160D01*
X3533330Y4926500D01*
G01X3560670Y4932000D02*
X3568670Y4919160D01*
X3579330Y4911830D01*
X3591330Y4910000D01*
X3602000Y4911830D01*
X3612670Y4921000D01*
X3619330Y4932000D01*
X3620670Y4943000D01*
X3618000Y4955830D01*
X3608670Y4965000D01*
X3599330Y4968670D01*
X3587330D01*
G01X3599330D02*
X3607330Y4974170D01*
X3614000Y4983330D01*
X3616670Y4994330D01*
X3614000Y5005330D01*
X3607330Y5014500D01*
X3595330Y5020000D01*
X3583330Y5018170D01*
X3571330Y5010830D01*
G01X3680000Y4910000D02*
X3689330Y4911830D01*
X3700000Y4917330D01*
X3706670Y4926500D01*
X3709330Y4939330D01*
X3706670Y4952160D01*
X3698670Y4963170D01*
X3686670Y4968670D01*
X3673330D01*
X3665330Y4972330D01*
X3658670Y4981500D01*
X3656000Y4994330D01*
X3660000Y5007170D01*
X3669330Y5016330D01*
X3680000Y5020000D01*
X3690670Y5016330D01*
X3700000Y5007170D01*
X3704000Y4994330D01*
X3701330Y4981500D01*
X3694670Y4972330D01*
X3686670Y4968670D01*
X3673330D01*
X3661330Y4963170D01*
X3653330Y4952160D01*
X3650670Y4939330D01*
X3653330Y4926500D01*
X3660000Y4917330D01*
X3670670Y4911830D01*
X3680000Y4910000D01*
G01X3529330Y5270830D02*
X3521330Y5276330D01*
X3512000Y5280000D01*
X3501330D01*
X3489330Y5274500D01*
X3480000Y5265330D01*
X3473330Y5254330D01*
X3468000Y5236000D01*
X3466670Y5219500D01*
X3469330Y5203000D01*
X3473330Y5192000D01*
X3481330Y5181000D01*
X3490670Y5173670D01*
X3500000Y5170000D01*
X3509330D01*
X3518670Y5173670D01*
X3526670Y5179160D01*
X3533330Y5186500D01*
G01X3560670Y5192000D02*
X3568670Y5179160D01*
X3579330Y5171830D01*
X3591330Y5170000D01*
X3602000Y5171830D01*
X3612670Y5181000D01*
X3619330Y5192000D01*
X3620670Y5203000D01*
X3618000Y5215830D01*
X3608670Y5225000D01*
X3599330Y5228670D01*
X3587330D01*
G01X3599330D02*
X3607330Y5234170D01*
X3614000Y5243330D01*
X3616670Y5254330D01*
X3614000Y5265330D01*
X3607330Y5274500D01*
X3595330Y5280000D01*
X3583330Y5278170D01*
X3571330Y5270830D01*
G01X3657330Y5182830D02*
X3666670Y5173670D01*
X3677330Y5170000D01*
X3688000Y5173670D01*
X3697330Y5184660D01*
X3704000Y5201170D01*
X3706670Y5217670D01*
Y5237830D01*
X3704000Y5254330D01*
X3697330Y5269000D01*
X3689330Y5276330D01*
X3680000Y5280000D01*
X3669330Y5276330D01*
X3661330Y5269000D01*
X3656000Y5258000D01*
X3653330Y5243330D01*
X3656000Y5230500D01*
X3662670Y5217670D01*
X3670670Y5210330D01*
X3680000Y5208500D01*
X3690670Y5212160D01*
X3698670Y5221330D01*
X3706670Y5237830D01*
G01X3483330Y5340000D02*
Y5450000D01*
X3516670D01*
X3527330Y5444500D01*
X3534000Y5437170D01*
X3536670Y5422500D01*
X3534000Y5407830D01*
X3526000Y5398670D01*
X3516670Y5393170D01*
X3483330D01*
G01X3516670D02*
X3536670Y5340000D01*
G01X3616000D02*
Y5450000D01*
X3566670Y5371170D01*
X3633330D01*
G01X3706000Y5340000D02*
Y5450000D01*
X3656670Y5371170D01*
X3723330D01*
G01X3463330Y5590000D02*
Y5700000D01*
X3496670D01*
X3507330Y5694500D01*
X3514000Y5687170D01*
X3516670Y5672500D01*
X3514000Y5657830D01*
X3506000Y5648670D01*
X3496670Y5643170D01*
X3463330D01*
G01X3496670D02*
X3516670Y5590000D01*
G01X3550670Y5612000D02*
X3558670Y5599160D01*
X3569330Y5591830D01*
X3581330Y5590000D01*
X3592000Y5591830D01*
X3602670Y5601000D01*
X3609330Y5612000D01*
X3610670Y5623000D01*
X3608000Y5635830D01*
X3598670Y5645000D01*
X3589330Y5648670D01*
X3577330D01*
G01X3589330D02*
X3597330Y5654170D01*
X3604000Y5663330D01*
X3606670Y5674330D01*
X3604000Y5685330D01*
X3597330Y5694500D01*
X3585330Y5700000D01*
X3573330Y5698170D01*
X3561330Y5690830D01*
G01X3463330Y5740000D02*
Y5850000D01*
X3496670D01*
X3507330Y5844500D01*
X3514000Y5837170D01*
X3516670Y5822500D01*
X3514000Y5807830D01*
X3506000Y5798670D01*
X3496670Y5793170D01*
X3463330D01*
G01X3496670D02*
X3516670Y5740000D01*
G01X3596000D02*
Y5850000D01*
X3546670Y5771170D01*
X3613330D01*
G01X3640670Y5756500D02*
X3648670Y5747330D01*
X3658000Y5741830D01*
X3670000Y5740000D01*
X3682000Y5743670D01*
X3691330Y5751000D01*
X3698000Y5763830D01*
X3699330Y5778500D01*
X3696670Y5793170D01*
X3690000Y5802330D01*
X3680670Y5809670D01*
X3671330Y5811500D01*
X3662000Y5809670D01*
X3650000Y5802330D01*
X3654000Y5850000D01*
X3690000D01*
G01X3463330Y5930000D02*
Y6040000D01*
X3496670D01*
X3507330Y6034500D01*
X3514000Y6027170D01*
X3516670Y6012500D01*
X3514000Y5997830D01*
X3506000Y5988670D01*
X3496670Y5983170D01*
X3463330D01*
G01X3496670D02*
X3516670Y5930000D01*
G01X3550670Y5952000D02*
X3558670Y5939160D01*
X3569330Y5931830D01*
X3581330Y5930000D01*
X3592000Y5931830D01*
X3602670Y5941000D01*
X3609330Y5952000D01*
X3610670Y5963000D01*
X3608000Y5975830D01*
X3598670Y5985000D01*
X3589330Y5988670D01*
X3577330D01*
G01X3589330D02*
X3597330Y5994170D01*
X3604000Y6003330D01*
X3606670Y6014330D01*
X3604000Y6025330D01*
X3597330Y6034500D01*
X3585330Y6040000D01*
X3573330Y6038170D01*
X3561330Y6030830D01*
G01X3670000Y5930000D02*
X3679330Y5931830D01*
X3690000Y5937330D01*
X3696670Y5946500D01*
X3699330Y5959330D01*
X3696670Y5972160D01*
X3688670Y5983170D01*
X3676670Y5988670D01*
X3663330D01*
X3655330Y5992330D01*
X3648670Y6001500D01*
X3646000Y6014330D01*
X3650000Y6027170D01*
X3659330Y6036330D01*
X3670000Y6040000D01*
X3680670Y6036330D01*
X3690000Y6027170D01*
X3694000Y6014330D01*
X3691330Y6001500D01*
X3684670Y5992330D01*
X3676670Y5988670D01*
X3663330D01*
X3651330Y5983170D01*
X3643330Y5972160D01*
X3640670Y5959330D01*
X3643330Y5946500D01*
X3650000Y5937330D01*
X3660670Y5931830D01*
X3670000Y5930000D01*
G01X3463330Y6080000D02*
Y6190000D01*
X3496670D01*
X3507330Y6184500D01*
X3514000Y6177170D01*
X3516670Y6162500D01*
X3514000Y6147830D01*
X3506000Y6138670D01*
X3496670Y6133170D01*
X3463330D01*
G01X3496670D02*
X3516670Y6080000D01*
G01X3550670Y6102000D02*
X3558670Y6089160D01*
X3569330Y6081830D01*
X3581330Y6080000D01*
X3592000Y6081830D01*
X3602670Y6091000D01*
X3609330Y6102000D01*
X3610670Y6113000D01*
X3608000Y6125830D01*
X3598670Y6135000D01*
X3589330Y6138670D01*
X3577330D01*
G01X3589330D02*
X3597330Y6144170D01*
X3604000Y6153330D01*
X3606670Y6164330D01*
X3604000Y6175330D01*
X3597330Y6184500D01*
X3585330Y6190000D01*
X3573330Y6188170D01*
X3561330Y6180830D01*
G01X3647330Y6092830D02*
X3656670Y6083670D01*
X3667330Y6080000D01*
X3678000Y6083670D01*
X3687330Y6094660D01*
X3694000Y6111170D01*
X3696670Y6127670D01*
Y6147830D01*
X3694000Y6164330D01*
X3687330Y6179000D01*
X3679330Y6186330D01*
X3670000Y6190000D01*
X3659330Y6186330D01*
X3651330Y6179000D01*
X3646000Y6168000D01*
X3643330Y6153330D01*
X3646000Y6140500D01*
X3652670Y6127670D01*
X3660670Y6120330D01*
X3670000Y6118500D01*
X3680670Y6122160D01*
X3688670Y6131330D01*
X3696670Y6147830D01*
G01X3473330Y6230000D02*
Y6340000D01*
X3506670D01*
X3517330Y6334500D01*
X3524000Y6327170D01*
X3526670Y6312500D01*
X3524000Y6297830D01*
X3516000Y6288670D01*
X3506670Y6283170D01*
X3473330D01*
G01X3506670D02*
X3526670Y6230000D01*
G01X3606000D02*
Y6340000D01*
X3556670Y6261170D01*
X3623330D01*
G01X3680000Y6340000D02*
X3669330Y6336330D01*
X3661330Y6327170D01*
X3656000Y6316170D01*
X3652000Y6301500D01*
X3650670Y6285000D01*
X3652000Y6268500D01*
X3656000Y6253830D01*
X3661330Y6242830D01*
X3669330Y6233670D01*
X3680000Y6230000D01*
X3690670Y6233670D01*
X3698670Y6242830D01*
X3704000Y6253830D01*
X3708000Y6268500D01*
X3709330Y6285000D01*
X3708000Y6301500D01*
X3704000Y6316170D01*
X3698670Y6327170D01*
X3690670Y6336330D01*
X3680000Y6340000D01*
G01X3809170Y6979330D02*
X3803670Y6971330D01*
X3800000Y6962000D01*
Y6951330D01*
X3805500Y6939330D01*
X3814670Y6930000D01*
X3825670Y6923330D01*
X3844000Y6918000D01*
X3860500Y6916670D01*
X3877000Y6919330D01*
X3888000Y6923330D01*
X3899000Y6931330D01*
X3906330Y6940670D01*
X3910000Y6950000D01*
Y6959330D01*
X3906330Y6968670D01*
X3900840Y6976670D01*
X3893500Y6983330D01*
G01X3910000Y7056000D02*
X3800000D01*
X3878830Y7006670D01*
Y7073330D01*
G01X3818330Y7104670D02*
X3807340Y7112670D01*
X3801830Y7122000D01*
X3800000Y7132670D01*
X3803670Y7146000D01*
X3812830Y7155330D01*
X3823830Y7158000D01*
X3834840Y7156670D01*
X3844000Y7151330D01*
X3862330Y7124670D01*
X3875170Y7112670D01*
X3893500Y7104670D01*
X3910000Y7102000D01*
Y7158000D01*
G01X4460000Y6763330D02*
X4350000D01*
Y6796670D01*
X4355500Y6807330D01*
X4362830Y6814000D01*
X4377500Y6816670D01*
X4392170Y6814000D01*
X4401330Y6806000D01*
X4406830Y6796670D01*
Y6763330D01*
G01Y6796670D02*
X4460000Y6816670D01*
G01Y6880000D02*
X4350000D01*
X4372000Y6864000D01*
G01X4460000D02*
Y6896000D01*
G01Y6970000D02*
X4350000D01*
X4372000Y6954000D01*
G01X4460000D02*
Y6986000D01*
G01X4340000Y7180000D02*
X4450000D01*
G01X4340000Y7149330D02*
Y7210670D01*
G01X4450000Y7242000D02*
X4340000Y7298000D01*
G01Y7242000D02*
X4450000Y7298000D01*
G01Y7386670D02*
Y7333330D01*
X4340000D01*
Y7386670D01*
G01X4393170Y7365330D02*
Y7333330D01*
G01X4450000Y7419330D02*
X4340000D01*
X4450000Y7480670D01*
X4340000D01*
G01X4560000Y3393330D02*
X4450000D01*
Y3426670D01*
X4455500Y3437330D01*
X4462830Y3444000D01*
X4477500Y3446670D01*
X4492170Y3444000D01*
X4501330Y3436000D01*
X4506830Y3426670D01*
Y3393330D01*
G01Y3426670D02*
X4560000Y3446670D01*
G01X4468330Y3484670D02*
X4457340Y3492670D01*
X4451830Y3502000D01*
X4450000Y3512670D01*
X4453670Y3526000D01*
X4462830Y3535330D01*
X4473830Y3538000D01*
X4484840Y3536670D01*
X4494000Y3531330D01*
X4512330Y3504670D01*
X4525170Y3492670D01*
X4543500Y3484670D01*
X4560000Y3482000D01*
Y3538000D01*
G01X4468330Y3574670D02*
X4457340Y3582670D01*
X4451830Y3592000D01*
X4450000Y3602670D01*
X4453670Y3616000D01*
X4462830Y3625330D01*
X4473830Y3628000D01*
X4484840Y3626670D01*
X4494000Y3621330D01*
X4512330Y3594670D01*
X4525170Y3582670D01*
X4543500Y3574670D01*
X4560000Y3572000D01*
Y3628000D01*
G01X4440670Y5500000D02*
Y5421170D01*
X4446000Y5404660D01*
X4456670Y5393670D01*
X4470000Y5390000D01*
X4483330Y5393670D01*
X4494000Y5404660D01*
X4499330Y5421170D01*
Y5500000D01*
G01X4560000Y5390000D02*
Y5500000D01*
X4544000Y5478000D01*
G01Y5390000D02*
X4576000D01*
G01X4600000Y6763330D02*
X4490000D01*
Y6796670D01*
X4495500Y6807330D01*
X4502830Y6814000D01*
X4517500Y6816670D01*
X4532170Y6814000D01*
X4541330Y6806000D01*
X4546830Y6796670D01*
Y6763330D01*
G01Y6796670D02*
X4600000Y6816670D01*
G01Y6880000D02*
X4490000D01*
X4512000Y6864000D01*
G01X4600000D02*
Y6896000D01*
G01X4508330Y6944670D02*
X4497340Y6952670D01*
X4491830Y6962000D01*
X4490000Y6972670D01*
X4493670Y6986000D01*
X4502830Y6995330D01*
X4513830Y6998000D01*
X4524840Y6996670D01*
X4534000Y6991330D01*
X4552330Y6964670D01*
X4565170Y6952670D01*
X4583500Y6944670D01*
X4600000Y6942000D01*
Y6998000D01*
G01X4490000Y7180000D02*
X4600000D01*
G01X4490000Y7149330D02*
Y7210670D01*
G01Y7270000D02*
X4493670Y7259330D01*
X4502830Y7251330D01*
X4513830Y7246000D01*
X4528500Y7242000D01*
X4545000Y7240670D01*
X4561500Y7242000D01*
X4576170Y7246000D01*
X4587170Y7251330D01*
X4596330Y7259330D01*
X4600000Y7270000D01*
X4596330Y7280670D01*
X4587170Y7288670D01*
X4576170Y7294000D01*
X4561500Y7298000D01*
X4545000Y7299330D01*
X4528500Y7298000D01*
X4513830Y7294000D01*
X4502830Y7288670D01*
X4493670Y7280670D01*
X4490000Y7270000D01*
G01X4629170Y2689330D02*
X4623670Y2681330D01*
X4620000Y2672000D01*
Y2661330D01*
X4625500Y2649330D01*
X4634670Y2640000D01*
X4645670Y2633330D01*
X4664000Y2628000D01*
X4680500Y2626670D01*
X4697000Y2629330D01*
X4708000Y2633330D01*
X4719000Y2641330D01*
X4726330Y2650670D01*
X4730000Y2660000D01*
Y2669330D01*
X4726330Y2678670D01*
X4720840Y2686670D01*
X4713500Y2693330D01*
G01X4730000Y2750000D02*
X4620000D01*
X4642000Y2734000D01*
G01X4730000D02*
Y2766000D01*
G01X4713500Y2810670D02*
X4722670Y2818670D01*
X4728170Y2828000D01*
X4730000Y2840000D01*
X4726330Y2852000D01*
X4719000Y2861330D01*
X4706170Y2868000D01*
X4691500Y2869330D01*
X4676830Y2866670D01*
X4667670Y2860000D01*
X4660330Y2850670D01*
X4658500Y2841330D01*
X4660330Y2832000D01*
X4667670Y2820000D01*
X4620000Y2824000D01*
Y2860000D01*
G01X4770000Y3393330D02*
X4660000D01*
Y3426670D01*
X4665500Y3437330D01*
X4672830Y3444000D01*
X4687500Y3446670D01*
X4702170Y3444000D01*
X4711330Y3436000D01*
X4716830Y3426670D01*
Y3393330D01*
G01Y3426670D02*
X4770000Y3446670D01*
G01X4678330Y3484670D02*
X4667340Y3492670D01*
X4661830Y3502000D01*
X4660000Y3512670D01*
X4663670Y3526000D01*
X4672830Y3535330D01*
X4683830Y3538000D01*
X4694840Y3536670D01*
X4704000Y3531330D01*
X4722330Y3504670D01*
X4735170Y3492670D01*
X4753500Y3484670D01*
X4770000Y3482000D01*
Y3538000D01*
G01Y3616000D02*
X4660000D01*
X4738830Y3566670D01*
Y3633330D01*
G01X4750000Y6763330D02*
X4640000D01*
Y6796670D01*
X4645500Y6807330D01*
X4652830Y6814000D01*
X4667500Y6816670D01*
X4682170Y6814000D01*
X4691330Y6806000D01*
X4696830Y6796670D01*
Y6763330D01*
G01Y6796670D02*
X4750000Y6816670D01*
G01Y6880000D02*
X4640000D01*
X4662000Y6864000D01*
G01X4750000D02*
Y6896000D01*
G01X4728000Y6940670D02*
X4740840Y6948670D01*
X4748170Y6959330D01*
X4750000Y6971330D01*
X4748170Y6982000D01*
X4739000Y6992670D01*
X4728000Y6999330D01*
X4717000Y7000670D01*
X4704170Y6998000D01*
X4695000Y6988670D01*
X4691330Y6979330D01*
Y6967330D01*
G01Y6979330D02*
X4685830Y6987330D01*
X4676670Y6994000D01*
X4665670Y6996670D01*
X4654670Y6994000D01*
X4645500Y6987330D01*
X4640000Y6975330D01*
X4641830Y6963330D01*
X4649170Y6951330D01*
G01X4640000Y7180000D02*
X4750000D01*
G01X4640000Y7149330D02*
Y7210670D01*
G01X4750000Y7270000D02*
X4640000D01*
X4662000Y7254000D01*
G01X4750000D02*
Y7286000D01*
G01X4799170Y2689330D02*
X4793670Y2681330D01*
X4790000Y2672000D01*
Y2661330D01*
X4795500Y2649330D01*
X4804670Y2640000D01*
X4815670Y2633330D01*
X4834000Y2628000D01*
X4850500Y2626670D01*
X4867000Y2629330D01*
X4878000Y2633330D01*
X4889000Y2641330D01*
X4896330Y2650670D01*
X4900000Y2660000D01*
Y2669330D01*
X4896330Y2678670D01*
X4890840Y2686670D01*
X4883500Y2693330D01*
G01X4900000Y2750000D02*
X4790000D01*
X4812000Y2734000D01*
G01X4900000D02*
Y2766000D01*
G01X4854170Y2814670D02*
X4841330Y2824000D01*
X4834000Y2832000D01*
X4830330Y2842670D01*
X4834000Y2852000D01*
X4841330Y2858670D01*
X4852330Y2864000D01*
X4865170Y2865330D01*
X4876170Y2864000D01*
X4887170Y2858670D01*
X4896330Y2850670D01*
X4900000Y2841330D01*
X4896330Y2830670D01*
X4885340Y2821330D01*
X4868830Y2816000D01*
X4850500Y2814670D01*
X4826670Y2817330D01*
X4813830Y2821330D01*
X4801000Y2828000D01*
X4791830Y2837330D01*
X4790000Y2846670D01*
X4793670Y2856000D01*
X4802830Y2862670D01*
G01X4940000Y3393330D02*
X4830000D01*
Y3426670D01*
X4835500Y3437330D01*
X4842830Y3444000D01*
X4857500Y3446670D01*
X4872170Y3444000D01*
X4881330Y3436000D01*
X4886830Y3426670D01*
Y3393330D01*
G01Y3426670D02*
X4940000Y3446670D01*
G01Y3510000D02*
X4830000D01*
X4852000Y3494000D01*
G01X4940000D02*
Y3526000D01*
G01X4894170Y3574670D02*
X4881330Y3584000D01*
X4874000Y3592000D01*
X4870330Y3602670D01*
X4874000Y3612000D01*
X4881330Y3618670D01*
X4892330Y3624000D01*
X4905170Y3625330D01*
X4916170Y3624000D01*
X4927170Y3618670D01*
X4936330Y3610670D01*
X4940000Y3601330D01*
X4936330Y3590670D01*
X4925340Y3581330D01*
X4908830Y3576000D01*
X4890500Y3574670D01*
X4866670Y3577330D01*
X4853830Y3581330D01*
X4841000Y3588000D01*
X4831830Y3597330D01*
X4830000Y3606670D01*
X4833670Y3616000D01*
X4842830Y3622670D01*
G01X4910000Y6763330D02*
X4800000D01*
Y6796670D01*
X4805500Y6807330D01*
X4812830Y6814000D01*
X4827500Y6816670D01*
X4842170Y6814000D01*
X4851330Y6806000D01*
X4856830Y6796670D01*
Y6763330D01*
G01Y6796670D02*
X4910000Y6816670D01*
G01Y6880000D02*
X4800000D01*
X4822000Y6864000D01*
G01X4910000D02*
Y6896000D01*
G01Y6986000D02*
X4800000D01*
X4878830Y6936670D01*
Y7003330D01*
G01X4799170Y7209330D02*
X4793670Y7201330D01*
X4790000Y7192000D01*
Y7181330D01*
X4795500Y7169330D01*
X4804670Y7160000D01*
X4815670Y7153330D01*
X4834000Y7148000D01*
X4850500Y7146670D01*
X4867000Y7149330D01*
X4878000Y7153330D01*
X4889000Y7161330D01*
X4896330Y7170670D01*
X4900000Y7180000D01*
Y7189330D01*
X4896330Y7198670D01*
X4890840Y7206670D01*
X4883500Y7213330D01*
G01X4900000Y7243330D02*
X4790000D01*
Y7276670D01*
X4795500Y7287330D01*
X4802830Y7294000D01*
X4817500Y7296670D01*
X4832170Y7294000D01*
X4841330Y7286000D01*
X4846830Y7276670D01*
Y7243330D01*
G01Y7276670D02*
X4900000Y7296670D01*
G01X4885340Y7332000D02*
X4894500Y7342670D01*
X4900000Y7354670D01*
Y7365330D01*
X4894500Y7376000D01*
X4885340Y7384000D01*
X4872500Y7388000D01*
X4859670Y7385330D01*
X4848670Y7378670D01*
X4841330Y7366670D01*
X4837670Y7350670D01*
X4830330Y7341330D01*
X4817500Y7337330D01*
X4804670Y7340000D01*
X4795500Y7346670D01*
X4790000Y7356000D01*
Y7365330D01*
X4793670Y7374670D01*
X4802830Y7382670D01*
G01X5140000Y3393330D02*
X5030000D01*
Y3426670D01*
X5035500Y3437330D01*
X5042830Y3444000D01*
X5057500Y3446670D01*
X5072170Y3444000D01*
X5081330Y3436000D01*
X5086830Y3426670D01*
Y3393330D01*
G01Y3426670D02*
X5140000Y3446670D01*
G01Y3510000D02*
X5030000D01*
X5052000Y3494000D01*
G01X5140000D02*
Y3526000D01*
G01Y3600000D02*
X5138170Y3609330D01*
X5132670Y3620000D01*
X5123500Y3626670D01*
X5110670Y3629330D01*
X5097840Y3626670D01*
X5086830Y3618670D01*
X5081330Y3606670D01*
Y3593330D01*
X5077670Y3585330D01*
X5068500Y3578670D01*
X5055670Y3576000D01*
X5042830Y3580000D01*
X5033670Y3589330D01*
X5030000Y3600000D01*
X5033670Y3610670D01*
X5042830Y3620000D01*
X5055670Y3624000D01*
X5068500Y3621330D01*
X5077670Y3614670D01*
X5081330Y3606670D01*
Y3593330D01*
X5086830Y3581330D01*
X5097840Y3573330D01*
X5110670Y3570670D01*
X5123500Y3573330D01*
X5132670Y3580000D01*
X5138170Y3590670D01*
X5140000Y3600000D01*
G01X5050000Y6763330D02*
X4940000D01*
Y6796670D01*
X4945500Y6807330D01*
X4952830Y6814000D01*
X4967500Y6816670D01*
X4982170Y6814000D01*
X4991330Y6806000D01*
X4996830Y6796670D01*
Y6763330D01*
G01Y6796670D02*
X5050000Y6816670D01*
G01Y6880000D02*
X4940000D01*
X4962000Y6864000D01*
G01X5050000D02*
Y6896000D01*
G01X5033500Y6940670D02*
X5042670Y6948670D01*
X5048170Y6958000D01*
X5050000Y6970000D01*
X5046330Y6982000D01*
X5039000Y6991330D01*
X5026170Y6998000D01*
X5011500Y6999330D01*
X4996830Y6996670D01*
X4987670Y6990000D01*
X4980330Y6980670D01*
X4978500Y6971330D01*
X4980330Y6962000D01*
X4987670Y6950000D01*
X4940000Y6954000D01*
Y6990000D01*
G01X4949170Y7209330D02*
X4943670Y7201330D01*
X4940000Y7192000D01*
Y7181330D01*
X4945500Y7169330D01*
X4954670Y7160000D01*
X4965670Y7153330D01*
X4984000Y7148000D01*
X5000500Y7146670D01*
X5017000Y7149330D01*
X5028000Y7153330D01*
X5039000Y7161330D01*
X5046330Y7170670D01*
X5050000Y7180000D01*
Y7189330D01*
X5046330Y7198670D01*
X5040840Y7206670D01*
X5033500Y7213330D01*
G01X4940000Y7243330D02*
X5050000D01*
Y7296670D01*
G01Y7330670D02*
X4940000D01*
G01Y7381330D02*
X5007840Y7330670D01*
G01X5050000Y7389330D02*
X4976670Y7353330D01*
G01X5253330Y2182000D02*
X5260000Y2171000D01*
X5268000Y2163670D01*
X5277330Y2160000D01*
X5288000Y2163670D01*
X5296000Y2171000D01*
X5304000Y2182000D01*
X5306670Y2196670D01*
Y2270000D01*
G01X5386000Y2160000D02*
Y2270000D01*
X5336670Y2191170D01*
X5403330D01*
G01X5350000Y3393330D02*
X5240000D01*
Y3426670D01*
X5245500Y3437330D01*
X5252830Y3444000D01*
X5267500Y3446670D01*
X5282170Y3444000D01*
X5291330Y3436000D01*
X5296830Y3426670D01*
Y3393330D01*
G01Y3426670D02*
X5350000Y3446670D01*
G01X5258330Y3484670D02*
X5247340Y3492670D01*
X5241830Y3502000D01*
X5240000Y3512670D01*
X5243670Y3526000D01*
X5252830Y3535330D01*
X5263830Y3538000D01*
X5274840Y3536670D01*
X5284000Y3531330D01*
X5302330Y3504670D01*
X5315170Y3492670D01*
X5333500Y3484670D01*
X5350000Y3482000D01*
Y3538000D01*
G01X5240000Y3600000D02*
X5243670Y3589330D01*
X5252830Y3581330D01*
X5263830Y3576000D01*
X5278500Y3572000D01*
X5295000Y3570670D01*
X5311500Y3572000D01*
X5326170Y3576000D01*
X5337170Y3581330D01*
X5346330Y3589330D01*
X5350000Y3600000D01*
X5346330Y3610670D01*
X5337170Y3618670D01*
X5326170Y3624000D01*
X5311500Y3628000D01*
X5295000Y3629330D01*
X5278500Y3628000D01*
X5263830Y3624000D01*
X5252830Y3618670D01*
X5243670Y3610670D01*
X5240000Y3600000D01*
G01X5360000Y6763330D02*
X5250000D01*
Y6796670D01*
X5255500Y6807330D01*
X5262830Y6814000D01*
X5277500Y6816670D01*
X5292170Y6814000D01*
X5301330Y6806000D01*
X5306830Y6796670D01*
Y6763330D01*
G01Y6796670D02*
X5360000Y6816670D01*
G01X5268330Y6854670D02*
X5257340Y6862670D01*
X5251830Y6872000D01*
X5250000Y6882670D01*
X5253670Y6896000D01*
X5262830Y6905330D01*
X5273830Y6908000D01*
X5284840Y6906670D01*
X5294000Y6901330D01*
X5312330Y6874670D01*
X5325170Y6862670D01*
X5343500Y6854670D01*
X5360000Y6852000D01*
Y6908000D01*
G01Y6967330D02*
X5336170Y6970000D01*
X5316000Y6974000D01*
X5297670Y6979330D01*
X5277500Y6986000D01*
X5250000Y6996670D01*
Y6943330D01*
G01X5220000Y6763330D02*
X5110000D01*
Y6796670D01*
X5115500Y6807330D01*
X5122830Y6814000D01*
X5137500Y6816670D01*
X5152170Y6814000D01*
X5161330Y6806000D01*
X5166830Y6796670D01*
Y6763330D01*
G01Y6796670D02*
X5220000Y6816670D01*
G01X5128330Y6854670D02*
X5117340Y6862670D01*
X5111830Y6872000D01*
X5110000Y6882670D01*
X5113670Y6896000D01*
X5122830Y6905330D01*
X5133830Y6908000D01*
X5144840Y6906670D01*
X5154000Y6901330D01*
X5172330Y6874670D01*
X5185170Y6862670D01*
X5203500Y6854670D01*
X5220000Y6852000D01*
Y6908000D01*
G01X5207170Y6947330D02*
X5216330Y6956670D01*
X5220000Y6967330D01*
X5216330Y6978000D01*
X5205340Y6987330D01*
X5188830Y6994000D01*
X5172330Y6996670D01*
X5152170D01*
X5135670Y6994000D01*
X5121000Y6987330D01*
X5113670Y6979330D01*
X5110000Y6970000D01*
X5113670Y6959330D01*
X5121000Y6951330D01*
X5132000Y6946000D01*
X5146670Y6943330D01*
X5159500Y6946000D01*
X5172330Y6952670D01*
X5179670Y6960670D01*
X5181500Y6970000D01*
X5177840Y6980670D01*
X5168670Y6988670D01*
X5152170Y6996670D01*
G01X5350000Y7145330D02*
X5240000D01*
X5331670Y7180000D01*
X5240000Y7214670D01*
X5350000D01*
G01Y7240670D02*
X5240000D01*
Y7267330D01*
X5245500Y7278000D01*
X5252830Y7286000D01*
X5263830Y7292670D01*
X5276670Y7298000D01*
X5295000Y7299330D01*
X5313330Y7298000D01*
X5326170Y7292670D01*
X5337170Y7286000D01*
X5344500Y7278000D01*
X5350000Y7267330D01*
Y7240670D01*
G01X5240000Y7344000D02*
Y7376000D01*
G01Y7360000D02*
X5350000D01*
G01Y7344000D02*
Y7376000D01*
G01Y7450000D02*
X5348170Y7439330D01*
X5340840Y7430000D01*
X5329830Y7422000D01*
X5317000Y7416670D01*
X5302330Y7414000D01*
X5287670D01*
X5273000Y7416670D01*
X5260170Y7422000D01*
X5249170Y7430000D01*
X5241830Y7439330D01*
X5240000Y7450000D01*
X5241830Y7460670D01*
X5249170Y7470000D01*
X5260170Y7478000D01*
X5273000Y7483330D01*
X5287670Y7486000D01*
X5302330D01*
X5317000Y7483330D01*
X5329830Y7478000D01*
X5340840Y7470000D01*
X5348170Y7460670D01*
X5350000Y7450000D01*
G01X5500000Y6763330D02*
X5390000D01*
Y6796670D01*
X5395500Y6807330D01*
X5402830Y6814000D01*
X5417500Y6816670D01*
X5432170Y6814000D01*
X5441330Y6806000D01*
X5446830Y6796670D01*
Y6763330D01*
G01Y6796670D02*
X5500000Y6816670D01*
G01X5408330Y6854670D02*
X5397340Y6862670D01*
X5391830Y6872000D01*
X5390000Y6882670D01*
X5393670Y6896000D01*
X5402830Y6905330D01*
X5413830Y6908000D01*
X5424840Y6906670D01*
X5434000Y6901330D01*
X5452330Y6874670D01*
X5465170Y6862670D01*
X5483500Y6854670D01*
X5500000Y6852000D01*
Y6908000D01*
G01Y6970000D02*
X5498170Y6979330D01*
X5492670Y6990000D01*
X5483500Y6996670D01*
X5470670Y6999330D01*
X5457840Y6996670D01*
X5446830Y6988670D01*
X5441330Y6976670D01*
Y6963330D01*
X5437670Y6955330D01*
X5428500Y6948670D01*
X5415670Y6946000D01*
X5402830Y6950000D01*
X5393670Y6959330D01*
X5390000Y6970000D01*
X5393670Y6980670D01*
X5402830Y6990000D01*
X5415670Y6994000D01*
X5428500Y6991330D01*
X5437670Y6984670D01*
X5441330Y6976670D01*
Y6963330D01*
X5446830Y6951330D01*
X5457840Y6943330D01*
X5470670Y6940670D01*
X5483500Y6943330D01*
X5492670Y6950000D01*
X5498170Y6960670D01*
X5500000Y6970000D01*
G01Y7145330D02*
X5390000D01*
X5481670Y7180000D01*
X5390000Y7214670D01*
X5500000D01*
G01Y7240670D02*
X5390000D01*
Y7267330D01*
X5395500Y7278000D01*
X5402830Y7286000D01*
X5413830Y7292670D01*
X5426670Y7298000D01*
X5445000Y7299330D01*
X5463330Y7298000D01*
X5476170Y7292670D01*
X5487170Y7286000D01*
X5494500Y7278000D01*
X5500000Y7267330D01*
Y7240670D01*
G01X5399170Y7389330D02*
X5393670Y7381330D01*
X5390000Y7372000D01*
Y7361330D01*
X5395500Y7349330D01*
X5404670Y7340000D01*
X5415670Y7333330D01*
X5434000Y7328000D01*
X5450500Y7326670D01*
X5467000Y7329330D01*
X5478000Y7333330D01*
X5489000Y7341330D01*
X5496330Y7350670D01*
X5500000Y7360000D01*
Y7369330D01*
X5496330Y7378670D01*
X5490840Y7386670D01*
X5483500Y7393330D01*
G01X5580000Y3393330D02*
X5470000D01*
Y3426670D01*
X5475500Y3437330D01*
X5482830Y3444000D01*
X5497500Y3446670D01*
X5512170Y3444000D01*
X5521330Y3436000D01*
X5526830Y3426670D01*
Y3393330D01*
G01Y3426670D02*
X5580000Y3446670D01*
G01Y3510000D02*
X5470000D01*
X5492000Y3494000D01*
G01X5580000D02*
Y3526000D01*
G01X5567170Y3577330D02*
X5576330Y3586670D01*
X5580000Y3597330D01*
X5576330Y3608000D01*
X5565340Y3617330D01*
X5548830Y3624000D01*
X5532330Y3626670D01*
X5512170D01*
X5495670Y3624000D01*
X5481000Y3617330D01*
X5473670Y3609330D01*
X5470000Y3600000D01*
X5473670Y3589330D01*
X5481000Y3581330D01*
X5492000Y3576000D01*
X5506670Y3573330D01*
X5519500Y3576000D01*
X5532330Y3582670D01*
X5539670Y3590670D01*
X5541500Y3600000D01*
X5537840Y3610670D01*
X5528670Y3618670D01*
X5512170Y3626670D01*
G01X5570000Y7040000D02*
X5680000D01*
G01X5570000Y7009330D02*
Y7070670D01*
G01X5680000Y7103330D02*
X5570000D01*
Y7135330D01*
X5575500Y7146000D01*
X5588330Y7154000D01*
X5603000Y7156670D01*
X5617670Y7154000D01*
X5628670Y7147330D01*
X5634170Y7135330D01*
Y7103330D01*
G01X5680000Y7236000D02*
X5570000D01*
X5648830Y7186670D01*
Y7253330D01*
G01X5720000Y3393330D02*
X5610000D01*
Y3426670D01*
X5615500Y3437330D01*
X5622830Y3444000D01*
X5637500Y3446670D01*
X5652170Y3444000D01*
X5661330Y3436000D01*
X5666830Y3426670D01*
Y3393330D01*
G01Y3426670D02*
X5720000Y3446670D01*
G01X5628330Y3484670D02*
X5617340Y3492670D01*
X5611830Y3502000D01*
X5610000Y3512670D01*
X5613670Y3526000D01*
X5622830Y3535330D01*
X5633830Y3538000D01*
X5644840Y3536670D01*
X5654000Y3531330D01*
X5672330Y3504670D01*
X5685170Y3492670D01*
X5703500Y3484670D01*
X5720000Y3482000D01*
Y3538000D01*
G01X5703500Y3570670D02*
X5712670Y3578670D01*
X5718170Y3588000D01*
X5720000Y3600000D01*
X5716330Y3612000D01*
X5709000Y3621330D01*
X5696170Y3628000D01*
X5681500Y3629330D01*
X5666830Y3626670D01*
X5657670Y3620000D01*
X5650330Y3610670D01*
X5648500Y3601330D01*
X5650330Y3592000D01*
X5657670Y3580000D01*
X5610000Y3584000D01*
Y3620000D01*
G01X5719040Y7052840D02*
X5829040D01*
G01X5719040Y7022170D02*
Y7083510D01*
G01X5829040Y7116170D02*
X5719040D01*
Y7148170D01*
X5724540Y7158840D01*
X5737370Y7166840D01*
X5752040Y7169510D01*
X5766710Y7166840D01*
X5777710Y7160170D01*
X5783210Y7148170D01*
Y7116170D01*
G01X5812540Y7203510D02*
X5821710Y7211510D01*
X5827210Y7220840D01*
X5829040Y7232840D01*
X5825370Y7244840D01*
X5818040Y7254170D01*
X5805210Y7260840D01*
X5790540Y7262170D01*
X5775870Y7259510D01*
X5766710Y7252840D01*
X5759370Y7243510D01*
X5757540Y7234170D01*
X5759370Y7224840D01*
X5766710Y7212840D01*
X5719040Y7216840D01*
Y7252840D01*
G01X5940000Y3393330D02*
X5830000D01*
Y3426670D01*
X5835500Y3437330D01*
X5842830Y3444000D01*
X5857500Y3446670D01*
X5872170Y3444000D01*
X5881330Y3436000D01*
X5886830Y3426670D01*
Y3393330D01*
G01Y3426670D02*
X5940000Y3446670D01*
G01X5848330Y3484670D02*
X5837340Y3492670D01*
X5831830Y3502000D01*
X5830000Y3512670D01*
X5833670Y3526000D01*
X5842830Y3535330D01*
X5853830Y3538000D01*
X5864840Y3536670D01*
X5874000Y3531330D01*
X5892330Y3504670D01*
X5905170Y3492670D01*
X5923500Y3484670D01*
X5940000Y3482000D01*
Y3538000D01*
G01X5918000Y3570670D02*
X5930840Y3578670D01*
X5938170Y3589330D01*
X5940000Y3601330D01*
X5938170Y3612000D01*
X5929000Y3622670D01*
X5918000Y3629330D01*
X5907000Y3630670D01*
X5894170Y3628000D01*
X5885000Y3618670D01*
X5881330Y3609330D01*
Y3597330D01*
G01Y3609330D02*
X5875830Y3617330D01*
X5866670Y3624000D01*
X5855670Y3626670D01*
X5844670Y3624000D01*
X5835500Y3617330D01*
X5830000Y3605330D01*
X5831830Y3593330D01*
X5839170Y3581330D01*
G01X5869040Y7052840D02*
X5979040D01*
G01X5869040Y7022170D02*
Y7083510D01*
G01X5979040Y7116170D02*
X5869040D01*
Y7148170D01*
X5874540Y7158840D01*
X5887370Y7166840D01*
X5902040Y7169510D01*
X5916710Y7166840D01*
X5927710Y7160170D01*
X5933210Y7148170D01*
Y7116170D01*
G01Y7207510D02*
X5920370Y7216840D01*
X5913040Y7224840D01*
X5909370Y7235510D01*
X5913040Y7244840D01*
X5920370Y7251510D01*
X5931370Y7256840D01*
X5944210Y7258170D01*
X5955210Y7256840D01*
X5966210Y7251510D01*
X5975370Y7243510D01*
X5979040Y7234170D01*
X5975370Y7223510D01*
X5964380Y7214170D01*
X5947870Y7208840D01*
X5929540Y7207510D01*
X5905710Y7210170D01*
X5892870Y7214170D01*
X5880040Y7220840D01*
X5870870Y7230170D01*
X5869040Y7239510D01*
X5872710Y7248840D01*
X5881870Y7255510D01*
G01X6019040Y7052840D02*
X6129040D01*
G01X6019040Y7022170D02*
Y7083510D01*
G01X6129040Y7116170D02*
X6019040D01*
Y7148170D01*
X6024540Y7158840D01*
X6037370Y7166840D01*
X6052040Y7169510D01*
X6066710Y7166840D01*
X6077710Y7160170D01*
X6083210Y7148170D01*
Y7116170D01*
G01X6129040Y7230170D02*
X6105210Y7232840D01*
X6085040Y7236840D01*
X6066710Y7242170D01*
X6046540Y7248840D01*
X6019040Y7259510D01*
Y7206170D01*
G01X6153330Y5160000D02*
Y5270000D01*
X6186670D01*
X6197330Y5264500D01*
X6204000Y5257170D01*
X6206670Y5242500D01*
X6204000Y5227830D01*
X6196000Y5218670D01*
X6186670Y5213170D01*
X6153330D01*
G01X6186670D02*
X6206670Y5160000D01*
G01X6240670Y5182000D02*
X6248670Y5169160D01*
X6259330Y5161830D01*
X6271330Y5160000D01*
X6282000Y5161830D01*
X6292670Y5171000D01*
X6299330Y5182000D01*
X6300670Y5193000D01*
X6298000Y5205830D01*
X6288670Y5215000D01*
X6279330Y5218670D01*
X6267330D01*
G01X6279330D02*
X6287330Y5224170D01*
X6294000Y5233330D01*
X6296670Y5244330D01*
X6294000Y5255330D01*
X6287330Y5264500D01*
X6275330Y5270000D01*
X6263330Y5268170D01*
X6251330Y5260830D01*
G01X6357330Y5160000D02*
X6360000Y5183830D01*
X6364000Y5204000D01*
X6369330Y5222330D01*
X6376000Y5242500D01*
X6386670Y5270000D01*
X6333330D01*
G01X6153330Y5400000D02*
Y5510000D01*
X6186670D01*
X6197330Y5504500D01*
X6204000Y5497170D01*
X6206670Y5482500D01*
X6204000Y5467830D01*
X6196000Y5458670D01*
X6186670Y5453170D01*
X6153330D01*
G01X6186670D02*
X6206670Y5400000D01*
G01X6240670Y5422000D02*
X6248670Y5409160D01*
X6259330Y5401830D01*
X6271330Y5400000D01*
X6282000Y5401830D01*
X6292670Y5411000D01*
X6299330Y5422000D01*
X6300670Y5433000D01*
X6298000Y5445830D01*
X6288670Y5455000D01*
X6279330Y5458670D01*
X6267330D01*
G01X6279330D02*
X6287330Y5464170D01*
X6294000Y5473330D01*
X6296670Y5484330D01*
X6294000Y5495330D01*
X6287330Y5504500D01*
X6275330Y5510000D01*
X6263330Y5508170D01*
X6251330Y5500830D01*
G01X6334670Y5445830D02*
X6344000Y5458670D01*
X6352000Y5466000D01*
X6362670Y5469670D01*
X6372000Y5466000D01*
X6378670Y5458670D01*
X6384000Y5447670D01*
X6385330Y5434830D01*
X6384000Y5423830D01*
X6378670Y5412830D01*
X6370670Y5403670D01*
X6361330Y5400000D01*
X6350670Y5403670D01*
X6341330Y5414660D01*
X6336000Y5431170D01*
X6334670Y5449500D01*
X6337330Y5473330D01*
X6341330Y5486170D01*
X6348000Y5499000D01*
X6357330Y5508170D01*
X6366670Y5510000D01*
X6376000Y5506330D01*
X6382670Y5497170D01*
G01X6153330Y5670000D02*
Y5780000D01*
X6186670D01*
X6197330Y5774500D01*
X6204000Y5767170D01*
X6206670Y5752500D01*
X6204000Y5737830D01*
X6196000Y5728670D01*
X6186670Y5723170D01*
X6153330D01*
G01X6186670D02*
X6206670Y5670000D01*
G01X6240670Y5692000D02*
X6248670Y5679160D01*
X6259330Y5671830D01*
X6271330Y5670000D01*
X6282000Y5671830D01*
X6292670Y5681000D01*
X6299330Y5692000D01*
X6300670Y5703000D01*
X6298000Y5715830D01*
X6288670Y5725000D01*
X6279330Y5728670D01*
X6267330D01*
G01X6279330D02*
X6287330Y5734170D01*
X6294000Y5743330D01*
X6296670Y5754330D01*
X6294000Y5765330D01*
X6287330Y5774500D01*
X6275330Y5780000D01*
X6263330Y5778170D01*
X6251330Y5770830D01*
G01X6330670Y5686500D02*
X6338670Y5677330D01*
X6348000Y5671830D01*
X6360000Y5670000D01*
X6372000Y5673670D01*
X6381330Y5681000D01*
X6388000Y5693830D01*
X6389330Y5708500D01*
X6386670Y5723170D01*
X6380000Y5732330D01*
X6370670Y5739670D01*
X6361330Y5741500D01*
X6352000Y5739670D01*
X6340000Y5732330D01*
X6344000Y5780000D01*
X6380000D01*
G01X6153330Y5910000D02*
Y6020000D01*
X6186670D01*
X6197330Y6014500D01*
X6204000Y6007170D01*
X6206670Y5992500D01*
X6204000Y5977830D01*
X6196000Y5968670D01*
X6186670Y5963170D01*
X6153330D01*
G01X6186670D02*
X6206670Y5910000D01*
G01X6240670Y5932000D02*
X6248670Y5919160D01*
X6259330Y5911830D01*
X6271330Y5910000D01*
X6282000Y5911830D01*
X6292670Y5921000D01*
X6299330Y5932000D01*
X6300670Y5943000D01*
X6298000Y5955830D01*
X6288670Y5965000D01*
X6279330Y5968670D01*
X6267330D01*
G01X6279330D02*
X6287330Y5974170D01*
X6294000Y5983330D01*
X6296670Y5994330D01*
X6294000Y6005330D01*
X6287330Y6014500D01*
X6275330Y6020000D01*
X6263330Y6018170D01*
X6251330Y6010830D01*
G01X6376000Y5910000D02*
Y6020000D01*
X6326670Y5941170D01*
X6393330D01*
G01X6169040Y7052840D02*
X6279040D01*
G01X6169040Y7022170D02*
Y7083510D01*
G01X6279040Y7116170D02*
X6169040D01*
Y7148170D01*
X6174540Y7158840D01*
X6187370Y7166840D01*
X6202040Y7169510D01*
X6216710Y7166840D01*
X6227710Y7160170D01*
X6233210Y7148170D01*
Y7116170D01*
G01X6279040Y7232840D02*
X6277210Y7242170D01*
X6271710Y7252840D01*
X6262540Y7259510D01*
X6249710Y7262170D01*
X6236880Y7259510D01*
X6225870Y7251510D01*
X6220370Y7239510D01*
Y7226170D01*
X6216710Y7218170D01*
X6207540Y7211510D01*
X6194710Y7208840D01*
X6181870Y7212840D01*
X6172710Y7222170D01*
X6169040Y7232840D01*
X6172710Y7243510D01*
X6181870Y7252840D01*
X6194710Y7256840D01*
X6207540Y7254170D01*
X6216710Y7247510D01*
X6220370Y7239510D01*
Y7226170D01*
X6225870Y7214170D01*
X6236880Y7206170D01*
X6249710Y7203510D01*
X6262540Y7206170D01*
X6271710Y7212840D01*
X6277210Y7223510D01*
X6279040Y7232840D01*
G01X6449170Y2679330D02*
X6443670Y2671330D01*
X6440000Y2662000D01*
Y2651330D01*
X6445500Y2639330D01*
X6454670Y2630000D01*
X6465670Y2623330D01*
X6484000Y2618000D01*
X6500500Y2616670D01*
X6517000Y2619330D01*
X6528000Y2623330D01*
X6539000Y2631330D01*
X6546330Y2640670D01*
X6550000Y2650000D01*
Y2659330D01*
X6546330Y2668670D01*
X6540840Y2676670D01*
X6533500Y2683330D01*
G01X6550000Y2740000D02*
X6440000D01*
X6462000Y2724000D01*
G01X6550000D02*
Y2756000D01*
G01Y2846000D02*
X6440000D01*
X6518830Y2796670D01*
Y2863330D01*
G01X6289170Y2679330D02*
X6283670Y2671330D01*
X6280000Y2662000D01*
Y2651330D01*
X6285500Y2639330D01*
X6294670Y2630000D01*
X6305670Y2623330D01*
X6324000Y2618000D01*
X6340500Y2616670D01*
X6357000Y2619330D01*
X6368000Y2623330D01*
X6379000Y2631330D01*
X6386330Y2640670D01*
X6390000Y2650000D01*
Y2659330D01*
X6386330Y2668670D01*
X6380840Y2676670D01*
X6373500Y2683330D01*
G01X6390000Y2740000D02*
X6280000D01*
X6302000Y2724000D01*
G01X6390000D02*
Y2756000D01*
G01X6368000Y2800670D02*
X6380840Y2808670D01*
X6388170Y2819330D01*
X6390000Y2831330D01*
X6388170Y2842000D01*
X6379000Y2852670D01*
X6368000Y2859330D01*
X6357000Y2860670D01*
X6344170Y2858000D01*
X6335000Y2848670D01*
X6331330Y2839330D01*
Y2827330D01*
G01Y2839330D02*
X6325830Y2847330D01*
X6316670Y2854000D01*
X6305670Y2856670D01*
X6294670Y2854000D01*
X6285500Y2847330D01*
X6280000Y2835330D01*
X6281830Y2823330D01*
X6289170Y2811330D01*
G01X6359040Y7052840D02*
X6469040D01*
G01X6359040Y7022170D02*
Y7083510D01*
G01X6469040Y7116170D02*
X6359040D01*
Y7148170D01*
X6364540Y7158840D01*
X6377370Y7166840D01*
X6392040Y7169510D01*
X6406710Y7166840D01*
X6417710Y7160170D01*
X6423210Y7148170D01*
Y7116170D01*
G01X6456210Y7210170D02*
X6465370Y7219510D01*
X6469040Y7230170D01*
X6465370Y7240840D01*
X6454380Y7250170D01*
X6437870Y7256840D01*
X6421370Y7259510D01*
X6401210D01*
X6384710Y7256840D01*
X6370040Y7250170D01*
X6362710Y7242170D01*
X6359040Y7232840D01*
X6362710Y7222170D01*
X6370040Y7214170D01*
X6381040Y7208840D01*
X6395710Y7206170D01*
X6408540Y7208840D01*
X6421370Y7215510D01*
X6428710Y7223510D01*
X6430540Y7232840D01*
X6426880Y7243510D01*
X6417710Y7251510D01*
X6401210Y7259510D01*
G01X6509040Y7052840D02*
X6619040D01*
G01X6509040Y7022170D02*
Y7083510D01*
G01X6619040Y7116170D02*
X6509040D01*
Y7148170D01*
X6514540Y7158840D01*
X6527370Y7166840D01*
X6542040Y7169510D01*
X6556710Y7166840D01*
X6567710Y7160170D01*
X6573210Y7148170D01*
Y7116170D01*
G01X6619040Y7232840D02*
X6509040D01*
X6531040Y7216840D01*
G01X6619040D02*
Y7248840D01*
G01X6509040Y7322840D02*
X6512710Y7312170D01*
X6521870Y7304170D01*
X6532870Y7298840D01*
X6547540Y7294840D01*
X6564040Y7293510D01*
X6580540Y7294840D01*
X6595210Y7298840D01*
X6606210Y7304170D01*
X6615370Y7312170D01*
X6619040Y7322840D01*
X6615370Y7333510D01*
X6606210Y7341510D01*
X6595210Y7346840D01*
X6580540Y7350840D01*
X6564040Y7352170D01*
X6547540Y7350840D01*
X6532870Y7346840D01*
X6521870Y7341510D01*
X6512710Y7333510D01*
X6509040Y7322840D01*
G01X6689330Y4330830D02*
X6681330Y4336330D01*
X6672000Y4340000D01*
X6661330D01*
X6649330Y4334500D01*
X6640000Y4325330D01*
X6633330Y4314330D01*
X6628000Y4296000D01*
X6626670Y4279500D01*
X6629330Y4263000D01*
X6633330Y4252000D01*
X6641330Y4241000D01*
X6650670Y4233670D01*
X6660000Y4230000D01*
X6669330D01*
X6678670Y4233670D01*
X6686670Y4239160D01*
X6693330Y4246500D01*
G01X6766000Y4230000D02*
Y4340000D01*
X6716670Y4261170D01*
X6783330D01*
G01X6840000Y4340000D02*
X6829330Y4336330D01*
X6821330Y4327170D01*
X6816000Y4316170D01*
X6812000Y4301500D01*
X6810670Y4285000D01*
X6812000Y4268500D01*
X6816000Y4253830D01*
X6821330Y4242830D01*
X6829330Y4233670D01*
X6840000Y4230000D01*
X6850670Y4233670D01*
X6858670Y4242830D01*
X6864000Y4253830D01*
X6868000Y4268500D01*
X6869330Y4285000D01*
X6868000Y4301500D01*
X6864000Y4316170D01*
X6858670Y4327170D01*
X6850670Y4336330D01*
X6840000Y4340000D01*
G01X6650670Y4390000D02*
Y4500000D01*
X6677330D01*
X6688000Y4494500D01*
X6696000Y4487170D01*
X6702670Y4476170D01*
X6708000Y4463330D01*
X6709330Y4445000D01*
X6708000Y4426670D01*
X6702670Y4413830D01*
X6696000Y4402830D01*
X6688000Y4395500D01*
X6677330Y4390000D01*
X6650670D01*
G01X6770000D02*
Y4500000D01*
X6754000Y4478000D01*
G01Y4390000D02*
X6786000D01*
G01X6903330Y2182000D02*
X6910000Y2171000D01*
X6918000Y2163670D01*
X6927330Y2160000D01*
X6938000Y2163670D01*
X6946000Y2171000D01*
X6954000Y2182000D01*
X6956670Y2196670D01*
Y2270000D01*
G01X6990670Y2182000D02*
X6998670Y2169160D01*
X7009330Y2161830D01*
X7021330Y2160000D01*
X7032000Y2161830D01*
X7042670Y2171000D01*
X7049330Y2182000D01*
X7050670Y2193000D01*
X7048000Y2205830D01*
X7038670Y2215000D01*
X7029330Y2218670D01*
X7017330D01*
G01X7029330D02*
X7037330Y2224170D01*
X7044000Y2233330D01*
X7046670Y2244330D01*
X7044000Y2255330D01*
X7037330Y2264500D01*
X7025330Y2270000D01*
X7013330Y2268170D01*
X7001330Y2260830D01*
G01X6923330Y3350000D02*
Y3460000D01*
X6956670D01*
X6967330Y3454500D01*
X6974000Y3447170D01*
X6976670Y3432500D01*
X6974000Y3417830D01*
X6966000Y3408670D01*
X6956670Y3403170D01*
X6923330D01*
G01X6956670D02*
X6976670Y3350000D01*
G01X7010670Y3372000D02*
X7018670Y3359160D01*
X7029330Y3351830D01*
X7041330Y3350000D01*
X7052000Y3351830D01*
X7062670Y3361000D01*
X7069330Y3372000D01*
X7070670Y3383000D01*
X7068000Y3395830D01*
X7058670Y3405000D01*
X7049330Y3408670D01*
X7037330D01*
G01X7049330D02*
X7057330Y3414170D01*
X7064000Y3423330D01*
X7066670Y3434330D01*
X7064000Y3445330D01*
X7057330Y3454500D01*
X7045330Y3460000D01*
X7033330Y3458170D01*
X7021330Y3450830D01*
G01X7104670Y3441670D02*
X7112670Y3452660D01*
X7122000Y3458170D01*
X7132670Y3460000D01*
X7146000Y3456330D01*
X7155330Y3447170D01*
X7158000Y3436170D01*
X7156670Y3425160D01*
X7151330Y3416000D01*
X7124670Y3397670D01*
X7112670Y3384830D01*
X7104670Y3366500D01*
X7102000Y3350000D01*
X7158000D01*
G01X6923330Y3590000D02*
Y3700000D01*
X6956670D01*
X6967330Y3694500D01*
X6974000Y3687170D01*
X6976670Y3672500D01*
X6974000Y3657830D01*
X6966000Y3648670D01*
X6956670Y3643170D01*
X6923330D01*
G01X6956670D02*
X6976670Y3590000D01*
G01X7010670Y3612000D02*
X7018670Y3599160D01*
X7029330Y3591830D01*
X7041330Y3590000D01*
X7052000Y3591830D01*
X7062670Y3601000D01*
X7069330Y3612000D01*
X7070670Y3623000D01*
X7068000Y3635830D01*
X7058670Y3645000D01*
X7049330Y3648670D01*
X7037330D01*
G01X7049330D02*
X7057330Y3654170D01*
X7064000Y3663330D01*
X7066670Y3674330D01*
X7064000Y3685330D01*
X7057330Y3694500D01*
X7045330Y3700000D01*
X7033330Y3698170D01*
X7021330Y3690830D01*
G01X7100670Y3612000D02*
X7108670Y3599160D01*
X7119330Y3591830D01*
X7131330Y3590000D01*
X7142000Y3591830D01*
X7152670Y3601000D01*
X7159330Y3612000D01*
X7160670Y3623000D01*
X7158000Y3635830D01*
X7148670Y3645000D01*
X7139330Y3648670D01*
X7127330D01*
G01X7139330D02*
X7147330Y3654170D01*
X7154000Y3663330D01*
X7156670Y3674330D01*
X7154000Y3685330D01*
X7147330Y3694500D01*
X7135330Y3700000D01*
X7123330Y3698170D01*
X7111330Y3690830D01*
G01X6923330Y3730000D02*
Y3840000D01*
X6956670D01*
X6967330Y3834500D01*
X6974000Y3827170D01*
X6976670Y3812500D01*
X6974000Y3797830D01*
X6966000Y3788670D01*
X6956670Y3783170D01*
X6923330D01*
G01X6956670D02*
X6976670Y3730000D01*
G01X7010670Y3752000D02*
X7018670Y3739160D01*
X7029330Y3731830D01*
X7041330Y3730000D01*
X7052000Y3731830D01*
X7062670Y3741000D01*
X7069330Y3752000D01*
X7070670Y3763000D01*
X7068000Y3775830D01*
X7058670Y3785000D01*
X7049330Y3788670D01*
X7037330D01*
G01X7049330D02*
X7057330Y3794170D01*
X7064000Y3803330D01*
X7066670Y3814330D01*
X7064000Y3825330D01*
X7057330Y3834500D01*
X7045330Y3840000D01*
X7033330Y3838170D01*
X7021330Y3830830D01*
G01X7130000Y3840000D02*
X7119330Y3836330D01*
X7111330Y3827170D01*
X7106000Y3816170D01*
X7102000Y3801500D01*
X7100670Y3785000D01*
X7102000Y3768500D01*
X7106000Y3753830D01*
X7111330Y3742830D01*
X7119330Y3733670D01*
X7130000Y3730000D01*
X7140670Y3733670D01*
X7148670Y3742830D01*
X7154000Y3753830D01*
X7158000Y3768500D01*
X7159330Y3785000D01*
X7158000Y3801500D01*
X7154000Y3816170D01*
X7148670Y3827170D01*
X7140670Y3836330D01*
X7130000Y3840000D01*
G01X6923330Y3950000D02*
Y4060000D01*
X6956670D01*
X6967330Y4054500D01*
X6974000Y4047170D01*
X6976670Y4032500D01*
X6974000Y4017830D01*
X6966000Y4008670D01*
X6956670Y4003170D01*
X6923330D01*
G01X6956670D02*
X6976670Y3950000D01*
G01X7010670Y3972000D02*
X7018670Y3959160D01*
X7029330Y3951830D01*
X7041330Y3950000D01*
X7052000Y3951830D01*
X7062670Y3961000D01*
X7069330Y3972000D01*
X7070670Y3983000D01*
X7068000Y3995830D01*
X7058670Y4005000D01*
X7049330Y4008670D01*
X7037330D01*
G01X7049330D02*
X7057330Y4014170D01*
X7064000Y4023330D01*
X7066670Y4034330D01*
X7064000Y4045330D01*
X7057330Y4054500D01*
X7045330Y4060000D01*
X7033330Y4058170D01*
X7021330Y4050830D01*
G01X7130000Y3950000D02*
Y4060000D01*
X7114000Y4038000D01*
G01Y3950000D02*
X7146000D01*
G01X6963330Y4250000D02*
Y4360000D01*
X6996670D01*
X7007330Y4354500D01*
X7014000Y4347170D01*
X7016670Y4332500D01*
X7014000Y4317830D01*
X7006000Y4308670D01*
X6996670Y4303170D01*
X6963330D01*
G01X6996670D02*
X7016670Y4250000D01*
G01X7096000D02*
Y4360000D01*
X7046670Y4281170D01*
X7113330D01*
G01X7170000Y4250000D02*
Y4360000D01*
X7154000Y4338000D01*
G01Y4250000D02*
X7186000D01*
G01X6963330Y4390000D02*
Y4500000D01*
X6996670D01*
X7007330Y4494500D01*
X7014000Y4487170D01*
X7016670Y4472500D01*
X7014000Y4457830D01*
X7006000Y4448670D01*
X6996670Y4443170D01*
X6963330D01*
G01X6996670D02*
X7016670Y4390000D01*
G01X7054670Y4481670D02*
X7062670Y4492660D01*
X7072000Y4498170D01*
X7082670Y4500000D01*
X7096000Y4496330D01*
X7105330Y4487170D01*
X7108000Y4476170D01*
X7106670Y4465160D01*
X7101330Y4456000D01*
X7074670Y4437670D01*
X7062670Y4424830D01*
X7054670Y4406500D01*
X7052000Y4390000D01*
X7108000D01*
G01X7144670Y4435830D02*
X7154000Y4448670D01*
X7162000Y4456000D01*
X7172670Y4459670D01*
X7182000Y4456000D01*
X7188670Y4448670D01*
X7194000Y4437670D01*
X7195330Y4424830D01*
X7194000Y4413830D01*
X7188670Y4402830D01*
X7180670Y4393670D01*
X7171330Y4390000D01*
X7160670Y4393670D01*
X7151330Y4404660D01*
X7146000Y4421170D01*
X7144670Y4439500D01*
X7147330Y4463330D01*
X7151330Y4476170D01*
X7158000Y4489000D01*
X7167330Y4498170D01*
X7176670Y4500000D01*
X7186000Y4496330D01*
X7192670Y4487170D01*
G01X7273330Y4930000D02*
Y5040000D01*
X7306670D01*
X7317330Y5034500D01*
X7324000Y5027170D01*
X7326670Y5012500D01*
X7324000Y4997830D01*
X7316000Y4988670D01*
X7306670Y4983170D01*
X7273330D01*
G01X7306670D02*
X7326670Y4930000D01*
G01X7406000D02*
Y5040000D01*
X7356670Y4961170D01*
X7423330D01*
G01X7450670Y4952000D02*
X7458670Y4939160D01*
X7469330Y4931830D01*
X7481330Y4930000D01*
X7492000Y4931830D01*
X7502670Y4941000D01*
X7509330Y4952000D01*
X7510670Y4963000D01*
X7508000Y4975830D01*
X7498670Y4985000D01*
X7489330Y4988670D01*
X7477330D01*
G01X7489330D02*
X7497330Y4994170D01*
X7504000Y5003330D01*
X7506670Y5014330D01*
X7504000Y5025330D01*
X7497330Y5034500D01*
X7485330Y5040000D01*
X7473330Y5038170D01*
X7461330Y5030830D01*
G01X7260000Y6150000D02*
Y6260000D01*
X7244000Y6238000D01*
G01Y6150000D02*
X7276000D01*
G01X7550670Y4250000D02*
Y4360000D01*
G01X7601330D02*
X7550670Y4292160D01*
G01X7609330Y4250000D02*
X7573330Y4323330D01*
G01X7696670Y4250000D02*
X7643330D01*
Y4360000D01*
X7696670D01*
G01X7675330Y4306830D02*
X7643330D01*
G01X7760000Y4250000D02*
Y4299500D01*
X7733330Y4360000D01*
G01X7786670D02*
X7760000Y4299500D01*
G01X7850000Y4250000D02*
Y4360000D01*
X7834000Y4338000D01*
G01Y4250000D02*
X7866000D01*
G01X7492000Y6164660D02*
X7502670Y6155500D01*
X7514670Y6150000D01*
X7525330D01*
X7536000Y6155500D01*
X7544000Y6164660D01*
X7548000Y6177500D01*
X7545330Y6190330D01*
X7538670Y6201330D01*
X7526670Y6208670D01*
X7510670Y6212330D01*
X7501330Y6219670D01*
X7497330Y6232500D01*
X7500000Y6245330D01*
X7506670Y6254500D01*
X7516000Y6260000D01*
X7525330D01*
X7534670Y6256330D01*
X7542670Y6247170D01*
G01X7570000Y6260000D02*
X7588670Y6150000D01*
X7610000Y6260000D01*
X7631330Y6150000D01*
X7650000Y6260000D01*
G01X7674670Y6241670D02*
X7682670Y6252660D01*
X7692000Y6258170D01*
X7702670Y6260000D01*
X7716000Y6256330D01*
X7725330Y6247170D01*
X7728000Y6236170D01*
X7726670Y6225160D01*
X7721330Y6216000D01*
X7694670Y6197670D01*
X7682670Y6184830D01*
X7674670Y6166500D01*
X7672000Y6150000D01*
X7728000D01*
G01X7949170Y2689330D02*
X7943670Y2681330D01*
X7940000Y2672000D01*
Y2661330D01*
X7945500Y2649330D01*
X7954670Y2640000D01*
X7965670Y2633330D01*
X7984000Y2628000D01*
X8000500Y2626670D01*
X8017000Y2629330D01*
X8028000Y2633330D01*
X8039000Y2641330D01*
X8046330Y2650670D01*
X8050000Y2660000D01*
Y2669330D01*
X8046330Y2678670D01*
X8040840Y2686670D01*
X8033500Y2693330D01*
G01X8050000Y2750000D02*
X7940000D01*
X7962000Y2734000D01*
G01X8050000D02*
Y2766000D01*
G01X8037170Y2817330D02*
X8046330Y2826670D01*
X8050000Y2837330D01*
X8046330Y2848000D01*
X8035340Y2857330D01*
X8018830Y2864000D01*
X8002330Y2866670D01*
X7982170D01*
X7965670Y2864000D01*
X7951000Y2857330D01*
X7943670Y2849330D01*
X7940000Y2840000D01*
X7943670Y2829330D01*
X7951000Y2821330D01*
X7962000Y2816000D01*
X7976670Y2813330D01*
X7989500Y2816000D01*
X8002330Y2822670D01*
X8009670Y2830670D01*
X8011500Y2840000D01*
X8007840Y2850670D01*
X7998670Y2858670D01*
X7982170Y2866670D01*
G01X8099170Y2689330D02*
X8093670Y2681330D01*
X8090000Y2672000D01*
Y2661330D01*
X8095500Y2649330D01*
X8104670Y2640000D01*
X8115670Y2633330D01*
X8134000Y2628000D01*
X8150500Y2626670D01*
X8167000Y2629330D01*
X8178000Y2633330D01*
X8189000Y2641330D01*
X8196330Y2650670D01*
X8200000Y2660000D01*
Y2669330D01*
X8196330Y2678670D01*
X8190840Y2686670D01*
X8183500Y2693330D01*
G01X8108330Y2724670D02*
X8097340Y2732670D01*
X8091830Y2742000D01*
X8090000Y2752670D01*
X8093670Y2766000D01*
X8102830Y2775330D01*
X8113830Y2778000D01*
X8124840Y2776670D01*
X8134000Y2771330D01*
X8152330Y2744670D01*
X8165170Y2732670D01*
X8183500Y2724670D01*
X8200000Y2722000D01*
Y2778000D01*
G01X8090000Y2840000D02*
X8093670Y2829330D01*
X8102830Y2821330D01*
X8113830Y2816000D01*
X8128500Y2812000D01*
X8145000Y2810670D01*
X8161500Y2812000D01*
X8176170Y2816000D01*
X8187170Y2821330D01*
X8196330Y2829330D01*
X8200000Y2840000D01*
X8196330Y2850670D01*
X8187170Y2858670D01*
X8176170Y2864000D01*
X8161500Y2868000D01*
X8145000Y2869330D01*
X8128500Y2868000D01*
X8113830Y2864000D01*
X8102830Y2858670D01*
X8093670Y2850670D01*
X8090000Y2840000D01*
G01X8230000Y6260000D02*
X8219330Y6256330D01*
X8211330Y6247170D01*
X8206000Y6236170D01*
X8202000Y6221500D01*
X8200670Y6205000D01*
X8202000Y6188500D01*
X8206000Y6173830D01*
X8211330Y6162830D01*
X8219330Y6153670D01*
X8230000Y6150000D01*
X8240670Y6153670D01*
X8248670Y6162830D01*
X8254000Y6173830D01*
X8258000Y6188500D01*
X8259330Y6205000D01*
X8258000Y6221500D01*
X8254000Y6236170D01*
X8248670Y6247170D01*
X8240670Y6256330D01*
X8230000Y6260000D01*
G01X8433330Y5160000D02*
Y5270000D01*
X8465330D01*
X8476000Y5264500D01*
X8484000Y5251670D01*
X8486670Y5237000D01*
X8484000Y5222330D01*
X8477330Y5211330D01*
X8465330Y5205830D01*
X8433330D01*
G01X8520670Y5176500D02*
X8528670Y5167330D01*
X8538000Y5161830D01*
X8550000Y5160000D01*
X8562000Y5163670D01*
X8571330Y5171000D01*
X8578000Y5183830D01*
X8579330Y5198500D01*
X8576670Y5213170D01*
X8570000Y5222330D01*
X8560670Y5229670D01*
X8551330Y5231500D01*
X8542000Y5229670D01*
X8530000Y5222330D01*
X8534000Y5270000D01*
X8570000D01*
G01X8600000Y5123330D02*
X8680000D01*
G01X8695330Y5160000D02*
Y5270000D01*
X8730000Y5178330D01*
X8764670Y5270000D01*
Y5160000D01*
G01X8820000D02*
X8809330Y5161830D01*
X8800000Y5169160D01*
X8792000Y5180170D01*
X8786670Y5193000D01*
X8784000Y5207670D01*
Y5222330D01*
X8786670Y5237000D01*
X8792000Y5249830D01*
X8800000Y5260830D01*
X8809330Y5268170D01*
X8820000Y5270000D01*
X8830670Y5268170D01*
X8840000Y5260830D01*
X8848000Y5249830D01*
X8853330Y5237000D01*
X8856000Y5222330D01*
Y5207670D01*
X8853330Y5193000D01*
X8848000Y5180170D01*
X8840000Y5169160D01*
X8830670Y5161830D01*
X8820000Y5160000D01*
G01X8880670D02*
Y5270000D01*
X8907330D01*
X8918000Y5264500D01*
X8926000Y5257170D01*
X8932670Y5246170D01*
X8938000Y5233330D01*
X8939330Y5215000D01*
X8938000Y5196670D01*
X8932670Y5183830D01*
X8926000Y5172830D01*
X8918000Y5165500D01*
X8907330Y5160000D01*
X8880670D01*
G01X9026670D02*
X8973330D01*
Y5270000D01*
X9026670D01*
G01X9005330Y5216830D02*
X8973330D01*
G01X9060670Y5182000D02*
X9068670Y5169160D01*
X9079330Y5161830D01*
X9091330Y5160000D01*
X9102000Y5161830D01*
X9112670Y5171000D01*
X9119330Y5182000D01*
X9120670Y5193000D01*
X9118000Y5205830D01*
X9108670Y5215000D01*
X9099330Y5218670D01*
X9087330D01*
G01X9099330D02*
X9107330Y5224170D01*
X9114000Y5233330D01*
X9116670Y5244330D01*
X9114000Y5255330D01*
X9107330Y5264500D01*
X9095330Y5270000D01*
X9083330Y5268170D01*
X9071330Y5260830D01*
G01X8433330Y5410000D02*
Y5520000D01*
X8465330D01*
X8476000Y5514500D01*
X8484000Y5501670D01*
X8486670Y5487000D01*
X8484000Y5472330D01*
X8477330Y5461330D01*
X8465330Y5455830D01*
X8433330D01*
G01X8520670Y5426500D02*
X8528670Y5417330D01*
X8538000Y5411830D01*
X8550000Y5410000D01*
X8562000Y5413670D01*
X8571330Y5421000D01*
X8578000Y5433830D01*
X8579330Y5448500D01*
X8576670Y5463170D01*
X8570000Y5472330D01*
X8560670Y5479670D01*
X8551330Y5481500D01*
X8542000Y5479670D01*
X8530000Y5472330D01*
X8534000Y5520000D01*
X8570000D01*
G01X8600000Y5373330D02*
X8680000D01*
G01X8695330Y5410000D02*
Y5520000D01*
X8730000Y5428330D01*
X8764670Y5520000D01*
Y5410000D01*
G01X8820000D02*
X8809330Y5411830D01*
X8800000Y5419160D01*
X8792000Y5430170D01*
X8786670Y5443000D01*
X8784000Y5457670D01*
Y5472330D01*
X8786670Y5487000D01*
X8792000Y5499830D01*
X8800000Y5510830D01*
X8809330Y5518170D01*
X8820000Y5520000D01*
X8830670Y5518170D01*
X8840000Y5510830D01*
X8848000Y5499830D01*
X8853330Y5487000D01*
X8856000Y5472330D01*
Y5457670D01*
X8853330Y5443000D01*
X8848000Y5430170D01*
X8840000Y5419160D01*
X8830670Y5411830D01*
X8820000Y5410000D01*
G01X8880670D02*
Y5520000D01*
X8907330D01*
X8918000Y5514500D01*
X8926000Y5507170D01*
X8932670Y5496170D01*
X8938000Y5483330D01*
X8939330Y5465000D01*
X8938000Y5446670D01*
X8932670Y5433830D01*
X8926000Y5422830D01*
X8918000Y5415500D01*
X8907330Y5410000D01*
X8880670D01*
G01X9026670D02*
X8973330D01*
Y5520000D01*
X9026670D01*
G01X9005330Y5466830D02*
X8973330D01*
G01X9064670Y5501670D02*
X9072670Y5512660D01*
X9082000Y5518170D01*
X9092670Y5520000D01*
X9106000Y5516330D01*
X9115330Y5507170D01*
X9118000Y5496170D01*
X9116670Y5485160D01*
X9111330Y5476000D01*
X9084670Y5457670D01*
X9072670Y5444830D01*
X9064670Y5426500D01*
X9062000Y5410000D01*
X9118000D01*
G01X8433330Y5670000D02*
Y5780000D01*
X8465330D01*
X8476000Y5774500D01*
X8484000Y5761670D01*
X8486670Y5747000D01*
X8484000Y5732330D01*
X8477330Y5721330D01*
X8465330Y5715830D01*
X8433330D01*
G01X8520670Y5686500D02*
X8528670Y5677330D01*
X8538000Y5671830D01*
X8550000Y5670000D01*
X8562000Y5673670D01*
X8571330Y5681000D01*
X8578000Y5693830D01*
X8579330Y5708500D01*
X8576670Y5723170D01*
X8570000Y5732330D01*
X8560670Y5739670D01*
X8551330Y5741500D01*
X8542000Y5739670D01*
X8530000Y5732330D01*
X8534000Y5780000D01*
X8570000D01*
G01X8600000Y5633330D02*
X8680000D01*
G01X8695330Y5670000D02*
Y5780000D01*
X8730000Y5688330D01*
X8764670Y5780000D01*
Y5670000D01*
G01X8820000D02*
X8809330Y5671830D01*
X8800000Y5679160D01*
X8792000Y5690170D01*
X8786670Y5703000D01*
X8784000Y5717670D01*
Y5732330D01*
X8786670Y5747000D01*
X8792000Y5759830D01*
X8800000Y5770830D01*
X8809330Y5778170D01*
X8820000Y5780000D01*
X8830670Y5778170D01*
X8840000Y5770830D01*
X8848000Y5759830D01*
X8853330Y5747000D01*
X8856000Y5732330D01*
Y5717670D01*
X8853330Y5703000D01*
X8848000Y5690170D01*
X8840000Y5679160D01*
X8830670Y5671830D01*
X8820000Y5670000D01*
G01X8880670D02*
Y5780000D01*
X8907330D01*
X8918000Y5774500D01*
X8926000Y5767170D01*
X8932670Y5756170D01*
X8938000Y5743330D01*
X8939330Y5725000D01*
X8938000Y5706670D01*
X8932670Y5693830D01*
X8926000Y5682830D01*
X8918000Y5675500D01*
X8907330Y5670000D01*
X8880670D01*
G01X9026670D02*
X8973330D01*
Y5780000D01*
X9026670D01*
G01X9005330Y5726830D02*
X8973330D01*
G01X9090000Y5670000D02*
Y5780000D01*
X9074000Y5758000D01*
G01Y5670000D02*
X9106000D01*
G01X8433330Y5920000D02*
Y6030000D01*
X8465330D01*
X8476000Y6024500D01*
X8484000Y6011670D01*
X8486670Y5997000D01*
X8484000Y5982330D01*
X8477330Y5971330D01*
X8465330Y5965830D01*
X8433330D01*
G01X8520670Y5936500D02*
X8528670Y5927330D01*
X8538000Y5921830D01*
X8550000Y5920000D01*
X8562000Y5923670D01*
X8571330Y5931000D01*
X8578000Y5943830D01*
X8579330Y5958500D01*
X8576670Y5973170D01*
X8570000Y5982330D01*
X8560670Y5989670D01*
X8551330Y5991500D01*
X8542000Y5989670D01*
X8530000Y5982330D01*
X8534000Y6030000D01*
X8570000D01*
G01X8600000Y5883330D02*
X8680000D01*
G01X8695330Y5920000D02*
Y6030000D01*
X8730000Y5938330D01*
X8764670Y6030000D01*
Y5920000D01*
G01X8820000D02*
X8809330Y5921830D01*
X8800000Y5929160D01*
X8792000Y5940170D01*
X8786670Y5953000D01*
X8784000Y5967670D01*
Y5982330D01*
X8786670Y5997000D01*
X8792000Y6009830D01*
X8800000Y6020830D01*
X8809330Y6028170D01*
X8820000Y6030000D01*
X8830670Y6028170D01*
X8840000Y6020830D01*
X8848000Y6009830D01*
X8853330Y5997000D01*
X8856000Y5982330D01*
Y5967670D01*
X8853330Y5953000D01*
X8848000Y5940170D01*
X8840000Y5929160D01*
X8830670Y5921830D01*
X8820000Y5920000D01*
G01X8880670D02*
Y6030000D01*
X8907330D01*
X8918000Y6024500D01*
X8926000Y6017170D01*
X8932670Y6006170D01*
X8938000Y5993330D01*
X8939330Y5975000D01*
X8938000Y5956670D01*
X8932670Y5943830D01*
X8926000Y5932830D01*
X8918000Y5925500D01*
X8907330Y5920000D01*
X8880670D01*
G01X9026670D02*
X8973330D01*
Y6030000D01*
X9026670D01*
G01X9005330Y5976830D02*
X8973330D01*
G01X9090000Y6030000D02*
X9079330Y6026330D01*
X9071330Y6017170D01*
X9066000Y6006170D01*
X9062000Y5991500D01*
X9060670Y5975000D01*
X9062000Y5958500D01*
X9066000Y5943830D01*
X9071330Y5932830D01*
X9079330Y5923670D01*
X9090000Y5920000D01*
X9100670Y5923670D01*
X9108670Y5932830D01*
X9114000Y5943830D01*
X9118000Y5958500D01*
X9119330Y5975000D01*
X9118000Y5991500D01*
X9114000Y6006170D01*
X9108670Y6017170D01*
X9100670Y6026330D01*
X9090000Y6030000D01*
G01X8553330Y2182000D02*
X8560000Y2171000D01*
X8568000Y2163670D01*
X8577330Y2160000D01*
X8588000Y2163670D01*
X8596000Y2171000D01*
X8604000Y2182000D01*
X8606670Y2196670D01*
Y2270000D01*
G01X8640670Y2176500D02*
X8648670Y2167330D01*
X8658000Y2161830D01*
X8670000Y2160000D01*
X8682000Y2163670D01*
X8691330Y2171000D01*
X8698000Y2183830D01*
X8699330Y2198500D01*
X8696670Y2213170D01*
X8690000Y2222330D01*
X8680670Y2229670D01*
X8671330Y2231500D01*
X8662000Y2229670D01*
X8650000Y2222330D01*
X8654000Y2270000D01*
X8690000D01*
G01X9126010Y715880D02*
Y825880D01*
X9160680Y734210D01*
X9195350Y825880D01*
Y715880D01*
G01X9222680D02*
Y825880D01*
G01X9278680D02*
Y715880D01*
G01Y770880D02*
X9222680D01*
G01X9315350Y807550D02*
X9323350Y818540D01*
X9332680Y824050D01*
X9343350Y825880D01*
X9356680Y822210D01*
X9366010Y813050D01*
X9368680Y802050D01*
X9367350Y791040D01*
X9362010Y781880D01*
X9335350Y763550D01*
X9323350Y750710D01*
X9315350Y732380D01*
X9312680Y715880D01*
X9368680D01*
G01X9086010Y6655880D02*
Y6765880D01*
X9120680Y6674210D01*
X9155350Y6765880D01*
Y6655880D01*
G01X9182680D02*
Y6765880D01*
G01X9238680D02*
Y6655880D01*
G01Y6710880D02*
X9182680D01*
G01X9271350Y6677880D02*
X9279350Y6665040D01*
X9290010Y6657710D01*
X9302010Y6655880D01*
X9312680Y6657710D01*
X9323350Y6666880D01*
X9330010Y6677880D01*
X9331350Y6688880D01*
X9328680Y6701710D01*
X9319350Y6710880D01*
X9310010Y6714550D01*
X9298010D01*
G01X9310010D02*
X9318010Y6720050D01*
X9324680Y6729210D01*
X9327350Y6740210D01*
X9324680Y6751210D01*
X9318010Y6760380D01*
X9306010Y6765880D01*
X9294010Y6764050D01*
X9282010Y6756710D01*
G54D15*
G01X959520Y4483500D02*
X1023020Y4420000D01*
X959520Y4356500D01*
Y4483500D01*
X977300Y4465720D01*
Y4381900D01*
X990000Y4394600D01*
Y4445400D01*
X1002700Y4432700D01*
Y4407300D01*
G01X959520Y4683500D02*
X1023020Y4620000D01*
X959520Y4556500D01*
Y4683500D01*
X977300Y4665720D01*
Y4581900D01*
X990000Y4594600D01*
Y4645400D01*
X1002700Y4632700D01*
Y4607300D01*
G01X959520Y4883500D02*
X1023020Y4820000D01*
X959520Y4756500D01*
Y4883500D01*
X977300Y4865720D01*
Y4781900D01*
X990000Y4794600D01*
Y4845400D01*
X1002700Y4832700D01*
Y4807300D01*
G01X959520Y5083500D02*
X1023020Y5020000D01*
X959520Y4956500D01*
Y5083500D01*
X977300Y5065720D01*
Y4981900D01*
X990000Y4994600D01*
Y5045400D01*
X1002700Y5032700D01*
Y5007300D01*
G01X959520Y5283500D02*
X1023020Y5220000D01*
X959520Y5156500D01*
Y5283500D01*
X977300Y5265720D01*
Y5181900D01*
X990000Y5194600D01*
Y5245400D01*
X1002700Y5232700D01*
Y5207300D01*
G01X959520Y5483500D02*
X1023020Y5420000D01*
X959520Y5356500D01*
Y5483500D01*
X977300Y5465720D01*
Y5381900D01*
X990000Y5394600D01*
Y5445400D01*
X1002700Y5432700D01*
Y5407300D01*
G01X1020480Y5676500D02*
X956980Y5740000D01*
X1020480Y5803500D01*
Y5676500D01*
X1002700Y5694280D01*
Y5778100D01*
X990000Y5765400D01*
Y5714600D01*
X977300Y5727300D01*
Y5752700D01*
G01X1450480Y4356500D02*
X1386980Y4420000D01*
X1450480Y4483500D01*
Y4356500D01*
X1432700Y4374280D01*
Y4458100D01*
X1420000Y4445400D01*
Y4394600D01*
X1407300Y4407300D01*
Y4432700D01*
G01X1450480Y4556500D02*
X1386980Y4620000D01*
X1450480Y4683500D01*
Y4556500D01*
X1432700Y4574280D01*
Y4658100D01*
X1420000Y4645400D01*
Y4594600D01*
X1407300Y4607300D01*
Y4632700D01*
G01X1450480Y4756500D02*
X1386980Y4820000D01*
X1450480Y4883500D01*
Y4756500D01*
X1432700Y4774280D01*
Y4858100D01*
X1420000Y4845400D01*
Y4794600D01*
X1407300Y4807300D01*
Y4832700D01*
G01X1450480Y4956500D02*
X1386980Y5020000D01*
X1450480Y5083500D01*
Y4956500D01*
X1432700Y4974280D01*
Y5058100D01*
X1420000Y5045400D01*
Y4994600D01*
X1407300Y5007300D01*
Y5032700D01*
G01X1450480Y5156500D02*
X1386980Y5220000D01*
X1450480Y5283500D01*
Y5156500D01*
X1432700Y5174280D01*
Y5258100D01*
X1420000Y5245400D01*
Y5194600D01*
X1407300Y5207300D01*
Y5232700D01*
G01X1450480Y5356500D02*
X1386980Y5420000D01*
X1450480Y5483500D01*
Y5356500D01*
X1432700Y5374280D01*
Y5458100D01*
X1420000Y5445400D01*
Y5394600D01*
X1407300Y5407300D01*
Y5432700D01*
G01X6770480Y4746500D02*
X6706980Y4810000D01*
X6770480Y4873500D01*
Y4746500D01*
X6752700Y4764280D01*
Y4848100D01*
X6740000Y4835400D01*
Y4784600D01*
X6727300Y4797300D01*
Y4822700D01*
G54D16*
G01X7530000Y4400000D02*
X8150000D01*
G01X7530000Y4780000D02*
X8150000D01*
M02*
