G04 ================== begin FILE IDENTIFICATION RECORD ==================*
G04 Layout Name:  H:/GitHub/MBEDBoard/88E6071_TEST_V10B/PCB/88E6071_TEST_V10B.brd*
G04 Film Name:    SolderMask_Top*
G04 File Format:  Gerber RS274X*
G04 File Origin:  Cadence Allegro 16.6-2015-S088*
G04 Origin Date:  Tue Aug 15 16:33:53 2017*
G04 *
G04 Layer:  BOARD GEOMETRY/OUTLINE*
G04 Layer:  PIN/SOLDERMASK_TOP*
G04 Layer:  PACKAGE GEOMETRY/SOLDERMASK_TOP*
G04 Layer:  BOARD GEOMETRY/SOLDERMASK_TOP*
G04 *
G04 Offset:    (0.0000 0.0000)*
G04 Mirror:    No*
G04 Mode:      Positive*
G04 Rotation:  0*
G04 FullContactRelief:  No*
G04 UndefLineWidth:     0.1524*
G04 ================== end FILE IDENTIFICATION RECORD ====================*
%FSLAX55Y55*MOMM*%
%IR0*IPPOS*OFA0.00000B0.00000*MIA0B0*SFA1.00000B1.00000*%
%ADD31R,2.8956X1.8288*%
%ADD26C,.85*%
%ADD19R,.9144X.9144*%
%ADD30R,2.3X1.2*%
%ADD23R,2.3X1.3*%
%ADD29R,4.2X4.2*%
%ADD22R,1.25X1.5*%
%ADD24R,2.3X3.7*%
%ADD18O,4.15X2.15*%
%ADD13O,2.15X4.15*%
%ADD20R,1.7X2.8*%
%ADD28R,.9X.33*%
%ADD15C,3.3*%
%ADD27R,.33X.9*%
%ADD12C,2.7*%
%ADD25R,1.4224X1.4224*%
%ADD17R,1.4224X1.4224*%
%ADD10C,6.35*%
%ADD21C,1.905*%
%ADD16R,1.2192X1.4224*%
%ADD14C,1.8009*%
%ADD11R,1.6764X3.048*%
%ADD32C,.1524*%
G75*
%LPD*%
G75*
G54D10*
X330000Y330000D03*
Y7170000D03*
X9250000Y330000D03*
Y7170000D03*
G54D11*
X155050Y2530000D03*
X624950D03*
G54D20*
X1290000Y6130000D03*
X1570000D03*
G54D21*
X1946000Y6635000D03*
Y7165000D03*
X2200000Y6635000D03*
Y7165000D03*
X2454000Y6635000D03*
Y7165000D03*
G54D12*
X715500Y1395000D03*
X2264500D03*
X2365500D03*
X4015500D03*
X3914500D03*
X5564500D03*
X5665500D03*
X7214500D03*
X7315500D03*
X8864500D03*
G54D30*
X7260000Y5209000D03*
Y5463000D03*
Y5717000D03*
Y5971000D03*
X8240000Y5209000D03*
Y5463000D03*
Y5717000D03*
Y5971000D03*
G54D13*
X810000Y6760000D03*
G54D22*
X2730000Y4970000D03*
Y5190000D03*
X2890000Y4970000D03*
Y5190000D03*
G54D31*
X7517000Y4590000D03*
X8163000D03*
G54D32*
G01X330000Y0D02*
X9250000D01*
G03X9580000Y330000I0J330000D01*
G01Y7170000D01*
G03X9250000Y7500000I-330000J0D01*
G01X330000D01*
G03X0Y7170000I0J-330000D01*
G01Y330000D01*
G03X330000Y0I330000J0D01*
G54D14*
X827500Y600000D03*
X1081500D03*
X1045000Y1725000D03*
X1172000Y1979000D03*
X1299000Y1725000D03*
X1426000Y1979000D03*
X1553000Y1725000D03*
X1680000Y1979000D03*
X1898500Y600000D03*
X1807000Y1725000D03*
X1934000Y1979000D03*
X2152500Y600000D03*
X2477500D03*
X2731500D03*
X2695000Y1725000D03*
X2949000D03*
X2822000Y1979000D03*
X3076000D03*
X3203000Y1725000D03*
X3457000D03*
X3330000Y1979000D03*
X3548500Y600000D03*
X3584000Y1979000D03*
X3802500Y600000D03*
X4127500D03*
X4381500D03*
X4345000Y1725000D03*
X4472000Y1979000D03*
X4599000Y1725000D03*
X4726000Y1979000D03*
X4853000Y1725000D03*
X4980000Y1979000D03*
X5107000Y1725000D03*
X5198500Y600000D03*
X5234000Y1979000D03*
X5452500Y600000D03*
X5777500D03*
X5995000Y1725000D03*
X6031500Y600000D03*
X6122000Y1979000D03*
X6249000Y1725000D03*
X6503000D03*
X6376000Y1979000D03*
X6630000D03*
X6848500Y600000D03*
X6757000Y1725000D03*
X6884000Y1979000D03*
X7102500Y600000D03*
X7427500D03*
X7681500D03*
X7645000Y1725000D03*
X7772000Y1979000D03*
X7899000Y1725000D03*
X8026000Y1979000D03*
X8153000Y1725000D03*
X8280000Y1979000D03*
X8498500Y600000D03*
X8407000Y1725000D03*
X8534000Y1979000D03*
X8752500Y600000D03*
G54D23*
X2910000Y6640000D03*
Y6870000D03*
Y7100000D03*
G54D15*
X918500Y1090000D03*
X2061500D03*
X2568500D03*
X3711500D03*
X4218500D03*
X5361500D03*
X5868500D03*
X7011500D03*
X7518500D03*
X8661500D03*
G54D24*
X3530000Y6870000D03*
G54D16*
X888400Y4420000D03*
Y4620000D03*
Y4820000D03*
Y5020000D03*
Y5220000D03*
Y5420000D03*
Y5740000D03*
X1091600Y4420000D03*
Y4620000D03*
Y4820000D03*
Y5020000D03*
Y5220000D03*
Y5420000D03*
Y5740000D03*
X1318400Y4420000D03*
Y4620000D03*
Y4820000D03*
Y5020000D03*
Y5220000D03*
Y5420000D03*
X1521600Y4420000D03*
Y4620000D03*
Y4820000D03*
Y5020000D03*
Y5220000D03*
Y5420000D03*
X6638400Y4810000D03*
X6841600D03*
G54D25*
X3850000Y6575860D03*
Y6784140D03*
G54D17*
X835860Y6130000D03*
X1044140D03*
X1995860Y6330000D03*
X2204140D03*
G54D26*
X4400000Y7090000D03*
X4550000D03*
X4700000D03*
X4850000D03*
X5000000D03*
X5300000D03*
X5450000D03*
G54D27*
X4545000Y4410000D03*
Y5310000D03*
X4745000Y4410000D03*
X4695000D03*
X4645000D03*
X4595000D03*
Y5310000D03*
X4645000D03*
X4695000D03*
X4745000D03*
X4895000Y4410000D03*
X4845000D03*
X4795000D03*
Y5310000D03*
X4845000D03*
X4895000D03*
X5095000Y4410000D03*
X5045000D03*
X4995000D03*
X4945000D03*
Y5310000D03*
X4995000D03*
X5045000D03*
X5095000D03*
X5245000Y4410000D03*
X5195000D03*
X5145000D03*
Y5310000D03*
X5195000D03*
X5245000D03*
X5295000Y4410000D03*
Y5310000D03*
G54D18*
X1290000Y6480000D03*
Y7080000D03*
G54D28*
X4470000Y4485000D03*
Y4535000D03*
Y4585000D03*
Y4635000D03*
Y4685000D03*
Y4735000D03*
Y4785000D03*
Y4835000D03*
Y4885000D03*
Y4935000D03*
Y4985000D03*
Y5035000D03*
Y5085000D03*
Y5135000D03*
Y5185000D03*
Y5235000D03*
X5370000Y4585000D03*
Y4535000D03*
Y4485000D03*
Y4735000D03*
Y4685000D03*
Y4635000D03*
Y4885000D03*
Y4835000D03*
Y4785000D03*
Y5085000D03*
Y5035000D03*
Y4985000D03*
Y4935000D03*
Y5235000D03*
Y5185000D03*
Y5135000D03*
G54D19*
X1360000Y2353800D03*
Y2506200D03*
X1333800Y5740000D03*
X1510000Y2353800D03*
Y2506200D03*
X1486200Y5740000D03*
X3010000Y2353800D03*
Y2506200D03*
X3160000Y2353800D03*
Y2506200D03*
X3113800Y3230000D03*
Y3460000D03*
Y3610000D03*
Y3830000D03*
Y3980000D03*
Y4190000D03*
Y4340000D03*
Y4560000D03*
Y4740000D03*
Y4950000D03*
Y5220000D03*
Y5380000D03*
Y5660000D03*
Y5810000D03*
Y6000000D03*
Y6150000D03*
Y6300000D03*
X3266200Y3230000D03*
Y3460000D03*
Y3610000D03*
Y3830000D03*
Y3980000D03*
Y4190000D03*
Y4340000D03*
Y4560000D03*
Y4740000D03*
Y4950000D03*
Y5220000D03*
Y5380000D03*
Y5660000D03*
Y5810000D03*
Y6000000D03*
Y6150000D03*
Y6300000D03*
X4400000Y6513800D03*
Y6666200D03*
X4510000Y3033800D03*
Y3186200D03*
X4550000Y6513800D03*
Y6666200D03*
X4690000Y2343800D03*
Y2496200D03*
X4720000Y3033800D03*
Y3186200D03*
X4700000Y6513800D03*
Y6666200D03*
X4850000Y2343800D03*
Y2496200D03*
X4890000Y3033800D03*
Y3186200D03*
X4850000Y6513800D03*
Y6666200D03*
X5090000Y3033800D03*
Y3186200D03*
X5000000Y6513800D03*
Y6666200D03*
X5150000Y6513800D03*
Y6666200D03*
X5300000Y3033800D03*
Y3186200D03*
Y6513800D03*
X5450000D03*
X5300000Y6666200D03*
X5450000D03*
X5520000Y3033800D03*
Y3186200D03*
X5670000Y3033800D03*
Y3186200D03*
X5890000Y3033800D03*
Y3186200D03*
X6340000Y2343800D03*
Y2496200D03*
X6490000Y2343800D03*
Y2496200D03*
X6603800Y3420000D03*
Y3640000D03*
Y3790000D03*
Y4010000D03*
X6756200Y3420000D03*
Y3640000D03*
Y3790000D03*
Y4010000D03*
X6673800Y4600000D03*
Y5210000D03*
Y5460000D03*
Y5730000D03*
Y5970000D03*
X6826200Y4600000D03*
Y5210000D03*
Y5460000D03*
Y5730000D03*
Y5970000D03*
X7156200Y4600000D03*
X7003800D03*
Y4810000D03*
X7156200D03*
X7003800Y4990000D03*
X7156200D03*
X8000000Y2343800D03*
Y2496200D03*
X8150000Y2343800D03*
Y2496200D03*
G54D29*
X4920000Y4860000D03*
M02*
