M48
METRIC,TZ
T01C.3048
T02C.4572
T03C1.016
T04C2.032
;LEADER: 12 
;HEADER: 
;CODE  : ASCII 
;FILE  : RS485_V10B-1-2.drl for  ... layers TOP and BOTTOM
;DESIGN: RS485_V10B.brd
;T01 Holesize 1. = 0.304800 Tolerance = +0.000000/-0.000000 PLATED MM Quantity = 67
;T02 Holesize 2. = 0.457200 Tolerance = +0.000000/-0.000000 PLATED MM Quantity = 5
;T03 Holesize 3. = 1.016000 Tolerance = +0.000000/-0.000000 PLATED MM Quantity = 4
;T04 Holesize 4. = 2.032000 Tolerance = +0.000000/-0.000000 PLATED MM Quantity = 4
%
G90
T01
X1830000Y970000
X1830000Y870000
X410000Y1710000
R02Y-80000
X410000Y1460000
X2040000Y1120000
X2030000Y1540000
X2020000Y1630000
X2020000Y1700000
X2100000Y1540000
X1350000Y1700000
X1350000Y1630000
X1420000Y1630000
X1420000Y1700000
X1510000Y1300000
X860000Y600000
X860000Y520000
X860000Y430000
X740000Y1810000
R02X70000
X880000Y1750000
X1320000Y750000
R02Y-70000
X1890000Y660000
R02X60000
X630000Y860000
X710000Y860000
X630000Y800000
X710000Y800000
X1822560Y1120000
X1140000Y630000
X1010000Y1900000
X1430000Y1860000
X1550000Y700000
X604250Y1299800
X603610Y1060130
X716390Y1299800
X715750Y1060130
X1668720Y1520000
X3540620Y354820
R03Y508000
X2350000Y1540000
X2240000Y1540000
X2360000Y1740000
X2260000Y1740000
X2360000Y830000
X2370000Y1030000
X1870000Y1830000
X1330000Y1450000
X526020Y367280
X399020Y367280
X168080Y448040
X295080Y448040
X168080Y575040
X295080Y575040
X238080Y1748040
X238080Y1875040
X521960Y1898080
X394960Y1898080
X1330000Y1310000
X1990000Y760000
T02
X990000Y880000
X990000Y1080000
X1090000Y980000
X1190000Y880000
X1190000Y1080000
T03
X1100000Y470000
R03X254000
T04
X2570000Y378000
R03Y508000
M30
