G04 ================== begin FILE IDENTIFICATION RECORD ==================*
G04 Layout Name:  E:/GitHub/MBEDBoard/CP2102-UART-RS485/RS485_V10B/PCB/RS485_V10B.brd*
G04 Film Name:    SolderMask_Bottom*
G04 File Format:  Gerber RS274X*
G04 File Origin:  Cadence Allegro 16.6-2015-S071*
G04 Origin Date:  Fri Nov 11 15:38:23 2016*
G04 *
G04 Layer:  BOARD GEOMETRY/OUTLINE*
G04 Layer:  PIN/SOLDERMASK_BOTTOM*
G04 Layer:  PACKAGE GEOMETRY/SOLDERMASK_BOTTOM*
G04 Layer:  BOARD GEOMETRY/SOLDERMASK_BOTTOM*
G04 *
G04 Offset:    (0.0000 0.0000)*
G04 Mirror:    No*
G04 Mode:      Positive*
G04 Rotation:  0*
G04 FullContactRelief:  No*
G04 UndefLineWidth:     0.1524*
G04 ================== end FILE IDENTIFICATION RECORD ====================*
%FSLAX55Y55*MOMM*%
%IR0*IPPOS*OFA0.00000B0.00000*MIA0B0*SFA1.00000B1.00000*%
%ADD12R,.9144X.9144*%
%ADD16R,2.3X1.7*%
%ADD14C,1.524*%
%ADD10R,1.4224X1.4224*%
%ADD15C,3.175*%
%ADD13R,1.651X1.651*%
%ADD11R,1.2954X1.2954*%
%ADD17C,.2032*%
%ADD18C,.17*%
G75*
%LPD*%
G75*
G36*
G01X920000Y1150000D02*
Y810000D01*
X1260000D01*
Y1150000D01*
X920000D01*
G37*
G54D10*
X475860Y500000D03*
Y680000D03*
X565860Y1470000D03*
X684140Y500000D03*
Y680000D03*
X774140Y1470000D03*
X985860D03*
Y1670000D03*
X1194140Y1470000D03*
Y1670000D03*
X1565860D03*
X1774140D03*
G54D11*
X565860D03*
X774140D03*
G54D12*
X883800Y700000D03*
X1036200D03*
X1143800Y1850000D03*
X1296200D03*
X1553800D03*
X1583800Y820000D03*
X1736200D03*
Y970000D03*
X1583800D03*
Y1120000D03*
X1736200D03*
Y1400000D03*
X1583800D03*
X1706200Y1850000D03*
X2143800Y450000D03*
Y600000D03*
Y1120000D03*
Y1400000D03*
X2153800Y1850000D03*
X2296200Y450000D03*
Y600000D03*
Y1120000D03*
Y1400000D03*
X2306200Y1850000D03*
G54D13*
X1100000Y470000D03*
G54D14*
X1354000D03*
X1608000D03*
X1862000D03*
G54D15*
X2570000Y378000D03*
Y886000D03*
Y1394000D03*
Y1902000D03*
G54D16*
X3080000Y230000D03*
Y660000D03*
Y910000D03*
Y1340000D03*
Y1590000D03*
Y2020000D03*
G54D17*
G01X0Y610000D02*
Y1670000D01*
G02X300000Y1970000I300000J0D01*
G01X2170000D01*
G03X2270000Y2070000I0J100000D01*
G01Y2180000D01*
G02X2370000Y2280000I100000J0D01*
G01X3550000D01*
G02X3650000Y2180000I0J-100000D01*
G01Y100000D01*
G02X3550000Y0I-100000J0D01*
G01X2370000D01*
G02X2270000Y100000I0J100000D01*
G01Y210000D01*
G03X2170000Y310000I-100000J0D01*
G01X300000D01*
G02X0Y610000I0J300000D01*
G54D18*
G01X460000Y940000D02*
G03I-30000J0D01*
G01Y1340000D02*
G03I-30000J0D01*
M02*
