G04 ================== begin FILE IDENTIFICATION RECORD ==================*
G04 Layout Name:  E:/GitHub/MBEDBoard/CP2102-UART-RS485/RS485_V10B/PCB/RS485_V10B.brd*
G04 Film Name:    TOP*
G04 File Format:  Gerber RS274X*
G04 File Origin:  Cadence Allegro 16.6-2015-S071*
G04 Origin Date:  Fri Nov 11 15:38:23 2016*
G04 *
G04 Layer:  BOARD GEOMETRY/OUTLINE*
G04 Layer:  VIA CLASS/TOP*
G04 Layer:  PIN/TOP*
G04 Layer:  ETCH/TOP*
G04 *
G04 Offset:    (0.0000 0.0000)*
G04 Mirror:    No*
G04 Mode:      Positive*
G04 Rotation:  0*
G04 FullContactRelief:  No*
G04 UndefLineWidth:     0.1524*
G04 ================== end FILE IDENTIFICATION RECORD ====================*
%FSLAX55Y55*MOMM*%
%IR0*IPPOS*OFA0.00000B0.00000*MIA0B0*SFA1.00000B1.00000*%
%ADD13R,1.X.23*%
%ADD15R,.23X1.*%
%ADD12R,1.4X.4*%
%ADD22R,1.5X.6*%
%ADD19R,1.06X.65*%
%ADD23R,.6604X1.016*%
%ADD17C,.762*%
%ADD10C,.5588*%
%ADD11R,2.X1.8*%
%ADD20R,1.016X1.2192*%
%ADD16R,3.1X3.1*%
%ADD21C,1.524*%
%ADD18R,.45X.47*%
%ADD25C,3.048*%
%ADD14R,1.524X1.524*%
%ADD24R,.9144X.9144*%
%ADD26C,.2032*%
%ADD27C,.17*%
%ADD28C,.7112*%
%ADD29C,.254*%
%ADD30C,.825*%
%ADD31C,3.7088*%
G75*
%LPD*%
G75*
G36*
G01X2370000Y10000D02*
G02X2280000Y100000I-5000J85000D01*
G01Y209990D01*
X2280010Y210230D01*
G03X2170230Y320010I-105010J4770D01*
G01X2169990Y320000D01*
X300000D01*
G02X10000Y610000I4091J294091D01*
G01Y1670000D01*
G02X300000Y1960000I296667J-6667D01*
G01X939040D01*
G02X956780Y1929760I4J-20321D01*
G03X949070Y1897520I53219J-29769D01*
G02X914400Y1882330I-20302J-823D01*
G01X913690Y1883040D01*
X676960D01*
Y1406310D01*
X695740Y1387540D01*
G02X690120Y1354830I-14370J-14369D01*
G03X674330Y1343960I26254J-55040D01*
G02X646310I-14010J14711D01*
G03X603350Y1360770I-42050J-44164D01*
G02X593040Y1370930I-149J10160D01*
G01Y1783040D01*
X336960D01*
Y1216960D01*
X379960D01*
Y1022960D01*
X555270D01*
G03X588520Y1001050I48338J37172D01*
G01X596160Y999090D01*
Y960910D01*
X599340Y957730D01*
G02X584970Y923040I-14368J-14369D01*
G01X566960D01*
Y726960D01*
X756960D01*
Y356960D01*
X993040D01*
Y360760D01*
X1209240D01*
Y580190D01*
G02X1196540Y607170I6144J19371D01*
G03X1200960Y628460I-56538J22842D01*
G02X1221270Y648260I20313J-520D01*
G01X1256960D01*
Y520170D01*
G03X1460910Y492460I97041J-50167D01*
G02X1480790Y516960I19883J4182D01*
G01X1481210D01*
G02X1501090Y492460I-3J-20318D01*
G03X1712070Y503200I106907J-22459D01*
G01X1710190Y509100D01*
X1718050Y516960D01*
X1735210D01*
G02X1755090Y492460I-3J-20318D01*
G03X1968910I106910J-22460D01*
G02X1988790Y516960I19883J4182D01*
G01X2103040D01*
Y542270D01*
X2143200Y582430D01*
Y767890D01*
X2142820Y768270D01*
G02X2157190Y802960I14368J14369D01*
G01X2328040D01*
Y1101810D01*
G02X2362730Y1116180I20321J2D01*
G01X2412110Y1066800D01*
X2441220D01*
G02X2453940Y1030630I5J-20320D01*
G03X2686060I116060J-144630D01*
G02X2698780Y1066800I12715J15850D01*
G01X2774410D01*
X2853200Y1145590D01*
Y1615370D01*
X2755370Y1713200D01*
X2688120D01*
G02X2676450Y1750160I-6J20321D01*
G03X2465740Y1748640I-106456J151840D01*
G02X2454320Y1711520I-11426J-16802D01*
G01X2220500D01*
G02X2206130Y1746210I-2J20321D01*
G01X2231160Y1771240D01*
X2264960D01*
Y1928760D01*
X1955040D01*
Y1793040D01*
X1833040D01*
Y1960000D01*
X2169990D01*
X2170230Y1959990D01*
G03X2280010Y2069770I4770J105010D01*
G01X2280000Y2070010D01*
Y2180000D01*
G02X2370000Y2270000I105000J-15000D01*
G01X3550000D01*
G02X3640000Y2180000I-1667J-91667D01*
G01Y100000D01*
G02X3550000Y10000I-91667J1667D01*
G01X2370000D01*
G37*
G36*
G01X370000Y1259040D02*
Y1292920D01*
G02X403420Y1308460I20321J5D01*
G03Y1371540I26580J31540D01*
G02X370000Y1387080I-13099J15535D01*
G01Y1750000D01*
X560000D01*
Y1341760D01*
G03X545230Y1284470I44251J-41957D01*
G02X525560Y1259040I-19667J-5110D01*
G01X370000D01*
G37*
G36*
G01X600000Y760000D02*
Y890000D01*
X756960D01*
Y785460D01*
X760000D01*
Y760000D01*
X600000D01*
G37*
G36*
G01X790000Y390000D02*
Y726960D01*
X793040D01*
Y826310D01*
X803690Y836960D01*
X890000D01*
Y820000D01*
X901960Y808040D01*
Y791960D01*
X918040D01*
X920000Y790000D01*
X946060D01*
Y648260D01*
X960000D01*
Y390000D01*
X790000D01*
G37*
G36*
G01X699500Y1155780D02*
X723840Y1180120D01*
Y1238760D01*
X731480Y1240720D01*
G03X759990Y1342430I-15092J59081D01*
G02X774520Y1376960I14526J14210D01*
G01X998200D01*
Y1314640D01*
X896860D01*
Y1174540D01*
X756960D01*
Y1138700D01*
G02X731420Y1119060I-20320J-1D01*
G03X714340Y1121090I-15665J-58932D01*
G02X699500Y1155780I-474J20316D01*
G37*
G36*
G01X720000Y1410000D02*
X710000Y1420000D01*
Y1850000D01*
X898910D01*
X1000000Y1748910D01*
Y1615540D01*
X848560D01*
Y1610000D01*
X830000D01*
Y1490000D01*
X848560D01*
Y1484460D01*
X1000000D01*
Y1410000D01*
X720000D01*
G37*
G36*
G01X993040Y814340D02*
Y823040D01*
X933690D01*
X923040Y833690D01*
Y1148560D01*
X1257260D01*
Y823040D01*
X1256960D01*
Y814340D01*
X993040D01*
G37*
G36*
G01X1067730Y1508820D02*
G02X1033040Y1523040I-14370J14368D01*
G01X863040D01*
Y1576960D01*
X1033040D01*
Y1766000D01*
X1096960D01*
Y1566960D01*
X1101340D01*
G02X1108520Y1549620I-5J-10158D01*
G01X1067730Y1508820D01*
G37*
G36*
G01X1498370Y748360D02*
X1423690Y823040D01*
X1423340D01*
Y1185870D01*
X1424040Y1187660D01*
G03X1419480Y1209430I-18927J7398D01*
G01X1342110Y1286800D01*
X1285940D01*
Y1314640D01*
X1160270D01*
G02X1153080Y1331980I-2J10160D01*
G01X1157890Y1336800D01*
X1412110D01*
X1448900Y1300010D01*
X1449140Y1296170D01*
G03X1475110Y1249990I60859J3833D01*
G02X1477860Y1218950I-11620J-16671D01*
G01X1456800Y1197890D01*
Y1032110D01*
X1539110Y949800D01*
X1571960D01*
Y783050D01*
X1550010Y761100D01*
X1546170Y760860D01*
G03X1511900Y747610I3834J-60859D01*
G02X1498370Y748360I-6346J7934D01*
G37*
G36*
G01X1940000Y1490000D02*
X1827070Y1602930D01*
X1820000Y1600000D01*
X1805900D01*
Y1600840D01*
X1683940D01*
Y1600000D01*
X1130000D01*
Y1740000D01*
X1240000D01*
Y1930000D01*
X1380000D01*
Y1895040D01*
X1378430Y1892550D01*
G03X1380000Y1825090I51569J-32548D01*
G01Y1750000D01*
X1660000D01*
Y1930000D01*
X1800000D01*
Y1760000D01*
X2000080D01*
X2046480Y1713600D01*
Y1653910D01*
X2115910Y1584480D01*
X2125520D01*
X2140000Y1570000D01*
Y1490000D01*
X1940000D01*
G37*
G36*
G01X2056800Y623200D02*
X1702110D01*
X1649970Y571060D01*
X1643950Y573160D01*
G03X1533610Y550000I-35948J-103158D01*
G01X1428390D01*
G03X1317170Y572840I-74384J-80002D01*
G02X1290000Y591970I-6849J19132D01*
G01Y790000D01*
X1410000D01*
X1489710Y710290D01*
X1489270Y705550D01*
G03X1603470Y670680I60728J-5553D01*
G01X1606360Y675960D01*
X1788040D01*
Y690000D01*
X2056800D01*
Y623200D01*
G37*
G36*
G01X1529850Y1357940D02*
X1524310Y1359280D01*
G03X1513830Y1360860I-14297J-59281D01*
G01X1509990Y1361100D01*
X1447890Y1423200D01*
X1291440D01*
Y1476800D01*
X1625680D01*
G03X1629550Y1473270I42991J43246D01*
G02X1630200Y1458300I-6531J-7783D01*
G01X1529850Y1357940D01*
G37*
G36*
G01X1886800Y1188420D02*
G02X1855500Y1171320I-20319J-4D01*
G03X1801680Y1177290I-32934J-51321D01*
G01X1799990Y1176680D01*
X1788040D01*
Y1183040D01*
X1714460D01*
Y1346840D01*
X1689990D01*
G02X1675620Y1381530I-2J20321D01*
G01X1727250Y1433160D01*
X1816060D01*
Y1518160D01*
G02X1850750Y1532530I20321J1D01*
G01X1926310Y1456960D01*
X2173040D01*
Y1584480D01*
X2454320D01*
G02X2465740Y1547360I-6J-20318D01*
G03X2479900Y1231920I104259J-153358D01*
G02X2470030Y1193840I-9872J-17760D01*
G01X2464730D01*
X2354730Y1303840D01*
X1982750D01*
X1886800Y1207890D01*
Y1188420D01*
G37*
G36*
G01X1923440Y865470D02*
X2031180Y757730D01*
G02X2016810Y723040I-14368J-14369D01*
G01X1788040D01*
Y791630D01*
G02X1813770Y811220I20320J4D01*
G03X1889310Y855820I16231J58780D01*
G02X1923440Y865470I19764J-4721D01*
G37*
%LPC*%
G75*
G54D30*
X430000Y940000D03*
G54D31*
X2570000Y378000D03*
%LPD*%
G75*
G54D10*
X168080Y448040D03*
Y575040D03*
X295080Y448040D03*
Y575040D03*
X238080Y1875040D03*
Y1748040D03*
X399020Y367280D03*
X526020D03*
X410000Y1460000D03*
Y1550000D03*
Y1630000D03*
Y1710000D03*
X394960Y1898080D03*
X521960D03*
X630000Y800000D03*
Y860000D03*
X603610Y1060130D03*
X604250Y1299800D03*
X860000Y430000D03*
Y520000D03*
Y600000D03*
X710000Y800000D03*
Y860000D03*
X715750Y1060130D03*
X716390Y1299800D03*
X810000Y1810000D03*
X740000D03*
X880000Y1750000D03*
Y1810000D03*
X1010000Y1900000D03*
X1140000Y630000D03*
X1320000Y610000D03*
Y680000D03*
Y750000D03*
X1330000Y1310000D03*
Y1450000D03*
X1350000Y1630000D03*
Y1700000D03*
X1550000Y700000D03*
X1510000Y1300000D03*
X1420000Y1700000D03*
Y1630000D03*
X1430000Y1860000D03*
X1668720Y1520000D03*
X1890000Y660000D03*
X1830000Y870000D03*
Y970000D03*
X1822560Y1120000D03*
X1870000Y1830000D03*
X2010000Y660000D03*
X1950000D03*
X1990000Y760000D03*
X2040000Y1120000D03*
X2030000Y1540000D03*
X2020000Y1700000D03*
Y1630000D03*
X2100000Y1540000D03*
X2360000Y830000D03*
X2370000Y1030000D03*
X2240000Y1540000D03*
X2350000D03*
X2260000Y1740000D03*
X2360000D03*
X3540620Y354820D03*
Y862820D03*
Y1370820D03*
Y1878820D03*
G54D20*
X1118400Y1860000D03*
X1321600D03*
X1528400D03*
X1731600D03*
G54D11*
X220000Y770000D03*
Y1010000D03*
Y1260000D03*
Y1520000D03*
G54D21*
X1354000Y470000D03*
X1608000D03*
X1862000D03*
G54D12*
X483000Y1011000D03*
Y1206000D03*
Y1141000D03*
Y1076000D03*
Y1271000D03*
G54D22*
X1680000Y739000D03*
Y866000D03*
Y993000D03*
Y1120000D03*
X2220000Y866000D03*
Y739000D03*
Y993000D03*
Y1120000D03*
G54D13*
X840000Y830000D03*
Y880000D03*
Y930000D03*
Y980000D03*
Y1030000D03*
Y1080000D03*
Y1130000D03*
X1340300Y830200D03*
Y1030200D03*
Y980200D03*
Y930200D03*
Y880200D03*
Y1130200D03*
Y1080200D03*
G54D14*
X1100000Y470000D03*
G54D23*
X1648400Y1263000D03*
X1851600D03*
X1750000Y1517000D03*
G54D24*
X2033800Y1850000D03*
X2186200D03*
G54D15*
X990600Y731300D03*
X940600D03*
X941400Y1231600D03*
X991400D03*
X1190600Y731300D03*
X1140600D03*
X1090600D03*
X1040600D03*
X1041400Y1231600D03*
X1091400D03*
X1141400D03*
X1191400D03*
X1240600Y731300D03*
X1241400Y1231600D03*
G54D25*
X2570000Y378000D03*
Y886000D03*
Y1394000D03*
Y1902000D03*
G54D16*
X1090000Y980000D03*
G54D26*
G01X0Y610000D02*
Y1670000D01*
G02X300000Y1970000I300000J0D01*
G01X2170000D01*
G03X2270000Y2070000I0J100000D01*
G01Y2180000D01*
G02X2370000Y2280000I100000J0D01*
G01X3550000D01*
G02X3650000Y2180000I0J-100000D01*
G01Y100000D01*
G02X3550000Y0I-100000J0D01*
G01X2370000D01*
G02X2270000Y100000I0J100000D01*
G01Y210000D01*
G03X2170000Y310000I-100000J0D01*
G01X300000D01*
G02X0Y610000I0J300000D01*
G01X716390Y1299800D02*
X680640Y1264050D01*
Y1198010D01*
X635810Y1153180D01*
X590230D01*
X578050Y1141000D01*
X483000D01*
G01X604250Y1299800D02*
X640000Y1264050D01*
Y1214850D01*
X618970Y1193820D01*
X590230D01*
X578050Y1206000D01*
X483000D01*
G01X715750Y1060130D02*
X680000Y1024380D01*
Y995640D01*
X700320Y975320D01*
X752770D01*
X757450Y980000D01*
X840000D01*
G01X603610Y1060130D02*
X639360Y1024380D01*
Y978800D01*
X683480Y934680D01*
X752770D01*
X757450Y930000D01*
X840000D01*
G01X1040000Y1030000D02*
X840000D01*
G01X770000Y1360000D02*
X760000Y1370000D01*
G01D02*
X690000D01*
G01X1140000Y630000D02*
X1020000D01*
X990600Y659400D01*
Y731300D01*
G01X878100Y1193500D02*
Y1191900D01*
G01X920000Y1890000D02*
X1060000Y1750000D01*
G01X1010000Y1900000D02*
X1090000D01*
X1118400Y1871600D01*
Y1860000D01*
G01X1090000Y980000D02*
X1040000Y1030000D01*
G01X1668720Y1520000D02*
X1140000D01*
X1090000Y1470000D01*
Y1400000D01*
X1041400Y1351400D01*
Y1231600D01*
G01X1510000Y1300000D02*
X1430000Y1380000D01*
X1140000D01*
X1091400Y1331400D01*
Y1231600D01*
G01X1520000Y800000D02*
X1820000D01*
G01X1750000Y1517000D02*
X1570000Y1337000D01*
Y1250000D01*
X1500000Y1180000D01*
Y1050000D01*
X1557000Y993000D01*
X1680000D01*
G01X1528400Y1860000D02*
X1430000D01*
G01X1608000Y470000D02*
X1610000D01*
X1720000Y580000D01*
X2079680D01*
X2100000Y600320D01*
Y750000D01*
X1889360Y960640D01*
Y1053200D01*
X1822560Y1120000D01*
G01X1550000Y700000D02*
X1589000Y739000D01*
X1680000D01*
G01Y866000D02*
Y993000D01*
G01X1830000Y870000D02*
X1826000Y866000D01*
X1680000D01*
G01Y1120000D02*
X1822560D01*
G01X1648400Y1263000D02*
X1550000Y1164600D01*
Y1100000D01*
X1590000Y1060000D01*
X1591890D01*
X1592370Y1059520D01*
X1790480D01*
X1830000Y1020000D01*
Y970000D01*
G01X2220000Y866000D02*
X2128090D01*
X2084910Y909180D01*
X2023480D01*
X1930000Y1002660D01*
Y1190000D01*
X2000640Y1260640D01*
X2336840D01*
X2446840Y1150640D01*
X2739680D01*
X2769360Y1180320D01*
Y1580640D01*
X2720640Y1629360D01*
X2590000D01*
X2570000Y1609360D01*
Y1607360D01*
G01X2220000Y993000D02*
X2128090D01*
X2084910Y949820D01*
X2040320D01*
X1970640Y1019500D01*
Y1173160D01*
X2017480Y1220000D01*
X2320000D01*
X2430000Y1110000D01*
X2756520D01*
X2810000Y1163480D01*
Y1597480D01*
X2737480Y1670000D01*
X2588640D01*
X2570000Y1688640D01*
G01X2033800Y1850000D02*
Y1787370D01*
X2089680Y1731490D01*
Y1671800D01*
X2133800Y1627680D01*
X2549680D01*
X2570000Y1607360D01*
G01X2186200Y1850000D02*
Y1787370D01*
X2130320Y1731490D01*
Y1688640D01*
X2150640Y1668320D01*
X2549680D01*
X2570000Y1688640D01*
G01Y1607360D02*
Y1394000D01*
G01Y1688640D02*
Y1902000D01*
G54D17*
G01X2040000Y1120000D02*
X2220000D01*
X990000Y880000D03*
Y1080000D03*
X1190000Y880000D03*
X1090000Y980000D03*
X1190000Y1080000D03*
G54D27*
G01X460000Y940000D02*
G03I-30000J0D01*
G01Y1340000D02*
G03I-30000J0D01*
G54D18*
X878100Y1193500D03*
G54D28*
G01X1100000Y350600D02*
Y470000D01*
G01D02*
X1219400D01*
G01X2374400Y378000D02*
X2570000D01*
G01Y182400D02*
Y378000D01*
G01D02*
Y573600D01*
G01Y378000D02*
X2765600D01*
G54D19*
X934600Y1455000D03*
Y1550000D03*
Y1645000D03*
X1205400Y1455000D03*
Y1645000D03*
G54D29*
G01X740000Y870000D02*
X750000Y880000D01*
G01D02*
X840000D01*
M02*
