G04 ================== begin FILE IDENTIFICATION RECORD ==================*
G04 Layout Name:  E:/GitHub/MBEDBoard/IMX28x_TEST_V10A/PCB/IMX28x_TEST_V10A.brd*
G04 Film Name:    Drill_Legend*
G04 File Format:  Gerber RS274X*
G04 File Origin:  Cadence Allegro 16.6-2015-S082*
G04 Origin Date:  Tue May 23 19:28:54 2017*
G04 *
G04 Layer:  BOARD GEOMETRY/DIMENSION*
G04 Layer:  MANUFACTURING/NCDRILL_FIGURE*
G04 Layer:  BOARD GEOMETRY/OUTLINE*
G04 Layer:  MANUFACTURING/NCDRILL_LEGEND*
G04 Layer:  MANUFACTURING/NCLEGEND-1-2*
G04 *
G04 Offset:    (0.0000 0.0000)*
G04 Mirror:    No*
G04 Mode:      Positive*
G04 Rotation:  0*
G04 FullContactRelief:  No*
G04 UndefLineWidth:     0.1524*
G04 ================== end FILE IDENTIFICATION RECORD ====================*
%FSLAX55Y55*MOMM*%
%IR0*IPPOS*OFA0.00000B0.00000*MIA0B0*SFA1.00000B1.00000*%
%AMMACRO13*
1,1,.1524,1.65,0.0*
20,1,.1524,1.65,0.0,1.624933,-.286519,0.0*
1,1,.1524,1.624933,-.286519*
20,1,.1524,1.624933,-.286519,1.550493,-.564333,0.0*
1,1,.1524,1.550493,-.564333*
20,1,.1524,1.550493,-.564333,1.428942,-.825,0.0*
1,1,.1524,1.428942,-.825*
20,1,.1524,1.428942,-.825,1.263973,-1.0606,0.0*
1,1,.1524,1.263973,-1.0606*
20,1,.1524,1.263973,-1.0606,1.0606,-1.263973,0.0*
1,1,.1524,1.0606,-1.263973*
20,1,.1524,1.0606,-1.263973,.825,-1.428942,0.0*
1,1,.1524,.825,-1.428942*
20,1,.1524,.825,-1.428942,.564333,-1.550493,0.0*
1,1,.1524,.564333,-1.550493*
20,1,.1524,.564333,-1.550493,.286519,-1.624933,0.0*
1,1,.1524,.286519,-1.624933*
20,1,.1524,.286519,-1.624933,0.0,-1.65,0.0*
1,1,.1524,0.0,-1.65*
20,1,.1524,0.0,-1.65,-.286519,-1.624933,0.0*
1,1,.1524,-.286519,-1.624933*
20,1,.1524,-.286519,-1.624933,-.564333,-1.550493,0.0*
1,1,.1524,-.564333,-1.550493*
20,1,.1524,-.564333,-1.550493,-.825,-1.428942,0.0*
1,1,.1524,-.825,-1.428942*
20,1,.1524,-.825,-1.428942,-1.0606,-1.263973,0.0*
1,1,.1524,-1.0606,-1.263973*
20,1,.1524,-1.0606,-1.263973,-1.263973,-1.0606,0.0*
1,1,.1524,-1.263973,-1.0606*
20,1,.1524,-1.263973,-1.0606,-1.428942,-.825,0.0*
1,1,.1524,-1.428942,-.825*
20,1,.1524,-1.428942,-.825,-1.550493,-.564333,0.0*
1,1,.1524,-1.550493,-.564333*
20,1,.1524,-1.550493,-.564333,-1.624933,-.286519,0.0*
1,1,.1524,-1.624933,-.286519*
20,1,.1524,-1.624933,-.286519,-1.65,0.0,0.0*
1,1,.1524,-1.65,0.0*
20,1,.1524,-1.65,0.0,-1.624933,.286519,0.0*
1,1,.1524,-1.624933,.286519*
20,1,.1524,-1.624933,.286519,-1.550493,.564333,0.0*
1,1,.1524,-1.550493,.564333*
20,1,.1524,-1.550493,.564333,-1.428942,.825,0.0*
1,1,.1524,-1.428942,.825*
20,1,.1524,-1.428942,.825,-1.263973,1.0606,0.0*
1,1,.1524,-1.263973,1.0606*
20,1,.1524,-1.263973,1.0606,-1.0606,1.263973,0.0*
1,1,.1524,-1.0606,1.263973*
20,1,.1524,-1.0606,1.263973,-.825,1.428942,0.0*
1,1,.1524,-.825,1.428942*
20,1,.1524,-.825,1.428942,-.564333,1.550493,0.0*
1,1,.1524,-.564333,1.550493*
20,1,.1524,-.564333,1.550493,-.286519,1.624933,0.0*
1,1,.1524,-.286519,1.624933*
20,1,.1524,-.286519,1.624933,0.0,1.65,0.0*
1,1,.1524,0.0,1.65*
20,1,.1524,0.0,1.65,.286519,1.624933,0.0*
1,1,.1524,.286519,1.624933*
20,1,.1524,.286519,1.624933,.564333,1.550493,0.0*
1,1,.1524,.564333,1.550493*
20,1,.1524,.564333,1.550493,.825,1.428942,0.0*
1,1,.1524,.825,1.428942*
20,1,.1524,.825,1.428942,1.0606,1.263973,0.0*
1,1,.1524,1.0606,1.263973*
20,1,.1524,1.0606,1.263973,1.263973,1.0606,0.0*
1,1,.1524,1.263973,1.0606*
20,1,.1524,1.263973,1.0606,1.428942,.825,0.0*
1,1,.1524,1.428942,.825*
20,1,.1524,1.428942,.825,1.550493,.564333,0.0*
1,1,.1524,1.550493,.564333*
20,1,.1524,1.550493,.564333,1.624933,.286519,0.0*
1,1,.1524,1.624933,.286519*
20,1,.1524,1.624933,.286519,1.65,0.0,0.0*
1,1,.1524,1.65,0.0*
%
%ADD13MACRO13*%
%AMMACRO12*
1,1,.1524,.5004,0.0*
20,1,.1524,.5004,0.0,0.0,-.5004,0.0*
1,1,.1524,0.0,-.5004*
20,1,.1524,0.0,-.5004,-.5004,0.0,0.0*
1,1,.1524,-.5004,0.0*
20,1,.1524,-.5004,0.0,0.0,.5004,0.0*
1,1,.1524,0.0,.5004*
20,1,.1524,0.0,.5004,.5004,0.0,0.0*
1,1,.1524,.5004,0.0*
%
%ADD12MACRO12*%
%AMMACRO11*
1,1,.1524,.1524,0.0*
20,1,.1524,.1524,0.0,-.1524,0.0,0.0*
1,1,.1524,-.1524,0.0*
1,1,.1524,0.0,.1524*
20,1,.1524,0.0,.1524,0.0,-.1524,0.0*
1,1,.1524,0.0,-.1524*
%
%ADD11MACRO11*%
%AMMACRO10*
1,1,.1524,1.7018,1.27635*
20,1,.1524,1.7018,1.27635,1.7018,-1.27635,0.0*
1,1,.1524,1.7018,-1.27635*
20,1,.1524,1.7018,-1.27635,-1.7018,-1.27635,0.0*
1,1,.1524,-1.7018,-1.27635*
20,1,.1524,-1.7018,-1.27635,-1.7018,1.27635,0.0*
1,1,.1524,-1.7018,1.27635*
20,1,.1524,-1.7018,1.27635,1.7018,1.27635,0.0*
1,1,.1524,1.7018,1.27635*
%
%ADD10MACRO10*%
%AMMACRO22*
1,1,.1524,.189378,-.4572*
20,1,.1524,.189378,-.4572,-.189378,-.4572,0.0*
1,1,.1524,-.189378,-.4572*
20,1,.1524,-.189378,-.4572,-.4572,-.189378,0.0*
1,1,.1524,-.4572,-.189378*
20,1,.1524,-.4572,-.189378,-.4572,.189378,0.0*
1,1,.1524,-.4572,.189378*
20,1,.1524,-.4572,.189378,-.189378,.4572,0.0*
1,1,.1524,-.189378,.4572*
20,1,.1524,-.189378,.4572,.189378,.4572,0.0*
1,1,.1524,.189378,.4572*
20,1,.1524,.189378,.4572,.4572,.189378,0.0*
1,1,.1524,.4572,.189378*
20,1,.1524,.4572,.189378,.4572,-.189378,0.0*
1,1,.1524,.4572,-.189378*
20,1,.1524,.4572,-.189378,.189378,-.4572,0.0*
1,1,.1524,.189378,-.4572*
%
%ADD22MACRO22*%
%AMMACRO18*
1,1,.1524,.2286,.2286*
20,1,.1524,.2286,.2286,.2286,-.2286,0.0*
1,1,.1524,.2286,-.2286*
20,1,.1524,.2286,-.2286,-.2286,-.2286,0.0*
1,1,.1524,-.2286,-.2286*
20,1,.1524,-.2286,-.2286,-.2286,.2286,0.0*
1,1,.1524,-.2286,.2286*
20,1,.1524,-.2286,.2286,.2286,.2286,0.0*
1,1,.1524,.2286,.2286*
%
%ADD18MACRO18*%
%AMMACRO19*
1,1,.1524,-.5,-1.*
20,1,.1524,-.5,-1.,-.5,1.,0.0*
1,1,.1524,-.5,1.*
20,1,.1524,-.5,1.,-.492404,1.086824,0.0*
1,1,.1524,-.492404,1.086824*
20,1,.1524,-.492404,1.086824,-.469846,1.17101,0.0*
1,1,.1524,-.469846,1.17101*
20,1,.1524,-.469846,1.17101,-.433013,1.25,0.0*
1,1,.1524,-.433013,1.25*
20,1,.1524,-.433013,1.25,-.383022,1.321394,0.0*
1,1,.1524,-.383022,1.321394*
20,1,.1524,-.383022,1.321394,-.321394,1.383022,0.0*
1,1,.1524,-.321394,1.383022*
20,1,.1524,-.321394,1.383022,-.25,1.433013,0.0*
1,1,.1524,-.25,1.433013*
20,1,.1524,-.25,1.433013,-.17101,1.469846,0.0*
1,1,.1524,-.17101,1.469846*
20,1,.1524,-.17101,1.469846,-.086824,1.492404,0.0*
1,1,.1524,-.086824,1.492404*
20,1,.1524,-.086824,1.492404,0.0,1.5,0.0*
1,1,.1524,0.0,1.5*
20,1,.1524,0.0,1.5,.086824,1.492404,0.0*
1,1,.1524,.086824,1.492404*
20,1,.1524,.086824,1.492404,.17101,1.469846,0.0*
1,1,.1524,.17101,1.469846*
20,1,.1524,.17101,1.469846,.25,1.433013,0.0*
1,1,.1524,.25,1.433013*
20,1,.1524,.25,1.433013,.321394,1.383022,0.0*
1,1,.1524,.321394,1.383022*
20,1,.1524,.321394,1.383022,.383022,1.321394,0.0*
1,1,.1524,.383022,1.321394*
20,1,.1524,.383022,1.321394,.433013,1.25,0.0*
1,1,.1524,.433013,1.25*
20,1,.1524,.433013,1.25,.469846,1.17101,0.0*
1,1,.1524,.469846,1.17101*
20,1,.1524,.469846,1.17101,.492404,1.086824,0.0*
1,1,.1524,.492404,1.086824*
20,1,.1524,.492404,1.086824,.5,1.,0.0*
1,1,.1524,.5,1.*
20,1,.1524,.5,1.,.5,-1.,0.0*
1,1,.1524,.5,-1.*
20,1,.1524,.5,-1.,.492404,-1.086824,0.0*
1,1,.1524,.492404,-1.086824*
20,1,.1524,.492404,-1.086824,.469846,-1.17101,0.0*
1,1,.1524,.469846,-1.17101*
20,1,.1524,.469846,-1.17101,.433013,-1.25,0.0*
1,1,.1524,.433013,-1.25*
20,1,.1524,.433013,-1.25,.383022,-1.321394,0.0*
1,1,.1524,.383022,-1.321394*
20,1,.1524,.383022,-1.321394,.321394,-1.383022,0.0*
1,1,.1524,.321394,-1.383022*
20,1,.1524,.321394,-1.383022,.25,-1.433013,0.0*
1,1,.1524,.25,-1.433013*
20,1,.1524,.25,-1.433013,.17101,-1.469846,0.0*
1,1,.1524,.17101,-1.469846*
20,1,.1524,.17101,-1.469846,.086824,-1.492404,0.0*
1,1,.1524,.086824,-1.492404*
20,1,.1524,.086824,-1.492404,0.0,-1.5,0.0*
1,1,.1524,0.0,-1.5*
20,1,.1524,0.0,-1.5,-.086824,-1.492404,0.0*
1,1,.1524,-.086824,-1.492404*
20,1,.1524,-.086824,-1.492404,-.17101,-1.469846,0.0*
1,1,.1524,-.17101,-1.469846*
20,1,.1524,-.17101,-1.469846,-.25,-1.433013,0.0*
1,1,.1524,-.25,-1.433013*
20,1,.1524,-.25,-1.433013,-.321394,-1.383022,0.0*
1,1,.1524,-.321394,-1.383022*
20,1,.1524,-.321394,-1.383022,-.383022,-1.321394,0.0*
1,1,.1524,-.383022,-1.321394*
20,1,.1524,-.383022,-1.321394,-.433013,-1.25,0.0*
1,1,.1524,-.433013,-1.25*
20,1,.1524,-.433013,-1.25,-.469846,-1.17101,0.0*
1,1,.1524,-.469846,-1.17101*
20,1,.1524,-.469846,-1.17101,-.492404,-1.086824,0.0*
1,1,.1524,-.492404,-1.086824*
20,1,.1524,-.492404,-1.086824,-.5,-1.,0.0*
1,1,.1524,-.5,-1.*
1,1,.1524,-.25,-.25*
20,1,.1524,-.25,-.25,-.3167,-.2417,0.0*
1,1,.1524,-.3167,-.2417*
20,1,.1524,-.3167,-.2417,-.375,-.2083,0.0*
1,1,.1524,-.375,-.2083*
20,1,.1524,-.375,-.2083,-.425,-.1583,0.0*
1,1,.1524,-.425,-.1583*
20,1,.1524,-.425,-.1583,-.4583,-.1,0.0*
1,1,.1524,-.4583,-.1*
20,1,.1524,-.4583,-.1,-.475,-.0333,0.0*
1,1,.1524,-.475,-.0333*
20,1,.1524,-.475,-.0333,-.475,.0333,0.0*
1,1,.1524,-.475,.0333*
20,1,.1524,-.475,.0333,-.4583,.1,0.0*
1,1,.1524,-.4583,.1*
20,1,.1524,-.4583,.1,-.425,.1583,0.0*
1,1,.1524,-.425,.1583*
20,1,.1524,-.425,.1583,-.375,.2083,0.0*
1,1,.1524,-.375,.2083*
20,1,.1524,-.375,.2083,-.3167,.2417,0.0*
1,1,.1524,-.3167,.2417*
20,1,.1524,-.3167,.2417,-.25,.25,0.0*
1,1,.1524,-.25,.25*
20,1,.1524,-.25,.25,-.1833,.2417,0.0*
1,1,.1524,-.1833,.2417*
20,1,.1524,-.1833,.2417,-.125,.2083,0.0*
1,1,.1524,-.125,.2083*
20,1,.1524,-.125,.2083,-.075,.1583,0.0*
1,1,.1524,-.075,.1583*
20,1,.1524,-.075,.1583,-.0417,.1,0.0*
1,1,.1524,-.0417,.1*
20,1,.1524,-.0417,.1,-.025,.0333,0.0*
1,1,.1524,-.025,.0333*
20,1,.1524,-.025,.0333,-.025,-.0333,0.0*
1,1,.1524,-.025,-.0333*
20,1,.1524,-.025,-.0333,-.0417,-.1,0.0*
1,1,.1524,-.0417,-.1*
20,1,.1524,-.0417,-.1,-.075,-.1583,0.0*
1,1,.1524,-.075,-.1583*
20,1,.1524,-.075,-.1583,-.125,-.2083,0.0*
1,1,.1524,-.125,-.2083*
20,1,.1524,-.125,-.2083,-.1833,-.2417,0.0*
1,1,.1524,-.1833,-.2417*
20,1,.1524,-.1833,-.2417,-.25,-.25,0.0*
1,1,.1524,-.25,-.25*
1,1,.1524,.0418,-.25*
20,1,.1524,.0418,-.25,.2501,.25,0.0*
1,1,.1524,.2501,.25*
20,1,.1524,.2501,.25,.4584,-.25,0.0*
1,1,.1524,.4584,-.25*
1,1,.1524,.3834,-.075*
20,1,.1524,.3834,-.075,.1168,-.075,0.0*
1,1,.1524,.1168,-.075*
%
%ADD19MACRO19*%
%AMMACRO20*
1,1,.1524,-1.,.5*
20,1,.1524,-1.,.5,1.,.5,0.0*
1,1,.1524,1.,.5*
20,1,.1524,1.,.5,1.086824,.492404,0.0*
1,1,.1524,1.086824,.492404*
20,1,.1524,1.086824,.492404,1.17101,.469846,0.0*
1,1,.1524,1.17101,.469846*
20,1,.1524,1.17101,.469846,1.25,.433013,0.0*
1,1,.1524,1.25,.433013*
20,1,.1524,1.25,.433013,1.321394,.383022,0.0*
1,1,.1524,1.321394,.383022*
20,1,.1524,1.321394,.383022,1.383022,.321394,0.0*
1,1,.1524,1.383022,.321394*
20,1,.1524,1.383022,.321394,1.433013,.25,0.0*
1,1,.1524,1.433013,.25*
20,1,.1524,1.433013,.25,1.469846,.17101,0.0*
1,1,.1524,1.469846,.17101*
20,1,.1524,1.469846,.17101,1.492404,.086824,0.0*
1,1,.1524,1.492404,.086824*
20,1,.1524,1.492404,.086824,1.5,0.0,0.0*
1,1,.1524,1.5,0.0*
20,1,.1524,1.5,0.0,1.492404,-.086824,0.0*
1,1,.1524,1.492404,-.086824*
20,1,.1524,1.492404,-.086824,1.469846,-.17101,0.0*
1,1,.1524,1.469846,-.17101*
20,1,.1524,1.469846,-.17101,1.433013,-.25,0.0*
1,1,.1524,1.433013,-.25*
20,1,.1524,1.433013,-.25,1.383022,-.321394,0.0*
1,1,.1524,1.383022,-.321394*
20,1,.1524,1.383022,-.321394,1.321394,-.383022,0.0*
1,1,.1524,1.321394,-.383022*
20,1,.1524,1.321394,-.383022,1.25,-.433013,0.0*
1,1,.1524,1.25,-.433013*
20,1,.1524,1.25,-.433013,1.17101,-.469846,0.0*
1,1,.1524,1.17101,-.469846*
20,1,.1524,1.17101,-.469846,1.086824,-.492404,0.0*
1,1,.1524,1.086824,-.492404*
20,1,.1524,1.086824,-.492404,1.,-.5,0.0*
1,1,.1524,1.,-.5*
20,1,.1524,1.,-.5,-1.,-.5,0.0*
1,1,.1524,-1.,-.5*
20,1,.1524,-1.,-.5,-1.086824,-.492404,0.0*
1,1,.1524,-1.086824,-.492404*
20,1,.1524,-1.086824,-.492404,-1.17101,-.469846,0.0*
1,1,.1524,-1.17101,-.469846*
20,1,.1524,-1.17101,-.469846,-1.25,-.433013,0.0*
1,1,.1524,-1.25,-.433013*
20,1,.1524,-1.25,-.433013,-1.321394,-.383022,0.0*
1,1,.1524,-1.321394,-.383022*
20,1,.1524,-1.321394,-.383022,-1.383022,-.321394,0.0*
1,1,.1524,-1.383022,-.321394*
20,1,.1524,-1.383022,-.321394,-1.433013,-.25,0.0*
1,1,.1524,-1.433013,-.25*
20,1,.1524,-1.433013,-.25,-1.469846,-.17101,0.0*
1,1,.1524,-1.469846,-.17101*
20,1,.1524,-1.469846,-.17101,-1.492404,-.086824,0.0*
1,1,.1524,-1.492404,-.086824*
20,1,.1524,-1.492404,-.086824,-1.5,0.0,0.0*
1,1,.1524,-1.5,0.0*
20,1,.1524,-1.5,0.0,-1.492404,.086824,0.0*
1,1,.1524,-1.492404,.086824*
20,1,.1524,-1.492404,.086824,-1.469846,.17101,0.0*
1,1,.1524,-1.469846,.17101*
20,1,.1524,-1.469846,.17101,-1.433013,.25,0.0*
1,1,.1524,-1.433013,.25*
20,1,.1524,-1.433013,.25,-1.383022,.321394,0.0*
1,1,.1524,-1.383022,.321394*
20,1,.1524,-1.383022,.321394,-1.321394,.383022,0.0*
1,1,.1524,-1.321394,.383022*
20,1,.1524,-1.321394,.383022,-1.25,.433013,0.0*
1,1,.1524,-1.25,.433013*
20,1,.1524,-1.25,.433013,-1.17101,.469846,0.0*
1,1,.1524,-1.17101,.469846*
20,1,.1524,-1.17101,.469846,-1.086824,.492404,0.0*
1,1,.1524,-1.086824,.492404*
20,1,.1524,-1.086824,.492404,-1.,.5,0.0*
1,1,.1524,-1.,.5*
1,1,.1524,-.25,-.25*
20,1,.1524,-.25,-.25,-.3167,-.2417,0.0*
1,1,.1524,-.3167,-.2417*
20,1,.1524,-.3167,-.2417,-.375,-.2083,0.0*
1,1,.1524,-.375,-.2083*
20,1,.1524,-.375,-.2083,-.425,-.1583,0.0*
1,1,.1524,-.425,-.1583*
20,1,.1524,-.425,-.1583,-.4583,-.1,0.0*
1,1,.1524,-.4583,-.1*
20,1,.1524,-.4583,-.1,-.475,-.0333,0.0*
1,1,.1524,-.475,-.0333*
20,1,.1524,-.475,-.0333,-.475,.0333,0.0*
1,1,.1524,-.475,.0333*
20,1,.1524,-.475,.0333,-.4583,.1,0.0*
1,1,.1524,-.4583,.1*
20,1,.1524,-.4583,.1,-.425,.1583,0.0*
1,1,.1524,-.425,.1583*
20,1,.1524,-.425,.1583,-.375,.2083,0.0*
1,1,.1524,-.375,.2083*
20,1,.1524,-.375,.2083,-.3167,.2417,0.0*
1,1,.1524,-.3167,.2417*
20,1,.1524,-.3167,.2417,-.25,.25,0.0*
1,1,.1524,-.25,.25*
20,1,.1524,-.25,.25,-.1833,.2417,0.0*
1,1,.1524,-.1833,.2417*
20,1,.1524,-.1833,.2417,-.125,.2083,0.0*
1,1,.1524,-.125,.2083*
20,1,.1524,-.125,.2083,-.075,.1583,0.0*
1,1,.1524,-.075,.1583*
20,1,.1524,-.075,.1583,-.0417,.1,0.0*
1,1,.1524,-.0417,.1*
20,1,.1524,-.0417,.1,-.025,.0333,0.0*
1,1,.1524,-.025,.0333*
20,1,.1524,-.025,.0333,-.025,-.0333,0.0*
1,1,.1524,-.025,-.0333*
20,1,.1524,-.025,-.0333,-.0417,-.1,0.0*
1,1,.1524,-.0417,-.1*
20,1,.1524,-.0417,-.1,-.075,-.1583,0.0*
1,1,.1524,-.075,-.1583*
20,1,.1524,-.075,-.1583,-.125,-.2083,0.0*
1,1,.1524,-.125,-.2083*
20,1,.1524,-.125,-.2083,-.1833,-.2417,0.0*
1,1,.1524,-.1833,-.2417*
20,1,.1524,-.1833,-.2417,-.25,-.25,0.0*
1,1,.1524,-.25,-.25*
1,1,.1524,.0418,-.25*
20,1,.1524,.0418,-.25,.2501,.25,0.0*
1,1,.1524,.2501,.25*
20,1,.1524,.2501,.25,.4584,-.25,0.0*
1,1,.1524,.4584,-.25*
1,1,.1524,.3834,-.075*
20,1,.1524,.3834,-.075,.1168,-.075,0.0*
1,1,.1524,.1168,-.075*
%
%ADD20MACRO20*%
%AMMACRO15*
1,1,.1524,-.254,.762*
20,1,.1524,-.254,.762,.254,.762,0.0*
1,1,.1524,.254,.762*
20,1,.1524,.254,.762,.38632,.750424,0.0*
1,1,.1524,.38632,.750424*
20,1,.1524,.38632,.750424,.514619,.716046,0.0*
1,1,.1524,.514619,.716046*
20,1,.1524,.514619,.716046,.635,.659911,0.0*
1,1,.1524,.635,.659911*
20,1,.1524,.635,.659911,.743804,.583726,0.0*
1,1,.1524,.743804,.583726*
20,1,.1524,.743804,.583726,.837726,.489804,0.0*
1,1,.1524,.837726,.489804*
20,1,.1524,.837726,.489804,.913911,.381,0.0*
1,1,.1524,.913911,.381*
20,1,.1524,.913911,.381,.970046,.260619,0.0*
1,1,.1524,.970046,.260619*
20,1,.1524,.970046,.260619,1.004424,.13232,0.0*
1,1,.1524,1.004424,.13232*
20,1,.1524,1.004424,.13232,1.016,0.0,0.0*
1,1,.1524,1.016,0.0*
20,1,.1524,1.016,0.0,1.004424,-.13232,0.0*
1,1,.1524,1.004424,-.13232*
20,1,.1524,1.004424,-.13232,.970046,-.260619,0.0*
1,1,.1524,.970046,-.260619*
20,1,.1524,.970046,-.260619,.913911,-.381,0.0*
1,1,.1524,.913911,-.381*
20,1,.1524,.913911,-.381,.837726,-.489804,0.0*
1,1,.1524,.837726,-.489804*
20,1,.1524,.837726,-.489804,.743804,-.583726,0.0*
1,1,.1524,.743804,-.583726*
20,1,.1524,.743804,-.583726,.635,-.659911,0.0*
1,1,.1524,.635,-.659911*
20,1,.1524,.635,-.659911,.514619,-.716046,0.0*
1,1,.1524,.514619,-.716046*
20,1,.1524,.514619,-.716046,.38632,-.750424,0.0*
1,1,.1524,.38632,-.750424*
20,1,.1524,.38632,-.750424,.254,-.762,0.0*
1,1,.1524,.254,-.762*
20,1,.1524,.254,-.762,-.254,-.762,0.0*
1,1,.1524,-.254,-.762*
20,1,.1524,-.254,-.762,-.38632,-.750424,0.0*
1,1,.1524,-.38632,-.750424*
20,1,.1524,-.38632,-.750424,-.514619,-.716046,0.0*
1,1,.1524,-.514619,-.716046*
20,1,.1524,-.514619,-.716046,-.635,-.659911,0.0*
1,1,.1524,-.635,-.659911*
20,1,.1524,-.635,-.659911,-.743804,-.583726,0.0*
1,1,.1524,-.743804,-.583726*
20,1,.1524,-.743804,-.583726,-.837726,-.489804,0.0*
1,1,.1524,-.837726,-.489804*
20,1,.1524,-.837726,-.489804,-.913911,-.381,0.0*
1,1,.1524,-.913911,-.381*
20,1,.1524,-.913911,-.381,-.970046,-.260619,0.0*
1,1,.1524,-.970046,-.260619*
20,1,.1524,-.970046,-.260619,-1.004424,-.13232,0.0*
1,1,.1524,-1.004424,-.13232*
20,1,.1524,-1.004424,-.13232,-1.016,0.0,0.0*
1,1,.1524,-1.016,0.0*
20,1,.1524,-1.016,0.0,-1.004424,.13232,0.0*
1,1,.1524,-1.004424,.13232*
20,1,.1524,-1.004424,.13232,-.970046,.260619,0.0*
1,1,.1524,-.970046,.260619*
20,1,.1524,-.970046,.260619,-.913911,.381,0.0*
1,1,.1524,-.913911,.381*
20,1,.1524,-.913911,.381,-.837726,.489804,0.0*
1,1,.1524,-.837726,.489804*
20,1,.1524,-.837726,.489804,-.743804,.583726,0.0*
1,1,.1524,-.743804,.583726*
20,1,.1524,-.743804,.583726,-.635,.659911,0.0*
1,1,.1524,-.635,.659911*
20,1,.1524,-.635,.659911,-.514619,.716046,0.0*
1,1,.1524,-.514619,.716046*
20,1,.1524,-.514619,.716046,-.38632,.750424,0.0*
1,1,.1524,-.38632,.750424*
20,1,.1524,-.38632,.750424,-.254,.762,0.0*
1,1,.1524,-.254,.762*
%
%ADD15MACRO15*%
%AMMACRO14*
1,1,.1524,0.0,.85*
20,1,.1524,0.0,.85,.85,-.85,0.0*
1,1,.1524,.85,-.85*
20,1,.1524,.85,-.85,-.85,-.85,0.0*
1,1,.1524,-.85,-.85*
20,1,.1524,-.85,-.85,0.0,.85,0.0*
1,1,.1524,0.0,.85*
%
%ADD14MACRO14*%
%AMMACRO16*
1,1,.1524,.4,0.0*
20,1,.1524,.4,0.0,.2,.34641,0.0*
1,1,.1524,.2,.34641*
20,1,.1524,.2,.34641,-.2,.34641,0.0*
1,1,.1524,-.2,.34641*
20,1,.1524,-.2,.34641,-.4,0.0,0.0*
1,1,.1524,-.4,0.0*
20,1,.1524,-.4,0.0,-.2,-.34641,0.0*
1,1,.1524,-.2,-.34641*
20,1,.1524,-.2,-.34641,.2,-.34641,0.0*
1,1,.1524,.2,-.34641*
20,1,.1524,.2,-.34641,.4,0.0,0.0*
1,1,.1524,.4,0.0*
%
%ADD16MACRO16*%
%AMMACRO21*
1,1,.1524,-1.23825,.41275*
20,1,.1524,-1.23825,.41275,-1.219438,.62777,0.0*
1,1,.1524,-1.219438,.62777*
20,1,.1524,-1.219438,.62777,-1.163574,.836256,0.0*
1,1,.1524,-1.163574,.836256*
20,1,.1524,-1.163574,.836256,-1.072356,1.031875,0.0*
1,1,.1524,-1.072356,1.031875*
20,1,.1524,-1.072356,1.031875,-.948555,1.208682,0.0*
1,1,.1524,-.948555,1.208682*
20,1,.1524,-.948555,1.208682,-.795932,1.361305,0.0*
1,1,.1524,-.795932,1.361305*
20,1,.1524,-.795932,1.361305,-.619125,1.485106,0.0*
1,1,.1524,-.619125,1.485106*
20,1,.1524,-.619125,1.485106,-.423506,1.576324,0.0*
1,1,.1524,-.423506,1.576324*
20,1,.1524,-.423506,1.576324,-.21502,1.632188,0.0*
1,1,.1524,-.21502,1.632188*
20,1,.1524,-.21502,1.632188,0.0,1.651,0.0*
1,1,.1524,0.0,1.651*
20,1,.1524,0.0,1.651,.21502,1.632188,0.0*
1,1,.1524,.21502,1.632188*
20,1,.1524,.21502,1.632188,.423506,1.576324,0.0*
1,1,.1524,.423506,1.576324*
20,1,.1524,.423506,1.576324,.619125,1.485106,0.0*
1,1,.1524,.619125,1.485106*
20,1,.1524,.619125,1.485106,.795932,1.361305,0.0*
1,1,.1524,.795932,1.361305*
20,1,.1524,.795932,1.361305,.948555,1.208682,0.0*
1,1,.1524,.948555,1.208682*
20,1,.1524,.948555,1.208682,1.072356,1.031875,0.0*
1,1,.1524,1.072356,1.031875*
20,1,.1524,1.072356,1.031875,1.163574,.836256,0.0*
1,1,.1524,1.163574,.836256*
20,1,.1524,1.163574,.836256,1.219438,.62777,0.0*
1,1,.1524,1.219438,.62777*
20,1,.1524,1.219438,.62777,1.23825,.41275,0.0*
1,1,.1524,1.23825,.41275*
20,1,.1524,1.23825,.41275,1.23825,-.41275,0.0*
1,1,.1524,1.23825,-.41275*
20,1,.1524,1.23825,-.41275,1.219438,-.62777,0.0*
1,1,.1524,1.219438,-.62777*
20,1,.1524,1.219438,-.62777,1.163574,-.836256,0.0*
1,1,.1524,1.163574,-.836256*
20,1,.1524,1.163574,-.836256,1.072356,-1.031875,0.0*
1,1,.1524,1.072356,-1.031875*
20,1,.1524,1.072356,-1.031875,.948555,-1.208682,0.0*
1,1,.1524,.948555,-1.208682*
20,1,.1524,.948555,-1.208682,.795932,-1.361305,0.0*
1,1,.1524,.795932,-1.361305*
20,1,.1524,.795932,-1.361305,.619125,-1.485106,0.0*
1,1,.1524,.619125,-1.485106*
20,1,.1524,.619125,-1.485106,.423506,-1.576324,0.0*
1,1,.1524,.423506,-1.576324*
20,1,.1524,.423506,-1.576324,.21502,-1.632188,0.0*
1,1,.1524,.21502,-1.632188*
20,1,.1524,.21502,-1.632188,0.0,-1.651,0.0*
1,1,.1524,0.0,-1.651*
20,1,.1524,0.0,-1.651,-.21502,-1.632188,0.0*
1,1,.1524,-.21502,-1.632188*
20,1,.1524,-.21502,-1.632188,-.423506,-1.576324,0.0*
1,1,.1524,-.423506,-1.576324*
20,1,.1524,-.423506,-1.576324,-.619125,-1.485106,0.0*
1,1,.1524,-.619125,-1.485106*
20,1,.1524,-.619125,-1.485106,-.795932,-1.361305,0.0*
1,1,.1524,-.795932,-1.361305*
20,1,.1524,-.795932,-1.361305,-.948555,-1.208682,0.0*
1,1,.1524,-.948555,-1.208682*
20,1,.1524,-.948555,-1.208682,-1.072356,-1.031875,0.0*
1,1,.1524,-1.072356,-1.031875*
20,1,.1524,-1.072356,-1.031875,-1.163574,-.836256,0.0*
1,1,.1524,-1.163574,-.836256*
20,1,.1524,-1.163574,-.836256,-1.219438,-.62777,0.0*
1,1,.1524,-1.219438,-.62777*
20,1,.1524,-1.219438,-.62777,-1.23825,-.41275,0.0*
1,1,.1524,-1.23825,-.41275*
20,1,.1524,-1.23825,-.41275,-1.23825,.41275,0.0*
1,1,.1524,-1.23825,.41275*
%
%ADD21MACRO21*%
%AMMACRO17*
1,1,.1524,0.0,.4445*
20,1,.1524,0.0,.4445,-.384948,.22225,0.0*
1,1,.1524,-.384948,.22225*
20,1,.1524,-.384948,.22225,-.384948,-.22225,0.0*
1,1,.1524,-.384948,-.22225*
20,1,.1524,-.384948,-.22225,0.0,-.4445,0.0*
1,1,.1524,0.0,-.4445*
20,1,.1524,0.0,-.4445,.384948,-.22225,0.0*
1,1,.1524,.384948,-.22225*
20,1,.1524,.384948,-.22225,.384948,.22225,0.0*
1,1,.1524,.384948,.22225*
20,1,.1524,.384948,.22225,0.0,.4445,0.0*
1,1,.1524,0.0,.4445*
%
%ADD17MACRO17*%
%ADD23C,.2032*%
%ADD24C,.17*%
%ADD25C,.127*%
%ADD26C,.1524*%
G75*
%LPD*%
G75*
G54D10*
X330000Y330000D03*
Y7370000D03*
X11170000Y330000D03*
Y7370000D03*
X13461730Y907500D03*
G54D20*
X10360000Y7020000D03*
X13461730Y-362500D03*
G54D11*
X63990Y1042530D03*
X270000Y900000D03*
X63990Y1550530D03*
X270000Y1410000D03*
Y1180000D03*
X63990Y2058530D03*
X320000Y1820000D03*
X240000Y1816340D03*
X320000Y1890000D03*
X240000D03*
X320000Y1960000D03*
X240000D03*
X280000Y1630000D03*
X63990Y2566530D03*
Y3074530D03*
Y3582530D03*
Y4090530D03*
Y4598530D03*
Y5106530D03*
Y5614530D03*
Y6122530D03*
Y6630530D03*
X950000Y260000D03*
X630000Y770000D03*
X910000Y1630000D03*
X780000Y5780000D03*
X440000Y5690000D03*
Y5890000D03*
Y5790000D03*
X663500Y6216500D03*
X670000Y6090000D03*
X780000Y7010000D03*
X650000Y6660000D03*
X880000Y6650000D03*
X930000Y7240000D03*
X790000D03*
X1239470Y63990D03*
X970000Y490000D03*
X1330000Y240000D03*
X993000Y883000D03*
X990000Y640000D03*
X1450000Y1010000D03*
X993000Y1137000D03*
X991000Y1391000D03*
X1340000Y1410000D03*
X1430000D03*
X1040000Y1630000D03*
X1160000D03*
X1480000Y5780000D03*
X1110000D03*
X1410500Y6470500D03*
X1090000Y6040000D03*
X1440000Y6990000D03*
X1030000Y6760000D03*
X1130000Y6870000D03*
X1050000Y6910000D03*
X1440000Y7070000D03*
Y7150000D03*
X969470Y7653990D03*
X1477470D03*
X1747470Y63990D03*
X1550000Y470000D03*
X1720000Y270000D03*
X1860000Y550000D03*
X1870000Y760000D03*
X1860000Y1020000D03*
X1540000Y1410000D03*
X1800000Y1390000D03*
X2020000Y1970000D03*
X1985000Y1825000D03*
X1770000Y1820000D03*
X2000000Y2160000D03*
X1630000Y5530000D03*
X2030000Y5750000D03*
X2010000Y5950000D03*
X1796500Y6343500D03*
X2011810Y6394800D03*
X1520000Y6990000D03*
Y7070000D03*
Y7150000D03*
X2031810Y7204800D03*
X1985470Y7653990D03*
X2255470Y63990D03*
X2200000Y420000D03*
X2360000Y990000D03*
Y690000D03*
X2580000Y1080000D03*
X2506340D03*
X2580740Y1160010D03*
X2507080Y1159580D03*
X2270000Y1970000D03*
X2180000D03*
X2100000D03*
X2090000Y1660000D03*
X2290000Y2170000D03*
X2180000Y2350000D03*
X2360000Y3180000D03*
X2562000Y3658000D03*
X2380000Y3404000D03*
X2370000Y3290000D03*
X2560000Y3230000D03*
Y3320000D03*
X2150000Y3630000D03*
X2562000Y3912000D03*
X2560000Y4293000D03*
X2564000Y4166000D03*
X2150000Y3900000D03*
X2490000Y4240000D03*
X2540000Y4610000D03*
X2230000Y4770000D03*
X2360000Y4580000D03*
X2330000Y5182000D03*
Y5055000D03*
X2540000Y4910000D03*
X2370000Y4900000D03*
X2240000Y5000000D03*
X2520000Y5270000D03*
X2300000Y5500000D03*
X2510000D03*
X2370000Y5740000D03*
X2350000Y5960000D03*
X2265810Y6394800D03*
X2431810Y6914800D03*
X2481810Y7144800D03*
X2285810Y7204800D03*
X2493470Y7653990D03*
X2763470Y63990D03*
X2780000Y370000D03*
X2860000D03*
Y440000D03*
X2780000D03*
X2860000Y510000D03*
X2780000D03*
X2860000Y810000D03*
X2790000D03*
X2860000Y880000D03*
X2790000D03*
X2860000Y950000D03*
X2790000D03*
X2860000Y1020000D03*
X2790000D03*
X3095000Y1515000D03*
X2800000Y1355000D03*
X2650000Y1080000D03*
X3070000Y1360000D03*
X3140000D03*
X3070000Y1260000D03*
X2670000Y1890000D03*
X2660000Y5960000D03*
X2935810Y6394800D03*
X2681810D03*
X2926000Y6940000D03*
X2685810Y6914800D03*
X2735810Y7144800D03*
X3001470Y7653990D03*
X3271470Y63990D03*
X3490000Y860000D03*
X3560000D03*
X3630000D03*
X3650000Y1590000D03*
X3390000D03*
X3316340D03*
X3640000Y1310000D03*
X3210000Y1360000D03*
X3160000Y1200000D03*
X3430000Y1310000D03*
X3530000D03*
X3510960Y1650960D03*
X3340000Y1680000D03*
X3555810Y6394800D03*
X3301810D03*
X3290000Y7100000D03*
X3220000D03*
X3290000Y7170000D03*
X3220000D03*
X3509470Y7653990D03*
X3779470Y63990D03*
X4099990Y449990D03*
X4220000Y380000D03*
X3860000Y400000D03*
Y180000D03*
X4020000Y450000D03*
X4120000Y360000D03*
X4050000D03*
X3760000Y180000D03*
X4060000Y920000D03*
Y820000D03*
X3700000Y860000D03*
X3770000Y1480000D03*
X4200000Y1395150D03*
X3940000Y1310000D03*
X3790000D03*
X4040000D03*
X3960000Y6450000D03*
X4080000Y6260000D03*
X3760000D03*
X4220000Y6600000D03*
X4095810Y7224800D03*
X3841810D03*
X4017470Y7653990D03*
X4287470Y63990D03*
X4499990Y450000D03*
X4400000D03*
X4410000Y1310000D03*
X4530000Y1690000D03*
X4280000D03*
X4440000Y6370000D03*
X4529500Y6080000D03*
X4660000Y6010000D03*
X4720000Y6070000D03*
X4340000Y6890000D03*
X4580000Y6710000D03*
X4585810Y7274800D03*
X4331810D03*
X4525470Y7653990D03*
X5303470Y63990D03*
X4795470D03*
X4900000Y460000D03*
X5090000Y386340D03*
Y460000D03*
X5050000Y1411720D03*
X5260000Y1390000D03*
X5270000Y1140000D03*
X5180000Y1390000D03*
X4940000Y6040000D03*
X5100000D03*
X5120000Y6630000D03*
X4850000Y6940000D03*
X5140000Y7180000D03*
X5290000D03*
X4850000Y7080000D03*
X5290000Y7070000D03*
X5105810Y7274800D03*
X4851810D03*
X5033470Y7653990D03*
X5811470Y63990D03*
X5670000Y450000D03*
Y380000D03*
X5640000Y310000D03*
X5600000Y380000D03*
Y450000D03*
X5860000Y380000D03*
X5780000D03*
X5860000Y450000D03*
X5780000D03*
X5530000Y960000D03*
X5850000Y880000D03*
X5380000Y860000D03*
Y930000D03*
Y990000D03*
X5350000Y1200000D03*
X5560000Y1430000D03*
X5380000Y1050000D03*
X5760000Y1320000D03*
X5800000Y1680000D03*
X5550000D03*
X5420000D03*
X5390000Y6360000D03*
X5590000Y6490000D03*
X5490000Y7050000D03*
Y6690000D03*
Y6560000D03*
X5780000Y6680000D03*
X5490000Y7280000D03*
X5541470Y7653990D03*
X6319470Y63990D03*
X6260000Y1530000D03*
X6350000D03*
X5910000Y1320000D03*
X6070000D03*
X6220000D03*
X6060000Y1670000D03*
X5920000Y1680000D03*
X6350000Y1620000D03*
X6023800Y6166200D03*
X6047000Y6423000D03*
X6100000Y6830000D03*
Y7040000D03*
X6049470Y7653990D03*
X6827470Y63990D03*
X6830000Y200000D03*
X6780000Y240000D03*
X6730000Y200000D03*
X6680000Y240000D03*
X6950000Y930000D03*
X6880000D03*
X6950000Y840000D03*
X6880000D03*
X6640000Y550000D03*
X6768190Y731200D03*
X6514190D03*
X6560000Y1050000D03*
X6808190Y1341200D03*
X6554190D03*
X6798190Y1581200D03*
X6544190D03*
X6918190Y1761200D03*
X6664190D03*
X6892000Y2642000D03*
X6930000Y4293000D03*
Y3900000D03*
X6937000Y4547000D03*
X6936000Y4674000D03*
X6930000Y4420000D03*
X6890000Y4970000D03*
Y5180000D03*
X6877000Y5563000D03*
X6850000Y5790000D03*
Y5900000D03*
X6860000Y6020000D03*
Y6130000D03*
X6630000Y6160000D03*
X6870000Y6370000D03*
X6640000D03*
X6630000Y6550000D03*
X6810000Y6960000D03*
X6940000Y7270000D03*
X6557470Y7653990D03*
X7335470Y63990D03*
X7340000Y200000D03*
X7000000D03*
X7290000Y670000D03*
X7480000Y1290000D03*
X7420000D03*
Y1360000D03*
X7480000D03*
X7368190Y1761200D03*
X7114190D03*
X6984190Y2511200D03*
X7238190D03*
X7030000Y3230000D03*
X7281200Y3251810D03*
Y3505810D03*
X7510000Y4260000D03*
X7210000Y4450000D03*
X7410000Y4870000D03*
X7040000Y4970000D03*
X7150000Y5180000D03*
X7110000Y6110000D03*
X7190000Y6190000D03*
X7061810Y6474800D03*
X7315810D03*
X7401810Y5974800D03*
X7061810Y6728800D03*
X7315810D03*
X7130000Y7130000D03*
X7065470Y7653990D03*
X7843470Y63990D03*
X7760000Y200000D03*
X7820000Y930000D03*
Y990000D03*
X7860000Y620000D03*
X7890000Y570000D03*
Y670000D03*
X7824050Y1390000D03*
X7820000Y1050000D03*
X7822250Y1260000D03*
X7823000Y1797000D03*
X7940000Y1710000D03*
X7938190Y1911200D03*
X7684190D03*
X7594190Y2511200D03*
X7848190D03*
X7764190Y2941200D03*
X8018190D03*
X7858190Y3251200D03*
X7604190D03*
X7970000Y4280000D03*
Y4170000D03*
Y4070000D03*
Y3960000D03*
X7660000Y4460000D03*
X7970000Y4550000D03*
Y4430000D03*
X7680000Y5270000D03*
Y5080000D03*
X7750000Y6270000D03*
X7950000Y6450000D03*
X7655810Y5974800D03*
X7950000Y6750000D03*
Y6550000D03*
X7646200Y7140000D03*
X7750000Y7240000D03*
X7573470Y7653990D03*
X8351470Y63990D03*
X8100000Y210000D03*
X8180000Y1040000D03*
X8430000Y940000D03*
X8420000Y720000D03*
X8150000Y1710000D03*
X8231200Y2511810D03*
Y2765810D03*
X8330000Y3720000D03*
X8110000Y3250000D03*
X8330000Y3960000D03*
X8420000Y4280000D03*
Y4040000D03*
X8170000Y4180000D03*
X8330000Y4510000D03*
X8260000Y4550000D03*
X8200000Y4630000D03*
X8260000Y4820000D03*
X8410000Y4390000D03*
X8170000Y4350000D03*
X8460000Y5210000D03*
X8570000D03*
X8170000Y5080000D03*
X8210000Y5270000D03*
X8180000Y5460000D03*
X8310000Y5610000D03*
X8560000Y6220000D03*
Y6290000D03*
X8490000D03*
X8560000Y6360000D03*
X8490000D03*
X8140000Y6480000D03*
X8230000D03*
X8320000D03*
X8400000D03*
X8270000Y6100000D03*
X8390000Y6240000D03*
X8270000D03*
X8160000D03*
X8270000Y5970000D03*
X8160000D03*
X8290000Y6830000D03*
X8220000D03*
X8290000Y6900000D03*
X8220000D03*
X8100000D03*
X8290000Y6690000D03*
X8081470Y7653990D03*
X8589470D03*
X8859470Y63990D03*
X8960000Y230000D03*
X8620000D03*
X8840010Y829990D03*
X8639990D03*
X8940010D03*
X8739990D03*
X8820800Y3614190D03*
X9074800D03*
X8710000Y4130000D03*
X8790000D03*
X8710000Y4200000D03*
X8790000D03*
X8710000Y4270000D03*
X8790000D03*
X8820800Y3868190D03*
X9074800D03*
X8980000Y4480000D03*
X9070000D03*
X8653660Y5210000D03*
X8870000Y5220000D03*
X9105000Y5680000D03*
X8734910Y5597070D03*
X8690000Y5520000D03*
X8630000Y6220000D03*
Y6290000D03*
Y6360000D03*
X9100000Y6440000D03*
Y6360000D03*
Y6290000D03*
X9090000Y5970000D03*
Y6040000D03*
X9020000Y6590000D03*
X8940000D03*
Y6670000D03*
X9023660D03*
X9100000D03*
Y6590000D03*
Y6510000D03*
X8930000Y7010000D03*
Y7120000D03*
X9097470Y7653990D03*
X9367470Y63990D03*
X9570240Y400630D03*
X9316240Y654630D03*
X9570240D03*
X9316240Y908630D03*
X9570240D03*
X9316240Y1162630D03*
X9570240D03*
X9316240Y1416630D03*
X9570240D03*
X9653500Y2136500D03*
X9659500Y2009500D03*
X9640000Y1900000D03*
X9654500Y2644500D03*
X9240500Y2390500D03*
X9306500Y2263500D03*
X9652500Y2517500D03*
X9620000Y2390000D03*
Y2280000D03*
X9324190Y2811200D03*
X9578190D03*
X9324190Y3141200D03*
X9578190D03*
X9328800Y3614190D03*
X9280000Y4020000D03*
X9190000Y4210000D03*
X9528800Y3934190D03*
Y4188190D03*
X9328800Y3868190D03*
X9260000Y4630000D03*
X9680000Y4540000D03*
X9260000Y4703660D03*
Y4780000D03*
X9280000Y4480000D03*
X9700800Y4848190D03*
X9540000Y5280000D03*
X9510000Y5950000D03*
X9245000Y5855000D03*
X9670000Y5510000D03*
X9460000D03*
X9240000D03*
X9250000Y5950000D03*
X9170000Y6110000D03*
X9190000Y6990000D03*
Y7110000D03*
Y7250000D03*
X9605470Y7653990D03*
X9875470Y63990D03*
X9824240Y400630D03*
Y654630D03*
Y908630D03*
Y1162630D03*
Y1416630D03*
X9800000Y1900000D03*
X10150000Y2520000D03*
X9970000Y2930000D03*
X10140000Y2800000D03*
X10018800Y3584190D03*
Y3838190D03*
X9954800Y4848190D03*
X10208800D03*
X9710000Y5260000D03*
X9980000D03*
X9810000Y5860000D03*
X9740000D03*
X9810000Y5950000D03*
X9740000D03*
X9910000Y5840000D03*
X9760000Y5750000D03*
X9850000D03*
X9950000D03*
X9810000Y6060000D03*
X9740000D03*
X9810000Y6130000D03*
X9740000D03*
X9940000Y6190000D03*
X9910000Y6280000D03*
X10140000Y7210000D03*
X10113470Y7653990D03*
X10383470Y63990D03*
X10721810Y4300800D03*
X10500000Y4480000D03*
X10721810Y4554800D03*
Y4808800D03*
X10584800Y5028190D03*
X10330800D03*
X10584800Y5278190D03*
X10330800D03*
X10341810Y6434800D03*
Y6180800D03*
X10630000Y6800000D03*
X10341810Y6688800D03*
X10383800Y7253800D03*
X10750000Y7100000D03*
X10921810Y1604800D03*
X11175810D03*
X10921810Y1858800D03*
X11175810D03*
X10921810Y2112800D03*
X11175810D03*
X10921810Y2366800D03*
X11175810D03*
X10921810Y2620800D03*
X11175810D03*
X10921810Y2874800D03*
X11175810D03*
X10921810Y3128800D03*
X11175810D03*
X10830000Y3990000D03*
X10975810Y4300800D03*
Y4554800D03*
Y4808800D03*
X10838800Y5028190D03*
Y5278190D03*
X11070000Y5660000D03*
X10951810Y5764800D03*
Y5510800D03*
Y6018800D03*
Y6240800D03*
X11205810D03*
X10951810Y6494800D03*
X11205810D03*
X10951810Y6748800D03*
X11205810D03*
X11423990Y1132530D03*
Y1640530D03*
Y2656530D03*
Y2148530D03*
Y3164530D03*
Y3672530D03*
Y4180530D03*
Y4688530D03*
Y5196530D03*
Y5704530D03*
Y6212530D03*
Y6720530D03*
X13461730Y6622500D03*
G54D21*
X10550000Y970000D03*
Y3470000D03*
X13461730Y1542500D03*
G54D12*
X580000Y2367500D03*
Y2621500D03*
Y3692500D03*
Y3438500D03*
Y4007500D03*
Y4261500D03*
Y5332500D03*
Y5078500D03*
X1959000Y2586000D03*
X1705000Y2713000D03*
X1959000Y2840000D03*
Y3094000D03*
X1705000Y2967000D03*
Y3221000D03*
X1959000Y3348000D03*
X1705000Y3475000D03*
X1959000Y4226000D03*
X1705000Y4353000D03*
X1959000Y4480000D03*
Y4734000D03*
X1705000Y4607000D03*
Y4861000D03*
X1959000Y4988000D03*
X1705000Y5115000D03*
X13461730Y3447500D03*
G54D22*
X10692000Y1804500D03*
Y2081500D03*
X10408000Y1666000D03*
Y1943000D03*
X10692000Y2358500D03*
Y2635500D03*
X10408000Y2220000D03*
Y2497000D03*
Y2774000D03*
X13461730Y4082500D03*
G54D13*
X1070000Y2458500D03*
Y3601500D03*
Y4098500D03*
Y5241500D03*
X13461730Y272500D03*
G54D23*
G01X1300000Y410000D02*
G03I-50000J0D01*
G01X2100000D02*
G03I-50000J0D01*
G01X2870000Y5470000D02*
Y5630000D01*
X2940000Y5700000D01*
X6570000D01*
Y2000000D01*
X2870000D01*
Y5470000D01*
G01X10670000Y4370000D02*
G03I-70000J0D01*
G01Y5520000D02*
G03I-70000J0D01*
G01X11270000Y4370000D02*
G03I-70000J0D01*
G01Y5520000D02*
G03I-70000J0D01*
G54D14*
X1375000Y2255500D03*
Y3804500D03*
Y3895500D03*
Y5444500D03*
X13461730Y2812500D03*
G54D24*
G01X1450000Y7270000D02*
G03I-30000J0D01*
G01X1050000D02*
G03I-30000J0D01*
G01X2820000D02*
G03I-30000J0D01*
G01X3220000D02*
G03I-30000J0D01*
G54D15*
X4596000Y6940000D03*
X5104000D03*
X5846000D03*
X6354000D03*
X13461730Y2177500D03*
G54D25*
G01X7495000Y3400000D02*
G03I-75000J0D01*
G01Y4150000D02*
G03I-75000J0D01*
G54D16*
X7445000Y5810000D03*
X7635000D03*
X13461730Y5352500D03*
G54D26*
G01X-1439990Y3764750D02*
X-1435250Y3806020D01*
X-1428140Y3840950D01*
X-1418660Y3872700D01*
X-1406800Y3907620D01*
X-1387840Y3955250D01*
X-1482660D01*
G01X-1249490Y3764750D02*
X-1244750Y3806020D01*
X-1237640Y3840950D01*
X-1228160Y3872700D01*
X-1216300Y3907620D01*
X-1197340Y3955250D01*
X-1292160D01*
G01X-1040490Y3264750D02*
X-1035750Y3306020D01*
X-1028640Y3340950D01*
X-1019160Y3372700D01*
X-1007300Y3407620D01*
X-988340Y3455250D01*
X-1083160D01*
G01X-897400Y3302850D02*
X-883180Y3280620D01*
X-864220Y3267920D01*
X-842880Y3264750D01*
X-823910Y3267920D01*
X-804950Y3283800D01*
X-793100Y3302850D01*
X-790730Y3321900D01*
X-795470Y3344120D01*
X-812060Y3360000D01*
X-828660Y3366350D01*
X-849990D01*
G01X-828660D02*
X-814430Y3375870D01*
X-802580Y3391750D01*
X-797840Y3410800D01*
X-802580Y3429850D01*
X-814430Y3445720D01*
X-835770Y3455250D01*
X-857100Y3452080D01*
X-878440Y3439370D01*
G01X-654750Y3258400D02*
X-659490Y3261580D01*
Y3267920D01*
X-654750Y3271100D01*
X-650010Y3267920D01*
Y3261580D01*
X-654750Y3258400D01*
G01X-468990Y3264750D02*
X-464250Y3306020D01*
X-457140Y3340950D01*
X-447660Y3372700D01*
X-435800Y3407620D01*
X-416840Y3455250D01*
X-511660D01*
G01X-592650Y92850D02*
X-578430Y70620D01*
X-559470Y57920D01*
X-538130Y54750D01*
X-519160Y57920D01*
X-500200Y73800D01*
X-488350Y92850D01*
X-485980Y111900D01*
X-490720Y134120D01*
X-507310Y150000D01*
X-523910Y156350D01*
X-545240D01*
G01X-523910D02*
X-509680Y165870D01*
X-497830Y181750D01*
X-493090Y200800D01*
X-497830Y219850D01*
X-509680Y235720D01*
X-531020Y245250D01*
X-552350Y242080D01*
X-573690Y229370D01*
G01X-350000Y48400D02*
X-354740Y51580D01*
Y57920D01*
X-350000Y61100D01*
X-345260Y57920D01*
Y51580D01*
X-350000Y48400D01*
G01X-211650Y92850D02*
X-197430Y70620D01*
X-178470Y57920D01*
X-157130Y54750D01*
X-138160Y57920D01*
X-119200Y73800D01*
X-107350Y92850D01*
X-104980Y111900D01*
X-109720Y134120D01*
X-126310Y150000D01*
X-142910Y156350D01*
X-164240D01*
G01X-142910D02*
X-128680Y165870D01*
X-116830Y181750D01*
X-112090Y200800D01*
X-116830Y219850D01*
X-128680Y235720D01*
X-150020Y245250D01*
X-171350Y242080D01*
X-192690Y229370D01*
G01X-102650Y-347150D02*
X-88430Y-369380D01*
X-69470Y-382080D01*
X-48130Y-385250D01*
X-29160Y-382080D01*
X-10200Y-366200D01*
X1650Y-347150D01*
X4020Y-328100D01*
X-720Y-305880D01*
X-17310Y-290000D01*
X-33910Y-283650D01*
X-55240D01*
G01X-33910D02*
X-19680Y-274130D01*
X-7830Y-258250D01*
X-3090Y-239200D01*
X-7830Y-220150D01*
X-19680Y-204280D01*
X-41020Y-194750D01*
X-62350Y-197920D01*
X-83690Y-210630D01*
G01X140000Y-391600D02*
X135260Y-388420D01*
Y-382080D01*
X140000Y-378900D01*
X144740Y-382080D01*
Y-388420D01*
X140000Y-391600D01*
G01X278350Y-347150D02*
X292570Y-369380D01*
X311530Y-382080D01*
X332870Y-385250D01*
X351840Y-382080D01*
X370800Y-366200D01*
X382650Y-347150D01*
X385020Y-328100D01*
X380280Y-305880D01*
X363690Y-290000D01*
X347090Y-283650D01*
X325760D01*
G01X347090D02*
X361320Y-274130D01*
X373170Y-258250D01*
X377910Y-239200D01*
X373170Y-220150D01*
X361320Y-204280D01*
X339980Y-194750D01*
X318650Y-197920D01*
X297310Y-210630D01*
G01X330000Y0D02*
X11170000D01*
G03X11500000Y330000I0J330000D01*
G01Y7370000D01*
G03X11170000Y7700000I-330000J0D01*
G01X330000D01*
G03X0Y7370000I0J-330000D01*
G01Y330000D01*
G03X330000Y0I330000J0D01*
G01X4659000Y-675250D02*
Y-484750D01*
X4630550Y-522850D01*
G01Y-675250D02*
X4687440D01*
G01X4849500D02*
Y-484750D01*
X4821050Y-522850D01*
G01Y-675250D02*
X4877940D01*
G01X5040000D02*
Y-484750D01*
X5011550Y-522850D01*
G01Y-675250D02*
X5068440D01*
G01X5230500Y-681600D02*
X5225760Y-678420D01*
Y-672080D01*
X5230500Y-668900D01*
X5235240Y-672080D01*
Y-678420D01*
X5230500Y-681600D01*
G01X5416260Y-675250D02*
X5421000Y-633980D01*
X5428110Y-599050D01*
X5437590Y-567300D01*
X5449450Y-532380D01*
X5468410Y-484750D01*
X5373590D01*
G01X5419500Y-1025250D02*
Y-834750D01*
X5391050Y-872850D01*
G01Y-1025250D02*
X5447940D01*
G01X5610000D02*
Y-834750D01*
X5581550Y-872850D01*
G01Y-1025250D02*
X5638440D01*
G01X5748350Y-996680D02*
X5762570Y-1012550D01*
X5779160Y-1022080D01*
X5800500Y-1025250D01*
X5821840Y-1018900D01*
X5838430Y-1006200D01*
X5850280Y-983980D01*
X5852650Y-958580D01*
X5847910Y-933180D01*
X5836060Y-917300D01*
X5819460Y-904600D01*
X5802870Y-901430D01*
X5786280Y-904600D01*
X5764940Y-917300D01*
X5772050Y-834750D01*
X5836060D01*
G01X-250000Y0D02*
X-1590000D01*
G01X-1340000Y3614260D02*
Y0D01*
G01X-1402500Y400000D02*
X-1340000Y0D01*
X-1277500Y400000D01*
X-1402500D01*
G01X-1340000Y4105740D02*
Y7700000D01*
G01X-1277500Y7300000D02*
X-1340000Y7700000D01*
X-1402500Y7300000D01*
X-1277500D01*
G01X270000Y7700000D02*
X-1590000D01*
G01X-250000Y0D02*
X-1000000D01*
G01X-750000Y3114260D02*
Y0D01*
G01X-812500Y400000D02*
X-750000Y0D01*
X-687500Y400000D01*
X-812500D01*
G01X-750000Y3605740D02*
Y7370000D01*
G01X-687500Y6970000D02*
X-750000Y7370000D01*
X-812500Y6970000D01*
X-687500D01*
G01X80000Y7370000D02*
X-1000000D01*
G01X-350000Y-95740D02*
Y0D01*
G01X-287500Y-400000D02*
X-350000Y0D01*
X-412500Y-400000D01*
X-287500D01*
G01X-272110Y-290000D02*
X0D01*
G01X-400000Y-352500D02*
X0Y-290000D01*
X-400000Y-227500D01*
Y-352500D01*
G01X80000Y330000D02*
X-600000D01*
G01X-250000Y0D02*
X-600000D01*
G01X-350000Y395740D02*
Y330000D01*
G01X-412500Y730000D02*
X-350000Y330000D01*
X-287500Y730000D01*
X-412500D01*
G01X0Y-250000D02*
Y-1180000D01*
G01Y-250000D02*
Y-830000D01*
G01X400000Y-517500D02*
X0Y-580000D01*
X400000Y-642500D01*
Y-517500D01*
G01X5197890Y-930000D02*
X0D01*
G01X400000Y-867500D02*
X0Y-930000D01*
X400000Y-992500D01*
Y-867500D01*
G01X0Y-250000D02*
Y-540000D01*
G01X330000Y80000D02*
Y-540000D01*
G01X552110Y-290000D02*
X330000D01*
G01X730000Y-227500D02*
X330000Y-290000D01*
X730000Y-352500D01*
Y-227500D01*
G01X4437390Y-580000D02*
X0D01*
G01X5642610D02*
X11170000D01*
G01X6022110Y-930000D02*
X11500000D01*
G01X11170000Y80000D02*
Y-830000D01*
G01X10770000Y-642500D02*
X11170000Y-580000D01*
X10770000Y-517500D01*
Y-642500D01*
G01X11100000Y-992500D02*
X11500000Y-930000D01*
X11100000Y-867500D01*
Y-992500D01*
G01X11500000Y330000D02*
Y-1180000D01*
G01X12320000Y-1315000D02*
Y8860000D01*
X24603440D01*
Y-1315000D01*
X12320000D01*
G01Y-680000D02*
X24603440D01*
G01X12320000Y-45000D02*
X24603440D01*
G01X12320000Y590000D02*
X24603440D01*
G01X12320000Y1225000D02*
X24603440D01*
G01X12320000Y1860000D02*
X24603440D01*
G01X12320000Y2495000D02*
X24603440D01*
G01X12320000Y3130000D02*
X24603440D01*
G01X12320000Y3765000D02*
X24603440D01*
G01X12320000Y4400000D02*
X24603440D01*
G01X12320000Y5035000D02*
X24603440D01*
G01X12320000Y5670000D02*
X24603440D01*
G01X12320000Y6305000D02*
X24603440D01*
G01X12320000Y6940000D02*
X24603440D01*
G01X12320000Y7575000D02*
X24603440D01*
G01X12320000Y8210000D02*
X24603440D01*
G01X12599520Y7098750D02*
Y7416250D01*
X12749140D01*
G01X12694010Y7262800D02*
X12599520D01*
G01X12942050Y7416250D02*
X13036530D01*
G01X12989290D02*
Y7098750D01*
G01X12942050D02*
X13036530D01*
G01X13327870Y7257500D02*
X13406620D01*
Y7162250D01*
X13382990Y7130490D01*
X13355430Y7109330D01*
X13316060Y7098750D01*
X13276690Y7109330D01*
X13249130Y7130490D01*
X13225510Y7162250D01*
X13209760Y7199290D01*
X13201880Y7241620D01*
Y7278670D01*
X13209760Y7310410D01*
X13225510Y7347460D01*
X13249130Y7379210D01*
X13272750Y7400370D01*
X13304250Y7416250D01*
X13331810D01*
X13363300Y7405670D01*
X13386930Y7384500D01*
G01X13532600Y7416250D02*
Y7188710D01*
X13548340Y7141070D01*
X13579840Y7109330D01*
X13619210Y7098750D01*
X13658580Y7109330D01*
X13690080Y7141070D01*
X13705820Y7188710D01*
Y7416250D01*
G01X13855430Y7098750D02*
Y7416250D01*
X13953850D01*
X13985350Y7400370D01*
X14005040Y7379210D01*
X14012910Y7336870D01*
X14005040Y7294540D01*
X13981410Y7268090D01*
X13953850Y7252200D01*
X13855430D01*
G01X13953850D02*
X14012910Y7098750D01*
G01X14327870D02*
X14170390D01*
Y7416250D01*
X14327870D01*
G01X14264880Y7262800D02*
X14170390D01*
G01X14111330Y7733750D02*
X14209760Y8051250D01*
X14308190Y7733750D01*
G01X14272750Y7844870D02*
X14146760D01*
G01X14445980Y8051250D02*
Y7733750D01*
X14603460D01*
G01X14760940Y8051250D02*
Y7733750D01*
X14918420D01*
G01X15382990Y8051250D02*
Y7823710D01*
X15398730Y7776070D01*
X15430230Y7744330D01*
X15469600Y7733750D01*
X15508970Y7744330D01*
X15540470Y7776070D01*
X15556210Y7823710D01*
Y8051250D01*
G01X15694010Y7733750D02*
Y8051250D01*
X15875110Y7733750D01*
Y8051250D01*
G01X16052280D02*
X16146760D01*
G01X16099520D02*
Y7733750D01*
G01X16052280D02*
X16146760D01*
G01X16414480Y8051250D02*
Y7733750D01*
G01X16323930Y8051250D02*
X16505030D01*
G01X16646760Y7776070D02*
X16678260Y7749620D01*
X16713690Y7733750D01*
X16745190D01*
X16776680Y7749620D01*
X16800310Y7776070D01*
X16812120Y7813130D01*
X16804250Y7850160D01*
X16784560Y7881910D01*
X16749120Y7903090D01*
X16701880Y7913670D01*
X16674320Y7934830D01*
X16662510Y7971870D01*
X16670390Y8008920D01*
X16690070Y8035370D01*
X16717630Y8051250D01*
X16745190D01*
X16772750Y8040670D01*
X16796370Y8014210D01*
G01X17260930Y7733750D02*
X17359360Y8051250D01*
X17457790Y7733750D01*
G01X17422350Y7844870D02*
X17296360D01*
G01X17595580Y7733750D02*
Y8051250D01*
X17694000D01*
X17725500Y8035370D01*
X17745190Y8014210D01*
X17753060Y7971870D01*
X17745190Y7929540D01*
X17721560Y7903090D01*
X17694000Y7887200D01*
X17595580D01*
G01X17694000D02*
X17753060Y7733750D01*
G01X18068020D02*
X17910540D01*
Y8051250D01*
X18068020D01*
G01X18005030Y7897800D02*
X17910540D01*
G01X18571960Y8051250D02*
X18666440D01*
G01X18619200D02*
Y7733750D01*
G01X18571960D02*
X18666440D01*
G01X18843610D02*
Y8051250D01*
X19024710Y7733750D01*
Y8051250D01*
G01X19461710Y7733750D02*
Y8051250D01*
X19564080Y7786670D01*
X19666450Y8051250D01*
Y7733750D01*
G01X19831800Y8051250D02*
X19926280D01*
G01X19879040D02*
Y7733750D01*
G01X19831800D02*
X19926280D01*
G01X20115260Y8051250D02*
Y7733750D01*
X20272740D01*
G01X20430220Y8051250D02*
Y7733750D01*
X20587700D01*
G01X20776680Y8051250D02*
X20871160D01*
G01X20823920D02*
Y7733750D01*
G01X20776680D02*
X20871160D01*
G01X21036510D02*
Y8051250D01*
X21138880Y7786670D01*
X21241250Y8051250D01*
Y7733750D01*
G01X21532580D02*
X21375100D01*
Y8051250D01*
X21532580D01*
G01X21469590Y7897800D02*
X21375100D01*
G01X21768800Y8051250D02*
Y7733750D01*
G01X21678250Y8051250D02*
X21859350D01*
G01X22162500Y7733750D02*
X22005020D01*
Y8051250D01*
X22162500D01*
G01X22099510Y7897800D02*
X22005020D01*
G01X22319980Y7733750D02*
Y8051250D01*
X22418400D01*
X22449900Y8035370D01*
X22469590Y8014210D01*
X22477460Y7971870D01*
X22469590Y7929540D01*
X22445960Y7903090D01*
X22418400Y7887200D01*
X22319980D01*
G01X22418400D02*
X22477460Y7733750D01*
G01X22631000Y7776070D02*
X22662500Y7749620D01*
X22697930Y7733750D01*
X22729430D01*
X22760920Y7749620D01*
X22784550Y7776070D01*
X22796360Y7813130D01*
X22788490Y7850160D01*
X22768800Y7881910D01*
X22733360Y7903090D01*
X22686120Y7913670D01*
X22658560Y7934830D01*
X22646750Y7971870D01*
X22654630Y8008920D01*
X22674310Y8035370D01*
X22701870Y8051250D01*
X22729430D01*
X22756990Y8040670D01*
X22780610Y8014210D01*
G01X14438110Y8383750D02*
Y8701250D01*
X14516840D01*
X14548340Y8685370D01*
X14571960Y8664210D01*
X14591650Y8632460D01*
X14607400Y8595410D01*
X14611330Y8542500D01*
X14607400Y8489580D01*
X14591650Y8452540D01*
X14571960Y8420780D01*
X14548340Y8399620D01*
X14516840Y8383750D01*
X14438110D01*
G01X14760940D02*
Y8701250D01*
X14859360D01*
X14890860Y8685370D01*
X14910550Y8664210D01*
X14918420Y8621870D01*
X14910550Y8579540D01*
X14886920Y8553090D01*
X14859360Y8537200D01*
X14760940D01*
G01X14859360D02*
X14918420Y8383750D01*
G01X15107400Y8701250D02*
X15201880D01*
G01X15154640D02*
Y8383750D01*
G01X15107400D02*
X15201880D01*
G01X15390860Y8701250D02*
Y8383750D01*
X15548340D01*
G01X15705820Y8701250D02*
Y8383750D01*
X15863300D01*
G01X16501090Y8674790D02*
X16477470Y8690670D01*
X16449920Y8701250D01*
X16418420D01*
X16382980Y8685370D01*
X16355430Y8658920D01*
X16335740Y8627160D01*
X16319990Y8574250D01*
X16316050Y8526620D01*
X16323930Y8479000D01*
X16335740Y8447250D01*
X16359360Y8415490D01*
X16386920Y8394330D01*
X16414480Y8383750D01*
X16442040D01*
X16469600Y8394330D01*
X16493220Y8410200D01*
X16512910Y8431360D01*
G01X16646760Y8383750D02*
Y8701250D01*
G01X16812120D02*
Y8383750D01*
G01Y8542500D02*
X16646760D01*
G01X16945970Y8383750D02*
X17044400Y8701250D01*
X17142830Y8383750D01*
G01X17107390Y8494870D02*
X16981400D01*
G01X17280620Y8383750D02*
Y8701250D01*
X17379040D01*
X17410540Y8685370D01*
X17430230Y8664210D01*
X17438100Y8621870D01*
X17430230Y8579540D01*
X17406600Y8553090D01*
X17379040Y8537200D01*
X17280620D01*
G01X17379040D02*
X17438100Y8383750D01*
G01X17674320Y8701250D02*
Y8383750D01*
G01X17583770Y8701250D02*
X17764870D01*
G01X17989280Y8373170D02*
X17981400Y8378460D01*
Y8389040D01*
X17989280Y8394330D01*
X17997160Y8389040D01*
Y8378460D01*
X17989280Y8373170D01*
G01Y8516030D02*
X17981400Y8521330D01*
Y8531910D01*
X17989280Y8537200D01*
X17997160Y8531910D01*
Y8521330D01*
X17989280Y8516030D01*
G01X18619200Y8701250D02*
Y8383750D01*
G01X18528650Y8701250D02*
X18709750D01*
G01X18934160Y8383750D02*
X18902660Y8389040D01*
X18875110Y8410200D01*
X18851480Y8441960D01*
X18835730Y8479000D01*
X18827860Y8521330D01*
Y8563670D01*
X18835730Y8606000D01*
X18851480Y8643040D01*
X18875110Y8674790D01*
X18902660Y8695960D01*
X18934160Y8701250D01*
X18965650Y8695960D01*
X18993210Y8674790D01*
X19016840Y8643040D01*
X19032590Y8606000D01*
X19040460Y8563670D01*
Y8521330D01*
X19032590Y8479000D01*
X19016840Y8441960D01*
X18993210Y8410200D01*
X18965650Y8389040D01*
X18934160Y8383750D01*
G01X19170380D02*
Y8701250D01*
X19264870D01*
X19296360Y8685370D01*
X19319990Y8648330D01*
X19327860Y8606000D01*
X19319990Y8563670D01*
X19300300Y8531910D01*
X19264870Y8516030D01*
X19170380D01*
G01X19879040Y8701250D02*
Y8383750D01*
G01X19823920Y8595410D02*
X19934160D01*
G01X20194000Y8383750D02*
X20170380Y8389040D01*
X20146760Y8410200D01*
X20131000Y8447250D01*
X20123130Y8489580D01*
X20131000Y8531910D01*
X20146760Y8568960D01*
X20170380Y8590120D01*
X20194000Y8595410D01*
X20217620Y8590120D01*
X20241240Y8568960D01*
X20256990Y8531910D01*
X20260930Y8489580D01*
X20256990Y8447250D01*
X20241240Y8410200D01*
X20217620Y8389040D01*
X20194000Y8383750D01*
G01X20855410Y8553090D02*
X20871160Y8568960D01*
X20882970Y8595410D01*
X20890850Y8632460D01*
X20882970Y8664210D01*
X20867230Y8685370D01*
X20839670Y8701250D01*
X20733370D01*
Y8383750D01*
X20863290D01*
X20890850Y8404910D01*
X20906600Y8436670D01*
X20914470Y8473710D01*
X20906600Y8510740D01*
X20882970Y8542500D01*
X20855410Y8553090D01*
X20733370D01*
G01X21138880Y8383750D02*
X21107380Y8389040D01*
X21079830Y8410200D01*
X21056200Y8441960D01*
X21040450Y8479000D01*
X21032580Y8521330D01*
Y8563670D01*
X21040450Y8606000D01*
X21056200Y8643040D01*
X21079830Y8674790D01*
X21107380Y8695960D01*
X21138880Y8701250D01*
X21170370Y8695960D01*
X21197930Y8674790D01*
X21221560Y8643040D01*
X21237310Y8606000D01*
X21245180Y8563670D01*
Y8521330D01*
X21237310Y8479000D01*
X21221560Y8441960D01*
X21197930Y8410200D01*
X21170370Y8389040D01*
X21138880Y8383750D01*
G01X21453840Y8701250D02*
Y8383750D01*
G01X21363290Y8701250D02*
X21544390D01*
G01X21768800D02*
Y8383750D01*
G01X21678250Y8701250D02*
X21859350D01*
G01X22083760Y8383750D02*
X22052260Y8389040D01*
X22024710Y8410200D01*
X22001080Y8441960D01*
X21985330Y8479000D01*
X21977460Y8521330D01*
Y8563670D01*
X21985330Y8606000D01*
X22001080Y8643040D01*
X22024710Y8674790D01*
X22052260Y8695960D01*
X22083760Y8701250D01*
X22115250Y8695960D01*
X22142810Y8674790D01*
X22166440Y8643040D01*
X22182190Y8606000D01*
X22190060Y8563670D01*
Y8521330D01*
X22182190Y8479000D01*
X22166440Y8441960D01*
X22142810Y8410200D01*
X22115250Y8389040D01*
X22083760Y8383750D01*
G01X22296350D02*
Y8701250D01*
X22398720Y8436670D01*
X22501090Y8701250D01*
Y8383750D01*
G01X14603460Y7575000D02*
Y-1315000D01*
G01X15973540Y-1092750D02*
X15997150Y-1129800D01*
X16028650Y-1150960D01*
X16064090Y-1156250D01*
X16095590Y-1150960D01*
X16127080Y-1124510D01*
X16146760Y-1092750D01*
X16150700Y-1061000D01*
X16142830Y-1023970D01*
X16115270Y-997500D01*
X16087710Y-986910D01*
X16052270D01*
G01X16087710D02*
X16111330Y-971040D01*
X16131020Y-944590D01*
X16138890Y-912840D01*
X16131020Y-881080D01*
X16111330Y-854630D01*
X16075900Y-838750D01*
X16040470Y-844040D01*
X16005030Y-865210D01*
G01X16375110Y-1166830D02*
X16367230Y-1161540D01*
Y-1150960D01*
X16375110Y-1145670D01*
X16382990Y-1150960D01*
Y-1161540D01*
X16375110Y-1166830D01*
G01X16690070Y-838750D02*
X16658570Y-849330D01*
X16634950Y-875790D01*
X16619200Y-907540D01*
X16607390Y-949880D01*
X16603460Y-997500D01*
X16607390Y-1045130D01*
X16619200Y-1087460D01*
X16634950Y-1119220D01*
X16658570Y-1145670D01*
X16690070Y-1156250D01*
X16721560Y-1145670D01*
X16745190Y-1119220D01*
X16760940Y-1087460D01*
X16772750Y-1045130D01*
X16776680Y-997500D01*
X16772750Y-949880D01*
X16760940Y-907540D01*
X16745190Y-875790D01*
X16721560Y-849330D01*
X16690070Y-838750D01*
G01X16945980Y-944590D02*
X17064080Y-1156250D01*
G01Y-944590D02*
X16945980Y-1156250D01*
G01X17319990D02*
Y-838750D01*
X17272750Y-902250D01*
G01Y-1156250D02*
X17367230D01*
G01X17634950Y-1166830D02*
X17627070Y-1161540D01*
Y-1150960D01*
X17634950Y-1145670D01*
X17642830Y-1150960D01*
Y-1161540D01*
X17634950Y-1166830D01*
G01X17949910Y-838750D02*
X17918410Y-849330D01*
X17894790Y-875790D01*
X17879040Y-907540D01*
X17867230Y-949880D01*
X17863300Y-997500D01*
X17867230Y-1045130D01*
X17879040Y-1087460D01*
X17894790Y-1119220D01*
X17918410Y-1145670D01*
X17949910Y-1156250D01*
X17981400Y-1145670D01*
X18005030Y-1119220D01*
X18020780Y-1087460D01*
X18032590Y-1045130D01*
X18036520Y-997500D01*
X18032590Y-949880D01*
X18020780Y-907540D01*
X18005030Y-875790D01*
X17981400Y-849330D01*
X17949910Y-838750D01*
G01X15973540Y-457750D02*
X15997150Y-494800D01*
X16028650Y-515960D01*
X16064090Y-521250D01*
X16095590Y-515960D01*
X16127080Y-489510D01*
X16146760Y-457750D01*
X16150700Y-426000D01*
X16142830Y-388970D01*
X16115270Y-362500D01*
X16087710Y-351910D01*
X16052270D01*
G01X16087710D02*
X16111330Y-336040D01*
X16131020Y-309590D01*
X16138890Y-277840D01*
X16131020Y-246080D01*
X16111330Y-219630D01*
X16075900Y-203750D01*
X16040470Y-209040D01*
X16005030Y-230210D01*
G01X16375110Y-531830D02*
X16367230Y-526540D01*
Y-515960D01*
X16375110Y-510670D01*
X16382990Y-515960D01*
Y-526540D01*
X16375110Y-531830D01*
G01X16690070Y-203750D02*
X16658570Y-214330D01*
X16634950Y-240790D01*
X16619200Y-272540D01*
X16607390Y-314880D01*
X16603460Y-362500D01*
X16607390Y-410130D01*
X16619200Y-452460D01*
X16634950Y-484220D01*
X16658570Y-510670D01*
X16690070Y-521250D01*
X16721560Y-510670D01*
X16745190Y-484220D01*
X16760940Y-452460D01*
X16772750Y-410130D01*
X16776680Y-362500D01*
X16772750Y-314880D01*
X16760940Y-272540D01*
X16745190Y-240790D01*
X16721560Y-214330D01*
X16690070Y-203750D01*
G01X16945980Y-309590D02*
X17064080Y-521250D01*
G01Y-309590D02*
X16945980Y-521250D01*
G01X17319990D02*
Y-203750D01*
X17272750Y-267250D01*
G01Y-521250D02*
X17367230D01*
G01X17634950Y-531830D02*
X17627070Y-526540D01*
Y-515960D01*
X17634950Y-510670D01*
X17642830Y-515960D01*
Y-526540D01*
X17634950Y-531830D01*
G01X17949910Y-203750D02*
X17918410Y-214330D01*
X17894790Y-240790D01*
X17879040Y-272540D01*
X17867230Y-314880D01*
X17863300Y-362500D01*
X17867230Y-410130D01*
X17879040Y-452460D01*
X17894790Y-484220D01*
X17918410Y-510670D01*
X17949910Y-521250D01*
X17981400Y-510670D01*
X18005030Y-484220D01*
X18020780Y-452460D01*
X18032590Y-410130D01*
X18036520Y-362500D01*
X18032590Y-314880D01*
X18020780Y-272540D01*
X18005030Y-240790D01*
X17981400Y-214330D01*
X17949910Y-203750D01*
G01X16131020Y812250D02*
X16154630Y775200D01*
X16186130Y754040D01*
X16221570Y748750D01*
X16253070Y754040D01*
X16284560Y780490D01*
X16304240Y812250D01*
X16308180Y844000D01*
X16300310Y881030D01*
X16272750Y907500D01*
X16245190Y918090D01*
X16209750D01*
G01X16245190D02*
X16268810Y933960D01*
X16288500Y960410D01*
X16296370Y992160D01*
X16288500Y1023920D01*
X16268810Y1050370D01*
X16233380Y1066250D01*
X16197950Y1060960D01*
X16162510Y1039790D01*
G01X16532590Y738170D02*
X16524710Y743460D01*
Y754040D01*
X16532590Y759330D01*
X16540470Y754040D01*
Y743460D01*
X16532590Y738170D01*
G01X16894790Y748750D02*
Y1066250D01*
X16749120Y838710D01*
X16945980D01*
G01X17162510Y1066250D02*
X17131010Y1055670D01*
X17107390Y1029210D01*
X17091640Y997460D01*
X17079830Y955120D01*
X17075900Y907500D01*
X17079830Y859870D01*
X17091640Y817540D01*
X17107390Y785780D01*
X17131010Y759330D01*
X17162510Y748750D01*
X17194000Y759330D01*
X17217630Y785780D01*
X17233380Y817540D01*
X17245190Y859870D01*
X17249120Y907500D01*
X17245190Y955120D01*
X17233380Y997460D01*
X17217630Y1029210D01*
X17194000Y1055670D01*
X17162510Y1066250D01*
G01X17390860Y812250D02*
X17414470Y775200D01*
X17445970Y754040D01*
X17481410Y748750D01*
X17512910Y754040D01*
X17544400Y780490D01*
X17564080Y812250D01*
X17568020Y844000D01*
X17560150Y881030D01*
X17532590Y907500D01*
X17505030Y918090D01*
X17469590D01*
G01X17505030D02*
X17528650Y933960D01*
X17548340Y960410D01*
X17556210Y992160D01*
X17548340Y1023920D01*
X17528650Y1050370D01*
X17493220Y1066250D01*
X17457790Y1060960D01*
X17422350Y1039790D01*
G01X17717620Y881030D02*
X17745190Y918090D01*
X17768810Y939250D01*
X17800310Y949830D01*
X17827870Y939250D01*
X17847550Y918090D01*
X17863300Y886330D01*
X17867240Y849290D01*
X17863300Y817540D01*
X17847550Y785780D01*
X17823920Y759330D01*
X17796370Y748750D01*
X17764870Y759330D01*
X17737310Y791070D01*
X17721560Y838710D01*
X17717620Y891620D01*
X17725500Y960410D01*
X17737310Y997460D01*
X17756990Y1034500D01*
X17784550Y1060960D01*
X17812110Y1066250D01*
X17839670Y1055670D01*
X17859360Y1029210D01*
G01X16217630Y3288750D02*
Y3606250D01*
X16170390Y3542750D01*
G01Y3288750D02*
X16264870D01*
G01X16532590Y3278170D02*
X16524710Y3283460D01*
Y3294040D01*
X16532590Y3299330D01*
X16540470Y3294040D01*
Y3283460D01*
X16532590Y3278170D01*
G01X16847550Y3606250D02*
X16816050Y3595670D01*
X16792430Y3569210D01*
X16776680Y3537460D01*
X16764870Y3495120D01*
X16760940Y3447500D01*
X16764870Y3399870D01*
X16776680Y3357540D01*
X16792430Y3325780D01*
X16816050Y3299330D01*
X16847550Y3288750D01*
X16879040Y3299330D01*
X16902670Y3325780D01*
X16918420Y3357540D01*
X16930230Y3399870D01*
X16934160Y3447500D01*
X16930230Y3495120D01*
X16918420Y3537460D01*
X16902670Y3569210D01*
X16879040Y3595670D01*
X16847550Y3606250D01*
G01X17162510D02*
X17131010Y3595670D01*
X17107390Y3569210D01*
X17091640Y3537460D01*
X17079830Y3495120D01*
X17075900Y3447500D01*
X17079830Y3399870D01*
X17091640Y3357540D01*
X17107390Y3325780D01*
X17131010Y3299330D01*
X17162510Y3288750D01*
X17194000Y3299330D01*
X17217630Y3325780D01*
X17233380Y3357540D01*
X17245190Y3399870D01*
X17249120Y3447500D01*
X17245190Y3495120D01*
X17233380Y3537460D01*
X17217630Y3569210D01*
X17194000Y3595670D01*
X17162510Y3606250D01*
G01X17477470D02*
X17445970Y3595670D01*
X17422350Y3569210D01*
X17406600Y3537460D01*
X17394790Y3495120D01*
X17390860Y3447500D01*
X17394790Y3399870D01*
X17406600Y3357540D01*
X17422350Y3325780D01*
X17445970Y3299330D01*
X17477470Y3288750D01*
X17508960Y3299330D01*
X17532590Y3325780D01*
X17548340Y3357540D01*
X17560150Y3399870D01*
X17564080Y3447500D01*
X17560150Y3495120D01*
X17548340Y3537460D01*
X17532590Y3569210D01*
X17508960Y3595670D01*
X17477470Y3606250D01*
G01X17792430Y3288750D02*
X17819990Y3294040D01*
X17851480Y3309910D01*
X17871170Y3336360D01*
X17879040Y3373420D01*
X17871170Y3410450D01*
X17847550Y3442200D01*
X17812110Y3458090D01*
X17772750D01*
X17749120Y3468670D01*
X17729430Y3495120D01*
X17721560Y3532160D01*
X17733380Y3569210D01*
X17760930Y3595670D01*
X17792430Y3606250D01*
X17823920Y3595670D01*
X17851480Y3569210D01*
X17863300Y3532160D01*
X17855420Y3495120D01*
X17835740Y3468670D01*
X17812110Y3458090D01*
X17772750D01*
X17737310Y3442200D01*
X17713690Y3410450D01*
X17705820Y3373420D01*
X17713690Y3336360D01*
X17733380Y3309910D01*
X17764870Y3294040D01*
X17792430Y3288750D01*
G01X16217630Y4241250D02*
X16186130Y4230670D01*
X16162510Y4204210D01*
X16146760Y4172460D01*
X16134950Y4130120D01*
X16131020Y4082500D01*
X16134950Y4034870D01*
X16146760Y3992540D01*
X16162510Y3960780D01*
X16186130Y3934330D01*
X16217630Y3923750D01*
X16249120Y3934330D01*
X16272750Y3960780D01*
X16288500Y3992540D01*
X16300310Y4034870D01*
X16304240Y4082500D01*
X16300310Y4130120D01*
X16288500Y4172460D01*
X16272750Y4204210D01*
X16249120Y4230670D01*
X16217630Y4241250D01*
G01X16532590Y3913170D02*
X16524710Y3918460D01*
Y3929040D01*
X16532590Y3934330D01*
X16540470Y3929040D01*
Y3918460D01*
X16532590Y3913170D01*
G01X16780620Y3960780D02*
X16808180Y3934330D01*
X16839670Y3923750D01*
X16871170Y3934330D01*
X16898730Y3966070D01*
X16918420Y4013710D01*
X16926290Y4061330D01*
Y4119540D01*
X16918420Y4167160D01*
X16898730Y4209500D01*
X16875110Y4230670D01*
X16847550Y4241250D01*
X16816050Y4230670D01*
X16792430Y4209500D01*
X16776680Y4177750D01*
X16768810Y4135410D01*
X16776680Y4098380D01*
X16796370Y4061330D01*
X16819990Y4040160D01*
X16847550Y4034870D01*
X16879040Y4045450D01*
X16902670Y4071910D01*
X16926290Y4119540D01*
G01X17162510Y3923750D02*
Y4241250D01*
X17115270Y4177750D01*
G01Y3923750D02*
X17209750D01*
G01X17524710D02*
Y4241250D01*
X17379040Y4013710D01*
X17575900D01*
G01X17839670Y3923750D02*
Y4241250D01*
X17694000Y4013710D01*
X17890860D01*
G01X16217630Y6146250D02*
X16186130Y6135670D01*
X16162510Y6109210D01*
X16146760Y6077460D01*
X16134950Y6035120D01*
X16131020Y5987500D01*
X16134950Y5939870D01*
X16146760Y5897540D01*
X16162510Y5865780D01*
X16186130Y5839330D01*
X16217630Y5828750D01*
X16249120Y5839330D01*
X16272750Y5865780D01*
X16288500Y5897540D01*
X16300310Y5939870D01*
X16304240Y5987500D01*
X16300310Y6035120D01*
X16288500Y6077460D01*
X16272750Y6109210D01*
X16249120Y6135670D01*
X16217630Y6146250D01*
G01X16532590Y5818170D02*
X16524710Y5823460D01*
Y5834040D01*
X16532590Y5839330D01*
X16540470Y5834040D01*
Y5823460D01*
X16532590Y5818170D01*
G01X16894790Y5828750D02*
Y6146250D01*
X16749120Y5918710D01*
X16945980D01*
G01X17075900Y5876360D02*
X17099510Y5849910D01*
X17127070Y5834040D01*
X17162510Y5828750D01*
X17197950Y5839330D01*
X17225500Y5860490D01*
X17245190Y5897540D01*
X17249120Y5939870D01*
X17241250Y5982200D01*
X17221560Y6008670D01*
X17194000Y6029830D01*
X17166450Y6035120D01*
X17138890Y6029830D01*
X17103460Y6008670D01*
X17115270Y6146250D01*
X17221560D01*
G01X17469590Y5828750D02*
X17477470Y5897540D01*
X17489280Y5955740D01*
X17505030Y6008670D01*
X17524710Y6066870D01*
X17556210Y6146250D01*
X17398730D01*
G01X17717620Y6093330D02*
X17741250Y6125080D01*
X17768810Y6140960D01*
X17800310Y6146250D01*
X17839670Y6135670D01*
X17867240Y6109210D01*
X17875110Y6077460D01*
X17871170Y6045700D01*
X17855420Y6019250D01*
X17776680Y5966330D01*
X17741250Y5929290D01*
X17717620Y5876360D01*
X17709750Y5828750D01*
X17875110D01*
G01X16217630Y6781250D02*
X16186130Y6770670D01*
X16162510Y6744210D01*
X16146760Y6712460D01*
X16134950Y6670120D01*
X16131020Y6622500D01*
X16134950Y6574870D01*
X16146760Y6532540D01*
X16162510Y6500780D01*
X16186130Y6474330D01*
X16217630Y6463750D01*
X16249120Y6474330D01*
X16272750Y6500780D01*
X16288500Y6532540D01*
X16300310Y6574870D01*
X16304240Y6622500D01*
X16300310Y6670120D01*
X16288500Y6712460D01*
X16272750Y6744210D01*
X16249120Y6770670D01*
X16217630Y6781250D01*
G01X16532590Y6453170D02*
X16524710Y6458460D01*
Y6469040D01*
X16532590Y6474330D01*
X16540470Y6469040D01*
Y6458460D01*
X16532590Y6453170D01*
G01X16760940Y6527250D02*
X16784550Y6490200D01*
X16816050Y6469040D01*
X16851490Y6463750D01*
X16882990Y6469040D01*
X16914480Y6495490D01*
X16934160Y6527250D01*
X16938100Y6559000D01*
X16930230Y6596030D01*
X16902670Y6622500D01*
X16875110Y6633090D01*
X16839670D01*
G01X16875110D02*
X16898730Y6648960D01*
X16918420Y6675410D01*
X16926290Y6707160D01*
X16918420Y6738920D01*
X16898730Y6765370D01*
X16863300Y6781250D01*
X16827870Y6775960D01*
X16792430Y6754790D01*
G01X17162510Y6781250D02*
X17131010Y6770670D01*
X17107390Y6744210D01*
X17091640Y6712460D01*
X17079830Y6670120D01*
X17075900Y6622500D01*
X17079830Y6574870D01*
X17091640Y6532540D01*
X17107390Y6500780D01*
X17131010Y6474330D01*
X17162510Y6463750D01*
X17194000Y6474330D01*
X17217630Y6500780D01*
X17233380Y6532540D01*
X17245190Y6574870D01*
X17249120Y6622500D01*
X17245190Y6670120D01*
X17233380Y6712460D01*
X17217630Y6744210D01*
X17194000Y6770670D01*
X17162510Y6781250D01*
G01X17524710Y6463750D02*
Y6781250D01*
X17379040Y6553710D01*
X17575900D01*
G01X17792430Y6463750D02*
X17819990Y6469040D01*
X17851480Y6484910D01*
X17871170Y6511360D01*
X17879040Y6548420D01*
X17871170Y6585450D01*
X17847550Y6617200D01*
X17812110Y6633090D01*
X17772750D01*
X17749120Y6643670D01*
X17729430Y6670120D01*
X17721560Y6707160D01*
X17733380Y6744210D01*
X17760930Y6770670D01*
X17792430Y6781250D01*
X17823920Y6770670D01*
X17851480Y6744210D01*
X17863300Y6707160D01*
X17855420Y6670120D01*
X17835740Y6643670D01*
X17812110Y6633090D01*
X17772750D01*
X17737310Y6617200D01*
X17713690Y6585450D01*
X17705820Y6548420D01*
X17713690Y6511360D01*
X17733380Y6484910D01*
X17764870Y6469040D01*
X17792430Y6463750D01*
G01X16603460Y177250D02*
X16627070Y140200D01*
X16658570Y119040D01*
X16694010Y113750D01*
X16725510Y119040D01*
X16757000Y145490D01*
X16776680Y177250D01*
X16780620Y209000D01*
X16772750Y246030D01*
X16745190Y272500D01*
X16717630Y283090D01*
X16682190D01*
G01X16717630D02*
X16741250Y298960D01*
X16760940Y325410D01*
X16768810Y357160D01*
X16760940Y388920D01*
X16741250Y415370D01*
X16705820Y431250D01*
X16670390Y425960D01*
X16634950Y404790D01*
G01X17005030Y103170D02*
X16997150Y108460D01*
Y119040D01*
X17005030Y124330D01*
X17012910Y119040D01*
Y108460D01*
X17005030Y103170D01*
G01X17233380Y177250D02*
X17256990Y140200D01*
X17288490Y119040D01*
X17323930Y113750D01*
X17355430Y119040D01*
X17386920Y145490D01*
X17406600Y177250D01*
X17410540Y209000D01*
X17402670Y246030D01*
X17375110Y272500D01*
X17347550Y283090D01*
X17312110D01*
G01X17347550D02*
X17371170Y298960D01*
X17390860Y325410D01*
X17398730Y357160D01*
X17390860Y388920D01*
X17371170Y415370D01*
X17335740Y431250D01*
X17300310Y425960D01*
X17264870Y404790D01*
G01X16288500Y1447250D02*
X16312110Y1410200D01*
X16343610Y1389040D01*
X16379050Y1383750D01*
X16410550Y1389040D01*
X16442040Y1415490D01*
X16461720Y1447250D01*
X16465660Y1479000D01*
X16457790Y1516030D01*
X16430230Y1542500D01*
X16402670Y1553090D01*
X16367230D01*
G01X16402670D02*
X16426290Y1568960D01*
X16445980Y1595410D01*
X16453850Y1627160D01*
X16445980Y1658920D01*
X16426290Y1685370D01*
X16390860Y1701250D01*
X16355430Y1695960D01*
X16319990Y1674790D01*
G01X16690070Y1373170D02*
X16682190Y1378460D01*
Y1389040D01*
X16690070Y1394330D01*
X16697950Y1389040D01*
Y1378460D01*
X16690070Y1373170D01*
G01X16918420Y1447250D02*
X16942030Y1410200D01*
X16973530Y1389040D01*
X17008970Y1383750D01*
X17040470Y1389040D01*
X17071960Y1415490D01*
X17091640Y1447250D01*
X17095580Y1479000D01*
X17087710Y1516030D01*
X17060150Y1542500D01*
X17032590Y1553090D01*
X16997150D01*
G01X17032590D02*
X17056210Y1568960D01*
X17075900Y1595410D01*
X17083770Y1627160D01*
X17075900Y1658920D01*
X17056210Y1685370D01*
X17020780Y1701250D01*
X16985350Y1695960D01*
X16949910Y1674790D01*
G01X17319990Y1701250D02*
X17288490Y1690670D01*
X17264870Y1664210D01*
X17249120Y1632460D01*
X17237310Y1590120D01*
X17233380Y1542500D01*
X17237310Y1494870D01*
X17249120Y1452540D01*
X17264870Y1420780D01*
X17288490Y1394330D01*
X17319990Y1383750D01*
X17351480Y1394330D01*
X17375110Y1420780D01*
X17390860Y1452540D01*
X17402670Y1494870D01*
X17406600Y1542500D01*
X17402670Y1590120D01*
X17390860Y1632460D01*
X17375110Y1664210D01*
X17351480Y1690670D01*
X17319990Y1701250D01*
G01X17560140Y1648330D02*
X17583770Y1680080D01*
X17611330Y1695960D01*
X17642830Y1701250D01*
X17682190Y1690670D01*
X17709760Y1664210D01*
X17717630Y1632460D01*
X17713690Y1600700D01*
X17697940Y1574250D01*
X17619200Y1521330D01*
X17583770Y1484290D01*
X17560140Y1431360D01*
X17552270Y1383750D01*
X17717630D01*
G01X16300300Y2283330D02*
X16323930Y2315080D01*
X16351490Y2330960D01*
X16382990Y2336250D01*
X16422350Y2325670D01*
X16449920Y2299210D01*
X16457790Y2267460D01*
X16453850Y2235700D01*
X16438100Y2209250D01*
X16359360Y2156330D01*
X16323930Y2119290D01*
X16300300Y2066360D01*
X16292430Y2018750D01*
X16457790D01*
G01X16690070Y2008170D02*
X16682190Y2013460D01*
Y2024040D01*
X16690070Y2029330D01*
X16697950Y2024040D01*
Y2013460D01*
X16690070Y2008170D01*
G01X17005030Y2336250D02*
X16973530Y2325670D01*
X16949910Y2299210D01*
X16934160Y2267460D01*
X16922350Y2225120D01*
X16918420Y2177500D01*
X16922350Y2129870D01*
X16934160Y2087540D01*
X16949910Y2055780D01*
X16973530Y2029330D01*
X17005030Y2018750D01*
X17036520Y2029330D01*
X17060150Y2055780D01*
X17075900Y2087540D01*
X17087710Y2129870D01*
X17091640Y2177500D01*
X17087710Y2225120D01*
X17075900Y2267460D01*
X17060150Y2299210D01*
X17036520Y2325670D01*
X17005030Y2336250D01*
G01X17233380Y2082250D02*
X17256990Y2045200D01*
X17288490Y2024040D01*
X17323930Y2018750D01*
X17355430Y2024040D01*
X17386920Y2050490D01*
X17406600Y2082250D01*
X17410540Y2114000D01*
X17402670Y2151030D01*
X17375110Y2177500D01*
X17347550Y2188090D01*
X17312110D01*
G01X17347550D02*
X17371170Y2203960D01*
X17390860Y2230410D01*
X17398730Y2262160D01*
X17390860Y2293920D01*
X17371170Y2320370D01*
X17335740Y2336250D01*
X17300310Y2330960D01*
X17264870Y2309790D01*
G01X17560140Y2283330D02*
X17583770Y2315080D01*
X17611330Y2330960D01*
X17642830Y2336250D01*
X17682190Y2325670D01*
X17709760Y2299210D01*
X17717630Y2267460D01*
X17713690Y2235700D01*
X17697940Y2209250D01*
X17619200Y2156330D01*
X17583770Y2119290D01*
X17560140Y2066360D01*
X17552270Y2018750D01*
X17717630D01*
G01X16690070Y2653750D02*
Y2971250D01*
X16642830Y2907750D01*
G01Y2653750D02*
X16737310D01*
G01X17005030Y2643170D02*
X16997150Y2648460D01*
Y2659040D01*
X17005030Y2664330D01*
X17012910Y2659040D01*
Y2648460D01*
X17005030Y2643170D01*
G01X17312110Y2653750D02*
X17319990Y2722540D01*
X17331800Y2780740D01*
X17347550Y2833670D01*
X17367230Y2891870D01*
X17398730Y2971250D01*
X17241250D01*
G01X16375110Y4876250D02*
X16343610Y4865670D01*
X16319990Y4839210D01*
X16304240Y4807460D01*
X16292430Y4765120D01*
X16288500Y4717500D01*
X16292430Y4669870D01*
X16304240Y4627540D01*
X16319990Y4595780D01*
X16343610Y4569330D01*
X16375110Y4558750D01*
X16406600Y4569330D01*
X16430230Y4595780D01*
X16445980Y4627540D01*
X16457790Y4669870D01*
X16461720Y4717500D01*
X16457790Y4765120D01*
X16445980Y4807460D01*
X16430230Y4839210D01*
X16406600Y4865670D01*
X16375110Y4876250D01*
G01X16690070Y4548170D02*
X16682190Y4553460D01*
Y4564040D01*
X16690070Y4569330D01*
X16697950Y4564040D01*
Y4553460D01*
X16690070Y4548170D01*
G01X17005030Y4558750D02*
X17032590Y4564040D01*
X17064080Y4579910D01*
X17083770Y4606360D01*
X17091640Y4643420D01*
X17083770Y4680450D01*
X17060150Y4712200D01*
X17024710Y4728090D01*
X16985350D01*
X16961720Y4738670D01*
X16942030Y4765120D01*
X16934160Y4802160D01*
X16945980Y4839210D01*
X16973530Y4865670D01*
X17005030Y4876250D01*
X17036520Y4865670D01*
X17064080Y4839210D01*
X17075900Y4802160D01*
X17068020Y4765120D01*
X17048340Y4738670D01*
X17024710Y4728090D01*
X16985350D01*
X16949910Y4712200D01*
X16926290Y4680450D01*
X16918420Y4643420D01*
X16926290Y4606360D01*
X16945980Y4579910D01*
X16977470Y4564040D01*
X17005030Y4558750D01*
G01X17319990D02*
X17347550Y4564040D01*
X17379040Y4579910D01*
X17398730Y4606360D01*
X17406600Y4643420D01*
X17398730Y4680450D01*
X17375110Y4712200D01*
X17339670Y4728090D01*
X17300310D01*
X17276680Y4738670D01*
X17256990Y4765120D01*
X17249120Y4802160D01*
X17260940Y4839210D01*
X17288490Y4865670D01*
X17319990Y4876250D01*
X17351480Y4865670D01*
X17379040Y4839210D01*
X17390860Y4802160D01*
X17382980Y4765120D01*
X17363300Y4738670D01*
X17339670Y4728090D01*
X17300310D01*
X17264870Y4712200D01*
X17241250Y4680450D01*
X17233380Y4643420D01*
X17241250Y4606360D01*
X17260940Y4579910D01*
X17292430Y4564040D01*
X17319990Y4558750D01*
G01X17568020Y4595780D02*
X17595580Y4569330D01*
X17627070Y4558750D01*
X17658570Y4569330D01*
X17686130Y4601070D01*
X17705820Y4648710D01*
X17713690Y4696330D01*
Y4754540D01*
X17705820Y4802160D01*
X17686130Y4844500D01*
X17662510Y4865670D01*
X17634950Y4876250D01*
X17603450Y4865670D01*
X17579830Y4844500D01*
X17564080Y4812750D01*
X17556210Y4770410D01*
X17564080Y4733380D01*
X17583770Y4696330D01*
X17607390Y4675160D01*
X17634950Y4669870D01*
X17666440Y4680450D01*
X17690070Y4706910D01*
X17713690Y4754540D01*
G01X16690070Y5511250D02*
X16658570Y5500670D01*
X16634950Y5474210D01*
X16619200Y5442460D01*
X16607390Y5400120D01*
X16603460Y5352500D01*
X16607390Y5304870D01*
X16619200Y5262540D01*
X16634950Y5230780D01*
X16658570Y5204330D01*
X16690070Y5193750D01*
X16721560Y5204330D01*
X16745190Y5230780D01*
X16760940Y5262540D01*
X16772750Y5304870D01*
X16776680Y5352500D01*
X16772750Y5400120D01*
X16760940Y5442460D01*
X16745190Y5474210D01*
X16721560Y5500670D01*
X16690070Y5511250D01*
G01X17005030Y5183170D02*
X16997150Y5188460D01*
Y5199040D01*
X17005030Y5204330D01*
X17012910Y5199040D01*
Y5188460D01*
X17005030Y5183170D01*
G01X17319990Y5193750D02*
X17347550Y5199040D01*
X17379040Y5214910D01*
X17398730Y5241360D01*
X17406600Y5278420D01*
X17398730Y5315450D01*
X17375110Y5347200D01*
X17339670Y5363090D01*
X17300310D01*
X17276680Y5373670D01*
X17256990Y5400120D01*
X17249120Y5437160D01*
X17260940Y5474210D01*
X17288490Y5500670D01*
X17319990Y5511250D01*
X17351480Y5500670D01*
X17379040Y5474210D01*
X17390860Y5437160D01*
X17382980Y5400120D01*
X17363300Y5373670D01*
X17339670Y5363090D01*
X17300310D01*
X17264870Y5347200D01*
X17241250Y5315450D01*
X17233380Y5278420D01*
X17241250Y5241360D01*
X17260940Y5214910D01*
X17292430Y5199040D01*
X17319990Y5193750D01*
G01X16449910Y7141070D02*
X16481410Y7114620D01*
X16516840Y7098750D01*
X16548340D01*
X16579830Y7114620D01*
X16603460Y7141070D01*
X16615270Y7178130D01*
X16607400Y7215160D01*
X16587710Y7246910D01*
X16552270Y7268090D01*
X16505030Y7278670D01*
X16477470Y7299830D01*
X16465660Y7336870D01*
X16473540Y7373920D01*
X16493220Y7400370D01*
X16520780Y7416250D01*
X16548340D01*
X16575900Y7405670D01*
X16599520Y7379210D01*
G01X16800310Y7416250D02*
X16894790D01*
G01X16847550D02*
Y7098750D01*
G01X16800310D02*
X16894790D01*
G01X17087700Y7416250D02*
X17237320D01*
X17087700Y7098750D01*
X17237320D01*
G01X17556210D02*
X17398730D01*
Y7416250D01*
X17556210D01*
G01X17493220Y7262800D02*
X17398730D01*
G01X19406600Y7575000D02*
Y-1315000D01*
G01X19512900Y113750D02*
Y431250D01*
X19694000Y113750D01*
Y431250D01*
G01X19918410Y113750D02*
X19886910Y119040D01*
X19859360Y140200D01*
X19835730Y171960D01*
X19819980Y209000D01*
X19812110Y251330D01*
Y293670D01*
X19819980Y336000D01*
X19835730Y373040D01*
X19859360Y404790D01*
X19886910Y425960D01*
X19918410Y431250D01*
X19949900Y425960D01*
X19977460Y404790D01*
X20001090Y373040D01*
X20016840Y336000D01*
X20024710Y293670D01*
Y251330D01*
X20016840Y209000D01*
X20001090Y171960D01*
X19977460Y140200D01*
X19949900Y119040D01*
X19918410Y113750D01*
G01X20142820D02*
Y431250D01*
X20323920Y113750D01*
Y431250D01*
G01X20497150Y219580D02*
X20599510D01*
G01X20784550Y113750D02*
Y431250D01*
X20879040D01*
X20910530Y415370D01*
X20934160Y378330D01*
X20942030Y336000D01*
X20934160Y293670D01*
X20914470Y261910D01*
X20879040Y246030D01*
X20784550D01*
G01X21099510Y431250D02*
Y113750D01*
X21256990D01*
G01X21394780D02*
X21493210Y431250D01*
X21591640Y113750D01*
G01X21556200Y224870D02*
X21430210D01*
G01X21808170Y431250D02*
Y113750D01*
G01X21717620Y431250D02*
X21898720D01*
G01X22201870Y113750D02*
X22044390D01*
Y431250D01*
X22201870D01*
G01X22138880Y277800D02*
X22044390D01*
G01X22351480Y113750D02*
Y431250D01*
X22430210D01*
X22461710Y415370D01*
X22485330Y394210D01*
X22505020Y362460D01*
X22520770Y325410D01*
X22524700Y272500D01*
X22520770Y219580D01*
X22505020Y182540D01*
X22485330Y150780D01*
X22461710Y129620D01*
X22430210Y113750D01*
X22351480D01*
G01X20154630Y-1156250D02*
Y-838750D01*
X20249120D01*
X20280610Y-854630D01*
X20304240Y-891670D01*
X20312110Y-934000D01*
X20304240Y-976330D01*
X20284550Y-1008090D01*
X20249120Y-1023970D01*
X20154630D01*
G01X20469590Y-838750D02*
Y-1156250D01*
X20627070D01*
G01X20764860D02*
X20863290Y-838750D01*
X20961720Y-1156250D01*
G01X20926280Y-1045130D02*
X20800290D01*
G01X21178250Y-838750D02*
Y-1156250D01*
G01X21087700Y-838750D02*
X21268800D01*
G01X21571950Y-1156250D02*
X21414470D01*
Y-838750D01*
X21571950D01*
G01X21508960Y-992200D02*
X21414470D01*
G01X21721560Y-1156250D02*
Y-838750D01*
X21800290D01*
X21831790Y-854630D01*
X21855410Y-875790D01*
X21875100Y-907540D01*
X21890850Y-944590D01*
X21894780Y-997500D01*
X21890850Y-1050420D01*
X21875100Y-1087460D01*
X21855410Y-1119220D01*
X21831790Y-1140380D01*
X21800290Y-1156250D01*
X21721560D01*
G01X20154630Y-521250D02*
Y-203750D01*
X20249120D01*
X20280610Y-219630D01*
X20304240Y-256670D01*
X20312110Y-299000D01*
X20304240Y-341330D01*
X20284550Y-373090D01*
X20249120Y-388970D01*
X20154630D01*
G01X20469590Y-203750D02*
Y-521250D01*
X20627070D01*
G01X20764860D02*
X20863290Y-203750D01*
X20961720Y-521250D01*
G01X20926280Y-410130D02*
X20800290D01*
G01X21178250Y-203750D02*
Y-521250D01*
G01X21087700Y-203750D02*
X21268800D01*
G01X21571950Y-521250D02*
X21414470D01*
Y-203750D01*
X21571950D01*
G01X21508960Y-357200D02*
X21414470D01*
G01X21721560Y-521250D02*
Y-203750D01*
X21800290D01*
X21831790Y-219630D01*
X21855410Y-240790D01*
X21875100Y-272540D01*
X21890850Y-309590D01*
X21894780Y-362500D01*
X21890850Y-415420D01*
X21875100Y-452460D01*
X21855410Y-484220D01*
X21831790Y-505380D01*
X21800290Y-521250D01*
X21721560D01*
G01X20154630Y748750D02*
Y1066250D01*
X20249120D01*
X20280610Y1050370D01*
X20304240Y1013330D01*
X20312110Y971000D01*
X20304240Y928670D01*
X20284550Y896910D01*
X20249120Y881030D01*
X20154630D01*
G01X20469590Y1066250D02*
Y748750D01*
X20627070D01*
G01X20764860D02*
X20863290Y1066250D01*
X20961720Y748750D01*
G01X20926280Y859870D02*
X20800290D01*
G01X21178250Y1066250D02*
Y748750D01*
G01X21087700Y1066250D02*
X21268800D01*
G01X21571950Y748750D02*
X21414470D01*
Y1066250D01*
X21571950D01*
G01X21508960Y912800D02*
X21414470D01*
G01X21721560Y748750D02*
Y1066250D01*
X21800290D01*
X21831790Y1050370D01*
X21855410Y1029210D01*
X21875100Y997460D01*
X21890850Y960410D01*
X21894780Y907500D01*
X21890850Y854580D01*
X21875100Y817540D01*
X21855410Y785780D01*
X21831790Y764620D01*
X21800290Y748750D01*
X21721560D01*
G01X20154630Y1383750D02*
Y1701250D01*
X20249120D01*
X20280610Y1685370D01*
X20304240Y1648330D01*
X20312110Y1606000D01*
X20304240Y1563670D01*
X20284550Y1531910D01*
X20249120Y1516030D01*
X20154630D01*
G01X20469590Y1701250D02*
Y1383750D01*
X20627070D01*
G01X20764860D02*
X20863290Y1701250D01*
X20961720Y1383750D01*
G01X20926280Y1494870D02*
X20800290D01*
G01X21178250Y1701250D02*
Y1383750D01*
G01X21087700Y1701250D02*
X21268800D01*
G01X21571950Y1383750D02*
X21414470D01*
Y1701250D01*
X21571950D01*
G01X21508960Y1547800D02*
X21414470D01*
G01X21721560Y1383750D02*
Y1701250D01*
X21800290D01*
X21831790Y1685370D01*
X21855410Y1664210D01*
X21875100Y1632460D01*
X21890850Y1595410D01*
X21894780Y1542500D01*
X21890850Y1489580D01*
X21875100Y1452540D01*
X21855410Y1420780D01*
X21831790Y1399620D01*
X21800290Y1383750D01*
X21721560D01*
G01X20154630Y2018750D02*
Y2336250D01*
X20249120D01*
X20280610Y2320370D01*
X20304240Y2283330D01*
X20312110Y2241000D01*
X20304240Y2198670D01*
X20284550Y2166910D01*
X20249120Y2151030D01*
X20154630D01*
G01X20469590Y2336250D02*
Y2018750D01*
X20627070D01*
G01X20764860D02*
X20863290Y2336250D01*
X20961720Y2018750D01*
G01X20926280Y2129870D02*
X20800290D01*
G01X21178250Y2336250D02*
Y2018750D01*
G01X21087700Y2336250D02*
X21268800D01*
G01X21571950Y2018750D02*
X21414470D01*
Y2336250D01*
X21571950D01*
G01X21508960Y2182800D02*
X21414470D01*
G01X21721560Y2018750D02*
Y2336250D01*
X21800290D01*
X21831790Y2320370D01*
X21855410Y2299210D01*
X21875100Y2267460D01*
X21890850Y2230410D01*
X21894780Y2177500D01*
X21890850Y2124580D01*
X21875100Y2087540D01*
X21855410Y2055780D01*
X21831790Y2034620D01*
X21800290Y2018750D01*
X21721560D01*
G01X20154630Y2653750D02*
Y2971250D01*
X20249120D01*
X20280610Y2955370D01*
X20304240Y2918330D01*
X20312110Y2876000D01*
X20304240Y2833670D01*
X20284550Y2801910D01*
X20249120Y2786030D01*
X20154630D01*
G01X20469590Y2971250D02*
Y2653750D01*
X20627070D01*
G01X20764860D02*
X20863290Y2971250D01*
X20961720Y2653750D01*
G01X20926280Y2764870D02*
X20800290D01*
G01X21178250Y2971250D02*
Y2653750D01*
G01X21087700Y2971250D02*
X21268800D01*
G01X21571950Y2653750D02*
X21414470D01*
Y2971250D01*
X21571950D01*
G01X21508960Y2817800D02*
X21414470D01*
G01X21721560Y2653750D02*
Y2971250D01*
X21800290D01*
X21831790Y2955370D01*
X21855410Y2934210D01*
X21875100Y2902460D01*
X21890850Y2865410D01*
X21894780Y2812500D01*
X21890850Y2759580D01*
X21875100Y2722540D01*
X21855410Y2690780D01*
X21831790Y2669620D01*
X21800290Y2653750D01*
X21721560D01*
G01X20154630Y3288750D02*
Y3606250D01*
X20249120D01*
X20280610Y3590370D01*
X20304240Y3553330D01*
X20312110Y3511000D01*
X20304240Y3468670D01*
X20284550Y3436910D01*
X20249120Y3421030D01*
X20154630D01*
G01X20469590Y3606250D02*
Y3288750D01*
X20627070D01*
G01X20764860D02*
X20863290Y3606250D01*
X20961720Y3288750D01*
G01X20926280Y3399870D02*
X20800290D01*
G01X21178250Y3606250D02*
Y3288750D01*
G01X21087700Y3606250D02*
X21268800D01*
G01X21571950Y3288750D02*
X21414470D01*
Y3606250D01*
X21571950D01*
G01X21508960Y3452800D02*
X21414470D01*
G01X21721560Y3288750D02*
Y3606250D01*
X21800290D01*
X21831790Y3590370D01*
X21855410Y3569210D01*
X21875100Y3537460D01*
X21890850Y3500410D01*
X21894780Y3447500D01*
X21890850Y3394580D01*
X21875100Y3357540D01*
X21855410Y3325780D01*
X21831790Y3304620D01*
X21800290Y3288750D01*
X21721560D01*
G01X20154630Y3923750D02*
Y4241250D01*
X20249120D01*
X20280610Y4225370D01*
X20304240Y4188330D01*
X20312110Y4146000D01*
X20304240Y4103670D01*
X20284550Y4071910D01*
X20249120Y4056030D01*
X20154630D01*
G01X20469590Y4241250D02*
Y3923750D01*
X20627070D01*
G01X20764860D02*
X20863290Y4241250D01*
X20961720Y3923750D01*
G01X20926280Y4034870D02*
X20800290D01*
G01X21178250Y4241250D02*
Y3923750D01*
G01X21087700Y4241250D02*
X21268800D01*
G01X21571950Y3923750D02*
X21414470D01*
Y4241250D01*
X21571950D01*
G01X21508960Y4087800D02*
X21414470D01*
G01X21721560Y3923750D02*
Y4241250D01*
X21800290D01*
X21831790Y4225370D01*
X21855410Y4204210D01*
X21875100Y4172460D01*
X21890850Y4135410D01*
X21894780Y4082500D01*
X21890850Y4029580D01*
X21875100Y3992540D01*
X21855410Y3960780D01*
X21831790Y3939620D01*
X21800290Y3923750D01*
X21721560D01*
G01X20154630Y4558750D02*
Y4876250D01*
X20249120D01*
X20280610Y4860370D01*
X20304240Y4823330D01*
X20312110Y4781000D01*
X20304240Y4738670D01*
X20284550Y4706910D01*
X20249120Y4691030D01*
X20154630D01*
G01X20469590Y4876250D02*
Y4558750D01*
X20627070D01*
G01X20764860D02*
X20863290Y4876250D01*
X20961720Y4558750D01*
G01X20926280Y4669870D02*
X20800290D01*
G01X21178250Y4876250D02*
Y4558750D01*
G01X21087700Y4876250D02*
X21268800D01*
G01X21571950Y4558750D02*
X21414470D01*
Y4876250D01*
X21571950D01*
G01X21508960Y4722800D02*
X21414470D01*
G01X21721560Y4558750D02*
Y4876250D01*
X21800290D01*
X21831790Y4860370D01*
X21855410Y4839210D01*
X21875100Y4807460D01*
X21890850Y4770410D01*
X21894780Y4717500D01*
X21890850Y4664580D01*
X21875100Y4627540D01*
X21855410Y4595780D01*
X21831790Y4574620D01*
X21800290Y4558750D01*
X21721560D01*
G01X20154630Y5193750D02*
Y5511250D01*
X20249120D01*
X20280610Y5495370D01*
X20304240Y5458330D01*
X20312110Y5416000D01*
X20304240Y5373670D01*
X20284550Y5341910D01*
X20249120Y5326030D01*
X20154630D01*
G01X20469590Y5511250D02*
Y5193750D01*
X20627070D01*
G01X20764860D02*
X20863290Y5511250D01*
X20961720Y5193750D01*
G01X20926280Y5304870D02*
X20800290D01*
G01X21178250Y5511250D02*
Y5193750D01*
G01X21087700Y5511250D02*
X21268800D01*
G01X21571950Y5193750D02*
X21414470D01*
Y5511250D01*
X21571950D01*
G01X21508960Y5357800D02*
X21414470D01*
G01X21721560Y5193750D02*
Y5511250D01*
X21800290D01*
X21831790Y5495370D01*
X21855410Y5474210D01*
X21875100Y5442460D01*
X21890850Y5405410D01*
X21894780Y5352500D01*
X21890850Y5299580D01*
X21875100Y5262540D01*
X21855410Y5230780D01*
X21831790Y5209620D01*
X21800290Y5193750D01*
X21721560D01*
G01X20154630Y5828750D02*
Y6146250D01*
X20249120D01*
X20280610Y6130370D01*
X20304240Y6093330D01*
X20312110Y6051000D01*
X20304240Y6008670D01*
X20284550Y5976910D01*
X20249120Y5961030D01*
X20154630D01*
G01X20469590Y6146250D02*
Y5828750D01*
X20627070D01*
G01X20764860D02*
X20863290Y6146250D01*
X20961720Y5828750D01*
G01X20926280Y5939870D02*
X20800290D01*
G01X21178250Y6146250D02*
Y5828750D01*
G01X21087700Y6146250D02*
X21268800D01*
G01X21571950Y5828750D02*
X21414470D01*
Y6146250D01*
X21571950D01*
G01X21508960Y5992800D02*
X21414470D01*
G01X21721560Y5828750D02*
Y6146250D01*
X21800290D01*
X21831790Y6130370D01*
X21855410Y6109210D01*
X21875100Y6077460D01*
X21890850Y6040410D01*
X21894780Y5987500D01*
X21890850Y5934580D01*
X21875100Y5897540D01*
X21855410Y5865780D01*
X21831790Y5844620D01*
X21800290Y5828750D01*
X21721560D01*
G01X20154630Y6463750D02*
Y6781250D01*
X20249120D01*
X20280610Y6765370D01*
X20304240Y6728330D01*
X20312110Y6686000D01*
X20304240Y6643670D01*
X20284550Y6611910D01*
X20249120Y6596030D01*
X20154630D01*
G01X20469590Y6781250D02*
Y6463750D01*
X20627070D01*
G01X20764860D02*
X20863290Y6781250D01*
X20961720Y6463750D01*
G01X20926280Y6574870D02*
X20800290D01*
G01X21178250Y6781250D02*
Y6463750D01*
G01X21087700Y6781250D02*
X21268800D01*
G01X21571950Y6463750D02*
X21414470D01*
Y6781250D01*
X21571950D01*
G01X21508960Y6627800D02*
X21414470D01*
G01X21721560Y6463750D02*
Y6781250D01*
X21800290D01*
X21831790Y6765370D01*
X21855410Y6744210D01*
X21875100Y6712460D01*
X21890850Y6675410D01*
X21894780Y6622500D01*
X21890850Y6569580D01*
X21875100Y6532540D01*
X21855410Y6500780D01*
X21831790Y6479620D01*
X21800290Y6463750D01*
X21721560D01*
G01X20154630Y7098750D02*
Y7416250D01*
X20249120D01*
X20280610Y7400370D01*
X20304240Y7363330D01*
X20312110Y7321000D01*
X20304240Y7278670D01*
X20284550Y7246910D01*
X20249120Y7231030D01*
X20154630D01*
G01X20469590Y7416250D02*
Y7098750D01*
X20627070D01*
G01X20764860D02*
X20863290Y7416250D01*
X20961720Y7098750D01*
G01X20926280Y7209870D02*
X20800290D01*
G01X21178250Y7416250D02*
Y7098750D01*
G01X21087700Y7416250D02*
X21268800D01*
G01X21571950Y7098750D02*
X21414470D01*
Y7416250D01*
X21571950D01*
G01X21508960Y7262800D02*
X21414470D01*
G01X21721560Y7098750D02*
Y7416250D01*
X21800290D01*
X21831790Y7400370D01*
X21855410Y7379210D01*
X21875100Y7347460D01*
X21890850Y7310410D01*
X21894780Y7257500D01*
X21890850Y7204580D01*
X21875100Y7167540D01*
X21855410Y7135780D01*
X21831790Y7114620D01*
X21800290Y7098750D01*
X21721560D01*
G01X22634940Y7575000D02*
Y-1315000D01*
G01X23229420Y6596030D02*
X23256990Y6633090D01*
X23280610Y6654250D01*
X23312110Y6664830D01*
X23339670Y6654250D01*
X23359350Y6633090D01*
X23375100Y6601330D01*
X23379040Y6564290D01*
X23375100Y6532540D01*
X23359350Y6500780D01*
X23335720Y6474330D01*
X23308170Y6463750D01*
X23276670Y6474330D01*
X23249110Y6506070D01*
X23233360Y6553710D01*
X23229420Y6606620D01*
X23237300Y6675410D01*
X23249110Y6712460D01*
X23268790Y6749500D01*
X23296350Y6775960D01*
X23323910Y6781250D01*
X23351470Y6770670D01*
X23371160Y6744210D01*
G01X23619190Y6463750D02*
Y6781250D01*
X23571950Y6717750D01*
G01Y6463750D02*
X23666430D01*
G01X23934150D02*
Y6781250D01*
X23886910Y6717750D01*
G01Y6463750D02*
X23981390D01*
G01X23304230Y7098750D02*
X23272730Y7104040D01*
X23245180Y7125200D01*
X23221550Y7156960D01*
X23205800Y7194000D01*
X23197930Y7236330D01*
Y7278670D01*
X23205800Y7321000D01*
X23221550Y7358040D01*
X23245180Y7389790D01*
X23272730Y7410960D01*
X23304230Y7416250D01*
X23335720Y7410960D01*
X23363280Y7389790D01*
X23386910Y7358040D01*
X23402660Y7321000D01*
X23410530Y7278670D01*
Y7236330D01*
X23402660Y7194000D01*
X23386910Y7156960D01*
X23363280Y7125200D01*
X23335720Y7104040D01*
X23304230Y7098750D01*
G01X23335720Y7183420D02*
X23382970Y7098750D01*
G01X23619190Y7416250D02*
Y7098750D01*
G01X23528640Y7416250D02*
X23709740D01*
G01X23934150Y7098750D02*
Y7241620D01*
X23855410Y7416250D01*
G01X24012890D02*
X23934150Y7241620D01*
G01X23544380Y-891670D02*
X23568010Y-859920D01*
X23595570Y-844040D01*
X23627070Y-838750D01*
X23666430Y-849330D01*
X23694000Y-875790D01*
X23701870Y-907540D01*
X23697930Y-939300D01*
X23682180Y-965750D01*
X23603440Y-1018670D01*
X23568010Y-1055710D01*
X23544380Y-1108640D01*
X23536510Y-1156250D01*
X23701870D01*
G01X23619190Y-521250D02*
Y-203750D01*
X23571950Y-267250D01*
G01Y-521250D02*
X23666430D01*
G01Y113750D02*
Y431250D01*
X23520760Y203710D01*
X23717620D01*
G01X23666430Y748750D02*
Y1066250D01*
X23520760Y838710D01*
X23717620D01*
G01X23544380Y1648330D02*
X23568010Y1680080D01*
X23595570Y1695960D01*
X23627070Y1701250D01*
X23666430Y1690670D01*
X23694000Y1664210D01*
X23701870Y1632460D01*
X23697930Y1600700D01*
X23682180Y1574250D01*
X23603440Y1521330D01*
X23568010Y1484290D01*
X23544380Y1431360D01*
X23536510Y1383750D01*
X23701870D01*
G01X23666430Y2018750D02*
Y2336250D01*
X23520760Y2108710D01*
X23717620D01*
G01X23666430Y2653750D02*
Y2971250D01*
X23520760Y2743710D01*
X23717620D01*
G01X23386900Y3553330D02*
X23410530Y3585080D01*
X23438090Y3600960D01*
X23469590Y3606250D01*
X23508950Y3595670D01*
X23536520Y3569210D01*
X23544390Y3537460D01*
X23540450Y3505700D01*
X23524700Y3479250D01*
X23445960Y3426330D01*
X23410530Y3389290D01*
X23386900Y3336360D01*
X23379030Y3288750D01*
X23544390D01*
G01X23823910D02*
Y3606250D01*
X23678240Y3378710D01*
X23875100D01*
G01X23552260Y3960780D02*
X23579820Y3934330D01*
X23611310Y3923750D01*
X23642810Y3934330D01*
X23670370Y3966070D01*
X23690060Y4013710D01*
X23697930Y4061330D01*
Y4119540D01*
X23690060Y4167160D01*
X23670370Y4209500D01*
X23646750Y4230670D01*
X23619190Y4241250D01*
X23587690Y4230670D01*
X23564070Y4209500D01*
X23548320Y4177750D01*
X23540450Y4135410D01*
X23548320Y4098380D01*
X23568010Y4061330D01*
X23591630Y4040160D01*
X23619190Y4034870D01*
X23650680Y4045450D01*
X23674310Y4071910D01*
X23697930Y4119540D01*
G01X23386900Y4823330D02*
X23410530Y4855080D01*
X23438090Y4870960D01*
X23469590Y4876250D01*
X23508950Y4865670D01*
X23536520Y4839210D01*
X23544390Y4807460D01*
X23540450Y4775700D01*
X23524700Y4749250D01*
X23445960Y4696330D01*
X23410530Y4659290D01*
X23386900Y4606360D01*
X23379030Y4558750D01*
X23544390D01*
G01X23701860Y4691030D02*
X23729430Y4728090D01*
X23753050Y4749250D01*
X23784550Y4759830D01*
X23812110Y4749250D01*
X23831790Y4728090D01*
X23847540Y4696330D01*
X23851480Y4659290D01*
X23847540Y4627540D01*
X23831790Y4595780D01*
X23808160Y4569330D01*
X23780610Y4558750D01*
X23749110Y4569330D01*
X23721550Y4601070D01*
X23705800Y4648710D01*
X23701860Y4701620D01*
X23709740Y4770410D01*
X23721550Y4807460D01*
X23741230Y4844500D01*
X23768790Y4870960D01*
X23796350Y4876250D01*
X23823910Y4865670D01*
X23843600Y4839210D01*
G01X23544380Y5458330D02*
X23568010Y5490080D01*
X23595570Y5505960D01*
X23627070Y5511250D01*
X23666430Y5500670D01*
X23694000Y5474210D01*
X23701870Y5442460D01*
X23697930Y5410700D01*
X23682180Y5384250D01*
X23603440Y5331330D01*
X23568010Y5294290D01*
X23544380Y5241360D01*
X23536510Y5193750D01*
X23701870D01*
G01X23532580Y5876360D02*
X23556190Y5849910D01*
X23583750Y5834040D01*
X23619190Y5828750D01*
X23654630Y5839330D01*
X23682180Y5860490D01*
X23701870Y5897540D01*
X23705800Y5939870D01*
X23697930Y5982200D01*
X23678240Y6008670D01*
X23650680Y6029830D01*
X23623130Y6035120D01*
X23595570Y6029830D01*
X23560140Y6008670D01*
X23571950Y6146250D01*
X23678240D01*
G54D17*
X7513000Y6650000D03*
X7767000D03*
X8460000Y1289000D03*
Y1543000D03*
Y2051000D03*
Y1797000D03*
Y2419000D03*
Y2673000D03*
Y3181000D03*
Y2927000D03*
X8990000Y1289000D03*
Y1543000D03*
Y2051000D03*
Y1797000D03*
Y2419000D03*
Y2673000D03*
Y3181000D03*
Y2927000D03*
X9230000Y5003000D03*
Y5257000D03*
X9346000Y6955000D03*
X9600000D03*
X9346000Y7485000D03*
X9600000D03*
X9854000Y6955000D03*
Y7485000D03*
X13461730Y4717500D03*
G54D18*
X8580000Y4810000D03*
Y4660000D03*
X8730000Y4810000D03*
Y4660000D03*
X8660000Y4730000D03*
X13461730Y5987500D03*
G54D19*
X10080000Y6540000D03*
X10680000D03*
X13461730Y-997500D03*
M02*
