G04 ================== begin FILE IDENTIFICATION RECORD ==================*
G04 Layout Name:  H:/GitHub/MBEDBoard/JY02A_TEST_V10A/PCB/JY02A_TEST_V10A.brd*
G04 Film Name:    SolderMask_Top*
G04 File Format:  Gerber RS274X*
G04 File Origin:  Cadence Allegro 16.6-2015-S088*
G04 Origin Date:  Tue Aug 29 09:59:13 2017*
G04 *
G04 Layer:  BOARD GEOMETRY/OUTLINE*
G04 Layer:  PIN/SOLDERMASK_TOP*
G04 Layer:  PACKAGE GEOMETRY/SOLDERMASK_TOP*
G04 Layer:  BOARD GEOMETRY/SOLDERMASK_TOP*
G04 *
G04 Offset:    (0.0000 0.0000)*
G04 Mirror:    No*
G04 Mode:      Positive*
G04 Rotation:  0*
G04 FullContactRelief:  No*
G04 UndefLineWidth:     0.1524*
G04 ================== end FILE IDENTIFICATION RECORD ====================*
%FSLAX55Y55*MOMM*%
%IR0*IPPOS*OFA0.00000B0.00000*MIA0B0*SFA1.00000B1.00000*%
%ADD20R,1.6X.7*%
%ADD21R,.9X1.5*%
%ADD15R,1.62X.35*%
%ADD17R,1.16X.75*%
%ADD16C,.85*%
%ADD13R,.9144X.9144*%
%ADD22R,1.9X3.3*%
%ADD18R,1.9X2.6*%
%ADD14R,1.7X1.9*%
%ADD26C,1.6*%
%ADD23C,1.9*%
%ADD19R,1.77X1.46*%
%ADD25R,1.6X1.6*%
%ADD10C,6.35*%
%ADD27R,1.2192X1.4224*%
%ADD11C,1.905*%
%ADD24C,2.667*%
%ADD12R,1.905X1.905*%
%ADD28C,.2032*%
%ADD29C,.1524*%
G75*
%LPD*%
G75*
G54D10*
X330000Y330000D03*
Y5470000D03*
X6170000Y330000D03*
Y5470000D03*
G54D11*
X310000Y1379000D03*
Y1633000D03*
Y1887000D03*
X2225000Y5360000D03*
X4255000D03*
G54D20*
X2370000Y789000D03*
Y916000D03*
Y1043000D03*
Y1170000D03*
X2380000Y1629000D03*
Y1756000D03*
Y1883000D03*
Y2010000D03*
Y2519000D03*
Y2646000D03*
Y2773000D03*
Y2900000D03*
X2910000Y1170000D03*
Y1043000D03*
Y916000D03*
Y789000D03*
X2920000Y1629000D03*
Y2010000D03*
Y1883000D03*
Y1756000D03*
Y2773000D03*
Y2646000D03*
Y2519000D03*
Y2900000D03*
X3580000Y780000D03*
Y907000D03*
Y1034000D03*
Y1161000D03*
Y1620000D03*
Y1747000D03*
Y1874000D03*
Y2001000D03*
Y2510000D03*
Y2637000D03*
Y2764000D03*
Y2891000D03*
X4350000Y780000D03*
Y907000D03*
Y1034000D03*
Y1161000D03*
X4120000D03*
Y1034000D03*
Y907000D03*
Y780000D03*
X4350000Y1620000D03*
X4120000D03*
X4350000Y1747000D03*
Y1874000D03*
Y2001000D03*
X4120000D03*
Y1874000D03*
Y1747000D03*
X4350000Y2510000D03*
Y2637000D03*
Y2764000D03*
X4120000D03*
Y2637000D03*
Y2510000D03*
X4350000Y2891000D03*
X4120000D03*
X4890000Y1161000D03*
Y1034000D03*
Y907000D03*
Y780000D03*
Y1620000D03*
Y2001000D03*
Y1874000D03*
Y1747000D03*
Y2764000D03*
Y2637000D03*
Y2510000D03*
Y2891000D03*
G54D12*
X310000Y2141000D03*
G54D21*
X2727300Y1400000D03*
Y2260000D03*
Y3150000D03*
X3072700Y1400000D03*
Y2260000D03*
Y3150000D03*
G54D22*
X4300000Y410000D03*
X4860000D03*
G54D13*
X696200Y1160000D03*
X543800D03*
Y1000000D03*
X696200D03*
X666200Y3170000D03*
X513800D03*
X666200Y3020000D03*
X513800D03*
X666200Y4380000D03*
X513800D03*
X666200Y4540000D03*
X513800D03*
X1006200Y1160000D03*
X853800D03*
Y1000000D03*
X1006200D03*
X883800Y1890000D03*
X1036200D03*
X843800Y3170000D03*
X996200D03*
Y3020000D03*
X843800D03*
X1323800Y3550000D03*
X996200Y4380000D03*
X843800D03*
X1323800Y4920000D03*
X843800Y4540000D03*
X996200D03*
X1803800Y3320000D03*
Y3020000D03*
X1476200Y3550000D03*
X1803800Y4380000D03*
X1476200Y4920000D03*
X1803800Y4690000D03*
X2363800Y1400000D03*
Y2260000D03*
X1956200Y3320000D03*
X2373800Y3150000D03*
X1956200Y3020000D03*
Y4380000D03*
Y4690000D03*
X2516200Y1400000D03*
Y2260000D03*
X2526200Y3150000D03*
X3153800Y1200000D03*
X3306200D03*
Y1050000D03*
X3153800D03*
X3306200Y790000D03*
X3153800D03*
X3306200Y1630000D03*
X3153800D03*
Y2040000D03*
X3306200D03*
Y1890000D03*
X3153800D03*
X3316200Y2770000D03*
X3163800D03*
X3306200Y2520000D03*
X3153800D03*
X3163800Y2920000D03*
X3316200D03*
X5816200Y4160000D03*
X5663800D03*
G54D23*
X4800000D03*
X5300000D03*
G54D14*
X557760Y3380000D03*
X842240D03*
X557760Y3650000D03*
X842240D03*
X557760Y4750000D03*
X842240D03*
X557760Y5020000D03*
X842240D03*
G54D24*
X4680000Y4910000D03*
X5442000D03*
G54D15*
X1290000Y1575250D03*
Y1638750D03*
Y1702250D03*
Y1765750D03*
Y1829250D03*
Y1892750D03*
Y1956250D03*
Y2019750D03*
Y2083250D03*
Y2146750D03*
X1890000Y1702250D03*
Y1638750D03*
Y1575250D03*
Y2146750D03*
Y2083250D03*
Y2019750D03*
Y1956250D03*
Y1892750D03*
Y1829250D03*
Y1765750D03*
G54D25*
X5630000Y1520000D03*
G54D16*
X880000Y1700000D03*
X850000Y3960000D03*
Y5330000D03*
G54D26*
X5630000Y2120000D03*
Y1820000D03*
Y2720000D03*
Y2420000D03*
Y3320000D03*
Y3020000D03*
Y3620000D03*
G54D17*
X1264600Y3175000D03*
Y3270000D03*
Y3365000D03*
Y4545000D03*
Y4640000D03*
Y4735000D03*
X1535400Y3270000D03*
Y3175000D03*
Y3365000D03*
Y4640000D03*
Y4735000D03*
Y4545000D03*
G54D27*
X6058400Y4800000D03*
X6261600D03*
G54D18*
X1040000Y3960000D03*
Y5330000D03*
X1620000Y3960000D03*
Y5330000D03*
G54D28*
G01X6210000Y1735000D02*
G03I-150000J0D01*
G01Y3405000D02*
G03I-150000J0D01*
G54D19*
X1900000Y3513500D03*
Y3906500D03*
Y4883500D03*
Y5276500D03*
G54D29*
G01X330000Y0D02*
X6170570D01*
G03X6500570Y329430I0J330001D01*
G01X6500000Y5470040D01*
G03X6170000Y5800000I-330001J-41D01*
G01X330000D01*
G03X0Y5470000I0J-330000D01*
G01Y330000D01*
G03X330000Y0I330000J0D01*
M02*
