G04 ================== begin FILE IDENTIFICATION RECORD ==================*
G04 Layout Name:  H:/GitHub/MBEDBoard/JY02A_TEST_V10A/PCB/JY02A_TEST_V10A.brd*
G04 Film Name:    SolderMask_Bottom*
G04 File Format:  Gerber RS274X*
G04 File Origin:  Cadence Allegro 16.6-2015-S088*
G04 Origin Date:  Tue Aug 29 09:59:13 2017*
G04 *
G04 Layer:  BOARD GEOMETRY/OUTLINE*
G04 Layer:  PIN/SOLDERMASK_BOTTOM*
G04 Layer:  PACKAGE GEOMETRY/SOLDERMASK_BOTTOM*
G04 Layer:  BOARD GEOMETRY/SOLDERMASK_BOTTOM*
G04 *
G04 Offset:    (0.0000 0.0000)*
G04 Mirror:    No*
G04 Mode:      Positive*
G04 Rotation:  0*
G04 FullContactRelief:  No*
G04 UndefLineWidth:     0.1524*
G04 ================== end FILE IDENTIFICATION RECORD ====================*
%FSLAX55Y55*MOMM*%
%IR0*IPPOS*OFA0.00000B0.00000*MIA0B0*SFA1.00000B1.00000*%
%ADD14R,1.6X.7*%
%ADD13R,.9144X.9144*%
%ADD16R,.8128X1.1684*%
%ADD15R,1.9X3.3*%
%ADD21C,1.6*%
%ADD17C,1.9*%
%ADD18R,1.46X1.77*%
%ADD20R,1.6X1.6*%
%ADD10C,6.35*%
%ADD11C,1.905*%
%ADD19C,2.667*%
%ADD12R,1.905X1.905*%
%ADD22C,.2032*%
%ADD23C,.1524*%
G75*
%LPD*%
G75*
G54D10*
X330000Y330000D03*
Y5470000D03*
X6170000Y330000D03*
Y5470000D03*
G54D11*
X310000Y1379000D03*
Y1633000D03*
Y1887000D03*
X2225000Y5360000D03*
X4255000D03*
G54D20*
X5630000Y1520000D03*
G54D12*
X310000Y2141000D03*
G54D21*
X5630000Y2120000D03*
Y1820000D03*
Y2720000D03*
Y2420000D03*
Y3320000D03*
Y3020000D03*
Y3620000D03*
G54D22*
G01X6210000Y1735000D02*
G03I-150000J0D01*
G01Y3405000D02*
G03I-150000J0D01*
G54D13*
X716200Y1640000D03*
X563800D03*
X716200Y2210000D03*
X563800D03*
X716200Y1890000D03*
X563800D03*
X1036200Y1640000D03*
X883800D03*
Y1480000D03*
X1036200D03*
X883800Y2040000D03*
X1036200D03*
X883800Y1890000D03*
X1036200D03*
X2413800Y1120000D03*
Y960000D03*
Y800000D03*
X2423800Y1640000D03*
Y1960000D03*
Y1800000D03*
Y2530000D03*
Y2690000D03*
Y2850000D03*
X2566200Y1120000D03*
X2723800Y800000D03*
X2876200D03*
X2566200Y960000D03*
X2876200D03*
X2723800D03*
X2566200Y800000D03*
X2733800Y1640000D03*
X2886200D03*
X2576200D03*
Y1960000D03*
X2886200Y1800000D03*
X2733800D03*
X2576200D03*
X2733800Y2530000D03*
X2886200D03*
X2576200D03*
X2886200Y2690000D03*
X2733800D03*
X2576200D03*
Y2850000D03*
X2863800Y3940000D03*
Y4710000D03*
Y4870000D03*
X3016200Y3940000D03*
X3213800Y4300000D03*
X3366200D03*
X3213800Y4130000D03*
X3366200D03*
X3016200Y4710000D03*
Y4870000D03*
X3213800Y4510000D03*
X3366200D03*
X3676200Y4300000D03*
X3523800D03*
X3676200Y4510000D03*
X3523800D03*
X3986200D03*
X3833800D03*
X4296200D03*
X4143800D03*
X5113800Y3750000D03*
X4803800Y3910000D03*
X4956200D03*
X5113800D03*
X5266200Y3750000D03*
Y3910000D03*
G54D23*
G01X330000Y0D02*
X6170570D01*
G03X6500570Y329430I0J330001D01*
G01X6500000Y5470040D01*
G03X6170000Y5800000I-330001J-41D01*
G01X330000D01*
G03X0Y5470000I0J-330000D01*
G01Y330000D01*
G03X330000Y0I330000J0D01*
G54D14*
X2460000Y4384000D03*
Y4257000D03*
Y4130000D03*
Y4511000D03*
X3000000Y4130000D03*
Y4257000D03*
Y4384000D03*
Y4511000D03*
G54D15*
X3320000Y4840000D03*
X3880000D03*
G54D16*
X4118400Y4073000D03*
X4321600D03*
X4220000Y4327000D03*
X4321600Y4977000D03*
X4118400D03*
X4220000Y4723000D03*
G54D17*
X4800000Y4160000D03*
X5300000D03*
G54D18*
X4873500Y4620000D03*
X5266500D03*
G54D19*
X4680000Y4910000D03*
X5442000D03*
M02*
