G04 ================== begin FILE IDENTIFICATION RECORD ==================*
G04 Layout Name:  H:/GitHub/MBEDBoard/JY02A_TEST_V10A/PCB/JY02A_TEST_V10A.brd*
G04 Film Name:    TOP*
G04 File Format:  Gerber RS274X*
G04 File Origin:  Cadence Allegro 16.6-2015-S088*
G04 Origin Date:  Tue Aug 29 09:59:13 2017*
G04 *
G04 Layer:  BOARD GEOMETRY/OUTLINE*
G04 Layer:  VIA CLASS/TOP*
G04 Layer:  PIN/TOP*
G04 Layer:  ETCH/TOP*
G04 *
G04 Offset:    (0.0000 0.0000)*
G04 Mirror:    No*
G04 Mode:      Positive*
G04 Rotation:  0*
G04 FullContactRelief:  No*
G04 UndefLineWidth:     0.1524*
G04 ================== end FILE IDENTIFICATION RECORD ====================*
%FSLAX55Y55*MOMM*%
%IR0*IPPOS*OFA0.00000B0.00000*MIA0B0*SFA1.00000B1.00000*%
%ADD21R,1.5X.6*%
%ADD22R,.8X1.4*%
%ADD16R,1.52X.25*%
%ADD18R,1.06X.65*%
%ADD17C,.75*%
%ADD12C,.6096*%
%ADD23R,1.8X3.2*%
%ADD19R,1.8X2.5*%
%ADD15R,1.6X1.8*%
%ADD27C,1.5*%
%ADD24C,1.8*%
%ADD28R,1.016X1.2192*%
%ADD20R,1.67X1.36*%
%ADD25C,2.54*%
%ADD26R,1.5X1.5*%
%ADD10C,6.35*%
%ADD11C,1.778*%
%ADD14R,.9144X.9144*%
%ADD13R,1.778X1.778*%
%ADD29C,.3*%
%ADD30C,.2032*%
%ADD31C,.254*%
%ADD32C,.7112*%
%ADD33C,.1524*%
%ADD34C,.508*%
%ADD35C,.762*%
%ADD36C,2.*%
%ADD39C,2.5164*%
%ADD40C,2.7148*%
%ADD38C,3.5564*%
%ADD41C,3.4548*%
%ADD37C,2.7944*%
G75*
%LPD*%
G75*
G36*
G01X569390Y10000D02*
G02X556710Y46200I1J20321D01*
G03X46200Y556710I-226710J283800D01*
G02X10000Y569390I-15879J12681D01*
G01Y5230610D01*
G02X46200Y5243290I20321J-1D01*
G03X556710Y5753800I283800J226710D01*
G02X569390Y5790000I12681J15879D01*
G01X5930610D01*
G02X5943290Y5753800I-1J-20321D01*
G03X6453800Y5243290I226710J-283800D01*
G02X6490000Y5230610I15879J-12681D01*
G01Y3580000D01*
X6340000Y3430000D01*
X6221090D01*
X6219410Y3438090D01*
G03X5900590I-159410J-33090D01*
G01X5898910Y3430000D01*
X5691080D01*
G03X5568920I-61080J-110000D01*
G01X3530000D01*
X3430000Y3330000D01*
Y3025460D01*
X3402520Y2997990D01*
G02X3387460Y2998760I-7182J7182D01*
G01X3384300Y3002640D01*
X3385450Y3007500D01*
G03X3284980Y3087720I-69248J16298D01*
G02X3255740Y3105980I-8919J18259D01*
G01Y3218950D01*
X3198950Y3275740D01*
X2974260D01*
Y2998950D01*
X2951050Y2975740D01*
X2815740D01*
Y2992750D01*
X2816410Y2994510D01*
G03Y3045490I-66410J25490D01*
G01X2815740Y3047250D01*
Y3365740D01*
X2591050D01*
X2461690Y3236380D01*
X2439820D01*
Y3214510D01*
X2434260Y3208950D01*
Y2988950D01*
X2421050Y2975740D01*
X2293360D01*
Y3147900D01*
X2722100Y3576640D01*
X5062950D01*
G03Y3683360I47050J53360D01*
G01X2677900D01*
X2360430Y3365890D01*
G02X2325740Y3380260I-14370J14367D01*
G01Y3751050D01*
X2418950Y3844260D01*
X4948950D01*
X5035740Y3931050D01*
Y4298950D01*
X5014330Y4320350D01*
G02X5028700Y4355040I14370J14369D01*
G01X5549500D01*
X5610440Y4294100D01*
Y4258470D01*
X5577420Y4221120D01*
Y4073620D01*
X5877320D01*
X5914670Y4106640D01*
X6002100D01*
X6111760Y4216300D01*
Y4680930D01*
X6149860Y4723500D01*
Y4901620D01*
X5966940D01*
Y4723500D01*
X6005040Y4680930D01*
Y4260500D01*
X5957900Y4213360D01*
X5914670D01*
X5877320Y4246380D01*
X5727840D01*
X5717160Y4258470D01*
Y4338300D01*
X5593700Y4461760D01*
X3837050D01*
G03X3768670Y4476270I-47052J-53359D01*
G02X3742260Y4495650I-6091J19384D01*
G01Y4807340D01*
X3742890Y4809050D01*
G03X3609510I-66690J24750D01*
G01X3610140Y4807340D01*
Y4434860D01*
X3609510Y4433150D01*
G03X3605310Y4414360I66685J-24770D01*
G02X3585060Y4395740I-20248J1700D01*
G01X2448950D01*
X2188950Y4655740D01*
X1898950D01*
X1895740Y4658950D01*
Y4785740D01*
X1799480D01*
G02X1785110Y4820430I0J20321D01*
G01X1785740Y4821050D01*
Y5081050D01*
X1858950Y5154260D01*
X2045740D01*
Y5458950D01*
X1988950Y5515740D01*
X1461050D01*
X1384260Y5438950D01*
Y5006380D01*
X1237420D01*
Y4858880D01*
X1249580Y4845130D01*
G02X1236790Y4811500I-15224J-13457D01*
G01X1170940Y4803550D01*
Y4661840D01*
X1351090D01*
X1360500Y4710030D01*
G02X1394810Y4720510I19944J-3890D01*
G01X1441740Y4673570D01*
Y4471840D01*
X1603280D01*
X1619220Y4485310D01*
X1704900Y4399640D01*
X1724130Y4293620D01*
X1864260D01*
Y4284260D01*
X1941050D01*
X2004260Y4221050D01*
Y4149480D01*
G02X1969570Y4135110I-20321J0D01*
G01X1968950Y4135740D01*
X1501050D01*
X1490970Y4125660D01*
X1489340D01*
Y4124030D01*
X1384260Y4018950D01*
Y3636380D01*
X1237420D01*
Y3488880D01*
X1247230Y3477790D01*
G02X1236320Y3444470I-15221J-13462D01*
G01X1210370Y3438840D01*
G02X1185740Y3458700I-4311J19857D01*
G01Y4125740D01*
X751050D01*
X704260Y4078950D01*
Y3268950D01*
X701050Y3265740D01*
X574260D01*
Y3074260D01*
X579820D01*
Y2933620D01*
X727320D01*
X755000Y2958090D01*
X782680Y2933620D01*
X1082580D01*
Y3081120D01*
X1070250Y3095070D01*
X1099950Y3121640D01*
X1173290D01*
X1196720Y3101840D01*
X1358260D01*
Y3248160D01*
X1196720D01*
X1173290Y3228360D01*
X1095740D01*
X1054400Y3256380D01*
X1050120D01*
G02X1035750Y3291070I0J20321D01*
G01X1136250Y3391570D01*
G02X1170940Y3377200I14369J-14370D01*
G01Y3291840D01*
X1351960D01*
X1361530Y3348400D01*
G02X1395930Y3359380I20033J-3387D01*
G01X1441740Y3313570D01*
Y3101840D01*
X1603280D01*
X1624640Y3119890D01*
X1704900Y3039640D01*
X1724130Y2933620D01*
X1864260D01*
Y2924260D01*
X2038950D01*
X2151950Y3037270D01*
G02X2186640Y3022900I14369J-14370D01*
G01Y2832100D01*
X1737900Y2383360D01*
X1115970D01*
X1016640Y2284030D01*
Y2047900D01*
X1070810Y1993720D01*
G02X1063630Y1976380I-7184J-7182D01*
G01X1043240D01*
X953560Y2066060D01*
X814250D01*
X782260Y2098050D01*
Y2293540D01*
X782890Y2295250D01*
G03X737090Y2388000I-66693J24750D01*
G01X734680Y2388740D01*
X306060Y2817360D01*
Y4121950D01*
X338050Y4153940D01*
X1153360D01*
X1318000Y4318580D01*
X1319660Y4319340D01*
G03X1337990Y4436520I-29659J64663D01*
G02X1351690Y4471840I13704J15001D01*
G01X1358260D01*
Y4618160D01*
X1196720D01*
X1173290Y4598360D01*
X1095740D01*
X1054400Y4626380D01*
X978800D01*
X973600Y4638920D01*
X975740Y4641050D01*
Y4971050D01*
X1169030Y5164340D01*
X1170660D01*
Y5165970D01*
X1185740Y5181050D01*
Y5515740D01*
X801050D01*
X714260Y5428950D01*
Y4946700D01*
X383280D01*
X173940Y4737360D01*
Y2762640D01*
X650140Y2286440D01*
Y1563560D01*
X477140Y1390570D01*
G02X442740Y1401530I-14369J14366D01*
G03X390920Y1486610I-132741J-22528D01*
G02X391310Y1519370I12214J16237D01*
G03X395020Y1743880I-81307J113629D01*
G02Y1776120I12364J16120D01*
G03X423100Y1969030I-85021J110874D01*
G02X439550Y2001280I16451J11929D01*
G01X449720D01*
Y2280720D01*
X170280D01*
Y2001280D01*
X180450D01*
G02X196900Y1969030I-1J-20321D01*
G03X224980Y1776120I113101J-82036D01*
G02Y1743880I-12364J-16120D01*
G03X228690Y1519370I85017J-110881D01*
G02X229080Y1486610I-11824J-16523D01*
G03X347900Y1249800I80917J-107614D01*
G02X373940Y1230310I5722J-19496D01*
G01Y1076440D01*
X457420Y992960D01*
Y913620D01*
X536760D01*
X616440Y833940D01*
X781160D01*
X860840Y913620D01*
X1092580D01*
Y1061120D01*
X1075890Y1080000D01*
X1092580Y1098880D01*
Y1221120D01*
X1059560Y1258470D01*
Y1454100D01*
X1138650Y1533190D01*
G02X1173080Y1522090I14373J-14367D01*
G01X1285370D01*
X1285770Y1522060D01*
G03X1290000Y1521890I4256J53189D01*
G01X1412650D01*
X1426640Y1507900D01*
Y717900D01*
X1507900Y636640D01*
X2512100D01*
X2583360Y707900D01*
Y1032100D01*
X2545890Y1069570D01*
G02X2560260Y1104260I14367J14370D01*
G01X2588950D01*
X2774030Y1289340D01*
X2807960D01*
Y1323270D01*
X2815740Y1331050D01*
Y1558340D01*
X3009760D01*
X3030450Y1575640D01*
X3055130D01*
X3093280Y1543620D01*
X3242160D01*
X3252840Y1531530D01*
Y1511700D01*
X3367900Y1396640D01*
X3430000D01*
Y1315460D01*
X3392520Y1277990D01*
G02X3377460Y1278760I-7182J7182D01*
G01X3373750Y1283310D01*
X3375050Y1288290D01*
G03X3274980Y1370120I-68849J17908D01*
G02X3245740Y1388380I-8919J18259D01*
G01Y1448950D01*
X3188950Y1505740D01*
X3153360D01*
Y1510660D01*
X2992040D01*
Y1486730D01*
X2974260Y1468950D01*
Y1258950D01*
X2971050Y1255740D01*
X2784260D01*
Y1094260D01*
X2794340D01*
Y718340D01*
X2999760D01*
X3020450Y735640D01*
X3055130D01*
X3093280Y703620D01*
X3242160D01*
X3252840Y691530D01*
Y671700D01*
X3357900Y566640D01*
X4502100D01*
X4515460Y580000D01*
X4564260D01*
Y251050D01*
X4621050Y194260D01*
X4978950D01*
X5025740Y241050D01*
Y580000D01*
X5670000D01*
X5840000Y750000D01*
X6460000D01*
X6490000Y720000D01*
Y569390D01*
G02X6453800Y556710I-20321J1D01*
G03X5943290Y46200I-283800J-226710D01*
G02X5930610Y10000I-12681J-15879D01*
G01X569390D01*
G37*
G36*
G01X550840Y1086380D02*
X506060Y1131160D01*
Y1232640D01*
X748000Y1474580D01*
X749660Y1475340D01*
G03X783370Y1572330I-29660J64662D01*
G01X782260Y1574500D01*
Y1639140D01*
G02X818550Y1651690I20318J-7D01*
G03X878650Y1621850I61445J48311D01*
G01X882760Y1621780D01*
X907900Y1596640D01*
X932120D01*
G02X946490Y1561950I3J-20320D01*
G01X642840Y1258300D01*
Y1256900D01*
X609820Y1221860D01*
Y1086380D01*
X550840D01*
G37*
G36*
G01X688770Y1089030D02*
X650480Y1045720D01*
X696200Y996820D01*
X741920Y1045720D01*
X703630Y1089030D01*
G03X688770I-7430J-10300D01*
G37*
G36*
G01X703630Y1070970D02*
X741920Y1114280D01*
X696200Y1163180D01*
X650480Y1114280D01*
X688770Y1070970D01*
G03X703630I7430J10300D01*
G37*
G36*
G01X952840Y1368320D02*
Y1258470D01*
X919820Y1221120D01*
Y1086380D01*
X782580D01*
Y1221860D01*
X770330Y1234860D01*
X918150Y1382690D01*
G02X952840Y1368320I14370J-14367D01*
G37*
G36*
G01X716200Y1550980D02*
Y1543800D01*
X722080Y1534000D01*
X741540Y1561540D01*
X734160Y1568940D01*
X716200Y1550980D01*
G37*
G36*
G01X689160Y1246770D02*
X650480Y1205720D01*
X696200Y1156820D01*
X741920Y1205720D01*
X703240Y1246770D01*
G03X689160I-7040J-10570D01*
G37*
G36*
G01X797660Y2017960D02*
X734160Y2081460D01*
X709850Y2025400D01*
Y1974600D01*
X734160Y1918540D01*
X797660Y1982040D01*
G03Y2017960I-17960J17960D01*
G37*
G36*
G01X704920Y2325080D02*
X710000Y2320000D01*
X721990Y2317390D01*
X716200Y2350480D01*
X704920D01*
Y2325080D01*
G37*
G36*
G01X620000Y3120000D02*
Y3220000D01*
X720000D01*
X750000Y3250000D01*
Y4060000D01*
X770000Y4080000D01*
X1140000D01*
Y3460000D01*
X936380Y3256380D01*
X909820D01*
Y3229820D01*
X890000Y3210000D01*
Y3120000D01*
X620000D01*
G37*
G36*
G01X755230Y3027430D02*
X711920Y3065720D01*
X663020Y3020000D01*
X711920Y2974280D01*
X755230Y3012570D01*
G03Y3027430I-10300J7430D01*
G37*
G36*
G01X754770Y3012570D02*
X798080Y2974280D01*
X846980Y3020000D01*
X798080Y3065720D01*
X754770Y3027430D01*
G03Y3012570I10300J-7430D01*
G37*
G36*
G01X338050Y4286060D02*
X306060Y4318050D01*
Y4682640D01*
X438000Y4814580D01*
X714260D01*
Y4638950D01*
X711050Y4635740D01*
X574260D01*
Y4444260D01*
X579820D01*
Y4286060D01*
X338050D01*
G37*
G36*
G01X755230Y4387430D02*
X711920Y4425720D01*
X663020Y4380000D01*
X711920Y4334280D01*
X755230Y4372570D01*
G03Y4387430I-10300J7430D01*
G37*
G36*
G01X754770Y4372570D02*
X798080Y4334280D01*
X846980Y4380000D01*
X798080Y4425720D01*
X754770Y4387430D01*
G03Y4372570I10300J-7430D01*
G37*
G36*
G01X321460Y4237960D02*
X257960Y4301460D01*
X233650Y4245400D01*
Y4194600D01*
X257960Y4138540D01*
X321460Y4202040D01*
G03Y4237960I-17960J17960D01*
G37*
G36*
G01X620000Y4590000D02*
X730000D01*
X760000Y4620000D01*
Y5410000D01*
X820000Y5470000D01*
X1140000D01*
Y5200000D01*
X930000Y4990000D01*
Y4660000D01*
X890000Y4620000D01*
Y4490000D01*
X620000D01*
Y4590000D01*
G37*
G36*
G01X998770Y1089030D02*
X960480Y1045720D01*
X1006200Y996820D01*
X1051920Y1045720D01*
X1013630Y1089030D01*
G03X998770I-7430J-10300D01*
G37*
G36*
G01X1013630Y1070970D02*
X1051920Y1114280D01*
X1006200Y1163180D01*
X960480Y1114280D01*
X998770Y1070970D01*
G03X1013630I7430J10300D01*
G37*
G36*
G01X917500Y1675200D02*
Y1700000D01*
X877750Y1702250D01*
X880000Y1662500D01*
X904800D01*
G03X917500Y1675200I0J12700D01*
G37*
G36*
G01X998770Y1249030D02*
X960480Y1205720D01*
X1006200Y1156820D01*
X1051920Y1205720D01*
X1013630Y1249030D01*
G03X998770I-7430J-10300D01*
G37*
G36*
G01X782260Y1760860D02*
Y1901950D01*
X814250Y1933940D01*
X898840D01*
X949820Y1882960D01*
Y1803620D01*
X955640D01*
G02X973540Y1773680I1J-20320D01*
G03X968890Y1763030I62653J-33696D01*
G02X935290Y1755240I-19227J6575D01*
G03X818550Y1748310I-55297J-55240D01*
G02X782260Y1760860I-15972J12557D01*
G37*
G36*
G01X1552100Y743360D02*
X1533360Y762100D01*
Y1552100D01*
X1456850Y1628610D01*
X1406660D01*
Y1945910D01*
X1306550D01*
X1305190Y1946300D01*
G03X1304080Y1946600I-15077J-53580D01*
G01X1296490Y1948580D01*
Y1966590D01*
X1406660D01*
Y2093390D01*
X1698850D01*
X1738650Y2133190D01*
G02X1773340Y2118820I14370J-14367D01*
G01Y2085290D01*
G02X1745680Y2066340I-20321J-1D01*
G03X1667760Y1951710I-25679J-66343D01*
G02X1668110Y1938300I-7455J-6904D01*
G03X1746300Y1825620I54643J-45551D01*
G02X1773340Y1806440I6721J-19176D01*
G01Y1522090D01*
X1885370D01*
X1885770Y1522060D01*
G03X1890000Y1521890I4256J53189D01*
G01X2072650D01*
X2156640Y1437900D01*
Y937900D01*
X2231900Y862640D01*
X2259550D01*
X2280240Y845340D01*
X2476640D01*
Y752100D01*
X2467900Y743360D01*
X1552100D01*
G37*
G36*
G01X1127220Y1901970D02*
X1081920Y1935720D01*
X1032450Y1889870D01*
X1081920Y1844280D01*
X1127720Y1884230D01*
G03X1127220Y1901970I-12340J8529D01*
G37*
G36*
G01X1053980Y1770480D02*
X1036200D01*
X1033950Y1737750D01*
X1066680Y1740000D01*
Y1757780D01*
G03X1053980Y1770480I-12700J0D01*
G37*
G36*
G01X1194120Y2092230D02*
X1181540Y2104790D01*
X1156820Y2083250D01*
X1181540Y2061710D01*
X1194120Y2074270D01*
G03Y2092230I-8980J8980D01*
G37*
G36*
G01X1003630Y3080970D02*
X1041920Y3124280D01*
X996200Y3173180D01*
X950480Y3124280D01*
X988770Y3080970D01*
G03X1003630I7430J10300D01*
G37*
G36*
G01X1089210Y3183670D02*
X1041920Y3215720D01*
X993030Y3169810D01*
X1041920Y3124280D01*
X1090090Y3167380D01*
G03X1089210Y3183670I-10160J7620D01*
G37*
G36*
G01X1180960Y3168390D02*
X1211600Y3142500D01*
X1267780Y3175000D01*
X1211600Y3207500D01*
X1180960Y3181610D01*
G03Y3168390I10850J-6610D01*
G37*
G36*
G01X988770Y3109030D02*
X950480Y3065720D01*
X996200Y3016820D01*
X1041920Y3065720D01*
X1003630Y3109030D01*
G03X988770I-7430J-10300D01*
G37*
G36*
G01X1316400Y3420240D02*
X1211600Y3397500D01*
X1262130Y3363010D01*
X1317600Y3332500D01*
X1330300Y3407600D01*
G03X1316400Y3420240I-12697J0D01*
G37*
G36*
G01X1331230Y3460970D02*
X1369520Y3504280D01*
X1323800Y3553180D01*
X1278080Y3504280D01*
X1316370Y3460970D01*
G03X1331230I7430J10300D01*
G37*
G36*
G01X1082580Y4286060D02*
Y4314420D01*
G02X1102900Y4334740I20321J-1D01*
G03X1117270Y4340690I3J20320D01*
G01X1192310Y4415730D01*
X1193030Y4417100D01*
G02X1222900Y4446970I62970J-33100D01*
G01X1224270Y4447690D01*
X1226640Y4450060D01*
X1241130D01*
Y4435850D01*
X1238340Y4432910D01*
G03X1225340Y4413660I51664J-48905D01*
G01X1224580Y4412000D01*
X1098640Y4286060D01*
X1082580D01*
G37*
G36*
G01X988770Y4469030D02*
X950480Y4425720D01*
X996200Y4376820D01*
X1041920Y4425720D01*
X1003630Y4469030D01*
G03X988770I-7430J-10300D01*
G37*
G36*
G01X1317590Y4780300D02*
X1211600Y4767500D01*
X1261900Y4733340D01*
X1317600Y4702500D01*
X1330300Y4767600D01*
G03X1317590Y4780300I-12700J0D01*
G37*
G36*
G01X1331230Y4830970D02*
X1369520Y4874280D01*
X1323800Y4923180D01*
X1278080Y4874280D01*
X1316370Y4830970D01*
G03X1331230I7430J10300D01*
G37*
G36*
G01X1003630Y4450970D02*
X1041920Y4494280D01*
X996200Y4543180D01*
X950480Y4494280D01*
X988770Y4450970D01*
G03X1003630I7430J10300D01*
G37*
G36*
G01X1089210Y4553670D02*
X1041920Y4585720D01*
X993030Y4539810D01*
X1041920Y4494280D01*
X1090090Y4537380D01*
G03X1089210Y4553670I-10160J7620D01*
G37*
G36*
G01X1180960Y4538390D02*
X1211600Y4512500D01*
X1267780Y4545000D01*
X1211600Y4577500D01*
X1180960Y4551610D01*
G03Y4538390I10850J-6610D01*
G37*
G36*
G01X1756870Y1901730D02*
X1744290Y1914290D01*
X1719580Y1892750D01*
X1744290Y1871210D01*
X1756870Y1883770D01*
G03Y1901730I-8980J8980D01*
G37*
G36*
G01X1750480Y1982220D02*
Y2000000D01*
X1717750Y2002250D01*
X1720000Y1969520D01*
X1737780D01*
G03X1750480Y1982220I0J12700D01*
G37*
G36*
G01X1890180Y3101320D02*
X1779370Y3116090D01*
X1667100Y3228360D01*
X1641640D01*
X1630000Y3240000D01*
Y3310000D01*
X1700000D01*
X1760000Y3370000D01*
X1850000D01*
Y3270000D01*
X1869820Y3250180D01*
Y3233620D01*
X2042580D01*
Y3262580D01*
X2050000Y3270000D01*
Y4240000D01*
X1960000Y4330000D01*
X1910000D01*
Y4440000D01*
X1890180Y4459820D01*
Y4461320D01*
X1888450Y4461550D01*
X1880000Y4470000D01*
X1825070D01*
X1779370Y4476090D01*
X1657100Y4598360D01*
X1651640D01*
X1650000Y4600000D01*
Y4680000D01*
X1710000Y4740000D01*
X1850000D01*
Y4640000D01*
X1869820Y4620180D01*
Y4603620D01*
X2042580D01*
Y4610000D01*
X2170000D01*
X2430000Y4350000D01*
X3635580D01*
G03X3714430Y4348410I40619J58401D01*
G01X3716930Y4350000D01*
X3749270D01*
X3751770Y4348410D01*
G03X3830620Y4350000I38231J59991D01*
G01X4920000D01*
X4990000Y4280000D01*
Y3950000D01*
X4930000Y3890000D01*
X2400000D01*
X2280000Y3770000D01*
Y3285460D01*
X2186640Y3192100D01*
Y3136640D01*
X2020000Y2970000D01*
X1910000D01*
Y3060000D01*
X1890180Y3079820D01*
Y3101320D01*
G37*
G36*
G01X1741590Y3065190D02*
X1758080Y2974280D01*
X1806130Y3017850D01*
X1849520Y3065720D01*
X1754280Y3078420D01*
G03X1741590Y3065190I0J-12701D01*
G37*
G36*
G01X1619040Y3181610D02*
X1588400Y3207500D01*
X1532220Y3175000D01*
X1588400Y3142500D01*
X1619040Y3168390D01*
G03Y3181610I-10850J6610D01*
G37*
G36*
G01X1898950Y3285740D02*
X1895740Y3288950D01*
Y3415740D01*
X1785740D01*
Y3741050D01*
X1828950Y3784260D01*
X2004260D01*
Y3288950D01*
X2001050Y3285740D01*
X1898950D01*
G37*
G36*
G01X1480000Y3340000D02*
X1430000Y3390000D01*
Y4000000D01*
X1520000Y4090000D01*
X1950000D01*
X1990000Y4050000D01*
Y3830000D01*
X1810000D01*
X1740000Y3760000D01*
Y3430000D01*
X1665740Y3355740D01*
X1584260D01*
Y3340000D01*
X1480000D01*
G37*
G36*
G01X1741590Y4425190D02*
X1758080Y4334280D01*
X1806130Y4377850D01*
X1849520Y4425720D01*
X1754280Y4438420D01*
G03X1741590Y4425190I0J-12701D01*
G37*
G36*
G01X1619040Y4551610D02*
X1588400Y4577500D01*
X1532220Y4545000D01*
X1588400Y4512500D01*
X1619040Y4538390D01*
G03Y4551610I-10850J6610D01*
G37*
G36*
G01X1430000Y4750000D02*
Y5420000D01*
X1480000Y5470000D01*
X1970000D01*
X2000000Y5440000D01*
Y5200000D01*
X1840000D01*
X1740000Y5100000D01*
Y4840000D01*
X1610000Y4710000D01*
X1470000D01*
X1430000Y4750000D01*
G37*
G36*
G01X2266710Y909660D02*
X2295000Y886000D01*
X2373180Y916000D01*
X2295000Y946000D01*
X2266710Y922340D01*
G03Y909660I11000J-6340D01*
G37*
G36*
G01X2473290Y1049340D02*
X2445000Y1073000D01*
X2366820Y1043000D01*
X2445000Y1013000D01*
X2473290Y1036660D01*
G03Y1049340I-11000J6340D01*
G37*
G36*
G01X2290000Y1150000D02*
Y1210000D01*
X2440000D01*
X2470000Y1240000D01*
Y1450000D01*
X2516640Y1496640D01*
X2516700D01*
X2583360Y1563300D01*
Y1563360D01*
X2590000Y1570000D01*
Y1960000D01*
X2570000Y1980000D01*
X2313360D01*
Y2040000D01*
X2430000D01*
X2470000Y2080000D01*
Y2310000D01*
X2590000Y2430000D01*
Y2444540D01*
X2593360Y2447900D01*
Y2762100D01*
X2590000Y2765460D01*
Y2860000D01*
X2580000Y2870000D01*
X2300000D01*
Y2930000D01*
X2440000D01*
X2480000Y2970000D01*
Y3190000D01*
X2610000Y3320000D01*
X2770000D01*
Y1350000D01*
X2570000Y1150000D01*
X2290000D01*
G37*
G36*
G01X2263360Y1255740D02*
Y1482100D01*
X2261360Y1484100D01*
X2266550Y1496640D01*
X2429820D01*
Y1474510D01*
X2424260Y1468950D01*
Y1258950D01*
X2421050Y1255740D01*
X2263360D01*
G37*
G36*
G01X2292100Y1603360D02*
X2225460Y1670000D01*
X2258100Y1702640D01*
X2269550D01*
X2290240Y1685340D01*
X2476640D01*
Y1607500D01*
X2472500Y1603360D01*
X2292100D01*
G37*
G36*
G01X2176860Y1956850D02*
Y2491400D01*
X2274210Y2588750D01*
X2290240Y2575340D01*
X2486640D01*
Y2492100D01*
X2457900Y2463360D01*
X2327900D01*
X2206640Y2342100D01*
Y1962100D01*
X2194200Y1949670D01*
G02X2176860Y1956850I-7182J7184D01*
G37*
G36*
G01X2313360Y2085740D02*
Y2297900D01*
X2372100Y2356640D01*
X2429820D01*
Y2334510D01*
X2424260Y2328950D01*
Y2098950D01*
X2411050Y2085740D01*
X2313360D01*
G37*
G36*
G01X2483290Y1889340D02*
X2455000Y1913000D01*
X2376820Y1883000D01*
X2455000Y1853000D01*
X2483290Y1876660D01*
G03Y1889340I-11000J6340D01*
G37*
G36*
G01X2276710Y1749660D02*
X2305000Y1726000D01*
X2383180Y1756000D01*
X2305000Y1786000D01*
X2276710Y1762340D01*
G03Y1749660I11000J-6340D01*
G37*
G36*
G01X2025630Y2010770D02*
X2038210Y1998210D01*
X2062920Y2019750D01*
X2038210Y2041290D01*
X2025630Y2028730D01*
G03Y2010770I8980J-8980D01*
G37*
G36*
G01X2042220Y2079520D02*
X2060000D01*
X2062250Y2112250D01*
X2029520Y2110000D01*
Y2092220D01*
G03X2042220Y2079520I12700J0D01*
G37*
G36*
G01X2068980Y2285880D02*
X2081540Y2298460D01*
X2060000Y2323180D01*
X2038460Y2298460D01*
X2051020Y2285880D01*
G03X2068980I8980J8980D01*
G37*
G36*
G01X2042220Y2499520D02*
X2060000D01*
X2062250Y2532250D01*
X2029520Y2530000D01*
Y2512220D01*
G03X2042220Y2499520I12700J0D01*
G37*
G36*
G01X2483290Y2779340D02*
X2455000Y2803000D01*
X2376820Y2773000D01*
X2455000Y2743000D01*
X2483290Y2766660D01*
G03Y2779340I-11000J6340D01*
G37*
G36*
G01X2276710Y2639660D02*
X2305000Y2616000D01*
X2383180Y2646000D01*
X2305000Y2676000D01*
X2276710Y2652340D01*
G03Y2639660I11000J-6340D01*
G37*
G36*
G01X3014700Y919840D02*
X2985000Y946000D01*
X2903650Y916000D01*
X2985000Y886000D01*
X3014700Y912160D01*
G03Y919840I-25110J3840D01*
G37*
G36*
G01X2830000Y1210000D02*
X2990000D01*
X3020000Y1240000D01*
Y1450000D01*
X3030000Y1460000D01*
X3170000D01*
X3200000Y1430000D01*
Y1140000D01*
X2830000D01*
Y1210000D01*
G37*
G36*
G01X3013290Y1049340D02*
X2985000Y1073000D01*
X2906820Y1043000D01*
X2985000Y1013000D01*
X3013290Y1036660D01*
G03Y1049340I-11000J6340D01*
G37*
G36*
G01Y795340D02*
X2985000Y819000D01*
X2906820Y789000D01*
X2985000Y759000D01*
X3013290Y782660D01*
G03Y795340I-11000J6340D01*
G37*
G36*
G01X3023290Y1635340D02*
X2995000Y1659000D01*
X2916820Y1629000D01*
X2995000Y1599000D01*
X3023290Y1622660D01*
G03Y1635340I-11000J6340D01*
G37*
G36*
G01X2815740Y2095740D02*
Y2448340D01*
X3009760D01*
X3030450Y2465640D01*
X3055130D01*
X3093280Y2433620D01*
X3242160D01*
X3252840Y2421530D01*
Y2401700D01*
X3367900Y2286640D01*
X3430000D01*
Y2125460D01*
X3413940Y2109400D01*
G02X3383810Y2110950I-14366J14372D01*
G01X3374300Y2122640D01*
X3375450Y2127500D01*
G03X3274980Y2207720I-69248J16298D01*
G02X3245740Y2225980I-8919J18259D01*
G01Y2328950D01*
X3188950Y2385740D01*
X2974260D01*
Y2108950D01*
X2961050Y2095740D01*
X2815740D01*
G37*
G36*
G01X3024700Y1759840D02*
X2995000Y1786000D01*
X2913650Y1756000D01*
X2995000Y1726000D01*
X3024700Y1752160D01*
G03Y1759840I-25110J3840D01*
G37*
G36*
G01X2840000Y2050000D02*
X2980000D01*
X3020000Y2090000D01*
Y2340000D01*
X3170000D01*
X3200000Y2310000D01*
Y1980000D01*
X2840000D01*
Y2050000D01*
G37*
G36*
G01X3023290Y1889340D02*
X2995000Y1913000D01*
X2916820Y1883000D01*
X2995000Y1853000D01*
X3023290Y1876660D01*
G03Y1889340I-11000J6340D01*
G37*
G36*
G01X3024700Y2649840D02*
X2995000Y2676000D01*
X2913650Y2646000D01*
X2995000Y2616000D01*
X3024700Y2642160D01*
G03Y2649840I-25110J3840D01*
G37*
G36*
G01X3023290Y2525340D02*
X2995000Y2549000D01*
X2916820Y2519000D01*
X2995000Y2489000D01*
X3023290Y2512660D01*
G03Y2525340I-11000J6340D01*
G37*
G36*
G01Y2779340D02*
X2995000Y2803000D01*
X2916820Y2773000D01*
X2995000Y2743000D01*
X3023290Y2766660D01*
G03Y2779340I-11000J6340D01*
G37*
G36*
G01X2840000Y2930000D02*
X2970000D01*
X3020000Y2980000D01*
Y3230000D01*
X3180000D01*
X3210000Y3200000D01*
Y2860000D01*
X2840000D01*
Y2930000D01*
G37*
G36*
G01X3059240Y1033870D02*
X3108080Y1004280D01*
X3156960Y1050260D01*
X3108080Y1095720D01*
X3057950Y1050680D01*
G03X3059240Y1033870I10119J-7678D01*
G37*
G36*
G01X3063960Y781310D02*
X3108080Y744280D01*
X3156970Y790040D01*
X3108080Y835720D01*
X3063800Y796470D01*
G03X3063960Y781310I10270J-7472D01*
G37*
G36*
G01X3395230Y1057430D02*
X3351920Y1095720D01*
X3303020Y1050000D01*
X3351920Y1004280D01*
X3395230Y1042570D01*
G03Y1057430I-10300J7430D01*
G37*
G36*
G01X3313630Y700970D02*
X3351920Y744280D01*
X3306200Y793180D01*
X3260480Y744280D01*
X3298770Y700970D01*
G03X3313630I7430J10300D01*
G37*
G36*
G01X3295890Y1289240D02*
X3260480Y1245720D01*
X3306200Y1193650D01*
X3351920Y1245720D01*
X3316510Y1289240D01*
G03X3295890I-10310J-23210D01*
G37*
G36*
G01X3063960Y1621310D02*
X3108080Y1584280D01*
X3156970Y1630040D01*
X3108080Y1675720D01*
X3063800Y1636470D01*
G03X3063960Y1621310I10270J-7472D01*
G37*
G36*
G01X3313630Y1540970D02*
X3351920Y1584280D01*
X3306200Y1633180D01*
X3260480Y1584280D01*
X3298770Y1540970D01*
G03X3313630I7430J10300D01*
G37*
G36*
G01X3295890Y2129240D02*
X3260480Y2085720D01*
X3306200Y2033650D01*
X3351920Y2085720D01*
X3316510Y2129240D01*
G03X3295890I-10310J-23210D01*
G37*
G36*
G01X3275060Y1738040D02*
X3284660Y1728460D01*
X3311980Y1747370D01*
X3300200Y1756000D01*
X3293020D01*
X3275060Y1738040D01*
G37*
G36*
G01X3059240Y1873870D02*
X3108080Y1844280D01*
X3156960Y1890260D01*
X3108080Y1935720D01*
X3057950Y1890680D01*
G03X3059240Y1873870I10119J-7678D01*
G37*
G36*
G01X3395230Y1897430D02*
X3351920Y1935720D01*
X3303020Y1890000D01*
X3351920Y1844280D01*
X3395230Y1882570D01*
G03Y1897430I-10300J7430D01*
G37*
G36*
G01X3063960Y2511310D02*
X3108080Y2474280D01*
X3156970Y2520040D01*
X3108080Y2565720D01*
X3063800Y2526470D01*
G03X3063960Y2511310I10270J-7472D01*
G37*
G36*
G01X3313630Y2430970D02*
X3351920Y2474280D01*
X3306200Y2523180D01*
X3260480Y2474280D01*
X3298770Y2430970D01*
G03X3313630I7430J10300D01*
G37*
G36*
G01X3071860Y2765450D02*
X3118080Y2724280D01*
X3166970Y2769880D01*
X3118080Y2815720D01*
X3072360Y2781190D01*
G03X3071860Y2765450I9710J-8186D01*
G37*
G36*
G01X3405230Y2777430D02*
X3361920Y2815720D01*
X3313020Y2770000D01*
X3361920Y2724280D01*
X3405230Y2762570D01*
G03Y2777430I-10300J7430D01*
G37*
G36*
G01X3305890Y3009240D02*
X3270480Y2965720D01*
X3316200Y2913650D01*
X3361920Y2965720D01*
X3326510Y3009240D01*
G03X3305890I-10310J-23210D01*
G37*
G36*
G01X3890000Y1180000D02*
Y760000D01*
X3870000Y740000D01*
X3503420D01*
X3500000Y743420D01*
Y1200000D01*
X3870000D01*
X3890000Y1180000D01*
G37*
G36*
G01X3500000Y1580000D02*
Y2040000D01*
X3870000D01*
X3890000Y2020000D01*
Y1600000D01*
X3870000Y1580000D01*
X3500000D01*
G37*
G36*
G01X3890000Y2910000D02*
Y2490000D01*
X3870000Y2470000D01*
X3503420D01*
X3500000Y2473420D01*
Y2930000D01*
X3870000D01*
X3890000Y2910000D01*
G37*
G36*
G01X3824120Y4417380D02*
X3811540Y4429940D01*
X3786820Y4408400D01*
X3811540Y4386860D01*
X3824120Y4399420D01*
G03Y4417380I-8980J8980D01*
G37*
G36*
G01X4633360Y1213360D02*
X4627900D01*
X4506640Y1092100D01*
Y736640D01*
X4500000Y730000D01*
X4030000D01*
Y1070000D01*
X4220000D01*
X4260000Y1110000D01*
Y1250000D01*
X4520000Y1510000D01*
X5500000D01*
X5509260Y1500740D01*
Y1399260D01*
X5610740D01*
X5630000Y1380000D01*
X5490000Y1240000D01*
X4660000D01*
X4633360Y1213360D01*
G37*
G36*
G01X5497980Y1750000D02*
X5340000D01*
X5010000Y2080000D01*
X4570000D01*
X4520000Y2030000D01*
Y1985460D01*
X4506640Y1972100D01*
Y1662100D01*
X4414540Y1570000D01*
X4040000D01*
Y1920000D01*
X4230000D01*
X4260000Y1950000D01*
Y2180000D01*
X4366640Y2286640D01*
X4462100D01*
X4515460Y2340000D01*
X5050000D01*
X5194260Y2195740D01*
Y2191050D01*
X5371050Y2014260D01*
X5375740D01*
X5519930Y1870070D01*
X5517520Y1863890D01*
G03X5517000Y1777480I112481J-43883D01*
G02X5497980Y1750000I-19019J-7159D01*
G37*
G36*
G01X4112150Y1259980D02*
X4045000Y1191000D01*
X4120000Y1157820D01*
X4195000Y1191000D01*
X4127850Y1259980D01*
G03X4112150I-7850J-9980D01*
G37*
G36*
G01X4112500Y2090250D02*
X4053030Y2031000D01*
X4120000Y1997820D01*
X4186970Y2031000D01*
X4127500Y2090250D01*
G03X4112500I-7500J-10250D01*
G37*
G36*
G01X5490000Y3030000D02*
Y2250000D01*
X5539540Y2200460D01*
X5534130Y2193390D01*
G03X5514140Y2086040I95872J-73389D01*
G02X5494640Y2060000I-19500J-5718D01*
G01X5390000D01*
X5240000Y2210000D01*
Y2890000D01*
X5160000Y2970000D01*
X4560000D01*
X4520000Y2930000D01*
Y2845460D01*
X4516640Y2842100D01*
Y2492100D01*
X4494540Y2470000D01*
X4040000D01*
X4030000Y2480000D01*
Y2800000D01*
X4260000D01*
X4270000Y2810000D01*
Y3090000D01*
X4370000Y3190000D01*
X5330000D01*
X5490000Y3030000D01*
G37*
G36*
G01X4112150Y2989980D02*
X4045000Y2921000D01*
X4120000Y2887820D01*
X4195000Y2921000D01*
X4127850Y2989980D01*
G03X4112150I-7850J-9980D01*
G37*
G36*
G01X4613360Y677900D02*
Y1047900D01*
X4635460Y1070000D01*
X4980000D01*
Y260000D01*
X4960000Y240000D01*
X4640000D01*
X4610000Y270000D01*
Y674540D01*
X4613360Y677900D01*
G37*
G36*
G01X4785970Y1153230D02*
X4815000Y1131000D01*
X4893170Y1161030D01*
X4815000Y1191000D01*
X4785770Y1166450D01*
G03X4785970Y1153230I10941J-6446D01*
G37*
G36*
G01X4980000Y1580000D02*
X4630000D01*
X4610000Y1600000D01*
Y1890000D01*
X4630000Y1910000D01*
X4980000D01*
Y1580000D01*
G37*
G36*
G01X4785970Y1993230D02*
X4815000Y1971000D01*
X4893170Y2001030D01*
X4815000Y2031000D01*
X4785770Y2006450D01*
G03X4785970Y1993230I10941J-6446D01*
G37*
G36*
G01X4630000Y2470000D02*
X4623360Y2476640D01*
Y2793360D01*
X4630000Y2800000D01*
X4980000D01*
Y2470000D01*
X4630000D01*
G37*
G36*
G01X4785970Y2883230D02*
X4815000Y2861000D01*
X4893170Y2891030D01*
X4815000Y2921000D01*
X4785770Y2896450D01*
G03X4785970Y2883230I10941J-6446D01*
G37*
G36*
G01X5075880Y3621020D02*
X5088460Y3608460D01*
X5113180Y3630000D01*
X5088460Y3651540D01*
X5075880Y3638980D01*
G03Y3621020I8980J-8980D01*
G37*
G36*
G01X5905230Y4167430D02*
X5861920Y4205720D01*
X5813020Y4160000D01*
X5861920Y4114280D01*
X5905230Y4152570D01*
G03Y4167430I-10300J7430D01*
G37*
G36*
G01X5656370Y4249030D02*
X5618080Y4205720D01*
X5663800Y4156820D01*
X5709520Y4205720D01*
X5671230Y4249030D01*
G03X5656370I-7430J-10300D01*
G37*
G36*
G01X6066020Y4690790D02*
X6109200Y4739040D01*
X6058400Y4803180D01*
X6007600Y4739040D01*
X6050780Y4690790D01*
G03X6066020I7620J10160D01*
G37*
%LPC*%
G75*
G36*
G01X3763540Y4063940D02*
X2886460D01*
X2884750Y4063310D01*
G02Y4196690I-24750J66690D01*
G01X2886460Y4196060D01*
X3763540D01*
X3765250Y4196690D01*
G02Y4063310I24750J-66690D01*
G01X3763540Y4063940D01*
G37*
G54D39*
X5630000Y3620000D03*
G54D40*
X5300000Y4160000D03*
X4800000D03*
G54D38*
X4680000Y4910000D03*
G54D41*
X5442000D03*
G54D37*
X2225000Y5360000D03*
X4255000D03*
%LPD*%
G75*
G54D10*
X330000Y330000D03*
Y5470000D03*
X6170000Y330000D03*
Y5470000D03*
G54D11*
X310000Y1379000D03*
Y1633000D03*
Y1887000D03*
X2225000Y5360000D03*
X4255000D03*
G54D20*
X1900000Y3513500D03*
Y3906500D03*
Y4883500D03*
Y5276500D03*
G54D30*
G01X4300000Y85120D02*
X4289910Y75030D01*
G01X6210000Y1735000D02*
G03I-150000J0D01*
G01Y3405000D02*
G03I-150000J0D01*
G54D12*
X65030Y1510090D03*
Y2018090D03*
Y2526090D03*
Y3034090D03*
Y3542090D03*
Y4050090D03*
Y4558090D03*
X70000Y5010000D03*
X220000D03*
X580000Y1270000D03*
X720000Y1540000D03*
X787910Y2725030D03*
X716200Y2320000D03*
X370000Y3280000D03*
Y3030000D03*
X457910Y2865030D03*
X370000Y3740000D03*
Y3490000D03*
Y4400000D03*
X380000Y4110000D03*
X630000D03*
X380000Y3950000D03*
X630000D03*
X370000Y4550000D03*
Y4680000D03*
X670000Y5200000D03*
X370000Y5020000D03*
X1241910Y75030D03*
X1231910Y405030D03*
X1261910Y905030D03*
X1271910Y1065030D03*
X860000Y1270000D03*
X1271910Y1255030D03*
Y1415030D03*
X1036200Y1740000D03*
X1160000Y2083250D03*
X1057910Y2605030D03*
X1295910Y2725030D03*
X965910Y2865030D03*
X1020000Y3720000D03*
X1100000D03*
Y3640000D03*
Y3560000D03*
Y3480000D03*
X1020000Y3640000D03*
Y3560000D03*
Y3480000D03*
X1290000Y4384000D03*
X1220000Y4840000D03*
X1071910Y5715030D03*
X1749910Y75030D03*
X1739910Y405030D03*
X1779910Y1065030D03*
X1769910Y905030D03*
X1779910Y1415030D03*
Y1255030D03*
X1579910Y1715030D03*
X1569910Y1555030D03*
X1579910Y1905030D03*
Y2065030D03*
X1722750Y1892750D03*
X1720000Y2000000D03*
X1565910Y2605030D03*
X1860000Y2870000D03*
X1470000D03*
X1840000Y3730000D03*
Y3640000D03*
X1720000Y4210000D03*
X1400000Y4130000D03*
Y4270000D03*
Y4530000D03*
Y4630000D03*
X1579910Y5715030D03*
X2257910Y75030D03*
X2247910Y405030D03*
X2019910Y1065030D03*
X2009910Y905030D03*
X2300000Y1290000D03*
X2390000D03*
X2260000Y1670000D03*
X2019910Y1415030D03*
Y1255030D03*
X2390000Y2160000D03*
X2330000D03*
X2059750Y2019750D03*
X2060000Y2110000D03*
X2190000Y2300000D03*
X2070000Y2760000D03*
X2060000Y2320000D03*
Y2530000D03*
X2140000Y2850000D03*
X1960000Y3730000D03*
Y3640000D03*
X1950000Y4210000D03*
X2327910Y4795030D03*
X2097910D03*
X2327910Y5075030D03*
X2097910D03*
X2087910Y5715030D03*
X2765910Y75030D03*
X2755910Y405030D03*
X2720000Y1080000D03*
Y1180000D03*
X2580000Y660000D03*
X2790000D03*
X2960000Y1530000D03*
X2870000D03*
X2840000Y2210000D03*
Y2130000D03*
X2930000Y2410000D03*
X2880000Y3310000D03*
X2900000Y3010000D03*
X2750000Y3020000D03*
X2670000D03*
X2590000D03*
X2510000D03*
X2730000Y3290000D03*
X2630000D03*
Y3200000D03*
Y3100000D03*
X2750000Y3530000D03*
X2640000Y3410000D03*
X2880000Y3470000D03*
X2860000Y4130000D03*
X2477910Y4615030D03*
X2707910D03*
X2557910Y4795030D03*
X2850000Y5070000D03*
X2557910Y5075030D03*
X2595910Y5715030D03*
X3273910Y75030D03*
X3263910Y405030D03*
X2990000Y660000D03*
X3190000D03*
X3306200Y913800D03*
X3400000Y1370000D03*
X3310000Y1410000D03*
X3220000Y1530000D03*
X3306200Y1306200D03*
X3310000Y2260000D03*
X3306200Y1750000D03*
Y2143800D03*
X3050000Y2410000D03*
X3210000D03*
X3316200Y2646200D03*
X3400000Y3310000D03*
X3230000D03*
X3060000D03*
X3316200Y3023800D03*
X3400000Y3470000D03*
X3230000D03*
X3060000D03*
X3140000Y4700000D03*
Y4630000D03*
X3103910Y5715030D03*
X3781910Y75030D03*
X3771910Y405030D03*
X3720000Y1160000D03*
X3790000D03*
X3860000D03*
Y1040000D03*
X3790000D03*
X3720000D03*
X3860000Y910000D03*
X3790000D03*
X3720000D03*
X3860000Y780000D03*
X3790000D03*
X3720000D03*
Y1620000D03*
X3790000D03*
X3860000D03*
X3720000Y1750000D03*
X3790000D03*
X3860000D03*
X3720000Y1880000D03*
X3790000D03*
X3860000D03*
Y2000000D03*
X3790000D03*
X3720000D03*
Y2770000D03*
X3790000D03*
X3860000D03*
X3720000Y2640000D03*
X3790000D03*
X3860000D03*
X3720000Y2510000D03*
X3790000D03*
X3860000D03*
X3720000Y2890000D03*
X3790000D03*
X3860000D03*
X3790000Y4130000D03*
Y4408400D03*
X3676200D03*
X3540000Y4630000D03*
Y4700000D03*
X3676200Y4833800D03*
X3607910Y5215030D03*
Y5495030D03*
X3611910Y5715030D03*
X4289910Y75030D03*
X4115910Y5215030D03*
Y5495030D03*
X4119910Y5715030D03*
X4797910Y75030D03*
X4650000Y780000D03*
X4720000D03*
X4650000Y900000D03*
X4720000D03*
Y1020000D03*
X4650000D03*
Y1630000D03*
X4720000D03*
X4650000Y1870000D03*
X4720000D03*
X4650000Y1750000D03*
X4720000D03*
X4650000Y2760000D03*
X4720000D03*
Y2640000D03*
X4650000D03*
X4720000Y2520000D03*
X4650000D03*
X4990000Y3480000D03*
X5110000Y3630000D03*
X4867910Y5415030D03*
X4627910Y5715030D03*
X5305910Y75030D03*
X5450000Y3480000D03*
X5290000D03*
X5130000D03*
X5147910Y5125030D03*
X5375910Y5415030D03*
X5135910Y5715030D03*
X6040000Y3620000D03*
X5810000Y3480000D03*
X5655910Y5125030D03*
X6440000Y3620000D03*
X6290000Y3480000D03*
X6435030Y3980090D03*
Y4488090D03*
Y4996090D03*
G54D21*
X2370000Y789000D03*
Y916000D03*
Y1043000D03*
Y1170000D03*
X2380000Y1629000D03*
Y1756000D03*
Y1883000D03*
Y2010000D03*
Y2519000D03*
Y2646000D03*
Y2773000D03*
Y2900000D03*
X2910000Y1170000D03*
Y1043000D03*
Y916000D03*
Y789000D03*
X2920000Y1629000D03*
Y2010000D03*
Y1883000D03*
Y1756000D03*
Y2773000D03*
Y2646000D03*
Y2519000D03*
Y2900000D03*
X3580000Y780000D03*
Y907000D03*
Y1034000D03*
Y1161000D03*
Y1620000D03*
Y1747000D03*
Y1874000D03*
Y2001000D03*
Y2510000D03*
Y2637000D03*
Y2764000D03*
Y2891000D03*
X4350000Y780000D03*
Y907000D03*
Y1034000D03*
Y1161000D03*
X4120000D03*
Y1034000D03*
Y907000D03*
Y780000D03*
X4350000Y1620000D03*
X4120000D03*
X4350000Y1747000D03*
Y1874000D03*
Y2001000D03*
X4120000D03*
Y1874000D03*
Y1747000D03*
X4350000Y2510000D03*
Y2637000D03*
Y2764000D03*
X4120000D03*
Y2637000D03*
Y2510000D03*
X4350000Y2891000D03*
X4120000D03*
X4890000Y1161000D03*
Y1034000D03*
Y907000D03*
Y780000D03*
Y1620000D03*
Y2001000D03*
Y1874000D03*
Y1747000D03*
Y2764000D03*
Y2637000D03*
Y2510000D03*
Y2891000D03*
G54D31*
G01X696200Y1160000D02*
Y1236200D01*
X1162250Y1702250D01*
X1290000D01*
G01X696200Y1000000D02*
Y1160000D01*
G01X843800Y3020000D02*
X666200D01*
G01X560000Y4300000D02*
X1090000D01*
G01X843800Y4380000D02*
X666200D01*
G01X1006200Y1000000D02*
Y1160000D01*
G01D02*
Y1476200D01*
X1168750Y1638750D01*
X1290000D01*
G01X800000Y1620000D02*
Y1760000D01*
G01X810000Y1610000D02*
X800000Y1620000D01*
G01X1290000Y1575250D02*
X1434750D01*
X1480000Y1530000D01*
Y740000D01*
X1530000Y690000D01*
X2490000D01*
X2530000Y730000D01*
Y1010000D01*
X2497000Y1043000D01*
X2370000D01*
G01X880000Y1700000D02*
X930000Y1650000D01*
X1040000D01*
X1155750Y1765750D01*
X1290000D01*
G01X1050000Y1990000D02*
X1090000D01*
X1123750Y1956250D01*
X1290000D01*
G01X2060000Y2530000D02*
X1676750Y2146750D01*
X1290000D01*
G01X1036200Y1740000D02*
X1125450Y1829250D01*
X1290000D01*
G01Y2083250D02*
X1160000D01*
G01X1290000Y2019750D02*
X1120250D01*
X1070000Y2070000D01*
Y2261930D01*
X1138070Y2330000D01*
X1760000D01*
X2240000Y2810000D01*
Y3170000D01*
X2700000Y3630000D01*
X5110000D01*
G01X996200Y3170000D02*
Y3020000D01*
G01X1264600Y3175000D02*
X1001200D01*
X996200Y3170000D01*
G01X1323800Y3550000D02*
Y3413800D01*
X1275000Y3365000D01*
X1264600D01*
G01X996200Y4540000D02*
Y4380000D01*
G01X1360000Y4460000D02*
X1250000D01*
X1220000Y4430000D01*
G01X1323800Y4920000D02*
Y4773800D01*
X1285000Y4735000D01*
X1264600D01*
G01Y4545000D02*
X1001200D01*
X996200Y4540000D01*
G01X1890000Y1892750D02*
X1722750D01*
G01X1890000Y1956250D02*
X1763750D01*
X1720000Y2000000D01*
G01X1535400Y3175000D02*
X1645000D01*
X1800000Y3020000D01*
X1803800D01*
G01X1535400Y4545000D02*
X1635000D01*
X1800000Y4380000D01*
X1803800D01*
G01X2370000Y916000D02*
X2254000D01*
X2210000Y960000D01*
Y1460000D01*
X2094750Y1575250D01*
X1890000D01*
G01Y1638750D02*
X2181250D01*
X2270000Y1550000D01*
X2494600D01*
X2530000Y1585400D01*
Y1857600D01*
X2504600Y1883000D01*
X2380000D01*
G01X1890000Y1702250D02*
X2182250D01*
X2236000Y1756000D01*
X2380000D01*
G01X2060000Y2320000D02*
Y2240000D01*
X1966750Y2146750D01*
X1890000D01*
G01Y1765750D02*
X2085750D01*
X2260000Y1940000D01*
Y2320000D01*
X2350000Y2410000D01*
X2480000D01*
X2540000Y2470000D01*
Y2740000D01*
X2507000Y2773000D01*
X2380000D01*
G01Y2646000D02*
X2256000D01*
X2123500Y2513500D01*
Y1893510D01*
X2059240Y1829250D01*
X1890000D01*
G01Y2019750D02*
X2059750D01*
G01X2060000Y2110000D02*
X2033250Y2083250D01*
X1890000D01*
G01X2910000Y1043000D02*
X3146800D01*
X3153800Y1050000D01*
G01X2910000Y789000D02*
X3152800D01*
X3153800Y790000D01*
G01X2920000Y1629000D02*
X3152800D01*
X3153800Y1630000D01*
G01X2920000Y1883000D02*
X3146800D01*
X3153800Y1890000D01*
G01X2920000Y2519000D02*
X3152800D01*
X3153800Y2520000D01*
G01X2920000Y2773000D02*
X3160800D01*
X3163800Y2770000D01*
G01X3306200Y790000D02*
Y693800D01*
X3380000Y620000D01*
X4480000D01*
X4560000Y700000D01*
Y1070000D01*
X4650000Y1160000D01*
X4889000D01*
X4890000Y1161000D01*
G01X4120000D02*
Y1250000D01*
X4090000Y1280000D01*
X3470000D01*
X3440000Y1250000D01*
Y1090000D01*
X3400000Y1050000D01*
X3306200D01*
G01Y1630000D02*
Y1533800D01*
X3390000Y1450000D01*
X4370000D01*
X4560000Y1640000D01*
Y1950000D01*
X4610000Y2000000D01*
X4889000D01*
X4890000Y2001000D01*
G01X4120000D02*
Y2080000D01*
X4070000Y2130000D01*
X3510000D01*
X3450000Y2070000D01*
Y1940000D01*
X3400000Y1890000D01*
X3306200D01*
G01X3316200Y2646200D02*
X3290200D01*
X3290000Y2646000D01*
G01X4890000Y2891000D02*
X4889000Y2890000D01*
X4640000D01*
X4570000Y2820000D01*
Y2470000D01*
X4440000Y2340000D01*
X3390000D01*
X3306200Y2423800D01*
Y2520000D01*
G01X4120000Y2891000D02*
Y2980000D01*
X4090000Y3010000D01*
X3490000D01*
X3450000Y2970000D01*
Y2810000D01*
X3410000Y2770000D01*
X3316200D01*
G01X3790000Y4408400D02*
X5571600D01*
X5663800Y4316200D01*
Y4160000D01*
G01X5816200D02*
X5980000D01*
X6058400Y4238400D01*
Y4800000D01*
G54D13*
X310000Y2141000D03*
G54D22*
X2727300Y1400000D03*
Y2260000D03*
Y3150000D03*
X3072700Y1400000D03*
Y2260000D03*
Y3150000D03*
G54D32*
G01X165200Y1379000D02*
X310000D01*
G01X330000Y330000D02*
Y703400D01*
G01Y330000D02*
X703400D01*
G01X310000Y1234200D02*
Y1379000D01*
G01X330000Y5096600D02*
Y5470000D01*
G01D02*
X703400D01*
G01X4800000Y4014100D02*
Y4160000D01*
G01D02*
Y4305900D01*
G01X4654100Y4160000D02*
X4800000D01*
G01D02*
X4945900D01*
G01X5300000Y4014100D02*
Y4160000D01*
G01D02*
Y4305900D01*
G01X5154100Y4160000D02*
X5300000D01*
G01D02*
X5445900D01*
G01X5442000Y4727100D02*
Y4910000D01*
G01D02*
Y5092900D01*
G01X5259100Y4910000D02*
X5442000D01*
G01D02*
X5624900D01*
G01X6170000Y330000D02*
Y703400D01*
G01X5796600Y330000D02*
X6170000D01*
G01Y5096600D02*
Y5470000D01*
G01X5796600D02*
X6170000D01*
G54D14*
X696200Y1160000D03*
X543800D03*
Y1000000D03*
X696200D03*
X666200Y3170000D03*
X513800D03*
X666200Y3020000D03*
X513800D03*
X666200Y4380000D03*
X513800D03*
X666200Y4540000D03*
X513800D03*
X1006200Y1160000D03*
X853800D03*
Y1000000D03*
X1006200D03*
X883800Y1890000D03*
X1036200D03*
X843800Y3170000D03*
X996200D03*
Y3020000D03*
X843800D03*
X1323800Y3550000D03*
X996200Y4380000D03*
X843800D03*
X1323800Y4920000D03*
X843800Y4540000D03*
X996200D03*
X1803800Y3320000D03*
Y3020000D03*
X1476200Y3550000D03*
X1803800Y4380000D03*
X1476200Y4920000D03*
X1803800Y4690000D03*
X2363800Y1400000D03*
Y2260000D03*
X1956200Y3320000D03*
X2373800Y3150000D03*
X1956200Y3020000D03*
Y4380000D03*
Y4690000D03*
X2516200Y1400000D03*
Y2260000D03*
X2526200Y3150000D03*
X3153800Y1200000D03*
X3306200D03*
Y1050000D03*
X3153800D03*
X3306200Y790000D03*
X3153800D03*
X3306200Y1630000D03*
X3153800D03*
Y2040000D03*
X3306200D03*
Y1890000D03*
X3153800D03*
X3316200Y2770000D03*
X3163800D03*
X3306200Y2520000D03*
X3153800D03*
X3163800Y2920000D03*
X3316200D03*
X5816200Y4160000D03*
X5663800D03*
G54D23*
X4300000Y410000D03*
X4860000D03*
G54D33*
G01X330000Y0D02*
X6170570D01*
G03X6500570Y329430I0J330001D01*
G01X6500000Y5470040D01*
G03X6170000Y5800000I-330001J-41D01*
G01X330000D01*
G03X0Y5470000I0J-330000D01*
G01Y330000D01*
G03X330000Y0I330000J0D01*
G54D24*
X4800000Y4160000D03*
X5300000D03*
G54D15*
X557760Y3380000D03*
X842240D03*
X557760Y3650000D03*
X842240D03*
X557760Y4750000D03*
X842240D03*
X557760Y5020000D03*
X842240D03*
G54D34*
G01X240000Y4220000D02*
Y2790000D01*
X710000Y2320000D01*
X716200D01*
G01X1290000Y4384000D02*
X1126000Y4220000D01*
X240000D01*
G01X779360Y4880640D02*
X410640D01*
X240000Y4710000D01*
Y4220000D01*
G01X720000Y1540000D02*
X440000Y1260000D01*
Y1103800D01*
X543800Y1000000D01*
G01X853800D02*
X753800Y900000D01*
X643800D01*
X543800Y1000000D01*
G01X716200Y2000000D02*
Y1543800D01*
X720000Y1540000D01*
G01X1036200Y1890000D02*
X926200Y2000000D01*
X716200D01*
G01D02*
Y2320000D01*
G01X780000Y4880000D02*
X779360Y4880640D01*
G01X2910000Y916000D02*
X3300000D01*
G01X2920000Y1756000D02*
X3300200D01*
X3306200Y1750000D01*
G01X3290000Y2646000D02*
X2920000D01*
G01X3790000Y4130000D02*
X2860000D01*
G01X3306200Y913800D02*
X3302200D01*
X3300000Y916000D01*
G01D02*
X3354000D01*
X3410000Y860000D01*
Y740000D01*
X3476660Y673340D01*
X3983340D01*
X4090000Y780000D01*
G01X3306200Y1200000D02*
Y1306200D01*
G01X4071900Y1591900D02*
X3983340Y1503340D01*
X3470000D01*
X3410000Y1563340D01*
Y1690000D01*
X3350000Y1750000D01*
X3306200D01*
G01Y2040000D02*
Y2143800D01*
G01X3290000Y2646000D02*
X3369200D01*
X3420000Y2595200D01*
Y2460000D01*
X3480000Y2400000D01*
X3970000D01*
X4080000Y2510000D01*
G01X3316200Y2920000D02*
Y3023800D01*
G01X3676200Y4408400D02*
Y4833800D01*
G01X4090000Y780000D02*
X4120000D01*
G01X4080000Y2510000D02*
X4120000D01*
G54D25*
X4680000Y4910000D03*
X5442000D03*
G54D16*
X1290000Y1575250D03*
Y1638750D03*
Y1702250D03*
Y1765750D03*
Y1829250D03*
Y1892750D03*
Y1956250D03*
Y2019750D03*
Y2083250D03*
Y2146750D03*
X1890000Y1702250D03*
Y1638750D03*
Y1575250D03*
Y2146750D03*
Y2083250D03*
Y2019750D03*
Y1956250D03*
Y1892750D03*
Y1829250D03*
Y1765750D03*
G54D35*
G01X1535400Y3270000D02*
X1660000D01*
G01X1535400Y4640000D02*
X1690000D01*
G54D26*
X5630000Y1520000D03*
G54D17*
X880000Y1700000D03*
X850000Y3960000D03*
Y5330000D03*
G54D36*
G01X5630000Y1520000D02*
X5460000Y1350000D01*
G01X5360000Y1880000D02*
X5420000Y1820000D01*
G01D02*
X5630000D01*
G01X5350000Y2250000D02*
X5480000Y2120000D01*
G01D02*
X5630000D01*
G54D27*
D03*
Y1820000D03*
Y2720000D03*
Y2420000D03*
Y3320000D03*
Y3020000D03*
Y3620000D03*
G54D18*
X1264600Y3175000D03*
Y3270000D03*
Y3365000D03*
Y4545000D03*
Y4640000D03*
Y4735000D03*
X1535400Y3270000D03*
Y3175000D03*
Y3365000D03*
Y4640000D03*
Y4735000D03*
Y4545000D03*
G54D28*
X6058400Y4800000D03*
X6261600D03*
G54D19*
X1040000Y3960000D03*
Y5330000D03*
X1620000Y3960000D03*
Y5330000D03*
G54D29*
G01X1290000Y1892750D02*
X1038950D01*
X1036200Y1890000D01*
M02*
