M48
METRIC,TZ
T01C.3048
T02C.889
;LEADER: 12 
;HEADER: 
;CODE  : ASCII 
;FILE  : RS485PROTECT_V10A-1-2.drl for board H:/GitHub/MBEDBoard/RS485PROTECT_V10A/PCB/#Taaaaad10452.tmp ... layers TOP and BOTTOM
;T01 Holesize 1. = 0.304800 Tolerance = +0.000000/-0.000000 PLATED MM Quantity = 18
;T02 Holesize 2. = 0.889000 Tolerance = +0.000000/-0.000000 PLATED MM Quantity = 10
%
G90
T01
X750000Y90000
X750000Y220000
X890000Y90000
X890000Y220000
X1800000Y120000
X1800000Y250000
X2329510Y113180
X2510000Y110000
X2159510Y1263180
X2540000Y1460000
X2359510Y1463180
X2159510Y1463180
X1930000Y1500000
X1930000Y1370000
X890000Y1450000
X890000Y1320000
X750000Y1450000
X750000Y1320000
T02
X160000Y140000
X160000Y394000
X160000Y648000
X160000Y902000
X160000Y1156000
X160000Y1410000
X2430000Y1151000
X2430000Y897000
X2430000Y643000
X2430000Y389000
M30
