G04 ================== begin FILE IDENTIFICATION RECORD ==================*
G04 Layout Name:  F:/Ñ¸À×ÏÂÔØ/45_STM32F407/F407_PACK_V10A/PCB/F407_PACK_V10A.brd*
G04 Film Name:    TOP*
G04 File Format:  Gerber RS274X*
G04 File Origin:  Cadence Allegro 16.6-2015-S060*
G04 Origin Date:  Mon Feb 15 12:10:04 2016*
G04 *
G04 Layer:  BOARD GEOMETRY/OUTLINE*
G04 Layer:  ETCH/TOP*
G04 Layer:  PIN/TOP*
G04 Layer:  VIA CLASS/TOP*
G04 *
G04 Offset:    (0.0000 0.0000)*
G04 Mirror:    No*
G04 Mode:      Positive*
G04 Rotation:  0*
G04 FullContactRelief:  No*
G04 UndefLineWidth:     0.1524*
G04 ================== end FILE IDENTIFICATION RECORD ====================*
%FSLAX35Y35*MOMM*%
%IR0*IPPOS*OFA0.00000B0.00000*MIA0B0*SFA1.00000B1.00000*%
%ADD52R,1.X.23*%
%ADD51R,.23X1.*%
%ADD61R,1.4X.4*%
%ADD19R,1.X.8*%
%ADD24R,2.2X.6*%
%ADD20R,.8X1.*%
%ADD15R,1.5X.6*%
%ADD33O,.254X2.032*%
%ADD43R,.7X1.7*%
%ADD34O,2.032X.254*%
%ADD57R,1.06X.65*%
%ADD25R,.55X1.145*%
%ADD17R,1.145X.55*%
%ADD44C,.75*%
%ADD13C,.508*%
%ADD41C,.762*%
%ADD35R,1.905X.4318*%
%ADD54O,1.778X.6604*%
%ADD58O,4.X2.*%
%ADD48O,2.X4.*%
%ADD45O,1.5X3.*%
%ADD30R,1.8X1.*%
%ADD62R,2.X1.8*%
%ADD16R,1.X1.8*%
%ADD55R,2.X5.5*%
%ADD38R,2.4X2.4*%
%ADD42R,1.4X1.15*%
%ADD12R,5.X2.5*%
%ADD18R,.8X.3*%
%ADD26R,.3X.8*%
%ADD22R,.6X.5*%
%ADD56R,1.8X3.6*%
%ADD23R,.6X.7*%
%ADD46C,3.3*%
%ADD47C,1.6*%
%ADD28C,2.032*%
%ADD29C,1.016*%
%ADD60C,2.7*%
%ADD36C,1.27*%
%ADD32R,1.016X1.2192*%
%ADD50R,3.1X3.1*%
%ADD59R,.45X.47*%
%ADD11C,1.524*%
%ADD49R,1.6X1.6*%
%ADD40R,.85X.28*%
%ADD10C,6.35*%
%ADD39R,.28X.85*%
%ADD14C,1.905*%
%ADD21R,1.524X1.524*%
%ADD31C,1.778*%
%ADD27R,3.048X1.6764*%
%ADD53C,1.6993*%
%ADD37R,.9144X.9144*%
%ADD63C,.2032*%
%ADD64C,.17*%
%ADD65C,.127*%
%ADD66C,.254*%
%ADD67C,2.2722*%
G75*
%LPD*%
G75*
G36*
G01X260350Y7943850D02*
Y8026400D01*
X162850Y8028650D01*
X165100Y7931150D01*
X247650D01*
G03X260350Y7943850I0J12700D01*
G37*
G36*
G01X181800Y8603510D02*
X234870Y8656300D01*
X174500Y8689480D01*
X114130Y8656300D01*
X167200Y8603510D01*
G03X181800I7300J10390D01*
G37*
G36*
G01X258100Y8983000D02*
X99500Y8970300D01*
X162550Y8936010D01*
X249500Y8910300D01*
X270670Y8968500D01*
G03X258100Y8983000I-12570J1802D01*
G37*
G36*
G01X183690Y9178350D02*
X217100Y9231800D01*
X166930Y9324970D01*
X117100Y9231800D01*
X166700Y9177090D01*
G03X183690Y9178350I7799J10021D01*
G37*
G36*
G01X166390Y9169360D02*
X99500Y9097300D01*
X174500Y9064120D01*
X249500Y9097300D01*
X182610Y9169360D01*
G03X166390I-8110J-9770D01*
G37*
G36*
G01X258900Y9795060D02*
X209450Y9740500D01*
X266700Y9709820D01*
X323950Y9740500D01*
X274500Y9795060D01*
G03X258900I-7800J-10020D01*
G37*
G36*
G01X274500Y9710940D02*
X323950Y9765500D01*
X266700Y9796180D01*
X209450Y9765500D01*
X258900Y9710940D01*
G03X274500I7800J10020D01*
G37*
G36*
G01X273140Y10516320D02*
X258300Y10529400D01*
X215120Y10514400D01*
X258300Y10499400D01*
X273140Y10512480D01*
G03Y10516320I-12550J1920D01*
G37*
G36*
G01X163460Y10512480D02*
X178300Y10499400D01*
X221480Y10514400D01*
X178300Y10529400D01*
X163460Y10516320D01*
G03Y10512480I12550J-1920D01*
G37*
G36*
G01X139700Y10515600D02*
X127000D01*
X124750Y10487950D01*
X152400Y10490200D01*
Y10502900D01*
G03X139700Y10515600I-12700J0D01*
G37*
G36*
G01X162500Y10360090D02*
X178300Y10349400D01*
X221470Y10364490D01*
X178300Y10379400D01*
X162390Y10365870D01*
G03X162500Y10360090I12420J-2655D01*
G37*
G36*
G01X183480Y10026980D02*
X209450Y10005500D01*
X269880Y10033000D01*
X209450Y10060500D01*
X183480Y10039020D01*
G03Y10026980I11180J-6020D01*
G37*
G36*
G01X153940Y10041980D02*
X144950Y10050950D01*
X123820Y10033000D01*
X144950Y10015050D01*
X153940Y10024020D01*
G03Y10041980I-8980J8980D01*
G37*
G36*
G01X329080Y11036060D02*
X291300Y11068900D01*
X238120Y11028900D01*
X291300Y10988900D01*
X329080Y11021740D01*
G03Y11036060I-10490J7160D01*
G37*
G36*
G01X165100Y10731500D02*
X152400D01*
X150150Y10703850D01*
X177800Y10706100D01*
Y10718800D01*
G03X165100Y10731500I-12700J0D01*
G37*
G36*
G01X280540Y11241380D02*
X201300Y11223900D01*
X239430Y11171340D01*
X281300Y11123900D01*
X294000Y11228700D01*
G03X280540Y11241380I-12703J0D01*
G37*
G36*
G01X153830Y11166310D02*
X201300Y11123900D01*
X244480Y11173900D01*
X201300Y11223900D01*
X153830Y11181490D01*
G03Y11166310I10180J-7590D01*
G37*
G36*
G01X814520Y1356720D02*
X785780Y1327980D01*
X821700Y1320800D01*
Y1349540D01*
X814520Y1356720D01*
G37*
G36*
G01X646670Y1327980D02*
X599980Y1374670D01*
X543560Y1320800D01*
X599980Y1266930D01*
X646670Y1313620D01*
G03Y1327980I-7180J7180D01*
G37*
G36*
G01X827300Y1419590D02*
X851700Y1447900D01*
X821700Y1485440D01*
X791700Y1447900D01*
X816100Y1419590D01*
G03X827300I5600J8480D01*
G37*
G36*
G01X646670Y1581980D02*
X599980Y1628670D01*
X543560Y1574800D01*
X599980Y1520930D01*
X646670Y1567620D01*
G03Y1581980I-7180J7180D01*
G37*
G36*
G01X766340Y1569430D02*
X791700Y1547900D01*
X824240Y1572800D01*
X791700Y1597900D01*
X766740Y1580760D01*
G03X766340Y1569430I8229J-5963D01*
G37*
G36*
G01X768130Y1647720D02*
X791700Y1627900D01*
X824240Y1652900D01*
X791700Y1677900D01*
X768130Y1658080D01*
G03Y1647720I8740J-5180D01*
G37*
G36*
G01X622300Y1762760D02*
Y1828800D01*
X544300Y1830600D01*
X546100Y1752600D01*
X612140D01*
G03X622300Y1762760I0J10160D01*
G37*
G36*
G01X612140Y2667000D02*
X546100D01*
X544300Y2589000D01*
X622300Y2590800D01*
Y2656840D01*
G03X612140Y2667000I-10160J0D01*
G37*
G36*
G01X622300Y2524760D02*
Y2590800D01*
X544300Y2592600D01*
X546100Y2514600D01*
X612140D01*
G03X622300Y2524760I0J10160D01*
G37*
G36*
G01X602420Y4981740D02*
X591650Y4970960D01*
X609600Y4950460D01*
X627550Y4970960D01*
X616780Y4981740D01*
G03X602420I-7180J-7190D01*
G37*
G36*
G01X616780Y5305260D02*
X627550Y5316040D01*
X609600Y5336540D01*
X591650Y5316040D01*
X602420Y5305260D01*
G03X616780I7180J7190D01*
G37*
G36*
G01X750840Y6193880D02*
X741850Y6202850D01*
X720720Y6184900D01*
X741850Y6166950D01*
X750840Y6175920D01*
G03Y6193880I-8980J8980D01*
G37*
G36*
G01X835490Y6318240D02*
X807200Y6341900D01*
X694020Y6311900D01*
X807200Y6281900D01*
X835490Y6305560D01*
G03Y6318240I-11000J6340D01*
G37*
G36*
G01X680280Y6201450D02*
X707350Y6228520D01*
X683260Y6238240D01*
X662940D01*
X638850Y6228520D01*
X665920Y6201450D01*
G03X680280I7180J7180D01*
G37*
G36*
G01X508000Y6235700D02*
X507990Y6305550D01*
X416850Y6314150D01*
X425450Y6223010D01*
X495300Y6223000D01*
G03X508000Y6235700I0J12700D01*
G37*
G36*
G01X835510Y6444500D02*
X807200Y6468900D01*
X694660Y6438900D01*
X807200Y6408900D01*
X835510Y6433300D01*
G03Y6444500I-8480J5600D01*
G37*
G36*
G01X544820Y6574880D02*
X486440Y6633240D01*
X415920Y6565900D01*
X486440Y6498560D01*
X544820Y6556920D01*
G03Y6574880I-8980J8980D01*
G37*
G36*
G01X835490Y6572240D02*
X807200Y6595900D01*
X694020Y6565900D01*
X807200Y6535900D01*
X835490Y6559560D01*
G03Y6572240I-11000J6340D01*
G37*
G36*
G01X558910Y6559560D02*
X587200Y6535900D01*
X700380Y6565900D01*
X587200Y6595900D01*
X558910Y6572240D01*
G03Y6559560I11000J-6340D01*
G37*
G36*
G01X835510Y6698500D02*
X807200Y6722900D01*
X694660Y6692900D01*
X807200Y6662900D01*
X835510Y6687300D01*
G03Y6698500I-8480J5600D01*
G37*
G36*
G01X552690Y7326000D02*
X444700Y7356130D01*
X416130Y7263270D01*
X508970Y7234880D01*
X559640Y7306430D01*
G03X552690Y7326000I-10362J7339D01*
G37*
G36*
G01X722610Y8584240D02*
X789500Y8656300D01*
X714500Y8689480D01*
X639500Y8656300D01*
X706390Y8584240D01*
G03X722610I8110J9770D01*
G37*
G36*
G01X639760Y8767500D02*
X789500Y8783300D01*
X726120Y8818430D01*
X639500Y8843300D01*
X626800Y8780200D01*
G03X639760Y8767500I12703J0D01*
G37*
G36*
G01X791500Y8856000D02*
X639500Y8843300D01*
X702670Y8808690D01*
X789500Y8783300D01*
X804190Y8842880D01*
G03X791500Y8856000I-12690J423D01*
G37*
G36*
G01X319660Y9314710D02*
X367110Y9266930D01*
X420280Y9321800D01*
X367110Y9376670D01*
X319660Y9328890D01*
G03Y9314710I10540J-7090D01*
G37*
G36*
G01X766890Y9170820D02*
X693230Y9097300D01*
X712780Y9064630D01*
X788700Y9084810D01*
X787190Y9163100D01*
G03X766890Y9170820I-12492J-2298D01*
G37*
G36*
G01X783680Y9180560D02*
X792650Y9189550D01*
X774700Y9210680D01*
X756750Y9189550D01*
X765720Y9180560D01*
G03X783680I8980J8980D01*
G37*
G36*
G01X420640Y9961980D02*
X411650Y9970950D01*
X390520Y9953000D01*
X411650Y9935050D01*
X420640Y9944020D01*
G03Y9961980I-8980J8980D01*
G37*
G36*
G01X366760Y9944020D02*
X375750Y9935050D01*
X396880Y9953000D01*
X375750Y9970950D01*
X366760Y9961980D01*
G03Y9944020I8980J-8980D01*
G37*
G36*
G01X349920Y9959020D02*
X323950Y9980500D01*
X263520Y9953000D01*
X323950Y9925500D01*
X349920Y9946980D01*
G03Y9959020I-11180J6020D01*
G37*
G36*
G01X423480Y9946980D02*
X449450Y9925500D01*
X509880Y9953000D01*
X449450Y9980500D01*
X423480Y9959020D01*
G03Y9946980I11180J-6020D01*
G37*
G36*
G01X365460Y9784020D02*
X374450Y9775050D01*
X395580Y9793000D01*
X374450Y9810950D01*
X365460Y9801980D01*
G03Y9784020I8980J-8980D01*
G37*
G36*
G01X349920Y9799020D02*
X323950Y9820500D01*
X263520Y9793000D01*
X323950Y9765500D01*
X349920Y9786980D01*
G03Y9799020I-11180J6020D01*
G37*
G36*
G01X285890Y9624940D02*
X359200Y9555750D01*
X389800Y9612320D01*
X359200Y9670250D01*
X289270Y9643950D01*
G03X285890Y9624940I6432J-10949D01*
G37*
G36*
G01X380680Y9696220D02*
X359200Y9670250D01*
X386700Y9609820D01*
X414200Y9670250D01*
X392720Y9696220D01*
G03X380680I-6020J-11180D01*
G37*
G36*
G01X395680Y9682860D02*
X404650Y9691850D01*
X386700Y9712980D01*
X368750Y9691850D01*
X377720Y9682860D01*
G03X395680I8980J8980D01*
G37*
G36*
G01X349920Y9639020D02*
X323950Y9660500D01*
X263520Y9633000D01*
X323950Y9605500D01*
X349920Y9626980D01*
G03Y9639020I-11180J6020D01*
G37*
G36*
G01X589920Y9719020D02*
X563950Y9740500D01*
X503520Y9713000D01*
X563950Y9685500D01*
X589920Y9706980D01*
G03Y9719020I-11180J6020D01*
G37*
G36*
G01X622300Y9728200D02*
X635000D01*
X637250Y9755850D01*
X609600Y9753600D01*
Y9740900D01*
G03X622300Y9728200I12700J0D01*
G37*
G36*
G01X589920Y9639020D02*
X563950Y9660500D01*
X503520Y9633000D01*
X563950Y9605500D01*
X589920Y9626980D01*
G03Y9639020I-11180J6020D01*
G37*
G36*
G01X609600Y9601200D02*
Y9588500D01*
X637250Y9586250D01*
X635000Y9613900D01*
X622300D01*
G03X609600Y9601200I0J-12700D01*
G37*
G36*
G01X511140Y10567180D02*
X478300Y10529400D01*
X518300Y10511220D01*
X558300Y10529400D01*
X525460Y10567180D01*
G03X511140I-7160J-10490D01*
G37*
G36*
G01X388200Y10384880D02*
X352280Y10420800D01*
X340120Y10388600D01*
Y10363200D01*
X352280Y10331000D01*
X388200Y10366920D01*
G03Y10384880I-8980J8980D01*
G37*
G36*
G01X441380Y10344240D02*
X428300Y10329400D01*
X443300Y10286220D01*
X458300Y10329400D01*
X445220Y10344240D01*
G03X441380I-1920J-12550D01*
G37*
G36*
G01X341380D02*
X328300Y10329400D01*
X343300Y10286220D01*
X358300Y10329400D01*
X345220Y10344240D01*
G03X341380I-1920J-12550D01*
G37*
G36*
G01X384320Y10530240D02*
X375350Y10521250D01*
X393300Y10500120D01*
X411250Y10521250D01*
X402280Y10530240D01*
G03X384320I-8980J-8980D01*
G37*
G36*
G01X295220Y10234560D02*
X308300Y10249400D01*
X293300Y10292580D01*
X278300Y10249400D01*
X291380Y10234560D01*
G03X295220I1920J12550D01*
G37*
G36*
G01X546110Y10248910D02*
X533410D01*
X531160Y10221260D01*
X558810Y10223510D01*
Y10236210D01*
G03X546110Y10248910I-12700J0D01*
G37*
G36*
G01X520710Y10198110D02*
X533410D01*
X535660Y10225760D01*
X508010Y10223510D01*
Y10210810D01*
G03X520710Y10198110I12700J0D01*
G37*
G36*
G01X525590Y10134020D02*
X451940Y10060490D01*
X505810Y10029950D01*
X563950Y10060500D01*
X544840Y10129510D01*
G03X525590Y10134020I-11444J-5509D01*
G37*
G36*
G01X542380Y10107660D02*
X551350Y10116650D01*
X533400Y10137780D01*
X515450Y10116650D01*
X524420Y10107660D01*
G03X542380I8980J8980D01*
G37*
G36*
G01X546100Y10160000D02*
X533400D01*
X531150Y10132350D01*
X558800Y10134600D01*
Y10147300D01*
G03X546100Y10160000I-12700J0D01*
G37*
G36*
G01X452280Y10677960D02*
X461250Y10686950D01*
X443300Y10708080D01*
X425350Y10686950D01*
X434320Y10677960D01*
G03X452280I8980J8980D01*
G37*
G36*
G01X441380Y10644240D02*
X428300Y10629400D01*
X443300Y10586220D01*
X458300Y10629400D01*
X445220Y10644240D01*
G03X441380I-1920J-12550D01*
G37*
G36*
G01X355600Y10680700D02*
X368300D01*
X370550Y10708350D01*
X342900Y10706100D01*
Y10693400D01*
G03X355600Y10680700I12700J0D01*
G37*
G36*
G01X341380Y10644240D02*
X328300Y10629400D01*
X343300Y10586220D01*
X358300Y10629400D01*
X345220Y10644240D01*
G03X341380I-1920J-12550D01*
G37*
G36*
G01X395220Y10534560D02*
X408300Y10549400D01*
X393300Y10592580D01*
X378300Y10549400D01*
X391380Y10534560D01*
G03X395220I1920J12550D01*
G37*
G36*
G01X291380Y10644240D02*
X278300Y10629400D01*
X293300Y10586220D01*
X308300Y10629400D01*
X295220Y10644240D01*
G03X291380I-1920J-12550D01*
G37*
G36*
G01X302280Y10677960D02*
X311250Y10686950D01*
X293300Y10708080D01*
X275350Y10686950D01*
X284320Y10677960D01*
G03X302280I8980J8980D01*
G37*
G36*
G01X478770Y10891490D02*
X431300Y10933900D01*
X388120Y10883900D01*
X431300Y10833900D01*
X478770Y10876310D01*
G03Y10891490I-10180J7590D01*
G37*
G36*
G01X524020Y10977650D02*
X501300Y10933900D01*
X541590Y10880740D01*
X581300Y10933900D01*
X540920Y10979320D01*
G03X524020Y10977650I-7521J-10231D01*
G37*
G36*
G01X453830Y10876310D02*
X501300Y10833900D01*
X544480Y10883900D01*
X501300Y10933900D01*
X453830Y10891490D01*
G03Y10876310I10180J-7590D01*
G37*
G36*
G01X444000Y11113000D02*
X431300Y11223900D01*
X389560Y11176550D01*
X351300Y11123900D01*
X429590Y11100420D01*
G03X444000Y11113000I1714J12580D01*
G37*
G36*
G01X1284700Y605600D02*
Y529400D01*
X1390790Y524910D01*
X1386300Y631000D01*
X1310100D01*
G03X1284700Y605600I0J-25400D01*
G37*
G36*
G01X1092200Y1778000D02*
Y1447800D01*
X952500D01*
Y1778000D01*
X1092200D01*
G37*
G36*
G01X875270Y1578080D02*
X851700Y1597900D01*
X819160Y1572900D01*
X851700Y1547900D01*
X875270Y1567720D01*
G03Y1578080I-8740J5180D01*
G37*
G36*
G01X981930Y3815630D02*
X1035970Y3869400D01*
X974600Y3902580D01*
X913230Y3869400D01*
X967270Y3815630D01*
G03X981930I7330J10370D01*
G37*
G36*
G01X871310Y4020060D02*
X899600Y3996400D01*
X977780Y4026400D01*
X899600Y4056400D01*
X871310Y4032740D01*
G03Y4020060I11000J-6340D01*
G37*
G36*
G01Y4147060D02*
X899600Y4123400D01*
X977780Y4153400D01*
X899600Y4183400D01*
X871310Y4159740D01*
G03Y4147060I11000J-6340D01*
G37*
G36*
G01X1177760Y4435640D02*
X1206500Y4406900D01*
Y4445800D01*
X1177760D01*
Y4435640D01*
G37*
G36*
G01X1079500Y4686300D02*
X1066800D01*
X1064550Y4658650D01*
X1092200Y4660900D01*
Y4673600D01*
G03X1079500Y4686300I-12700J0D01*
G37*
G36*
G01X1183140Y5012280D02*
X1173650Y5021750D01*
X1152530Y5003890D01*
X1173140Y4985360D01*
X1182630Y4993830D01*
G03X1183140Y5012280I-8469J9466D01*
G37*
G36*
G01X966490Y4978360D02*
X899600Y4906300D01*
X974600Y4873120D01*
X1049600Y4906300D01*
X982710Y4978360D01*
G03X966490I-8110J-9770D01*
G37*
G36*
G01X1058200Y5046000D02*
X899600Y5033300D01*
X962650Y4999010D01*
X1049600Y4973300D01*
X1070770Y5031500D01*
G03X1058200Y5046000I-12570J1802D01*
G37*
G36*
G01X982710Y4901240D02*
X1049600Y4973300D01*
X974600Y5006480D01*
X899600Y4973300D01*
X966490Y4901240D01*
G03X982710I8110J9770D01*
G37*
G36*
G01X888640Y4711210D02*
X1049600Y4719300D01*
X986780Y4752910D01*
X899600Y4779300D01*
X876530Y4726290D01*
G03X888640Y4711210I12471J-2388D01*
G37*
G36*
G01X900420Y5077930D02*
X1049600Y5100300D01*
X985820Y5136240D01*
X899600Y5160300D01*
X886900Y5090600D01*
G03X900420Y5077930I12697J0D01*
G37*
G36*
G01X956220Y5297440D02*
X947250Y5288450D01*
X965200Y5267320D01*
X983150Y5288450D01*
X974180Y5297440D01*
G03X956220I-8980J-8980D01*
G37*
G36*
G01X974180Y5865860D02*
X983150Y5874850D01*
X965200Y5895980D01*
X947250Y5874850D01*
X956220Y5865860D01*
G03X974180I8980J8980D01*
G37*
G36*
G01X886460Y5994400D02*
X901700D01*
X903500Y6021600D01*
X876300Y6019800D01*
Y6004560D01*
G03X886460Y5994400I10160J0D01*
G37*
G36*
G01X1001760Y6302920D02*
X1010750Y6293950D01*
X1031880Y6311900D01*
X1010750Y6329850D01*
X1001760Y6320880D01*
G03Y6302920I8980J-8980D01*
G37*
G36*
G01X1282700Y6413500D02*
X1295400D01*
X1297650Y6441150D01*
X1270000Y6438900D01*
Y6426200D01*
G03X1282700Y6413500I12700J0D01*
G37*
G36*
G01X1322340Y6447880D02*
X1313350Y6456850D01*
X1292220Y6438900D01*
X1313350Y6420950D01*
X1322340Y6429920D01*
G03Y6447880I-8980J8980D01*
G37*
G36*
G01X1280160Y6540500D02*
X1295400D01*
X1297200Y6567700D01*
X1270000Y6565900D01*
Y6550660D01*
G03X1280160Y6540500I10160J0D01*
G37*
G36*
G01X1322340Y6574880D02*
X1313350Y6583850D01*
X1292220Y6565900D01*
X1313350Y6547950D01*
X1322340Y6556920D01*
G03Y6574880I-8980J8980D01*
G37*
G36*
G01X979440D02*
X970450Y6583850D01*
X949320Y6565900D01*
X970450Y6547950D01*
X979440Y6556920D01*
G03Y6574880I-8980J8980D01*
G37*
G36*
G01X925560Y6556920D02*
X934550Y6547950D01*
X955680Y6565900D01*
X934550Y6583850D01*
X925560Y6574880D01*
G03Y6556920I8980J-8980D01*
G37*
G36*
G01X1088860Y6685720D02*
X1099640Y6674950D01*
X1120140Y6692900D01*
X1099640Y6710850D01*
X1088860Y6700080D01*
G03Y6685720I7190J-7180D01*
G37*
G36*
G01X1129120Y7260680D02*
X1095270Y7294510D01*
X1038220Y7251700D01*
X1095270Y7208890D01*
X1129120Y7242720D01*
G03Y7260680I-8980J8980D01*
G37*
G36*
G01X1207680Y7242720D02*
X1241530Y7208890D01*
X1298580Y7251700D01*
X1241530Y7294510D01*
X1207680Y7260680D01*
G03Y7242720I8980J-8980D01*
G37*
G36*
G01X1132740Y7761270D02*
X1117580Y7780200D01*
X1038220Y7759700D01*
X1117580Y7739200D01*
X1132740Y7758130D01*
G03Y7761270I-12600J1570D01*
G37*
G36*
G01X1207680Y7750720D02*
X1241530Y7716890D01*
X1298580Y7759700D01*
X1241530Y7802510D01*
X1207680Y7768680D01*
G03Y7750720I8980J-8980D01*
G37*
G36*
G01X1360940Y8123780D02*
X1351950Y8132750D01*
X1330820Y8114800D01*
X1351950Y8096850D01*
X1360940Y8105820D01*
G03Y8123780I-8980J8980D01*
G37*
G36*
G01Y8250780D02*
X1351950Y8259750D01*
X1330820Y8241800D01*
X1351950Y8223850D01*
X1360940Y8232820D01*
G03Y8250780I-8980J8980D01*
G37*
G36*
G01X1128260Y8105820D02*
X1137250Y8096850D01*
X1158380Y8114800D01*
X1137250Y8132750D01*
X1128260Y8123780D01*
G03Y8105820I8980J-8980D01*
G37*
G36*
G01X1077890Y8121140D02*
X1049600Y8144800D01*
X971420Y8114800D01*
X1049600Y8084800D01*
X1077890Y8108460D01*
G03Y8121140I-11000J6340D01*
G37*
G36*
G01X871310Y8362460D02*
X899600Y8338800D01*
X977780Y8368800D01*
X899600Y8398800D01*
X871310Y8375140D01*
G03Y8362460I11000J-6340D01*
G37*
G36*
G01X1090160Y8804320D02*
X1099150Y8795350D01*
X1120280Y8813300D01*
X1099150Y8831250D01*
X1090160Y8822280D01*
G03Y8804320I8980J-8980D01*
G37*
G36*
G01X1077890Y8819640D02*
X1049600Y8843300D01*
X971420Y8813300D01*
X1049600Y8783300D01*
X1077890Y8806960D01*
G03Y8819640I-11000J6340D01*
G37*
G36*
G01X1090160Y8677320D02*
X1099150Y8668350D01*
X1120280Y8686300D01*
X1099150Y8704250D01*
X1090160Y8695280D01*
G03Y8677320I8980J-8980D01*
G37*
G36*
G01X1077890Y8692640D02*
X1049600Y8716300D01*
X971420Y8686300D01*
X1049600Y8656300D01*
X1077890Y8679960D01*
G03Y8692640I-11000J6340D01*
G37*
G36*
G01X1360940Y8377780D02*
X1351950Y8386750D01*
X1330820Y8368800D01*
X1351950Y8350850D01*
X1360940Y8359820D01*
G03Y8377780I-8980J8980D01*
G37*
G36*
G01X1077890Y8502140D02*
X1049600Y8525800D01*
X971420Y8495800D01*
X1049600Y8465800D01*
X1077890Y8489460D01*
G03Y8502140I-11000J6340D01*
G37*
G36*
G01X1342480Y8659860D02*
X1351450Y8668850D01*
X1333500Y8689980D01*
X1315550Y8668850D01*
X1324520Y8659860D01*
G03X1342480I8980J8980D01*
G37*
G36*
G01X870840Y8489900D02*
X899600Y8465800D01*
X977770Y8495780D01*
X899600Y8525800D01*
X870930Y8502860D01*
G03X870840Y8489900I10879J-6556D01*
G37*
G36*
G01X1360940Y8504780D02*
X1351950Y8513750D01*
X1330820Y8495800D01*
X1351950Y8477850D01*
X1360940Y8486820D01*
G03Y8504780I-8980J8980D01*
G37*
G36*
G01X1308100Y8826500D02*
Y8813800D01*
X1335750Y8811550D01*
X1333500Y8839200D01*
X1320800D01*
G03X1308100Y8826500I0J-12700D01*
G37*
G36*
G01X1360440Y8822780D02*
X1351450Y8831750D01*
X1330320Y8813800D01*
X1351450Y8795850D01*
X1360440Y8804820D01*
G03Y8822780I-8980J8980D01*
G37*
G36*
G01Y8695780D02*
X1351450Y8704750D01*
X1330320Y8686800D01*
X1351450Y8668850D01*
X1360440Y8677820D01*
G03Y8695780I-8980J8980D01*
G37*
G36*
G01X1090160Y9058320D02*
X1099150Y9049350D01*
X1120280Y9067300D01*
X1099150Y9085250D01*
X1090160Y9076280D01*
G03Y9058320I8980J-8980D01*
G37*
G36*
G01X1077890Y9073640D02*
X1049600Y9097300D01*
X971420Y9067300D01*
X1049600Y9037300D01*
X1077890Y9060960D01*
G03Y9073640I-11000J6340D01*
G37*
G36*
G01X1090160Y8931320D02*
X1099150Y8922350D01*
X1120280Y8940300D01*
X1099150Y8958250D01*
X1090160Y8949280D01*
G03Y8931320I8980J-8980D01*
G37*
G36*
G01X1077890Y8946640D02*
X1049600Y8970300D01*
X971420Y8940300D01*
X1049600Y8910300D01*
X1077890Y8933960D01*
G03Y8946640I-11000J6340D01*
G37*
G36*
G01X1360440Y9076280D02*
X1351450Y9085250D01*
X1330320Y9067300D01*
X1351450Y9049350D01*
X1360440Y9058320D01*
G03Y9076280I-8980J8980D01*
G37*
G36*
G01X2289140Y10060640D02*
X1223060D01*
Y9931400D01*
X1193800D01*
Y10179560D01*
X1304140D01*
Y11995640D01*
X1193800D01*
Y12115800D01*
X2476500D01*
Y11995640D01*
X2358060D01*
Y10179560D01*
X2476500D01*
Y9931400D01*
X2289140D01*
Y10060640D01*
G37*
G36*
G01X1041400Y9585960D02*
Y9601200D01*
X1014200Y9603000D01*
X1016000Y9575800D01*
X1031240D01*
G03X1041400Y9585960I0J10160D01*
G37*
G36*
G01X1318480Y10123810D02*
X1271100Y10162600D01*
X1174750Y10112600D01*
X1271100Y10062600D01*
X1318480Y10101390D01*
G03Y10123810I-22790J11210D01*
G37*
G36*
G01X1043720Y10251390D02*
X1091100Y10212600D01*
X1187450Y10262600D01*
X1091100Y10312600D01*
X1043720Y10273810D01*
G03Y10251390I22790J-11210D01*
G37*
G36*
G01X1064140Y11907270D02*
X1091110Y11879210D01*
X1184280Y11912600D01*
X1091110Y11945990D01*
X1064140Y11917930D01*
G03Y11907270I11530J-5330D01*
G37*
G36*
G01Y11757270D02*
X1091110Y11729210D01*
X1184280Y11762600D01*
X1091110Y11795990D01*
X1064140Y11767930D01*
G03Y11757270I11530J-5330D01*
G37*
G36*
G01X1869440Y2006600D02*
X1803400D01*
X1801600Y1928600D01*
X1879600Y1930400D01*
Y1996440D01*
G03X1869440Y2006600I-10160J0D01*
G37*
G36*
G01X1727200Y2758440D02*
Y2692400D01*
X1805200Y2690600D01*
X1803400Y2768600D01*
X1737360D01*
G03X1727200Y2758440I0J-10160D01*
G37*
G36*
G01X1371600Y4000500D02*
X1358900D01*
X1356650Y3972850D01*
X1384300Y3975100D01*
Y3987800D01*
G03X1371600Y4000500I-12700J0D01*
G37*
G36*
G01X1411310Y4020060D02*
X1439600Y3996400D01*
X1517780Y4026400D01*
X1439600Y4056400D01*
X1411310Y4032740D01*
G03Y4020060I11000J-6340D01*
G37*
G36*
G01X1617910Y3905000D02*
X1589600Y3929400D01*
X1512060Y3899400D01*
X1589600Y3869400D01*
X1617910Y3893800D01*
G03Y3905000I-8480J5600D01*
G37*
G36*
G01X1601750Y4250740D02*
X1589600Y4310400D01*
X1505130Y4284090D01*
X1439600Y4250400D01*
X1591600Y4240240D01*
G03X1601750Y4250740I0J10156D01*
G37*
G36*
G01X1879600Y4137660D02*
Y4203700D01*
X1801600Y4205500D01*
X1803400Y4127500D01*
X1869440D01*
G03X1879600Y4137660I0J10160D01*
G37*
G36*
G01X1727200Y4267200D02*
Y4203700D01*
X1805650Y4201450D01*
X1803400Y4279900D01*
X1739900D01*
G03X1727200Y4267200I0J-12700D01*
G37*
G36*
G01X1879600Y4391660D02*
Y4457700D01*
X1801600Y4459500D01*
X1803400Y4381500D01*
X1869440D01*
G03X1879600Y4391660I0J10160D01*
G37*
G36*
G01X1411310Y4147060D02*
X1439600Y4123400D01*
X1517780Y4153400D01*
X1439600Y4183400D01*
X1411310Y4159740D01*
G03Y4147060I11000J-6340D01*
G37*
G36*
G01X1349920Y4180340D02*
X1340950Y4171350D01*
X1358900Y4150220D01*
X1376850Y4171350D01*
X1367880Y4180340D01*
G03X1349920I-8980J-8980D01*
G37*
G36*
G01X1367880Y4126460D02*
X1376850Y4135450D01*
X1358900Y4156580D01*
X1340950Y4135450D01*
X1349920Y4126460D01*
G03X1367880I8980J8980D01*
G37*
G36*
G01X1385840Y4162380D02*
X1376850Y4171350D01*
X1355720Y4153400D01*
X1376850Y4135450D01*
X1385840Y4144420D01*
G03Y4162380I-8980J8980D01*
G37*
G36*
G01X1367880Y4189460D02*
X1376850Y4198450D01*
X1358900Y4219580D01*
X1340950Y4198450D01*
X1349920Y4189460D01*
G03X1367880I8980J8980D01*
G37*
G36*
G01X1349920Y4116340D02*
X1340950Y4107350D01*
X1358900Y4086220D01*
X1376850Y4107350D01*
X1367880Y4116340D01*
G03X1349920I-8980J-8980D01*
G37*
G36*
G01X1521660Y4672440D02*
X1568870Y4719300D01*
X1514600Y4752480D01*
X1460330Y4719300D01*
X1507540Y4672440D01*
G03X1521660I7060J10560D01*
G37*
G36*
G01X1411310Y4869960D02*
X1439600Y4846300D01*
X1517780Y4876300D01*
X1439600Y4906300D01*
X1411310Y4882640D01*
G03Y4869960I11000J-6340D01*
G37*
G36*
G01Y4996960D02*
X1439600Y4973300D01*
X1517780Y5003300D01*
X1439600Y5033300D01*
X1411310Y5009640D01*
G03Y4996960I11000J-6340D01*
G37*
G36*
G01X1879600Y4899660D02*
Y4965700D01*
X1801600Y4967500D01*
X1803400Y4889500D01*
X1869440D01*
G03X1879600Y4899660I0J10160D01*
G37*
G36*
G01Y4645660D02*
Y4711700D01*
X1801600Y4713500D01*
X1803400Y4635500D01*
X1869440D01*
G03X1879600Y4645660I0J10160D01*
G37*
G36*
G01X1506490Y5232360D02*
X1439600Y5160300D01*
X1514600Y5127120D01*
X1589600Y5160300D01*
X1522710Y5232360D01*
G03X1506490I-8110J-9770D01*
G37*
G36*
G01X1523580Y5214860D02*
X1532550Y5223850D01*
X1514600Y5244980D01*
X1496650Y5223850D01*
X1505620Y5214860D01*
G03X1523580I8980J8980D01*
G37*
G36*
G01X1737360Y5651500D02*
X1803400D01*
X1805200Y5729500D01*
X1727200Y5727700D01*
Y5661660D01*
G03X1737360Y5651500I10160J0D01*
G37*
G36*
G01X1879600Y5661660D02*
Y5727700D01*
X1801600Y5729500D01*
X1803400Y5651500D01*
X1869440D01*
G03X1879600Y5661660I0J10160D01*
G37*
G36*
G01X1514640Y6153980D02*
X1503860Y6164750D01*
X1483360Y6146800D01*
X1503860Y6128850D01*
X1514640Y6139620D01*
G03Y6153980I-7190J7180D01*
G37*
G36*
G01X1457160Y6139620D02*
X1467940Y6128850D01*
X1488440Y6146800D01*
X1467940Y6164750D01*
X1457160Y6153980D01*
G03Y6139620I7190J-7180D01*
G37*
G36*
G01X1514640Y6077780D02*
X1503860Y6088550D01*
X1483360Y6070600D01*
X1503860Y6052650D01*
X1514640Y6063420D01*
G03Y6077780I-7190J7180D01*
G37*
G36*
G01X1457160Y6063420D02*
X1467940Y6052650D01*
X1488440Y6070600D01*
X1467940Y6088550D01*
X1457160Y6077780D01*
G03Y6063420I7190J-7180D01*
G37*
G36*
G01X1604800Y6481600D02*
X1377200Y6468900D01*
X1474890Y6435760D01*
X1597200Y6408900D01*
X1617400Y6467300D01*
G03X1604800Y6481600I-12600J1599D01*
G37*
G36*
G01X1348910Y6432560D02*
X1377200Y6408900D01*
X1490380Y6438900D01*
X1377200Y6468900D01*
X1348910Y6445240D01*
G03Y6432560I11000J-6340D01*
G37*
G36*
G01Y6559560D02*
X1377200Y6535900D01*
X1490380Y6565900D01*
X1377200Y6595900D01*
X1348910Y6572240D01*
G03Y6559560I11000J-6340D01*
G37*
G36*
G01X1479390Y6669420D02*
X1405730Y6595900D01*
X1487200Y6562720D01*
X1568670Y6595900D01*
X1495010Y6669420D01*
G03X1479390I-7810J-10020D01*
G37*
G36*
G01X1495010Y6589380D02*
X1568670Y6662900D01*
X1487200Y6696080D01*
X1405730Y6662900D01*
X1479390Y6589380D01*
G03X1495010I7810J10020D01*
G37*
G36*
G01X1604800Y6352060D02*
X1377200Y6341900D01*
X1477360Y6309390D01*
X1597200Y6281900D01*
X1614880Y6340620D01*
G03X1604800Y6352060I-10080J1279D01*
G37*
G36*
G01X1348910Y6305560D02*
X1377200Y6281900D01*
X1490380Y6311900D01*
X1377200Y6341900D01*
X1348910Y6318240D01*
G03Y6305560I11000J-6340D01*
G37*
G36*
G01X1819440Y6877880D02*
X1808660Y6888650D01*
X1788160Y6870700D01*
X1808660Y6852750D01*
X1819440Y6863520D01*
G03Y6877880I-7190J7180D01*
G37*
G36*
G01X1411310Y8108460D02*
X1439600Y8084800D01*
X1517780Y8114800D01*
X1439600Y8144800D01*
X1411310Y8121140D01*
G03Y8108460I11000J-6340D01*
G37*
G36*
G01Y8235460D02*
X1439600Y8211800D01*
X1517780Y8241800D01*
X1439600Y8271800D01*
X1411310Y8248140D01*
G03Y8235460I11000J-6340D01*
G37*
G36*
G01Y8362460D02*
X1439600Y8338800D01*
X1517780Y8368800D01*
X1439600Y8398800D01*
X1411310Y8375140D01*
G03Y8362460I11000J-6340D01*
G37*
G36*
G01X1869440Y8343900D02*
X1803400D01*
X1801600Y8265900D01*
X1879600Y8267700D01*
Y8333740D01*
G03X1869440Y8343900I-10160J0D01*
G37*
G36*
G01X1411310Y8489460D02*
X1439600Y8465800D01*
X1517780Y8495800D01*
X1439600Y8525800D01*
X1411310Y8502140D01*
G03Y8489460I11000J-6340D01*
G37*
G36*
G01X1739900Y8699500D02*
X1803400D01*
X1805650Y8777950D01*
X1727200Y8775700D01*
Y8712200D01*
G03X1739900Y8699500I12700J0D01*
G37*
G36*
G01X1411310Y8806960D02*
X1439600Y8783300D01*
X1517780Y8813300D01*
X1439600Y8843300D01*
X1411310Y8819640D01*
G03Y8806960I11000J-6340D01*
G37*
G36*
G01Y8679960D02*
X1439600Y8656300D01*
X1517780Y8686300D01*
X1439600Y8716300D01*
X1411310Y8692640D01*
G03Y8679960I11000J-6340D01*
G37*
G36*
G01X1617890Y8946640D02*
X1589600Y8970300D01*
X1511420Y8940300D01*
X1589600Y8910300D01*
X1617890Y8933960D01*
G03Y8946640I-11000J6340D01*
G37*
G36*
G01X1674870Y8930830D02*
X1684360Y8922360D01*
X1704970Y8940890D01*
X1683850Y8958750D01*
X1674360Y8949280D01*
G03X1674870Y8930830I8979J-8984D01*
G37*
G36*
G01X1879600Y8963660D02*
Y9029700D01*
X1801600Y9031500D01*
X1803400Y8953500D01*
X1869440D01*
G03X1879600Y8963660I0J10160D01*
G37*
G36*
G01X1411310Y9060960D02*
X1439600Y9037300D01*
X1517780Y9067300D01*
X1439600Y9097300D01*
X1411310Y9073640D01*
G03Y9060960I11000J-6340D01*
G37*
G36*
G01X1702830Y9276520D02*
X1749520Y9229830D01*
X1805940Y9283700D01*
X1749520Y9337570D01*
X1702830Y9290880D01*
G03Y9276520I7180J-7180D01*
G37*
G36*
G01X2079840Y286580D02*
X2024160Y342260D01*
X1958760Y279400D01*
X2024160Y216540D01*
X2079840Y272220D01*
G03Y286580I-7180J7180D01*
G37*
G36*
G01X2123440Y1244600D02*
X2057400D01*
X2055600Y1166600D01*
X2133600Y1168400D01*
Y1234440D01*
G03X2123440Y1244600I-10160J0D01*
G37*
G36*
G01X2293180Y1126960D02*
X2303950Y1137740D01*
X2286000Y1158240D01*
X2268050Y1137740D01*
X2278820Y1126960D01*
G03X2293180I7180J7190D01*
G37*
G36*
G01X2314740Y1162880D02*
X2303960Y1173650D01*
X2283460Y1155700D01*
X2303960Y1137750D01*
X2314740Y1148520D01*
G03Y1162880I-7190J7180D01*
G37*
G36*
G01X1981200Y2250440D02*
Y2184400D01*
X2059200Y2182600D01*
X2057400Y2260600D01*
X1991360D01*
G03X1981200Y2250440I0J-10160D01*
G37*
G36*
G01X2434040Y3946360D02*
X2444810Y3957140D01*
X2426860Y3977640D01*
X2408910Y3957140D01*
X2419680Y3946360D01*
G03X2434040I7180J7190D01*
G37*
G36*
G01X2336800Y3784600D02*
Y3797300D01*
X2309150Y3799550D01*
X2311400Y3771900D01*
X2324100D01*
G03X2336800Y3784600I0J12700D01*
G37*
G36*
G01X2369380Y3946360D02*
X2380150Y3957140D01*
X2362200Y3977640D01*
X2344250Y3957140D01*
X2355020Y3946360D01*
G03X2369380I7180J7190D01*
G37*
G36*
G01X2157970Y4464880D02*
X2111280Y4511570D01*
X2054860Y4457700D01*
X2111280Y4403830D01*
X2157970Y4450520D01*
G03Y4464880I-7180J7180D01*
G37*
G36*
G01Y4718880D02*
X2111280Y4765570D01*
X2054860Y4711700D01*
X2111280Y4657830D01*
X2157970Y4704520D01*
G03Y4718880I-7180J7180D01*
G37*
G36*
G01X2377440Y4864100D02*
X2362200D01*
X2360400Y4836900D01*
X2387600Y4838700D01*
Y4853940D01*
G03X2377440Y4864100I-10160J0D01*
G37*
G36*
G01X1981200Y5791200D02*
Y5727700D01*
X2059650Y5725450D01*
X2057400Y5803900D01*
X1993900D01*
G03X1981200Y5791200I0J-12700D01*
G37*
G36*
G01Y6047740D02*
Y5981700D01*
X2059200Y5979900D01*
X2057400Y6057900D01*
X1991360D01*
G03X1981200Y6047740I0J-10160D01*
G37*
G36*
G01X2215320Y6327940D02*
X2204550Y6317160D01*
X2222500Y6296660D01*
X2240450Y6317160D01*
X2229680Y6327940D01*
G03X2215320I-7180J-7190D01*
G37*
G36*
G01X2133600Y8709660D02*
Y8775700D01*
X2055600Y8777500D01*
X2057400Y8699500D01*
X2123440D01*
G03X2133600Y8709660I0J10160D01*
G37*
G36*
G01X2346160Y9276520D02*
X2363290Y9259390D01*
X2383730Y9276790D01*
X2367930Y9297960D01*
X2350800Y9293540D01*
G03X2346160Y9276520I2549J-9837D01*
G37*
G36*
G01X2157970Y9290880D02*
X2111280Y9337570D01*
X2054860Y9283700D01*
X2111280Y9229830D01*
X2157970Y9276520D01*
G03Y9290880I-7180J7180D01*
G37*
G36*
G01X1981200Y9093200D02*
Y9029700D01*
X2059650Y9027450D01*
X2057400Y9105900D01*
X1993900D01*
G03X1981200Y9093200I0J-12700D01*
G37*
G36*
G01X2367310Y9800220D02*
X2406100Y9847600D01*
X2356100Y9943950D01*
X2306100Y9847600D01*
X2344890Y9800220D01*
G03X2367310I11210J22790D01*
G37*
G36*
G01X2409660Y9530520D02*
X2420440Y9519750D01*
X2440940Y9537700D01*
X2420440Y9555650D01*
X2409660Y9544880D01*
G03Y9530520I7190J-7180D01*
G37*
G36*
G01X2157970Y9544880D02*
X2111280Y9591570D01*
X2054860Y9537700D01*
X2111280Y9483830D01*
X2157970Y9530520D01*
G03Y9544880I-7180J7180D01*
G37*
G36*
G01X2343720Y10101390D02*
X2391100Y10062600D01*
X2487450Y10112600D01*
X2391100Y10162600D01*
X2343720Y10123810D01*
G03Y10101390I22790J-11210D01*
G37*
G36*
G01X2463800Y990600D02*
Y1054100D01*
X2933700D01*
X2946400Y1041400D01*
Y800100D01*
X2921000Y774700D01*
X2717800D01*
X2692400Y800100D01*
Y977900D01*
X2679700Y990600D01*
X2463800D01*
G37*
G36*
G01X2444700Y897360D02*
X2474400Y871200D01*
X2555750Y901200D01*
X2474400Y931200D01*
X2444700Y905040D01*
G03Y897360I25110J-3840D01*
G37*
G36*
G01X2652690Y1034540D02*
X2624400Y1058200D01*
X2546220Y1028200D01*
X2624400Y998200D01*
X2652690Y1021860D01*
G03Y1034540I-11000J6340D01*
G37*
G36*
G01X2446090Y1149600D02*
X2474400Y1125200D01*
X2551940Y1155200D01*
X2474400Y1185200D01*
X2446090Y1160800D01*
G03Y1149600I8480J-5600D01*
G37*
G36*
G01X2759740Y1162380D02*
X2748960Y1173150D01*
X2728460Y1155200D01*
X2748960Y1137250D01*
X2759740Y1148020D01*
G03Y1162380I-7190J7180D01*
G37*
G36*
G01X2435060Y1377120D02*
X2445840Y1366350D01*
X2466340Y1384300D01*
X2445840Y1402250D01*
X2435060Y1391480D01*
G03Y1377120I7190J-7180D01*
G37*
G36*
G01X2498700Y3946360D02*
X2509470Y3957140D01*
X2491520Y3977640D01*
X2473570Y3957140D01*
X2484340Y3946360D01*
G03X2498700I7180J7190D01*
G37*
G36*
G01X2442100Y4864100D02*
X2426860D01*
X2425060Y4836900D01*
X2452260Y4838700D01*
Y4853940D01*
G03X2442100Y4864100I-10160J0D01*
G37*
G36*
G01X2964620Y4994440D02*
X2953850Y4983660D01*
X2971800Y4963160D01*
X2989750Y4983660D01*
X2978980Y4994440D01*
G03X2964620I-7180J-7190D01*
G37*
G36*
G01X2506760Y4864100D02*
X2491520D01*
X2489720Y4836900D01*
X2516920Y4838700D01*
Y4853940D01*
G03X2506760Y4864100I-10160J0D01*
G37*
G36*
G01X2460460Y9403520D02*
X2471240Y9392750D01*
X2491740Y9410700D01*
X2471240Y9428650D01*
X2460460Y9417880D01*
G03Y9403520I7190J-7180D01*
G37*
G36*
G01X2895160Y9889960D02*
X2905930Y9900740D01*
X2887980Y9921240D01*
X2870030Y9900740D01*
X2880800Y9889960D01*
G03X2895160I7180J7190D01*
G37*
G36*
G01X2971360D02*
X2982130Y9900740D01*
X2964180Y9921240D01*
X2946230Y9900740D01*
X2957000Y9889960D01*
G03X2971360I7180J7190D01*
G37*
G36*
G01X2618570Y10420190D02*
X2571100Y10462600D01*
X2477920Y10412600D01*
X2571100Y10362600D01*
X2618570Y10405010D01*
G03Y10420190I-10180J7590D01*
G37*
G36*
G01X2981870Y11942650D02*
X2946400Y12062460D01*
X2891110Y12005990D01*
X2844800Y11940540D01*
X2956560Y11915140D01*
G03X2981870Y11942650I0J25398D01*
G37*
G36*
G01X2700020Y11892290D02*
X2743200Y11940540D01*
X2692400Y12004680D01*
X2641600Y11940540D01*
X2684780Y11892290D01*
G03X2700020I7620J10160D01*
G37*
G36*
G01X2683420Y11901440D02*
X2674450Y11892450D01*
X2692400Y11871320D01*
X2710350Y11892450D01*
X2701380Y11901440D01*
G03X2683420I-8980J-8980D01*
G37*
G36*
G01X2866480Y11847560D02*
X2875450Y11856550D01*
X2857500Y11877680D01*
X2839550Y11856550D01*
X2848520Y11847560D01*
G03X2866480I8980J8980D01*
G37*
G36*
G01X3172040Y286580D02*
X3116360Y342260D01*
X3050960Y279400D01*
X3116360Y216540D01*
X3172040Y272220D01*
G03Y286580I-7180J7180D01*
G37*
G36*
G01X3192710Y906800D02*
X3164400Y931200D01*
X3086860Y901200D01*
X3164400Y871200D01*
X3192710Y895600D01*
G03Y906800I-8480J5600D01*
G37*
G36*
G01X2986090Y1149600D02*
X3014400Y1125200D01*
X3091940Y1155200D01*
X3014400Y1185200D01*
X2986090Y1160800D01*
G03Y1149600I8480J-5600D01*
G37*
G36*
G01X3192710Y1033800D02*
X3164400Y1058200D01*
X3086860Y1028200D01*
X3164400Y998200D01*
X3192710Y1022600D01*
G03Y1033800I-8480J5600D01*
G37*
G36*
G01X3279140Y1054100D02*
X3263900D01*
X3262100Y1026900D01*
X3289300Y1028700D01*
Y1043940D01*
G03X3279140Y1054100I-10160J0D01*
G37*
G36*
G01X3235000Y1020690D02*
X3246280Y1010420D01*
X3266440Y1028760D01*
X3245940Y1046650D01*
X3234660Y1035380D01*
G03X3235000Y1020690I7189J-7183D01*
G37*
G36*
G01X3472620Y1578140D02*
X3461850Y1567360D01*
X3479800Y1546860D01*
X3497750Y1567360D01*
X3486980Y1578140D01*
G03X3472620I-7180J-7190D01*
G37*
G36*
G01X3235160Y1796220D02*
X3245940Y1785450D01*
X3266440Y1803400D01*
X3245940Y1821350D01*
X3235160Y1810580D01*
G03Y1796220I7190J-7180D01*
G37*
G36*
G01X3409120Y1946440D02*
X3398350Y1935660D01*
X3416300Y1915160D01*
X3434250Y1935660D01*
X3423480Y1946440D01*
G03X3409120I-7180J-7190D01*
G37*
G36*
G01X3235160Y2037520D02*
X3245940Y2026750D01*
X3266440Y2044700D01*
X3245940Y2062650D01*
X3235160Y2051880D01*
G03Y2037520I7190J-7180D01*
G37*
G36*
G01Y1961320D02*
X3245940Y1950550D01*
X3266440Y1968500D01*
X3245940Y1986450D01*
X3235160Y1975680D01*
G03Y1961320I7190J-7180D01*
G37*
G36*
G01X3321880Y2892260D02*
X3332650Y2903040D01*
X3314700Y2923540D01*
X3296750Y2903040D01*
X3307520Y2892260D01*
G03X3321880I7180J7190D01*
G37*
G36*
G01X3242220Y2503440D02*
X3233250Y2494450D01*
X3251200Y2473320D01*
X3269150Y2494450D01*
X3260180Y2503440D01*
G03X3242220I-8980J-8980D01*
G37*
G36*
G01X3008360Y2825660D02*
X3017350Y2816690D01*
X3038480Y2834640D01*
X3017350Y2852590D01*
X3008360Y2843620D01*
G03Y2825660I8980J-8980D01*
G37*
G36*
G01Y2749460D02*
X3017350Y2740490D01*
X3038480Y2758440D01*
X3017350Y2776390D01*
X3008360Y2767420D01*
G03Y2749460I8980J-8980D01*
G37*
G36*
G01X3251200Y3040390D02*
Y3022600D01*
X3278250Y3020670D01*
X3278280Y3047850D01*
X3263040Y3050410D01*
G03X3251200Y3040390I-1680J-10020D01*
G37*
G36*
G01X3289300Y3093740D02*
Y3073400D01*
X3316220Y3071370D01*
X3317920Y3098270D01*
X3302680Y3103370D01*
G03X3289300Y3093740I-3224J-9630D01*
G37*
G36*
G01X3213100Y2987040D02*
Y2971800D01*
X3240300Y2970000D01*
X3238500Y2997200D01*
X3223260D01*
G03X3213100Y2987040I0J-10160D01*
G37*
G36*
G01X3372680Y4035260D02*
X3383450Y4046040D01*
X3365500Y4066540D01*
X3347550Y4046040D01*
X3358320Y4035260D01*
G03X3372680I7180J7190D01*
G37*
G36*
G01X3015420Y5121440D02*
X3004650Y5110660D01*
X3022600Y5090160D01*
X3040550Y5110660D01*
X3029780Y5121440D01*
G03X3015420I-7180J-7190D01*
G37*
G36*
G01X3189430Y5503100D02*
X3181060Y5489930D01*
X3200650Y5471170D01*
X3218350Y5491660D01*
X3205180Y5504840D01*
G03X3189430Y5503100I-7177J-7190D01*
G37*
G36*
G01X3239070Y5401700D02*
X3231500Y5387720D01*
X3251530Y5369580D01*
X3269150Y5390060D01*
X3255180Y5404040D01*
G03X3239070Y5401700I-7181J-7189D01*
G37*
G36*
G01X3066220Y5248440D02*
X3055450Y5237660D01*
X3073400Y5217160D01*
X3091350Y5237660D01*
X3080580Y5248440D01*
G03X3066220I-7180J-7190D01*
G37*
G36*
G01X3117020Y5350040D02*
X3106250Y5339260D01*
X3124200Y5318760D01*
X3142150Y5339260D01*
X3131380Y5350040D01*
G03X3117020I-7180J-7190D01*
G37*
G36*
G01X3423480Y5838660D02*
X3434250Y5849440D01*
X3416300Y5869940D01*
X3398350Y5849440D01*
X3409120Y5838660D01*
G03X3423480I7180J7190D01*
G37*
G36*
G01X3431540Y5892800D02*
X3416300D01*
X3414500Y5865600D01*
X3441700Y5867400D01*
Y5882640D01*
G03X3431540Y5892800I-10160J0D01*
G37*
G36*
G01X3294820Y5756440D02*
X3284050Y5745660D01*
X3302000Y5725160D01*
X3319950Y5745660D01*
X3309180Y5756440D01*
G03X3294820I-7180J-7190D01*
G37*
G36*
G01X3431540Y6007100D02*
X3416300D01*
X3414500Y5979900D01*
X3441700Y5981700D01*
Y5996940D01*
G03X3431540Y6007100I-10160J0D01*
G37*
G36*
G01X3273260Y7574720D02*
X3284040Y7563950D01*
X3304540Y7581900D01*
X3284040Y7599850D01*
X3273260Y7589080D01*
G03Y7574720I7190J-7180D01*
G37*
G36*
G01X3326600Y7803320D02*
X3337380Y7792550D01*
X3357880Y7810500D01*
X3337380Y7828450D01*
X3326600Y7817680D01*
G03Y7803320I7190J-7180D01*
G37*
G36*
G01X3273260Y7854120D02*
X3284040Y7843350D01*
X3304540Y7861300D01*
X3284040Y7879250D01*
X3273260Y7868480D01*
G03Y7854120I7190J-7180D01*
G37*
G36*
G01Y7955720D02*
X3284040Y7944950D01*
X3304540Y7962900D01*
X3284040Y7980850D01*
X3273260Y7970080D01*
G03Y7955720I7190J-7180D01*
G37*
G36*
G01X3324060Y7904920D02*
X3334840Y7894150D01*
X3355340Y7912100D01*
X3334840Y7930050D01*
X3324060Y7919280D01*
G03Y7904920I7190J-7180D01*
G37*
G36*
G01X3336760Y8252900D02*
X3347540Y8242130D01*
X3368040Y8260080D01*
X3347540Y8278030D01*
X3336760Y8267260D01*
G03Y8252900I7190J-7180D01*
G37*
G36*
G01Y8329100D02*
X3347540Y8318330D01*
X3368040Y8336280D01*
X3347540Y8354230D01*
X3336760Y8343460D01*
G03Y8329100I7190J-7180D01*
G37*
G36*
G01X3536120Y1349540D02*
X3525350Y1338760D01*
X3543300Y1318260D01*
X3561250Y1338760D01*
X3550480Y1349540D01*
G03X3536120I-7180J-7190D01*
G37*
G36*
G01X4022560Y894020D02*
X4033340Y883250D01*
X4053840Y901200D01*
X4033340Y919150D01*
X4022560Y908380D01*
G03Y894020I7190J-7180D01*
G37*
G36*
G01X4044120Y1197140D02*
X4033350Y1186360D01*
X4051300Y1165860D01*
X4069250Y1186360D01*
X4058480Y1197140D01*
G03X4044120I-7180J-7190D01*
G37*
G36*
G01X3879020Y1705140D02*
X3868250Y1694360D01*
X3886200Y1673860D01*
X3904150Y1694360D01*
X3893380Y1705140D01*
G03X3879020I-7180J-7190D01*
G37*
G36*
G01X3764720Y1413040D02*
X3753950Y1402260D01*
X3771900Y1381760D01*
X3789850Y1402260D01*
X3779080Y1413040D01*
G03X3764720I-7180J-7190D01*
G37*
G36*
G01X3815520Y1832140D02*
X3804750Y1821360D01*
X3822700Y1800860D01*
X3840650Y1821360D01*
X3829880Y1832140D01*
G03X3815520I-7180J-7190D01*
G37*
G36*
G01X3893380Y3197060D02*
X3904150Y3207840D01*
X3886200Y3228340D01*
X3868250Y3207840D01*
X3879020Y3197060D01*
G03X3893380I7180J7190D01*
G37*
G36*
G01X3829880Y3235160D02*
X3840650Y3245940D01*
X3822700Y3266440D01*
X3804750Y3245940D01*
X3815520Y3235160D01*
G03X3829880I7180J7190D01*
G37*
G36*
G01X3837940Y3847300D02*
X3822700D01*
X3820900Y3820100D01*
X3848100Y3821900D01*
Y3837140D01*
G03X3837940Y3847300I-10160J0D01*
G37*
G36*
G01Y3771900D02*
X3822700D01*
X3820900Y3744700D01*
X3848100Y3746500D01*
Y3761740D01*
G03X3837940Y3771900I-10160J0D01*
G37*
G36*
G01X3851440Y4299780D02*
X3840660Y4310550D01*
X3820160Y4292600D01*
X3840660Y4274650D01*
X3851440Y4285420D01*
G03Y4299780I-7190J7180D01*
G37*
G36*
G01Y4172780D02*
X3840660Y4183550D01*
X3820160Y4165600D01*
X3840660Y4147650D01*
X3851440Y4158420D01*
G03Y4172780I-7190J7180D01*
G37*
G36*
G01Y4236280D02*
X3840660Y4247050D01*
X3820160Y4229100D01*
X3840660Y4211150D01*
X3851440Y4221920D01*
G03Y4236280I-7190J7180D01*
G37*
G36*
G01X4018720Y4575340D02*
X4007950Y4564560D01*
X4025900Y4544060D01*
X4043850Y4564560D01*
X4033080Y4575340D01*
G03X4018720I-7180J-7190D01*
G37*
G36*
G01X3875240Y6007520D02*
X3886020Y5996750D01*
X3906520Y6014700D01*
X3886020Y6032650D01*
X3875240Y6021880D01*
G03Y6007520I7190J-7180D01*
G37*
G36*
G01X3932720Y6021880D02*
X3921940Y6032650D01*
X3901440Y6014700D01*
X3921940Y5996750D01*
X3932720Y6007520D01*
G03Y6021880I-7190J7180D01*
G37*
G36*
G01X3920960Y6057520D02*
X3931740Y6046750D01*
X3952240Y6064700D01*
X3931740Y6082650D01*
X3920960Y6071880D01*
G03Y6057520I7190J-7180D01*
G37*
G36*
G01X3978440Y6071880D02*
X3967660Y6082650D01*
X3947160Y6064700D01*
X3967660Y6046750D01*
X3978440Y6057520D01*
G03Y6071880I-7190J7180D01*
G37*
G36*
G01X4002040Y6273680D02*
X3993050Y6282650D01*
X3971920Y6264700D01*
X3993050Y6246750D01*
X4002040Y6255720D01*
G03Y6273680I-8980J8980D01*
G37*
G36*
G01X4003180Y6823680D02*
X3993050Y6833790D01*
X3971930Y6816030D01*
X3991850Y6796830D01*
X4001980Y6804660D01*
G03X4003180Y6823680I-7780J10039D01*
G37*
G36*
G01X3868720Y7841640D02*
X3855550Y7828460D01*
X3873250Y7807970D01*
X3892840Y7826730D01*
X3884470Y7839900D01*
G03X3868720Y7841640I-8573J-5450D01*
G37*
G36*
G01X3884470Y7781100D02*
X3892840Y7794270D01*
X3873250Y7813030D01*
X3855550Y7792540D01*
X3868720Y7779360D01*
G03X3884470Y7781100I7177J7190D01*
G37*
G36*
G01X3818720Y7991640D02*
X3807950Y7980860D01*
X3825900Y7960360D01*
X3843850Y7980860D01*
X3833080Y7991640D01*
G03X3818720I-7180J-7190D01*
G37*
G36*
G01X3833080Y7934160D02*
X3843850Y7944940D01*
X3825900Y7965440D01*
X3807950Y7944940D01*
X3818720Y7934160D01*
G03X3833080I7180J7190D01*
G37*
G36*
G01X3779080Y7883360D02*
X3789850Y7894140D01*
X3771900Y7914640D01*
X3753950Y7894140D01*
X3764720Y7883360D01*
G03X3779080I7180J7190D01*
G37*
G36*
G01Y9572460D02*
X3789850Y9583240D01*
X3771900Y9603740D01*
X3753950Y9583240D01*
X3764720Y9572460D01*
G03X3779080I7180J7190D01*
G37*
G36*
G01X3728280Y9496260D02*
X3739050Y9507040D01*
X3721100Y9527540D01*
X3703150Y9507040D01*
X3713920Y9496260D01*
G03X3728280I7180J7190D01*
G37*
G36*
G01X3705860Y9906000D02*
X3721100D01*
X3722900Y9933200D01*
X3695700Y9931400D01*
Y9916160D01*
G03X3705860Y9906000I10160J0D01*
G37*
G36*
G01Y9982200D02*
X3721100D01*
X3722900Y10009400D01*
X3695700Y10007600D01*
Y9992360D01*
G03X3705860Y9982200I10160J0D01*
G37*
G36*
G01Y10058400D02*
X3721100D01*
X3722900Y10085600D01*
X3695700Y10083800D01*
Y10068560D01*
G03X3705860Y10058400I10160J0D01*
G37*
G36*
G01X3956880Y11824730D02*
X4003570Y11871420D01*
X3949700Y11927840D01*
X3895830Y11871420D01*
X3942520Y11824730D01*
G03X3956880I7180J7180D01*
G37*
G36*
G01X3702880D02*
X3749570Y11871420D01*
X3695700Y11927840D01*
X3641830Y11871420D01*
X3688520Y11824730D01*
G03X3702880I7180J7180D01*
G37*
G36*
G01X4209220Y1197140D02*
X4198450Y1186360D01*
X4216400Y1165860D01*
X4234350Y1186360D01*
X4223580Y1197140D01*
G03X4209220I-7180J-7190D01*
G37*
G36*
G01X4425120D02*
X4414350Y1186360D01*
X4432300Y1165860D01*
X4450250Y1186360D01*
X4439480Y1197140D01*
G03X4425120I-7180J-7190D01*
G37*
G36*
G01X4488620D02*
X4477850Y1186360D01*
X4495800Y1165860D01*
X4513750Y1186360D01*
X4502980Y1197140D01*
G03X4488620I-7180J-7190D01*
G37*
G36*
G01X4361620D02*
X4350850Y1186360D01*
X4368800Y1165860D01*
X4386750Y1186360D01*
X4375980Y1197140D01*
G03X4361620I-7180J-7190D01*
G37*
G36*
G01X4552120Y1489240D02*
X4541350Y1478460D01*
X4559300Y1457960D01*
X4577250Y1478460D01*
X4566480Y1489240D01*
G03X4552120I-7180J-7190D01*
G37*
G36*
G01X4223580Y2536660D02*
X4234350Y2547440D01*
X4216400Y2567940D01*
X4198450Y2547440D01*
X4209220Y2536660D01*
G03X4223580I7180J7190D01*
G37*
G36*
G01X4375980Y2943060D02*
X4386750Y2953840D01*
X4368800Y2974340D01*
X4350850Y2953840D01*
X4361620Y2943060D01*
G03X4375980I7180J7190D01*
G37*
G36*
G01X4425120Y3051340D02*
X4414350Y3040560D01*
X4432300Y3020060D01*
X4450250Y3040560D01*
X4439480Y3051340D01*
G03X4425120I-7180J-7190D01*
G37*
G36*
G01X4439480Y2993860D02*
X4450250Y3004640D01*
X4432300Y3025140D01*
X4414350Y3004640D01*
X4425120Y2993860D01*
G03X4439480I7180J7190D01*
G37*
G36*
G01X4488620Y3102140D02*
X4477850Y3091360D01*
X4495800Y3070860D01*
X4513750Y3091360D01*
X4502980Y3102140D01*
G03X4488620I-7180J-7190D01*
G37*
G36*
G01X4502980Y3044660D02*
X4513750Y3055440D01*
X4495800Y3075940D01*
X4477850Y3055440D01*
X4488620Y3044660D01*
G03X4502980I7180J7190D01*
G37*
G36*
G01X4361620Y3000540D02*
X4350850Y2989760D01*
X4368800Y2969260D01*
X4386750Y2989760D01*
X4375980Y3000540D01*
G03X4361620I-7180J-7190D01*
G37*
G36*
G01X4359440Y3944180D02*
X4348660Y3954950D01*
X4328160Y3937000D01*
X4348660Y3919050D01*
X4359440Y3929820D01*
G03Y3944180I-7190J7180D01*
G37*
G36*
G01Y3880680D02*
X4348660Y3891450D01*
X4328160Y3873500D01*
X4348660Y3855550D01*
X4359440Y3866320D01*
G03Y3880680I-7190J7180D01*
G37*
G36*
G01Y4553780D02*
X4348660Y4564550D01*
X4328160Y4546600D01*
X4348660Y4528650D01*
X4359440Y4539420D01*
G03Y4553780I-7190J7180D01*
G37*
G36*
G01X4488620Y4638840D02*
X4477850Y4628060D01*
X4495800Y4607560D01*
X4513750Y4628060D01*
X4502980Y4638840D01*
G03X4488620I-7180J-7190D01*
G37*
G36*
G01X4076700Y5473700D02*
Y5461000D01*
X4104350Y5458750D01*
X4102100Y5486400D01*
X4089400D01*
G03X4076700Y5473700I0J-12700D01*
G37*
G36*
G01X4353260Y5605720D02*
X4362250Y5596750D01*
X4383380Y5614700D01*
X4362250Y5632650D01*
X4353260Y5623680D01*
G03Y5605720I8980J-8980D01*
G37*
G36*
G01X4505900Y5286080D02*
X4485320Y5479670D01*
X4483310Y5392220D01*
X4474630Y5291820D01*
X4488620Y5277830D01*
G03X4505900Y5286080I7179J7185D01*
G37*
G36*
G01X4440780Y5635460D02*
X4451550Y5646240D01*
X4433600Y5666740D01*
X4415650Y5646240D01*
X4426420Y5635460D01*
G03X4440780I7180J7190D01*
G37*
G36*
G01X4359820Y6211840D02*
X4350850Y6202850D01*
X4368800Y6181720D01*
X4386750Y6202850D01*
X4377780Y6211840D01*
G03X4359820I-8980J-8980D01*
G37*
G36*
G01X4590780Y5772620D02*
X4601550Y5783400D01*
X4583600Y5803900D01*
X4565650Y5783400D01*
X4576420Y5772620D01*
G03X4590780I7180J7190D01*
G37*
G36*
G01X4540780Y5726900D02*
X4551550Y5737680D01*
X4533600Y5758180D01*
X4515650Y5737680D01*
X4526420Y5726900D01*
G03X4540780I7180J7190D01*
G37*
G36*
G01X4490780Y5681180D02*
X4501550Y5691960D01*
X4483600Y5712460D01*
X4465650Y5691960D01*
X4476420Y5681180D01*
G03X4490780I7180J7190D01*
G37*
G36*
G01X4352460Y5707520D02*
X4363240Y5696750D01*
X4383740Y5714700D01*
X4363240Y5732650D01*
X4352460Y5721880D01*
G03Y5707520I7190J-7180D01*
G37*
G36*
G01X4366260Y5765800D02*
X4381500D01*
X4383300Y5793000D01*
X4356100Y5791200D01*
Y5775960D01*
G03X4366260Y5765800I10160J0D01*
G37*
G36*
G01X4372520Y6783340D02*
X4363550Y6774350D01*
X4381500Y6753220D01*
X4399450Y6774350D01*
X4390480Y6783340D01*
G03X4372520I-8980J-8980D01*
G37*
G36*
G01X4343400Y7241540D02*
Y7226300D01*
X4370600Y7224500D01*
X4368800Y7251700D01*
X4353560D01*
G03X4343400Y7241540I0J-10160D01*
G37*
G36*
G01X4442580Y7758160D02*
X4451550Y7767150D01*
X4433600Y7788280D01*
X4415650Y7767150D01*
X4424620Y7758160D01*
G03X4442580I8980J8980D01*
G37*
G36*
G01X4581420Y7480660D02*
X4592570Y7491820D01*
X4583830Y7592230D01*
X4570920Y7678960D01*
X4564090Y7488210D01*
G03X4581420Y7480660I10153J-360D01*
G37*
G36*
G01X4490780Y7870160D02*
X4501550Y7880940D01*
X4483600Y7901440D01*
X4465650Y7880940D01*
X4476420Y7870160D01*
G03X4490780I7180J7190D01*
G37*
G36*
G01X4069520Y7890040D02*
X4058750Y7879260D01*
X4076700Y7858760D01*
X4094650Y7879260D01*
X4083880Y7890040D01*
G03X4069520I-7180J-7190D01*
G37*
G36*
G01X4083880Y7832560D02*
X4094650Y7843340D01*
X4076700Y7863840D01*
X4058750Y7843340D01*
X4069520Y7832560D01*
G03X4083880I7180J7190D01*
G37*
G36*
G01X4232440Y8267260D02*
X4221660Y8278030D01*
X4201160Y8260080D01*
X4221660Y8242130D01*
X4232440Y8252900D01*
G03Y8267260I-7190J7180D01*
G37*
G36*
G01Y8343460D02*
X4221660Y8354230D01*
X4201160Y8336280D01*
X4221660Y8318330D01*
X4232440Y8329100D01*
G03Y8343460I-7190J7180D01*
G37*
G36*
G01X4308640Y8732080D02*
X4297860Y8742850D01*
X4277360Y8724900D01*
X4297860Y8706950D01*
X4308640Y8717720D01*
G03Y8732080I-7190J7180D01*
G37*
G36*
G01X4543260Y8641520D02*
X4554040Y8630750D01*
X4574540Y8648700D01*
X4554040Y8666650D01*
X4543260Y8655880D01*
G03Y8641520I7190J-7180D01*
G37*
G36*
G01X4308640Y8655880D02*
X4297860Y8666650D01*
X4277360Y8648700D01*
X4297860Y8630750D01*
X4308640Y8641520D01*
G03Y8655880I-7190J7180D01*
G37*
G36*
G01X4600740Y8892780D02*
X4589960Y8903550D01*
X4569460Y8885600D01*
X4589960Y8867650D01*
X4600740Y8878420D01*
G03Y8892780I-7190J7180D01*
G37*
G36*
G01X4546600Y9271000D02*
Y9283700D01*
X4518950Y9285950D01*
X4521200Y9258300D01*
X4533900D01*
G03X4546600Y9271000I0J12700D01*
G37*
G36*
G01X4181640Y9455980D02*
X4170860Y9466750D01*
X4150360Y9448800D01*
X4170860Y9430850D01*
X4181640Y9441620D01*
G03Y9455980I-7190J7180D01*
G37*
G36*
G01X4540060Y9441620D02*
X4554040Y9427650D01*
X4574520Y9445270D01*
X4556380Y9465300D01*
X4542400Y9457730D01*
G03X4540060Y9441620I4849J-8929D01*
G37*
G36*
G01X4600740Y9452780D02*
X4589960Y9463550D01*
X4569460Y9445600D01*
X4589960Y9427650D01*
X4600740Y9438420D01*
G03Y9452780I-7190J7180D01*
G37*
G36*
G01X4183140Y9375310D02*
X4166670Y9380380D01*
X4150410Y9359380D01*
X4170860Y9341950D01*
X4187340Y9358420D01*
G03X4183140Y9375310I-7190J7179D01*
G37*
G36*
G01X4543260Y9358420D02*
X4554040Y9347650D01*
X4574540Y9365600D01*
X4554040Y9383550D01*
X4543260Y9372780D01*
G03Y9358420I7190J-7180D01*
G37*
G36*
G01X4600740Y9372780D02*
X4589960Y9383550D01*
X4569460Y9365600D01*
X4589960Y9347650D01*
X4600740Y9358420D01*
G03Y9372780I-7190J7180D01*
G37*
G36*
G01Y9132780D02*
X4589960Y9143550D01*
X4569460Y9125600D01*
X4589960Y9107650D01*
X4600740Y9118420D01*
G03Y9132780I-7190J7180D01*
G37*
G36*
G01Y9052780D02*
X4589960Y9063550D01*
X4569460Y9045600D01*
X4589960Y9027650D01*
X4600740Y9038420D01*
G03Y9052780I-7190J7180D01*
G37*
G36*
G01Y8972780D02*
X4589960Y8983550D01*
X4569460Y8965600D01*
X4589960Y8947650D01*
X4600740Y8958420D01*
G03Y8972780I-7190J7180D01*
G37*
G36*
G01X4137660Y9740900D02*
X4152900D01*
X4154700Y9768100D01*
X4127500Y9766300D01*
Y9751060D01*
G03X4137660Y9740900I10160J0D01*
G37*
G36*
G01X4182790Y9614970D02*
X4167610Y9621340D01*
X4150400Y9600780D01*
X4170860Y9583250D01*
X4186040Y9598420D01*
G03X4182790Y9614970I-7189J7182D01*
G37*
G36*
G01X4543260Y9598420D02*
X4554040Y9587650D01*
X4574540Y9605600D01*
X4554040Y9623550D01*
X4543260Y9612780D01*
G03Y9598420I7190J-7180D01*
G37*
G36*
G01X4600740Y9612780D02*
X4589960Y9623550D01*
X4569460Y9605600D01*
X4589960Y9587650D01*
X4600740Y9598420D01*
G03Y9612780I-7190J7180D01*
G37*
G36*
G01X4543260Y9518420D02*
X4554040Y9507650D01*
X4574540Y9525600D01*
X4554040Y9543550D01*
X4543260Y9532780D01*
G03Y9518420I7190J-7180D01*
G37*
G36*
G01X4600740Y9532780D02*
X4589960Y9543550D01*
X4569460Y9525600D01*
X4589960Y9507650D01*
X4600740Y9518420D01*
G03Y9532780I-7190J7180D01*
G37*
G36*
G01X4181830Y9533170D02*
X4170450Y9543340D01*
X4150360Y9524930D01*
X4170860Y9507050D01*
X4182240Y9518420D01*
G03X4181830Y9533170I-7189J7181D01*
G37*
G36*
G01X4547760Y9678420D02*
X4558540Y9667650D01*
X4579040Y9685600D01*
X4558540Y9703550D01*
X4547760Y9692780D01*
G03Y9678420I7190J-7180D01*
G37*
G36*
G01X4603440Y9694580D02*
X4594450Y9703550D01*
X4573320Y9685600D01*
X4594450Y9667650D01*
X4603440Y9676620D01*
G03Y9694580I-8980J8980D01*
G37*
G36*
G01X4181640Y9692780D02*
X4170860Y9703550D01*
X4150360Y9685600D01*
X4170860Y9667650D01*
X4181640Y9678420D01*
G03Y9692780I-7190J7180D01*
G37*
G36*
G01X4555960Y9924220D02*
X4566740Y9913450D01*
X4587240Y9931400D01*
X4566740Y9949350D01*
X4555960Y9938580D01*
G03Y9924220I7190J-7180D01*
G37*
G36*
G01X4118140Y9938580D02*
X4107360Y9949350D01*
X4086860Y9931400D01*
X4107360Y9913450D01*
X4118140Y9924220D01*
G03Y9938580I-7190J7180D01*
G37*
G36*
G01X4555960Y10000420D02*
X4566740Y9989650D01*
X4587240Y10007600D01*
X4566740Y10025550D01*
X4555960Y10014780D01*
G03Y10000420I7190J-7180D01*
G37*
G36*
G01X4118140Y10014780D02*
X4107360Y10025550D01*
X4086860Y10007600D01*
X4107360Y9989650D01*
X4118140Y10000420D01*
G03Y10014780I-7190J7180D01*
G37*
G36*
G01X4450520Y10544340D02*
X4439750Y10533560D01*
X4457700Y10513060D01*
X4475650Y10533560D01*
X4464880Y10544340D01*
G03X4450520I-7180J-7190D01*
G37*
G36*
G01X4555960Y10076620D02*
X4566740Y10065850D01*
X4587240Y10083800D01*
X4566740Y10101750D01*
X4555960Y10090980D01*
G03Y10076620I7190J-7180D01*
G37*
G36*
G01X4118140Y10090980D02*
X4107360Y10101750D01*
X4086860Y10083800D01*
X4107360Y10065850D01*
X4118140Y10076620D01*
G03Y10090980I-7190J7180D01*
G37*
G36*
G01X4210880Y11824730D02*
X4257570Y11871420D01*
X4203700Y11927840D01*
X4149830Y11871420D01*
X4196520Y11824730D01*
G03X4210880I7180J7180D01*
G37*
G36*
G01X4464880D02*
X4511570Y11871420D01*
X4457700Y11927840D01*
X4403830Y11871420D01*
X4450520Y11824730D01*
G03X4464880I7180J7180D01*
G37*
G36*
G01X4628320Y1489240D02*
X4617550Y1478460D01*
X4635500Y1457960D01*
X4653450Y1478460D01*
X4642680Y1489240D01*
G03X4628320I-7180J-7190D01*
G37*
G36*
G01X4679120Y2187740D02*
X4668350Y2176960D01*
X4686300Y2156460D01*
X4704250Y2176960D01*
X4693480Y2187740D01*
G03X4679120I-7180J-7190D01*
G37*
G36*
G01X4918240Y2928180D02*
X4907460Y2938950D01*
X4886960Y2921000D01*
X4907460Y2903050D01*
X4918240Y2913820D01*
G03Y2928180I-7190J7180D01*
G37*
G36*
G01X5043180Y2816060D02*
X5053950Y2826840D01*
X5036000Y2847340D01*
X5018050Y2826840D01*
X5028820Y2816060D01*
G03X5043180I7180J7190D01*
G37*
G36*
G01X4985580Y2777960D02*
X4996350Y2788740D01*
X4978400Y2809240D01*
X4960450Y2788740D01*
X4971220Y2777960D01*
G03X4985580I7180J7190D01*
G37*
G36*
G01X4860760Y2824920D02*
X4871540Y2814150D01*
X4892040Y2832100D01*
X4871540Y2850050D01*
X4860760Y2839280D01*
G03Y2824920I7190J-7180D01*
G37*
G36*
G01Y2748720D02*
X4871540Y2737950D01*
X4892040Y2755900D01*
X4871540Y2773850D01*
X4860760Y2763080D01*
G03Y2748720I7190J-7180D01*
G37*
G36*
G01X4602920Y4638840D02*
X4592150Y4628060D01*
X4610100Y4607560D01*
X4628050Y4628060D01*
X4617280Y4638840D01*
G03X4602920I-7180J-7190D01*
G37*
G36*
G01X4765840Y4769680D02*
X4755060Y4780450D01*
X4734560Y4762500D01*
X4755060Y4744550D01*
X4765840Y4755320D01*
G03Y4769680I-7190J7180D01*
G37*
G36*
G01X4970950Y5195500D02*
X4969480Y5179020D01*
X4992000Y5165850D01*
X5009050Y5186850D01*
X4992580Y5203340D01*
G03X4970950Y5195500I-8981J-8980D01*
G37*
G36*
G01X5042580Y5531260D02*
X5051550Y5540250D01*
X5033600Y5561380D01*
X5015650Y5540250D01*
X5024620Y5531260D01*
G03X5042580I8980J8980D01*
G37*
G36*
G01X5090780Y5584660D02*
X5101550Y5595440D01*
X5083600Y5615940D01*
X5065650Y5595440D01*
X5076420Y5584660D01*
G03X5090780I7180J7190D01*
G37*
G36*
G01X5140780Y5630380D02*
X5151550Y5641160D01*
X5133600Y5661660D01*
X5115650Y5641160D01*
X5126420Y5630380D01*
G03X5140780I7180J7190D01*
G37*
G36*
G01X4840780Y5864060D02*
X4851550Y5874840D01*
X4833600Y5895340D01*
X4815650Y5874840D01*
X4826420Y5864060D01*
G03X4840780I7180J7190D01*
G37*
G36*
G01X4640780Y5824060D02*
X4651550Y5834840D01*
X4633600Y5855340D01*
X4615650Y5834840D01*
X4626420Y5824060D01*
G03X4640780I7180J7190D01*
G37*
G36*
G01X4790780Y5813260D02*
X4801550Y5824040D01*
X4783600Y5844540D01*
X4765650Y5824040D01*
X4776420Y5813260D01*
G03X4790780I7180J7190D01*
G37*
G36*
G01X4948840Y6210300D02*
X4933600D01*
X4931800Y6183100D01*
X4959000Y6184900D01*
Y6200140D01*
G03X4948840Y6210300I-10160J0D01*
G37*
G36*
G01X4940780Y6156160D02*
X4951550Y6166940D01*
X4933600Y6187440D01*
X4915650Y6166940D01*
X4926420Y6156160D01*
G03X4940780I7180J7190D01*
G37*
G36*
G01X4858200Y6155240D02*
Y6134100D01*
X4885090Y6132040D01*
X4887260Y6158810D01*
X4872030Y6164710D01*
G03X4858200Y6155240I-3673J-9470D01*
G37*
G36*
G01X4890780Y6105360D02*
X4901550Y6116140D01*
X4883600Y6136640D01*
X4865650Y6116140D01*
X4876420Y6105360D01*
G03X4890780I7180J7190D01*
G37*
G36*
G01X4911560Y7244520D02*
X4922340Y7233750D01*
X4942840Y7251700D01*
X4922340Y7269650D01*
X4911560Y7258880D01*
G03Y7244520I7190J-7180D01*
G37*
G36*
G01X4962360Y7193720D02*
X4973140Y7182950D01*
X4993640Y7200900D01*
X4973140Y7218850D01*
X4962360Y7208080D01*
G03Y7193720I7190J-7180D01*
G37*
G36*
G01X4709160Y7124700D02*
X4724400D01*
X4726200Y7151900D01*
X4699000Y7150100D01*
Y7134860D01*
G03X4709160Y7124700I10160J0D01*
G37*
G36*
G01X4810760D02*
X4826000D01*
X4827800Y7151900D01*
X4800600Y7150100D01*
Y7134860D01*
G03X4810760Y7124700I10160J0D01*
G37*
G36*
G01X4861560Y7073900D02*
X4876800D01*
X4878600Y7101100D01*
X4851400Y7099300D01*
Y7084060D01*
G03X4861560Y7073900I10160J0D01*
G37*
G36*
G01X5049080Y7222960D02*
X5059850Y7233740D01*
X5041900Y7254240D01*
X5023950Y7233740D01*
X5034720Y7222960D01*
G03X5049080I7180J7190D01*
G37*
G36*
G01X4925060Y7023100D02*
X4940300D01*
X4942100Y7050300D01*
X4914900Y7048500D01*
Y7033260D01*
G03X4925060Y7023100I10160J0D01*
G37*
G36*
G01X4978400Y7810500D02*
Y7823200D01*
X4950750Y7825450D01*
X4953000Y7797800D01*
X4965700D01*
G03X4978400Y7810500I0J12700D01*
G37*
G36*
G01X4924620Y7449740D02*
X4915650Y7440750D01*
X4933600Y7419620D01*
X4951550Y7440750D01*
X4942580Y7449740D01*
G03X4924620I-8980J-8980D01*
G37*
G36*
G01X4602040Y8719800D02*
X4622950Y8704010D01*
X4720740Y8725620D01*
X4622950Y8747190D01*
X4601900Y8729750D01*
G03X4602040Y8719800I8929J-4850D01*
G37*
G36*
G01X4834500Y8729750D02*
X4813450Y8747190D01*
X4715660Y8725620D01*
X4813450Y8704010D01*
X4834360Y8719800D01*
G03X4834500Y8729750I-8789J5100D01*
G37*
G36*
G01X4886160Y8717720D02*
X4896940Y8706950D01*
X4917440Y8724900D01*
X4896940Y8742850D01*
X4886160Y8732080D01*
G03Y8717720I7190J-7180D01*
G37*
G36*
G01Y8641520D02*
X4896940Y8630750D01*
X4917440Y8648700D01*
X4896940Y8666650D01*
X4886160Y8655880D01*
G03Y8641520I7190J-7180D01*
G37*
G36*
G01X4835960Y8654970D02*
X4813450Y8667190D01*
X4715660Y8645530D01*
X4813450Y8624010D01*
X4836730Y8643550D01*
G03X4835960Y8654970I-8760J5145D01*
G37*
G36*
G01X4886160Y8558420D02*
X4896940Y8547650D01*
X4917440Y8565600D01*
X4896940Y8583550D01*
X4886160Y8572780D01*
G03Y8558420I7190J-7180D01*
G37*
G36*
G01X4833850Y8570350D02*
X4813450Y8587190D01*
X4715660Y8565600D01*
X4813450Y8544010D01*
X4833850Y8560850D01*
G03Y8570350I-8980J4750D01*
G37*
G36*
G01X4886160Y8478420D02*
X4896940Y8467650D01*
X4917440Y8485600D01*
X4896940Y8503550D01*
X4886160Y8492780D01*
G03Y8478420I7190J-7180D01*
G37*
G36*
G01X4833850Y8490350D02*
X4813450Y8507190D01*
X4715660Y8485600D01*
X4813450Y8464010D01*
X4833850Y8480850D01*
G03Y8490350I-8980J4750D01*
G37*
G36*
G01X4885640Y8397330D02*
X4898220Y8388360D01*
X4917430Y8407600D01*
X4896940Y8425350D01*
X4884360Y8412780D01*
G03X4885640Y8397330I7189J-7182D01*
G37*
G36*
G01X4833850Y8410350D02*
X4813450Y8427190D01*
X4715660Y8405600D01*
X4813450Y8384010D01*
X4833850Y8400850D01*
G03Y8410350I-8980J4750D01*
G37*
G36*
G01X4602550Y8880850D02*
X4622950Y8864010D01*
X4720740Y8885600D01*
X4622950Y8907190D01*
X4602550Y8890350D01*
G03Y8880850I8980J-4750D01*
G37*
G36*
G01X4886160Y8798420D02*
X4896940Y8787650D01*
X4917440Y8805600D01*
X4896940Y8823550D01*
X4886160Y8812780D01*
G03Y8798420I7190J-7180D01*
G37*
G36*
G01X4833850Y8810350D02*
X4813450Y8827190D01*
X4715660Y8805600D01*
X4813450Y8784010D01*
X4833850Y8800850D01*
G03Y8810350I-8980J4750D01*
G37*
G36*
G01X4602320Y9200770D02*
X4622950Y9184010D01*
X4721380Y9205600D01*
X4622950Y9227190D01*
X4602320Y9210430D01*
G03Y9200770I11750J-4830D01*
G37*
G36*
G01X4834080Y9290430D02*
X4813450Y9307190D01*
X4715020Y9285600D01*
X4813450Y9264010D01*
X4834080Y9280770D01*
G03Y9290430I-11750J4830D01*
G37*
G36*
G01X4886060Y9276620D02*
X4895050Y9267650D01*
X4916180Y9285600D01*
X4895050Y9303550D01*
X4886060Y9294580D01*
G03Y9276620I8980J-8980D01*
G37*
G36*
G01X4602550Y9440850D02*
X4622950Y9424010D01*
X4720740Y9445600D01*
X4622950Y9467190D01*
X4602550Y9450350D01*
G03Y9440850I8980J-4750D01*
G37*
G36*
G01Y9360850D02*
X4622950Y9344010D01*
X4720740Y9365600D01*
X4622950Y9387190D01*
X4602550Y9370350D01*
G03Y9360850I8980J-4750D01*
G37*
G36*
G01Y9120850D02*
X4622950Y9104010D01*
X4720740Y9125600D01*
X4622950Y9147190D01*
X4602550Y9130350D01*
G03Y9120850I8980J-4750D01*
G37*
G36*
G01Y9040850D02*
X4622950Y9024010D01*
X4720740Y9045600D01*
X4622950Y9067190D01*
X4602550Y9050350D01*
G03Y9040850I8980J-4750D01*
G37*
G36*
G01Y8960850D02*
X4622950Y8944010D01*
X4720740Y8965600D01*
X4622950Y8987190D01*
X4602550Y8970350D01*
G03Y8960850I8980J-4750D01*
G37*
G36*
G01X4833850Y9930350D02*
X4813450Y9947190D01*
X4715660Y9925600D01*
X4813450Y9904010D01*
X4833850Y9920850D01*
G03Y9930350I-8980J4750D01*
G37*
G36*
G01X5013160Y9918420D02*
X5023940Y9907650D01*
X5044440Y9925600D01*
X5023940Y9943550D01*
X5013160Y9932780D01*
G03Y9918420I7190J-7180D01*
G37*
G36*
G01X4833850Y9850350D02*
X4813450Y9867190D01*
X4715660Y9845600D01*
X4813450Y9824010D01*
X4833850Y9840850D01*
G03Y9850350I-8980J4750D01*
G37*
G36*
G01X5013160Y9838420D02*
X5023940Y9827650D01*
X5044440Y9845600D01*
X5023940Y9863550D01*
X5013160Y9852780D01*
G03Y9838420I7190J-7180D01*
G37*
G36*
G01X4833850Y9770350D02*
X4813450Y9787190D01*
X4715660Y9765600D01*
X4813450Y9744010D01*
X4833850Y9760850D01*
G03Y9770350I-8980J4750D01*
G37*
G36*
G01X5013160Y9758420D02*
X5023940Y9747650D01*
X5044440Y9765600D01*
X5023940Y9783550D01*
X5013160Y9772780D01*
G03Y9758420I7190J-7180D01*
G37*
G36*
G01X4602550Y9600850D02*
X4622950Y9584010D01*
X4720740Y9605600D01*
X4622950Y9627190D01*
X4602550Y9610350D01*
G03Y9600850I8980J-4750D01*
G37*
G36*
G01Y9520850D02*
X4622950Y9504010D01*
X4720740Y9525600D01*
X4622950Y9547190D01*
X4602550Y9530350D01*
G03Y9520850I8980J-4750D01*
G37*
G36*
G01X4602320Y9680770D02*
X4622950Y9664010D01*
X4721380Y9685600D01*
X4622950Y9707190D01*
X4602320Y9690430D01*
G03Y9680770I11750J-4830D01*
G37*
G36*
G01X4833850Y10090350D02*
X4813450Y10107190D01*
X4715660Y10085600D01*
X4813450Y10064010D01*
X4833850Y10080850D01*
G03Y10090350I-8980J4750D01*
G37*
G36*
G01X5013160Y10078420D02*
X5023940Y10067650D01*
X5044440Y10085600D01*
X5023940Y10103550D01*
X5013160Y10092780D01*
G03Y10078420I7190J-7180D01*
G37*
G36*
G01X4833850Y10010350D02*
X4813450Y10027190D01*
X4715660Y10005600D01*
X4813450Y9984010D01*
X4833850Y10000850D01*
G03Y10010350I-8980J4750D01*
G37*
G36*
G01X5013160Y9998420D02*
X5023940Y9987650D01*
X5044440Y10005600D01*
X5023940Y10023550D01*
X5013160Y10012780D01*
G03Y9998420I7190J-7180D01*
G37*
G36*
G01X4972880Y11824730D02*
X5019570Y11871420D01*
X4965700Y11927840D01*
X4911830Y11871420D01*
X4958520Y11824730D01*
G03X4972880I7180J7180D01*
G37*
G36*
G01X4718880D02*
X4765570Y11871420D01*
X4711700Y11927840D01*
X4657830Y11871420D01*
X4704520Y11824730D01*
G03X4718880I7180J7180D01*
G37*
G36*
G01X5624560Y2467520D02*
X5633550Y2458550D01*
X5654680Y2476500D01*
X5633550Y2494450D01*
X5624560Y2485480D01*
G03Y2467520I8980J-8980D01*
G37*
G36*
G01X5170440Y2485480D02*
X5161450Y2494450D01*
X5140320Y2476500D01*
X5161450Y2458550D01*
X5170440Y2467520D01*
G03Y2485480I-8980J8980D01*
G37*
G36*
G01X5595180Y3882860D02*
X5605950Y3893640D01*
X5588000Y3914140D01*
X5570050Y3893640D01*
X5580820Y3882860D01*
G03X5595180I7180J7190D01*
G37*
G36*
G01X5664200Y3987800D02*
X5651500Y3975100D01*
X5650080Y3959560D01*
X5676900Y3962400D01*
Y3987800D01*
X5664200D01*
G37*
G36*
G01X5203660Y4882320D02*
X5214440Y4871550D01*
X5234940Y4889500D01*
X5214440Y4907450D01*
X5203660Y4896680D01*
G03Y4882320I7190J-7180D01*
G37*
G36*
G01X5521960Y5003800D02*
X5537200D01*
X5539000Y5031000D01*
X5511800Y5029200D01*
Y5013960D01*
G03X5521960Y5003800I10160J0D01*
G37*
G36*
G01X5528220Y5195840D02*
X5519250Y5186850D01*
X5537200Y5165720D01*
X5555150Y5186850D01*
X5546180Y5195840D01*
G03X5528220I-8980J-8980D01*
G37*
G36*
G01X5542580Y5532060D02*
X5551550Y5541050D01*
X5533600Y5562180D01*
X5515650Y5541050D01*
X5524620Y5532060D01*
G03X5542580I8980J8980D01*
G37*
G36*
G01X5226420Y5248440D02*
X5215650Y5237660D01*
X5233600Y5217160D01*
X5251550Y5237660D01*
X5240780Y5248440D01*
G03X5226420I-7180J-7190D01*
G37*
G36*
G01X5326420D02*
X5315650Y5237660D01*
X5333600Y5217160D01*
X5351550Y5237660D01*
X5340780Y5248440D01*
G03X5326420I-7180J-7190D01*
G37*
G36*
G01X5426420D02*
X5415650Y5237660D01*
X5433600Y5217160D01*
X5451550Y5237660D01*
X5440780Y5248440D01*
G03X5426420I-7180J-7190D01*
G37*
G36*
G01X5375670Y5198000D02*
X5366100Y5186020D01*
X5384930Y5166360D01*
X5402750Y5186860D01*
X5390780Y5198840D01*
G03X5375670Y5198000I-7179J-7190D01*
G37*
G36*
G01X5276420Y5202720D02*
X5265650Y5191940D01*
X5283600Y5171440D01*
X5301550Y5191940D01*
X5290780Y5202720D01*
G03X5276420I-7180J-7190D01*
G37*
G36*
G01X5190780Y5676100D02*
X5201550Y5686880D01*
X5183600Y5707380D01*
X5165650Y5686880D01*
X5176420Y5676100D01*
G03X5190780I7180J7190D01*
G37*
G36*
G01X5486400Y6085840D02*
Y6070600D01*
X5513600Y6068800D01*
X5511800Y6096000D01*
X5496560D01*
G03X5486400Y6085840I0J-10160D01*
G37*
G36*
G01X5480880Y6511760D02*
X5491650Y6522540D01*
X5473700Y6543040D01*
X5455750Y6522540D01*
X5466520Y6511760D01*
G03X5480880I7180J7190D01*
G37*
G36*
G01X5461000Y7797800D02*
Y7810500D01*
X5433350Y7812750D01*
X5435600Y7785100D01*
X5448300D01*
G03X5461000Y7797800I0J12700D01*
G37*
G36*
G01X5424620Y7445740D02*
X5415650Y7436750D01*
X5433600Y7415620D01*
X5451550Y7436750D01*
X5442580Y7445740D01*
G03X5424620I-8980J-8980D01*
G37*
G36*
G01X5390780Y7819860D02*
X5401550Y7830640D01*
X5383600Y7851140D01*
X5365650Y7830640D01*
X5376420Y7819860D01*
G03X5390780I7180J7190D01*
G37*
G36*
G01X5340780Y7784300D02*
X5351550Y7795080D01*
X5333600Y7815580D01*
X5315650Y7795080D01*
X5326420Y7784300D01*
G03X5340780I7180J7190D01*
G37*
G36*
G01X5290780Y7748740D02*
X5301550Y7759520D01*
X5283600Y7780020D01*
X5265650Y7759520D01*
X5276420Y7748740D01*
G03X5290780I7180J7190D01*
G37*
G36*
G01X5501640Y7912100D02*
X5486400D01*
X5484600Y7884900D01*
X5511800Y7886700D01*
Y7901940D01*
G03X5501640Y7912100I-10160J0D01*
G37*
G36*
G01X5511800Y7871460D02*
Y7886700D01*
X5484600Y7888500D01*
X5486400Y7861300D01*
X5501640D01*
G03X5511800Y7871460I0J10160D01*
G37*
G36*
G01X5557080Y8782520D02*
X5567850Y8793300D01*
X5549900Y8813800D01*
X5531950Y8793300D01*
X5542720Y8782520D01*
G03X5557080I7180J7190D01*
G37*
G36*
G01X5507080Y8736800D02*
X5517850Y8747580D01*
X5499900Y8768080D01*
X5481950Y8747580D01*
X5492720Y8736800D01*
G03X5507080I7180J7190D01*
G37*
G36*
G01X5457080Y8691080D02*
X5467850Y8701860D01*
X5449900Y8722360D01*
X5431950Y8701860D01*
X5442720Y8691080D01*
G03X5457080I7180J7190D01*
G37*
G36*
G01X5404680Y8645360D02*
X5415450Y8656140D01*
X5397500Y8676640D01*
X5379550Y8656140D01*
X5390320Y8645360D01*
G03X5404680I7180J7190D01*
G37*
G36*
G01X5629540Y9214580D02*
X5618650Y9225450D01*
X5597540Y9207800D01*
X5616600Y9187880D01*
X5627490Y9194960D01*
G03X5629540Y9214580I-6931J10641D01*
G37*
G36*
G01X5644320Y9871240D02*
X5633550Y9860460D01*
X5651500Y9839960D01*
X5669450Y9860460D01*
X5658680Y9871240D01*
G03X5644320I-7180J-7190D01*
G37*
G36*
G01X5680240Y9772780D02*
X5669460Y9783550D01*
X5648960Y9765600D01*
X5669460Y9747650D01*
X5680240Y9758420D01*
G03Y9772780I-7190J7180D01*
G37*
G36*
G01Y9692780D02*
X5669460Y9703550D01*
X5648960Y9685600D01*
X5669460Y9667650D01*
X5680240Y9678420D01*
G03Y9692780I-7190J7180D01*
G37*
G36*
G01X5480880Y11824730D02*
X5527570Y11871420D01*
X5473700Y11927840D01*
X5419830Y11871420D01*
X5466520Y11824730D01*
G03X5480880I7180J7180D01*
G37*
G36*
G01X5979160Y4445000D02*
X5994400D01*
X5996200Y4472200D01*
X5969000Y4470400D01*
Y4455160D01*
G03X5979160Y4445000I10160J0D01*
G37*
G36*
G01X6009640Y4495800D02*
X5994400D01*
X5992600Y4468600D01*
X6019800Y4470400D01*
Y4485640D01*
G03X6009640Y4495800I-10160J0D01*
G37*
G36*
G01X6080760Y4470400D02*
X6096000D01*
X6097800Y4497600D01*
X6070600Y4495800D01*
Y4480560D01*
G03X6080760Y4470400I10160J0D01*
G37*
G36*
G01X6111240Y4521200D02*
X6096000D01*
X6094200Y4494000D01*
X6121400Y4495800D01*
Y4511040D01*
G03X6111240Y4521200I-10160J0D01*
G37*
G36*
G01X5814060Y4699000D02*
X5829300D01*
X5831100Y4726200D01*
X5803900Y4724400D01*
Y4709160D01*
G03X5814060Y4699000I10160J0D01*
G37*
G36*
G01X5790780Y5528760D02*
X5801550Y5539540D01*
X5783600Y5560040D01*
X5765650Y5539540D01*
X5776420Y5528760D01*
G03X5790780I7180J7190D01*
G37*
G36*
G01X6040780Y5533860D02*
X6051550Y5544640D01*
X6033600Y5565140D01*
X6015650Y5544640D01*
X6026420Y5533860D01*
G03X6040780I7180J7190D01*
G37*
G36*
G01X6104280D02*
X6115050Y5544640D01*
X6097100Y5565140D01*
X6079150Y5544640D01*
X6089920Y5533860D01*
G03X6104280I7180J7190D01*
G37*
G36*
G01X5905500Y5534660D02*
Y5562600D01*
X5878880Y5564830D01*
X5873600Y5539560D01*
X5888840Y5526850D01*
G03X5905500Y5534660I6499J7810D01*
G37*
G36*
G01X5981700Y5547360D02*
Y5562600D01*
X5954500Y5564400D01*
X5956300Y5537200D01*
X5971540D01*
G03X5981700Y5547360I0J10160D01*
G37*
G36*
G01X6124620Y5195840D02*
X6115650Y5186850D01*
X6133600Y5165720D01*
X6151550Y5186850D01*
X6142580Y5195840D01*
G03X6124620I-8980J-8980D01*
G37*
G36*
G01X5892800Y6123940D02*
Y6108700D01*
X5920000Y6106900D01*
X5918200Y6134100D01*
X5902960D01*
G03X5892800Y6123940I0J-10160D01*
G37*
G36*
G01X5854700Y6073140D02*
Y6057900D01*
X5881900Y6056100D01*
X5880100Y6083300D01*
X5864860D01*
G03X5854700Y6073140I0J-10160D01*
G37*
G36*
G01X5930900Y6173940D02*
Y6158700D01*
X5958100Y6156900D01*
X5956300Y6184100D01*
X5941060D01*
G03X5930900Y6173940I0J-10160D01*
G37*
G36*
G01X6108700Y6708140D02*
Y6692900D01*
X6135900Y6691100D01*
X6134100Y6718300D01*
X6118860D01*
G03X6108700Y6708140I0J-10160D01*
G37*
G36*
G01X6103620Y6583680D02*
X6118860Y6568440D01*
X6136370Y6567300D01*
X6134100Y6593840D01*
X6103620D01*
Y6583680D01*
G37*
G36*
G01X6197600Y6489700D02*
X6184900D01*
X6182650Y6462050D01*
X6210300Y6464300D01*
Y6477000D01*
G03X6197600Y6489700I-12700J0D01*
G37*
G36*
G01X6007100Y6273940D02*
Y6258700D01*
X6034300Y6256900D01*
X6032500Y6284100D01*
X6017260D01*
G03X6007100Y6273940I0J-10160D01*
G37*
G36*
G01X5918200Y6639560D02*
Y6654800D01*
X5891000Y6656600D01*
X5892800Y6629400D01*
X5908040D01*
G03X5918200Y6639560I0J10160D01*
G37*
G36*
G01X5969000Y6223940D02*
Y6208700D01*
X5996200Y6206900D01*
X5994400Y6234100D01*
X5979160D01*
G03X5969000Y6223940I0J-10160D01*
G37*
G36*
G01X6098350Y6511140D02*
X6111060Y6495900D01*
X6136330Y6501180D01*
X6134100Y6527800D01*
X6106160D01*
G03X6098350Y6511140I0J-10161D01*
G37*
G36*
G01X6083300Y6377940D02*
Y6362700D01*
X6110500Y6360900D01*
X6108700Y6388100D01*
X6093460D01*
G03X6083300Y6377940I0J-10160D01*
G37*
G36*
G01X6045200Y6323940D02*
Y6308700D01*
X6072400Y6306900D01*
X6070600Y6334100D01*
X6055360D01*
G03X6045200Y6323940I0J-10160D01*
G37*
G36*
G01X6098350Y6638140D02*
X6111060Y6622900D01*
X6136330Y6628180D01*
X6134100Y6654800D01*
X6106160D01*
G03X6098350Y6638140I0J-10161D01*
G37*
G36*
G01X6159500Y6906260D02*
Y6921500D01*
X6132300Y6923300D01*
X6134100Y6896100D01*
X6149340D01*
G03X6159500Y6906260I0J10160D01*
G37*
G36*
G01X6126920Y6950240D02*
X6116150Y6939460D01*
X6134100Y6918960D01*
X6152050Y6939460D01*
X6141280Y6950240D01*
G03X6126920I-7180J-7190D01*
G37*
G36*
G01X6184900Y7747000D02*
X6197600D01*
X6199850Y7774650D01*
X6172200Y7772400D01*
Y7759700D01*
G03X6184900Y7747000I12700J0D01*
G37*
G36*
G01X6074620Y7456740D02*
X6065650Y7447750D01*
X6083600Y7426620D01*
X6101550Y7447750D01*
X6092580Y7456740D01*
G03X6074620I-8980J-8980D01*
G37*
G36*
G01X5983600Y7901300D02*
X6030600Y7901310D01*
X6034750Y7965150D01*
X5970910Y7961000D01*
X5970900Y7914000D01*
G03X5983600Y7901300I12700J0D01*
G37*
G36*
G01X5736940Y8373860D02*
X5943450Y8384020D01*
X5858170Y8407530D01*
X5752950Y8427190D01*
X5727410Y8387550D01*
G03X5736940Y8373860I9530J-3528D01*
G37*
G36*
G01X5746220Y8453860D02*
X5943450Y8464020D01*
X5858140Y8487700D01*
X5752950Y8507190D01*
X5736180Y8465580D01*
G03X5746220Y8453860I10040J-1560D01*
G37*
G36*
G01X5963850Y8570350D02*
X5943450Y8587190D01*
X5845660Y8565600D01*
X5943450Y8544010D01*
X5963850Y8560850D01*
G03Y8570350I-8980J4750D01*
G37*
G36*
G01X5978360Y8558420D02*
X5989140Y8547650D01*
X6009640Y8565600D01*
X5989140Y8583550D01*
X5978360Y8572780D01*
G03Y8558420I7190J-7180D01*
G37*
G36*
G01X5963850Y8650350D02*
X5943450Y8667190D01*
X5845660Y8645600D01*
X5943450Y8624010D01*
X5963850Y8640850D01*
G03Y8650350I-8980J4750D01*
G37*
G36*
G01X5978360Y8638420D02*
X5989140Y8627650D01*
X6009640Y8645600D01*
X5989140Y8663550D01*
X5978360Y8652780D01*
G03Y8638420I7190J-7180D01*
G37*
G36*
G01X5963850Y8730350D02*
X5943450Y8747190D01*
X5845660Y8725600D01*
X5943450Y8704010D01*
X5963850Y8720850D01*
G03Y8730350I-8980J4750D01*
G37*
G36*
G01X5978360Y8718420D02*
X5989140Y8707650D01*
X6009640Y8725600D01*
X5989140Y8743550D01*
X5978360Y8732780D01*
G03Y8718420I7190J-7180D01*
G37*
G36*
G01X5963850Y8890350D02*
X5943450Y8907190D01*
X5845660Y8885600D01*
X5943450Y8864010D01*
X5963850Y8880850D01*
G03Y8890350I-8980J4750D01*
G37*
G36*
G01X5732550Y8880850D02*
X5752950Y8864010D01*
X5850740Y8885600D01*
X5752950Y8907190D01*
X5732550Y8890350D01*
G03Y8880850I8980J-4750D01*
G37*
G36*
G01X5965560Y9276620D02*
X5974550Y9267650D01*
X5995680Y9285600D01*
X5974550Y9303550D01*
X5965560Y9294580D01*
G03Y9276620I8980J-8980D01*
G37*
G36*
G01X5964080Y9290430D02*
X5943450Y9307190D01*
X5845020Y9285600D01*
X5943450Y9264010D01*
X5964080Y9280770D01*
G03Y9290430I-11750J4830D01*
G37*
G36*
G01X5732320Y9200770D02*
X5752950Y9184010D01*
X5851380Y9205600D01*
X5752950Y9227190D01*
X5732320Y9210430D01*
G03Y9200770I11750J-4830D01*
G37*
G36*
G01X5732550Y9440850D02*
X5752950Y9424010D01*
X5850740Y9445600D01*
X5752950Y9467190D01*
X5732550Y9450350D01*
G03Y9440850I8980J-4750D01*
G37*
G36*
G01X5963850Y9450350D02*
X5943450Y9467190D01*
X5845660Y9445600D01*
X5943450Y9424010D01*
X5963850Y9440850D01*
G03Y9450350I-8980J4750D01*
G37*
G36*
G01Y8970350D02*
X5943450Y8987190D01*
X5845660Y8965600D01*
X5943450Y8944010D01*
X5963850Y8960850D01*
G03Y8970350I-8980J4750D01*
G37*
G36*
G01X5732550Y8960850D02*
X5752950Y8944010D01*
X5850740Y8965600D01*
X5752950Y8987190D01*
X5732550Y8970350D01*
G03Y8960850I8980J-4750D01*
G37*
G36*
G01X5963850Y9050350D02*
X5943450Y9067190D01*
X5845660Y9045600D01*
X5943450Y9024010D01*
X5963850Y9040850D01*
G03Y9050350I-8980J4750D01*
G37*
G36*
G01X5732550Y9040850D02*
X5752950Y9024010D01*
X5850740Y9045600D01*
X5752950Y9067190D01*
X5732550Y9050350D01*
G03Y9040850I8980J-4750D01*
G37*
G36*
G01X5963850Y9130350D02*
X5943450Y9147190D01*
X5845660Y9125600D01*
X5943450Y9104010D01*
X5963850Y9120850D01*
G03Y9130350I-8980J4750D01*
G37*
G36*
G01X5732550Y9120850D02*
X5752950Y9104010D01*
X5850740Y9125600D01*
X5752950Y9147190D01*
X5732550Y9130350D01*
G03Y9120850I8980J-4750D01*
G37*
G36*
G01X5963850Y9370350D02*
X5943450Y9387190D01*
X5845660Y9365600D01*
X5943450Y9344010D01*
X5963850Y9360850D01*
G03Y9370350I-8980J4750D01*
G37*
G36*
G01X5732550Y9360850D02*
X5752950Y9344010D01*
X5850740Y9365600D01*
X5752950Y9387190D01*
X5732550Y9370350D01*
G03Y9360850I8980J-4750D01*
G37*
G36*
G01X6009640Y9715500D02*
X5994400D01*
X5992600Y9688300D01*
X6019800Y9690100D01*
Y9705340D01*
G03X6009640Y9715500I-10160J0D01*
G37*
G36*
G01X5732550Y9920850D02*
X5752950Y9904010D01*
X5850740Y9925600D01*
X5752950Y9947190D01*
X5732550Y9930350D01*
G03Y9920850I8980J-4750D01*
G37*
G36*
G01Y9520850D02*
X5752950Y9504010D01*
X5850740Y9525600D01*
X5752950Y9547190D01*
X5732550Y9530350D01*
G03Y9520850I8980J-4750D01*
G37*
G36*
G01X5963850Y9530350D02*
X5943450Y9547190D01*
X5845660Y9525600D01*
X5943450Y9504010D01*
X5963850Y9520850D01*
G03Y9530350I-8980J4750D01*
G37*
G36*
G01X5732550Y9600850D02*
X5752950Y9584010D01*
X5850740Y9605600D01*
X5752950Y9627190D01*
X5732550Y9610350D01*
G03Y9600850I8980J-4750D01*
G37*
G36*
G01X5963850Y9610350D02*
X5943450Y9627190D01*
X5845660Y9605600D01*
X5943450Y9584010D01*
X5963850Y9600850D01*
G03Y9610350I-8980J4750D01*
G37*
G36*
G01X5732550Y9760850D02*
X5752950Y9744010D01*
X5850740Y9765600D01*
X5752950Y9787190D01*
X5732550Y9770350D01*
G03Y9760850I8980J-4750D01*
G37*
G36*
G01Y9680850D02*
X5752950Y9664010D01*
X5850740Y9685600D01*
X5752950Y9707190D01*
X5732550Y9690350D01*
G03Y9680850I8980J-4750D01*
G37*
G36*
G01X5965660Y9838420D02*
X5976440Y9827650D01*
X5996940Y9845600D01*
X5976440Y9863550D01*
X5965660Y9852780D01*
G03Y9838420I7190J-7180D01*
G37*
G36*
G01X5963850Y9850350D02*
X5943450Y9867190D01*
X5845660Y9845600D01*
X5943450Y9824010D01*
X5963850Y9840850D01*
G03Y9850350I-8980J4750D01*
G37*
G36*
G01X5732550Y10000850D02*
X5752950Y9984010D01*
X5850740Y10005600D01*
X5752950Y10027190D01*
X5732550Y10010350D01*
G03Y10000850I8980J-4750D01*
G37*
G36*
G01Y10080850D02*
X5752950Y10064010D01*
X5850740Y10085600D01*
X5752950Y10107190D01*
X5732550Y10090350D01*
G03Y10080850I8980J-4750D01*
G37*
G36*
G01X6184900Y10652760D02*
Y10668000D01*
X6157700Y10669800D01*
X6159500Y10642600D01*
X6174740D01*
G03X6184900Y10652760I0J10160D01*
G37*
G36*
G01X6051080Y10825180D02*
X6040300Y10835950D01*
X6019800Y10818000D01*
X6040300Y10800050D01*
X6051080Y10810820D01*
G03Y10825180I-7190J7180D01*
G37*
G36*
G01X6096800Y10775180D02*
X6086020Y10785950D01*
X6065520Y10768000D01*
X6086020Y10750050D01*
X6096800Y10760820D01*
G03Y10775180I-7190J7180D01*
G37*
G36*
G01X6142520Y10725180D02*
X6131740Y10735950D01*
X6111240Y10718000D01*
X6131740Y10700050D01*
X6142520Y10710820D01*
G03Y10725180I-7190J7180D01*
G37*
G36*
G01X6169660Y11849100D02*
X6235700D01*
X6237500Y11927100D01*
X6159500Y11925300D01*
Y11859260D01*
G03X6169660Y11849100I10160J0D01*
G37*
G36*
G01X5988880Y11824730D02*
X6035570Y11871420D01*
X5981700Y11927840D01*
X5927830Y11871420D01*
X5974520Y11824730D01*
G03X5988880I7180J7180D01*
G37*
G36*
G01X5734880D02*
X5781570Y11871420D01*
X5727700Y11927840D01*
X5673830Y11871420D01*
X5720520Y11824730D01*
G03X5734880I7180J7180D01*
G37*
G36*
G01X6760970Y273910D02*
X6692900Y200660D01*
X6743070Y136590D01*
X6794500Y200660D01*
X6780890Y268870D01*
G03X6760970Y273910I-11792J-4719D01*
G37*
G36*
G01X6776530Y228470D02*
X6814820Y271780D01*
X6769100Y320680D01*
X6723380Y271780D01*
X6761670Y228470D01*
G03X6776530I7430J10300D01*
G37*
G36*
G01X6685720Y2517940D02*
X6674950Y2507160D01*
X6692900Y2486660D01*
X6710850Y2507160D01*
X6700080Y2517940D01*
G03X6685720I-7180J-7190D01*
G37*
G36*
G01X6407980Y4428960D02*
X6418750Y4439740D01*
X6400800Y4460240D01*
X6382850Y4439740D01*
X6393620Y4428960D01*
G03X6407980I7180J7190D01*
G37*
G36*
G01X6613360Y4531800D02*
X6624140Y4521030D01*
X6644640Y4538980D01*
X6624140Y4556930D01*
X6613360Y4546160D01*
G03Y4531800I7190J-7180D01*
G37*
G36*
G01Y4608000D02*
X6624140Y4597230D01*
X6644640Y4615180D01*
X6624140Y4633130D01*
X6613360Y4622360D01*
G03Y4608000I7190J-7180D01*
G37*
G36*
G01X6323060Y5380720D02*
X6332050Y5371750D01*
X6353180Y5389700D01*
X6332050Y5407650D01*
X6323060Y5398680D01*
G03Y5380720I8980J-8980D01*
G37*
G36*
G01X6347460Y5130800D02*
X6362700D01*
X6364500Y5158000D01*
X6337300Y5156200D01*
Y5140960D01*
G03X6347460Y5130800I10160J0D01*
G37*
G36*
G01X6219660Y5606220D02*
X6230440Y5595450D01*
X6250940Y5613400D01*
X6230440Y5631350D01*
X6219660Y5620580D01*
G03Y5606220I7190J-7180D01*
G37*
G36*
G01Y5669720D02*
X6230440Y5658950D01*
X6250940Y5676900D01*
X6230440Y5694850D01*
X6219660Y5684080D01*
G03Y5669720I7190J-7180D01*
G37*
G36*
G01Y5987220D02*
X6230440Y5976450D01*
X6250940Y5994400D01*
X6230440Y6012350D01*
X6219660Y6001580D01*
G03Y5987220I7190J-7180D01*
G37*
G36*
G01Y5923720D02*
X6230440Y5912950D01*
X6250940Y5930900D01*
X6230440Y5948850D01*
X6219660Y5938080D01*
G03Y5923720I7190J-7180D01*
G37*
G36*
G01Y5860220D02*
X6230440Y5849450D01*
X6250940Y5867400D01*
X6230440Y5885350D01*
X6219660Y5874580D01*
G03Y5860220I7190J-7180D01*
G37*
G36*
G01Y5796720D02*
X6230440Y5785950D01*
X6250940Y5803900D01*
X6230440Y5821850D01*
X6219660Y5811080D01*
G03Y5796720I7190J-7180D01*
G37*
G36*
G01Y5733220D02*
X6230440Y5722450D01*
X6250940Y5740400D01*
X6230440Y5758350D01*
X6219660Y5747580D01*
G03Y5733220I7190J-7180D01*
G37*
G36*
G01X6642100Y6375400D02*
X6654800D01*
X6657050Y6403050D01*
X6629400Y6400800D01*
Y6388100D01*
G03X6642100Y6375400I12700J0D01*
G37*
G36*
G01X6262640Y6423680D02*
X6253650Y6432650D01*
X6232520Y6414700D01*
X6253650Y6396750D01*
X6262640Y6405720D01*
G03Y6423680I-8980J8980D01*
G37*
G36*
G01Y7123680D02*
X6253650Y7132650D01*
X6232520Y7114700D01*
X6253650Y7096750D01*
X6262640Y7105720D01*
G03Y7123680I-8980J8980D01*
G37*
G36*
G01X6888820Y6671500D02*
X7046470D01*
X7094760Y6623160D01*
Y6524060D01*
X7230840D01*
Y6721500D01*
X7314410D01*
X7325660Y6710240D01*
X7336650Y6524060D01*
X7470840D01*
Y6754840D01*
X7388830Y6769260D01*
X7350190Y6807900D01*
X6543210D01*
Y6813230D01*
G03Y6816170I-45710J1470D01*
G01Y6821500D01*
X7605700D01*
X7658100Y6769100D01*
Y6591300D01*
X7574300Y6507500D01*
X6998890D01*
G02X6989310Y6521040I-1J10158D01*
G03X6965190Y6590050I-55107J19459D01*
G03X6938760Y6598760I-30980J-49553D01*
G01X6936890Y6598910D01*
X6881640Y6654160D01*
G02X6888820Y6671500I7184J7182D01*
G37*
G36*
G01X6248400Y7061200D02*
X6235700D01*
X6233450Y7033550D01*
X6261100Y7035800D01*
Y7048500D01*
G03X6248400Y7061200I-12700J0D01*
G37*
G36*
G01X6261100Y7175500D02*
Y7188200D01*
X6233450Y7190450D01*
X6235700Y7162800D01*
X6248400D01*
G03X6261100Y7175500I0J12700D01*
G37*
G36*
G01X6244680Y7313660D02*
X6253650Y7322650D01*
X6235700Y7343780D01*
X6217750Y7322650D01*
X6226720Y7313660D01*
G03X6244680I8980J8980D01*
G37*
G36*
G01X6235700Y7899400D02*
X6286500D01*
X6288750Y7965150D01*
X6223000Y7962900D01*
Y7912100D01*
G03X6235700Y7899400I12700J0D01*
G37*
G36*
G01X6677660Y11849100D02*
X6743700D01*
X6745500Y11927100D01*
X6667500Y11925300D01*
Y11859260D01*
G03X6677660Y11849100I10160J0D01*
G37*
G36*
G01X6423660D02*
X6489700D01*
X6491500Y11927100D01*
X6413500Y11925300D01*
Y11859260D01*
G03X6423660Y11849100I10160J0D01*
G37*
G36*
G01X7046960Y206920D02*
X7055950Y197950D01*
X7077080Y215900D01*
X7055950Y233850D01*
X7046960Y224880D01*
G03Y206920I8980J-8980D01*
G37*
G36*
G01X7007860Y213360D02*
X6896100Y200660D01*
X6944650Y137450D01*
X6997700Y78740D01*
X7020520Y199610D01*
G03X7007860Y213360I-12660J1047D01*
G37*
G36*
G01X7218170Y273910D02*
X7150100Y200660D01*
X7200270Y136590D01*
X7251700Y200660D01*
X7238090Y268870D01*
G03X7218170Y273910I-11792J-4719D01*
G37*
G36*
G01X7233730Y228470D02*
X7272020Y271780D01*
X7226300Y320680D01*
X7180580Y271780D01*
X7218870Y228470D01*
G03X7233730I7430J10300D01*
G37*
G36*
G01X7010530Y324930D02*
X6967220Y363220D01*
X6918320Y317500D01*
X6967220Y271780D01*
X7010530Y310070D01*
G03Y324930I-10300J7430D01*
G37*
G36*
G01X7046960Y308520D02*
X7055950Y299550D01*
X7077080Y317500D01*
X7055950Y335450D01*
X7046960Y326480D01*
G03Y308520I8980J-8980D01*
G37*
G36*
G01X6867360Y1859720D02*
X6878140Y1848950D01*
X6898640Y1866900D01*
X6878140Y1884850D01*
X6867360Y1874080D01*
G03Y1859720I7190J-7180D01*
G37*
G36*
G01X7216140Y2362200D02*
X7200900D01*
X7199100Y2335000D01*
X7226300Y2336800D01*
Y2352040D01*
G03X7216140Y2362200I-10160J0D01*
G37*
G36*
G01X7254780Y2438970D02*
X7266100Y2452600D01*
X7252100Y2497640D01*
X7238100Y2452600D01*
X7249420Y2438970D01*
G03X7254780I2680J9800D01*
G37*
G36*
G01X7204780D02*
X7216100Y2452600D01*
X7202100Y2497640D01*
X7188100Y2452600D01*
X7199420Y2438970D01*
G03X7204780I2680J9800D01*
G37*
G36*
G01X7138390Y2441640D02*
X7166100Y2452600D01*
X7155230Y2504770D01*
X7138100Y2537600D01*
X7127940Y2451800D01*
G03X7138390Y2441640I10164J0D01*
G37*
G36*
G01X7249420Y2971230D02*
X7238100Y2957600D01*
X7252100Y2912560D01*
X7266100Y2957600D01*
X7254780Y2971230D01*
G03X7249420I-2680J-9800D01*
G37*
G36*
G01X7199420D02*
X7188100Y2957600D01*
X7202100Y2912560D01*
X7216100Y2957600D01*
X7204780Y2971230D01*
G03X7199420I-2680J-9800D01*
G37*
G36*
G01X7125400Y2958400D02*
X7138100Y2872600D01*
X7156010Y2903020D01*
X7166100Y2957600D01*
X7138460Y2971090D01*
G03X7125400Y2958400I-365J-12690D01*
G37*
G36*
G01X6999240Y2980780D02*
X6990250Y2989750D01*
X6969120Y2971800D01*
X6990250Y2953850D01*
X6999240Y2962820D01*
G03Y2980780I-8980J8980D01*
G37*
G36*
G01X7010970Y2727420D02*
X7024600Y2716100D01*
X7069640Y2730100D01*
X7024600Y2744100D01*
X7010970Y2732780D01*
G03Y2727420I9800J-2680D01*
G37*
G36*
G01X6976040Y2737280D02*
X6965260Y2748050D01*
X6944760Y2730100D01*
X6965260Y2712150D01*
X6976040Y2722920D01*
G03Y2737280I-7190J7180D01*
G37*
G36*
G01X7010970Y2627420D02*
X7024600Y2616100D01*
X7069640Y2630100D01*
X7024600Y2644100D01*
X7010970Y2632780D01*
G03Y2627420I9800J-2680D01*
G37*
G36*
G01Y2777420D02*
X7024600Y2766100D01*
X7069640Y2780100D01*
X7024600Y2794100D01*
X7010970Y2782780D01*
G03Y2777420I9800J-2680D01*
G37*
G36*
G01Y2827420D02*
X7024600Y2816100D01*
X7069640Y2830100D01*
X7024600Y2844100D01*
X7010970Y2832780D01*
G03Y2827420I9800J-2680D01*
G37*
G36*
G01X7073250Y2525680D02*
X7109600Y2566100D01*
X7067100Y2582640D01*
X7024600Y2566100D01*
X7060950Y2525680D01*
G03X7073250I6150J8090D01*
G37*
G36*
G01X7059920Y2517940D02*
X7049150Y2507160D01*
X7067100Y2486660D01*
X7085050Y2507160D01*
X7074280Y2517940D01*
G03X7059920I-7180J-7190D01*
G37*
G36*
G01X7218700Y3357990D02*
Y3487310D01*
X7229860Y3498460D01*
X7388540Y3509600D01*
Y3688440D01*
X7186490D01*
X7169810Y3560610D01*
X7137650Y3528440D01*
X6962460D01*
Y3347360D01*
X6982350D01*
X7000950Y3328780D01*
X6995140Y3322360D01*
Y3205230D01*
X7017710Y3180860D01*
X7007840Y3169960D01*
Y3032740D01*
X7104270D01*
X7110790Y3026210D01*
G02X7107200Y3017540I-3590J-3592D01*
G01X7008670D01*
G03X6916200Y2988160I-36369J-45742D01*
G01X6915130Y2984500D01*
X6873800D01*
Y3759200D01*
X7390230D01*
G02X7400350Y3748180I-3J-10159D01*
G03X7493000Y3582440I168849J-14378D01*
G01Y3248790D01*
X7335100Y3090900D01*
G02X7317760Y3098080I-7182J7184D01*
G01Y3169960D01*
X7307890Y3180860D01*
X7330460Y3205230D01*
Y3342660D01*
X7234030D01*
X7218700Y3357990D01*
G37*
G36*
G01X7232760Y3200790D02*
X7193280Y3157220D01*
X7239000Y3108960D01*
X7284720Y3157220D01*
X7245240Y3200790D01*
G03X7232760I-6240J-8020D01*
G37*
G36*
G01X7260540Y3011470D02*
X7284720Y3065780D01*
X7238650Y3114020D01*
X7193280Y3065780D01*
X7245620Y3009300D01*
G03X7260540Y3011470I6479J7828D01*
G37*
G36*
G01X7245470Y3162100D02*
X7297420Y3218180D01*
X7252040Y3266420D01*
X7205980Y3218180D01*
X7230620Y3164190D01*
G03X7245470Y3162100I8380J5741D01*
G37*
G36*
G01X7080360Y3200790D02*
X7040880Y3157220D01*
X7086600Y3108960D01*
X7132320Y3157220D01*
X7092840Y3200790D01*
G03X7080360I-6240J-8020D01*
G37*
G36*
G01X7067660Y3353190D02*
X7028180Y3309620D01*
X7073900Y3261360D01*
X7119620Y3309620D01*
X7080140Y3353190D01*
G03X7067660I-6240J-8020D01*
G37*
G36*
G01X7094980Y3164190D02*
X7119620Y3218180D01*
X7073560Y3266420D01*
X7028180Y3218180D01*
X7080130Y3162100D01*
G03X7094980Y3164190I6470J7831D01*
G37*
G36*
G01X7081190Y3309830D02*
X7135500Y3380400D01*
X7065320Y3440430D01*
X6996020Y3380400D01*
X7067480Y3309030D01*
G03X7081190Y3309830I6419J7872D01*
G37*
G36*
G01X7210700Y3530240D02*
X7355500Y3540400D01*
X7287510Y3599450D01*
X7215500Y3655400D01*
X7200550Y3540820D01*
G03X7210700Y3530240I10150J-421D01*
G37*
G36*
G01X7127240Y4483100D02*
X7112000D01*
X7110200Y4455900D01*
X7137400Y4457700D01*
Y4472940D01*
G03X7127240Y4483100I-10160J0D01*
G37*
G36*
G01X7235140Y5553860D02*
Y5786520D01*
X7266960Y5821640D01*
Y5893520D01*
G02X7284300Y5900700I10158J-4D01*
G01X7287240Y5897770D01*
Y5801340D01*
X7319060D01*
Y5553860D01*
X7485140D01*
Y5799940D01*
X7457550D01*
X7444760Y5812720D01*
Y5958860D01*
X7348330D01*
X7304740Y6002460D01*
G02X7311920Y6019800I7184J7182D01*
G01X7594600D01*
X7785100Y5829300D01*
Y5649090D01*
X7558910Y5422900D01*
X7304330D01*
G03X7212340Y5440700I-52632J-25399D01*
G01X7145000D01*
X6901200Y5684500D01*
Y5809090D01*
X6806140Y5904160D01*
G02X6813320Y5921500I7184J7182D01*
G01X7085710D01*
X7109440Y5897770D01*
Y5821640D01*
X7113680Y5816950D01*
X7096650Y5799940D01*
X7069060D01*
Y5553860D01*
X7235140D01*
G37*
G36*
G01X7222960Y5390320D02*
X7233740Y5379550D01*
X7254240Y5397500D01*
X7233740Y5415450D01*
X7222960Y5404680D01*
G03Y5390320I7190J-7180D01*
G37*
G36*
G01X6946770Y5872670D02*
X6990080Y5834380D01*
X7038980Y5880100D01*
X6990080Y5925820D01*
X6946770Y5887530D01*
G03Y5872670I10300J-7430D01*
G37*
G36*
G01X7194440Y5790810D02*
X7233920Y5834380D01*
X7188200Y5882640D01*
X7142480Y5834380D01*
X7181960Y5790810D01*
G03X7194440I6240J8020D01*
G37*
G36*
G01X7181780Y5838270D02*
X7110320Y5766900D01*
X7151520Y5674430D01*
X7201980Y5757250D01*
X7198180Y5832280D01*
G03X7181780Y5838270I-9981J-1882D01*
G37*
G36*
G01X6832600Y6555740D02*
Y6540500D01*
X6859800Y6538700D01*
X6858000Y6565900D01*
X6842760D01*
G03X6832600Y6555740I0J-10160D01*
G37*
G36*
G01X6908800D02*
Y6540500D01*
X6936000Y6538700D01*
X6934200Y6565900D01*
X6918960D01*
G03X6908800Y6555740I0J-10160D01*
G37*
G36*
G01X7056430Y6708280D02*
X7127810Y6636830D01*
X7164840Y6640590D01*
X7137810Y6725980D01*
X7062760Y6724740D01*
G03X7056430Y6708280I1542J-10040D01*
G37*
G36*
G01X7159460Y7587420D02*
X7170240Y7576650D01*
X7190740Y7594600D01*
X7170240Y7612550D01*
X7159460Y7601780D01*
G03Y7587420I7190J-7180D01*
G37*
G36*
G01X6797040Y9791700D02*
X6781800D01*
X6780000Y9764500D01*
X6807200Y9766300D01*
Y9781540D01*
G03X6797040Y9791700I-10160J0D01*
G37*
G36*
G01Y9867900D02*
X6781800D01*
X6780000Y9840700D01*
X6807200Y9842500D01*
Y9857740D01*
G03X6797040Y9867900I-10160J0D01*
G37*
G36*
G01X7185660Y11849100D02*
X7251700D01*
X7253500Y11927100D01*
X7175500Y11925300D01*
Y11859260D01*
G03X7185660Y11849100I10160J0D01*
G37*
G36*
G01X6931660D02*
X6997700D01*
X6999500Y11927100D01*
X6921500Y11925300D01*
Y11859260D01*
G03X6931660Y11849100I10160J0D01*
G37*
G36*
G01X7573770Y273910D02*
X7505700Y200660D01*
X7555870Y136590D01*
X7607300Y200660D01*
X7593690Y268870D01*
G03X7573770Y273910I-11792J-4719D01*
G37*
G36*
G01X7589330Y228470D02*
X7627620Y271780D01*
X7581900Y320680D01*
X7536180Y271780D01*
X7574470Y228470D01*
G03X7589330I7430J10300D01*
G37*
G36*
G01X7810250Y213360D02*
X7708900Y200660D01*
X7758110Y137720D01*
X7810500Y78740D01*
X7820660Y203200D01*
G03X7810250Y213360I-10163J0D01*
G37*
G36*
G01X7454650D02*
X7353300Y200660D01*
X7402510Y137720D01*
X7454900Y78740D01*
X7465060Y203200D01*
G03X7454650Y213360I-10163J0D01*
G37*
G36*
G01X7726870Y406530D02*
X7688580Y363220D01*
X7734300Y314320D01*
X7780020Y363220D01*
X7741730Y406530D01*
G03X7726870I-7430J-10300D01*
G37*
G36*
G01X7743280Y506460D02*
X7752250Y515450D01*
X7734300Y536580D01*
X7716350Y515450D01*
X7725320Y506460D01*
G03X7743280I8980J8980D01*
G37*
G36*
G01X7371270Y406530D02*
X7332980Y363220D01*
X7378700Y314320D01*
X7424420Y363220D01*
X7386130Y406530D01*
G03X7371270I-7430J-10300D01*
G37*
G36*
G01X7387680Y506460D02*
X7396650Y515450D01*
X7378700Y536580D01*
X7360750Y515450D01*
X7369720Y506460D01*
G03X7387680I8980J8980D01*
G37*
G36*
G01X7327900Y1882140D02*
Y1866900D01*
X7355100Y1865100D01*
X7353300Y1892300D01*
X7338060D01*
G03X7327900Y1882140I0J-10160D01*
G37*
G36*
G01X7396920Y2365540D02*
X7386150Y2354760D01*
X7404100Y2334260D01*
X7422050Y2354760D01*
X7411280Y2365540D01*
G03X7396920I-7180J-7190D01*
G37*
G36*
G01X7378700Y2263140D02*
Y2247900D01*
X7405900Y2246100D01*
X7404100Y2273300D01*
X7388860D01*
G03X7378700Y2263140I0J-10160D01*
G37*
G36*
G01X7295320Y2365540D02*
X7284550Y2354760D01*
X7302500Y2334260D01*
X7320450Y2354760D01*
X7309680Y2365540D01*
G03X7295320I-7180J-7190D01*
G37*
G36*
G01X7543230Y2682780D02*
X7529600Y2694100D01*
X7484560Y2680100D01*
X7529600Y2666100D01*
X7543230Y2677420D01*
G03Y2682780I-9800J2680D01*
G37*
G36*
G01Y2632780D02*
X7529600Y2644100D01*
X7484560Y2630100D01*
X7529600Y2616100D01*
X7543230Y2627420D01*
G03Y2632780I-9800J2680D01*
G37*
G36*
G01Y2782780D02*
X7529600Y2794100D01*
X7484560Y2780100D01*
X7529600Y2766100D01*
X7543230Y2777420D01*
G03Y2782780I-9800J2680D01*
G37*
G36*
G01Y2732780D02*
X7529600Y2744100D01*
X7484560Y2730100D01*
X7529600Y2716100D01*
X7543230Y2727420D01*
G03Y2732780I-9800J2680D01*
G37*
G36*
G01X7299420Y2971230D02*
X7288100Y2957600D01*
X7302100Y2912560D01*
X7316100Y2957600D01*
X7304780Y2971230D01*
G03X7299420I-2680J-9800D01*
G37*
G36*
G01X7349420D02*
X7338100Y2957600D01*
X7352100Y2912560D01*
X7366100Y2957600D01*
X7354780Y2971230D01*
G03X7349420I-2680J-9800D01*
G37*
G36*
G01X7410580Y2982540D02*
X7388100Y2957600D01*
X7399020Y2902780D01*
X7416100Y2872600D01*
X7428800Y2971100D01*
G03X7410580Y2982540I-12701J0D01*
G37*
G36*
G01X7543090Y2566460D02*
X7529600Y2594100D01*
X7475020Y2584010D01*
X7444600Y2566100D01*
X7530400Y2553400D01*
G03X7543090Y2566460I0J12695D01*
G37*
G36*
G01X7593060Y2543720D02*
X7602050Y2534750D01*
X7623180Y2552700D01*
X7602050Y2570650D01*
X7593060Y2561680D01*
G03Y2543720I8980J-8980D01*
G37*
G36*
G01X7479810Y2884290D02*
X7444600Y2844100D01*
X7487100Y2826920D01*
X7529600Y2844100D01*
X7494390Y2884290D01*
G03X7479810I-7290J-10400D01*
G37*
G36*
G01X7496080Y2926260D02*
X7505050Y2935250D01*
X7487100Y2956380D01*
X7469150Y2935250D01*
X7478120Y2926260D01*
G03X7496080I8980J8980D01*
G37*
G36*
G01X7408540Y2437630D02*
X7416100Y2452600D01*
X7401990Y2497640D01*
X7388100Y2452600D01*
X7400620Y2437220D01*
G03X7408540Y2437630I3476J9549D01*
G37*
G36*
G01X7357020Y2438110D02*
X7366100Y2452600D01*
X7352040Y2497640D01*
X7338100Y2452600D01*
X7350110Y2437920D01*
G03X7357020Y2438110I3192J9649D01*
G37*
G36*
G01X7305520Y2438670D02*
X7316100Y2452600D01*
X7302080Y2497640D01*
X7288100Y2452600D01*
X7299640Y2438620D01*
G03X7305520Y2438670I2857J9750D01*
G37*
G36*
G01X7480300Y3022600D02*
X7493000D01*
X7495250Y3050250D01*
X7467600Y3048000D01*
Y3035300D01*
G03X7480300Y3022600I12700J0D01*
G37*
G36*
G01X7394740Y4546160D02*
X7383960Y4556930D01*
X7363460Y4538980D01*
X7383960Y4521030D01*
X7394740Y4531800D01*
G03Y4546160I-7190J7180D01*
G37*
G36*
G01X7381240Y4749800D02*
X7366000D01*
X7364200Y4722600D01*
X7391400Y4724400D01*
Y4739640D01*
G03X7381240Y4749800I-10160J0D01*
G37*
G36*
G01X7394740Y4622360D02*
X7383960Y4633130D01*
X7363460Y4615180D01*
X7383960Y4597230D01*
X7394740Y4608000D01*
G03Y4622360I-7190J7180D01*
G37*
G36*
G01X7356020Y5832280D02*
X7352220Y5757250D01*
X7402680Y5674430D01*
X7443880Y5766900D01*
X7372420Y5838270D01*
G03X7356020Y5832280I-6419J-7872D01*
G37*
G36*
G01X7357640Y6729200D02*
X7367800Y6557100D01*
X7406590Y6632670D01*
X7437800Y6727100D01*
X7368100Y6739360D01*
G03X7357640Y6729200I-296J-10160D01*
G37*
G36*
G01X7757160Y6972300D02*
X7772400D01*
X7774200Y6999500D01*
X7747000Y6997700D01*
Y6982460D01*
G03X7757160Y6972300I10160J0D01*
G37*
G36*
G01X7747000Y7178040D02*
Y7162800D01*
X7774200Y7161000D01*
X7772400Y7188200D01*
X7757160D01*
G03X7747000Y7178040I0J-10160D01*
G37*
G36*
G01X7757160Y7061200D02*
X7772400D01*
X7774200Y7088400D01*
X7747000Y7086600D01*
Y7071360D01*
G03X7757160Y7061200I10160J0D01*
G37*
G36*
G01X7743660Y6907520D02*
X7754440Y6896750D01*
X7774940Y6914700D01*
X7754440Y6932650D01*
X7743660Y6921880D01*
G03Y6907520I7190J-7180D01*
G37*
G36*
G01X7629360Y6857520D02*
X7640140Y6846750D01*
X7660640Y6864700D01*
X7640140Y6882650D01*
X7629360Y6871880D01*
G03Y6857520I7190J-7180D01*
G37*
G36*
G01X7565560Y7257520D02*
X7576640Y7246450D01*
X7597140Y7264370D01*
X7576840Y7282550D01*
X7565770Y7272080D01*
G03X7565560Y7257520I6980J-7382D01*
G37*
G36*
G01X7747000Y7279640D02*
Y7264400D01*
X7774200Y7262600D01*
X7772400Y7289800D01*
X7757160D01*
G03X7747000Y7279640I0J-10160D01*
G37*
G36*
G01X7387590Y8299450D02*
X7372350D01*
X7370550Y8272250D01*
X7397750Y8274050D01*
Y8289290D01*
G03X7387590Y8299450I-10160J0D01*
G37*
G36*
G01X7381240Y8534390D02*
X7366000D01*
X7364200Y8507190D01*
X7391400Y8508990D01*
Y8524230D01*
G03X7381240Y8534390I-10160J0D01*
G37*
G36*
G01X7666160Y8969540D02*
X7655390Y8958760D01*
X7673340Y8938260D01*
X7691290Y8958760D01*
X7680520Y8969540D01*
G03X7666160I-7180J-7190D01*
G37*
G36*
G01X7589960D02*
X7579190Y8958760D01*
X7597140Y8938260D01*
X7615090Y8958760D01*
X7604320Y8969540D01*
G03X7589960I-7180J-7190D01*
G37*
G36*
G01X7511220Y9883940D02*
X7500450Y9873160D01*
X7518400Y9852660D01*
X7536350Y9873160D01*
X7525580Y9883940D01*
G03X7511220I-7180J-7190D01*
G37*
G36*
G01X8191500Y9906000D02*
Y10033000D01*
X8169240Y10055260D01*
Y10058440D01*
X8166060D01*
X8140700Y10083800D01*
X7912100D01*
Y10261600D01*
X7721600D01*
Y10414000D01*
X8140700D01*
Y10134600D01*
X8394700D01*
Y9906000D01*
X8191500D01*
G37*
G36*
G01X7525580Y10270960D02*
X7536350Y10281740D01*
X7518400Y10302240D01*
X7500450Y10281740D01*
X7511220Y10270960D01*
G03X7525580I7180J7190D01*
G37*
G36*
G01X7680520Y10182060D02*
X7691290Y10192840D01*
X7673340Y10213340D01*
X7655390Y10192840D01*
X7666160Y10182060D01*
G03X7680520I7180J7190D01*
G37*
G36*
G01X7604320D02*
X7615090Y10192840D01*
X7597140Y10213340D01*
X7579190Y10192840D01*
X7589960Y10182060D01*
G03X7604320I7180J7190D01*
G37*
G36*
G01X8115300Y10795000D02*
X7886700D01*
Y10972800D01*
X7721600D01*
Y11125200D01*
X8115300D01*
Y10795000D01*
G37*
G36*
G01X8216890Y1635750D02*
X8216910Y1620510D01*
X8244100Y1618720D01*
X8242300Y1645920D01*
X8227050D01*
G03X8216890Y1635750I0J-10160D01*
G37*
G36*
G01X8213560Y1689540D02*
X8224340Y1678770D01*
X8244840Y1696720D01*
X8224340Y1714670D01*
X8213560Y1703900D01*
G03Y1689540I7190J-7180D01*
G37*
G36*
G01X8458200Y10439400D02*
X8686800D01*
Y10210800D01*
X8343900D01*
X8293100Y10261600D01*
Y11061700D01*
X8039100Y11315700D01*
Y11976100D01*
X8331200D01*
X8369300Y11938000D01*
Y11417300D01*
X8458200Y11328400D01*
Y11176000D01*
X8686800D01*
Y10922000D01*
X8458200D01*
Y10439400D01*
G37*
G36*
G01X8840230Y1173920D02*
X8886920Y1127230D01*
X8943340Y1181100D01*
X8886920Y1234970D01*
X8840230Y1188280D01*
G03Y1173920I7180J-7180D01*
G37*
G36*
G01X8782880Y1188280D02*
X8740680Y1230480D01*
X8684260Y1181100D01*
X8740680Y1131720D01*
X8782880Y1173920D01*
G03Y1188280I-7180J7180D01*
G37*
G36*
G01X8882820Y1975680D02*
X8840620Y1933480D01*
X8890000Y1877060D01*
X8939380Y1933480D01*
X8897180Y1975680D01*
G03X8882820I-7180J-7180D01*
G37*
G36*
G01X8925560Y2034540D02*
X8925550Y2092960D01*
X8889370Y2136060D01*
X8890000Y2059940D01*
X8915400Y2034540D01*
X8925560D01*
G37*
G36*
G01X8918740Y2864680D02*
X8907960Y2875450D01*
X8887460Y2857500D01*
X8907960Y2839550D01*
X8918740Y2850320D01*
G03Y2864680I-7190J7180D01*
G37*
G36*
G01Y2788480D02*
X8907960Y2799250D01*
X8887460Y2781300D01*
X8907960Y2763350D01*
X8918740Y2774120D01*
G03Y2788480I-7190J7180D01*
G37*
G36*
G01X8913660Y3466660D02*
X8902880Y3477430D01*
X8882380Y3459480D01*
X8902880Y3441530D01*
X8913660Y3452300D01*
G03Y3466660I-7190J7180D01*
G37*
G36*
G01X8856180Y3452300D02*
X8866960Y3441530D01*
X8887460Y3459480D01*
X8866960Y3477430D01*
X8856180Y3466660D01*
G03Y3452300I7190J-7180D01*
G37*
G36*
G01X8913660Y3390460D02*
X8902880Y3401230D01*
X8882380Y3383280D01*
X8902880Y3365330D01*
X8913660Y3376100D01*
G03Y3390460I-7190J7180D01*
G37*
G36*
G01X8856180Y3376100D02*
X8866960Y3365330D01*
X8887460Y3383280D01*
X8866960Y3401230D01*
X8856180Y3390460D01*
G03Y3376100I7190J-7180D01*
G37*
G36*
G01X8535430Y5466520D02*
X8582120Y5419830D01*
X8638540Y5473700D01*
X8582120Y5527570D01*
X8535430Y5480880D01*
G03Y5466520I7180J-7180D01*
G37*
G36*
G01X8813800Y6047740D02*
Y5981700D01*
X8891800Y5979900D01*
X8890000Y6057900D01*
X8823960D01*
G03X8813800Y6047740I0J-10160D01*
G37*
G36*
G01X8535430Y5974520D02*
X8582120Y5927830D01*
X8638540Y5981700D01*
X8582120Y6035570D01*
X8535430Y5988880D01*
G03Y5974520I7180J-7180D01*
G37*
G36*
G01X8813800Y5793740D02*
Y5727700D01*
X8891800Y5725900D01*
X8890000Y5803900D01*
X8823960D01*
G03X8813800Y5793740I0J-10160D01*
G37*
G36*
G01X8756180Y6810540D02*
X8645350Y6810530D01*
X8633700Y6742620D01*
X8709170Y6736840D01*
X8763500Y6793340D01*
G03X8756180Y6810540I-7320J7042D01*
G37*
G36*
G01X8719380Y6242880D02*
X8689880Y6272380D01*
X8633460Y6235700D01*
X8689880Y6199020D01*
X8719380Y6228520D01*
G03Y6242880I-7180J7180D01*
G37*
G36*
G01X9015970Y6471480D02*
X8943880Y6543570D01*
X8887520Y6490230D01*
X8939580Y6433270D01*
X9011670Y6454560D01*
G03X9015970Y6471480I-2883J9739D01*
G37*
G36*
G01X8771090Y6924510D02*
X8887000Y6924520D01*
X8892240Y6998890D01*
X8816460Y7004010D01*
X8763330Y6941230D01*
G03X8771090Y6924510I7760J-6559D01*
G37*
G36*
G01X8990570Y7258880D02*
X8943880Y7305570D01*
X8887460Y7251700D01*
X8943880Y7197830D01*
X8990570Y7244520D01*
G03Y7258880I-7180J7180D01*
G37*
G36*
G01X8712200Y7185660D02*
Y7251700D01*
X8634200Y7253500D01*
X8636000Y7175500D01*
X8702040D01*
G03X8712200Y7185660I0J10160D01*
G37*
G36*
G01X8956040Y7581900D02*
X8890000D01*
X8888200Y7503900D01*
X8966200Y7505700D01*
Y7571740D01*
G03X8956040Y7581900I-10160J0D01*
G37*
G36*
G01X8379460Y8153400D02*
X8394700D01*
X8396500Y8180600D01*
X8369300Y8178800D01*
Y8163560D01*
G03X8379460Y8153400I10160J0D01*
G37*
G36*
G01X8966200Y8201660D02*
Y8267700D01*
X8888200Y8269500D01*
X8890000Y8191500D01*
X8956040D01*
G03X8966200Y8201660I0J10160D01*
G37*
G36*
G01X8712200D02*
Y8267700D01*
X8634200Y8269500D01*
X8636000Y8191500D01*
X8702040D01*
G03X8712200Y8201660I0J10160D01*
G37*
G36*
G01X8823960Y7937500D02*
X8890000D01*
X8891800Y8015500D01*
X8813800Y8013700D01*
Y7947660D01*
G03X8823960Y7937500I10160J0D01*
G37*
G36*
G01X8535430Y8006520D02*
X8582120Y7959830D01*
X8638540Y8013700D01*
X8582120Y8067570D01*
X8535430Y8020880D01*
G03Y8006520I7180J-7180D01*
G37*
G36*
G01X8755820Y8042440D02*
X8745050Y8031660D01*
X8763000Y8011160D01*
X8780950Y8031660D01*
X8770180Y8042440D01*
G03X8755820I-7180J-7190D01*
G37*
G36*
G01X8966200Y8455660D02*
Y8521700D01*
X8888200Y8523500D01*
X8890000Y8445500D01*
X8956040D01*
G03X8966200Y8455660I0J10160D01*
G37*
G36*
G01X8712200D02*
Y8521700D01*
X8634200Y8523500D01*
X8636000Y8445500D01*
X8702040D01*
G03X8712200Y8455660I0J10160D01*
G37*
G36*
G01Y9842500D02*
X8445500D01*
Y10160000D01*
X8712200D01*
Y9842500D01*
G37*
G36*
G01X8813800Y9603740D02*
Y9537700D01*
X8891800Y9535900D01*
X8890000Y9613900D01*
X8823960D01*
G03X8813800Y9603740I0J-10160D01*
G37*
G36*
G01X9728200Y10756900D02*
Y10388600D01*
X9677400D01*
X9537700Y10248900D01*
Y9740900D01*
X9004300D01*
X8763000Y9982200D01*
Y11188700D01*
X8407400Y11544300D01*
Y11835000D01*
G03X8412630Y11926520I-110199J52207D01*
G01X8411610Y11929510D01*
X8470900Y11988800D01*
X8521700D01*
X8585200Y11925300D01*
Y11772900D01*
X8978900Y11379200D01*
Y10325100D01*
X9004300Y10299700D01*
X9398000D01*
X9486900Y10388600D01*
Y10706100D01*
X9530500Y10749700D01*
G03X9566590Y10756900I7193J57997D01*
G01X9728200D01*
G37*
G36*
G01X8496300Y10871200D02*
X8699500D01*
Y10528300D01*
X8496300D01*
Y10871200D01*
G37*
G36*
G01X9118800Y565140D02*
Y495300D01*
X9200600Y493500D01*
X9198800Y575300D01*
X9128960D01*
G03X9118800Y565140I0J-10160D01*
G37*
G36*
G01X9068640Y575300D02*
X8998800D01*
X8997000Y493500D01*
X9078800Y495300D01*
Y565140D01*
G03X9068640Y575300I-10160J0D01*
G37*
G36*
G01X9452140Y1708980D02*
X9441360Y1719750D01*
X9420860Y1701800D01*
X9441360Y1683850D01*
X9452140Y1694620D01*
G03Y1708980I-7190J7180D01*
G37*
G36*
G01X9373910Y3191220D02*
X9395590Y3126210D01*
X9476470Y3147960D01*
X9445360Y3225730D01*
X9380340Y3204070D01*
G03X9373910Y3191220I3210J-9640D01*
G37*
G36*
G01X9320500Y3233970D02*
X9298820Y3299000D01*
X9217930Y3277240D01*
X9249040Y3199460D01*
X9314070Y3221120D01*
G03X9320500Y3233970I-3210J9640D01*
G37*
G36*
G01X9160140Y3445140D02*
X9220200Y3445150D01*
X9224710Y3534570D01*
X9135250Y3530310D01*
X9134740Y3470750D01*
G03X9160140Y3445140I25400J-209D01*
G37*
G36*
G01X9333170Y3791280D02*
X9280280Y3844170D01*
X9217660Y3784100D01*
X9280280Y3724030D01*
X9333170Y3776920D01*
G03Y3791280I-7180J7180D01*
G37*
G36*
G01X9279760Y3615070D02*
X9220200Y3615050D01*
X9215710Y3525610D01*
X9305150Y3530100D01*
X9305160Y3589670D01*
G03X9279760Y3615070I-25400J0D01*
G37*
G36*
G01X9372000Y3639140D02*
X9414130Y3597030D01*
X9480550Y3657100D01*
X9414130Y3717170D01*
X9372000Y3675060D01*
G03Y3639140I17960J-17960D01*
G37*
G36*
G01X9347200Y4279900D02*
X9334500D01*
X9332250Y4252250D01*
X9359900Y4254500D01*
Y4267200D01*
G03X9347200Y4279900I-12700J0D01*
G37*
G36*
G01X9035220Y5045240D02*
X9024450Y5034460D01*
X9042400Y5013960D01*
X9060350Y5034460D01*
X9049580Y5045240D01*
G03X9035220I-7180J-7190D01*
G37*
G36*
G01X9071140Y4604580D02*
X9060360Y4615350D01*
X9039860Y4597400D01*
X9060360Y4579450D01*
X9071140Y4590220D01*
G03Y4604580I-7190J7180D01*
G37*
G36*
G01X9420060Y4590220D02*
X9430840Y4579450D01*
X9451340Y4597400D01*
X9430840Y4615350D01*
X9420060Y4604580D01*
G03Y4590220I7190J-7180D01*
G37*
G36*
G01X9049580Y5178260D02*
X9060350Y5189040D01*
X9042400Y5209540D01*
X9024450Y5189040D01*
X9035220Y5178260D01*
G03X9049580I7180J7190D01*
G37*
G36*
G01X9478840Y5645980D02*
X9439180Y5685640D01*
X9382760Y5638800D01*
X9439180Y5591960D01*
X9478840Y5631620D01*
G03Y5645980I-7180J7180D01*
G37*
G36*
G01X9251120Y5794540D02*
X9240350Y5783760D01*
X9258300Y5763260D01*
X9276250Y5783760D01*
X9265480Y5794540D01*
G03X9251120I-7180J-7190D01*
G37*
G36*
G01X9478840Y6369880D02*
X9439180Y6409540D01*
X9382760Y6362700D01*
X9439180Y6315860D01*
X9478840Y6355520D01*
G03Y6369880I-7180J7180D01*
G37*
G36*
G01X9223540Y7525580D02*
X9212760Y7536350D01*
X9192260Y7518400D01*
X9212760Y7500450D01*
X9223540Y7511220D01*
G03Y7525580I-7190J7180D01*
G37*
G36*
G01Y7766880D02*
X9212760Y7777650D01*
X9192260Y7759700D01*
X9212760Y7741750D01*
X9223540Y7752520D01*
G03Y7766880I-7190J7180D01*
G37*
G36*
G01Y7672900D02*
X9212760Y7683670D01*
X9192260Y7665720D01*
X9212760Y7647770D01*
X9223540Y7658540D01*
G03Y7672900I-7190J7180D01*
G37*
G36*
G01Y7596700D02*
X9212760Y7607470D01*
X9192260Y7589520D01*
X9212760Y7571570D01*
X9223540Y7582340D01*
G03Y7596700I-7190J7180D01*
G37*
G36*
G01X9198340Y8257240D02*
X9317720Y8291950D01*
X9261060Y8307380D01*
X9175920Y8287710D01*
X9182660Y8265710D01*
G03X9198340Y8257240I12142J3728D01*
G37*
G36*
G01X9185820Y8243840D02*
X9176850Y8234850D01*
X9194800Y8213720D01*
X9212750Y8234850D01*
X9203780Y8243840D01*
G03X9185820I-8980J-8980D01*
G37*
G36*
G01X9120140Y8441780D02*
X9111150Y8450750D01*
X9090020Y8432800D01*
X9111150Y8414850D01*
X9120140Y8423820D01*
G03Y8441780I-8980J8980D01*
G37*
G36*
G01X9354300Y8667150D02*
X9346670Y8690010D01*
X9255840Y8687450D01*
X9314180Y8653790D01*
X9344660Y8653780D01*
G03X9354300Y8667150I0J10160D01*
G37*
G36*
G01X9336660Y8597890D02*
X9202040Y8592800D01*
X9255910Y8558950D01*
X9347190Y8559800D01*
X9347200Y8587740D01*
G03X9336660Y8597890I-10157J0D01*
G37*
G36*
G01X9096540Y8846380D02*
X9085760Y8857150D01*
X9065260Y8839200D01*
X9085760Y8821250D01*
X9096540Y8832020D01*
G03Y8846380I-7190J7180D01*
G37*
G36*
G01X9162300Y8833450D02*
X9169930Y8810590D01*
X9260760Y8813150D01*
X9202420Y8846810D01*
X9171940Y8846820D01*
G03X9162300Y8833450I0J-10160D01*
G37*
G36*
G01X9098120Y8921000D02*
X9085760Y8933350D01*
X9065270Y8915570D01*
X9084640Y8896480D01*
X9097000Y8905670D01*
G03X9098120Y8921000I-6069J8149D01*
G37*
G36*
G01X9171940Y8907780D02*
X9202420Y8907790D01*
X9260760Y8941450D01*
X9169930Y8944010D01*
X9162300Y8921150D01*
G03X9171940Y8907780I9640J-3210D01*
G37*
G36*
G01X9096540Y9181660D02*
X9085760Y9192430D01*
X9065260Y9174480D01*
X9085760Y9156530D01*
X9096540Y9167300D01*
G03Y9181660I-7190J7180D01*
G37*
G36*
G01X9171940Y9161780D02*
X9202420Y9161790D01*
X9260760Y9195450D01*
X9169930Y9198010D01*
X9162300Y9175150D01*
G03X9171940Y9161780I9640J-3210D01*
G37*
G36*
G01X9096540Y9105460D02*
X9085760Y9116230D01*
X9065260Y9098280D01*
X9085760Y9080330D01*
X9096540Y9091100D01*
G03Y9105460I-7190J7180D01*
G37*
G36*
G01X9169400Y9095750D02*
X9169410Y9067800D01*
X9260690Y9066950D01*
X9314560Y9100800D01*
X9179940Y9105900D01*
G03X9169400Y9095750I-383J-10150D01*
G37*
G36*
G01X9385300Y10922000D02*
Y10388600D01*
X9042400D01*
Y10922000D01*
X9385300D01*
G37*
G36*
G01X9232900Y10960100D02*
Y11480800D01*
X9283700Y11531600D01*
X9664700D01*
X9715500Y11480800D01*
Y11214100D01*
X9697340Y11195940D01*
X9694990Y11196140D01*
G03X9660260Y11188150I-4886J-58236D01*
G03X9633820Y11153640I29842J-50247D01*
G01X9632930Y11150600D01*
X9423400D01*
X9385300Y11112500D01*
Y10960100D01*
X9232900D01*
G37*
G36*
G01X9461500Y863600D02*
X9766300D01*
Y787400D01*
X9461500D01*
Y863600D01*
G37*
G36*
G01X9746800Y1134020D02*
X9764770Y1116070D01*
X9794880Y1143000D01*
X9764770Y1169930D01*
X9746800Y1151980D01*
G03Y1134020I8980J-8980D01*
G37*
G36*
G01X9658730Y1148300D02*
X9636400Y1166500D01*
X9610720Y1143000D01*
X9636400Y1119500D01*
X9658730Y1137700D01*
G03Y1148300I-11540J5300D01*
G37*
G36*
G01X9766300Y1257300D02*
Y1244600D01*
X9793950Y1242350D01*
X9791700Y1270000D01*
X9779000D01*
G03X9766300Y1257300I0J-12700D01*
G37*
G36*
G01X9994900Y1130300D02*
X9944100Y1181100D01*
Y1206500D01*
X10058400Y1320800D01*
X10089360D01*
Y1316060D01*
X10198100D01*
Y1159190D01*
G03X10195170Y1153290I50794J-28902D01*
G01X10194780Y1152380D01*
X10172700Y1130300D01*
X9994900D01*
G37*
G36*
G01X9715790Y1356580D02*
X9702000Y1368000D01*
X9641850Y1357000D01*
X9602000Y1345000D01*
X9706870Y1343700D01*
G03X9715790Y1356580I-858J10123D01*
G37*
G36*
G01X9754250Y1406500D02*
X9775800D01*
X9794040Y1423390D01*
X9773740Y1440350D01*
X9747070Y1413680D01*
X9754250Y1406500D01*
G37*
G36*
G01X9798880Y1584160D02*
X9809650Y1594940D01*
X9791700Y1615440D01*
X9773750Y1594940D01*
X9784520Y1584160D01*
G03X9798880I7180J7190D01*
G37*
G36*
G01X9673710Y1959740D02*
X9684490Y1948970D01*
X9704990Y1966920D01*
X9684490Y1984870D01*
X9673710Y1974100D01*
G03Y1959740I7190J-7180D01*
G37*
G36*
G01X9731190Y1974100D02*
X9720410Y1984870D01*
X9699910Y1966920D01*
X9720410Y1948970D01*
X9731190Y1959740D01*
G03Y1974100I-7190J7180D01*
G37*
G36*
G01X9673710Y2035940D02*
X9684490Y2025170D01*
X9704990Y2043120D01*
X9684490Y2061070D01*
X9673710Y2050300D01*
G03Y2035940I7190J-7180D01*
G37*
G36*
G01X9731190Y2050300D02*
X9720410Y2061070D01*
X9699910Y2043120D01*
X9720410Y2025170D01*
X9731190Y2035940D01*
G03Y2050300I-7190J7180D01*
G37*
G36*
G01X9760780Y3336760D02*
X9771550Y3347540D01*
X9753600Y3368040D01*
X9735650Y3347540D01*
X9746420Y3336760D01*
G03X9760780I7180J7190D01*
G37*
G36*
G01X9522140Y3539560D02*
X9467130Y3485020D01*
X9473200Y3400760D01*
X9539440Y3422800D01*
X9539450Y3532350D01*
G03X9522140Y3539560I-10157J0D01*
G37*
G36*
G01X9697280Y3336760D02*
X9708050Y3347540D01*
X9690100Y3368040D01*
X9672150Y3347540D01*
X9682920Y3336760D01*
G03X9697280I7180J7190D01*
G37*
G36*
G01X9537700Y4239260D02*
Y4254500D01*
X9510500Y4256300D01*
X9512300Y4229100D01*
X9527540D01*
G03X9537700Y4239260I0J10160D01*
G37*
G36*
G01X9936920Y5540540D02*
X9926150Y5529760D01*
X9944100Y5509260D01*
X9962050Y5529760D01*
X9951280Y5540540D01*
G03X9936920I-7180J-7190D01*
G37*
G36*
G01X9873420D02*
X9862650Y5529760D01*
X9880600Y5509260D01*
X9898550Y5529760D01*
X9887780Y5540540D01*
G03X9873420I-7180J-7190D01*
G37*
G36*
G01X9545760Y5631620D02*
X9585420Y5591960D01*
X9641840Y5638800D01*
X9585420Y5685640D01*
X9545760Y5645980D01*
G03Y5631620I7180J-7180D01*
G37*
G36*
G01Y6355520D02*
X9585420Y6315860D01*
X9641840Y6362700D01*
X9585420Y6409540D01*
X9545760Y6369880D01*
G03Y6355520I7180J-7180D01*
G37*
G36*
G01X9573260Y6540500D02*
X9639300D01*
X9641100Y6618500D01*
X9563100Y6616700D01*
Y6550660D01*
G03X9573260Y6540500I10160J0D01*
G37*
G36*
G01X9766300Y7503160D02*
Y7518400D01*
X9739100Y7520200D01*
X9740900Y7493000D01*
X9756140D01*
G03X9766300Y7503160I0J10160D01*
G37*
G36*
G01X9547060Y7511220D02*
X9557840Y7500450D01*
X9578340Y7518400D01*
X9557840Y7536350D01*
X9547060Y7525580D01*
G03Y7511220I7190J-7180D01*
G37*
G36*
G01Y7435020D02*
X9557840Y7424250D01*
X9578340Y7442200D01*
X9557840Y7460150D01*
X9547060Y7449380D01*
G03Y7435020I7190J-7180D01*
G37*
G36*
G01X9748080Y7413460D02*
X9758850Y7424240D01*
X9740900Y7444740D01*
X9722950Y7424240D01*
X9733720Y7413460D01*
G03X9748080I7180J7190D01*
G37*
G36*
G01X9851860Y7752520D02*
X9862640Y7741750D01*
X9883140Y7759700D01*
X9862640Y7777650D01*
X9851860Y7766880D01*
G03Y7752520I7190J-7180D01*
G37*
G36*
G01X9554210Y7321550D02*
X9569450D01*
X9571250Y7348750D01*
X9544050Y7346950D01*
Y7331710D01*
G03X9554210Y7321550I10160J0D01*
G37*
G36*
G01X9566820Y8307340D02*
X9557850Y8298350D01*
X9575800Y8277220D01*
X9593750Y8298350D01*
X9584780Y8307340D01*
G03X9566820I-8980J-8980D01*
G37*
G36*
G01X9955260Y8296820D02*
X9964250Y8287850D01*
X9985380Y8305800D01*
X9964250Y8323750D01*
X9955260Y8314780D01*
G03Y8296820I8980J-8980D01*
G37*
G36*
G01X9566820Y8713740D02*
X9557850Y8704750D01*
X9575800Y8683620D01*
X9593750Y8704750D01*
X9584780Y8713740D01*
G03X9566820I-8980J-8980D01*
G37*
G36*
G01X9955260Y8677820D02*
X9964250Y8668850D01*
X9985380Y8686800D01*
X9964250Y8704750D01*
X9955260Y8695780D01*
G03Y8677820I8980J-8980D01*
G37*
G36*
G01Y8423820D02*
X9964250Y8414850D01*
X9985380Y8432800D01*
X9964250Y8450750D01*
X9955260Y8441780D01*
G03Y8423820I8980J-8980D01*
G37*
G36*
G01X9602740Y8949780D02*
X9593750Y8958750D01*
X9572620Y8940800D01*
X9593750Y8922850D01*
X9602740Y8931820D01*
G03Y8949780I-8980J8980D01*
G37*
G36*
G01X9903460Y9100820D02*
X9872980Y9100810D01*
X9814640Y9067150D01*
X9905470Y9064590D01*
X9913100Y9087450D01*
G03X9903460Y9100820I-9640J3210D01*
G37*
G36*
G01X9906000Y9166860D02*
X9905990Y9194800D01*
X9814710Y9195650D01*
X9760840Y9161800D01*
X9895460Y9156710D01*
G03X9906000Y9166860I383J10150D01*
G37*
G36*
G01X9690100Y9550400D02*
X9639300Y9601200D01*
Y10248900D01*
X9702800Y10312400D01*
X9918700D01*
X9962070Y10269030D01*
X9962280Y10267290D01*
G03X9982200Y10229990I58017J7015D01*
G01Y9601200D01*
X9931400Y9550400D01*
X9690100D01*
G37*
G36*
G01X9669110Y10990910D02*
X9637200Y11018000D01*
X9577850Y10985500D01*
X9637200Y10953000D01*
X9669110Y10980090D01*
G03Y10990910I-24820J5410D01*
G37*
G36*
G01X9667840Y11087110D02*
X9637200Y11113000D01*
X9581020Y11080500D01*
X9637200Y11048000D01*
X9667840Y11073890D01*
G03Y11087110I-10850J6610D01*
G37*
G36*
G01X9545510Y10797680D02*
X9619080Y10871110D01*
X9585750Y10893270D01*
X9531200Y10923000D01*
X9525020Y10806990D01*
G03X9545510Y10797680I12682J708D01*
G37*
G36*
G01X9528720Y10834640D02*
X9519750Y10825650D01*
X9537700Y10804520D01*
X9555650Y10825650D01*
X9546680Y10834640D01*
G03X9528720I-8980J-8980D01*
G37*
G36*
G01X9808960Y11071520D02*
X9817950Y11062550D01*
X9839080Y11080500D01*
X9817950Y11098450D01*
X9808960Y11089480D01*
G03Y11071520I8980J-8980D01*
G37*
G36*
G01X10441730Y1230010D02*
X10355970Y1145100D01*
X10455400Y1048750D01*
X10554830Y1145100D01*
X10469070Y1230010D01*
G03X10441730I-13670J-21410D01*
G37*
G36*
G01Y1490010D02*
X10355970Y1405100D01*
X10455400Y1308750D01*
X10554830Y1405100D01*
X10469070Y1490010D01*
G03X10441730I-13670J-21410D01*
G37*
G36*
G01X10469070Y1140190D02*
X10554830Y1225100D01*
X10455400Y1321450D01*
X10355970Y1225100D01*
X10441730Y1140190D01*
G03X10469070I13670J21410D01*
G37*
G36*
G01X10287000Y1752600D02*
Y1765300D01*
X10259350Y1767550D01*
X10261600Y1739900D01*
X10274300D01*
G03X10287000Y1752600I0J12700D01*
G37*
G36*
G01X10281620Y1568450D02*
X10262400Y1584100D01*
X10189220Y1564100D01*
X10262400Y1544100D01*
X10281620Y1559750D01*
G03Y1568450I-11930J4350D01*
G37*
G36*
G01X10103450Y1364620D02*
X10122400Y1349100D01*
X10194940Y1369100D01*
X10122400Y1389100D01*
X10103450Y1373580D01*
G03Y1364620I9120J-4480D01*
G37*
G36*
G01Y1429620D02*
X10122400Y1414100D01*
X10194940Y1434100D01*
X10122400Y1454100D01*
X10103450Y1438580D01*
G03Y1429620I9120J-4480D01*
G37*
G36*
G01X10469070Y1630190D02*
X10554830Y1715100D01*
X10455400Y1811450D01*
X10355970Y1715100D01*
X10441730Y1630190D01*
G03X10469070I13670J21410D01*
G37*
G36*
G01X10441730Y1740010D02*
X10355970Y1655100D01*
X10455400Y1558750D01*
X10554830Y1655100D01*
X10469070Y1740010D01*
G03X10441730I-13670J-21410D01*
G37*
G36*
G01X10469070Y1390190D02*
X10554830Y1475100D01*
X10455400Y1571450D01*
X10355970Y1475100D01*
X10441730Y1390190D01*
G03X10469070I13670J21410D01*
G37*
G36*
G01X10315740Y2039180D02*
X10304960Y2049950D01*
X10284460Y2032000D01*
X10304960Y2014050D01*
X10315740Y2024820D01*
G03Y2039180I-7190J7180D01*
G37*
G36*
G01X10291900Y2025500D02*
X10350500Y1971040D01*
X10403840Y2032000D01*
X10350500Y2092960D01*
X10291900Y2038500D01*
G03Y2025500I7810J-6500D01*
G37*
G36*
G01X10315740Y2242380D02*
X10304960Y2253150D01*
X10284460Y2235200D01*
X10304960Y2217250D01*
X10315740Y2228020D01*
G03Y2242380I-7190J7180D01*
G37*
G36*
G01X10291900Y2228700D02*
X10350500Y2174240D01*
X10403840Y2235200D01*
X10350500Y2296160D01*
X10291900Y2241700D01*
G03Y2228700I7810J-6500D01*
G37*
G36*
G01X10514240Y3006410D02*
X10514250Y2931600D01*
X10601000Y2929800D01*
X10599200Y3016560D01*
X10524400Y3016570D01*
G03X10514240Y3006410I0J-10160D01*
G37*
G36*
G01X10484420Y4247040D02*
X10539410Y4196240D01*
X10601740Y4256650D01*
X10539120Y4316670D01*
X10484130Y4261680D01*
G03X10484420Y4247040I7183J-7181D01*
G37*
G36*
G01X10203620Y6224470D02*
X10156930Y6177780D01*
X10210800Y6121360D01*
X10264670Y6177780D01*
X10217980Y6224470D01*
G03X10203620I-7180J-7180D01*
G37*
G36*
G01X10217980Y6299640D02*
X10262760Y6344420D01*
X10210800Y6400840D01*
X10158840Y6344420D01*
X10203620Y6299640D01*
G03X10217980I7180J7180D01*
G37*
G36*
G01X10203620Y9544880D02*
X10163920Y9505180D01*
X10210800Y9448760D01*
X10257680Y9505180D01*
X10217980Y9544880D01*
G03X10203620I-7180J-7180D01*
G37*
G36*
G01X10217980Y9625130D02*
X10264670Y9671820D01*
X10210800Y9728240D01*
X10156930Y9671820D01*
X10203620Y9625130D01*
G03X10217980I7180J7180D01*
G37*
G36*
G01X10613480Y2360660D02*
X10622450Y2369650D01*
X10604500Y2390780D01*
X10586550Y2369650D01*
X10595520Y2360660D01*
G03X10613480I8980J8980D01*
G37*
G36*
G01X10612120Y2125990D02*
X10655300Y2174240D01*
X10604500Y2238380D01*
X10553700Y2174240D01*
X10596880Y2125990D01*
G03X10612120I7620J10160D01*
G37*
G36*
G01X10596880Y2344410D02*
X10553700Y2296160D01*
X10604500Y2232020D01*
X10655300Y2296160D01*
X10612120Y2344410D01*
G03X10596880I-7620J-10160D01*
G37*
G36*
G01Y2141210D02*
X10553700Y2092960D01*
X10604500Y2028820D01*
X10655300Y2092960D01*
X10612120Y2141210D01*
G03X10596880I-7620J-10160D01*
G37*
%LPC*%
G75*
G54D67*
X2082800Y11912600D03*
%LPD*%
G75*
G36*
G01X165520Y8640840D02*
X156550Y8631850D01*
X174500Y8610720D01*
X192450Y8631850D01*
X183480Y8640840D01*
G03X165520I-8980J-8980D01*
G37*
G36*
G01X542380Y10945860D02*
X551350Y10954850D01*
X533400Y10975980D01*
X515450Y10954850D01*
X524420Y10945860D01*
G03X542380I8980J8980D01*
G37*
G36*
G01X965620Y3852940D02*
X956650Y3843950D01*
X974600Y3822820D01*
X992550Y3843950D01*
X983580Y3852940D01*
G03X965620I-8980J-8980D01*
G37*
G36*
G01X1505620Y4709940D02*
X1496650Y4700950D01*
X1514600Y4679820D01*
X1532550Y4700950D01*
X1523580Y4709940D01*
G03X1505620I-8980J-8980D01*
G37*
G36*
G01X2717800Y990600D02*
Y977900D01*
X2745450Y975650D01*
X2743200Y1003300D01*
X2730500D01*
G03X2717800Y990600I0J-12700D01*
G37*
G36*
G01X6948440Y5889080D02*
X6939450Y5898050D01*
X6918320Y5880100D01*
X6939450Y5862150D01*
X6948440Y5871120D01*
G03Y5889080I-8980J8980D01*
G37*
G36*
G01X7618460Y5871120D02*
X7627450Y5862150D01*
X7648580Y5880100D01*
X7627450Y5898050D01*
X7618460Y5889080D01*
G03Y5871120I8980J-8980D01*
G37*
G36*
G01X7607430Y5887530D02*
X7564120Y5925820D01*
X7515220Y5880100D01*
X7564120Y5834380D01*
X7607430Y5872670D01*
G03Y5887530I-10300J7430D01*
G37*
G36*
G01X8615210Y10732820D02*
X8676200Y10803600D01*
X8601200Y10839950D01*
X8526200Y10803600D01*
X8587190Y10732820D01*
G03X8615210I14010J21190D01*
G37*
G36*
G01X8587190Y10807380D02*
X8526200Y10736600D01*
X8601200Y10700250D01*
X8676200Y10736600D01*
X8615210Y10807380D01*
G03X8587190I-14010J-21190D01*
G37*
G36*
G01X8615210Y10605820D02*
X8676200Y10676600D01*
X8601200Y10712950D01*
X8526200Y10676600D01*
X8587190Y10605820D01*
G03X8615210I14010J21190D01*
G37*
G54D10*
X330200Y330200D03*
Y11798300D03*
X10375900Y330200D03*
X10348000Y4874500D03*
Y7373400D03*
Y8201900D03*
Y10700800D03*
X10375900Y11798300D03*
G54D11*
X292100Y1320800D03*
Y1066800D03*
Y1828800D03*
Y1574800D03*
Y2336800D03*
Y2082800D03*
Y2844800D03*
Y2590800D03*
Y3352800D03*
Y3098800D03*
X546100Y1320800D03*
Y1828800D03*
Y1574800D03*
Y2336800D03*
Y2082800D03*
Y2844800D03*
Y2590800D03*
Y3352800D03*
Y3098800D03*
X1308100Y2438400D03*
X1054100D03*
X1308100Y2692400D03*
X1054100D03*
X1308100Y2946400D03*
X1295400Y7251700D03*
X1041400D03*
X1295400Y7505700D03*
X1041400D03*
X1295400Y7759700D03*
X1803400Y914400D03*
Y1168400D03*
Y1422400D03*
Y1676400D03*
Y1930400D03*
Y2184400D03*
Y2438400D03*
Y2692400D03*
Y3949700D03*
Y4203700D03*
Y4457700D03*
Y4711700D03*
Y4965700D03*
Y5219700D03*
Y5473700D03*
Y5727700D03*
Y5981700D03*
Y6235700D03*
Y6489700D03*
Y6743700D03*
Y6997700D03*
Y7251700D03*
Y7505700D03*
Y7759700D03*
Y8013700D03*
Y8267700D03*
Y8521700D03*
Y8775700D03*
Y9029700D03*
Y9283700D03*
X2057400Y914400D03*
Y1168400D03*
Y1422400D03*
Y1676400D03*
Y1930400D03*
Y2184400D03*
Y2438400D03*
Y2692400D03*
Y2946400D03*
Y3949700D03*
Y4203700D03*
Y4457700D03*
Y4711700D03*
Y4965700D03*
Y5219700D03*
Y5473700D03*
Y5727700D03*
Y5981700D03*
Y6235700D03*
Y6489700D03*
Y6743700D03*
Y6997700D03*
Y7251700D03*
Y7505700D03*
Y7759700D03*
Y8013700D03*
Y8267700D03*
Y8521700D03*
Y8775700D03*
Y9029700D03*
Y9283700D03*
Y9537700D03*
X3568700Y11442700D03*
Y11188700D03*
X3314700Y11442700D03*
Y11188700D03*
X3187700Y11925300D03*
X3441700D03*
X4076700Y11442700D03*
Y11188700D03*
X3822700Y11442700D03*
Y11188700D03*
X3695700Y11925300D03*
X3949700D03*
X4584700Y11442700D03*
Y11188700D03*
X4330700Y11442700D03*
Y11188700D03*
X4203700Y11925300D03*
X4457700D03*
X5092700Y11442700D03*
Y11188700D03*
X4838700Y11442700D03*
Y11188700D03*
X4711700Y11925300D03*
X4965700D03*
X5600700Y11442700D03*
Y11188700D03*
X5346700Y11442700D03*
Y11188700D03*
X5219700Y11925300D03*
X5473700D03*
X5727700D03*
X6108700Y11442700D03*
Y11188700D03*
X5854700Y11442700D03*
Y11188700D03*
X5981700Y11925300D03*
X6235700D03*
X6616700Y11442700D03*
Y11188700D03*
X6362700Y11442700D03*
Y11188700D03*
X6489700Y11925300D03*
X6743700D03*
X7124700Y11442700D03*
Y11188700D03*
X6870700Y11442700D03*
Y11188700D03*
X6997700Y11925300D03*
X7251700D03*
X7378700Y11442700D03*
Y11188700D03*
X8686800Y1181100D03*
X8940800D03*
X8890000Y1879600D03*
X8686800Y1435100D03*
X8890000Y2133600D03*
X8636000D03*
X8890000Y3949700D03*
X8636000D03*
X8890000Y4203700D03*
X8636000D03*
X8890000Y4457700D03*
X8636000D03*
X8890000Y4711700D03*
X8636000D03*
X8890000Y4965700D03*
X8636000D03*
X8890000Y5219700D03*
X8636000D03*
X8890000Y5473700D03*
X8636000D03*
X8890000Y5727700D03*
X8636000D03*
X8890000Y5981700D03*
Y6235700D03*
X8636000Y5981700D03*
Y6235700D03*
X8890000Y6489700D03*
Y6743700D03*
X8636000Y6489700D03*
Y6743700D03*
X8890000Y6997700D03*
Y7251700D03*
X8636000Y6997700D03*
Y7251700D03*
X8890000Y7505700D03*
Y7759700D03*
X8636000Y7505700D03*
Y7759700D03*
X8890000Y8013700D03*
Y8267700D03*
X8636000Y8013700D03*
Y8267700D03*
X8890000Y8521700D03*
Y8775700D03*
X8636000Y8521700D03*
Y8775700D03*
X8890000Y9029700D03*
X8636000D03*
X8890000Y9283700D03*
X8636000D03*
X8890000Y9537700D03*
X9144000Y1879600D03*
Y2133600D03*
X9499600Y2501900D03*
X9385300Y5384800D03*
Y5638800D03*
Y6362700D03*
Y6616700D03*
X10007600Y2501900D03*
X9753600D03*
X9639300Y5384800D03*
Y5638800D03*
Y5892800D03*
Y6362700D03*
Y6616700D03*
Y6870700D03*
X10515600Y2501900D03*
X10261600D03*
X10485100Y5712500D03*
X10210800Y5575300D03*
X10485100Y6261100D03*
Y5986800D03*
X10210800Y6123900D03*
Y5849600D03*
X10485100Y6535400D03*
X10210800Y6398300D03*
X10485100Y9314200D03*
Y9039900D03*
X10210800Y9451300D03*
Y9177000D03*
X10485100Y9862800D03*
Y9588500D03*
X10210800Y10000000D03*
Y9725700D03*
G54D20*
X241300Y10883900D03*
Y11173900D03*
X541300Y10883900D03*
X391300D03*
Y11173900D03*
X541300D03*
G54D21*
X546100Y1066800D03*
X1054100Y2946400D03*
X1041400Y7759700D03*
X1803400Y2946400D03*
Y9537700D03*
X7505700Y11925300D03*
X8636000Y1879600D03*
X8940800Y1435100D03*
X8636000Y9537700D03*
X9245600Y2501900D03*
X9385300Y5892800D03*
Y6870700D03*
X10210800Y6672600D03*
Y8902700D03*
G54D12*
X331100Y3903500D03*
Y4303500D03*
Y5154400D03*
Y4754400D03*
G54D30*
X1181100Y10112600D03*
Y10262600D03*
Y10412600D03*
Y10562600D03*
Y10712600D03*
Y10862600D03*
Y11012600D03*
Y11162600D03*
Y11312600D03*
Y11462600D03*
Y11612600D03*
Y11762600D03*
Y11912600D03*
X2481100Y10562600D03*
Y10412600D03*
Y10262600D03*
Y10112600D03*
Y11012600D03*
Y10862600D03*
Y10712600D03*
Y11612600D03*
Y11462600D03*
Y11312600D03*
Y11162600D03*
Y11912600D03*
Y11762600D03*
G54D31*
X1511300Y279400D03*
X1961300D03*
X2603500D03*
X3053500D03*
X3683000D03*
X4133000D03*
X4686300D03*
X5136300D03*
X5689600D03*
X6139600D03*
X8097200Y11887200D03*
X8297200D03*
X8497200D03*
G54D40*
X7067100Y2580100D03*
Y2630100D03*
Y2680100D03*
Y2730100D03*
Y2780100D03*
Y2830100D03*
X7487100D03*
Y2780100D03*
Y2730100D03*
Y2680100D03*
Y2630100D03*
Y2580100D03*
G54D22*
X821700Y1572900D03*
Y1652900D03*
X981700D03*
Y1572900D03*
G54D13*
G01X330200Y330200D02*
X501650Y158750D01*
X1003300D01*
G01Y628650D02*
X1287050D01*
X1386300Y529400D01*
G01X1181100Y10112600D02*
X1375000D01*
G01X1181100Y10262600D02*
X1028700D01*
G01X2549400Y901200D02*
X2362700D01*
G01X2356100Y9937600D02*
Y9811000D01*
G01X2481100Y10112600D02*
X2352900D01*
G01X2959100Y11874500D02*
Y11938000D01*
X2895600Y12001500D01*
G01X8337550Y3130550D02*
X8820150D01*
X9219700Y3530100D01*
X9220200D01*
G01X8601200Y10833600D02*
Y10706600D01*
G01D02*
Y10569700D01*
G01X9474200Y3657100D02*
X9347200D01*
X9220200Y3530100D01*
G01X9652000Y1553560D02*
Y1600200D01*
G01X9598460D02*
X9652000D01*
G01X9584200Y10985500D02*
X9791700D01*
X9982200Y10795000D01*
G01X10375900Y330200D02*
Y1003300D01*
X10427700Y1055100D01*
X10455400D01*
G01Y1565100D02*
Y1315100D01*
G01D02*
Y1055100D01*
G01Y1805100D02*
Y1565100D01*
X50800Y5651500D03*
X174500Y8613900D03*
X50800Y9207500D03*
X241300Y9461500D03*
X127000Y10490200D03*
Y10033000D03*
X137160Y10784840D03*
X152400Y10706100D03*
X139700Y11226800D03*
X317500Y4521200D03*
X609600Y4953000D03*
Y5334000D03*
Y5689600D03*
X723900Y6184900D03*
X800100Y7696200D03*
X546100Y9321800D03*
X304800D03*
X774700Y9207500D03*
X393700Y9953000D03*
X392400Y9793000D03*
X386700Y9709800D03*
X635000Y9753600D03*
Y9588500D03*
X749300Y10375900D03*
X431800Y10439400D03*
X533400Y10299700D03*
X393300Y10503300D03*
X533410Y10223510D03*
X533400Y10134600D03*
X406400Y11049000D03*
X443300Y10704900D03*
X368300Y10706100D03*
X293300Y10704900D03*
X533400Y10972800D03*
X1066800Y1485900D03*
Y1574800D03*
Y1651000D03*
Y1739900D03*
X1092200Y2082800D03*
X1358900Y3975100D03*
X974600Y3826000D03*
X1358900Y4089400D03*
Y4216400D03*
Y4153400D03*
X1066800Y4660900D03*
X1155700Y5003800D03*
X965200Y5270500D03*
Y5892800D03*
X901700Y6019800D03*
X1028700Y6311900D03*
X1295400Y6438900D03*
Y6565900D03*
X952500D03*
X1117600Y6692900D03*
X1334000Y8114800D03*
Y8241800D03*
Y8368800D03*
X1155200Y8114800D03*
X1117100Y8813300D03*
Y8686300D03*
X1334000Y8495800D03*
X1333500Y8813800D03*
Y8686800D03*
X1117100Y9067300D03*
Y8940300D03*
X1333500Y9067300D03*
X1016000Y9601200D03*
X1028700Y10262600D03*
X1016000Y10604500D03*
X1460500Y4584700D03*
X1514600Y4683000D03*
X1587500Y5245100D03*
X1435100Y5321300D03*
X1514600Y5241800D03*
X1485900Y6146800D03*
Y6070600D03*
X1676400Y6324600D03*
X1752600Y6616700D03*
X1790700Y6870700D03*
X1701800Y8940800D03*
X1736590Y10310710D03*
X1482590D03*
X1375000Y10112600D03*
X1736590Y11072710D03*
X1482590D03*
X1736590Y10818710D03*
X1482590D03*
X1736590Y10564710D03*
X1482590D03*
X1736590Y11580710D03*
X1482590D03*
X1736590Y11326710D03*
X1482590D03*
X1876290Y11987110D03*
X1368290D03*
X1622290D03*
X1482590Y11796610D03*
X1736590D03*
X2362700Y901200D03*
X2362200Y977900D03*
Y825500D03*
X2286000Y1155700D03*
X2426860Y3975100D03*
X2311400Y3797300D03*
X2362200Y3975100D03*
X2426860Y4838700D03*
X2362200D03*
X2222500Y6299200D03*
X2381250Y9277350D03*
X2356100Y9811000D03*
X2438400Y9537700D03*
X2231890Y10310710D03*
X1990590D03*
X2352900Y10112600D03*
X2231890Y10564710D03*
Y10818710D03*
Y11072710D03*
X1990590D03*
Y10818710D03*
Y10564710D03*
X2231890Y11326710D03*
Y11580710D03*
X1990590D03*
Y11326710D03*
X2231890Y11796610D03*
X1990590D03*
X2908300Y812800D03*
X2832100Y825500D03*
Y901700D03*
Y977900D03*
X2743200Y901700D03*
X2908300Y927100D03*
X2743200Y977900D03*
Y825500D03*
X2908300Y1028700D03*
X2731000Y1155200D03*
X2463800Y1384300D03*
X2491520Y3975100D03*
X2971800Y4965700D03*
X2491520Y4838700D03*
X2489200Y9410700D03*
X2887980Y9918700D03*
X2964180D03*
X2959100Y11874500D03*
X2692400D03*
X2857500D03*
X3263900Y1028700D03*
X3479800Y1549400D03*
X3263900Y1803400D03*
X3416300Y1917700D03*
X3263900Y2044700D03*
Y1968500D03*
X3314700Y2921000D03*
X3251200Y2476500D03*
X3035300Y2834640D03*
Y2758440D03*
X3238500Y2971800D03*
X3276600Y3022600D03*
X3314700Y3073400D03*
X3365500Y4064000D03*
X3022600Y5092700D03*
X3200400Y5473700D03*
X3251200Y5372100D03*
X3073400Y5219700D03*
X3124200Y5321300D03*
X3416300Y5867400D03*
X3302000Y5727700D03*
X3416300Y5981700D03*
X3302000Y7581900D03*
X3355340Y7810500D03*
X3302000Y7861300D03*
Y7962900D03*
X3352800Y7912100D03*
X3365500Y8260080D03*
Y8336280D03*
X3543300Y1320800D03*
X4051300Y1168400D03*
Y901200D03*
X3886200Y1676400D03*
X3771900Y1384300D03*
X3822700Y1803400D03*
X3886200Y3225800D03*
X3822700Y3263900D03*
Y3821900D03*
Y3746500D03*
Y4292600D03*
Y4165600D03*
Y4229100D03*
X4025900Y4546600D03*
X3975100Y5562600D03*
X3898900D03*
X4000500Y5753100D03*
X3903980Y6014700D03*
X3949700Y6064700D03*
X3975100Y6264700D03*
Y6815840D03*
X3873500Y7810500D03*
X3825900Y7962900D03*
X3771900Y7912100D03*
Y9601200D03*
X3721100Y9525000D03*
Y9931400D03*
Y10007600D03*
Y10083800D03*
X4216400Y1168400D03*
X4432300D03*
X4495800D03*
X4368800D03*
X4559300Y1460500D03*
X4216400Y2565400D03*
X4368800Y2971800D03*
X4330700Y3479800D03*
X4432300Y3022600D03*
X4495800Y3073400D03*
X4546600Y3657600D03*
X4330700Y3937000D03*
Y3873500D03*
Y4546600D03*
X4495800Y4610100D03*
X4102100Y5461000D03*
X4380200Y5614700D03*
X4433600Y5664200D03*
X4368800Y6184900D03*
X4583600Y5801360D03*
X4533600Y5755640D03*
X4483600Y5709920D03*
X4381200Y5714700D03*
X4381500Y5791200D03*
Y6756400D03*
X4368800Y7226300D03*
X4254500Y7683500D03*
X4157980Y7564120D03*
X4433600Y7785100D03*
X4483600Y7898900D03*
X4076700Y7861300D03*
X4203700Y8260080D03*
Y8336280D03*
X4279900Y8724900D03*
Y8648700D03*
X4572000D03*
Y8885600D03*
X4521200Y9283700D03*
X4572000Y9445600D03*
X4152900Y9448800D03*
X4572000Y9365600D03*
X4152900Y9359900D03*
X4572000Y9125600D03*
Y9045600D03*
Y8965600D03*
X4152900Y9766300D03*
X4572000Y9605600D03*
X4152900Y9601200D03*
Y9525000D03*
X4572000Y9525600D03*
X4152900Y9685600D03*
X4576500D03*
X4089400Y9931400D03*
X4584700D03*
X4089400Y10007600D03*
X4584700D03*
X4457700Y10515600D03*
X4089400Y10083800D03*
X4584700D03*
X4165600Y10883900D03*
X4343400D03*
X4635500Y1460500D03*
X4686300Y2159000D03*
X4889500Y2921000D03*
X5036000Y2844800D03*
X4978400Y2806700D03*
X5143500Y2476500D03*
X4889500Y2832100D03*
Y2755900D03*
X4610100Y4610100D03*
X4737100Y4762500D03*
X4991100Y5168900D03*
X5033600Y5558200D03*
X5083600Y5613400D03*
X5133600Y5659120D03*
X4833600Y5892800D03*
X4633600Y5852800D03*
X4783600Y5842000D03*
X4933600Y6184900D03*
X4883600Y6134100D03*
X4940300Y7251700D03*
X4991100Y7200900D03*
X4724400Y7150100D03*
X4826000D03*
X4876800Y7099300D03*
X5041900Y7251700D03*
X4940300Y7048500D03*
X4953000Y7823200D03*
X4933600Y7422800D03*
X4914900Y8724900D03*
Y8648700D03*
Y8565600D03*
Y8485600D03*
Y8407400D03*
Y8805600D03*
X4913000Y9285600D03*
X5041900Y9925600D03*
Y9845600D03*
Y9765600D03*
Y10085600D03*
Y10005600D03*
X4826000Y10883900D03*
X5651500Y2476500D03*
X5588000Y3911600D03*
X5651500Y3962400D03*
X5486400Y5118100D03*
X5232400Y4889500D03*
X5537200Y5029200D03*
Y5168900D03*
X5533600Y5559000D03*
X5233600Y5219700D03*
X5333600D03*
X5433600D03*
X5384800Y5168900D03*
X5283600Y5173980D03*
X5183600Y5704840D03*
X5511800Y6070600D03*
X5473700Y6540500D03*
X5435600Y7810500D03*
X5433600Y7418800D03*
X5333600Y7813040D03*
X5283600Y7777480D03*
X5486400Y7886700D03*
X5383600Y7848600D03*
X5549900Y8811260D03*
X5499900Y8765540D03*
X5449900Y8719820D03*
X5397500Y8674100D03*
X5308600Y9271000D03*
Y9359900D03*
X5600700Y9207500D03*
X5651500Y9842500D03*
Y9765600D03*
Y9685600D03*
X5994400Y4470400D03*
X6096000Y4495800D03*
X5829300Y4724400D03*
X6223000Y5168900D03*
X5961570Y5174170D03*
X5783600Y5557500D03*
X6033600Y5562600D03*
X6097100D03*
X5880100D03*
X5956300D03*
X6133600Y5168900D03*
X5918200Y6108700D03*
X5880100Y6057900D03*
X5994400Y6208700D03*
X5956300Y6158700D03*
X6134100Y6692900D03*
Y6568440D03*
X6184900Y6464300D03*
X6032500Y6258700D03*
X5892800Y6654800D03*
X6134100Y6502400D03*
X6108700Y6362700D03*
X6070600Y6308700D03*
X6134100Y6629400D03*
Y6921500D03*
X6197600Y7772400D03*
X6083600Y7429800D03*
X6007100Y8565600D03*
Y8645600D03*
Y8725600D03*
X5992500Y9285600D03*
X5994400Y9690100D03*
Y9845600D03*
X6159500Y10668000D03*
X6022340Y10818000D03*
X6068060Y10768000D03*
X6113780Y10718000D03*
X6489700Y1447800D03*
X6527800Y2336800D03*
X6286500Y2717800D03*
Y2870200D03*
X6527800Y2463800D03*
X6489700Y2603500D03*
X6692900Y2489200D03*
X6464300Y4254500D03*
X6400800Y4457700D03*
X6642100Y4538980D03*
Y4615180D03*
X6350000Y5389700D03*
X6362700Y5156200D03*
X6248400Y5676900D03*
Y5613400D03*
Y5994400D03*
Y5930900D03*
Y5867400D03*
Y5803900D03*
Y5740400D03*
X6654800Y6400800D03*
X6235700Y6414700D03*
X6654800Y7073900D03*
X6235700Y6934200D03*
Y7035800D03*
Y7114700D03*
Y7188200D03*
X6756400Y7823200D03*
X6337300Y7810500D03*
X6489700D03*
X6413500D03*
X6235700Y7340600D03*
X7073900Y215900D03*
Y317500D03*
X7048500Y1549400D03*
X6896100Y1866900D03*
X7200900Y2336800D03*
X7302500D03*
X6972300Y2971800D03*
X6947300Y2730100D03*
X7067100Y2489200D03*
X6908800Y3162300D03*
X6972300Y3073400D03*
X6934200Y3517900D03*
Y3441700D03*
Y3378200D03*
X6972300Y3149600D03*
X6934200Y3644900D03*
Y3581400D03*
X7226300Y3721100D03*
X7137400D03*
X7061200D03*
X6985000D03*
X6908800Y3708400D03*
X7112000Y4457700D03*
X7277100Y5651500D03*
Y5524500D03*
X7200900D03*
X7124700D03*
X7023100Y5638800D03*
X7251700Y5397500D03*
X7277100Y5740400D03*
X7023100Y5715000D03*
Y5778500D03*
X6934200Y5803900D03*
X6921500Y5880100D03*
X7061200Y6604000D03*
X6946900Y6642100D03*
X7023100D03*
X6858000Y6540500D03*
X6934200D03*
X7010400Y6819900D03*
X6908800Y7645400D03*
X7188200Y7594600D03*
X6781800Y9766300D03*
Y9842500D03*
X7378700Y533400D03*
X7734300D03*
X7703700Y1341000D03*
X7493000Y1701800D03*
X7645400Y1778000D03*
X7353300Y1866900D03*
X7404100Y2336800D03*
Y2247900D03*
X7620000Y2552700D03*
X7487100Y2953200D03*
X7353300Y3149600D03*
X7429500Y3352800D03*
Y3429000D03*
Y3517900D03*
X7772400Y3213100D03*
X7493000Y3048000D03*
X7429500Y3581400D03*
X7315200Y3721100D03*
X7366000Y4538980D03*
Y4724400D03*
Y4615180D03*
X7518400Y5676900D03*
Y5600700D03*
Y5524500D03*
X7442200D03*
X7366000D03*
X7378700Y5994400D03*
X7518400Y5981700D03*
X7594600D03*
X7607300Y5791200D03*
X7518400Y5765800D03*
X7645400Y5880100D03*
X7505700Y6705600D03*
Y6642100D03*
X7416800Y6794500D03*
X7505700Y6781800D03*
X7772400Y6997700D03*
Y7162800D03*
Y7086600D03*
Y6914700D03*
X7658100Y6864700D03*
X7594600Y7264400D03*
X7772400D03*
X7372350Y8274050D03*
X7366000Y8508990D03*
X7673340Y8940800D03*
X7597140D03*
X7518400Y9855200D03*
X7785100Y10172700D03*
X7518400Y10299700D03*
X7673340Y10210800D03*
X7597140D03*
X7785100Y10693400D03*
X7962900Y1562100D03*
X8242300Y1620520D03*
Y1696720D03*
X7924800Y2679700D03*
X8181300Y2994700D03*
X8051800Y3352800D03*
X8337550Y3130550D03*
X8356600Y9931400D03*
X7937500Y10185400D03*
Y10248900D03*
Y10312400D03*
Y10375900D03*
X8356600Y10020300D03*
Y10109200D03*
X8369300Y10414000D03*
Y10261600D03*
Y10312400D03*
Y10363200D03*
X7912100Y10960100D03*
Y10896600D03*
Y11023600D03*
X8369300Y10985500D03*
Y11036300D03*
X7912100Y11087100D03*
X8369300Y11137900D03*
Y11087100D03*
X8788400Y1041400D03*
X8509000Y2489200D03*
X8890000Y2857500D03*
Y2781300D03*
X8407400Y3048000D03*
Y3200400D03*
X8884920Y3459480D03*
Y3383280D03*
X8511500Y3774400D03*
X8394700Y8178800D03*
X8763000Y8013700D03*
X8648700Y9867900D03*
X8559800D03*
X8483600D03*
X8674100Y10566400D03*
X8521700D03*
X8601200Y10569700D03*
X9423400Y1701800D03*
X9448800Y4597400D03*
X9042400D03*
X9334500Y4254500D03*
X9042400Y5016500D03*
Y5207000D03*
X9258300Y5765800D03*
X9194800Y7518400D03*
Y7759700D03*
Y7665720D03*
Y7589520D03*
Y8216900D03*
X9093200Y8432800D03*
X9067800Y8839200D03*
Y8915400D03*
Y9174480D03*
Y9098280D03*
X9080500Y10541000D03*
Y10426700D03*
X9296400Y10147300D03*
X9359900D03*
X9436100D03*
X9296400Y10210800D03*
X9359900D03*
X9436100D03*
Y10274300D03*
X9359900D03*
X9296400D03*
X9359900Y10807700D03*
X9080500Y10655300D03*
X9918700Y965200D03*
X9791700Y1244600D03*
Y1333500D03*
X9740900Y825500D03*
X9677400D03*
X9613900D03*
X9550400D03*
X9486900D03*
X9791700Y1422400D03*
Y1612900D03*
X9652000Y1600200D03*
X9702450Y1966920D03*
Y2043120D03*
X9753600Y3365500D03*
X9690100D03*
X9512300Y4254500D03*
X9944100Y5511800D03*
X9880600D03*
X9575800Y7518400D03*
X9740900D03*
Y7442200D03*
X9575800D03*
X9880600Y7759700D03*
X9569450Y7346950D03*
X9575800Y8280400D03*
X9982200Y8305800D03*
Y8547100D03*
X9575800Y8686800D03*
X9982200D03*
Y8432800D03*
Y8940800D03*
X9575800D03*
X9880600Y9613900D03*
Y9664700D03*
X9931400Y9613900D03*
Y9664700D03*
X9829800Y9613900D03*
X9779000D03*
X9728200D03*
X9677400D03*
Y9664700D03*
X9829800D03*
X9779000D03*
X9728200D03*
X9499600Y10147300D03*
Y10210800D03*
Y10274300D03*
X9982200Y10795000D03*
X9835900Y11080500D03*
X9537700Y10807700D03*
X9690100Y11137900D03*
X10038080Y833120D03*
X10248900Y1130300D03*
X10198100Y965200D03*
X10109200Y1219200D03*
X10160000D03*
Y1168400D03*
X10109200D03*
X10058400D03*
X10007600D03*
X10058400Y1219200D03*
X10007600D03*
X10261600Y1765300D03*
X10038080Y1897380D03*
X10160000Y1625600D03*
X10045700Y1574800D03*
X10007600Y1612900D03*
X10083800D03*
X10287000Y2032000D03*
Y2235200D03*
X10464800Y4457700D03*
X10020300Y10274300D03*
Y10401300D03*
X10604500Y2387600D03*
X10591800Y2616200D03*
G54D14*
X165100Y6311900D03*
Y6057900D03*
Y5803900D03*
Y6565900D03*
Y7264400D03*
Y7772400D03*
Y7518400D03*
Y8026400D03*
X419100Y6311900D03*
Y6057900D03*
Y5803900D03*
Y6565900D03*
Y7264400D03*
Y7772400D03*
Y7518400D03*
Y8026400D03*
G54D50*
X9402000Y1356500D03*
G54D32*
X2692400Y12001500D03*
X2895600D03*
X6743700Y139700D03*
X7200900D03*
X6946900D03*
X7556500D03*
X7759700D03*
X7404100D03*
X10401300Y2032000D03*
Y2235200D03*
X10604500Y2032000D03*
Y2235200D03*
G54D23*
X821700Y1482900D03*
Y1742900D03*
X981700D03*
Y1482900D03*
G54D41*
X7200900Y2628900D03*
Y2781300D03*
X7277100Y2705100D03*
X7353300Y2628900D03*
Y2781300D03*
X9309100Y1358900D03*
Y1257300D03*
X9398000D03*
Y1358900D03*
Y1460500D03*
X9309100D03*
X9410700Y11214100D03*
X9321800D03*
X9499600Y1257300D03*
Y1358900D03*
X9791700Y1143000D03*
X9499600Y1460500D03*
X9588500Y11214100D03*
X9499600D03*
G54D60*
X9804200Y2819600D03*
Y4368600D03*
G54D42*
X7065500Y3437900D03*
X7285500D03*
Y3597900D03*
X7065500D03*
G54D33*
X4583600Y5389700D03*
X4533600D03*
X4483600D03*
X4433600D03*
Y7589700D03*
X4483600D03*
X4533600D03*
X4583600D03*
X5083600Y5389700D03*
X5033600D03*
X4983600D03*
X4933600D03*
X4883600D03*
X4833600D03*
X4783600D03*
X4733600D03*
X4683600D03*
X4633600D03*
Y7589700D03*
X4683600D03*
X4733600D03*
X4783600D03*
X4833600D03*
X4883600D03*
X4933600D03*
X4983600D03*
X5033600D03*
X5083600D03*
X5633600Y5389700D03*
X5583600D03*
X5533600D03*
X5483600D03*
X5433600D03*
X5383600D03*
X5333600D03*
X5283600D03*
X5233600D03*
X5183600D03*
X5133600D03*
Y7589700D03*
X5183600D03*
X5233600D03*
X5283600D03*
X5333600D03*
X5383600D03*
X5433600D03*
X5483600D03*
X5533600D03*
X5583600D03*
X5633600D03*
X6183600Y5389700D03*
X6133600D03*
X6083600D03*
X6033600D03*
X5983600D03*
X5933600D03*
X5883600D03*
X5833600D03*
X5783600D03*
X5733600D03*
X5683600D03*
Y7589700D03*
X5733600D03*
X5783600D03*
X5833600D03*
X5883600D03*
X5933600D03*
X5983600D03*
X6033600D03*
X6083600D03*
X6133600D03*
X6183600D03*
G54D15*
X174500Y8686300D03*
Y8813300D03*
Y8940300D03*
Y9067300D03*
X714500Y8813300D03*
Y8686300D03*
Y9067300D03*
Y8940300D03*
X974600Y3899400D03*
Y4026400D03*
Y4153400D03*
Y4280400D03*
Y4749300D03*
Y4876300D03*
Y5003300D03*
Y5130300D03*
Y8368800D03*
Y8241800D03*
Y8114800D03*
Y8495800D03*
Y8686300D03*
Y8813300D03*
Y8940300D03*
Y9067300D03*
X1514600Y4026400D03*
Y3899400D03*
Y4280400D03*
Y4153400D03*
Y5130300D03*
Y5003300D03*
Y4876300D03*
Y4749300D03*
Y8114800D03*
Y8241800D03*
Y8368800D03*
Y8495800D03*
Y8813300D03*
Y8686300D03*
Y9067300D03*
Y8940300D03*
X2549400Y774200D03*
Y901200D03*
Y1028200D03*
Y1155200D03*
X3089400Y774200D03*
Y1155200D03*
Y1028200D03*
Y901200D03*
X8061200Y9995400D03*
Y10122400D03*
Y10249400D03*
Y10376400D03*
Y10706600D03*
Y10833600D03*
Y10960600D03*
Y11087600D03*
X8601200Y9995400D03*
Y10376400D03*
Y10249400D03*
Y10122400D03*
Y11087600D03*
Y10960600D03*
Y10833600D03*
Y10706600D03*
G54D24*
X697200Y6311900D03*
Y6438900D03*
Y6565900D03*
Y6692900D03*
X1487200D03*
Y6565900D03*
Y6438900D03*
Y6311900D03*
G54D51*
X9450600Y1104900D03*
X9400600D03*
X9350600D03*
X9300600D03*
X9250600D03*
X9251400Y1605200D03*
X9301400D03*
X9351400D03*
X9401400D03*
X9451400D03*
X9550600Y1104900D03*
X9500600D03*
X9501400Y1605200D03*
X9551400D03*
G54D16*
X167100Y9321800D03*
X417100D03*
X1306100Y9937600D03*
X1906100D03*
X1756100D03*
X1606100D03*
X1456100D03*
X2356100D03*
X2206100D03*
X2056100D03*
X7152100Y5676900D03*
X7402100D03*
G54D25*
X386700Y9613000D03*
Y10053000D03*
G54D34*
X4208600Y5614700D03*
Y5664700D03*
Y5714700D03*
Y5764700D03*
Y5814700D03*
Y5864700D03*
Y5914700D03*
Y5964700D03*
Y6014700D03*
Y6064700D03*
Y6114700D03*
Y6164700D03*
Y6214700D03*
Y6264700D03*
Y6314700D03*
Y6364700D03*
Y6414700D03*
Y6464700D03*
Y6514700D03*
Y6564700D03*
Y6614700D03*
Y6664700D03*
Y6714700D03*
Y6764700D03*
Y6814700D03*
Y6864700D03*
Y6914700D03*
Y6964700D03*
Y7014700D03*
Y7064700D03*
Y7114700D03*
Y7164700D03*
Y7214700D03*
Y7264700D03*
Y7314700D03*
Y7364700D03*
X6408600Y5664700D03*
Y5614700D03*
Y6164700D03*
Y6114700D03*
Y6064700D03*
Y6014700D03*
Y5964700D03*
Y5914700D03*
Y5864700D03*
Y5814700D03*
Y5764700D03*
Y5714700D03*
Y6714700D03*
Y6664700D03*
Y6614700D03*
Y6564700D03*
Y6514700D03*
Y6464700D03*
Y6414700D03*
Y6364700D03*
Y6314700D03*
Y6264700D03*
Y6214700D03*
Y7264700D03*
Y7214700D03*
Y7164700D03*
Y7114700D03*
Y7064700D03*
Y7014700D03*
Y6964700D03*
Y6914700D03*
Y6864700D03*
Y6814700D03*
Y6764700D03*
Y7364700D03*
Y7314700D03*
G54D43*
X7162800Y6642100D03*
X7282800D03*
X7402800D03*
G54D61*
X10192400Y1304100D03*
Y1369100D03*
Y1434100D03*
Y1499100D03*
Y1564100D03*
G54D52*
X9151700Y1206300D03*
Y1256300D03*
Y1306300D03*
Y1356300D03*
Y1406300D03*
Y1456300D03*
Y1506300D03*
X9652000Y1306500D03*
Y1256500D03*
Y1206500D03*
Y1506500D03*
Y1456500D03*
Y1406500D03*
Y1356500D03*
G54D53*
X9220200Y3530100D03*
Y3276100D03*
X9474200Y3403100D03*
Y3149100D03*
X9220200Y4038100D03*
Y3784100D03*
X9474200Y3911100D03*
Y3657100D03*
X10599200Y2931600D03*
Y3185600D03*
Y4002600D03*
Y4256600D03*
G54D26*
X443300Y10289400D03*
X393300D03*
X343300D03*
X293300D03*
Y10589400D03*
X343300D03*
X393300D03*
X443300D03*
G54D62*
X10455400Y1055100D03*
Y1315100D03*
Y1805100D03*
Y1565100D03*
G54D35*
X4718200Y8405600D03*
Y8485600D03*
Y8565600D03*
Y8645600D03*
Y8725600D03*
Y8805600D03*
Y8885600D03*
Y8965600D03*
Y9045600D03*
Y9125600D03*
Y9205600D03*
Y9285600D03*
Y9365600D03*
Y9445600D03*
Y9525600D03*
Y9605600D03*
Y9685600D03*
Y9765600D03*
Y9845600D03*
Y9925600D03*
Y10005600D03*
Y10085600D03*
X5848200Y8885600D03*
Y8805600D03*
Y8725600D03*
Y8645600D03*
Y8565600D03*
Y8485600D03*
Y8405600D03*
Y9445600D03*
Y9365600D03*
Y9285600D03*
Y9205600D03*
Y9125600D03*
Y9045600D03*
Y8965600D03*
Y9925600D03*
Y9845600D03*
Y9765600D03*
Y9685600D03*
Y9605600D03*
Y9525600D03*
Y10085600D03*
Y10005600D03*
G54D44*
X7797800Y10337800D03*
Y11049000D03*
X8636000Y11544300D03*
G54D17*
X266700Y9633000D03*
Y9713000D03*
Y9793000D03*
Y9873000D03*
Y9953000D03*
Y10033000D03*
X506700Y9953000D03*
Y9873000D03*
Y9793000D03*
Y9713000D03*
Y9633000D03*
Y10033000D03*
G54D63*
G01X320000Y0D02*
X10380000D01*
G03X10700000Y320000I0J320000D01*
G01Y11803800D01*
G03X10380000Y12123800I-320000J0D01*
G01X320000D01*
G03X0Y11803800I0J-320000D01*
G01Y320000D01*
G03X320000Y0I320000J0D01*
G01X546100Y1320800D02*
X821700D01*
G01X546100Y2590800D02*
X723900Y2413000D01*
Y1845700D01*
X821700Y1747900D01*
Y1742900D01*
G01Y1572900D02*
X819800Y1574800D01*
X546100D01*
G01X821700Y1652900D02*
X722000D01*
X546100Y1828800D01*
G01X673100Y6235700D02*
Y4457700D01*
X774700Y4356100D01*
X1066800D01*
X1092200Y4330700D01*
Y3810000D01*
X838200Y3556000D01*
Y2882900D01*
X546100Y2590800D01*
G01X1485900Y6146800D02*
X889000D01*
X711200Y5969000D01*
Y4495810D01*
X812810Y4394200D01*
X1092210D01*
X1130300Y4356110D01*
Y3492510D01*
X1473200Y3149610D01*
Y2413000D01*
X1600200Y2286000D01*
X1955800D01*
X2057400Y2184400D01*
G01X1485900Y6070600D02*
X876300D01*
X749300Y5943600D01*
Y4521200D01*
X838200Y4432300D01*
X1117600D01*
X1168400Y4381500D01*
Y3505200D01*
X1511300Y3162300D01*
Y2425700D01*
X1612900Y2324100D01*
X2108200D01*
X2184400Y2247900D01*
Y2108200D01*
X2133600Y2057400D01*
X1930400D01*
X1803400Y1930400D01*
G01X901700Y6019800D02*
X787400Y5905500D01*
Y4559300D01*
X863600Y4483100D01*
X1130300D01*
X1206500Y4406900D01*
G01X609600Y4953000D02*
Y5334000D01*
G01X1295400Y6565900D02*
X1168400Y6438900D01*
X697200D01*
G01X1117600Y6692900D02*
X697200D01*
G01X821700Y1320800D02*
Y1482900D01*
G01Y1320800D02*
X847100Y1295400D01*
X2108200D01*
X2197100Y1384300D01*
X2463800D01*
G01X3263900Y1803400D02*
X1739900D01*
X1320800Y1384300D01*
X952500D01*
X914400Y1422400D01*
Y1549400D01*
X890900Y1572900D01*
X821700D01*
G01X1206500Y4406900D02*
Y3581400D01*
X1562100Y3225800D01*
Y2933700D01*
X1803400Y2692400D01*
G01X1168400Y4508500D02*
X1206500Y4470400D01*
Y4406900D01*
G01X1435100Y5854700D02*
X1143000Y5562600D01*
G01X1803400Y9283700D02*
X1333500D01*
X1016000Y9601200D01*
G01X3263900Y2044700D02*
X3225800D01*
X3208020Y2026920D01*
X3174060D01*
X3152140Y2048840D01*
Y2861640D01*
X2216480Y3797300D01*
X1739900D01*
X1693500Y3843690D01*
X1625600Y4137510D01*
Y4216400D01*
X1561600Y4280400D01*
X1514600D01*
G01X3263900Y1968500D02*
X3225800D01*
X3208020Y1986280D01*
X3157220D01*
X3111500Y2032000D01*
Y2844800D01*
X2199640Y3756660D01*
X1723060D01*
X1656520Y3823190D01*
X1642070Y3885710D01*
X1624860Y3899400D01*
X1514600D01*
G01X4208600Y6214700D02*
X3547700D01*
X3365500Y6032500D01*
Y4914900D01*
X2501900Y4051300D01*
X1765300D01*
X1676400Y4140200D01*
Y4254500D01*
X1638300Y4292600D01*
Y5562600D01*
X1803400Y5727700D01*
G01X3302000Y7581900D02*
X2971800D01*
X2908300Y7518400D01*
Y4610100D01*
X2387600Y4089400D01*
X1917700D01*
X1803400Y4203700D01*
G01X1689100Y5537200D02*
X1727200Y5575300D01*
X2159000D01*
X2247900Y5664200D01*
Y6083300D01*
X2171690Y6159510D01*
Y6819910D01*
X2120900Y6870700D01*
X1790700D01*
G01X1803400Y4457700D02*
X1930400Y4330700D01*
X2489200D01*
X2870200Y4711700D01*
Y7747000D01*
X2933700Y7810500D01*
X3355340D01*
G01X1803400Y4965700D02*
X1930400Y4838700D01*
X2222500D01*
X2590800Y5207000D01*
Y9753600D01*
X3251200Y10414000D01*
X5168900D01*
X5435600Y10147300D01*
X5994400D01*
X6045200Y10096500D01*
Y9740900D01*
X5994400Y9690100D01*
G01X1803400Y4711700D02*
X1930400Y4584700D01*
X2476500D01*
X2794000Y4902200D01*
Y7823200D01*
X2882900Y7912100D01*
X3352800D01*
G01X1803400Y5727700D02*
X1917700Y5613400D01*
X2133600D01*
X2197100Y5676900D01*
Y6057900D01*
X2120900Y6134100D01*
X1536700D01*
X1524000Y6146800D01*
X1485900D01*
G01X2057400Y5981700D02*
X1955800Y6083300D01*
X1536700D01*
X1524000Y6070600D01*
X1485900D01*
G01X1803400Y9029700D02*
X1917700Y8915400D01*
Y8699500D01*
X1866900Y8648700D01*
X1752600D01*
X1689100Y8585200D01*
Y6426200D01*
X1574800Y6311900D01*
X1487200D01*
G01X7378700Y11442700D02*
X7632700Y11696700D01*
Y11988800D01*
X7581900Y12039600D01*
X3111500D01*
X3060700Y11988800D01*
Y10490200D01*
X2540000Y9969500D01*
Y8978900D01*
X2451100Y8890000D01*
X2006600D01*
X1955800Y8839200D01*
Y8420100D01*
X1803400Y8267700D01*
G01Y9537700D02*
X1930400Y9410700D01*
X2489200D01*
G01X1961300Y279400D02*
X2197100D01*
X2286000Y368300D01*
Y1155700D01*
G01X3314700Y2921000D02*
Y1524000D01*
X3086100Y1295400D01*
X2184400D01*
X2057400Y1168400D01*
G01X2286000Y1155700D02*
X2420620D01*
X2421120Y1155200D01*
X2549400D01*
G01X3276600Y3022600D02*
Y3025150D01*
X2426860Y3874890D01*
Y3975100D01*
G01X3238500Y2971800D02*
X2362200Y3848100D01*
Y3975100D01*
G01X2057400Y4457700D02*
X2489200D01*
X2832100Y4800600D01*
Y7785090D01*
X2908310Y7861300D01*
X3302000D01*
G01X2426860Y4838700D02*
X2679700Y5091540D01*
Y7921710D01*
X2885990Y8128000D01*
X3467100D01*
X3546380Y8207280D01*
Y9832880D01*
X3721100Y10007600D01*
G01X2057400Y4711700D02*
X2463800D01*
X2755900Y5003800D01*
Y7845510D01*
X2873290Y7962900D01*
X3302000D01*
G01X2362200Y4838700D02*
X2641600Y5118100D01*
Y7937500D01*
X2870200Y8166100D01*
X3429000D01*
X3492500Y8229600D01*
Y9855200D01*
X3721100Y10083800D01*
G01X2057400Y8775700D02*
X2222500Y8610600D01*
Y6299200D01*
G01X2057400Y9283700D02*
X2386690D01*
X2381250Y9278260D01*
Y9277350D01*
G01X2057400Y9537700D02*
X2438400D01*
G01X3089400Y1155200D02*
X2731000D01*
G01X3314700Y3073400D02*
Y3078500D01*
X2491520Y3901680D01*
Y3975100D01*
G01Y4838700D02*
X2717800Y5064980D01*
Y7905920D01*
X2901780Y8089900D01*
X3505200D01*
X3600260Y8184960D01*
Y9810560D01*
X3721100Y9931400D01*
G01X2971800Y4965700D02*
Y6273800D01*
X3362700Y6664700D01*
X4208600D01*
G01X3365500Y8260080D02*
X3325310D01*
X3307530Y8277860D01*
X2993060D01*
X2905760Y8365160D01*
Y9860730D01*
X2887980Y9878510D01*
Y9918700D01*
G01X3365500Y8336280D02*
X3325310D01*
X3307530Y8318500D01*
X3009900D01*
X2946400Y8382000D01*
Y9860730D01*
X2964180Y9878510D01*
Y9918700D01*
G01X9690100Y3365500D02*
Y3060700D01*
X9359900Y2730500D01*
Y2095500D01*
X9296400Y2032000D01*
X9080500D01*
X8991600Y1943100D01*
Y1816100D01*
X8928100Y1752600D01*
X8470900D01*
X7543800Y825500D01*
X3479800D01*
X3378200Y723900D01*
Y381000D01*
X3276600Y279400D01*
X3053500D01*
G01X3089400Y901200D02*
X4051300D01*
G01X3263900Y1028700D02*
X3251200D01*
X3250700Y1028200D01*
X3089400D01*
G01X3365500Y4064000D02*
Y1130300D01*
X3263900Y1028700D01*
G01X3479800Y1549400D02*
Y5842000D01*
X3702500Y6064700D01*
X3949700D01*
G01X3416300Y5867400D02*
Y1917700D01*
G01X3022600Y5092700D02*
Y6248400D01*
X3388900Y6614700D01*
X4208600D01*
G01X3200400Y5473700D02*
X3198000Y5476100D01*
Y6211640D01*
X3451060Y6464700D01*
X4208600D01*
G01X3251200Y5372100D02*
X3248000Y5375300D01*
Y6190920D01*
X3471780Y6414700D01*
X4208600D01*
G01X3073400Y5219700D02*
Y6228480D01*
X3409620Y6564700D01*
X4208600D01*
G01X3124200Y5321300D02*
Y6208560D01*
X3430340Y6514700D01*
X4208600D01*
G01X3416300Y5867400D02*
X3663600Y6114700D01*
X4208600D01*
G01X3302000Y5727700D02*
Y6174200D01*
X3492500Y6364700D01*
X4208600D01*
G01X3416300Y5981700D02*
X3599300Y6164700D01*
X4208600D01*
G01X3543300Y1320800D02*
Y5842000D01*
X3716000Y6014700D01*
X3903980D01*
G01X8242300Y1620520D02*
X8242290D01*
X8206730Y1656080D01*
X7926850D01*
X7261370Y990600D01*
X3784600D01*
X3591560Y1183640D01*
Y5674360D01*
X3877220Y5960020D01*
X4072310D01*
X4076990Y5964700D01*
X4208600D01*
G01X8242300Y1696720D02*
X7910010D01*
X7244530Y1031240D01*
X3801440D01*
X3632200Y1200480D01*
Y5657520D01*
X3894060Y5919380D01*
X4072310D01*
X4076990Y5914700D01*
X4208600D01*
G01X8890000Y1879600D02*
Y1968500D01*
X8915400Y1993900D01*
X8991600D01*
X9042400Y2044700D01*
Y2254580D01*
X8998280Y2298700D01*
X8255000D01*
X7076440Y1120140D01*
X4118940D01*
X3877660Y1120130D01*
X3721100Y1276680D01*
Y5600700D01*
X3939780Y5819380D01*
X4072310D01*
X4076990Y5814700D01*
X4208600D01*
G01X8890000Y2133600D02*
Y2059940D01*
X8915400Y2034540D01*
X8974760D01*
X9001760Y2061540D01*
Y2237740D01*
X8981440Y2258060D01*
X8271840D01*
X7093280Y1079500D01*
X4118950D01*
X3860820Y1079480D01*
X3680460Y1259840D01*
Y5617540D01*
X3922940Y5860020D01*
X4072310D01*
X4076990Y5864700D01*
X4208600D01*
G01X3886200Y3225800D02*
Y1676400D01*
G01X3771900Y1384300D02*
Y4203700D01*
X3797300Y4229100D01*
X3822700D01*
G01Y1803400D02*
Y3263900D01*
G01Y3821900D02*
X4102900Y4102100D01*
X4983500D01*
X5783600Y4902200D01*
Y5389700D01*
G01X6362700Y5156200D02*
X5003790Y3797290D01*
X5003780Y3797300D01*
X4292600D01*
X4051300Y3556000D01*
Y1168400D01*
G01X3822700Y3746500D02*
X4128300Y4052100D01*
X5004220D01*
X5833600Y4881480D01*
Y5389700D01*
G01X3822700Y4292600D02*
X4953000D01*
X5633600Y4973200D01*
Y5389700D01*
G01X3822700Y4165600D02*
X4967440D01*
X5733600Y4931760D01*
Y5389700D01*
G01X3822700Y4229100D02*
X4960220D01*
X5683600Y4952480D01*
Y5389700D01*
G01X4025900Y4546600D02*
Y5689600D01*
X4101000Y5764700D01*
X4208600D01*
G01Y6014700D02*
X3903980D01*
G01X4208600Y6064700D02*
X3949700D01*
G01X3721100Y9525000D02*
Y8001000D01*
X3670300Y7950200D01*
Y6883400D01*
X3839000Y6714700D01*
X4208600D01*
G01X3873500Y7810500D02*
X3875900Y7808100D01*
Y7138740D01*
X3999940Y7014700D01*
X4208600D01*
G01Y6964700D02*
X3979220D01*
X3825900Y7118020D01*
Y7962900D01*
G01X3771900Y7912100D02*
Y7099300D01*
X3956500Y6914700D01*
X4208600D01*
G01X3771900Y9601200D02*
Y7988290D01*
X3721100Y7937490D01*
Y6896100D01*
X3852500Y6764700D01*
X4208600D01*
G01Y7164700D02*
X4062100D01*
X4025900Y7200900D01*
Y10109200D01*
X4076700Y10160000D01*
X5068220D01*
X5105400Y10122820D01*
Y9525000D01*
X5184800Y9445600D01*
X5848200D01*
G01X4208600Y7114700D02*
X4041380D01*
X3975900Y7180180D01*
Y10135400D01*
X4050500Y10210000D01*
X5088940D01*
X5143500Y10155440D01*
Y9601200D01*
X5219100Y9525600D01*
X5848200D01*
G01Y9605600D02*
X5266100D01*
X5181600Y9690100D01*
Y10188060D01*
X5109660Y10260000D01*
X4011600D01*
X3925900Y10174300D01*
Y7159460D01*
X4020660Y7064700D01*
X4208600D01*
G01X3873500Y7810500D02*
X3875900Y7812900D01*
Y10200500D01*
X3985400Y10310000D01*
X5129460D01*
X5433860Y10005600D01*
X5848200D01*
G01X3825900Y7962900D02*
Y10239400D01*
X3946500Y10360000D01*
X5150180D01*
X5424580Y10085600D01*
X5848200D01*
G01X5092700Y11188700D02*
X4965700Y11315700D01*
Y11493500D01*
X4864100Y11595100D01*
X4038600D01*
X3949700Y11684000D01*
Y11925300D01*
G01X3695700D02*
Y11671300D01*
X3810000Y11557000D01*
X4724400D01*
X4838700Y11442700D01*
G01X4216400Y1168400D02*
Y2565400D01*
G01X4432300Y3022600D02*
Y1168400D01*
G01X4495800Y3073400D02*
Y1168400D01*
G01X4368800Y2971800D02*
Y1168400D01*
G01X5994400Y4470400D02*
X5130800Y3606800D01*
X4826000D01*
X4559300Y3340100D01*
Y1460500D01*
G01X6408600Y5664700D02*
X6590800D01*
X6642100Y5613400D01*
Y5287550D01*
X5062950Y3708400D01*
X4775200D01*
X4432300Y3365500D01*
Y3022600D01*
G01X4495800Y3073400D02*
Y3352800D01*
X4800600Y3657600D01*
X5080000D01*
X6692900Y5270500D01*
Y5638800D01*
X6617000Y5714700D01*
X6408600D01*
G01Y5614700D02*
X6526500D01*
X6591300Y5549900D01*
Y5308600D01*
X5029200Y3746500D01*
X4749800D01*
X4368800Y3365500D01*
Y2971800D01*
G01X4330700Y3937000D02*
X4959840D01*
X5883600Y4860760D01*
Y5389700D01*
G01X5829300Y4724400D02*
X4978400Y3873500D01*
X4330700D01*
G01Y4546600D02*
X5143500D01*
X5583600Y4986700D01*
Y5389700D01*
G01X4495800Y4610100D02*
Y5377500D01*
X4483600Y5389700D01*
G01X4610100Y4610100D02*
Y5277600D01*
X4600580Y5287120D01*
Y5372720D01*
X4583600Y5389700D01*
G01D02*
Y5801360D01*
G01X4533600Y5389700D02*
Y5755640D01*
G01X4483600Y5389700D02*
Y5709920D01*
G01X4433600Y5389700D02*
Y5664200D01*
G01X4208600Y5714700D02*
X4381200D01*
G01X4208600Y5764700D02*
X4355000D01*
X4381500Y5791200D01*
G01X4940300Y7251700D02*
X4635500D01*
X4533900Y7150100D01*
Y6705600D01*
X4493000Y6664700D01*
X4208600D01*
G01X4991100Y7200900D02*
X4673600D01*
X4572000Y7099300D01*
Y6604000D01*
X4532700Y6564700D01*
X4208600D01*
G01X4724400Y7150100D02*
X4610100Y7035800D01*
Y6578600D01*
X4546200Y6514700D01*
X4208600D01*
G01X4076700Y7861300D02*
Y7239000D01*
X4101000Y7214700D01*
X4208600D01*
G01Y7264700D02*
X4330400D01*
X4368800Y7226300D01*
G01X4483600Y7589700D02*
Y7898900D01*
G01X6248400Y5676900D02*
X5468220D01*
X5143500Y6001620D01*
Y7302500D01*
X5081300Y7364700D01*
X4208600D01*
G01X4583600Y7589700D02*
X4574240Y7580340D01*
Y7448230D01*
X4530110Y7404100D01*
X4384980D01*
X4340860Y7448220D01*
Y8263560D01*
X4326560Y8277860D01*
X4268070D01*
X4250290Y8260080D01*
X4203700D01*
G01X4533600Y7589700D02*
Y7465070D01*
X4513270Y7444740D01*
X4401820D01*
X4381500Y7465060D01*
Y8280400D01*
X4343400Y8318500D01*
X4268070D01*
X4250290Y8336280D01*
X4203700D01*
G01X6248400Y5613400D02*
X5461000D01*
X5105400Y5969000D01*
Y7264400D01*
X5055100Y7314700D01*
X4208600D01*
G01X4076700Y7861300D02*
Y9690100D01*
X4152900Y9766300D01*
G01X4279900Y8724900D02*
X4717500D01*
X4718200Y8725600D01*
G01X4572000Y8648700D02*
X4279900D01*
G01X4718200Y8885600D02*
X4572000D01*
G01X4152900Y9448800D02*
X4568800D01*
X4572000Y9445600D01*
G01X4718200D02*
X4572000D01*
G01X4718200Y9365600D02*
X4572000D01*
G01X4152900Y9359900D02*
X4158600Y9365600D01*
X4572000D01*
G01X4718200Y9125600D02*
X4572000D01*
G01X4718200Y9045600D02*
X4572000D01*
G01X4718200Y8965600D02*
X4572000D01*
G01X4718200Y9605600D02*
X4572000D01*
G01X4152900Y9601200D02*
X4157300Y9605600D01*
X4572000D01*
G01X4718200Y9525600D02*
X4572000D01*
G01D02*
X4153500D01*
X4152900Y9525000D01*
G01Y9685600D02*
X4576500D01*
G01X4584700Y9931400D02*
X4089400D01*
G01X4584700Y10007600D02*
X4089400D01*
G01X4584700Y11442700D02*
X4457700Y11315700D01*
Y10515600D01*
G01X4584700Y10083800D02*
X4089400D01*
G01X4203700Y11925300D02*
Y11722100D01*
X4292600Y11633200D01*
X4902200D01*
X5092700Y11442700D01*
G01X4457700Y11925300D02*
Y11747500D01*
X4533900Y11671300D01*
X5029200D01*
X5219700Y11480800D01*
Y11315700D01*
X5346700Y11188700D01*
G01X6096000Y4495800D02*
X5511800Y3911600D01*
Y3390900D01*
X5365750Y3244850D01*
X4845050D01*
X4635500Y3035300D01*
Y1460500D01*
G01X5588000Y3911600D02*
Y3365500D01*
X5391130Y3168630D01*
X4845030D01*
X4686300Y3009900D01*
Y2159000D01*
G01X7353300Y1866900D02*
X7302500Y1917700D01*
X5232400D01*
X5036000Y2114100D01*
Y2844800D01*
G01X4978400Y2806700D02*
Y2095500D01*
X5207000Y1866900D01*
X6896100D01*
G01X6400800Y4457700D02*
Y3263900D01*
X6057900Y2921000D01*
X4889500D01*
G01Y2832100D02*
X4851390D01*
X4828530Y2809240D01*
X4799790D01*
X4779470Y2829560D01*
Y2963370D01*
X4845030Y3028930D01*
X5867710D01*
X6073140Y3234360D01*
Y4257040D01*
X6372860Y4556760D01*
X6584130D01*
X6601910Y4538980D01*
X6642100D01*
G01Y4615180D02*
X6601910D01*
X6584130Y4597400D01*
X6356020D01*
X6130770Y4372150D01*
X6130760D01*
X6032500Y4273890D01*
Y3251200D01*
X5850870Y3069570D01*
X4828190D01*
X4738830Y2980210D01*
Y2812720D01*
X4782950Y2768600D01*
X4838700D01*
X4851400Y2755900D01*
X4889500D01*
G01X5486400Y5118100D02*
X4902200D01*
X4833600Y5186700D01*
Y5389700D01*
G01X4633600D02*
Y5382810D01*
X4640580Y5375830D01*
Y5062220D01*
X4813300Y4889500D01*
X5232400D01*
G01X4737100Y4762500D02*
X5270500D01*
X5537200Y5029200D01*
G01X4833600Y5389700D02*
Y5892800D01*
G01X4633600Y5389700D02*
Y5852800D01*
G01X4783600Y5389700D02*
Y5842000D01*
G01X5083600Y5389700D02*
Y5613400D01*
G01X4826000Y7150100D02*
X4683600Y7007700D01*
Y5389700D01*
G01X4876800Y7099300D02*
X4733600Y6956100D01*
Y5389700D01*
G01X4933600D02*
Y6184900D01*
G01X4883600Y6134100D02*
Y5389700D01*
G01X5041900Y7251700D02*
Y6293200D01*
X4933600Y6184900D01*
G01X4940300Y7048500D02*
X4838700Y6946900D01*
Y6184900D01*
X4883600Y6140000D01*
Y6134100D01*
G01X5499900Y8765540D02*
Y8351920D01*
X5083600Y7935620D01*
Y7589700D01*
G01X5449900Y8719820D02*
Y8372640D01*
X5033600Y7956340D01*
Y7589700D01*
G01X5397500Y8674100D02*
Y8394690D01*
X4883600Y7880790D01*
Y7589700D01*
G01X4833600D02*
Y7957800D01*
X5270500Y8394700D01*
Y8801100D01*
X5355000Y8885600D01*
X5848200D01*
G01X4783600Y7589700D02*
Y7978520D01*
X5220500Y8415420D01*
Y8821820D01*
X5364280Y8965600D01*
X5848200D01*
G01X4733600Y7589700D02*
Y7999240D01*
X5170500Y8436140D01*
Y8842540D01*
X5373560Y9045600D01*
X5848200D01*
G01X4683600Y7589700D02*
Y8019960D01*
X5120500Y8456860D01*
Y8863260D01*
X5382840Y9125600D01*
X5848200D01*
G01X4633600Y7589700D02*
Y8040680D01*
X5070500Y8477580D01*
Y8883980D01*
X5552120Y9365600D01*
X5848200D01*
G01X4914900Y8724900D02*
X4718900D01*
X4718200Y8725600D01*
G01X4914900Y8648700D02*
X4721300D01*
X4718200Y8645600D01*
G01X4914900Y8565600D02*
X4718200D01*
G01X4914900Y8485600D02*
X4718200D01*
G01X4914900Y8407400D02*
X4913100Y8405600D01*
X4718200D01*
G01X4914900Y8805600D02*
X4718200D01*
G01Y9925600D02*
X5041900D01*
G01X4718200Y9845600D02*
X5041900D01*
G01X4718200Y9765600D02*
X5041900D01*
G01X4718200Y10085600D02*
X5041900D01*
G01X4718200Y10005600D02*
X5041900D01*
G01X5848200Y9525600D02*
X6083910D01*
X6146800Y9588490D01*
Y10134600D01*
X6032500Y10248900D01*
X5524500D01*
X5092700Y10680700D01*
Y11188700D01*
G01X4838700Y11442700D02*
Y11341100D01*
X4965700Y11214100D01*
Y10731500D01*
X5499100Y10198100D01*
X6019800D01*
X6096000Y10121900D01*
Y9625920D01*
X6075680Y9605600D01*
X5848200D01*
G01X5092700Y11442700D02*
Y11341100D01*
X5219700Y11214100D01*
Y10629900D01*
X5549900Y10299700D01*
X6045200D01*
X6197600Y10147300D01*
Y9550400D01*
X6092800Y9445600D01*
X5848200D01*
G01X5346700Y11442700D02*
X5067300Y11722100D01*
X4813300D01*
X4711700Y11823700D01*
Y11925300D01*
G01X5600700Y11188700D02*
X5473700Y11315700D01*
Y11493500D01*
X5207000Y11760200D01*
X5029200D01*
X4965700Y11823700D01*
Y11925300D01*
G01X5183600Y5389700D02*
Y5704840D01*
G01X5133600Y5389700D02*
Y5659120D01*
G01X5233600Y5389700D02*
Y5219700D01*
G01X5333600Y5389700D02*
Y5219700D01*
G01X5433600Y5389700D02*
Y5219700D01*
G01X5383600Y5389700D02*
Y5170100D01*
X5384800Y5168900D01*
G01X5283600Y5389700D02*
Y5173980D01*
G01X6248400Y5994400D02*
X5515280D01*
X5383600Y6126080D01*
Y7589700D01*
G01X6248400Y5930900D02*
X5508060D01*
X5333600Y6105360D01*
Y7589700D01*
G01X6248400Y5867400D02*
X5500840D01*
X5283600Y6084640D01*
Y7589700D01*
G01X6248400Y5803900D02*
X5493620D01*
X5233600Y6063920D01*
Y7589700D01*
G01X6248400Y5740400D02*
X5486400D01*
X5183600Y6043200D01*
Y7589700D01*
G01X5473700Y6540500D02*
Y6108700D01*
X5511800Y6070600D01*
G01X5918200Y6108700D02*
X5583600Y6443300D01*
Y7589700D01*
G01X5880100Y6057900D02*
X5533600Y6404400D01*
Y7589700D01*
G01X5956300Y6158700D02*
X5633600Y6481400D01*
Y7589700D01*
G01X6159500Y10668000D02*
X6540500Y10287000D01*
Y8864600D01*
X5583600Y7907700D01*
Y7589700D01*
G01X5533600D02*
Y7839500D01*
X5486400Y7886700D01*
G01X5383600Y7589700D02*
Y7848600D01*
G01X5333600Y7589700D02*
Y7813040D01*
G01X5283600Y7589700D02*
Y7777480D01*
G01X5848200Y8405600D02*
X5758520D01*
X5233600Y7880680D01*
Y7589700D01*
G01X5848200Y8485600D02*
X5767810D01*
X5183600Y7901390D01*
Y7589700D01*
G01X5549900Y8811260D02*
Y8331200D01*
X5133600Y7914900D01*
Y7589700D01*
G01X5633600D02*
Y7894200D01*
X6590500Y8851100D01*
Y10313200D01*
X6185700Y10718000D01*
X6113780D01*
G01X7378700Y11188700D02*
Y11214100D01*
X7226300Y11366500D01*
Y11518900D01*
X7175500Y11569700D01*
X7061200D01*
X6997700Y11506200D01*
Y11137900D01*
X6896100Y11036300D01*
X6032500D01*
X5949950Y10953750D01*
Y10775950D01*
X6489700Y10236200D01*
Y8890000D01*
X5486400Y7886700D01*
G01X5651500Y9842500D02*
Y9893300D01*
X5683800Y9925600D01*
X5848200D01*
G01Y9765600D02*
X5651500D01*
G01X5848200Y9685600D02*
X5651500D01*
G01X5848200Y9125600D02*
X6217300D01*
X6299200Y9207500D01*
Y10172700D01*
X6057900Y10414000D01*
X5651500D01*
X5473700Y10591800D01*
Y11214100D01*
X5346700Y11341100D01*
Y11442700D01*
G01Y11188700D02*
Y10579100D01*
X5557520Y10368280D01*
X6040120D01*
X6248400Y10160000D01*
Y9524990D01*
X6089010Y9365600D01*
X5848200D01*
G01Y9045600D02*
X6201090D01*
X6344300Y9188810D01*
Y10191110D01*
X6057910Y10477500D01*
X5740400D01*
X5600700Y10617200D01*
Y11188700D01*
G01X5848200Y8965600D02*
X6183970D01*
X6388760Y9170390D01*
Y10210140D01*
X6070600Y10528300D01*
X5842000D01*
X5727700Y10642600D01*
Y11226800D01*
X5600700Y11353800D01*
Y11442700D01*
G01D02*
X5219700Y11823700D01*
Y11925300D01*
G01X5854700Y11188700D02*
X5727700Y11315700D01*
Y11480800D01*
X5473700Y11734800D01*
Y11925300D01*
G01X5994400Y4470400D02*
X6743700Y5219700D01*
Y5676900D01*
X6655900Y5764700D01*
X6408600D01*
G01X6096000Y4495800D02*
X6781800Y5181600D01*
Y5715000D01*
X6682100Y5814700D01*
X6408600D01*
G01X5783600Y5389700D02*
Y5557500D01*
G01X6033600Y5389700D02*
Y5562600D01*
G01X6097100D02*
Y5525300D01*
X6083600Y5511800D01*
Y5389700D01*
G01X5933600D02*
Y5496400D01*
X5880100Y5549900D01*
Y5562600D01*
G01X5956300D02*
X5983600Y5535300D01*
Y5389700D01*
G01X5994400Y6208700D02*
X5683600Y6519500D01*
Y7589700D01*
G01X6134100Y6692900D02*
X6033600Y6793400D01*
Y7589700D01*
G01X6134100Y6568440D02*
X6118860D01*
X5933600Y6753700D01*
Y7589700D01*
G01X6032500Y6258700D02*
X5733600Y6557600D01*
Y7589700D01*
G01X5892800Y6654800D02*
X6232900Y6314700D01*
X6408600D01*
G01X6134100Y6502400D02*
X6121400D01*
X5883600Y6740200D01*
Y7589700D01*
G01X6108700Y6362700D02*
X5833600Y6637800D01*
Y7589700D01*
G01X6070600Y6308700D02*
X5783600Y6595700D01*
Y7589700D01*
G01X5983600D02*
Y6767200D01*
X6121400Y6629400D01*
X6134100D01*
G01X6870700Y11442700D02*
X7035800Y11607800D01*
X7200900D01*
X7264400Y11544300D01*
Y11391900D01*
X7340600Y11315700D01*
X7454900D01*
X7518400Y11252200D01*
Y11125200D01*
X7264400Y10871200D01*
Y7556500D01*
X7124700Y7416800D01*
X6197600D01*
X6134100Y7353300D01*
Y6921500D01*
G01D02*
X6240900Y6814700D01*
X6408600D01*
G01X5733600Y7589700D02*
Y7870940D01*
X6690500Y8827840D01*
Y10340200D01*
X6212700Y10818000D01*
X6022340D01*
G01X5683600Y7589700D02*
Y7880700D01*
X6640500Y8837600D01*
Y10326700D01*
X6199200Y10768000D01*
X6068060D01*
G01X7188200Y7594600D02*
X6188500D01*
X6183600Y7589700D01*
G01X5848200Y8565600D02*
X6007100D01*
G01X5848200Y8645600D02*
X6007100D01*
G01X5848200Y8725600D02*
X6007100D01*
G01X5848200Y8885600D02*
X6166820D01*
X6433200Y9151980D01*
Y10216500D01*
X6070600Y10579100D01*
X5943600D01*
X5854700Y10668000D01*
Y11188700D01*
G01X5848200Y9845600D02*
X5994400D01*
G01X5854700Y11442700D02*
X5727700Y11569700D01*
Y11925300D01*
G01X6108700Y11188700D02*
X5981700Y11315700D01*
Y11925300D01*
G01X6108700Y11442700D02*
Y11798300D01*
X6235700Y11925300D01*
G01X8636000Y6743700D02*
X8699500D01*
X8826500Y6870700D01*
X8953500D01*
X8991600Y6908800D01*
Y7061200D01*
X8940800Y7112000D01*
X8470900D01*
X8382000Y7023100D01*
Y6184900D01*
X7437120Y5240020D01*
Y5238850D01*
X7410350Y5212080D01*
X7409180D01*
X6591300Y4394200D01*
Y2451100D01*
X6654800Y2387600D01*
X7162800D01*
X7202100Y2426900D01*
Y2495100D01*
G01X8890000Y6997700D02*
X8834120D01*
X8707120Y6870700D01*
X8534400D01*
X8420100Y6756400D01*
Y6151150D01*
X6642100Y4373150D01*
Y2463800D01*
X6680200Y2425700D01*
X7112000D01*
X7152100Y2465800D01*
Y2495100D01*
G01X8890000Y5981700D02*
X8763000Y6108700D01*
X8521700D01*
X6731000Y4318000D01*
Y2717800D01*
X6818700Y2630100D01*
X7067100D01*
G01X9639300Y6616700D02*
X9537700Y6515100D01*
X9144000D01*
X9042400Y6616700D01*
X8534400D01*
X8458200Y6540500D01*
Y6117400D01*
X6692900Y4352100D01*
Y2489200D01*
G01X7251700Y5397500D02*
X6997700D01*
X6858000Y5537200D01*
Y5791200D01*
X6734500Y5914700D01*
X6408600D01*
G01Y5964700D02*
X7103600D01*
X7188200Y5880100D01*
G01X7353300D02*
Y5892800D01*
X7231400Y6014700D01*
X6408600D01*
G01X8890000Y8521700D02*
X9144000Y8267700D01*
Y7518410D01*
X8978890Y7353300D01*
X8470900D01*
X8343900Y7226300D01*
Y6271050D01*
X8137550Y6064700D01*
X6408600D01*
G01X8636000Y8521700D02*
X8737600Y8420100D01*
X8940790D01*
X9105900Y8254990D01*
Y7543800D01*
X8953500Y7391400D01*
X8445500D01*
X8305800Y7251700D01*
Y6286840D01*
X8133660Y6114700D01*
X6408600D01*
G01X8890000Y8267700D02*
X9029700Y8128000D01*
Y7734310D01*
X8940790Y7645400D01*
X8496300D01*
X8255000Y7404100D01*
Y6366130D01*
X8053570Y6164700D01*
X6408600D01*
G01X6858000Y6540500D02*
X6783800Y6614700D01*
X6408600D01*
G01X6934200Y6540500D02*
X6810000Y6664700D01*
X6408600D01*
G01Y6514700D02*
X6698780D01*
X6799180Y6414300D01*
X7869320D01*
X8000200Y6545180D01*
Y7784300D01*
X8394700Y8178800D01*
G01X8890000Y7505700D02*
X9067800Y7683500D01*
Y8242300D01*
X8928100Y8382000D01*
X8458200D01*
X7937500Y7861300D01*
Y6578600D01*
X7823200Y6464300D01*
X6819900D01*
X6719500Y6564700D01*
X6408600D01*
G01X8636000Y8267700D02*
X8763000Y8140700D01*
X8940800D01*
X8991600Y8089900D01*
Y7937500D01*
X8928100Y7874000D01*
X8470910D01*
X8216900Y7619990D01*
Y6381920D01*
X8049680Y6214700D01*
X6408600D01*
G01X8890000Y8013700D02*
X8788400Y7912100D01*
X8448590D01*
X8153400Y7616910D01*
Y6435810D01*
X7982290Y6264700D01*
X6408600D01*
G01X8636000Y8013700D02*
X8496300D01*
X8115300Y7632700D01*
Y6451600D01*
X7978400Y6314700D01*
X6408600D01*
G01Y6714700D02*
X7128300D01*
X7162800Y6680200D01*
Y6642100D01*
G01X6408600Y6464700D02*
X6678060D01*
X6778460Y6364300D01*
X7890040D01*
X8050200Y6524460D01*
Y7763580D01*
X8414620Y8128000D01*
X8712210D01*
X8763000Y8077210D01*
Y8013700D01*
G01X7772400Y6997700D02*
X7739400Y6964700D01*
X6408600D01*
G01X7772400Y7086600D02*
X7700500Y7014700D01*
X6408600D01*
G01Y6914700D02*
X7772400D01*
G01X7402800Y6642100D02*
Y6694200D01*
X7332300Y6764700D01*
X6408600D01*
G01Y6864700D02*
X6723830D01*
X6724750Y6865620D01*
X6762650D01*
X6763570Y6864700D01*
X6990530D01*
X6991450Y6865620D01*
X7029350D01*
X7030270Y6864700D01*
X7658100D01*
G01X6408600Y7264700D02*
X7594300D01*
X7594600Y7264400D01*
G01X7772400Y7162800D02*
X7620500Y7314700D01*
X6408600D01*
G01X7772400Y7264400D02*
X7672100Y7364700D01*
X6408600D01*
G01X6362700Y11188700D02*
X6235700Y11315700D01*
Y11671300D01*
X6489700Y11925300D01*
G01X6362700Y11442700D02*
Y11544300D01*
X6743700Y11925300D01*
G01X6616700Y11188700D02*
Y11201400D01*
X6489700Y11328400D01*
Y11544300D01*
X6705600Y11760200D01*
X6832600D01*
X6997700Y11925300D01*
G01X6616700Y11442700D02*
X6883400Y11709400D01*
X7035800D01*
X7251700Y11925300D01*
G01X6870700Y11188700D02*
X6743700Y11315700D01*
Y11506200D01*
X6896100Y11658600D01*
X7239000D01*
X7505700Y11925300D01*
G01X7252100Y2495100D02*
Y2388000D01*
X7200900Y2336800D01*
G01X7252100Y2915100D02*
Y3098400D01*
X7239000Y3111500D01*
G01X7086600D02*
X7202100Y2996000D01*
Y2915100D01*
G01X7067100Y2730100D02*
X6947300D01*
G01X8636000Y5981700D02*
X8464850D01*
X6780600Y4297450D01*
Y2857500D01*
X6858000Y2780100D01*
X7067100D01*
G01X8890000Y5727700D02*
X8763000Y5854700D01*
X8408570D01*
X6830600Y4276730D01*
Y2910300D01*
X6910800Y2830100D01*
X7067100D01*
G01Y2580100D02*
Y2489200D01*
G01X7285500Y3597900D02*
X7268200D01*
X7175500Y3505200D01*
Y3340100D01*
X7251700Y3263900D01*
G01X7239000Y3111500D02*
Y3251200D01*
X7251700Y3263900D01*
G01X7073900D02*
Y3429500D01*
X7065500Y3437900D01*
G01X7086600Y3111500D02*
Y3251200D01*
X7073900Y3263900D01*
G01X8636000Y6235700D02*
X8712200D01*
X8826500Y6121400D01*
X8953500D01*
X9017000Y6057900D01*
Y5422900D01*
X8940800Y5346700D01*
X8115300D01*
X7442200Y4673600D01*
X7327900D01*
X7112000Y4457700D01*
G01X7188200Y5880100D02*
Y5713000D01*
X7152100Y5676900D01*
G01X7124700Y11442700D02*
Y11404600D01*
X7233920Y11295380D01*
Y10218420D01*
X6781800Y9766300D01*
G01X7124700Y11188700D02*
Y10185400D01*
X6781800Y9842500D01*
G01X7759700Y139700D02*
Y152400D01*
X7848600Y241300D01*
Y1028700D01*
X8483600Y1663700D01*
X9080500D01*
X9626600Y2209800D01*
Y2882900D01*
X9829800Y3086100D01*
Y3937000D01*
X9512300Y4254500D01*
G01X9753600Y3365500D02*
Y3073400D01*
X9398000Y2717800D01*
Y2082800D01*
X9309100Y1993900D01*
X9105900D01*
X9042400Y1930400D01*
Y1790700D01*
X8966200Y1714500D01*
X8483600D01*
X7480300Y711200D01*
Y228600D01*
X7404100Y152400D01*
Y139700D01*
G01Y2336800D02*
Y2493100D01*
X7402100Y2495100D01*
G01X7404100Y2247900D02*
X7353300Y2298700D01*
Y2493900D01*
X7352100Y2495100D01*
G01X7302500Y2336800D02*
Y2494700D01*
X7302100Y2495100D01*
G01X7487100Y2680100D02*
X7559610D01*
X7564290Y2675420D01*
X7793520D01*
X7957820Y2839720D01*
X8846820D01*
X8864600Y2857500D01*
X8890000D01*
G01X7487100Y2630100D02*
X7559610D01*
X7564290Y2634780D01*
X7810360D01*
X7974660Y2799080D01*
X8846820D01*
X8864600Y2781300D01*
X8890000D01*
G01X8884920Y3459480D02*
X8844730D01*
X8826950Y3441700D01*
X8458920D01*
X8457290Y3443330D01*
X8455660Y3441700D01*
X8369300D01*
X7703020Y2775420D01*
X7564290D01*
X7559610Y2780100D01*
X7487100D01*
G01Y2730100D02*
X7559610D01*
X7564290Y2734780D01*
X7719860D01*
X8386140Y3401060D01*
X8826950D01*
X8844730Y3383280D01*
X8884920D01*
G01X7302100Y2915100D02*
Y2996800D01*
X7785100Y3479800D01*
Y4140200D01*
X8001000Y4356100D01*
X9296400D01*
X9575800Y4635500D01*
X9994900D01*
X10375900Y4254500D01*
X10597100D01*
X10599200Y4256600D01*
G01X7352100Y2915100D02*
Y2988780D01*
X7826120Y3462800D01*
Y4123200D01*
X8018000Y4315080D01*
X9318880D01*
X9588500Y4584700D01*
X9982200D01*
X10363200Y4203700D01*
Y3167600D01*
X10599200Y2931600D01*
G01X7366000Y4538980D02*
X7416800D01*
X7434580Y4556760D01*
X8017840D01*
X8284540Y4823460D01*
X9021140D01*
X9159240Y4961560D01*
Y5914060D01*
X9532620Y6287440D01*
Y6342380D01*
X9552940Y6362700D01*
X9639300D01*
G01X8636000Y5473700D02*
X8115300D01*
X7366000Y4724400D01*
G01Y4615180D02*
X7416800D01*
X7434580Y4597400D01*
X8001000D01*
X8267700Y4864100D01*
X9004300D01*
X9118600Y4978400D01*
Y5930900D01*
X9491980Y6304280D01*
Y6342380D01*
X9471660Y6362700D01*
X9385300D01*
G01X7402100Y5676900D02*
X7386320D01*
X7366000Y5697220D01*
Y5867400D01*
X7353300Y5880100D01*
G01D02*
X7366000D01*
G01X7372350Y8274050D02*
X8636000Y9537700D01*
G01X8890000D02*
X8775700Y9652000D01*
X8509010D01*
X7366000Y8508990D01*
G01X7673340Y10210800D02*
Y10170610D01*
X7655560Y10152830D01*
Y8998770D01*
X7673340Y8980990D01*
Y8940800D01*
G01X7597140Y10210800D02*
Y10170610D01*
X7614920Y10152830D01*
Y8998770D01*
X7597140Y8980990D01*
Y8940800D01*
G01X7518400Y10299700D02*
Y9855200D01*
G01X9702450Y2043120D02*
X9662260D01*
X9644480Y2025340D01*
X9492940D01*
X9083040Y1615440D01*
X8517560D01*
X8343900Y1441780D01*
Y863600D01*
X8496300Y711200D01*
X9058160D01*
X9078480Y690880D01*
Y574980D01*
X8998800Y495300D01*
G01X9702450Y1966920D02*
X9662260D01*
X9644480Y1984700D01*
X9509780D01*
X9099880Y1574800D01*
X8534400D01*
X8384540Y1424940D01*
Y880440D01*
X8513140Y751840D01*
X9075000D01*
X9119120Y707720D01*
Y574980D01*
X9198800Y495300D01*
G01X8940800Y1181100D02*
X8841740D01*
X8829040Y1193800D01*
Y1274140D01*
X8767140Y1336040D01*
X8504860D01*
X8430260Y1261440D01*
Y1011860D01*
X8530260Y911860D01*
X9401800D01*
X9445920Y955980D01*
Y1020210D01*
X9450600Y1024890D01*
Y1104900D01*
G01X8686800Y1181100D02*
X8775700D01*
X8788400Y1193800D01*
Y1257300D01*
X8750300Y1295400D01*
X8521700D01*
X8470900Y1244600D01*
Y1028700D01*
X8547100Y952500D01*
X9384960D01*
X9405280Y972820D01*
Y1020210D01*
X9400600Y1024890D01*
Y1104900D01*
G01X8890000Y2857500D02*
X8930190D01*
X8947970Y2839720D01*
X9342120D01*
X9598660Y3096260D01*
Y3208960D01*
X9550450Y3257170D01*
X9405360D01*
X9379090Y3230900D01*
X9374480Y3221680D01*
X9383550Y3194430D01*
X9474200Y3149100D01*
G01X8890000Y2781300D02*
X8930190D01*
X8947970Y2799080D01*
X9358960D01*
X9639300Y3079420D01*
Y3225800D01*
X9567290Y3297810D01*
X9388520D01*
X9376620Y3285910D01*
X9345680Y3254980D01*
X9338120Y3239860D01*
X9310860Y3230760D01*
X9220200Y3276100D01*
G01X8884920Y3459480D02*
X8925110D01*
X8940170Y3444420D01*
X8968920D01*
X9029700Y3505200D01*
Y4102100D01*
X9121140Y4193540D01*
X9440250D01*
X9723120Y3910670D01*
Y3666160D01*
X9686620Y3629660D01*
X9626600D01*
X9474200Y3477260D01*
Y3403100D01*
G01X8884920Y3383280D02*
X8925110D01*
X8945610Y3403780D01*
X8985760D01*
X9070340Y3488360D01*
Y4085260D01*
X9137980Y4152900D01*
X9423410D01*
X9682480Y3893830D01*
Y3683000D01*
X9669780Y3670300D01*
X9626600D01*
X9512800Y3784100D01*
X9220200D01*
G01X8890000Y6489700D02*
X8915400Y6464300D01*
X9728200D01*
X9753600Y6438900D01*
Y6311900D01*
X9690100Y6248400D01*
X9550400D01*
X9258300Y5956300D01*
Y5765800D01*
G01X8890000Y7251700D02*
X9258300D01*
X9448800Y7442200D01*
X9575800D01*
G01X8636000Y7251700D02*
X8737600Y7150100D01*
X9372600D01*
X9569450Y7346950D01*
G01X9423400Y1701800D02*
X9474200D01*
X9501400Y1674600D01*
Y1605200D01*
G01X9042400Y5207000D02*
Y5016500D01*
G01Y4597400D02*
X9448800D01*
G01X9194800Y7589520D02*
X9234990D01*
X9252770Y7607300D01*
X9588500D01*
X9633760Y7562040D01*
Y7079440D01*
X9801860Y6911340D01*
Y6283960D01*
X9491980Y5974080D01*
Y5659120D01*
X9471660Y5638800D01*
X9385300D01*
G01X9575800Y7518400D02*
X9194800D01*
G01X9880600Y7759700D02*
X9194800D01*
G01Y7665720D02*
X9234990D01*
X9252770Y7647940D01*
X9605340D01*
X9674400Y7578880D01*
Y7096280D01*
X9842500Y6928180D01*
Y6267120D01*
X9532620Y5957240D01*
Y5659120D01*
X9552940Y5638800D01*
X9639300D01*
G01X9258300Y8686800D02*
X9321800D01*
X9359900Y8648700D01*
X9448800D01*
X9512300Y8585200D01*
Y8178800D01*
X9575800Y8115300D01*
X9829800D01*
X9969500Y7975600D01*
Y7188200D01*
X10363200Y6794500D01*
Y6286500D01*
X10325100Y6248400D01*
X10231120D01*
X10210800Y6228080D01*
Y6123900D01*
G01Y6398300D02*
Y6306820D01*
X10231120Y6286500D01*
X10304780D01*
X10325100Y6306820D01*
Y6778710D01*
X9931400Y7172410D01*
Y7959810D01*
X9814010Y8077200D01*
X9560010D01*
X9474200Y8163010D01*
Y8569410D01*
X9433010Y8610600D01*
X9359900D01*
X9309100Y8559800D01*
X9258300D01*
G01Y8813800D02*
X9194800D01*
X9151210Y8857390D01*
X9124100D01*
X9105910Y8839200D01*
X9067800D01*
G01X9258300Y8940800D02*
X9194800D01*
X9152030Y8898030D01*
X9123280D01*
X9107490Y8913820D01*
X9069380D01*
X9067800Y8915400D01*
G01Y9174480D02*
X9113520D01*
X9129630Y9158370D01*
X9158370D01*
X9194800Y9194800D01*
X9258300D01*
G01X9067800Y9098280D02*
X9110980D01*
X9130430Y9117730D01*
X9157580D01*
X9207510Y9067800D01*
X9258300D01*
G01X9791700Y1333500D02*
X9771380Y1353820D01*
X9661570D01*
X9658890Y1356500D01*
X9652000D01*
G01X9791700Y1422400D02*
X9775800Y1406500D01*
X9652000D01*
G01X9791700Y1612900D02*
Y1524000D01*
X9724200Y1456500D01*
X9652000D01*
G01X10192400Y1369100D02*
X10099890D01*
X10087710Y1381280D01*
X9985220D01*
X9878060Y1488440D01*
Y1964360D01*
X9857720Y1984700D01*
X9760420D01*
X9742640Y1966920D01*
X9702450D01*
G01X10192400Y1434100D02*
X10099890D01*
X10087710Y1421920D01*
X10002060D01*
X9918700Y1505280D01*
Y1981200D01*
X9874560Y2025340D01*
X9760420D01*
X9742640Y2043120D01*
X9702450D01*
G01X9944100Y5511800D02*
Y7067380D01*
X9807480Y7204000D01*
Y7451820D01*
X9740900Y7518400D01*
G01Y7442200D02*
Y7216690D01*
X9880600Y7076990D01*
Y5511800D01*
G01X10210800Y9451300D02*
Y9537700D01*
X10185400Y9563100D01*
X10084170D01*
X10020300Y9499230D01*
Y9162970D01*
X9963230Y9105900D01*
X9918700D01*
X9880600Y9067800D01*
X9817100D01*
G01Y9194800D02*
X9867900D01*
X9918700Y9144000D01*
X9947440D01*
X9982200Y9178760D01*
Y9512300D01*
X10071100Y9601200D01*
X10185400D01*
X10210800Y9626600D01*
Y9725700D01*
G01X10287000Y2032000D02*
X10401300D01*
G01X10287000Y2235200D02*
X10401300D01*
G54D27*
X1003300Y158750D03*
Y628650D03*
G54D36*
X6032500Y7962900D03*
X6286500D03*
G54D18*
X218300Y10364400D03*
Y10414400D03*
Y10464400D03*
Y10514400D03*
X518300D03*
Y10464400D03*
Y10414400D03*
Y10364400D03*
G54D45*
X7882200Y11887200D03*
X8712200D03*
G54D54*
X9258300Y8305800D03*
Y8813800D03*
Y8686800D03*
Y8559800D03*
Y8432800D03*
Y9194800D03*
Y9067800D03*
Y8940800D03*
X9817100Y8305800D03*
Y8432800D03*
Y8559800D03*
Y8686800D03*
Y8813800D03*
Y8940800D03*
Y9067800D03*
Y9194800D03*
G54D64*
G01X10275400Y1235100D02*
G03I-30000J0D01*
G01D02*
G03I-30000J0D01*
G01Y1635100D02*
G03I-30000J0D01*
G01D02*
G03I-30000J0D01*
G54D37*
X6769100Y317500D03*
X7226300D03*
X6921500D03*
X7251700Y3263900D03*
X6921500D03*
X7073900D03*
X7086600Y3111500D03*
X7239000D03*
X7035800Y5880100D03*
X7188200D03*
X7581900Y317500D03*
X7734300D03*
X7378700D03*
X7404100Y3263900D03*
X7518400Y5880100D03*
X7366000D03*
G54D28*
X1386300Y529400D03*
X2478500D03*
X2086300D03*
X3558000D03*
X3178500D03*
X4258000D03*
X4561300D03*
X5564600D03*
X5261300D03*
X6264600D03*
G54D46*
X8428800Y225300D03*
X9758800D03*
X10109200Y3022600D03*
Y4165600D03*
G54D55*
X9105900Y10020300D03*
X9805900D03*
G54D19*
X241300Y11028900D03*
G54D65*
G01X3055700Y2375700D02*
G03I-160000J0D01*
G01X3270700Y3733700D02*
G03I-160000J0D01*
G01X5118600Y3492500D02*
G03I-75000J0D01*
G01X5868600D02*
G03I-75000J0D01*
G01X7107100Y107300D02*
G03I-28400J0D01*
G01X7919700Y2375700D02*
G03I-160000J0D01*
G01X7728700Y3733700D02*
G03I-160000J0D01*
G01X7907100Y107300D02*
G03I-28400J0D01*
G54D29*
X1054100Y914400D03*
X2081100Y11912600D03*
X10096500Y11328400D03*
G54D47*
X8748800Y495300D03*
X8998800D03*
X9198800D03*
G54D56*
X9236100Y10566400D03*
X9636100D03*
G54D38*
X7277100Y2705100D03*
G54D66*
G01X165100Y8026400D02*
X292100Y7899400D01*
X533400D01*
X647700Y7785100D01*
Y7429500D01*
X673100Y7404100D01*
X1139080D01*
X1191260Y7351920D01*
Y7277100D01*
X1216660Y7251700D01*
X1295400D01*
G01X174500Y8686300D02*
Y8613900D01*
G01X330200Y9321800D02*
X304800Y9296400D01*
Y9017000D01*
X228100Y8940300D01*
X174500D01*
G01Y9067300D02*
Y9314400D01*
X167100Y9321800D01*
G01X266700Y9953000D02*
X393700D01*
G01X266700Y9793000D02*
X392400D01*
G01X266700Y9713000D02*
Y9793000D01*
G01Y9633000D02*
X366700D01*
X386700Y9613000D01*
G01X218300Y10514400D02*
X293300D01*
X343300Y10464400D01*
Y10375900D01*
G01X127000Y10490200D02*
X151200Y10514400D01*
X218300D01*
G01X241300Y11173900D02*
X137600D01*
X63500Y11099800D01*
Y10426700D01*
X127000Y10363200D01*
X217100D01*
X218300Y10364400D01*
G01X266700Y10033000D02*
X127000D01*
G01X241300Y11028900D02*
X386300D01*
X406400Y11049000D01*
G01X518300Y10514400D02*
Y10733900D01*
X495300Y10756900D01*
X203200D01*
X152400Y10706100D01*
G01X533400Y10134600D02*
X673100Y10274300D01*
Y11214100D01*
X596900Y11290300D01*
X342900D01*
X241300Y11188700D01*
Y11173900D01*
G01X974600Y4026400D02*
X787900D01*
X665000Y3903500D01*
X331100D01*
G01X974600Y4153400D02*
X786900D01*
X636800Y4303500D01*
X331100D01*
G01X723900Y6184900D02*
X1130300D01*
X1257300Y6311900D01*
X1487200D01*
G01X697200D02*
X1028700D01*
G01X419100D02*
X495300Y6235700D01*
X673100D01*
G01D02*
X1092200D01*
X1295400Y6438900D01*
G01X419100Y6565900D02*
X697200D01*
G01X952500D02*
X697200D01*
G01X419100Y7264400D02*
X447570Y7256450D01*
X628440Y7358380D01*
X1120140D01*
X1145540Y7332980D01*
Y7277100D01*
X1120140Y7251700D01*
X1041400D01*
G01X714500Y8813300D02*
X672600D01*
X584200Y8724900D01*
Y8458200D01*
X673600Y8368800D01*
X974600D01*
G01X2057400Y9029700D02*
X1930400Y9156700D01*
X1003300D01*
X889000Y9271000D01*
X723900D01*
X482600Y9029700D01*
Y8343900D01*
X800100Y8026400D01*
X1358900D01*
X1435100Y7950200D01*
Y6883400D01*
X1117600Y6565900D01*
X952500D01*
G01X1181100Y11912600D02*
X1075670D01*
X1023530Y11860460D01*
X933560D01*
X881380Y11808280D01*
Y9582040D01*
X355600Y9056260D01*
Y8305800D01*
X782320Y7879080D01*
X1120140D01*
X1145540Y7853680D01*
Y7785100D01*
X1120140Y7759700D01*
X1041400D01*
G01X1181100Y11762600D02*
X1075670D01*
X1023530Y11814740D01*
X952500D01*
X927100Y11789340D01*
Y9563100D01*
X401320Y9037320D01*
Y8324740D01*
X801260Y7924800D01*
X1139080D01*
X1191260Y7872620D01*
Y7785100D01*
X1216660Y7759700D01*
X1295400D01*
G01X974600Y8495800D02*
X974100Y8496300D01*
X774700D01*
X714500Y8556500D01*
Y8686300D01*
G01X1333500Y8813800D02*
X1270000Y8877300D01*
X825500D01*
X761500Y8813300D01*
X714500D01*
G01X330200Y9321800D02*
X304800D01*
G01X330200D02*
X417100D01*
G01X774700Y9207500D02*
Y9092700D01*
X749300Y9067300D01*
X714500D01*
G01X393700Y9953000D02*
X506700D01*
G01X386700Y9613000D02*
Y9709800D01*
G01X506700Y9713000D02*
X594400D01*
X635000Y9753600D01*
G01X506700Y9633000D02*
X590500D01*
X635000Y9588500D01*
G01X343300Y10375900D02*
Y10289400D01*
G01Y10375900D02*
X419100D01*
X443300Y10351700D01*
Y10289400D01*
G01X393300Y10589400D02*
Y10503300D01*
G01X386700Y10053000D02*
Y10076800D01*
G01D02*
Y10079300D01*
X293300Y10172700D01*
Y10289400D01*
G01X386700Y10076800D02*
X533410Y10223510D01*
G01D02*
X622300Y10312400D01*
Y11010900D01*
X584200Y11049000D01*
X495300D01*
X391300Y11153000D01*
Y11173900D01*
G01X533400Y10134600D02*
Y10059700D01*
X506700Y10033000D01*
G01X443300Y10589400D02*
Y10704900D01*
G01X343300Y10589400D02*
Y10681100D01*
X368300Y10706100D01*
G01X293300Y10589400D02*
Y10704900D01*
G01X391300Y10883900D02*
X541300D01*
G01X533400Y10972800D02*
Y10891800D01*
X541300Y10883900D01*
G01X974600Y3899400D02*
Y3826000D01*
G01Y4749300D02*
X914400D01*
X889000Y4723900D01*
Y4648200D01*
X939800Y4597400D01*
X1206500D01*
X1308100Y4495800D01*
Y3657600D01*
X1427480Y3538220D01*
X1974730D01*
X2693550Y2819400D01*
X2972480D01*
X2987720Y2834640D01*
X3035300D01*
G01X974600Y5130300D02*
X939310D01*
X843280Y5034270D01*
Y4629260D01*
X920860Y4551680D01*
X1187560D01*
X1262380Y4476860D01*
Y3638660D01*
X1408540Y3492500D01*
X1955790D01*
X2674610Y2773680D01*
X2972480D01*
X2987720Y2758440D01*
X3035300D01*
G01X1066800Y4660900D02*
X1282200Y4876300D01*
X1514600D01*
G01Y5003300D02*
X1156200D01*
X1155700Y5003800D01*
G01X2057400Y5727700D02*
X1930400Y5854700D01*
X1435100D01*
G01X1143000Y5562600D02*
Y5118100D01*
X1028200Y5003300D01*
X974600D01*
G01Y4876300D02*
Y5003300D01*
G01X965200Y5892800D02*
Y5270500D01*
G01X1295400Y6438900D02*
X1487200D01*
G01Y6565900D02*
X1295400D01*
G01X974600Y8114800D02*
X1155200D01*
G01X1514600D02*
X1334000D01*
G01X1514600Y8241800D02*
X1334000D01*
G01X1514600Y8368800D02*
X1334000D01*
G01X974600Y8495800D02*
X1231400D01*
X1333500Y8597900D01*
Y8686800D01*
G01X1514600Y8495800D02*
X1334000D01*
G01X974600Y8813300D02*
X1117100D01*
G01X974600Y8686300D02*
X1117100D01*
G01X1514600Y8813300D02*
X1382260D01*
X1381760Y8813800D01*
X1333500D01*
G01X1514600Y8686300D02*
X1382260D01*
X1381760Y8686800D01*
X1333500D01*
G01X974600Y9067300D02*
X1117100D01*
G01X974600Y8940300D02*
X1117100D01*
G01X1514600Y9067300D02*
X1333500D01*
G01X1514600Y4026400D02*
X1410200D01*
X1358900Y3975100D01*
G01X1803400Y4203700D02*
X1689100Y4318000D01*
Y5537200D01*
G01X1514600Y4153400D02*
X1358900D01*
G01D02*
Y4089400D01*
G01Y4216400D02*
Y4153400D01*
G01X1514600Y4749300D02*
Y4683000D01*
G01Y5130300D02*
Y5241800D01*
G01X1803400Y8775700D02*
X1638300Y8610600D01*
Y6502400D01*
X1574800Y6438900D01*
X1487200D01*
G01Y6692900D02*
Y6565900D01*
G01X1514600Y8940300D02*
X1701300D01*
X1701800Y8940800D01*
G01X2311400Y3797300D02*
X3251200Y2857500D01*
Y2476500D01*
G01X2743200Y977900D02*
X2692900Y1028200D01*
X2549400D01*
G01X2857500Y11874500D02*
Y10528300D01*
X2741800Y10412600D01*
X2481100D01*
G01X2692400Y12001500D02*
Y11874500D01*
G01X4208600Y6264700D02*
X3975100D01*
G01X4208600Y6814700D02*
X3976240D01*
X3975100Y6815840D01*
G01X4102100Y5461000D02*
X4070350Y5492750D01*
Y5645150D01*
X4089900Y5664700D01*
X4208600D01*
G01Y5614700D02*
X4380200D01*
G01X4368800Y6184900D02*
Y6286500D01*
X4340600Y6314700D01*
X4208600D01*
G01X4381500Y6756400D02*
Y6832600D01*
X4349400Y6864700D01*
X4208600D01*
G01X4433600Y7589700D02*
Y7785100D01*
G01X4718200Y9205600D02*
X4599300D01*
X4521200Y9283700D01*
G01X4718200Y9685600D02*
X4576500D01*
G01X4983600Y5389700D02*
Y5176400D01*
X4991100Y5168900D01*
G01X5033600Y5389700D02*
Y5558200D01*
G01X4983600Y7589700D02*
Y7792600D01*
X4953000Y7823200D01*
G01X4933600Y7589700D02*
Y7422800D01*
G01X4718200Y9285600D02*
X4913000D01*
G01X5651500Y2476500D02*
X5143500D01*
G01X5651500Y3962400D02*
Y3975100D01*
X6819900Y5143500D01*
Y5753100D01*
X6708300Y5864700D01*
X6408600D01*
G01X5537200Y5168900D02*
Y5219700D01*
X5483600Y5273300D01*
Y5389700D01*
G01X5533600D02*
Y5559000D01*
G01X5483600Y7589700D02*
Y7762500D01*
X5435600Y7810500D01*
G01X5433600Y7589700D02*
Y7418800D01*
G01X5848200Y9205600D02*
X5602600D01*
X5600700Y9207500D01*
G01X6183600Y5389700D02*
X6350000D01*
G01X6133600D02*
Y5168900D01*
G01X6408600Y6564700D02*
X6285300D01*
X6184900Y6464300D01*
G01X6133600Y7589700D02*
Y7708400D01*
X6197600Y7772400D01*
G01X6083600Y7589700D02*
Y7429800D01*
G01X6033600Y7589700D02*
Y7710000D01*
X6286500Y7962900D01*
G01X5983600Y7589700D02*
Y7914000D01*
X6032500Y7962900D01*
G01X5848200Y9285600D02*
X5992500D01*
G01X6769100Y317500D02*
Y165100D01*
X6743700Y139700D01*
G01X6408600Y6364700D02*
X6618700D01*
X6654800Y6400800D01*
G01X6408600Y6414700D02*
X6235700D01*
G01Y7035800D02*
X6264600Y7064700D01*
X6408600D01*
G01X6235700Y7340600D02*
Y7264400D01*
X6285400Y7214700D01*
X6408600D01*
G01Y7114700D02*
X6235700D01*
G01X6408600Y7164700D02*
X6259200D01*
X6235700Y7188200D01*
G01X6946900Y139700D02*
X7023100Y215900D01*
X7073900D01*
G01X7226300Y317500D02*
Y165100D01*
X7200900Y139700D01*
G01X6921500Y317500D02*
X7073900D01*
G01X6972300Y2971800D02*
X7124700D01*
X7152100Y2944400D01*
Y2915100D01*
G01X7035800Y5880100D02*
X6921500D01*
G01X7581900Y317500D02*
Y165100D01*
X7556500Y139700D01*
G01X7378700Y317500D02*
Y533400D01*
G01X7734300Y317500D02*
Y533400D01*
G01X7620000Y2552700D02*
X7543800D01*
X7516400Y2580100D01*
X7487100D01*
G01X7402100Y2915100D02*
Y2957100D01*
X7493000Y3048000D01*
G01X7487100Y2830100D02*
Y2953200D01*
G01X7518400Y5880100D02*
X7645400D01*
G01X9804200Y4368600D02*
X9791300Y4381500D01*
X9461500D01*
X9334500Y4254500D01*
G01X9258300Y8305800D02*
X9220200D01*
X9194800Y8280400D01*
Y8216900D01*
G01X9258300Y8432800D02*
X9093200D01*
G01X9613900Y1143000D02*
X9791700D01*
G01X9652000Y1306500D02*
X9729800D01*
X9791700Y1244600D01*
G01X9652000Y1506500D02*
Y1553560D01*
G01X9551400Y1605200D02*
X9593460D01*
X9598460Y1600200D01*
G01X9575800Y8280400D02*
Y8509000D01*
X9626600Y8559800D01*
X9817100D01*
G01Y8305800D02*
X9982200D01*
G01X9817100Y8813800D02*
X9626600D01*
X9575800Y8763000D01*
Y8686800D01*
G01X9817100D02*
X9982200D01*
G01X9817100Y8432800D02*
X9982200D01*
G01X9817100Y8940800D02*
X9575800D01*
G01X9537700Y10807700D02*
Y10871200D01*
X9557000Y10890500D01*
X9584200D01*
G01Y11080500D02*
X9835900D01*
G01X10261600Y1765300D02*
X10312400Y1714500D01*
Y1600200D01*
X10276300Y1564100D01*
X10192400D01*
G01X10604500Y2235200D02*
Y2032000D01*
G01Y2235200D02*
Y2387600D01*
G54D39*
X7252100Y2495100D03*
X7202100D03*
X7152100D03*
Y2915100D03*
X7202100D03*
X7252100D03*
X7402100Y2495100D03*
X7352100D03*
X7302100D03*
Y2915100D03*
X7352100D03*
X7402100D03*
G54D48*
X8981500Y11668800D03*
G54D57*
X9313400Y10985500D03*
Y10890500D03*
Y11080500D03*
X9584200D03*
Y10985500D03*
Y10890500D03*
G54D49*
X9448800Y495300D03*
G54D58*
X9461500Y11388800D03*
Y11988800D03*
G54D59*
X9613900Y1143000D03*
M02*
