G04 ================== begin FILE IDENTIFICATION RECORD ==================*
G04 Layout Name:  F:/Ñ¸À×ÏÂÔØ/45_STM32F407/F407_PACK_V10A/PCB/F407_PACK_V10A.brd*
G04 Film Name:    VCC*
G04 File Format:  Gerber RS274X*
G04 File Origin:  Cadence Allegro 16.6-2015-S060*
G04 Origin Date:  Mon Feb 15 12:10:05 2016*
G04 *
G04 Layer:  BOARD GEOMETRY/OUTLINE*
G04 Layer:  VIA CLASS/L03_VCC*
G04 Layer:  PIN/L03_VCC*
G04 Layer:  ETCH/L03_VCC*
G04 *
G04 Offset:    (0.0000 0.0000)*
G04 Mirror:    No*
G04 Mode:      Positive*
G04 Rotation:  0*
G04 FullContactRelief:  No*
G04 UndefLineWidth:     0.1524*
G04 ================== end FILE IDENTIFICATION RECORD ====================*
%FSLAX35Y35*MOMM*%
%IR0*IPPOS*OFA0.00000B0.00000*MIA0B0*SFA1.00000B1.00000*%
%ADD12C,.508*%
%ADD16C,.635*%
%ADD18C,.762*%
%ADD25O,4.X2.*%
%ADD22O,2.X4.*%
%ADD19O,1.5X3.*%
%ADD20C,3.3*%
%ADD21C,1.6*%
%ADD27C,3.302*%
%ADD26C,2.7*%
%ADD17C,1.27*%
%ADD11C,1.524*%
%ADD23R,1.6X1.6*%
%ADD10C,6.35*%
%ADD13C,1.905*%
%ADD14R,1.524X1.524*%
%ADD28C,1.397*%
%ADD15C,1.778*%
%ADD24C,1.6993*%
%ADD29C,.2032*%
%ADD30C,.17*%
%ADD31C,.127*%
%ADD37C,.7156*%
%ADD38C,.7188*%
%ADD33C,3.1422*%
%ADD35C,1.67*%
%ADD47C,2.2608*%
%ADD41C,2.3608*%
%ADD45C,1.9308*%
%ADD50C,2.0578*%
%ADD39C,3.0694*%
%ADD48R,2.2608X2.2608*%
%ADD40C,2.1848*%
%ADD42C,1.1688*%
%ADD36C,1.689*%
%ADD44C,2.4388*%
%ADD34C,3.3892*%
%ADD46C,3.9608*%
%ADD49C,3.9628*%
%ADD32O,2.6608X4.6608*%
%ADD43R,2.1848X2.1848*%
G75*
%LPD*%
G75*
G36*
G01X496570Y0D02*
G02X491880Y19170I1J10159D01*
G03X19170Y491880I-161680J311030D01*
G02X0Y496570I-9011J4691D01*
G01Y5596230D01*
G02X16180Y5604420I10160J5D01*
G03Y5698580I34620J47080D01*
G02X0Y5706770I-6020J8185D01*
G01Y9152230D01*
G02X16180Y9160420I10160J5D01*
G03Y9254580I34620J47080D01*
G02X0Y9262770I-6020J8185D01*
G01Y11631930D01*
G02X19170Y11636620I10159J-1D01*
G03X491880Y12109330I311030J161680D01*
G02X496570Y12128500I4691J9011D01*
G01X9300460D01*
G02X9304790Y12109150I2J-10159D01*
G03X9361500Y11855760I56710J-120349D01*
G01X9561500D01*
G03X9618210Y12109150I0J133041D01*
G02X9622540Y12128500I4328J9191D01*
G01X10209530D01*
G02X10214220Y12109330I-1J-10159D01*
G03X10686930Y11636620I161680J-311030D01*
G02X10706100Y11631930I9011J-4691D01*
G01Y4394200D01*
X10507940D01*
G02X10501550Y4412260I-3J10159D01*
G03X10428050I-36750J45440D01*
G02X10421660Y4394200I-6387J-7901D01*
G01X9970330D01*
X9969580Y4398380D01*
G03X9638820I-165380J-29780D01*
G01X9638070Y4394200D01*
X9067800D01*
Y2794000D01*
X9638070D01*
X9638820Y2789820D01*
G03X9969580I165380J29780D01*
G01X9970330Y2794000D01*
X10706100D01*
Y496570D01*
G02X10686930Y491880I-10159J1D01*
G03X10214220Y19170I-311030J-161680D01*
G02X10209530Y0I-4691J-9011D01*
G01X496570D01*
G37*
%LPC*%
G75*
G36*
G01X2915820Y11835230D02*
G03X2900780I-7520J-6831D01*
G02Y11913770I-43280J39270D01*
G03X2915820I7520J6831D01*
G02Y11835230I43280J-39270D01*
G37*
G36*
G01X1972920Y11852310D02*
G03X1979120Y11866150I-3073J9685D01*
G02X2060930Y11801120I103677J46454D01*
G03X2048840Y11791950I-1959J-9972D01*
G02X1972920Y11852310I-58251J4658D01*
G37*
G36*
G01X8007080Y11805060D02*
G03X7989480Y11799420I-7510J-6844D01*
G02X7774160Y11812200I-107281J12780D01*
G01Y11962200D01*
G02X7989480Y11974980I108039J0D01*
G03X8007080Y11969340I10090J1204D01*
G02X8189510Y11966880I90124J-82140D01*
G03X8204890I7690J6635D01*
G02X8389510I92310J-79680D01*
G03X8404890I7690J6635D01*
G02X8587320Y11969340I92306J-79680D01*
G03X8604920Y11974980I7510J6844D01*
G02X8820240Y11962200I107281J-12780D01*
G01Y11812200D01*
G02X8604920Y11799420I-108039J0D01*
G03X8587320Y11805060I-10090J-1204D01*
G02X8404890Y11807520I-90124J82140D01*
G03X8389510I-7690J-6635D01*
G02X8204890I-92310J79680D01*
G03X8189510I-7690J-6635D01*
G02X8007080Y11805060I-92306J79680D01*
G37*
G36*
G01X9617400Y11149090D02*
G02X9544050Y11158560I-28893J65009D01*
G02X9455150I-44450J55540D01*
G02X9366250I-44450J55540D01*
G02X9277480Y11269750I-44452J55542D01*
G03X9277560Y11285580I-6327J7947D01*
G02X9361500Y11521840I83940J103219D01*
G01X9561500D01*
G02X9639130Y11280760I0J-133039D01*
G03X9637990Y11265210I5926J-8251D01*
G02X9659000Y11204560I-49489J-51108D01*
G03X9672180Y11193520I10068J-1368D01*
G02X9631680Y11139530I17917J-55625D01*
G03X9617400Y11149090I-10154J279D01*
G37*
G36*
G01X405080Y10660690D02*
G02X331520I-36780J45410D01*
G02X330080Y10750310I-38221J44207D01*
G02X406520I38220J-44210D01*
G02X405080Y10660690I36781J-45413D01*
G37*
G36*
G01X6171780Y10725130D02*
G02X6101500Y10660870I-12279J-57133D01*
G02X6055780Y10710870I12280J57132D01*
G02X6010060Y10760870I12280J57132D01*
G02X6080340Y10825130I12279J57133D01*
G02X6126060Y10775130I-12280J-57132D01*
G02X6171780Y10725130I-12280J-57132D01*
G37*
G36*
G01X8635590Y10522450D02*
G02X8563230Y10525280I-34387J47251D01*
G02X8559670Y10610820I-41530J41116D01*
G02X8639710Y10613650I41524J-41121D01*
G02X8635590Y10522450I34392J-47247D01*
G37*
G36*
G01X374020Y10448130D02*
G02X451080Y10494570I19276J55169D01*
G02X374020Y10448130I-19276J-55169D01*
G37*
G36*
G01X9112820Y10492310D02*
G03Y10475390I5625J-8460D01*
G02X9048180I-32320J-48690D01*
G03Y10492310I-5625J8460D01*
G02Y10589690I32320J48690D01*
G03Y10606610I-5625J8460D01*
G02X9112820I32320J48690D01*
G03Y10589690I5625J-8460D01*
G02Y10492310I-32320J-48690D01*
G37*
G36*
G01X9398000Y10102990D02*
G02X9328150Y10098240I-38100J44311D01*
G02X9247340Y10179050I-31750J49060D01*
G02Y10242550I49060J31750D01*
G02X9328150Y10323360I49060J31750D01*
G02X9398000Y10318610I31750J-49061D01*
G02X9467850Y10323360I38100J-44311D01*
G02X9548660Y10242550I31750J-49060D01*
G02Y10179050I-49060J-31750D01*
G02X9467850Y10098240I-49060J-31750D01*
G02X9398000Y10102990I-31750J49061D01*
G37*
G36*
G01X491660Y10175500D02*
G03Y10182610I-3627J3555D01*
G02X575150I41745J40899D01*
G03Y10175500I3627J-3555D01*
G02X491660I-41745J-40899D01*
G37*
G36*
G01X4629010Y10045700D02*
G02Y9969500I-44310J-38100D01*
G02X4540390I-44310J-38100D01*
G02Y10045700I44310J38100D01*
G02X4629010I44310J38100D01*
G37*
G36*
G01X4133710D02*
G02Y9969500I-44310J-38100D01*
G02X4045090I-44310J-38100D01*
G02Y10045700I44310J38100D01*
G02X4133710I44310J38100D01*
G37*
G36*
G01X2926080Y9963010D02*
G02Y9874390I38100J-44310D01*
G02Y9963010I-38100J44310D01*
G37*
G36*
G01X6737490Y9804400D02*
G02X6826110I44310J38100D01*
G02X6737490I-44310J-38100D01*
G37*
G36*
G01X5084510Y9885600D02*
G02Y9805600I-42610J-40000D01*
G02X4999290I-42610J-40000D01*
G02Y9885600I42610J40000D01*
G02Y9965600I42610J40000D01*
G02Y10045600I42610J40000D01*
G02X5084510I42610J40000D01*
G02Y9965600I-42610J-40000D01*
G02Y9885600I-42610J-40000D01*
G37*
G36*
G01X345340Y9751090D02*
G03X345800Y9757740I-3595J3590D01*
G02X433760Y9751710I46604J35260D01*
G03X433300Y9745060I3595J-3590D01*
G02X345340Y9751090I-46604J-35260D01*
G37*
G36*
G01X5695510Y9804050D02*
G02X5694110Y9725600I-44009J-38452D01*
G02X5608890I-42610J-40000D01*
G02X5607490Y9804050I42609J39998D01*
G02X5695510I44010J38450D01*
G37*
G36*
G01X4194650Y9407900D02*
G03Y9400800I3626J-3550D01*
G02X4111150I-41750J-40900D01*
G03Y9407900I-3626J3550D01*
G02X4108590Y9486900I41749J40894D01*
G02Y9563100I44310J38100D01*
G02X4109220Y9640030I44310J38105D01*
G03Y9646770I-3796J3370D01*
G02X4110630Y9725950I43680J38825D01*
G02X4195170I42270J40350D01*
G02X4196580Y9646770I-42270J-40355D01*
G03Y9640030I3796J-3370D01*
G02X4197210Y9563100I-43680J-38825D01*
G02Y9486900I-44310J-38100D01*
G02X4194650Y9407900I-44309J-38106D01*
G37*
G36*
G01X4585710Y9308790D02*
G03X4578180Y9296660I2378J-9879D01*
G02X4507490Y9340510I-56984J-12959D01*
G03X4515020Y9352640I-2378J9879D01*
G02X4529390Y9405600I56982J12968D01*
G02Y9485600I42610J40000D01*
G02Y9565600I42610J40000D01*
G02X4531770Y9647990I42609J39999D01*
G02X4616730Y9643210I44730J37610D01*
G02X4614610Y9565600I-44729J-37612D01*
G02Y9485600I-42610J-40000D01*
G02Y9405600I-42610J-40000D01*
G02X4585710Y9308790I-42608J-39999D01*
G37*
G36*
G01X9023490Y9136380D02*
G02X9112110I44310J38100D01*
G02X9023490I-44310J-38100D01*
G37*
G36*
G01X7635240Y8985110D02*
G02Y8896490I38100J-44310D01*
G02Y8985110I-38100J44310D01*
G37*
G36*
G01X1688400Y8997680D02*
G03X1696050Y9009450I-2334J9888D01*
G02X1769080Y8925990I107348J20251D01*
G03X1756400Y8919970I-3189J-9646D01*
G02X1688400Y8997680I-54601J20828D01*
G37*
G36*
G01X4614610Y9005600D02*
G02Y8925600I-42610J-40000D01*
G02X4529390I-42610J-40000D01*
G02Y9005600I42610J40000D01*
G02Y9085600I42610J40000D01*
G02X4614610I42610J40000D01*
G02Y9005600I-42610J-40000D01*
G37*
G36*
G01X9023490Y8877300D02*
G02X9112110I44310J38100D01*
G02X9023490I-44310J-38100D01*
G37*
G36*
G01X5507030Y8707540D02*
G02X5454580Y8661570I-57133J12280D01*
G02X5392820Y8732350I-57080J12529D01*
G02X5442770Y8777820I57079J-12532D01*
G02X5492770Y8823540I57132J-12280D01*
G02X5557030Y8753260I57133J-12279D01*
G02X5507030Y8707540I-57132J12280D01*
G37*
G36*
G01X4235590Y8686800D02*
G02X4324210I44310J38100D01*
G02X4235590I-44310J-38100D01*
G37*
G36*
G01X6049710Y8685600D02*
G02Y8605600I-42610J-40000D01*
G02X5964490I-42610J-40000D01*
G02Y8685600I42610J40000D01*
G02X6049710I42610J40000D01*
G37*
G36*
G01X4957510Y8525600D02*
G02X4958330Y8446500I-42610J-39996D01*
G02X4871470I-43430J-39100D01*
G02X4872290Y8525600I43430J39104D01*
G02X4873800Y8607150I42608J40000D01*
G02X4870590Y8686800I41100J41546D01*
G02X4872630Y8765250I44311J38099D01*
G02X4957170I42270J40350D01*
G02X4959210Y8686800I-42271J-40351D01*
G02X4956000Y8607150I-44310J-38104D01*
G02X4957510Y8525600I-41098J-41550D01*
G37*
G36*
G01X4159390Y8298180D02*
G02X4248010I44310J38100D01*
G02X4159390I-44310J-38100D01*
G37*
G36*
G01X3321190D02*
G02X3409810I44310J38100D01*
G02X3321190I-44310J-38100D01*
G37*
G36*
G01X8737300Y7961210D02*
G03X8730670Y7959190I-2233J-4561D01*
G02Y8068210I-94670J54510D01*
G03X8737300Y8066190I4397J2541D01*
G02X8788700I25700J-52490D01*
G03X8795330Y8068210I2233J4561D01*
G02Y7959190I94670J-54510D01*
G03X8788700Y7961210I-4397J-2541D01*
G02X8737300I-25700J52490D01*
G37*
G36*
G01X3829860Y7904590D02*
G02X3767940Y7970410I-57958J7511D01*
G02X3829860Y7904590I57958J-7511D01*
G37*
G36*
G01X3393500Y7854760D02*
G02X3297380Y7803040I-38159J-44261D01*
G02X3262730Y7904580I4619J58258D01*
G03Y7919620I-6831J7520D01*
G02X3360000Y7970100I39273J43279D01*
G02X3393130Y7869800I-7196J-57999D01*
G03X3393500Y7854760I7010J-7352D01*
G37*
G36*
G01X5337430Y7754730D02*
G02X5279770Y7835790I-53830J22747D01*
G02X5329770Y7871350I53827J-22753D01*
G02X5415180Y7897770I53829J-22751D01*
G03X5430400Y7903420I5484J8552D01*
G02X5500970Y7830100I55999J-16723D01*
G03X5493440Y7818820I2527J-9840D01*
G02X5391180Y7772520I-57844J-8321D01*
G03X5376070Y7772900I-7726J-6598D01*
G02X5337430Y7754730I-42468J40142D01*
G37*
G36*
G01X216180Y7908720D02*
G03Y7890080I4050J-9320D01*
G02X282780Y7823480I-51080J-117680D01*
G03X301420I9320J4050D01*
G02Y7721320I117680J-51080D01*
G03X282780I-9320J-4050D01*
G02X114020Y7890080I-117680J51080D01*
G03Y7908720I-4050J9320D01*
G02X216180I51080J117680D01*
G37*
G36*
G01X9239110Y7627620D02*
G02X9241180Y7553960I-44310J-38104D01*
G02X9148420I-46380J-35560D01*
G02X9150490Y7627620I46380J35556D01*
G02X9152220Y7705750I44310J38103D01*
G03Y7719670I-7399J6960D01*
G02X9237380I42580J40030D01*
G03Y7705750I7399J-6960D01*
G02X9239110Y7627620I-42580J-40027D01*
G37*
G36*
G01X9696590Y7480300D02*
G02X9785210I44310J38100D01*
G02X9696590I-44310J-38100D01*
G37*
G36*
G01X9614980Y7398840D02*
G03X9614040Y7384730I6808J-7540D01*
G02X9530270Y7390310I-44587J-37780D01*
G03X9531210Y7404420I-6808J7540D01*
G02X9531490Y7480300I44590J37776D01*
G02X9620110I44310J38100D01*
G02X9614980Y7398840I-44311J-38101D01*
G37*
G36*
G01X4998620Y7290970D02*
G02X5049100Y7193700I43279J-39273D01*
G02X4933100I-58000J7200D01*
G02X4983580Y7290970I7201J57997D01*
G03X4998620I7520J6831D01*
G37*
G36*
G01X282780Y7315480D02*
G03X301420I9320J4050D01*
G02Y7213320I117680J-51080D01*
G03X282780I-9320J-4050D01*
G02Y7315480I-117680J51080D01*
G37*
G36*
G01X6190260Y7151450D02*
G02X6281140I45440J36750D01*
G02X6190260I-45440J-36750D01*
G37*
G36*
G01X4934770Y7106680D02*
G02X4882330Y7041120I5532J-58178D01*
G02X4818800Y7092100I-5533J58180D01*
G02X4782720Y7110830I7206J57996D01*
G03X4767680I-7520J-6831D01*
G02Y7189370I-43280J39270D01*
G03X4782720I7520J6831D01*
G02X4884000Y7157300I43283J-39269D01*
G02X4934770Y7106680I-7204J-57995D01*
G37*
G36*
G01X6197250Y6890190D02*
G03X6182200Y6888310I-6687J-7649D01*
G02X6172550Y6965510I-48100J33191D01*
G03X6187600Y6967390I6687J7649D01*
G02X6197250Y6890190I48100J-33191D01*
G37*
G36*
G01X1739960Y6832630D02*
G03X1741300Y6839480I-2954J4134D01*
G02Y6901920I49400J31220D01*
G03X1739960Y6908770I-4294J2716D01*
G02X1847980Y6897970I63441J88930D01*
G03X1845300Y6891520I2069J-4641D01*
G02Y6849880I-54600J-20820D01*
G03X1847980Y6843430I4749J-1809D01*
G02X1739960Y6832630I-44579J-99730D01*
G37*
G36*
G01X7550010Y6743700D02*
G02X7554760Y6673850I-44311J-38100D01*
G02X7456640I-49060J-31750D01*
G02X7451290Y6726920I49061J31750D01*
G03X7438120Y6740090I-9461J3709D01*
G02X7463540Y6829580I-21320J54411D01*
G03X7470650Y6828560I4065J3047D01*
G02X7550010Y6743700I35045J-46764D01*
G37*
G36*
G01X1695860Y6254870D02*
G03X1684450Y6266720I-10004J1785D01*
G02X1733540Y6336850I-8050J57881D01*
G03X1748580Y6330190I9935J2124D01*
G02X1695860Y6254870I54824J-94485D01*
G37*
G36*
G01X4941610Y6127010D02*
G02X4875590Y6191990I-58009J7091D01*
G02X4941610Y6127010I58009J-7091D01*
G37*
G36*
G01X1441590Y6108700D02*
G02X1530210I44310J38100D01*
G02X1441590I-44310J-38100D01*
G37*
G36*
G01X3891700Y6071830D02*
G02X3961980Y6007570I58001J-7127D01*
G02X3891700Y6071830I-58001J7127D01*
G37*
G36*
G01X3448620Y5933010D02*
G03Y5916090I5625J-8460D01*
G02X3383980I-32320J-48690D01*
G03Y5933010I-5625J8460D01*
G02X3448620I32320J48690D01*
G37*
G36*
G01X4775590Y5899890D02*
G02X4841610Y5834910I58009J-7091D01*
G02X4775590Y5899890I-58009J7091D01*
G37*
G36*
G01X9326480Y5783560D02*
G03X9316380Y5772270I-3J-10160D01*
G02X9264770Y5823880I-58080J-6470D01*
G03X9276060Y5833980I1130J10097D01*
G01Y6002040D01*
X9494540D01*
Y5783560D01*
X9326480D01*
G37*
G36*
G01X301420Y6006820D02*
G03X282780I-9320J-4050D01*
G02X114020Y6175580I-117680J51080D01*
G03Y6194220I-4050J9320D01*
G02Y6429580I51080J117680D01*
G03Y6448220I-4050J9320D01*
G02X282780Y6616980I51080J117680D01*
G03X301420I9320J4050D01*
G02X470180Y6448220I117680J-51080D01*
G03Y6429580I4050J-9320D01*
G02Y6194220I-51080J-117680D01*
G03Y6175580I4050J-9320D01*
G02Y5940220I-51080J-117680D01*
G03Y5921580I4050J-9320D01*
G02X368020I-51080J-117680D01*
G03Y5940220I-4050J9320D01*
G02X301420Y6006820I51080J117680D01*
G37*
G36*
G01X4490730Y5651920D02*
G02X4375670Y5656520I-57131J12288D01*
G02X4337170Y5753120I5532J58177D01*
G02X4425530Y5752780I44327J38081D01*
G02X4429910Y5746980I-44354J-38049D01*
G03X4438100Y5746600I4234J2807D01*
G02X4476470Y5767920I45492J-36685D01*
G02X4526470Y5813640I57132J-12280D01*
G02X4575520Y5859240I57135J-12277D01*
G02X4641680Y5794920I58083J-6442D01*
G02X4590730Y5743360I-58081J6441D01*
G02X4540730Y5697640I-57132J12280D01*
G02X4490730Y5651920I-57132J12280D01*
G37*
G36*
G01X6297460Y5708650D02*
G02Y5645150I-49060J-31750D01*
G02X6199340I-49060J-31750D01*
G02Y5708650I49060J31750D01*
G02Y5772150I49060J31750D01*
G02Y5835650I49060J31750D01*
G02Y5899150I49060J31750D01*
G02Y5962650I49060J31750D01*
G02X6297460I49060J31750D01*
G02Y5899150I-49060J-31750D01*
G02Y5835650I-49060J-31750D01*
G02Y5772150I-49060J-31750D01*
G02Y5708650I-49060J-31750D01*
G37*
G36*
G01X5190730Y5646840D02*
G02X5140730Y5601120I-57132J12280D01*
G02X5076470Y5671400I-57133J12279D01*
G02X5126470Y5717120I57132J-12280D01*
G02X5190730Y5646840I57133J-12279D01*
G37*
G36*
G01X3937000Y5606910D02*
G02Y5518290I38100J-44310D01*
G02Y5606910I-38100J44310D01*
G37*
G36*
G01X5918200D02*
G02X5994950Y5606430I38099J-44311D01*
G02X6065350Y5611660I38650J-43831D01*
G02Y5513540I31750J-49060D01*
G02X5994950Y5518770I-31750J49061D01*
G02X5918200Y5518290I-38651J43831D01*
G02X5841190Y5519000I-38100J44311D01*
G03X5826890Y5518250I-6772J-7577D01*
G02X5822510Y5601100I-43292J39252D01*
G03X5836810Y5601850I6772J7577D01*
G02X5918200Y5606910I43293J-39252D01*
G37*
G36*
G01X9912350Y5560860D02*
G02Y5462740I31750J-49060D01*
G02Y5560860I-31750J49060D01*
G37*
G36*
G01X3251350Y5445080D02*
G03X3258880Y5430030I8860J-4976D01*
G02X3200250Y5400720I-7680J-57931D01*
G03X3192720Y5415770I-8860J4976D01*
G02X3251350Y5445080I7680J57931D01*
G37*
G36*
G01X3131880Y5263370D02*
G03X3124350Y5248320I1330J-10074D01*
G02X3065720Y5277630I-50950J-28621D01*
G03X3073250Y5292680I-1330J10074D01*
G02X3131880Y5263370I50950J28621D01*
G37*
G36*
G01X9000350Y5166420D02*
G03X8984270Y5164500I-7312J-7053D01*
G02X8992100Y5258540I-94270J55195D01*
G03X9007640Y5253980I9498J3608D01*
G02X9000350Y5166420I34761J-46978D01*
G37*
G36*
G01X6181870Y5127380D02*
G03X6174730I-3570J-3610D01*
G02Y5210420I-41130J41520D01*
G03X6181870I3570J3610D01*
G02Y5127380I41130J-41520D01*
G37*
G36*
G01X5481790Y5047770D02*
G03X5474260Y5060930I-9634J3222D01*
G02X5428470Y5110420I12144J57165D01*
G03X5413420Y5117950I-10074J-1330D01*
G02X5339720Y5131710I-28622J50951D01*
G03X5324730Y5132470I-7842J-6461D01*
G02X5226470Y5161700I-41129J41513D01*
G02X5276190Y5259710I7126J58001D01*
G03X5291010I7410J6957D01*
G02X5376190I42590J-40010D01*
G03X5391010I7410J6957D01*
G02X5491650Y5226450I42593J-40012D01*
G03X5506990Y5218930I10090J1176D01*
G02X5544400Y5110900I30204J-50033D01*
G02X5541810Y5099530I-57993J7230D01*
G03X5549340Y5086370I9634J-3222D01*
G02X5481790Y5047770I-12137J-57167D01*
G37*
G36*
G01X9013990Y4965430D02*
G03X8998920Y4957330I-4941J-8877D01*
G02X8972110Y5037750I-108919J8368D01*
G03X8989030Y5040310I7640J6697D01*
G02X9013990Y4965430I53370J-23810D01*
G37*
G36*
G01X2459190Y4790020D02*
G02X2394530I-32330J48680D01*
G02Y4887380I-32330J48680D01*
G02X2459190I32330J-48680D01*
G02Y4790020I32330J-48680D01*
G37*
G36*
G01X4561410Y4577780D02*
G03X4544490I-8460J-5625D01*
G02Y4642420I-48690J32320D01*
G03X4561410I8460J5625D01*
G02Y4577780I48690J-32320D01*
G37*
G36*
G01X1521020Y4624910D02*
G03X1513010Y4610360I1118J-10095D01*
G02X1454080Y4642790I-52509J-25659D01*
G03X1462090Y4657340I-1118J10095D01*
G02X1521020Y4624910I52509J25659D01*
G37*
G36*
G01X7401370Y4661700D02*
G02X7410310Y4577080I-35371J-46519D01*
G02X7321690I-44310J-38100D01*
G02X7330630Y4661700I44311J38101D01*
G03Y4677880I-6147J8090D01*
G02X7401370I35370J46520D01*
G03Y4661700I6147J-8090D01*
G37*
G36*
G01X6061880Y4448350D02*
G03X6046830Y4444590I-5935J-8245D01*
G02X6028520Y4517850I-52430J25814D01*
G03X6043570Y4521610I5935J8245D01*
G02X6061880Y4448350I52430J-25814D01*
G37*
G36*
G01X3871760Y4260850D02*
G02Y4197350I-49060J-31750D01*
G02X3773640I-49060J-31750D01*
G02Y4260850I49060J31750D01*
G02X3871760I49060J31750D01*
G37*
G36*
G01X2526310Y4401840D02*
X2583160Y4458690D01*
Y10681690D01*
X2983510Y11082040D01*
X3244390D01*
G03X3250370Y11100410I-4J10160D01*
G02X3379030I64330J88290D01*
G03X3385010Y11082040I5984J-8210D01*
G01X3498390D01*
G03X3504370Y11100410I-4J10160D01*
G02X3633030I64330J88290D01*
G03X3639010Y11082040I5984J-8210D01*
G01X3752390D01*
G03X3758370Y11100410I-4J10160D01*
G02X3910990Y11253030I64330J88290D01*
G03X3929360Y11259010I8210J5984D01*
G01Y11265890D01*
X3999510Y11336040D01*
X4006390D01*
G03X4012370Y11354410I-4J10160D01*
G02X4126810Y11345630I64331J88290D01*
G01X4124070Y11344210D01*
Y11336040D01*
X4141190D01*
X4224040Y11253190D01*
Y11236070D01*
X4232210D01*
X4233630Y11238810D01*
G02X4395030Y11100410I97069J-50111D01*
G03X4401010Y11082040I5984J-8210D01*
G01X4768390D01*
G03X4774370Y11100410I-4J10160D01*
G02X4903030I64330J88290D01*
G03X4909010Y11082040I5984J-8210D01*
G01X5022390D01*
G03X5028370Y11100410I-4J10160D01*
G02X5157030I64330J88290D01*
G03X5163010Y11082040I5984J-8210D01*
G01X5276390D01*
G03X5282370Y11100410I-4J10160D01*
G02X5411030I64330J88290D01*
G03X5417010Y11082040I5984J-8210D01*
G01X5530390D01*
G03X5536370Y11100410I-4J10160D01*
G02X5665030I64330J88290D01*
G03X5671010Y11082040I5984J-8210D01*
G01X5784390D01*
G03X5790370Y11100410I-4J10160D01*
G02X5919030I64330J88290D01*
G03X5925010Y11082040I5984J-8210D01*
G01X6038390D01*
G03X6044370Y11100410I-4J10160D01*
G02X6173030I64330J88290D01*
G03X6179010Y11082040I5984J-8210D01*
G01X6292390D01*
G03X6298370Y11100410I-4J10160D01*
G02X6427030I64330J88290D01*
G03X6433010Y11082040I5984J-8210D01*
G01X6546390D01*
G03X6552370Y11100410I-4J10160D01*
G02X6681030I64330J88290D01*
G03X6687010Y11082040I5984J-8210D01*
G01X6800390D01*
G03X6806370Y11100410I-4J10160D01*
G02X6935030I64330J88290D01*
G03X6941010Y11082040I5984J-8210D01*
G01X7054390D01*
G03X7060370Y11100410I-4J10160D01*
G02X7189030I64330J88290D01*
G03X7195010Y11082040I5984J-8210D01*
G01X7308390D01*
G03X7314370Y11100410I-4J10160D01*
G02X7443030I64330J88290D01*
G03X7449010Y11082040I5984J-8210D01*
G01X7669810D01*
X7847610Y11259840D01*
X8370290D01*
X8440440Y11189690D01*
Y10959110D01*
X8395690Y10914360D01*
X4891530D01*
G03X4881820Y10901190I-5J-10161D01*
G02X4770180I-55820J-17290D01*
G03X4760470Y10914360I-9705J3009D01*
G01X4408930D01*
G03X4399220Y10901190I-5J-10161D01*
G02X4287580I-55820J-17290D01*
G03X4277870Y10914360I-9705J3009D01*
G01X4231130D01*
G03X4221420Y10901190I-5J-10161D01*
G02X4109780I-55820J-17290D01*
G03X4100070Y10914360I-9705J3009D01*
G01X3099790D01*
X2801640Y10616210D01*
Y4253510D01*
X2566390Y4018260D01*
X2551660D01*
G03X2542750Y4003210I-2J-10161D01*
G02X2459190Y3926420I-51234J-28107D01*
G02X2394530I-32330J48680D01*
G02X2310970Y4003210I-32326J48683D01*
G03X2302060Y4018260I-8908J4889D01*
G01X1419040D01*
G03X1410130Y4003210I-2J-10161D01*
G02X1324520Y4022350I-51230J-28113D01*
G03X1325720Y4037750I-5982J8213D01*
G01X1287760Y4075710D01*
Y4344390D01*
X1345210Y4401840D01*
X1693090D01*
G03X1702480Y4415890I4J10160D01*
G02X1904320I100920J41810D01*
G03X1913710Y4401840I9386J-3890D01*
G01X1947090D01*
G03X1956480Y4415890I4J10160D01*
G02X2158320I100920J41810D01*
G03X2167710Y4401840I9386J-3890D01*
G01X2526310D01*
G37*
G36*
G01X5593530Y3969780D02*
G02X5645970Y3904220I57972J-7382D01*
G02X5593530Y3969780I-57972J7382D01*
G37*
G36*
G01X4281640Y3905250D02*
G02X4379760I49060J31750D01*
G02X4281640I-49060J-31750D01*
G37*
G36*
G01X3778050Y3784200D02*
G02X3867350I44650J37700D01*
G02X3778050I-44650J-37700D01*
G37*
G36*
G01X8840610Y3421380D02*
G02X8929230I44310J38100D01*
G02X8840610I-44310J-38100D01*
G37*
G36*
G01X7387750Y3477000D02*
G02X7380440Y3549650I41750J40894D01*
G02X7414250Y3637820I49061J31754D01*
G03X7420520Y3652500I-2645J9809D01*
G02X7501110Y3578620I148686J81295D01*
G03X7487030Y3571110I-4081J-9302D01*
G02X7478560Y3549650I-57525J10303D01*
G02X7471250Y3477000I-49060J-31756D01*
G03Y3469900I3626J-3550D01*
G02X7473810Y3390900I-41749J-40894D01*
G02X7385190I-44310J-38100D01*
G02X7387750Y3469900I44309J38106D01*
G03Y3477000I-3626J3550D01*
G37*
G36*
G01X3877710Y3283620D02*
G02X3831190Y3206080I8491J-57819D01*
G02X3877710Y3283620I-8491J57819D01*
G37*
G36*
G01X4490270Y3015220D02*
G02X4426770Y2964420I-57972J7378D01*
G02X4374330Y3029980I-57972J7382D01*
G02X4437830Y3080780I57972J-7378D01*
G02X4490270Y3015220I57972J-7382D01*
G37*
G36*
G01X7532580Y3005000D02*
G03X7531700Y2990960I6876J-7479D01*
G02X7447520Y2996200I-44604J-37760D01*
G03X7448400Y3010240I-6876J7479D01*
G02X7532580Y3005000I44604J37760D01*
G37*
G36*
G01X3256400Y3077440D02*
G02X3334900Y3018560I58301J-4041D01*
G02X3326310Y2991880I-58298J4047D01*
G03X3331960Y2976830I8646J-5340D01*
G02X3258100Y2906430I-17264J-55833D01*
G03X3246820Y2913960I-9840J-2527D01*
G02X3218300Y3026640I-8317J57844D01*
G02X3256400Y3077440I58301J-4038D01*
G37*
G36*
G01X8845690Y2819400D02*
G02X8934310I44310J38100D01*
G02X8845690I-44310J-38100D01*
G37*
G36*
G01X2990990Y2796540D02*
G02X3079610I44310J38100D01*
G02X2990990I-44310J-38100D01*
G37*
G36*
G01X4939230Y2862800D02*
G03X4952390Y2859040I8642J5336D01*
G02X4981190Y2865070I25991J-52344D01*
G02X5033210Y2786430I54811J-20268D01*
G02X4959830Y2751290I-54811J20270D01*
G03X4946670Y2743760I-3222J-9634D01*
G02X4845190Y2794000I-57166J12140D01*
G02X4847750Y2873000I44309J38106D01*
G03Y2880100I-3626J3550D01*
G02X4931250I41750J40900D01*
G03Y2873000I3626J-3550D01*
G02X4939230Y2862800I-41756J-40890D01*
G37*
G36*
G01X7286620Y2604100D02*
G03X7267580I-9520J-3541D01*
G02X7176100Y2695580I-66680J24800D01*
G03Y2714620I-3541J9520D01*
G02X7267580Y2806100I24800J66680D01*
G03X7286620I9520J3541D01*
G02X7378100Y2714620I66680J-24800D01*
G03Y2695580I3541J-9520D01*
G02X7286620Y2604100I-24800J-66680D01*
G37*
G36*
G01X7677870Y2544570D02*
G03X7691920Y2533810I10061J-1416D01*
G02X7621340Y2478350I67785J-158906D01*
G03X7614210Y2494550I-8135J6089D01*
G02X7677870Y2544570I5790J58151D01*
G37*
G36*
G01X7445850Y2295900D02*
G03Y2288800I3626J-3550D01*
G02X7362350I-41750J-40900D01*
G03Y2295900I-3626J3550D01*
G02X7360820Y2297530I41839J40805D01*
G03X7345780I-7520J-6831D01*
G02X7259220I-43280J39270D01*
G03X7244180I-7520J-6831D01*
G02Y2376070I-43280J39270D01*
G03X7259220I7520J6831D01*
G02X7345780I43280J-39270D01*
G03X7360820I7520J6831D01*
G02X7445850Y2295900I43282J-39272D01*
G37*
G36*
G01X3219590Y2006600D02*
G02X3308210I44310J38100D01*
G02X3219590I-44310J-38100D01*
G37*
G36*
G01X8197990Y1658620D02*
G02X8286610I44310J38100D01*
G02X8197990I-44310J-38100D01*
G37*
G36*
G01X4597400Y1504810D02*
G02Y1416190I38100J-44310D01*
G02Y1504810I-38100J44310D01*
G37*
G36*
G01X9445410Y1204260D02*
G02X9353550Y1201760I-47408J53041D01*
G02X9256060Y1304710I-44447J55545D01*
G03Y1311490I-3783J3390D01*
G02Y1406310I53040J47410D01*
G03Y1413090I-3783J3390D01*
G02X9353550Y1516040I53043J47405D01*
G02X9445410Y1513540I44452J-55541D01*
G03X9452190I3390J3783D01*
G02X9552640Y1413090I47410J-53040D01*
G03Y1406310I3783J-3390D01*
G02Y1311490I-53040J-47410D01*
G03Y1304710I3783J-3390D01*
G02X9452190Y1204260I-53040J-47410D01*
G03X9445410I-3390J-3783D01*
G37*
G36*
G01X4464050Y1119340D02*
G02X4400550I-31750J49060D01*
G02Y1217460I-31750J49060D01*
G02X4464050I31750J-49060D01*
G02Y1119340I31750J-49060D01*
G37*
G36*
G01X9838280Y1209300D02*
G03X9839540Y1195650I8096J-6136D01*
G02X9743860I-47840J-52650D01*
G03X9745120Y1209300I-6836J7514D01*
G02X9749950Y1285500I46578J35301D01*
G03Y1292600I-3626J3550D01*
G02Y1374400I41750J40900D01*
G03Y1381500I-3626J3550D01*
G02X9833450I41750J40900D01*
G03Y1374400I3626J-3550D01*
G02Y1292600I-41750J-40900D01*
G03Y1285500I3626J-3550D01*
G02X9838280Y1209300I-41748J-40899D01*
G37*
G36*
G01X2406540Y939840D02*
G02X2406970Y863060I-43842J-38637D01*
G02X2317930Y863640I-44767J-37562D01*
G02X2318360Y939260I44771J37557D01*
G02X2406540Y939840I43838J38642D01*
G37*
G36*
G01X9107050Y429270D02*
G03X9090550I-8250J-5929D01*
G02Y561330I-91750J66030D01*
G03X9107050I8250J5929D01*
G02Y429270I91750J-66030D01*
G37*
G36*
G01X1355610Y8740900D02*
G02X1311390I-22110J-54100D01*
G03Y8759700I-3845J9400D01*
G02X1355610I22110J54100D01*
G03Y8740900I3845J-9400D01*
G37*
G36*
G01X1139210Y8740400D02*
G02X1094990I-22110J-54100D01*
G03Y8759200I-3845J9400D01*
G02Y8867400I22110J54100D01*
G03Y8886200I-3845J9400D01*
G02Y8994400I22110J54100D01*
G03Y9013200I-3845J9400D01*
G02X1139210I22110J54100D01*
G03Y8994400I3845J-9400D01*
G02Y8886200I-22110J-54100D01*
G03Y8867400I3845J-9400D01*
G02Y8759200I-22110J-54100D01*
G03Y8740400I3845J-9400D01*
G37*
G36*
G01X10004310Y8359900D02*
G02X9960090I-22110J-54100D01*
G03Y8378700I-3845J9400D01*
G02X9949880Y8481490I22109J54098D01*
G03Y8498410I-5625J8460D01*
G02X10014520I32320J48690D01*
G03Y8481490I5625J-8460D01*
G02X10004310Y8378700I-32319J-48692D01*
G03Y8359900I3845J-9400D01*
G37*
G36*
G01X1356110Y8168900D02*
G02X1311890I-22110J-54100D01*
G03Y8187700I-3845J9400D01*
G02Y8295900I22110J54100D01*
G03Y8314700I-3845J9400D01*
G02X1356110I22110J54100D01*
G03Y8295900I3845J-9400D01*
G02Y8187700I-22110J-54100D01*
G03Y8168900I3845J-9400D01*
G37*
G36*
G01X7716530Y6863720D02*
G02X7697040Y6908280I-58432J985D01*
G03X7713970Y6915680I6772J7573D01*
G02X7731250Y6956200I58432J-974D01*
G02X7730650Y7038600I41148J41502D01*
G03Y7045700I-3626J3550D01*
G02X7728090Y7124700I41749J40894D01*
G02X7733130Y7206080I44310J38102D01*
G03Y7221120I-6831J7520D01*
G02X7811670I39270J43280D01*
G03Y7206080I6831J-7520D01*
G02X7816710Y7124700I-39270J-43278D01*
G02X7814150Y7045700I-44309J-38106D01*
G03Y7038600I3626J-3550D01*
G02X7813550Y6956200I-41748J-40898D01*
G02X7733460Y6871120I-41150J-41500D01*
G03X7716530Y6863720I-6772J-7573D01*
G37*
G36*
G01X1317510Y6493000D02*
G02X1273290I-22110J-54100D01*
G03Y6511800I-3845J9400D01*
G02X1317510I22110J54100D01*
G03Y6493000I3845J-9400D01*
G37*
G36*
G01X2165990Y6247580D02*
G02X2145960Y6299650I-108590J-11884D01*
G03X2164310Y6304650I8235J5950D01*
G02X2182970Y6256160I58187J-5444D01*
G03X2165990Y6247580I-6879J-7478D01*
G37*
G36*
G01X5938400Y6053860D02*
G02X5859900Y6112740I-58301J4041D01*
G02X5898060Y6163560I58300J-4040D01*
G02X5936160Y6213560I58238J-4861D01*
G02X5974260Y6263560I58238J-4861D01*
G02X6012360Y6313560I58238J-4861D01*
G02X6050270Y6363490I58238J-4861D01*
G02X6123470Y6419240I58432J-791D01*
G03X6134750Y6434290I2564J9831D01*
G02X6130060Y6444100I50152J30003D01*
G02X6085880Y6535420I4039J58301D01*
G02X6084240Y6598920I48220J33017D01*
G02X6085040Y6661150I49861J30479D01*
G02X6183160I49060J31750D01*
G02X6183960Y6598920I-49061J-31751D01*
G02X6182320Y6535420I-49860J-30483D01*
G02X6188940Y6522600I-48220J-33019D01*
G02X6170130Y6407760I-4035J-58300D01*
G03X6158850Y6392710I-2564J-9831D01*
G02X6129030Y6307910I-50148J-30008D01*
G02X6090740Y6253840I-58433J787D01*
G02X6052640Y6203840I-58238J4861D01*
G02X6014540Y6153840I-58238J4861D01*
G02X5976440Y6103840I-58238J4861D01*
G02X5938400Y6053860I-58239J4860D01*
G37*
G36*
G01X7162800Y5480190D02*
G02Y5568810I-38100J44310D01*
G02X7239000I38100J-44310D01*
G02X7254990Y5578600I38115J-44301D01*
G03Y5597400I-3845J9400D01*
G02X7235350Y5692400I22107J54101D01*
G03Y5699500I-3626J3550D01*
G02X7318850I41750J40900D01*
G03Y5692400I3626J-3550D01*
G02X7299210Y5597400I-41747J-40899D01*
G03Y5578600I3845J-9400D01*
G02X7318000Y5566250I-22105J-54101D01*
G03X7325100I3550J3626D01*
G02X7404100Y5568810I40894J-41749D01*
G02X7449080Y5582530I38099J-44312D01*
G03X7460370Y5593820I1198J10092D01*
G02X7474090Y5638800I58032J6881D01*
G02X7476650Y5717800I44309J38106D01*
G03Y5724900I-3626J3550D01*
G02X7544410Y5818140I41741J40907D01*
G03X7557570Y5821900I4518J9096D01*
G02X7585430Y5845390I49723J-30706D01*
G03X7591070Y5858560I-3802J9421D01*
G02X7594450Y5908720I54329J21533D01*
G03X7586920Y5923770I-8860J4976D01*
G02X7556500Y5937390I7679J57932D01*
G02Y6026010I-38100J44310D01*
G02X7645550Y5953080I38098J-44313D01*
G03X7653080Y5938030I8860J-4976D01*
G02X7667270Y5825910I-7684J-57930D01*
G03X7661630Y5812740I3802J-9421D01*
G02X7581290Y5738860I-54328J-21545D01*
G03X7568130Y5735100I-4518J-9096D01*
G02X7560150Y5724900I-49736J30690D01*
G03Y5717800I3626J-3550D01*
G02X7562710Y5638800I-41749J-40894D01*
G02Y5562600I-44310J-38100D01*
G02X7480300Y5480190I-44310J-38100D01*
G02X7404100I-38100J44310D01*
G02X7325100Y5482750I-38106J44309D01*
G03X7318000I-3550J-3626D01*
G02X7239000Y5480190I-40894J41749D01*
G02X7162800I-38100J44310D01*
G37*
G36*
G01X3017540Y703560D02*
X2633960D01*
Y1099840D01*
X2679400D01*
G03X2687040Y1116690I-4J10159D01*
G02X2788850Y1146940I43957J38510D01*
G03X2806100Y1138320I10060J-1439D01*
G01X3497560Y1829790D01*
Y10300690D01*
X3682010Y10485140D01*
X4392170D01*
G03X4401880Y10498310I5J10161D01*
G02X4513520I55820J17290D01*
G03X4523230Y10485140I9705J-3009D01*
G01X7951190D01*
X8008640Y10427690D01*
Y10200790D01*
G03X8025980Y10193610I10159J5D01*
G01X8317510Y10485140D01*
X8440440D01*
Y10177760D01*
X8357590D01*
X8352470Y10172650D01*
X8357450Y10167670D01*
X8359410Y10167570D01*
G02X8398350Y10068300I-2807J-58374D01*
G03Y10061200I3626J-3550D01*
G02Y9979400I-41750J-40900D01*
G03Y9972300I3626J-3550D01*
G02X8387260Y9881650I-41748J-40896D01*
G03X8392590Y9862840I5330J-8650D01*
G01X8425160D01*
Y9867920D01*
G02X8521700Y9912210I58439J-21D01*
G02X8600700Y9909650I38106J-44309D01*
G03X8607800I3550J3626D01*
G02X8707140Y9867920I40898J-41747D01*
G01Y9862840D01*
X9384310D01*
X9606260Y10084790D01*
Y10262590D01*
X9689110Y10345440D01*
X9932390D01*
X9963420Y10314410D01*
G03X9977960Y10314590I7182J7181D01*
G02X9998190Y10328400I42334J-40292D01*
G03Y10347200I-3845J9400D01*
G02X10042410I22110J54100D01*
G03Y10328400I3845J-9400D01*
G02X10020320Y10215860I-22107J-54099D01*
G03X10015240Y10210780I0J-5080D01*
G01Y9600210D01*
X9792690Y9377660D01*
X8975050D01*
G03X8967810Y9360370I0J-10161D01*
G02X8812190I-77810J-76670D01*
G03X8804950Y9377660I-7240J7129D01*
G01X8721050D01*
G03X8713810Y9360370I0J-10161D01*
G02X8526790Y9281260I-77809J-76673D01*
G03X8509450Y9288220I-10157J-225D01*
G01X8491240Y9270010D01*
Y3842250D01*
G03X8502900Y3832200I10161J0D01*
G02Y3716600I8600J-57800D01*
G03X8491240Y3706550I-1499J-10050D01*
G01Y2972790D01*
X9056090Y2407940D01*
X9136360D01*
Y2611140D01*
X9354840D01*
Y2407940D01*
X9414550D01*
G03X9421790Y2425230I0J10161D01*
G02X9577410I77810J76670D01*
G03X9584650Y2407940I7240J-7129D01*
G01X9668550D01*
G03X9675790Y2425230I0J10161D01*
G02X9831410I77810J76670D01*
G03X9838650Y2407940I7240J-7129D01*
G01X9922550D01*
G03X9929790Y2425230I0J10161D01*
G02X9984310Y2395170I77817J76666D01*
G03X9974970Y2378060I-2158J-9926D01*
G01X10205740Y2147290D01*
Y1816460D01*
G03X10222670Y1808880I10161J-2D01*
G02Y1721720I38930J-43580D01*
G03X10205740Y1714140I-6769J-7578D01*
G01Y1664690D01*
X10212550Y1657880D01*
X10216200Y1661530D01*
X10216250Y1661580D01*
G02X10242070Y1595040I28842J-27088D01*
G03X10231140Y1584900I-769J-10132D01*
G01Y1284030D01*
G03X10242070Y1273890I10161J-8D01*
G02X10268210Y1202330I3016J-39453D01*
G03X10270410Y1184640I5939J-8243D01*
G02X10201650Y1095920I-21506J-54338D01*
G03X10186390Y1097260I-8214J-5982D01*
G01X9981210D01*
X9911060Y1167410D01*
Y1421410D01*
X9775830Y1556640D01*
X9774620Y1557010D01*
G02X9735810Y1595820I17080J55890D01*
G01X9735440Y1597030D01*
X9727210Y1605260D01*
X9710440D01*
Y1600180D01*
G02X9593560I-58440J20D01*
G01Y1605260D01*
X8431810D01*
X7967960Y2069110D01*
Y2619560D01*
G03X7952910Y2628470I-10161J2D01*
G02Y2730930I-28110J51230D01*
G03X7967960Y2739840I4889J8908D01*
G01Y9614890D01*
X8215910Y9862840D01*
X8320610D01*
G03X8325940Y9881650I0J10160D01*
G02X8314850Y9972300I30658J49754D01*
G03Y9979400I-3626J3550D01*
G02Y10061200I41750J40900D01*
G03Y10068300I-3626J3550D01*
G02X8299380Y10097310I41751J40894D01*
G03X8282250Y10102430I-9948J-2067D01*
G01X6878340Y8698510D01*
Y7710930D01*
G03X6891510Y7701220I10161J-5D01*
G02Y7589580I17290J-55820D01*
G03X6878340Y7579870I-3009J-9705D01*
G01Y6678090D01*
G03X6897150Y6672760I10160J0D01*
G02X6985000Y6686410I49750J-30661D01*
G02X7078820Y6659720I38101J-44311D01*
G02X7005480Y6586380I-17620J-55720D01*
G02X6985000Y6597790I17624J55718D01*
G02X6980090Y6594000I-38113J44300D01*
G03X6978210Y6578950I5769J-8363D01*
G02X6896100Y6496190I-44012J-38446D01*
G02X6878340Y6485710I-38114J44301D01*
G01Y5940240D01*
G03X6893390Y5931330I10161J-2D01*
G02X6971110Y5849210I28110J-51234D01*
G02X6983930Y5834600I-36906J-45314D01*
G03X6997090Y5830840I8642J5336D01*
G02X7072160Y5746750I26009J-52335D01*
G02X7067410Y5676900I-49061J-31750D01*
G02X6978790I-44310J-38100D01*
G02X6974040Y5746750I44311J38100D01*
G02X6971190Y5751650I49032J31798D01*
G03X6964080Y5753680I-4511J-2335D01*
G02X6895270Y5760320I-29879J50221D01*
G03X6878340Y5752740I-6769J-7578D01*
G01Y3773930D01*
G03X6891510Y3764220I10161J-5D01*
G02X6939690Y3758010I17295J-55821D01*
G02X7023100Y3765410I45308J-36910D01*
G02X7099300I38100J-44310D01*
G02X7178300Y3762850I38106J-44309D01*
G03X7185400I3550J3626D01*
G02X7267200I40900J-41750D01*
G03X7274300I3550J3626D01*
G02Y3679350I40900J-41750D01*
G03X7267200I-3550J-3626D01*
G02X7185400I-40900J41750D01*
G03X7178300I-3550J-3626D01*
G02X7099300Y3676790I-40894J41749D01*
G02X7023100I-38100J44310D01*
G02X6999570Y3664500I-38114J44303D01*
G03X6992040Y3653220I2527J-9840D01*
G02X6983260Y3613150I-57842J-8323D01*
G02Y3549650I-49060J-31750D01*
G02X6978510Y3479800I-49061J-31750D01*
G02X6983260Y3409950I-44311J-38100D01*
G02X6895270Y3334620I-49065J-31743D01*
G03X6878340Y3327040I-6769J-7578D01*
G01Y3227830D01*
G03X6891510Y3218120I10161J-5D01*
G02X6950090Y3203660I17296J-55822D01*
G02X7016610Y3111500I22209J-54056D01*
G02X7011570Y3030120I-44310J-38102D01*
G03Y3015080I6831J-7520D01*
G02X6933030I-39270J-43280D01*
G03Y3030120I-6831J7520D01*
G02X6916490Y3090720I39272J43276D01*
G03X6907080Y3103890I-9706J3012D01*
G02X6891510Y3106480I1716J58412D01*
G03X6878340Y3096770I-3009J-9705D01*
G01Y1935080D01*
G03X6889630Y1924980I10160J-3D01*
G02Y1808820I6470J-58080D01*
G03X6878340Y1798720I-1130J-10097D01*
G01Y1613890D01*
X7468590Y1023640D01*
X8720220D01*
G03X8730320Y1034930I3J10160D01*
G02X8734550Y1064090I58080J6462D01*
G03X8721920Y1077660I-9363J3948D01*
G02X8774390Y1115820I-35119J103441D01*
G03X8783400Y1099630I8146J-6069D01*
G02X8846480Y1034930I4998J-58227D01*
G03X8856580Y1023640I10097J-1130D01*
G01X9678390D01*
X9799340Y902690D01*
Y799110D01*
X9754590Y754360D01*
X7174510D01*
X6520160Y1408710D01*
Y2278710D01*
X6516100Y2279540D01*
G02Y2394060I11700J57260D01*
G01X6520160Y2394890D01*
Y2405710D01*
X6516100Y2406540D01*
G02Y2521060I11700J57260D01*
G01X6520160Y2521890D01*
Y8687790D01*
X7916590Y10084220D01*
G03X7909410Y10101560I-7185J7181D01*
G01X7860310D01*
X7832030Y10129850D01*
G03X7824970Y10129970I-3592J-3593D01*
G02X7727890Y10160760I-39871J42729D01*
G03X7711340Y10166400I-9944J-2077D01*
G02X7635240Y10166490I-37998J44400D01*
G02X7541690Y10229260I-38102J44311D01*
G03X7530030Y10242430I-9638J3214D01*
G02X7467170Y10327810I-11627J57270D01*
G03X7458260Y10342860I-8908J4889D01*
G01X3772890D01*
X3652540Y10222510D01*
Y10119790D01*
G03X3671350Y10114460I10160J0D01*
G02X3765410Y10045700I49754J-30654D01*
G02Y9969500I-44310J-38100D01*
G02X3671350Y9900740I-44306J-38106D01*
G03X3652540Y9895410I-8650J-5330D01*
G01Y9560990D01*
G03X3671350Y9555660I10160J0D01*
G02X3706530Y9581600I49756J-30654D01*
G03X3714060Y9592880I-2527J9840D01*
G02X3786470Y9544600I57845J8316D01*
G03X3778940Y9533320I2527J-9840D01*
G02X3671350Y9494340I-57843J-8316D01*
G03X3652540Y9489010I-8650J-5330D01*
G01Y1764310D01*
X3505180Y1616960D01*
G03X3507550Y1600830I7187J-7183D01*
G02X3428370Y1521650I-27750J-51430D01*
G03X3412240Y1524020I-8947J-4817D01*
G01X3017540Y1129310D01*
Y703560D01*
G37*
G54D37*
X7078980Y107950D03*
G54D38*
X7877810D03*
G54D33*
X1054100Y914400D03*
G54D35*
X5043170Y3493770D03*
G54D47*
X8748800Y495300D03*
G54D41*
X431100Y3903500D03*
Y4303500D03*
Y5154400D03*
Y4754400D03*
G54D45*
X6032500Y7962900D03*
X6286500D03*
G54D50*
X10485100Y5712500D03*
X10210800Y5575300D03*
X10485100Y6261100D03*
Y5986800D03*
X10210800Y6123900D03*
Y5849600D03*
X10485100Y6535400D03*
X10210800Y6398300D03*
Y6672600D03*
Y8902700D03*
X10485100Y9314200D03*
Y9039900D03*
X10210800Y9451300D03*
Y9177000D03*
X10485100Y9862800D03*
Y9588500D03*
X10210800Y10000000D03*
Y9725700D03*
G54D39*
X10096500Y11328400D03*
G54D48*
X9448800Y495300D03*
G54D40*
X292100Y1320800D03*
Y1828800D03*
Y1574800D03*
Y2336800D03*
Y2082800D03*
Y2844800D03*
Y2590800D03*
Y3352800D03*
Y3098800D03*
X546100Y1320800D03*
Y1828800D03*
Y1574800D03*
Y2336800D03*
Y2082800D03*
Y2844800D03*
Y2590800D03*
Y3352800D03*
Y3098800D03*
X1386300Y529400D03*
X1308100Y2438400D03*
X1054100D03*
X1308100Y2692400D03*
X1054100D03*
X1295400Y7251700D03*
X1041400D03*
X1295400Y7505700D03*
X1041400D03*
X1295400Y7759700D03*
X1803400Y914400D03*
Y1168400D03*
Y1422400D03*
Y1676400D03*
Y1930400D03*
Y2184400D03*
Y2438400D03*
Y2692400D03*
Y4711700D03*
Y4965700D03*
Y5219700D03*
Y5473700D03*
Y5727700D03*
Y5981700D03*
Y6489700D03*
Y7251700D03*
Y7505700D03*
Y7759700D03*
Y8013700D03*
Y8267700D03*
Y8521700D03*
Y8775700D03*
Y9283700D03*
X2478500Y529400D03*
X2086300D03*
X2057400Y914400D03*
Y1168400D03*
Y1422400D03*
Y1676400D03*
Y1930400D03*
Y2184400D03*
Y2438400D03*
Y2692400D03*
Y2946400D03*
Y4711700D03*
Y4965700D03*
Y5219700D03*
Y5473700D03*
Y5727700D03*
Y5981700D03*
Y6489700D03*
Y6743700D03*
Y6997700D03*
Y7251700D03*
Y7505700D03*
Y7759700D03*
Y8013700D03*
Y8267700D03*
Y8521700D03*
Y8775700D03*
Y9029700D03*
Y9283700D03*
Y9537700D03*
X3558000Y529400D03*
X3178500D03*
X3568700Y11442700D03*
X3314700D03*
X3441700Y11925300D03*
X3822700Y11442700D03*
X3695700Y11925300D03*
X3949700D03*
X4258000Y529400D03*
X4561300D03*
X4584700Y11442700D03*
X4203700Y11925300D03*
X4457700D03*
X5092700Y11442700D03*
X4838700D03*
X4711700Y11925300D03*
X4965700D03*
X5564600Y529400D03*
X5261300D03*
X5600700Y11442700D03*
X5346700D03*
X5219700Y11925300D03*
X5473700D03*
X5727700D03*
X6264600Y529400D03*
X6108700Y11442700D03*
X5854700D03*
X5981700Y11925300D03*
X6235700D03*
X6616700Y11442700D03*
X6362700D03*
X6489700Y11925300D03*
X6743700D03*
X7124700Y11442700D03*
X6870700D03*
X6997700Y11925300D03*
X7251700D03*
X7378700Y11442700D03*
X8940800Y1181100D03*
X8686800Y1435100D03*
X8890000Y4203700D03*
X8636000D03*
X8890000Y4457700D03*
X8636000D03*
X8890000Y4711700D03*
X8636000D03*
Y4965700D03*
Y5219700D03*
X8890000Y5473700D03*
X8636000D03*
X8890000Y5727700D03*
X8636000D03*
X8890000Y5981700D03*
Y6235700D03*
X8636000Y5981700D03*
Y6235700D03*
X8890000Y6489700D03*
Y6743700D03*
X8636000Y6489700D03*
Y6743700D03*
X8890000Y6997700D03*
Y7251700D03*
X8636000Y6997700D03*
Y7251700D03*
X8890000Y7505700D03*
Y7759700D03*
X8636000Y7505700D03*
Y7759700D03*
X8890000Y8267700D03*
X8636000D03*
X8890000Y8521700D03*
Y8775700D03*
X8636000Y8521700D03*
Y8775700D03*
X8890000Y9029700D03*
X8636000D03*
X9385300Y5384800D03*
Y5638800D03*
Y6362700D03*
Y6616700D03*
X9639300Y5384800D03*
Y5638800D03*
Y5892800D03*
Y6362700D03*
Y6616700D03*
Y6870700D03*
X10261600Y2501900D03*
G54D42*
X174500Y8613900D03*
X127000Y10490200D03*
Y10033000D03*
X152400Y10706100D03*
X139700Y11226800D03*
X317500Y4521200D03*
X609600Y4953000D03*
Y5334000D03*
Y5689600D03*
X723900Y6184900D03*
X800100Y7696200D03*
X546100Y9321800D03*
X304800D03*
X774700Y9207500D03*
X393700Y9953000D03*
X635000Y9753600D03*
Y9588500D03*
X749300Y10375900D03*
X406400Y11049000D03*
X533400Y10972800D03*
X1092200Y2082800D03*
X974600Y3826000D03*
X1066800Y4660900D03*
X1155700Y5003800D03*
X965200Y5270500D03*
Y5892800D03*
X901700Y6019800D03*
X1028700Y6311900D03*
X952500Y6565900D03*
X1117600Y6692900D03*
X1155200Y8114800D03*
X1016000Y9601200D03*
Y10604500D03*
X1587500Y5245100D03*
X1435100Y5321300D03*
X1736590Y10310710D03*
X1482590D03*
X1375000Y10112600D03*
X1736590Y11072710D03*
X1482590D03*
X1736590Y10818710D03*
X1482590D03*
X1736590Y10564710D03*
X1482590D03*
X1736590Y11580710D03*
X1482590D03*
X1736590Y11326710D03*
X1482590D03*
X1876290Y11987110D03*
X1368290D03*
X1622290D03*
X1482590Y11796610D03*
X1736590D03*
X2286000Y1155700D03*
X2311400Y3797300D03*
X2381250Y9277350D03*
X2356100Y9811000D03*
X2438400Y9537700D03*
X2231890Y10310710D03*
X1990590D03*
X2352900Y10112600D03*
X2231890Y10564710D03*
Y10818710D03*
Y11072710D03*
X1990590D03*
Y10818710D03*
Y10564710D03*
X2231890Y11326710D03*
Y11580710D03*
X1990590D03*
Y11326710D03*
X2231890Y11796610D03*
X2463800Y1384300D03*
X2971800Y4965700D03*
X2489200Y9410700D03*
X2692400Y11874500D03*
X3263900Y1028700D03*
Y1803400D03*
X3416300Y1917700D03*
X3251200Y2476500D03*
X3365500Y4064000D03*
X3022600Y5092700D03*
X3302000Y5727700D03*
Y7581900D03*
X3543300Y1320800D03*
X4051300Y1168400D03*
Y901200D03*
X3886200Y1676400D03*
X3771900Y1384300D03*
X3822700Y1803400D03*
X4025900Y4546600D03*
X4000500Y5753100D03*
X3873500Y7810500D03*
X4216400Y1168400D03*
Y2565400D03*
X4330700Y3479800D03*
X4546600Y3657600D03*
X4330700Y4546600D03*
X4102100Y5461000D03*
X4368800Y6184900D03*
X4381500Y6756400D03*
X4368800Y7226300D03*
X4254500Y7683500D03*
X4157980Y7564120D03*
X4483600Y7898900D03*
X4076700Y7861300D03*
X4572000Y8648700D03*
X4686300Y2159000D03*
X5143500Y2476500D03*
X4737100Y4762500D03*
X4991100Y5168900D03*
X4953000Y7823200D03*
X4913000Y9285600D03*
X5651500Y2476500D03*
X5232400Y4889500D03*
X5511800Y6070600D03*
X5473700Y6540500D03*
X5308600Y9271000D03*
X5600700Y9207500D03*
X5829300Y4724400D03*
X5892800Y6654800D03*
X6197600Y7772400D03*
X5992500Y9285600D03*
X5994400Y9690100D03*
Y9845600D03*
X6286500Y2717800D03*
Y2870200D03*
X6400800Y4457700D03*
X6362700Y5156200D03*
X6235700Y7340600D03*
X7073900Y215900D03*
X6947300Y2730100D03*
X7067100Y2489200D03*
X7112000Y4457700D03*
X7251700Y5397500D03*
X7010400Y6819900D03*
X7188200Y7594600D03*
X7703700Y1341000D03*
X7493000Y1701800D03*
X7353300Y1866900D03*
Y3149600D03*
X7772400Y3213100D03*
X7378700Y5994400D03*
X7594600Y7264400D03*
X7372350Y8274050D03*
X7366000Y8508990D03*
X7518400Y9855200D03*
X7785100Y10693400D03*
X9448800Y4597400D03*
X9042400D03*
X9093200Y8432800D03*
X9359900Y10807700D03*
X9918700Y965200D03*
X9880600Y7759700D03*
X9575800Y8280400D03*
Y8686800D03*
X9982200D03*
Y8940800D03*
X9575800D03*
X9982200Y10795000D03*
X9835900Y11080500D03*
X9537700Y10807700D03*
X10038080Y833120D03*
X10198100Y965200D03*
X10287000Y2032000D03*
Y2235200D03*
X10604500Y2387600D03*
X10591800Y2616200D03*
G54D36*
X5793740Y3492500D03*
G54D44*
X1511300Y279400D03*
X1961300D03*
X3053500D03*
X3683000D03*
X4133000D03*
X4686300D03*
X5136300D03*
X5689600D03*
X6139600D03*
G54D34*
X2895600Y2374900D03*
X3111500Y3733800D03*
G54D46*
X8428800Y225300D03*
X9758800D03*
G54D49*
X10348000Y4874500D03*
Y7373400D03*
Y8201900D03*
Y10700800D03*
G54D32*
X8981500Y11668800D03*
G54D43*
X1041400Y7759700D03*
X1803400Y9537700D03*
X7505700Y11925300D03*
X8940800Y1435100D03*
X9385300Y6870700D03*
%LPD*%
G75*
G36*
G01X1358900Y4051300D02*
X1320800Y4089400D01*
Y4330700D01*
X1358900Y4368800D01*
X1739920D01*
G03X1866880I63480J88900D01*
G01X1993920D01*
G03X2120880I63480J88900D01*
G01X2540000D01*
X2616200Y4445000D01*
Y10668000D01*
X2997200Y11049000D01*
X3898900D01*
X3962400Y11112500D01*
Y11252200D01*
X4013200Y11303000D01*
X4127500D01*
X4191000Y11239500D01*
Y11125200D01*
X4267200Y11049000D01*
X7683500D01*
X7861300Y11226800D01*
X8356600D01*
X8407400Y11176000D01*
Y10972800D01*
X8382000Y10947400D01*
X7980650D01*
G02X7970500Y10957940I3J10160D01*
G03X7961160Y10991850I-58399J2156D01*
G03Y11055350I-49060J31750D01*
G03X7863040I-49060J31750D01*
G03Y10991850I49060J-31750D01*
G03X7853700Y10957940I49059J-31754D01*
G02X7843550Y10947400I-10153J-380D01*
G01X3086100D01*
X2768600Y10629900D01*
Y4267200D01*
X2552700Y4051300D01*
X2097530D01*
G03X2017270I-40130J-101600D01*
G01X1843530D01*
G03X1763270I-40130J-101600D01*
G01X1358900D01*
G37*
G36*
G01X7843140Y10165460D02*
X7843340Y10167810D01*
G03X7780210Y10230940I-58240J4890D01*
G01X7777860Y10230740D01*
X7632700Y10375900D01*
X3759200D01*
X3619500Y10236200D01*
Y1778000D01*
X2984500Y1143000D01*
Y736600D01*
X2667000D01*
Y1066800D01*
X2781300D01*
X3530600Y1816100D01*
Y10287000D01*
X3695700Y10452100D01*
X7937500D01*
X7975600Y10414000D01*
Y10172700D01*
X7937500Y10134600D01*
X7874000D01*
X7843140Y10165460D01*
G37*
G36*
G01X6845300Y6597670D02*
X6841640Y6596600D01*
G03Y6484400I16360J-56100D01*
G01X6845300Y6483330D01*
Y1895790D01*
G03Y1838010I50800J-28890D01*
G01Y1600200D01*
X7454900Y990600D01*
X8759510D01*
G03X8817290I28890J50800D01*
G01X9664700D01*
X9766300Y889000D01*
Y812800D01*
X9740900Y787400D01*
X7188200D01*
X6553200Y1422400D01*
Y2284170D01*
G03Y2389430I-25400J52630D01*
G01Y2411170D01*
G03Y2516430I-25400J52630D01*
G01Y8674100D01*
X8331200Y10452100D01*
X8407400D01*
Y10210800D01*
X8343900D01*
X6845300Y8712200D01*
Y6597670D01*
G37*
G36*
G01X9982200Y1346200D02*
X9969500Y1358900D01*
Y1409700D01*
X9827190Y1552010D01*
G02X9828060Y1567150I7186J7182D01*
G03X9739070Y1638300I-36359J45751D01*
G01X9696310D01*
G03X9607690I-44310J-38100D01*
G01X9466540D01*
G02X9460150Y1656360I-3J10159D01*
G03X9386650I-36750J45440D01*
G02X9380260Y1638300I-6387J-7901D01*
G01X8445500D01*
X8001000Y2082800D01*
Y3297530D01*
G02X8017180Y3305720I10160J5D01*
G03Y3399880I34620J47080D01*
G02X8001000Y3408070I-6020J8185D01*
G01Y9601200D01*
X8229600Y9829800D01*
X8439290D01*
G03X8521700Y9823590I44310J38100D01*
G03X8600700Y9826150I38106J44309D01*
G02X8607800I3550J-3626D01*
G03X8693010Y9829800I40895J41749D01*
G01X9398000D01*
X9639300Y10071100D01*
Y10248900D01*
X9702800Y10312400D01*
X9918700D01*
X9962070Y10269030D01*
X9962280Y10267290D01*
G03X9982200Y10229990I58017J7015D01*
G01Y9613900D01*
X9779000Y9410700D01*
X8585200D01*
X8458200Y9283700D01*
Y8221940D01*
G02X8440140Y8215550I-10159J-3D01*
G03Y8142050I-45440J-36750D01*
G02X8458200Y8135660I7901J-6387D01*
G01Y3798370D01*
G03Y3750430I53300J-23970D01*
G01Y3255670D01*
G02X8442020Y3247480I-10160J-5D01*
G03X8348970Y3199320I-34620J-47081D01*
G02X8338630Y3188980I-10158J-182D01*
G03X8339850Y3072160I-1080J-58428D01*
G02X8350190Y3059930I393J-10153D01*
G03X8442020Y3000920I57209J-11929D01*
G02X8458200Y2992730I6020J-8185D01*
G01Y2959100D01*
X9042400Y2374900D01*
X9931400D01*
X10172700Y2133600D01*
Y1346200D01*
X9982200D01*
G37*
G36*
G01X9994900Y1130300D02*
X9944100Y1181100D01*
Y1600200D01*
X9994900Y1651000D01*
X10172700D01*
X10198100Y1625600D01*
Y1159190D01*
G03X10195170Y1153290I50794J-28902D01*
G01X10194780Y1152380D01*
X10172700Y1130300D01*
X9994900D01*
G37*
%LPC*%
G75*
G36*
G01X6597790Y4577080D02*
G02X6686410I44310J38100D01*
G02X6597790I-44310J-38100D01*
G37*
G36*
G01X9658140Y2005020D02*
G02X9746760I44310J38100D01*
G02X9658140I-44310J-38100D01*
G37*
G54D40*
X1803400Y4203700D03*
X2057400D03*
X8890000Y1879600D03*
Y2133600D03*
X8636000D03*
X8890000Y9537700D03*
X9144000Y1879600D03*
Y2133600D03*
G54D42*
X6692900Y2489200D03*
X6654800Y6400800D03*
Y7073900D03*
X6756400Y7823200D03*
X8181300Y2994700D03*
X8509000Y2489200D03*
X10038080Y1897380D03*
G54D43*
X8636000Y1879600D03*
Y9537700D03*
%LPD*%
G75*
G54D10*
X330200Y330200D03*
Y11798300D03*
X10375900Y330200D03*
Y11798300D03*
G54D11*
X292100Y1320800D03*
Y1066800D03*
Y1828800D03*
Y1574800D03*
Y2336800D03*
Y2082800D03*
Y2844800D03*
Y2590800D03*
Y3352800D03*
Y3098800D03*
X546100Y1320800D03*
Y1828800D03*
Y1574800D03*
Y2336800D03*
Y2082800D03*
Y2844800D03*
Y2590800D03*
Y3352800D03*
Y3098800D03*
X1386300Y529400D03*
X1308100Y2438400D03*
X1054100D03*
X1308100Y2692400D03*
X1054100D03*
X1308100Y2946400D03*
X1295400Y7251700D03*
X1041400D03*
X1295400Y7505700D03*
X1041400D03*
X1295400Y7759700D03*
X1803400Y914400D03*
Y1168400D03*
Y1422400D03*
Y1676400D03*
Y1930400D03*
Y2184400D03*
Y2438400D03*
Y2692400D03*
Y3949700D03*
Y4203700D03*
Y4457700D03*
Y4711700D03*
Y4965700D03*
Y5219700D03*
Y5473700D03*
Y5727700D03*
Y5981700D03*
Y6235700D03*
Y6489700D03*
Y6743700D03*
Y6997700D03*
Y7251700D03*
Y7505700D03*
Y7759700D03*
Y8013700D03*
Y8267700D03*
Y8521700D03*
Y8775700D03*
Y9029700D03*
Y9283700D03*
X2478500Y529400D03*
X2086300D03*
X2057400Y914400D03*
Y1168400D03*
Y1422400D03*
Y1676400D03*
Y1930400D03*
Y2184400D03*
Y2438400D03*
Y2692400D03*
Y2946400D03*
Y3949700D03*
Y4203700D03*
Y4457700D03*
Y4711700D03*
Y4965700D03*
Y5219700D03*
Y5473700D03*
Y5727700D03*
Y5981700D03*
Y6235700D03*
Y6489700D03*
Y6743700D03*
Y6997700D03*
Y7251700D03*
Y7505700D03*
Y7759700D03*
Y8013700D03*
Y8267700D03*
Y8521700D03*
Y8775700D03*
Y9029700D03*
Y9283700D03*
Y9537700D03*
X3558000Y529400D03*
X3178500D03*
X3568700Y11442700D03*
Y11188700D03*
X3314700Y11442700D03*
Y11188700D03*
X3187700Y11925300D03*
X3441700D03*
X4076700Y11442700D03*
Y11188700D03*
X3822700Y11442700D03*
Y11188700D03*
X3695700Y11925300D03*
X3949700D03*
X4258000Y529400D03*
X4561300D03*
X4584700Y11442700D03*
Y11188700D03*
X4330700Y11442700D03*
Y11188700D03*
X4203700Y11925300D03*
X4457700D03*
X5092700Y11442700D03*
Y11188700D03*
X4838700Y11442700D03*
Y11188700D03*
X4711700Y11925300D03*
X4965700D03*
X5564600Y529400D03*
X5261300D03*
X5600700Y11442700D03*
Y11188700D03*
X5346700Y11442700D03*
Y11188700D03*
X5219700Y11925300D03*
X5473700D03*
X5727700D03*
X6264600Y529400D03*
X6108700Y11442700D03*
Y11188700D03*
X5854700Y11442700D03*
Y11188700D03*
X5981700Y11925300D03*
X6235700D03*
X6616700Y11442700D03*
Y11188700D03*
X6362700Y11442700D03*
Y11188700D03*
X6489700Y11925300D03*
X6743700D03*
X7124700Y11442700D03*
Y11188700D03*
X6870700Y11442700D03*
Y11188700D03*
X6997700Y11925300D03*
X7251700D03*
X7378700Y11442700D03*
Y11188700D03*
X8686800Y1181100D03*
X8940800D03*
X8890000Y1879600D03*
X8686800Y1435100D03*
X8890000Y2133600D03*
X8636000D03*
X8890000Y3949700D03*
X8636000D03*
X8890000Y4203700D03*
X8636000D03*
X8890000Y4457700D03*
X8636000D03*
X8890000Y4711700D03*
X8636000D03*
X8890000Y4965700D03*
X8636000D03*
X8890000Y5219700D03*
X8636000D03*
X8890000Y5473700D03*
X8636000D03*
X8890000Y5727700D03*
X8636000D03*
X8890000Y5981700D03*
Y6235700D03*
X8636000Y5981700D03*
Y6235700D03*
X8890000Y6489700D03*
Y6743700D03*
X8636000Y6489700D03*
Y6743700D03*
X8890000Y6997700D03*
Y7251700D03*
X8636000Y6997700D03*
Y7251700D03*
X8890000Y7505700D03*
Y7759700D03*
X8636000Y7505700D03*
Y7759700D03*
X8890000Y8013700D03*
Y8267700D03*
X8636000Y8013700D03*
Y8267700D03*
X8890000Y8521700D03*
Y8775700D03*
X8636000Y8521700D03*
Y8775700D03*
X8890000Y9029700D03*
X8636000D03*
X8890000Y9283700D03*
X8636000D03*
X8890000Y9537700D03*
X9144000Y1879600D03*
Y2133600D03*
X9499600Y2501900D03*
X9385300Y5384800D03*
Y5638800D03*
Y6362700D03*
Y6616700D03*
X10007600Y2501900D03*
X9753600D03*
X9639300Y5384800D03*
Y5638800D03*
Y5892800D03*
Y6362700D03*
Y6616700D03*
Y6870700D03*
X10515600Y2501900D03*
X10261600D03*
G54D20*
X8428800Y225300D03*
X9758800D03*
X10109200Y3022600D03*
Y4165600D03*
G54D30*
G01X10275400Y1235100D02*
G03I-30000J0D01*
G01D02*
G03I-30000J0D01*
G01Y1635100D02*
G03I-30000J0D01*
G01D02*
G03I-30000J0D01*
G54D21*
X8748800Y495300D03*
X8998800D03*
X9198800D03*
G54D12*
X50800Y5651500D03*
X174500Y8613900D03*
X50800Y9207500D03*
X241300Y9461500D03*
X127000Y10490200D03*
Y10033000D03*
X137160Y10784840D03*
X152400Y10706100D03*
X139700Y11226800D03*
X317500Y4521200D03*
X609600Y4953000D03*
Y5334000D03*
Y5689600D03*
X723900Y6184900D03*
X800100Y7696200D03*
X546100Y9321800D03*
X304800D03*
X774700Y9207500D03*
X393700Y9953000D03*
X392400Y9793000D03*
X386700Y9709800D03*
X635000Y9753600D03*
Y9588500D03*
X749300Y10375900D03*
X431800Y10439400D03*
X533400Y10299700D03*
X393300Y10503300D03*
X533410Y10223510D03*
X533400Y10134600D03*
X406400Y11049000D03*
X443300Y10704900D03*
X368300Y10706100D03*
X293300Y10704900D03*
X533400Y10972800D03*
X1066800Y1485900D03*
Y1574800D03*
Y1651000D03*
Y1739900D03*
X1092200Y2082800D03*
X1358900Y3975100D03*
X974600Y3826000D03*
X1358900Y4089400D03*
Y4216400D03*
Y4153400D03*
X1066800Y4660900D03*
X1155700Y5003800D03*
X965200Y5270500D03*
Y5892800D03*
X901700Y6019800D03*
X1028700Y6311900D03*
X1295400Y6438900D03*
Y6565900D03*
X952500D03*
X1117600Y6692900D03*
X1334000Y8114800D03*
Y8241800D03*
Y8368800D03*
X1155200Y8114800D03*
X1117100Y8813300D03*
Y8686300D03*
X1334000Y8495800D03*
X1333500Y8813800D03*
Y8686800D03*
X1117100Y9067300D03*
Y8940300D03*
X1333500Y9067300D03*
X1016000Y9601200D03*
X1028700Y10262600D03*
X1016000Y10604500D03*
X1460500Y4584700D03*
X1514600Y4683000D03*
X1587500Y5245100D03*
X1435100Y5321300D03*
X1514600Y5241800D03*
X1485900Y6146800D03*
Y6070600D03*
X1676400Y6324600D03*
X1752600Y6616700D03*
X1790700Y6870700D03*
X1701800Y8940800D03*
X1736590Y10310710D03*
X1482590D03*
X1375000Y10112600D03*
X1736590Y11072710D03*
X1482590D03*
X1736590Y10818710D03*
X1482590D03*
X1736590Y10564710D03*
X1482590D03*
X1736590Y11580710D03*
X1482590D03*
X1736590Y11326710D03*
X1482590D03*
X1876290Y11987110D03*
X1368290D03*
X1622290D03*
X1482590Y11796610D03*
X1736590D03*
X2362700Y901200D03*
X2362200Y977900D03*
Y825500D03*
X2286000Y1155700D03*
X2426860Y3975100D03*
X2311400Y3797300D03*
X2362200Y3975100D03*
X2426860Y4838700D03*
X2362200D03*
X2222500Y6299200D03*
X2381250Y9277350D03*
X2356100Y9811000D03*
X2438400Y9537700D03*
X2231890Y10310710D03*
X1990590D03*
X2352900Y10112600D03*
X2231890Y10564710D03*
Y10818710D03*
Y11072710D03*
X1990590D03*
Y10818710D03*
Y10564710D03*
X2231890Y11326710D03*
Y11580710D03*
X1990590D03*
Y11326710D03*
X2231890Y11796610D03*
X1990590D03*
X2908300Y812800D03*
X2832100Y825500D03*
Y901700D03*
Y977900D03*
X2743200Y901700D03*
X2908300Y927100D03*
X2743200Y977900D03*
Y825500D03*
X2908300Y1028700D03*
X2731000Y1155200D03*
X2463800Y1384300D03*
X2491520Y3975100D03*
X2971800Y4965700D03*
X2491520Y4838700D03*
X2489200Y9410700D03*
X2887980Y9918700D03*
X2964180D03*
X2959100Y11874500D03*
X2692400D03*
X2857500D03*
X3263900Y1028700D03*
X3479800Y1549400D03*
X3263900Y1803400D03*
X3416300Y1917700D03*
X3263900Y2044700D03*
Y1968500D03*
X3314700Y2921000D03*
X3251200Y2476500D03*
X3035300Y2834640D03*
Y2758440D03*
X3238500Y2971800D03*
X3276600Y3022600D03*
X3314700Y3073400D03*
X3365500Y4064000D03*
X3022600Y5092700D03*
X3200400Y5473700D03*
X3251200Y5372100D03*
X3073400Y5219700D03*
X3124200Y5321300D03*
X3416300Y5867400D03*
X3302000Y5727700D03*
X3416300Y5981700D03*
X3302000Y7581900D03*
X3355340Y7810500D03*
X3302000Y7861300D03*
Y7962900D03*
X3352800Y7912100D03*
X3365500Y8260080D03*
Y8336280D03*
X3543300Y1320800D03*
X4051300Y1168400D03*
Y901200D03*
X3886200Y1676400D03*
X3771900Y1384300D03*
X3822700Y1803400D03*
X3886200Y3225800D03*
X3822700Y3263900D03*
Y3821900D03*
Y3746500D03*
Y4292600D03*
Y4165600D03*
Y4229100D03*
X4025900Y4546600D03*
X3975100Y5562600D03*
X3898900D03*
X4000500Y5753100D03*
X3903980Y6014700D03*
X3949700Y6064700D03*
X3975100Y6264700D03*
Y6815840D03*
X3873500Y7810500D03*
X3825900Y7962900D03*
X3771900Y7912100D03*
Y9601200D03*
X3721100Y9525000D03*
Y9931400D03*
Y10007600D03*
Y10083800D03*
X4216400Y1168400D03*
X4432300D03*
X4495800D03*
X4368800D03*
X4559300Y1460500D03*
X4216400Y2565400D03*
X4368800Y2971800D03*
X4330700Y3479800D03*
X4432300Y3022600D03*
X4495800Y3073400D03*
X4546600Y3657600D03*
X4330700Y3937000D03*
Y3873500D03*
Y4546600D03*
X4495800Y4610100D03*
X4102100Y5461000D03*
X4380200Y5614700D03*
X4433600Y5664200D03*
X4368800Y6184900D03*
X4583600Y5801360D03*
X4533600Y5755640D03*
X4483600Y5709920D03*
X4381200Y5714700D03*
X4381500Y5791200D03*
Y6756400D03*
X4368800Y7226300D03*
X4254500Y7683500D03*
X4157980Y7564120D03*
X4433600Y7785100D03*
X4483600Y7898900D03*
X4076700Y7861300D03*
X4203700Y8260080D03*
Y8336280D03*
X4279900Y8724900D03*
Y8648700D03*
X4572000D03*
Y8885600D03*
X4521200Y9283700D03*
X4572000Y9445600D03*
X4152900Y9448800D03*
X4572000Y9365600D03*
X4152900Y9359900D03*
X4572000Y9125600D03*
Y9045600D03*
Y8965600D03*
X4152900Y9766300D03*
X4572000Y9605600D03*
X4152900Y9601200D03*
Y9525000D03*
X4572000Y9525600D03*
X4152900Y9685600D03*
X4576500D03*
X4089400Y9931400D03*
X4584700D03*
X4089400Y10007600D03*
X4584700D03*
X4457700Y10515600D03*
X4089400Y10083800D03*
X4584700D03*
X4165600Y10883900D03*
X4343400D03*
X4635500Y1460500D03*
X4686300Y2159000D03*
X4889500Y2921000D03*
X5036000Y2844800D03*
X4978400Y2806700D03*
X5143500Y2476500D03*
X4889500Y2832100D03*
Y2755900D03*
X4610100Y4610100D03*
X4737100Y4762500D03*
X4991100Y5168900D03*
X5033600Y5558200D03*
X5083600Y5613400D03*
X5133600Y5659120D03*
X4833600Y5892800D03*
X4633600Y5852800D03*
X4783600Y5842000D03*
X4933600Y6184900D03*
X4883600Y6134100D03*
X4940300Y7251700D03*
X4991100Y7200900D03*
X4724400Y7150100D03*
X4826000D03*
X4876800Y7099300D03*
X5041900Y7251700D03*
X4940300Y7048500D03*
X4953000Y7823200D03*
X4933600Y7422800D03*
X4914900Y8724900D03*
Y8648700D03*
Y8565600D03*
Y8485600D03*
Y8407400D03*
Y8805600D03*
X4913000Y9285600D03*
X5041900Y9925600D03*
Y9845600D03*
Y9765600D03*
Y10085600D03*
Y10005600D03*
X4826000Y10883900D03*
X5651500Y2476500D03*
X5588000Y3911600D03*
X5651500Y3962400D03*
X5486400Y5118100D03*
X5232400Y4889500D03*
X5537200Y5029200D03*
Y5168900D03*
X5533600Y5559000D03*
X5233600Y5219700D03*
X5333600D03*
X5433600D03*
X5384800Y5168900D03*
X5283600Y5173980D03*
X5183600Y5704840D03*
X5511800Y6070600D03*
X5473700Y6540500D03*
X5435600Y7810500D03*
X5433600Y7418800D03*
X5333600Y7813040D03*
X5283600Y7777480D03*
X5486400Y7886700D03*
X5383600Y7848600D03*
X5549900Y8811260D03*
X5499900Y8765540D03*
X5449900Y8719820D03*
X5397500Y8674100D03*
X5308600Y9271000D03*
Y9359900D03*
X5600700Y9207500D03*
X5651500Y9842500D03*
Y9765600D03*
Y9685600D03*
X5994400Y4470400D03*
X6096000Y4495800D03*
X5829300Y4724400D03*
X6223000Y5168900D03*
X5961570Y5174170D03*
X5783600Y5557500D03*
X6033600Y5562600D03*
X6097100D03*
X5880100D03*
X5956300D03*
X6133600Y5168900D03*
X5918200Y6108700D03*
X5880100Y6057900D03*
X5994400Y6208700D03*
X5956300Y6158700D03*
X6134100Y6692900D03*
Y6568440D03*
X6184900Y6464300D03*
X6032500Y6258700D03*
X5892800Y6654800D03*
X6134100Y6502400D03*
X6108700Y6362700D03*
X6070600Y6308700D03*
X6134100Y6629400D03*
Y6921500D03*
X6197600Y7772400D03*
X6083600Y7429800D03*
X6007100Y8565600D03*
Y8645600D03*
Y8725600D03*
X5992500Y9285600D03*
X5994400Y9690100D03*
Y9845600D03*
X6159500Y10668000D03*
X6022340Y10818000D03*
X6068060Y10768000D03*
X6113780Y10718000D03*
X6489700Y1447800D03*
X6527800Y2336800D03*
X6286500Y2717800D03*
Y2870200D03*
X6527800Y2463800D03*
X6489700Y2603500D03*
X6692900Y2489200D03*
X6464300Y4254500D03*
X6400800Y4457700D03*
X6642100Y4538980D03*
Y4615180D03*
X6350000Y5389700D03*
X6362700Y5156200D03*
X6248400Y5676900D03*
Y5613400D03*
Y5994400D03*
Y5930900D03*
Y5867400D03*
Y5803900D03*
Y5740400D03*
X6654800Y6400800D03*
X6235700Y6414700D03*
X6654800Y7073900D03*
X6235700Y6934200D03*
Y7035800D03*
Y7114700D03*
Y7188200D03*
X6756400Y7823200D03*
X6337300Y7810500D03*
X6489700D03*
X6413500D03*
X6235700Y7340600D03*
X7073900Y215900D03*
Y317500D03*
X7048500Y1549400D03*
X6896100Y1866900D03*
X7200900Y2336800D03*
X7302500D03*
X6972300Y2971800D03*
X6947300Y2730100D03*
X7067100Y2489200D03*
X6908800Y3162300D03*
X6972300Y3073400D03*
X6934200Y3517900D03*
Y3441700D03*
Y3378200D03*
X6972300Y3149600D03*
X6934200Y3644900D03*
Y3581400D03*
X7226300Y3721100D03*
X7137400D03*
X7061200D03*
X6985000D03*
X6908800Y3708400D03*
X7112000Y4457700D03*
X7277100Y5651500D03*
Y5524500D03*
X7200900D03*
X7124700D03*
X7023100Y5638800D03*
X7251700Y5397500D03*
X7277100Y5740400D03*
X7023100Y5715000D03*
Y5778500D03*
X6934200Y5803900D03*
X6921500Y5880100D03*
X7061200Y6604000D03*
X6946900Y6642100D03*
X7023100D03*
X6858000Y6540500D03*
X6934200D03*
X7010400Y6819900D03*
X6908800Y7645400D03*
X7188200Y7594600D03*
X6781800Y9766300D03*
Y9842500D03*
X7378700Y533400D03*
X7734300D03*
X7703700Y1341000D03*
X7493000Y1701800D03*
X7645400Y1778000D03*
X7353300Y1866900D03*
X7404100Y2336800D03*
Y2247900D03*
X7620000Y2552700D03*
X7487100Y2953200D03*
X7353300Y3149600D03*
X7429500Y3352800D03*
Y3429000D03*
Y3517900D03*
X7772400Y3213100D03*
X7493000Y3048000D03*
X7429500Y3581400D03*
X7315200Y3721100D03*
X7366000Y4538980D03*
Y4724400D03*
Y4615180D03*
X7518400Y5676900D03*
Y5600700D03*
Y5524500D03*
X7442200D03*
X7366000D03*
X7378700Y5994400D03*
X7518400Y5981700D03*
X7594600D03*
X7607300Y5791200D03*
X7518400Y5765800D03*
X7645400Y5880100D03*
X7505700Y6705600D03*
Y6642100D03*
X7416800Y6794500D03*
X7505700Y6781800D03*
X7772400Y6997700D03*
Y7162800D03*
Y7086600D03*
Y6914700D03*
X7658100Y6864700D03*
X7594600Y7264400D03*
X7772400D03*
X7372350Y8274050D03*
X7366000Y8508990D03*
X7673340Y8940800D03*
X7597140D03*
X7518400Y9855200D03*
X7785100Y10172700D03*
X7518400Y10299700D03*
X7673340Y10210800D03*
X7597140D03*
X7785100Y10693400D03*
X7962900Y1562100D03*
X8242300Y1620520D03*
Y1696720D03*
X7924800Y2679700D03*
X8181300Y2994700D03*
X8051800Y3352800D03*
X8337550Y3130550D03*
X8356600Y9931400D03*
X7937500Y10185400D03*
Y10248900D03*
Y10312400D03*
Y10375900D03*
X8356600Y10020300D03*
Y10109200D03*
X8369300Y10414000D03*
Y10261600D03*
Y10312400D03*
Y10363200D03*
X7912100Y10960100D03*
Y10896600D03*
Y11023600D03*
X8369300Y10985500D03*
Y11036300D03*
X7912100Y11087100D03*
X8369300Y11137900D03*
Y11087100D03*
X8788400Y1041400D03*
X8509000Y2489200D03*
X8890000Y2857500D03*
Y2781300D03*
X8407400Y3048000D03*
Y3200400D03*
X8884920Y3459480D03*
Y3383280D03*
X8511500Y3774400D03*
X8394700Y8178800D03*
X8763000Y8013700D03*
X8648700Y9867900D03*
X8559800D03*
X8483600D03*
X8674100Y10566400D03*
X8521700D03*
X8601200Y10569700D03*
X9423400Y1701800D03*
X9448800Y4597400D03*
X9042400D03*
X9334500Y4254500D03*
X9042400Y5016500D03*
Y5207000D03*
X9258300Y5765800D03*
X9194800Y7518400D03*
Y7759700D03*
Y7665720D03*
Y7589520D03*
Y8216900D03*
X9093200Y8432800D03*
X9067800Y8839200D03*
Y8915400D03*
Y9174480D03*
Y9098280D03*
X9080500Y10541000D03*
Y10426700D03*
X9296400Y10147300D03*
X9359900D03*
X9436100D03*
X9296400Y10210800D03*
X9359900D03*
X9436100D03*
Y10274300D03*
X9359900D03*
X9296400D03*
X9359900Y10807700D03*
X9080500Y10655300D03*
X9918700Y965200D03*
X9791700Y1244600D03*
Y1333500D03*
X9740900Y825500D03*
X9677400D03*
X9613900D03*
X9550400D03*
X9486900D03*
X9791700Y1422400D03*
Y1612900D03*
X9652000Y1600200D03*
X9702450Y1966920D03*
Y2043120D03*
X9753600Y3365500D03*
X9690100D03*
X9512300Y4254500D03*
X9944100Y5511800D03*
X9880600D03*
X9575800Y7518400D03*
X9740900D03*
Y7442200D03*
X9575800D03*
X9880600Y7759700D03*
X9569450Y7346950D03*
X9575800Y8280400D03*
X9982200Y8305800D03*
Y8547100D03*
X9575800Y8686800D03*
X9982200D03*
Y8432800D03*
Y8940800D03*
X9575800D03*
X9880600Y9613900D03*
Y9664700D03*
X9931400Y9613900D03*
Y9664700D03*
X9829800Y9613900D03*
X9779000D03*
X9728200D03*
X9677400D03*
Y9664700D03*
X9829800D03*
X9779000D03*
X9728200D03*
X9499600Y10147300D03*
Y10210800D03*
Y10274300D03*
X9982200Y10795000D03*
X9835900Y11080500D03*
X9537700Y10807700D03*
X9690100Y11137900D03*
X10038080Y833120D03*
X10248900Y1130300D03*
X10198100Y965200D03*
X10109200Y1219200D03*
X10160000D03*
Y1168400D03*
X10109200D03*
X10058400D03*
X10007600D03*
X10058400Y1219200D03*
X10007600D03*
X10261600Y1765300D03*
X10038080Y1897380D03*
X10160000Y1625600D03*
X10045700Y1574800D03*
X10007600Y1612900D03*
X10083800D03*
X10287000Y2032000D03*
Y2235200D03*
X10464800Y4457700D03*
X10020300Y10274300D03*
Y10401300D03*
X10604500Y2387600D03*
X10591800Y2616200D03*
G54D31*
G01X3055700Y2375700D02*
G03I-160000J0D01*
G01X3270700Y3733700D02*
G03I-160000J0D01*
G01X5118600Y3492500D02*
G03I-75000J0D01*
G01X5868600D02*
G03I-75000J0D01*
G01X7107100Y107300D02*
G03I-28400J0D01*
G01X7919700Y2375700D02*
G03I-160000J0D01*
G01X7728700Y3733700D02*
G03I-160000J0D01*
G01X7907100Y107300D02*
G03I-28400J0D01*
G54D13*
X165100Y6311900D03*
Y6057900D03*
Y5803900D03*
Y6565900D03*
Y7264400D03*
Y7772400D03*
Y7518400D03*
Y8026400D03*
X419100Y6311900D03*
Y6057900D03*
Y5803900D03*
Y6565900D03*
Y7264400D03*
Y7772400D03*
Y7518400D03*
Y8026400D03*
G54D22*
X8981500Y11668800D03*
G54D14*
X546100Y1066800D03*
X1054100Y2946400D03*
X1041400Y7759700D03*
X1803400Y2946400D03*
Y9537700D03*
X7505700Y11925300D03*
X8636000Y1879600D03*
X8940800Y1435100D03*
X8636000Y9537700D03*
X9245600Y2501900D03*
X9385300Y5892800D03*
Y6870700D03*
G54D23*
X9448800Y495300D03*
G54D24*
X9220200Y3530100D03*
Y3276100D03*
X9474200Y3403100D03*
Y3149100D03*
X9220200Y4038100D03*
Y3784100D03*
X9474200Y3911100D03*
Y3657100D03*
X10599200Y2931600D03*
Y3185600D03*
Y4002600D03*
Y4256600D03*
G54D15*
X1511300Y279400D03*
X1961300D03*
X2603500D03*
X3053500D03*
X3683000D03*
X4133000D03*
X4686300D03*
X5136300D03*
X5689600D03*
X6139600D03*
X8097200Y11887200D03*
X8297200D03*
X8497200D03*
G54D25*
X9461500Y11388800D03*
Y11988800D03*
G54D16*
X2081100Y11912600D03*
G54D17*
X6032500Y7962900D03*
X6286500D03*
G54D26*
X9804200Y2819600D03*
Y4368600D03*
G54D27*
X10348000Y4874500D03*
Y7373400D03*
Y8201900D03*
Y10700800D03*
G54D18*
X7200900Y2628900D03*
Y2781300D03*
X7277100Y2705100D03*
X7353300Y2628900D03*
Y2781300D03*
X9309100Y1358900D03*
Y1257300D03*
X9398000D03*
Y1358900D03*
Y1460500D03*
X9309100D03*
X9410700Y11214100D03*
X9321800D03*
X9499600Y1257300D03*
Y1358900D03*
X9791700Y1143000D03*
X9499600Y1460500D03*
X9588500Y11214100D03*
X9499600D03*
G54D28*
X10485100Y5712500D03*
X10210800Y5575300D03*
X10485100Y6261100D03*
Y5986800D03*
X10210800Y6123900D03*
Y5849600D03*
X10485100Y6535400D03*
X10210800Y6398300D03*
Y6672600D03*
Y8902700D03*
X10485100Y9314200D03*
Y9039900D03*
X10210800Y9451300D03*
Y9177000D03*
X10485100Y9862800D03*
Y9588500D03*
X10210800Y10000000D03*
Y9725700D03*
G54D19*
X7882200Y11887200D03*
X8712200D03*
G54D29*
G01X320000Y0D02*
X10380000D01*
G03X10700000Y320000I0J320000D01*
G01Y11803800D01*
G03X10380000Y12123800I-320000J0D01*
G01X320000D01*
G03X0Y11803800I0J-320000D01*
G01Y320000D01*
G03X320000Y0I320000J0D01*
M02*
