G04 ================== begin FILE IDENTIFICATION RECORD ==================*
G04 Layout Name:  MK60_88E6071_TEST_V10A.brd*
G04 Film Name:    TOP*
G04 File Format:  Gerber RS274X*
G04 File Origin:  Cadence Allegro 16.6-2015-S088*
G04 Origin Date:  Wed Jul 05 17:43:58 2017*
G04 *
G04 Layer:  BOARD GEOMETRY/OUTLINE*
G04 Layer:  VIA CLASS/TOP*
G04 Layer:  PIN/TOP*
G04 Layer:  ETCH/TOP*
G04 *
G04 Offset:    (0.0000 0.0000)*
G04 Mirror:    No*
G04 Mode:      Positive*
G04 Rotation:  0*
G04 FullContactRelief:  No*
G04 UndefLineWidth:     0.1524*
G04 ================== end FILE IDENTIFICATION RECORD ====================*
%FSLAX55Y55*MOMM*%
%IR0*IPPOS*OFA0.00000B0.00000*MIA0B0*SFA1.00000B1.00000*%
%ADD38R,.6X1.5*%
%ADD14R,.4X3.5*%
%ADD30R,.254X2.032*%
%ADD25R,1.06X.65*%
%ADD31R,.65X1.06*%
%ADD29R,2.032X.254*%
%ADD43R,.635X2.032*%
%ADD34C,.75*%
%ADD36C,.762*%
%ADD11C,.6096*%
%ADD21O,4.X2.*%
%ADD17O,2.X4.*%
%ADD35R,4.1X4.1*%
%ADD26R,1.15X1.4*%
%ADD27R,3.2X1.8*%
%ADD23R,1.6X2.7*%
%ADD33R,.8X.23*%
%ADD32R,.23X.8*%
%ADD24R,1.27X1.27*%
%ADD19C,3.3*%
%ADD22R,1.27X1.27*%
%ADD15C,2.7*%
%ADD39R,2.159X2.032*%
%ADD13R,1.016X1.2192*%
%ADD41C,1.524*%
%ADD10C,6.35*%
%ADD40R,1.524X1.524*%
%ADD37R,.4318X.8128*%
%ADD12R,1.6764X3.048*%
%ADD16R,.9144X.9144*%
%ADD20R,.9144X.9144*%
%ADD18C,1.6993*%
%ADD42R,2.6924X1.6256*%
%ADD28R,1.1938X1.1938*%
%ADD44C,.4*%
%ADD45C,.2032*%
%ADD46C,.254*%
%ADD47C,.7112*%
%ADD48C,.1524*%
%ADD49C,.508*%
%ADD50C,2.*%
%ADD51R,3.0738X2.9468*%
G75*
%LPD*%
G75*
G36*
G01X10000Y569390D02*
Y9430610D01*
G02X46200Y9443290I20321J-1D01*
G03X556710Y9953800I283800J226710D01*
G02X569390Y9990000I12681J15879D01*
G01X9010610D01*
G02X9023290Y9953800I-1J-20321D01*
G03X9533800Y9443290I226710J-283800D01*
G02X9570000Y9430610I15879J-12681D01*
G01Y569390D01*
G02X9533800Y556710I-20321J1D01*
G03X9023290Y46200I-283800J-226710D01*
G02X9010610Y10000I-12681J-15879D01*
G01X569390D01*
G02X556710Y46200I1J20321D01*
G03X46200Y556710I-226710J283800D01*
G02X10000Y569390I-15879J12681D01*
G37*
%LPC*%
G75*
G36*
G01X735640Y510000D02*
X680000D01*
Y1227600D01*
X672270Y1229510D01*
G02Y1580490I43230J175490D01*
G01X680000Y1582400D01*
Y2140000D01*
X470000D01*
X469820Y2139990D01*
G02X239990Y2369820I-7820J222010D01*
G01X240000Y2370000D01*
Y9119990D01*
X239970Y9120380D01*
G02X325000Y9220000I92530J7120D01*
G01X340000D01*
G03X770000Y9630000I-40477J472940D01*
G02X889900Y9750000I117499J2499D01*
G01X8730000D01*
G02X8810000Y9670000I-5000J-85000D01*
G01Y9610000D01*
G03X9200000Y9230000I468288J90479D01*
G01X9220000D01*
G02X9320100Y9110700I-3335J-104443D01*
G01X9320000Y9109980D01*
Y2530000D01*
X9320010Y2529810D01*
G02X8930190Y2139990I-375597J-14223D01*
G01X8930000Y2140000D01*
X8910000D01*
Y1580080D01*
X8917200Y1577890D01*
G02Y1232110I-52700J-172890D01*
G01X8910000Y1229920D01*
Y510000D01*
X8844360D01*
G02X8660640I-91860J100000D01*
G01X8590360D01*
G02X8406640I-91860J100000D01*
G01X7773360D01*
G02X7589640I-91860J100000D01*
G01X7519360D01*
G02X7335640I-91860J100000D01*
G01X7194360D01*
G02X7010640I-91860J100000D01*
G01X6940360D01*
G02X6756640I-91860J100000D01*
G01X6123360D01*
G02X5939640I-91860J100000D01*
G01X5869360D01*
G02X5685640I-91860J100000D01*
G01X5544360D01*
G02X5360640I-91860J100000D01*
G01X5290360D01*
G02X5106640I-91860J100000D01*
G01X4473360D01*
G02X4289640I-91860J100000D01*
G01X4219360D01*
G02X4035640I-91860J100000D01*
G01X3894360D01*
G02X3710640I-91860J100000D01*
G01X3640360D01*
G02X3456640I-91860J100000D01*
G01X2823360D01*
G02X2639640I-91860J100000D01*
G01X2569360D01*
G02X2385640I-91860J100000D01*
G01X2244360D01*
G02X2060640I-91860J100000D01*
G01X1990360D01*
G02X1806640I-91860J100000D01*
G01X1173360D01*
G02X989640I-91860J100000D01*
G01X919360D01*
G02X735640I-91860J100000D01*
G37*
%LPD*%
G75*
G36*
G01X450000Y2200000D02*
G02X300000Y2350000I25000J175000D01*
G01Y3063300D01*
X660370D01*
X715030Y3114100D01*
X888190D01*
G03Y3225900I51810J55900D01*
G01X715030D01*
X683600Y3255120D01*
G02Y3284880I13831J14880D01*
G01X715030Y3314100D01*
X798190D01*
G03Y3425900I51810J55900D01*
G01X715030D01*
X667460Y3470120D01*
G02Y3499880I13830J14880D01*
G01X715030Y3544100D01*
X728050D01*
X730890Y3541710D01*
G03Y3658290I49110J58290D01*
G01X728050Y3655900D01*
X715030D01*
X683600Y3685120D01*
G02Y3714880I13831J14880D01*
G01X694680Y3725180D01*
X699460Y3724510D01*
G03X782120Y3824660I10539J75488D01*
G02X801350Y3851560I19225J6580D01*
G01X1051070D01*
G03X1053680Y3970530I48930J58440D01*
G01X1050950Y3968440D01*
X1027290D01*
G02X1008920Y3997440I0J20318D01*
G03X888190Y4085900I-68916J32559D01*
G01X715030D01*
X683600Y4115120D01*
G02Y4144880I13831J14880D01*
G01X715030Y4174100D01*
X798190D01*
G03Y4285900I51810J55900D01*
G01X715030D01*
X672840Y4325120D01*
G02Y4354880I13830J14880D01*
G01X715030Y4394100D01*
X728050D01*
X730890Y4391710D01*
G03Y4508290I49110J58290D01*
G01X728050Y4505900D01*
X715030D01*
X683600Y4535120D01*
G02Y4564880I13831J14880D01*
G01X694680Y4575180D01*
X699460Y4574510D01*
G03X782120Y4674660I10539J75488D01*
G02X801350Y4701560I19225J6580D01*
G01X971070D01*
G03X1030580Y4835480I48931J58439D01*
G02X1013750Y4860740I2829J20121D01*
G03X1015940Y4873510I-73757J19222D01*
G01X1016260Y4877200D01*
X1199310Y5060260D01*
X4240690D01*
X4264100Y5036850D01*
Y5017350D01*
X4234260Y4983960D01*
Y4910900D01*
X3661850D01*
X3570650Y4819700D01*
X3453150D01*
X3445260Y4827590D01*
Y4931460D01*
X3262340D01*
Y4827590D01*
X3230650Y4795900D01*
X3061900D01*
X3050200Y4965740D01*
X2846760D01*
Y4740780D01*
X2980860Y4720090D01*
X3006760Y4694190D01*
Y4514260D01*
X3185600D01*
X3249170Y4573930D01*
X3296610Y4548540D01*
X3424740D01*
Y4358540D01*
X3584100D01*
Y4193150D01*
X3496850Y4105900D01*
X1496850D01*
X1174100Y3783150D01*
Y3453150D01*
X1173780Y3452830D01*
Y3269030D01*
X1162410Y3257660D01*
X1058540D01*
Y2951820D01*
X1076290Y2930000D01*
X1075330Y2925290D01*
G03X1152980Y2833840I74670J-15289D01*
G02X1174100Y2813530I800J-20305D01*
G01Y2200000D01*
X450000D01*
G37*
G36*
G01X380780Y3279210D02*
X337600Y3230960D01*
X388400Y3166820D01*
X439200Y3230960D01*
X396020Y3279210D01*
G03X380780I-7620J-10160D01*
G37*
G36*
G01X396020Y3260790D02*
X439200Y3309040D01*
X388400Y3373180D01*
X337600Y3309040D01*
X380780Y3260790D01*
G03X396020I7620J10160D01*
G37*
G36*
G01X380780Y3479210D02*
X337600Y3430960D01*
X388400Y3366820D01*
X439200Y3430960D01*
X396020Y3479210D01*
G03X380780I-7620J-10160D01*
G37*
G36*
G01X396020Y3490790D02*
X439200Y3539040D01*
X388400Y3603180D01*
X337600Y3539040D01*
X380780Y3490790D01*
G03X396020I7620J10160D01*
G37*
G36*
G01X380780Y3709210D02*
X337600Y3660960D01*
X388400Y3596820D01*
X439200Y3660960D01*
X396020Y3709210D01*
G03X380780I-7620J-10160D01*
G37*
G36*
G01X440960Y3873660D02*
X337600Y3860960D01*
X386330Y3797600D01*
X439200Y3739040D01*
X453660Y3860780D01*
G03X440960Y3873660I-12700J179D01*
G37*
G36*
G01X396020Y3690790D02*
X439200Y3739040D01*
X388400Y3803180D01*
X337600Y3739040D01*
X380780Y3690790D01*
G03X396020I7620J10160D01*
G37*
G36*
G01X380780Y4139210D02*
X337600Y4090960D01*
X388400Y4026820D01*
X439200Y4090960D01*
X396020Y4139210D01*
G03X380780I-7620J-10160D01*
G37*
G36*
G01X396020Y4120790D02*
X439200Y4169040D01*
X388400Y4233180D01*
X337600Y4169040D01*
X380780Y4120790D01*
G03X396020I7620J10160D01*
G37*
G36*
G01X380780Y4339210D02*
X337600Y4290960D01*
X388400Y4226820D01*
X439200Y4290960D01*
X396020Y4339210D01*
G03X380780I-7620J-10160D01*
G37*
G36*
G01X396020Y4340790D02*
X439200Y4389040D01*
X388400Y4453180D01*
X337600Y4389040D01*
X380780Y4340790D01*
G03X396020I7620J10160D01*
G37*
G36*
G01X380780Y4559210D02*
X337600Y4510960D01*
X388400Y4446820D01*
X439200Y4510960D01*
X396020Y4559210D01*
G03X380780I-7620J-10160D01*
G37*
G36*
G01X440960Y4723660D02*
X337600Y4710960D01*
X386330Y4647600D01*
X439200Y4589040D01*
X453660Y4710780D01*
G03X440960Y4723660I-12700J179D01*
G37*
G36*
G01X396020Y4540790D02*
X439200Y4589040D01*
X388400Y4653180D01*
X337600Y4589040D01*
X380780Y4540790D01*
G03X396020I7620J10160D01*
G37*
G36*
G01X380780Y4989210D02*
X337600Y4940960D01*
X388400Y4876820D01*
X439200Y4940960D01*
X396020Y4989210D01*
G03X380780I-7620J-10160D01*
G37*
G36*
G01X396020Y4970790D02*
X439200Y5019040D01*
X388400Y5083180D01*
X337600Y5019040D01*
X380780Y4970790D01*
G03X396020I7620J10160D01*
G37*
G36*
G01X380780Y5189210D02*
X337600Y5140960D01*
X388400Y5076820D01*
X439200Y5140960D01*
X396020Y5189210D01*
G03X380780I-7620J-10160D01*
G37*
G36*
G01Y5429210D02*
X337600Y5380960D01*
X388400Y5316820D01*
X439200Y5380960D01*
X396020Y5429210D01*
G03X380780I-7620J-10160D01*
G37*
G36*
G01X396020Y5210790D02*
X439200Y5259040D01*
X388400Y5323180D01*
X337600Y5259040D01*
X380780Y5210790D01*
G03X396020I7620J10160D01*
G37*
G36*
G01X438170Y5601860D02*
X337600Y5580960D01*
X386520Y5517440D01*
X439200Y5459040D01*
X451900Y5589200D01*
G03X438170Y5601860I-12702J0D01*
G37*
G36*
G01X396020Y5410790D02*
X439200Y5459040D01*
X388400Y5523180D01*
X337600Y5459040D01*
X380780Y5410790D01*
G03X396020I7620J10160D01*
G37*
G36*
G01X898860Y5875490D02*
Y5692840D01*
G02X864170Y5678470I-20321J0D01*
G01X844210Y5698440D01*
X465790D01*
X410100Y5642740D01*
X324450Y5624950D01*
G02X300000Y5644840I-4132J19893D01*
G01Y9099940D01*
X308750Y9101170D01*
G03X563640Y9190000I-96263J686326D01*
G02X594260Y9172480I10299J-17518D01*
G01Y9010000D01*
G03X831220Y8896340I145739J0D01*
G02X864260Y8880490I12720J-15847D01*
G01Y8721050D01*
X929170Y8656150D01*
G02X914800Y8621460I-14370J-14369D01*
G01X780760D01*
X743410Y8588440D01*
X693050D01*
X640120Y8636700D01*
X475060D01*
Y8223300D01*
X640120D01*
X693050Y8271560D01*
X743410D01*
X780760Y8238540D01*
X814260D01*
Y7400740D01*
X534260D01*
Y6959260D01*
X541560D01*
Y6127120D01*
X498540Y6079530D01*
Y5772340D01*
X871460D01*
Y5872610D01*
X881520Y5882670D01*
G02X898860Y5875490I7181J-7186D01*
G37*
G36*
G01X701000Y3176500D02*
X642400Y3230960D01*
X589060Y3170000D01*
X642400Y3109040D01*
X701000Y3163500D01*
G03Y3176500I-7810J6500D01*
G37*
G36*
G01Y3376500D02*
X642400Y3430960D01*
X589060Y3370000D01*
X642400Y3309040D01*
X701000Y3363500D01*
G03Y3376500I-7810J6500D01*
G37*
G36*
G01Y3606500D02*
X642400Y3660960D01*
X589060Y3600000D01*
X642400Y3539040D01*
X701000Y3593500D01*
G03Y3606500I-7810J6500D01*
G37*
G36*
G01X674080Y3792820D02*
X688450Y3778450D01*
X712540Y3800000D01*
X688450Y3821550D01*
X674080Y3807180D01*
G03Y3792820I7180J-7180D01*
G37*
G36*
G01X701000Y3806500D02*
X642400Y3860960D01*
X589060Y3800000D01*
X642400Y3739040D01*
X701000Y3793500D01*
G03Y3806500I-7810J6500D01*
G37*
G36*
G01Y4036500D02*
X642400Y4090960D01*
X589060Y4030000D01*
X642400Y3969040D01*
X701000Y4023500D01*
G03Y4036500I-7810J6500D01*
G37*
G36*
G01Y4236500D02*
X642400Y4290960D01*
X589060Y4230000D01*
X642400Y4169040D01*
X701000Y4223500D01*
G03Y4236500I-7810J6500D01*
G37*
G36*
G01Y4456500D02*
X642400Y4510960D01*
X589060Y4450000D01*
X642400Y4389040D01*
X701000Y4443500D01*
G03Y4456500I-7810J6500D01*
G37*
G36*
G01X674080Y4642820D02*
X688450Y4628450D01*
X712540Y4650000D01*
X688450Y4671550D01*
X674080Y4657180D01*
G03Y4642820I7180J-7180D01*
G37*
G36*
G01X701000Y4656500D02*
X642400Y4710960D01*
X589060Y4650000D01*
X642400Y4589040D01*
X701000Y4643500D01*
G03Y4656500I-7810J6500D01*
G37*
G36*
G01Y4886500D02*
X642400Y4940960D01*
X589060Y4880000D01*
X642400Y4819040D01*
X701000Y4873500D01*
G03Y4886500I-7810J6500D01*
G37*
G36*
G01Y5086500D02*
X642400Y5140960D01*
X589060Y5080000D01*
X642400Y5019040D01*
X701000Y5073500D01*
G03Y5086500I-7810J6500D01*
G37*
G36*
G01X530640Y5248880D02*
X642400Y5259040D01*
X593400Y5321800D01*
X540800Y5380960D01*
X520520Y5259880D01*
G03X530640Y5248880I10120J-845D01*
G37*
G36*
G01X701000Y5326500D02*
X642400Y5380960D01*
X589060Y5320000D01*
X642400Y5259040D01*
X701000Y5313500D01*
G03Y5326500I-7810J6500D01*
G37*
G36*
G01Y5526500D02*
X642400Y5580960D01*
X589060Y5520000D01*
X642400Y5459040D01*
X701000Y5513500D01*
G03Y5526500I-7810J6500D01*
G37*
G36*
G01X674080Y5512820D02*
X688450Y5498450D01*
X712540Y5520000D01*
X688450Y5541550D01*
X674080Y5527180D01*
G03Y5512820I7180J-7180D01*
G37*
G36*
G01X592240Y6114980D02*
X544280Y6061920D01*
X589640Y6013040D01*
X635720Y6061920D01*
X609770Y6113040D01*
G03X592240Y6114980I-9770J-8111D01*
G37*
G36*
G01X680610Y8337880D02*
X622400Y8390960D01*
X568420Y8330000D01*
X622400Y8269040D01*
X680610Y8322120D01*
G03Y8337880I-9960J7880D01*
G37*
G36*
G01Y8537880D02*
X622400Y8590960D01*
X568420Y8530000D01*
X622400Y8469040D01*
X680610Y8522120D01*
G03Y8537880I-9960J7880D01*
G37*
G36*
G01X814080Y3362820D02*
X828450Y3348450D01*
X852540Y3370000D01*
X828450Y3391550D01*
X814080Y3377180D01*
G03Y3362820I7180J-7180D01*
G37*
G36*
G01X744080Y3592820D02*
X758450Y3578450D01*
X782540Y3600000D01*
X758450Y3621550D01*
X744080Y3607180D01*
G03Y3592820I7180J-7180D01*
G37*
G36*
G01X814080Y4222820D02*
X828450Y4208450D01*
X852540Y4230000D01*
X828450Y4251550D01*
X814080Y4237180D01*
G03Y4222820I7180J-7180D01*
G37*
G36*
G01X744080Y4442820D02*
X758450Y4428450D01*
X782540Y4450000D01*
X758450Y4471550D01*
X744080Y4457180D01*
G03Y4442820I7180J-7180D01*
G37*
G36*
G01X814080Y5072820D02*
X828450Y5058450D01*
X852540Y5080000D01*
X828450Y5101550D01*
X814080Y5087180D01*
G03Y5072820I7180J-7180D01*
G37*
G36*
G01X744080Y5312820D02*
X758450Y5298450D01*
X782540Y5320000D01*
X758450Y5341550D01*
X744080Y5327180D01*
G03Y5312820I7180J-7180D01*
G37*
G36*
G01X740480Y5499680D02*
Y5520000D01*
X708200Y5521800D01*
X710000Y5489520D01*
X730320D01*
G03X740480Y5499680I0J10160D01*
G37*
G36*
G01X727310Y6125890D02*
X734280Y5970480D01*
X781090Y6013220D01*
X825720Y6061920D01*
X747560Y6135620D01*
G03X727310Y6125890I-7560J-10202D01*
G37*
G36*
G01X754770Y8322570D02*
X798080Y8284280D01*
X846980Y8330000D01*
X798080Y8375720D01*
X754770Y8337430D01*
G03Y8322570I10300J-7430D01*
G37*
G36*
G01Y8522570D02*
X798080Y8484280D01*
X846980Y8530000D01*
X798080Y8575720D01*
X754770Y8537430D01*
G03Y8522570I10300J-7430D01*
G37*
G36*
G01X4941150Y8049220D02*
G02X4922700Y8078060I-1J20321D01*
G03X4911940Y8158930I-69201J31943D01*
G01Y8202960D01*
X4920830Y8213900D01*
Y8327660D01*
X4911940Y8338600D01*
Y8421400D01*
X4920830Y8432340D01*
Y8546100D01*
X4911940Y8557040D01*
Y8634220D01*
X4918440Y8640720D01*
X4918460Y8640740D01*
G03X4863290Y8783180I-58458J59262D01*
G01X4859310Y8783330D01*
X4768010Y8874640D01*
X4060390D01*
X4023040Y8907660D01*
X3899470D01*
X3879710Y8893360D01*
X3859240Y8911460D01*
X3735740D01*
Y8915740D01*
X3688950D01*
X3565740Y9038950D01*
Y9215740D01*
X3554950D01*
G02X3547770Y9233080I6J10159D01*
G01X3565740Y9251050D01*
Y9585740D01*
X3121050D01*
X3084260Y9548950D01*
Y9391050D01*
X3096660Y9378650D01*
Y9366760D01*
X3108550D01*
X3121050Y9354260D01*
X3261050D01*
X3264730Y9350580D01*
G02X3257550Y9333240I-7186J-7181D01*
G01X3096660D01*
Y9181350D01*
X3084260Y9168950D01*
Y9001050D01*
X3101170Y8984140D01*
X3096660Y8973240D01*
Y8816760D01*
X3114260D01*
Y8728440D01*
X2115790D01*
X1975790Y8588440D01*
X1912180D01*
G02X1897810Y8623130I0J20321D01*
G01X2025740Y8751050D01*
Y9160520D01*
G02X2060430Y9174890I20321J0D01*
G01X2101050Y9134260D01*
X2534260D01*
Y8881050D01*
X2601050Y8814260D01*
X3025740D01*
Y8975740D01*
X2845740D01*
Y9004260D01*
X3035740D01*
Y9298950D01*
X3023340Y9311350D01*
Y9333240D01*
X3001450D01*
X2998950Y9335740D01*
X2845740D01*
Y9364260D01*
X3025740D01*
Y9548950D01*
X2988950Y9585740D01*
X2534260D01*
Y9435740D01*
X2395740D01*
Y9508950D01*
X2328950Y9575740D01*
X2014260D01*
Y9560740D01*
X1993950D01*
X1978950Y9575740D01*
X1761050D01*
X1746050Y9560740D01*
X1744260D01*
Y9558950D01*
X1724260Y9538950D01*
Y9178950D01*
X1621050Y9075740D01*
X971050D01*
X920430Y9025110D01*
G02X885740Y9039480I-14369J14370D01*
G01Y9210000D01*
G03X783700Y9349040I-145748J0D01*
G02X773350Y9380360I6090J19383D01*
G03X898830Y9691250I-560851J407136D01*
G01X900060Y9700000D01*
X5924260D01*
Y9388260D01*
G03X6239210Y8722850I145739J-338260D01*
G02X6268860Y8704800I9330J-18051D01*
G01Y8503150D01*
X6261770Y8494430D01*
X6253050Y8487340D01*
X5856730D01*
X5418610Y8049220D01*
X4941150D01*
G37*
G36*
G01X904080Y3162820D02*
X918450Y3148450D01*
X942540Y3170000D01*
X918450Y3191550D01*
X904080Y3177180D01*
G03Y3162820I7180J-7180D01*
G37*
G36*
G01Y4022820D02*
X918450Y4008450D01*
X942540Y4030000D01*
X918450Y4051550D01*
X904080Y4037180D01*
G03Y4022820I7180J-7180D01*
G37*
G36*
G01X985880Y4751020D02*
X998460Y4738460D01*
X1023180Y4760000D01*
X998460Y4781540D01*
X985880Y4768980D01*
G03Y4751020I8980J-8980D01*
G37*
G36*
G01X960320Y4910480D02*
X940000D01*
X938200Y4878200D01*
X970480Y4880000D01*
Y4900320D01*
G03X960320Y4910480I-10160J0D01*
G37*
G36*
G01X904080Y4872820D02*
X918450Y4858450D01*
X942540Y4880000D01*
X918450Y4901550D01*
X904080Y4887180D01*
G03Y4872820I7180J-7180D01*
G37*
G36*
G01X870320Y5110480D02*
X850000D01*
X848200Y5078200D01*
X880480Y5080000D01*
Y5100320D01*
G03X870320Y5110480I-10160J0D01*
G37*
G36*
G01X995200Y5608490D02*
X1024280Y5518080D01*
X1074660Y5559490D01*
X1115720Y5609520D01*
X1020580Y5634920D01*
G03X995200Y5608490I0J-25401D01*
G37*
G36*
G01X1024260Y6980000D02*
Y6927230D01*
X970000Y6872970D01*
X945740Y6897230D01*
Y6980000D01*
X1024260D01*
G37*
G36*
G01X945740Y7400000D02*
Y8186570D01*
X996200Y8237030D01*
X1024260Y8208970D01*
Y7400000D01*
X945740D01*
G37*
G36*
G01X1980000Y8770000D02*
X1830000Y8620000D01*
X1030000D01*
X910000Y8740000D01*
Y8950000D01*
X990000Y9030000D01*
X1640000D01*
X1770000Y9160000D01*
Y9520000D01*
X1780000Y9530000D01*
X1960000D01*
X1980000Y9510000D01*
Y8770000D01*
G37*
G36*
G01X1085230Y8537430D02*
X1041920Y8575720D01*
X993020Y8530000D01*
X1041920Y8484280D01*
X1085230Y8522570D01*
G03Y8537430I-10300J7430D01*
G37*
G36*
G01X1087120Y1835290D02*
X1022110Y1813610D01*
X1043860Y1732730D01*
X1121630Y1763840D01*
X1099970Y1828860D01*
G03X1087120Y1835290I-9640J-3210D01*
G37*
G36*
G01X1129870Y1888700D02*
X1194900Y1910380D01*
X1173140Y1991270D01*
X1095360Y1960160D01*
X1117020Y1895130D01*
G03X1129870Y1888700I9640J3210D01*
G37*
G36*
G01X1160310Y2924560D02*
X1195720Y2968080D01*
X1150000Y3020150D01*
X1104280Y2968080D01*
X1139690Y2924560D01*
G03X1160310I10310J23210D01*
G37*
G36*
G01X1209670Y3120900D02*
X1195720Y3211920D01*
X1148130Y3167920D01*
X1104280Y3120480D01*
X1199520Y3110320D01*
G03X1209670Y3120900I0J10159D01*
G37*
G36*
G01X1065880Y3901020D02*
X1078460Y3888460D01*
X1103180Y3910000D01*
X1078460Y3931540D01*
X1065880Y3918980D01*
G03Y3901020I8980J-8980D01*
G37*
G36*
G01X1134120Y5318980D02*
X1121540Y5331540D01*
X1096820Y5310000D01*
X1121540Y5288460D01*
X1134120Y5301020D01*
G03Y5318980I-8980J8980D01*
G37*
G36*
G01X1054120Y5398980D02*
X1041540Y5411540D01*
X1016820Y5390000D01*
X1041540Y5368460D01*
X1054120Y5381020D01*
G03Y5398980I-8980J8980D01*
G37*
G36*
G01X1160760Y5553490D02*
X1204280Y5518080D01*
X1256350Y5563800D01*
X1204280Y5609520D01*
X1160760Y5574110D01*
G03Y5553490I23210J-10310D01*
G37*
G36*
G01X1159240Y5574110D02*
X1115720Y5609520D01*
X1063650Y5563800D01*
X1115720Y5518080D01*
X1159240Y5553490D01*
G03Y5574110I-23210J10310D01*
G37*
G36*
G01X1062570Y5805230D02*
X1024280Y5761920D01*
X1070000Y5713020D01*
X1115720Y5761920D01*
X1077430Y5805230D01*
G03X1062570I-7430J-10300D01*
G37*
G36*
G01X1077430Y5784770D02*
X1115720Y5828080D01*
X1070000Y5876980D01*
X1024280Y5828080D01*
X1062570Y5784770D01*
G03X1077430I7430J10300D01*
G37*
G36*
G01X1041140Y5965260D02*
Y6758170D01*
X1066870Y6783900D01*
G02X1101560Y6769530I14370J-14366D01*
G01Y5988010D01*
X1078810Y5965260D01*
X1041140D01*
G37*
G36*
G01X1155740Y7400740D02*
Y8263430D01*
X1087660Y8331510D01*
Y8422340D01*
G02X1080120Y8457000I5922J19438D01*
G01X1096590Y8471560D01*
X2024210D01*
X2164210Y8611560D01*
X3114260D01*
Y8534260D01*
X3271560D01*
Y8495790D01*
X3355790Y8411560D01*
X3543410D01*
X3550580Y8405220D01*
G02Y8374780I-13460J-15220D01*
G01X3543410Y8368440D01*
X3355790D01*
X3271560Y8284210D01*
Y8245740D01*
X3031050D01*
X2994260Y8208950D01*
Y8021050D01*
X3004730Y8010590D01*
G02X2990360Y7975900I-14370J-14369D01*
G01X1696840D01*
X1656670Y7935740D01*
G03X1656100Y7935150I39917J-39134D01*
G01X1656050Y7935100D01*
X1384100Y7663150D01*
Y7400740D01*
X1155740D01*
G37*
G36*
G01X1291820Y1847970D02*
X1238930Y1795080D01*
X1299000Y1732460D01*
X1359070Y1795080D01*
X1306180Y1847970D01*
G03X1291820I-7180J-7180D01*
G37*
G36*
G01X1346530Y2210000D02*
X1326540Y2229990D01*
Y2330000D01*
X1680000D01*
X1700000Y2310000D01*
Y2220000D01*
X1690000Y2210000D01*
X1346530D01*
G37*
G36*
G01X1745740Y2200000D02*
Y2271440D01*
X1745800Y2271980D01*
G03Y2288020I-75800J8020D01*
G01X1745740Y2288560D01*
Y2328950D01*
X1698950Y2375740D01*
X1326540D01*
Y2694740D01*
X1591460D01*
Y2697480D01*
G02X1608800Y2704660I10159J-5D01*
G01X2053460Y2260010D01*
Y2200000D01*
X1745740D01*
G37*
G36*
G01X1339690Y2875440D02*
X1304280Y2831920D01*
X1350000Y2779850D01*
X1395720Y2831920D01*
X1360310Y2875440D01*
G03X1339690I-10310J-23210D01*
G37*
G36*
G01X1360310Y2924560D02*
X1395720Y2968080D01*
X1350000Y3020150D01*
X1304280Y2968080D01*
X1339690Y2924560D01*
G03X1360310I10310J23210D01*
G37*
G36*
G01X1301120Y3110320D02*
X1395720Y3120480D01*
X1351860Y3167940D01*
X1304280Y3211920D01*
X1290970Y3120830D01*
G03X1301120Y3110320I10150J-354D01*
G37*
G36*
G01X1337590Y3257660D02*
X1326220Y3269030D01*
Y3389690D01*
X1326540Y3390010D01*
Y3720010D01*
X1559990Y3953460D01*
X3559990D01*
X3709410Y4102880D01*
G02X3744100Y4088510I14369J-14369D01*
G01Y4053150D01*
X3596850Y3905900D01*
X1766850D01*
X1524100Y3663150D01*
Y3343150D01*
X1523780Y3342830D01*
Y3269030D01*
X1512410Y3257660D01*
X1337590D01*
G37*
G36*
G01X1340760Y5553490D02*
X1384280Y5518080D01*
X1436350Y5563800D01*
X1384280Y5609520D01*
X1340760Y5574110D01*
G03Y5553490I23210J-10310D01*
G37*
G36*
G01X1339240Y5574110D02*
X1295720Y5609520D01*
X1243650Y5563800D01*
X1295720Y5518080D01*
X1339240Y5553490D01*
G03Y5574110I-23210J10310D01*
G37*
G36*
G01X1242570Y5805230D02*
X1204280Y5761920D01*
X1250000Y5713020D01*
X1295720Y5761920D01*
X1257430Y5805230D01*
G03X1242570I-7430J-10300D01*
G37*
G36*
G01X1257430Y5784770D02*
X1295720Y5828080D01*
X1250000Y5876980D01*
X1204280Y5828080D01*
X1242570Y5784770D01*
G03X1257430I7430J10300D01*
G37*
G36*
G01X1218440Y5965260D02*
Y6399860D01*
G02X1253130Y6414230I20321J0D01*
G01X1281560Y6385790D01*
Y5988010D01*
X1258810Y5965260D01*
X1218440D01*
G37*
G36*
G01X1489690Y2875440D02*
X1454280Y2831920D01*
X1500000Y2779850D01*
X1545720Y2831920D01*
X1510310Y2875440D01*
G03X1489690I-10310J-23210D01*
G37*
G36*
G01X1510310Y2924560D02*
X1545720Y2968080D01*
X1500000Y3020150D01*
X1454280Y2968080D01*
X1489690Y2924560D01*
G03X1510310I10310J23210D01*
G37*
G36*
G01X1555880Y3114280D02*
X1545720Y3211920D01*
X1498320Y3168110D01*
X1454280Y3120480D01*
X1545030Y3104140D01*
G03X1555880Y3114280I687J10140D01*
G37*
G36*
G01X1519240Y5574110D02*
X1475720Y5609520D01*
X1423650Y5563800D01*
X1475720Y5518080D01*
X1519240Y5553490D01*
G03Y5574110I-23210J10310D01*
G37*
G36*
G01X1521460Y5634940D02*
Y5779240D01*
X1507530Y5795000D01*
X1521460Y5810760D01*
Y5882610D01*
X1578440Y5939590D01*
Y6324210D01*
X1358440Y6544210D01*
Y6959260D01*
X1575740D01*
Y6960000D01*
X1654260D01*
Y6959260D01*
X1731560D01*
Y5939590D01*
X1788540Y5882610D01*
Y5782340D01*
X1971460D01*
Y5934740D01*
X2150760D01*
Y5884900D01*
X2468630D01*
X2508860Y5844670D01*
Y5679470D01*
X2464330Y5634940D01*
X1521460D01*
G37*
G36*
G01X1422570Y5805230D02*
X1384280Y5761920D01*
X1430000Y5713020D01*
X1475720Y5761920D01*
X1437430Y5805230D01*
G03X1422570I-7430J-10300D01*
G37*
G36*
G01X1437430Y5784770D02*
X1475720Y5828080D01*
X1430000Y5876980D01*
X1384280Y5828080D01*
X1422570Y5784770D01*
G03X1437430I7430J10300D01*
G37*
G36*
G01X1398440Y5965260D02*
Y6289860D01*
G02X1433130Y6304230I20321J0D01*
G01X1461560Y6275790D01*
Y5988010D01*
X1438810Y5965260D01*
X1398440D01*
G37*
G36*
G01X1595040Y2063800D02*
X1595050Y1989000D01*
X1681800Y1987200D01*
X1680000Y2073950D01*
X1605200Y2073960D01*
G03X1595040Y2063800I0J-10160D01*
G37*
G36*
G01X1710310Y2924560D02*
X1745720Y2968080D01*
X1700000Y3020150D01*
X1654280Y2968080D01*
X1689690Y2924560D01*
G03X1710310I10310J23210D01*
G37*
G36*
G01X1655040Y3103510D02*
X1745720Y3120480D01*
X1701670Y3168120D01*
X1654280Y3211920D01*
X1644120Y3113640D01*
G03X1655040Y3103510I10159J0D01*
G37*
G36*
G01X2205900Y2200000D02*
Y2323150D01*
X1722600Y2806450D01*
G02X1729190Y2839590I14370J14368D01*
G03X1774670Y2925290I-29191J70409D01*
G01X1773710Y2930000D01*
X1791460Y2951820D01*
Y3257660D01*
X1687590D01*
X1676220Y3269030D01*
Y3279690D01*
X1676540Y3280010D01*
Y3600010D01*
X1829990Y3753460D01*
X3659990D01*
X3868770Y3962240D01*
G02X3903460Y3947870I14369J-14369D01*
G01Y3872510D01*
X3747490Y3716540D01*
X2967490D01*
X2823460Y3572510D01*
Y3305050D01*
X2797170D01*
X2749780Y3257660D01*
X2708540D01*
Y2951820D01*
X2726290Y2930000D01*
X2725330Y2925290D01*
G03X2802980Y2833840I74670J-15289D01*
G02X2824100Y2813530I800J-20305D01*
G01Y2753150D01*
X2414100Y2343150D01*
Y2200000D01*
X2205900D01*
G37*
G36*
G01X1575740Y7400000D02*
Y7400740D01*
X1565900D01*
Y7629370D01*
X1759990Y7823460D01*
X3126300D01*
G02X3133130Y7805770I6J-10161D01*
G01X3111200Y7785900D01*
X1806850D01*
X1664100Y7643150D01*
Y7400740D01*
X1654260D01*
Y7400000D01*
X1575740D01*
G37*
G36*
G01X1848570Y6130470D02*
X1834280Y6071920D01*
X1880630Y6023090D01*
X1925720Y6071920D01*
X1867970Y6134820D01*
G03X1848570Y6130470I-7970J-9889D01*
G37*
G36*
G01X1883150Y7504100D02*
X2372070D01*
G02X2386440Y7469410I4J-20320D01*
G01X2354260Y7437230D01*
Y7400740D01*
X2214260D01*
Y7400000D01*
X1925740D01*
Y7400740D01*
X1845900D01*
Y7466850D01*
X1883150Y7504100D01*
G37*
G36*
G01X1945820Y6117660D02*
X1918440Y6147480D01*
Y6959260D01*
X1925740D01*
Y6960000D01*
X2214260D01*
Y6959260D01*
X2221560D01*
Y6280410D01*
X2058810Y6117660D01*
X1945820D01*
G37*
G36*
G01X2620000Y8860000D02*
X2580000Y8900000D01*
Y9160000D01*
X2560000Y9180000D01*
X2555100D01*
Y9199240D01*
X2336620D01*
Y9180000D01*
X2223380D01*
Y9209240D01*
X2090760D01*
X2060000Y9240000D01*
Y9530000D01*
X2310000D01*
X2336620Y9503380D01*
Y9360760D01*
X2555100D01*
Y9390000D01*
X2570000D01*
X2580000Y9400000D01*
Y9540000D01*
X2970000D01*
X2980000Y9530000D01*
Y9428240D01*
X2825860D01*
Y9410000D01*
X2810000D01*
X2800000Y9400000D01*
Y9300000D01*
X2810000Y9290000D01*
X2825860D01*
Y9271760D01*
X2990000D01*
Y9068240D01*
X2825860D01*
Y9050000D01*
X2810000D01*
X2800000Y9040000D01*
Y8950000D01*
X2820000Y8930000D01*
X2825860D01*
Y8911760D01*
X2980000D01*
Y8860000D01*
X2620000D01*
G37*
G36*
G01X2400760Y6126610D02*
X2396520Y6038490D01*
X2461500Y5989370D01*
X2511790Y6057640D01*
X2431380Y6137590D01*
G03X2400760Y6126610I-11380J-16449D01*
G37*
G36*
G01X2919590Y5518440D02*
X2598100D01*
G02X2583740Y5553130I4J20319D01*
G01X2651140Y5620530D01*
Y5903610D01*
X2569240Y5985510D01*
Y6103380D01*
X2530660D01*
X2485740Y6148040D01*
Y6970000D01*
X2600000D01*
Y7394260D01*
X3293430D01*
X3367710Y7468540D01*
X3398860D01*
Y6753610D01*
X3320680Y6675430D01*
X3210430D01*
Y6464830D01*
G02X3193540Y6457220I-10159J0D01*
G01X3193040Y6457660D01*
X3038540D01*
Y6122340D01*
X3193040D01*
X3197550Y6126330D01*
X3210430Y6113430D01*
Y6084570D01*
X3254170D01*
X3367370Y6074130D01*
X3418710Y6022780D01*
Y5901460D01*
X3202340D01*
Y5801190D01*
X2919590Y5518440D01*
G37*
G36*
G01X2779960Y1660200D02*
X2779950Y1735000D01*
X2693200Y1736800D01*
X2695000Y1650050D01*
X2769800Y1650040D01*
G03X2779960Y1660200I0J10160D01*
G37*
G36*
G01X2566540Y2200000D02*
Y2280010D01*
X2981270Y2694740D01*
X3228730D01*
X3664100Y2259370D01*
Y2200000D01*
X3255740D01*
Y2375740D01*
X2904260D01*
Y2200000D01*
X2566540D01*
G37*
G36*
G01X2829180Y1876030D02*
X2882070Y1928920D01*
X2822000Y1991540D01*
X2761930Y1928920D01*
X2814820Y1876030D01*
G03X2829180I7180J7180D01*
G37*
G36*
G01X2810310Y2924560D02*
X2845720Y2968080D01*
X2800000Y3020150D01*
X2754280Y2968080D01*
X2789690Y2924560D01*
G03X2810310I10310J23210D01*
G37*
G36*
G01X2795170Y3237770D02*
X2768720Y3211910D01*
X2800000Y3163660D01*
X2831280Y3211910D01*
X2804830Y3237770D01*
G03X2795170I-4830J-8940D01*
G37*
G36*
G01X2859670Y3120900D02*
X2845720Y3211920D01*
X2798130Y3167920D01*
X2754280Y3120480D01*
X2849520Y3110320D01*
G03X2859670Y3120900I0J10159D01*
G37*
G36*
G01X3033960Y1660200D02*
X3033950Y1735000D01*
X2947200Y1736800D01*
X2949000Y1650050D01*
X3023800Y1650040D01*
G03X3033960Y1660200I0J10160D01*
G37*
G36*
G01X3135560Y2105560D02*
X3129180Y2108400D01*
G03X3028050Y2110600I-53186J-119400D01*
G01X3021850Y2108150D01*
X2950000Y2180000D01*
Y2330000D01*
X3210000D01*
Y2180000D01*
X3135560Y2105560D01*
G37*
G36*
G01X2989690Y2875440D02*
X2954280Y2831920D01*
X3000000Y2779850D01*
X3045720Y2831920D01*
X3010310Y2875440D01*
G03X2989690I-10310J-23210D01*
G37*
G36*
G01X3010310Y2924560D02*
X3045720Y2968080D01*
X3000000Y3020150D01*
X2954280Y2968080D01*
X2989690Y2924560D01*
G03X3010310I10310J23210D01*
G37*
G36*
G01X2995170Y3237770D02*
X2968720Y3211910D01*
X3000000Y3163660D01*
X3031280Y3211910D01*
X3004830Y3237770D01*
G03X2995170I-4830J-8940D01*
G37*
G36*
G01X2951120Y3110320D02*
X3045720Y3120480D01*
X3001860Y3167940D01*
X2954280Y3211920D01*
X2940970Y3120830D01*
G03X2951120Y3110320I10150J-354D01*
G37*
G36*
G01X3050220Y3257660D02*
X3002830Y3305050D01*
X2976220D01*
Y3349670D01*
X2975900Y3349990D01*
Y3509370D01*
X3030630Y3564100D01*
X3810630D01*
X4019410Y3772880D01*
G02X4054100Y3758510I14369J-14369D01*
G01Y3743150D01*
X3837490Y3526540D01*
X3277490D01*
X3174100Y3423150D01*
Y3333150D01*
X3173780Y3332830D01*
Y3305050D01*
X3147170D01*
X3099780Y3257660D01*
X3050220D01*
G37*
G36*
G01X3017660Y4772500D02*
X3007500Y4920000D01*
X2948490Y4852040D01*
X2892500Y4780000D01*
X3006840Y4762360D01*
G03X3017660Y4772500I659J10140D01*
G37*
G36*
G01X3490000Y8020000D02*
X3060000D01*
X3040000Y8040000D01*
Y8190000D01*
X3050000Y8200000D01*
X3490000D01*
Y8020000D01*
G37*
G36*
G01X3009510Y8995410D02*
X2977600Y9022500D01*
X2918250Y8990000D01*
X2977600Y8957500D01*
X3009510Y8984590D01*
G03Y8995410I-24820J5410D01*
G37*
G36*
G01Y9355410D02*
X2977600Y9382500D01*
X2918250Y9350000D01*
X2977600Y9317500D01*
X3009510Y9344590D01*
G03Y9355410I-24820J5410D01*
G37*
G36*
G01X3139690Y2875440D02*
X3104280Y2831920D01*
X3150000Y2779850D01*
X3195720Y2831920D01*
X3160310Y2875440D01*
G03X3139690I-10310J-23210D01*
G37*
G36*
G01X3160310Y2924560D02*
X3195720Y2968080D01*
X3150000Y3020150D01*
X3104280Y2968080D01*
X3139690Y2924560D01*
G03X3160310I10310J23210D01*
G37*
G36*
G01X3145170Y3237770D02*
X3118720Y3211910D01*
X3150000Y3163660D01*
X3181280Y3211910D01*
X3154830Y3237770D01*
G03X3145170I-4830J-8940D01*
G37*
G36*
G01X3209670Y3120900D02*
X3195720Y3211920D01*
X3148130Y3167920D01*
X3104280Y3120480D01*
X3199520Y3110320D01*
G03X3209670Y3120900I0J10159D01*
G37*
G36*
G01X3235050Y4636600D02*
X3167500Y4700000D01*
X3107460Y4630000D01*
X3167500Y4560000D01*
X3235050Y4623400D01*
G03Y4636600I-7720J6600D01*
G37*
G36*
G01X3182650Y6205990D02*
X3256190Y6132340D01*
X3318980Y6189400D01*
X3256170Y6249690D01*
X3186420Y6224860D01*
G03X3182650Y6205990I6248J-11060D01*
G37*
G36*
G01X3219030Y6221230D02*
X3175720Y6259520D01*
X3126820Y6213800D01*
X3175720Y6168080D01*
X3219030Y6206370D01*
G03Y6221230I-10300J7430D01*
G37*
G36*
G01X3187740Y6356060D02*
X3256170Y6320310D01*
X3319010Y6380360D01*
X3256170Y6439690D01*
X3185600Y6374290D01*
G03X3187740Y6356060I9790J-8091D01*
G37*
G36*
G01X3219030Y6373630D02*
X3175720Y6411920D01*
X3126820Y6366200D01*
X3175720Y6320480D01*
X3219030Y6358770D01*
G03Y6373630I-10300J7430D01*
G37*
G36*
G01X3124510Y7553760D02*
X3168080Y7514280D01*
X3216340Y7560000D01*
X3168080Y7605720D01*
X3124510Y7566240D01*
G03Y7553760I8020J-6240D01*
G37*
G36*
G01Y7723760D02*
X3168080Y7684280D01*
X3216340Y7730000D01*
X3168080Y7775720D01*
X3124510Y7736240D01*
G03Y7723760I8020J-6240D01*
G37*
G36*
G01X3160000Y8580000D02*
Y8770000D01*
X3280000D01*
X3300000Y8790000D01*
Y8980000D01*
X3270000Y9010000D01*
X3140000D01*
X3130000Y9020000D01*
Y9150000D01*
X3150000Y9170000D01*
X3520000D01*
Y9020000D01*
X3544900Y8995100D01*
Y8980760D01*
X3559240D01*
X3670000Y8870000D01*
X3690000D01*
Y8770000D01*
X3500000D01*
X3490000Y8760000D01*
Y8580000D01*
X3160000D01*
G37*
G36*
G01X3490000Y9240000D02*
X3380000D01*
X3330000Y9290000D01*
Y9350000D01*
X3280000Y9400000D01*
X3140000D01*
X3130000Y9410000D01*
Y9530000D01*
X3140000Y9540000D01*
X3520000D01*
Y9270000D01*
X3490000Y9240000D01*
G37*
G36*
G01X3337180Y1876030D02*
X3390070Y1928920D01*
X3330000Y1991540D01*
X3269930Y1928920D01*
X3322820Y1876030D01*
G03X3337180I7180J7180D01*
G37*
G36*
G01X4393780Y4035520D02*
Y3337170D01*
X4435280Y3295670D01*
G02X4423990Y3261210I-14368J-14372D01*
G01X4358540Y3251180D01*
Y2951820D01*
X4376290Y2930000D01*
X4375330Y2925290D01*
G03X4452980Y2833840I74670J-15289D01*
G02X4474100Y2813530I800J-20305D01*
G01Y2200000D01*
X3816540D01*
Y2322510D01*
X3326540Y2812510D01*
Y2834810D01*
X3337490D01*
X3338260Y2834690D01*
G03X3424670Y2925290I11740J75310D01*
G01X3423710Y2930000D01*
X3441460Y2951820D01*
Y3257660D01*
X3400220D01*
X3352830Y3305050D01*
X3326540D01*
Y3360010D01*
X3340630Y3374100D01*
X3900630D01*
X4206540Y3680010D01*
Y4009400D01*
G02X4238040Y4026370I20320J2D01*
G03X4331810Y4034100I41958J63631D01*
G01X4370000D01*
G03X4378690Y4034780I-3J55901D01*
G03X4381530Y4035300I-8645J55228D01*
G01X4382560Y4035520D01*
X4393780D01*
G37*
G36*
G01X3360310Y2924560D02*
X3395720Y2968080D01*
X3350000Y3020150D01*
X3304280Y2968080D01*
X3339690Y2924560D01*
G03X3360310I10310J23210D01*
G37*
G36*
G01X3345170Y3237770D02*
X3318720Y3211910D01*
X3350000Y3163660D01*
X3381280Y3211910D01*
X3354830Y3237770D01*
G03X3345170I-4830J-8940D01*
G37*
G36*
G01X3301120Y3110320D02*
X3395720Y3120480D01*
X3351860Y3167940D01*
X3304280Y3211920D01*
X3290970Y3120830D01*
G03X3301120Y3110320I10150J-354D01*
G37*
G36*
G01X3256260Y4622010D02*
X3308080Y4594280D01*
X3356320Y4640280D01*
X3308080Y4685720D01*
X3254660Y4636430D01*
G03X3256260Y4622010I7870J-6426D01*
G37*
G36*
G01X3406370Y6132240D02*
X3375550Y6249690D01*
X3313340Y6191930D01*
X3256170Y6130320D01*
X3393820Y6117620D01*
G03X3406370Y6132240I0J12697D01*
G37*
G36*
G01X3455440Y7570310D02*
X3411920Y7605720D01*
X3359850Y7560000D01*
X3411920Y7514280D01*
X3455440Y7549690D01*
G03Y7570310I-23210J10310D01*
G37*
G36*
G01X3455230Y7737430D02*
X3411920Y7775720D01*
X3363020Y7730000D01*
X3411920Y7684280D01*
X3455230Y7722570D01*
G03Y7737430I-10300J7430D01*
G37*
G36*
G01X3445260Y4541460D02*
Y4652410D01*
X3456950Y4664100D01*
X3602190D01*
G02X3616560Y4629410I1J-20321D01*
G01X3528610Y4541460D01*
X3445260D01*
G37*
G36*
G01X3535490Y5506240D02*
X3491920Y5545720D01*
X3443660Y5500000D01*
X3491920Y5454280D01*
X3535490Y5493760D01*
G03Y5506240I-8020J6240D01*
G37*
G36*
G01X3537660Y5894570D02*
X3601530D01*
X3653160Y5941560D01*
X3694210D01*
X3914210Y6161560D01*
X4121560D01*
Y5872660D01*
X4876290D01*
G02X4891800Y5839220I-4J-20319D01*
G03X4888480Y5745000I58199J-49219D01*
G03Y5655000I61520J-45000D01*
G03X4875000Y5596430I61521J-44995D01*
G01X4875940Y5591200D01*
X4832410Y5547660D01*
X4728540D01*
Y5254130D01*
X4732230Y5232950D01*
G02X4715030Y5224020I-10011J-1747D01*
G01X4283150Y5655900D01*
X3679350D01*
X3537660Y5797590D01*
Y5894570D01*
G37*
G36*
G01X3640790Y6007850D02*
X3583830Y6059690D01*
X3520960Y6000000D01*
X3583830Y5940310D01*
X3640790Y5992150D01*
G03Y6007850I-9980J7850D01*
G37*
G36*
G01X3652260Y6213940D02*
X3583830Y6249690D01*
X3520990Y6189640D01*
X3583830Y6130310D01*
X3654400Y6195710D01*
G03X3652260Y6213940I-9790J8091D01*
G37*
G36*
G01X3657350Y6364010D02*
X3583810Y6437660D01*
X3521020Y6380600D01*
X3583830Y6320310D01*
X3653580Y6345140D01*
G03X3657350Y6364010I-6248J11060D01*
G37*
G36*
G01X3446180Y6497620D02*
X3583830Y6510320D01*
X3526660Y6571930D01*
X3464450Y6629690D01*
X3433630Y6512240D01*
G03X3446180Y6497620I12550J-1923D01*
G37*
G36*
G01X3640790Y6577850D02*
X3583830Y6629690D01*
X3520960Y6570000D01*
X3583830Y6510310D01*
X3640790Y6562150D01*
G03Y6577850I-9980J7850D01*
G37*
G36*
G01X3435880Y7721020D02*
X3448460Y7708460D01*
X3473180Y7730000D01*
X3448460Y7751540D01*
X3435880Y7738980D01*
G03Y7721020I8980J-8980D01*
G37*
G36*
G01X3535740Y7975900D02*
Y8213260D01*
G02X3569520Y8228480I20320J-4D01*
G01X3580760Y8218540D01*
X3859240D01*
X3879710Y8236640D01*
X3899470Y8222340D01*
X4023040D01*
X4029900Y8228400D01*
G02X4063530Y8215610I13457J-15224D01*
G01X4071950Y8145860D01*
X4223240D01*
Y8335280D01*
X4141400Y8351240D01*
X4120410Y8372240D01*
X4060390D01*
X4048910Y8382390D01*
G02Y8397610I6730J7610D01*
G01X4060390Y8407760D01*
X4130410D01*
X4133540Y8410890D01*
X4223240Y8421960D01*
Y8614140D01*
X4074530D01*
X4064740Y8561840D01*
G02X4031310Y8550350I-19974J3736D01*
G01X4023040Y8557660D01*
X3887660D01*
Y8724740D01*
X4023040D01*
X4060390Y8757760D01*
X4233450D01*
G02X4252390Y8730090I-4J-20320D01*
G03X4271540Y8640740I77610J-30093D01*
G01X4271560Y8640720D01*
X4276560Y8635720D01*
Y8614140D01*
X4256760D01*
Y8416660D01*
X4413240D01*
Y8491560D01*
X4639020D01*
X4664900Y8425280D01*
X4668060Y8421400D01*
Y8338600D01*
X4659170Y8327660D01*
Y8213900D01*
X4668060Y8202960D01*
Y8158930D01*
G03X4651580Y8124010I58441J-48929D01*
G02X4617240Y8113370I-19974J3730D01*
G01X4611140Y8119470D01*
Y8216850D01*
X4631460Y8241820D01*
Y8395260D01*
X4478020D01*
X4453050Y8374940D01*
X4364730D01*
X4348890Y8359100D01*
X4256760Y8331730D01*
Y8145860D01*
X4397100D01*
X4436080Y8232660D01*
X4453050D01*
X4461770Y8225570D01*
X4468860Y8216850D01*
Y8060530D01*
X4518800Y8010590D01*
G02X4504440Y7975900I-14364J-14371D01*
G01X3535740D01*
G37*
G36*
G01X3554770Y8462570D02*
X3598080Y8424280D01*
X3646980Y8470000D01*
X3598080Y8515720D01*
X3554770Y8477430D01*
G03Y8462570I10300J-7430D01*
G37*
G36*
G01Y8302570D02*
X3598080Y8264280D01*
X3646980Y8310000D01*
X3598080Y8355720D01*
X3554770Y8317430D01*
G03Y8302570I10300J-7430D01*
G37*
G36*
G01X3535740Y8566740D02*
Y8724260D01*
X3704740D01*
Y8561460D01*
X3580760D01*
X3569520Y8551520D01*
G02X3535740Y8566740I-13460J15224D01*
G37*
G36*
G01X3620970Y6196370D02*
X3664280Y6158080D01*
X3713180Y6203800D01*
X3664280Y6249520D01*
X3620970Y6211230D01*
G03Y6196370I10300J-7430D01*
G37*
G36*
G01X3829260Y6327780D02*
X3755720Y6401920D01*
X3706990Y6357200D01*
X3664280Y6310480D01*
X3820000Y6307320D01*
G03X3829260Y6327780I-779J12678D01*
G37*
G36*
G01X3620970Y6348770D02*
X3664280Y6310480D01*
X3713180Y6356200D01*
X3664280Y6401920D01*
X3620970Y6363630D01*
G03Y6348770I10300J-7430D01*
G37*
G36*
G01X3707180Y7615340D02*
X3721550Y7629710D01*
X3700000Y7653800D01*
X3678450Y7629710D01*
X3692820Y7615340D01*
G03X3707180I7180J7180D01*
G37*
G36*
G01X3617180Y7614080D02*
X3631550Y7628450D01*
X3610000Y7652540D01*
X3588450Y7628450D01*
X3602820Y7614080D01*
G03X3617180I7180J7180D01*
G37*
G36*
G01X3865910Y6768020D02*
X3878400Y6757300D01*
X3982540Y6770000D01*
X3878400Y6782700D01*
X3865910Y6771980D01*
G03Y6768020I9960J-1980D01*
G37*
G36*
G01Y6668020D02*
X3878400Y6657300D01*
X3982540Y6670000D01*
X3878400Y6682700D01*
X3865910Y6671980D01*
G03Y6668020I9960J-1980D01*
G37*
G36*
G01X3755900Y6863150D02*
Y7110520D01*
G02X3773240Y7117700I10159J-5D01*
G01X3776850Y7114100D01*
X3832660D01*
Y6825900D01*
X3793150D01*
X3755900Y6863150D01*
G37*
G36*
G01X3865910Y7168020D02*
X3878400Y7157300D01*
X3982540Y7170000D01*
X3878400Y7182700D01*
X3865910Y7171980D01*
G03Y7168020I9960J-1980D01*
G37*
G36*
G01Y7218020D02*
X3878400Y7207300D01*
X3982540Y7220000D01*
X3878400Y7232700D01*
X3865910Y7221980D01*
G03Y7218020I9960J-1980D01*
G37*
G36*
G01X3867930Y8301620D02*
X3914280Y8268080D01*
X3963170Y8313950D01*
X3914280Y8359520D01*
X3867280Y8317580D01*
G03X3867930Y8301620I10190J-7578D01*
G37*
G36*
G01X3885230Y8317430D02*
X3841920Y8355720D01*
X3793020Y8310000D01*
X3841920Y8264280D01*
X3885230Y8302570D01*
G03Y8317430I-10300J7430D01*
G37*
G36*
G01X3867280Y8462420D02*
X3914280Y8420480D01*
X3963170Y8466050D01*
X3914280Y8511920D01*
X3867930Y8478380D01*
G03X3867280Y8462420I9540J-8382D01*
G37*
G36*
G01X3885230Y8477430D02*
X3841920Y8515720D01*
X3793020Y8470000D01*
X3841920Y8424280D01*
X3885230Y8462570D01*
G03Y8477430I-10300J7430D01*
G37*
G36*
G01X3788770Y8749030D02*
X3750480Y8705720D01*
X3796200Y8656820D01*
X3841920Y8705720D01*
X3803630Y8749030D01*
G03X3788770I-7430J-10300D01*
G37*
G36*
G01X3885230Y8827430D02*
X3841920Y8865720D01*
X3793020Y8820000D01*
X3841920Y8774280D01*
X3885230Y8812570D01*
G03Y8827430I-10300J7430D01*
G37*
G36*
G01X3803630Y8730970D02*
X3841920Y8774280D01*
X3796200Y8823180D01*
X3750480Y8774280D01*
X3788770Y8730970D01*
G03X3803630I7430J10300D01*
G37*
G36*
G01X3867280Y8812420D02*
X3914280Y8770480D01*
X3963170Y8816050D01*
X3914280Y8861920D01*
X3867930Y8828380D01*
G03X3867280Y8812420I9540J-8382D01*
G37*
G36*
G01X4049030Y8321230D02*
X4005720Y8359520D01*
X3956820Y8313800D01*
X4005720Y8268080D01*
X4049030Y8306370D01*
G03Y8321230I-10300J7430D01*
G37*
G36*
G01Y8473630D02*
X4005720Y8511920D01*
X3956820Y8466200D01*
X4005720Y8420480D01*
X4049030Y8458770D01*
G03Y8473630I-10300J7430D01*
G37*
G36*
G01Y8823630D02*
X4005720Y8861920D01*
X3956820Y8816200D01*
X4005720Y8770480D01*
X4049030Y8808770D01*
G03Y8823630I-10300J7430D01*
G37*
G36*
G01X4127340Y6167340D02*
Y6976080D01*
G02X4152360Y6995850I20320J1D01*
G03Y7144150I17640J74150D01*
G02X4127340Y7163920I-4700J19769D01*
G01Y7307060D01*
G02X4162030Y7321430I20321J1D01*
G01X4220960Y7262500D01*
X5329040D01*
X5406540Y7340000D01*
Y7340010D01*
X5415320Y7348780D01*
G02X5432660Y7341600I7181J-7185D01*
G01Y6813920D01*
G02X5407640Y6794150I-20320J-1D01*
G03X5314930Y6706790I-17642J-74151D01*
G02X5289680Y6683640I-20010J-3520D01*
G03X5218190Y6665900I-19673J-73638D01*
G01X4796850D01*
X4524100Y6393150D01*
Y6167340D01*
X4127340D01*
G37*
G36*
G01X4135880Y7061020D02*
X4148460Y7048460D01*
X4173180Y7070000D01*
X4148460Y7091540D01*
X4135880Y7078980D01*
G03Y7061020I8980J-8980D01*
G37*
G36*
G01X4099700Y8297590D02*
X4112500Y8191600D01*
X4146660Y8241900D01*
X4177500Y8297600D01*
X4112400Y8310300D01*
G03X4099700Y8297590I0J-12700D01*
G37*
G36*
G01X4105520Y8453520D02*
X4177500Y8462400D01*
X4146970Y8517890D01*
X4112500Y8568400D01*
X4093520Y8466980D01*
G03X4105520Y8453520I12677J-777D01*
G37*
G36*
G01X4387120Y1835290D02*
X4322110Y1813610D01*
X4343860Y1732730D01*
X4421630Y1763840D01*
X4399970Y1828860D01*
G03X4387120Y1835290I-9640J-3210D01*
G37*
G36*
G01X4429870Y1888700D02*
X4494900Y1910380D01*
X4473140Y1991270D01*
X4395360Y1960160D01*
X4417020Y1895130D01*
G03X4429870Y1888700I9640J3210D01*
G37*
G36*
G01X4370000Y4079840D02*
X4406500Y4090000D01*
X4400380Y4138620D01*
X4383500Y4170000D01*
X4359980Y4091690D01*
G03X4370000Y4079840I10020J-1689D01*
G37*
G36*
G01X4315920Y4097180D02*
X4301550Y4111550D01*
X4277460Y4090000D01*
X4301550Y4068450D01*
X4315920Y4082820D01*
G03Y4097180I-7180J7180D01*
G37*
G36*
G01X4389080Y4297820D02*
X4403450Y4283450D01*
X4427540Y4305000D01*
X4403450Y4326550D01*
X4389080Y4312180D01*
G03Y4297820I7180J-7180D01*
G37*
G36*
G01Y4547820D02*
X4403450Y4533450D01*
X4427540Y4555000D01*
X4403450Y4576550D01*
X4389080Y4562180D01*
G03Y4547820I7180J-7180D01*
G37*
G36*
G01Y4747820D02*
X4403450Y4733450D01*
X4427540Y4755000D01*
X4403450Y4776550D01*
X4389080Y4762180D01*
G03Y4747820I7180J-7180D01*
G37*
G36*
G01Y4897820D02*
X4403450Y4883450D01*
X4427540Y4905000D01*
X4403450Y4926550D01*
X4389080Y4912180D01*
G03Y4897820I7180J-7180D01*
G37*
G36*
G01X4313930Y5004470D02*
X4280000Y4966500D01*
X4320000Y4952460D01*
X4360000Y4966500D01*
X4326070Y5004470D01*
G03X4313930I-6070J-8140D01*
G37*
G36*
G01X4388000Y8323000D02*
X4302500Y8297600D01*
X4330510Y8240110D01*
X4367500Y8191600D01*
X4412940Y8292780D01*
G03X4388000Y8323000I-24940J4819D01*
G37*
G36*
G01X4346100Y8653750D02*
X4358630Y8676290D01*
X4329610Y8703150D01*
X4303490Y8673480D01*
X4326020Y8650950D01*
G03X4346100Y8653750I8983J8979D01*
G37*
G36*
G01X4591820Y1847970D02*
X4538930Y1795080D01*
X4599000Y1732460D01*
X4659070Y1795080D01*
X4606180Y1847970D01*
G03X4591820I-7180J-7180D01*
G37*
G36*
G01X4460310Y2924560D02*
X4495720Y2968080D01*
X4450000Y3020150D01*
X4404280Y2968080D01*
X4439690Y2924560D01*
G03X4460310I10310J23210D01*
G37*
G36*
G01X4495300Y3225870D02*
X4404280Y3211920D01*
X4448280Y3164330D01*
X4495720Y3120480D01*
X4505880Y3215720D01*
G03X4495300Y3225870I-10159J0D01*
G37*
G36*
G01X4509670Y3120900D02*
X4495720Y3211920D01*
X4448130Y3167920D01*
X4404280Y3120480D01*
X4499520Y3110320D01*
G03X4509670Y3120900I0J10159D01*
G37*
G36*
G01X4699370Y3257660D02*
X4626540Y3269340D01*
Y3319990D01*
X4546220Y3400310D01*
Y3485670D01*
G02X4580910Y3500040I20321J1D01*
G01X4788600Y3292350D01*
G02X4774230Y3257660I-14369J-14369D01*
G01X4699370D01*
G37*
G36*
G01X4552180Y4199080D02*
X4566550Y4213450D01*
X4545000Y4237540D01*
X4523450Y4213450D01*
X4537820Y4199080D01*
G03X4552180I7180J7180D01*
G37*
G36*
G01X4425840Y4478780D02*
G03Y4631220I-840J76220D01*
G02X4405740Y4651530I218J20317D01*
G01Y4658470D01*
G02X4425840Y4678780I20318J-7D01*
G03X4472990Y4814210I-841J76216D01*
G02Y4845790I12796J15790D01*
G03X4485570Y4858730I-47975J59225D01*
G02X4511880Y4864000I16152J-12329D01*
G03X4626070Y4925220I38121J66001D01*
G02X4646350Y4944260I20279J-1280D01*
G01X4648470D01*
G02X4668780Y4924160I-7J-20318D01*
G03X4821220I76220J840D01*
G02X4841530Y4944260I20317J-218D01*
G01X5134260D01*
Y4590060D01*
G02X5102590Y4573210I-20320J4D01*
G03X5004100Y4458190I-42586J-63212D01*
G01Y4426850D01*
X5044420Y4386530D01*
G02X5044620Y4372360I-7185J-7188D01*
G03X5024660Y4308460I55380J-52366D01*
G03X4968780Y4235840I20338J-73459D01*
G02X4948470Y4215740I-20317J218D01*
G01X4891530D01*
G02X4871220Y4235840I7J20318D01*
G03X4718780I-76220J-840D01*
G02X4698470Y4215740I-20317J218D01*
G01X4641530D01*
G02X4621220Y4235840I7J20318D01*
G03X4524300Y4308360I-76218J-838D01*
G02X4499040Y4323090I-5522J19554D01*
G03X4425840Y4381220I-74044J-18086D01*
G02X4405740Y4401530I218J20317D01*
G01Y4458470D01*
G02X4425840Y4478780I20318J-7D01*
G37*
G36*
G01X4510560Y4945830D02*
X4520570Y4925520D01*
X4552110Y4928590D01*
X4550000Y4960480D01*
X4519680D01*
G03X4510560Y4945830I0J-10164D01*
G37*
G36*
G01X4578020Y6134090D02*
X4567300Y6121600D01*
X4580000Y6017460D01*
X4592700Y6121600D01*
X4581980Y6134090D01*
G03X4578020I-1980J-9960D01*
G37*
G36*
G01X4550310Y8214560D02*
X4585720Y8258080D01*
X4540000Y8310150D01*
X4494280Y8258080D01*
X4529690Y8214560D01*
G03X4550310I10310J23210D01*
G37*
G36*
G01X4450760Y8293490D02*
X4494280Y8258080D01*
X4546350Y8303800D01*
X4494280Y8349520D01*
X4450760Y8314110D01*
G03Y8293490I23210J-10310D01*
G37*
G36*
G01X4646530Y2210000D02*
X4626540Y2229990D01*
Y2330000D01*
X4980000D01*
X5000000Y2310000D01*
Y2220000D01*
X4990000Y2210000D01*
X4646530D01*
G37*
G36*
G01X4891460Y2694740D02*
Y2697480D01*
G02X4908800Y2704660I10159J-5D01*
G01X5353460Y2260010D01*
Y2200000D01*
X5045740D01*
Y2271440D01*
X5045800Y2271980D01*
G03Y2288020I-75800J8020D01*
G01X5045740Y2288560D01*
Y2328950D01*
X4998950Y2375740D01*
X4626540D01*
Y2694740D01*
X4891460D01*
G37*
G36*
G01X4639690Y2875440D02*
X4604280Y2831920D01*
X4650000Y2779850D01*
X4695720Y2831920D01*
X4660310Y2875440D01*
G03X4639690I-10310J-23210D01*
G37*
G36*
G01X4660310Y2924560D02*
X4695720Y2968080D01*
X4650000Y3020150D01*
X4604280Y2968080D01*
X4639690Y2924560D01*
G03X4660310I10310J23210D01*
G37*
G36*
G01X4594120Y3216360D02*
X4604280Y3120480D01*
X4651710Y3164320D01*
X4695720Y3211920D01*
X4604770Y3226510D01*
G03X4594120Y3216360I-488J-10150D01*
G37*
G36*
G01X4601120Y3110320D02*
X4695720Y3120480D01*
X4651860Y3167940D01*
X4604280Y3211920D01*
X4590970Y3120830D01*
G03X4601120Y3110320I10150J-354D01*
G37*
G36*
G01X6123780Y3299690D02*
Y3269030D01*
X6112410Y3257660D01*
X6008540D01*
Y2951820D01*
X6026290Y2930000D01*
X6025330Y2925290D01*
G03X6102980Y2833840I74670J-15289D01*
G02X6124100Y2813530I800J-20305D01*
G01Y2753150D01*
X5714100Y2343150D01*
Y2200000D01*
X5505900D01*
Y2323150D01*
X5022600Y2806450D01*
G02X5029190Y2839590I14370J14368D01*
G03X5074670Y2925290I-29191J70409D01*
G01X5073710Y2930000D01*
X5091460Y2951820D01*
Y3257660D01*
X4987590D01*
X4976540Y3268710D01*
Y3319990D01*
X4696220Y3600310D01*
Y3620200D01*
G02X4713560Y3627380I10159J-5D01*
G01X4986850Y3354100D01*
X6119370D01*
X6123460Y3350010D01*
Y3300010D01*
X6123780Y3299690D01*
G37*
G36*
G01X4737820Y4960920D02*
X4723450Y4946550D01*
X4745000Y4922460D01*
X4766550Y4946550D01*
X4752180Y4960920D01*
G03X4737820I-7180J-7180D01*
G37*
G36*
G01X4678020Y6134090D02*
X4667300Y6121600D01*
X4680000Y6017460D01*
X4692700Y6121600D01*
X4681980Y6134090D01*
G03X4678020I-1980J-9960D01*
G37*
G36*
G01X4628020D02*
X4617300Y6121600D01*
X4630000Y6017460D01*
X4642700Y6121600D01*
X4631980Y6134090D01*
G03X4628020I-1980J-9960D01*
G37*
G36*
G01X4728020D02*
X4717300Y6121600D01*
X4730000Y6017460D01*
X4742700Y6121600D01*
X4731980Y6134090D01*
G03X4728020I-1980J-9960D01*
G37*
G36*
G01X4721020Y7464120D02*
X4708460Y7451540D01*
X4730000Y7426820D01*
X4751540Y7451540D01*
X4738980Y7464120D01*
G03X4721020I-8980J-8980D01*
G37*
G36*
G01X4717520Y8144120D02*
X4704960Y8131540D01*
X4726500Y8106820D01*
X4748040Y8131540D01*
X4735480Y8144120D01*
G03X4717520I-8980J-8980D01*
G37*
G36*
G01X4731330Y8209510D02*
X4748090Y8230140D01*
X4726500Y8273960D01*
X4704910Y8230140D01*
X4721670Y8209510D01*
G03X4731330I4830J11750D01*
G37*
G36*
G01X4721670Y8332050D02*
X4704910Y8311420D01*
X4726500Y8267600D01*
X4748090Y8311420D01*
X4731330Y8332050D01*
G03X4721670I-4830J-11750D01*
G37*
G36*
G01X4674250Y8527070D02*
X4704910Y8448580D01*
X4728720Y8486950D01*
X4748090Y8529860D01*
X4686640Y8542560D01*
G03X4674250Y8527070I0J-12700D01*
G37*
G36*
G01X4731330Y8427950D02*
X4748090Y8448580D01*
X4726500Y8492400D01*
X4704910Y8448580D01*
X4721670Y8427950D01*
G03X4731330I4830J11750D01*
G37*
G36*
G01X4895040Y2063800D02*
X4895050Y1989000D01*
X4981800Y1987200D01*
X4980000Y2073950D01*
X4905200Y2073960D01*
G03X4895040Y2063800I0J-10160D01*
G37*
G36*
G01X4789690Y2875440D02*
X4754280Y2831920D01*
X4800000Y2779850D01*
X4845720Y2831920D01*
X4810310Y2875440D01*
G03X4789690I-10310J-23210D01*
G37*
G36*
G01X4810310Y2924560D02*
X4845720Y2968080D01*
X4800000Y3020150D01*
X4754280Y2968080D01*
X4789690Y2924560D01*
G03X4810310I10310J23210D01*
G37*
G36*
G01X4855880Y3114280D02*
X4845720Y3211920D01*
X4798320Y3168110D01*
X4754280Y3120480D01*
X4845030Y3104140D01*
G03X4855880Y3114280I687J10140D01*
G37*
G36*
G01X5056850Y3534100D02*
X6309370D01*
X6473460Y3370010D01*
Y3293150D01*
G03X6473730Y3287650I55901J-12D01*
G01X6473780Y3287160D01*
Y3268830D01*
X6400800Y3257660D01*
X6287590D01*
X6276220Y3269030D01*
Y3362830D01*
X6275900Y3363150D01*
Y3413150D01*
X6182510Y3506540D01*
X5049990D01*
X4796220Y3760310D01*
Y3770200D01*
G02X4813560Y3777380I10159J-5D01*
G01X5056850Y3534100D01*
G37*
G36*
G01X4802180Y4199080D02*
X4816550Y4213450D01*
X4795000Y4237540D01*
X4773450Y4213450D01*
X4787820Y4199080D01*
G03X4802180I7180J7180D01*
G37*
G36*
G01X4801610Y5189810D02*
X4865720Y5258080D01*
X4820580Y5306270D01*
X4774280Y5258080D01*
X4785390Y5194240D01*
G03X4801610Y5189810I9613J3289D01*
G37*
G36*
G01X4973920Y6167340D02*
G02X4954150Y6192360I-1J20320D01*
G03X4821750Y6259160I-74151J17641D01*
G02X4785900Y6272260I-15531J13102D01*
G01Y6284690D01*
X4834330Y6333120D01*
X5218190D01*
G03X5336730Y6425850I51808J55903D01*
G03Y6499510I-66730J36830D01*
G03Y6573170I-66730J36830D01*
G03X5345070Y6623210I-66728J36836D01*
G02X5370320Y6646360I20010J3520D01*
G03X5407640Y6645850I19670J73640D01*
G02X5432660Y6626080I4700J-19769D01*
G01Y6167340D01*
X5373920D01*
G02X5354150Y6192360I-1J20320D01*
G03X5205850I-74150J17640D01*
G02X5186080Y6167340I-19769J-4700D01*
G01X4973920D01*
G37*
G36*
G01X4888980Y6175880D02*
X4901540Y6188460D01*
X4880000Y6213180D01*
X4858460Y6188460D01*
X4871020Y6175880D01*
G03X4888980I8980J8980D01*
G37*
G36*
G01X4806110Y7434150D02*
G03X4804150Y7447640I-76107J-4170D01*
G02X4823920Y7472660I19769J4700D01*
G01X5274550D01*
G02X5288920Y7437970I1J-20321D01*
G01X5265890Y7414940D01*
X4826400D01*
G02X4806110Y7434150I-2J20319D01*
G37*
G36*
G01X4781020Y8084900D02*
X4745100Y8048980D01*
X4777300Y8036820D01*
X4802700D01*
X4834900Y8048980D01*
X4798980Y8084900D01*
G03X4781020I-8980J-8980D01*
G37*
G36*
G01X4844520Y8144120D02*
X4831960Y8131540D01*
X4853500Y8106820D01*
X4875040Y8131540D01*
X4862480Y8144120D01*
G03X4844520I-8980J-8980D01*
G37*
G36*
G01X4794830Y8209510D02*
X4811590Y8230140D01*
X4790000Y8273960D01*
X4768410Y8230140D01*
X4785170Y8209510D01*
G03X4794830I4830J11750D01*
G37*
G36*
G01X4858330D02*
X4875090Y8230140D01*
X4853500Y8273960D01*
X4831910Y8230140D01*
X4848670Y8209510D01*
G03X4858330I4830J11750D01*
G37*
G36*
G01X4848670Y8332050D02*
X4831910Y8311420D01*
X4853500Y8267600D01*
X4875090Y8311420D01*
X4858330Y8332050D01*
G03X4848670I-4830J-11750D01*
G37*
G36*
G01X4794830Y8427950D02*
X4811590Y8448580D01*
X4790000Y8492400D01*
X4768410Y8448580D01*
X4785170Y8427950D01*
G03X4794830I4830J11750D01*
G37*
G36*
G01X4781020Y8414120D02*
X4768460Y8401540D01*
X4790000Y8376820D01*
X4811540Y8401540D01*
X4798980Y8414120D01*
G03X4781020I-8980J-8980D01*
G37*
G36*
G01X4858330Y8427950D02*
X4875090Y8448580D01*
X4853500Y8492400D01*
X4831910Y8448580D01*
X4848670Y8427950D01*
G03X4858330I4830J11750D01*
G37*
G36*
G01X4848670Y8550490D02*
X4831910Y8529860D01*
X4853500Y8486040D01*
X4875090Y8529860D01*
X4858330Y8550490D01*
G03X4848670I-4830J-11750D01*
G37*
G36*
G01X4862480Y8649450D02*
X4886510Y8673480D01*
X4860490Y8703140D01*
X4830930Y8677160D01*
X4841960Y8653130D01*
G03X4862480Y8649450I11541J5300D01*
G37*
G36*
G01X4822500Y8724800D02*
Y8700000D01*
X4862250Y8697750D01*
X4860000Y8737500D01*
X4835200D01*
G03X4822500Y8724800I0J-12700D01*
G37*
G36*
G01X5010310Y2924560D02*
X5045720Y2968080D01*
X5000000Y3020150D01*
X4954280Y2968080D01*
X4989690Y2924560D01*
G03X5010310I10310J23210D01*
G37*
G36*
G01X4955040Y3103510D02*
X5045720Y3120480D01*
X5001670Y3168120D01*
X4954280Y3211920D01*
X4944120Y3113640D01*
G03X4955040Y3103510I10159J0D01*
G37*
G36*
G01X5052180Y4199080D02*
X5066550Y4213450D01*
X5045000Y4237540D01*
X5023450Y4213450D01*
X5037820Y4199080D01*
G03X5052180I7180J7180D01*
G37*
G36*
G01X5067180Y4474080D02*
X5081550Y4488450D01*
X5060000Y4512540D01*
X5038450Y4488450D01*
X5052820Y4474080D01*
G03X5067180I7180J7180D01*
G37*
G36*
G01X4970320Y5730480D02*
X4950000D01*
X4948200Y5698200D01*
X4980480Y5700000D01*
Y5720320D01*
G03X4970320Y5730480I-10160J0D01*
G37*
G36*
G01Y5640480D02*
X4950000D01*
X4948200Y5608200D01*
X4980480Y5610000D01*
Y5630320D01*
G03X4970320Y5640480I-10160J0D01*
G37*
G36*
G01X4981980Y5905910D02*
X4992700Y5918400D01*
X4980000Y6022540D01*
X4967300Y5918400D01*
X4978020Y5905910D01*
G03X4981980I1980J9960D01*
G37*
G36*
G01X4970320Y5820480D02*
X4950000D01*
X4948200Y5788200D01*
X4980480Y5790000D01*
Y5810320D01*
G03X4970320Y5820480I-10160J0D01*
G37*
G36*
G01X5031980Y5905910D02*
X5042700Y5918400D01*
X5030000Y6022540D01*
X5017300Y5918400D01*
X5028020Y5905910D01*
G03X5031980I1980J9960D01*
G37*
G36*
G01X5081980D02*
X5092700Y5918400D01*
X5080000Y6022540D01*
X5067300Y5918400D01*
X5078020Y5905910D01*
G03X5081980I1980J9960D01*
G37*
G36*
G01X5078020Y7734090D02*
X5067300Y7721600D01*
X5080000Y7617460D01*
X5092700Y7721600D01*
X5081980Y7734090D01*
G03X5078020I-1980J-9960D01*
G37*
G36*
G01X5028020D02*
X5017300Y7721600D01*
X5030000Y7617460D01*
X5042700Y7721600D01*
X5031980Y7734090D01*
G03X5028020I-1980J-9960D01*
G37*
G36*
G01X7774100Y2813530D02*
Y2200000D01*
X7116540D01*
Y2322510D01*
X6626540Y2812510D01*
Y2834810D01*
X6637490D01*
X6638260Y2834690D01*
G03X6724670Y2925290I11740J75310D01*
G01X6723710Y2930000D01*
X6741460Y2951820D01*
Y3257660D01*
X6637590D01*
X6626220Y3269030D01*
Y3358090D01*
X6625900Y3358410D01*
Y3433150D01*
X6372510Y3686540D01*
X5119990D01*
X5110420Y3696120D01*
G02X5117600Y3713460I7185J7181D01*
G01X7540010D01*
X7773460Y3480010D01*
Y3268780D01*
X7658540Y3251190D01*
Y2951820D01*
X7676290Y2930000D01*
X7675330Y2925290D01*
G03X7752980Y2833840I74670J-15289D01*
G02X7774100Y2813530I800J-20305D01*
G37*
G36*
G01X7925900Y3339990D02*
Y3543150D01*
X7603150Y3865900D01*
X5133150D01*
X5122940Y3876120D01*
G02X5130120Y3893460I7185J7181D01*
G01X7857490D01*
X8124100Y3626850D01*
Y3323140D01*
X8123780Y3322820D01*
Y3269030D01*
X8112410Y3257660D01*
X7937590D01*
X7926220Y3269030D01*
Y3339670D01*
X7925900Y3339990D01*
G37*
G36*
G01X8805900Y2200000D02*
Y2323150D01*
X8322600Y2806450D01*
G02X8329190Y2839590I14370J14368D01*
G03X8374670Y2925290I-29191J70409D01*
G01X8373710Y2930000D01*
X8391460Y2951820D01*
Y3253150D01*
X8276540Y3265110D01*
Y3689990D01*
X7920630Y4045900D01*
X5202240D01*
Y4147760D01*
X5305740D01*
Y4149100D01*
X5503190D01*
G03X5630990Y4210920I51811J55902D01*
G02X5651250Y4232820I20258J1580D01*
G01X6681870D01*
X6852100Y4403050D01*
Y4837400D01*
X6887660Y4876640D01*
Y5003360D01*
X6877390Y5014700D01*
X6898800Y5034100D01*
X6936640D01*
Y4882980D01*
X7297360D01*
Y5137020D01*
X7069030D01*
X7060150Y5145900D01*
X6898800D01*
X6859560Y5181460D01*
X6735260D01*
Y5311980D01*
X6714940Y5336950D01*
Y5492570D01*
X6706300Y5501210D01*
X6679380Y5723340D01*
X6649130D01*
X6607120Y5764940D01*
Y5769170D01*
G03X6604590Y5788590I-76222J-55D01*
G02X6624230Y5814100I19644J5192D01*
G01X7353150D01*
X7485900Y5946850D01*
Y6673150D01*
X7409640Y6749410D01*
G02X7424010Y6784100I14369J14369D01*
G01X8230640D01*
G02X8245000Y6749410I-4J-20319D01*
G01X8192660Y6697070D01*
Y6146950D01*
X8172340Y6121980D01*
Y5998020D01*
X8192660Y5973050D01*
Y5896950D01*
X8172340Y5871980D01*
Y5747800D01*
X8202660Y5711190D01*
Y5126950D01*
X8182340Y5101980D01*
Y4948540D01*
X8489720D01*
X8535040Y4990100D01*
X8756280D01*
X8789110Y4957270D01*
X8789150Y4957230D01*
G03X8815600Y4936510I90869J88755D01*
G02Y4901490I-10299J-17510D01*
G03Y4682510I64400J-109490D01*
G02Y4647490I-10299J-17510D01*
G03Y4428510I64400J-109490D01*
G02Y4393490I-10299J-17510D01*
G03X8991980Y4224050I64399J-109486D01*
G02X9027620Y4224390I17913J-9592D01*
G03X9216010Y4193760I106377J59610D01*
G02X9250000Y4178720I13670J-15035D01*
G01Y2500000D01*
G02X8950000Y2200000I-325000J25000D01*
G01X8805900D01*
G37*
G36*
G01X5571470Y4960900D02*
X5424480D01*
G02X5417300Y4978240I5J10159D01*
G01X5422800Y4983740D01*
X5426490Y4984060D01*
G03X5344060Y5066490I-6490J75940D01*
G01X5343740Y5062800D01*
X5293190Y5012240D01*
X5202240D01*
Y5093190D01*
X5263150Y5154100D01*
X5349350D01*
X5407590Y5212340D01*
X5511460D01*
Y5364100D01*
X5608540D01*
Y5090440D01*
X5643200Y5052190D01*
X5612340Y5010930D01*
Y5001800D01*
X5571470Y4960900D01*
G37*
G36*
G01X5293470Y5573200D02*
X5224280Y5501920D01*
X5269330Y5453750D01*
X5315720Y5501920D01*
X5309860Y5567860D01*
G03X5293470Y5573200I-9860J-2442D01*
G37*
G36*
G01X5231980Y5905910D02*
X5242700Y5918400D01*
X5230000Y6022540D01*
X5217300Y5918400D01*
X5228020Y5905910D01*
G03X5231980I1980J9960D01*
G37*
G36*
G01X5181980D02*
X5192700Y5918400D01*
X5180000Y6022540D01*
X5167300Y5918400D01*
X5178020Y5905910D01*
G03X5181980I1980J9960D01*
G37*
G36*
G01X5131980D02*
X5142700Y5918400D01*
X5130000Y6022540D01*
X5117300Y5918400D01*
X5128020Y5905910D01*
G03X5131980I1980J9960D01*
G37*
G36*
G01X5234080Y6381840D02*
X5248450Y6367470D01*
X5272540Y6389020D01*
X5248450Y6410570D01*
X5234080Y6396200D01*
G03Y6381840I7180J-7180D01*
G37*
G36*
G01Y6602820D02*
X5248450Y6588450D01*
X5272540Y6610000D01*
X5248450Y6631550D01*
X5234080Y6617180D01*
G03Y6602820I7180J-7180D01*
G37*
G36*
G01Y6455500D02*
X5248450Y6441130D01*
X5272540Y6462680D01*
X5248450Y6484230D01*
X5234080Y6469860D01*
G03Y6455500I7180J-7180D01*
G37*
G36*
G01Y6529160D02*
X5248450Y6514790D01*
X5272540Y6536340D01*
X5248450Y6557890D01*
X5234080Y6543520D01*
G03Y6529160I7180J-7180D01*
G37*
G36*
G01X5178020Y7734090D02*
X5167300Y7721600D01*
X5180000Y7617460D01*
X5192700Y7721600D01*
X5181980Y7734090D01*
G03X5178020I-1980J-9960D01*
G37*
G36*
G01X5128020D02*
X5117300Y7721600D01*
X5130000Y7617460D01*
X5142700Y7721600D01*
X5131980Y7734090D01*
G03X5128020I-1980J-9960D01*
G37*
G36*
G01X6711240Y8550740D02*
X6588510D01*
X6530950Y8501140D01*
X6411140D01*
Y8769640D01*
X6620360Y8978860D01*
X6638980D01*
Y8780980D01*
X6833600D01*
Y8545010D01*
X6813760Y8521990D01*
Y8309260D01*
X7087600D01*
Y8282040D01*
X7011460Y8205900D01*
X6056850D01*
X5473130Y7622180D01*
G02X5438440Y7636550I-14369J14369D01*
G01Y7767340D01*
X5235900D01*
Y7823150D01*
X5186800Y7872250D01*
G02X5201170Y7906940I14369J14369D01*
G01X5477550D01*
X5915670Y8345060D01*
X6253050D01*
X6278020Y8324740D01*
X6402310D01*
X6443170Y8358860D01*
X6530950D01*
X6588510Y8309260D01*
X6711240D01*
Y8550740D01*
G37*
G36*
G01X5399680Y5029520D02*
X5420000D01*
X5421800Y5061800D01*
X5389520Y5060000D01*
Y5039680D01*
G03X5399680Y5029520I10160J0D01*
G37*
G36*
G01X5537250Y5426220D02*
X5465720Y5501920D01*
X5417590Y5457000D01*
X5374280Y5410480D01*
X5529840Y5409860D01*
G03X5537250Y5426220I-622J10140D01*
G37*
G36*
G01X5426240Y5524510D02*
X5465720Y5568080D01*
X5420000Y5616340D01*
X5374280Y5568080D01*
X5413760Y5524510D01*
G03X5426240I6240J8020D01*
G37*
G36*
G01X5413760Y5545490D02*
X5374280Y5501920D01*
X5420000Y5453660D01*
X5465720Y5501920D01*
X5426240Y5545490D01*
G03X5413760I-6240J-8020D01*
G37*
G36*
G01X5307180Y5574080D02*
X5321550Y5588450D01*
X5300000Y5612540D01*
X5278450Y5588450D01*
X5292820Y5574080D01*
G03X5307180I7180J7180D01*
G37*
G36*
G01X5326810Y5780330D02*
X5328540Y5719830D01*
Y5706190D01*
G02X5306490Y5685940I-20321J-3D01*
G03X5304910Y5686060I-6562J-75935D01*
G02X5285900Y5706340I1310J20278D01*
G01Y5872660D01*
X5324100D01*
Y5783050D01*
X5326810Y5780330D01*
G37*
G36*
G01X5369850Y5875790D02*
X5374280Y5720480D01*
X5420870Y5763810D01*
X5463900Y5805890D01*
X5386480Y5883240D01*
G03X5369850Y5875790I-6479J-7823D01*
G37*
G36*
G01X5465300Y5825870D02*
X5374280Y5811920D01*
X5418280Y5764330D01*
X5465720Y5720480D01*
X5475880Y5815720D01*
G03X5465300Y5825870I-10159J0D01*
G37*
G36*
G01X5381980Y5905910D02*
X5392700Y5918400D01*
X5380000Y6022540D01*
X5367300Y5918400D01*
X5378020Y5905910D01*
G03X5381980I1980J9960D01*
G37*
G36*
G01X5288980Y6175880D02*
X5301540Y6188460D01*
X5280000Y6213180D01*
X5258460Y6188460D01*
X5271020Y6175880D01*
G03X5288980I8980J8980D01*
G37*
G36*
G01X5424120Y6728980D02*
X5411540Y6741540D01*
X5386820Y6720000D01*
X5411540Y6698460D01*
X5424120Y6711020D01*
G03Y6728980I-8980J8980D01*
G37*
G36*
G01X5519080Y4197820D02*
X5533450Y4183450D01*
X5557540Y4205000D01*
X5533450Y4226550D01*
X5519080Y4212180D01*
G03Y4197820I7180J-7180D01*
G37*
G36*
G01X5587320Y4550120D02*
X5607600Y4429040D01*
X5660200Y4488200D01*
X5709200Y4550960D01*
X5597440Y4561120D01*
G03X5587320Y4550120I0J-10155D01*
G37*
G36*
G01X5594530Y4894840D02*
X5749520Y4904280D01*
X5706150Y4950970D01*
X5666610Y4991400D01*
X5586780Y4911510D01*
G03X5594530Y4894840I7800J-6510D01*
G37*
G36*
G01X5586850Y5475900D02*
X5553240D01*
X5497430Y5534960D01*
X5511460Y5550440D01*
Y5674740D01*
X5641980D01*
X5666950Y5695060D01*
X5904860D01*
Y5670740D01*
X5800590D01*
X5733080Y5605900D01*
X5716850D01*
X5586850Y5475900D01*
G37*
G36*
G01X5669240Y5776510D02*
X5625720Y5811920D01*
X5573650Y5766200D01*
X5625720Y5720480D01*
X5669240Y5755890D01*
G03Y5776510I-23210J10310D01*
G37*
G36*
G01X6158900Y5670740D02*
Y5810150D01*
X6043150Y5925900D01*
X5496850D01*
X5452690Y5881750D01*
X5435910Y5898510D01*
X5438440Y5901460D01*
Y6161560D01*
X5727340D01*
Y6214100D01*
X5900260D01*
Y5969260D01*
X6277960D01*
X6340020Y6026870D01*
X6377210Y5989630D01*
Y5936660D01*
X6382400D01*
X6387590Y5924120D01*
X6273460Y5809990D01*
Y5670740D01*
X6158900D01*
G37*
G36*
G01X5694090Y6321980D02*
X5681600Y6332700D01*
X5577460Y6320000D01*
X5681600Y6307300D01*
X5694090Y6318020D01*
G03Y6321980I-9960J1980D01*
G37*
G36*
G01Y6371980D02*
X5681600Y6382700D01*
X5577460Y6370000D01*
X5681600Y6357300D01*
X5694090Y6368020D01*
G03Y6371980I-9960J1980D01*
G37*
G36*
G01Y6421980D02*
X5681600Y6432700D01*
X5577460Y6420000D01*
X5681600Y6407300D01*
X5694090Y6418020D01*
G03Y6421980I-9960J1980D01*
G37*
G36*
G01Y6271980D02*
X5681600Y6282700D01*
X5577460Y6270000D01*
X5681600Y6257300D01*
X5694090Y6268020D01*
G03Y6271980I-9960J1980D01*
G37*
G36*
G01Y6471980D02*
X5681600Y6482700D01*
X5577460Y6470000D01*
X5681600Y6457300D01*
X5694090Y6468020D01*
G03Y6471980I-9960J1980D01*
G37*
G36*
G01Y6571980D02*
X5681600Y6582700D01*
X5577460Y6570000D01*
X5681600Y6557300D01*
X5694090Y6568020D01*
G03Y6571980I-9960J1980D01*
G37*
G36*
G01Y6521980D02*
X5681600Y6532700D01*
X5577460Y6520000D01*
X5681600Y6507300D01*
X5694090Y6518020D01*
G03Y6521980I-9960J1980D01*
G37*
G36*
G01Y6621980D02*
X5681600Y6632700D01*
X5577460Y6620000D01*
X5681600Y6607300D01*
X5694090Y6618020D01*
G03Y6621980I-9960J1980D01*
G37*
G36*
G01Y6771980D02*
X5681600Y6782700D01*
X5577460Y6770000D01*
X5681600Y6757300D01*
X5694090Y6768020D01*
G03Y6771980I-9960J1980D01*
G37*
G36*
G01Y6821980D02*
X5681600Y6832700D01*
X5577460Y6820000D01*
X5681600Y6807300D01*
X5694090Y6818020D01*
G03Y6821980I-9960J1980D01*
G37*
G36*
G01Y6921980D02*
X5681600Y6932700D01*
X5577460Y6920000D01*
X5681600Y6907300D01*
X5694090Y6918020D01*
G03Y6921980I-9960J1980D01*
G37*
G36*
G01Y6871980D02*
X5681600Y6882700D01*
X5577460Y6870000D01*
X5681600Y6857300D01*
X5694090Y6868020D01*
G03Y6871980I-9960J1980D01*
G37*
G36*
G01X5727340Y6975900D02*
Y7361560D01*
X5750950D01*
X5753680Y7359470D01*
G03X5751070Y7478440I46320J60530D01*
G01X5594030D01*
G02X5579660Y7513130I-1J20321D01*
G01X6119990Y8053460D01*
X7144120D01*
X7326400Y8235740D01*
Y8309260D01*
X7600240D01*
Y8550740D01*
X7072400D01*
Y8581350D01*
X7272030Y8780980D01*
X7320000D01*
G03X7439310Y8951570I0J127017D01*
G02X7458400Y8978860I19088J6969D01*
G01X7458600D01*
G02X7477690Y8951570I2J-20321D01*
G03X7632810Y8786130I119312J-43572D01*
G02X7658860Y8766640I5731J-19494D01*
G01Y8495010D01*
X7628540Y8458400D01*
Y8304740D01*
X7781980D01*
X7800550Y8319850D01*
X7842010Y8277980D01*
Y8238860D01*
X7925830D01*
Y8137320D01*
X7638810Y7850300D01*
Y7587860D01*
X7309410Y7258460D01*
X6289490D01*
X6006930Y6975900D01*
X5727340D01*
G37*
G36*
G01X5693050Y5042480D02*
X5658080Y4995720D01*
X5703910Y4947460D01*
X5749520Y4995720D01*
X5706320Y5043020D01*
G03X5693050Y5042480I-6322J-7951D01*
G37*
G36*
G01X5706240Y5064510D02*
X5745720Y5108080D01*
X5700000Y5156340D01*
X5654280Y5108080D01*
X5693760Y5064510D01*
G03X5706240I6240J8020D01*
G37*
G36*
G01X5693760Y5395490D02*
X5654280Y5351920D01*
X5700000Y5303660D01*
X5745720Y5351920D01*
X5706240Y5395490D01*
G03X5693760I-6240J-8020D01*
G37*
G36*
G01X5707180Y5374080D02*
X5721550Y5388450D01*
X5700000Y5412540D01*
X5678450Y5388450D01*
X5692820Y5374080D01*
G03X5707180I7180J7180D01*
G37*
G36*
G01X5747750Y5543430D02*
X5819000Y5475000D01*
X5851540Y5550000D01*
X5819000Y5625000D01*
X5747750Y5556570D01*
G03Y5543430I7750J-6570D01*
G37*
G36*
G01X6281270Y2694740D02*
X6528730D01*
X6964100Y2259370D01*
Y2200000D01*
X6555740D01*
Y2375740D01*
X6204260D01*
Y2200000D01*
X5866540D01*
Y2280010D01*
X6281270Y2694740D01*
G37*
G36*
G01X5971000Y4496500D02*
X5912400Y4550960D01*
X5859060Y4490000D01*
X5912400Y4429040D01*
X5971000Y4483500D01*
G03Y4496500I-7810J6500D01*
G37*
G36*
G01X5805260Y4596700D02*
Y4749100D01*
X5855650D01*
X5922340Y4682410D01*
Y4596700D01*
X5805260D01*
G37*
G36*
G01X5796700Y5062340D02*
X5862410D01*
X5884100Y5040650D01*
Y5000650D01*
X5922340Y4962410D01*
Y4937590D01*
X5895650Y4910900D01*
X5795260D01*
Y5013460D01*
X5781690Y5028320D01*
G02X5796700Y5062340I15007J13700D01*
G37*
G36*
G01X5849960Y5039290D02*
X5810480Y4995720D01*
X5856200Y4947460D01*
X5901920Y4995720D01*
X5862440Y5039290D01*
G03X5849960I-6240J-8020D01*
G37*
G36*
G01X5843760Y5395490D02*
X5804280Y5351920D01*
X5850000Y5303660D01*
X5895720Y5351920D01*
X5856240Y5395490D01*
G03X5843760I-6240J-8020D01*
G37*
G36*
G01X5857180Y5374080D02*
X5871550Y5388450D01*
X5850000Y5412540D01*
X5828450Y5388450D01*
X5842820Y5374080D01*
G03X5857180I7180J7180D01*
G37*
G36*
G01X5765880Y7411020D02*
X5778460Y7398460D01*
X5803180Y7420000D01*
X5778460Y7441540D01*
X5765880Y7428980D01*
G03Y7411020I8980J-8980D01*
G37*
G36*
G01X6079960Y1660190D02*
X6079950Y1735000D01*
X5993200Y1736800D01*
X5995000Y1650040D01*
X6069800Y1650030D01*
G03X6079960Y1660190I0J10160D01*
G37*
G36*
G01X6129180Y1876030D02*
X6182070Y1928920D01*
X6122000Y1991540D01*
X6061930Y1928920D01*
X6114820Y1876030D01*
G03X6129180I7180J7180D01*
G37*
G36*
G01X6110310Y2924560D02*
X6145720Y2968080D01*
X6100000Y3020150D01*
X6054280Y2968080D01*
X6089690Y2924560D01*
G03X6110310I10310J23210D01*
G37*
G36*
G01X6159670Y3120900D02*
X6145720Y3211920D01*
X6098130Y3167920D01*
X6054280Y3120480D01*
X6149520Y3110320D01*
G03X6159670Y3120900I0J10159D01*
G37*
G36*
G01X5934510Y4483760D02*
X5978080Y4444280D01*
X6026340Y4490000D01*
X5978080Y4535720D01*
X5934510Y4496240D01*
G03Y4483760I8020J-6240D01*
G37*
G36*
G01X6086640Y5062340D02*
X6162410D01*
X6324100Y4900650D01*
Y4583560D01*
G02X6298780Y4563870I-20320J5D01*
G03X6264710Y4564670I-18779J-73870D01*
G01X6260000Y4563710D01*
X6238180Y4581460D01*
X6105260D01*
Y4761460D01*
X6001390D01*
X5952850Y4810000D01*
X6001390Y4858540D01*
X6105260D01*
Y5041460D01*
X6001390D01*
X5995900Y5046950D01*
Y5062340D01*
X6063360D01*
X6075000Y5072890D01*
X6086640Y5062340D01*
G37*
G36*
G01X6060710Y5147560D02*
X6104280Y5108080D01*
X6152540Y5153800D01*
X6104280Y5199520D01*
X6060710Y5160040D01*
G03Y5147560I8020J-6240D01*
G37*
G36*
G01X6089290Y5160040D02*
X6045720Y5199520D01*
X5997460Y5153800D01*
X6045720Y5108080D01*
X6089290Y5147560D01*
G03Y5160040I-8020J6240D01*
G37*
G36*
G01X5989690Y5395440D02*
X5954280Y5351920D01*
X6000000Y5299850D01*
X6045720Y5351920D01*
X6010310Y5395440D01*
G03X5989690I-10310J-23210D01*
G37*
G36*
G01X5972160Y5654700D02*
X5946000Y5625000D01*
X5976000Y5543650D01*
X6006000Y5625000D01*
X5979840Y5654700D01*
G03X5972160I-3840J-25110D01*
G37*
G36*
G01X6097400Y5653310D02*
X6073000Y5625000D01*
X6103000Y5547460D01*
X6133000Y5625000D01*
X6108600Y5653310D01*
G03X6097400I-5600J-8480D01*
G37*
G36*
G01X6333960Y1660190D02*
X6333950Y1735000D01*
X6247200Y1736800D01*
X6249000Y1650040D01*
X6323800Y1650030D01*
G03X6333960Y1660190I0J10160D01*
G37*
G36*
G01X6435560Y2105560D02*
X6429180Y2108400D01*
G03X6328050Y2110600I-53186J-119400D01*
G01X6321850Y2108150D01*
X6250000Y2180000D01*
Y2330000D01*
X6510000D01*
Y2180000D01*
X6435560Y2105560D01*
G37*
G36*
G01X6289690Y2875440D02*
X6254280Y2831920D01*
X6300000Y2779850D01*
X6345720Y2831920D01*
X6310310Y2875440D01*
G03X6289690I-10310J-23210D01*
G37*
G36*
G01X6310310Y2924560D02*
X6345720Y2968080D01*
X6300000Y3020150D01*
X6254280Y2968080D01*
X6289690Y2924560D01*
G03X6310310I10310J23210D01*
G37*
G36*
G01X6251120Y3110320D02*
X6345720Y3120480D01*
X6301860Y3167940D01*
X6254280Y3211920D01*
X6240970Y3120830D01*
G03X6251120Y3110320I10150J-354D01*
G37*
G36*
G01X6265440Y4500310D02*
X6221920Y4535720D01*
X6169850Y4490000D01*
X6221920Y4444280D01*
X6265440Y4479690D01*
G03Y4500310I-23210J10310D01*
G37*
G36*
G01X6195300Y5365870D02*
X6104280Y5351920D01*
X6148280Y5304330D01*
X6195720Y5260480D01*
X6205880Y5355720D01*
G03X6195300Y5365870I-10159J0D01*
G37*
G36*
G01X6345300D02*
X6254280Y5351920D01*
X6298280Y5304330D01*
X6345720Y5260480D01*
X6355880Y5355720D01*
G03X6345300Y5365870I-10159J0D01*
G37*
G36*
G01X6332060Y6098110D02*
X6260000Y6165000D01*
X6226820Y6090000D01*
X6260000Y6015000D01*
X6332060Y6081890D01*
G03Y6098110I-9770J8110D01*
G37*
G36*
G01X7290010Y5966540D02*
X6684590D01*
Y6224080D01*
G03X6710220Y6242550I-30779J69728D01*
G02X6740990Y6241750I15040J-13660D01*
G03X6872930Y6312140I59007J48247D01*
G01X6871250Y6317680D01*
X6884200Y6331810D01*
X6908800Y6354100D01*
X6946640D01*
Y6342980D01*
X7307360D01*
Y6597020D01*
X6946640D01*
Y6465900D01*
X6908800D01*
X6869560Y6501460D01*
X6793790D01*
X6754660Y6540590D01*
X6739390Y6651460D01*
X6562340D01*
Y6547590D01*
X6340650Y6325900D01*
X6211490D01*
G02X6197120Y6360590I-1J20321D01*
G01X6529990Y6693460D01*
X7250010D01*
X7333460Y6610010D01*
Y6009990D01*
X7290010Y5966540D01*
G37*
G36*
G01X6250760Y8405890D02*
X6294280Y8370480D01*
X6346350Y8416200D01*
X6294280Y8461920D01*
X6250760Y8426510D01*
G03Y8405890I23210J-10310D01*
G37*
G36*
G01X8171060Y8979550D02*
X8029470Y9121140D01*
X7873900D01*
G02X7854810Y9148430I-2J20321D01*
G03X7616190I-119310J43570D01*
G02X7597100Y9121140I-19088J-6969D01*
G01X7596900D01*
G02X7577810Y9148430I-2J20321D01*
G03X7339190I-119310J43570D01*
G02X7320100Y9121140I-19088J-6969D01*
G01X7319900D01*
G02X7300810Y9148430I-2J20321D01*
G03X7062190I-119310J43570D01*
G02X7043100Y9121140I-19088J-6969D01*
G01X7042900D01*
G02X7023810Y9148430I-2J20321D01*
G03X6785190I-119310J43570D01*
G02X6766100Y9121140I-19088J-6969D01*
G01X6561420D01*
X6473000Y9032710D01*
G02X6438310Y9047230I-14369J14369D01*
G03X6215740Y9388260I-368310J2770D01*
G01Y9700000D01*
X8424260D01*
Y9388260D01*
G03X8205540Y8996850I145743J-338257D01*
G02X8171060Y8979550I-20108J-2935D01*
G37*
G36*
G01X6439690Y2875440D02*
X6404280Y2831920D01*
X6450000Y2779850D01*
X6495720Y2831920D01*
X6460310Y2875440D01*
G03X6439690I-10310J-23210D01*
G37*
G36*
G01X6460310Y2924560D02*
X6495720Y2968080D01*
X6450000Y3020150D01*
X6404280Y2968080D01*
X6439690Y2924560D01*
G03X6460310I10310J23210D01*
G37*
G36*
G01X6495300Y3225850D02*
X6404280Y3211920D01*
X6448280Y3164330D01*
X6495720Y3120480D01*
X6505880Y3215700D01*
G03X6495300Y3225850I-10159J0D01*
G37*
G36*
G01X6509670Y3120900D02*
X6495720Y3211920D01*
X6448130Y3167920D01*
X6404280Y3120480D01*
X6499520Y3110320D01*
G03X6509670Y3120900I0J10159D01*
G37*
G36*
G01X6470210Y4344620D02*
G02X6455840Y4379310I-1J20321D01*
G01X6476540Y4400010D01*
Y5056310D01*
X6391460Y5141390D01*
Y5245260D01*
X6390100D01*
X6399150Y5330090D01*
X6425900Y5356850D01*
Y5404190D01*
G02X6449180Y5424300I20321J6D01*
G01X6572660Y5406090D01*
Y5336950D01*
X6552340Y5311980D01*
Y5158540D01*
X6704740D01*
Y5031460D01*
X6552340D01*
Y4878020D01*
X6571450Y4854530D01*
X6570130Y4849530D01*
G03X6703950Y4783180I73675J-19531D01*
G02X6740300Y4770700I16032J-12483D01*
G01Y4449350D01*
X6635570Y4344620D01*
X6470210D01*
G37*
G36*
G01X6664240Y5468060D02*
X6638850Y5677600D01*
X6526410Y5580490D01*
X6422950Y5474400D01*
X6638090Y5442670D01*
G03X6664240Y5468060I749J25390D01*
G37*
G36*
G01X6517230Y5762510D02*
X6431480Y5677590D01*
X6530900Y5569650D01*
X6630320Y5677590D01*
X6544570Y5762510D01*
G03X6517230I-13670J-21410D01*
G37*
G36*
G01X6349430Y6082190D02*
X6422970Y6008530D01*
X6534070Y6083890D01*
X6424180Y6163400D01*
X6349920Y6098400D01*
G03X6349430Y6082190I9528J-8400D01*
G37*
G36*
G01X6329690Y8505440D02*
X6294280Y8461920D01*
X6340000Y8409850D01*
X6385720Y8461920D01*
X6350310Y8505440D01*
G03X6329690I-10310J-23210D01*
G37*
G36*
G01X6437190Y8448550D02*
X6385720Y8461920D01*
X6333740Y8415120D01*
X6385720Y8370480D01*
X6441870Y8417370D01*
G03X6437190Y8448550I-22039J12633D01*
G37*
G36*
G01X6637180Y1876030D02*
X6690070Y1928920D01*
X6630000Y1991540D01*
X6569930Y1928920D01*
X6622820Y1876030D01*
G03X6637180I7180J7180D01*
G37*
G36*
G01X6601120Y3110320D02*
X6695720Y3120480D01*
X6651860Y3167940D01*
X6604280Y3211920D01*
X6590970Y3120830D01*
G03X6601120Y3110320I10150J-354D01*
G37*
G36*
G01X6654110Y4850760D02*
X6689520Y4894280D01*
X6643800Y4946350D01*
X6598080Y4894280D01*
X6633490Y4850760D01*
G03X6654110I10310J23210D01*
G37*
G36*
G01X6633490Y5339240D02*
X6598080Y5295720D01*
X6643800Y5243650D01*
X6689520Y5295720D01*
X6654110Y5339240D01*
G03X6633490I-10310J-23210D01*
G37*
G36*
G01X6534720Y8415990D02*
X6605500Y8355000D01*
X6641850Y8430000D01*
X6605500Y8505000D01*
X6534720Y8444010D01*
G03Y8415990I21190J-14010D01*
G37*
G36*
G01X6660310Y2924560D02*
X6695720Y2968080D01*
X6650000Y3020150D01*
X6604280Y2968080D01*
X6639690Y2924560D01*
G03X6660310I10310J23210D01*
G37*
G36*
G01X6802440Y4850710D02*
X6841920Y4894280D01*
X6796200Y4942540D01*
X6750480Y4894280D01*
X6789960Y4850710D01*
G03X6802440I6240J8020D01*
G37*
G36*
G01X6789960Y5029290D02*
X6750480Y4985720D01*
X6796200Y4937460D01*
X6841920Y4985720D01*
X6802440Y5029290D01*
G03X6789960I-6240J-8020D01*
G37*
G36*
G01X6802440Y5000710D02*
X6841920Y5044280D01*
X6796200Y5092540D01*
X6750480Y5044280D01*
X6789960Y5000710D01*
G03X6802440I6240J8020D01*
G37*
G36*
G01X6664110Y6320760D02*
X6699520Y6364280D01*
X6653800Y6416350D01*
X6608080Y6364280D01*
X6643490Y6320760D01*
G03X6664110I10310J23210D01*
G37*
G36*
G01X6806370Y6314610D02*
X6851920Y6364280D01*
X6806380Y6412530D01*
X6760480Y6364280D01*
X6792620Y6315550D01*
G03X6806370Y6314610I7384J6979D01*
G37*
G36*
G01X6712080Y6514550D02*
X6699520Y6605720D01*
X6651960Y6561750D01*
X6608080Y6514280D01*
X6701920Y6504120D01*
G03X6712080Y6514550I0J10163D01*
G37*
G36*
G01X6885490Y5096240D02*
X6841920Y5135720D01*
X6793660Y5090000D01*
X6841920Y5044280D01*
X6885490Y5083760D01*
G03Y5096240I-8020J6240D01*
G37*
G36*
G01X6792820Y6325920D02*
X6778450Y6311550D01*
X6800000Y6287460D01*
X6821550Y6311550D01*
X6807180Y6325920D01*
G03X6792820I-7180J-7180D01*
G37*
G36*
G01X6895490Y6416240D02*
X6851920Y6455720D01*
X6803660Y6410000D01*
X6851920Y6364280D01*
X6895490Y6403760D01*
G03Y6416240I-8020J6240D01*
G37*
G36*
G01X6883900Y8533310D02*
X6859500Y8505000D01*
X6889500Y8427460D01*
X6919500Y8505000D01*
X6895100Y8533310D01*
G03X6883900I-5600J-8480D01*
G37*
G36*
G01X7010900D02*
X6986500Y8505000D01*
X7016500Y8427460D01*
X7046500Y8505000D01*
X7022100Y8533310D01*
G03X7010900I-5600J-8480D01*
G37*
G36*
G01X6976960Y8831800D02*
X7043000D01*
X7044800Y8909800D01*
X6966800Y8908000D01*
Y8841960D01*
G03X6976960Y8831800I10160J0D01*
G37*
G36*
G01X7149100Y8326690D02*
X7173500Y8355000D01*
X7143500Y8432540D01*
X7113500Y8355000D01*
X7137900Y8326690D01*
G03X7149100I5600J8480D01*
G37*
G36*
G01X7276100D02*
X7300500Y8355000D01*
X7270500Y8432540D01*
X7240500Y8355000D01*
X7264900Y8326690D01*
G03X7276100I5600J8480D01*
G37*
G36*
G01X7253960Y8831800D02*
X7320000D01*
X7321800Y8909800D01*
X7243800Y8908000D01*
Y8841960D01*
G03X7253960Y8831800I10160J0D01*
G37*
G36*
G01X7687120Y1835290D02*
X7622110Y1813610D01*
X7643860Y1732730D01*
X7721630Y1763840D01*
X7699970Y1828860D01*
G03X7687120Y1835290I-9640J-3210D01*
G37*
G36*
G01X7729870Y1888700D02*
X7794900Y1910380D01*
X7773140Y1991270D01*
X7695360Y1960160D01*
X7717020Y1895130D01*
G03X7729870Y1888700I9640J3210D01*
G37*
G36*
G01X7760310Y2924560D02*
X7795720Y2968080D01*
X7750000Y3020150D01*
X7704280Y2968080D01*
X7739690Y2924560D01*
G03X7760310I10310J23210D01*
G37*
G36*
G01X7795300Y3225850D02*
X7704280Y3211920D01*
X7748280Y3164330D01*
X7795720Y3120480D01*
X7805880Y3215700D01*
G03X7795300Y3225850I-10159J0D01*
G37*
G36*
G01X7809670Y3120900D02*
X7795720Y3211920D01*
X7748130Y3167920D01*
X7704280Y3120480D01*
X7799520Y3110320D01*
G03X7809670Y3120900I0J10159D01*
G37*
G36*
G01X7717860Y8494540D02*
X7674280Y8441920D01*
X7719170Y8389900D01*
X7765720Y8441920D01*
X7746430Y8491600D01*
G03X7717860Y8494540I-16430J-19370D01*
G37*
G36*
G01X7809240Y8406510D02*
X7765720Y8441920D01*
X7713650Y8396200D01*
X7765720Y8350480D01*
X7809240Y8385890D01*
G03Y8406510I-23210J10310D01*
G37*
G36*
G01X7747960Y8968540D02*
X7811460Y9032040D01*
X7755400Y9056350D01*
X7704600D01*
X7648540Y9032040D01*
X7712040Y8968540D01*
G03X7747960I17960J17960D01*
G37*
G36*
G01X7891820Y1847970D02*
X7838930Y1795080D01*
X7899000Y1732460D01*
X7959070Y1795080D01*
X7906180Y1847970D01*
G03X7891820I-7180J-7180D01*
G37*
G36*
G01X7946530Y2210000D02*
X7926540Y2229990D01*
Y2330000D01*
X8280000D01*
X8300000Y2310000D01*
Y2220000D01*
X8290000Y2210000D01*
X7946530D01*
G37*
G36*
G01X8191460Y2694740D02*
Y2697480D01*
G02X8208800Y2704660I10159J-5D01*
G01X8653460Y2260010D01*
Y2200000D01*
X8345740D01*
Y2271440D01*
X8345800Y2271980D01*
G03Y2288020I-75800J8020D01*
G01X8345740Y2288560D01*
Y2328950D01*
X8298950Y2375740D01*
X7926540D01*
Y2694740D01*
X8191460D01*
G37*
G36*
G01X7939690Y2875440D02*
X7904280Y2831920D01*
X7950000Y2779850D01*
X7995720Y2831920D01*
X7960310Y2875440D01*
G03X7939690I-10310J-23210D01*
G37*
G36*
G01X7960310Y2924560D02*
X7995720Y2968080D01*
X7950000Y3020150D01*
X7904280Y2968080D01*
X7939690Y2924560D01*
G03X7960310I10310J23210D01*
G37*
G36*
G01X7901120Y3110320D02*
X7995720Y3120480D01*
X7951860Y3167940D01*
X7904280Y3211920D01*
X7890970Y3120830D01*
G03X7901120Y3110320I10150J-354D01*
G37*
G36*
G01X7999240Y7204110D02*
X7955720Y7239520D01*
X7903650Y7193800D01*
X7955720Y7148080D01*
X7999240Y7183490D01*
G03Y7204110I-23210J10310D01*
G37*
G36*
G01X7913080Y7444840D02*
X7864280Y7391920D01*
X7909740Y7343670D01*
X7955720Y7391920D01*
X7927420Y7443340D01*
G03X7913080Y7444840I-7915J-6370D01*
G37*
G36*
G01X7925210Y7462220D02*
X7951250Y7492200D01*
X7919500Y7596340D01*
X7887750Y7492200D01*
X7913790Y7462220D01*
G03X7925210I5710J8400D01*
G37*
G36*
G01X7802850Y8382530D02*
X7887770Y8296770D01*
X7925820Y8385540D01*
X7892440Y8480590D01*
X7804490Y8412160D01*
G03X7802850Y8382530I19762J-15954D01*
G37*
G36*
G01X7842010Y8533540D02*
Y8499310D01*
X7833940Y8493030D01*
G02X7801140Y8509060I-12481J16034D01*
G01Y8775800D01*
G02X7828960Y8794680I20319J-3D01*
G03X7995900Y8904950I45038J113318D01*
G02X8030580Y8918810I20313J-510D01*
G01X8278800Y8670590D01*
G02X8264440Y8635900I-14364J-14371D01*
G01X8016850D01*
X7925830Y8544880D01*
Y8533540D01*
X7842010D01*
G37*
G36*
G01X8089690Y2875440D02*
X8054280Y2831920D01*
X8100000Y2779850D01*
X8145720Y2831920D01*
X8110310Y2875440D01*
G03X8089690I-10310J-23210D01*
G37*
G36*
G01X8110310Y2924560D02*
X8145720Y2968080D01*
X8100000Y3020150D01*
X8054280Y2968080D01*
X8089690Y2924560D01*
G03X8110310I10310J23210D01*
G37*
G36*
G01X8155880Y3114280D02*
X8145720Y3211920D01*
X8098320Y3168110D01*
X8054280Y3120480D01*
X8145030Y3104140D01*
G03X8155880Y3114280I687J10140D01*
G37*
G36*
G01X8040790Y7725380D02*
X8014750Y7695400D01*
X8046500Y7591260D01*
X8078250Y7695400D01*
X8052210Y7725380D01*
G03X8040790I-5710J-8400D01*
G37*
G36*
G01X8052210Y8254620D02*
X8078250Y8284600D01*
X8046500Y8388740D01*
X8014750Y8284600D01*
X8040790Y8254620D01*
G03X8052210I5710J8400D01*
G37*
G36*
G01X8195040Y2063810D02*
X8195050Y1989000D01*
X8281800Y1987200D01*
X8280000Y2073960D01*
X8205200Y2073970D01*
G03X8195040Y2063810I0J-10160D01*
G37*
G36*
G01X8310310Y2924560D02*
X8345720Y2968080D01*
X8300000Y3020150D01*
X8254280Y2968080D01*
X8289690Y2924560D01*
G03X8310310I10310J23210D01*
G37*
G36*
G01X8237940Y3211230D02*
X8254280Y3120480D01*
X8301910Y3164520D01*
X8345720Y3211920D01*
X8248080Y3222080D01*
G03X8237940Y3211230I0J-10163D01*
G37*
G36*
G01X8255040Y3103510D02*
X8345720Y3120480D01*
X8301670Y3168120D01*
X8254280Y3211920D01*
X8244120Y3113640D01*
G03X8255040Y3103510I10159J0D01*
G37*
G36*
G01X8263490Y5129240D02*
X8228080Y5085720D01*
X8273800Y5033650D01*
X8319520Y5085720D01*
X8284110Y5129240D01*
G03X8263490I-10310J-23210D01*
G37*
G36*
G01X8290230Y5714600D02*
X8309520Y5764280D01*
X8262970Y5816300D01*
X8218080Y5764280D01*
X8261660Y5711660D01*
G03X8290230Y5714600I12140J22310D01*
G37*
G36*
G01X8253490Y5899240D02*
X8218080Y5855720D01*
X8263800Y5803650D01*
X8309520Y5855720D01*
X8274110Y5899240D01*
G03X8253490I-10310J-23210D01*
G37*
G36*
G01Y6149240D02*
X8218080Y6105720D01*
X8263800Y6053650D01*
X8309520Y6105720D01*
X8274110Y6149240D01*
G03X8253490I-10310J-23210D01*
G37*
G36*
G01X8274110Y5970760D02*
X8309520Y6014280D01*
X8263800Y6066350D01*
X8218080Y6014280D01*
X8253490Y5970760D01*
G03X8274110I10310J23210D01*
G37*
G36*
G01X8345260Y6547960D02*
X8281760Y6611460D01*
X8257450Y6555400D01*
Y6504600D01*
X8281760Y6448540D01*
X8345260Y6512040D01*
G03Y6547960I-17960J17960D01*
G37*
G36*
G01X8250990Y7470650D02*
Y7712490D01*
X8229400Y7737350D01*
Y7950350D01*
X8344170Y8065120D01*
G02X8378860Y8050750I14369J-14369D01*
G01Y8000630D01*
X8439550Y7939940D01*
X8463370Y7865890D01*
X8480360Y7845000D01*
X8463370Y7824110D01*
X8439550Y7750060D01*
X8368860Y7679370D01*
Y7539470D01*
X8285680Y7456290D01*
G02X8250990Y7470650I-14371J14364D01*
G37*
G36*
G01X8167790Y7725380D02*
X8141750Y7695400D01*
X8173500Y7591260D01*
X8205250Y7695400D01*
X8179210Y7725380D01*
G03X8167790I-5710J-8400D01*
G37*
G36*
G01X8267120Y8274440D02*
X8332250Y8284600D01*
X8303670Y8395850D01*
X8268750Y8487800D01*
X8256960Y8284680D01*
G03X8267120Y8274440I10160J-80D01*
G37*
G36*
G01X8168800Y8512510D02*
X8143430Y8487790D01*
X8173500Y8383660D01*
X8203570Y8487790D01*
X8178200Y8512510D01*
G03X8168800I-4700J-9010D01*
G37*
G36*
G01X8520490Y5053340D02*
X8471920Y5085720D01*
X8423670Y5039830D01*
X8471920Y4994280D01*
X8521390Y5039640D01*
G03X8520490Y5053340I-7921J6359D01*
G37*
G36*
G01X8344940Y5718540D02*
X8478270D01*
X8519210Y5752100D01*
X8756280D01*
X8789110Y5719270D01*
G03X8815600Y5698510I90907J88717D01*
G02Y5663490I-10299J-17510D01*
G03Y5444510I64400J-109490D01*
G02Y5409490I-10299J-17510D01*
G03Y5190510I64400J-109490D01*
G02Y5155490I-10299J-17510D01*
G03X8789150Y5134770I64419J-109475D01*
G01X8789110Y5134730D01*
X8756280Y5101900D01*
X8530110D01*
X8485770Y5131460D01*
X8344940D01*
Y5718540D01*
G37*
G36*
G01X8507450Y5814280D02*
X8461920Y5855720D01*
X8413660Y5810060D01*
X8461920Y5764280D01*
X8507180Y5801380D01*
G03X8507450Y5814280I-7711J6614D01*
G37*
G36*
G01X8507180Y6068620D02*
X8461920Y6105720D01*
X8413660Y6059940D01*
X8461920Y6014280D01*
X8507450Y6055720D01*
G03X8507180Y6068620I-7981J6286D01*
G37*
G36*
G01X8756280Y6117900D02*
X8519210D01*
X8478270Y6151460D01*
X8334940D01*
Y6437030D01*
X8356770Y6458860D01*
X8712890D01*
X8714550Y6458260D01*
G03X8719080Y6456800I25635J71779D01*
G01X8752980Y6452420D01*
Y6442980D01*
X8778350D01*
G02X8792370Y6407950I1J-20320D01*
G03X8815600Y6206510I87629J-91954D01*
G02Y6171490I-10299J-17510D01*
G03X8789110Y6150730I64417J-109477D01*
G01X8756280Y6117900D01*
G37*
G36*
G01X8752980Y6697020D02*
Y6650330D01*
X8704280Y6601140D01*
X8356770D01*
X8334940Y6622970D01*
Y6638130D01*
X8423850Y6727040D01*
G02X8458540Y6712680I14371J-14364D01*
G01Y6704740D01*
X8613360D01*
X8652600Y6740300D01*
X8939350D01*
X9069900Y6870850D01*
Y6974990D01*
X9089740Y6998010D01*
Y7174100D01*
X9163150D01*
X9215310Y7226260D01*
G02X9250000Y7211890I14369J-14369D01*
G01Y6682050D01*
G02X9216480Y6666590I-20322J-8D01*
G03X9042050Y6657630I-82483J-96592D01*
G02X9007020Y6671650I-14710J14019D01*
G01Y6697020D01*
X8752980D01*
G37*
G36*
G01X8460760Y7263490D02*
X8504280Y7228080D01*
X8556350Y7273800D01*
X8504280Y7319520D01*
X8460760Y7284110D01*
G03Y7263490I23210J-10310D01*
G37*
G36*
G01X8460710Y7419960D02*
X8504280Y7380480D01*
X8552540Y7426200D01*
X8504280Y7471920D01*
X8460710Y7432440D01*
G03Y7419960I8020J-6240D01*
G37*
G36*
G01X8641020Y8331630D02*
X8611980Y8355260D01*
X8465900D01*
Y8543150D01*
X8464880Y8544170D01*
G02X8479250Y8578860I14369J14369D01*
G01X8560530D01*
X8663300Y8476090D01*
X8672550Y8412400D01*
X8663580Y8354190D01*
X8641020Y8331630D01*
G37*
G36*
G01X8639290Y6802440D02*
X8595720Y6841920D01*
X8547460Y6796200D01*
X8595720Y6750480D01*
X8639290Y6789960D01*
G03Y6802440I-8020J6240D01*
G37*
G36*
G01X8615560Y7110150D02*
X8595710Y7131050D01*
X8547460Y7106200D01*
X8595710Y7081350D01*
X8615560Y7102250D01*
G03Y7110150I-9360J3950D01*
G37*
G36*
G01X8639290Y7432440D02*
X8595720Y7471920D01*
X8547460Y7426200D01*
X8595720Y7380480D01*
X8639290Y7419960D01*
G03Y7432440I-8020J6240D01*
G37*
G36*
G01X8641020Y7688370D02*
X8660020Y7669380D01*
X8692640Y7509260D01*
X8705670D01*
G02X8712850Y7491920I-5J-10159D01*
G01X8703040Y7482100D01*
X8652600D01*
X8613360Y7517660D01*
X8511140D01*
Y7620430D01*
X8538590Y7647890D01*
X8616990Y7668820D01*
X8641020Y7688370D01*
G37*
G36*
G01X8500580Y7685080D02*
X8595720Y7710480D01*
X8554660Y7760510D01*
X8504280Y7801920D01*
X8475200Y7711510D01*
G03X8500580Y7685080I25380J-1029D01*
G37*
G36*
G01X8539690Y7845440D02*
X8504280Y7801920D01*
X8550000Y7749850D01*
X8595720Y7801920D01*
X8560310Y7845440D01*
G03X8539690I-10310J-23210D01*
G37*
G36*
G01X8639240Y7766510D02*
X8595720Y7801920D01*
X8543650Y7756200D01*
X8595720Y7710480D01*
X8639240Y7745890D01*
G03Y7766510I-23210J10310D01*
G37*
G36*
G01X8475200Y7978490D02*
X8504280Y7888080D01*
X8554660Y7929490D01*
X8595720Y7979520D01*
X8500580Y8004920D01*
G03X8475200Y7978490I0J-25401D01*
G37*
G36*
G01X8560310Y7844560D02*
X8595720Y7888080D01*
X8550000Y7940150D01*
X8504280Y7888080D01*
X8539690Y7844560D01*
G03X8560310I10310J23210D01*
G37*
G36*
G01X8639290Y8092440D02*
X8595720Y8131920D01*
X8547460Y8086200D01*
X8595720Y8040480D01*
X8639290Y8079960D01*
G03Y8092440I-8020J6240D01*
G37*
G36*
G01X8652600Y8142100D02*
X8624570Y8167510D01*
G02X8624980Y8182920I6819J7529D01*
G01X8636950Y8192660D01*
X8703270D01*
X8785480Y8274870D01*
X8835740Y8311880D01*
Y8504430D01*
X8831140Y8508870D01*
Y8509470D01*
X8674870Y8665740D01*
G02X8683000Y8699440I14371J14364D01*
G03X8908260Y8904260I-113001J350558D01*
G01X9250000D01*
Y8168110D01*
G02X9215310Y8153740I-20321J-1D01*
G01X9213150Y8155900D01*
X8906850D01*
X8831100Y8080150D01*
Y8067010D01*
G02X8796410Y8052640I-20321J-1D01*
G01X8706950Y8142100D01*
X8652600D01*
G37*
G36*
G01X8639240Y8274110D02*
X8595720Y8309520D01*
X8543650Y8263800D01*
X8595720Y8218080D01*
X8639240Y8253490D01*
G03Y8274110I-23210J10310D01*
G37*
G36*
G01X8779430Y5038820D02*
X8826120Y4992130D01*
X8882540Y5046000D01*
X8826120Y5099870D01*
X8779430Y5053180D01*
G03Y5038820I7180J-7180D01*
G37*
G36*
G01Y5800820D02*
X8826120Y5754130D01*
X8882540Y5808000D01*
X8826120Y5861870D01*
X8779430Y5815180D01*
G03Y5800820I7180J-7180D01*
G37*
G36*
G01Y6054820D02*
X8826120Y6008130D01*
X8882540Y6062000D01*
X8826120Y6115870D01*
X8779430Y6069180D01*
G03Y6054820I7180J-7180D01*
G37*
G36*
G01X8730520Y6506560D02*
X8826030Y6494220D01*
X8886100Y6571750D01*
X8803800Y6629430D01*
X8718890Y6543670D01*
G03X8730520Y6506560I21409J-13668D01*
G37*
G36*
G01X8652600Y6852100D02*
X8641300Y6862340D01*
X8641460D01*
Y7062410D01*
X8753150Y7174100D01*
X8938260D01*
Y6998010D01*
X8958100Y6974990D01*
Y6917150D01*
X8893050Y6852100D01*
X8652600D01*
G37*
G36*
G01X8699610Y7704150D02*
X8730000Y7555000D01*
X8770740Y7606980D01*
X8790000Y7705000D01*
X8725000Y7730400D01*
G03X8699610Y7704150I0J-25404D01*
G37*
G36*
G01X8800160Y7790000D02*
X8790000Y7945000D01*
X8756430Y7879510D01*
X8730000Y7795000D01*
X8789160Y7779880D01*
G03X8800160Y7790000I845J10120D01*
G37*
G36*
G01X8754400Y7973310D02*
X8730000Y7945000D01*
X8760000Y7867460D01*
X8790000Y7945000D01*
X8765600Y7973310D01*
G03X8754400I-5600J-8480D01*
G37*
G36*
G01X8736160Y8295360D02*
X8790000Y8335000D01*
X8768030Y8434100D01*
X8730000Y8485000D01*
X8704600Y8320000D01*
G03X8736160Y8295360I25399J0D01*
G37*
G36*
G01X8704600Y8510000D02*
X8730000Y8335000D01*
X8767300Y8385670D01*
X8790000Y8485000D01*
X8739770Y8533450D01*
G03X8704600Y8510000I-9767J-23450D01*
G37*
G36*
G01X8942820Y7315920D02*
X8914080Y7287180D01*
X8939840Y7277460D01*
X8960160D01*
X8985920Y7287180D01*
X8957180Y7315920D01*
G03X8942820I-7180J-7180D01*
G37*
G36*
G01X8855000Y7544840D02*
X8917000Y7555000D01*
X8890990Y7639340D01*
X8857000Y7705000D01*
X8844840Y7555140D01*
G03X8855000Y7544840I10160J-139D01*
G37*
G36*
G01X8937710Y7795710D02*
X8917000Y7945000D01*
X8882170Y7878940D01*
X8857000Y7795000D01*
X8927580Y7784840D01*
G03X8937710Y7795710I0J10155D01*
G37*
G36*
G01X8881400Y7973310D02*
X8857000Y7945000D01*
X8887000Y7867460D01*
X8917000Y7945000D01*
X8892600Y7973310D01*
G03X8881400I-5600J-8480D01*
G37*
G36*
G01X9089740Y7750740D02*
Y7990740D01*
X8942900D01*
Y8033850D01*
X8953150Y8044100D01*
X9164100D01*
Y7750740D01*
X9089740D01*
G37*
G36*
G01X9083200Y4207800D02*
X9134000D01*
X9138490Y4288490D01*
X9057800Y4284000D01*
Y4233200D01*
G03X9083200Y4207800I25400J0D01*
G37*
G36*
G01X9116040Y4373800D02*
X9080130Y4337870D01*
X9134000Y4277650D01*
X9187870Y4337870D01*
X9151960Y4373800D01*
G03X9116040I-17960J-17960D01*
G37*
G36*
G01Y4627800D02*
X9080130Y4591870D01*
X9134000Y4531650D01*
X9187870Y4591870D01*
X9151960Y4627800D01*
G03X9116040I-17960J-17960D01*
G37*
G36*
G01X9151960Y4448200D02*
X9187870Y4484130D01*
X9134000Y4544350D01*
X9080130Y4484130D01*
X9116040Y4448200D01*
G03X9151960I17960J17960D01*
G37*
G36*
G01Y4702200D02*
X9187870Y4738130D01*
X9134000Y4798350D01*
X9080130Y4738130D01*
X9116040Y4702200D01*
G03X9151960I17960J17960D01*
G37*
G36*
G01X9116040Y4881800D02*
X9080130Y4845870D01*
X9134000Y4785650D01*
X9187870Y4845870D01*
X9151960Y4881800D01*
G03X9116040I-17960J-17960D01*
G37*
G36*
G01Y5135800D02*
X9080130Y5099870D01*
X9134000Y5039650D01*
X9187870Y5099870D01*
X9151960Y5135800D01*
G03X9116040I-17960J-17960D01*
G37*
G36*
G01X9151960Y4956200D02*
X9187870Y4992130D01*
X9134000Y5052350D01*
X9080130Y4992130D01*
X9116040Y4956200D01*
G03X9151960I17960J17960D01*
G37*
G36*
G01Y5210200D02*
X9187870Y5246130D01*
X9134000Y5306350D01*
X9080130Y5246130D01*
X9116040Y5210200D01*
G03X9151960I17960J17960D01*
G37*
G36*
G01X9116040Y5389800D02*
X9080130Y5353870D01*
X9134000Y5293650D01*
X9187870Y5353870D01*
X9151960Y5389800D01*
G03X9116040I-17960J-17960D01*
G37*
G36*
G01Y5643800D02*
X9080130Y5607870D01*
X9134000Y5547650D01*
X9187870Y5607870D01*
X9151960Y5643800D01*
G03X9116040I-17960J-17960D01*
G37*
G36*
G01X9151960Y5464200D02*
X9187870Y5500130D01*
X9134000Y5560350D01*
X9080130Y5500130D01*
X9116040Y5464200D01*
G03X9151960I17960J17960D01*
G37*
G36*
G01Y5718200D02*
X9187870Y5754130D01*
X9134000Y5814350D01*
X9080130Y5754130D01*
X9116040Y5718200D01*
G03X9151960I17960J17960D01*
G37*
G36*
G01X9116040Y5897800D02*
X9080130Y5861870D01*
X9134000Y5801650D01*
X9187870Y5861870D01*
X9151960Y5897800D01*
G03X9116040I-17960J-17960D01*
G37*
G36*
G01Y6151800D02*
X9080130Y6115870D01*
X9134000Y6055650D01*
X9187870Y6115870D01*
X9151960Y6151800D01*
G03X9116040I-17960J-17960D01*
G37*
G36*
G01X9151960Y5972200D02*
X9187870Y6008130D01*
X9134000Y6068350D01*
X9080130Y6008130D01*
X9116040Y5972200D01*
G03X9151960I17960J17960D01*
G37*
G36*
G01Y6226200D02*
X9187870Y6262130D01*
X9134000Y6322350D01*
X9080130Y6262130D01*
X9116040Y6226200D01*
G03X9151960I17960J17960D01*
G37*
G36*
G01X9019600Y6986690D02*
X9044000Y7015000D01*
X9014000Y7092540D01*
X8984000Y7015000D01*
X9008400Y6986690D01*
G03X9019600I5600J8480D01*
G37*
G36*
G01X9146600Y7526690D02*
X9171000Y7555000D01*
X9141000Y7632540D01*
X9111000Y7555000D01*
X9135400Y7526690D01*
G03X9146600I5600J8480D01*
G37*
G36*
G01X9012000Y7718550D02*
X8996040Y7704990D01*
X9014000Y7627460D01*
X9031960Y7704990D01*
X9016000Y7718550D01*
G03X9012000I-2000J-9960D01*
G37*
%LPC*%
G75*
G36*
G01X1120000Y9284260D02*
G02Y9575740I0J145740D01*
G01X1320000D01*
G02Y9284260I0J-145740D01*
G01X1120000D01*
G37*
G36*
G01Y8684260D02*
G02Y8975740I0J145740D01*
G01X1320000D01*
G02Y8684260I0J-145740D01*
G01X1120000D01*
G37*
G36*
G01X6863150Y7284100D02*
X6626850D01*
X6554100Y7356850D01*
Y7431200D01*
X6518540Y7470440D01*
Y7750040D01*
X6559760Y7793910D01*
Y8010740D01*
X7600240D01*
Y7769260D01*
X7366300D01*
G03X7358690Y7752370I2J-10160D01*
G01X7361460Y7749240D01*
Y7594740D01*
X7211460D01*
Y7442340D01*
X7028540D01*
Y7546210D01*
X6980090Y7594660D01*
G03X6945400Y7580290I-14369J-14369D01*
G01Y7366350D01*
X6863150Y7284100D01*
G37*
G54D51*
X6950000Y5576000D03*
%LPD*%
G75*
G36*
G01X5863380Y5014080D02*
X5877750Y5028450D01*
X5856200Y5052540D01*
X5834650Y5028450D01*
X5849020Y5014080D01*
G03X5863380I7180J7180D01*
G37*
G36*
G01X6616240Y7444510D02*
X6655720Y7488080D01*
X6610000Y7536340D01*
X6564280Y7488080D01*
X6603760Y7444510D01*
G03X6616240I6240J8020D01*
G37*
G36*
G01X6628890Y7800680D02*
X6564280Y7731920D01*
X6609410Y7683730D01*
X6655720Y7731920D01*
X6645140Y7796160D01*
G03X6628890Y7800680I-9642J-3193D01*
G37*
G36*
G01X6673150Y7395900D02*
X6665900Y7403150D01*
Y7431200D01*
X6701460Y7470440D01*
Y7594740D01*
X6833600D01*
Y7412650D01*
X6816850Y7395900D01*
X6673150D01*
G37*
G36*
G01X6756210Y7777950D02*
X6714280Y7731920D01*
X6759920Y7683660D01*
X6805720Y7731920D01*
X6769210Y7777600D01*
G03X6756210Y7777950I-6710J-7630D01*
G37*
G36*
G01X6768100Y7786690D02*
X6792500Y7815000D01*
X6762500Y7892540D01*
X6732500Y7815000D01*
X6756900Y7786690D01*
G03X6768100I5600J8480D01*
G37*
G36*
G01X6641100D02*
X6665500Y7815000D01*
X6635500Y7892540D01*
X6605500Y7815000D01*
X6629900Y7786690D01*
G03X6641100I5600J8480D01*
G37*
G36*
G01X6895100D02*
X6919500Y7815000D01*
X6889500Y7892540D01*
X6859500Y7815000D01*
X6883900Y7786690D01*
G03X6895100I5600J8480D01*
G37*
G36*
G01X7022100D02*
X7046500Y7815000D01*
X7016500Y7892540D01*
X6986500Y7815000D01*
X7010900Y7786690D01*
G03X7022100I5600J8480D01*
G37*
G36*
G01X7136910Y7798700D02*
X7074280Y7731920D01*
X7119440Y7683720D01*
X7165720Y7731920D01*
X7153010Y7794550D01*
G03X7136910Y7798700I-9508J-3581D01*
G37*
G36*
G01X7149100Y7786690D02*
X7173500Y7815000D01*
X7143500Y7892540D01*
X7113500Y7815000D01*
X7137900Y7786690D01*
G03X7149100I5600J8480D01*
G37*
G36*
G01X7264250Y7775980D02*
X7224280Y7731920D01*
X7269980Y7683660D01*
X7315720Y7731920D01*
X7276830Y7775910D01*
G03X7264250Y7775980I-6334J-7941D01*
G37*
G36*
G01X7276100Y7786690D02*
X7300500Y7815000D01*
X7270500Y7892540D01*
X7240500Y7815000D01*
X7264900Y7786690D01*
G03X7276100I5600J8480D01*
G37*
G36*
G01X6752820Y7445920D02*
X6738450Y7431550D01*
X6760000Y7407460D01*
X6781550Y7431550D01*
X6767180Y7445920D01*
G03X6752820I-7180J-7180D01*
G37*
G36*
G01X6766240Y7444510D02*
X6805720Y7488080D01*
X6760000Y7536340D01*
X6714280Y7488080D01*
X6753760Y7444510D01*
G03X6766240I6240J8020D01*
G37*
G54D10*
X330000Y330000D03*
Y9670000D03*
X6070000Y9050000D03*
X8570000D03*
X9250000Y330000D03*
Y9670000D03*
G54D20*
X843800Y8330000D03*
Y8530000D03*
X996200Y8330000D03*
Y8530000D03*
X3213800Y7560000D03*
Y7730000D03*
X3363800Y4450000D03*
X3353800Y4640000D03*
Y4840000D03*
X3293800Y5500000D03*
Y5650000D03*
Y5810000D03*
X3366200Y7560000D03*
Y7730000D03*
X3516200Y4450000D03*
X3506200Y4640000D03*
Y4840000D03*
X3446200Y5500000D03*
Y5650000D03*
Y5810000D03*
X3643800Y8310000D03*
Y8470000D03*
Y8660000D03*
Y8820000D03*
X3796200Y8310000D03*
Y8470000D03*
Y8660000D03*
Y8820000D03*
X5713800Y4670000D03*
X5703800Y4950000D03*
X5866200Y4670000D03*
X5856200Y4950000D03*
X6023800Y4490000D03*
X6013800Y4670000D03*
Y4950000D03*
X6176200Y4490000D03*
X6166200Y4670000D03*
Y4950000D03*
X6643800Y4940000D03*
Y5090000D03*
Y5250000D03*
X6796200Y4940000D03*
Y5090000D03*
Y5250000D03*
X6653800Y6410000D03*
X6806200D03*
Y6560000D03*
X6653800D03*
X8273800Y5040000D03*
X8263800Y5810000D03*
Y6060000D03*
X8426200Y5040000D03*
X8416200Y5810000D03*
Y6060000D03*
G54D11*
X116450Y1668100D03*
Y2176100D03*
X120000Y2750000D03*
X116450Y3192100D03*
Y3700100D03*
Y4208100D03*
Y4716100D03*
Y5224100D03*
Y5732100D03*
Y6240100D03*
Y6748100D03*
Y7256100D03*
Y7764100D03*
Y8272100D03*
Y8780100D03*
X435480Y2976890D03*
X393110Y5745480D03*
Y6145480D03*
X403110Y6445480D03*
Y6845480D03*
X443110Y7515480D03*
Y7915480D03*
X433110Y8675480D03*
Y9075480D03*
X710000Y3800000D03*
Y4650000D03*
Y5520000D03*
X783110Y2295480D03*
Y2695480D03*
X835480Y2976890D03*
X850000Y3370000D03*
X780000Y3600000D03*
X850000Y4230000D03*
X780000Y4450000D03*
X850000Y5080000D03*
X780000Y5320000D03*
X940000Y3170000D03*
Y4030000D03*
X1020000Y4760000D03*
X940000Y4880000D03*
X1020000Y5390000D03*
X980000Y7450000D03*
Y7770000D03*
Y8020000D03*
X1208100Y133550D03*
Y373550D03*
X1113110Y2295480D03*
Y2695480D03*
X1150000Y2910000D03*
X1093110Y3335480D03*
Y3735480D03*
X1100000Y3910000D03*
Y5310000D03*
X1070000Y6170000D03*
Y6720000D03*
X1208100Y9903550D03*
X1350000Y2910000D03*
X1250000Y6170000D03*
Y6360000D03*
X1270000Y7450000D03*
X1310000Y7820000D03*
X1500000Y2910000D03*
X1423110Y3315480D03*
Y3715480D03*
X1449800Y4138530D03*
X1430000Y6170000D03*
X1420000Y6760000D03*
X1479520Y8236880D03*
X1716100Y133550D03*
Y373550D03*
X1670000Y2280000D03*
X1600000D03*
X1670000Y2570000D03*
X1700000Y2910000D03*
X1579800Y3928530D03*
X1608690Y4392170D03*
Y4792170D03*
X1654520Y5693110D03*
X1660000Y6030000D03*
X1653110Y6355480D03*
Y6755480D03*
X1610000Y7490000D03*
X1716100Y9903550D03*
X1830000Y2420000D03*
X1849800Y4138530D03*
X1770000Y7790000D03*
X1879520Y8236880D03*
X1955820Y2692860D03*
Y3092860D03*
Y3492860D03*
X1979800Y3928530D03*
X2008690Y4392170D03*
Y4792170D03*
X2054520Y5693110D03*
X2053110Y6395480D03*
Y6795480D03*
X1940000Y7470000D03*
X1950000Y9630000D03*
X2224100Y133550D03*
Y373550D03*
X2229800Y4138530D03*
X2210000Y7470000D03*
X2080000D03*
X2090000Y8770000D03*
Y8940000D03*
X2120000Y9630000D03*
X2224100Y9903550D03*
X2300000Y2410000D03*
X2355820Y2692860D03*
Y3092860D03*
Y3492860D03*
X2249800Y3928530D03*
X2330000Y7470000D03*
X2279520Y8236880D03*
X2260000Y8770000D03*
Y8940000D03*
X2290000Y9640000D03*
X2479800Y3708530D03*
X2408690Y4392170D03*
Y4792170D03*
X2440000Y8770000D03*
Y8940000D03*
X2460000Y9640000D03*
X2732100Y133550D03*
Y373550D03*
X2700000Y2710000D03*
X2699800Y3448530D03*
X2649800Y3928530D03*
X2629800Y4138530D03*
X2679520Y8236880D03*
X2680000Y8770000D03*
Y9640000D03*
X2732100Y9903550D03*
X2830000Y2430000D03*
X2800000Y2910000D03*
X2879800Y3708530D03*
X2820000Y4500000D03*
X2810000Y4710000D03*
Y4870000D03*
X2910000Y5000000D03*
X2765120Y5895770D03*
Y6295770D03*
Y6695770D03*
X2850000Y8770000D03*
Y9640000D03*
X3040000Y2160000D03*
X3000000Y2910000D03*
X3035480Y4146890D03*
X2980000Y4500000D03*
X3080000Y8070000D03*
Y8150000D03*
X3060000Y8770000D03*
Y8990000D03*
X3050000Y9350000D03*
X3240100Y133550D03*
Y373550D03*
X3110000Y2160000D03*
X3150000Y2910000D03*
X3099800Y3448530D03*
Y3928530D03*
X3250000Y4500000D03*
X3090000Y4980000D03*
Y9640000D03*
X3240100Y9903550D03*
X3270000Y2580000D03*
X3350000Y2910000D03*
X3399800Y3338530D03*
X3260000Y4970000D03*
X3283110Y6875480D03*
Y7275480D03*
X3396350Y9270040D03*
X3395980Y9339830D03*
X3260000Y9640000D03*
X3440000Y2420000D03*
X3450000Y2800000D03*
X3499800Y3928530D03*
X3435480Y4146890D03*
X3440000Y4970000D03*
X3470000Y7560000D03*
Y7730000D03*
X3470010Y9269260D03*
X3469580Y9342920D03*
X3520000Y9640000D03*
X3748100Y133550D03*
Y373550D03*
X3760080Y2612130D03*
Y3012130D03*
X3740000Y4960000D03*
X3654520Y5763110D03*
X3700000Y7651260D03*
X3610000Y7650000D03*
X3600000Y8050000D03*
X3740000Y8180000D03*
X3650000Y9280000D03*
X3690000Y9640000D03*
X3748100Y9903550D03*
X3799800Y3338530D03*
X3790000Y3830000D03*
X3870000Y4960000D03*
X3820000Y9280000D03*
X4030000Y2410000D03*
X3940000Y3660000D03*
X3990000Y4960000D03*
X4054520Y5763110D03*
X4060000Y5960000D03*
X3960000Y8010000D03*
X4080000Y8680000D03*
X3949780Y9096620D03*
Y9496620D03*
X4256100Y133550D03*
Y373550D03*
X4160000Y3560000D03*
X4250000Y3950000D03*
X4170000Y7070000D03*
X4200000Y8680000D03*
X4256100Y9903550D03*
X4430000Y2410000D03*
Y2730000D03*
X4350000Y3300000D03*
Y3560000D03*
X4280000Y4090000D03*
X4425000Y4305000D03*
Y4555000D03*
Y4755000D03*
Y4905000D03*
X4364520Y5763110D03*
X4293110Y6285480D03*
Y6685480D03*
X4440000Y8010000D03*
X4349780Y9096620D03*
Y9496620D03*
X4450000Y2910000D03*
X4590000Y3440000D03*
X4545000Y4235000D03*
X4550000Y4930000D03*
X4474520Y6933110D03*
Y7203110D03*
X4764100Y133550D03*
Y373550D03*
X4650000Y2910000D03*
X4690000Y3300000D03*
X4745000Y4925000D03*
X4764520Y5763110D03*
X4730000Y7430000D03*
X4726500Y8110000D03*
X4749780Y9096620D03*
Y9496620D03*
X4764100Y9903550D03*
X4900000Y2280000D03*
X4920000Y2430000D03*
Y2630000D03*
X4800000Y2910000D03*
X4795000Y4235000D03*
X4880000Y6210000D03*
X4874520Y6933110D03*
Y7203110D03*
X4860000Y7430000D03*
X4853500Y8110000D03*
X4790000Y8380000D03*
X4970000Y2280000D03*
X5090000Y2810000D03*
X5000000Y2910000D03*
X5019800Y3318530D03*
X5045000Y4235000D03*
X5100000Y4320000D03*
X5060000Y4510000D03*
X4950000Y5610000D03*
Y5790000D03*
Y5700000D03*
X5070000Y6290000D03*
X4984520Y8103110D03*
X5272100Y133550D03*
Y373550D03*
X5140000Y2420000D03*
X5260000Y5070000D03*
X5280000Y6210000D03*
X5270000Y6462680D03*
Y6389020D03*
Y6610000D03*
Y6536340D03*
X5274520Y6933110D03*
Y7203110D03*
X5144520Y8303110D03*
X5149780Y9096620D03*
Y9496620D03*
X5272100Y9903550D03*
X5322160Y2721120D03*
Y3121120D03*
X5419800Y3318530D03*
X5420000Y5060000D03*
X5300000Y5610000D03*
X5380000Y6290000D03*
X5390000Y6720000D03*
X5384520Y8103110D03*
X5470000Y2420000D03*
X5560000Y4080000D03*
X5555000Y4205000D03*
X5560000Y5180000D03*
Y5330000D03*
X5580000Y5500000D03*
X5620000Y5960000D03*
X5480000D03*
X5564520Y7823110D03*
X5544520Y8303110D03*
X5549780Y9096620D03*
Y9496620D03*
X5780100Y133550D03*
Y373550D03*
X5700000Y2420000D03*
X5722160Y2721120D03*
Y3121120D03*
X5700000Y5410000D03*
X5760000Y6140000D03*
X5784520Y8103110D03*
X5780100Y9903550D03*
X5860000Y2570000D03*
X5810000Y4200000D03*
X5856200Y5050000D03*
X5850000Y5410000D03*
X5800000Y7020000D03*
Y7420000D03*
X5964520Y7823110D03*
X5944520Y8303110D03*
X6050000Y2410000D03*
X6060000Y2760000D03*
X6100000Y2910000D03*
X5969800Y3318530D03*
X6000000Y5410000D03*
X5976000Y5764000D03*
X6288100Y133550D03*
Y373550D03*
X6200000Y2550000D03*
X6300000Y2910000D03*
X6260000Y3490000D03*
X6169800Y4198530D03*
X6280000Y4490000D03*
Y4670000D03*
X6170000Y4810000D03*
X6280000D03*
X6210000Y5890000D03*
X6144520Y7303110D03*
X6288100Y9903550D03*
X6340000Y2160000D03*
X6410000D03*
X6450000Y2910000D03*
X6369800Y3318530D03*
X6439800Y3678530D03*
X6440000Y5260000D03*
X6364520Y7823110D03*
X6570000Y2570000D03*
X6569800Y4198530D03*
X6520000Y4670000D03*
X6510000Y5080000D03*
X6530900Y5769100D03*
X6544520Y7303110D03*
X6549210Y9403390D03*
X6796100Y133550D03*
Y373550D03*
X6740000Y2420000D03*
X6650000Y2910000D03*
X6670000Y3330000D03*
X6643800Y4830000D03*
X6770000Y5370000D03*
X6740000Y5760000D03*
X6770000Y6090000D03*
X6653800Y6293800D03*
X6800000Y6290000D03*
X6760000Y7410000D03*
X6796100Y9903550D03*
X6964970Y2721120D03*
Y3121120D03*
X6839800Y3678530D03*
X6969800Y4198530D03*
X6944520Y7303110D03*
X6949210Y9403390D03*
X7080000Y2430000D03*
X7119800Y3668530D03*
X7304100Y133550D03*
Y373550D03*
X7279800Y4428530D03*
X7180000Y5480000D03*
X7170000Y5750000D03*
X7150000Y6100000D03*
X7290000Y7300000D03*
Y8060000D03*
X7280000Y8620000D03*
X7304100Y9903550D03*
X7364970Y2721120D03*
Y3121120D03*
X7369800Y4198530D03*
X7349210Y9403390D03*
X7519800Y3668530D03*
X7513920Y5445700D03*
Y5845700D03*
X7570000Y7690000D03*
X7590000Y8620000D03*
X7812100Y133550D03*
Y373550D03*
X7690000Y2420000D03*
Y2700000D03*
X7750000Y2910000D03*
X7730000Y3310000D03*
X7670000Y3510000D03*
X7750000Y3830000D03*
X7819800Y4218530D03*
X7679800Y4428530D03*
X7720000Y8060000D03*
X7749210Y9403390D03*
X7812100Y9903550D03*
X7950000Y2910000D03*
X7913920Y5445700D03*
Y5845700D03*
X7880000Y8620000D03*
X8100000Y2910000D03*
X8030000Y3310000D03*
X8010000Y3560000D03*
X8110000Y3940000D03*
X8079800Y4428530D03*
X8123800Y7193800D03*
X8149210Y9403390D03*
X8320100Y133550D03*
Y373550D03*
X8200000Y2280000D03*
X8270000D03*
Y2580000D03*
X8300000Y2910000D03*
X8330000Y3310000D03*
X8320000Y3520000D03*
Y3710000D03*
X8219800Y4218530D03*
X8320000Y7190000D03*
X8310000Y7800000D03*
Y7970000D03*
X8320100Y9903550D03*
X8440000Y2400000D03*
X8400000Y2810000D03*
X8479800Y4428530D03*
X8480000Y5380000D03*
Y5640000D03*
X8400000Y6640000D03*
X8610000Y2230000D03*
X8650000Y6370000D03*
X8660000Y7610000D03*
X8540000Y8550000D03*
X8720000Y2460000D03*
X8750000Y6890000D03*
X8860000Y2230000D03*
X8898390Y2604080D03*
Y3004080D03*
Y3404080D03*
X9010000Y8210000D03*
X8880000D03*
X8970000Y8810000D03*
X9140000Y6800000D03*
Y6920000D03*
X9130000Y8030000D03*
X9140000Y8210000D03*
X9190000Y8600000D03*
Y8810000D03*
X9446450Y1478100D03*
Y1986100D03*
Y2494100D03*
Y3002100D03*
Y3510100D03*
Y4018100D03*
Y4526100D03*
Y5034100D03*
Y5542100D03*
Y6050100D03*
Y6558100D03*
Y7066100D03*
Y7574100D03*
Y8082100D03*
Y8590100D03*
G54D12*
X155050Y2530000D03*
X624950D03*
G54D21*
X1220000Y8830000D03*
Y9430000D03*
G54D30*
X4230000Y6020000D03*
X4180000D03*
Y7620000D03*
X4230000D03*
X4380000Y6020000D03*
X4330000D03*
X4280000D03*
Y7620000D03*
X4330000D03*
X4380000D03*
X4580000Y6020000D03*
X4530000D03*
X4480000D03*
X4430000D03*
Y7620000D03*
X4480000D03*
X4530000D03*
X4580000D03*
X4730000Y6020000D03*
X4680000D03*
X4630000D03*
Y7620000D03*
X4680000D03*
X4730000D03*
X4880000Y6020000D03*
X4830000D03*
X4780000D03*
Y7620000D03*
X4830000D03*
X4880000D03*
X5080000Y6020000D03*
X5030000D03*
X4980000D03*
X4930000D03*
Y7620000D03*
X4980000D03*
X5030000D03*
X5080000D03*
X5230000Y6020000D03*
X5180000D03*
X5130000D03*
Y7620000D03*
X5180000D03*
X5230000D03*
X5380000Y6020000D03*
X5330000D03*
X5280000D03*
Y7620000D03*
X5330000D03*
X5380000D03*
G54D40*
X6766000Y8908000D03*
X8880000Y6570000D03*
G54D13*
X388400Y3170000D03*
Y3370000D03*
Y3600000D03*
Y3800000D03*
Y4030000D03*
Y4230000D03*
Y4450000D03*
Y4650000D03*
Y4880000D03*
Y5080000D03*
Y5320000D03*
Y5520000D03*
X368400Y8330000D03*
Y8530000D03*
X591600Y3170000D03*
Y3370000D03*
Y3600000D03*
Y3800000D03*
Y4030000D03*
Y4230000D03*
Y4450000D03*
Y4650000D03*
Y4880000D03*
Y5080000D03*
Y5320000D03*
Y5520000D03*
X571600Y8330000D03*
Y8530000D03*
X5658400Y4490000D03*
X5861600D03*
G54D22*
X1905860Y9100000D03*
X2114140D03*
X2445860Y9090000D03*
Y9470000D03*
X2654140Y9090000D03*
Y9470000D03*
X3445860Y9090000D03*
Y9470000D03*
X3654140Y9090000D03*
Y9470000D03*
G54D31*
X4145000Y8244600D03*
Y8515400D03*
X4240000D03*
X4335000Y8244600D03*
Y8515400D03*
G54D50*
G01X6070000Y9050000D02*
Y9820000D01*
G01X8570000Y9050000D02*
X9380000D01*
G01X8570000D02*
Y9820000D01*
G54D41*
X7043000Y8908000D03*
X6904500Y9192000D03*
X7181500D03*
X7320000Y8908000D03*
X7458500Y9192000D03*
X7597000Y8908000D03*
X7874000D03*
X7735500Y9192000D03*
X8880000Y4284000D03*
Y4538000D03*
Y4792000D03*
Y5046000D03*
Y5300000D03*
Y5554000D03*
Y5808000D03*
Y6062000D03*
Y6316000D03*
X9134000Y4284000D03*
Y4538000D03*
Y4792000D03*
Y5046000D03*
Y5300000D03*
Y5554000D03*
Y5808000D03*
Y6062000D03*
Y6316000D03*
Y6570000D03*
G54D32*
X4395000Y4130000D03*
Y5030000D03*
X4545000Y4130000D03*
X4495000D03*
X4445000D03*
Y5030000D03*
X4495000D03*
X4545000D03*
X4745000Y4130000D03*
X4695000D03*
X4645000D03*
X4595000D03*
Y5030000D03*
X4645000D03*
X4695000D03*
X4745000D03*
X4895000Y4130000D03*
X4845000D03*
X4795000D03*
Y5030000D03*
X4845000D03*
X4895000D03*
X5095000Y4130000D03*
X5045000D03*
X4995000D03*
X4945000D03*
Y5030000D03*
X4995000D03*
X5045000D03*
X5095000D03*
X5145000Y4130000D03*
Y5030000D03*
G54D23*
X1870000Y9380000D03*
X2150000D03*
G54D14*
X530000Y7180000D03*
X670000D03*
X600000D03*
X810000D03*
X740000D03*
X1020000D03*
X950000D03*
X880000D03*
X1160000D03*
X1090000D03*
X1370000D03*
X1300000D03*
X1230000D03*
X1510000D03*
X1440000D03*
X1650000D03*
X1580000D03*
X1860000D03*
X1790000D03*
X1720000D03*
X2000000D03*
X1930000D03*
X2210000D03*
X2140000D03*
X2070000D03*
X2350000D03*
X2280000D03*
X2560000D03*
X2490000D03*
X2420000D03*
G54D42*
X7117000Y5010000D03*
X7127000Y6470000D03*
X7763000Y5010000D03*
X7773000Y6470000D03*
G54D15*
X715500Y1405000D03*
X2264500D03*
X2365500D03*
X3914500D03*
X4015500D03*
X5665500D03*
X5564500D03*
X7214500D03*
X7315500D03*
X8864500D03*
G54D24*
X2260000Y5785860D03*
Y5994140D03*
X2460000Y5785860D03*
Y5994140D03*
G54D33*
X4320000Y4205000D03*
Y4255000D03*
Y4305000D03*
Y4355000D03*
Y4405000D03*
Y4455000D03*
Y4505000D03*
Y4555000D03*
Y4605000D03*
Y4655000D03*
Y4705000D03*
Y4755000D03*
Y4805000D03*
Y4855000D03*
Y4905000D03*
Y4955000D03*
X5220000Y4205000D03*
Y4405000D03*
Y4355000D03*
Y4305000D03*
Y4255000D03*
Y4555000D03*
Y4505000D03*
Y4455000D03*
Y4755000D03*
Y4705000D03*
Y4655000D03*
Y4605000D03*
Y4905000D03*
Y4855000D03*
Y4805000D03*
Y4955000D03*
G54D16*
X590000Y5863800D03*
Y6016200D03*
X780000Y5863800D03*
Y6016200D03*
X1150000Y3013800D03*
Y3166200D03*
X1070000Y5563800D03*
Y5716200D03*
Y5873800D03*
Y6026200D03*
X1350000Y2283800D03*
Y2436200D03*
Y2633800D03*
Y2786200D03*
Y3013800D03*
Y3166200D03*
X1250000Y5563800D03*
Y5716200D03*
Y5873800D03*
Y6026200D03*
X1500000Y2283800D03*
Y2436200D03*
Y2633800D03*
Y2786200D03*
Y3013800D03*
Y3166200D03*
X1430000Y5563800D03*
Y5716200D03*
Y5873800D03*
Y6026200D03*
X1700000Y3013800D03*
Y3166200D03*
X1880000Y5873800D03*
Y6026200D03*
X2050000Y5873800D03*
Y6026200D03*
X2800000Y3013800D03*
Y3166200D03*
X3000000Y2283800D03*
Y2436200D03*
Y2633800D03*
Y2786200D03*
Y3013800D03*
Y3166200D03*
X3150000Y2283800D03*
Y2436200D03*
Y2633800D03*
Y2786200D03*
Y3013800D03*
Y3166200D03*
X3130000Y6213800D03*
Y6366200D03*
X3350000Y3013800D03*
Y3166200D03*
X3710000Y6203800D03*
Y6356200D03*
X3960000Y8313800D03*
Y8466200D03*
Y8663800D03*
Y8816200D03*
X4450000Y3013800D03*
Y3166200D03*
X4540000Y8303800D03*
Y8456200D03*
X4650000Y2283800D03*
Y2436200D03*
Y2633800D03*
Y2786200D03*
Y3013800D03*
Y3166200D03*
X4800000Y2283800D03*
Y2436200D03*
Y2633800D03*
Y2786200D03*
Y3013800D03*
Y3166200D03*
X4820000Y5303800D03*
Y5456200D03*
X5000000Y3013800D03*
Y3166200D03*
X4970000Y5303800D03*
Y5456200D03*
X5120000Y5303800D03*
Y5456200D03*
X5270000Y5303800D03*
Y5456200D03*
X5420000Y5303800D03*
Y5456200D03*
Y5613800D03*
Y5766200D03*
X5580000Y5613800D03*
Y5766200D03*
X5700000Y5153800D03*
Y5306200D03*
X5850000Y5153800D03*
Y5306200D03*
X6100000Y3013800D03*
Y3166200D03*
X6000000Y5153800D03*
Y5306200D03*
X6300000Y2283800D03*
Y2436200D03*
Y2633800D03*
Y2786200D03*
Y3013800D03*
Y3166200D03*
X6150000Y5153800D03*
X6300000D03*
X6150000Y5306200D03*
X6300000D03*
X6450000Y2283800D03*
Y2436200D03*
Y2633800D03*
Y2786200D03*
Y3013800D03*
Y3166200D03*
X6340000Y8263800D03*
Y8416200D03*
X6610000Y7533800D03*
Y7686200D03*
X6650000Y3013800D03*
Y3166200D03*
X6760000Y7533800D03*
Y7686200D03*
X7120000Y7533800D03*
Y7686200D03*
X7270000Y7533800D03*
Y7686200D03*
X7750000Y3013800D03*
Y3166200D03*
X7720000Y8243800D03*
Y8396200D03*
X7950000Y2283800D03*
Y2436200D03*
Y2633800D03*
Y2786200D03*
Y3013800D03*
Y3166200D03*
X7910000Y7193800D03*
Y7346200D03*
X8100000Y2283800D03*
Y2436200D03*
Y2633800D03*
Y2786200D03*
Y3013800D03*
Y3166200D03*
X8300000Y3013800D03*
Y3166200D03*
X8550000Y6643800D03*
Y6796200D03*
Y6953800D03*
Y7106200D03*
Y7273800D03*
Y7426200D03*
Y7603800D03*
Y7756200D03*
Y7933800D03*
Y8086200D03*
Y8263800D03*
Y8416200D03*
G54D34*
X4330000Y8700000D03*
X4860000D03*
G54D43*
X7919500Y7593800D03*
Y8386200D03*
X8046500Y7593800D03*
Y8386200D03*
X8300500Y7593800D03*
X8173500D03*
Y8386200D03*
X8300500D03*
G54D25*
X2924600Y8895000D03*
Y8990000D03*
Y9085000D03*
Y9255000D03*
Y9350000D03*
Y9445000D03*
X3195400Y8895000D03*
Y9085000D03*
Y9255000D03*
Y9445000D03*
G54D44*
G01X1090000Y7180000D02*
Y6900000D01*
X970000Y6780000D01*
G01D02*
X880000Y6870000D01*
Y7180000D01*
G01X1010000Y6960000D02*
X1020000Y6970000D01*
G01X960000Y6960000D02*
X950000Y6970000D01*
G01X1020000D02*
Y7180000D01*
G01X950000Y6970000D02*
Y7180000D01*
G01D02*
Y7420000D01*
G01X1020000Y7180000D02*
Y7420000D01*
G01X880000Y7180000D02*
Y8213800D01*
X996200Y8330000D01*
G01X1090000Y7180000D02*
Y8236200D01*
X996200Y8330000D01*
G01X1380000Y6930000D02*
X1370000Y6940000D01*
G01D02*
Y7180000D01*
G01Y7420000D02*
Y7180000D01*
G01X1360000Y7430000D02*
X1370000Y7420000D01*
G01X1650000Y7180000D02*
Y6940000D01*
G01X1580000Y7180000D02*
Y6940000D01*
G01X1650000Y7180000D02*
Y7420000D01*
G01X1580000Y7180000D02*
Y7420000D01*
G01X2000000Y7180000D02*
Y6940000D01*
G01X1930000Y7180000D02*
Y6930000D01*
G01X2000000Y7180000D02*
Y7420000D01*
G01X1930000Y7180000D02*
Y7420000D01*
G01X2210000Y7180000D02*
Y6940000D01*
G01X2140000Y7180000D02*
Y6940000D01*
G01X2070000Y7180000D02*
Y6940000D01*
G01X2140000Y7180000D02*
Y7420000D01*
G01X2070000Y7180000D02*
Y7420000D01*
G01X2210000Y7410000D02*
Y7180000D01*
G01X2200000Y7420000D02*
X2210000Y7410000D01*
G01X2350000Y7180000D02*
Y6084140D01*
X2260000Y5994140D01*
G01X2420000Y7180000D02*
Y6034140D01*
X2460000Y5994140D01*
G01X2490000Y7180000D02*
Y6950000D01*
G01X3366200Y7560000D02*
X3266200Y7460000D01*
X2470000D01*
X2420000Y7410000D01*
Y7180000D01*
G01X2560000D02*
Y6950000D01*
G01Y7180000D02*
X2640000D01*
G54D26*
X3110000Y4630000D03*
X2950000D03*
X3110000Y4850000D03*
X2950000D03*
G54D35*
X4770000Y4580000D03*
G54D17*
X740000Y9110000D03*
G54D45*
G01X4395000Y5030000D02*
Y5095000D01*
X4333200Y5156800D01*
X1096800D01*
X920000Y4980000D01*
X520000D01*
X490000Y5010000D01*
Y5218400D01*
X591600Y5320000D01*
G01X940000Y3170000D02*
X591600D01*
G01X850000Y3370000D02*
X591600D01*
G01X780000Y3600000D02*
X591600D01*
G01X710000Y3800000D02*
X591600D01*
G01X940000Y4030000D02*
X591600D01*
G01X850000Y4230000D02*
X591600D01*
G01X780000Y4450000D02*
X591600D01*
G01X710000Y4650000D02*
X591600D01*
G01Y4880000D02*
X940000D01*
G01X591600Y5080000D02*
X850000D01*
G01X591600Y5320000D02*
X780000D01*
G01X591600Y5520000D02*
X710000D01*
G01X1172000Y1989000D02*
X1126660Y1898340D01*
X1099400Y1889260D01*
X1073700Y1902110D01*
X1045810Y1930000D01*
X940000D01*
X830000Y1820000D01*
Y1650000D01*
X1000000Y1480000D01*
X1920000D01*
X2150000Y1710000D01*
Y2300000D01*
X1620640Y2829360D01*
Y3080000D01*
X1700000Y3159360D01*
Y3166200D01*
G01X4445000Y5030000D02*
Y5115000D01*
X4362560Y5197440D01*
X967440D01*
X850000Y5080000D01*
G01X4545000Y5030000D02*
Y5095000D01*
X4401920Y5238080D01*
X991920D01*
X710000Y5520000D01*
G01X1045000Y1735000D02*
X1090330Y1825650D01*
X1081230Y1852910D01*
X1081220D01*
X1049620Y1868700D01*
X1028970Y1889360D01*
X956840D01*
X870640Y1803160D01*
Y1666840D01*
X1016840Y1520640D01*
X1903160D01*
X2109360Y1726840D01*
Y2283160D01*
X1580000Y2812520D01*
Y3007160D01*
X1579920Y3007240D01*
Y3007400D01*
X1580000Y3007480D01*
Y3080000D01*
X1500000Y3160000D01*
Y3166200D01*
G01X4320000Y4955000D02*
Y5060000D01*
X4263840Y5116160D01*
X1176160D01*
X940000Y4880000D01*
G01X4320000Y4655000D02*
X4247450D01*
X4242770Y4650320D01*
X3850320D01*
X3640000Y4440000D01*
Y4170000D01*
X3520000Y4050000D01*
X1520000D01*
X1230000Y3760000D01*
Y3430000D01*
X1229680Y3429680D01*
Y3245880D01*
X1150000Y3166200D01*
G01X1299000Y1735000D02*
Y2121000D01*
X1230000Y2190000D01*
Y3090000D01*
X1153800Y3166200D01*
X1150000D01*
G01X1680000Y1989000D02*
X1548000Y2121000D01*
X1356480D01*
X1270640Y2206840D01*
Y3090000D01*
X1346840Y3166200D01*
X1350000D01*
G01D02*
X1270320Y3245880D01*
Y3412840D01*
X1270640Y3413160D01*
Y3743160D01*
X1536840Y4009360D01*
X3536840D01*
X3680640Y4153160D01*
Y4423160D01*
X3867160Y4609680D01*
X4242770D01*
X4247450Y4605000D01*
X4320000D01*
G01Y4505000D02*
X4247450D01*
X4242770Y4500320D01*
X3930320D01*
X3800000Y4370000D01*
Y4030000D01*
X3620000Y3850000D01*
X1790000D01*
X1580000Y3640000D01*
Y3320000D01*
X1579680Y3319680D01*
Y3245880D01*
X1500000Y3166200D01*
G01X1440000Y7180000D02*
Y7640000D01*
X1696200Y7896200D01*
Y7896210D01*
X1719990Y7920000D01*
X5060000D01*
X5180000Y7800000D01*
Y7620000D01*
G01X1510000Y7180000D02*
Y7652520D01*
X1736840Y7879360D01*
X5040640D01*
X5130000Y7790000D01*
Y7620000D01*
G01X1700000Y3166200D02*
X1620320Y3245880D01*
Y3302840D01*
X1620640Y3303160D01*
Y3623160D01*
X1806840Y3809360D01*
X3636840D01*
X3840640Y4013160D01*
Y4353160D01*
X3947160Y4459680D01*
X4242770D01*
X4247450Y4455000D01*
X4320000D01*
G01X3213800Y7730000D02*
X1830000D01*
X1720000Y7620000D01*
Y7180000D01*
G01X3213800Y7560000D02*
X1860000D01*
X1790000Y7490000D01*
Y7180000D01*
G01X2695000Y1735000D02*
X2781360Y1648640D01*
Y1578840D01*
X2752520Y1550000D01*
X2620000D01*
X2510640Y1659360D01*
Y2303160D01*
X2920640Y2713160D01*
Y3090000D01*
X2996840Y3166200D01*
X3000000D01*
G01X2822000Y1989000D02*
Y1562000D01*
X2769360Y1509360D01*
X2603160D01*
X2470000Y1642520D01*
Y2320000D01*
X2880000Y2730000D01*
Y3090000D01*
X2803800Y3166200D01*
X2800000D01*
G01D02*
Y3228830D01*
X2820320Y3249150D01*
X2859360D01*
X2879680Y3269470D01*
Y3292830D01*
X2879360Y3293150D01*
Y3549360D01*
X2990640Y3660640D01*
X3770640D01*
X3959360Y3849360D01*
Y4306840D01*
X4052840Y4400320D01*
X4242770D01*
X4247450Y4405000D01*
X4320000D01*
G01X2949000Y1735000D02*
X3084000Y1600000D01*
X3272520D01*
X3333480Y1539040D01*
X3636520D01*
X3760640Y1663160D01*
Y2299360D01*
X3270640Y2789360D01*
Y3090000D01*
X3346840Y3166200D01*
X3350000D01*
G01X3000000D02*
Y3228830D01*
X2979680Y3249150D01*
X2940640D01*
X2920320Y3269470D01*
Y3326520D01*
X2920000Y3326840D01*
G01D02*
Y3532520D01*
X3007480Y3620000D01*
X3787480D01*
X4000000Y3832520D01*
Y4290000D01*
X4069680Y4359680D01*
X4242770D01*
X4247450Y4355000D01*
X4320000D01*
G01X2920000Y3310000D02*
Y3326840D01*
G01X3353800Y4840000D02*
X3253800Y4740000D01*
X3040000D01*
X2950000Y4830000D01*
Y4850000D01*
G01X3330000Y1989000D02*
Y1600000D01*
X3350320Y1579680D01*
X3619680D01*
X3720000Y1680000D01*
Y2282520D01*
X3230000Y2772520D01*
Y3090000D01*
X3153800Y3166200D01*
X3150000D01*
G01X4320000Y4255000D02*
X4247450D01*
X4242770Y4250320D01*
X4154120D01*
X4110000Y4206200D01*
Y3720000D01*
X3860640Y3470640D01*
X3300640D01*
X3230000Y3400000D01*
Y3310000D01*
X3229680Y3309680D01*
Y3269470D01*
X3209360Y3249150D01*
X3170320D01*
X3150000Y3228830D01*
Y3166200D01*
G01X3110000Y4630000D02*
X3343800D01*
X3353800Y4640000D01*
G01X3213800Y7560000D02*
X3293800Y7640000D01*
X3480000D01*
X3638080Y7798080D01*
X4999330D01*
X5030000Y7767410D01*
Y7620000D01*
G01X3213800Y7730000D02*
X3322520Y7838720D01*
X5016170D01*
X5080000Y7774890D01*
Y7620000D01*
G01X4320000Y4205000D02*
X4247450D01*
X4242770Y4209680D01*
X4170960D01*
X4150640Y4189360D01*
Y3703160D01*
X3877480Y3430000D01*
X3317480D01*
X3270640Y3383160D01*
Y3269790D01*
X3270320Y3269470D01*
X3290640Y3249150D01*
X3329680D01*
X3350000Y3228830D01*
Y3166200D01*
G01X3353800Y4640000D02*
X3433800Y4720000D01*
X3617480D01*
X3702480Y4805000D01*
X4320000D01*
G01X3353800Y4840000D02*
X3430000Y4763800D01*
X3593800D01*
X3685000Y4855000D01*
X4320000D01*
G01X3516200Y4450000D02*
X3771200Y4705000D01*
X4320000D01*
G01X4645000Y5030000D02*
Y5145000D01*
X4240000Y5550000D01*
X3546200D01*
X3446200Y5650000D01*
G01Y5500000D02*
X4232520D01*
X4595000Y5137520D01*
Y5030000D01*
G01X4695000D02*
Y5165000D01*
X4260000Y5600000D01*
X3656200D01*
X3446200Y5810000D01*
G01X3610000Y7650000D02*
Y6872520D01*
X3812520Y6670000D01*
X3980000D01*
G01X3700000Y7651260D02*
Y6840000D01*
X3770000Y6770000D01*
X3980000D01*
G01Y7170000D02*
X3800000D01*
X3750000Y7220000D01*
Y7490000D01*
X3800000Y7540000D01*
X4080000D01*
X4260960Y7359040D01*
X5289040D01*
X6080000Y8150000D01*
X7034610D01*
X7143500Y8258890D01*
Y8430000D01*
G01X3980000Y7220000D02*
X3820640D01*
X3790640Y7250000D01*
Y7473160D01*
X3816840Y7499360D01*
X4063160D01*
X4199360Y7363160D01*
Y7363150D01*
X4244110Y7318400D01*
X5305890D01*
X5350640Y7363150D01*
Y7363160D01*
X6096840Y8109360D01*
X7120970D01*
X7270500Y8258890D01*
Y8430000D01*
G01X4345000Y1735000D02*
X4390330Y1825650D01*
X4381230Y1852910D01*
X4381220D01*
X4349620Y1868700D01*
X4328970Y1889360D01*
X4256840D01*
X4170640Y1803160D01*
Y1666840D01*
X4316840Y1520640D01*
X5203160D01*
X5409360Y1726840D01*
Y2283160D01*
X4880000Y2812520D01*
Y3007160D01*
X4879920Y3007240D01*
Y3007400D01*
X4880000Y3007480D01*
Y3080000D01*
X4800000Y3160000D01*
Y3166200D01*
G01X4472000Y1989000D02*
X4426660Y1898340D01*
X4399400Y1889260D01*
X4373700Y1902110D01*
X4345810Y1930000D01*
X4240000D01*
X4130000Y1820000D01*
Y1650000D01*
X4300000Y1480000D01*
X5220000D01*
X5450000Y1710000D01*
Y2300000D01*
X4920640Y2829360D01*
Y3080000D01*
X5000000Y3159360D01*
Y3166200D01*
G01X4280000Y4090000D02*
X4370000D01*
X4395000Y4115000D01*
Y4130000D01*
G01X4320000Y4305000D02*
X4425000D01*
G01X4320000Y4555000D02*
X4425000D01*
G01X4320000Y4755000D02*
X4425000D01*
G01X4320000Y4905000D02*
X4425000D01*
G01X4599000Y1735000D02*
Y2121000D01*
X4530000Y2190000D01*
Y3090000D01*
X4453800Y3166200D01*
X4450000D01*
G01X4980000Y1989000D02*
X4848000Y2121000D01*
X4656480D01*
X4570640Y2206840D01*
Y3090000D01*
X4646840Y3166200D01*
X4650000D01*
G01X4445000Y4130000D02*
Y4057450D01*
X4449680Y4052770D01*
Y3360320D01*
X4530000Y3280000D01*
Y3250000D01*
X4450000Y3170000D01*
Y3166200D01*
G01X4495000Y4130000D02*
Y4057450D01*
X4490320Y4052770D01*
Y3377160D01*
X4570640Y3296840D01*
Y3250000D01*
X4650000Y3170640D01*
Y3166200D01*
G01X4545000Y4130000D02*
Y4235000D01*
G01X4550000Y4930000D02*
X4540000D01*
X4495000Y4975000D01*
Y5030000D01*
G01X5270000Y6610000D02*
X4820000D01*
X4580000Y6370000D01*
Y6020000D01*
G01X4595000Y4130000D02*
Y4057450D01*
X4599680Y4052770D01*
Y3560320D01*
X4880000Y3280000D01*
Y3246200D01*
X4800000Y3166200D01*
G01X4645000Y4130000D02*
Y4057450D01*
X4640320Y4052770D01*
Y3577160D01*
X4920640Y3296840D01*
Y3245560D01*
X5000000Y3166200D01*
G01X4695000Y4130000D02*
Y4057450D01*
X4699680Y4052770D01*
Y3720320D01*
X5010000Y3410000D01*
X6142520D01*
X6179360Y3373160D01*
Y3323160D01*
X6179680Y3322840D01*
Y3245880D01*
X6100000Y3166200D01*
G01X4745000Y4130000D02*
Y4057450D01*
X4740320Y4052770D01*
Y3737160D01*
X5026840Y3450640D01*
X6159360D01*
X6220000Y3390000D01*
Y3340000D01*
X6220320Y3339680D01*
Y3245880D01*
X6300000Y3166200D01*
G01X4745000Y5030000D02*
Y4925000D01*
G01X5270000Y6462680D02*
X4814120D01*
X4680000Y6328560D01*
Y6020000D01*
G01X5270000Y6536340D02*
X4817060D01*
X4630000Y6349280D01*
Y6020000D01*
G01X5270000Y6389020D02*
X4811180D01*
X4730000Y6307840D01*
Y6020000D01*
G01X4895000Y4130000D02*
Y4057450D01*
X4890320Y4052770D01*
Y3837160D01*
X5096840Y3630640D01*
X6349360D01*
X6570000Y3410000D01*
Y3335260D01*
G01X4845000Y4130000D02*
Y4057450D01*
X4849680Y4052770D01*
Y3820320D01*
X5080000Y3590000D01*
X6332520D01*
X6529360Y3393160D01*
Y3293150D01*
X6529680Y3292830D01*
Y3249670D01*
X6450000Y3169990D01*
Y3166200D01*
G01X4795000Y4130000D02*
Y4235000D01*
G01X4970000Y5303800D02*
X4845000Y5178800D01*
Y5030000D01*
G01X5120000Y5303800D02*
X5026200Y5210000D01*
X4950000D01*
X4895000Y5155000D01*
Y5030000D01*
G01X4795000D02*
Y5278800D01*
X4820000Y5303800D01*
G01Y5456200D02*
X4903800Y5540000D01*
X4990000D01*
X5130000Y5680000D01*
Y6020000D01*
G01X7750000Y3166200D02*
Y3169990D01*
X7829680Y3249670D01*
Y3282830D01*
X7829360Y3283150D01*
Y3503160D01*
X7563160Y3769360D01*
X5093160D01*
X4949680Y3912840D01*
Y4052770D01*
X4945000Y4057450D01*
Y4130000D01*
G01X7870000Y3316840D02*
Y3520000D01*
X7580000Y3810000D01*
X5110000D01*
X4990320Y3929680D01*
Y4052770D01*
X4995000Y4057450D01*
Y4130000D01*
G01X5045000D02*
Y4235000D01*
G01X5060000Y4510000D02*
Y4450000D01*
X5155000Y4355000D01*
X5220000D01*
G01X4970000Y5456200D02*
X5053800Y5540000D01*
X5120000D01*
X5180000Y5600000D01*
Y6020000D01*
G01X4950000Y5700000D02*
X5030960Y5780960D01*
Y5825260D01*
X5030000Y5826220D01*
Y6020000D01*
G01X4950000Y5610000D02*
X5080000Y5740000D01*
Y6020000D01*
G01X4980000D02*
Y5820000D01*
X4950000Y5790000D01*
G01X8100000Y3166200D02*
X8179680Y3245880D01*
Y3299670D01*
X8180000Y3299990D01*
Y3650000D01*
X7880640Y3949360D01*
X5143800D01*
X5099680Y3993480D01*
Y4052770D01*
X5095000Y4057450D01*
Y4130000D01*
G01X8300000Y3166200D02*
X8293790D01*
X8220320Y3239670D01*
Y3282830D01*
X8220640Y3283150D01*
Y3666840D01*
X7897480Y3990000D01*
X5160640D01*
X5140320Y4010320D01*
Y4052770D01*
X5145000Y4057450D01*
Y4130000D01*
G01X5220000Y4205000D02*
X5555000D01*
G01X6796200Y4940000D02*
Y4426200D01*
X6658720Y4288720D01*
X5556320D01*
X5440040Y4405000D01*
X5220000D01*
G01Y4305000D02*
X5115000D01*
X5105000Y4315000D01*
G01D02*
X5104370Y4314370D01*
Y4285630D01*
X5135000Y4255000D01*
X5220000D01*
G01X5105000Y4315000D02*
X5100000Y4320000D01*
G01X5110000Y4590000D02*
X5130000Y4570000D01*
Y4480000D01*
X5155000Y4455000D01*
X5220000D01*
G01Y4555000D02*
X5405000D01*
X5590000Y4370000D01*
X6310000D01*
X6380000Y4440000D01*
Y4923800D01*
X6150000Y5153800D01*
G01X5220000Y4505000D02*
X5397520D01*
X5573160Y4329360D01*
X6326840D01*
X6420640Y4423160D01*
Y5033160D01*
X6300000Y5153800D01*
G01X5220000Y4605000D02*
X5543400D01*
X5658400Y4490000D01*
G01X5703800Y4950000D02*
X5658800Y4905000D01*
X5220000D01*
G01Y4855000D02*
X5918800D01*
X6013800Y4950000D01*
G01X5220000Y4805000D02*
X5878800D01*
X6013800Y4670000D01*
G01X5220000Y4755000D02*
X5628800D01*
X5713800Y4670000D01*
G01X5420000Y5303800D02*
X5326200Y5210000D01*
X5240000D01*
X5145000Y5115000D01*
Y5030000D01*
G01X5270000Y5303800D02*
X5095000Y5128800D01*
Y5030000D01*
G01X5220000Y4955000D02*
X5315000D01*
X5420000Y5060000D01*
G01X5230000Y6020000D02*
Y5566200D01*
X5120000Y5456200D01*
G01X5420000D02*
X5456200Y5420000D01*
X5610000D01*
X5740000Y5550000D01*
X5849000D01*
G01X5420000Y5456200D02*
Y5613800D01*
G01X5300000Y5610000D02*
Y5486200D01*
X5270000Y5456200D01*
G01X5380000Y6020000D02*
Y5806200D01*
X5420000Y5766200D01*
G01X6103000Y5550000D02*
Y5787000D01*
X6020000Y5870000D01*
X5520000D01*
X5420000Y5770000D01*
Y5766200D01*
G01X5580000Y6270000D02*
X6363800D01*
X6653800Y6560000D01*
G01X6150000Y5306200D02*
Y5310000D01*
X6329360Y5489360D01*
Y5786840D01*
X6453160Y5910640D01*
X7313160D01*
X7389360Y5986840D01*
Y6633160D01*
X7273160Y6749360D01*
X6506840D01*
X6077480Y6320000D01*
X5580000D01*
G01X6300000Y5306200D02*
Y5310000D01*
X6370000Y5380000D01*
Y5770000D01*
X6470000Y5870000D01*
X7330000D01*
X7430000Y5970000D01*
Y6650000D01*
X7290000Y6790000D01*
X6490000D01*
X6070000Y6370000D01*
X5580000D01*
G01X8550000Y7106200D02*
X8283800Y6840000D01*
X6462880D01*
X6042880Y6420000D01*
X5580000D01*
G01X8950000Y7280000D02*
X8700000D01*
X8610000Y7190000D01*
X8450000D01*
X8150000Y6890000D01*
X6442160D01*
X6022160Y6470000D01*
X5580000D01*
G01X7910000Y7346200D02*
X7553800Y6990000D01*
X6400720D01*
X5980720Y6570000D01*
X5580000D01*
G01X8550000Y7426200D02*
X8446200D01*
X7960000Y6940000D01*
X6421440D01*
X6001440Y6520000D01*
X5580000D01*
G01X8173500Y8386200D02*
Y8503500D01*
X8200000Y8530000D01*
X8340000D01*
X8369360Y8500640D01*
Y8240000D01*
X8111270Y7981910D01*
Y7479570D01*
X8071700Y7440000D01*
X8023840D01*
X7984270Y7479570D01*
Y7725730D01*
X7950000Y7760000D01*
X7890000D01*
X7857270Y7727270D01*
Y7497350D01*
X7399920Y7040000D01*
X6380000D01*
X5960000Y6620000D01*
X5580000D01*
G01X8046500Y7593800D02*
Y7783500D01*
X8010000Y7820000D01*
X7860000D01*
X7816630Y7776630D01*
Y7514190D01*
X7383080Y7080640D01*
X6363160D01*
X6052520Y6770000D01*
X5580000D01*
G01X8300500Y8386200D02*
Y8317980D01*
X7775990Y7793470D01*
Y7531030D01*
X7366240Y7121280D01*
X6346320D01*
X6045040Y6820000D01*
X5580000D01*
G01X8173500Y7593800D02*
Y7973500D01*
X8410000Y8210000D01*
Y8520000D01*
X8350000Y8580000D01*
X8040000D01*
X7981730Y8521730D01*
Y8114170D01*
X7694710Y7827150D01*
Y7564710D01*
X7332560Y7202560D01*
X6312640D01*
X6030080Y6920000D01*
X5580000D01*
G01X8046500Y8386200D02*
Y8121460D01*
X7735350Y7810310D01*
Y7547870D01*
X7349400Y7161920D01*
X6329480D01*
X6037560Y6870000D01*
X5580000D01*
G01X6122000Y1989000D02*
Y1562000D01*
X6069360Y1509360D01*
X5903160D01*
X5770000Y1642520D01*
Y2320000D01*
X6180000Y2730000D01*
Y3090000D01*
X6103800Y3166200D01*
X6100000D01*
G01X5700000Y5153800D02*
Y4953800D01*
X5703800Y4950000D01*
G01X5700000Y5306200D02*
Y5410000D01*
G01X5995000Y1735000D02*
X6081360Y1648640D01*
Y1578840D01*
X6052520Y1550000D01*
X5920000D01*
X5810640Y1659360D01*
Y2303160D01*
X6220640Y2713160D01*
Y3090000D01*
X6296840Y3166200D01*
X6300000D01*
G01X5861600Y4490000D02*
X6023800D01*
G01X5856200Y4950000D02*
Y5050000D01*
G01X6013800Y4950000D02*
X5940000Y5023800D01*
Y5063800D01*
X5850000Y5153800D01*
G01Y5306200D02*
Y5410000D01*
G01X6000000Y5153800D02*
X6150000D01*
G01X6249000Y1735000D02*
X6384000Y1600000D01*
X6572520D01*
X6633480Y1539040D01*
X6936520D01*
X7060640Y1663160D01*
Y2299360D01*
X6570640Y2789360D01*
Y3090000D01*
X6646840Y3166200D01*
X6650000D01*
G01X6630000Y1989000D02*
Y1600000D01*
X6650320Y1579680D01*
X6919680D01*
X7020000Y1680000D01*
Y2282520D01*
X6530000Y2772520D01*
Y3090000D01*
X6453800Y3166200D01*
X6450000D01*
G01X6650000D02*
X6570320Y3245880D01*
Y3334940D01*
X6570000Y3335260D01*
G01Y3310000D02*
Y3335260D01*
G01X6610000Y7533800D02*
Y7380000D01*
X6650000Y7340000D01*
X6840000D01*
X6889500Y7389500D01*
Y7890000D01*
G01X6635500D02*
Y7711700D01*
X6610000Y7686200D01*
G01X6653800Y6560000D02*
X6656200D01*
X6806200Y6410000D01*
G01X6760000Y7533800D02*
Y7410000D01*
G01X6762500Y7890000D02*
Y7688700D01*
X6760000Y7686200D01*
G01X6796200Y5090000D02*
Y4940000D01*
G01Y5090000D02*
X7037000D01*
X7117000Y5010000D01*
G01X6800000Y6290000D02*
Y6403800D01*
X6806200Y6410000D01*
G01D02*
X7067000D01*
X7127000Y6470000D01*
G01X6889500Y8430000D02*
Y8754500D01*
X7043000Y8908000D01*
G01X7016500Y7890000D02*
Y7637300D01*
X7120000Y7533800D01*
G01X7143500Y7890000D02*
Y7709700D01*
X7120000Y7686200D01*
G01X7016500Y8430000D02*
Y8604500D01*
X7320000Y8908000D01*
G01X7270500Y7890000D02*
Y7686700D01*
X7270000Y7686200D01*
G01X7772000Y1989000D02*
X7726660Y1898340D01*
X7699400Y1889260D01*
X7673700Y1902110D01*
X7645810Y1930000D01*
X7540000D01*
X7430000Y1820000D01*
Y1650000D01*
X7600000Y1480000D01*
X8520000D01*
X8750000Y1710000D01*
Y2300000D01*
X8220640Y2829360D01*
Y3080000D01*
X8300000Y3159360D01*
Y3166200D01*
G01X7645000Y1735000D02*
X7690330Y1825650D01*
X7681230Y1852910D01*
X7681220D01*
X7649620Y1868700D01*
X7628970Y1889360D01*
X7556840D01*
X7470640Y1803160D01*
Y1666840D01*
X7616840Y1520640D01*
X8503160D01*
X8709360Y1726840D01*
Y2283160D01*
X8180000Y2812520D01*
Y3007160D01*
X8179920Y3007240D01*
Y3007400D01*
X8180000Y3007480D01*
Y3080000D01*
X8100000Y3160000D01*
Y3166200D01*
G01X7899000Y1735000D02*
Y2121000D01*
X7830000Y2190000D01*
Y3090000D01*
X7753800Y3166200D01*
X7750000D01*
G01X8280000Y1989000D02*
X8148000Y2121000D01*
X7956480D01*
X7870640Y2206840D01*
Y3090000D01*
X7946840Y3166200D01*
X7950000D01*
G01X7870000Y3316840D02*
X7870320Y3316520D01*
Y3245880D01*
X7950000Y3166200D01*
G01X7870000Y3300000D02*
Y3316840D01*
G01X7919500Y7593800D02*
Y7355700D01*
X7910000Y7346200D01*
G01X8880000Y5046000D02*
X8432200D01*
X8426200Y5040000D01*
G01X8880000Y5808000D02*
X8418200D01*
X8416200Y5810000D01*
G01X8880000Y6062000D02*
X8418200D01*
X8416200Y6060000D01*
G01X9014000Y7090000D02*
Y6894000D01*
X8916200Y6796200D01*
X8550000D01*
G01X8887000Y7870000D02*
Y8057000D01*
X8930000Y8100000D01*
X9190000D01*
X9220000Y8070000D01*
Y7310000D01*
X9140000Y7230000D01*
X8730000D01*
X8606200Y7106200D01*
X8550000D01*
G01Y7426200D02*
X8726190D01*
X8887000Y7587010D01*
Y7630000D01*
G01X8760000Y7870000D02*
Y8010000D01*
X8683800Y8086200D01*
X8550000D01*
G01X8950000Y7280000D02*
Y7715110D01*
X8915110Y7750000D01*
X8830000D01*
X8760000Y7820000D01*
Y7870000D01*
G01X9141000Y7630000D02*
Y7341000D01*
X9080000Y7280000D01*
X8950000D01*
G01X9014000Y7630000D02*
Y7708590D01*
X8887000Y7835590D01*
Y7870000D01*
G54D18*
X827500Y610000D03*
X1081500D03*
X1045000Y1735000D03*
X1172000Y1989000D03*
X1299000Y1735000D03*
X1426000Y1989000D03*
X1553000Y1735000D03*
X1680000Y1989000D03*
X1898500Y610000D03*
X1807000Y1735000D03*
X1934000Y1989000D03*
X2152500Y610000D03*
X2477500D03*
X2731500D03*
X2695000Y1735000D03*
X2949000D03*
X2822000Y1989000D03*
X3076000D03*
X3203000Y1735000D03*
X3457000D03*
X3330000Y1989000D03*
X3548500Y610000D03*
X3584000Y1989000D03*
X3802500Y610000D03*
X4127500D03*
X4381500D03*
X4345000Y1735000D03*
X4472000Y1989000D03*
X4599000Y1735000D03*
X4726000Y1989000D03*
X4853000Y1735000D03*
X4980000Y1989000D03*
X5107000Y1735000D03*
X5198500Y610000D03*
X5234000Y1989000D03*
X5452500Y610000D03*
X5777500D03*
X5995000Y1735000D03*
X6031500Y610000D03*
X6122000Y1989000D03*
X6249000Y1735000D03*
X6503000D03*
X6376000Y1989000D03*
X6630000D03*
X6848500Y610000D03*
X6757000Y1735000D03*
X6884000Y1989000D03*
X7102500Y610000D03*
X7427500D03*
X7681500D03*
X7645000Y1735000D03*
X7772000Y1989000D03*
X7899000Y1735000D03*
X8026000Y1989000D03*
X8153000Y1735000D03*
X8280000Y1989000D03*
X8498500Y610000D03*
X8407000Y1735000D03*
X8534000Y1989000D03*
X8752500Y610000D03*
G54D27*
X3330000Y8110000D03*
Y8670000D03*
G54D36*
G01X3203000Y1735000D02*
Y1862000D01*
X3076000Y1989000D01*
G01Y2136000D02*
Y1989000D01*
G01X3080000Y2140000D02*
X3076000Y2136000D01*
G01X6503000Y1735000D02*
Y1862000D01*
X6376000Y1989000D01*
G01Y2136000D02*
Y1989000D01*
G01X6380000Y2140000D02*
X6376000Y2136000D01*
X4770000Y4580000D03*
X4650000Y4460000D03*
Y4700000D03*
X4890000Y4460000D03*
Y4700000D03*
G54D46*
G01X388400Y3370000D02*
Y3170000D01*
G01Y3600000D02*
Y3370000D01*
G01Y3800000D02*
Y3600000D01*
G01X1100000Y3910000D02*
X490000D01*
X388400Y3808400D01*
Y3800000D01*
G01Y4230000D02*
Y4030000D01*
G01Y4450000D02*
Y4230000D01*
G01Y4650000D02*
Y4450000D01*
G01X1020000Y4760000D02*
X490000D01*
X388400Y4658400D01*
Y4650000D01*
G01Y5080000D02*
Y4880000D01*
G01Y5320000D02*
Y5080000D01*
G01Y5520000D02*
Y5320000D01*
G01X3293800Y5810000D02*
X2943800Y5460000D01*
X1000000D01*
X820000Y5640000D01*
X490000D01*
X388400Y5538400D01*
Y5520000D01*
G01X590000Y5863800D02*
X670000Y5943800D01*
Y7180000D01*
G01X600000D02*
Y6026200D01*
X590000Y6016200D01*
G01X843800Y8330000D02*
X571600D01*
G01Y8530000D02*
X843800D01*
G01X780000Y5863800D02*
X870000Y5953800D01*
Y6110000D01*
X810000Y6170000D01*
Y7180000D01*
G01X780000Y6016200D02*
X740000Y6056200D01*
Y7180000D01*
G01X1020000Y5390000D02*
X3033800D01*
X3293800Y5650000D01*
G01X996200Y8530000D02*
X2000000D01*
X2140000Y8670000D01*
X3330000D01*
G01X1100000Y5310000D02*
X3103800D01*
X3293800Y5500000D01*
G01X1070000Y5716200D02*
Y5873800D01*
G01X1160000Y7180000D02*
Y5963800D01*
X1070000Y5873800D01*
G01X1250000Y5716200D02*
Y5873800D01*
G01D02*
X1340000Y5963800D01*
Y6410000D01*
X1230000Y6520000D01*
Y7180000D01*
G01X1430000Y5873800D02*
X1520000Y5963800D01*
Y6300000D01*
X1300000Y6520000D01*
Y7180000D01*
G01X1430000Y5873800D02*
Y5716200D01*
G01X1790000Y7180000D02*
Y5963800D01*
X1880000Y5873800D01*
G01X1860000Y7180000D02*
Y6046200D01*
X1880000Y6026200D01*
G01X2280000Y7180000D02*
Y6256200D01*
X2050000Y6026200D01*
G01X3130000Y6213800D02*
X3292060D01*
X3315860Y6190000D01*
G01X3130000Y6366200D02*
X3302060D01*
X3315860Y6380000D01*
G01Y6190000D02*
X3334140D01*
X3524140Y6000000D01*
G01X3315860Y6380000D02*
X3505860Y6570000D01*
X3524140D01*
G01X3366200Y7730000D02*
X3470000D01*
G01X3643800Y8310000D02*
X3380000D01*
X3330000Y8260000D01*
Y8110000D01*
G01X3643800Y8470000D02*
X3380000D01*
X3330000Y8520000D01*
Y8670000D01*
G01X3524140Y6000000D02*
X3670000D01*
X3890000Y6220000D01*
X3980000D01*
G01X3710000Y6203800D02*
X3537940D01*
X3524140Y6190000D01*
G01X3710000Y6356200D02*
X3547940D01*
X3524140Y6380000D01*
G01Y6570000D02*
X3650000D01*
X3850000Y6370000D01*
X3980000D01*
G01Y6270000D02*
X3776200D01*
X3710000Y6203800D01*
G01X3980000Y6320000D02*
X3746200D01*
X3710000Y6356200D01*
G01X3980000Y7020000D02*
X3810000D01*
G01X3796200Y8310000D02*
X3956200D01*
X3960000Y8313800D01*
G01X3796200Y8470000D02*
X3956200D01*
X3960000Y8466200D01*
G01X3796200Y8820000D02*
Y8660000D01*
G01Y8820000D02*
X3956200D01*
X3960000Y8816200D01*
G01X4150000Y6980000D02*
X4110000Y7020000D01*
X3980000D01*
G01Y7070000D02*
X4170000D01*
G01X3960000Y8313800D02*
X4096200D01*
X4145000Y8265000D01*
Y8244600D01*
G01X3960000Y8466200D02*
X4106200D01*
X4145000Y8505000D01*
Y8515400D01*
G01X3960000Y8816200D02*
X4743800D01*
X4860000Y8700000D01*
G01X4335000Y8524600D02*
Y8695000D01*
X4330000Y8700000D01*
G01X4335000Y8524600D02*
Y8515400D01*
G01Y8524600D02*
X4360400Y8550000D01*
X4666500D01*
X4726500Y8490000D01*
Y8489220D01*
G01X4730000Y7620000D02*
Y7430000D01*
G01X4630000Y8120000D02*
X4640000Y8110000D01*
G01D02*
Y8080000D01*
X4680000Y8040000D01*
X4790000D01*
G01X4726500Y8270780D02*
Y8110000D01*
G01Y8489220D02*
Y8270780D01*
G01X4880000Y5850000D02*
X4930000Y5900000D01*
Y6020000D01*
G01X4880000D02*
Y6210000D01*
G01X4820000Y7450000D02*
X4780000Y7490000D01*
Y7620000D01*
G01X4944300Y8064300D02*
X4920000Y8040000D01*
X4790000D01*
G01D02*
Y8270780D01*
G01X4853500D02*
Y8110000D01*
G01Y8489220D02*
Y8270780D01*
G01X4790000Y8489220D02*
Y8380000D01*
G01X4860000Y8700000D02*
X4853500Y8693500D01*
Y8489220D01*
G01X4980000Y6190000D02*
X4930000Y6140000D01*
Y6020000D01*
G01X5310000Y5860000D02*
X5330000Y5880000D01*
Y6020000D01*
G01X5370000Y6180000D02*
X5330000Y6140000D01*
Y6020000D01*
G01X5280000D02*
Y6210000D01*
G01X5310000Y6690000D02*
X5370000Y6630000D01*
G01X5410000D02*
X5450000Y6670000D01*
X5580000D01*
G01Y6720000D02*
X5390000D01*
G01X5420000Y7340000D02*
X5450000Y7370000D01*
X5580000D01*
G01X5750000Y7340000D02*
X5720000Y7370000D01*
X5580000D01*
G01Y7420000D02*
X5800000D01*
G01X6166200Y4670000D02*
X6076200Y4580000D01*
X5940000D01*
X5866200Y4653800D01*
G01D02*
Y4670000D01*
G01X6230000Y6090000D02*
X6524900D01*
X6530900Y6084000D01*
G54D28*
X3315860Y6000000D03*
Y6190000D03*
Y6380000D03*
Y6570000D03*
X3524140Y6000000D03*
Y6190000D03*
Y6380000D03*
Y6570000D03*
G54D37*
X4726500Y8270780D03*
Y8489220D03*
X4853500Y8270780D03*
X4790000D03*
Y8489220D03*
X4853500D03*
G54D19*
X918500Y1100000D03*
X2061500D03*
X2568500D03*
X3711500D03*
X4218500D03*
X5361500D03*
X5868500D03*
X7011500D03*
X7518500D03*
X8661500D03*
G54D47*
G01X330000Y330000D02*
Y703400D01*
G01Y330000D02*
X703400D01*
G01X330000Y9296600D02*
Y9670000D01*
G01D02*
X703400D01*
G01X584100Y9110000D02*
X740000D01*
G01Y8854100D02*
Y9110000D01*
G01D02*
X895900D01*
G01X964100Y8830000D02*
X1220000D01*
G01X964100Y9430000D02*
X1220000D01*
G01Y8674100D02*
Y8830000D01*
G01D02*
Y8985900D01*
G01Y8830000D02*
X1475900D01*
G01X1220000Y9274100D02*
Y9430000D01*
G01D02*
Y9585900D01*
G01Y9430000D02*
X1475900D01*
G01X7874000Y8775900D02*
Y8908000D01*
G01D02*
X8006100D01*
G01X8876600Y330000D02*
X9250000D01*
G01X8876600Y9670000D02*
X9250000D01*
G01Y330000D02*
Y703400D01*
G01Y9296600D02*
Y9670000D01*
G54D29*
X3980000Y6220000D03*
Y6270000D03*
Y6320000D03*
Y6370000D03*
Y6420000D03*
Y6470000D03*
Y6520000D03*
Y6570000D03*
Y6620000D03*
Y6670000D03*
Y6720000D03*
Y6770000D03*
Y6820000D03*
Y6870000D03*
Y6920000D03*
Y6970000D03*
Y7020000D03*
Y7070000D03*
Y7120000D03*
Y7170000D03*
Y7220000D03*
Y7270000D03*
Y7320000D03*
Y7370000D03*
Y7420000D03*
X5580000Y6270000D03*
Y6220000D03*
Y6420000D03*
Y6370000D03*
Y6320000D03*
Y6570000D03*
Y6520000D03*
Y6470000D03*
Y6770000D03*
Y6720000D03*
Y6670000D03*
Y6620000D03*
Y6920000D03*
Y6870000D03*
Y6820000D03*
Y7120000D03*
Y7070000D03*
Y7020000D03*
Y6970000D03*
Y7270000D03*
Y7220000D03*
Y7170000D03*
Y7420000D03*
Y7370000D03*
Y7320000D03*
G54D38*
X5849000Y5550000D03*
Y6090000D03*
X6103000Y5550000D03*
X5976000D03*
Y6090000D03*
X6103000D03*
X6230000Y5550000D03*
Y6090000D03*
X6635500Y7890000D03*
Y8430000D03*
X6762500Y7890000D03*
Y8430000D03*
X6889500Y7890000D03*
Y8430000D03*
X7143500Y7890000D03*
X7016500D03*
Y8430000D03*
X7143500D03*
X7270500Y7890000D03*
Y8430000D03*
X7397500Y7890000D03*
Y8430000D03*
X7524500Y7890000D03*
Y8430000D03*
X8760000Y7090000D03*
Y7630000D03*
Y7870000D03*
Y8410000D03*
X8887000Y7090000D03*
Y7630000D03*
Y7870000D03*
Y8410000D03*
X9141000Y7090000D03*
X9014000D03*
Y7630000D03*
X9141000D03*
Y7870000D03*
X9014000D03*
Y8410000D03*
X9141000D03*
G54D48*
G01X330000Y0D02*
X9250000D01*
G03X9580000Y330000I0J330000D01*
G01Y9670000D01*
G03X9250000Y10000000I-330000J0D01*
G01X330000D01*
G03X0Y9670000I0J-330000D01*
G01Y330000D01*
G03X330000Y0I330000J0D01*
G54D39*
X6530900Y5576000D03*
Y6084000D03*
X6950000Y5576000D03*
Y6084000D03*
G54D49*
G01X970000Y6780000D02*
Y5660100D01*
X1066300Y5563800D01*
X1070000D01*
G01X1150000Y2910000D02*
Y3013800D01*
G01X1070000Y5563800D02*
X1250000D01*
G01X1350000Y2910000D02*
Y2786200D01*
G01Y3013800D02*
Y2910000D01*
G01X1250000Y5563800D02*
X1430000D01*
G01X1500000Y2910000D02*
Y2786200D01*
G01Y3013800D02*
Y2910000D01*
G01X2460000Y5994140D02*
X2580000Y5874140D01*
Y5650000D01*
X2493800Y5563800D01*
X1430000D01*
G01X1700000Y2910000D02*
Y3013800D01*
G01X2800000Y2910000D02*
Y3013800D01*
G01X3000000Y2910000D02*
Y2786200D01*
G01Y3013800D02*
Y2910000D01*
G01X2924600Y8990000D02*
X3060000D01*
G01X2924600Y9350000D02*
X3050000D01*
G01X3150000Y2910000D02*
Y2786200D01*
G01Y3013800D02*
Y2910000D01*
G01X3350000D02*
Y3013800D01*
G01X3363800Y4450000D02*
Y4473800D01*
G01D02*
X3486100Y4596100D01*
G01X3470000Y7560000D02*
Y6724140D01*
X3315860Y6570000D01*
G01X3366200Y7560000D02*
X3470000D01*
G01X3486100Y4596100D02*
X3506200D01*
Y4640000D01*
G01X3643800Y8660000D02*
Y8636200D01*
G01D02*
X3711440Y8568560D01*
X3878560D01*
X3960000Y8650000D01*
G01D02*
Y8663800D01*
G01X4180000Y6200000D02*
X4160000D01*
G01D02*
X4100000Y6140000D01*
G01X4335000Y8244600D02*
X4394200Y8303800D01*
X4540000D01*
G01X4450000Y2910000D02*
Y3013800D01*
G01X6340000Y8416200D02*
X5886200D01*
X5448080Y7978080D01*
X4651920D01*
X4540000Y8090000D01*
Y8303800D01*
G01X4650000Y2786200D02*
Y2910000D01*
G01D02*
Y3013800D01*
G01X4800000Y2910000D02*
Y2786200D01*
G01Y3013800D02*
Y2910000D01*
G01X5000000D02*
Y3013800D01*
G01X5410000Y6200000D02*
Y6190000D01*
G01D02*
X5460000Y6140000D01*
G01X5580000Y5766200D02*
X5973800D01*
X5976000Y5764000D01*
G01X6100000Y2910000D02*
Y3013800D01*
G01X6000000Y5306200D02*
Y5410000D01*
G01X5976000Y5550000D02*
Y5764000D01*
G01X6176200Y4490000D02*
X6280000D01*
G01X6300000Y2786200D02*
Y2910000D01*
G01X6450000D02*
Y2786200D01*
G01X6300000Y2910000D02*
Y3013800D01*
G01X6450000D02*
Y2910000D01*
G01X7730000Y9050000D02*
X6590890D01*
X6340000Y8799110D01*
Y8416200D01*
G01X6635500Y8430000D02*
X6353800D01*
X6340000Y8416200D01*
G01X6643800Y5250000D02*
Y5463100D01*
X6530900Y5576000D01*
G01D02*
Y5769100D01*
G01X6650000Y2910000D02*
Y3013800D01*
G01X6643800Y4940000D02*
Y4830000D01*
G01X6653800Y6410000D02*
Y6293800D01*
G01X7750000Y2910000D02*
Y3013800D01*
G01X7720000Y8396200D02*
X7909500D01*
X7919500Y8386200D01*
G01X7730000Y9050000D02*
Y8406200D01*
X7720000Y8396200D01*
G01X8760000Y8410000D02*
Y8480000D01*
X8590000Y8650000D01*
X8400000D01*
X8000000Y9050000D01*
X7730000D01*
G01X7950000Y2786200D02*
Y2910000D01*
G01D02*
Y3013800D01*
G01X7910000Y7193800D02*
X8123800D01*
G01X8100000Y2910000D02*
Y2786200D01*
G01Y3013800D02*
Y2910000D01*
G01X8123800Y7193800D02*
X8440000Y7510000D01*
Y7649900D01*
X8546300Y7756200D01*
X8550000D01*
G01X8300000Y2910000D02*
Y3013800D01*
G01X8273800Y5040000D02*
Y5800000D01*
X8263800Y5810000D01*
G01Y6060000D02*
Y5810000D01*
G01Y6060000D02*
Y6530000D01*
G01D02*
Y6667600D01*
X8550000Y6953800D01*
G01X8880000Y6570000D02*
X8840000Y6530000D01*
X8263800D01*
G01X8550000Y7273800D02*
X8403800D01*
X8320000Y7190000D01*
G01X8550000Y8263800D02*
X8450000Y8163800D01*
Y8030100D01*
X8546300Y7933800D01*
X8550000D01*
G01Y7756200D02*
X8673800D01*
X8760000Y7670000D01*
Y7630000D01*
G01X8550000Y7933800D02*
Y7756200D01*
G01Y8263800D02*
X8673800D01*
X8760000Y8350000D01*
Y8410000D01*
G01X8880000Y490000D02*
X8930000Y540000D01*
Y580000D01*
G01X9130000Y4130000D02*
X9134000Y4134000D01*
G01Y4276000D02*
X9230000Y4180000D01*
G01X9134000Y4284000D02*
X9040000Y4190000D01*
G01X9134000Y4134000D02*
Y4276000D01*
G01Y4538000D02*
Y4284000D01*
G01D02*
Y4276000D01*
G01Y4792000D02*
Y4538000D01*
G01Y5046000D02*
Y4792000D01*
G01Y5300000D02*
Y5046000D01*
G01Y5554000D02*
Y5300000D01*
G01Y5808000D02*
Y5554000D01*
G01Y6062000D02*
Y5808000D01*
G01Y6316000D02*
Y6062000D01*
M02*
