G04 ================== begin FILE IDENTIFICATION RECORD ==================*
G04 Layout Name:  F:/迅雷下载/47_MSP430F5438A最小系统板/PCB/F5438A_MINI_V10A.brd*
G04 Film Name:    TOP*
G04 File Format:  Gerber RS274X*
G04 File Origin:  Cadence Allegro 16.6-2015-S071*
G04 Origin Date:  Thu Jun 30 19:48:49 2016*
G04 *
G04 Layer:  VIA CLASS/TOP*
G04 Layer:  PIN/TOP*
G04 Layer:  ETCH/TOP*
G04 *
G04 Offset:    (0.0000 0.0000)*
G04 Mirror:    No*
G04 Mode:      Positive*
G04 Rotation:  0*
G04 FullContactRelief:  No*
G04 UndefLineWidth:     0.1524*
G04 ================== end FILE IDENTIFICATION RECORD ====================*
%FSLAX25Y25*MOMM*%
%IR0*IPPOS*OFA0.00000B0.00000*MIA0B0*SFA1.00000B1.00000*%
%ADD30R,.4X1.4*%
%ADD16R,1.5X.6*%
%ADD27R,.8X1.4*%
%ADD24R,1.06X.65*%
%ADD18R,.254X2.032*%
%ADD17R,2.032X.254*%
%ADD13C,.5588*%
%ADD21R,1.X1.8*%
%ADD28R,1.8X2.*%
%ADD29R,2.5X1.8*%
%ADD23R,1.27X1.27*%
%ADD12C,2.032*%
%ADD14C,1.016*%
%ADD25R,1.2192X1.016*%
%ADD19R,1.016X1.2192*%
%ADD15C,1.524*%
%ADD10C,6.35*%
%ADD22R,1.524X1.524*%
%ADD11C,1.778*%
%ADD26R,.9144X.9144*%
%ADD20R,.9144X.9144*%
%ADD31C,.254*%
%ADD32C,.508*%
%ADD33C,.635*%
%ADD34C,.762*%
%ADD39C,.8004*%
%ADD37C,2.1848*%
%ADD35C,2.4388*%
%ADD36C,2.6928*%
%ADD38R,2.1848X2.1848*%
G75*
%LPD*%
G75*
G36*
G01X37290Y522870D02*
G02X0Y534050I-16970J11176D01*
G01Y6125950D01*
G02X37290Y6137130I20320J4D01*
G03X186090Y6010360I292713J192867D01*
G01X192080Y6007670D01*
Y5990940D01*
X150000D01*
G03X95060Y5760140I0J-121939D01*
G02Y5723860I-9160J-18140D01*
G03Y5506140I54940J-108860D01*
G02Y5469860I-9160J-18140D01*
G03Y5252140I54940J-108860D01*
G02Y5215860I-9160J-18140D01*
G03Y4998140I54940J-108860D01*
G02Y4961860I-9160J-18140D01*
G03Y4744140I54940J-108860D01*
G02Y4707860I-9160J-18140D01*
G03Y4490140I54940J-108860D01*
G02Y4453860I-9160J-18140D01*
G03Y4236140I54940J-108860D01*
G02Y4199860I-9160J-18140D01*
G03Y3982140I54940J-108860D01*
G02Y3945860I-9160J-18140D01*
G03Y3728140I54940J-108860D01*
G02Y3691860I-9160J-18140D01*
G03Y3474140I54940J-108860D01*
G02Y3437860I-9160J-18140D01*
G03Y3220140I54940J-108860D01*
G02Y3183860I-9160J-18140D01*
G03Y2966140I54940J-108860D01*
G02Y2929860I-9160J-18140D01*
G03Y2712140I54940J-108860D01*
G02Y2675860I-9160J-18140D01*
G03Y2458140I54940J-108860D01*
G02Y2421860I-9160J-18140D01*
G03Y2204140I54940J-108860D01*
G02Y2167860I-9160J-18140D01*
G03Y1950140I54940J-108860D01*
G02Y1913860I-9160J-18140D01*
G03Y1696140I54940J-108860D01*
G02Y1659860I-9160J-18140D01*
G03Y1442140I54940J-108860D01*
G02Y1405860I-9160J-18140D01*
G03Y1188140I54940J-108860D01*
G02Y1151860I-9160J-18140D01*
G03Y934140I54940J-108860D01*
G02Y897860I-9160J-18140D01*
G03X258860Y734060I54940J-108860D01*
G02X295140I18140J-9160D01*
G03X309510Y711930I108852J54952D01*
G02X295740Y678860I-15748J-12845D01*
G03X37290Y522870I34259J-348861D01*
G37*
G36*
G01X167960Y935240D02*
X212850Y980150D01*
X150000Y1049350D01*
X87150Y980150D01*
X132040Y935240D01*
G03X167960I17960J17960D01*
G37*
G36*
G01X225700Y1388890D02*
X149500Y1385880D01*
X147800Y1294710D01*
X238900Y1297000D01*
Y1376200D01*
G03X225700Y1388890I-12700J0D01*
G37*
G36*
G01X227200Y1639900D02*
X150000D01*
X147740Y1548770D01*
X238890Y1550830D01*
X239900Y1627030D01*
G03X227200Y1639900I-12700J169D01*
G37*
G36*
G01X231200Y1893900D02*
X150000D01*
X147680Y1802830D01*
X238860Y1804170D01*
X243870Y1880370D01*
G03X231200Y1893900I-12670J833D01*
G37*
G36*
G01X226030Y2148900D02*
X149830Y2147890D01*
X147770Y2056740D01*
X238900Y2059000D01*
Y2136200D01*
G03X226030Y2148900I-12701J0D01*
G37*
G36*
G01X226200Y2401900D02*
X150000D01*
X147750Y2310750D01*
X238900Y2313000D01*
Y2389200D01*
G03X226200Y2401900I-12700J0D01*
G37*
G36*
G01X233200Y2655900D02*
X150000D01*
X147660Y2564860D01*
X238840Y2565840D01*
X245850Y2642040D01*
G03X233200Y2655900I-12650J1157D01*
G37*
G36*
G01X227200Y2909900D02*
X150000D01*
X147740Y2818770D01*
X238890Y2820830D01*
X239900Y2897030D01*
G03X227200Y2909900I-12700J169D01*
G37*
G36*
G01X226200Y3163900D02*
X150000D01*
X147750Y3072750D01*
X238900Y3075000D01*
Y3151200D01*
G03X226200Y3163900I-12700J0D01*
G37*
G36*
G01X226030Y3418900D02*
X149830Y3417890D01*
X147770Y3326740D01*
X238900Y3329000D01*
Y3406200D01*
G03X226030Y3418900I-12701J0D01*
G37*
G36*
G01X229200Y3671900D02*
X150000D01*
X147710Y3580800D01*
X238880Y3582500D01*
X241890Y3658700D01*
G03X229200Y3671900I-12690J500D01*
G37*
G36*
G01X225700Y3928890D02*
X149500Y3925880D01*
X147800Y3834710D01*
X238900Y3837000D01*
Y3916200D01*
G03X225700Y3928890I-12700J0D01*
G37*
G36*
G01X226200Y4179900D02*
X150000D01*
X147750Y4088750D01*
X238900Y4091000D01*
Y4167200D01*
G03X226200Y4179900I-12700J0D01*
G37*
G36*
G01X225370Y4438870D02*
X149170Y4433860D01*
X147830Y4342680D01*
X238900Y4345000D01*
Y4426200D01*
G03X225370Y4438870I-12697J0D01*
G37*
G36*
G01X226030Y4688900D02*
X149830Y4687890D01*
X147770Y4596740D01*
X238900Y4599000D01*
Y4676200D01*
G03X226030Y4688900I-12701J0D01*
G37*
G36*
G01X225040Y4948850D02*
X148840Y4941840D01*
X147860Y4850660D01*
X238900Y4853000D01*
Y4936200D01*
G03X225040Y4948850I-12703J0D01*
G37*
G36*
G01X225700Y5198890D02*
X149500Y5195880D01*
X147800Y5104710D01*
X238900Y5107000D01*
Y5186200D01*
G03X225700Y5198890I-12700J0D01*
G37*
G36*
G01X227200Y5449900D02*
X150000D01*
X147740Y5358770D01*
X238890Y5360830D01*
X239900Y5437030D01*
G03X227200Y5449900I-12700J169D01*
G37*
G36*
G01X225370Y5708870D02*
X149170Y5703860D01*
X147830Y5612680D01*
X238900Y5615000D01*
Y5696200D01*
G03X225370Y5708870I-12697J0D01*
G37*
G36*
G01X245200Y5957900D02*
X150000D01*
X147520Y5867020D01*
X238510Y5865930D01*
X257520Y5942130D01*
G03X245200Y5957900I-12320J3073D01*
G37*
G36*
G01X562470Y731140D02*
X524420Y769190D01*
X525030Y774110D01*
G03X458940Y897860I-121028J14887D01*
G02Y934140I9160J18140D01*
G03Y1151860I-54940J108860D01*
G02Y1188140I9160J18140D01*
G03X525940Y1297000I-54937J108860D01*
G01Y1354250D01*
X765740Y1594050D01*
Y1784570D01*
X1660670Y2679510D01*
G02X1695360Y2665140I14369J-14370D01*
G01Y2654260D01*
X1784260D01*
Y1981050D01*
X2104890Y1660430D01*
G02X2090520Y1625740I-14370J-14369D01*
G01X1461050D01*
X1374260Y1538950D01*
Y1008250D01*
G02X1339260Y994200I-20320J-1D01*
G03X1100980Y765540I-119262J-114202D01*
G02X1086340Y731140I-14645J-14083D01*
G01X562470D01*
G37*
G36*
G01X480200Y1385900D02*
X404000D01*
X401750Y1294750D01*
X492900Y1297000D01*
Y1373200D01*
G03X480200Y1385900I-12700J0D01*
G37*
G36*
G01Y1639900D02*
X404000D01*
X401750Y1548750D01*
X492900Y1551000D01*
Y1627200D01*
G03X480200Y1639900I-12700J0D01*
G37*
G36*
G01X514800Y1893900D02*
X404000D01*
X401380Y1803200D01*
X491750Y1799750D01*
X526360Y1875950D01*
G03X514800Y1893900I-11560J5253D01*
G37*
G36*
G01X520740Y2067980D02*
X466850Y2121850D01*
X400820Y2059000D01*
X466850Y1996150D01*
X520740Y2050020D01*
G03Y2067980I-8980J8980D01*
G37*
G36*
G01Y2321980D02*
X466850Y2375850D01*
X400820Y2313000D01*
X466850Y2250150D01*
X520740Y2304020D01*
G03Y2321980I-8980J8980D01*
G37*
G36*
G01Y2575980D02*
X466850Y2629850D01*
X400820Y2567000D01*
X466850Y2504150D01*
X520740Y2558020D01*
G03Y2575980I-8980J8980D01*
G37*
G36*
G01Y2829980D02*
X466850Y2883850D01*
X400820Y2821000D01*
X466850Y2758150D01*
X520740Y2812020D01*
G03Y2829980I-8980J8980D01*
G37*
G36*
G01Y3083980D02*
X466850Y3137850D01*
X400820Y3075000D01*
X466850Y3012150D01*
X520740Y3066020D01*
G03Y3083980I-8980J8980D01*
G37*
G36*
G01X510520Y3263090D02*
X530700Y3283260D01*
X994050D01*
G02X1001230Y3265920I-6J-10159D01*
G01X981050Y3245740D01*
X517700D01*
G02X510520Y3263090I0J10161D01*
G37*
G36*
G01X520740Y3337980D02*
X466850Y3391850D01*
X400820Y3329000D01*
X466850Y3266150D01*
X520740Y3320020D01*
G03Y3337980I-8980J8980D01*
G37*
G36*
G01Y3591980D02*
X466850Y3645850D01*
X400820Y3583000D01*
X466850Y3520150D01*
X520740Y3574020D01*
G03Y3591980I-8980J8980D01*
G37*
G36*
G01Y3845980D02*
X466850Y3899850D01*
X400820Y3837000D01*
X466850Y3774150D01*
X520740Y3828020D01*
G03Y3845980I-8980J8980D01*
G37*
G36*
G01X524670Y4350050D02*
X466850Y4407850D01*
X400830Y4345110D01*
X466180Y4281520D01*
X523990Y4331460D01*
G03X524670Y4350050I-8301J9611D01*
G37*
G36*
G01X520740Y4607980D02*
X466850Y4661850D01*
X400820Y4599000D01*
X466850Y4536150D01*
X520740Y4590020D01*
G03Y4607980I-8980J8980D01*
G37*
G36*
G01X489700Y4780000D02*
X489690Y4849800D01*
X401750Y4855250D01*
X407200Y4767310D01*
X477000Y4767300D01*
G03X489700Y4780000I0J12700D01*
G37*
G36*
G01X520740Y5115980D02*
X466850Y5169850D01*
X400820Y5107000D01*
X466850Y5044150D01*
X520740Y5098020D01*
G03Y5115980I-8980J8980D01*
G37*
G36*
G01Y5369980D02*
X466850Y5423850D01*
X400820Y5361000D01*
X466850Y5298150D01*
X520740Y5352020D01*
G03Y5369980I-8980J8980D01*
G37*
G36*
G01Y5623980D02*
X466850Y5677850D01*
X400820Y5615000D01*
X466850Y5552150D01*
X520740Y5606020D01*
G03Y5623980I-8980J8980D01*
G37*
G36*
G01Y5877980D02*
X466850Y5931850D01*
X400820Y5869000D01*
X466850Y5806150D01*
X520740Y5860020D01*
G03Y5877980I-8980J8980D01*
G37*
G36*
G01X534050Y0D02*
G02X522870Y37290I-4J20320D01*
G03X678360Y290970I-192870J292710D01*
G02X711200Y304620I20195J-2257D01*
G03X680800Y481320I83800J105382D01*
G02X645290Y483200I-17235J10763D01*
G03X598410Y555470I-315298J-153187D01*
G02X613960Y588860I15556J13071D01*
G01X2094560D01*
Y566000D01*
X2262240D01*
Y761240D01*
X2280370D01*
G02X2300300Y736940I3J-20321D01*
G01X2297760Y724220D01*
Y566000D01*
X2642240D01*
Y741740D01*
X2641870Y741920D01*
X2646270Y761240D01*
X2660370D01*
G02X2680300Y736940I3J-20321D01*
G01X2677760Y724220D01*
Y566000D01*
X3022240D01*
Y692350D01*
G02X3039580Y699530I10159J-6D01*
G01X3057760Y681350D01*
Y566000D01*
X3225440D01*
Y754000D01*
X3193070D01*
G02X3186340Y771770I2J10160D01*
G01X3198620Y782630D01*
X3203920Y781180D01*
G03Y898820I16080J58820D01*
G01X3198620Y897370D01*
X3174430Y918760D01*
X3120460D01*
Y1052650D01*
X2908440D01*
Y1102830D01*
X2843610Y1167650D01*
G02X2846250Y1183920I7187J7183D01*
G01X2848740Y1185170D01*
X2919720D01*
X2924940Y1180570D01*
X3096780D01*
X3465790Y811560D01*
X3954210D01*
X4037060Y894410D01*
Y1138170D01*
X4057380Y1163150D01*
Y1454260D01*
X4128050D01*
X4734060Y848250D01*
Y791000D01*
G03X4792120Y687130I121942J0D01*
G02X4789620Y651200I-10641J-17312D01*
G03X4614710Y483200I140377J-321203D01*
G02X4579200Y481320I-18275J8883D01*
G03X4548800Y304620I-114200J-71318D01*
G02X4581640Y290970I12645J-15907D01*
G03X4737130Y37290I348360J39030D01*
G02X4725950Y0I-11176J-16970D01*
G01X534050D01*
G37*
G36*
G01X530700Y3374740D02*
X525870Y3379570D01*
G02X540230Y3414260I14365J14371D01*
G01X1020520D01*
G02X1034890Y3379570I0J-20321D01*
G01X1030050Y3374740D01*
X530700D01*
G37*
G36*
G01X1768470Y4875740D02*
X708950D01*
X558950Y5025740D01*
X519700D01*
G02X512520Y5043090I0J10161D01*
G01X530700Y5061260D01*
X1766690D01*
G02X1784300Y5030810I-2J-20318D01*
G03X1785820Y4906620I105698J-60811D01*
G02X1768470Y4875740I-17357J-10562D01*
G37*
G36*
G01X1281950Y5502740D02*
X751850Y6032840D01*
X576770D01*
G02X563250Y6068330I0J20320D01*
G03X522870Y6622710I-233251J261671D01*
G02X534050Y6660000I11176J16970D01*
G01X3118400D01*
G02X3138600Y6637420I5J-20321D01*
G01X3125460Y6520140D01*
X2924260Y6318950D01*
Y6021050D01*
X3056960Y5888350D01*
Y5502740D01*
X1281950D01*
G37*
G36*
G01X1964640Y3595740D02*
Y3945740D01*
X1291050D01*
X1263620Y3918310D01*
G02X1234890I-14365J14369D01*
G03X1220520Y3924260I-14368J-14372D01*
G01X1213480D01*
G02X1206290Y3941600I-2J10160D01*
G01X1318950Y4054260D01*
X1984260D01*
Y3965360D01*
X1996640D01*
G02X2014970Y3936280I-3J-20319D01*
G03X2023970Y3870000I55029J-26279D01*
G03Y3790000I46030J-40000D01*
G03Y3710000I46030J-40000D01*
G03X2041920Y3615870I46029J-39999D01*
G02X2043340Y3598730I-4682J-9017D01*
G03X2039670Y3595740I36653J-48736D01*
G01X1964640D01*
G37*
G36*
G01X1501290Y731140D02*
G02X1480970Y751090I-4J20320D01*
G03X1465740Y790330I-60970J-1089D01*
G01Y1439170D01*
G02X1499540Y1454370I20318J-1D01*
G03X1556150Y1441200I40453J45631D01*
G01X1557470Y1441560D01*
X1885790D01*
X1958090Y1369260D01*
X1982440Y1306960D01*
X2167480D01*
X2172700Y1311560D01*
X2190550D01*
X2248230Y1261850D01*
X2302330D01*
X2307470Y1256710D01*
G02X2300290Y1239370I-7186J-7181D01*
G01X2247990D01*
X2210640Y1206350D01*
X2206060D01*
X2173400Y1173680D01*
X2167000Y1179040D01*
X1993000D01*
X1972320Y1161740D01*
X1720330D01*
G03X1641460Y1068750I-40328J-45738D01*
G02Y1037250I-12847J-15750D01*
G03X1720330Y944260I38542J-47252D01*
G01X1971180D01*
X1992970Y925960D01*
X2126880D01*
G02X2133610Y908190I1J-10159D01*
G01X2118100Y894480D01*
X2112310Y896750D01*
G03Y783250I-22310J-56750D01*
G01X2118100Y785520D01*
X2133660Y771770D01*
G02X2126930Y754000I-6732J-7610D01*
G01X2094560D01*
Y731140D01*
X1501290D01*
G37*
G36*
G01X1411020Y780530D02*
X1400250Y769760D01*
X1420000Y746820D01*
X1439750Y769760D01*
X1428980Y780530D01*
G03X1411020I-8980J-8980D01*
G37*
G36*
G01X1514770Y3172060D02*
X1530010D01*
X1532260Y3202250D01*
X1502070Y3200000D01*
Y3184760D01*
G03X1514770Y3172060I12700J0D01*
G37*
G36*
G01X1514760Y3252060D02*
X1530000D01*
X1532250Y3282250D01*
X1502060Y3280000D01*
Y3264760D01*
G03X1514760Y3252060I12700J0D01*
G37*
G36*
G01X1710530Y998980D02*
X1699760Y1009750D01*
X1676820Y990000D01*
X1699760Y970250D01*
X1710530Y981020D01*
G03Y998980I-8980J8980D01*
G37*
G36*
G01Y1124980D02*
X1699760Y1135750D01*
X1676820Y1116000D01*
X1699760Y1096250D01*
X1710530Y1107020D01*
G03Y1124980I-8980J8980D01*
G37*
G36*
G01X1560540Y3208980D02*
X1549770Y3219750D01*
X1526840Y3200000D01*
X1549770Y3180250D01*
X1560540Y3191020D01*
G03Y3208980I-8980J8980D01*
G37*
G36*
G01X1557940Y3264760D02*
Y3280000D01*
X1527750Y3282250D01*
X1530000Y3252060D01*
X1545240D01*
G03X1557940Y3264760I0J12700D01*
G37*
G36*
G01X1975770Y983550D02*
X2005000Y959000D01*
X2083170Y988970D01*
X2005000Y1019000D01*
X1975970Y996770D01*
G03X1975770Y983550I10741J-6774D01*
G37*
G36*
G01X1976710Y1109660D02*
X2005000Y1086000D01*
X2083180Y1116000D01*
X2005000Y1146000D01*
X1976710Y1122340D01*
G03Y1109660I11000J-6340D01*
G37*
G36*
G01X1979600Y1405000D02*
X2005000Y1340000D01*
X2103020Y1359260D01*
X2155000Y1400000D01*
X2005850Y1430390D01*
G03X1979600Y1405000I-846J-25390D01*
G37*
G36*
G01X2025740Y2634640D02*
Y2738950D01*
X1968950Y2795740D01*
X1964640D01*
Y3416640D01*
G02X1993720Y3434970I20319J-3D01*
G03X2080970Y3489030I26277J55028D01*
G03X2120460Y3504370I-961J60973D01*
G02X2154260Y3489170I13482J-15201D01*
G01Y2720330D01*
G03X2141980Y2661220I45739J-40333D01*
G02X2122650Y2634640I-19330J-6262D01*
G01X2025740D01*
G37*
G36*
G01X1979470Y3491020D02*
X2000240Y3470250D01*
X2023030Y3489040D01*
X2008740Y3513460D01*
X1987970Y3512690D01*
G03X1979470Y3491020I480J-12690D01*
G37*
G36*
G01X2475740Y4234640D02*
Y4418950D01*
X2018950Y4875740D01*
X2011530D01*
G02X1994180Y4906620I7J20318D01*
G03X1998860Y4915060I-104220J63308D01*
G02X2035140I18140J-9160D01*
G03X2252860I108860J54940D01*
G02X2289140I18140J-9160D01*
G03X2435410Y4853940I108862J54940D01*
G02X2461960Y4834600I6230J-19341D01*
G01Y4625070D01*
X2507440Y4585020D01*
Y4474690D01*
X2534260Y4432390D01*
Y4234640D01*
X2475740D01*
G37*
G36*
G01X2114770Y832570D02*
X2158080Y794280D01*
X2206980Y840000D01*
X2158080Y885720D01*
X2114770Y847430D01*
G03Y832570I10300J-7430D01*
G37*
G36*
G01X2120530Y848980D02*
X2109760Y859750D01*
X2086820Y840000D01*
X2109760Y820250D01*
X2120530Y831020D01*
G03Y848980I-8980J8980D01*
G37*
G36*
G01X2183290Y995340D02*
X2155000Y1019000D01*
X2076820Y989000D01*
X2155000Y959000D01*
X2183290Y982660D01*
G03Y995340I-11000J6340D01*
G37*
G36*
G01Y1122340D02*
X2155000Y1146000D01*
X2076820Y1116000D01*
X2155000Y1086000D01*
X2183290Y1109660D01*
G03Y1122340I-11000J6340D01*
G37*
G36*
G01X2189620Y1355980D02*
X2260500Y1294890D01*
X2312290Y1338740D01*
X2351940Y1386330D01*
X2207880Y1395230D01*
G03X2189620Y1355980I2920J-25231D01*
G37*
G36*
G01X2184700Y1373840D02*
X2155000Y1400000D01*
X2073650Y1370000D01*
X2155000Y1340000D01*
X2184700Y1366160D01*
G03Y1373840I-25110J3840D01*
G37*
G36*
G01X2191020Y2710530D02*
X2180250Y2699760D01*
X2200000Y2676820D01*
X2219750Y2699760D01*
X2208980Y2710530D01*
G03X2191020I-8980J-8980D01*
G37*
G36*
G01X2140880Y3553440D02*
G03X2108080Y3604130I-60882J-3438D01*
G02X2106660Y3621270I4682J9017D01*
G03X2110330Y3624260I-36653J48736D01*
G01X2210520D01*
G02X2224890Y3589570I0J-20321D01*
G01X2175540Y3540220D01*
G02X2140880Y3553440I-14370J14369D01*
G37*
G36*
G01X2049470Y3541020D02*
X2060240Y3530250D01*
X2083180Y3550000D01*
X2060240Y3569750D01*
X2049470Y3558980D01*
G03Y3541020I8980J-8980D01*
G37*
G36*
G01X2100530Y3678980D02*
X2089760Y3689750D01*
X2066820Y3670000D01*
X2089760Y3650250D01*
X2100530Y3661020D01*
G03Y3678980I-8980J8980D01*
G37*
G36*
G01Y3758980D02*
X2089760Y3769750D01*
X2066820Y3750000D01*
X2089760Y3730250D01*
X2100530Y3741020D01*
G03Y3758980I-8980J8980D01*
G37*
G36*
G01Y3838980D02*
X2089760Y3849750D01*
X2066820Y3830000D01*
X2089760Y3810250D01*
X2100530Y3821020D01*
G03Y3838980I-8980J8980D01*
G37*
G36*
G01Y3918980D02*
X2089760Y3929750D01*
X2066820Y3910000D01*
X2089760Y3890250D01*
X2100530Y3901020D01*
G03Y3918980I-8980J8980D01*
G37*
G36*
G01X2344410Y789170D02*
X2330800Y720960D01*
X2382230Y656890D01*
X2432400Y720960D01*
X2364330Y794210D01*
G03X2344410Y789170I-8128J-9759D01*
G37*
G36*
G01X2363630Y750970D02*
X2401920Y794280D01*
X2356200Y843180D01*
X2310480Y794280D01*
X2348770Y750970D01*
G03X2363630I7430J10300D01*
G37*
G36*
G01X2209010Y981280D02*
X2260500Y934890D01*
X2309380Y980310D01*
X2260500Y1026330D01*
X2210600Y998430D01*
G03X2209010Y981280I8499J-9437D01*
G37*
G36*
G01X2217190Y1153180D02*
X2260500Y1114890D01*
X2309400Y1160610D01*
X2260500Y1206330D01*
X2217190Y1168040D01*
G03Y1153180I10300J-7430D01*
G37*
G36*
G01X2249600Y2810530D02*
X2238830Y2799760D01*
X2258580Y2776820D01*
X2278330Y2799760D01*
X2267560Y2810530D01*
G03X2249600I-8980J-8980D01*
G37*
G36*
G01X2482200Y742400D02*
X2507600Y599040D01*
X2561730Y654590D01*
X2609200Y720960D01*
X2512840Y767250D01*
G03X2482200Y742400I-5243J-24850D01*
G37*
G36*
G01X2468930Y891370D02*
X2504340Y934890D01*
X2458620Y986960D01*
X2412900Y934890D01*
X2448310Y891370D01*
G03X2468930I10310J23210D01*
G37*
G36*
G01X2448310Y1069850D02*
X2412900Y1026330D01*
X2458620Y974260D01*
X2504340Y1026330D01*
X2468930Y1069850D01*
G03X2448310I-10310J-23210D01*
G37*
G36*
G01X2576370Y929030D02*
X2538080Y885720D01*
X2583800Y836820D01*
X2629520Y885720D01*
X2591230Y929030D01*
G03X2576370I-7430J-10300D01*
G37*
G36*
G01X2468930Y1071370D02*
X2504340Y1114890D01*
X2458620Y1166960D01*
X2412900Y1114890D01*
X2448310Y1071370D01*
G03X2468930I10310J23210D01*
G37*
G36*
G01X2547860Y1170920D02*
X2504340Y1206330D01*
X2452270Y1160610D01*
X2504340Y1114890D01*
X2547860Y1150300D01*
G03Y1170920I-23210J10310D01*
G37*
G36*
G01X2387500Y1233920D02*
X2412900Y1114890D01*
X2461980Y1155220D01*
X2504340Y1206330D01*
X2420240Y1258240D01*
G03X2387500Y1233920I-7337J-24320D01*
G37*
G36*
G01X2523520Y1233320D02*
X2452030Y1277440D01*
X2384980Y1344500D01*
Y1404260D01*
X2687550D01*
G02X2707810Y1385450I-4J-20320D01*
G03X2709820Y1373850I60808J4562D01*
G01X2710180Y1372530D01*
Y1333050D01*
X2689860Y1308070D01*
Y1219050D01*
X2541060D01*
X2523520Y1233320D01*
G37*
G36*
G01X2424760Y3532060D02*
X2440000D01*
X2442250Y3562250D01*
X2412060Y3560000D01*
Y3544760D01*
G03X2424760Y3532060I12700J0D01*
G37*
G36*
G01X2504760D02*
X2520000D01*
X2522250Y3562250D01*
X2492060Y3560000D01*
Y3544760D01*
G03X2504760Y3532060I12700J0D01*
G37*
G36*
G01X2471020Y3950530D02*
X2460250Y3939760D01*
X2480000Y3916820D01*
X2499750Y3939760D01*
X2488980Y3950530D01*
G03X2471020I-8980J-8980D01*
G37*
G36*
G01X2598890Y4576040D02*
X2595000Y4820000D01*
X2541710Y4742270D01*
X2495000Y4640000D01*
X2578940Y4566080D01*
G03X2598890Y4576040I7259J10420D01*
G37*
G36*
G01X2743630Y750970D02*
X2781920Y794280D01*
X2736200Y843180D01*
X2690480Y794280D01*
X2728770Y750970D01*
G03X2743630I7430J10300D01*
G37*
G36*
G01X2592780Y919470D02*
X2603550Y930240D01*
X2583800Y953180D01*
X2564050Y930240D01*
X2574820Y919470D01*
G03X2592780I8980J8980D01*
G37*
G36*
G01X2692060Y2205240D02*
Y2190000D01*
X2722250Y2187750D01*
X2720000Y2217940D01*
X2704760D01*
G03X2692060Y2205240I0J-12700D01*
G37*
G36*
G01X2592060D02*
Y2190000D01*
X2622250Y2187750D01*
X2620000Y2217940D01*
X2604760D01*
G03X2592060Y2205240I0J-12700D01*
G37*
G36*
G01X2934260Y2634640D02*
X2575740D01*
Y2800520D01*
G02X2610430Y2814890I20321J0D01*
G01X2631050Y2794260D01*
X2758950D01*
X2855740Y2891050D01*
Y2895050D01*
G02X2873080Y2902230I10159J-6D01*
G01X2934260Y2841050D01*
Y2634640D01*
G37*
G36*
G01X2584760Y3532060D02*
X2600000D01*
X2602250Y3562250D01*
X2572060Y3560000D01*
Y3544760D01*
G03X2584760Y3532060I12700J0D01*
G37*
G36*
G01X2674760D02*
X2690000D01*
X2692250Y3562250D01*
X2662060Y3560000D01*
Y3544760D01*
G03X2674760Y3532060I12700J0D01*
G37*
G36*
G01X2578770Y4619030D02*
X2540480Y4575720D01*
X2586200Y4526820D01*
X2631920Y4575720D01*
X2593630Y4619030D01*
G03X2578770I-7430J-10300D01*
G37*
G36*
G01X2587650Y4434940D02*
X2631920Y4484280D01*
X2586430Y4533170D01*
X2540480Y4484280D01*
X2571060Y4436050D01*
G03X2587650Y4434940I8936J9022D01*
G37*
G36*
G01X2659780Y4594090D02*
X2631940Y4625580D01*
Y4707750D01*
X2629800Y4709890D01*
X2627930Y4827470D01*
G02X2648780Y4848100I20315J320D01*
G03X2685980Y4852890I3212J121899D01*
G02X2711960Y4833370I5660J-19515D01*
G01Y4638370D01*
X2713710Y4620660D01*
X2690220Y4594090D01*
G02X2659780I-15220J13463D01*
G37*
G36*
G01X2862200Y732400D02*
X2887600Y599040D01*
X2942050Y654800D01*
X2989200Y720960D01*
X2890440Y757640D01*
G03X2862200Y732400I-2841J-25240D01*
G37*
G36*
G01X2724410Y789170D02*
X2710800Y720960D01*
X2762230Y656890D01*
X2812400Y720960D01*
X2744330Y794210D01*
G03X2724410Y789170I-8128J-9759D01*
G37*
G36*
G01X2778930Y1161370D02*
X2814340Y1204890D01*
X2768620Y1256960D01*
X2722900Y1204890D01*
X2758310Y1161370D01*
G03X2778930I10310J23210D01*
G37*
G36*
G01X2758310Y1339850D02*
X2722900Y1296330D01*
X2768620Y1244260D01*
X2814340Y1296330D01*
X2778930Y1339850D01*
G03X2758310I-10310J-23210D01*
G37*
G36*
G01X2864200Y1255290D02*
X2814340Y1296330D01*
X2762300Y1251220D01*
X2814340Y1204890D01*
X2862410Y1228970D01*
G03X2864200Y1255290I-20761J14633D01*
G37*
G36*
G01X2888980Y3239470D02*
X2899750Y3250240D01*
X2880000Y3273180D01*
X2860250Y3250240D01*
X2871020Y3239470D01*
G03X2888980I8980J8980D01*
G37*
G36*
G01X2754760Y3532060D02*
X2770000D01*
X2772250Y3562250D01*
X2742060Y3560000D01*
Y3544760D01*
G03X2754760Y3532060I12700J0D01*
G37*
G36*
G01X2725740Y4234640D02*
Y4274410D01*
X2730770Y4277350D01*
G03X2723980Y4386070I-30768J52650D01*
G02X2717600Y4419120I7990J18683D01*
G01X2749730Y4451240D01*
X2842560D01*
Y4590790D01*
X2878040Y4626330D01*
Y4827950D01*
G02X2899450Y4848240I20321J-2D01*
G03X3014860Y4915060I6551J121762D01*
G02X3051140I18140J-9160D01*
G03X3268860I108860J54940D01*
G02X3305140I18140J-9160D01*
G03X3491090Y4875520I108861J54940D01*
G02X3524260Y4859780I12850J-15740D01*
G01Y4848950D01*
X3034260Y4358950D01*
Y4234640D01*
X2725740D01*
G37*
G36*
G01X2756370Y4619030D02*
X2718080Y4575720D01*
X2763800Y4526820D01*
X2809520Y4575720D01*
X2771230Y4619030D01*
G03X2756370I-7430J-10300D01*
G37*
G36*
G01X2771620Y4566500D02*
X2845000Y4640000D01*
X2795630Y4733110D01*
X2745000Y4640000D01*
X2751620Y4572890D01*
G03X2771620Y4566500I12175J3612D01*
G37*
G36*
G01X3117120Y1247450D02*
X3087420Y1273610D01*
X3006070Y1243610D01*
X3087420Y1213610D01*
X3117120Y1239770D01*
G03Y1247450I-25110J3840D01*
G37*
G36*
G01X2907720Y1239770D02*
X2937420Y1213610D01*
X3018770Y1243610D01*
X2937420Y1273610D01*
X2907720Y1247450D01*
G03Y1239770I25110J-3840D01*
G37*
G36*
G01X2916810Y1398920D02*
X2937420Y1340610D01*
X3024360Y1366300D01*
X3087420Y1400600D01*
X2929400Y1413300D01*
G03X2916810Y1398920I0J-12701D01*
G37*
G36*
G01X3090600Y1413300D02*
X2937420Y1400610D01*
X3000560Y1366060D01*
X3087420Y1340610D01*
X3103280Y1399930D01*
G03X3090600Y1413300I-12680J672D01*
G37*
G36*
G01X2981250Y3239440D02*
X2988650Y3253600D01*
X2966190Y3273410D01*
X2946870Y3250500D01*
X2961020Y3236350D01*
G03X2981250Y3239440I8979J8980D01*
G37*
G36*
G01X3073870Y6000810D02*
X3015740Y6058950D01*
Y6281050D01*
X3101310Y6366630D01*
G02X3136000Y6352260I14369J-14370D01*
G01Y6294800D01*
X3162740Y6265470D01*
X3147440Y6248320D01*
Y6110540D01*
X3108560D01*
Y6015180D01*
G02X3073870Y6000810I-20321J0D01*
G37*
G36*
G01X3205230Y847430D02*
X3161920Y885720D01*
X3113020Y840000D01*
X3161920Y794280D01*
X3205230Y832570D01*
G03Y847430I-10300J7430D01*
G37*
G36*
G01X3189470Y831020D02*
X3200240Y820250D01*
X3223180Y840000D01*
X3200240Y859750D01*
X3189470Y848980D01*
G03Y831020I8980J-8980D01*
G37*
G36*
G01X3330900Y1147640D02*
G02X3299030Y1143610I-17497J10338D01*
G01X3140600Y1302050D01*
X3137780D01*
G02X3118150Y1327620I-1J20319D01*
G01X3131230Y1376540D01*
X3158950Y1404260D01*
X3444380D01*
Y1289350D01*
X3424090D01*
X3421330Y1291530D01*
G03X3345450Y1196050I-37717J-47917D01*
G02X3345390Y1164310I-12718J-15846D01*
G03X3330900Y1147640I38018J-47679D01*
G37*
G36*
G01X3097940Y3024760D02*
Y3040000D01*
X3067750Y3042250D01*
X3070000Y3012060D01*
X3085240D01*
G03X3097940Y3024760I0J12700D01*
G37*
G36*
G01X3177940D02*
Y3040000D01*
X3147750Y3042250D01*
X3150000Y3012060D01*
X3165240D01*
G03X3177940Y3024760I0J12700D01*
G37*
G36*
G01X3238980Y3009470D02*
X3249750Y3020240D01*
X3230000Y3043180D01*
X3210250Y3020240D01*
X3221020Y3009470D01*
G03X3238980I8980J8980D01*
G37*
G36*
G01X3077940Y3234760D02*
Y3270000D01*
X3048740Y3272910D01*
X3050000Y3250000D01*
X3065240Y3234760D01*
X3077940D01*
G37*
G36*
G01X3097940Y3444760D02*
Y3460000D01*
X3067750Y3462250D01*
X3070000Y3432060D01*
X3085240D01*
G03X3097940Y3444760I0J12700D01*
G37*
G36*
G01X3177940Y3494760D02*
Y3510000D01*
X3147750Y3512250D01*
X3150000Y3482060D01*
X3165240D01*
G03X3177940Y3494760I0J12700D01*
G37*
G36*
G01X3330000Y5910000D02*
Y5500000D01*
X3090000D01*
Y5910000D01*
X3330000D01*
G37*
G36*
G01X3363040Y5920540D02*
Y5943040D01*
X3131650D01*
X3112570Y5962120D01*
G02X3119750Y5979460I7186J7181D01*
G01X3280640D01*
Y6111240D01*
X3304960D01*
Y6246420D01*
X3293870Y6261750D01*
X3314990Y6284910D01*
G02X3345010I15010J-13689D01*
G01X3366130Y6261750D01*
X3355040Y6246420D01*
Y6111240D01*
X3356780D01*
X3361980Y6098700D01*
X3336960Y6073690D01*
Y6026310D01*
X3379360Y5983910D01*
Y5979460D01*
X3383810D01*
X3386310Y5976960D01*
X3516960D01*
Y5923040D01*
X3386310D01*
X3383810Y5920540D01*
X3363040D01*
G37*
G36*
G01X3222420Y6282720D02*
X3180480Y6235720D01*
X3226050Y6186830D01*
X3271920Y6235720D01*
X3238380Y6282070D01*
G03X3222420Y6282720I-8382J-9540D01*
G37*
G36*
G01X3237880Y6249390D02*
X3290960Y6307600D01*
X3230000Y6361580D01*
X3169040Y6307600D01*
X3222120Y6249390D01*
G03X3237880I7880J9960D01*
G37*
G36*
G01X3170260Y6486400D02*
X3290960Y6510800D01*
X3232220Y6563870D01*
X3169040Y6612400D01*
X3156340Y6499040D01*
G03X3170260Y6486400I12699J0D01*
G37*
G36*
G01X3413920Y1125590D02*
X3403150Y1136360D01*
X3380220Y1116610D01*
X3403150Y1096860D01*
X3413920Y1107630D01*
G03Y1125590I-8980J8980D01*
G37*
G36*
G01X3414140Y1252590D02*
X3403370Y1263360D01*
X3380440Y1243610D01*
X3403370Y1223860D01*
X3414140Y1234630D01*
G03Y1252590I-8980J8980D01*
G37*
G36*
G01X3231020Y3540530D02*
X3220250Y3529760D01*
X3240000Y3506820D01*
X3259750Y3529760D01*
X3248980Y3540530D01*
G03X3231020I-8980J-8980D01*
G37*
G36*
G01X4513690Y5826960D02*
X4563040Y5876310D01*
Y6198180D01*
G02X4602350Y6205400I20319J-5D01*
G03X4787840Y6009580I327648J124601D01*
G02X4790510Y5973860I-8237J-18576D01*
G03X4767920Y5786670I65490J-102861D01*
G01X4774800Y5779490D01*
X4184260Y5188950D01*
Y3913040D01*
X3865060D01*
X3850760Y3767970D01*
G02X3817080Y3754740I-20220J1991D01*
G01X3808230Y3762560D01*
X3686300D01*
G02X3671930Y3797250I0J20321D01*
G01X3716830Y3842140D01*
Y4422140D01*
X3965740Y4671050D01*
Y5213990D01*
X3676990Y5502740D01*
X3363040D01*
Y5566960D01*
X3543040D01*
Y5726310D01*
X3573690Y5756960D01*
X3863040D01*
Y6123040D01*
X3715740D01*
Y6328950D01*
X3534720Y6509970D01*
X3521580Y6637600D01*
G02X3541790Y6660000I20213J2080D01*
G01X4725960D01*
G02X4737130Y6622710I-6J-20320D01*
G03X4585710Y6395890I192871J-292709D01*
G02X4551380Y6385340I-19960J3819D01*
G01X4513690Y6423040D01*
X4146960D01*
Y6370040D01*
X4017960D01*
Y6183040D01*
X4006960D01*
Y5823720D01*
X3998720Y5822130D01*
G03X4131070Y5790570I31277J-162130D01*
G02X4143510Y5826960I12438J16069D01*
G01X4513690D01*
G37*
G36*
G01X3370000Y5600000D02*
Y5860000D01*
X3394460Y5884460D01*
X3551440D01*
Y6015540D01*
X3394460D01*
X3370000Y6040000D01*
Y6060000D01*
X3400000Y6090000D01*
X3830000D01*
Y5790000D01*
X3560000D01*
X3510000Y5740000D01*
Y5600000D01*
X3370000D01*
G37*
G36*
G01X3437880Y6249390D02*
X3490960Y6307600D01*
X3430000Y6361580D01*
X3369040Y6307600D01*
X3422120Y6249390D01*
G03X3437880I7880J9960D01*
G37*
G36*
G01X3503660Y6489040D02*
X3490960Y6612400D01*
X3427960Y6564030D01*
X3369040Y6510800D01*
X3488730Y6476540D01*
G03X3503660Y6489040I2232J12500D01*
G37*
G36*
G01X3449130Y1110270D02*
X3477420Y1086610D01*
X3555600Y1116610D01*
X3477420Y1146610D01*
X3449130Y1122950D01*
G03Y1110270I11000J-6340D01*
G37*
G36*
G01Y1237270D02*
X3477420Y1213610D01*
X3555600Y1243610D01*
X3477420Y1273610D01*
X3449130Y1249950D01*
G03Y1237270I11000J-6340D01*
G37*
G36*
G01X3655710Y1249950D02*
X3627420Y1273610D01*
X3549240Y1243610D01*
X3627420Y1213610D01*
X3655710Y1237270D01*
G03Y1249950I-11000J6340D01*
G37*
G36*
G01Y1376950D02*
X3627420Y1400610D01*
X3549240Y1370610D01*
X3627420Y1340610D01*
X3655710Y1364270D01*
G03Y1376950I-11000J6340D01*
G37*
G36*
G01X3512560Y6248320D02*
X3497260Y6265470D01*
X3524000Y6294800D01*
Y6342260D01*
G02X3558690Y6356630I20321J0D01*
G01X3624260Y6291050D01*
Y6123040D01*
X3512560D01*
Y6248320D01*
G37*
G36*
G01X3421620Y6282070D02*
X3388080Y6235720D01*
X3433950Y6186830D01*
X3479520Y6235720D01*
X3437580Y6282720D01*
G03X3421620Y6282070I-7578J-10190D01*
G37*
G36*
G01X3660460Y928440D02*
Y1197870D01*
X3706820D01*
X3767600Y1141850D01*
X3920180D01*
Y942830D01*
X3905790Y928440D01*
X3660460D01*
G37*
G36*
G01X3714650Y1235590D02*
X3780500Y1174890D01*
X3829320Y1219910D01*
X3780500Y1266330D01*
X3719720Y1255380D01*
G03X3714650Y1235590I4772J-11767D01*
G37*
G36*
G01X3615110Y3330430D02*
X3711750Y3427070D01*
X3809890Y3438910D01*
X3817080Y3445260D01*
G02X3850760Y3432030I13460J-15221D01*
G01X3861990Y3318050D01*
G02X3841770Y3295740I-20221J-1991D01*
G01X3629480D01*
G02X3615110Y3330430I0J20321D01*
G37*
G36*
G01X3599330Y3524010D02*
G02X3564640Y3538380I-14369J14370D01*
G01Y3704260D01*
X3578950D01*
X3636550Y3761870D01*
G02X3671240Y3747500I14369J-14370D01*
G01Y3669730D01*
X3614260Y3612750D01*
Y3538950D01*
X3599330Y3524010D01*
G37*
G36*
G01X3690480Y3457780D02*
X3795720Y3470480D01*
X3752520Y3518130D01*
X3704280Y3561920D01*
X3677920Y3472380D01*
G03X3690480Y3457780I12560J-1897D01*
G37*
G36*
G01X3737190Y1363180D02*
X3780500Y1324890D01*
X3829400Y1370610D01*
X3780500Y1416330D01*
X3737190Y1378040D01*
G03Y1363180I10300J-7430D01*
G37*
G36*
G01X3749470Y2263860D02*
X3760240Y2253090D01*
X3783180Y2272840D01*
X3760240Y2292590D01*
X3749470Y2281820D01*
G03Y2263860I8980J-8980D01*
G37*
G36*
G01Y2332440D02*
X3760240Y2321670D01*
X3783180Y2341420D01*
X3760240Y2361170D01*
X3749470Y2350400D01*
G03Y2332440I8980J-8980D01*
G37*
G36*
G01Y2401020D02*
X3760240Y2390250D01*
X3783180Y2410000D01*
X3760240Y2429750D01*
X3749470Y2418980D01*
G03Y2401020I8980J-8980D01*
G37*
G36*
G01Y2471020D02*
X3760240Y2460250D01*
X3783180Y2480000D01*
X3760240Y2499750D01*
X3749470Y2488980D01*
G03Y2471020I8980J-8980D01*
G37*
G36*
G01Y2541020D02*
X3760240Y2530250D01*
X3783180Y2550000D01*
X3760240Y2569750D01*
X3749470Y2558980D01*
G03Y2541020I8980J-8980D01*
G37*
G36*
G01X3794380Y3242440D02*
X3868080Y3164280D01*
X3916780Y3208910D01*
X3959520Y3255720D01*
X3804110Y3262690D01*
G03X3794380Y3242440I472J-12690D01*
G37*
G36*
G01X3877300Y3499650D02*
X3895000Y3320000D01*
X4022610Y3408190D01*
X4145000Y3500000D01*
X3890000Y3512700D01*
G03X3877300Y3499650I0J-12705D01*
G37*
G36*
G01X3839030Y3523630D02*
X3795720Y3561920D01*
X3746820Y3516200D01*
X3795720Y3470480D01*
X3839030Y3508770D01*
G03Y3523630I-10300J7430D01*
G37*
G36*
G01X4162930Y3532190D02*
X3909900Y3544790D01*
X3892750Y3561940D01*
X3845580D01*
X3819750Y3584780D01*
G02Y3615220I13458J15220D01*
G01X3845580Y3638060D01*
X3892750D01*
X3909900Y3655210D01*
X4162930Y3667810D01*
G02X4184260Y3647520I1011J-20294D01*
G01Y3552480D01*
G02X4162930Y3532190I-20319J4D01*
G37*
G36*
G01X3890000Y3687300D02*
X4145000Y3700000D01*
X4022610Y3791810D01*
X3895000Y3880000D01*
X3877300Y3700350D01*
G03X3890000Y3687300I12700J-345D01*
G37*
G36*
G01X3839030Y3691230D02*
X3795720Y3729520D01*
X3746820Y3683800D01*
X3795720Y3638080D01*
X3839030Y3676370D01*
G03Y3691230I-10300J7430D01*
G37*
G36*
G01X3988930Y1131370D02*
X4024340Y1174890D01*
X3978620Y1226960D01*
X3932900Y1174890D01*
X3968310Y1131370D01*
G03X3988930I10310J23210D01*
G37*
G36*
G01X3992560Y3165740D02*
Y3286960D01*
X4184260D01*
Y3220390D01*
X4129610Y3165740D01*
X3992560D01*
G37*
G36*
G01X4530000Y5890000D02*
X4500000Y5860000D01*
X4040000D01*
Y6150000D01*
X4170000D01*
X4183960Y6163960D01*
X4189040D01*
Y6390000D01*
X4500000D01*
X4530000Y6360000D01*
Y5890000D01*
G37*
G36*
G01X4705710Y1841020D02*
X4793150Y1753600D01*
X4859040Y1806080D01*
X4800700Y1872430D01*
X4713270Y1862620D01*
G03X4705710Y1841020I1420J-12620D01*
G37*
G36*
G01X4748240Y5853040D02*
X4793150Y5808150D01*
X4862350Y5871000D01*
X4793150Y5933850D01*
X4748240Y5888960D01*
G03Y5853040I17960J-17960D01*
G37*
G36*
G01X4767100Y867200D02*
Y791000D01*
X4858250Y788750D01*
X4856000Y879900D01*
X4779800D01*
G03X4767100Y867200I0J-12700D01*
G37*
G36*
G01Y1375200D02*
Y1299000D01*
X4858250Y1296750D01*
X4856000Y1387900D01*
X4779800D01*
G03X4767100Y1375200I0J-12700D01*
G37*
G36*
G01Y1629200D02*
Y1553000D01*
X4858250Y1550750D01*
X4856000Y1641900D01*
X4779800D01*
G03X4767100Y1629200I0J-12700D01*
G37*
G36*
G01X4779800Y2480100D02*
X4856000D01*
X4858250Y2571250D01*
X4767100Y2569000D01*
Y2492800D01*
G03X4779800Y2480100I12700J0D01*
G37*
G36*
G01Y2734100D02*
X4856000D01*
X4858250Y2825250D01*
X4767100Y2823000D01*
Y2746800D01*
G03X4779800Y2734100I12700J0D01*
G37*
G36*
G01Y4512100D02*
X4856000D01*
X4858250Y4603250D01*
X4767100Y4601000D01*
Y4524800D01*
G03X4779800Y4512100I12700J0D01*
G37*
G36*
G01Y4766100D02*
X4856000D01*
X4858250Y4857250D01*
X4767100Y4855000D01*
Y4778800D01*
G03X4779800Y4766100I12700J0D01*
G37*
G36*
G01Y5020100D02*
X4856000D01*
X4858250Y5111250D01*
X4767100Y5109000D01*
Y5032800D01*
G03X4779800Y5020100I12700J0D01*
G37*
G36*
G01Y5274100D02*
X4856000D01*
X4858250Y5365250D01*
X4767100Y5363000D01*
Y5286800D01*
G03X4779800Y5274100I12700J0D01*
G37*
G36*
G01Y5528100D02*
X4856000D01*
X4858250Y5619250D01*
X4767100Y5617000D01*
Y5540800D01*
G03X4779800Y5528100I12700J0D01*
G37*
G36*
G01X4838040Y5978760D02*
X4793150Y5933850D01*
X4856000Y5864650D01*
X4918850Y5933850D01*
X4873960Y5978760D01*
G03X4838040I-17960J-17960D01*
G37*
G36*
G01X5021100Y867200D02*
Y791000D01*
X5112250Y788750D01*
X5110000Y879900D01*
X5033800D01*
G03X5021100Y867200I0J-12700D01*
G37*
G36*
G01X5033800Y1210100D02*
X5110000D01*
X5112250Y1301250D01*
X5021100Y1299000D01*
Y1222800D01*
G03X5033800Y1210100I12700J0D01*
G37*
G36*
G01Y1464100D02*
X5110000D01*
X5112250Y1555250D01*
X5021100Y1553000D01*
Y1476800D01*
G03X5033800Y1464100I12700J0D01*
G37*
G36*
G01Y1718100D02*
X5110000D01*
X5112250Y1809250D01*
X5021100Y1807000D01*
Y1730800D01*
G03X5033800Y1718100I12700J0D01*
G37*
G36*
G01Y2480100D02*
X5110000D01*
X5112250Y2571250D01*
X5021100Y2569000D01*
Y2492800D01*
G03X5033800Y2480100I12700J0D01*
G37*
G36*
G01Y2734100D02*
X5110000D01*
X5112250Y2825250D01*
X5021100Y2823000D01*
Y2746800D01*
G03X5033800Y2734100I12700J0D01*
G37*
G36*
G01Y2988100D02*
X5110000D01*
X5112250Y3079250D01*
X5021100Y3077000D01*
Y3000800D01*
G03X5033800Y2988100I12700J0D01*
G37*
G36*
G01Y4512100D02*
X5110000D01*
X5112250Y4603250D01*
X5021100Y4601000D01*
Y4524800D01*
G03X5033800Y4512100I12700J0D01*
G37*
G36*
G01Y4766100D02*
X5110000D01*
X5112250Y4857250D01*
X5021100Y4855000D01*
Y4778800D01*
G03X5033800Y4766100I12700J0D01*
G37*
G36*
G01Y5020100D02*
X5110000D01*
X5112250Y5111250D01*
X5021100Y5109000D01*
Y5032800D01*
G03X5033800Y5020100I12700J0D01*
G37*
G36*
G01Y5274100D02*
X5110000D01*
X5112250Y5365250D01*
X5021100Y5363000D01*
Y5286800D01*
G03X5033800Y5274100I12700J0D01*
G37*
G36*
G01Y5528100D02*
X5110000D01*
X5112250Y5619250D01*
X5021100Y5617000D01*
Y5540800D01*
G03X5033800Y5528100I12700J0D01*
G37*
G36*
G01Y5782100D02*
X5110000D01*
X5112250Y5873250D01*
X5021100Y5871000D01*
Y5794800D01*
G03X5033800Y5782100I12700J0D01*
G37*
%LPC*%
G75*
G36*
G01X3612300Y343900D02*
G02Y476100I-117300J66100D01*
G03X3647700I17700J9976D01*
G02Y343900I117300J-66100D01*
G03X3612300I-17700J-9976D01*
G37*
G36*
G01X2642300D02*
G02Y476100I-117300J66100D01*
G03X2677700I17700J9976D01*
G02Y343900I117300J-66100D01*
G03X2642300I-17700J-9976D01*
G37*
G36*
G01X1387450Y5999360D02*
G02X1192550I-97450J-49360D01*
G03X1174420Y6028860I-18129J9180D01*
G01X1140530D01*
X1003860Y6165530D01*
Y6400960D01*
G02X966140Y6445060I71145J99034D01*
G03X929860I-18140J-9160D01*
G02Y6554940I-108860J54940D01*
G03X966140I18140J9160D01*
G02X1183860I108860J-54940D01*
G03X1220140I18140J9160D01*
G02X1437860I108860J-54940D01*
G03X1474140I18140J9160D01*
G02X1666260Y6410910I108862J-54939D01*
G03X1680130Y6375740I13870J-14850D01*
G01X2013870D01*
G03X2027740Y6410910I0J20320D01*
G02X2219860Y6554940I83258J89091D01*
G03X2256140I18140J9160D01*
G02X2473860I108860J-54940D01*
G03X2510140I18140J9160D01*
G02X2727860I108860J-54940D01*
G03X2764140I18140J9160D01*
G02X2873000Y6378060I108860J-54941D01*
G01X2815750D01*
X2651950Y6214260D01*
X1220330D01*
G02X1192520Y6200320I-40327J45741D01*
G01X1189560Y6199700D01*
X1180230Y6190370D01*
X1199470Y6171140D01*
X1677470D01*
X1789600Y6059010D01*
X1794020Y6059170D01*
G02X1688830Y5953980I3980J-109170D01*
G01X1688990Y5958400D01*
X1661430Y5985960D01*
X1650470Y5975000D01*
X1651440Y5969760D01*
G02X1446550Y5999360I-107438J-19760D01*
G03X1428420Y6028860I-18129J9180D01*
G01X1405580D01*
G03X1387450Y5999360I-1J-20320D01*
G37*
G54D39*
X3870000Y6320000D03*
X4270000D03*
G54D37*
X1290000Y5696000D03*
X1544000D03*
X1798000D03*
X2052000D03*
Y5950000D03*
X2306000Y5696000D03*
Y5950000D03*
X2560000Y5696000D03*
G54D35*
X920000Y160000D03*
X1370000D03*
X1950000D03*
X2400000D03*
X2920000D03*
X3370000D03*
X3890000D03*
X4340000D03*
G54D36*
X1495000Y410000D03*
X1825000D03*
G54D38*
X2560000Y5950000D03*
%LPD*%
G75*
G36*
G01X1210530Y6268980D02*
X1199760Y6279750D01*
X1176820Y6260000D01*
X1199760Y6240250D01*
X1210530Y6251020D01*
G03Y6268980I-8980J8980D01*
G37*
G36*
G01Y6338980D02*
X1199760Y6349750D01*
X1176820Y6330000D01*
X1199760Y6310250D01*
X1210530Y6321020D01*
G03Y6338980I-8980J8980D01*
G37*
G36*
G01X2542800Y6411100D02*
X2619000D01*
X2621250Y6502250D01*
X2530100Y6500000D01*
Y6423800D01*
G03X2542800Y6411100I12700J0D01*
G37*
G36*
G01X2796800D02*
X2873000D01*
X2875250Y6502250D01*
X2784100Y6500000D01*
Y6423800D01*
G03X2796800Y6411100I12700J0D01*
G37*
G36*
G01X3634760Y3302060D02*
X3650000D01*
X3652250Y3332250D01*
X3622060Y3330000D01*
Y3314760D01*
G03X3634760Y3302060I12700J0D01*
G37*
G54D10*
X330000Y330000D03*
Y6330000D03*
X4930000Y330000D03*
Y6330000D03*
G54D20*
X2203800Y840000D03*
X2356200D03*
X2306220Y980610D03*
Y1160610D03*
Y1340610D03*
X2583800Y840000D03*
X2458620Y980610D03*
Y1160610D03*
Y1340610D03*
X2433800Y4530000D03*
X2736200Y840000D03*
X2616220Y1250610D03*
X2586200Y4530000D03*
X2768620Y1250610D03*
X2763800Y4530000D03*
X2916200D03*
X2963800Y840000D03*
X3073800Y6190000D03*
X3116200Y840000D03*
X3226200Y6190000D03*
X3586200D03*
X3433800D03*
X3826220Y1220610D03*
Y1370610D03*
X3913800Y3210000D03*
X3978620Y1220610D03*
Y1370610D03*
X4066200Y3210000D03*
G54D11*
X150000Y789000D03*
Y1043000D03*
Y1297000D03*
Y1551000D03*
Y1805000D03*
Y2059000D03*
Y2313000D03*
Y2567000D03*
Y2821000D03*
Y3075000D03*
Y3329000D03*
Y3583000D03*
Y3837000D03*
Y4091000D03*
Y4345000D03*
Y4599000D03*
Y4853000D03*
Y5107000D03*
Y5361000D03*
Y5615000D03*
Y5869000D03*
X404000Y789000D03*
Y1043000D03*
Y1297000D03*
Y1551000D03*
Y1805000D03*
Y2059000D03*
Y2313000D03*
Y2567000D03*
Y2821000D03*
Y3075000D03*
Y3329000D03*
Y3583000D03*
Y3837000D03*
Y4091000D03*
Y4345000D03*
Y4599000D03*
Y4853000D03*
Y5107000D03*
Y5361000D03*
Y5615000D03*
Y5869000D03*
X920000Y160000D03*
X821000Y6500000D03*
X1075000D03*
X1370000Y160000D03*
X1329000Y6500000D03*
X1583000D03*
X1950000Y160000D03*
X1890000Y4970000D03*
X2111000Y6500000D03*
X2144000Y4970000D03*
X2400000Y160000D03*
X2398000Y4970000D03*
X2365000Y6500000D03*
X2619000D03*
X2652000Y4970000D03*
X2920000Y160000D03*
X2906000Y4970000D03*
X2873000Y6500000D03*
X3160000Y4970000D03*
X3370000Y160000D03*
X3414000Y4970000D03*
X3890000Y160000D03*
X4340000D03*
X4856000Y791000D03*
Y1045000D03*
Y1299000D03*
Y1553000D03*
Y1807000D03*
Y2061000D03*
Y2315000D03*
Y2569000D03*
Y2823000D03*
Y3077000D03*
Y3331000D03*
Y3585000D03*
Y3839000D03*
Y4093000D03*
Y4347000D03*
Y4601000D03*
Y4855000D03*
Y5109000D03*
Y5363000D03*
Y5617000D03*
Y5871000D03*
X5110000Y791000D03*
Y1045000D03*
Y1299000D03*
Y1553000D03*
Y1807000D03*
Y2061000D03*
Y2315000D03*
Y2569000D03*
Y2823000D03*
Y3077000D03*
Y3331000D03*
Y3585000D03*
Y3839000D03*
Y4093000D03*
Y4347000D03*
Y4601000D03*
Y4855000D03*
Y5109000D03*
Y5363000D03*
Y5617000D03*
Y5871000D03*
G54D12*
X795000Y410000D03*
X1495000D03*
X1825000D03*
X2525000D03*
X2795000D03*
X3495000D03*
X3765000D03*
X4465000D03*
G54D21*
X2545000Y4730000D03*
X2795000D03*
G54D30*
X4071000Y6267000D03*
X4006000D03*
X3941000D03*
X4201000D03*
X4136000D03*
G54D31*
G01X1830000Y2850000D02*
X1695760D01*
X670000Y1824240D01*
Y1620000D01*
X470000Y1420000D01*
X270000D01*
X150000Y1300000D01*
Y1297000D01*
G01X1830000Y2950000D02*
X1654320D01*
X570000Y1865680D01*
Y1780010D01*
X469990Y1680000D01*
X280000D01*
X151000Y1551000D01*
X150000D01*
G01X1830000Y3050000D02*
X1612880D01*
X492880Y1930000D01*
X280000D01*
X155000Y1805000D01*
X150000D01*
G01X1830000Y3150000D02*
X1571440D01*
X611440Y2190000D01*
X280000D01*
X150000Y2060000D01*
Y2059000D01*
G01X1530000Y3280000D02*
X690000Y2440000D01*
X277000D01*
X150000Y2313000D01*
G01X1830000Y3450000D02*
X1540000D01*
X780000Y2690000D01*
X280000D01*
X157000Y2567000D01*
X150000D01*
G01X1830000Y3550000D02*
X1500000D01*
X900000Y2950000D01*
X280000D01*
X151000Y2821000D01*
X150000D01*
G01X1830000Y3650000D02*
X1450000D01*
X1000000Y3200000D01*
X275000D01*
X150000Y3075000D01*
G01Y3329000D02*
Y3330000D01*
X280000Y3460000D01*
X1100000D01*
X1390000Y3750000D01*
X1830000D01*
G01X150000Y3583000D02*
X153000D01*
X280000Y3710000D01*
X1200000D01*
X1340000Y3850000D01*
X1830000D01*
G01X2030000Y4100000D02*
X1300000D01*
X1170000Y3970000D01*
X280000D01*
X150000Y3840000D01*
Y3837000D01*
G01Y4091000D02*
X279000Y4220000D01*
X1280000D01*
X1350000Y4290000D01*
X2080000D01*
X2130000Y4240000D01*
Y4100000D01*
G01X2230000D02*
Y4310000D01*
X2070000Y4470000D01*
X270000D01*
X150000Y4350000D01*
Y4345000D01*
G01X2330000Y4100000D02*
Y4360000D01*
X1960000Y4730000D01*
X280000D01*
X150000Y4600000D01*
Y4599000D01*
G01X2430000Y4100000D02*
Y4400000D01*
X2000000Y4830000D01*
X690000D01*
X540000Y4980000D01*
X270000D01*
X150000Y4860000D01*
Y4853000D01*
G01Y5107000D02*
Y5110000D01*
X270000Y5230000D01*
X840000D01*
X913000Y5157000D01*
X3533720D01*
X3620000Y5070720D01*
Y4809280D01*
X3130000Y4319280D01*
Y4100000D01*
G01X150000Y5361000D02*
X151000D01*
X280000Y5490000D01*
X810000D01*
X1043000Y5257000D01*
X3575160D01*
X3720000Y5112160D01*
Y4767840D01*
X3230000Y4277840D01*
Y4100000D01*
G01X3430000Y3850000D02*
X3540000D01*
X3575350Y3885350D01*
Y4485350D01*
X3820000Y4730000D01*
Y5153600D01*
X3616600Y5357000D01*
X1153000D01*
X770000Y5740000D01*
X270000D01*
X150000Y5620000D01*
Y5615000D01*
G01X3430000Y3750000D02*
X3560000D01*
X3671090Y3861090D01*
Y4441090D01*
X3920000Y4690000D01*
Y5195040D01*
X3658040Y5457000D01*
X1263000D01*
X732900Y5987100D01*
X287100D01*
X169000Y5869000D01*
X150000D01*
G01X1830000Y2800000D02*
X1716480D01*
X720000Y1803520D01*
Y1613000D01*
X404000Y1297000D01*
G01X1830000Y2900000D02*
X1675040D01*
X620000Y1844960D01*
Y1767000D01*
X404000Y1551000D01*
G01Y1805000D02*
X438600D01*
X1633600Y3000000D01*
X1830000D01*
G01X404000Y2059000D02*
X551160D01*
X1592160Y3100000D01*
X1830000D01*
G01X1530010Y3200000D02*
X1470000Y3139990D01*
X1469990D01*
X643000Y2313000D01*
X404000D01*
G01Y2567000D02*
X727000D01*
X1560000Y3400000D01*
X1830000D01*
G01X404000Y2821000D02*
X841000D01*
X1520000Y3500000D01*
X1830000D01*
G01X404000Y3075000D02*
X945000D01*
X1470000Y3600000D01*
X1830000D01*
G01X404000Y3329000D02*
X1049000D01*
X1420000Y3700000D01*
X1830000D01*
G01X404000Y3583000D02*
X1153000D01*
X1370000Y3800000D01*
X1830000D01*
G01X404000Y3837000D02*
X1247000D01*
X1310000Y3900000D01*
X1830000D01*
G01X404000Y4091000D02*
X1221000D01*
X1370000Y4240000D01*
X2054600D01*
X2080000Y4214600D01*
Y4100000D01*
G01X2180000D02*
Y4270000D01*
X2108930Y4341070D01*
X407930D01*
X404000Y4345000D01*
G01Y4599000D02*
X2021000D01*
X2280000Y4340000D01*
Y4100000D01*
G01X2380000D02*
Y4380000D01*
X1980000Y4780000D01*
X477000D01*
X404000Y4853000D01*
G01Y5107000D02*
X3513000D01*
X3570000Y5050000D01*
Y4830000D01*
X3080000Y4340000D01*
Y4100000D01*
G01X404000Y5361000D02*
X819000D01*
X973000Y5207000D01*
X3554440D01*
X3670000Y5091440D01*
Y4788560D01*
X3180000Y4298560D01*
Y4100000D01*
G01X404000Y5615000D02*
X795000D01*
X1103000Y5307000D01*
X3595880D01*
X3770000Y5132880D01*
Y4750000D01*
X3430000Y4410000D01*
Y3900000D01*
G01Y3800000D02*
X3550000D01*
X3620730Y3870730D01*
Y4460730D01*
X3870000Y4710000D01*
Y5174320D01*
X3637320Y5407000D01*
X1203000D01*
X741000Y5869000D01*
X404000D01*
G01X1180000Y6260000D02*
X2633000D01*
X2873000Y6500000D01*
G01X2619000D02*
X2449000Y6330000D01*
X1180000D01*
G01X3012420Y1370610D02*
X2959390D01*
X2880000Y1450000D01*
X2290000D01*
X2160000Y1580000D01*
X1480000D01*
X1420000Y1520000D01*
Y750000D01*
G01X1830000Y3200000D02*
X1530010D01*
G01X1830000Y3250000D02*
X1560000D01*
X1530000Y3280000D01*
G01X1680000Y990000D02*
X2079000D01*
X2080000Y989000D01*
G01Y1116000D02*
X1680000D01*
G01X1830000Y3300000D02*
X1620000D01*
X1600000Y3320000D01*
G01X1830000Y2700000D02*
Y2000000D01*
X2330000Y1500000D01*
X4147000D01*
X4856000Y791000D01*
G01X1830000Y2750000D02*
X1950000D01*
X1980000Y2720000D01*
Y1930000D01*
X2360000Y1550000D01*
X4160000D01*
X4790000Y920000D01*
X4981000D01*
X5110000Y791000D01*
G01X1830000Y3350000D02*
X1990000D01*
G01X1830000Y3550000D02*
X2080000D01*
G01X2020000Y3490000D02*
X2010000D01*
X2000000Y3500000D01*
X1830000D01*
G01X2030000Y2500000D02*
Y1950000D01*
X2380000Y1600000D01*
X4370000D01*
X4800000Y1170000D01*
X4981000D01*
X5110000Y1299000D01*
G01X2120000Y3610000D02*
X2020000D01*
G01X2203800Y840000D02*
X2090000D01*
G01X2080000Y989000D02*
X2297830D01*
X2306220Y980610D01*
G01X2080000Y1116000D02*
X2180400D01*
X2225010Y1160610D01*
X2306220D01*
G01X2080000Y2500000D02*
Y1970720D01*
X2400720Y1650000D01*
X4505000D01*
X4856000Y1299000D01*
G01X2130000Y2500000D02*
Y1991440D01*
X2421440Y1700000D01*
X4530000D01*
X4800000Y1430000D01*
X4987000D01*
X5110000Y1553000D01*
G01X2180000Y2500000D02*
Y2012160D01*
X2442160Y1750000D01*
X4659000D01*
X4856000Y1553000D01*
G01X2200000Y2680000D02*
Y3500000D01*
X2400000Y3700000D01*
X2680000D01*
X2780000Y3800000D01*
Y4100000D01*
G01X2160000Y3560000D02*
Y3520000D01*
X2140000Y3500000D01*
G01X2070000Y3670000D02*
X2230000D01*
X2380000Y3820000D01*
Y4100000D01*
G01X2070000Y3750000D02*
X2220000D01*
X2330000Y3860000D01*
Y4100000D01*
G01X2070000Y3830000D02*
X2190000D01*
X2280000Y3920000D01*
Y4100000D01*
G01X2230000D02*
Y3970000D01*
X2170000Y3910000D01*
X2070000D01*
G01X2356200Y840000D02*
Y685400D01*
X2381600Y660000D01*
G01X2230000Y2500000D02*
Y2032880D01*
X2462880Y1800000D01*
X4680000D01*
X4800000Y1680000D01*
X4983000D01*
X5110000Y1807000D01*
G01X2280000Y2500000D02*
Y2053600D01*
X2483600Y1850000D01*
X4813000D01*
X4856000Y1807000D01*
G01X2330000Y2500000D02*
Y2080000D01*
X2510000Y1900000D01*
X4400000D01*
X4700000Y2200000D01*
Y2350000D01*
X4790000Y2440000D01*
X4981000D01*
X5110000Y2569000D01*
G01X2380000Y2500000D02*
Y2100720D01*
X2530720Y1950000D01*
X4379280D01*
X4650000Y2220720D01*
Y2363000D01*
X4856000Y2569000D01*
G01X2330000Y2500000D02*
Y3450000D01*
X2440000Y3560000D01*
G01X2520000D02*
X2380000Y3420000D01*
Y2500000D01*
G01X2258580Y2780000D02*
Y3478580D01*
X2430000Y3650000D01*
X2700720D01*
X2830000Y3779280D01*
Y4100000D01*
G01X2430000Y2500000D02*
Y2121440D01*
X2551440Y2000000D01*
X4358560D01*
X4600000Y2241440D01*
Y2500000D01*
X4790000Y2690000D01*
X4977000D01*
X5110000Y2823000D01*
G01X2480000Y2500000D02*
Y2152160D01*
X2582160Y2050000D01*
X4337840D01*
X4550000Y2262160D01*
Y2517000D01*
X4856000Y2823000D01*
G01X2530000Y2500000D02*
Y2172880D01*
X2602880Y2100000D01*
X4317120D01*
X4500000Y2282880D01*
Y2660000D01*
X4790000Y2950000D01*
X4983000D01*
X5110000Y3077000D01*
G01X2600000Y3560000D02*
X2430000Y3390000D01*
Y2500000D01*
G01X2690000Y3560000D02*
X2480000Y3350000D01*
Y2500000D01*
G01X2770000Y3560000D02*
X2530000Y3320000D01*
Y2500000D01*
G01X2480000Y4100000D02*
Y3920000D01*
G01X2520000Y4250000D02*
X2530000Y4240000D01*
G01D02*
Y4100000D01*
G01X2586200Y4530000D02*
Y4688800D01*
X2545000Y4730000D01*
G01X2583800Y840000D02*
Y950000D01*
G01X2680000Y2500000D02*
Y2230000D01*
X2720000Y2190000D01*
G01X2580000Y2500000D02*
Y2230000D01*
X2620000Y2190000D01*
G01X2630000Y2640000D02*
Y2500000D01*
G01X2640000Y2650000D02*
X2630000Y2640000D01*
G01X3030000Y4100000D02*
Y3516400D01*
X2810000Y3296400D01*
Y2910000D01*
X2740000Y2840000D01*
X2650000D01*
X2590000Y2900000D01*
G01X2700000D02*
X2760000Y2960000D01*
Y3317120D01*
X2980000Y3537120D01*
Y4100000D01*
G01X2700010Y2980000D02*
X2690000Y2990010D01*
Y3317840D01*
X2930000Y3557840D01*
Y4100000D01*
G01X2590000Y3050000D02*
Y3288560D01*
X2880000Y3578560D01*
Y4100000D01*
G01X2730000D02*
Y3940000D01*
X2710000Y3920000D01*
G01X2680000Y4100000D02*
Y4310000D01*
X2700000Y4330000D01*
G01X2630000Y4100000D02*
Y4396200D01*
X2763800Y4530000D01*
G01X2580000Y4100000D02*
Y4523800D01*
X2586200Y4530000D01*
G01X2736200Y840000D02*
Y685400D01*
X2761600Y660000D01*
G01X3780000Y2272840D02*
X3452840D01*
X3330000Y2150000D01*
X2850000D01*
X2730000Y2270000D01*
Y2500000D01*
G01X3780000Y2341420D02*
X3451420D01*
X3310000Y2200000D01*
X2870720D01*
X2780000Y2290720D01*
Y2500000D01*
G01X3780000Y2410000D02*
X3450000D01*
X3290000Y2250000D01*
X2891440D01*
X2830000Y2311440D01*
Y2500000D01*
G01X2880000D02*
Y2332160D01*
X2912160Y2300000D01*
X3270000D01*
X3450000Y2480000D01*
X3780000D01*
G01X2890000Y3040000D02*
Y2950000D01*
X2980000Y2860000D01*
Y2500000D01*
G01X2880000Y3270000D02*
Y3170000D01*
X2950000Y3100000D01*
X3430000D01*
G01X2763800Y4530000D02*
Y4698800D01*
X2795000Y4730000D01*
G01X3064870Y738930D02*
X2963800Y840000D01*
G01X3141600Y662200D02*
X3064870Y738930D01*
G01X3978620Y1370610D02*
X3899230Y1450000D01*
X3140000D01*
X3060610Y1370610D01*
X3012420D01*
G01X3780000Y2550000D02*
X3450000D01*
X3247160Y2347160D01*
X2955400D01*
X2930000Y2372560D01*
Y2500000D01*
G01X2970000Y3040000D02*
Y2950000D01*
X3030000Y2890000D01*
Y2500000D01*
G01X2966620Y3270260D02*
X2970000Y3266880D01*
Y3175400D01*
X2995400Y3150000D01*
X3430000D01*
G01X3050000Y3270000D02*
Y3250000D01*
X3100000Y3200000D01*
X3430000D01*
G01X3140000Y5870000D02*
X2970000Y6040000D01*
Y6300000D01*
X3230000Y6560000D01*
Y6561600D01*
G01X3064870Y738930D02*
X3072830D01*
X3141600Y670160D01*
Y662200D01*
G01Y660000D02*
Y662200D01*
G01X3116200Y840000D02*
X3220000D01*
G01X3070000Y2940000D02*
X3080000Y2930000D01*
Y2500000D01*
G01X3070000Y3040000D02*
X3130000Y2980000D01*
Y2500000D01*
G01X3150000Y3040000D02*
X3180000Y3010000D01*
Y2500000D01*
G01X3430000Y3250000D02*
X3280000D01*
X3070000Y3460000D01*
G01X3430000Y3450000D02*
X3210000D01*
X3150000Y3510000D01*
G01X3230000Y6358400D02*
Y6193800D01*
X3226200Y6190000D01*
G01X3552420Y1116610D02*
X3383390D01*
G01X3552420Y1243610D02*
X3383610D01*
G01X3230000Y3040000D02*
Y2500000D01*
G01X3240000Y3510000D02*
Y3660000D01*
X3280000Y3700000D01*
X3430000D01*
G01X3552420Y1243610D02*
X3803220D01*
X3826220Y1220610D01*
G01X3552420Y1370610D02*
X3826220D01*
G01X5110000Y4601000D02*
X4979000Y4470000D01*
X4800000D01*
X4730000Y4400000D01*
Y2968560D01*
X4376440Y2615000D01*
X3643560D01*
X3558560Y2700000D01*
X3430000D01*
G01X4856000Y4601000D02*
X4680000Y4425000D01*
Y2989280D01*
X4355720Y2665000D01*
X3664280D01*
X3579280Y2750000D01*
X3430000D01*
G01X5110000Y4855000D02*
X4985000Y4730000D01*
X4800000D01*
X4630000Y4560000D01*
Y3010000D01*
X4335000Y2715000D01*
X3685000D01*
X3600000Y2800000D01*
X3430000D01*
G01Y2850000D02*
X3620000D01*
X3700000Y2770000D01*
X4300000D01*
X4580000Y3050000D01*
Y4579000D01*
X4856000Y4855000D01*
G01X5110000Y5109000D02*
X4981000Y4980000D01*
X4790000D01*
X4530000Y4720000D01*
Y3070720D01*
X4279280Y2820000D01*
X3720720D01*
X3640720Y2900000D01*
X3430000D01*
G01Y2950000D02*
X3661440D01*
X3741440Y2870000D01*
X4258560D01*
X4480000Y3091440D01*
Y4733000D01*
X4856000Y5109000D01*
G01X5110000Y5363000D02*
X4977000Y5230000D01*
X4790000D01*
X4430000Y4870000D01*
Y3112160D01*
X4237840Y2920000D01*
X3762160D01*
X3682160Y3000000D01*
X3430000D01*
G01X4856000Y5363000D02*
X4380000Y4887000D01*
Y3132880D01*
X4217120Y2970000D01*
X3782880D01*
X3702880Y3050000D01*
X3430000D01*
G01Y3100000D02*
X3720000D01*
X3800000Y3020000D01*
X4190000D01*
X4330000Y3160000D01*
Y5020010D01*
X4800000Y5490010D01*
X4983010D01*
X5110000Y5617000D01*
G01X3430000Y3150000D02*
X3740720D01*
X3820720Y3070000D01*
X4169280D01*
X4280000Y3180720D01*
Y5041000D01*
X4856000Y5617000D01*
G01X3430000Y3200000D02*
X3761440D01*
X3841440Y3120000D01*
X4148560D01*
X4230000Y3201440D01*
Y5170000D01*
X4800000Y5740000D01*
X4979000D01*
X5110000Y5871000D01*
G01X3430000Y3250000D02*
X3873800D01*
X3913800Y3210000D01*
G01X3430000Y3300000D02*
X3620000D01*
G01X3430000Y3350000D02*
X3570000D01*
X3736200Y3516200D01*
X3750000D01*
G01X3430000Y3400000D02*
X3540000D01*
X3660000Y3520000D01*
Y3593800D01*
X3750000Y3683800D01*
G01X3430000Y6358400D02*
Y6193800D01*
X3433800Y6190000D01*
G01X3670000Y6080000D02*
Y6310000D01*
X3430000Y6550000D01*
Y6561600D01*
G01X3620000Y3300000D02*
X3650000Y3330000D01*
G01X3736200Y3836200D02*
X3650000Y3750000D01*
G01X3750000Y3836200D02*
X3736200D01*
G01X3840000Y3320000D02*
X3870000Y3290000D01*
X3986200D01*
X4066200Y3210000D01*
G01X4020000Y3410000D02*
X3980000D01*
X3873800Y3516200D01*
X3750000D01*
G01Y3683800D02*
X3873800D01*
X3980000Y3790000D01*
X4020000D01*
G01X4160000Y3260000D02*
X4110000Y3210000D01*
X4066200D01*
G54D22*
X2560000Y5950000D03*
G54D13*
X620000Y780000D03*
Y890000D03*
X630000Y3390000D03*
Y3270000D03*
X660000Y5010000D03*
X680000Y6060000D03*
Y6170000D03*
X730000Y1050000D03*
Y1160000D03*
X950000Y790000D03*
Y900000D03*
X970000Y1210000D03*
Y1320000D03*
X910000Y1600000D03*
Y1710000D03*
X980000Y1790000D03*
Y1900000D03*
X930000Y3390000D03*
Y3270000D03*
X1140000Y80000D03*
Y190000D03*
X1190000Y1710000D03*
Y1820000D03*
X1200000Y2020000D03*
Y2130000D03*
X1090000Y4920000D03*
X1200000D03*
X1180000Y6260000D03*
Y6330000D03*
X1250000Y1220000D03*
Y1330000D03*
X1380000Y1790000D03*
Y1900000D03*
X1320000Y4010000D03*
X1260000Y3960000D03*
X1550000Y850000D03*
X1420000Y750000D03*
X1540000Y1500000D03*
X1400000Y2110000D03*
Y2220000D03*
X1530010Y3200000D03*
X1530000Y3280000D03*
X1390000Y3970000D03*
X1540000Y4980000D03*
X1660000Y850000D03*
X1680000Y990000D03*
Y1116000D03*
X1580000Y1810000D03*
Y1920000D03*
X1570000Y2090000D03*
Y2200000D03*
X1580000Y2370000D03*
Y2480000D03*
X1600000Y3320000D03*
X1710000Y4000000D03*
X1650000Y4980000D03*
X1870000Y4000000D03*
X1820000Y6180000D03*
X1830000Y6450000D03*
Y6560000D03*
X2020000Y3490000D03*
X2180000Y90000D03*
Y200000D03*
X2090000Y840000D03*
X2200000Y2680000D03*
X2080000Y3550000D03*
X2070000Y3670000D03*
Y3750000D03*
Y3830000D03*
Y3910000D03*
X2060000Y6180000D03*
X2258580Y2780000D03*
X2290000Y4670000D03*
Y4770000D03*
X2440000Y3560000D03*
X2520000D03*
X2480000Y3920000D03*
X2510000Y4320000D03*
X2400000Y4670000D03*
Y4770000D03*
X2583800Y950000D03*
X2620000Y1360000D03*
X2720000Y2190000D03*
X2620000D03*
X2610000Y2670000D03*
X2590000Y2900000D03*
X2700000D03*
X2700010Y2980000D03*
X2590000Y3050000D03*
X2600000Y3560000D03*
X2690000D03*
X2710000Y3920000D03*
X2700000Y4330000D03*
X2670000Y4670000D03*
Y4770000D03*
X2768620Y1390000D03*
X2890000Y3040000D03*
X2880000Y3270000D03*
X2770000Y3560000D03*
X2790000Y4350000D03*
X2880000Y6290000D03*
Y6180000D03*
X2970000Y3040000D03*
X3070000Y2940000D03*
Y3040000D03*
X2966620Y3270260D03*
X3050000Y3270000D03*
X3070000Y3460000D03*
X3040000Y4430000D03*
Y4540000D03*
X2920000Y4670000D03*
X3030000D03*
X2920000Y4770000D03*
X3030000D03*
X3040000Y6590000D03*
Y6480000D03*
X3150000Y100000D03*
Y210000D03*
X3220000Y840000D03*
X3230000Y1340000D03*
X3150000Y3040000D03*
X3230000D03*
X3150000Y3510000D03*
X3240000D03*
X3190000Y4630000D03*
X3240000Y5550000D03*
X3180000D03*
X3120000D03*
X3080000Y6290000D03*
X3383390Y1116610D03*
X3340000Y1340000D03*
X3383610Y1243610D03*
X3300000Y4780000D03*
Y5550000D03*
X3330000Y6190000D03*
X3550000Y750000D03*
X3440000D03*
X3550000Y5540000D03*
X3450000D03*
X3570000Y6290000D03*
X3730000Y1060000D03*
X3650000Y3330000D03*
X3620000Y3690000D03*
X3660000Y5540000D03*
X3700000Y5820000D03*
X3600000D03*
Y5900000D03*
Y5980000D03*
Y6050000D03*
X3880000Y750000D03*
X3770000D03*
X3840000Y1060000D03*
X3780000Y2272840D03*
Y2341420D03*
Y2410000D03*
Y2480000D03*
Y2550000D03*
X3860000Y3600000D03*
X3880000Y3990000D03*
X3910000Y5350000D03*
Y5460000D03*
X3820000Y5540000D03*
Y5650000D03*
X3790000Y5820000D03*
X4030000Y3600000D03*
X4050000Y3990000D03*
Y4100000D03*
Y4250000D03*
Y4360000D03*
Y4590000D03*
Y4700000D03*
Y4860000D03*
Y4970000D03*
Y5100000D03*
Y5210000D03*
Y5350000D03*
Y5460000D03*
X3930000Y6110000D03*
X4130000Y110000D03*
Y220000D03*
X4150000Y690000D03*
Y800000D03*
Y990000D03*
Y1100000D03*
X4160000Y3260000D03*
Y3600000D03*
X4170000Y5350000D03*
Y5460000D03*
X4430000Y5750000D03*
Y5640000D03*
X4290000Y5750000D03*
Y5640000D03*
X4590000Y5760000D03*
Y5650000D03*
X4670000Y5930000D03*
Y5820000D03*
Y6050000D03*
X4600000Y6120000D03*
G54D32*
G01X150000Y1043000D02*
Y789000D01*
G01X1540000Y1500000D02*
X1910000D01*
X2040000Y1370000D01*
X2080000D01*
G01D02*
X2276830D01*
X2306220Y1340610D01*
G01X2458620Y1160610D02*
Y1188210D01*
X2306220Y1340610D01*
G01X2458620Y980610D02*
Y791380D01*
X2558400Y691600D01*
Y660000D01*
G01X2458620Y980610D02*
Y1160610D01*
G01D02*
X2768010D01*
X2768620Y1160000D01*
G01X2938400Y660000D02*
Y681600D01*
X2850000Y770000D01*
Y1078620D01*
X2768620Y1160000D01*
G01D02*
Y1250610D01*
G01X3012420Y1243610D02*
X2775620D01*
X2768620Y1250610D01*
G01D02*
Y1390000D01*
G01X3012420Y1243610D02*
X3116390D01*
X3490000Y870000D01*
X3930000D01*
X3978620Y918620D01*
Y1220610D01*
G01X3700000Y6530000D02*
X3940000D01*
G01D02*
X4190000D01*
G01D02*
X4450000D01*
G01X4700000Y5880000D02*
X4709000Y5871000D01*
G01D02*
X4856000D01*
G01D02*
Y6256000D01*
X4930000Y6330000D01*
G54D14*
X1220000Y880000D03*
X4030000Y5660000D03*
G54D23*
X2995860Y5670000D03*
X3204140D03*
X3445860D03*
X3654140D03*
G54D33*
G01X17900Y789000D02*
X150000D01*
G01Y656900D02*
Y789000D01*
G01X688900Y6500000D02*
X821000D01*
G01X787900Y160000D02*
X920000D01*
G01X795000Y265200D02*
Y410000D01*
G01D02*
Y554800D01*
G01Y410000D02*
X939800D01*
G01X821000Y6367900D02*
Y6500000D01*
G01D02*
Y6632100D01*
G01X920000Y27900D02*
Y160000D01*
G01D02*
Y292100D01*
G01Y160000D02*
X1052100D01*
G01X1170600Y5696000D02*
X1290000D01*
G01X1170600Y5950000D02*
X1290000D01*
G01X1350200Y410000D02*
X1495000D01*
G01X1290000Y5576600D02*
Y5696000D01*
G01D02*
Y5815400D01*
G01Y5696000D02*
X1409400D01*
G01X1290000Y5830600D02*
Y5950000D01*
G01D02*
X1409400D01*
G01X1495000Y265200D02*
Y410000D01*
G01D02*
Y554800D01*
G01Y410000D02*
X1639800D01*
G01X1544000Y5576600D02*
Y5696000D01*
G01D02*
Y5815400D01*
G01X1424600Y5696000D02*
X1544000D01*
G01D02*
X1663400D01*
G01X1544000Y5830600D02*
Y5950000D01*
G01X1424600D02*
X1544000D01*
G01D02*
X1663400D01*
G01X1680200Y410000D02*
X1825000D01*
G01X1817900Y160000D02*
X1950000D01*
G01X1825000Y265200D02*
Y410000D01*
G01D02*
Y554800D01*
G01Y410000D02*
X1969800D01*
G01X1950000Y27900D02*
Y160000D01*
G01D02*
Y292100D01*
G01Y160000D02*
X2082100D01*
G01X1978900Y6500000D02*
X2111000D01*
G01D02*
Y6632100D01*
G01X2380200Y410000D02*
X2525000D01*
G01Y265200D02*
Y410000D01*
G01X2787900Y160000D02*
X2920000D01*
G01X2795000Y265200D02*
Y410000D01*
G01D02*
X2939800D01*
G01X2920000Y27900D02*
Y160000D01*
G01D02*
Y292100D01*
G01Y160000D02*
X3052100D01*
G01X3350200Y410000D02*
X3495000D01*
G01Y265200D02*
Y410000D01*
G01D02*
Y554800D01*
G01X3890000Y27900D02*
Y160000D01*
G01D02*
Y292100D01*
G01X3757900Y160000D02*
X3890000D01*
G01D02*
X4022100D01*
G01X3765000Y265200D02*
Y410000D01*
G01D02*
Y554800D01*
G01Y410000D02*
X3909800D01*
G01X4320200D02*
X4465000D01*
G01Y265200D02*
Y410000D01*
G01D02*
Y554800D01*
G54D15*
X1290000Y5696000D03*
Y5950000D03*
X1544000Y5696000D03*
Y5950000D03*
X1798000Y5696000D03*
Y5950000D03*
X2052000Y5696000D03*
Y5950000D03*
X2306000Y5696000D03*
Y5950000D03*
X2560000Y5696000D03*
G54D24*
X3194600Y5855000D03*
Y6045000D03*
X3465400Y5950000D03*
Y5855000D03*
Y6045000D03*
G54D34*
G01X2178400Y660000D02*
X533000D01*
X404000Y789000D01*
G01X1075000Y6500000D02*
Y6195000D01*
X1170000Y6100000D01*
X1648000D01*
X1798000Y5950000D01*
G54D25*
X3230000Y6358400D03*
Y6561600D03*
X3430000Y6358400D03*
Y6561600D03*
G54D16*
X1540000Y989000D03*
Y1116000D03*
Y1243000D03*
Y1370000D03*
X2080000Y989000D03*
Y1116000D03*
Y1370000D03*
Y1243000D03*
X3012420Y989610D03*
Y1116610D03*
Y1243610D03*
Y1370610D03*
X3552420Y989610D03*
Y1116610D03*
Y1370610D03*
Y1243610D03*
G54D26*
X3750000Y3363800D03*
Y3516200D03*
Y3683800D03*
Y3836200D03*
G54D17*
X1830000Y2700000D03*
Y2750000D03*
Y2800000D03*
Y2850000D03*
Y2900000D03*
Y2950000D03*
Y3000000D03*
Y3050000D03*
Y3100000D03*
Y3150000D03*
Y3200000D03*
Y3250000D03*
Y3300000D03*
Y3350000D03*
Y3400000D03*
Y3450000D03*
Y3500000D03*
Y3550000D03*
Y3600000D03*
Y3650000D03*
Y3700000D03*
Y3750000D03*
Y3800000D03*
Y3850000D03*
Y3900000D03*
X3430000Y2700000D03*
Y2850000D03*
Y2800000D03*
Y2750000D03*
Y3050000D03*
Y3000000D03*
Y2950000D03*
Y2900000D03*
Y3200000D03*
Y3150000D03*
Y3100000D03*
Y3350000D03*
Y3300000D03*
Y3250000D03*
Y3550000D03*
Y3500000D03*
Y3450000D03*
Y3400000D03*
Y3700000D03*
Y3650000D03*
Y3600000D03*
Y3900000D03*
Y3850000D03*
Y3800000D03*
Y3750000D03*
G54D18*
X2030000Y2500000D03*
Y4100000D03*
X2180000Y2500000D03*
X2130000D03*
X2080000D03*
Y4100000D03*
X2130000D03*
X2180000D03*
X2380000Y2500000D03*
X2330000D03*
X2280000D03*
X2230000D03*
Y4100000D03*
X2280000D03*
X2330000D03*
X2380000D03*
X2530000Y2500000D03*
X2480000D03*
X2430000D03*
Y4100000D03*
X2480000D03*
X2530000D03*
X2680000Y2500000D03*
X2630000D03*
X2580000D03*
Y4100000D03*
X2630000D03*
X2680000D03*
X2880000Y2500000D03*
X2830000D03*
X2780000D03*
X2730000D03*
Y4100000D03*
X2780000D03*
X2830000D03*
X2880000D03*
X3030000Y2500000D03*
X2980000D03*
X2930000D03*
Y4100000D03*
X2980000D03*
X3030000D03*
X3180000Y2500000D03*
X3130000D03*
X3080000D03*
Y4100000D03*
X3130000D03*
X3180000D03*
X3230000Y2500000D03*
Y4100000D03*
G54D27*
X3747300Y5940000D03*
X4092700D03*
G54D19*
X2178400Y660000D03*
X2381600D03*
X2558400D03*
X2761600D03*
X2938400D03*
X3141600D03*
G54D28*
X3700000Y6530000D03*
X3940000D03*
X4190000D03*
X4450000D03*
G54D29*
X4020000Y3410000D03*
Y3790000D03*
M02*
