G04 ================== begin FILE IDENTIFICATION RECORD ==================*
G04 Layout Name:  E:/GitHub/MBEDBoard/EZFET_V10A/PCB/EZFET_V10A.brd*
G04 Film Name:    SilkScreen_Bottom*
G04 File Format:  Gerber RS274X*
G04 File Origin:  Cadence Allegro 16.6-2015-S071*
G04 Origin Date:  Tue Nov 01 11:21:20 2016*
G04 *
G04 Layer:  BOARD GEOMETRY/OUTLINE*
G04 Layer:  REF DES/SILKSCREEN_BOTTOM*
G04 Layer:  PACKAGE GEOMETRY/SILKSCREEN_BOTTOM*
G04 Layer:  BOARD GEOMETRY/SILKSCREEN_BOTTOM*
G04 *
G04 Offset:    (0.0000 0.0000)*
G04 Mirror:    No*
G04 Mode:      Positive*
G04 Rotation:  0*
G04 FullContactRelief:  No*
G04 UndefLineWidth:     0.1524*
G04 ================== end FILE IDENTIFICATION RECORD ====================*
%FSLAX55Y55*MOMM*%
%IR0*IPPOS*OFA0.00000B0.00000*MIA0B0*SFA1.00000B1.00000*%
%ADD10C,.127*%
%ADD11C,.1524*%
G75*
%LPD*%
G75*
G54D10*
G01X3024200Y5120900D02*
Y4879600D01*
G01X3036900Y5120900D02*
Y4879600D01*
G01X3049600Y5095500D02*
Y4905000D01*
G01X3024200Y5501900D02*
Y5273300D01*
G01X3036900Y5514600D02*
Y5273300D01*
G01X3049600Y5489200D02*
Y5298700D01*
G01X3062300Y5095500D02*
Y4905000D01*
G01X3075000Y5095500D02*
Y4905000D01*
G01X3087700Y5095500D02*
Y4905000D01*
G01X3100400Y5095500D02*
Y4905000D01*
G01X3113100Y5095500D02*
Y4905000D01*
G01X3125800Y5095500D02*
Y4905000D01*
G01X3138500Y5095500D02*
Y4905000D01*
G01X3151200Y4816100D02*
Y4790700D01*
G01X3176600Y4905000D02*
Y4866900D01*
G01X3151200Y5095500D02*
Y4917700D01*
G01X3163900Y5095500D02*
Y4968500D01*
G01X3176600Y5095500D02*
Y5006600D01*
G01X3189300Y5095500D02*
Y5044700D01*
G01X3202000Y5095500D02*
Y5070100D01*
G01Y4981200D02*
Y4968500D01*
G01X3214700Y5006600D02*
Y4993900D01*
G01X3062300Y5489200D02*
Y5298700D01*
G01X3075000Y5489200D02*
Y5298700D01*
G01X3087700Y5476500D02*
Y5298700D01*
G01X3100400Y5489200D02*
Y5298700D01*
G01X3113100Y5489200D02*
Y5298700D01*
G01X3125800Y5489200D02*
Y5298700D01*
G01X3138500Y5489200D02*
Y5298700D01*
G01X3151200Y5489200D02*
Y5298700D01*
G01X3163900Y5489200D02*
Y5298700D01*
G01X3176600Y5489200D02*
Y5298700D01*
G01X3189300Y5489200D02*
Y5298700D01*
G01X3202000Y5489200D02*
Y5298700D01*
G01X3214700Y5489200D02*
Y5298700D01*
G01X3227400Y4943100D02*
Y4905000D01*
G01X3240100Y4981200D02*
Y4905000D01*
G01X3252800Y5006600D02*
Y4905000D01*
G01X3265500Y5044700D02*
Y4905000D01*
G01X3278200Y5082800D02*
Y4905000D01*
G01X3290900Y5095500D02*
Y4905000D01*
G01X3303600Y5095500D02*
Y4905000D01*
G01X3316300Y5095500D02*
Y4905000D01*
G01X3329000Y5095500D02*
Y4905000D01*
G01X3341700Y5095500D02*
Y4905000D01*
G01X3354400Y5095500D02*
Y4905000D01*
G01X3367100Y5095500D02*
Y4905000D01*
G01X3379800Y5095500D02*
Y4905000D01*
G01X3392500Y5095500D02*
Y4905000D01*
G01X3227400Y5044700D02*
Y5032000D01*
G01X3252800Y5108200D02*
Y5095500D01*
G01X3265500Y5247900D02*
Y5235200D01*
G01Y5146300D02*
Y5120900D01*
G01X3278200Y5235200D02*
Y5222500D01*
G01Y5171700D02*
Y5146300D01*
G01X3290900Y5197100D02*
Y5171700D01*
G01X3303600Y5222500D02*
Y5197100D01*
G01X3316300Y5222500D02*
Y5209800D01*
G01X3329000Y5260600D02*
Y5235200D01*
G01X3354400D02*
Y5222500D01*
G01X3367100Y5235200D02*
Y5222500D01*
G01X3392500Y5247900D02*
Y5235200D01*
G01X3227400Y5489200D02*
Y5349500D01*
G01X3240100Y5489200D02*
Y5387600D01*
G01X3252800Y5476500D02*
Y5413000D01*
G01Y5286000D02*
Y5260600D01*
G01X3265500Y5374900D02*
Y5362200D01*
G01X3278200Y5400300D02*
Y5387600D01*
G01X3290900Y5336800D02*
Y5298700D01*
G01X3303600Y5374900D02*
Y5298700D01*
G01X3316300Y5387600D02*
Y5298700D01*
G01X3329000Y5413000D02*
Y5311400D01*
G01X3341700Y5425700D02*
Y5324100D01*
G01Y5273300D02*
Y5260600D01*
G01X3354400Y5438400D02*
Y5336800D01*
G01Y5298700D02*
Y5286000D01*
G01X3367100Y5463800D02*
Y5349500D01*
G01Y5311400D02*
Y5298700D01*
G01X3379800Y5476500D02*
Y5362200D01*
G01Y5324100D02*
Y5311400D01*
G01X3392500Y5489200D02*
Y5374900D01*
G01Y5336800D02*
Y5324100D01*
G01X3265500Y5489200D02*
Y5438400D01*
G01X3278200Y5489200D02*
Y5463800D01*
G01X3290900Y5489200D02*
Y5476500D01*
G01X3303600Y5438400D02*
Y5425700D01*
G01X3316300Y5451100D02*
Y5438400D01*
G01X3329000Y5476500D02*
Y5463800D01*
G01X3341700Y5489200D02*
Y5476500D01*
G01X3354400Y5501900D02*
Y5489200D01*
G01X3367100Y5514600D02*
Y5501900D01*
G01X3379800Y5540000D02*
Y5514600D01*
G01X3405200Y5095500D02*
Y4905000D01*
G01X3417900Y5095500D02*
Y4905000D01*
G01X3430600Y5095500D02*
Y4905000D01*
G01X3443300Y5095500D02*
Y4905000D01*
G01X3456000Y5095500D02*
Y4905000D01*
G01X3468700Y5095500D02*
Y4905000D01*
G01X3481400Y5095500D02*
Y4905000D01*
G01X3494100Y5095500D02*
Y4905000D01*
G01X3506800Y5095500D02*
Y4905000D01*
G01X3519500Y5095500D02*
Y4905000D01*
G01X3532200Y5095500D02*
Y4905000D01*
G01X3544900Y5095500D02*
Y4905000D01*
G01X3557600Y5095500D02*
Y4905000D01*
G01X3417900Y5260600D02*
Y5247900D01*
G01X3405200Y5489200D02*
Y5387600D01*
G01Y5349500D02*
Y5336800D01*
G01X3417900Y5476500D02*
Y5400300D01*
G01Y5362200D02*
Y5349500D01*
G01Y5311400D02*
Y5298700D01*
G01X3430600Y5489200D02*
Y5413000D01*
G01Y5374900D02*
Y5362200D01*
G01Y5324100D02*
Y5298700D01*
G01Y5273300D02*
Y5260600D01*
G01X3443300Y5387600D02*
Y5374900D01*
G01Y5336800D02*
Y5311400D01*
G01X3456000Y5400300D02*
Y5387600D01*
G01Y5349500D02*
Y5324100D01*
G01Y5286000D02*
Y5273300D01*
G01X3468700Y5362200D02*
Y5336800D01*
G01Y5298700D02*
Y5286000D01*
G01X3481400Y5413000D02*
Y5400300D01*
G01Y5374900D02*
Y5349500D01*
G01Y5311400D02*
Y5298700D01*
G01X3494100Y5374900D02*
Y5362200D01*
G01Y5324100D02*
Y5311400D01*
G01X3506800Y5336800D02*
Y5324100D01*
G01X3519500Y5349500D02*
Y5336800D01*
G01X3532200Y5311400D02*
Y5298700D01*
G01X3544900Y5387600D02*
Y5374900D01*
G01Y5324100D02*
Y5298700D01*
G01X3557600Y5400300D02*
Y5387600D01*
G01Y5336800D02*
Y5298700D01*
G01X3443300Y5489200D02*
Y5425700D01*
G01X3456000Y5489200D02*
Y5425700D01*
G01X3468700Y5489200D02*
Y5438400D01*
G01X3481400Y5489200D02*
Y5451100D01*
G01X3494100Y5489200D02*
Y5451100D01*
G01X3506800Y5489200D02*
Y5463800D01*
G01X3519500Y5489200D02*
Y5463800D01*
G01Y5438400D02*
Y5425700D01*
G01X3532200Y5489200D02*
Y5476500D01*
G01X3544900Y5489200D02*
Y5476500D01*
G01X3557600Y5489200D02*
Y5476500D01*
G01X3570300Y5095500D02*
Y4905000D01*
G01X3583000Y5095500D02*
Y4905000D01*
G01X3595700Y5095500D02*
Y4905000D01*
G01X3608400Y5095500D02*
Y4905000D01*
G01X3621100Y5095500D02*
Y4905000D01*
G01X3633800Y5095500D02*
Y4905000D01*
G01X3646500Y5095500D02*
Y4905000D01*
G01X3659200Y5095500D02*
Y4905000D01*
G01X3671900Y5095500D02*
Y4905000D01*
G01X3684600Y5108200D02*
Y4892300D01*
G01X3697300Y5120900D02*
Y4879600D01*
G01X3710000Y4905000D02*
Y4892300D01*
G01Y5108200D02*
Y5082800D01*
G01Y5057400D02*
Y5032000D01*
G01Y5006600D02*
Y4943100D01*
G01X3570300Y5349500D02*
Y5298700D01*
G01X3583000Y5374900D02*
Y5298700D01*
G01X3595700Y5400300D02*
Y5298700D01*
G01X3608400Y5489200D02*
Y5298700D01*
G01X3621100Y5489200D02*
Y5298700D01*
G01X3633800Y5489200D02*
Y5298700D01*
G01X3646500Y5489200D02*
Y5298700D01*
G01X3659200Y5489200D02*
Y5298700D01*
G01X3671900Y5489200D02*
Y5298700D01*
G01X3684600Y5501900D02*
Y5273300D01*
G01X3697300Y5514600D02*
Y5260600D01*
G01X3710000Y5425700D02*
Y5413000D01*
G01Y5387600D02*
Y5336800D01*
G01Y5286000D02*
Y5273300D01*
G01X3570300Y5489200D02*
Y5476500D01*
G01Y5438400D02*
Y5425700D01*
G01X3583000Y5489200D02*
Y5476500D01*
G01X3595700Y5489200D02*
Y5463800D01*
G01X3710000Y5501900D02*
Y5451100D01*
G54D11*
G01X330000Y0D02*
X4170000D01*
G03X4500000Y330000I0J330000D01*
G01Y7670000D01*
G03X4170000Y8000000I-330000J0D01*
G01X330000D01*
G03X0Y7670000I0J-330000D01*
G01Y330000D01*
G03X330000Y0I330000J0D01*
G01X3877810Y5491240D02*
X3885430Y5483450D01*
X3890000Y5474680D01*
Y5466900D01*
X3885430Y5459110D01*
X3877810Y5453260D01*
X3867140Y5450340D01*
X3856470Y5452290D01*
X3847330Y5457160D01*
X3841230Y5465920D01*
X3838180Y5477610D01*
X3832090Y5484420D01*
X3821420Y5487340D01*
X3810750Y5485390D01*
X3803130Y5480530D01*
X3798560Y5473710D01*
Y5466900D01*
X3801610Y5460080D01*
X3809230Y5454240D01*
G01X3798560Y5403730D02*
Y5380370D01*
G01Y5392050D02*
X3890000D01*
G01Y5403730D02*
Y5380370D01*
G01X3806180Y5291890D02*
X3801610Y5297730D01*
X3798560Y5304550D01*
Y5312340D01*
X3803130Y5321100D01*
X3810750Y5327910D01*
X3819900Y5332780D01*
X3835140Y5336680D01*
X3848850Y5337650D01*
X3862570Y5335700D01*
X3871710Y5332780D01*
X3880860Y5326940D01*
X3886950Y5320130D01*
X3890000Y5313310D01*
Y5306490D01*
X3886950Y5299680D01*
X3882380Y5293840D01*
X3876290Y5288970D01*
G01X3890000Y5255020D02*
X3798560D01*
G01Y5214120D02*
X3890000D01*
G01X3844280D02*
Y5255020D01*
G01X3798560Y5177250D02*
X3864090D01*
X3877810Y5173360D01*
X3886950Y5165570D01*
X3890000Y5155830D01*
X3886950Y5146090D01*
X3877810Y5138300D01*
X3864090Y5134410D01*
X3798560D01*
G01X3890000Y5101430D02*
X3798560Y5077090D01*
X3890000Y5052750D01*
G01X3858000Y5061510D02*
Y5092670D01*
G01X3890000Y5020740D02*
X3798560D01*
X3890000Y4975960D01*
X3798560D01*
G01X3890000Y4861320D02*
X3798560D01*
G01Y4820420D02*
X3890000D01*
G01X3844280D02*
Y4861320D01*
G01X3798560Y4783550D02*
X3864090D01*
X3877810Y4779660D01*
X3886950Y4771870D01*
X3890000Y4762130D01*
X3886950Y4752390D01*
X3877810Y4744600D01*
X3864090Y4740710D01*
X3798560D01*
G01Y4695070D02*
Y4671710D01*
G01Y4683390D02*
X3890000D01*
G01Y4695070D02*
Y4671710D01*
G01Y4604650D02*
X3848850D01*
X3798560Y4624120D01*
G01Y4585180D02*
X3848850Y4604650D01*
G01X3798560Y4547330D02*
X3864090D01*
X3877810Y4543440D01*
X3886950Y4535650D01*
X3890000Y4525910D01*
X3886950Y4516170D01*
X3877810Y4508380D01*
X3864090Y4504490D01*
X3798560D01*
G01X3890000Y4471510D02*
X3798560Y4447170D01*
X3890000Y4422830D01*
G01X3858000Y4431590D02*
Y4462750D01*
G01X3890000Y4390820D02*
X3798560D01*
X3890000Y4346040D01*
X3798560D01*
G01X3890000Y4210950D02*
X3888480Y4218740D01*
X3882380Y4225550D01*
X3873240Y4231400D01*
X3862570Y4235290D01*
X3850380Y4237240D01*
X3838180D01*
X3825990Y4235290D01*
X3815320Y4231400D01*
X3806180Y4225550D01*
X3800080Y4218740D01*
X3798560Y4210950D01*
X3800080Y4203160D01*
X3806180Y4196350D01*
X3815320Y4190500D01*
X3825990Y4186610D01*
X3838180Y4184660D01*
X3850380D01*
X3862570Y4186610D01*
X3873240Y4190500D01*
X3882380Y4196350D01*
X3888480Y4203160D01*
X3890000Y4210950D01*
G01Y4151680D02*
X3798560D01*
Y4128320D01*
X3803130Y4120530D01*
X3813800Y4114680D01*
X3825990Y4112740D01*
X3838180Y4114680D01*
X3847330Y4119550D01*
X3851900Y4128320D01*
Y4151680D01*
G01X3798560Y4053470D02*
X3890000D01*
G01X3798560Y4075860D02*
Y4031080D01*
G01Y3986410D02*
Y3963050D01*
G01Y3974730D02*
X3890000D01*
G01Y3986410D02*
Y3963050D01*
G01X3806180Y3874570D02*
X3801610Y3880410D01*
X3798560Y3887230D01*
Y3895020D01*
X3803130Y3903780D01*
X3810750Y3910590D01*
X3819900Y3915460D01*
X3835140Y3919360D01*
X3848850Y3920330D01*
X3862570Y3918380D01*
X3871710Y3915460D01*
X3880860Y3909620D01*
X3886950Y3902810D01*
X3890000Y3895990D01*
Y3889170D01*
X3886950Y3882360D01*
X3882380Y3876520D01*
X3876290Y3871650D01*
G01X3890000Y3841590D02*
X3798560Y3817250D01*
X3890000Y3792910D01*
G01X3858000Y3801670D02*
Y3832830D01*
G01X3798560Y3757980D02*
X3890000D01*
Y3719040D01*
G01X3806180Y3559610D02*
X3801610Y3565450D01*
X3798560Y3572270D01*
Y3580060D01*
X3803130Y3588820D01*
X3810750Y3595630D01*
X3819900Y3600500D01*
X3835140Y3604400D01*
X3848850Y3605370D01*
X3862570Y3603420D01*
X3871710Y3600500D01*
X3880860Y3594660D01*
X3886950Y3587850D01*
X3890000Y3581030D01*
Y3574210D01*
X3886950Y3567400D01*
X3882380Y3561560D01*
X3876290Y3556690D01*
G01X3890000Y3502290D02*
X3888480Y3510080D01*
X3882380Y3516890D01*
X3873240Y3522740D01*
X3862570Y3526630D01*
X3850380Y3528580D01*
X3838180D01*
X3825990Y3526630D01*
X3815320Y3522740D01*
X3806180Y3516890D01*
X3800080Y3510080D01*
X3798560Y3502290D01*
X3800080Y3494500D01*
X3806180Y3487690D01*
X3815320Y3481840D01*
X3825990Y3477950D01*
X3838180Y3476000D01*
X3850380D01*
X3862570Y3477950D01*
X3873240Y3481840D01*
X3882380Y3487690D01*
X3888480Y3494500D01*
X3890000Y3502290D01*
G01Y3448870D02*
X3798560D01*
X3874760Y3423550D01*
X3798560Y3398230D01*
X3890000D01*
G01Y3370130D02*
X3798560D01*
X3874760Y3344810D01*
X3798560Y3319490D01*
X3890000D01*
G01X3798560Y3287490D02*
X3864090D01*
X3877810Y3283600D01*
X3886950Y3275810D01*
X3890000Y3266070D01*
X3886950Y3256330D01*
X3877810Y3248540D01*
X3864090Y3244650D01*
X3798560D01*
G01X3890000Y3209720D02*
X3798560D01*
X3890000Y3164940D01*
X3798560D01*
G01Y3120270D02*
Y3096910D01*
G01Y3108590D02*
X3890000D01*
G01Y3120270D02*
Y3096910D01*
G01X3806180Y3008430D02*
X3801610Y3014270D01*
X3798560Y3021090D01*
Y3028880D01*
X3803130Y3037640D01*
X3810750Y3044450D01*
X3819900Y3049320D01*
X3835140Y3053220D01*
X3848850Y3054190D01*
X3862570Y3052240D01*
X3871710Y3049320D01*
X3880860Y3043480D01*
X3886950Y3036670D01*
X3890000Y3029850D01*
Y3023030D01*
X3886950Y3016220D01*
X3882380Y3010380D01*
X3876290Y3005510D01*
G01X3890000Y2975450D02*
X3798560Y2951110D01*
X3890000Y2926770D01*
G01X3858000Y2935530D02*
Y2966690D01*
G01X3798560Y2872370D02*
X3890000D01*
G01X3798560Y2894760D02*
Y2849980D01*
G01Y2805310D02*
Y2781950D01*
G01Y2793630D02*
X3890000D01*
G01Y2805310D02*
Y2781950D01*
G01Y2714890D02*
X3888480Y2722680D01*
X3882380Y2729490D01*
X3873240Y2735340D01*
X3862570Y2739230D01*
X3850380Y2741180D01*
X3838180D01*
X3825990Y2739230D01*
X3815320Y2735340D01*
X3806180Y2729490D01*
X3800080Y2722680D01*
X3798560Y2714890D01*
X3800080Y2707100D01*
X3806180Y2700290D01*
X3815320Y2694440D01*
X3825990Y2690550D01*
X3838180Y2688600D01*
X3850380D01*
X3862570Y2690550D01*
X3873240Y2694440D01*
X3882380Y2700290D01*
X3888480Y2707100D01*
X3890000Y2714890D01*
G01Y2658540D02*
X3798560D01*
X3890000Y2613760D01*
X3798560D01*
G01X3877810Y2577860D02*
X3885430Y2570070D01*
X3890000Y2561300D01*
Y2553520D01*
X3885430Y2545730D01*
X3877810Y2539880D01*
X3867140Y2536960D01*
X3856470Y2538910D01*
X3847330Y2543780D01*
X3841230Y2552540D01*
X3838180Y2564230D01*
X3832090Y2571040D01*
X3821420Y2573960D01*
X3810750Y2572010D01*
X3803130Y2567150D01*
X3798560Y2560330D01*
Y2553520D01*
X3801610Y2546700D01*
X3809230Y2540860D01*
G01X3806180Y2378510D02*
X3801610Y2384350D01*
X3798560Y2391170D01*
Y2398960D01*
X3803130Y2407720D01*
X3810750Y2414530D01*
X3819900Y2419400D01*
X3835140Y2423300D01*
X3848850Y2424270D01*
X3862570Y2422320D01*
X3871710Y2419400D01*
X3880860Y2413560D01*
X3886950Y2406750D01*
X3890000Y2399930D01*
Y2393110D01*
X3886950Y2386300D01*
X3882380Y2380460D01*
X3876290Y2375590D01*
G01X3890000Y2321190D02*
X3888480Y2328980D01*
X3882380Y2335790D01*
X3873240Y2341640D01*
X3862570Y2345530D01*
X3850380Y2347480D01*
X3838180D01*
X3825990Y2345530D01*
X3815320Y2341640D01*
X3806180Y2335790D01*
X3800080Y2328980D01*
X3798560Y2321190D01*
X3800080Y2313400D01*
X3806180Y2306590D01*
X3815320Y2300740D01*
X3825990Y2296850D01*
X3838180Y2294900D01*
X3850380D01*
X3862570Y2296850D01*
X3873240Y2300740D01*
X3882380Y2306590D01*
X3888480Y2313400D01*
X3890000Y2321190D01*
G01X3893050Y2242450D02*
X3891520Y2244400D01*
X3888480D01*
X3886950Y2242450D01*
X3888480Y2240500D01*
X3891520D01*
X3893050Y2242450D01*
G01X3906760Y2165660D02*
X3886950Y2161760D01*
G01X3798560Y2104440D02*
X3890000D01*
Y2065500D01*
G01X3798560Y2006230D02*
X3890000D01*
G01X3798560Y2028620D02*
Y1983840D01*
G01X3890000Y1948910D02*
X3798560D01*
Y1929440D01*
X3803130Y1921650D01*
X3809230Y1915810D01*
X3818370Y1910940D01*
X3829040Y1907040D01*
X3844280Y1906070D01*
X3859520Y1907040D01*
X3870190Y1910940D01*
X3879330Y1915810D01*
X3885430Y1921650D01*
X3890000Y1929440D01*
Y1948910D01*
G01X4040000Y5483180D02*
X3948560D01*
X4040000Y5438400D01*
X3948560D01*
G01X4040000Y5406390D02*
X3948560Y5382050D01*
X4040000Y5357710D01*
G01X4008000Y5366470D02*
Y5397630D01*
G01X4040000Y5328630D02*
X3948560D01*
X4024760Y5303310D01*
X3948560Y5277990D01*
X4040000D01*
G01Y5205100D02*
Y5244040D01*
X3948560D01*
Y5205100D01*
G01X3992750Y5220680D02*
Y5244040D01*
G01X4043050Y5145830D02*
X4041520Y5147780D01*
X4038480D01*
X4036950Y5145830D01*
X4038480Y5143880D01*
X4041520D01*
X4043050Y5145830D01*
G01X4001900D02*
X4000380Y5147780D01*
X3997330D01*
X3995810Y5145830D01*
X3997330Y5143880D01*
X4000380D01*
X4001900Y5145830D01*
G01X4040000Y5047620D02*
Y5086560D01*
X3948560D01*
Y5047620D01*
G01X3992750Y5063200D02*
Y5086560D01*
G01X3948560Y5006850D02*
Y4969850D01*
X4040000Y5006850D01*
Y4969850D01*
G01Y4928110D02*
X3948560D01*
Y4891110D01*
G01X3992750Y4904740D02*
Y4928110D01*
G01X4040000Y4811400D02*
Y4850340D01*
X3948560D01*
Y4811400D01*
G01X3992750Y4826980D02*
Y4850340D01*
G01X3948560Y4752130D02*
X4040000D01*
G01X3948560Y4774520D02*
Y4729740D01*
G01X4070480Y4702600D02*
Y4644180D01*
G01X3948560Y4618990D02*
X4040000Y4594650D01*
X3948560Y4570310D01*
G01X4040000Y4515910D02*
X3948560D01*
X3966850Y4527590D01*
G01X4040000D02*
Y4504230D01*
G01X3948560Y4437170D02*
X3951610Y4444960D01*
X3959230Y4450800D01*
X3968370Y4454700D01*
X3980570Y4457620D01*
X3994280Y4458590D01*
X4008000Y4457620D01*
X4020190Y4454700D01*
X4029330Y4450800D01*
X4036950Y4444960D01*
X4040000Y4437170D01*
X4036950Y4429380D01*
X4029330Y4423540D01*
X4020190Y4419640D01*
X4008000Y4416720D01*
X3994280Y4415750D01*
X3980570Y4416720D01*
X3968370Y4419640D01*
X3959230Y4423540D01*
X3951610Y4429380D01*
X3948560Y4437170D01*
G01X4040000Y4382770D02*
X3948560Y4358430D01*
X4040000Y4334090D01*
G01X4008000Y4342850D02*
Y4374010D01*
G01X4043050Y4279690D02*
X4041520Y4281640D01*
X4038480D01*
X4036950Y4279690D01*
X4038480Y4277740D01*
X4041520D01*
X4043050Y4279690D01*
G01X3991230Y4193160D02*
X3986660Y4189270D01*
X3979040Y4186350D01*
X3968370Y4184400D01*
X3959230Y4186350D01*
X3953130Y4190240D01*
X3948560Y4197060D01*
Y4223340D01*
X4040000D01*
Y4191210D01*
X4033910Y4184400D01*
X4024760Y4180500D01*
X4014090Y4178560D01*
X4003430Y4180500D01*
X3994280Y4186350D01*
X3991230Y4193160D01*
Y4223340D01*
G01X4040000Y4141680D02*
X3948560D01*
Y4117340D01*
X3953130Y4109550D01*
X3959230Y4104680D01*
X3971420Y4102740D01*
X3983610Y4104680D01*
X3991230Y4110530D01*
X3995810Y4117340D01*
Y4141680D01*
G01Y4117340D02*
X4040000Y4102740D01*
G01Y4064890D02*
X3948560D01*
Y4045420D01*
X3953130Y4037630D01*
X3959230Y4031790D01*
X3968370Y4026920D01*
X3979040Y4023020D01*
X3994280Y4022050D01*
X4009520Y4023020D01*
X4020190Y4026920D01*
X4029330Y4031790D01*
X4035430Y4037630D01*
X4040000Y4045420D01*
Y4064890D01*
G01X4220000Y5482210D02*
X4128560D01*
Y5462740D01*
X4133130Y5454950D01*
X4139230Y5449110D01*
X4148370Y5444240D01*
X4159040Y5440340D01*
X4174280Y5439370D01*
X4189520Y5440340D01*
X4200190Y5444240D01*
X4209330Y5449110D01*
X4215430Y5454950D01*
X4220000Y5462740D01*
Y5482210D01*
G01Y5406390D02*
X4128560Y5382050D01*
X4220000Y5357710D01*
G01X4188000Y5366470D02*
Y5397630D01*
G01X4128560Y5303310D02*
X4220000D01*
G01X4128560Y5325700D02*
Y5280920D01*
G01X4220000Y5205100D02*
Y5244040D01*
X4128560D01*
Y5205100D01*
G01X4172750Y5220680D02*
Y5244040D01*
G01X4223050Y5145830D02*
X4221520Y5147780D01*
X4218480D01*
X4216950Y5145830D01*
X4218480Y5143880D01*
X4221520D01*
X4223050Y5145830D01*
G01X4181900D02*
X4180380Y5147780D01*
X4177330D01*
X4175810Y5145830D01*
X4177330Y5143880D01*
X4180380D01*
X4181900Y5145830D01*
G01X4143800Y5085590D02*
X4134660Y5079750D01*
X4130080Y5072930D01*
X4128560Y5065140D01*
X4131610Y5055410D01*
X4139230Y5048590D01*
X4148370Y5046640D01*
X4157520Y5047620D01*
X4165140Y5051510D01*
X4180380Y5070980D01*
X4191040Y5079750D01*
X4206290Y5085590D01*
X4220000Y5087540D01*
Y5046640D01*
G01X4128560Y4988350D02*
X4131610Y4996140D01*
X4139230Y5001980D01*
X4148370Y5005880D01*
X4160570Y5008800D01*
X4174280Y5009770D01*
X4188000Y5008800D01*
X4200190Y5005880D01*
X4209330Y5001980D01*
X4216950Y4996140D01*
X4220000Y4988350D01*
X4216950Y4980560D01*
X4209330Y4974720D01*
X4200190Y4970820D01*
X4188000Y4967900D01*
X4174280Y4966930D01*
X4160570Y4967900D01*
X4148370Y4970820D01*
X4139230Y4974720D01*
X4131610Y4980560D01*
X4128560Y4988350D01*
G01X4220000Y4909610D02*
X4128560D01*
X4146850Y4921290D01*
G01X4220000D02*
Y4897930D01*
G01X4181900Y4849370D02*
X4171230Y4842550D01*
X4165140Y4836710D01*
X4162090Y4828920D01*
X4165140Y4822110D01*
X4171230Y4817240D01*
X4180380Y4813340D01*
X4191040Y4812370D01*
X4200190Y4813340D01*
X4209330Y4817240D01*
X4216950Y4823080D01*
X4220000Y4829900D01*
X4216950Y4837690D01*
X4207810Y4844500D01*
X4194090Y4848400D01*
X4178850Y4849370D01*
X4159040Y4847420D01*
X4148370Y4844500D01*
X4137700Y4839630D01*
X4130080Y4832820D01*
X4128560Y4826000D01*
X4131610Y4819190D01*
X4139230Y4814320D01*
G01X4250480Y4781340D02*
Y4722920D01*
G01X4220000Y4673390D02*
X4128560D01*
X4146850Y4685070D01*
G01X4220000D02*
Y4661710D01*
G01Y4594650D02*
X4128560D01*
X4146850Y4606330D01*
G01X4220000D02*
Y4582970D01*
G01X4250480Y4545120D02*
Y4486700D01*
G01X4128560Y4437170D02*
X4131610Y4444960D01*
X4139230Y4450800D01*
X4148370Y4454700D01*
X4160570Y4457620D01*
X4174280Y4458590D01*
X4188000Y4457620D01*
X4200190Y4454700D01*
X4209330Y4450800D01*
X4216950Y4444960D01*
X4220000Y4437170D01*
X4216950Y4429380D01*
X4209330Y4423540D01*
X4200190Y4419640D01*
X4188000Y4416720D01*
X4174280Y4415750D01*
X4160570Y4416720D01*
X4148370Y4419640D01*
X4139230Y4423540D01*
X4131610Y4429380D01*
X4128560Y4437170D01*
G01X4220000Y4358430D02*
X4128560D01*
X4146850Y4370110D01*
G01X4220000D02*
Y4346750D01*
G01X4351230Y5453000D02*
X4346660Y5449110D01*
X4339040Y5446190D01*
X4328370Y5444240D01*
X4319230Y5446190D01*
X4313130Y5450080D01*
X4308560Y5456900D01*
Y5483180D01*
X4400000D01*
Y5451050D01*
X4393910Y5444240D01*
X4384760Y5440340D01*
X4374090Y5438400D01*
X4363430Y5440340D01*
X4354280Y5446190D01*
X4351230Y5453000D01*
Y5483180D01*
G01X4400000Y5382050D02*
X4358850D01*
X4308560Y5401520D01*
G01Y5362580D02*
X4358850Y5382050D01*
G01X4403050Y5303310D02*
X4401520Y5305260D01*
X4398480D01*
X4396950Y5303310D01*
X4398480Y5301360D01*
X4401520D01*
X4403050Y5303310D01*
G01X4361900D02*
X4360380Y5305260D01*
X4357330D01*
X4355810Y5303310D01*
X4357330Y5301360D01*
X4360380D01*
X4361900Y5303310D01*
G01X4400000Y5245020D02*
X4308560Y5204120D01*
G01Y5245020D02*
X4400000Y5204120D01*
G01Y5166280D02*
X4308560Y5125380D01*
G01Y5166280D02*
X4400000Y5125380D01*
G01Y5087540D02*
X4308560Y5046640D01*
G01Y5087540D02*
X4400000Y5046640D01*
G01X4308560Y5007820D02*
X4400000D01*
Y4968880D01*
G01X4308560Y4928110D02*
Y4891110D01*
X4400000Y4928110D01*
Y4891110D01*
G01X4381710Y4850340D02*
X4390860Y4845470D01*
X4396950Y4839630D01*
X4400000Y4832820D01*
X4396950Y4825030D01*
X4390860Y4819190D01*
X4381710Y4813340D01*
X4369520Y4811400D01*
X4308560D01*
G01X4400000Y4772580D02*
X4308560Y4731680D01*
G01Y4772580D02*
X4400000Y4731680D01*
G01Y4693840D02*
X4308560Y4652940D01*
G01Y4693840D02*
X4400000Y4652940D01*
G01Y4615100D02*
X4308560Y4574200D01*
G01Y4615100D02*
X4400000Y4574200D01*
M02*
