G04 ================== begin FILE IDENTIFICATION RECORD ==================*
G04 Layout Name:  E:/GitHub/45_STM32F407/F407_PACK_V10B/PCB/F407_PACK_V10B.brd*
G04 Film Name:    SilkScreen_Bottom*
G04 File Format:  Gerber RS274X*
G04 File Origin:  Cadence Allegro 16.6-2015-S071*
G04 Origin Date:  Sun Sep 18 17:40:58 2016*
G04 *
G04 Layer:  BOARD GEOMETRY/OUTLINE*
G04 Layer:  REF DES/SILKSCREEN_BOTTOM*
G04 Layer:  PACKAGE GEOMETRY/SILKSCREEN_BOTTOM*
G04 Layer:  BOARD GEOMETRY/SILKSCREEN_BOTTOM*
G04 *
G04 Offset:    (0.0000 0.0000)*
G04 Mirror:    No*
G04 Mode:      Positive*
G04 Rotation:  0*
G04 FullContactRelief:  No*
G04 UndefLineWidth:     0.1524*
G04 ================== end FILE IDENTIFICATION RECORD ====================*
%FSLAX55Y55*MOMM*%
%IR0*IPPOS*OFA0.00000B0.00000*MIA0B0*SFA1.00000B1.00000*%
%ADD10C,.2032*%
%ADD11C,.17*%
%ADD12C,.127*%
%ADD13C,.1524*%
G75*
%LPD*%
G75*
G54D10*
G01X330000Y0D02*
X14670000D01*
G03X15000000Y330000I0J330000D01*
G01Y9870000D01*
G03X14670000Y10200000I-330000J0D01*
G01X330000D01*
G03X0Y9870000I0J-330000D01*
G01Y330000D01*
G03X330000Y0I330000J0D01*
G01X7980000Y130000D02*
G03I-70000J0D01*
G01Y730000D02*
G03I-70000J0D01*
G01X9160000Y130000D02*
G03I-70000J0D01*
G01Y730000D02*
G03I-70000J0D01*
G01X12420000Y9940000D02*
G03I-50000J0D01*
G01X13220000D02*
G03I-50000J0D01*
G54D11*
G01X450000Y1350000D02*
G03I-30000J0D01*
G01Y950000D02*
G03I-30000J0D01*
G01Y2350000D02*
G03I-30000J0D01*
G01Y1950000D02*
G03I-30000J0D01*
G54D12*
G01X5187000Y283000D02*
G03I-160000J0D01*
G01X5402000Y1641000D02*
G03I-160000J0D01*
G01X9285000Y2200000D02*
G03I-75000J0D01*
G01Y2950000D02*
G03I-75000J0D01*
G01X10051000Y283000D02*
G03I-160000J0D01*
G01X9860000Y1641000D02*
G03I-160000J0D01*
G54D13*
G01X9703000Y8430000D02*
Y8520000D01*
X9657000Y8430000D01*
Y8520000D01*
G01X9624680Y8430000D02*
X9599680Y8520000D01*
X9574680Y8430000D01*
G01X9583680Y8461500D02*
X9615680D01*
G01X9545360Y8430000D02*
Y8520000D01*
X9519360Y8445000D01*
X9493360Y8520000D01*
Y8430000D01*
G01X9419040D02*
X9459040D01*
Y8520000D01*
X9419040D01*
G01X9435040Y8476500D02*
X9459040D01*
G01X9358720Y8427000D02*
X9360720Y8428500D01*
Y8431500D01*
X9358720Y8433000D01*
X9356720Y8431500D01*
Y8428500D01*
X9358720Y8427000D01*
G01Y8467500D02*
X9360720Y8469000D01*
Y8472000D01*
X9358720Y8473500D01*
X9356720Y8472000D01*
Y8469000D01*
X9358720Y8467500D01*
G01X9297400Y8430000D02*
Y8520000D01*
X9259400D01*
G01X9273400Y8476500D02*
X9297400D01*
G01X9186080Y8430000D02*
Y8520000D01*
X9223080Y8455500D01*
X9173080D01*
G01X9117760Y8520000D02*
X9125760Y8517000D01*
X9131760Y8509500D01*
X9135760Y8500500D01*
X9138760Y8488500D01*
X9139760Y8475000D01*
X9138760Y8461500D01*
X9135760Y8449500D01*
X9131760Y8440500D01*
X9125760Y8433000D01*
X9117760Y8430000D01*
X9109760Y8433000D01*
X9103760Y8440500D01*
X9099760Y8449500D01*
X9096760Y8461500D01*
X9095760Y8475000D01*
X9096760Y8488500D01*
X9099760Y8500500D01*
X9103760Y8509500D01*
X9109760Y8517000D01*
X9117760Y8520000D01*
G01X9039440Y8430000D02*
X9037440Y8449500D01*
X9034440Y8466000D01*
X9030440Y8481000D01*
X9025440Y8497500D01*
X9017440Y8520000D01*
X9057440D01*
G01X8987120Y8400000D02*
X8927120D01*
G01X8896800Y8430000D02*
Y8520000D01*
X8872800D01*
X8864800Y8515500D01*
X8858800Y8505000D01*
X8856800Y8493000D01*
X8858800Y8481000D01*
X8863800Y8472000D01*
X8872800Y8467500D01*
X8896800D01*
G01X8821480Y8430000D02*
X8796480Y8520000D01*
X8771480Y8430000D01*
G01X8780480Y8461500D02*
X8812480D01*
G01X8694160Y8512500D02*
X8700160Y8517000D01*
X8707160Y8520000D01*
X8715160D01*
X8724160Y8515500D01*
X8731160Y8508000D01*
X8736160Y8499000D01*
X8740160Y8484000D01*
X8741160Y8470500D01*
X8739160Y8457000D01*
X8736160Y8448000D01*
X8730160Y8439000D01*
X8723160Y8433000D01*
X8716160Y8430000D01*
X8709160D01*
X8702160Y8433000D01*
X8696160Y8437500D01*
X8691160Y8443500D01*
G01X8657840Y8430000D02*
Y8520000D01*
G01X8619840D02*
X8657840Y8464500D01*
G01X8613840Y8430000D02*
X8640840Y8490000D01*
G01X8585520Y8400000D02*
X8525520D01*
G01X8500200Y8520000D02*
X8475200Y8430000D01*
X8450200Y8520000D01*
G01X8394880Y8430000D02*
Y8520000D01*
X8406880Y8502000D01*
G01Y8430000D02*
X8382880D01*
G01X8314560Y8520000D02*
X8322560Y8517000D01*
X8328560Y8509500D01*
X8332560Y8500500D01*
X8335560Y8488500D01*
X8336560Y8475000D01*
X8335560Y8461500D01*
X8332560Y8449500D01*
X8328560Y8440500D01*
X8322560Y8433000D01*
X8314560Y8430000D01*
X8306560Y8433000D01*
X8300560Y8440500D01*
X8296560Y8449500D01*
X8293560Y8461500D01*
X8292560Y8475000D01*
X8293560Y8488500D01*
X8296560Y8500500D01*
X8300560Y8509500D01*
X8306560Y8517000D01*
X8314560Y8520000D01*
G01X8226240Y8478000D02*
X8222240Y8482500D01*
X8219240Y8490000D01*
X8217240Y8500500D01*
X8219240Y8509500D01*
X8223240Y8515500D01*
X8230240Y8520000D01*
X8257240D01*
Y8430000D01*
X8224240D01*
X8217240Y8436000D01*
X8213240Y8445000D01*
X8211240Y8455500D01*
X8213240Y8466000D01*
X8219240Y8475000D01*
X8226240Y8478000D01*
X8257240D01*
G01X8153920Y8427000D02*
X8155920Y8428500D01*
Y8431500D01*
X8153920Y8433000D01*
X8151920Y8431500D01*
Y8428500D01*
X8153920Y8427000D01*
G01X8065600Y8478000D02*
X8061600Y8482500D01*
X8058600Y8490000D01*
X8056600Y8500500D01*
X8058600Y8509500D01*
X8062600Y8515500D01*
X8069600Y8520000D01*
X8096600D01*
Y8430000D01*
X8063600D01*
X8056600Y8436000D01*
X8052600Y8445000D01*
X8050600Y8455500D01*
X8052600Y8466000D01*
X8058600Y8475000D01*
X8065600Y8478000D01*
X8096600D01*
G01X8013280Y8430000D02*
Y8520000D01*
X7988280D01*
X7980280Y8515500D01*
X7975280Y8509500D01*
X7973280Y8497500D01*
X7975280Y8485500D01*
X7981280Y8478000D01*
X7988280Y8473500D01*
X8013280D01*
G01X7988280D02*
X7973280Y8430000D01*
G01X7934960D02*
Y8520000D01*
X7914960D01*
X7906960Y8515500D01*
X7900960Y8509500D01*
X7895960Y8500500D01*
X7891960Y8490000D01*
X7890960Y8475000D01*
X7891960Y8460000D01*
X7895960Y8449500D01*
X7900960Y8440500D01*
X7906960Y8434500D01*
X7914960Y8430000D01*
X7934960D01*
G01X9702000Y8280000D02*
Y8370000D01*
X9682000D01*
X9674000Y8365500D01*
X9668000Y8359500D01*
X9663000Y8350500D01*
X9659000Y8340000D01*
X9658000Y8325000D01*
X9659000Y8310000D01*
X9663000Y8299500D01*
X9668000Y8290500D01*
X9674000Y8284500D01*
X9682000Y8280000D01*
X9702000D01*
G01X9624680D02*
X9599680Y8370000D01*
X9574680Y8280000D01*
G01X9583680Y8311500D02*
X9615680D01*
G01X9519360Y8370000D02*
Y8280000D01*
G01X9542360Y8370000D02*
X9496360D01*
G01X9419040Y8280000D02*
X9459040D01*
Y8370000D01*
X9419040D01*
G01X9435040Y8326500D02*
X9459040D01*
G01X9358720Y8277000D02*
X9360720Y8278500D01*
Y8281500D01*
X9358720Y8283000D01*
X9356720Y8281500D01*
Y8278500D01*
X9358720Y8277000D01*
G01Y8317500D02*
X9360720Y8319000D01*
Y8322000D01*
X9358720Y8323500D01*
X9356720Y8322000D01*
Y8319000D01*
X9358720Y8317500D01*
G01X9297400Y8355000D02*
X9291400Y8364000D01*
X9284400Y8368500D01*
X9276400Y8370000D01*
X9266400Y8367000D01*
X9259400Y8359500D01*
X9257400Y8350500D01*
X9258400Y8341500D01*
X9262400Y8334000D01*
X9282400Y8319000D01*
X9291400Y8308500D01*
X9297400Y8293500D01*
X9299400Y8280000D01*
X9257400D01*
G01X9198080D02*
Y8370000D01*
X9210080Y8352000D01*
G01Y8280000D02*
X9186080D01*
G01X9117760Y8370000D02*
X9125760Y8367000D01*
X9131760Y8359500D01*
X9135760Y8350500D01*
X9138760Y8338500D01*
X9139760Y8325000D01*
X9138760Y8311500D01*
X9135760Y8299500D01*
X9131760Y8290500D01*
X9125760Y8283000D01*
X9117760Y8280000D01*
X9109760Y8283000D01*
X9103760Y8290500D01*
X9099760Y8299500D01*
X9096760Y8311500D01*
X9095760Y8325000D01*
X9096760Y8338500D01*
X9099760Y8350500D01*
X9103760Y8359500D01*
X9109760Y8367000D01*
X9117760Y8370000D01*
G01X9056440Y8317500D02*
X9049440Y8328000D01*
X9043440Y8334000D01*
X9035440Y8337000D01*
X9028440Y8334000D01*
X9023440Y8328000D01*
X9019440Y8319000D01*
X9018440Y8308500D01*
X9019440Y8299500D01*
X9023440Y8290500D01*
X9029440Y8283000D01*
X9036440Y8280000D01*
X9044440Y8283000D01*
X9051440Y8292000D01*
X9055440Y8305500D01*
X9056440Y8320500D01*
X9054440Y8340000D01*
X9051440Y8350500D01*
X9046440Y8361000D01*
X9039440Y8368500D01*
X9032440Y8370000D01*
X9025440Y8367000D01*
X9020440Y8359500D01*
G01X8987120Y8250000D02*
X8927120D01*
G01X8876800Y8370000D02*
X8884800Y8367000D01*
X8890800Y8359500D01*
X8894800Y8350500D01*
X8897800Y8338500D01*
X8898800Y8325000D01*
X8897800Y8311500D01*
X8894800Y8299500D01*
X8890800Y8290500D01*
X8884800Y8283000D01*
X8876800Y8280000D01*
X8868800Y8283000D01*
X8862800Y8290500D01*
X8858800Y8299500D01*
X8855800Y8311500D01*
X8854800Y8325000D01*
X8855800Y8338500D01*
X8858800Y8350500D01*
X8862800Y8359500D01*
X8868800Y8367000D01*
X8876800Y8370000D01*
G01X8813480Y8290500D02*
X8806480Y8283000D01*
X8798480Y8280000D01*
X8790480Y8283000D01*
X8783480Y8292000D01*
X8778480Y8305500D01*
X8776480Y8319000D01*
Y8335500D01*
X8778480Y8349000D01*
X8783480Y8361000D01*
X8789480Y8367000D01*
X8796480Y8370000D01*
X8804480Y8367000D01*
X8810480Y8361000D01*
X8814480Y8352000D01*
X8816480Y8340000D01*
X8814480Y8329500D01*
X8809480Y8319000D01*
X8803480Y8313000D01*
X8796480Y8311500D01*
X8788480Y8314500D01*
X8782480Y8322000D01*
X8776480Y8335500D01*
G01X8746160Y8250000D02*
X8686160D01*
G01X8635840Y8280000D02*
Y8370000D01*
X8647840Y8352000D01*
G01Y8280000D02*
X8623840D01*
G01X8555520D02*
X8548520Y8281500D01*
X8540520Y8286000D01*
X8535520Y8293500D01*
X8533520Y8304000D01*
X8535520Y8314500D01*
X8541520Y8323500D01*
X8550520Y8328000D01*
X8560520D01*
X8566520Y8331000D01*
X8571520Y8338500D01*
X8573520Y8349000D01*
X8570520Y8359500D01*
X8563520Y8367000D01*
X8555520Y8370000D01*
X8547520Y8367000D01*
X8540520Y8359500D01*
X8537520Y8349000D01*
X8539520Y8338500D01*
X8544520Y8331000D01*
X8550520Y8328000D01*
X8560520D01*
X8569520Y8323500D01*
X8575520Y8314500D01*
X8577520Y8304000D01*
X8575520Y8293500D01*
X8570520Y8286000D01*
X8562520Y8281500D01*
X8555520Y8280000D01*
G01X9672000Y8178000D02*
X9668000Y8182500D01*
X9665000Y8190000D01*
X9663000Y8200500D01*
X9665000Y8209500D01*
X9669000Y8215500D01*
X9676000Y8220000D01*
X9703000D01*
Y8130000D01*
X9670000D01*
X9663000Y8136000D01*
X9659000Y8145000D01*
X9657000Y8155500D01*
X9659000Y8166000D01*
X9665000Y8175000D01*
X9672000Y8178000D01*
X9703000D01*
G01X9599680Y8130000D02*
Y8170500D01*
X9619680Y8220000D01*
G01X9579680D02*
X9599680Y8170500D01*
G01X9519360Y8127000D02*
X9521360Y8128500D01*
Y8131500D01*
X9519360Y8133000D01*
X9517360Y8131500D01*
Y8128500D01*
X9519360Y8127000D01*
G01Y8167500D02*
X9521360Y8169000D01*
Y8172000D01*
X9519360Y8173500D01*
X9517360Y8172000D01*
Y8169000D01*
X9519360Y8167500D01*
G01X9460040Y8130000D02*
X9418040Y8220000D01*
G01X9460040D02*
X9418040Y8130000D01*
G01X9379720D02*
X9337720Y8220000D01*
G01X9379720D02*
X9337720Y8130000D01*
G01X9299400D02*
X9257400Y8220000D01*
G01X9299400D02*
X9257400Y8130000D01*
G01X9218080Y8220000D02*
Y8130000D01*
X9178080D01*
G01X9136760Y8220000D02*
X9098760D01*
X9136760Y8130000D01*
X9098760D01*
G01X9057440Y8148000D02*
X9052440Y8139000D01*
X9046440Y8133000D01*
X9039440Y8130000D01*
X9031440Y8133000D01*
X9025440Y8139000D01*
X9019440Y8148000D01*
X9017440Y8160000D01*
Y8220000D01*
G01X8978120Y8130000D02*
X8936120Y8220000D01*
G01X8978120D02*
X8936120Y8130000D01*
G01X8897800D02*
X8855800Y8220000D01*
G01X8897800D02*
X8855800Y8130000D01*
G01X8817480D02*
X8775480Y8220000D01*
G01X8817480D02*
X8775480Y8130000D01*
M02*
