G04 ================== begin FILE IDENTIFICATION RECORD ==================*
G04 Layout Name:  F:/Ñ¸À×ÏÂÔØ/2016Äê±ÏÉè/ÆÑÑÞ·Æ/F407_PACK_V11A/PCB/F407_PACK_V11A.brd*
G04 Film Name:    Drill_Legend*
G04 File Format:  Gerber RS274X*
G04 File Origin:  Cadence Allegro 16.6-2015-S064*
G04 Origin Date:  Tue Mar 29 17:23:38 2016*
G04 *
G04 Layer:  MANUFACTURING/NCLEGEND-1-2*
G04 Layer:  MANUFACTURING/NCDRILL_LEGEND*
G04 Layer:  MANUFACTURING/NCDRILL_FIGURE*
G04 Layer:  BOARD GEOMETRY/DIMENSION*
G04 Layer:  BOARD GEOMETRY/OUTLINE*
G04 *
G04 Offset:    (0.0000 0.0000)*
G04 Mirror:    No*
G04 Mode:      Positive*
G04 Rotation:  0*
G04 FullContactRelief:  No*
G04 UndefLineWidth:     0.1524*
G04 ================== end FILE IDENTIFICATION RECORD ====================*
%FSLAX25Y25*MOMM*%
%IR0*IPPOS*OFA0.00000B0.00000*MIA0B0*SFA1.00000B1.00000*%
%AMMACRO12*
1,1,.1524,-.8,.4*
20,1,.1524,-.8,.4,.8,.4,0.0*
1,1,.1524,.8,.4*
20,1,.1524,.8,.4,.869459,.393923,0.0*
1,1,.1524,.869459,.393923*
20,1,.1524,.869459,.393923,.936808,.375877,0.0*
1,1,.1524,.936808,.375877*
20,1,.1524,.936808,.375877,1.,.34641,0.0*
1,1,.1524,1.,.34641*
20,1,.1524,1.,.34641,1.057115,.306418,0.0*
1,1,.1524,1.057115,.306418*
20,1,.1524,1.057115,.306418,1.106418,.257115,0.0*
1,1,.1524,1.106418,.257115*
20,1,.1524,1.106418,.257115,1.14641,.2,0.0*
1,1,.1524,1.14641,.2*
20,1,.1524,1.14641,.2,1.175877,.136808,0.0*
1,1,.1524,1.175877,.136808*
20,1,.1524,1.175877,.136808,1.193923,.069459,0.0*
1,1,.1524,1.193923,.069459*
20,1,.1524,1.193923,.069459,1.2,0.0,0.0*
1,1,.1524,1.2,0.0*
20,1,.1524,1.2,0.0,1.193923,-.069459,0.0*
1,1,.1524,1.193923,-.069459*
20,1,.1524,1.193923,-.069459,1.175877,-.136808,0.0*
1,1,.1524,1.175877,-.136808*
20,1,.1524,1.175877,-.136808,1.14641,-.2,0.0*
1,1,.1524,1.14641,-.2*
20,1,.1524,1.14641,-.2,1.106418,-.257115,0.0*
1,1,.1524,1.106418,-.257115*
20,1,.1524,1.106418,-.257115,1.057115,-.306418,0.0*
1,1,.1524,1.057115,-.306418*
20,1,.1524,1.057115,-.306418,1.,-.34641,0.0*
1,1,.1524,1.,-.34641*
20,1,.1524,1.,-.34641,.936808,-.375877,0.0*
1,1,.1524,.936808,-.375877*
20,1,.1524,.936808,-.375877,.869459,-.393923,0.0*
1,1,.1524,.869459,-.393923*
20,1,.1524,.869459,-.393923,.8,-.4,0.0*
1,1,.1524,.8,-.4*
20,1,.1524,.8,-.4,-.8,-.4,0.0*
1,1,.1524,-.8,-.4*
20,1,.1524,-.8,-.4,-.869459,-.393923,0.0*
1,1,.1524,-.869459,-.393923*
20,1,.1524,-.869459,-.393923,-.936808,-.375877,0.0*
1,1,.1524,-.936808,-.375877*
20,1,.1524,-.936808,-.375877,-1.,-.34641,0.0*
1,1,.1524,-1.,-.34641*
20,1,.1524,-1.,-.34641,-1.057115,-.306418,0.0*
1,1,.1524,-1.057115,-.306418*
20,1,.1524,-1.057115,-.306418,-1.106418,-.257115,0.0*
1,1,.1524,-1.106418,-.257115*
20,1,.1524,-1.106418,-.257115,-1.14641,-.2,0.0*
1,1,.1524,-1.14641,-.2*
20,1,.1524,-1.14641,-.2,-1.175877,-.136808,0.0*
1,1,.1524,-1.175877,-.136808*
20,1,.1524,-1.175877,-.136808,-1.193923,-.069459,0.0*
1,1,.1524,-1.193923,-.069459*
20,1,.1524,-1.193923,-.069459,-1.2,0.0,0.0*
1,1,.1524,-1.2,0.0*
20,1,.1524,-1.2,0.0,-1.193923,.069459,0.0*
1,1,.1524,-1.193923,.069459*
20,1,.1524,-1.193923,.069459,-1.175877,.136808,0.0*
1,1,.1524,-1.175877,.136808*
20,1,.1524,-1.175877,.136808,-1.14641,.2,0.0*
1,1,.1524,-1.14641,.2*
20,1,.1524,-1.14641,.2,-1.106418,.257115,0.0*
1,1,.1524,-1.106418,.257115*
20,1,.1524,-1.106418,.257115,-1.057115,.306418,0.0*
1,1,.1524,-1.057115,.306418*
20,1,.1524,-1.057115,.306418,-1.,.34641,0.0*
1,1,.1524,-1.,.34641*
20,1,.1524,-1.,.34641,-.936808,.375877,0.0*
1,1,.1524,-.936808,.375877*
20,1,.1524,-.936808,.375877,-.869459,.393923,0.0*
1,1,.1524,-.869459,.393923*
20,1,.1524,-.869459,.393923,-.8,.4,0.0*
1,1,.1524,-.8,.4*
%
%ADD12MACRO12*%
%AMMACRO11*
1,1,.1524,.762,0.0*
20,1,.1524,.762,0.0,-.762,0.0,0.0*
1,1,.1524,-.762,0.0*
1,1,.1524,0.0,.762*
20,1,.1524,0.0,.762,0.0,-.762,0.0*
1,1,.1524,0.0,-.762*
%
%ADD11MACRO11*%
%AMMACRO15*
1,1,.1524,.508,0.0*
20,1,.1524,.508,0.0,.500282,-.088213,0.0*
1,1,.1524,.500282,-.088213*
20,1,.1524,.500282,-.088213,.477364,-.173746,0.0*
1,1,.1524,.477364,-.173746*
20,1,.1524,.477364,-.173746,.439941,-.254,0.0*
1,1,.1524,.439941,-.254*
20,1,.1524,.439941,-.254,.389151,-.326536,0.0*
1,1,.1524,.389151,-.326536*
20,1,.1524,.389151,-.326536,.326536,-.389151,0.0*
1,1,.1524,.326536,-.389151*
20,1,.1524,.326536,-.389151,.254,-.439941,0.0*
1,1,.1524,.254,-.439941*
20,1,.1524,.254,-.439941,.173746,-.477364,0.0*
1,1,.1524,.173746,-.477364*
20,1,.1524,.173746,-.477364,.088213,-.500282,0.0*
1,1,.1524,.088213,-.500282*
20,1,.1524,.088213,-.500282,0.0,-.508,0.0*
1,1,.1524,0.0,-.508*
20,1,.1524,0.0,-.508,-.088213,-.500282,0.0*
1,1,.1524,-.088213,-.500282*
20,1,.1524,-.088213,-.500282,-.173746,-.477364,0.0*
1,1,.1524,-.173746,-.477364*
20,1,.1524,-.173746,-.477364,-.254,-.439941,0.0*
1,1,.1524,-.254,-.439941*
20,1,.1524,-.254,-.439941,-.326536,-.389151,0.0*
1,1,.1524,-.326536,-.389151*
20,1,.1524,-.326536,-.389151,-.389151,-.326536,0.0*
1,1,.1524,-.389151,-.326536*
20,1,.1524,-.389151,-.326536,-.439941,-.254,0.0*
1,1,.1524,-.439941,-.254*
20,1,.1524,-.439941,-.254,-.477364,-.173746,0.0*
1,1,.1524,-.477364,-.173746*
20,1,.1524,-.477364,-.173746,-.500282,-.088213,0.0*
1,1,.1524,-.500282,-.088213*
20,1,.1524,-.500282,-.088213,-.508,0.0,0.0*
1,1,.1524,-.508,0.0*
20,1,.1524,-.508,0.0,-.500282,.088213,0.0*
1,1,.1524,-.500282,.088213*
20,1,.1524,-.500282,.088213,-.477364,.173746,0.0*
1,1,.1524,-.477364,.173746*
20,1,.1524,-.477364,.173746,-.439941,.254,0.0*
1,1,.1524,-.439941,.254*
20,1,.1524,-.439941,.254,-.389151,.326536,0.0*
1,1,.1524,-.389151,.326536*
20,1,.1524,-.389151,.326536,-.326536,.389151,0.0*
1,1,.1524,-.326536,.389151*
20,1,.1524,-.326536,.389151,-.254,.439941,0.0*
1,1,.1524,-.254,.439941*
20,1,.1524,-.254,.439941,-.173746,.477364,0.0*
1,1,.1524,-.173746,.477364*
20,1,.1524,-.173746,.477364,-.088213,.500282,0.0*
1,1,.1524,-.088213,.500282*
20,1,.1524,-.088213,.500282,0.0,.508,0.0*
1,1,.1524,0.0,.508*
20,1,.1524,0.0,.508,.088213,.500282,0.0*
1,1,.1524,.088213,.500282*
20,1,.1524,.088213,.500282,.173746,.477364,0.0*
1,1,.1524,.173746,.477364*
20,1,.1524,.173746,.477364,.254,.439941,0.0*
1,1,.1524,.254,.439941*
20,1,.1524,.254,.439941,.326536,.389151,0.0*
1,1,.1524,.326536,.389151*
20,1,.1524,.326536,.389151,.389151,.326536,0.0*
1,1,.1524,.389151,.326536*
20,1,.1524,.389151,.326536,.439941,.254,0.0*
1,1,.1524,.439941,.254*
20,1,.1524,.439941,.254,.477364,.173746,0.0*
1,1,.1524,.477364,.173746*
20,1,.1524,.477364,.173746,.500282,.088213,0.0*
1,1,.1524,.500282,.088213*
20,1,.1524,.500282,.088213,.508,0.0,0.0*
1,1,.1524,.508,0.0*
1,1,.1524,.254,0.0*
20,1,.1524,.254,0.0,-.254,0.0,0.0*
1,1,.1524,-.254,0.0*
1,1,.1524,0.0,.254*
20,1,.1524,0.0,.254,0.0,-.254,0.0*
1,1,.1524,0.0,-.254*
%
%ADD15MACRO15*%
%AMMACRO10*
1,1,.1524,.127,0.0*
20,1,.1524,.127,0.0,-.127,0.0,0.0*
1,1,.1524,-.127,0.0*
1,1,.1524,0.0,.127*
20,1,.1524,0.0,.127,0.0,-.127,0.0*
1,1,.1524,0.0,-.127*
%
%ADD10MACRO10*%
%AMMACRO16*
1,1,.1524,-.5,-1.*
20,1,.1524,-.5,-1.,-.5,1.,0.0*
1,1,.1524,-.5,1.*
20,1,.1524,-.5,1.,-.492404,1.086824,0.0*
1,1,.1524,-.492404,1.086824*
20,1,.1524,-.492404,1.086824,-.469846,1.17101,0.0*
1,1,.1524,-.469846,1.17101*
20,1,.1524,-.469846,1.17101,-.433013,1.25,0.0*
1,1,.1524,-.433013,1.25*
20,1,.1524,-.433013,1.25,-.383022,1.321394,0.0*
1,1,.1524,-.383022,1.321394*
20,1,.1524,-.383022,1.321394,-.321394,1.383022,0.0*
1,1,.1524,-.321394,1.383022*
20,1,.1524,-.321394,1.383022,-.25,1.433013,0.0*
1,1,.1524,-.25,1.433013*
20,1,.1524,-.25,1.433013,-.17101,1.469846,0.0*
1,1,.1524,-.17101,1.469846*
20,1,.1524,-.17101,1.469846,-.086824,1.492404,0.0*
1,1,.1524,-.086824,1.492404*
20,1,.1524,-.086824,1.492404,0.0,1.5,0.0*
1,1,.1524,0.0,1.5*
20,1,.1524,0.0,1.5,.086824,1.492404,0.0*
1,1,.1524,.086824,1.492404*
20,1,.1524,.086824,1.492404,.17101,1.469846,0.0*
1,1,.1524,.17101,1.469846*
20,1,.1524,.17101,1.469846,.25,1.433013,0.0*
1,1,.1524,.25,1.433013*
20,1,.1524,.25,1.433013,.321394,1.383022,0.0*
1,1,.1524,.321394,1.383022*
20,1,.1524,.321394,1.383022,.383022,1.321394,0.0*
1,1,.1524,.383022,1.321394*
20,1,.1524,.383022,1.321394,.433013,1.25,0.0*
1,1,.1524,.433013,1.25*
20,1,.1524,.433013,1.25,.469846,1.17101,0.0*
1,1,.1524,.469846,1.17101*
20,1,.1524,.469846,1.17101,.492404,1.086824,0.0*
1,1,.1524,.492404,1.086824*
20,1,.1524,.492404,1.086824,.5,1.,0.0*
1,1,.1524,.5,1.*
20,1,.1524,.5,1.,.5,-1.,0.0*
1,1,.1524,.5,-1.*
20,1,.1524,.5,-1.,.492404,-1.086824,0.0*
1,1,.1524,.492404,-1.086824*
20,1,.1524,.492404,-1.086824,.469846,-1.17101,0.0*
1,1,.1524,.469846,-1.17101*
20,1,.1524,.469846,-1.17101,.433013,-1.25,0.0*
1,1,.1524,.433013,-1.25*
20,1,.1524,.433013,-1.25,.383022,-1.321394,0.0*
1,1,.1524,.383022,-1.321394*
20,1,.1524,.383022,-1.321394,.321394,-1.383022,0.0*
1,1,.1524,.321394,-1.383022*
20,1,.1524,.321394,-1.383022,.25,-1.433013,0.0*
1,1,.1524,.25,-1.433013*
20,1,.1524,.25,-1.433013,.17101,-1.469846,0.0*
1,1,.1524,.17101,-1.469846*
20,1,.1524,.17101,-1.469846,.086824,-1.492404,0.0*
1,1,.1524,.086824,-1.492404*
20,1,.1524,.086824,-1.492404,0.0,-1.5,0.0*
1,1,.1524,0.0,-1.5*
20,1,.1524,0.0,-1.5,-.086824,-1.492404,0.0*
1,1,.1524,-.086824,-1.492404*
20,1,.1524,-.086824,-1.492404,-.17101,-1.469846,0.0*
1,1,.1524,-.17101,-1.469846*
20,1,.1524,-.17101,-1.469846,-.25,-1.433013,0.0*
1,1,.1524,-.25,-1.433013*
20,1,.1524,-.25,-1.433013,-.321394,-1.383022,0.0*
1,1,.1524,-.321394,-1.383022*
20,1,.1524,-.321394,-1.383022,-.383022,-1.321394,0.0*
1,1,.1524,-.383022,-1.321394*
20,1,.1524,-.383022,-1.321394,-.433013,-1.25,0.0*
1,1,.1524,-.433013,-1.25*
20,1,.1524,-.433013,-1.25,-.469846,-1.17101,0.0*
1,1,.1524,-.469846,-1.17101*
20,1,.1524,-.469846,-1.17101,-.492404,-1.086824,0.0*
1,1,.1524,-.492404,-1.086824*
20,1,.1524,-.492404,-1.086824,-.5,-1.,0.0*
1,1,.1524,-.5,-1.*
%
%ADD16MACRO16*%
%AMMACRO17*
1,1,.1524,-1.,.5*
20,1,.1524,-1.,.5,1.,.5,0.0*
1,1,.1524,1.,.5*
20,1,.1524,1.,.5,1.086824,.492404,0.0*
1,1,.1524,1.086824,.492404*
20,1,.1524,1.086824,.492404,1.17101,.469846,0.0*
1,1,.1524,1.17101,.469846*
20,1,.1524,1.17101,.469846,1.25,.433013,0.0*
1,1,.1524,1.25,.433013*
20,1,.1524,1.25,.433013,1.321394,.383022,0.0*
1,1,.1524,1.321394,.383022*
20,1,.1524,1.321394,.383022,1.383022,.321394,0.0*
1,1,.1524,1.383022,.321394*
20,1,.1524,1.383022,.321394,1.433013,.25,0.0*
1,1,.1524,1.433013,.25*
20,1,.1524,1.433013,.25,1.469846,.17101,0.0*
1,1,.1524,1.469846,.17101*
20,1,.1524,1.469846,.17101,1.492404,.086824,0.0*
1,1,.1524,1.492404,.086824*
20,1,.1524,1.492404,.086824,1.5,0.0,0.0*
1,1,.1524,1.5,0.0*
20,1,.1524,1.5,0.0,1.492404,-.086824,0.0*
1,1,.1524,1.492404,-.086824*
20,1,.1524,1.492404,-.086824,1.469846,-.17101,0.0*
1,1,.1524,1.469846,-.17101*
20,1,.1524,1.469846,-.17101,1.433013,-.25,0.0*
1,1,.1524,1.433013,-.25*
20,1,.1524,1.433013,-.25,1.383022,-.321394,0.0*
1,1,.1524,1.383022,-.321394*
20,1,.1524,1.383022,-.321394,1.321394,-.383022,0.0*
1,1,.1524,1.321394,-.383022*
20,1,.1524,1.321394,-.383022,1.25,-.433013,0.0*
1,1,.1524,1.25,-.433013*
20,1,.1524,1.25,-.433013,1.17101,-.469846,0.0*
1,1,.1524,1.17101,-.469846*
20,1,.1524,1.17101,-.469846,1.086824,-.492404,0.0*
1,1,.1524,1.086824,-.492404*
20,1,.1524,1.086824,-.492404,1.,-.5,0.0*
1,1,.1524,1.,-.5*
20,1,.1524,1.,-.5,-1.,-.5,0.0*
1,1,.1524,-1.,-.5*
20,1,.1524,-1.,-.5,-1.086824,-.492404,0.0*
1,1,.1524,-1.086824,-.492404*
20,1,.1524,-1.086824,-.492404,-1.17101,-.469846,0.0*
1,1,.1524,-1.17101,-.469846*
20,1,.1524,-1.17101,-.469846,-1.25,-.433013,0.0*
1,1,.1524,-1.25,-.433013*
20,1,.1524,-1.25,-.433013,-1.321394,-.383022,0.0*
1,1,.1524,-1.321394,-.383022*
20,1,.1524,-1.321394,-.383022,-1.383022,-.321394,0.0*
1,1,.1524,-1.383022,-.321394*
20,1,.1524,-1.383022,-.321394,-1.433013,-.25,0.0*
1,1,.1524,-1.433013,-.25*
20,1,.1524,-1.433013,-.25,-1.469846,-.17101,0.0*
1,1,.1524,-1.469846,-.17101*
20,1,.1524,-1.469846,-.17101,-1.492404,-.086824,0.0*
1,1,.1524,-1.492404,-.086824*
20,1,.1524,-1.492404,-.086824,-1.5,0.0,0.0*
1,1,.1524,-1.5,0.0*
20,1,.1524,-1.5,0.0,-1.492404,.086824,0.0*
1,1,.1524,-1.492404,.086824*
20,1,.1524,-1.492404,.086824,-1.469846,.17101,0.0*
1,1,.1524,-1.469846,.17101*
20,1,.1524,-1.469846,.17101,-1.433013,.25,0.0*
1,1,.1524,-1.433013,.25*
20,1,.1524,-1.433013,.25,-1.383022,.321394,0.0*
1,1,.1524,-1.383022,.321394*
20,1,.1524,-1.383022,.321394,-1.321394,.383022,0.0*
1,1,.1524,-1.321394,.383022*
20,1,.1524,-1.321394,.383022,-1.25,.433013,0.0*
1,1,.1524,-1.25,.433013*
20,1,.1524,-1.25,.433013,-1.17101,.469846,0.0*
1,1,.1524,-1.17101,.469846*
20,1,.1524,-1.17101,.469846,-1.086824,.492404,0.0*
1,1,.1524,-1.086824,.492404*
20,1,.1524,-1.086824,.492404,-1.,.5,0.0*
1,1,.1524,-1.,.5*
%
%ADD17MACRO17*%
%AMMACRO13*
1,1,.1524,0.0,0.0*
1,1,.1524,0.0,0.0*
1,1,.1524,0.0,0.0*
1,1,.1524,0.0,0.0*
%
%ADD13MACRO13*%
%AMMACRO14*
1,1,.1524,.508,0.0*
20,1,.1524,.508,0.0,.254,.439941,0.0*
1,1,.1524,.254,.439941*
20,1,.1524,.254,.439941,-.254,.439941,0.0*
1,1,.1524,-.254,.439941*
20,1,.1524,-.254,.439941,-.508,0.0,0.0*
1,1,.1524,-.508,0.0*
20,1,.1524,-.508,0.0,-.254,-.439941,0.0*
1,1,.1524,-.254,-.439941*
20,1,.1524,-.254,-.439941,.254,-.439941,0.0*
1,1,.1524,.254,-.439941*
20,1,.1524,.254,-.439941,.508,0.0,0.0*
1,1,.1524,.508,0.0*
1,1,.1524,.254,0.0*
20,1,.1524,.254,0.0,-.254,0.0,0.0*
1,1,.1524,-.254,0.0*
1,1,.1524,0.0,.254*
20,1,.1524,0.0,.254,0.0,-.254,0.0*
1,1,.1524,0.0,-.254*
%
%ADD14MACRO14*%
%ADD18C,.2032*%
%ADD19C,.17*%
%ADD20C,.127*%
%ADD21C,.1524*%
G75*
%LPD*%
G75*
G54D10*
X142780Y582780D03*
X150000Y1320000D03*
X153800Y863800D03*
X118400Y1821600D03*
Y2280000D03*
X99650Y2796190D03*
X178050Y3449480D03*
Y3957480D03*
Y3703480D03*
X185000Y6335000D03*
X554410Y2011580D03*
Y2087780D03*
X607650Y2796190D03*
X353650D03*
X432050Y3449480D03*
Y3957480D03*
Y3703480D03*
X590000Y4220000D03*
Y4370000D03*
X760000Y4220000D03*
Y4370000D03*
X770000Y4550000D03*
X520000Y5240000D03*
Y5390000D03*
X510000Y6530000D03*
X780000D03*
X510000Y6466500D03*
X780000D03*
X450000Y6830000D03*
Y6980000D03*
X810000Y7390000D03*
Y7310000D03*
X1240000Y2800000D03*
X1170000Y3465000D03*
X1300000Y4030000D03*
X1310000Y3924000D03*
Y3814000D03*
Y3704000D03*
X1300000Y4170000D03*
X1304000Y4474000D03*
X1300000Y4364000D03*
X890000Y4730000D03*
X1220000Y5390000D03*
X1279190Y5450000D03*
X1172100Y5572100D03*
X1080000Y5570000D03*
X1170000Y6020000D03*
Y5830000D03*
X850000Y6600000D03*
Y6750000D03*
X900000Y6340000D03*
X946570Y6706570D03*
X1902710Y2224450D03*
Y1970450D03*
X1530000Y2100000D03*
X1740000D03*
X1902710Y2478450D03*
X1520000Y3230000D03*
X1530000Y3390000D03*
X1720000D03*
X1550000Y3584000D03*
X1830000Y4330000D03*
Y4480000D03*
X1740000Y4250000D03*
Y4400000D03*
X1550000Y4150000D03*
X1820000Y4960000D03*
X1390000Y5160000D03*
X1440000D03*
X1720000Y5560000D03*
X1611900Y5581900D03*
X1376200Y5570000D03*
X1430000Y5970000D03*
X1840000Y6580000D03*
Y6680000D03*
X1850000Y6810000D03*
X1780000D03*
X1750000Y7780000D03*
X1835400Y7655400D03*
X1715000Y7385000D03*
X1750000Y8370000D03*
Y8230000D03*
Y8090000D03*
Y7940000D03*
X1780700Y8730000D03*
X2240330Y1241920D03*
X1986330D03*
X2240330Y987920D03*
X1986330D03*
X2156710Y2224450D03*
Y1970450D03*
Y2478450D03*
X2280000Y2800000D03*
X2352000Y2920000D03*
X1970000Y3230000D03*
Y3380000D03*
X2170000Y3230000D03*
Y3380000D03*
X2280000Y3770000D03*
X1910000Y4250000D03*
Y4400000D03*
X2395000Y4335000D03*
Y4435000D03*
X1990000Y4960000D03*
Y5110000D03*
X2385000Y4985000D03*
X2410000Y4698420D03*
Y4622220D03*
X2030000Y5450000D03*
Y5620000D03*
X2375000Y5535000D03*
X2395000Y6145000D03*
X2240000Y6540000D03*
Y6690000D03*
X2440000Y6924190D03*
X2110000Y6920000D03*
X2420000Y7300000D03*
X1910000Y8230000D03*
X2070000Y8540000D03*
X1910700Y8680000D03*
X2040700Y8630000D03*
X2160700Y8580000D03*
X2290700Y8530000D03*
X2360000Y8930000D03*
X2230000D03*
X2456700Y1698690D03*
Y2206690D03*
Y1952690D03*
Y2460690D03*
X2470000Y3370000D03*
Y3220000D03*
X2660000Y3020000D03*
X2580000D03*
X2880000Y3760000D03*
X2930000Y3710000D03*
X2580000Y3790000D03*
X2735000Y4280000D03*
X2935000Y4290000D03*
X2610000Y5080000D03*
X2660000Y4770000D03*
X2610000Y4935000D03*
Y5230000D03*
Y5340000D03*
X2850000Y5370000D03*
X2920000Y5620000D03*
X2850000Y5635000D03*
X2450000Y5550000D03*
X2950000Y5380000D03*
X2560000Y6140000D03*
X2710000D03*
X2510000Y5690000D03*
X2930000Y6140000D03*
X2485000Y6145000D03*
X2560000Y5740000D03*
X2940000Y6530000D03*
Y6670000D03*
X2890000Y6620000D03*
X2840000Y6920000D03*
X2480000Y7650000D03*
Y7780000D03*
X2550000Y7360000D03*
X2670000Y7430000D03*
X2730000Y7490000D03*
X2830000Y7550000D03*
X2480000Y7900000D03*
X2920000Y8000000D03*
X2780000D03*
X2980000Y8930000D03*
X2490000Y8940000D03*
X3310000Y3370000D03*
Y3220000D03*
X3060000Y3370000D03*
Y3220000D03*
X3075000Y3465000D03*
X3470000Y3750000D03*
X3335000Y3920000D03*
X3320000Y4490000D03*
X3070000D03*
X3035000Y4285000D03*
X3230000Y4280000D03*
X3520000Y4960000D03*
Y4810000D03*
X3320000Y4640000D03*
Y4960000D03*
Y4810000D03*
X3070000Y4640000D03*
Y4960000D03*
Y4810000D03*
X3000000Y5620000D03*
X3320500Y5480570D03*
X3280000Y5435000D03*
X3180000Y5380000D03*
X3470000Y5480000D03*
X3370000Y5550000D03*
X3030000Y5380000D03*
X3109740Y5380250D03*
X3010000Y6140000D03*
X3435000Y6145000D03*
X3420000Y5985000D03*
X3520000Y5885000D03*
X3430000Y6520000D03*
X3500000Y6570000D03*
X3040000Y6700000D03*
X3000000Y6620000D03*
X3180000Y7280000D03*
X3110000Y7620000D03*
Y7730000D03*
Y7830000D03*
X3100000Y7390000D03*
X3320000Y7815720D03*
Y7750000D03*
Y8000000D03*
X3420000D03*
X3160000D03*
X3085000D03*
X3000000D03*
X3320000Y7880000D03*
X3100000Y8930000D03*
X3430000Y8960000D03*
X3830000Y1090000D03*
X3930000D03*
Y2200000D03*
X3940000Y2450000D03*
Y2590000D03*
X3640000Y2770000D03*
X3960000Y3320000D03*
X4050000D03*
X3530000Y3870000D03*
X3960000Y3610000D03*
X3785000Y3630000D03*
X4040000Y3900000D03*
X3835000Y3584280D03*
X3770000Y4380000D03*
X3535000Y4285000D03*
X3720000Y4280000D03*
X3960000Y4690000D03*
X3941400Y4785000D03*
X3987120Y4835000D03*
X4032840Y4885000D03*
X3850000Y4740000D03*
X3530000Y5300000D03*
Y5150000D03*
X3790000Y5430000D03*
X3970000Y5660000D03*
X3670000Y5680000D03*
X3720000Y5640000D03*
X3840000Y6140000D03*
X3990000D03*
X3920000D03*
X3570000Y5835000D03*
X3621440Y5785000D03*
X4010000Y6730000D03*
X3560000Y6600000D03*
X3620000Y6660000D03*
X3690000Y6740000D03*
X3985000Y6495000D03*
X3800000Y6810000D03*
X3880000D03*
X3800000Y8000000D03*
X3880000D03*
X3960000D03*
X4040000D03*
X3640000D03*
X3560000D03*
X3720000D03*
X3960000Y8670000D03*
X3690000D03*
X3960000Y8520000D03*
X3690000Y8510000D03*
X4319040Y1860000D03*
X4250000Y1740000D03*
X4380000Y2450000D03*
Y2590000D03*
X4565500Y2894500D03*
X4570000Y2830000D03*
X4180000Y3900000D03*
X4320000Y3760000D03*
X4250000D03*
X4580000Y4490000D03*
X4205000Y4485000D03*
X4145000Y4535000D03*
X4565000Y4585000D03*
X4580000Y4890000D03*
Y4970000D03*
Y5040000D03*
X4190000Y4620000D03*
Y4700000D03*
X4235000Y5135000D03*
X4078560Y4935000D03*
X4124280Y4985000D03*
X4170000Y5035000D03*
X4230000Y5450000D03*
X4590000Y5840000D03*
X4150000Y6050000D03*
X4230000Y5790000D03*
X4085000Y6145000D03*
X4600000Y5990000D03*
X4230000Y6020000D03*
Y5870000D03*
Y5940000D03*
X4300000Y6410000D03*
X4210000Y6490000D03*
X4320000Y6280000D03*
X4549990Y6269990D03*
X4370000Y7050000D03*
Y7210000D03*
X4229990Y7059990D03*
X4490000Y6910000D03*
X4170000Y7680000D03*
X4370000Y7360000D03*
X4170000Y7815720D03*
Y7750000D03*
X4120000Y8000000D03*
X4170000Y7880000D03*
X4620000Y3520000D03*
X4680000Y3720000D03*
Y3900000D03*
X4990000Y4560000D03*
Y4480000D03*
Y4400000D03*
X4680000Y4080000D03*
X4640000Y4590000D03*
X4900000Y4680000D03*
X4890000Y5540000D03*
X4980000Y5360000D03*
Y5270000D03*
X5010000Y5450000D03*
X4700000Y7050000D03*
Y7600000D03*
X4703800Y8313800D03*
Y8053800D03*
X4760000Y8650000D03*
X4920000Y8820000D03*
X4760000D03*
X5441420Y821210D03*
X5187420D03*
X5441420Y567210D03*
X5187420D03*
X5441420Y1329210D03*
X5187420D03*
X5441420Y1075210D03*
X5187420D03*
X5430000Y5720000D03*
X7271730Y6032500D03*
G54D20*
G01X505700Y270200D02*
G03I-160000J0D01*
G01X278400Y3630000D02*
G03I-28400J0D01*
G01Y4430000D02*
G03I-28400J0D01*
G01X720700Y1628200D02*
G03I-160000J0D01*
G01X2615000Y1600000D02*
G03I-75000J0D01*
G01X3365000D02*
G03I-75000J0D01*
G01X5369700Y270200D02*
G03I-160000J0D01*
G01X5178700Y1628200D02*
G03I-160000J0D01*
G54D11*
X270000Y5100000D03*
Y5550000D03*
Y6135000D03*
Y6335000D03*
Y6535000D03*
X670000Y2540000D03*
X520000Y4975000D03*
Y5675000D03*
X764700Y9337200D03*
Y9083200D03*
X1320000Y2540000D03*
X1272700Y9337200D03*
Y9083200D03*
X1018700Y9337200D03*
Y9083200D03*
X1780700Y9337200D03*
Y9083200D03*
X1526700Y9337200D03*
Y9083200D03*
X2288700Y9337200D03*
Y9083200D03*
X2034700Y9337200D03*
Y9083200D03*
X3050700Y9337200D03*
Y9083200D03*
X2796700Y9337200D03*
Y9083200D03*
X2542700Y9337200D03*
Y9083200D03*
X3558700Y9337200D03*
Y9083200D03*
X3304700Y9337200D03*
Y9083200D03*
X4066700Y9337200D03*
Y9083200D03*
X3812700Y9337200D03*
Y9083200D03*
X4574700Y9337200D03*
Y9083200D03*
X4320700Y9337200D03*
Y9083200D03*
X5090000Y2075000D03*
Y3045000D03*
Y2775000D03*
Y3745000D03*
Y4015000D03*
Y4715000D03*
Y4985000D03*
Y5685000D03*
X4828700Y9337200D03*
Y9083200D03*
X5340000Y2200000D03*
Y2650000D03*
Y3170000D03*
Y3620000D03*
Y4140000D03*
Y4590000D03*
Y5110000D03*
Y5560000D03*
X7271730Y2857500D03*
Y4762500D03*
G54D21*
G01X6000Y0D02*
X-944000D01*
G01X-1229370Y4518280D02*
X-1201810Y4491830D01*
X-1170320Y4481250D01*
X-1138820Y4491830D01*
X-1111260Y4523570D01*
X-1091570Y4571210D01*
X-1083700Y4618830D01*
Y4677040D01*
X-1091570Y4724660D01*
X-1111260Y4767000D01*
X-1134880Y4788170D01*
X-1162440Y4798750D01*
X-1193940Y4788170D01*
X-1217560Y4767000D01*
X-1233310Y4735250D01*
X-1241180Y4692910D01*
X-1233310Y4655880D01*
X-1213620Y4618830D01*
X-1190000Y4597660D01*
X-1162440Y4592370D01*
X-1130950Y4602950D01*
X-1107320Y4629410D01*
X-1083700Y4677040D01*
G01X-922290Y4613530D02*
X-894720Y4650590D01*
X-871100Y4671750D01*
X-839600Y4682330D01*
X-812040Y4671750D01*
X-792360Y4650590D01*
X-776610Y4618830D01*
X-772670Y4581790D01*
X-776610Y4550040D01*
X-792360Y4518280D01*
X-815990Y4491830D01*
X-843540Y4481250D01*
X-875040Y4491830D01*
X-902600Y4523570D01*
X-918350Y4571210D01*
X-922290Y4624120D01*
X-914410Y4692910D01*
X-902600Y4729960D01*
X-882920Y4767000D01*
X-855360Y4793460D01*
X-827800Y4798750D01*
X-800240Y4788170D01*
X-780550Y4761710D01*
G01X-532520Y4470670D02*
X-540400Y4475960D01*
Y4486540D01*
X-532520Y4491830D01*
X-524640Y4486540D01*
Y4475960D01*
X-532520Y4470670D01*
G01X-170320Y4481250D02*
Y4798750D01*
X-315990Y4571210D01*
X-119130D01*
G01X216000Y9640000D02*
X-944000D01*
G01X-690000Y4243130D02*
Y0D01*
G01X-753500Y381000D02*
X-690000Y0D01*
X-626500Y381000D01*
X-753500D01*
G01X-690000Y5036870D02*
Y9640000D01*
G01X-626500Y9259000D02*
X-690000Y9640000D01*
X-753500Y9259000D01*
X-626500D01*
G01X0Y-34000D02*
Y-474000D01*
G01X1931330Y-220000D02*
X0D01*
G01X381000Y-156500D02*
X0Y-220000D01*
X381000Y-283500D01*
Y-156500D01*
G01X2200950Y-331140D02*
X2224560Y-357590D01*
X2252120Y-373460D01*
X2287560Y-378750D01*
X2323000Y-368170D01*
X2350550Y-347010D01*
X2370240Y-309960D01*
X2374170Y-267630D01*
X2366300Y-225300D01*
X2346610Y-198830D01*
X2319050Y-177670D01*
X2291500Y-172380D01*
X2263940Y-177670D01*
X2228510Y-198830D01*
X2240320Y-61250D01*
X2346610D01*
G01X2515910Y-331140D02*
X2539520Y-357590D01*
X2567080Y-373460D01*
X2602520Y-378750D01*
X2637960Y-368170D01*
X2665510Y-347010D01*
X2685200Y-309960D01*
X2689130Y-267630D01*
X2681260Y-225300D01*
X2661570Y-198830D01*
X2634010Y-177670D01*
X2606460Y-172380D01*
X2578900Y-177670D01*
X2543470Y-198830D01*
X2555280Y-61250D01*
X2661570D01*
G01X2917480Y-389330D02*
X2909600Y-384040D01*
Y-373460D01*
X2917480Y-368170D01*
X2925360Y-373460D01*
Y-384040D01*
X2917480Y-389330D01*
G01X3165510Y-341720D02*
X3193070Y-368170D01*
X3224560Y-378750D01*
X3256060Y-368170D01*
X3283620Y-336430D01*
X3303310Y-288790D01*
X3311180Y-241170D01*
Y-182960D01*
X3303310Y-135340D01*
X3283620Y-93000D01*
X3260000Y-71830D01*
X3232440Y-61250D01*
X3200940Y-71830D01*
X3177320Y-93000D01*
X3161570Y-124750D01*
X3153700Y-167090D01*
X3161570Y-204120D01*
X3181260Y-241170D01*
X3204880Y-262340D01*
X3232440Y-267630D01*
X3263930Y-257050D01*
X3287560Y-230590D01*
X3311180Y-182960D01*
G01X3588670Y-220000D02*
X5590000D01*
G01Y-34000D02*
Y-474000D01*
G01X5209000Y-283500D02*
X5590000Y-220000D01*
X5209000Y-156500D01*
Y-283500D01*
G01X6130000Y0D02*
Y8270000D01*
X18413440D01*
Y0D01*
X6130000D01*
G01Y635000D02*
X18413440D01*
G01X6130000Y1270000D02*
X18413440D01*
G01X6130000Y1905000D02*
X18413440D01*
G01X6130000Y2540000D02*
X18413440D01*
G01X6130000Y3175000D02*
X18413440D01*
G01X6130000Y3810000D02*
X18413440D01*
G01X6130000Y4445000D02*
X18413440D01*
G01X6130000Y5080000D02*
X18413440D01*
G01X6130000Y5715000D02*
X18413440D01*
G01X6130000Y6350000D02*
X18413440D01*
G01X6130000Y6985000D02*
X18413440D01*
G01X6130000Y7620000D02*
X18413440D01*
G01X6409520Y6508750D02*
Y6826250D01*
X6559140D01*
G01X6504010Y6672800D02*
X6409520D01*
G01X6752050Y6826250D02*
X6846530D01*
G01X6799290D02*
Y6508750D01*
G01X6752050D02*
X6846530D01*
G01X7137870Y6667500D02*
X7216620D01*
Y6572250D01*
X7192990Y6540490D01*
X7165430Y6519330D01*
X7126060Y6508750D01*
X7086690Y6519330D01*
X7059130Y6540490D01*
X7035510Y6572250D01*
X7019760Y6609290D01*
X7011880Y6651620D01*
Y6688670D01*
X7019760Y6720410D01*
X7035510Y6757460D01*
X7059130Y6789210D01*
X7082750Y6810370D01*
X7114250Y6826250D01*
X7141810D01*
X7173300Y6815670D01*
X7196930Y6794500D01*
G01X7342600Y6826250D02*
Y6598710D01*
X7358340Y6551070D01*
X7389840Y6519330D01*
X7429210Y6508750D01*
X7468580Y6519330D01*
X7500080Y6551070D01*
X7515820Y6598710D01*
Y6826250D01*
G01X7665430Y6508750D02*
Y6826250D01*
X7763850D01*
X7795350Y6810370D01*
X7815040Y6789210D01*
X7822910Y6746870D01*
X7815040Y6704540D01*
X7791410Y6678090D01*
X7763850Y6662200D01*
X7665430D01*
G01X7763850D02*
X7822910Y6508750D01*
G01X8137870D02*
X7980390D01*
Y6826250D01*
X8137870D01*
G01X8074880Y6672800D02*
X7980390D01*
G01X7921330Y7143750D02*
X8019760Y7461250D01*
X8118190Y7143750D01*
G01X8082750Y7254870D02*
X7956760D01*
G01X8255980Y7461250D02*
Y7143750D01*
X8413460D01*
G01X8570940Y7461250D02*
Y7143750D01*
X8728420D01*
G01X9192990Y7461250D02*
Y7233710D01*
X9208730Y7186070D01*
X9240230Y7154330D01*
X9279600Y7143750D01*
X9318970Y7154330D01*
X9350470Y7186070D01*
X9366210Y7233710D01*
Y7461250D01*
G01X9504010Y7143750D02*
Y7461250D01*
X9685110Y7143750D01*
Y7461250D01*
G01X9862280D02*
X9956760D01*
G01X9909520D02*
Y7143750D01*
G01X9862280D02*
X9956760D01*
G01X10224480Y7461250D02*
Y7143750D01*
G01X10133930Y7461250D02*
X10315030D01*
G01X10456760Y7186070D02*
X10488260Y7159620D01*
X10523690Y7143750D01*
X10555190D01*
X10586680Y7159620D01*
X10610310Y7186070D01*
X10622120Y7223130D01*
X10614250Y7260160D01*
X10594560Y7291910D01*
X10559120Y7313090D01*
X10511880Y7323670D01*
X10484320Y7344830D01*
X10472510Y7381870D01*
X10480390Y7418920D01*
X10500070Y7445370D01*
X10527630Y7461250D01*
X10555190D01*
X10582750Y7450670D01*
X10606370Y7424210D01*
G01X11070930Y7143750D02*
X11169360Y7461250D01*
X11267790Y7143750D01*
G01X11232350Y7254870D02*
X11106360D01*
G01X11405580Y7143750D02*
Y7461250D01*
X11504000D01*
X11535500Y7445370D01*
X11555190Y7424210D01*
X11563060Y7381870D01*
X11555190Y7339540D01*
X11531560Y7313090D01*
X11504000Y7297200D01*
X11405580D01*
G01X11504000D02*
X11563060Y7143750D01*
G01X11878020D02*
X11720540D01*
Y7461250D01*
X11878020D01*
G01X11815030Y7307800D02*
X11720540D01*
G01X12381960Y7461250D02*
X12476440D01*
G01X12429200D02*
Y7143750D01*
G01X12381960D02*
X12476440D01*
G01X12653610D02*
Y7461250D01*
X12834710Y7143750D01*
Y7461250D01*
G01X13271710Y7143750D02*
Y7461250D01*
X13374080Y7196670D01*
X13476450Y7461250D01*
Y7143750D01*
G01X13641800Y7461250D02*
X13736280D01*
G01X13689040D02*
Y7143750D01*
G01X13641800D02*
X13736280D01*
G01X13925260Y7461250D02*
Y7143750D01*
X14082740D01*
G01X14240220Y7461250D02*
Y7143750D01*
X14397700D01*
G01X14586680Y7461250D02*
X14681160D01*
G01X14633920D02*
Y7143750D01*
G01X14586680D02*
X14681160D01*
G01X14846510D02*
Y7461250D01*
X14948880Y7196670D01*
X15051250Y7461250D01*
Y7143750D01*
G01X15342580D02*
X15185100D01*
Y7461250D01*
X15342580D01*
G01X15279590Y7307800D02*
X15185100D01*
G01X15578800Y7461250D02*
Y7143750D01*
G01X15488250Y7461250D02*
X15669350D01*
G01X15972500Y7143750D02*
X15815020D01*
Y7461250D01*
X15972500D01*
G01X15909510Y7307800D02*
X15815020D01*
G01X16129980Y7143750D02*
Y7461250D01*
X16228400D01*
X16259900Y7445370D01*
X16279590Y7424210D01*
X16287460Y7381870D01*
X16279590Y7339540D01*
X16255960Y7313090D01*
X16228400Y7297200D01*
X16129980D01*
G01X16228400D02*
X16287460Y7143750D01*
G01X16441000Y7186070D02*
X16472500Y7159620D01*
X16507930Y7143750D01*
X16539430D01*
X16570920Y7159620D01*
X16594550Y7186070D01*
X16606360Y7223130D01*
X16598490Y7260160D01*
X16578800Y7291910D01*
X16543360Y7313090D01*
X16496120Y7323670D01*
X16468560Y7344830D01*
X16456750Y7381870D01*
X16464630Y7418920D01*
X16484310Y7445370D01*
X16511870Y7461250D01*
X16539430D01*
X16566990Y7450670D01*
X16590610Y7424210D01*
G01X8248110Y7793750D02*
Y8111250D01*
X8326840D01*
X8358340Y8095370D01*
X8381960Y8074210D01*
X8401650Y8042460D01*
X8417400Y8005410D01*
X8421330Y7952500D01*
X8417400Y7899580D01*
X8401650Y7862540D01*
X8381960Y7830780D01*
X8358340Y7809620D01*
X8326840Y7793750D01*
X8248110D01*
G01X8570940D02*
Y8111250D01*
X8669360D01*
X8700860Y8095370D01*
X8720550Y8074210D01*
X8728420Y8031870D01*
X8720550Y7989540D01*
X8696920Y7963090D01*
X8669360Y7947200D01*
X8570940D01*
G01X8669360D02*
X8728420Y7793750D01*
G01X8917400Y8111250D02*
X9011880D01*
G01X8964640D02*
Y7793750D01*
G01X8917400D02*
X9011880D01*
G01X9200860Y8111250D02*
Y7793750D01*
X9358340D01*
G01X9515820Y8111250D02*
Y7793750D01*
X9673300D01*
G01X10311090Y8084790D02*
X10287470Y8100670D01*
X10259920Y8111250D01*
X10228420D01*
X10192980Y8095370D01*
X10165430Y8068920D01*
X10145740Y8037160D01*
X10129990Y7984250D01*
X10126050Y7936620D01*
X10133930Y7889000D01*
X10145740Y7857250D01*
X10169360Y7825490D01*
X10196920Y7804330D01*
X10224480Y7793750D01*
X10252040D01*
X10279600Y7804330D01*
X10303220Y7820200D01*
X10322910Y7841360D01*
G01X10456760Y7793750D02*
Y8111250D01*
G01X10622120D02*
Y7793750D01*
G01Y7952500D02*
X10456760D01*
G01X10755970Y7793750D02*
X10854400Y8111250D01*
X10952830Y7793750D01*
G01X10917390Y7904870D02*
X10791400D01*
G01X11090620Y7793750D02*
Y8111250D01*
X11189040D01*
X11220540Y8095370D01*
X11240230Y8074210D01*
X11248100Y8031870D01*
X11240230Y7989540D01*
X11216600Y7963090D01*
X11189040Y7947200D01*
X11090620D01*
G01X11189040D02*
X11248100Y7793750D01*
G01X11484320Y8111250D02*
Y7793750D01*
G01X11393770Y8111250D02*
X11574870D01*
G01X11799280Y7783170D02*
X11791400Y7788460D01*
Y7799040D01*
X11799280Y7804330D01*
X11807160Y7799040D01*
Y7788460D01*
X11799280Y7783170D01*
G01Y7926030D02*
X11791400Y7931330D01*
Y7941910D01*
X11799280Y7947200D01*
X11807160Y7941910D01*
Y7931330D01*
X11799280Y7926030D01*
G01X12429200Y8111250D02*
Y7793750D01*
G01X12338650Y8111250D02*
X12519750D01*
G01X12744160Y7793750D02*
X12712660Y7799040D01*
X12685110Y7820200D01*
X12661480Y7851960D01*
X12645730Y7889000D01*
X12637860Y7931330D01*
Y7973670D01*
X12645730Y8016000D01*
X12661480Y8053040D01*
X12685110Y8084790D01*
X12712660Y8105960D01*
X12744160Y8111250D01*
X12775650Y8105960D01*
X12803210Y8084790D01*
X12826840Y8053040D01*
X12842590Y8016000D01*
X12850460Y7973670D01*
Y7931330D01*
X12842590Y7889000D01*
X12826840Y7851960D01*
X12803210Y7820200D01*
X12775650Y7799040D01*
X12744160Y7793750D01*
G01X12980380D02*
Y8111250D01*
X13074870D01*
X13106360Y8095370D01*
X13129990Y8058330D01*
X13137860Y8016000D01*
X13129990Y7973670D01*
X13110300Y7941910D01*
X13074870Y7926030D01*
X12980380D01*
G01X13689040Y8111250D02*
Y7793750D01*
G01X13633920Y8005410D02*
X13744160D01*
G01X14004000Y7793750D02*
X13980380Y7799040D01*
X13956760Y7820200D01*
X13941000Y7857250D01*
X13933130Y7899580D01*
X13941000Y7941910D01*
X13956760Y7978960D01*
X13980380Y8000120D01*
X14004000Y8005410D01*
X14027620Y8000120D01*
X14051240Y7978960D01*
X14066990Y7941910D01*
X14070930Y7899580D01*
X14066990Y7857250D01*
X14051240Y7820200D01*
X14027620Y7799040D01*
X14004000Y7793750D01*
G01X14665410Y7963090D02*
X14681160Y7978960D01*
X14692970Y8005410D01*
X14700850Y8042460D01*
X14692970Y8074210D01*
X14677230Y8095370D01*
X14649670Y8111250D01*
X14543370D01*
Y7793750D01*
X14673290D01*
X14700850Y7814910D01*
X14716600Y7846670D01*
X14724470Y7883710D01*
X14716600Y7920740D01*
X14692970Y7952500D01*
X14665410Y7963090D01*
X14543370D01*
G01X14948880Y7793750D02*
X14917380Y7799040D01*
X14889830Y7820200D01*
X14866200Y7851960D01*
X14850450Y7889000D01*
X14842580Y7931330D01*
Y7973670D01*
X14850450Y8016000D01*
X14866200Y8053040D01*
X14889830Y8084790D01*
X14917380Y8105960D01*
X14948880Y8111250D01*
X14980370Y8105960D01*
X15007930Y8084790D01*
X15031560Y8053040D01*
X15047310Y8016000D01*
X15055180Y7973670D01*
Y7931330D01*
X15047310Y7889000D01*
X15031560Y7851960D01*
X15007930Y7820200D01*
X14980370Y7799040D01*
X14948880Y7793750D01*
G01X15263840Y8111250D02*
Y7793750D01*
G01X15173290Y8111250D02*
X15354390D01*
G01X15578800D02*
Y7793750D01*
G01X15488250Y8111250D02*
X15669350D01*
G01X15893760Y7793750D02*
X15862260Y7799040D01*
X15834710Y7820200D01*
X15811080Y7851960D01*
X15795330Y7889000D01*
X15787460Y7931330D01*
Y7973670D01*
X15795330Y8016000D01*
X15811080Y8053040D01*
X15834710Y8084790D01*
X15862260Y8105960D01*
X15893760Y8111250D01*
X15925250Y8105960D01*
X15952810Y8084790D01*
X15976440Y8053040D01*
X15992190Y8016000D01*
X16000060Y7973670D01*
Y7931330D01*
X15992190Y7889000D01*
X15976440Y7851960D01*
X15952810Y7820200D01*
X15925250Y7799040D01*
X15893760Y7793750D01*
G01X16106350D02*
Y8111250D01*
X16208720Y7846670D01*
X16311090Y8111250D01*
Y7793750D01*
G01X8413460Y6985000D02*
Y0D01*
G01X9783540Y222250D02*
X9807150Y185200D01*
X9838650Y164040D01*
X9874090Y158750D01*
X9905590Y164040D01*
X9937080Y190490D01*
X9956760Y222250D01*
X9960700Y254000D01*
X9952830Y291030D01*
X9925270Y317500D01*
X9897710Y328090D01*
X9862270D01*
G01X9897710D02*
X9921330Y343960D01*
X9941020Y370410D01*
X9948890Y402160D01*
X9941020Y433920D01*
X9921330Y460370D01*
X9885900Y476250D01*
X9850470Y470960D01*
X9815030Y449790D01*
G01X10185110Y148170D02*
X10177230Y153460D01*
Y164040D01*
X10185110Y169330D01*
X10192990Y164040D01*
Y153460D01*
X10185110Y148170D01*
G01X10500070Y476250D02*
X10468570Y465670D01*
X10444950Y439210D01*
X10429200Y407460D01*
X10417390Y365120D01*
X10413460Y317500D01*
X10417390Y269870D01*
X10429200Y227540D01*
X10444950Y195780D01*
X10468570Y169330D01*
X10500070Y158750D01*
X10531560Y169330D01*
X10555190Y195780D01*
X10570940Y227540D01*
X10582750Y269870D01*
X10586680Y317500D01*
X10582750Y365120D01*
X10570940Y407460D01*
X10555190Y439210D01*
X10531560Y465670D01*
X10500070Y476250D01*
G01X10755980Y370410D02*
X10874080Y158750D01*
G01Y370410D02*
X10755980Y158750D01*
G01X11129990D02*
Y476250D01*
X11082750Y412750D01*
G01Y158750D02*
X11177230D01*
G01X11444950Y148170D02*
X11437070Y153460D01*
Y164040D01*
X11444950Y169330D01*
X11452830Y164040D01*
Y153460D01*
X11444950Y148170D01*
G01X11759910Y476250D02*
X11728410Y465670D01*
X11704790Y439210D01*
X11689040Y407460D01*
X11677230Y365120D01*
X11673300Y317500D01*
X11677230Y269870D01*
X11689040Y227540D01*
X11704790Y195780D01*
X11728410Y169330D01*
X11759910Y158750D01*
X11791400Y169330D01*
X11815030Y195780D01*
X11830780Y227540D01*
X11842590Y269870D01*
X11846520Y317500D01*
X11842590Y365120D01*
X11830780Y407460D01*
X11815030Y439210D01*
X11791400Y465670D01*
X11759910Y476250D01*
G01X9783540Y857250D02*
X9807150Y820200D01*
X9838650Y799040D01*
X9874090Y793750D01*
X9905590Y799040D01*
X9937080Y825490D01*
X9956760Y857250D01*
X9960700Y889000D01*
X9952830Y926030D01*
X9925270Y952500D01*
X9897710Y963090D01*
X9862270D01*
G01X9897710D02*
X9921330Y978960D01*
X9941020Y1005410D01*
X9948890Y1037160D01*
X9941020Y1068920D01*
X9921330Y1095370D01*
X9885900Y1111250D01*
X9850470Y1105960D01*
X9815030Y1084790D01*
G01X10185110Y783170D02*
X10177230Y788460D01*
Y799040D01*
X10185110Y804330D01*
X10192990Y799040D01*
Y788460D01*
X10185110Y783170D01*
G01X10500070Y1111250D02*
X10468570Y1100670D01*
X10444950Y1074210D01*
X10429200Y1042460D01*
X10417390Y1000120D01*
X10413460Y952500D01*
X10417390Y904870D01*
X10429200Y862540D01*
X10444950Y830780D01*
X10468570Y804330D01*
X10500070Y793750D01*
X10531560Y804330D01*
X10555190Y830780D01*
X10570940Y862540D01*
X10582750Y904870D01*
X10586680Y952500D01*
X10582750Y1000120D01*
X10570940Y1042460D01*
X10555190Y1074210D01*
X10531560Y1100670D01*
X10500070Y1111250D01*
G01X10755980Y1005410D02*
X10874080Y793750D01*
G01Y1005410D02*
X10755980Y793750D01*
G01X11129990D02*
Y1111250D01*
X11082750Y1047750D01*
G01Y793750D02*
X11177230D01*
G01X11444950Y783170D02*
X11437070Y788460D01*
Y799040D01*
X11444950Y804330D01*
X11452830Y799040D01*
Y788460D01*
X11444950Y783170D01*
G01X11759910Y1111250D02*
X11728410Y1100670D01*
X11704790Y1074210D01*
X11689040Y1042460D01*
X11677230Y1000120D01*
X11673300Y952500D01*
X11677230Y904870D01*
X11689040Y862540D01*
X11704790Y830780D01*
X11728410Y804330D01*
X11759910Y793750D01*
X11791400Y804330D01*
X11815030Y830780D01*
X11830780Y862540D01*
X11842590Y904870D01*
X11846520Y952500D01*
X11842590Y1000120D01*
X11830780Y1042460D01*
X11815030Y1074210D01*
X11791400Y1100670D01*
X11759910Y1111250D01*
G01X9795340Y1693330D02*
X9818970Y1725080D01*
X9846530Y1740960D01*
X9878030Y1746250D01*
X9917390Y1735670D01*
X9944960Y1709210D01*
X9952830Y1677460D01*
X9948890Y1645700D01*
X9933140Y1619250D01*
X9854400Y1566330D01*
X9818970Y1529290D01*
X9795340Y1476360D01*
X9787470Y1428750D01*
X9952830D01*
G01X10185110Y1418170D02*
X10177230Y1423460D01*
Y1434040D01*
X10185110Y1439330D01*
X10192990Y1434040D01*
Y1423460D01*
X10185110Y1418170D01*
G01X10547310Y1428750D02*
Y1746250D01*
X10401640Y1518710D01*
X10598500D01*
G01X10755980Y1640410D02*
X10874080Y1428750D01*
G01Y1640410D02*
X10755980Y1428750D01*
G01X11129990Y1746250D02*
X11098490Y1735670D01*
X11074870Y1709210D01*
X11059120Y1677460D01*
X11047310Y1635120D01*
X11043380Y1587500D01*
X11047310Y1539870D01*
X11059120Y1497540D01*
X11074870Y1465780D01*
X11098490Y1439330D01*
X11129990Y1428750D01*
X11161480Y1439330D01*
X11185110Y1465780D01*
X11200860Y1497540D01*
X11212670Y1539870D01*
X11216600Y1587500D01*
X11212670Y1635120D01*
X11200860Y1677460D01*
X11185110Y1709210D01*
X11161480Y1735670D01*
X11129990Y1746250D01*
G01X11444950Y1418170D02*
X11437070Y1423460D01*
Y1434040D01*
X11444950Y1439330D01*
X11452830Y1434040D01*
Y1423460D01*
X11444950Y1418170D01*
G01X11759910Y1428750D02*
X11787470Y1434040D01*
X11818960Y1449910D01*
X11838650Y1476360D01*
X11846520Y1513420D01*
X11838650Y1550450D01*
X11815030Y1582200D01*
X11779590Y1598090D01*
X11740230D01*
X11716600Y1608670D01*
X11696910Y1635120D01*
X11689040Y1672160D01*
X11700860Y1709210D01*
X11728410Y1735670D01*
X11759910Y1746250D01*
X11791400Y1735670D01*
X11818960Y1709210D01*
X11830780Y1672160D01*
X11822900Y1635120D01*
X11803220Y1608670D01*
X11779590Y1598090D01*
X11740230D01*
X11704790Y1582200D01*
X11681170Y1550450D01*
X11673300Y1513420D01*
X11681170Y1476360D01*
X11700860Y1449910D01*
X11732350Y1434040D01*
X11759910Y1428750D01*
G01X9941020Y2127250D02*
X9964630Y2090200D01*
X9996130Y2069040D01*
X10031570Y2063750D01*
X10063070Y2069040D01*
X10094560Y2095490D01*
X10114240Y2127250D01*
X10118180Y2159000D01*
X10110310Y2196030D01*
X10082750Y2222500D01*
X10055190Y2233090D01*
X10019750D01*
G01X10055190D02*
X10078810Y2248960D01*
X10098500Y2275410D01*
X10106370Y2307160D01*
X10098500Y2338920D01*
X10078810Y2365370D01*
X10043380Y2381250D01*
X10007950Y2375960D01*
X9972510Y2354790D01*
G01X10342590Y2053170D02*
X10334710Y2058460D01*
Y2069040D01*
X10342590Y2074330D01*
X10350470Y2069040D01*
Y2058460D01*
X10342590Y2053170D01*
G01X10704790Y2063750D02*
Y2381250D01*
X10559120Y2153710D01*
X10755980D01*
G01X10972510Y2381250D02*
X10941010Y2370670D01*
X10917390Y2344210D01*
X10901640Y2312460D01*
X10889830Y2270120D01*
X10885900Y2222500D01*
X10889830Y2174870D01*
X10901640Y2132540D01*
X10917390Y2100780D01*
X10941010Y2074330D01*
X10972510Y2063750D01*
X11004000Y2074330D01*
X11027630Y2100780D01*
X11043380Y2132540D01*
X11055190Y2174870D01*
X11059120Y2222500D01*
X11055190Y2270120D01*
X11043380Y2312460D01*
X11027630Y2344210D01*
X11004000Y2370670D01*
X10972510Y2381250D01*
G01X11200860Y2127250D02*
X11224470Y2090200D01*
X11255970Y2069040D01*
X11291410Y2063750D01*
X11322910Y2069040D01*
X11354400Y2095490D01*
X11374080Y2127250D01*
X11378020Y2159000D01*
X11370150Y2196030D01*
X11342590Y2222500D01*
X11315030Y2233090D01*
X11279590D01*
G01X11315030D02*
X11338650Y2248960D01*
X11358340Y2275410D01*
X11366210Y2307160D01*
X11358340Y2338920D01*
X11338650Y2365370D01*
X11303220Y2381250D01*
X11267790Y2375960D01*
X11232350Y2354790D01*
G01X11527620Y2196030D02*
X11555190Y2233090D01*
X11578810Y2254250D01*
X11610310Y2264830D01*
X11637870Y2254250D01*
X11657550Y2233090D01*
X11673300Y2201330D01*
X11677240Y2164290D01*
X11673300Y2132540D01*
X11657550Y2100780D01*
X11633920Y2074330D01*
X11606370Y2063750D01*
X11574870Y2074330D01*
X11547310Y2106070D01*
X11531560Y2153710D01*
X11527620Y2206620D01*
X11535500Y2275410D01*
X11547310Y2312460D01*
X11566990Y2349500D01*
X11594550Y2375960D01*
X11622110Y2381250D01*
X11649670Y2370670D01*
X11669360Y2344210D01*
G01X10027630Y5556250D02*
X9996130Y5545670D01*
X9972510Y5519210D01*
X9956760Y5487460D01*
X9944950Y5445120D01*
X9941020Y5397500D01*
X9944950Y5349870D01*
X9956760Y5307540D01*
X9972510Y5275780D01*
X9996130Y5249330D01*
X10027630Y5238750D01*
X10059120Y5249330D01*
X10082750Y5275780D01*
X10098500Y5307540D01*
X10110310Y5349870D01*
X10114240Y5397500D01*
X10110310Y5445120D01*
X10098500Y5487460D01*
X10082750Y5519210D01*
X10059120Y5545670D01*
X10027630Y5556250D01*
G01X10342590Y5228170D02*
X10334710Y5233460D01*
Y5244040D01*
X10342590Y5249330D01*
X10350470Y5244040D01*
Y5233460D01*
X10342590Y5228170D01*
G01X10704790Y5238750D02*
Y5556250D01*
X10559120Y5328710D01*
X10755980D01*
G01X10885900Y5286360D02*
X10909510Y5259910D01*
X10937070Y5244040D01*
X10972510Y5238750D01*
X11007950Y5249330D01*
X11035500Y5270490D01*
X11055190Y5307540D01*
X11059120Y5349870D01*
X11051250Y5392200D01*
X11031560Y5418670D01*
X11004000Y5439830D01*
X10976450Y5445120D01*
X10948890Y5439830D01*
X10913460Y5418670D01*
X10925270Y5556250D01*
X11031560D01*
G01X11279590Y5238750D02*
X11287470Y5307540D01*
X11299280Y5365740D01*
X11315030Y5418670D01*
X11334710Y5476870D01*
X11366210Y5556250D01*
X11208730D01*
G01X11527620Y5503330D02*
X11551250Y5535080D01*
X11578810Y5550960D01*
X11610310Y5556250D01*
X11649670Y5545670D01*
X11677240Y5519210D01*
X11685110Y5487460D01*
X11681170Y5455700D01*
X11665420Y5429250D01*
X11586680Y5376330D01*
X11551250Y5339290D01*
X11527620Y5286360D01*
X11519750Y5238750D01*
X11685110D01*
G01X10027630Y6191250D02*
X9996130Y6180670D01*
X9972510Y6154210D01*
X9956760Y6122460D01*
X9944950Y6080120D01*
X9941020Y6032500D01*
X9944950Y5984870D01*
X9956760Y5942540D01*
X9972510Y5910780D01*
X9996130Y5884330D01*
X10027630Y5873750D01*
X10059120Y5884330D01*
X10082750Y5910780D01*
X10098500Y5942540D01*
X10110310Y5984870D01*
X10114240Y6032500D01*
X10110310Y6080120D01*
X10098500Y6122460D01*
X10082750Y6154210D01*
X10059120Y6180670D01*
X10027630Y6191250D01*
G01X10342590Y5863170D02*
X10334710Y5868460D01*
Y5879040D01*
X10342590Y5884330D01*
X10350470Y5879040D01*
Y5868460D01*
X10342590Y5863170D01*
G01X10570940Y5937250D02*
X10594550Y5900200D01*
X10626050Y5879040D01*
X10661490Y5873750D01*
X10692990Y5879040D01*
X10724480Y5905490D01*
X10744160Y5937250D01*
X10748100Y5969000D01*
X10740230Y6006030D01*
X10712670Y6032500D01*
X10685110Y6043090D01*
X10649670D01*
G01X10685110D02*
X10708730Y6058960D01*
X10728420Y6085410D01*
X10736290Y6117160D01*
X10728420Y6148920D01*
X10708730Y6175370D01*
X10673300Y6191250D01*
X10637870Y6185960D01*
X10602430Y6164790D01*
G01X10972510Y6191250D02*
X10941010Y6180670D01*
X10917390Y6154210D01*
X10901640Y6122460D01*
X10889830Y6080120D01*
X10885900Y6032500D01*
X10889830Y5984870D01*
X10901640Y5942540D01*
X10917390Y5910780D01*
X10941010Y5884330D01*
X10972510Y5873750D01*
X11004000Y5884330D01*
X11027630Y5910780D01*
X11043380Y5942540D01*
X11055190Y5984870D01*
X11059120Y6032500D01*
X11055190Y6080120D01*
X11043380Y6122460D01*
X11027630Y6154210D01*
X11004000Y6180670D01*
X10972510Y6191250D01*
G01X11334710Y5873750D02*
Y6191250D01*
X11189040Y5963710D01*
X11385900D01*
G01X11602430Y5873750D02*
X11629990Y5879040D01*
X11661480Y5894910D01*
X11681170Y5921360D01*
X11689040Y5958420D01*
X11681170Y5995450D01*
X11657550Y6027200D01*
X11622110Y6043090D01*
X11582750D01*
X11559120Y6053670D01*
X11539430Y6080120D01*
X11531560Y6117160D01*
X11543380Y6154210D01*
X11570930Y6180670D01*
X11602430Y6191250D01*
X11633920Y6180670D01*
X11661480Y6154210D01*
X11673300Y6117160D01*
X11665420Y6080120D01*
X11645740Y6053670D01*
X11622110Y6043090D01*
X11582750D01*
X11547310Y6027200D01*
X11523690Y5995450D01*
X11515820Y5958420D01*
X11523690Y5921360D01*
X11543380Y5894910D01*
X11574870Y5879040D01*
X11602430Y5873750D01*
G01X10185110Y2698750D02*
Y3016250D01*
X10137870Y2952750D01*
G01Y2698750D02*
X10232350D01*
G01X10500070Y2688170D02*
X10492190Y2693460D01*
Y2704040D01*
X10500070Y2709330D01*
X10507950Y2704040D01*
Y2693460D01*
X10500070Y2688170D01*
G01X10728420Y2746360D02*
X10752030Y2719910D01*
X10779590Y2704040D01*
X10815030Y2698750D01*
X10850470Y2709330D01*
X10878020Y2730490D01*
X10897710Y2767540D01*
X10901640Y2809870D01*
X10893770Y2852200D01*
X10874080Y2878670D01*
X10846520Y2899830D01*
X10818970Y2905120D01*
X10791410Y2899830D01*
X10755980Y2878670D01*
X10767790Y3016250D01*
X10874080D01*
G01X11055180Y2963330D02*
X11078810Y2995080D01*
X11106370Y3010960D01*
X11137870Y3016250D01*
X11177230Y3005670D01*
X11204800Y2979210D01*
X11212670Y2947460D01*
X11208730Y2915700D01*
X11192980Y2889250D01*
X11114240Y2836330D01*
X11078810Y2799290D01*
X11055180Y2746360D01*
X11047310Y2698750D01*
X11212670D01*
G01X11492190D02*
Y3016250D01*
X11346520Y2788710D01*
X11543380D01*
G01X10185110Y3333750D02*
Y3651250D01*
X10137870Y3587750D01*
G01Y3333750D02*
X10232350D01*
G01X10500070Y3323170D02*
X10492190Y3328460D01*
Y3339040D01*
X10500070Y3344330D01*
X10507950Y3339040D01*
Y3328460D01*
X10500070Y3323170D01*
G01X10815030Y3651250D02*
X10783530Y3640670D01*
X10759910Y3614210D01*
X10744160Y3582460D01*
X10732350Y3540120D01*
X10728420Y3492500D01*
X10732350Y3444870D01*
X10744160Y3402540D01*
X10759910Y3370780D01*
X10783530Y3344330D01*
X10815030Y3333750D01*
X10846520Y3344330D01*
X10870150Y3370780D01*
X10885900Y3402540D01*
X10897710Y3444870D01*
X10901640Y3492500D01*
X10897710Y3540120D01*
X10885900Y3582460D01*
X10870150Y3614210D01*
X10846520Y3640670D01*
X10815030Y3651250D01*
G01X11129990Y3333750D02*
Y3651250D01*
X11082750Y3587750D01*
G01Y3333750D02*
X11177230D01*
G01X11370140Y3466030D02*
X11397710Y3503090D01*
X11421330Y3524250D01*
X11452830Y3534830D01*
X11480390Y3524250D01*
X11500070Y3503090D01*
X11515820Y3471330D01*
X11519760Y3434290D01*
X11515820Y3402540D01*
X11500070Y3370780D01*
X11476440Y3344330D01*
X11448890Y3333750D01*
X11417390Y3344330D01*
X11389830Y3376070D01*
X11374080Y3423710D01*
X11370140Y3476620D01*
X11378020Y3545410D01*
X11389830Y3582460D01*
X11409510Y3619500D01*
X11437070Y3645960D01*
X11464630Y3651250D01*
X11492190Y3640670D01*
X11511880Y3614210D01*
G01X10185110Y3968750D02*
Y4286250D01*
X10137870Y4222750D01*
G01Y3968750D02*
X10232350D01*
G01X10500070Y3958170D02*
X10492190Y3963460D01*
Y3974040D01*
X10500070Y3979330D01*
X10507950Y3974040D01*
Y3963460D01*
X10500070Y3958170D01*
G01X10815030Y4286250D02*
X10783530Y4275670D01*
X10759910Y4249210D01*
X10744160Y4217460D01*
X10732350Y4175120D01*
X10728420Y4127500D01*
X10732350Y4079870D01*
X10744160Y4037540D01*
X10759910Y4005780D01*
X10783530Y3979330D01*
X10815030Y3968750D01*
X10846520Y3979330D01*
X10870150Y4005780D01*
X10885900Y4037540D01*
X10897710Y4079870D01*
X10901640Y4127500D01*
X10897710Y4175120D01*
X10885900Y4217460D01*
X10870150Y4249210D01*
X10846520Y4275670D01*
X10815030Y4286250D01*
G01X11129990Y3968750D02*
Y4286250D01*
X11082750Y4222750D01*
G01Y3968750D02*
X11177230D01*
G01X11370140Y4101030D02*
X11397710Y4138090D01*
X11421330Y4159250D01*
X11452830Y4169830D01*
X11480390Y4159250D01*
X11500070Y4138090D01*
X11515820Y4106330D01*
X11519760Y4069290D01*
X11515820Y4037540D01*
X11500070Y4005780D01*
X11476440Y3979330D01*
X11448890Y3968750D01*
X11417390Y3979330D01*
X11389830Y4011070D01*
X11374080Y4058710D01*
X11370140Y4111620D01*
X11378020Y4180410D01*
X11389830Y4217460D01*
X11409510Y4254500D01*
X11437070Y4280960D01*
X11464630Y4286250D01*
X11492190Y4275670D01*
X11511880Y4249210D01*
G01X10185110Y4921250D02*
X10153610Y4910670D01*
X10129990Y4884210D01*
X10114240Y4852460D01*
X10102430Y4810120D01*
X10098500Y4762500D01*
X10102430Y4714870D01*
X10114240Y4672540D01*
X10129990Y4640780D01*
X10153610Y4614330D01*
X10185110Y4603750D01*
X10216600Y4614330D01*
X10240230Y4640780D01*
X10255980Y4672540D01*
X10267790Y4714870D01*
X10271720Y4762500D01*
X10267790Y4810120D01*
X10255980Y4852460D01*
X10240230Y4884210D01*
X10216600Y4910670D01*
X10185110Y4921250D01*
G01X10500070Y4593170D02*
X10492190Y4598460D01*
Y4609040D01*
X10500070Y4614330D01*
X10507950Y4609040D01*
Y4598460D01*
X10500070Y4593170D01*
G01X10815030Y4603750D02*
X10842590Y4609040D01*
X10874080Y4624910D01*
X10893770Y4651360D01*
X10901640Y4688420D01*
X10893770Y4725450D01*
X10870150Y4757200D01*
X10834710Y4773090D01*
X10795350D01*
X10771720Y4783670D01*
X10752030Y4810120D01*
X10744160Y4847160D01*
X10755980Y4884210D01*
X10783530Y4910670D01*
X10815030Y4921250D01*
X10846520Y4910670D01*
X10874080Y4884210D01*
X10885900Y4847160D01*
X10878020Y4810120D01*
X10858340Y4783670D01*
X10834710Y4773090D01*
X10795350D01*
X10759910Y4757200D01*
X10736290Y4725450D01*
X10728420Y4688420D01*
X10736290Y4651360D01*
X10755980Y4624910D01*
X10787470Y4609040D01*
X10815030Y4603750D01*
G01X11129990D02*
X11157550Y4609040D01*
X11189040Y4624910D01*
X11208730Y4651360D01*
X11216600Y4688420D01*
X11208730Y4725450D01*
X11185110Y4757200D01*
X11149670Y4773090D01*
X11110310D01*
X11086680Y4783670D01*
X11066990Y4810120D01*
X11059120Y4847160D01*
X11070940Y4884210D01*
X11098490Y4910670D01*
X11129990Y4921250D01*
X11161480Y4910670D01*
X11189040Y4884210D01*
X11200860Y4847160D01*
X11192980Y4810120D01*
X11173300Y4783670D01*
X11149670Y4773090D01*
X11110310D01*
X11074870Y4757200D01*
X11051250Y4725450D01*
X11043380Y4688420D01*
X11051250Y4651360D01*
X11070940Y4624910D01*
X11102430Y4609040D01*
X11129990Y4603750D01*
G01X11378020Y4640780D02*
X11405580Y4614330D01*
X11437070Y4603750D01*
X11468570Y4614330D01*
X11496130Y4646070D01*
X11515820Y4693710D01*
X11523690Y4741330D01*
Y4799540D01*
X11515820Y4847160D01*
X11496130Y4889500D01*
X11472510Y4910670D01*
X11444950Y4921250D01*
X11413450Y4910670D01*
X11389830Y4889500D01*
X11374080Y4857750D01*
X11366210Y4815410D01*
X11374080Y4778380D01*
X11393770Y4741330D01*
X11417390Y4720160D01*
X11444950Y4714870D01*
X11476440Y4725450D01*
X11500070Y4751910D01*
X11523690Y4799540D01*
G01X10259910Y6551070D02*
X10291410Y6524620D01*
X10326840Y6508750D01*
X10358340D01*
X10389830Y6524620D01*
X10413460Y6551070D01*
X10425270Y6588130D01*
X10417400Y6625160D01*
X10397710Y6656910D01*
X10362270Y6678090D01*
X10315030Y6688670D01*
X10287470Y6709830D01*
X10275660Y6746870D01*
X10283540Y6783920D01*
X10303220Y6810370D01*
X10330780Y6826250D01*
X10358340D01*
X10385900Y6815670D01*
X10409520Y6789210D01*
G01X10610310Y6826250D02*
X10704790D01*
G01X10657550D02*
Y6508750D01*
G01X10610310D02*
X10704790D01*
G01X10897700Y6826250D02*
X11047320D01*
X10897700Y6508750D01*
X11047320D01*
G01X11366210D02*
X11208730D01*
Y6826250D01*
X11366210D01*
G01X11303220Y6672800D02*
X11208730D01*
G01X13216600Y6985000D02*
Y0D01*
G01X13964630Y158750D02*
Y476250D01*
X14059120D01*
X14090610Y460370D01*
X14114240Y423330D01*
X14122110Y381000D01*
X14114240Y338670D01*
X14094550Y306910D01*
X14059120Y291030D01*
X13964630D01*
G01X14279590Y476250D02*
Y158750D01*
X14437070D01*
G01X14574860D02*
X14673290Y476250D01*
X14771720Y158750D01*
G01X14736280Y269870D02*
X14610290D01*
G01X14988250Y476250D02*
Y158750D01*
G01X14897700Y476250D02*
X15078800D01*
G01X15381950Y158750D02*
X15224470D01*
Y476250D01*
X15381950D01*
G01X15318960Y322800D02*
X15224470D01*
G01X15531560Y158750D02*
Y476250D01*
X15610290D01*
X15641790Y460370D01*
X15665410Y439210D01*
X15685100Y407460D01*
X15700850Y370410D01*
X15704780Y317500D01*
X15700850Y264580D01*
X15685100Y227540D01*
X15665410Y195780D01*
X15641790Y174620D01*
X15610290Y158750D01*
X15531560D01*
G01X13964630Y793750D02*
Y1111250D01*
X14059120D01*
X14090610Y1095370D01*
X14114240Y1058330D01*
X14122110Y1016000D01*
X14114240Y973670D01*
X14094550Y941910D01*
X14059120Y926030D01*
X13964630D01*
G01X14279590Y1111250D02*
Y793750D01*
X14437070D01*
G01X14574860D02*
X14673290Y1111250D01*
X14771720Y793750D01*
G01X14736280Y904870D02*
X14610290D01*
G01X14988250Y1111250D02*
Y793750D01*
G01X14897700Y1111250D02*
X15078800D01*
G01X15381950Y793750D02*
X15224470D01*
Y1111250D01*
X15381950D01*
G01X15318960Y957800D02*
X15224470D01*
G01X15531560Y793750D02*
Y1111250D01*
X15610290D01*
X15641790Y1095370D01*
X15665410Y1074210D01*
X15685100Y1042460D01*
X15700850Y1005410D01*
X15704780Y952500D01*
X15700850Y899580D01*
X15685100Y862540D01*
X15665410Y830780D01*
X15641790Y809620D01*
X15610290Y793750D01*
X15531560D01*
G01X13964630Y1428750D02*
Y1746250D01*
X14059120D01*
X14090610Y1730370D01*
X14114240Y1693330D01*
X14122110Y1651000D01*
X14114240Y1608670D01*
X14094550Y1576910D01*
X14059120Y1561030D01*
X13964630D01*
G01X14279590Y1746250D02*
Y1428750D01*
X14437070D01*
G01X14574860D02*
X14673290Y1746250D01*
X14771720Y1428750D01*
G01X14736280Y1539870D02*
X14610290D01*
G01X14988250Y1746250D02*
Y1428750D01*
G01X14897700Y1746250D02*
X15078800D01*
G01X15381950Y1428750D02*
X15224470D01*
Y1746250D01*
X15381950D01*
G01X15318960Y1592800D02*
X15224470D01*
G01X15531560Y1428750D02*
Y1746250D01*
X15610290D01*
X15641790Y1730370D01*
X15665410Y1709210D01*
X15685100Y1677460D01*
X15700850Y1640410D01*
X15704780Y1587500D01*
X15700850Y1534580D01*
X15685100Y1497540D01*
X15665410Y1465780D01*
X15641790Y1444620D01*
X15610290Y1428750D01*
X15531560D01*
G01X13964630Y2063750D02*
Y2381250D01*
X14059120D01*
X14090610Y2365370D01*
X14114240Y2328330D01*
X14122110Y2286000D01*
X14114240Y2243670D01*
X14094550Y2211910D01*
X14059120Y2196030D01*
X13964630D01*
G01X14279590Y2381250D02*
Y2063750D01*
X14437070D01*
G01X14574860D02*
X14673290Y2381250D01*
X14771720Y2063750D01*
G01X14736280Y2174870D02*
X14610290D01*
G01X14988250Y2381250D02*
Y2063750D01*
G01X14897700Y2381250D02*
X15078800D01*
G01X15381950Y2063750D02*
X15224470D01*
Y2381250D01*
X15381950D01*
G01X15318960Y2227800D02*
X15224470D01*
G01X15531560Y2063750D02*
Y2381250D01*
X15610290D01*
X15641790Y2365370D01*
X15665410Y2344210D01*
X15685100Y2312460D01*
X15700850Y2275410D01*
X15704780Y2222500D01*
X15700850Y2169580D01*
X15685100Y2132540D01*
X15665410Y2100780D01*
X15641790Y2079620D01*
X15610290Y2063750D01*
X15531560D01*
G01X13964630Y2698750D02*
Y3016250D01*
X14059120D01*
X14090610Y3000370D01*
X14114240Y2963330D01*
X14122110Y2921000D01*
X14114240Y2878670D01*
X14094550Y2846910D01*
X14059120Y2831030D01*
X13964630D01*
G01X14279590Y3016250D02*
Y2698750D01*
X14437070D01*
G01X14574860D02*
X14673290Y3016250D01*
X14771720Y2698750D01*
G01X14736280Y2809870D02*
X14610290D01*
G01X14988250Y3016250D02*
Y2698750D01*
G01X14897700Y3016250D02*
X15078800D01*
G01X15381950Y2698750D02*
X15224470D01*
Y3016250D01*
X15381950D01*
G01X15318960Y2862800D02*
X15224470D01*
G01X15531560Y2698750D02*
Y3016250D01*
X15610290D01*
X15641790Y3000370D01*
X15665410Y2979210D01*
X15685100Y2947460D01*
X15700850Y2910410D01*
X15704780Y2857500D01*
X15700850Y2804580D01*
X15685100Y2767540D01*
X15665410Y2735780D01*
X15641790Y2714620D01*
X15610290Y2698750D01*
X15531560D01*
G01X13964630Y3333750D02*
Y3651250D01*
X14059120D01*
X14090610Y3635370D01*
X14114240Y3598330D01*
X14122110Y3556000D01*
X14114240Y3513670D01*
X14094550Y3481910D01*
X14059120Y3466030D01*
X13964630D01*
G01X14279590Y3651250D02*
Y3333750D01*
X14437070D01*
G01X14574860D02*
X14673290Y3651250D01*
X14771720Y3333750D01*
G01X14736280Y3444870D02*
X14610290D01*
G01X14988250Y3651250D02*
Y3333750D01*
G01X14897700Y3651250D02*
X15078800D01*
G01X15381950Y3333750D02*
X15224470D01*
Y3651250D01*
X15381950D01*
G01X15318960Y3497800D02*
X15224470D01*
G01X15531560Y3333750D02*
Y3651250D01*
X15610290D01*
X15641790Y3635370D01*
X15665410Y3614210D01*
X15685100Y3582460D01*
X15700850Y3545410D01*
X15704780Y3492500D01*
X15700850Y3439580D01*
X15685100Y3402540D01*
X15665410Y3370780D01*
X15641790Y3349620D01*
X15610290Y3333750D01*
X15531560D01*
G01X13964630Y3968750D02*
Y4286250D01*
X14059120D01*
X14090610Y4270370D01*
X14114240Y4233330D01*
X14122110Y4191000D01*
X14114240Y4148670D01*
X14094550Y4116910D01*
X14059120Y4101030D01*
X13964630D01*
G01X14279590Y4286250D02*
Y3968750D01*
X14437070D01*
G01X14574860D02*
X14673290Y4286250D01*
X14771720Y3968750D01*
G01X14736280Y4079870D02*
X14610290D01*
G01X14988250Y4286250D02*
Y3968750D01*
G01X14897700Y4286250D02*
X15078800D01*
G01X15381950Y3968750D02*
X15224470D01*
Y4286250D01*
X15381950D01*
G01X15318960Y4132800D02*
X15224470D01*
G01X15531560Y3968750D02*
Y4286250D01*
X15610290D01*
X15641790Y4270370D01*
X15665410Y4249210D01*
X15685100Y4217460D01*
X15700850Y4180410D01*
X15704780Y4127500D01*
X15700850Y4074580D01*
X15685100Y4037540D01*
X15665410Y4005780D01*
X15641790Y3984620D01*
X15610290Y3968750D01*
X15531560D01*
G01X13964630Y4603750D02*
Y4921250D01*
X14059120D01*
X14090610Y4905370D01*
X14114240Y4868330D01*
X14122110Y4826000D01*
X14114240Y4783670D01*
X14094550Y4751910D01*
X14059120Y4736030D01*
X13964630D01*
G01X14279590Y4921250D02*
Y4603750D01*
X14437070D01*
G01X14574860D02*
X14673290Y4921250D01*
X14771720Y4603750D01*
G01X14736280Y4714870D02*
X14610290D01*
G01X14988250Y4921250D02*
Y4603750D01*
G01X14897700Y4921250D02*
X15078800D01*
G01X15381950Y4603750D02*
X15224470D01*
Y4921250D01*
X15381950D01*
G01X15318960Y4767800D02*
X15224470D01*
G01X15531560Y4603750D02*
Y4921250D01*
X15610290D01*
X15641790Y4905370D01*
X15665410Y4884210D01*
X15685100Y4852460D01*
X15700850Y4815410D01*
X15704780Y4762500D01*
X15700850Y4709580D01*
X15685100Y4672540D01*
X15665410Y4640780D01*
X15641790Y4619620D01*
X15610290Y4603750D01*
X15531560D01*
G01X13964630Y5238750D02*
Y5556250D01*
X14059120D01*
X14090610Y5540370D01*
X14114240Y5503330D01*
X14122110Y5461000D01*
X14114240Y5418670D01*
X14094550Y5386910D01*
X14059120Y5371030D01*
X13964630D01*
G01X14279590Y5556250D02*
Y5238750D01*
X14437070D01*
G01X14574860D02*
X14673290Y5556250D01*
X14771720Y5238750D01*
G01X14736280Y5349870D02*
X14610290D01*
G01X14988250Y5556250D02*
Y5238750D01*
G01X14897700Y5556250D02*
X15078800D01*
G01X15381950Y5238750D02*
X15224470D01*
Y5556250D01*
X15381950D01*
G01X15318960Y5402800D02*
X15224470D01*
G01X15531560Y5238750D02*
Y5556250D01*
X15610290D01*
X15641790Y5540370D01*
X15665410Y5519210D01*
X15685100Y5487460D01*
X15700850Y5450410D01*
X15704780Y5397500D01*
X15700850Y5344580D01*
X15685100Y5307540D01*
X15665410Y5275780D01*
X15641790Y5254620D01*
X15610290Y5238750D01*
X15531560D01*
G01X13964630Y5873750D02*
Y6191250D01*
X14059120D01*
X14090610Y6175370D01*
X14114240Y6138330D01*
X14122110Y6096000D01*
X14114240Y6053670D01*
X14094550Y6021910D01*
X14059120Y6006030D01*
X13964630D01*
G01X14279590Y6191250D02*
Y5873750D01*
X14437070D01*
G01X14574860D02*
X14673290Y6191250D01*
X14771720Y5873750D01*
G01X14736280Y5984870D02*
X14610290D01*
G01X14988250Y6191250D02*
Y5873750D01*
G01X14897700Y6191250D02*
X15078800D01*
G01X15381950Y5873750D02*
X15224470D01*
Y6191250D01*
X15381950D01*
G01X15318960Y6037800D02*
X15224470D01*
G01X15531560Y5873750D02*
Y6191250D01*
X15610290D01*
X15641790Y6175370D01*
X15665410Y6154210D01*
X15685100Y6122460D01*
X15700850Y6085410D01*
X15704780Y6032500D01*
X15700850Y5979580D01*
X15685100Y5942540D01*
X15665410Y5910780D01*
X15641790Y5889620D01*
X15610290Y5873750D01*
X15531560D01*
G01X13964630Y6508750D02*
Y6826250D01*
X14059120D01*
X14090610Y6810370D01*
X14114240Y6773330D01*
X14122110Y6731000D01*
X14114240Y6688670D01*
X14094550Y6656910D01*
X14059120Y6641030D01*
X13964630D01*
G01X14279590Y6826250D02*
Y6508750D01*
X14437070D01*
G01X14574860D02*
X14673290Y6826250D01*
X14771720Y6508750D01*
G01X14736280Y6619870D02*
X14610290D01*
G01X14988250Y6826250D02*
Y6508750D01*
G01X14897700Y6826250D02*
X15078800D01*
G01X15381950Y6508750D02*
X15224470D01*
Y6826250D01*
X15381950D01*
G01X15318960Y6672800D02*
X15224470D01*
G01X15531560Y6508750D02*
Y6826250D01*
X15610290D01*
X15641790Y6810370D01*
X15665410Y6789210D01*
X15685100Y6757460D01*
X15700850Y6720410D01*
X15704780Y6667500D01*
X15700850Y6614580D01*
X15685100Y6577540D01*
X15665410Y6545780D01*
X15641790Y6524620D01*
X15610290Y6508750D01*
X15531560D01*
G01X16444940Y6985000D02*
Y0D01*
G01X17027620Y5937250D02*
X17051230Y5900200D01*
X17082730Y5879040D01*
X17118170Y5873750D01*
X17149670Y5879040D01*
X17181160Y5905490D01*
X17200840Y5937250D01*
X17204780Y5969000D01*
X17196910Y6006030D01*
X17169350Y6032500D01*
X17141790Y6043090D01*
X17106350D01*
G01X17141790D02*
X17165410Y6058960D01*
X17185100Y6085410D01*
X17192970Y6117160D01*
X17185100Y6148920D01*
X17165410Y6175370D01*
X17129980Y6191250D01*
X17094550Y6185960D01*
X17059110Y6164790D01*
G01X17476430Y5873750D02*
Y6191250D01*
X17330760Y5963710D01*
X17527620D01*
G01X17657540Y5937250D02*
X17681150Y5900200D01*
X17712650Y5879040D01*
X17748090Y5873750D01*
X17779590Y5879040D01*
X17811080Y5905490D01*
X17830760Y5937250D01*
X17834700Y5969000D01*
X17826830Y6006030D01*
X17799270Y6032500D01*
X17771710Y6043090D01*
X17736270D01*
G01X17771710D02*
X17795330Y6058960D01*
X17815020Y6085410D01*
X17822890Y6117160D01*
X17815020Y6148920D01*
X17795330Y6175370D01*
X17759900Y6191250D01*
X17724470Y6185960D01*
X17689030Y6164790D01*
G01X17114230Y6508750D02*
X17082730Y6514040D01*
X17055180Y6535200D01*
X17031550Y6566960D01*
X17015800Y6604000D01*
X17007930Y6646330D01*
Y6688670D01*
X17015800Y6731000D01*
X17031550Y6768040D01*
X17055180Y6799790D01*
X17082730Y6820960D01*
X17114230Y6826250D01*
X17145720Y6820960D01*
X17173280Y6799790D01*
X17196910Y6768040D01*
X17212660Y6731000D01*
X17220530Y6688670D01*
Y6646330D01*
X17212660Y6604000D01*
X17196910Y6566960D01*
X17173280Y6535200D01*
X17145720Y6514040D01*
X17114230Y6508750D01*
G01X17145720Y6593420D02*
X17192970Y6508750D01*
G01X17429190Y6826250D02*
Y6508750D01*
G01X17338640Y6826250D02*
X17519740D01*
G01X17744150Y6508750D02*
Y6651620D01*
X17665410Y6826250D01*
G01X17822890D02*
X17744150Y6651620D01*
G01X17354380Y423330D02*
X17378010Y455080D01*
X17405570Y470960D01*
X17437070Y476250D01*
X17476430Y465670D01*
X17504000Y439210D01*
X17511870Y407460D01*
X17507930Y375700D01*
X17492180Y349250D01*
X17413440Y296330D01*
X17378010Y259290D01*
X17354380Y206360D01*
X17346510Y158750D01*
X17511870D01*
G01X17429190Y793750D02*
Y1111250D01*
X17381950Y1047750D01*
G01Y793750D02*
X17476430D01*
G01X17354380Y1693330D02*
X17378010Y1725080D01*
X17405570Y1740960D01*
X17437070Y1746250D01*
X17476430Y1735670D01*
X17504000Y1709210D01*
X17511870Y1677460D01*
X17507930Y1645700D01*
X17492180Y1619250D01*
X17413440Y1566330D01*
X17378010Y1529290D01*
X17354380Y1476360D01*
X17346510Y1428750D01*
X17511870D01*
G01X17354380Y2328330D02*
X17378010Y2360080D01*
X17405570Y2375960D01*
X17437070Y2381250D01*
X17476430Y2370670D01*
X17504000Y2344210D01*
X17511870Y2312460D01*
X17507930Y2280700D01*
X17492180Y2254250D01*
X17413440Y2201330D01*
X17378010Y2164290D01*
X17354380Y2111360D01*
X17346510Y2063750D01*
X17511870D01*
G01X17271710Y2698750D02*
Y3016250D01*
X17224470Y2952750D01*
G01Y2698750D02*
X17318950D01*
G01X17586670Y3016250D02*
X17555170Y3005670D01*
X17531550Y2979210D01*
X17515800Y2947460D01*
X17503990Y2905120D01*
X17500060Y2857500D01*
X17503990Y2809870D01*
X17515800Y2767540D01*
X17531550Y2735780D01*
X17555170Y2709330D01*
X17586670Y2698750D01*
X17618160Y2709330D01*
X17641790Y2735780D01*
X17657540Y2767540D01*
X17669350Y2809870D01*
X17673280Y2857500D01*
X17669350Y2905120D01*
X17657540Y2947460D01*
X17641790Y2979210D01*
X17618160Y3005670D01*
X17586670Y3016250D01*
G01X17476430Y3333750D02*
Y3651250D01*
X17330760Y3423710D01*
X17527620D01*
G01X17318950Y3968750D02*
Y4286250D01*
X17173280Y4058710D01*
X17370140D01*
G01X17633910Y3968750D02*
Y4286250D01*
X17488240Y4058710D01*
X17685100D01*
G01X17318950Y4603750D02*
Y4921250D01*
X17173280Y4693710D01*
X17370140D01*
G01X17519740Y4640780D02*
X17547300Y4614330D01*
X17578790Y4603750D01*
X17610290Y4614330D01*
X17637850Y4646070D01*
X17657540Y4693710D01*
X17665410Y4741330D01*
Y4799540D01*
X17657540Y4847160D01*
X17637850Y4889500D01*
X17614230Y4910670D01*
X17586670Y4921250D01*
X17555170Y4910670D01*
X17531550Y4889500D01*
X17515800Y4857750D01*
X17507930Y4815410D01*
X17515800Y4778380D01*
X17535490Y4741330D01*
X17559110Y4720160D01*
X17586670Y4714870D01*
X17618160Y4725450D01*
X17641790Y4751910D01*
X17665410Y4799540D01*
G01X17185100Y5302250D02*
X17208710Y5265200D01*
X17240210Y5244040D01*
X17275650Y5238750D01*
X17307150Y5244040D01*
X17338640Y5270490D01*
X17358320Y5302250D01*
X17362260Y5334000D01*
X17354390Y5371030D01*
X17326830Y5397500D01*
X17299270Y5408090D01*
X17263830D01*
G01X17299270D02*
X17322890Y5423960D01*
X17342580Y5450410D01*
X17350450Y5482160D01*
X17342580Y5513920D01*
X17322890Y5540370D01*
X17287460Y5556250D01*
X17252030Y5550960D01*
X17216590Y5529790D01*
G01X17511860Y5503330D02*
X17535490Y5535080D01*
X17563050Y5550960D01*
X17594550Y5556250D01*
X17633910Y5545670D01*
X17661480Y5519210D01*
X17669350Y5487460D01*
X17665410Y5455700D01*
X17649660Y5429250D01*
X17570920Y5376330D01*
X17535490Y5339290D01*
X17511860Y5286360D01*
X17503990Y5238750D01*
X17669350D01*
G54D12*
X270000Y5920000D03*
Y6750000D03*
X7271730Y1587500D03*
G54D13*
X230000Y9410000D03*
X5360000D03*
G54D14*
X750000Y300000D03*
X1590000D03*
X4190000Y310000D03*
X5140000Y8460000D03*
X7271730Y3492500D03*
G54D15*
X750000Y554000D03*
X1004000Y300000D03*
Y554000D03*
X1844000Y300000D03*
Y554000D03*
X1590000D03*
X2352000Y300000D03*
X2098000D03*
X2352000Y554000D03*
X2098000D03*
X2860000Y300000D03*
X2606000D03*
X2860000Y554000D03*
X2606000D03*
X3368000Y300000D03*
X3114000D03*
X3368000Y554000D03*
X3114000D03*
X3622000Y300000D03*
Y554000D03*
X4444000Y310000D03*
Y564000D03*
X4190000D03*
X4698000Y310000D03*
Y564000D03*
X5140000Y6174000D03*
Y6428000D03*
Y6682000D03*
Y6936000D03*
Y7190000D03*
Y7444000D03*
Y7698000D03*
Y7952000D03*
Y8206000D03*
X5394000Y6174000D03*
Y6428000D03*
Y6682000D03*
Y6936000D03*
Y7190000D03*
Y7444000D03*
Y7698000D03*
Y7952000D03*
Y8206000D03*
Y8460000D03*
X7271730Y4127500D03*
G54D16*
X850000Y8390000D03*
X1450000D03*
X7271730Y317500D03*
G54D17*
X1170000Y7910000D03*
X7271730Y952500D03*
G54D18*
G01X5360000Y0D02*
X220000D01*
G02X0Y220000I0J220000D01*
G01Y9420000D01*
G02X220000Y9640000I220000J0D01*
G01X5360000D01*
G02X5590000Y9410000I0J-230000D01*
G01Y230000D01*
G02X5360000Y0I-230000J0D01*
G54D19*
G01X480000Y7160000D02*
G03I-30000J0D01*
G01Y7560000D02*
G03I-30000J0D01*
M02*
