G04 ================== begin FILE IDENTIFICATION RECORD ==================*
G04 Layout Name:  F:/Ñ¸À×ÏÂÔØ/2016Äê±ÏÉè/ÆÑÑÞ·Æ/F407_PACK_V11A/PCB/F407_PACK_V11A.brd*
G04 Film Name:    SilkScreen_Bottom*
G04 File Format:  Gerber RS274X*
G04 File Origin:  Cadence Allegro 16.6-2015-S064*
G04 Origin Date:  Tue Mar 29 17:23:38 2016*
G04 *
G04 Layer:  BOARD GEOMETRY/OUTLINE*
G04 Layer:  REF DES/SILKSCREEN_BOTTOM*
G04 Layer:  PACKAGE GEOMETRY/SILKSCREEN_BOTTOM*
G04 Layer:  BOARD GEOMETRY/SILKSCREEN_BOTTOM*
G04 *
G04 Offset:    (0.0000 0.0000)*
G04 Mirror:    No*
G04 Mode:      Positive*
G04 Rotation:  0*
G04 FullContactRelief:  No*
G04 UndefLineWidth:     0.1524*
G04 ================== end FILE IDENTIFICATION RECORD ====================*
%FSLAX25Y25*MOMM*%
%IR0*IPPOS*OFA0.00000B0.00000*MIA0B0*SFA1.00000B1.00000*%
%ADD10C,.2032*%
%ADD11C,.17*%
%ADD12C,.127*%
%ADD13C,.254*%
%ADD14C,.1524*%
G75*
%LPD*%
G75*
G36*
G01X1037300Y5126840D02*
X1001740Y5162400D01*
X1004280Y5164940D01*
X1075400D01*
X1037300Y5126840D01*
G37*
G36*
G01X1422700Y5253160D02*
X1458260Y5217600D01*
X1455720Y5215060D01*
X1384600D01*
X1422700Y5253160D01*
G37*
G36*
G01X2212700Y3913160D02*
X2248260Y3877600D01*
X2245720Y3875060D01*
X2174600D01*
X2212700Y3913160D01*
G37*
G54D10*
G01X5360000Y0D02*
X220000D01*
G02X0Y220000I0J220000D01*
G01Y9420000D01*
G02X220000Y9640000I220000J0D01*
G01X5360000D01*
G02X5590000Y9410000I0J-230000D01*
G01Y230000D01*
G02X5360000Y0I-230000J0D01*
G01X80300Y646500D02*
X359700D01*
Y773500D01*
X80300D01*
G01X141260D02*
X80300D01*
Y646500D01*
X141260D01*
G01X90300Y926500D02*
X369700D01*
Y1053500D01*
X90300D01*
G01X151260D02*
X90300D01*
Y926500D01*
X151260D01*
G01X90300Y1126500D02*
X369700D01*
Y1253500D01*
X90300D01*
G01X151260D02*
X90300D01*
Y1126500D01*
X151260D01*
G01X80300Y1886500D02*
X359700D01*
Y2013500D01*
X80300D01*
G01X141260D02*
X80300D01*
Y1886500D01*
X141260D01*
G01X77940Y2081380D02*
X357340D01*
Y2208380D01*
X77940D01*
G01X138900D02*
X77940D01*
Y2081380D01*
X138900D01*
G01X807650Y2106870D02*
X798760Y2117030D01*
X788390Y2122110D01*
X776540Y2123800D01*
X761720Y2120410D01*
X751350Y2111950D01*
X748380Y2101790D01*
X749870Y2091620D01*
X755790Y2083160D01*
X785430Y2066230D01*
X798760Y2054370D01*
X807650Y2037440D01*
X810620Y2022200D01*
X748380D01*
G01X1020800Y2288900D02*
X1135100D01*
Y2123800D01*
X804900D01*
Y2288900D01*
X919200D01*
G01X520300Y5916500D02*
X799700D01*
Y6043500D01*
X520300D01*
G01X581260D02*
X520300D01*
Y5916500D01*
X581260D01*
G01X845420Y6078720D02*
X474580D01*
G01X472040Y6241280D02*
G03Y6078720I106888J-81280D01*
G01X474580Y6431280D02*
X845420D01*
G01Y6268720D02*
X474580D01*
G01X472040Y6431280D02*
G03Y6268720I106888J-81280D01*
G01X474580Y6241280D02*
X845420D01*
G01X1190300Y236500D02*
G02Y363500I71651J63500D01*
G01X1469700Y236500D02*
X1190300D01*
G01Y363500D02*
X1469700D01*
G01X1147800Y2022200D02*
Y2123800D01*
X1165580Y2103480D01*
G01Y2022200D02*
X1130020D01*
G01X913700Y2321920D02*
X904810Y2310060D01*
X892950Y2303290D01*
X879620Y2301600D01*
X867760Y2303290D01*
X855910Y2311760D01*
X848500Y2321920D01*
X847020Y2332080D01*
X849980Y2343930D01*
X860360Y2352400D01*
X870730Y2355790D01*
X884060D01*
G01X870730D02*
X861840Y2360870D01*
X854430Y2369330D01*
X851470Y2379490D01*
X854430Y2389650D01*
X861840Y2398120D01*
X875170Y2403200D01*
X888510Y2401510D01*
X901840Y2394730D01*
G01X1220300Y2036500D02*
X1499700D01*
Y2163500D01*
X1220300D01*
G01X1281260D02*
X1220300D01*
Y2036500D01*
X1281260D01*
G01X1220300Y2186500D02*
X1499700D01*
Y2313500D01*
X1220300D01*
G01X1281260D02*
X1220300D01*
Y2186500D01*
X1281260D01*
G01X1259700Y4083500D02*
X980300D01*
Y3956500D01*
X1259700D01*
G01X1198740D02*
X1259700D01*
Y4083500D01*
X1198740D01*
G01X1259700Y3933500D02*
X980300D01*
Y3806500D01*
X1259700D01*
G01X1198740D02*
X1259700D01*
Y3933500D01*
X1198740D01*
G01X1259700Y3783500D02*
X980300D01*
Y3656500D01*
X1259700D01*
G01X1198740D02*
X1259700D01*
Y3783500D01*
X1198740D01*
G01X980300Y4256500D02*
X1259700D01*
Y4383500D01*
X980300D01*
G01X1041260D02*
X980300D01*
Y4256500D01*
X1041260D01*
G01X980300Y4406500D02*
X1259700D01*
Y4533500D01*
X980300D01*
G01X1041260D02*
X980300D01*
Y4406500D01*
X1041260D01*
G01X1259700Y4233500D02*
G02Y4106500I-71651J-63500D01*
G01X977760Y4233500D02*
G03Y4106500I73330J-63500D01*
G01X1259700D02*
X980300D01*
G01Y4233500D02*
X1259700D01*
G01X1439700Y5733500D02*
X1160300D01*
Y5606500D01*
X1439700D01*
G01X1139700Y5733500D02*
X860300D01*
Y5606500D01*
X1139700D01*
G01X1078740D02*
X1139700D01*
Y5733500D01*
X1078740D01*
G01X860300Y5766500D02*
X1139700D01*
Y5893500D01*
X860300D01*
G01X921260D02*
X860300D01*
Y5766500D01*
X921260D01*
G01X845420Y6241280D02*
G02Y6078720I-106888J-81280D01*
G01Y6431280D02*
G02Y6268720I-106888J-81280D01*
G01X1335420Y6908720D02*
X964580D01*
G01Y7071280D02*
X1335420D01*
G01X1337960Y6908720D02*
G03Y7071280I-106888J81280D01*
G01X964580Y6908720D02*
G02Y7071280I106888J81280D01*
G01X1335420Y7098720D02*
X964580D01*
G01Y7261280D02*
X1335420D01*
G01X1337960Y7098720D02*
G03Y7261280I-106888J81280D01*
G01X964580Y7098720D02*
G02Y7261280I106888J81280D01*
G01Y7451280D02*
X1335420D01*
G01Y7288720D02*
X964580D01*
G01X962040Y7451280D02*
G03Y7288720I106888J-81280D01*
G01X1335420Y7451280D02*
G02Y7288720I-106888J-81280D01*
G01X964580Y7641280D02*
X1335420D01*
G01Y7478720D02*
X964580D01*
G01X962040Y7641280D02*
G03Y7478720I106888J-81280D01*
G01X1335420Y7641280D02*
G02Y7478720I-106888J-81280D01*
G01X1472240Y236500D02*
G03Y363500I-73330J63500D01*
G01X1460300Y5606500D02*
X1739700D01*
Y5733500D01*
X1460300D01*
G01X1521260D02*
X1460300D01*
Y5606500D01*
X1521260D01*
G01X1378740D02*
X1439700D01*
Y5733500D01*
X1378740D01*
G01X1607760Y5423500D02*
G03Y5296500I73330J-63500D01*
G01X1889700D02*
X1610300D01*
G01Y5423500D02*
X1889700D01*
G01X1560300Y7436500D02*
G02Y7563500I71651J63500D01*
G01X1842240Y7436500D02*
G03Y7563500I-73330J63500D01*
G01X1560300D02*
X1839700D01*
G01Y7436500D02*
X1560300D01*
G01X2050300Y4226500D02*
G02Y4353500I71651J63500D01*
G01X2332240Y4226500D02*
G03Y4353500I-73330J63500D01*
G01X2050300D02*
X2329700D01*
G01Y4226500D02*
X2050300D01*
G01X1964580Y4541280D02*
X2335420D01*
G01Y4378720D02*
X1964580D01*
G01X1962040Y4541280D02*
G03Y4378720I106888J-81280D01*
G01X2335420Y4541280D02*
G02Y4378720I-106888J-81280D01*
G01X2050300Y4916500D02*
G02Y5043500I71651J63500D01*
G01X2332240Y4916500D02*
G03Y5043500I-73330J63500D01*
G01X2050300D02*
X2329700D01*
G01Y4916500D02*
X2050300D01*
G01X1889700Y5423500D02*
G02Y5296500I-71651J-63500D01*
G01X2050300Y5466500D02*
G02Y5593500I71651J63500D01*
G01X2332240Y5466500D02*
G03Y5593500I-73330J63500D01*
G01X2050300D02*
X2329700D01*
G01Y5466500D02*
X2050300D01*
G01X2226500Y6197760D02*
G03X2353500I63500J73330D01*
G01Y6479700D02*
Y6200300D01*
G01X2226500D02*
Y6479700D01*
G01X2378720Y6194580D02*
Y6565420D01*
G01X2541280Y6194580D02*
G02X2378720I-81280J106888D01*
G01X2226500Y6479700D02*
G02X2353500I63500J-71651D01*
G01X2541280Y6567960D02*
G03X2378720I-81280J-106888D01*
G01X2169700Y7713500D02*
X1890300D01*
Y7586500D01*
X2169700D01*
G01X2108740D02*
X2169700D01*
Y7713500D01*
X2108740D01*
G01X1890300Y7436500D02*
X2169700D01*
Y7563500D01*
X1890300D01*
G01X1951260D02*
X1890300D01*
Y7436500D01*
X1951260D01*
G01X2876500Y6187760D02*
G03X3003500I63500J73330D01*
G01X2876500Y6190300D02*
Y6469700D01*
G01X2541280Y6565420D02*
Y6194580D01*
G01X2876500Y6469700D02*
G02X3003500I63500J-71651D01*
G01X3103500Y3950300D02*
G02X2976500I-63500J71651D01*
G01D02*
Y4229700D01*
G01X3103500D02*
Y3950300D01*
G01X3613500D02*
G02X3486500I-63500J71651D01*
G01D02*
Y4229700D01*
G01X3103500Y4232240D02*
G03X2976500I-63500J-73330D01*
G01X3613500D02*
G03X3486500I-63500J-73330D01*
G01X3003500Y6469700D02*
Y6190300D01*
G01X3376500Y6187760D02*
G03X3503500I63500J73330D01*
G01Y6469700D02*
Y6190300D01*
G01X3376500D02*
Y6469700D01*
G01D02*
G02X3503500I63500J-71651D01*
G01X3116500Y7179700D02*
G02X3243500I63500J-71651D01*
G01X3116500Y6897760D02*
G03X3243500I63500J73330D01*
G01Y7179700D02*
Y6900300D01*
G01X3116500D02*
Y7179700D01*
G01X3256500Y8349700D02*
G02X3383500I63500J-71651D01*
G01X3256500Y8067760D02*
G03X3383500I63500J73330D01*
G01Y8349700D02*
Y8070300D01*
G01X3256500D02*
Y8349700D01*
G01X3400300Y8796500D02*
G02Y8923500I71651J63500D01*
G01X3679700Y8796500D02*
X3400300D01*
G01Y8923500D02*
X3679700D01*
G01X3670300Y2706500D02*
G02Y2833500I71651J63500D01*
G01X3952240Y2706500D02*
G03Y2833500I-73330J63500D01*
G01X3670300D02*
X3949700D01*
G01Y2706500D02*
X3670300D01*
G01X3816500Y4229700D02*
Y3950300D01*
X3943500D01*
Y4229700D01*
G01X3966500D02*
Y3950300D01*
X4093500D01*
Y4229700D01*
G01X3613500D02*
Y3950300D01*
G01X3943500Y4168740D02*
Y4229700D01*
X3816500D01*
Y4168740D01*
G01X4093500D02*
Y4229700D01*
X3966500D01*
Y4168740D01*
G01X3910300Y5726500D02*
X4189700D01*
Y5853500D01*
X3910300D01*
G01X3971260D02*
X3910300D01*
Y5726500D01*
X3971260D01*
G01X4023500Y6180300D02*
Y6459700D01*
X3896500D01*
Y6180300D01*
G01Y6241260D02*
Y6180300D01*
X4023500D01*
Y6241260D01*
G01X4046500Y6187760D02*
G03X4173500I63500J73330D01*
G01X4046500Y6190300D02*
Y6469700D01*
G01X3910300Y5876500D02*
G02Y6003500I71651J63500D01*
G01D02*
X4189700D01*
G01Y5876500D02*
X3910300D01*
G01X4046500Y6469700D02*
G02X4173500I63500J-71651D01*
G01X3783500Y8070300D02*
Y8349700D01*
X3656500D01*
Y8070300D01*
G01Y8131260D02*
Y8070300D01*
X3783500D01*
Y8131260D01*
G01X4029700Y8923500D02*
G02Y8796500I-71651J-63500D01*
G01X3747760Y8923500D02*
G03Y8796500I73330J-63500D01*
G01X4029700D02*
X3750300D01*
G01X3682240D02*
G03Y8923500I-73330J63500D01*
G01X3750300D02*
X4029700D01*
G01X4379700Y883500D02*
X4100300D01*
Y756500D01*
X4379700D01*
G01X4318740D02*
X4379700D01*
Y883500D01*
X4318740D01*
G01X4400300Y756500D02*
X4679700D01*
Y883500D01*
X4400300D01*
G01X4461260D02*
X4400300D01*
Y756500D01*
X4461260D01*
G01X4116500Y3947760D02*
G03X4243500I63500J73330D01*
G01Y4229700D02*
Y3950300D01*
G01X4116500D02*
Y4229700D01*
G01D02*
G02X4243500I63500J-71651D01*
G01X4569700Y5193500D02*
G02Y5066500I-71651J-63500D01*
G01X4287760Y5193500D02*
G03Y5066500I73330J-63500D01*
G01X4569700D02*
X4290300D01*
G01Y5193500D02*
X4569700D01*
G01X4290300Y5876500D02*
X4569700D01*
Y6003500D01*
X4290300D01*
G01X4351260D02*
X4290300D01*
Y5876500D01*
X4351260D01*
G01X4569700Y5853500D02*
G02Y5726500I-71651J-63500D01*
G01X4287760Y5853500D02*
G03Y5726500I73330J-63500D01*
G01X4569700D02*
X4290300D01*
G01Y5853500D02*
X4569700D01*
G01X4173500Y6469700D02*
Y6190300D01*
G01X4192240Y5876500D02*
G03Y6003500I-73330J63500D01*
G01X4409700Y8933500D02*
G02Y8806500I-71651J-63500D01*
G01X4127760Y8933500D02*
G03Y8806500I73330J-63500D01*
G01X4409700D02*
X4130300D01*
G01Y8933500D02*
X4409700D01*
G01X4680300Y3456500D02*
G02Y3583500I71651J63500D01*
G01X4962240Y3456500D02*
G03Y3583500I-73330J63500D01*
G01X4959700Y3456500D02*
X4680300D01*
G01Y3583500D02*
X4959700D01*
G01X4640300Y6876500D02*
X4919700D01*
Y7003500D01*
X4640300D01*
G01X4701260D02*
X4640300D01*
Y6876500D01*
X4701260D01*
G01X4640300Y7636500D02*
X4919700D01*
Y7763500D01*
X4640300D01*
G01X4701260D02*
X4640300D01*
Y7636500D01*
X4701260D01*
G01X4919700Y7513500D02*
X4640300D01*
Y7386500D01*
X4919700D01*
G01X4858740D02*
X4919700D01*
Y7513500D01*
X4858740D01*
G01X4640300Y8146500D02*
X4919700D01*
Y8273500D01*
X4640300D01*
G01X4701260D02*
X4640300D01*
Y8146500D01*
X4701260D01*
G01X4640300Y7896500D02*
X4919700D01*
Y8023500D01*
X4640300D01*
G01X4701260D02*
X4640300D01*
Y7896500D01*
X4701260D01*
G01X5210300Y5906500D02*
X5489700D01*
Y6033500D01*
X5210300D01*
G01X5271260D02*
X5210300D01*
Y5906500D01*
X5271260D01*
G01X5489700Y5883500D02*
G02Y5756500I-71651J-63500D01*
G01X5207760Y5883500D02*
G03Y5756500I73330J-63500D01*
G01X5489700D02*
X5210300D01*
G01Y5883500D02*
X5489700D01*
G54D11*
G01X480000Y7160000D02*
G03I-30000J0D01*
G01Y7560000D02*
G03I-30000J0D01*
G54D12*
G01X505700Y270200D02*
G03I-160000J0D01*
G01X278400Y3630000D02*
G03I-28400J0D01*
G01Y4430000D02*
G03I-28400J0D01*
G01X720700Y1628200D02*
G03I-160000J0D01*
G01X2615000Y1600000D02*
G03I-75000J0D01*
G01X3365000D02*
G03I-75000J0D01*
G01X5369700Y270200D02*
G03I-160000J0D01*
G01X5178700Y1628200D02*
G03I-160000J0D01*
G54D13*
G01X846800Y4971900D02*
Y5022700D01*
G01X872200Y4997300D02*
X821400D01*
G01X935700Y4844900D02*
Y5175100D01*
G01X897600Y4844900D02*
Y5175100D01*
X1558000D01*
Y4844900D01*
X897600D01*
G01X1562400Y5535100D02*
Y5204900D01*
X902000D01*
Y5535100D01*
X1562400D01*
G01X1266300Y5938900D02*
X1228200D01*
Y5761100D01*
X1266300D01*
G01X1736200Y5938900D02*
X1266300D01*
Y5761100D01*
X1736200D01*
Y5938900D01*
G01X2352400Y4195100D02*
Y3864900D01*
X1692000D01*
Y4195100D01*
X2352400D01*
G01X1613200Y5408100D02*
Y5357300D01*
G01X1587800Y5382700D02*
X1638600D01*
G01X1524300Y5535100D02*
Y5204900D01*
G01X1469500Y5837300D02*
X1494900D01*
Y5875400D01*
X1507600Y5888100D01*
Y5799200D01*
X1533000D01*
Y5900800D01*
X1507600D01*
X1456800Y5850000D01*
X1545700Y5761100D01*
Y5938900D01*
X1456800Y5850000D01*
X1494900D01*
G01X1456800Y5938900D02*
Y5761100D01*
G01X1873700Y6901100D02*
X1911800D01*
Y7078900D01*
X1873700D01*
G01X1670500Y7002700D02*
X1645100D01*
Y6964600D01*
X1632400Y6951900D01*
Y7040800D01*
X1607000D01*
Y6939200D01*
X1632400D01*
X1683200Y6990000D01*
X1594300Y7078900D01*
Y6901100D01*
X1683200Y6990000D01*
X1645100D01*
G01X1683200Y6901100D02*
Y7078900D01*
G01X1403800Y6901100D02*
X1873700D01*
Y7078900D01*
X1403800D01*
Y6901100D01*
G01X3710000Y1600000D02*
G03I-800000J0D01*
G01X2403200Y4068100D02*
Y4017300D01*
G01X2377800Y4042700D02*
X2428600D01*
G01X2314300Y4195100D02*
Y3864900D01*
G01X3360000Y2310000D02*
X3710000D01*
Y890000D01*
X3360000D01*
Y2310000D01*
G01X3048560Y8024580D02*
X3231440D01*
G01X3048560Y8395420D02*
Y8024580D01*
G01X3231440D02*
Y8395420D01*
G01D02*
X3048560D01*
G01X3923800Y1491100D02*
X4393700D01*
Y1668900D01*
X3923800D01*
Y1491100D01*
G01X3624580Y3061440D02*
Y2878560D01*
G01D02*
X3995420D01*
G01D02*
Y3061440D01*
G01D02*
X3624580D01*
G01X4286300Y1398900D02*
X4248200D01*
Y1221100D01*
X4286300D01*
G01X4489500Y1297300D02*
X4514900D01*
Y1335400D01*
X4527600Y1348100D01*
Y1259200D01*
X4553000D01*
Y1360800D01*
X4527600D01*
X4476800Y1310000D01*
X4565700Y1221100D01*
Y1398900D01*
X4476800Y1310000D01*
X4514900D01*
G01X4476800Y1398900D02*
Y1221100D01*
G01X4756200Y1398900D02*
X4286300D01*
Y1221100D01*
X4756200D01*
Y1398900D01*
G01X4393700Y1491100D02*
X4431800D01*
Y1668900D01*
X4393700D01*
G01X4190500Y1592700D02*
X4165100D01*
Y1554600D01*
X4152400Y1541900D01*
Y1630800D01*
X4127000D01*
Y1529200D01*
X4152400D01*
X4203200Y1580000D01*
X4114300Y1668900D01*
Y1491100D01*
X4203200Y1580000D01*
X4165100D01*
G01X4203200Y1491100D02*
Y1668900D01*
G01X4453800Y3251100D02*
X4923700D01*
Y3428900D01*
X4453800D01*
Y3251100D01*
G01X4294580Y6028560D02*
X4665420D01*
G01X4294580Y6211440D02*
Y6028560D01*
G01X4665420Y6211440D02*
X4294580D01*
G01X4923700Y3251100D02*
X4961800D01*
Y3428900D01*
X4923700D01*
G01X4720500Y3352700D02*
X4695100D01*
Y3314600D01*
X4682400Y3301900D01*
Y3390800D01*
X4657000D01*
Y3289200D01*
X4682400D01*
X4733200Y3340000D01*
X4644300Y3428900D01*
Y3251100D01*
X4733200Y3340000D01*
X4695100D01*
G01X4733200Y3251100D02*
Y3428900D01*
G01X4665420Y6028560D02*
Y6211440D01*
G01X5240000Y7800000D02*
X5040000D01*
Y7600000D01*
X5240000D01*
Y7800000D01*
G01Y7550000D02*
X5040000D01*
Y7350000D01*
X5240000D01*
Y7550000D01*
G01X5030000Y8590000D02*
X5500000D01*
Y8350000D01*
X5020000D01*
Y8580000D01*
X5030000Y8590000D01*
G01X5500000Y8290000D02*
X5280000D01*
Y6070000D01*
X5500000D01*
Y8290000D01*
G54D14*
G01X310260Y810000D02*
Y888740D01*
X285920D01*
X278130Y884800D01*
X273260Y879550D01*
X271320Y869050D01*
X273260Y858560D01*
X279110Y852000D01*
X285920Y848060D01*
X310260D01*
G01X285920D02*
X271320Y810000D01*
G01X222370D02*
Y888740D01*
X234050Y872990D01*
G01Y810000D02*
X210690D01*
G01X142270D02*
Y888740D01*
X178290Y832310D01*
X129610D01*
G01X587260Y1041600D02*
Y1120340D01*
X562920D01*
X555130Y1116400D01*
X550260Y1111150D01*
X548320Y1100650D01*
X550260Y1090160D01*
X556110Y1083600D01*
X562920Y1079660D01*
X587260D01*
G01X562920D02*
X548320Y1041600D01*
G01X499370D02*
Y1120340D01*
X511050Y1104590D01*
G01Y1041600D02*
X487690D01*
G01X452370Y1057350D02*
X446530Y1048160D01*
X438740Y1042910D01*
X429980Y1041600D01*
X422190Y1042910D01*
X414400Y1049470D01*
X409530Y1057350D01*
X408560Y1065220D01*
X410500Y1074410D01*
X417320Y1080970D01*
X424130Y1083600D01*
X432900D01*
G01X424130D02*
X418290Y1087530D01*
X413420Y1094090D01*
X411480Y1101970D01*
X413420Y1109840D01*
X418290Y1116400D01*
X427060Y1120340D01*
X435820Y1119030D01*
X444580Y1113780D01*
G01X600260Y1170000D02*
Y1248740D01*
X575920D01*
X568130Y1244800D01*
X563260Y1239550D01*
X561320Y1229050D01*
X563260Y1218560D01*
X569110Y1212000D01*
X575920Y1208060D01*
X600260D01*
G01X575920D02*
X561320Y1170000D01*
G01X512370D02*
Y1248740D01*
X524050Y1232990D01*
G01Y1170000D02*
X500690D01*
G01X462450Y1235620D02*
X456610Y1243490D01*
X449790Y1247430D01*
X442000Y1248740D01*
X432270Y1246120D01*
X425450Y1239550D01*
X423500Y1231680D01*
X424480Y1223800D01*
X428370Y1217240D01*
X447840Y1204120D01*
X456610Y1194930D01*
X462450Y1181810D01*
X464400Y1170000D01*
X423500D01*
G01X514900Y2126480D02*
Y2205220D01*
X490560D01*
X482770Y2201280D01*
X477900Y2196030D01*
X475960Y2185530D01*
X477900Y2175040D01*
X483750Y2168480D01*
X490560Y2164540D01*
X514900D01*
G01X490560D02*
X475960Y2126480D01*
G01X427010D02*
Y2205220D01*
X438690Y2189470D01*
G01Y2126480D02*
X415330D01*
G01X517260Y1931600D02*
Y2010340D01*
X492920D01*
X485130Y2006400D01*
X480260Y2001150D01*
X478320Y1990650D01*
X480260Y1980160D01*
X486110Y1973600D01*
X492920Y1969660D01*
X517260D01*
G01X492920D02*
X478320Y1931600D01*
G01X447870Y1997220D02*
X442030Y2005090D01*
X435210Y2009030D01*
X427420Y2010340D01*
X417690Y2007720D01*
X410870Y2001150D01*
X408920Y1993280D01*
X409900Y1985400D01*
X413790Y1978840D01*
X433260Y1965720D01*
X442030Y1956530D01*
X447870Y1943410D01*
X449820Y1931600D01*
X408920D01*
G01X943260Y3988400D02*
Y4067140D01*
X918920D01*
X911130Y4063200D01*
X906260Y4057950D01*
X904320Y4047450D01*
X906260Y4036960D01*
X912110Y4030400D01*
X918920Y4026460D01*
X943260D01*
G01X918920D02*
X904320Y3988400D01*
G01X855370D02*
Y4067140D01*
X867050Y4051390D01*
G01Y3988400D02*
X843690D01*
G01X808370Y4000210D02*
X802530Y3993650D01*
X795710Y3989710D01*
X786950Y3988400D01*
X778190Y3991020D01*
X771370Y3996270D01*
X766500Y4005460D01*
X765530Y4015960D01*
X767480Y4026460D01*
X772350Y4033020D01*
X779160Y4038270D01*
X785980Y4039580D01*
X792790Y4038270D01*
X801550Y4033020D01*
X798630Y4067140D01*
X772350D01*
G01X943260Y3838400D02*
Y3917140D01*
X918920D01*
X911130Y3913200D01*
X906260Y3907950D01*
X904320Y3897450D01*
X906260Y3886960D01*
X912110Y3880400D01*
X918920Y3876460D01*
X943260D01*
G01X918920D02*
X904320Y3838400D01*
G01X855370D02*
Y3917140D01*
X867050Y3901390D01*
G01Y3838400D02*
X843690D01*
G01X805450Y3871210D02*
X798630Y3880400D01*
X792790Y3885640D01*
X785000Y3888270D01*
X778190Y3885640D01*
X773320Y3880400D01*
X769420Y3872520D01*
X768450Y3863330D01*
X769420Y3855460D01*
X773320Y3847580D01*
X779160Y3841020D01*
X785980Y3838400D01*
X793770Y3841020D01*
X800580Y3848900D01*
X804480Y3860710D01*
X805450Y3873830D01*
X803500Y3890890D01*
X800580Y3900080D01*
X795710Y3909270D01*
X788900Y3915830D01*
X782080Y3917140D01*
X775270Y3914520D01*
X770400Y3907950D01*
G01X943260Y3688400D02*
Y3767140D01*
X918920D01*
X911130Y3763200D01*
X906260Y3757950D01*
X904320Y3747450D01*
X906260Y3736960D01*
X912110Y3730400D01*
X918920Y3726460D01*
X943260D01*
G01X918920D02*
X904320Y3688400D01*
G01X855370D02*
Y3767140D01*
X867050Y3751390D01*
G01Y3688400D02*
X843690D01*
G01X788900D02*
X786950Y3705460D01*
X784030Y3719890D01*
X780130Y3733020D01*
X775270Y3747450D01*
X767480Y3767140D01*
X806420D01*
G01X947260Y4291600D02*
Y4370340D01*
X922920D01*
X915130Y4366400D01*
X910260Y4361150D01*
X908320Y4350650D01*
X910260Y4340160D01*
X916110Y4333600D01*
X922920Y4329660D01*
X947260D01*
G01X922920D02*
X908320Y4291600D01*
G01X859370D02*
Y4370340D01*
X871050Y4354590D01*
G01Y4291600D02*
X847690D01*
G01X790950Y4370340D02*
X798740Y4367720D01*
X804580Y4361150D01*
X808480Y4353280D01*
X811400Y4342780D01*
X812370Y4330970D01*
X811400Y4319160D01*
X808480Y4308660D01*
X804580Y4300780D01*
X798740Y4294220D01*
X790950Y4291600D01*
X783160Y4294220D01*
X777320Y4300780D01*
X773420Y4308660D01*
X770500Y4319160D01*
X769530Y4330970D01*
X770500Y4342780D01*
X773420Y4353280D01*
X777320Y4361150D01*
X783160Y4367720D01*
X790950Y4370340D01*
G01X947260Y4441600D02*
Y4520340D01*
X922920D01*
X915130Y4516400D01*
X910260Y4511150D01*
X908320Y4500650D01*
X910260Y4490160D01*
X916110Y4483600D01*
X922920Y4479660D01*
X947260D01*
G01X922920D02*
X908320Y4441600D01*
G01X859370D02*
Y4520340D01*
X871050Y4504590D01*
G01Y4441600D02*
X847690D01*
G01X790950D02*
Y4520340D01*
X802630Y4504590D01*
G01Y4441600D02*
X779270D01*
G01X869370Y4202180D02*
X875210Y4206120D01*
X882030Y4208740D01*
X889820D01*
X898580Y4204800D01*
X905390Y4198240D01*
X910260Y4190370D01*
X914160Y4177240D01*
X915130Y4165430D01*
X913180Y4153620D01*
X910260Y4145750D01*
X904420Y4137870D01*
X897610Y4132620D01*
X890790Y4130000D01*
X883970D01*
X877160Y4132620D01*
X871320Y4136560D01*
X866450Y4141810D01*
G01X822370Y4130000D02*
Y4208740D01*
X834050Y4192990D01*
G01Y4130000D02*
X810690D01*
G01X772450Y4195620D02*
X766610Y4203490D01*
X759790Y4207430D01*
X752000Y4208740D01*
X742270Y4206120D01*
X735450Y4199550D01*
X733500Y4191680D01*
X734480Y4183800D01*
X738370Y4177240D01*
X757840Y4164120D01*
X766610Y4154930D01*
X772450Y4141810D01*
X774400Y4130000D01*
X733500D01*
G01X809370Y5172180D02*
X815210Y5176120D01*
X822030Y5178740D01*
X829820D01*
X838580Y5174800D01*
X845390Y5168240D01*
X850260Y5160370D01*
X854160Y5147240D01*
X855130Y5135430D01*
X853180Y5123620D01*
X850260Y5115750D01*
X844420Y5107870D01*
X837610Y5102620D01*
X830790Y5100000D01*
X823970D01*
X817160Y5102620D01*
X811320Y5106560D01*
X806450Y5111810D01*
G01X762370Y5100000D02*
X755550Y5101310D01*
X747770Y5105250D01*
X742900Y5111810D01*
X740950Y5121000D01*
X742900Y5130180D01*
X748740Y5138060D01*
X757500Y5142000D01*
X767240D01*
X773080Y5144620D01*
X777950Y5151180D01*
X779900Y5160370D01*
X776970Y5169550D01*
X770160Y5176120D01*
X762370Y5178740D01*
X754580Y5176120D01*
X747770Y5169550D01*
X744840Y5160370D01*
X746790Y5151180D01*
X751660Y5144620D01*
X757500Y5142000D01*
X767240D01*
X776000Y5138060D01*
X781840Y5130180D01*
X783790Y5121000D01*
X781840Y5111810D01*
X776970Y5105250D01*
X769190Y5101310D01*
X762370Y5100000D01*
G01X820260Y5640000D02*
Y5718740D01*
X795920D01*
X788130Y5714800D01*
X783260Y5709550D01*
X781320Y5699050D01*
X783260Y5688560D01*
X789110Y5682000D01*
X795920Y5678060D01*
X820260D01*
G01X795920D02*
X781320Y5640000D01*
G01X720690D02*
Y5718740D01*
X756710Y5662310D01*
X708030D01*
G01X809370Y5392180D02*
X815210Y5396120D01*
X822030Y5398740D01*
X829820D01*
X838580Y5394800D01*
X845390Y5388240D01*
X850260Y5380370D01*
X854160Y5367240D01*
X855130Y5355430D01*
X853180Y5343620D01*
X850260Y5335750D01*
X844420Y5327870D01*
X837610Y5322620D01*
X830790Y5320000D01*
X823970D01*
X817160Y5322620D01*
X811320Y5326560D01*
X806450Y5331810D01*
G01X778920Y5329180D02*
X772110Y5322620D01*
X764320Y5320000D01*
X756530Y5322620D01*
X749710Y5330500D01*
X744840Y5342310D01*
X742900Y5354120D01*
Y5368560D01*
X744840Y5380370D01*
X749710Y5390870D01*
X755550Y5396120D01*
X762370Y5398740D01*
X770160Y5396120D01*
X776000Y5390870D01*
X779900Y5382990D01*
X781840Y5372490D01*
X779900Y5363310D01*
X775030Y5354120D01*
X769190Y5348870D01*
X762370Y5347560D01*
X754580Y5350180D01*
X748740Y5356740D01*
X742900Y5368560D01*
G01X820260Y5800000D02*
Y5878740D01*
X795920D01*
X788130Y5874800D01*
X783260Y5869550D01*
X781320Y5859050D01*
X783260Y5848560D01*
X789110Y5842000D01*
X795920Y5838060D01*
X820260D01*
G01X795920D02*
X781320Y5800000D01*
G01X753790Y5815750D02*
X747950Y5806560D01*
X740160Y5801310D01*
X731400Y5800000D01*
X723610Y5801310D01*
X715820Y5807870D01*
X710950Y5815750D01*
X709980Y5823620D01*
X711920Y5832810D01*
X718740Y5839370D01*
X725550Y5842000D01*
X734320D01*
G01X725550D02*
X719710Y5845930D01*
X714840Y5852490D01*
X712900Y5860370D01*
X714840Y5868240D01*
X719710Y5874800D01*
X728480Y5878740D01*
X737240Y5877430D01*
X746000Y5872180D01*
G01X859370Y7042180D02*
X865210Y7046120D01*
X872030Y7048740D01*
X879820D01*
X888580Y7044800D01*
X895390Y7038240D01*
X900260Y7030370D01*
X904160Y7017240D01*
X905130Y7005430D01*
X903180Y6993620D01*
X900260Y6985750D01*
X894420Y6977870D01*
X887610Y6972620D01*
X880790Y6970000D01*
X873970D01*
X867160Y6972620D01*
X861320Y6976560D01*
X856450Y6981810D01*
G01X814320Y6970000D02*
X812370Y6987060D01*
X809450Y7001490D01*
X805550Y7014620D01*
X800690Y7029050D01*
X792900Y7048740D01*
X831840D01*
G01X859370Y7212180D02*
X865210Y7216120D01*
X872030Y7218740D01*
X879820D01*
X888580Y7214800D01*
X895390Y7208240D01*
X900260Y7200370D01*
X904160Y7187240D01*
X905130Y7175430D01*
X903180Y7163620D01*
X900260Y7155750D01*
X894420Y7147870D01*
X887610Y7142620D01*
X880790Y7140000D01*
X873970D01*
X867160Y7142620D01*
X861320Y7146560D01*
X856450Y7151810D01*
G01X830870Y7172810D02*
X824050Y7182000D01*
X818210Y7187240D01*
X810420Y7189870D01*
X803610Y7187240D01*
X798740Y7182000D01*
X794840Y7174120D01*
X793870Y7164930D01*
X794840Y7157060D01*
X798740Y7149180D01*
X804580Y7142620D01*
X811400Y7140000D01*
X819190Y7142620D01*
X826000Y7150500D01*
X829900Y7162310D01*
X830870Y7175430D01*
X828920Y7192490D01*
X826000Y7201680D01*
X821130Y7210870D01*
X814320Y7217430D01*
X807500Y7218740D01*
X800690Y7216120D01*
X795820Y7209550D01*
G01X849370Y7392180D02*
X855210Y7396120D01*
X862030Y7398740D01*
X869820D01*
X878580Y7394800D01*
X885390Y7388240D01*
X890260Y7380370D01*
X894160Y7367240D01*
X895130Y7355430D01*
X893180Y7343620D01*
X890260Y7335750D01*
X884420Y7327870D01*
X877610Y7322620D01*
X870790Y7320000D01*
X863970D01*
X857160Y7322620D01*
X851320Y7326560D01*
X846450Y7331810D01*
G01X823790D02*
X817950Y7325250D01*
X811130Y7321310D01*
X802370Y7320000D01*
X793610Y7322620D01*
X786790Y7327870D01*
X781920Y7337060D01*
X780950Y7347560D01*
X782900Y7358060D01*
X787770Y7364620D01*
X794580Y7369870D01*
X801400Y7371180D01*
X808210Y7369870D01*
X816970Y7364620D01*
X814050Y7398740D01*
X787770D01*
G01X849370Y7582180D02*
X855210Y7586120D01*
X862030Y7588740D01*
X869820D01*
X878580Y7584800D01*
X885390Y7578240D01*
X890260Y7570370D01*
X894160Y7557240D01*
X895130Y7545430D01*
X893180Y7533620D01*
X890260Y7525750D01*
X884420Y7517870D01*
X877610Y7512620D01*
X870790Y7510000D01*
X863970D01*
X857160Y7512620D01*
X851320Y7516560D01*
X846450Y7521810D01*
G01X790690Y7510000D02*
Y7588740D01*
X826710Y7532310D01*
X778030D01*
G01X1369370Y462180D02*
X1375210Y466120D01*
X1382030Y468740D01*
X1389820D01*
X1398580Y464800D01*
X1405390Y458240D01*
X1410260Y450370D01*
X1414160Y437240D01*
X1415130Y425430D01*
X1413180Y413620D01*
X1410260Y405750D01*
X1404420Y397870D01*
X1397610Y392620D01*
X1390790Y390000D01*
X1383970D01*
X1377160Y392620D01*
X1371320Y396560D01*
X1366450Y401810D01*
G01X1340870Y455620D02*
X1335030Y463490D01*
X1328210Y467430D01*
X1320420Y468740D01*
X1310690Y466120D01*
X1303870Y459550D01*
X1301920Y451680D01*
X1302900Y443800D01*
X1306790Y437240D01*
X1326260Y424120D01*
X1335030Y414930D01*
X1340870Y401810D01*
X1342820Y390000D01*
X1301920D01*
G01X1253950Y468740D02*
X1261740Y466120D01*
X1267580Y459550D01*
X1271480Y451680D01*
X1274400Y441180D01*
X1275370Y429370D01*
X1274400Y417560D01*
X1271480Y407060D01*
X1267580Y399180D01*
X1261740Y392620D01*
X1253950Y390000D01*
X1246160Y392620D01*
X1240320Y399180D01*
X1236420Y407060D01*
X1233500Y417560D01*
X1232530Y429370D01*
X1233500Y441180D01*
X1236420Y451680D01*
X1240320Y459550D01*
X1246160Y466120D01*
X1253950Y468740D01*
G01X991590Y1895200D02*
X999380Y1896510D01*
X1006190Y1901760D01*
X1012040Y1909630D01*
X1015930Y1918820D01*
X1017880Y1929320D01*
Y1939820D01*
X1015930Y1950320D01*
X1012040Y1959510D01*
X1006190Y1967380D01*
X999380Y1972630D01*
X991590Y1973940D01*
X983800Y1972630D01*
X976990Y1967380D01*
X971140Y1959510D01*
X967250Y1950320D01*
X965300Y1939820D01*
Y1929320D01*
X967250Y1918820D01*
X971140Y1909630D01*
X976990Y1901760D01*
X983800Y1896510D01*
X991590Y1895200D01*
G01X983800Y1916200D02*
X972120Y1895200D01*
G01X944590Y1910950D02*
X938750Y1901760D01*
X930960Y1896510D01*
X922200Y1895200D01*
X914410Y1896510D01*
X906620Y1903070D01*
X901750Y1910950D01*
X900780Y1918820D01*
X902720Y1928010D01*
X909540Y1934570D01*
X916350Y1937200D01*
X925120D01*
G01X916350D02*
X910510Y1941130D01*
X905640Y1947690D01*
X903700Y1955570D01*
X905640Y1963440D01*
X910510Y1970000D01*
X919280Y1973940D01*
X928040Y1972630D01*
X936800Y1967380D01*
G01X930260Y5940000D02*
Y6018740D01*
X905920D01*
X898130Y6014800D01*
X893260Y6009550D01*
X891320Y5999050D01*
X893260Y5988560D01*
X899110Y5982000D01*
X905920Y5978060D01*
X930260D01*
G01X905920D02*
X891320Y5940000D01*
G01X844320D02*
X842370Y5957060D01*
X839450Y5971490D01*
X835550Y5984620D01*
X830690Y5999050D01*
X822900Y6018740D01*
X861840D01*
G01X968770Y6199180D02*
X974610Y6203120D01*
X981430Y6205740D01*
X989220D01*
X997980Y6201800D01*
X1004790Y6195240D01*
X1009660Y6187370D01*
X1013560Y6174240D01*
X1014530Y6162430D01*
X1012580Y6150620D01*
X1009660Y6142750D01*
X1003820Y6134870D01*
X997010Y6129620D01*
X990190Y6127000D01*
X983370D01*
X976560Y6129620D01*
X970720Y6133560D01*
X965850Y6138810D01*
G01X921770Y6127000D02*
Y6205740D01*
X933450Y6189990D01*
G01Y6127000D02*
X910090D01*
G01X968770Y6389180D02*
X974610Y6393120D01*
X981430Y6395740D01*
X989220D01*
X997980Y6391800D01*
X1004790Y6385240D01*
X1009660Y6377370D01*
X1013560Y6364240D01*
X1014530Y6352430D01*
X1012580Y6340620D01*
X1009660Y6332750D01*
X1003820Y6324870D01*
X997010Y6319620D01*
X990190Y6317000D01*
X983370D01*
X976560Y6319620D01*
X970720Y6323560D01*
X965850Y6328810D01*
G01X940270Y6382620D02*
X934430Y6390490D01*
X927610Y6394430D01*
X919820Y6395740D01*
X910090Y6393120D01*
X903270Y6386550D01*
X901320Y6378680D01*
X902300Y6370800D01*
X906190Y6364240D01*
X925660Y6351120D01*
X934430Y6341930D01*
X940270Y6328810D01*
X942220Y6317000D01*
X901320D01*
G01X1717260Y2061600D02*
Y2140340D01*
X1692920D01*
X1685130Y2136400D01*
X1680260Y2131150D01*
X1678320Y2120650D01*
X1680260Y2110160D01*
X1686110Y2103600D01*
X1692920Y2099660D01*
X1717260D01*
G01X1692920D02*
X1678320Y2061600D01*
G01X1629370D02*
Y2140340D01*
X1641050Y2124590D01*
G01Y2061600D02*
X1617690D01*
G01X1560950D02*
X1554130Y2062910D01*
X1546350Y2066850D01*
X1541480Y2073410D01*
X1539530Y2082600D01*
X1541480Y2091780D01*
X1547320Y2099660D01*
X1556080Y2103600D01*
X1565820D01*
X1571660Y2106220D01*
X1576530Y2112780D01*
X1578480Y2121970D01*
X1575550Y2131150D01*
X1568740Y2137720D01*
X1560950Y2140340D01*
X1553160Y2137720D01*
X1546350Y2131150D01*
X1543420Y2121970D01*
X1545370Y2112780D01*
X1550240Y2106220D01*
X1556080Y2103600D01*
X1565820D01*
X1574580Y2099660D01*
X1580420Y2091780D01*
X1582370Y2082600D01*
X1580420Y2073410D01*
X1575550Y2066850D01*
X1567770Y2062910D01*
X1560950Y2061600D01*
G01X1717260Y2211600D02*
Y2290340D01*
X1692920D01*
X1685130Y2286400D01*
X1680260Y2281150D01*
X1678320Y2270650D01*
X1680260Y2260160D01*
X1686110Y2253600D01*
X1692920Y2249660D01*
X1717260D01*
G01X1692920D02*
X1678320Y2211600D01*
G01X1629370D02*
Y2290340D01*
X1641050Y2274590D01*
G01Y2211600D02*
X1617690D01*
G01X1577500Y2220780D02*
X1570690Y2214220D01*
X1562900Y2211600D01*
X1555110Y2214220D01*
X1548290Y2222100D01*
X1543420Y2233910D01*
X1541480Y2245720D01*
Y2260160D01*
X1543420Y2271970D01*
X1548290Y2282470D01*
X1554130Y2287720D01*
X1560950Y2290340D01*
X1568740Y2287720D01*
X1574580Y2282470D01*
X1578480Y2274590D01*
X1580420Y2264090D01*
X1578480Y2254910D01*
X1573610Y2245720D01*
X1567770Y2240470D01*
X1560950Y2239160D01*
X1553160Y2241780D01*
X1547320Y2248340D01*
X1541480Y2260160D01*
G01X1939370Y4332180D02*
X1945210Y4336120D01*
X1952030Y4338740D01*
X1959820D01*
X1968580Y4334800D01*
X1975390Y4328240D01*
X1980260Y4320370D01*
X1984160Y4307240D01*
X1985130Y4295430D01*
X1983180Y4283620D01*
X1980260Y4275750D01*
X1974420Y4267870D01*
X1967610Y4262620D01*
X1960790Y4260000D01*
X1953970D01*
X1947160Y4262620D01*
X1941320Y4266560D01*
X1936450Y4271810D01*
G01X1913790Y4275750D02*
X1907950Y4266560D01*
X1900160Y4261310D01*
X1891400Y4260000D01*
X1883610Y4261310D01*
X1875820Y4267870D01*
X1870950Y4275750D01*
X1869980Y4283620D01*
X1871920Y4292810D01*
X1878740Y4299370D01*
X1885550Y4302000D01*
X1894320D01*
G01X1885550D02*
X1879710Y4305930D01*
X1874840Y4312490D01*
X1872900Y4320370D01*
X1874840Y4328240D01*
X1879710Y4334800D01*
X1888480Y4338740D01*
X1897240Y4337430D01*
X1906000Y4332180D01*
G01X1823950Y4338740D02*
X1831740Y4336120D01*
X1837580Y4329550D01*
X1841480Y4321680D01*
X1844400Y4311180D01*
X1845370Y4299370D01*
X1844400Y4287560D01*
X1841480Y4277060D01*
X1837580Y4269180D01*
X1831740Y4262620D01*
X1823950Y4260000D01*
X1816160Y4262620D01*
X1810320Y4269180D01*
X1806420Y4277060D01*
X1803500Y4287560D01*
X1802530Y4299370D01*
X1803500Y4311180D01*
X1806420Y4321680D01*
X1810320Y4329550D01*
X1816160Y4336120D01*
X1823950Y4338740D01*
G01X1609370Y4192180D02*
X1615210Y4196120D01*
X1622030Y4198740D01*
X1629820D01*
X1638580Y4194800D01*
X1645390Y4188240D01*
X1650260Y4180370D01*
X1654160Y4167240D01*
X1655130Y4155430D01*
X1653180Y4143620D01*
X1650260Y4135750D01*
X1644420Y4127870D01*
X1637610Y4122620D01*
X1630790Y4120000D01*
X1623970D01*
X1617160Y4122620D01*
X1611320Y4126560D01*
X1606450Y4131810D01*
G01X1583790Y4135750D02*
X1577950Y4126560D01*
X1570160Y4121310D01*
X1561400Y4120000D01*
X1553610Y4121310D01*
X1545820Y4127870D01*
X1540950Y4135750D01*
X1539980Y4143620D01*
X1541920Y4152810D01*
X1548740Y4159370D01*
X1555550Y4162000D01*
X1564320D01*
G01X1555550D02*
X1549710Y4165930D01*
X1544840Y4172490D01*
X1542900Y4180370D01*
X1544840Y4188240D01*
X1549710Y4194800D01*
X1558480Y4198740D01*
X1567240Y4197430D01*
X1576000Y4192180D01*
G01X1510500Y4129180D02*
X1503690Y4122620D01*
X1495900Y4120000D01*
X1488110Y4122620D01*
X1481290Y4130500D01*
X1476420Y4142310D01*
X1474480Y4154120D01*
Y4168560D01*
X1476420Y4180370D01*
X1481290Y4190870D01*
X1487130Y4196120D01*
X1493950Y4198740D01*
X1501740Y4196120D01*
X1507580Y4190870D01*
X1511480Y4182990D01*
X1513420Y4172490D01*
X1511480Y4163310D01*
X1506610Y4154120D01*
X1500770Y4148870D01*
X1493950Y4147560D01*
X1486160Y4150180D01*
X1480320Y4156740D01*
X1474480Y4168560D01*
G01X1859370Y4482180D02*
X1865210Y4486120D01*
X1872030Y4488740D01*
X1879820D01*
X1888580Y4484800D01*
X1895390Y4478240D01*
X1900260Y4470370D01*
X1904160Y4457240D01*
X1905130Y4445430D01*
X1903180Y4433620D01*
X1900260Y4425750D01*
X1894420Y4417870D01*
X1887610Y4412620D01*
X1880790Y4410000D01*
X1873970D01*
X1867160Y4412620D01*
X1861320Y4416560D01*
X1856450Y4421810D01*
G01X1812370Y4410000D02*
Y4488740D01*
X1824050Y4472990D01*
G01Y4410000D02*
X1800690D01*
G01X1760500Y4419180D02*
X1753690Y4412620D01*
X1745900Y4410000D01*
X1738110Y4412620D01*
X1731290Y4420500D01*
X1726420Y4432310D01*
X1724480Y4444120D01*
Y4458560D01*
X1726420Y4470370D01*
X1731290Y4480870D01*
X1737130Y4486120D01*
X1743950Y4488740D01*
X1751740Y4486120D01*
X1757580Y4480870D01*
X1761480Y4472990D01*
X1763420Y4462490D01*
X1761480Y4453310D01*
X1756610Y4444120D01*
X1750770Y4438870D01*
X1743950Y4437560D01*
X1736160Y4440180D01*
X1730320Y4446740D01*
X1724480Y4458560D01*
G01X1959370Y5032180D02*
X1965210Y5036120D01*
X1972030Y5038740D01*
X1979820D01*
X1988580Y5034800D01*
X1995390Y5028240D01*
X2000260Y5020370D01*
X2004160Y5007240D01*
X2005130Y4995430D01*
X2003180Y4983620D01*
X2000260Y4975750D01*
X1994420Y4967870D01*
X1987610Y4962620D01*
X1980790Y4960000D01*
X1973970D01*
X1967160Y4962620D01*
X1961320Y4966560D01*
X1956450Y4971810D01*
G01X1933790Y4975750D02*
X1927950Y4966560D01*
X1920160Y4961310D01*
X1911400Y4960000D01*
X1903610Y4961310D01*
X1895820Y4967870D01*
X1890950Y4975750D01*
X1889980Y4983620D01*
X1891920Y4992810D01*
X1898740Y4999370D01*
X1905550Y5002000D01*
X1914320D01*
G01X1905550D02*
X1899710Y5005930D01*
X1894840Y5012490D01*
X1892900Y5020370D01*
X1894840Y5028240D01*
X1899710Y5034800D01*
X1908480Y5038740D01*
X1917240Y5037430D01*
X1926000Y5032180D01*
G01X1865370Y4971810D02*
X1859530Y4965250D01*
X1852710Y4961310D01*
X1843950Y4960000D01*
X1835190Y4962620D01*
X1828370Y4967870D01*
X1823500Y4977060D01*
X1822530Y4987560D01*
X1824480Y4998060D01*
X1829350Y5004620D01*
X1836160Y5009870D01*
X1842980Y5011180D01*
X1849790Y5009870D01*
X1858550Y5004620D01*
X1855630Y5038740D01*
X1829350D01*
G01X1949370Y5562180D02*
X1955210Y5566120D01*
X1962030Y5568740D01*
X1969820D01*
X1978580Y5564800D01*
X1985390Y5558240D01*
X1990260Y5550370D01*
X1994160Y5537240D01*
X1995130Y5525430D01*
X1993180Y5513620D01*
X1990260Y5505750D01*
X1984420Y5497870D01*
X1977610Y5492620D01*
X1970790Y5490000D01*
X1963970D01*
X1957160Y5492620D01*
X1951320Y5496560D01*
X1946450Y5501810D01*
G01X1923790Y5505750D02*
X1917950Y5496560D01*
X1910160Y5491310D01*
X1901400Y5490000D01*
X1893610Y5491310D01*
X1885820Y5497870D01*
X1880950Y5505750D01*
X1879980Y5513620D01*
X1881920Y5522810D01*
X1888740Y5529370D01*
X1895550Y5532000D01*
X1904320D01*
G01X1895550D02*
X1889710Y5535930D01*
X1884840Y5542490D01*
X1882900Y5550370D01*
X1884840Y5558240D01*
X1889710Y5564800D01*
X1898480Y5568740D01*
X1907240Y5567430D01*
X1916000Y5562180D01*
G01X1822270Y5490000D02*
Y5568740D01*
X1858290Y5512310D01*
X1809610D01*
G01X1900260Y5700000D02*
Y5778740D01*
X1875920D01*
X1868130Y5774800D01*
X1863260Y5769550D01*
X1861320Y5759050D01*
X1863260Y5748560D01*
X1869110Y5742000D01*
X1875920Y5738060D01*
X1900260D01*
G01X1875920D02*
X1861320Y5700000D01*
G01X1833790Y5711810D02*
X1827950Y5705250D01*
X1821130Y5701310D01*
X1812370Y5700000D01*
X1803610Y5702620D01*
X1796790Y5707870D01*
X1791920Y5717060D01*
X1790950Y5727560D01*
X1792900Y5738060D01*
X1797770Y5744620D01*
X1804580Y5749870D01*
X1811400Y5751180D01*
X1818210Y5749870D01*
X1826970Y5744620D01*
X1824050Y5778740D01*
X1797770D01*
G01X1752210Y5980000D02*
Y6058740D01*
X1732740D01*
X1724950Y6054800D01*
X1719110Y6049550D01*
X1714240Y6041680D01*
X1710340Y6032490D01*
X1709370Y6019370D01*
X1710340Y6006250D01*
X1714240Y5997060D01*
X1719110Y5989180D01*
X1724950Y5983940D01*
X1732740Y5980000D01*
X1752210D01*
G01X1662370D02*
Y6058740D01*
X1674050Y6042990D01*
G01Y5980000D02*
X1650690D01*
G01X1593950Y6058740D02*
X1601740Y6056120D01*
X1607580Y6049550D01*
X1611480Y6041680D01*
X1614400Y6031180D01*
X1615370Y6019370D01*
X1614400Y6007560D01*
X1611480Y5997060D01*
X1607580Y5989180D01*
X1601740Y5982620D01*
X1593950Y5980000D01*
X1586160Y5982620D01*
X1580320Y5989180D01*
X1576420Y5997060D01*
X1573500Y6007560D01*
X1572530Y6019370D01*
X1573500Y6031180D01*
X1576420Y6041680D01*
X1580320Y6049550D01*
X1586160Y6056120D01*
X1593950Y6058740D01*
G01X1872210Y7120000D02*
Y7198740D01*
X1852740D01*
X1844950Y7194800D01*
X1839110Y7189550D01*
X1834240Y7181680D01*
X1830340Y7172490D01*
X1829370Y7159370D01*
X1830340Y7146250D01*
X1834240Y7137060D01*
X1839110Y7129180D01*
X1844950Y7123940D01*
X1852740Y7120000D01*
X1872210D01*
G01X1803790Y7135750D02*
X1797950Y7126560D01*
X1790160Y7121310D01*
X1781400Y7120000D01*
X1773610Y7121310D01*
X1765820Y7127870D01*
X1760950Y7135750D01*
X1759980Y7143620D01*
X1761920Y7152810D01*
X1768740Y7159370D01*
X1775550Y7162000D01*
X1784320D01*
G01X1775550D02*
X1769710Y7165930D01*
X1764840Y7172490D01*
X1762900Y7180370D01*
X1764840Y7188240D01*
X1769710Y7194800D01*
X1778480Y7198740D01*
X1787240Y7197430D01*
X1796000Y7192180D01*
G01X1459370Y7532180D02*
X1465210Y7536120D01*
X1472030Y7538740D01*
X1479820D01*
X1488580Y7534800D01*
X1495390Y7528240D01*
X1500260Y7520370D01*
X1504160Y7507240D01*
X1505130Y7495430D01*
X1503180Y7483620D01*
X1500260Y7475750D01*
X1494420Y7467870D01*
X1487610Y7462620D01*
X1480790Y7460000D01*
X1473970D01*
X1467160Y7462620D01*
X1461320Y7466560D01*
X1456450Y7471810D01*
G01X1433790Y7475750D02*
X1427950Y7466560D01*
X1420160Y7461310D01*
X1411400Y7460000D01*
X1403610Y7461310D01*
X1395820Y7467870D01*
X1390950Y7475750D01*
X1389980Y7483620D01*
X1391920Y7492810D01*
X1398740Y7499370D01*
X1405550Y7502000D01*
X1414320D01*
G01X1405550D02*
X1399710Y7505930D01*
X1394840Y7512490D01*
X1392900Y7520370D01*
X1394840Y7528240D01*
X1399710Y7534800D01*
X1408480Y7538740D01*
X1417240Y7537430D01*
X1426000Y7532180D01*
G01X2079370Y5382180D02*
X2085210Y5386120D01*
X2092030Y5388740D01*
X2099820D01*
X2108580Y5384800D01*
X2115390Y5378240D01*
X2120260Y5370370D01*
X2124160Y5357240D01*
X2125130Y5345430D01*
X2123180Y5333620D01*
X2120260Y5325750D01*
X2114420Y5317870D01*
X2107610Y5312620D01*
X2100790Y5310000D01*
X2093970D01*
X2087160Y5312620D01*
X2081320Y5316560D01*
X2076450Y5321810D01*
G01X2032370Y5310000D02*
Y5388740D01*
X2044050Y5372990D01*
G01Y5310000D02*
X2020690D01*
G01X1963950Y5388740D02*
X1971740Y5386120D01*
X1977580Y5379550D01*
X1981480Y5371680D01*
X1984400Y5361180D01*
X1985370Y5349370D01*
X1984400Y5337560D01*
X1981480Y5327060D01*
X1977580Y5319180D01*
X1971740Y5312620D01*
X1963950Y5310000D01*
X1956160Y5312620D01*
X1950320Y5319180D01*
X1946420Y5327060D01*
X1943500Y5337560D01*
X1942530Y5349370D01*
X1943500Y5361180D01*
X1946420Y5371680D01*
X1950320Y5379550D01*
X1956160Y5386120D01*
X1963950Y5388740D01*
G01X2040260Y5700000D02*
Y5778740D01*
X2015920D01*
X2008130Y5774800D01*
X2003260Y5769550D01*
X2001320Y5759050D01*
X2003260Y5748560D01*
X2009110Y5742000D01*
X2015920Y5738060D01*
X2040260D01*
G01X2015920D02*
X2001320Y5700000D01*
G01X1970870Y5732810D02*
X1964050Y5742000D01*
X1958210Y5747240D01*
X1950420Y5749870D01*
X1943610Y5747240D01*
X1938740Y5742000D01*
X1934840Y5734120D01*
X1933870Y5724930D01*
X1934840Y5717060D01*
X1938740Y5709180D01*
X1944580Y5702620D01*
X1951400Y5700000D01*
X1959190Y5702620D01*
X1966000Y5710500D01*
X1969900Y5722310D01*
X1970870Y5735430D01*
X1968920Y5752490D01*
X1966000Y5761680D01*
X1961130Y5770870D01*
X1954320Y5777430D01*
X1947500Y5778740D01*
X1940690Y5776120D01*
X1935820Y5769550D01*
G01X2257820Y6689370D02*
X2253880Y6695210D01*
X2251260Y6702030D01*
Y6709820D01*
X2255200Y6718580D01*
X2261760Y6725390D01*
X2269630Y6730260D01*
X2282760Y6734160D01*
X2294570Y6735130D01*
X2306380Y6733180D01*
X2314250Y6730260D01*
X2322130Y6724420D01*
X2327380Y6717610D01*
X2330000Y6710790D01*
Y6703970D01*
X2327380Y6697160D01*
X2323440Y6691320D01*
X2318190Y6686450D01*
G01X2314250Y6663790D02*
X2323440Y6657950D01*
X2328690Y6650160D01*
X2330000Y6641400D01*
X2328690Y6633610D01*
X2322130Y6625820D01*
X2314250Y6620950D01*
X2306380Y6619980D01*
X2297190Y6621920D01*
X2290630Y6628740D01*
X2288000Y6635550D01*
Y6644320D01*
G01Y6635550D02*
X2284070Y6629710D01*
X2277510Y6624840D01*
X2269630Y6622900D01*
X2261760Y6624840D01*
X2255200Y6629710D01*
X2251260Y6638480D01*
X2252570Y6647240D01*
X2257820Y6656000D01*
G01X2314250Y6595370D02*
X2323440Y6589530D01*
X2328690Y6581740D01*
X2330000Y6572980D01*
X2328690Y6565190D01*
X2322130Y6557400D01*
X2314250Y6552530D01*
X2306380Y6551560D01*
X2297190Y6553500D01*
X2290630Y6560320D01*
X2288000Y6567130D01*
Y6575900D01*
G01Y6567130D02*
X2284070Y6561290D01*
X2277510Y6556420D01*
X2269630Y6554480D01*
X2261760Y6556420D01*
X2255200Y6561290D01*
X2251260Y6570060D01*
X2252570Y6578820D01*
X2257820Y6587580D01*
G01X2417820Y6759370D02*
X2413880Y6765210D01*
X2411260Y6772030D01*
Y6779820D01*
X2415200Y6788580D01*
X2421760Y6795390D01*
X2429630Y6800260D01*
X2442760Y6804160D01*
X2454570Y6805130D01*
X2466380Y6803180D01*
X2474250Y6800260D01*
X2482130Y6794420D01*
X2487380Y6787610D01*
X2490000Y6780790D01*
Y6773970D01*
X2487380Y6767160D01*
X2483440Y6761320D01*
X2478190Y6756450D01*
G01X2424380Y6730870D02*
X2416510Y6725030D01*
X2412570Y6718210D01*
X2411260Y6710420D01*
X2413880Y6700690D01*
X2420450Y6693870D01*
X2428320Y6691920D01*
X2436200Y6692900D01*
X2442760Y6696790D01*
X2455880Y6716260D01*
X2465070Y6725030D01*
X2478190Y6730870D01*
X2490000Y6732820D01*
Y6691920D01*
G01Y6643950D02*
X2411260D01*
X2427010Y6655630D01*
G01X2490000D02*
Y6632270D01*
G01X2330260Y7620000D02*
Y7698740D01*
X2305920D01*
X2298130Y7694800D01*
X2293260Y7689550D01*
X2291320Y7679050D01*
X2293260Y7668560D01*
X2299110Y7662000D01*
X2305920Y7658060D01*
X2330260D01*
G01X2305920D02*
X2291320Y7620000D01*
G01X2242370D02*
X2235550Y7621310D01*
X2227770Y7625250D01*
X2222900Y7631810D01*
X2220950Y7641000D01*
X2222900Y7650180D01*
X2228740Y7658060D01*
X2237500Y7662000D01*
X2247240D01*
X2253080Y7664620D01*
X2257950Y7671180D01*
X2259900Y7680370D01*
X2256970Y7689550D01*
X2250160Y7696120D01*
X2242370Y7698740D01*
X2234580Y7696120D01*
X2227770Y7689550D01*
X2224840Y7680370D01*
X2226790Y7671180D01*
X2231660Y7664620D01*
X2237500Y7662000D01*
X2247240D01*
X2256000Y7658060D01*
X2261840Y7650180D01*
X2263790Y7641000D01*
X2261840Y7631810D01*
X2256970Y7625250D01*
X2249190Y7621310D01*
X2242370Y7620000D01*
G01X2330260Y7460000D02*
Y7538740D01*
X2305920D01*
X2298130Y7534800D01*
X2293260Y7529550D01*
X2291320Y7519050D01*
X2293260Y7508560D01*
X2299110Y7502000D01*
X2305920Y7498060D01*
X2330260D01*
G01X2305920D02*
X2291320Y7460000D01*
G01X2258920Y7469180D02*
X2252110Y7462620D01*
X2244320Y7460000D01*
X2236530Y7462620D01*
X2229710Y7470500D01*
X2224840Y7482310D01*
X2222900Y7494120D01*
Y7508560D01*
X2224840Y7520370D01*
X2229710Y7530870D01*
X2235550Y7536120D01*
X2242370Y7538740D01*
X2250160Y7536120D01*
X2256000Y7530870D01*
X2259900Y7522990D01*
X2261840Y7512490D01*
X2259900Y7503310D01*
X2255030Y7494120D01*
X2249190Y7488870D01*
X2242370Y7487560D01*
X2234580Y7490180D01*
X2228740Y7496740D01*
X2222900Y7508560D01*
G01X3012210Y2528740D02*
Y2472310D01*
X3008320Y2460500D01*
X3000530Y2452620D01*
X2990790Y2450000D01*
X2981050Y2452620D01*
X2973260Y2460500D01*
X2969370Y2472310D01*
Y2528740D01*
G01X2938920Y2459180D02*
X2932110Y2452620D01*
X2924320Y2450000D01*
X2916530Y2452620D01*
X2909710Y2460500D01*
X2904840Y2472310D01*
X2902900Y2484120D01*
Y2498560D01*
X2904840Y2510370D01*
X2909710Y2520870D01*
X2915550Y2526120D01*
X2922370Y2528740D01*
X2930160Y2526120D01*
X2936000Y2520870D01*
X2939900Y2512990D01*
X2941840Y2502490D01*
X2939900Y2493310D01*
X2935030Y2484120D01*
X2929190Y2478870D01*
X2922370Y2477560D01*
X2914580Y2480180D01*
X2908740Y2486740D01*
X2902900Y2498560D01*
G01X2917820Y6659370D02*
X2913880Y6665210D01*
X2911260Y6672030D01*
Y6679820D01*
X2915200Y6688580D01*
X2921760Y6695390D01*
X2929630Y6700260D01*
X2942760Y6704160D01*
X2954570Y6705130D01*
X2966380Y6703180D01*
X2974250Y6700260D01*
X2982130Y6694420D01*
X2987380Y6687610D01*
X2990000Y6680790D01*
Y6673970D01*
X2987380Y6667160D01*
X2983440Y6661320D01*
X2978190Y6656450D01*
G01X2974250Y6633790D02*
X2983440Y6627950D01*
X2988690Y6620160D01*
X2990000Y6611400D01*
X2988690Y6603610D01*
X2982130Y6595820D01*
X2974250Y6590950D01*
X2966380Y6589980D01*
X2957190Y6591920D01*
X2950630Y6598740D01*
X2948000Y6605550D01*
Y6614320D01*
G01Y6605550D02*
X2944070Y6599710D01*
X2937510Y6594840D01*
X2929630Y6592900D01*
X2921760Y6594840D01*
X2915200Y6599710D01*
X2911260Y6608480D01*
X2912570Y6617240D01*
X2917820Y6626000D01*
G01X2957190Y6562450D02*
X2948000Y6555630D01*
X2942760Y6549790D01*
X2940130Y6542000D01*
X2942760Y6535190D01*
X2948000Y6530320D01*
X2955880Y6526420D01*
X2965070Y6525450D01*
X2972940Y6526420D01*
X2980820Y6530320D01*
X2987380Y6536160D01*
X2990000Y6542980D01*
X2987380Y6550770D01*
X2979500Y6557580D01*
X2967690Y6561480D01*
X2954570Y6562450D01*
X2937510Y6560500D01*
X2928320Y6557580D01*
X2919130Y6552710D01*
X2912570Y6545900D01*
X2911260Y6539080D01*
X2913880Y6532270D01*
X2920450Y6527400D01*
G01X3570260Y3028740D02*
Y2950000D01*
X3531320D01*
G01X3503790Y2965750D02*
X3497950Y2956560D01*
X3490160Y2951310D01*
X3481400Y2950000D01*
X3473610Y2951310D01*
X3465820Y2957870D01*
X3460950Y2965750D01*
X3459980Y2973620D01*
X3461920Y2982810D01*
X3468740Y2989370D01*
X3475550Y2992000D01*
X3484320D01*
G01X3475550D02*
X3469710Y2995930D01*
X3464840Y3002490D01*
X3462900Y3010370D01*
X3464840Y3018240D01*
X3469710Y3024800D01*
X3478480Y3028740D01*
X3487240Y3027430D01*
X3496000Y3022180D01*
G01X3549370Y2812180D02*
X3555210Y2816120D01*
X3562030Y2818740D01*
X3569820D01*
X3578580Y2814800D01*
X3585390Y2808240D01*
X3590260Y2800370D01*
X3594160Y2787240D01*
X3595130Y2775430D01*
X3593180Y2763620D01*
X3590260Y2755750D01*
X3584420Y2747870D01*
X3577610Y2742620D01*
X3570790Y2740000D01*
X3563970D01*
X3557160Y2742620D01*
X3551320Y2746560D01*
X3546450Y2751810D01*
G01X3502370Y2740000D02*
Y2818740D01*
X3514050Y2802990D01*
G01Y2740000D02*
X3490690D01*
G01X3433950D02*
Y2818740D01*
X3445630Y2802990D01*
G01Y2740000D02*
X3422270D01*
G01X3037820Y4419370D02*
X3033880Y4425210D01*
X3031260Y4432030D01*
Y4439820D01*
X3035200Y4448580D01*
X3041760Y4455390D01*
X3049630Y4460260D01*
X3062760Y4464160D01*
X3074570Y4465130D01*
X3086380Y4463180D01*
X3094250Y4460260D01*
X3102130Y4454420D01*
X3107380Y4447610D01*
X3110000Y4440790D01*
Y4433970D01*
X3107380Y4427160D01*
X3103440Y4421320D01*
X3098190Y4416450D01*
G01X3044380Y4390870D02*
X3036510Y4385030D01*
X3032570Y4378210D01*
X3031260Y4370420D01*
X3033880Y4360690D01*
X3040450Y4353870D01*
X3048320Y4351920D01*
X3056200Y4352900D01*
X3062760Y4356790D01*
X3075880Y4376260D01*
X3085070Y4385030D01*
X3098190Y4390870D01*
X3110000Y4392820D01*
Y4351920D01*
G01Y4305900D02*
X3092940Y4303950D01*
X3078510Y4301030D01*
X3065380Y4297130D01*
X3050950Y4292270D01*
X3031260Y4284480D01*
Y4323420D01*
G01X3407820Y6639370D02*
X3403880Y6645210D01*
X3401260Y6652030D01*
Y6659820D01*
X3405200Y6668580D01*
X3411760Y6675390D01*
X3419630Y6680260D01*
X3432760Y6684160D01*
X3444570Y6685130D01*
X3456380Y6683180D01*
X3464250Y6680260D01*
X3472130Y6674420D01*
X3477380Y6667610D01*
X3480000Y6660790D01*
Y6653970D01*
X3477380Y6647160D01*
X3473440Y6641320D01*
X3468190Y6636450D01*
G01X3464250Y6613790D02*
X3473440Y6607950D01*
X3478690Y6600160D01*
X3480000Y6591400D01*
X3478690Y6583610D01*
X3472130Y6575820D01*
X3464250Y6570950D01*
X3456380Y6569980D01*
X3447190Y6571920D01*
X3440630Y6578740D01*
X3438000Y6585550D01*
Y6594320D01*
G01Y6585550D02*
X3434070Y6579710D01*
X3427510Y6574840D01*
X3419630Y6572900D01*
X3411760Y6574840D01*
X3405200Y6579710D01*
X3401260Y6588480D01*
X3402570Y6597240D01*
X3407820Y6606000D01*
G01X3480000Y6523950D02*
X3401260D01*
X3417010Y6535630D01*
G01X3480000D02*
Y6512270D01*
G01X3137820Y7389370D02*
X3133880Y7395210D01*
X3131260Y7402030D01*
Y7409820D01*
X3135200Y7418580D01*
X3141760Y7425390D01*
X3149630Y7430260D01*
X3162760Y7434160D01*
X3174570Y7435130D01*
X3186380Y7433180D01*
X3194250Y7430260D01*
X3202130Y7424420D01*
X3207380Y7417610D01*
X3210000Y7410790D01*
Y7403970D01*
X3207380Y7397160D01*
X3203440Y7391320D01*
X3198190Y7386450D01*
G01X3210000Y7342370D02*
X3131260D01*
X3147010Y7354050D01*
G01X3210000D02*
Y7330690D01*
G01Y7273950D02*
X3208690Y7267130D01*
X3204750Y7259350D01*
X3198190Y7254480D01*
X3189000Y7252530D01*
X3179820Y7254480D01*
X3171940Y7260320D01*
X3168000Y7269080D01*
Y7278820D01*
X3165380Y7284660D01*
X3158820Y7289530D01*
X3149630Y7291480D01*
X3140450Y7288550D01*
X3133880Y7281740D01*
X3131260Y7273950D01*
X3133880Y7266160D01*
X3140450Y7259350D01*
X3149630Y7256420D01*
X3158820Y7258370D01*
X3165380Y7263240D01*
X3168000Y7269080D01*
Y7278820D01*
X3171940Y7287580D01*
X3179820Y7293420D01*
X3189000Y7295370D01*
X3198190Y7293420D01*
X3204750Y7288550D01*
X3208690Y7280770D01*
X3210000Y7273950D01*
G01X3089200Y8210000D02*
X3190800D01*
G01X3101260Y8560260D02*
X3180000D01*
Y8521320D01*
G01Y8460690D02*
X3101260D01*
X3157690Y8496710D01*
Y8448030D01*
G01X3297820Y8539370D02*
X3293880Y8545210D01*
X3291260Y8552030D01*
Y8559820D01*
X3295200Y8568580D01*
X3301760Y8575390D01*
X3309630Y8580260D01*
X3322760Y8584160D01*
X3334570Y8585130D01*
X3346380Y8583180D01*
X3354250Y8580260D01*
X3362130Y8574420D01*
X3367380Y8567610D01*
X3370000Y8560790D01*
Y8553970D01*
X3367380Y8547160D01*
X3363440Y8541320D01*
X3358190Y8536450D01*
G01X3370000Y8492370D02*
X3291260D01*
X3307010Y8504050D01*
G01X3370000D02*
Y8480690D01*
G01Y8425900D02*
X3352940Y8423950D01*
X3338510Y8421030D01*
X3325380Y8417130D01*
X3310950Y8412270D01*
X3291260Y8404480D01*
Y8443420D01*
G01X3589370Y8752180D02*
X3595210Y8756120D01*
X3602030Y8758740D01*
X3609820D01*
X3618580Y8754800D01*
X3625390Y8748240D01*
X3630260Y8740370D01*
X3634160Y8727240D01*
X3635130Y8715430D01*
X3633180Y8703620D01*
X3630260Y8695750D01*
X3624420Y8687870D01*
X3617610Y8682620D01*
X3610790Y8680000D01*
X3603970D01*
X3597160Y8682620D01*
X3591320Y8686560D01*
X3586450Y8691810D01*
G01X3560870Y8745620D02*
X3555030Y8753490D01*
X3548210Y8757430D01*
X3540420Y8758740D01*
X3530690Y8756120D01*
X3523870Y8749550D01*
X3521920Y8741680D01*
X3522900Y8733800D01*
X3526790Y8727240D01*
X3546260Y8714120D01*
X3555030Y8704930D01*
X3560870Y8691810D01*
X3562820Y8680000D01*
X3521920D01*
G01X3495370Y8695750D02*
X3489530Y8686560D01*
X3481740Y8681310D01*
X3472980Y8680000D01*
X3465190Y8681310D01*
X3457400Y8687870D01*
X3452530Y8695750D01*
X3451560Y8703620D01*
X3453500Y8712810D01*
X3460320Y8719370D01*
X3467130Y8722000D01*
X3475900D01*
G01X3467130D02*
X3461290Y8725930D01*
X3456420Y8732490D01*
X3454480Y8740370D01*
X3456420Y8748240D01*
X3461290Y8754800D01*
X3470060Y8758740D01*
X3478820Y8757430D01*
X3487580Y8752180D01*
G01X3810000Y3020800D02*
Y2919200D01*
G01X3921600Y4463260D02*
X3842860D01*
Y4438920D01*
X3846800Y4431130D01*
X3852050Y4426260D01*
X3862550Y4424320D01*
X3873040Y4426260D01*
X3879600Y4432110D01*
X3883540Y4438920D01*
Y4463260D01*
G01Y4438920D02*
X3921600Y4424320D01*
G01X3855980Y4393870D02*
X3848110Y4388030D01*
X3844170Y4381210D01*
X3842860Y4373420D01*
X3845480Y4363690D01*
X3852050Y4356870D01*
X3859920Y4354920D01*
X3867800Y4355900D01*
X3874360Y4359790D01*
X3887480Y4379260D01*
X3896670Y4388030D01*
X3909790Y4393870D01*
X3921600Y4395820D01*
Y4354920D01*
G01Y4295270D02*
X3842860D01*
X3899290Y4331290D01*
Y4282610D01*
G01X4070000Y4450260D02*
X3991260D01*
Y4425920D01*
X3995200Y4418130D01*
X4000450Y4413260D01*
X4010950Y4411320D01*
X4021440Y4413260D01*
X4028000Y4419110D01*
X4031940Y4425920D01*
Y4450260D01*
G01Y4425920D02*
X4070000Y4411320D01*
G01X4004380Y4380870D02*
X3996510Y4375030D01*
X3992570Y4368210D01*
X3991260Y4360420D01*
X3993880Y4350690D01*
X4000450Y4343870D01*
X4008320Y4341920D01*
X4016200Y4342900D01*
X4022760Y4346790D01*
X4035880Y4366260D01*
X4045070Y4375030D01*
X4058190Y4380870D01*
X4070000Y4382820D01*
Y4341920D01*
G01X3991260Y4293950D02*
X3993880Y4301740D01*
X4000450Y4307580D01*
X4008320Y4311480D01*
X4018820Y4314400D01*
X4030630Y4315370D01*
X4042440Y4314400D01*
X4052940Y4311480D01*
X4060820Y4307580D01*
X4067380Y4301740D01*
X4070000Y4293950D01*
X4067380Y4286160D01*
X4060820Y4280320D01*
X4052940Y4276420D01*
X4042440Y4273500D01*
X4030630Y4272530D01*
X4018820Y4273500D01*
X4008320Y4276420D01*
X4000450Y4280320D01*
X3993880Y4286160D01*
X3991260Y4293950D01*
G01X3537820Y4429370D02*
X3533880Y4435210D01*
X3531260Y4442030D01*
Y4449820D01*
X3535200Y4458580D01*
X3541760Y4465390D01*
X3549630Y4470260D01*
X3562760Y4474160D01*
X3574570Y4475130D01*
X3586380Y4473180D01*
X3594250Y4470260D01*
X3602130Y4464420D01*
X3607380Y4457610D01*
X3610000Y4450790D01*
Y4443970D01*
X3607380Y4437160D01*
X3603440Y4431320D01*
X3598190Y4426450D01*
G01X3594250Y4403790D02*
X3603440Y4397950D01*
X3608690Y4390160D01*
X3610000Y4381400D01*
X3608690Y4373610D01*
X3602130Y4365820D01*
X3594250Y4360950D01*
X3586380Y4359980D01*
X3577190Y4361920D01*
X3570630Y4368740D01*
X3568000Y4375550D01*
Y4384320D01*
G01Y4375550D02*
X3564070Y4369710D01*
X3557510Y4364840D01*
X3549630Y4362900D01*
X3541760Y4364840D01*
X3535200Y4369710D01*
X3531260Y4378480D01*
X3532570Y4387240D01*
X3537820Y4396000D01*
G01X3610000Y4313950D02*
X3608690Y4307130D01*
X3604750Y4299350D01*
X3598190Y4294480D01*
X3589000Y4292530D01*
X3579820Y4294480D01*
X3571940Y4300320D01*
X3568000Y4309080D01*
Y4318820D01*
X3565380Y4324660D01*
X3558820Y4329530D01*
X3549630Y4331480D01*
X3540450Y4328550D01*
X3533880Y4321740D01*
X3531260Y4313950D01*
X3533880Y4306160D01*
X3540450Y4299350D01*
X3549630Y4296420D01*
X3558820Y4298370D01*
X3565380Y4303240D01*
X3568000Y4309080D01*
Y4318820D01*
X3571940Y4327580D01*
X3579820Y4333420D01*
X3589000Y4335370D01*
X3598190Y4333420D01*
X3604750Y4328550D01*
X3608690Y4320770D01*
X3610000Y4313950D01*
G01X4179370Y5152180D02*
X4185210Y5156120D01*
X4192030Y5158740D01*
X4199820D01*
X4208580Y5154800D01*
X4215390Y5148240D01*
X4220260Y5140370D01*
X4224160Y5127240D01*
X4225130Y5115430D01*
X4223180Y5103620D01*
X4220260Y5095750D01*
X4214420Y5087870D01*
X4207610Y5082620D01*
X4200790Y5080000D01*
X4193970D01*
X4187160Y5082620D01*
X4181320Y5086560D01*
X4176450Y5091810D01*
G01X4150870Y5145620D02*
X4145030Y5153490D01*
X4138210Y5157430D01*
X4130420Y5158740D01*
X4120690Y5156120D01*
X4113870Y5149550D01*
X4111920Y5141680D01*
X4112900Y5133800D01*
X4116790Y5127240D01*
X4136260Y5114120D01*
X4145030Y5104930D01*
X4150870Y5091810D01*
X4152820Y5080000D01*
X4111920D01*
G01X4080500Y5089180D02*
X4073690Y5082620D01*
X4065900Y5080000D01*
X4058110Y5082620D01*
X4051290Y5090500D01*
X4046420Y5102310D01*
X4044480Y5114120D01*
Y5128560D01*
X4046420Y5140370D01*
X4051290Y5150870D01*
X4057130Y5156120D01*
X4063950Y5158740D01*
X4071740Y5156120D01*
X4077580Y5150870D01*
X4081480Y5142990D01*
X4083420Y5132490D01*
X4081480Y5123310D01*
X4076610Y5114120D01*
X4070770Y5108870D01*
X4063950Y5107560D01*
X4056160Y5110180D01*
X4050320Y5116740D01*
X4044480Y5128560D01*
G01X3850260Y5910000D02*
Y5988740D01*
X3825920D01*
X3818130Y5984800D01*
X3813260Y5979550D01*
X3811320Y5969050D01*
X3813260Y5958560D01*
X3819110Y5952000D01*
X3825920Y5948060D01*
X3850260D01*
G01X3825920D02*
X3811320Y5910000D01*
G01X3783790Y5925750D02*
X3777950Y5916560D01*
X3770160Y5911310D01*
X3761400Y5910000D01*
X3753610Y5911310D01*
X3745820Y5917870D01*
X3740950Y5925750D01*
X3739980Y5933620D01*
X3741920Y5942810D01*
X3748740Y5949370D01*
X3755550Y5952000D01*
X3764320D01*
G01X3755550D02*
X3749710Y5955930D01*
X3744840Y5962490D01*
X3742900Y5970370D01*
X3744840Y5978240D01*
X3749710Y5984800D01*
X3758480Y5988740D01*
X3767240Y5987430D01*
X3776000Y5982180D01*
G01X3715370Y5925750D02*
X3709530Y5916560D01*
X3701740Y5911310D01*
X3692980Y5910000D01*
X3685190Y5911310D01*
X3677400Y5917870D01*
X3672530Y5925750D01*
X3671560Y5933620D01*
X3673500Y5942810D01*
X3680320Y5949370D01*
X3687130Y5952000D01*
X3695900D01*
G01X3687130D02*
X3681290Y5955930D01*
X3676420Y5962490D01*
X3674480Y5970370D01*
X3676420Y5978240D01*
X3681290Y5984800D01*
X3690060Y5988740D01*
X3698820Y5987430D01*
X3707580Y5982180D01*
G01X3809370Y5832180D02*
X3815210Y5836120D01*
X3822030Y5838740D01*
X3829820D01*
X3838580Y5834800D01*
X3845390Y5828240D01*
X3850260Y5820370D01*
X3854160Y5807240D01*
X3855130Y5795430D01*
X3853180Y5783620D01*
X3850260Y5775750D01*
X3844420Y5767870D01*
X3837610Y5762620D01*
X3830790Y5760000D01*
X3823970D01*
X3817160Y5762620D01*
X3811320Y5766560D01*
X3806450Y5771810D01*
G01X3780870Y5825620D02*
X3775030Y5833490D01*
X3768210Y5837430D01*
X3760420Y5838740D01*
X3750690Y5836120D01*
X3743870Y5829550D01*
X3741920Y5821680D01*
X3742900Y5813800D01*
X3746790Y5807240D01*
X3766260Y5794120D01*
X3775030Y5784930D01*
X3780870Y5771810D01*
X3782820Y5760000D01*
X3741920D01*
G01X3712450Y5792810D02*
X3705630Y5802000D01*
X3699790Y5807240D01*
X3692000Y5809870D01*
X3685190Y5807240D01*
X3680320Y5802000D01*
X3676420Y5794120D01*
X3675450Y5784930D01*
X3676420Y5777060D01*
X3680320Y5769180D01*
X3686160Y5762620D01*
X3692980Y5760000D01*
X3700770Y5762620D01*
X3707580Y5770500D01*
X3711480Y5782310D01*
X3712450Y5795430D01*
X3710500Y5812490D01*
X3707580Y5821680D01*
X3702710Y5830870D01*
X3695900Y5837430D01*
X3689080Y5838740D01*
X3682270Y5836120D01*
X3677400Y5829550D01*
G01X4000000Y6690260D02*
X3921260D01*
Y6665920D01*
X3925200Y6658130D01*
X3930450Y6653260D01*
X3940950Y6651320D01*
X3951440Y6653260D01*
X3958000Y6659110D01*
X3961940Y6665920D01*
Y6690260D01*
G01Y6665920D02*
X4000000Y6651320D01*
G01X3934380Y6620870D02*
X3926510Y6615030D01*
X3922570Y6608210D01*
X3921260Y6600420D01*
X3923880Y6590690D01*
X3930450Y6583870D01*
X3938320Y6581920D01*
X3946200Y6582900D01*
X3952760Y6586790D01*
X3965880Y6606260D01*
X3975070Y6615030D01*
X3988190Y6620870D01*
X4000000Y6622820D01*
Y6581920D01*
G01X3990820Y6550500D02*
X3997380Y6543690D01*
X4000000Y6535900D01*
X3997380Y6528110D01*
X3989500Y6521290D01*
X3977690Y6516420D01*
X3965880Y6514480D01*
X3951440D01*
X3939630Y6516420D01*
X3929130Y6521290D01*
X3923880Y6527130D01*
X3921260Y6533950D01*
X3923880Y6541740D01*
X3929130Y6547580D01*
X3937010Y6551480D01*
X3947510Y6553420D01*
X3956690Y6551480D01*
X3965880Y6546610D01*
X3971130Y6540770D01*
X3972440Y6533950D01*
X3969820Y6526160D01*
X3963260Y6520320D01*
X3951440Y6514480D01*
G01X3770000Y8560260D02*
X3691260D01*
Y8535920D01*
X3695200Y8528130D01*
X3700450Y8523260D01*
X3710950Y8521320D01*
X3721440Y8523260D01*
X3728000Y8529110D01*
X3731940Y8535920D01*
Y8560260D01*
G01Y8535920D02*
X3770000Y8521320D01*
G01X3704380Y8490870D02*
X3696510Y8485030D01*
X3692570Y8478210D01*
X3691260Y8470420D01*
X3693880Y8460690D01*
X3700450Y8453870D01*
X3708320Y8451920D01*
X3716200Y8452900D01*
X3722760Y8456790D01*
X3735880Y8476260D01*
X3745070Y8485030D01*
X3758190Y8490870D01*
X3770000Y8492820D01*
Y8451920D01*
G01Y8405900D02*
X3752940Y8403950D01*
X3738510Y8401030D01*
X3725380Y8397130D01*
X3710950Y8392270D01*
X3691260Y8384480D01*
Y8423420D01*
G01X3937970Y8753780D02*
X3943810Y8757720D01*
X3950630Y8760340D01*
X3958420D01*
X3967180Y8756400D01*
X3973990Y8749840D01*
X3978860Y8741970D01*
X3982760Y8728840D01*
X3983730Y8717030D01*
X3981780Y8705220D01*
X3978860Y8697350D01*
X3973020Y8689470D01*
X3966210Y8684220D01*
X3959390Y8681600D01*
X3952570D01*
X3945760Y8684220D01*
X3939920Y8688160D01*
X3935050Y8693410D01*
G01X3909470Y8747220D02*
X3903630Y8755090D01*
X3896810Y8759030D01*
X3889020Y8760340D01*
X3879290Y8757720D01*
X3872470Y8751150D01*
X3870520Y8743280D01*
X3871500Y8735400D01*
X3875390Y8728840D01*
X3894860Y8715720D01*
X3903630Y8706530D01*
X3909470Y8693410D01*
X3911420Y8681600D01*
X3870520D01*
G01X3841050Y8747220D02*
X3835210Y8755090D01*
X3828390Y8759030D01*
X3820600Y8760340D01*
X3810870Y8757720D01*
X3804050Y8751150D01*
X3802100Y8743280D01*
X3803080Y8735400D01*
X3806970Y8728840D01*
X3826440Y8715720D01*
X3835210Y8706530D01*
X3841050Y8693410D01*
X3843000Y8681600D01*
X3802100D01*
G01X4350260Y920000D02*
Y998740D01*
X4325920D01*
X4318130Y994800D01*
X4313260Y989550D01*
X4311320Y979050D01*
X4313260Y968560D01*
X4319110Y962000D01*
X4325920Y958060D01*
X4350260D01*
G01X4325920D02*
X4311320Y920000D01*
G01X4283790Y935750D02*
X4277950Y926560D01*
X4270160Y921310D01*
X4261400Y920000D01*
X4253610Y921310D01*
X4245820Y927870D01*
X4240950Y935750D01*
X4239980Y943620D01*
X4241920Y952810D01*
X4248740Y959370D01*
X4255550Y962000D01*
X4264320D01*
G01X4255550D02*
X4249710Y965930D01*
X4244840Y972490D01*
X4242900Y980370D01*
X4244840Y988240D01*
X4249710Y994800D01*
X4258480Y998740D01*
X4267240Y997430D01*
X4276000Y992180D01*
G01X4193950Y998740D02*
X4201740Y996120D01*
X4207580Y989550D01*
X4211480Y981680D01*
X4214400Y971180D01*
X4215370Y959370D01*
X4214400Y947560D01*
X4211480Y937060D01*
X4207580Y929180D01*
X4201740Y922620D01*
X4193950Y920000D01*
X4186160Y922620D01*
X4180320Y929180D01*
X4176420Y937060D01*
X4173500Y947560D01*
X4172530Y959370D01*
X4173500Y971180D01*
X4176420Y981680D01*
X4180320Y989550D01*
X4186160Y996120D01*
X4193950Y998740D01*
G01X4657260Y921600D02*
Y1000340D01*
X4632920D01*
X4625130Y996400D01*
X4620260Y991150D01*
X4618320Y980650D01*
X4620260Y970160D01*
X4626110Y963600D01*
X4632920Y959660D01*
X4657260D01*
G01X4632920D02*
X4618320Y921600D01*
G01X4590790Y937350D02*
X4584950Y928160D01*
X4577160Y922910D01*
X4568400Y921600D01*
X4560610Y922910D01*
X4552820Y929470D01*
X4547950Y937350D01*
X4546980Y945220D01*
X4548920Y954410D01*
X4555740Y960970D01*
X4562550Y963600D01*
X4571320D01*
G01X4562550D02*
X4556710Y967530D01*
X4551840Y974090D01*
X4549900Y981970D01*
X4551840Y989840D01*
X4556710Y996400D01*
X4565480Y1000340D01*
X4574240Y999030D01*
X4583000Y993780D01*
G01X4500950Y921600D02*
Y1000340D01*
X4512630Y984590D01*
G01Y921600D02*
X4489270D01*
G01X4422210Y1710000D02*
Y1788740D01*
X4402740D01*
X4394950Y1784800D01*
X4389110Y1779550D01*
X4384240Y1771680D01*
X4380340Y1762490D01*
X4379370Y1749370D01*
X4380340Y1736250D01*
X4384240Y1727060D01*
X4389110Y1719180D01*
X4394950Y1713940D01*
X4402740Y1710000D01*
X4422210D01*
G01X4348920Y1719180D02*
X4342110Y1712620D01*
X4334320Y1710000D01*
X4326530Y1712620D01*
X4319710Y1720500D01*
X4314840Y1732310D01*
X4312900Y1744120D01*
Y1758560D01*
X4314840Y1770370D01*
X4319710Y1780870D01*
X4325550Y1786120D01*
X4332370Y1788740D01*
X4340160Y1786120D01*
X4346000Y1780870D01*
X4349900Y1772990D01*
X4351840Y1762490D01*
X4349900Y1753310D01*
X4345030Y1744120D01*
X4339190Y1738870D01*
X4332370Y1737560D01*
X4324580Y1740180D01*
X4318740Y1746740D01*
X4312900Y1758560D01*
G01X4392210Y3310000D02*
Y3388740D01*
X4372740D01*
X4364950Y3384800D01*
X4359110Y3379550D01*
X4354240Y3371680D01*
X4350340Y3362490D01*
X4349370Y3349370D01*
X4350340Y3336250D01*
X4354240Y3327060D01*
X4359110Y3319180D01*
X4364950Y3313940D01*
X4372740Y3310000D01*
X4392210D01*
G01X4304320D02*
X4302370Y3327060D01*
X4299450Y3341490D01*
X4295550Y3354620D01*
X4290690Y3369050D01*
X4282900Y3388740D01*
X4321840D01*
G01X4559370Y3552180D02*
X4565210Y3556120D01*
X4572030Y3558740D01*
X4579820D01*
X4588580Y3554800D01*
X4595390Y3548240D01*
X4600260Y3540370D01*
X4604160Y3527240D01*
X4605130Y3515430D01*
X4603180Y3503620D01*
X4600260Y3495750D01*
X4594420Y3487870D01*
X4587610Y3482620D01*
X4580790Y3480000D01*
X4573970D01*
X4567160Y3482620D01*
X4561320Y3486560D01*
X4556450Y3491810D01*
G01X4512370Y3480000D02*
Y3558740D01*
X4524050Y3542990D01*
G01Y3480000D02*
X4500690D01*
G01X4432270D02*
Y3558740D01*
X4468290Y3502310D01*
X4419610D01*
G01X4147820Y4419370D02*
X4143880Y4425210D01*
X4141260Y4432030D01*
Y4439820D01*
X4145200Y4448580D01*
X4151760Y4455390D01*
X4159630Y4460260D01*
X4172760Y4464160D01*
X4184570Y4465130D01*
X4196380Y4463180D01*
X4204250Y4460260D01*
X4212130Y4454420D01*
X4217380Y4447610D01*
X4220000Y4440790D01*
Y4433970D01*
X4217380Y4427160D01*
X4213440Y4421320D01*
X4208190Y4416450D01*
G01X4204250Y4393790D02*
X4213440Y4387950D01*
X4218690Y4380160D01*
X4220000Y4371400D01*
X4218690Y4363610D01*
X4212130Y4355820D01*
X4204250Y4350950D01*
X4196380Y4349980D01*
X4187190Y4351920D01*
X4180630Y4358740D01*
X4178000Y4365550D01*
Y4374320D01*
G01Y4365550D02*
X4174070Y4359710D01*
X4167510Y4354840D01*
X4159630Y4352900D01*
X4151760Y4354840D01*
X4145200Y4359710D01*
X4141260Y4368480D01*
X4142570Y4377240D01*
X4147820Y4386000D01*
G01X4220000Y4305900D02*
X4202940Y4303950D01*
X4188510Y4301030D01*
X4175380Y4297130D01*
X4160950Y4292270D01*
X4141260Y4284480D01*
Y4323420D01*
G01X4530260Y5620000D02*
Y5698740D01*
X4505920D01*
X4498130Y5694800D01*
X4493260Y5689550D01*
X4491320Y5679050D01*
X4493260Y5668560D01*
X4499110Y5662000D01*
X4505920Y5658060D01*
X4530260D01*
G01X4505920D02*
X4491320Y5620000D01*
G01X4460870Y5685620D02*
X4455030Y5693490D01*
X4448210Y5697430D01*
X4440420Y5698740D01*
X4430690Y5696120D01*
X4423870Y5689550D01*
X4421920Y5681680D01*
X4422900Y5673800D01*
X4426790Y5667240D01*
X4446260Y5654120D01*
X4455030Y5644930D01*
X4460870Y5631810D01*
X4462820Y5620000D01*
X4421920D01*
G01X4373950D02*
X4367130Y5621310D01*
X4359350Y5625250D01*
X4354480Y5631810D01*
X4352530Y5641000D01*
X4354480Y5650180D01*
X4360320Y5658060D01*
X4369080Y5662000D01*
X4378820D01*
X4384660Y5664620D01*
X4389530Y5671180D01*
X4391480Y5680370D01*
X4388550Y5689550D01*
X4381740Y5696120D01*
X4373950Y5698740D01*
X4366160Y5696120D01*
X4359350Y5689550D01*
X4356420Y5680370D01*
X4358370Y5671180D01*
X4363240Y5664620D01*
X4369080Y5662000D01*
X4378820D01*
X4387580Y5658060D01*
X4393420Y5650180D01*
X4395370Y5641000D01*
X4393420Y5631810D01*
X4388550Y5625250D01*
X4380770Y5621310D01*
X4373950Y5620000D01*
G01X4489370Y5582180D02*
X4495210Y5586120D01*
X4502030Y5588740D01*
X4509820D01*
X4518580Y5584800D01*
X4525390Y5578240D01*
X4530260Y5570370D01*
X4534160Y5557240D01*
X4535130Y5545430D01*
X4533180Y5533620D01*
X4530260Y5525750D01*
X4524420Y5517870D01*
X4517610Y5512620D01*
X4510790Y5510000D01*
X4503970D01*
X4497160Y5512620D01*
X4491320Y5516560D01*
X4486450Y5521810D01*
G01X4463790Y5525750D02*
X4457950Y5516560D01*
X4450160Y5511310D01*
X4441400Y5510000D01*
X4433610Y5511310D01*
X4425820Y5517870D01*
X4420950Y5525750D01*
X4419980Y5533620D01*
X4421920Y5542810D01*
X4428740Y5549370D01*
X4435550Y5552000D01*
X4444320D01*
G01X4435550D02*
X4429710Y5555930D01*
X4424840Y5562490D01*
X4422900Y5570370D01*
X4424840Y5578240D01*
X4429710Y5584800D01*
X4438480Y5588740D01*
X4447240Y5587430D01*
X4456000Y5582180D01*
G01X4392450Y5575620D02*
X4386610Y5583490D01*
X4379790Y5587430D01*
X4372000Y5588740D01*
X4362270Y5586120D01*
X4355450Y5579550D01*
X4353500Y5571680D01*
X4354480Y5563800D01*
X4358370Y5557240D01*
X4377840Y5544120D01*
X4386610Y5534930D01*
X4392450Y5521810D01*
X4394400Y5510000D01*
X4353500D01*
G01X4480000Y6069200D02*
Y6170800D01*
G01X4420260Y6328740D02*
Y6250000D01*
X4381320D01*
G01X4353790Y6261810D02*
X4347950Y6255250D01*
X4341130Y6251310D01*
X4332370Y6250000D01*
X4323610Y6252620D01*
X4316790Y6257870D01*
X4311920Y6267060D01*
X4310950Y6277560D01*
X4312900Y6288060D01*
X4317770Y6294620D01*
X4324580Y6299870D01*
X4331400Y6301180D01*
X4338210Y6299870D01*
X4346970Y6294620D01*
X4344050Y6328740D01*
X4317770D01*
G01X4077820Y6659370D02*
X4073880Y6665210D01*
X4071260Y6672030D01*
Y6679820D01*
X4075200Y6688580D01*
X4081760Y6695390D01*
X4089630Y6700260D01*
X4102760Y6704160D01*
X4114570Y6705130D01*
X4126380Y6703180D01*
X4134250Y6700260D01*
X4142130Y6694420D01*
X4147380Y6687610D01*
X4150000Y6680790D01*
Y6673970D01*
X4147380Y6667160D01*
X4143440Y6661320D01*
X4138190Y6656450D01*
G01X4084380Y6630870D02*
X4076510Y6625030D01*
X4072570Y6618210D01*
X4071260Y6610420D01*
X4073880Y6600690D01*
X4080450Y6593870D01*
X4088320Y6591920D01*
X4096200Y6592900D01*
X4102760Y6596790D01*
X4115880Y6616260D01*
X4125070Y6625030D01*
X4138190Y6630870D01*
X4150000Y6632820D01*
Y6591920D01*
G01Y6543950D02*
X4148690Y6537130D01*
X4144750Y6529350D01*
X4138190Y6524480D01*
X4129000Y6522530D01*
X4119820Y6524480D01*
X4111940Y6530320D01*
X4108000Y6539080D01*
Y6548820D01*
X4105380Y6554660D01*
X4098820Y6559530D01*
X4089630Y6561480D01*
X4080450Y6558550D01*
X4073880Y6551740D01*
X4071260Y6543950D01*
X4073880Y6536160D01*
X4080450Y6529350D01*
X4089630Y6526420D01*
X4098820Y6528370D01*
X4105380Y6533240D01*
X4108000Y6539080D01*
Y6548820D01*
X4111940Y6557580D01*
X4119820Y6563420D01*
X4129000Y6565370D01*
X4138190Y6563420D01*
X4144750Y6558550D01*
X4148690Y6550770D01*
X4150000Y6543950D01*
G01X4610260Y6920000D02*
Y6998740D01*
X4585920D01*
X4578130Y6994800D01*
X4573260Y6989550D01*
X4571320Y6979050D01*
X4573260Y6968560D01*
X4579110Y6962000D01*
X4585920Y6958060D01*
X4610260D01*
G01X4585920D02*
X4571320Y6920000D01*
G01X4540870Y6985620D02*
X4535030Y6993490D01*
X4528210Y6997430D01*
X4520420Y6998740D01*
X4510690Y6996120D01*
X4503870Y6989550D01*
X4501920Y6981680D01*
X4502900Y6973800D01*
X4506790Y6967240D01*
X4526260Y6954120D01*
X4535030Y6944930D01*
X4540870Y6931810D01*
X4542820Y6920000D01*
X4501920D01*
G01X4453950D02*
Y6998740D01*
X4465630Y6982990D01*
G01Y6920000D02*
X4442270D01*
G01X4600260Y7670000D02*
Y7748740D01*
X4575920D01*
X4568130Y7744800D01*
X4563260Y7739550D01*
X4561320Y7729050D01*
X4563260Y7718560D01*
X4569110Y7712000D01*
X4575920Y7708060D01*
X4600260D01*
G01X4575920D02*
X4561320Y7670000D01*
G01X4530870Y7735620D02*
X4525030Y7743490D01*
X4518210Y7747430D01*
X4510420Y7748740D01*
X4500690Y7746120D01*
X4493870Y7739550D01*
X4491920Y7731680D01*
X4492900Y7723800D01*
X4496790Y7717240D01*
X4516260Y7704120D01*
X4525030Y7694930D01*
X4530870Y7681810D01*
X4532820Y7670000D01*
X4491920D01*
G01X4462450Y7735620D02*
X4456610Y7743490D01*
X4449790Y7747430D01*
X4442000Y7748740D01*
X4432270Y7746120D01*
X4425450Y7739550D01*
X4423500Y7731680D01*
X4424480Y7723800D01*
X4428370Y7717240D01*
X4447840Y7704120D01*
X4456610Y7694930D01*
X4462450Y7681810D01*
X4464400Y7670000D01*
X4423500D01*
G01X4600260Y7430000D02*
Y7508740D01*
X4575920D01*
X4568130Y7504800D01*
X4563260Y7499550D01*
X4561320Y7489050D01*
X4563260Y7478560D01*
X4569110Y7472000D01*
X4575920Y7468060D01*
X4600260D01*
G01X4575920D02*
X4561320Y7430000D01*
G01X4530870Y7495620D02*
X4525030Y7503490D01*
X4518210Y7507430D01*
X4510420Y7508740D01*
X4500690Y7506120D01*
X4493870Y7499550D01*
X4491920Y7491680D01*
X4492900Y7483800D01*
X4496790Y7477240D01*
X4516260Y7464120D01*
X4525030Y7454930D01*
X4530870Y7441810D01*
X4532820Y7430000D01*
X4491920D01*
G01X4462450Y7462810D02*
X4455630Y7472000D01*
X4449790Y7477240D01*
X4442000Y7479870D01*
X4435190Y7477240D01*
X4430320Y7472000D01*
X4426420Y7464120D01*
X4425450Y7454930D01*
X4426420Y7447060D01*
X4430320Y7439180D01*
X4436160Y7432620D01*
X4442980Y7430000D01*
X4450770Y7432620D01*
X4457580Y7440500D01*
X4461480Y7452310D01*
X4462450Y7465430D01*
X4460500Y7482490D01*
X4457580Y7491680D01*
X4452710Y7500870D01*
X4445900Y7507430D01*
X4439080Y7508740D01*
X4432270Y7506120D01*
X4427400Y7499550D01*
G01X4597260Y8161600D02*
Y8240340D01*
X4572920D01*
X4565130Y8236400D01*
X4560260Y8231150D01*
X4558320Y8220650D01*
X4560260Y8210160D01*
X4566110Y8203600D01*
X4572920Y8199660D01*
X4597260D01*
G01X4572920D02*
X4558320Y8161600D01*
G01X4527870Y8227220D02*
X4522030Y8235090D01*
X4515210Y8239030D01*
X4507420Y8240340D01*
X4497690Y8237720D01*
X4490870Y8231150D01*
X4488920Y8223280D01*
X4489900Y8215400D01*
X4493790Y8208840D01*
X4513260Y8195720D01*
X4522030Y8186530D01*
X4527870Y8173410D01*
X4529820Y8161600D01*
X4488920D01*
G01X4462370Y8173410D02*
X4456530Y8166850D01*
X4449710Y8162910D01*
X4440950Y8161600D01*
X4432190Y8164220D01*
X4425370Y8169470D01*
X4420500Y8178660D01*
X4419530Y8189160D01*
X4421480Y8199660D01*
X4426350Y8206220D01*
X4433160Y8211470D01*
X4439980Y8212780D01*
X4446790Y8211470D01*
X4455550Y8206220D01*
X4452630Y8240340D01*
X4426350D01*
G01X4597260Y7911600D02*
Y7990340D01*
X4572920D01*
X4565130Y7986400D01*
X4560260Y7981150D01*
X4558320Y7970650D01*
X4560260Y7960160D01*
X4566110Y7953600D01*
X4572920Y7949660D01*
X4597260D01*
G01X4572920D02*
X4558320Y7911600D01*
G01X4527870Y7977220D02*
X4522030Y7985090D01*
X4515210Y7989030D01*
X4507420Y7990340D01*
X4497690Y7987720D01*
X4490870Y7981150D01*
X4488920Y7973280D01*
X4489900Y7965400D01*
X4493790Y7958840D01*
X4513260Y7945720D01*
X4522030Y7936530D01*
X4527870Y7923410D01*
X4529820Y7911600D01*
X4488920D01*
G01X4462370Y7927350D02*
X4456530Y7918160D01*
X4448740Y7912910D01*
X4439980Y7911600D01*
X4432190Y7912910D01*
X4424400Y7919470D01*
X4419530Y7927350D01*
X4418560Y7935220D01*
X4420500Y7944410D01*
X4427320Y7950970D01*
X4434130Y7953600D01*
X4442900D01*
G01X4434130D02*
X4428290Y7957530D01*
X4423420Y7964090D01*
X4421480Y7971970D01*
X4423420Y7979840D01*
X4428290Y7986400D01*
X4437060Y7990340D01*
X4445820Y7989030D01*
X4454580Y7983780D01*
G01X4317970Y8763780D02*
X4323810Y8767720D01*
X4330630Y8770340D01*
X4338420D01*
X4347180Y8766400D01*
X4353990Y8759840D01*
X4358860Y8751970D01*
X4362760Y8738840D01*
X4363730Y8727030D01*
X4361780Y8715220D01*
X4358860Y8707350D01*
X4353020Y8699470D01*
X4346210Y8694220D01*
X4339390Y8691600D01*
X4332570D01*
X4325760Y8694220D01*
X4319920Y8698160D01*
X4315050Y8703410D01*
G01X4289470Y8757220D02*
X4283630Y8765090D01*
X4276810Y8769030D01*
X4269020Y8770340D01*
X4259290Y8767720D01*
X4252470Y8761150D01*
X4250520Y8753280D01*
X4251500Y8745400D01*
X4255390Y8738840D01*
X4274860Y8725720D01*
X4283630Y8716530D01*
X4289470Y8703410D01*
X4291420Y8691600D01*
X4250520D01*
G01X4190870D02*
Y8770340D01*
X4226890Y8713910D01*
X4178210D01*
G01X4723010Y1437000D02*
Y1515740D01*
X4703540D01*
X4695750Y1511800D01*
X4689910Y1506550D01*
X4685040Y1498680D01*
X4681140Y1489490D01*
X4680170Y1476370D01*
X4681140Y1463250D01*
X4685040Y1454060D01*
X4689910Y1446180D01*
X4695750Y1440940D01*
X4703540Y1437000D01*
X4723010D01*
G01X4633170D02*
X4626350Y1438310D01*
X4618570Y1442250D01*
X4613700Y1448810D01*
X4611750Y1458000D01*
X4613700Y1467180D01*
X4619540Y1475060D01*
X4628300Y1479000D01*
X4638040D01*
X4643880Y1481620D01*
X4648750Y1488180D01*
X4650700Y1497370D01*
X4647770Y1506550D01*
X4640960Y1513120D01*
X4633170Y1515740D01*
X4625380Y1513120D01*
X4618570Y1506550D01*
X4615640Y1497370D01*
X4617590Y1488180D01*
X4622460Y1481620D01*
X4628300Y1479000D01*
X4638040D01*
X4646800Y1475060D01*
X4652640Y1467180D01*
X4654590Y1458000D01*
X4652640Y1448810D01*
X4647770Y1442250D01*
X4639990Y1438310D01*
X4633170Y1437000D01*
G01X5150260Y5950000D02*
Y6028740D01*
X5125920D01*
X5118130Y6024800D01*
X5113260Y6019550D01*
X5111320Y6009050D01*
X5113260Y5998560D01*
X5119110Y5992000D01*
X5125920Y5988060D01*
X5150260D01*
G01X5125920D02*
X5111320Y5950000D01*
G01X5083790Y5965750D02*
X5077950Y5956560D01*
X5070160Y5951310D01*
X5061400Y5950000D01*
X5053610Y5951310D01*
X5045820Y5957870D01*
X5040950Y5965750D01*
X5039980Y5973620D01*
X5041920Y5982810D01*
X5048740Y5989370D01*
X5055550Y5992000D01*
X5064320D01*
G01X5055550D02*
X5049710Y5995930D01*
X5044840Y6002490D01*
X5042900Y6010370D01*
X5044840Y6018240D01*
X5049710Y6024800D01*
X5058480Y6028740D01*
X5067240Y6027430D01*
X5076000Y6022180D01*
G01X5012450Y6015620D02*
X5006610Y6023490D01*
X4999790Y6027430D01*
X4992000Y6028740D01*
X4982270Y6026120D01*
X4975450Y6019550D01*
X4973500Y6011680D01*
X4974480Y6003800D01*
X4978370Y5997240D01*
X4997840Y5984120D01*
X5006610Y5974930D01*
X5012450Y5961810D01*
X5014400Y5950000D01*
X4973500D01*
G01X5119370Y5902180D02*
X5125210Y5906120D01*
X5132030Y5908740D01*
X5139820D01*
X5148580Y5904800D01*
X5155390Y5898240D01*
X5160260Y5890370D01*
X5164160Y5877240D01*
X5165130Y5865430D01*
X5163180Y5853620D01*
X5160260Y5845750D01*
X5154420Y5837870D01*
X5147610Y5832620D01*
X5140790Y5830000D01*
X5133970D01*
X5127160Y5832620D01*
X5121320Y5836560D01*
X5116450Y5841810D01*
G01X5090870Y5895620D02*
X5085030Y5903490D01*
X5078210Y5907430D01*
X5070420Y5908740D01*
X5060690Y5906120D01*
X5053870Y5899550D01*
X5051920Y5891680D01*
X5052900Y5883800D01*
X5056790Y5877240D01*
X5076260Y5864120D01*
X5085030Y5854930D01*
X5090870Y5841810D01*
X5092820Y5830000D01*
X5051920D01*
G01X5025370Y5841810D02*
X5019530Y5835250D01*
X5012710Y5831310D01*
X5003950Y5830000D01*
X4995190Y5832620D01*
X4988370Y5837870D01*
X4983500Y5847060D01*
X4982530Y5857560D01*
X4984480Y5868060D01*
X4989350Y5874620D01*
X4996160Y5879870D01*
X5002980Y5881180D01*
X5009790Y5879870D01*
X5018550Y5874620D01*
X5015630Y5908740D01*
X4989350D01*
G01X4950500Y7168760D02*
X4943940Y7176550D01*
X4940000Y7185320D01*
Y7193100D01*
X4943940Y7200890D01*
X4950500Y7206740D01*
X4959690Y7209660D01*
X4968870Y7207710D01*
X4976740Y7202840D01*
X4982000Y7194080D01*
X4984620Y7182390D01*
X4989870Y7175580D01*
X4999050Y7172660D01*
X5008240Y7174610D01*
X5014800Y7179470D01*
X5018740Y7186290D01*
Y7193100D01*
X5016120Y7199920D01*
X5009550Y7205760D01*
G01X5018740Y7228420D02*
X4940000Y7242050D01*
X5018740Y7257630D01*
X4940000Y7273210D01*
X5018740Y7286840D01*
G01X4940000Y7304630D02*
X5018740D01*
Y7324100D01*
X5014800Y7331890D01*
X5009550Y7337730D01*
X5001680Y7342600D01*
X4992490Y7346500D01*
X4979370Y7347470D01*
X4966250Y7346500D01*
X4957060Y7342600D01*
X4949180Y7337730D01*
X4943940Y7331890D01*
X4940000Y7324100D01*
Y7304630D01*
G01X5012180Y7415890D02*
X5016120Y7410050D01*
X5018740Y7403230D01*
Y7395440D01*
X5014800Y7386680D01*
X5008240Y7379870D01*
X5000370Y7375000D01*
X4987240Y7371100D01*
X4975430Y7370130D01*
X4963620Y7372080D01*
X4955750Y7375000D01*
X4947870Y7380840D01*
X4942620Y7387650D01*
X4940000Y7394470D01*
Y7401290D01*
X4942620Y7408100D01*
X4946560Y7413940D01*
X4951810Y7418810D01*
G01X5018740Y7443420D02*
X4940000D01*
Y7482360D01*
G01Y7509890D02*
X5018740D01*
G01Y7546890D02*
X4970180Y7509890D01*
G01X4940000Y7552730D02*
X4992490Y7526440D01*
G01X4950500Y7598760D02*
X4943940Y7606550D01*
X4940000Y7615320D01*
Y7623100D01*
X4943940Y7630890D01*
X4950500Y7636740D01*
X4959690Y7639660D01*
X4968870Y7637710D01*
X4976740Y7632840D01*
X4982000Y7624080D01*
X4984620Y7612390D01*
X4989870Y7605580D01*
X4999050Y7602660D01*
X5008240Y7604610D01*
X5014800Y7609470D01*
X5018740Y7616290D01*
Y7623100D01*
X5016120Y7629920D01*
X5009550Y7635760D01*
G01X5018740Y7658420D02*
X4940000Y7672050D01*
X5018740Y7687630D01*
X4940000Y7703210D01*
X5018740Y7716840D01*
G01X4940000Y7734630D02*
X5018740D01*
Y7754100D01*
X5014800Y7761890D01*
X5009550Y7767730D01*
X5001680Y7772600D01*
X4992490Y7776500D01*
X4979370Y7777470D01*
X4966250Y7776500D01*
X4957060Y7772600D01*
X4949180Y7767730D01*
X4943940Y7761890D01*
X4940000Y7754100D01*
Y7734630D01*
G01X5018740Y7812790D02*
Y7836150D01*
G01Y7824470D02*
X4940000D01*
G01Y7812790D02*
Y7836150D01*
G01Y7892890D02*
X4941310Y7885100D01*
X4946560Y7878290D01*
X4954430Y7872440D01*
X4963620Y7868550D01*
X4974120Y7866600D01*
X4984620D01*
X4995120Y7868550D01*
X5004310Y7872440D01*
X5012180Y7878290D01*
X5017430Y7885100D01*
X5018740Y7892890D01*
X5017430Y7900680D01*
X5012180Y7907490D01*
X5004310Y7913340D01*
X4995120Y7917230D01*
X4984620Y7919180D01*
X4974120D01*
X4963620Y7917230D01*
X4954430Y7913340D01*
X4946560Y7907490D01*
X4941310Y7900680D01*
X4940000Y7892890D01*
G01X5539370Y8145050D02*
Y8164530D01*
X5515750D01*
X5507870Y8158680D01*
X5502620Y8151870D01*
X5500000Y8142130D01*
X5502620Y8132390D01*
X5507870Y8125580D01*
X5515750Y8119740D01*
X5524930Y8115840D01*
X5535430Y8113890D01*
X5544620D01*
X5552490Y8115840D01*
X5561680Y8119740D01*
X5569550Y8125580D01*
X5574800Y8131420D01*
X5578740Y8139210D01*
Y8146030D01*
X5576120Y8153810D01*
X5570870Y8159660D01*
G01X5500000Y8185240D02*
X5578740D01*
X5500000Y8230020D01*
X5578740D01*
G01X5500000Y8254630D02*
X5578740D01*
Y8274100D01*
X5574800Y8281890D01*
X5569550Y8287730D01*
X5561680Y8292600D01*
X5552490Y8296500D01*
X5539370Y8297470D01*
X5526250Y8296500D01*
X5517060Y8292600D01*
X5509180Y8287730D01*
X5503940Y8281890D01*
X5500000Y8274100D01*
Y8254630D01*
G01X5568740Y8544870D02*
X5490000Y8569210D01*
X5568740Y8593550D01*
G01X5562180Y8659050D02*
X5566120Y8653210D01*
X5568740Y8646390D01*
Y8638600D01*
X5564800Y8629840D01*
X5558240Y8623030D01*
X5550370Y8618160D01*
X5537240Y8614260D01*
X5525430Y8613290D01*
X5513620Y8615240D01*
X5505750Y8618160D01*
X5497870Y8624000D01*
X5492620Y8630810D01*
X5490000Y8637630D01*
Y8644450D01*
X5492620Y8651260D01*
X5496560Y8657100D01*
X5501810Y8661970D01*
G01X5562180Y8727470D02*
X5566120Y8721630D01*
X5568740Y8714810D01*
Y8707020D01*
X5564800Y8698260D01*
X5558240Y8691450D01*
X5550370Y8686580D01*
X5537240Y8682680D01*
X5525430Y8681710D01*
X5513620Y8683660D01*
X5505750Y8686580D01*
X5497870Y8692420D01*
X5492620Y8699230D01*
X5490000Y8706050D01*
Y8712870D01*
X5492620Y8719680D01*
X5496560Y8725520D01*
X5501810Y8730390D01*
M02*
