M48
METRIC,TZ
T01C.3048
T02C.4572
T03C.889
T04C1.0008
T05C1.016
T06C1.524
T07C1.7
T08C3.4036
T09C3.3
;LEADER: 12 
;HEADER: 
;CODE  : ASCII 
;FILE  : MK60_PACK_V20A-1-4.drl for board H:/GitHub/MBEDBoard/MK60_PACK_V20A/PCB/#Taaaaev21380.tmp ... layers TOP and BOTTOM
;T01 Holesize 1. = 0.304800 Tolerance = +0.000000/-0.000000 PLATED MM Quantity = 459
;T02 Holesize 2. = 0.457200 Tolerance = +0.000000/-0.000000 PLATED MM Quantity = 5
;T03 Holesize 3. = 0.889000 Tolerance = +0.000000/-0.000000 PLATED MM Quantity = 20
;T04 Holesize 4. = 1.000800 Tolerance = +0.000000/-0.000000 PLATED MM Quantity = 12
;T05 Holesize 5. = 1.016000 Tolerance = +0.000000/-0.000000 PLATED MM Quantity = 38
;T06 Holesize 6. = 1.524000 Tolerance = +0.000000/-0.000000 PLATED MM Quantity = 4
;T07 Holesize 7. = 1.700000 Tolerance = +0.000000/-0.000000 PLATED MM Quantity = 2
;T08 Holesize 8. = 3.403600 Tolerance = +0.000000/-0.000000 PLATED MM Quantity = 4
;T09 Holesize 9. = 3.300000 Tolerance = +0.000000/-0.000000 NON_PLATED MM Quantity = 2
%
G90
T01
X740000Y2180000
X370000Y2340000
X740000Y2450000
X370000Y2610000
X740000Y2670000
X370000Y2830000
X740000Y2900000
X370000Y3060000
X740000Y3130000
X370000Y3290000
X1290000Y2210000
X1290000Y2480000
X1290000Y2700000
X1290000Y2930000
X1290000Y3160000
X1420000Y3250000
X950000Y3370000
X1420000Y3630000
X950000Y3640000
X950000Y3860000
X950000Y4090000
X950000Y4320000
X1260000Y4540000
X1260000Y4810000
X1260000Y5030000
X1260000Y5260000
X1060000Y5450000
X1260000Y5490000
X1160000Y5560000
X800000Y5860000
X1160000Y5860000
X1463800Y5913800
X810000Y6040000
X1280000Y6200000
X990000Y6480000
X1260000Y6750000
X1260000Y7070000
X1056200Y7076200
X970000Y7390000
X2034000Y7604000
X2120000Y6630000
X1540000Y6510000
X2120000Y6480000
X2120000Y6330000
X2120000Y6180000
X2120000Y6030000
X1620000Y5920000
X2080000Y5810000
X1850000Y5810000
X1607500Y5532500
X1660000Y5467500
X1607500Y5402500
X1660000Y5337500
X2160000Y4870000
X2024640Y4830000
X1950980Y4830000
X1877320Y4830000
X1803660Y4830000
X1730000Y4830000
X1610000Y4400000
X1900000Y3970000
X1970000Y3190000
X1820000Y3190000
X2200000Y3080000
X1820000Y3050000
X1950000Y2780000
X1940000Y2610000
X2280000Y2540000
X2080000Y2540000
X2070000Y2410000
X1743800Y2263800
X1526200Y2263800
X2070000Y2220000
X1760000Y490000
X1600000Y490000
X2628670Y1640000
X2702330Y1640000
X2775990Y1640000
X2849650Y1640000
X2640000Y1790000
X2640000Y2020000
X2350000Y2170000
X2640000Y2190000
X2640000Y2420000
X2430000Y2540000
X2630000Y2540000
X2360000Y2940000
X2530000Y3810000
X2960000Y4480000
X2590000Y4500000
X2650000Y4690000
X2960000Y4690000
X2560000Y4870000
X2960000Y4970000
X2360000Y5010000
X2960000Y5190000
X2416200Y5400000
X2310000Y5810000
X2960000Y5860000
X2880000Y6440000
X2960000Y6500000
X2420000Y6530000
X2880000Y6590000
X2641550Y6899350
X2567890Y6900020
X2719020Y6900000
X2792680Y6900000
X2866340Y6900000
X2940000Y6900000
X2400000Y6930000
X2290000Y7040000
X2640000Y7040000
X2720000Y7110000
X2790000Y7180000
X2870000Y7250000
X2940000Y7320000
X3770000Y8040000
X3640000Y7810000
X3690000Y7660000
X3640000Y7600000
X3690000Y7540000
X3700000Y5820000
X3470000Y5820000
X3460000Y5540000
X3483950Y5410000
X3620000Y3830000
X3690000Y3451600
X3440000Y3343000
X3440000Y3190000
X3680000Y3040000
X3570000Y3040000
X3470000Y3040000
X3470000Y2720000
X3250000Y2720000
X3480000Y2370000
X3690000Y2110000
X3690000Y1483800
X3780000Y870000
X3780000Y700000
X3780000Y470000
X4070000Y1990000
X3830000Y2190000
X3970000Y2190000
X4110000Y2190000
X4190000Y2650000
X4190000Y2870000
X3960000Y2950000
X4060000Y3060000
X4060000Y3280000
X4390000Y3280000
X4160000Y3400000
X4390000Y3400000
X4060000Y3460000
X4320000Y3620000
X3980000Y3920000
X4140000Y3920000
X4280000Y3920000
X3940000Y4250000
X4320000Y4355000
X4080000Y5460000
X4280000Y5460000
X4180000Y5510000
X3930000Y5820000
X4280000Y5960000
X4180000Y6030000
X4180000Y6720000
X4280000Y6720000
X4490000Y6720000
X4156200Y7126200
X3910000Y7300000
X4140000Y7300000
X4370000Y7300000
X4190000Y7490000
X4420000Y7490000
X4040000Y8040000
X4260000Y8040000
X4490000Y8040000
X4720000Y8040000
X5290000Y7810000
X5070000Y7810000
X4800000Y7810000
X4650000Y7490000
X5240000Y7250000
X5020000Y7250000
X4750000Y7250000
X5240000Y6890000
X4670000Y6720000
X4636200Y5863800
X4645000Y5305000
X5110000Y5160000
X4880000Y5160000
X5075000Y4705000
X5010000Y4640000
X4940000Y4590000
X4870000Y4540000
X4870000Y4450000
X4800000Y4390000
X4735000Y4305000
X4670000Y4240000
X4740000Y3830000
X4740000Y3740010
X4740000Y3650000
X4630000Y3280000
X5180000Y2990000
X5260480Y2900480
X5110000Y2460000
X5010000Y2460000
X4910000Y2460000
X4820000Y2460000
X4820000Y2370000
X4820000Y2280000
X4823200Y2186800
X4820000Y2090000
X5270000Y2080000
X5190000Y2080000
X5060000Y900000
X5060000Y730000
X5060000Y500000
X5370000Y1300000
X5930000Y1300000
X5990000Y1940000
X5350000Y2080000
X5430000Y2080000
X5990000Y2090000
X6070000Y2090000
X5800000Y2260000
X5890000Y2260000
X5980000Y2260000
X6070000Y2260000
X5500000Y2460000
X5420000Y2810000
X5420000Y2910000
X5430000Y3150000
X5730000Y3180000
X5400000Y3270000
X5490000Y3270000
X5390000Y3630000
X5495000Y3835000
X5495000Y3925000
X5910000Y3940000
X5985000Y4005000
X5495000Y4016340
X5494190Y4094180
X5570000Y4155000
X5630000Y4280000
X5860000Y4280000
X6090000Y4280000
X5630000Y4500000
X5860000Y4500000
X6090000Y4500000
X5630000Y4730000
X5860000Y4730000
X6090000Y4730000
X5510000Y4980000
X5740000Y4980000
X5970000Y4980000
X5885000Y5155000
X5975000Y5155000
X5340000Y5160000
X5585000Y5235000
X5510000Y5400000
X5810000Y5400000
X5485000Y5780000
X6006900Y6036900
X5715560Y6090000
X5490000Y6160000
X5490000Y6250000
X5490000Y6340000
X5490000Y6430000
X5940000Y6560000
X5426200Y6573800
X5470000Y7250000
X5700000Y7250000
X5520000Y7810000
X5750000Y7810000
X6040000Y7810000
X6760000Y7810000
X6530000Y7810000
X6310000Y7810000
X6700000Y7250000
X6480000Y7250000
X6210000Y7250000
X6693800Y7040000
X6460000Y6790000
X6460000Y6630000
X6460990Y6499010
X6570000Y6250000
X6570000Y6130000
X6550000Y5870000
X6850000Y4480000
X6480000Y4110000
X6480000Y4020000
X6720000Y3500000
X6720000Y3280000
X6680000Y2700000
X6680000Y2480000
X6680000Y2280000
X6150000Y2260000
X6680000Y2060000
X6820000Y1560000
X6330000Y1300000
X6160000Y1300000
X6720000Y1280000
X6350000Y890000
X6350000Y720000
X6350000Y490000
X6950000Y1280000
X7120000Y1280000
X6900000Y1490000
X7580000Y1653800
X6990000Y1660000
X7100000Y2170000
X7320000Y2170000
X7320000Y2280000
X7093800Y2846200
X7340000Y3490000
X7510000Y3490000
X7193800Y3506200
X7480000Y4410000
X7075000Y4420000
X7000000Y4522330
X7000000Y4638300
X7510000Y4710000
X7070000Y4800000
X7510000Y4850000
X7530000Y5130000
X7600000Y5300000
X6950000Y5790000
X7230000Y5790000
X6900000Y6010000
X7120000Y6010000
X7270000Y6140000
X7050000Y6380000
X7350000Y6390000
X6930000Y7250000
X7160000Y7250000
X7150000Y7560000
X7150000Y7650000
X6990000Y7810000
X8220000Y7690000
X7990000Y7690000
X7760000Y7690000
X8110000Y7240000
X7880000Y7240000
X7650000Y7240000
X7913800Y7046200
X8230000Y6760000
X7950000Y6760000
X7740000Y6390000
X8030000Y6330000
X7750000Y6070000
X8290000Y5840000
X8140000Y5770000
X8290000Y5570000
X7980000Y5570000
X7970000Y4850000
X7740000Y4850000
X8245500Y4775500
X7970000Y4710000
X7740000Y4710000
X7940000Y4410000
X7710000Y4410000
X8372500Y4232500
X7710000Y3910000
X8190000Y3670000
X7960000Y3670000
X8240000Y2960000
X7620000Y2880000
X7620000Y2660000
X8350000Y2610000
X7680000Y2020000
X8180000Y1890000
X7800000Y1870000
X8100000Y1700000
X8326000Y1416000
X8330000Y1300000
X8110000Y1300000
X8370000Y830000
X7990000Y820000
X7770000Y820000
X8220000Y560000
X7990000Y560000
X8260000Y270000
X8490000Y270000
X8720000Y270000
X8450000Y560000
X8600000Y830000
X8830000Y830000
X8656000Y1404000
X8770000Y1820000
X9000000Y1820000
X8700000Y2010000
X8930000Y2010000
X8630000Y2340000
X8860000Y2340000
X9090000Y2340000
X8580000Y2610000
X8810000Y2610000
X8470000Y2960000
X8700000Y2960000
X9120000Y3100000
X8580000Y3189020
X8580000Y3262680
X8580000Y3336340
X8580000Y3410000
X8580000Y3591700
X8420000Y3670000
X8580000Y3707670
X8759010Y3860000
X8874980Y3860000
X8500000Y4230000
X8400000Y4770000
X8630000Y4770000
X8860000Y4770000
X9110000Y5470000
X9110000Y5550000
X9110000Y5630000
X8650000Y5840000
X8760000Y5840000
X8860000Y5840000
X8480000Y5850000
X8650000Y5920000
X8760000Y5920000
X8860000Y5920000
X8650000Y6000000
X8760000Y6000000
X8860000Y6000000
X8480000Y6100000
X8640000Y6490000
X8870000Y6490000
X9100000Y6490000
X8740000Y6750000
X8740000Y6930000
X8740000Y7110000
X9160000Y7650000
X9160000Y7350000
X9220000Y7180000
X9150000Y7180000
X9426200Y6796200
X9280000Y6310000
X9180000Y5630000
X9180000Y5550000
X9180000Y5470000
X9480000Y5020000
X9410000Y5020000
X9340000Y5020000
X9490000Y4460000
X9410000Y4460000
X9330000Y4460000
X9490000Y4380000
X9410000Y4380000
X9330000Y4380000
X9590000Y3220000
X9460000Y2493660
X9380000Y2493660
X9460000Y2420000
X9380000Y2420000
X9160000Y2010000
X9230000Y1820000
T02
X2210000Y3370000
X2310000Y3460000
X2400000Y3370000
X2400000Y3560000
X2210000Y3560000
T03
X9420000Y1174000
X9420000Y1428000
X9674000Y1174000
X9674000Y1428000
X9420000Y1682000
X9420000Y1936000
X9674000Y1682000
X9674000Y1936000
X9710000Y5776000
X9710000Y6030000
X9710000Y6284000
X9620000Y6709000
X9620000Y6963000
X9620000Y7471000
X9141000Y8010000
X8887000Y8010000
X8633000Y8010000
X8379000Y8010000
X4530000Y7820000
X4030000Y7820000
T04
X1027500Y600000
X1281500Y600000
X2098500Y600000
X2352500Y600000
X2007000Y1725000
X1753000Y1725000
X1499000Y1725000
X1245000Y1725000
X1372000Y1979000
X1626000Y1979000
X1880000Y1979000
X2134000Y1979000
T05
X340000Y5064000
X594000Y5064000
X594000Y5318000
X340000Y5318000
X340000Y5572000
X594000Y5572000
X594000Y5826000
X340000Y5826000
X340000Y6080000
X594000Y6080000
X594000Y6334000
X340000Y6334000
X340000Y6588000
X594000Y6588000
X594000Y6842000
X340000Y6842000
X340000Y7096000
X594000Y7096000
X340000Y7350000
X594000Y7350000
X1018000Y7766000
X1272000Y7766000
X1526000Y7766000
X1780000Y7766000
X2034000Y7766000
X2288000Y7766000
X2542000Y7766000
X2796000Y7766000
X3050000Y7766000
X3050000Y8020000
X2796000Y8020000
X2542000Y8020000
X2288000Y8020000
X2034000Y8020000
X1780000Y8020000
X1526000Y8020000
X1272000Y8020000
X1018000Y8020000
T06
X5528000Y8050000
X6290000Y8050000
X7018000Y8050000
X7780000Y8050000
T07
X915500Y1395000
X2464500Y1395000
T08
X330000Y330000
X330000Y7970000
X9670000Y7970000
X9670000Y330000
T09
X1118500Y1090000
X2261500Y1090000
M30
