G04 ================== begin FILE IDENTIFICATION RECORD ==================*
G04 Layout Name:  H:/MBEDBoard/TPA311X_TEST_V10A/PCB/TPA311X_TEST_V10A.brd*
G04 Film Name:    BOTTOM*
G04 File Format:  Gerber RS274X*
G04 File Origin:  Cadence Allegro 17.2-S058*
G04 Origin Date:  Fri Mar 06 18:50:16 2020*
G04 *
G04 Layer:  BOARD GEOMETRY/OUTLINE*
G04 Layer:  ETCH/BOTTOM*
G04 Layer:  PIN/BOTTOM*
G04 Layer:  VIA CLASS/BOTTOM*
G04 *
G04 Offset:    (0.0000 0.0000)*
G04 Mirror:    No*
G04 Mode:      Positive*
G04 Rotation:  0*
G04 FullContactRelief:  No*
G04 UndefLineWidth:     0.1524*
G04 ================== end FILE IDENTIFICATION RECORD ====================*
%FSLAX55Y55*MOMM*%
%IR0*IPPOS*OFA0.00000B0.00000*MIA0B0*SFA1.00000B1.00000*%
%ADD18R,1.5X.6*%
%ADD15R,.8X.8*%
%ADD11C,.6096*%
%ADD20R,2.4X3.1*%
%ADD19R,5.X5.*%
%ADD21R,1.4X1.5*%
%ADD12R,3.5X2.5*%
%ADD24C,3.*%
%ADD23R,1.6X2.7*%
%ADD22C,2.1*%
%ADD16C,1.3*%
%ADD26C,2.032*%
%ADD17C,2.5*%
%ADD25C,1.8*%
%ADD14C,1.65*%
%ADD13R,1.6X1.6*%
%ADD10C,6.9*%
%ADD27C,.1*%
%ADD28C,.3*%
%ADD29C,.2032*%
%ADD30C,.254*%
%ADD31C,2.*%
%ADD32C,4.0164*%
G75*
%LPD*%
G75*
G36*
G01X668760Y14750000D02*
X7041240D01*
G02X7055830Y14715540I-1J-20319D01*
G03X6944180Y14440000I284176J-275540D01*
G03X7340000Y14044180I395820J0D01*
G03X7615540Y14155830I0J395826D01*
G02X7650000Y14141240I14141J-14591D01*
G01Y9168760D01*
G02X7615540Y9154170I-20319J1D01*
G03X7340000Y9265820I-275540J-284176D01*
G03X6944180Y8870000I0J-395820D01*
G03X7111340Y8546910I395817J0D01*
G02X7099610Y8510000I-11734J-16590D01*
G01X4010000D01*
Y5750000D01*
X60000D01*
Y8571240D01*
G02X94460Y8585830I20319J-1D01*
G03X370000Y8474180I275540J284176D01*
G03Y9265820I0J395820D01*
G03X94460Y9154170I0J-395826D01*
G02X60000Y9168760I-14141J14591D01*
G01Y14141240D01*
G02X94460Y14155830I20319J-1D01*
G03X370000Y14044180I275540J284176D01*
G03X765820Y14440000I0J395820D01*
G03X654170Y14715540I-395826J0D01*
G02X668760Y14750000I14591J14141D01*
G37*
%LPC*%
G75*
G36*
G01X7109180Y11125000D02*
Y11285000D01*
G02X7160000Y11335820I50820J0D01*
G01X7320000D01*
G02X7370820Y11285000I0J-50820D01*
G01Y11125000D01*
G02X7320000Y11074180I-50820J0D01*
G01X7160000D01*
G02X7109180Y11125000I0J50820D01*
G37*
G36*
G01X2494260Y7888950D02*
X2581050Y7975740D01*
X2792020D01*
X2793190Y7976020D01*
G02X2834000Y7980820I40802J-171021D01*
G02X2874810Y7976020I8J-175821D01*
G01X2875980Y7975740D01*
X2888950D01*
X2894640Y7970050D01*
X2896670Y7969270D01*
G02X2998270Y7867670I-62670J-164270D01*
G01X2999050Y7865640D01*
X3005740Y7858950D01*
Y7842670D01*
X3005960Y7841630D01*
G02X3009820Y7805000I-171959J-36639D01*
G02X3005960Y7768370I-175819J9D01*
G01X3005740Y7767330D01*
Y6261050D01*
X2958950Y6214260D01*
X2731940D01*
Y6190000D01*
G02X2686200Y6144260I-45740J0D01*
G01X2606200D01*
G02X2601710Y6144480I-9J45740D01*
G03X2579440Y6122950I-1991J-20223D01*
G02X2579540Y6120000I-45638J-3024D01*
G01Y6040000D01*
G02X2569460Y6011360I-45727J0D01*
G03Y5998640I7927J-6360D01*
G02X2579540Y5970000I-35647J-28640D01*
G01Y5890000D01*
G02X2533800Y5844260I-45740J0D01*
G01X2453800D01*
G02X2424180Y5855150I0J45727D01*
G01X2407570Y5869260D01*
X2360000D01*
G02X2317050Y5887050I0J60742D01*
G01X2267050Y5937050D01*
G02X2249260Y5980000I42952J42950D01*
G01Y6004080D01*
X2201260Y6056520D01*
G02X2189260Y6087400I33732J30880D01*
G01Y6147400D01*
G02X2198380Y6174810I45750J0D01*
G03Y6186990I-8130J6090D01*
G02X2189260Y6214400I36630J27410D01*
G01Y6274260D01*
X2184260D01*
Y6485740D01*
X2189260D01*
Y6528400D01*
G02X2201260Y6559280I45732J0D01*
G01X2251840Y6614540D01*
X2235150Y6634180D01*
G02X2224260Y6663800I34837J29620D01*
G01Y6743800D01*
G02X2235150Y6773420I45727J0D01*
G03Y6786580I-7745J6580D01*
G02X2224260Y6816200I34837J29620D01*
G01Y6896200D01*
G02X2270000Y6941940I45740J0D01*
G01X2350000D01*
G02X2379620Y6931050I0J-45727D01*
G01X2392150Y6920400D01*
X2398230Y6923610D01*
G02X2433800Y6932420I35570J-67401D01*
G02X2465490Y6925520I0J-76222D01*
G03X2494260Y6944000I8450J18479D01*
G01Y7888950D01*
G37*
G36*
G01X7109180Y9745000D02*
Y9905000D01*
G02X7160000Y9955820I50820J0D01*
G01X7320000D01*
G02X7370820Y9905000I0J-50820D01*
G01Y9745000D01*
G02X7342270Y9699320I-50819J0D01*
G03X7336470Y9667030I8900J-18265D01*
G02X7373320Y9575000I-96473J-92022D01*
G02X7106680I-133320J0D01*
G02X7143530Y9667030I133323J8D01*
G03X7137730Y9699320I-14700J14025D01*
G02X7109180Y9745000I22269J45680D01*
G37*
G36*
G01X367730Y10405680D02*
G03X373530Y10437970I-8900J18265D01*
G02X336680Y10530000I96473J92022D01*
G02X603320I133320J0D01*
G02X566470Y10437970I-133323J-8D01*
G03X572270Y10405680I14700J-14025D01*
G02X600820Y10360000I-22269J-45680D01*
G01Y10200000D01*
G02X550000Y10149180I-50820J0D01*
G01X390000D01*
G02X339180Y10200000I0J50820D01*
G01Y10360000D01*
G02X367730Y10405680I50819J0D01*
G37*
G36*
G01Y11714630D02*
G03X373530Y11746920I-8900J18265D01*
G02X336680Y11838950I96473J92022D01*
G02X603320I133320J0D01*
G02X566470Y11746920I-133323J-8D01*
G03X572270Y11714630I14700J-14025D01*
G02X600820Y11668950I-22269J-45680D01*
G01Y11508950D01*
G02X550000Y11458130I-50820J0D01*
G01X390000D01*
G02X339180Y11508950I0J50820D01*
G01Y11668950D01*
G02X367730Y11714630I50819J0D01*
G37*
G36*
G01X1800470Y12909530D02*
G02X1840000Y12925900I39530J-39543D01*
G01X2318190D01*
G02X2370000Y12946220I51810J-55890D01*
G02X2446220Y12870000I0J-76220D01*
G02X2434880Y12830000I-76217J0D01*
G02X2446220Y12790000I-64877J-40000D01*
G02X2370000Y12713780I-76220J0D01*
G02X2366290Y12713870I-7J76220D01*
G01X2361790Y12714090D01*
X2351420Y12703720D01*
X2376640Y12678510D01*
X2380050Y12678050D01*
G02X2446220Y12602500I-10045J-75550D01*
G02X2370000Y12526280I-76220J0D01*
G02X2294450Y12592450I0J76215D01*
G01X2293990Y12595860D01*
X2248290Y12641560D01*
X1904210D01*
X1846010Y12583360D01*
X1845550Y12579950D01*
G02X1770000Y12513780I-75550J10045D01*
G02X1715240Y12536980I0J76226D01*
G03X1686270Y12537220I-14603J-14130D01*
G01X1499530Y12350470D01*
G02X1460000Y12334100I-39530J39543D01*
G01X1274910D01*
X1272670Y12327010D01*
G02X1200000Y12273780I-72670J22990D01*
G02X1123780Y12350000I0J76220D01*
G02X1147510Y12405270I76230J0D01*
G03Y12434730I-13992J14730D01*
G02X1123780Y12490000I52500J55270D01*
G02X1200000Y12566220I76220J0D01*
G02X1272670Y12512990I0J-76220D01*
G01X1274910Y12505900D01*
X1396850D01*
X1800470Y12909530D01*
G37*
G36*
G01X7109180Y12995000D02*
Y13155000D01*
G02X7160000Y13205820I50820J0D01*
G01X7320000D01*
G02X7370820Y13155000I0J-50820D01*
G01Y12995000D01*
G02X7342270Y12949320I-50819J0D01*
G03X7336470Y12917030I8900J-18265D01*
G02X7373320Y12825000I-96473J-92022D01*
G02X7317520Y12716530I-133328J0D01*
G03Y12683470I11812J-16530D01*
G02Y12466530I-77528J-108470D01*
G03Y12433470I11812J-16530D01*
G02X7373320Y12325000I-77528J-108470D01*
G02X7106680I-133320J0D01*
G02X7162480Y12433470I133328J0D01*
G03Y12466530I-11812J16530D01*
G02Y12683470I77528J108470D01*
G03Y12716530I-11812J16530D01*
G02X7106680Y12825000I77528J108470D01*
G02X7143530Y12917030I133323J8D01*
G03X7137730Y12949320I-14700J14025D01*
G02X7109180Y12995000I22269J45680D01*
G37*
G36*
G01X367730Y13005680D02*
G03X373530Y13037970I-8900J18265D01*
G02X336680Y13130000I96473J92022D01*
G02X603320I133320J0D01*
G02X566470Y13037970I-133323J-8D01*
G03X572270Y13005680I14700J-14025D01*
G02X600820Y12960000I-22269J-45680D01*
G01Y12800000D01*
G02X550000Y12749180I-50820J0D01*
G01X390000D01*
G02X339180Y12800000I0J50820D01*
G01Y12960000D01*
G02X367730Y13005680I50819J0D01*
G37*
G36*
G01X1578560Y13001930D02*
Y13351070D01*
G02X1560780Y13400000I58437J48930D01*
G02X1713220I76220J0D01*
G02X1695440Y13351070I-76217J0D01*
G01Y13001930D01*
G02X1713220Y12953000I-58437J-48930D01*
G02X1560780I-76220J0D01*
G02X1578560Y13001930I76217J0D01*
G37*
G36*
G01X3151050Y13985740D02*
X3572490D01*
X3573780Y13986080D01*
G02X3610000Y13990820I36228J-136079D01*
G02X3646220Y13986080I-8J-140819D01*
G01X3647510Y13985740D01*
X3668950D01*
X3686370Y13968320D01*
X3687240Y13967750D01*
G02X3727750Y13927240I-77240J-117750D01*
G01X3728320Y13926370D01*
X3745740Y13908950D01*
Y13887510D01*
X3746080Y13886220D01*
G02X3750820Y13850000I-136079J-36228D01*
G02X3746080Y13813780I-140819J8D01*
G01X3745740Y13812490D01*
Y10987510D01*
X3746080Y10986220D01*
G02X3750820Y10950000I-136079J-36228D01*
G02X3746080Y10913780I-140819J8D01*
G01X3745740Y10912490D01*
Y10090740D01*
X3780000D01*
G02X3822950Y10072950I0J-60742D01*
G01X3881750Y10014150D01*
G02X3899540Y9971200I-42952J-42950D01*
G01Y9834840D01*
G02X3915020Y9788800I-60738J-46044D01*
G02X3871920Y9720150I-76223J0D01*
G03X3871370Y9683820I8825J-18303D01*
G02X3912420Y9616200I-35169J-67620D01*
G02X3896940Y9570160I-76218J4D01*
G01Y9426200D01*
G02X3879150Y9383250I-60742J0D01*
G01X3812950Y9317050D01*
G02X3770000Y9299260I-42950J42952D01*
G01X3745740D01*
Y8951050D01*
X3248950Y8454260D01*
X2278950D01*
X1975740Y8151050D01*
Y7882660D01*
G02Y7727340I-157749J-77660D01*
G01Y7254260D01*
X761050D01*
X664260Y7351050D01*
Y8179260D01*
X505160D01*
X470740Y8144840D01*
Y6125160D01*
X535160Y6060740D01*
X987570D01*
X1004180Y6074850D01*
G02X1033800Y6085740I29620J-34837D01*
G01X1113800D01*
G02X1143420Y6074850I0J-45727D01*
G03X1156580I6580J7745D01*
G02X1159060Y6076820I29673J-34808D01*
G03Y6093180I-6023J8180D01*
G02X1140460Y6130000I27144J36820D01*
G01Y6210000D01*
G02X1186200Y6255740I45740J0D01*
G01X1266200D01*
G02X1295820Y6244850I0J-45727D01*
G01X1310000Y6232800D01*
X1324180Y6244850D01*
G02X1353800Y6255740I29620J-34837D01*
G01X1433800D01*
G02X1438290Y6255520I9J-45740D01*
G03X1460560Y6277050I1991J20223D01*
G02X1460460Y6280000I45638J3024D01*
G01Y6360000D01*
G02X1472050Y6390420I45737J-8D01*
G03X1456870Y6424260I-15173J13518D01*
G01X1208950D01*
X1108950Y6324260D01*
X684260D01*
Y7018950D01*
X881050Y7215740D01*
X2025740D01*
Y6591050D01*
X1888350Y6453670D01*
X1887580Y6451690D01*
G02X1845000Y6422660I-42580J16712D01*
G01X1695000D01*
G02X1684130Y6423970I0J45753D01*
G01X1682950Y6424260D01*
X1590110D01*
Y6406240D01*
X1597710Y6404270D01*
G02X1615820Y6394850I-11520J-44265D01*
G01X1632430Y6380740D01*
X1650000D01*
G02X1692950Y6362950I0J-60742D01*
G01X1722800Y6333100D01*
X1849730Y6319890D01*
G02X1890740Y6274400I-4725J-45490D01*
G01Y6214400D01*
G02X1881620Y6186990I-45750J0D01*
G03Y6174810I8130J-6090D01*
G02X1890740Y6147400I-36630J-27410D01*
G01Y6087400D01*
G02X1849330Y6041870I-45735J0D01*
G01X1712880Y6028880D01*
X1710930Y6027720D01*
G02X1680000Y6019260I-30922J52282D01*
G01X1498960D01*
X1479540Y5999840D01*
Y5960000D01*
G02X1433800Y5914260I-45740J0D01*
G01X1353800D01*
G02X1324180Y5925150I0J45727D01*
G01X1310000Y5937200D01*
X1295820Y5925150D01*
G02X1266200Y5914260I-29620J34837D01*
G01X1186200D01*
G02X1156580Y5925150I0J45727D01*
G03X1143420I-6580J-7745D01*
G02X1113800Y5914260I-29620J34837D01*
G01X1033800D01*
G02X1004180Y5925150I0J45727D01*
G01X987570Y5939260D01*
X510000D01*
G02X467050Y5957050I0J60742D01*
G01X367050Y6057050D01*
G02X349260Y6100000I42952J42950D01*
G01Y8170000D01*
G02X367050Y8212950I60742J0D01*
G01X437050Y8282950D01*
G02X480000Y8300740I42950J-42952D01*
G01X664260D01*
Y8468950D01*
X941050Y8745740D01*
X1491050D01*
X1534260Y8788950D01*
Y8948950D01*
X1601050Y9015740D01*
X1894040D01*
G03X1912130Y9045310I-1J20319D01*
G02X1903780Y9080000I67871J34687D01*
G02X1980000Y9156220I76220J0D01*
G02X2028930Y9138440I0J-76217D01*
G01X2305790D01*
X2331560Y9164210D01*
Y9686070D01*
G02X2313780Y9735000I58437J48930D01*
G02X2316160Y9753900I76234J0D01*
G03X2296480Y9779260I-19684J5040D01*
G01X1895160D01*
X1805450Y9689550D01*
G02X1762500Y9671760I-42950J42952D01*
G01X1246040D01*
G02X1200000Y9656280I-46044J60738D01*
G02X1123780Y9732500I0J76220D01*
G02X1150820Y9790730I76218J0D01*
G03Y9821770I-13116J15520D01*
G02X1123780Y9880000I49178J58230D01*
G02X1200000Y9956220I76220J0D01*
G02X1246040Y9940740I-4J-76218D01*
G01X1744840D01*
X1787050Y9982950D01*
G02X1830000Y10000740I42950J-42952D01*
G01X2343960D01*
G02X2390000Y10016220I46044J-60738D01*
G02X2466220Y9940000I0J-76220D01*
G02X2447530Y9890000I-76226J0D01*
G02X2466220Y9840000I-57536J-50000D01*
G02X2445260Y9787500I-76230J0D01*
G02X2466220Y9735000I-55270J-52500D01*
G02X2448440Y9686070I-76217J0D01*
G01Y9140000D01*
G02X2431320Y9098680I-58438J6D01*
G01X2371320Y9038680D01*
G02X2365930Y9033910I-41350J41294D01*
G01X2372180Y9015740D01*
X2911050D01*
X3034260Y9138950D01*
Y13868950D01*
X3151050Y13985740D01*
G37*
G54D32*
X6120000Y11200000D03*
X4120000Y12200000D03*
X6120000Y13200000D03*
X4120000Y9200000D03*
Y14200000D03*
X6120000D03*
Y12200000D03*
X4120000Y11200000D03*
X6120000Y10200000D03*
X4120000D03*
X6120000Y9200000D03*
X4120000Y13200000D03*
%LPD*%
G75*
G36*
G01X1980000Y7170000D02*
Y6610000D01*
X1840000Y6470000D01*
X1190000D01*
X1090000Y6370000D01*
X730000D01*
Y7000000D01*
X900000Y7170000D01*
X1980000D01*
G37*
G36*
G01X3170000Y13940000D02*
X3650000D01*
X3700000Y13890000D01*
Y11595740D01*
X3610000D01*
G03Y11304260I0J-145740D01*
G01X3700000D01*
Y10090740D01*
X3576040D01*
G03X3530000Y10106220I-46044J-60738D01*
G03Y9953780I0J-76220D01*
G03X3576040Y9969260I-4J76218D01*
G01X3700000D01*
Y9420740D01*
X3576040D01*
G03X3530000Y9436220I-46044J-60738D01*
G03Y9283780I0J-76220D01*
G03X3576040Y9299260I-4J76218D01*
G01X3700000D01*
Y8970000D01*
X3230000Y8500000D01*
X2260000D01*
X1930000Y8170000D01*
Y7978390D01*
G02X1900180Y7960430I-20320J3D01*
G03X1818000Y7980820I-82184J-155429D01*
G03Y7629180I0J-175820D01*
G03X1900180Y7649570I-4J175819D01*
G02X1930000Y7631610I9500J-17963D01*
G01Y7300000D01*
X780000D01*
X710000Y7370000D01*
Y8450000D01*
X960000Y8700000D01*
X1510000D01*
X1580000Y8770000D01*
Y8930000D01*
X1620000Y8970000D01*
X2930000D01*
X2955270Y8995270D01*
X2958040Y8995950D01*
G03X3014050Y9051960I-18040J74050D01*
G01X3014730Y9054730D01*
X3080000Y9120000D01*
Y13850000D01*
X3170000Y13940000D01*
G37*
G36*
G01X1303910Y6007950D02*
X1266200Y6040000D01*
X1222450Y6000000D01*
X1266200Y5960000D01*
X1303910Y5992050D01*
G03Y6007950I-12720J7950D01*
G37*
G36*
G01X1316090Y5992050D02*
X1353800Y5960000D01*
X1397550Y6000000D01*
X1353800Y6040000D01*
X1316090Y6007950D01*
G03Y5992050I12720J-7950D01*
G37*
G36*
G01X996090D02*
X1033800Y5960000D01*
X1077550Y6000000D01*
X1033800Y6040000D01*
X996090Y6007950D01*
G03Y5992050I12720J-7950D01*
G37*
G36*
G01X1316090Y6162050D02*
X1353800Y6130000D01*
X1397550Y6170000D01*
X1353800Y6210000D01*
X1316090Y6177950D01*
G03Y6162050I12720J-7950D01*
G37*
G36*
G01X1303910Y6177950D02*
X1266200Y6210000D01*
X1222450Y6170000D01*
X1266200Y6130000D01*
X1303910Y6162050D01*
G03Y6177950I-12720J7950D01*
G37*
G36*
G01X1232500Y9743100D02*
X1221550Y9754040D01*
X1196250Y9732500D01*
X1221550Y9710960D01*
X1232500Y9721900D01*
G03Y9743100I-10610J10600D01*
G37*
G36*
G01Y9890600D02*
X1221550Y9901540D01*
X1196250Y9880000D01*
X1221550Y9858460D01*
X1232500Y9869400D01*
G03Y9890600I-10610J10600D01*
G37*
G36*
G01X1220320Y12380480D02*
X1200000D01*
X1198200Y12348200D01*
X1230480Y12350000D01*
Y12370320D01*
G03X1220320Y12380480I-10160J0D01*
G37*
G36*
G01X1230480Y12469680D02*
Y12490000D01*
X1198200Y12491800D01*
X1200000Y12459520D01*
X1220320D01*
G03X1230480Y12469680I0J10160D01*
G37*
G36*
G01X1687400Y6072400D02*
X1845000Y6087400D01*
X1784100Y6122520D01*
X1695000Y6147400D01*
X1672520Y6089280D01*
G03X1687400Y6072400I14880J-1882D01*
G37*
G36*
G01X1680000Y6275000D02*
X1695000Y6214400D01*
X1783890Y6238730D01*
X1845000Y6274400D01*
X1695060Y6290000D01*
G03X1680000Y6275000I-60J-15000D01*
G37*
G36*
G01X1538250Y6247710D02*
X1506200Y6210000D01*
X1546200Y6166250D01*
X1586200Y6210000D01*
X1554150Y6247710D01*
G03X1538250I-7950J-12720D01*
G37*
G36*
G01X1623910Y6327950D02*
X1586200Y6360000D01*
X1542450Y6320000D01*
X1586200Y6280000D01*
X1623910Y6312050D01*
G03Y6327950I-12720J7950D01*
G37*
G36*
G01X1554150Y6242290D02*
X1586200Y6280000D01*
X1546200Y6323750D01*
X1506200Y6280000D01*
X1538250Y6242290D01*
G03X1554150I7950J12720D01*
G37*
G36*
G01X1787780Y12620480D02*
X1770000D01*
X1767750Y12587750D01*
X1800480Y12590000D01*
Y12607780D01*
G03X1787780Y12620480I-12700J0D01*
G37*
G36*
G01X1645980Y13365880D02*
X1658540Y13378460D01*
X1637000Y13403180D01*
X1615460Y13378460D01*
X1628020Y13365880D01*
G03X1645980I8980J8980D01*
G37*
G36*
G01X1628020Y12987120D02*
X1615460Y12974540D01*
X1637000Y12949820D01*
X1658540Y12974540D01*
X1645980Y12987120D01*
G03X1628020I-8980J-8980D01*
G37*
G36*
G01X2319370Y6015700D02*
X2385000Y6087400D01*
X2310000Y6121150D01*
X2235000Y6087400D01*
X2300630Y6015700D01*
G03X2319370I9370J11710D01*
G37*
G36*
G01X2416090Y5922050D02*
X2453800Y5890000D01*
X2497550Y5930000D01*
X2453800Y5970000D01*
X2416090Y5937950D01*
G03Y5922050I12720J-7950D01*
G37*
G36*
G01X2600000Y7930000D02*
X2870000D01*
X2960000Y7840000D01*
Y6280000D01*
X2940000Y6260000D01*
X2770000D01*
Y6320000D01*
X2388660D01*
X2388300Y6320030D01*
G03X2385010Y6320140I-3173J-45634D01*
G01X2230000D01*
Y6422660D01*
X2385000D01*
G03X2420860Y6440000I0J45750D01*
G01X2450000D01*
X2540000Y6530000D01*
Y7870000D01*
X2600000Y7930000D01*
G37*
G36*
G01X2413410Y6251100D02*
X2385000Y6274400D01*
X2306250Y6244400D01*
X2385000Y6214400D01*
X2413410Y6237700D01*
G03Y6251100I-13420J6700D01*
G37*
G36*
G01X2402260Y6235600D02*
X2453800Y6190000D01*
X2497490Y6229330D01*
X2453800Y6270000D01*
X2406240Y6256980D01*
G03X2402260Y6235600I8169J-12581D01*
G37*
G36*
G01X2300630Y6600100D02*
X2235000Y6528400D01*
X2310000Y6494650D01*
X2385000Y6528400D01*
X2319370Y6600100D01*
G03X2300630I-9370J-11710D01*
G37*
G36*
G01X2317950Y6626090D02*
X2350000Y6663800D01*
X2310000Y6707550D01*
X2270000Y6663800D01*
X2302050Y6626090D01*
G03X2317950I7950J12720D01*
G37*
G36*
G01X2401300Y6845600D02*
X2412250Y6834660D01*
X2437550Y6856200D01*
X2412250Y6877740D01*
X2401300Y6866800D01*
G03Y6845600I10610J-10600D01*
G37*
G36*
G01X2387710Y6864150D02*
X2350000Y6896200D01*
X2306250Y6856200D01*
X2350000Y6816200D01*
X2387710Y6848250D01*
G03Y6864150I-12720J7950D01*
G37*
G36*
G01X2014120Y9088980D02*
X2001540Y9101540D01*
X1976820Y9080000D01*
X2001540Y9058460D01*
X2014120Y9071020D01*
G03Y9088980I-8980J8980D01*
G37*
G36*
G01X2398980Y9700880D02*
X2411540Y9713460D01*
X2390000Y9738180D01*
X2368460Y9713460D01*
X2381020Y9700880D01*
G03X2398980I8980J8980D01*
G37*
G36*
G01X2357500Y9929400D02*
X2368450Y9918460D01*
X2393750Y9940000D01*
X2368450Y9961540D01*
X2357500Y9950600D01*
G03Y9929400I10610J-10600D01*
G37*
G36*
G01Y9829400D02*
X2368450Y9818460D01*
X2393750Y9840000D01*
X2368450Y9861540D01*
X2357500Y9850600D01*
G03Y9829400I10610J-10600D01*
G37*
G36*
G01X2334080Y12862820D02*
X2348450Y12848450D01*
X2372540Y12870000D01*
X2348450Y12891550D01*
X2334080Y12877180D01*
G03Y12862820I7180J-7180D01*
G37*
G36*
G01Y12782820D02*
X2348450Y12768450D01*
X2372540Y12790000D01*
X2348450Y12811550D01*
X2334080Y12797180D01*
G03Y12782820I7180J-7180D01*
G37*
G36*
G01X2339520Y12620280D02*
Y12602500D01*
X2372250Y12600250D01*
X2370000Y12632980D01*
X2352220D01*
G03X2339520Y12620280I0J-12700D01*
G37*
G36*
G01X2485850Y6157710D02*
X2453800Y6120000D01*
X2493800Y6076250D01*
X2533800Y6120000D01*
X2501750Y6157710D01*
G03X2485850I-7950J-12720D01*
G37*
G36*
G01X2638250Y6307710D02*
X2606200Y6270000D01*
X2646200Y6226250D01*
X2686200Y6270000D01*
X2654150Y6307710D01*
G03X2638250I-7950J-12720D01*
G37*
G36*
G01X2501750Y6152290D02*
X2533800Y6190000D01*
X2493800Y6233750D01*
X2453800Y6190000D01*
X2485850Y6152290D01*
G03X2501750I7950J12720D01*
G37*
G36*
G01X3562500Y9370600D02*
X3551550Y9381540D01*
X3526250Y9360000D01*
X3551550Y9338460D01*
X3562500Y9349400D01*
G03Y9370600I-10610J10600D01*
G37*
G36*
G01X3846800Y9583700D02*
X3857740Y9594650D01*
X3836200Y9619950D01*
X3814660Y9594650D01*
X3825600Y9583700D01*
G03X3846800I10600J10610D01*
G37*
G36*
G01X3562500Y10040600D02*
X3551550Y10051540D01*
X3526250Y10030000D01*
X3551550Y10008460D01*
X3562500Y10019400D01*
G03Y10040600I-10610J10600D01*
G37*
G36*
G01X3828200Y9821300D02*
X3817260Y9810350D01*
X3838800Y9785050D01*
X3860340Y9810350D01*
X3849400Y9821300D01*
G03X3828200I-10600J-10610D01*
G37*
G54D10*
X360000Y360000D03*
X370000Y8870000D03*
Y14440000D03*
X7340000Y360000D03*
Y8870000D03*
Y14440000D03*
G54D20*
X2040000Y6308400D03*
G54D11*
X190000Y5870000D03*
Y6330000D03*
X200000Y6850000D03*
Y7310000D03*
Y7770000D03*
X210000Y8290000D03*
X360000Y9660000D03*
X130000Y9550000D03*
X300000Y9380000D03*
X270000Y9820000D03*
Y10020000D03*
Y10230000D03*
X260000Y11660000D03*
Y11860000D03*
Y12290000D03*
Y12070000D03*
Y12490000D03*
Y12700000D03*
X110000Y12930000D03*
X280000Y13130000D03*
X580000Y6170000D03*
Y6630000D03*
X590000Y7150000D03*
X600000Y7650000D03*
Y7990000D03*
X520000Y9510000D03*
X770000Y9500000D03*
X680000Y9670000D03*
X600000Y9300000D03*
X610000Y10100000D03*
X600000Y9870000D03*
X820000Y9860000D03*
X800000Y10150000D03*
X720000Y10600000D03*
Y10420000D03*
X780000Y11250000D03*
Y11050000D03*
Y10860000D03*
X600000Y10960000D03*
Y11160000D03*
X400000Y10950000D03*
Y11150000D03*
Y11360000D03*
X830000Y11820000D03*
X780000Y11650000D03*
Y11460000D03*
X600000Y11370000D03*
X820000Y12090000D03*
X650000Y11890000D03*
X730000Y12250000D03*
X520000Y12270000D03*
X730000Y12450000D03*
Y12660000D03*
X520000Y12470000D03*
Y12680000D03*
X860000Y13270000D03*
Y13010000D03*
X750000Y13270000D03*
X630000D03*
X750000Y13010000D03*
X630000D03*
X1270000Y6320000D03*
X950000Y6170000D03*
X1386200Y6856200D03*
X1370000Y9010000D03*
Y9120000D03*
X1240000Y9010000D03*
Y9121600D03*
Y8780000D03*
Y8891600D03*
X1120000Y9010000D03*
Y9120000D03*
Y8780000D03*
Y8890000D03*
X950000Y9280000D03*
X1270000Y9381600D03*
X1400000Y9380000D03*
X1200000Y9732500D03*
Y9880000D03*
X1303710Y11274290D03*
Y10874290D03*
X1100000Y11940000D03*
X980000D03*
X1350000D03*
X1230000D03*
Y12170000D03*
X1350000D03*
X980000D03*
X1100000D03*
X1200000Y12350000D03*
Y12490000D03*
X1360000Y13270000D03*
Y13010000D03*
X1230000Y13270000D03*
X1110000D03*
X1230000Y13010000D03*
X1110000D03*
X980000Y13270000D03*
Y13010000D03*
X1123710Y13942650D03*
X1324180Y14314940D03*
X1490000Y9010000D03*
Y9121600D03*
X1630000D03*
X1760000Y9120000D03*
X1880000Y9121600D03*
X1910000Y9380000D03*
X1790000D03*
X1910000Y9490000D03*
X1790000D03*
X1910000Y9600000D03*
X1790000D03*
X1660000D03*
Y9490000D03*
Y9380000D03*
X1520000Y9381600D03*
X1703710Y11274290D03*
Y10874290D03*
X1490000Y12170000D03*
X1740000Y11940000D03*
X1860000D03*
X1490000D03*
X1610000D03*
X1930000Y12330000D03*
X1910000Y12590000D03*
X1770000D03*
X1780000Y13010000D03*
X1900000D03*
X1780000Y13270000D03*
X1900000D03*
X1480000D03*
Y13010000D03*
X1637000Y12953000D03*
Y13400000D03*
X1923710Y13942650D03*
X1523710D03*
X1724180Y14314940D03*
X2120000Y6010000D03*
X2040000D03*
X1960000D03*
X2120000Y5920000D03*
X2040000D03*
X1960000D03*
X2120000Y5830000D03*
X2040000D03*
X1960000D03*
X2040000Y6308400D03*
X1960000Y6420000D03*
X2040000D03*
X2120000D03*
X1960000Y6310000D03*
X2120000D03*
X1960000Y6200000D03*
X2040000D03*
X2120000D03*
X2160000Y6570000D03*
X2080000Y6568400D03*
X2160000Y6680000D03*
X2080000D03*
X2400000Y7000000D03*
Y7110000D03*
X2280000D03*
Y6998400D03*
X2433800Y6856200D03*
X2290000Y7300000D03*
Y7410000D03*
X2170000Y7298400D03*
Y7410000D03*
Y7640000D03*
Y7528400D03*
X2290000Y7640000D03*
Y7530000D03*
X2170000Y7880000D03*
Y7768400D03*
X2290000Y7880000D03*
Y7770000D03*
X2170000Y8120000D03*
Y8008400D03*
X2290000Y8120000D03*
Y8010000D03*
X1980000Y9080000D03*
X2390000Y9735000D03*
Y9940000D03*
Y9840000D03*
X2103710Y11274290D03*
Y10874290D03*
X2440000Y12070000D03*
Y11960000D03*
X2370000Y12870000D03*
Y12790000D03*
Y12602500D03*
X2150000Y13310000D03*
X2270000D03*
X2323710Y13942650D03*
X2124180Y14314940D03*
X2820000Y9200000D03*
X2940000D03*
Y9070000D03*
X2820000D03*
X2680000D03*
X2560000D03*
X2940000Y9310000D03*
X2820000D03*
Y9700000D03*
Y9590000D03*
X2940000Y9701600D03*
Y9590000D03*
Y9480000D03*
X2820000D03*
Y9930000D03*
X2940000Y9931600D03*
X2820000Y9820000D03*
X2940000D03*
X2820000Y10100000D03*
X2940000D03*
Y10210000D03*
X2820000D03*
X2503710Y11274290D03*
Y10874290D03*
X2820000Y12310000D03*
X2940000D03*
Y12200000D03*
X2820000D03*
X2700000Y12070000D03*
X2820000D03*
Y11960000D03*
X2700000D03*
X2560000Y12070000D03*
Y11960000D03*
X2820000Y12700000D03*
Y12590000D03*
X2940000Y12701600D03*
Y12590000D03*
X2820000Y12930000D03*
Y12820000D03*
X2940000Y12931600D03*
Y12820000D03*
Y12480000D03*
X2820000D03*
Y13210000D03*
X2940000D03*
Y13100000D03*
X2820000D03*
X2830000Y13640000D03*
X2950000D03*
Y13530000D03*
X2830000D03*
Y13870000D03*
X2950000D03*
Y13760000D03*
X2830000D03*
X3320000Y6560000D03*
Y6650000D03*
Y6290000D03*
Y6380000D03*
Y6470000D03*
X3220000Y6190000D03*
X3130000D03*
X3040000D03*
X3320000Y7110000D03*
Y6840000D03*
Y6930000D03*
Y7020000D03*
Y6740000D03*
Y7380000D03*
Y7470000D03*
Y7560000D03*
Y7200000D03*
Y7290000D03*
X3250000Y7640000D03*
X3160000D03*
X3070000D03*
X3420000Y14290000D03*
Y14401600D03*
X3300000Y14290000D03*
Y14400000D03*
X3420000Y14520000D03*
Y14631600D03*
X3300000Y14520000D03*
Y14630000D03*
X3578420Y6030380D03*
Y6430380D03*
Y6830380D03*
Y7230380D03*
X3980000Y8568400D03*
Y8680000D03*
X3850000Y8570000D03*
Y8680000D03*
X3730000Y8568400D03*
Y8680000D03*
X3980000Y8798400D03*
Y8910000D03*
X3838800Y9788800D03*
X3836200Y9616200D03*
X3530000Y9360000D03*
Y10030000D03*
X3780000Y11160000D03*
X3900000D03*
Y11270000D03*
X3780000D03*
X3790000Y10910000D03*
X3910000D03*
Y11020000D03*
X3790000D03*
X3780000Y11670000D03*
X3900000D03*
Y11780000D03*
X3780000D03*
Y11430000D03*
X3900000D03*
Y11540000D03*
X3780000D03*
X3790000Y14411600D03*
Y14300000D03*
X3550000Y14180000D03*
Y14070000D03*
X3670000Y14181600D03*
Y14070000D03*
Y14520000D03*
Y14631600D03*
X3550000Y14520000D03*
Y14630000D03*
X4100000Y8570000D03*
Y8680000D03*
Y8800000D03*
Y8910000D03*
X5017540Y9082360D03*
X4617540D03*
X5017540Y9482360D03*
X4617540D03*
X5017540Y9882360D03*
X4617540D03*
X5042100Y11136120D03*
X4642100D03*
X5042100Y11536120D03*
X4642100D03*
X5042100Y12336120D03*
X4642100D03*
X5042100Y11936120D03*
X4642100D03*
X5042100Y12736120D03*
X4642100D03*
X5042100Y13136120D03*
X4642100D03*
X5042100Y13936120D03*
X4642100D03*
X5042100Y13536120D03*
X4642100D03*
X5042100Y14336120D03*
X4642100D03*
X5417540Y9082360D03*
Y9482360D03*
Y9882360D03*
X5442100Y11136120D03*
Y11536120D03*
Y12336120D03*
Y11936120D03*
Y12736120D03*
Y13136120D03*
Y13936120D03*
Y13536120D03*
Y14336120D03*
G54D30*
G01X1440000Y6410000D02*
X1640000D01*
G01X1690000D02*
X1728600Y6371400D01*
X1770000D01*
G01X2370000Y12602500D02*
X2272500Y12700000D01*
X1880000D01*
X1770000Y12590000D01*
G01X1637000Y12953000D02*
Y13400000D01*
G01X1980000Y9080000D02*
X2330000D01*
X2390000Y9140000D01*
Y9735000D01*
G54D12*
X910000Y6498400D03*
Y7538400D03*
G54D21*
X2115000Y6816000D03*
Y7024000D03*
G54D31*
G01X3610000Y11450000D02*
X3830000D01*
G54D13*
X470000Y10280000D03*
Y11588950D03*
Y12880000D03*
X1895000Y360000D03*
X7240000Y9825000D03*
Y11205000D03*
Y13075000D03*
G54D22*
X2965000Y460000D03*
X3715000Y360000D03*
G54D14*
X470000Y10780000D03*
Y10530000D03*
Y11838950D03*
Y12088950D03*
Y13380000D03*
Y13130000D03*
X1645000Y360000D03*
X7240000Y9575000D03*
Y10955000D03*
Y12325000D03*
Y12575000D03*
Y12825000D03*
G54D23*
X2850000Y6750000D03*
Y6400000D03*
Y7090000D03*
Y7430000D03*
X3130000Y6750000D03*
Y6400000D03*
Y7090000D03*
Y7430000D03*
G54D24*
X4120000Y9200000D03*
Y10200000D03*
Y11200000D03*
Y12200000D03*
Y13200000D03*
Y14200000D03*
X6120000Y9200000D03*
Y10200000D03*
Y11200000D03*
Y12200000D03*
Y13200000D03*
Y14200000D03*
G54D15*
X1073800Y6000000D03*
X1226200D03*
X1393800D03*
X1073800Y6170000D03*
X1226200D03*
X1393800Y6320000D03*
Y6170000D03*
X1546200Y6000000D03*
Y6320000D03*
Y6170000D03*
X1883800Y7350000D03*
X2310000Y6703800D03*
Y6856200D03*
X2036200Y7350000D03*
X2493800Y6080000D03*
X2646200D03*
X2493800Y5930000D03*
X2646200D03*
Y6230000D03*
X2493800D03*
G54D25*
X3610000Y10950000D03*
Y11450000D03*
Y13850000D03*
Y14350000D03*
G54D16*
X1400000Y8870000D03*
X1700000D03*
X3500000D03*
X3800000D03*
G54D17*
X1818000Y1455000D03*
Y7805000D03*
X2834000D03*
X3850000Y1455000D03*
Y7805000D03*
X4866000Y1455000D03*
Y7805000D03*
X5882000D03*
G54D26*
X4782540Y410000D03*
X5280000D03*
G54D27*
G01X360240Y0D02*
X7340000D01*
G03X7700000Y360000I0J360000D01*
G01Y14440000D01*
G03X7340000Y14800000I-360000J0D01*
G01X369760D01*
G03X9760Y14440240I-1J-359999D01*
G01X240Y360240D01*
G03X360240Y0I360001J-239D01*
G54D18*
X1770000Y6117400D03*
Y6498400D03*
Y6371400D03*
Y6244400D03*
X2310000Y6117400D03*
Y6244400D03*
Y6371400D03*
Y6498400D03*
G54D28*
G01X770000Y8240000D02*
X480000D01*
X410000Y8170000D01*
Y6100000D01*
X510000Y6000000D01*
X1073800D01*
G01X1770000Y6117400D02*
X1717400D01*
X1680000Y6080000D01*
X1473800D01*
X1393800Y6000000D01*
G01D02*
X1226200D01*
G01X1393800Y6170000D02*
X1226200D01*
G01X2390000Y9840000D02*
X1870000D01*
X1762500Y9732500D01*
X1200000D01*
G01Y9880000D02*
X1770000D01*
X1830000Y9940000D01*
X2390000D01*
G01X1546200Y6170000D02*
Y6320000D01*
G01D02*
X1650000D01*
X1725600Y6244400D01*
X1770000D01*
G01X2310000Y6117400D02*
Y5980000D01*
X2360000Y5930000D01*
X2493800D01*
G01X2310000Y6244400D02*
X2479400D01*
X2493800Y6230000D01*
G01X2310000Y6498400D02*
Y6703800D01*
G01Y6856200D02*
X2433800D01*
G01X2493800Y6230000D02*
Y6080000D01*
G01X2646200Y6230000D02*
Y6366200D01*
G01X3530000Y9360000D02*
X3770000D01*
X3836200Y9426200D01*
Y9616200D01*
G01X3530000Y10030000D02*
X3780000D01*
X3838800Y9971200D01*
Y9788800D01*
G54D19*
X1730000Y6915000D03*
G54D29*
G01X2370000Y12790000D02*
X1860000D01*
X1460000Y12390000D01*
X1240000D01*
X1200000Y12350000D01*
G01X2370000Y12870000D02*
X1840000D01*
X1420000Y12450000D01*
X1240000D01*
X1200000Y12490000D01*
M02*
