G04 ================== begin FILE IDENTIFICATION RECORD ==================*
G04 Layout Name:  H:/github/MBEDBoard/TPA311X_TEST_V10B/PCB/TPA311X_TEST_V10B.brd*
G04 Film Name:    SILKSCREEN_BOTTOM*
G04 File Format:  Gerber RS274X*
G04 File Origin:  Cadence Allegro 17.2-S067*
G04 Origin Date:  Mon Aug 17 21:07:12 2020*
G04 *
G04 Layer:  REF DES/SILKSCREEN_BOTTOM*
G04 Layer:  PACKAGE GEOMETRY/SILKSCREEN_BOTTOM*
G04 Layer:  BOARD GEOMETRY/SILKSCREEN_BOTTOM*
G04 *
G04 Offset:    (0.0000 0.0000)*
G04 Mirror:    No*
G04 Mode:      Positive*
G04 Rotation:  0*
G04 FullContactRelief:  No*
G04 UndefLineWidth:     0.1524*
G04 ================== end FILE IDENTIFICATION RECORD ====================*
%FSLAX55Y55*MOMM*%
%IR0*IPPOS*OFA0.00000B0.00000*MIA0B0*SFA1.00000B1.00000*%
%ADD10C,.2*%
%ADD11C,.1524*%
G75*
%LPD*%
G75*
G54D10*
G01X14010000Y650000D02*
X12370000D01*
Y70000D01*
X14010000D01*
Y650000D01*
G54D11*
G01X13930000Y600000D02*
Y490000D01*
G01X13960670Y600000D02*
X13899330D01*
G01X13866670Y490000D02*
Y600000D01*
X13834670D01*
X13824000Y594500D01*
X13816000Y581670D01*
X13813330Y567000D01*
X13816000Y552330D01*
X13822670Y541330D01*
X13834670Y535830D01*
X13866670D01*
G01X13783330Y490000D02*
X13750000Y600000D01*
X13716670Y490000D01*
G01X13728670Y528500D02*
X13771330D01*
G01X13689330Y512000D02*
X13681330Y499160D01*
X13670670Y491830D01*
X13658670Y490000D01*
X13648000Y491830D01*
X13637330Y501000D01*
X13630670Y512000D01*
X13629330Y523000D01*
X13632000Y535830D01*
X13641330Y545000D01*
X13650670Y548670D01*
X13662670D01*
G01X13650670D02*
X13642670Y554170D01*
X13636000Y563330D01*
X13633330Y574330D01*
X13636000Y585330D01*
X13642670Y594500D01*
X13654670Y600000D01*
X13666670Y598170D01*
X13678670Y590830D01*
G01X13570000Y490000D02*
Y600000D01*
X13586000Y578000D01*
G01Y490000D02*
X13554000D01*
G01X13480000D02*
Y600000D01*
X13496000Y578000D01*
G01Y490000D02*
X13464000D01*
G01X13418000D02*
X13362000Y600000D01*
G01X13418000D02*
X13362000Y490000D01*
G01X13340000Y453330D02*
X13260000D01*
G01X13210000Y600000D02*
Y490000D01*
G01X13240670Y600000D02*
X13179330D01*
G01X13093330Y490000D02*
X13146670D01*
Y600000D01*
X13093330D01*
G01X13114670Y546830D02*
X13146670D01*
G01X13058000Y504660D02*
X13047330Y495500D01*
X13035330Y490000D01*
X13024670D01*
X13014000Y495500D01*
X13006000Y504660D01*
X13002000Y517500D01*
X13004670Y530330D01*
X13011330Y541330D01*
X13023330Y548670D01*
X13039330Y552330D01*
X13048670Y559670D01*
X13052670Y572500D01*
X13050000Y585330D01*
X13043330Y594500D01*
X13034000Y600000D01*
X13024670D01*
X13015330Y596330D01*
X13007330Y587170D01*
G01X12940000Y600000D02*
Y490000D01*
G01X12970670Y600000D02*
X12909330D01*
G01X12890000Y453330D02*
X12810000D01*
G01X12793330Y600000D02*
X12760000Y490000D01*
X12726670Y600000D01*
G01X12670000Y490000D02*
Y600000D01*
X12686000Y578000D01*
G01Y490000D02*
X12654000D01*
G01X12580000Y600000D02*
X12590670Y596330D01*
X12598670Y587170D01*
X12604000Y576170D01*
X12608000Y561500D01*
X12609330Y545000D01*
X12608000Y528500D01*
X12604000Y513830D01*
X12598670Y502830D01*
X12590670Y493670D01*
X12580000Y490000D01*
X12569330Y493670D01*
X12561330Y502830D01*
X12556000Y513830D01*
X12552000Y528500D01*
X12550670Y545000D01*
X12552000Y561500D01*
X12556000Y576170D01*
X12561330Y587170D01*
X12569330Y596330D01*
X12580000Y600000D01*
G01X12479330Y548670D02*
X12474000Y554170D01*
X12470000Y563330D01*
X12467330Y576170D01*
X12470000Y587170D01*
X12475330Y594500D01*
X12484670Y600000D01*
X12520670D01*
Y490000D01*
X12476670D01*
X12467330Y497330D01*
X12462000Y508330D01*
X12459330Y521170D01*
X12462000Y534000D01*
X12470000Y545000D01*
X12479330Y548670D01*
X12520670D01*
G01X13955330Y391670D02*
X13947330Y402660D01*
X13938000Y408170D01*
X13927330Y410000D01*
X13914000Y406330D01*
X13904670Y397170D01*
X13902000Y386170D01*
X13903330Y375160D01*
X13908670Y366000D01*
X13935330Y347670D01*
X13947330Y334830D01*
X13955330Y316500D01*
X13958000Y300000D01*
X13902000D01*
G01X13840000Y410000D02*
X13850670Y406330D01*
X13858670Y397170D01*
X13864000Y386170D01*
X13868000Y371500D01*
X13869330Y355000D01*
X13868000Y338500D01*
X13864000Y323830D01*
X13858670Y312830D01*
X13850670Y303670D01*
X13840000Y300000D01*
X13829330Y303670D01*
X13821330Y312830D01*
X13816000Y323830D01*
X13812000Y338500D01*
X13810670Y355000D01*
X13812000Y371500D01*
X13816000Y386170D01*
X13821330Y397170D01*
X13829330Y406330D01*
X13840000Y410000D01*
G01X13775330Y391670D02*
X13767330Y402660D01*
X13758000Y408170D01*
X13747330Y410000D01*
X13734000Y406330D01*
X13724670Y397170D01*
X13722000Y386170D01*
X13723330Y375160D01*
X13728670Y366000D01*
X13755330Y347670D01*
X13767330Y334830D01*
X13775330Y316500D01*
X13778000Y300000D01*
X13722000D01*
G01X13660000Y410000D02*
X13670670Y406330D01*
X13678670Y397170D01*
X13684000Y386170D01*
X13688000Y371500D01*
X13689330Y355000D01*
X13688000Y338500D01*
X13684000Y323830D01*
X13678670Y312830D01*
X13670670Y303670D01*
X13660000Y300000D01*
X13649330Y303670D01*
X13641330Y312830D01*
X13636000Y323830D01*
X13632000Y338500D01*
X13630670Y355000D01*
X13632000Y371500D01*
X13636000Y386170D01*
X13641330Y397170D01*
X13649330Y406330D01*
X13660000Y410000D01*
G01X13570000D02*
X13580670Y406330D01*
X13588670Y397170D01*
X13594000Y386170D01*
X13598000Y371500D01*
X13599330Y355000D01*
X13598000Y338500D01*
X13594000Y323830D01*
X13588670Y312830D01*
X13580670Y303670D01*
X13570000Y300000D01*
X13559330Y303670D01*
X13551330Y312830D01*
X13546000Y323830D01*
X13542000Y338500D01*
X13540670Y355000D01*
X13542000Y371500D01*
X13546000Y386170D01*
X13551330Y397170D01*
X13559330Y406330D01*
X13570000Y410000D01*
G01X13480000Y300000D02*
X13470670Y301830D01*
X13460000Y307330D01*
X13453330Y316500D01*
X13450670Y329330D01*
X13453330Y342160D01*
X13461330Y353170D01*
X13473330Y358670D01*
X13486670D01*
X13494670Y362330D01*
X13501330Y371500D01*
X13504000Y384330D01*
X13500000Y397170D01*
X13490670Y406330D01*
X13480000Y410000D01*
X13469330Y406330D01*
X13460000Y397170D01*
X13456000Y384330D01*
X13458670Y371500D01*
X13465330Y362330D01*
X13473330Y358670D01*
X13486670D01*
X13498670Y353170D01*
X13506670Y342160D01*
X13509330Y329330D01*
X13506670Y316500D01*
X13500000Y307330D01*
X13489330Y301830D01*
X13480000Y300000D01*
G01X13390000D02*
Y410000D01*
X13406000Y388000D01*
G01Y300000D02*
X13374000D01*
G01X13302670D02*
X13300000Y323830D01*
X13296000Y344000D01*
X13290670Y362330D01*
X13284000Y382500D01*
X13273330Y410000D01*
X13326670D01*
G01X13958000Y110000D02*
X13902000Y220000D01*
G01X13958000D02*
X13902000Y110000D01*
G01X13868000D02*
X13812000Y220000D01*
G01X13868000D02*
X13812000Y110000D01*
G01X13778000D02*
X13722000Y220000D01*
G01X13778000D02*
X13722000Y110000D01*
G01X13686670Y220000D02*
Y110000D01*
X13633330D01*
G01X13595330Y220000D02*
X13544670D01*
X13595330Y110000D01*
X13544670D01*
G01X13506670Y132000D02*
X13500000Y121000D01*
X13492000Y113670D01*
X13482670Y110000D01*
X13472000Y113670D01*
X13464000Y121000D01*
X13456000Y132000D01*
X13453330Y146670D01*
Y220000D01*
G01X13418000Y110000D02*
X13362000Y220000D01*
G01X13418000D02*
X13362000Y110000D01*
G01X13328000D02*
X13272000Y220000D01*
G01X13328000D02*
X13272000Y110000D01*
G01X13238000D02*
X13182000Y220000D01*
G01X13238000D02*
X13182000Y110000D01*
M02*
