G04 ================== begin FILE IDENTIFICATION RECORD ==================*
G04 Layout Name:  H:/github/MBEDBoard/TPA311X_TEST_V10B/PCB/TPA311X_TEST_V10B.brd*
G04 Film Name:    TOP*
G04 File Format:  Gerber RS274X*
G04 File Origin:  Cadence Allegro 17.2-S067*
G04 Origin Date:  Mon Aug 17 21:07:12 2020*
G04 *
G04 Layer:  ETCH/TOP*
G04 Layer:  PIN/TOP*
G04 Layer:  VIA CLASS/TOP*
G04 *
G04 Offset:    (0.0000 0.0000)*
G04 Mirror:    No*
G04 Mode:      Positive*
G04 Rotation:  0*
G04 FullContactRelief:  No*
G04 UndefLineWidth:     0.1524*
G04 ================== end FILE IDENTIFICATION RECORD ====================*
%FSLAX55Y55*MOMM*%
%IR0*IPPOS*OFA0.00000B0.00000*MIA0B0*SFA1.00000B1.00000*%
%ADD27R,.6X1.*%
%ADD23R,1.1X.6*%
%ADD22R,1.1X.7*%
%ADD21R,.7X1.1*%
%ADD20R,1.3X.9*%
%ADD25R,.8X1.4*%
%ADD34R,.3X1.55*%
%ADD19C,.75*%
%ADD15R,.8X.8*%
%ADD11C,.6096*%
%ADD40O,4.X2.*%
%ADD38O,2.X4.*%
%ADD28R,1.2X1.*%
%ADD35R,5.X5.*%
%ADD36R,1.4X1.5*%
%ADD26R,1.1X3.7*%
%ADD33R,6.2X2.4*%
%ADD30R,1.8X1.6*%
%ADD29C,3.*%
%ADD24R,1.6X1.8*%
%ADD17C,2.2*%
%ADD14C,1.3*%
%ADD37C,2.5*%
%ADD18C,1.6*%
%ADD31C,2.7*%
%ADD12C,1.8*%
%ADD32C,1.65*%
%ADD39R,1.6X1.6*%
%ADD10C,6.9*%
%ADD13R,1.8X1.8*%
%ADD16R,.9144X.9144*%
%ADD41C,.4*%
%ADD42C,.2032*%
%ADD43C,.508*%
%ADD44C,.762*%
%ADD49R,.3X1.6*%
%ADD45C,2.41*%
%ADD50C,3.61*%
%ADD48C,2.26*%
%ADD47C,2.81*%
%ADD46C,2.4132*%
G75*
%LPD*%
G75*
G36*
G01X9436800Y8950000D02*
X14395200D01*
G02X14402760Y8933050I4J-10159D01*
G03X14306500Y8682000I279244J-251050D01*
G03X14468140Y8373350I375502J0D01*
G02Y8356650I-5786J-8350D01*
G03X14306500Y8048000I213862J-308650D01*
G03X14682000Y7672500I375500J0D01*
G03X14933050Y7768760I0J375504D01*
G02X14950000Y7761200I6791J-7556D01*
G01Y1238800D01*
G02X14933050Y1231240I-10159J-4D01*
G03X14682000Y1327500I-251050J-279244D01*
G03X14306500Y952000I0J-375500D01*
G03X14468140Y643350I375502J0D01*
G02Y626650I-5786J-8350D01*
G03X14306500Y318000I213862J-308650D01*
G03X14402760Y66950I375504J0D01*
G02X14395200Y50000I-7556J-6791D01*
G01X7786800D01*
G02X7779240Y66950I-4J10159D01*
G03X7875500Y318000I-279244J251050D01*
G03X7124500I-375500J0D01*
G03X7220760Y66950I375504J0D01*
G02X7213200Y50000I-7556J-6791D01*
G01X604800D01*
G02X597240Y66950I-4J10159D01*
G03X693500Y318000I-279244J251050D01*
G03X531860Y626650I-375502J0D01*
G02Y643350I5786J8350D01*
G03X693500Y952000I-213862J308650D01*
G03X318000Y1327500I-375500J0D01*
G03X57220Y1222170I0J-375489D01*
G02X40000Y1229480I-7059J7308D01*
G01Y7770520D01*
G02X57220Y7777830I10161J2D01*
G03X318000Y7672500I260780J270159D01*
G03X693500Y8048000I0J375500D01*
G03X531860Y8356650I-375502J0D01*
G02Y8373350I5786J8350D01*
G03X693500Y8682000I-213862J308650D01*
G03X597240Y8933050I-375504J0D01*
G02X604800Y8950000I7556J6791D01*
G01X8863200D01*
G02X8870760Y8933050I4J-10159D01*
G03X8774500Y8682000I279244J-251050D01*
G03X9525500I375500J0D01*
G03X9429240Y8933050I-375504J0D01*
G02X9436800Y8950000I7556J6791D01*
G37*
%LPC*%
G75*
G36*
G01X13410000Y8460500D02*
X13610000D01*
G02Y8199500I0J-130500D01*
G01X13410000D01*
G02Y8460500I0J130500D01*
G37*
G36*
G01X1445580Y5585000D02*
Y5695000D01*
G02X1481160Y5730580I35580J0D01*
G01X1551160D01*
G02X1586740Y5695000I0J-35580D01*
G01Y5585000D01*
G02X1551160Y5549420I-35580J0D01*
G01X1481160D01*
G02X1445580Y5585000I0J35580D01*
G37*
G36*
G01X1649340Y3786840D02*
Y4026840D01*
X1703160Y4080660D01*
X1880660D01*
Y3609340D01*
X1816840D01*
X1810660Y3603160D01*
Y3594770D01*
X1816250D01*
X1816750Y3594870D01*
G02X1823800Y3595580I7072J-34868D01*
G01X1969340D01*
Y4026840D01*
X2013160Y4070660D01*
X2366840D01*
X2420660Y4016840D01*
Y3410660D01*
X2490660D01*
Y3186840D01*
X2496840Y3180660D01*
X2766840D01*
X2840660Y3106840D01*
Y2853160D01*
X2776840Y2789340D01*
X2343160D01*
X2289340Y2843160D01*
Y2944420D01*
X2177600D01*
G02X2143300Y2970530I0J35584D01*
G01X2142270Y2974260D01*
X2110000D01*
G02X2077660Y2987660I5J45738D01*
G01X2037660Y3027660D01*
G02X2024260Y3060000I32338J32345D01*
G01Y3109420D01*
X2015000D01*
G02X1979420Y3145000I0J35580D01*
G01Y3199340D01*
X1969340D01*
Y3444420D01*
X1855740D01*
Y3430580D01*
X1865000D01*
G02X1900580Y3395000I0J-35580D01*
G01Y3335000D01*
G02X1865000Y3299420I-35580J0D01*
G01X1755000D01*
G02X1719420Y3335000I0J35580D01*
G01Y3395000D01*
G02X1724800Y3413810I35573J0D01*
G03X1716170Y3429340I-8625J5370D01*
G01X1439540D01*
Y3395580D01*
X1586200D01*
G02X1621780Y3360000I0J-35580D01*
G01Y3280000D01*
G02X1609110Y3252770I-35583J-6D01*
G03Y3237230I6537J-7770D01*
G02X1618980Y3223840I-22914J-27223D01*
G01X1620290Y3220740D01*
X1723090D01*
G02X1755000Y3240580I31910J-15741D01*
G01X1865000D01*
G02X1900580Y3205000I0J-35580D01*
G01Y3145000D01*
G02X1865000Y3109420I-35580J0D01*
G01X1755000D01*
G02X1723090Y3129260I0J35581D01*
G01X1622040D01*
X1621410Y3124910D01*
G02X1586200Y3094420I-35210J5085D01*
G01X1506200D01*
G02X1470620Y3130000I0J35580D01*
G01Y3210000D01*
G02X1476040Y3228870I35578J-6D01*
G03X1467420Y3244420I-8614J5389D01*
G01X1353800D01*
G02X1318220Y3280000I0J35580D01*
G01Y3360000D01*
G02X1344330Y3394300I35584J0D01*
G01X1348060Y3395330D01*
Y3429340D01*
X1133160D01*
X1079340Y3483160D01*
Y3736840D01*
X1123160Y3780660D01*
X1643160D01*
X1649340Y3786840D01*
G37*
G36*
G01X2090760Y5730580D02*
X2249340D01*
Y5740660D01*
X2510660D01*
Y5413160D01*
X2466840Y5369340D01*
X2293160D01*
X2249340Y5413160D01*
Y5549420D01*
X2090760D01*
G02X2055180Y5585000I0J35580D01*
G01Y5695000D01*
G02X2090760Y5730580I35580J0D01*
G37*
G36*
G01X2542780Y5974600D02*
Y6044600D01*
G02X2578360Y6080180I35580J0D01*
G01X2688360D01*
G02X2723940Y6044600I0J-35580D01*
G01Y5974600D01*
G02X2720240Y5958800I-35585J0D01*
G02X2723940Y5943000I-31885J-15800D01*
G01Y5873000D01*
G02X2720240Y5857200I-35585J0D01*
G02X2723940Y5841400I-31885J-15800D01*
G01Y5771400D01*
G02X2688360Y5735820I-35580J0D01*
G01X2578360D01*
G02X2542780Y5771400I0J35580D01*
G01Y5841400D01*
G02X2546480Y5857200I35585J0D01*
G02X2542780Y5873000I31885J15800D01*
G01Y5943000D01*
G02X2546480Y5958800I35585J0D01*
G02X2542780Y5974600I31885J15800D01*
G37*
G36*
G01Y6279400D02*
Y6349400D01*
G02X2578360Y6384980I35580J0D01*
G01X2688360D01*
G02X2723940Y6349400I0J-35580D01*
G01Y6279400D01*
G02X2720240Y6263600I-35585J0D01*
G02X2723940Y6247800I-31885J-15800D01*
G01Y6177800D01*
G02X2688360Y6142220I-35580J0D01*
G01X2578360D01*
G02X2542780Y6177800I0J35580D01*
G01Y6247800D01*
G02X2546480Y6263600I35585J0D01*
G02X2542780Y6279400I31885J15800D01*
G37*
G36*
G01X2156780Y7755000D02*
G02X2192360Y7790580I35580J0D01*
G01X2567160D01*
G02X2602740Y7755000I0J-35580D01*
G01Y7645000D01*
G02X2593560Y7621150I-35572J0D01*
G03X2601100Y7604180I7541J-6810D01*
G01X2688360D01*
G02X2712670Y7594580I0J-35580D01*
G01X2728180D01*
X2729080Y7594940D01*
G02X2753600Y7599660I24520J-61330D01*
G02Y7467540I0J-66060D01*
G02X2729080Y7472260I0J66050D01*
G01X2728180Y7472620D01*
X2712670D01*
G02X2688360Y7463020I-24310J25980D01*
G01X2578360D01*
G02X2555730Y7471140I-5J35582D01*
G01X2554320Y7472300D01*
X2547420D01*
Y7464200D01*
G02X2534020Y7431860I-45738J5D01*
G01X2469180Y7367020D01*
G02X2436840Y7353620I-32345J32338D01*
G01X2408830D01*
X2408050Y7349480D01*
G02X2343130Y7295640I-64920J12220D01*
G02X2277070Y7361700I0J66060D01*
G02X2300250Y7411960I66063J7D01*
G03Y7427410I-6589J7725D01*
G02X2277070Y7477670I42883J50253D01*
G02X2343130Y7543730I66060J0D01*
G02X2405240Y7500160I0J-66055D01*
G01X2405630Y7499100D01*
X2410020Y7494710D01*
X2415300Y7499990D01*
Y7565090D01*
X2398220Y7582180D01*
G02X2385750Y7605360I32340J32342D01*
G01X2384920Y7609420D01*
X2192360D01*
G02X2156780Y7645000I0J35580D01*
G01Y7755000D01*
G37*
G36*
G01X3919340Y7743160D02*
Y7976840D01*
X3963160Y8020660D01*
X5866840D01*
X5910660Y7976840D01*
Y7723160D01*
X5887500Y7700000D01*
X5980660Y7606840D01*
Y6483160D01*
X5916840Y6419340D01*
X5443160D01*
X5355000Y6507500D01*
X5266840Y6419340D01*
X4223160D01*
X4129340Y6513160D01*
Y7090660D01*
X5023160D01*
X5049340Y7116840D01*
Y7157310D01*
G03X5032000Y7164490I-10158J-3D01*
G01X5006840Y7139340D01*
X4743160D01*
X4689340Y7193160D01*
Y7616840D01*
X4733170Y7660670D01*
G03X4729570Y7669340I-3595J3590D01*
G01X4719160D01*
X4718540Y7669180D01*
G02X4675000Y7663700I-43534J170181D01*
G02X4630850Y7669340I5J175659D01*
G01X3993160D01*
X3919340Y7743160D01*
G37*
G36*
G01X6709340Y7733160D02*
Y7946840D01*
X6783160Y8020660D01*
X8656840D01*
X8710660Y7966840D01*
Y7733160D01*
X8646840Y7669340D01*
X8192690D01*
G03X8185510Y7652000I3J-10158D01*
G01X8230660Y7606840D01*
Y6483160D01*
X8166840Y6419340D01*
X7693160D01*
X7605000Y6507500D01*
X7516840Y6419340D01*
X6473160D01*
X6379340Y6513160D01*
Y7090660D01*
X7273160D01*
X7299340Y7116840D01*
Y7157310D01*
G03X7282000Y7164490I-10158J-3D01*
G01X7256840Y7139340D01*
X6993160D01*
X6939340Y7193160D01*
Y7616840D01*
X6974490Y7652000D01*
G03X6967310Y7669340I-7183J7182D01*
G01X6959160D01*
X6958540Y7669180D01*
G02X6915000Y7663700I-43534J170181D01*
G02X6871460Y7669180I-6J175661D01*
G01X6870840Y7669340D01*
X6773160D01*
X6709340Y7733160D01*
G37*
G36*
G01X1455180Y7779310D02*
Y8392840D01*
G02X1385500Y8508400I60985J115560D01*
G02X1646820I130660J0D01*
G02X1577140Y8392840I-130665J0D01*
G01Y7779310D01*
G02X1586740Y7755000I-25980J-24310D01*
G01Y7645000D01*
G02X1551160Y7609420I-35580J0D01*
G01X1481160D01*
G02X1445580Y7645000I0J35580D01*
G01Y7755000D01*
G02X1455180Y7779310I35580J0D01*
G37*
G36*
G01X11739340Y8266840D02*
X11813160Y8340660D01*
X12236840D01*
X12310660Y8266840D01*
Y7956840D01*
X12346840Y7920660D01*
X12410290D01*
G03X12416650Y7938740I-1J10159D01*
G02X12358500Y8060000I97357J121260D01*
G02X12669500I155500J0D01*
G02X12611350Y7938740I-155507J0D01*
G03X12617710Y7920660I6361J-7921D01*
G01X12786840D01*
X12916840Y7790660D01*
X12925950D01*
G03X12932960Y7808170I-1J10159D01*
G02X12889340Y7910000I97050J101830D01*
G01Y8110000D01*
G02X13170660I140660J0D01*
G01Y7910000D01*
G02X13127040Y7808170I-140670J0D01*
G03X13134050Y7790660I7011J-7351D01*
G01X13143160D01*
X13343160Y7990660D01*
X14056840D01*
X14160660Y7886840D01*
Y5703160D01*
X14066840Y5609340D01*
X13203160D01*
X13119340Y5693160D01*
Y5790910D01*
G03X13101620Y5797700I-10161J0D01*
G02X13010000Y5756840I-91620J82289D01*
G02X12894530Y5837170I0J123156D01*
G03X12875470I-9530J-3529D01*
G02X12644530I-115470J42826D01*
G03X12625470I-9530J-3529D01*
G02X12510000Y5756840I-115470J42826D01*
G02X12386840Y5880000I0J123160D01*
G02X12449020Y5987000I123153J0D01*
G01Y6494740D01*
X12389340Y6554420D01*
X12270000D01*
G02X12234420Y6590000I0J35580D01*
G01Y6770000D01*
G02X12270000Y6805580I35580J0D01*
G01X12430000D01*
G02X12465580Y6770000I0J-35580D01*
G01Y6650660D01*
X12497080Y6619160D01*
G03X12514420Y6626350I7181J7187D01*
G01Y6770000D01*
G02X12550000Y6805580I35580J0D01*
G01X12710000D01*
G02X12745580Y6770000I0J-35580D01*
G01Y6650660D01*
X12803120Y6593120D01*
G02X12820980Y6550000I-43123J-43120D01*
G01Y5987000D01*
G02X12875470Y5922830I-60980J-107001D01*
G03X12894530I9530J3529D01*
G02X13010000Y6003160I115470J-42826D01*
G02X13101620Y5962300I0J-123149D01*
G03X13119340Y5969090I7559J6790D01*
G01Y6823160D01*
X13103160Y6839340D01*
X12179340D01*
Y7393160D01*
X12163160Y7409340D01*
X11833160D01*
X11739340Y7503160D01*
Y8266840D01*
G37*
G36*
G01X796530Y7561610D02*
G02X784900Y7599040I54417J37430D01*
G02X917020I66060J0D01*
G02X905390Y7561610I-66047J0D01*
G03X908700Y7547040I8371J-5759D01*
G02X919120Y7537950I-17734J-30846D01*
G03X935200I8040J6209D01*
G02X944730Y7546510I28152J-21757D01*
G03X947930Y7560700I-5320J8656D01*
G02X937300Y7596640I55442J35940D01*
G02X1069420I66060J0D01*
G02X1058790Y7560700I-66072J0D01*
G03X1061990Y7546510I8520J-5534D01*
G02X1078940Y7516200I-18625J-30310D01*
G01Y7436200D01*
G02X1065110Y7408040I-35584J0D01*
G03Y7391960I6209J-8040D01*
G02X1078940Y7363800I-21754J-28160D01*
G01Y7283800D01*
G02X1064340Y7255060I-35587J0D01*
G01Y7238740D01*
G02X1078940Y7210000I-20987J-28740D01*
G01Y7130000D01*
G02X1072470Y7109540I-35585J0D01*
G03X1073740Y7096370I8309J-5845D01*
G02X1084660Y7070720I-24665J-25650D01*
G01Y6979280D01*
G02X1073740Y6953630I-35585J0D01*
G03X1072470Y6940460I7039J-7325D01*
G02X1078940Y6920000I-29115J-20460D01*
G01Y6840000D01*
G02X1043360Y6804420I-35580J0D01*
G01X963360D01*
G02X927780Y6840000I0J35580D01*
G01Y6920000D01*
G02X929370Y6930530I35582J12D01*
G03X919670Y6943700I-9702J3012D01*
G01X805240D01*
G02X773100Y6964020I0J35578D01*
G01X404290D01*
G02X369840Y6932930I-86288J60981D01*
G03X369360Y6915510I4984J-8854D01*
G02X413500Y6835000I-51354J-80510D01*
G02X222500I-95500J0D01*
G02X266640Y6915510I95494J0D01*
G03X266160Y6932930I-5464J8566D01*
G02X212340Y7025000I51842J92070D01*
G02X318000Y7130660I105660J0D01*
G02X404290Y7085980I0J-105665D01*
G01X773100D01*
G02X783630Y7098980I32136J-15266D01*
G03X784340Y7106390I-3088J4035D01*
G02X782220Y7109020I26611J23620D01*
G01X765420D01*
X764520Y7108660D01*
G02X740000Y7103940I-24520J61330D01*
G02Y7236060I0J66060D01*
G02X764520Y7231340I0J-66050D01*
G01X765420Y7230980D01*
X782220D01*
G02X789980Y7238740I28740J-20980D01*
G01Y7255060D01*
G02X775380Y7283800I20987J28740D01*
G01Y7363800D01*
G02X789210Y7391960I35584J0D01*
G03Y7408040I-6209J8040D01*
G02X775380Y7436200I21754J28160D01*
G01Y7516200D01*
G02X793220Y7547040I35577J0D01*
G03X796530Y7561610I-5061J8811D01*
G37*
G36*
G01X1222780Y7467000D02*
G02X1258360Y7502580I35580J0D01*
G01X1368360D01*
G02X1403940Y7467000I0J-35580D01*
G01Y7397000D01*
G02X1400240Y7381200I-35585J0D01*
G02X1403940Y7365400I-31885J-15800D01*
G01Y7295400D01*
G02X1400240Y7279600I-35585J0D01*
G02X1403940Y7263800I-31885J-15800D01*
G01Y7193800D01*
G02X1400240Y7178000I-35585J0D01*
G02X1403940Y7162200I-31885J-15800D01*
G01Y7092200D01*
G02X1400240Y7076400I-35585J0D01*
G02X1403940Y7060600I-31885J-15800D01*
G01Y6990600D01*
G02X1400240Y6974800I-35585J0D01*
G02X1403940Y6959000I-31885J-15800D01*
G01Y6889000D01*
G02X1400240Y6873200I-35585J0D01*
G02X1403940Y6857400I-31885J-15800D01*
G01Y6787400D01*
G02X1400240Y6771600I-35585J0D01*
G02X1403940Y6755800I-31885J-15800D01*
G01Y6685800D01*
G02X1400240Y6670000I-35585J0D01*
G02X1403940Y6654200I-31885J-15800D01*
G01Y6584200D01*
G02X1400240Y6568400I-35585J0D01*
G02X1403940Y6552600I-31885J-15800D01*
G01Y6482600D01*
G02X1400240Y6466800I-35585J0D01*
G02X1403940Y6451000I-31885J-15800D01*
G01Y6381000D01*
G02X1368360Y6345420I-35580J0D01*
G01X1258360D01*
G02X1225580Y6367160I0J35583D01*
G01X1224270Y6370260D01*
X1077760D01*
X1076490Y6367030D01*
G02X1043360Y6344420I-33130J12967D01*
G01X870660D01*
X820980Y6294740D01*
Y6130190D01*
G03X838320Y6123010I10159J5D01*
G01X960460Y6245140D01*
G02X992800Y6258540I32345J-32338D01*
G01X1224270D01*
X1225580Y6261640D01*
G02X1258360Y6283380I32780J-13843D01*
G01X1368360D01*
G02X1403940Y6247800I0J-35580D01*
G01Y6177800D01*
G02X1400240Y6162000I-35585J0D01*
G02X1403940Y6146200I-31885J-15800D01*
G01Y6076200D01*
G02X1400240Y6060400I-35585J0D01*
G02X1403940Y6044600I-31885J-15800D01*
G01Y5974600D01*
G02X1400240Y5958800I-35585J0D01*
G02X1403940Y5943000I-31885J-15800D01*
G01Y5873000D01*
G02X1368360Y5837420I-35580J0D01*
G01X1258360D01*
G02X1225580Y5859160I0J35583D01*
G01X1224270Y5862260D01*
X1078020D01*
X1060540Y5844780D01*
Y5158580D01*
G03X1072770Y5148640I10159J6D01*
G02X1080000Y5149380I7219J-34841D01*
G01X1160000D01*
G02X1195580Y5113800I0J-35580D01*
G01Y5033800D01*
G02X1169470Y4999500I-35584J0D01*
G01X1165740Y4998470D01*
Y4970580D01*
X1185000D01*
G02X1220580Y4935000I0J-35580D01*
G01Y4845000D01*
G02X1185000Y4809420I-35580J0D01*
G01X1055000D01*
G02X1019420Y4845000I0J35580D01*
G01Y4935000D01*
G02X1020590Y4944030I35578J-19D01*
G01X1021330Y4946850D01*
X1015670Y4952510D01*
X872020Y4808860D01*
G02X839680Y4795460I-32345J32338D01*
G01X673750D01*
G02X658850Y4766920I-122392J45738D01*
G03X667210Y4750980I8356J-5780D01*
G01X1023210D01*
G02X1055000Y4770580I31790J-15981D01*
G01X1185000D01*
G02X1216790Y4750980I0J-35581D01*
G01X1224580D01*
X1225480Y4751340D01*
G02X1250000Y4756060I24520J-61330D01*
G02X1275400Y4750980I-4J-66059D01*
G01X1334600D01*
G02X1360000Y4756060I25404J-60979D01*
G02X1384520Y4751340I0J-66050D01*
G01X1385420Y4750980D01*
X1393210D01*
G02X1425000Y4770580I31790J-15981D01*
G01X1555000D01*
G02X1585440Y4753430I0J-35589D01*
G01X1586920Y4750980D01*
X1593080D01*
X1594560Y4753430D01*
G02X1625000Y4770580I30440J-18439D01*
G01X1691540D01*
X1692400Y4770900D01*
G02X1713800Y4774780I21404J-57099D01*
G01X1971260D01*
G02X1978250Y4781960I28736J-20983D01*
G03Y4798040I-6209J8040D01*
G02X1964420Y4826200I21754J28160D01*
G01Y4906200D01*
G02X1983410Y4937680I35587J0D01*
G03X1985640Y4954070I-4731J8990D01*
G02X1974420Y4980000I24353J25930D01*
G01Y5080000D01*
G02X2010000Y5115580I35580J0D01*
G01X2070000D01*
G02X2105580Y5080000I0J-35580D01*
G01Y4980000D01*
G02X2094360Y4954070I-35573J0D01*
G03X2096590Y4937680I6961J-7400D01*
G02X2115580Y4906200I-16597J-31480D01*
G01Y4826200D01*
G02X2101750Y4798040I-35584J0D01*
G03Y4781960I6209J-8040D01*
G02X2108740Y4774780I-21746J-28163D01*
G01X2464600D01*
G02X2474060Y4774040I-11J-60979D01*
G01X2474450Y4773980D01*
X2550000D01*
G02X2585580Y4738400I0J-35580D01*
G01Y4638400D01*
G02X2550000Y4602820I-35580J0D01*
G01X2430000D01*
G02X2394420Y4638400I0J35580D01*
G01Y4652820D01*
X2108740D01*
G02X2080000Y4638220I-28740J20987D01*
G01X2000000D01*
G02X1971260Y4652820I0J35587D01*
G01X1790580D01*
Y4645000D01*
G02X1755000Y4609420I-35580J0D01*
G01X1625000D01*
G02X1594560Y4626570I0J35589D01*
G01X1593080Y4629020D01*
X1586920D01*
X1585440Y4626570D01*
G02X1555000Y4609420I-30440J18439D01*
G01X1425000D01*
G02X1393210Y4629020I0J35581D01*
G01X1385420D01*
X1384520Y4628660D01*
G02X1360000Y4623940I-24520J61330D01*
G02X1334600Y4629020I4J66059D01*
G01X1275400D01*
G02X1250000Y4623940I-25404J60979D01*
G02X1225480Y4628660I0J66050D01*
G01X1224580Y4629020D01*
X1216790D01*
G02X1185000Y4609420I-31790J15981D01*
G01X1055000D01*
G02X1023210Y4629020I0J35581D01*
G01X450000D01*
G02X406880Y4646880I0J60983D01*
G01X346880Y4706880D01*
G02X329020Y4750000I43123J43120D01*
G01Y5695840D01*
G02X346880Y5738960I60983J0D01*
G01X426500Y5818580D01*
X425690Y5821450D01*
G02X420700Y5857200I125668J35764D01*
G02X488310Y5971640I130658J0D01*
G03X483410Y5990700I-4900J8900D01*
G01X461360D01*
G02X430860Y6021200I0J30500D01*
G01Y6201200D01*
G02X461360Y6231700I30500J0D01*
G01X641360D01*
G02X671860Y6201200I0J-30500D01*
G01Y6021200D01*
G02X641360Y5990700I-30500J0D01*
G01X619310D01*
G03X614410Y5971640I0J-10160D01*
G02X658640Y5931790I-63045J-114445D01*
G03X674160Y5930400I8342J5798D01*
G01X699020Y5955260D01*
Y6320000D01*
G02X716880Y6363120I60983J0D01*
G01X775380Y6421620D01*
Y6460000D01*
G02X810960Y6495580I35580J0D01*
G01X919900D01*
G03X929550Y6508910I-1J10159D01*
G02X927780Y6520000I33811J11083D01*
G01Y6600000D01*
G02X963360Y6635580I35580J0D01*
G01X1043360D01*
G02X1078940Y6600000I0J-35580D01*
G01Y6520000D01*
G02X1070220Y6496660I-35582J-5D01*
G03Y6483340I7667J-6660D01*
G02X1078440Y6465970I-26858J-23340D01*
G01X1079160Y6461740D01*
X1213890D01*
G03X1223770Y6474280I2J10161D01*
G02X1222780Y6482600I34588J8335D01*
G01Y6552600D01*
G02X1226480Y6568400I35585J0D01*
G02X1222780Y6584200I31885J15800D01*
G01Y6654200D01*
G02X1226480Y6670000I35585J0D01*
G02X1222780Y6685800I31885J15800D01*
G01Y6755800D01*
G02X1226480Y6771600I35585J0D01*
G02X1222780Y6787400I31885J15800D01*
G01Y6857400D01*
G02X1226480Y6873200I35585J0D01*
G02X1222780Y6889000I31885J15800D01*
G01Y6959000D01*
G02X1226480Y6974800I35585J0D01*
G02X1222780Y6990600I31885J15800D01*
G01Y7060600D01*
G02X1226480Y7076400I35585J0D01*
G02X1222780Y7092200I31885J15800D01*
G01Y7162200D01*
G02X1226480Y7178000I35585J0D01*
G02X1222780Y7193800I31885J15800D01*
G01Y7263800D01*
G02X1226480Y7279600I35585J0D01*
G02X1222780Y7295400I31885J15800D01*
G01Y7365400D01*
G02X1226480Y7381200I35585J0D01*
G02X1222780Y7397000I31885J15800D01*
G01Y7467000D01*
G37*
G36*
G01X2542780Y7365400D02*
G02X2578360Y7400980I35580J0D01*
G01X2688360D01*
G02X2723940Y7365400I0J-35580D01*
G01Y7295400D01*
G02X2720240Y7279600I-35585J0D01*
G02X2723940Y7263800I-31885J-15800D01*
G01Y7193800D01*
G02X2720240Y7178000I-35585J0D01*
G02X2723940Y7162200I-31885J-15800D01*
G01Y7092200D01*
G02X2720240Y7076400I-35585J0D01*
G02X2723940Y7060600I-31885J-15800D01*
G01Y6990600D01*
G02X2720240Y6974800I-35585J0D01*
G02X2723940Y6959000I-31885J-15800D01*
G01Y6889000D01*
G02X2720240Y6873200I-35585J0D01*
G02X2721950Y6869140I-31874J-15815D01*
G01X2723140Y6865740D01*
X2848470D01*
X2849500Y6869470D01*
G02X2883800Y6895580I34300J-9474D01*
G01X3116200D01*
G02X3151780Y6860000I0J-35580D01*
G01Y6812910D01*
X3252340Y6712340D01*
G02X3265740Y6680000I-32338J-32345D01*
G01Y888950D01*
X3298950Y855740D01*
X5860000D01*
G02X5892340Y842340I-5J-45738D01*
G01X5992340Y742340D01*
G02X6005740Y710000I-32338J-32345D01*
G01Y393000D01*
G02X5996140Y364970I-45738J6D01*
G02X6005660Y318000I-111139J-46976D01*
G02X5885000Y438660I-120660J0D01*
G02X5902620Y437370I23J-120662D01*
G03X5914260Y447420I1481J10050D01*
G01Y691050D01*
X5841050Y764260D01*
X4454950D01*
G03X4447770Y746920I5J-10159D01*
G01X4462340Y732340D01*
G02X4475740Y700000I-32338J-32345D01*
G01Y397530D01*
G02X4505660Y318000I-90739J-79530D01*
G02X4264340I-120660J0D01*
G02X4384260Y438660I120662J0D01*
G01Y469620D01*
G03X4366410Y476250I-10159J-6D01*
G02X4260000Y427500I-106410J91759D01*
G02X4119500Y568000I0J140500D01*
G02X4199740Y694920I140498J0D01*
G03X4195390Y714260I-4354J9180D01*
G01X3524610D01*
G03X3520260Y694920I4J-10160D01*
G02X3600500Y568000I-60258J-126920D01*
G02X3319500I-140500J0D01*
G02X3399740Y694920I140498J0D01*
G03X3395390Y714260I-4354J9180D01*
G01X3240000D01*
G02X3207660Y727660I5J45738D01*
G01X3183080Y752230D01*
G03X3165740Y745050I-7181J-7185D01*
G01Y553000D01*
G02X3152340Y520660I-45738J5D01*
G01X2996330Y364640D01*
X2997520Y361560D01*
G02X3005660Y318000I-112519J-43567D01*
G02X2885000Y438660I-120660J0D01*
G02X2928560Y430520I-7J-120659D01*
G01X2931640Y429330D01*
X3074260Y571950D01*
Y755050D01*
G03X3056920Y762230I-10159J-5D01*
G01X3012340Y717660D01*
G02X2980000Y704260I-32345J32338D01*
G01X2842440D01*
G03X2836880Y685600I4J-10160D01*
G02X2900500Y568000I-76880J-117600D01*
G02X2619500I-140500J0D01*
G02X2683120Y685600I140500J0D01*
G03X2677560Y704260I-5564J8500D01*
G01X2042440D01*
G03X2036880Y685600I4J-10160D01*
G02X2100500Y568000I-76880J-117600D01*
G02X1819500I-140500J0D01*
G02X1883120Y685600I140500J0D01*
G03X1877560Y704260I-5564J8500D01*
G01X1548950D01*
X1485740Y641050D01*
Y384410D01*
G02X1505660Y318000I-100740J-66410D01*
G02X1264340I-120660J0D01*
G02X1384170Y438660I120663J0D01*
G03X1394260Y448820I-69J10159D01*
G01Y482570D01*
G03X1375730Y488340I-10161J8D01*
G02X1260000Y427500I-115730J79651D01*
G02Y708500I0J140500D01*
G02X1375730Y647660I0J-140491D01*
G03X1394260Y653430I8369J5762D01*
G01Y660000D01*
G02X1407660Y692340I45738J-5D01*
G01X1497660Y782340D01*
G02X1530000Y795740I32345J-32338D01*
G01X2961050D01*
X3024260Y858950D01*
Y4991050D01*
X2987250Y5028060D01*
X2705330D01*
X2704300Y5024330D01*
G02X2670000Y4998220I-34300J9474D01*
G01X2590000D01*
G02X2566660Y5006940I-5J35582D01*
G03X2553340I-6660J-7667D01*
G02X2539470Y4999500I-23338J26860D01*
G01X2535740Y4998470D01*
Y4977180D01*
X2550000D01*
G02X2585580Y4941600I0J-35580D01*
G01Y4841600D01*
G02X2550000Y4806020I-35580J0D01*
G01X2430000D01*
G02X2394420Y4841600I0J35580D01*
G01Y4941600D01*
G02X2430000Y4977180I35580J0D01*
G01X2444260D01*
Y4998470D01*
X2440530Y4999500D01*
G02X2414420Y5033800I9474J34300D01*
G01Y5113800D01*
G02X2428250Y5141960I35584J0D01*
G03Y5158040I-6209J8040D01*
G02X2426660Y5159340I21718J28185D01*
G03X2413340I-6660J-7667D01*
G02X2390000Y5150620I-23335J26862D01*
G01X2310000D01*
G02X2275700Y5176730I0J35584D01*
G01X2274670Y5180460D01*
X2163800D01*
G02X2146100Y5184020I-8J45742D01*
G01X2145160Y5184420D01*
X2110000D01*
G02X2074420Y5220000I0J35580D01*
G01Y5280890D01*
X1890220Y5465100D01*
G02X1885170Y5471100I32339J32344D01*
G03X1866700Y5465250I-8309J-5848D01*
G01Y5357160D01*
G02X1853300Y5324820I-45738J5D01*
G01X1765580Y5237090D01*
Y5186200D01*
G02X1751750Y5158040I-35584J0D01*
G03Y5141960I6209J-8040D01*
G02X1765580Y5113800I-21754J-28160D01*
G01Y5033800D01*
G02X1739470Y4999500I-35584J0D01*
G01X1735740Y4998470D01*
Y4970580D01*
X1755000D01*
G02X1790580Y4935000I0J-35580D01*
G01Y4845000D01*
G02X1755000Y4809420I-35580J0D01*
G01X1625000D01*
G02X1597770Y4822090I-6J35583D01*
G03X1582230I-7770J-6537D01*
G02X1555000Y4809420I-27224J22913D01*
G01X1425000D01*
G02X1389420Y4845000I0J35580D01*
G01Y4935000D01*
G02X1425000Y4970580I35580J0D01*
G01X1444260D01*
Y4998470D01*
X1440530Y4999500D01*
G02X1414420Y5033800I9474J34300D01*
G01Y5113800D01*
G02X1428250Y5141960I35584J0D01*
G03Y5158040I-6209J8040D01*
G02X1414420Y5186200I21754J28160D01*
G01Y5266200D01*
G02X1450000Y5301780I35580J0D01*
G01X1500890D01*
X1673620Y5474510D01*
Y5550910D01*
X1670520Y5552220D01*
G02X1648780Y5585000I13843J32780D01*
G01Y5695000D01*
G02X1684360Y5730580I35580J0D01*
G01X1957560D01*
G02X1993140Y5695000I0J-35580D01*
G01Y5585000D01*
G02X1971400Y5552220I-35583J0D01*
G01X1968300Y5550910D01*
Y5516390D01*
X2129110Y5355580D01*
X2170000D01*
G02X2205580Y5320000I0J-35580D01*
G01Y5271940D01*
X2274670D01*
X2275700Y5275670D01*
G02X2310000Y5301780I34300J-9474D01*
G01X2390000D01*
G02X2413340Y5293060I5J-35582D01*
G03X2426660I6660J7667D01*
G02X2450000Y5301780I23335J-26862D01*
G01X2530000D01*
G02X2553340Y5293060I5J-35582D01*
G03X2566660I6660J7667D01*
G02X2590000Y5301780I23335J-26862D01*
G01X2670000D01*
G02X2705580Y5266200I0J-35580D01*
G01Y5186200D01*
G02X2691750Y5158040I-35584J0D01*
G03Y5141960I6209J-8040D01*
G02X2704300Y5123270I-21748J-28162D01*
G01X2705330Y5119540D01*
X3006200D01*
G02X3038540Y5106140I-5J-45738D01*
G01X3056920Y5087770D01*
G03X3074260Y5094950I7181J7185D01*
G01Y6464420D01*
X2883800D01*
G02X2848220Y6500000I0J35580D01*
G01Y6550890D01*
X2825650Y6573460D01*
X2732830D01*
G03X2722950Y6560920I-2J-10161D01*
G02X2723940Y6552600I-34588J-8335D01*
G01Y6482600D01*
G02X2688360Y6447020I-35580J0D01*
G01X2578360D01*
G02X2542780Y6482600I0J35580D01*
G01Y6552600D01*
G02X2546480Y6568400I35585J0D01*
G02X2542780Y6584200I31885J15800D01*
G01Y6654200D01*
G02X2546480Y6670000I35585J0D01*
G02X2542780Y6685800I31885J15800D01*
G01Y6755800D01*
G02X2546480Y6771600I35585J0D01*
G02X2542780Y6787400I31885J15800D01*
G01Y6857400D01*
G02X2546480Y6873200I35585J0D01*
G02X2542780Y6889000I31885J15800D01*
G01Y6959000D01*
G02X2546480Y6974800I35585J0D01*
G02X2542780Y6990600I31885J15800D01*
G01Y7060600D01*
G02X2546480Y7076400I35585J0D01*
G02X2542780Y7092200I31885J15800D01*
G01Y7162200D01*
G02X2546480Y7178000I35585J0D01*
G02X2542780Y7193800I31885J15800D01*
G01Y7263800D01*
G02X2546480Y7279600I35585J0D01*
G02X2542780Y7295400I31885J15800D01*
G01Y7365400D01*
G37*
G36*
G01X1830180Y8102340D02*
G02X1862520Y8115740I32345J-32338D01*
G01X3677480D01*
G02X3709820Y8102340I-5J-45738D01*
G01X3862340Y7949820D01*
G02X3875740Y7917480I-32338J-32345D01*
G01Y2296430D01*
X3916430Y2255740D01*
X5671050D01*
X5673940Y2258630D01*
Y2266800D01*
G03X5669010Y2271880I-5080J2D01*
G02X5637980Y2285260I1314J45719D01*
G01X5617660Y2305580D01*
G02X5605190Y2328760I32340J32342D01*
G01X5604360Y2332820D01*
X5590000D01*
G02X5554420Y2368400I0J35580D01*
G01Y2468400D01*
G02X5590000Y2503980I35580J0D01*
G01X5710000D01*
G02X5733340Y2495260I5J-35582D01*
G03X5746660I6660J7667D01*
G02X5770000Y2503980I23335J-26862D01*
G01X5890000D01*
G02X5914460Y2494240I0J-35583D01*
G03X5928630Y2494430I6987J7375D01*
G01X6064420Y2630220D01*
Y2663900D01*
G03X6053690Y2674040I-10159J-3D01*
G02X6050000Y2673940I-3634J65962D01*
G02X6005000Y2691640I0J66053D01*
G02X5960000Y2673940I-45000J48353D01*
G02X5932600Y2679890I0J66064D01*
G03X5925440Y2674810I-2102J-4623D01*
G02X5925580Y2671600I-35442J-3154D01*
G01Y2571600D01*
G02X5890000Y2536020I-35580J0D01*
G01X5770000D01*
G02X5746660Y2544740I-5J35582D01*
G03X5733340I-6660J-7667D01*
G02X5710000Y2536020I-23335J26862D01*
G01X5590000D01*
G02X5554420Y2571600I0J35580D01*
G01Y2671600D01*
G02X5590000Y2707180I35580J0D01*
G01X5604360D01*
X5605190Y2711240D01*
G02X5617660Y2734420I44810J-9162D01*
G01X5637980Y2754740D01*
G02X5669010Y2768120I32344J-32339D01*
G03X5673940Y2773200I-150J5078D01*
G01Y2819680D01*
G02X5687340Y2852020I45738J-5D01*
G01X5702230Y2866920D01*
G03X5695050Y2884260I-7185J7181D01*
G01X5510000D01*
G02X5477660Y2897660I5J45738D01*
G01X5370890Y3004420D01*
X5340000D01*
G02X5304430Y3039280I0J35577D01*
G01X5304330Y3044260D01*
X5025580D01*
Y3006200D01*
G02X5011750Y2978040I-35584J0D01*
G03Y2961960I6209J-8040D01*
G02X5025580Y2933800I-21754J-28160D01*
G01Y2853800D01*
G02X5010980Y2825060I-35587J0D01*
G01Y2707430D01*
X5015300Y2706780D01*
G02X5045580Y2671600I-5296J-35180D01*
G01Y2659270D01*
X5052830D01*
X5054330Y2660830D01*
G02X5080000Y2671780I25676J-24628D01*
G01X5160000D01*
G02X5183340Y2663060I5J-35582D01*
G03X5196660I6660J7667D01*
G02X5219280Y2671770I23331J-26863D01*
G03X5224260Y2676850I-101J5080D01*
G01Y2768090D01*
G02X5204420Y2800000I15741J31910D01*
G01Y2900000D01*
G02X5240000Y2935580I35580J0D01*
G01X5300000D01*
G02X5335580Y2900000I0J-35580D01*
G01Y2800000D01*
G02X5315740Y2768090I-35581J0D01*
G01Y2668110D01*
G02X5335580Y2636200I-15741J-31910D01*
G01Y2556200D01*
G02X5300000Y2520620I-35580J0D01*
G01X5220000D01*
G02X5196660Y2529340I-5J35582D01*
G03X5183340I-6660J-7667D01*
G02X5181750Y2528040I-23308J26885D01*
G03Y2511960I6209J-8040D01*
G02X5195580Y2483800I-21754J-28160D01*
G01Y2403800D01*
G02X5160000Y2368220I-35580J0D01*
G01X5080000D01*
G02X5063830Y2372110I6J35579D01*
G01X5062750Y2372660D01*
X5045670D01*
X5045570Y2367680D01*
G02X5010000Y2332820I-35570J717D01*
G01X4890000D01*
G02X4854420Y2368400I0J35580D01*
G01Y2468400D01*
G02X4890000Y2503980I35580J0D01*
G01X5010000D01*
G02X5032480Y2495980I0J-35584D01*
G03X5048020Y2499400I6412J7879D01*
G02X5058250Y2511960I31979J-15600D01*
G03Y2528040I-6209J8040D01*
G02X5048020Y2540600I21749J28160D01*
G03X5032480Y2544020I-9128J-4459D01*
G02X5010000Y2536020I-22480J27584D01*
G01X4890000D01*
G02X4854420Y2571600I0J35580D01*
G01Y2671600D01*
G02X4884700Y2706780I35576J0D01*
G01X4889020Y2707430D01*
Y2825060D01*
G02X4874730Y2849090I20979J28740D01*
G02X4873080Y2850680I41482J44698D01*
G01X4796880Y2926880D01*
G02X4779020Y2970000I43123J43120D01*
G01Y3490000D01*
G02X4796880Y3533120I60983J0D01*
G01X4876880Y3613120D01*
G02X4920000Y3630980I43120J-43123D01*
G01X5099340D01*
Y3706840D01*
X5163160Y3770660D01*
X5800010D01*
G03X5807190Y3788000I-3J10158D01*
G01X5796980Y3798220D01*
X5760000D01*
G02X5724420Y3833800I0J35580D01*
G01Y3913800D01*
G02X5724670Y3917990I35579J-20D01*
G03X5714580Y3929340I-10091J1190D01*
G01X4263160D01*
X4159340Y4033160D01*
Y4886840D01*
X4273160Y5000660D01*
X4876840D01*
X5292000Y4585510D01*
G03X5309340Y4592690I7182J7183D01*
G01Y4926840D01*
X5383160Y5000660D01*
X5896840D01*
X5970660Y4926840D01*
Y4285580D01*
X6076200D01*
G02X6111780Y4250000I0J-35580D01*
G01Y4213020D01*
X6195000Y4129800D01*
X6278220Y4213020D01*
Y4250000D01*
G02X6313800Y4285580I35580J0D01*
G01X6419340D01*
Y4936840D01*
X6483160Y5000660D01*
X7126840D01*
X7190660Y4936840D01*
Y4632690D01*
G03X7208000Y4625510I10158J3D01*
G01X7593160Y5010660D01*
X8156840D01*
X8240660Y4926840D01*
Y4013160D01*
X8166840Y3939340D01*
X6663080D01*
G03X6653510Y3925760I-4J-10160D01*
G02X6655580Y3913800I-33516J-11960D01*
G01Y3833800D01*
G02X6620000Y3798220I-35580J0D01*
G01X6583020D01*
X6572810Y3788000D01*
G03X6579990Y3770660I7183J-7182D01*
G01X7303160D01*
X7413160Y3880660D01*
X7966840D01*
X8050660Y3796840D01*
Y3473160D01*
X7976840Y3399340D01*
X6633160D01*
X6495580Y3536920D01*
X6402500D01*
G02X6366920Y3572500I0J35580D01*
G01Y3626940D01*
X6366500Y3627900D01*
G02X6361920Y3650000I51001J22094D01*
G01Y3810580D01*
X6359340Y3813160D01*
Y3909570D01*
G03X6350670Y3913170I-5080J5D01*
G01X6343080Y3905580D01*
Y3650000D01*
G02X6338500Y3627900I-55581J-6D01*
G01X6338080Y3626940D01*
Y3572500D01*
G02X6302500Y3536920I-35580J0D01*
G01X6077500D01*
G02X6041920Y3572500I0J35580D01*
G01Y3626940D01*
X6041500Y3627900D01*
G02X6036920Y3650000I51001J22094D01*
G01Y3905580D01*
X6029330Y3913170D01*
G03X6020660Y3909570I-3590J-3595D01*
G01Y3819340D01*
X6018080D01*
Y3650000D01*
G02X6013500Y3627900I-55581J-6D01*
G01X6013080Y3626940D01*
Y3572500D01*
G02X5977500Y3536920I-35580J0D01*
G01X5874420D01*
X5836840Y3499340D01*
X5153160D01*
X5143480Y3509020D01*
X4945260D01*
X4900980Y3464740D01*
Y3126670D01*
G03X4906550Y3121610I5081J-3D01*
G02X4910000Y3121780I3474J-35409D01*
G01X4960900D01*
G02X4993800Y3135740I32900J-31788D01*
G01X5304330D01*
X5304430Y3140720D01*
G02X5340000Y3175580I35570J-717D01*
G01X5400000D01*
G02X5435580Y3140000I0J-35580D01*
G01Y3069110D01*
X5528950Y2975740D01*
X5714120D01*
G03X5723820Y2988920I1J10159D01*
G02X5722770Y2992960I43698J13514D01*
G02X5716920Y3012500I29728J19546D01*
G01Y3167500D01*
G02X5752500Y3203080I35580J0D01*
G01X6172500D01*
G02X6208080Y3167500I0J-35580D01*
G01Y3113060D01*
X6208500Y3112100D01*
G02X6213080Y3090000I-51001J-22094D01*
G01Y2707180D01*
X6220000D01*
G02X6255580Y2671600I0J-35580D01*
G01Y2571600D01*
G02X6220000Y2536020I-35580J0D01*
G01X6178620D01*
X6043680Y2401080D01*
Y2304590D01*
X6046420Y2303170D01*
G02X6057230Y2294510I-16417J-31570D01*
G03X6072770I7770J6537D01*
G02X6100000Y2307180I27230J-22926D01*
G01X6192380D01*
X6244420Y2359220D01*
Y2396200D01*
G02X6280000Y2431780I35580J0D01*
G01X6294420D01*
Y2716980D01*
X6248200Y2763200D01*
G02X6231920Y2802500I39295J39300D01*
G01Y3090000D01*
G02X6236500Y3112100I55581J6D01*
G01X6236920Y3113060D01*
Y3167500D01*
G02X6272500Y3203080I35580J0D01*
G01X6562500D01*
G02X6598080Y3167500I0J-35580D01*
G01Y3012500D01*
G02X6562500Y2976920I-35580J0D01*
G01X6528400D01*
X6528200Y2972040D01*
G02X6517280Y2944170I-45703J1833D01*
G01X6516060Y2942750D01*
Y2926110D01*
X6516430Y2925740D01*
X6610000D01*
G02X6642340Y2912340I-5J-45738D01*
G01X6712660Y2842020D01*
G02X6726060Y2809680I-32338J-32345D01*
G01Y2783200D01*
G03X6730990Y2778120I5080J-2D01*
G02X6762020Y2764740I-1314J-45719D01*
G01X6782340Y2744420D01*
G02X6794810Y2721240I-32340J-32342D01*
G01X6795640Y2717180D01*
X6810000D01*
G02X6845580Y2681600I0J-35580D01*
G01Y2581600D01*
G02X6845570Y2580920I-35577J183D01*
G01Y2575740D01*
X6967480D01*
G02X6999820Y2562340I-5J-45738D01*
G01X7082340Y2479820D01*
G02X7095740Y2447480I-32338J-32345D01*
G01Y1480000D01*
G02X7082340Y1447660I-45738J5D01*
G01X6992340Y1357660D01*
G02X6960000Y1344260I-32345J32338D01*
G01X3730000D01*
G02X3697660Y1357660I5J45738D01*
G01X3537020Y1518300D01*
G02X3523620Y1550640I32338J32345D01*
G01Y7764210D01*
X3468550Y7819280D01*
X2074810D01*
G03X2065610Y7804820I5J-10160D01*
G02X2069770Y7788960I-41448J-19347D01*
G02X2094740Y7755000I-10608J-33960D01*
G01Y7645000D01*
G02X2059160Y7609420I-35580J0D01*
G01X1684360D01*
G02X1648780Y7645000I0J35580D01*
G01Y7755000D01*
G02X1673750Y7788960I35578J0D01*
G02X1687020Y7817820I45606J-3489D01*
G01X1704100Y7834910D01*
Y7957320D01*
G02X1717500Y7989660I45738J-5D01*
G01X1830180Y8102340D01*
G37*
G54D49*
X6645000Y3090000D03*
G54D45*
X1771760Y8764000D03*
Y8256000D03*
X1263760D03*
X7740000Y3150000D03*
X1263760Y8764000D03*
G54D48*
X12260000Y5880000D03*
G54D47*
X4960000Y568000D03*
X6460000D03*
X5760000D03*
G54D46*
X1835000Y318000D03*
X3335000D03*
X4835000D03*
X6335000D03*
%LPD*%
G75*
G36*
G01X1690000Y4010000D02*
X1720000Y4040000D01*
X1840000D01*
Y3650000D01*
X1800000D01*
X1770000Y3620000D01*
Y3500000D01*
X1740000Y3470000D01*
X1150000D01*
X1120000Y3500000D01*
Y3720000D01*
X1140000Y3740000D01*
X1660000D01*
X1690000Y3770000D01*
Y4010000D01*
G37*
G36*
G01X2140000Y3340000D02*
X2010000D01*
Y4010000D01*
X2030000Y4030000D01*
X2350000D01*
X2380000Y4000000D01*
Y3420000D01*
X2360000Y3400000D01*
X2200000D01*
X2140000Y3340000D01*
G37*
G36*
G01X2387500Y3370000D02*
X2450000D01*
Y3170000D01*
X2480000Y3140000D01*
X2750000D01*
X2800000Y3090000D01*
Y2870000D01*
X2760000Y2830000D01*
X2360000D01*
X2330000Y2860000D01*
Y3070000D01*
X2300000Y3100000D01*
X2190000D01*
X2170000Y3120000D01*
Y3210000D01*
X2152830Y3227170D01*
X2152660Y3227380D01*
G03X2147380Y3232660I-27660J-22380D01*
G01X2147170Y3232830D01*
X2140000Y3240000D01*
X2131410D01*
X2130990Y3240070D01*
G03X2125000Y3240580I-6003J-35069D01*
G01X2010000D01*
Y3299340D01*
X2156840D01*
X2157500Y3300000D01*
X2180000D01*
X2239340Y3359340D01*
X2376840D01*
X2387500Y3370000D01*
G37*
G36*
G01X2390000Y5700000D02*
X2461580D01*
Y5585000D01*
G03X2470000Y5562020I35569J0D01*
G01Y5430000D01*
X2450000Y5410000D01*
X2310000D01*
X2290000Y5430000D01*
Y5562600D01*
G03X2297940Y5585000I-27627J22400D01*
G01Y5700000D01*
X2370000D01*
Y5580000D01*
X2390000D01*
Y5700000D01*
G37*
G36*
G01X1898310Y7983620D02*
X3641690D01*
X3743620Y7881690D01*
Y2260640D01*
G03X3757020Y2228300I45738J5D01*
G01X3848300Y2137020D01*
G03X3880640Y2123620I32345J32338D01*
G01X5706840D01*
G03X5739180Y2137020I-5J45738D01*
G01X5792660Y2190500D01*
G03X5806060Y2222840I-32338J32345D01*
G01Y2266800D01*
G02X5810990Y2271880I5080J2D01*
G03X5842020Y2285260I-1314J45719D01*
G01X5862340Y2305580D01*
G03X5874810Y2328760I-32340J32342D01*
G01X5875640Y2332820D01*
X5890000D01*
G03X5891090Y2332840I-108J35578D01*
G02X5896320Y2327760I149J-5079D01*
G01Y2304590D01*
X5893580Y2303170D01*
G03X5874420Y2271600I16429J-31570D01*
G01Y2171600D01*
G03X5910000Y2136020I35580J0D01*
G01X6030000D01*
G03X6057230Y2148690I0J35596D01*
G02X6072770I7770J-6537D01*
G03X6100000Y2136020I27230J22926D01*
G01X6220000D01*
G03X6239900Y2142100I7J35582D01*
G02X6253220Y2140370I5679J-8422D01*
G03X6264420Y2131810I26778J23430D01*
G01Y2117820D01*
G03X6244420Y2085830I15584J-31990D01*
G01Y2005830D01*
G03X6280000Y1970250I35580J0D01*
G01X6360000D01*
G03X6395580Y2005830I0J35580D01*
G01Y2085830D01*
G03X6375580Y2117820I-35584J0D01*
G01Y2131810D01*
G03X6379980Y2134360I-15596J31981D01*
G02X6393310Y2132670I5706J-8405D01*
G03X6420000Y2120620I26690J23533D01*
G01X6500000D01*
G03X6535580Y2156200I0J35580D01*
G01Y2236200D01*
G03X6500000Y2271780I-35580J0D01*
G01X6485580D01*
Y2334940D01*
G02X6498910Y2344590I10159J-1D01*
G03X6510000Y2342820I11083J33811D01*
G01X6630000D01*
G03X6653340Y2351540I5J35582D01*
G02X6666660I6660J-7667D01*
G03X6690000Y2342820I23335J26862D01*
G01X6810000D01*
G03X6845580Y2378400I0J35580D01*
G01Y2443620D01*
X6931690D01*
X6963620Y2411690D01*
Y1515790D01*
X6924210Y1476380D01*
X3765790D01*
X3655740Y1586430D01*
Y7800000D01*
G03X3642340Y7832340I-45738J-5D01*
G01X3536680Y7938000D01*
G03X3504340Y7951400I-32345J-32338D01*
G01X1997160D01*
G03X1964820Y7938000I5J-45738D01*
G01X1920700Y7893880D01*
G03X1907300Y7861540I32338J-32345D01*
G01Y7834910D01*
X1890220Y7817820D01*
G03X1877750Y7794640I32340J-32342D01*
G01X1876920Y7790580D01*
X1866600D01*
X1865770Y7794640D01*
G03X1853300Y7817820I-44810J-9162D01*
G01X1836220Y7834910D01*
Y7921530D01*
X1898310Y7983620D01*
G37*
G36*
G01X4290000Y4960000D02*
X4860000D01*
X5750000Y4070000D01*
X5880000D01*
X5980000Y3970000D01*
Y3860000D01*
X5940000D01*
X5873090Y3926910D01*
X5872710Y3927810D01*
G03X5854010Y3946510I-32710J-14010D01*
G01X5853110Y3946890D01*
X5830000Y3970000D01*
X4280000D01*
X4200000Y4050000D01*
Y4870000D01*
X4290000Y4960000D01*
G37*
G36*
G01X5110000Y7470000D02*
X5310000D01*
X5330000Y7450000D01*
Y6540000D01*
X5250000Y6460000D01*
X4240000D01*
X4170000Y6530000D01*
Y7050000D01*
X5040000D01*
X5090000Y7100000D01*
Y7235580D01*
G02X5106750Y7243320I10161J6D01*
G03X5180000Y7216360I73250J86030D01*
G03Y7442360I0J113000D01*
G03X5106750Y7415400I0J-112990D01*
G02X5090000Y7423140I-6589J7734D01*
G01Y7450000D01*
X5110000Y7470000D01*
G37*
G36*
G01X5870000Y7740000D02*
X5840000Y7710000D01*
X4010000D01*
X3960000Y7760000D01*
Y7960000D01*
X3980000Y7980000D01*
X5850000D01*
X5870000Y7960000D01*
Y7740000D01*
G37*
G36*
G01X5850000Y3570000D02*
X5820000Y3540000D01*
X5170000D01*
X5140000Y3570000D01*
Y3690000D01*
X5180000Y3730000D01*
X5850000D01*
Y3570000D01*
G37*
G36*
G01X4800000Y7670000D02*
X5860000D01*
X5940000Y7590000D01*
Y6500000D01*
X5900000Y6460000D01*
X5460000D01*
X5390000Y6530000D01*
Y7470000D01*
X5350000Y7510000D01*
X5327500D01*
X5326840Y7510660D01*
X5093160D01*
X5092500Y7510000D01*
X5040000D01*
X5010000Y7480000D01*
Y7430800D01*
G02X4994080Y7422430I-10161J1D01*
G03X4930000Y7442360I-64085J-93068D01*
G03Y7216360I0J-113000D01*
G03X4994080Y7236290I-5J112998D01*
G02X5010000Y7227920I5759J-8371D01*
G01Y7200000D01*
X4990000Y7180000D01*
X4760000D01*
X4730000Y7210000D01*
Y7600000D01*
X4800000Y7670000D01*
G37*
G36*
G01X5400000Y4960000D02*
X5880000D01*
X5930000Y4910000D01*
Y4190000D01*
X5963110Y4156890D01*
X5963490Y4155990D01*
G03X5982190Y4137290I32710J14010D01*
G01X5983090Y4136910D01*
X6100000Y4020000D01*
Y3920000D01*
X6080000D01*
X6020660Y3979340D01*
Y3986840D01*
X5896840Y4110660D01*
X5769340D01*
X5350000Y4530000D01*
Y4910000D01*
X5400000Y4960000D01*
G37*
G36*
G01X7430000Y3840000D02*
X7950000D01*
X8010000Y3780000D01*
Y3490000D01*
X7960000Y3440000D01*
X6650000D01*
X6530000Y3560000D01*
Y3621140D01*
G03X6538080Y3650000I-47501J28860D01*
G01Y3730000D01*
X6835260D01*
X6836210Y3729600D01*
G03X6850000Y3726820I13790J32812D01*
G01X6930000D01*
G03X6943790Y3729600I0J35592D01*
G01X6944740Y3730000D01*
X7320000D01*
X7430000Y3840000D01*
G37*
G36*
G01X6500000Y4960000D02*
X7110000D01*
X7150000Y4920000D01*
Y4590000D01*
X6670000Y4110000D01*
X6490000D01*
X6300000Y3920000D01*
X6278080D01*
Y4008080D01*
X6406910Y4136910D01*
X6407810Y4137290D01*
G03X6426510Y4155990I-14010J32710D01*
G01X6426890Y4156890D01*
X6460000Y4190000D01*
Y4920000D01*
X6500000Y4960000D01*
G37*
G36*
G01X7610000Y4970000D02*
X8140000D01*
X8200000Y4910000D01*
Y4030000D01*
X8150000Y3980000D01*
X6560000D01*
X6526890Y3946890D01*
X6525990Y3946510D01*
G03X6507290Y3927810I14010J-32710D01*
G01X6506910Y3926910D01*
X6440000Y3860000D01*
Y3840000D01*
X6420000Y3820000D01*
X6410000D01*
X6400000Y3830000D01*
Y3962500D01*
X6506840Y4069340D01*
X6686840D01*
X6687500Y4070000D01*
X6710000D01*
X7610000Y4970000D01*
G37*
G36*
G01X7360000Y7470000D02*
X7560000D01*
X7580000Y7450000D01*
Y6540000D01*
X7500000Y6460000D01*
X6490000D01*
X6420000Y6530000D01*
Y7050000D01*
X7290000D01*
X7340000Y7100000D01*
Y7227920D01*
G02X7355920Y7236290I10161J-1D01*
G03X7420000Y7216360I64085J93068D01*
G03Y7442360I0J113000D01*
G03X7355920Y7422430I5J-112998D01*
G02X7340000Y7430800I-5759J8371D01*
G01Y7450000D01*
X7360000Y7470000D01*
G37*
G36*
G01X7050000Y7670000D02*
X8110000D01*
X8190000Y7590000D01*
Y7064070D01*
G03X8180620Y7040000I26193J-24070D01*
G01Y6960000D01*
G03X8190000Y6935930I35573J0D01*
G01Y6500000D01*
X8150000Y6460000D01*
X7710000D01*
X7640000Y6530000D01*
Y7470000D01*
X7600000Y7510000D01*
X7577500D01*
X7576840Y7510660D01*
X7343160D01*
X7342500Y7510000D01*
X7290000D01*
X7260000Y7480000D01*
Y7423140D01*
G02X7243250Y7415400I-10161J-6D01*
G03X7170000Y7442360I-73250J-86030D01*
G03Y7216360I0J-113000D01*
G03X7243250Y7243320I0J112990D01*
G02X7260000Y7235580I6589J-7734D01*
G01Y7200000D01*
X7240000Y7180000D01*
X7010000D01*
X6980000Y7210000D01*
Y7600000D01*
X7050000Y7670000D01*
G37*
G36*
G01X6750000Y7750000D02*
Y7930000D01*
X6800000Y7980000D01*
X8640000D01*
X8670000Y7950000D01*
Y7750000D01*
X8630000Y7710000D01*
X6790000D01*
X6750000Y7750000D01*
G37*
G36*
G01X13160000Y5710000D02*
Y6840000D01*
X13120000Y6880000D01*
X12220000D01*
Y7410000D01*
X12180000Y7450000D01*
X11850000D01*
X11780000Y7520000D01*
Y8250000D01*
X11830000Y8300000D01*
X12220000D01*
X12270000Y8250000D01*
Y7940000D01*
X12330000Y7880000D01*
X12770000D01*
X12900000Y7750000D01*
X13160000D01*
X13360000Y7950000D01*
X14040000D01*
X14120000Y7870000D01*
Y5720000D01*
X14050000Y5650000D01*
X13220000D01*
X13160000Y5710000D01*
G37*
%LPC*%
G75*
G36*
G01X5629340Y2066840D02*
X5673160Y2110660D01*
X6066840D01*
X6100660Y2076840D01*
Y1778610D01*
G03X6112860Y1768660I10158J1D01*
G02X6120000Y1769380I7122J-34862D01*
G01X6200000D01*
G02X6235580Y1733800I0J-35580D01*
G01Y1653800D01*
G02X6200000Y1618220I-35580J0D01*
G01X6120000D01*
G02X6096660Y1626940I-5J35582D01*
G03X6083340I-6660J-7667D01*
G02X6077370Y1622750I-23318J26875D01*
G02X6086060Y1590000I-57367J-32750D01*
G02X6020000Y1523940I-66060J0D01*
G02X5959330Y1563860I0J66063D01*
G03X5940670I-9330J-4017D01*
G02X5880000Y1523940I-60670J26143D01*
G02X5813940Y1590000I0J66060D01*
G02X5822630Y1622750I66057J0D01*
G02X5816660Y1626940I17348J31065D01*
G03X5803340I-6660J-7667D01*
G02X5780000Y1618220I-23335J26862D01*
G01X5700000D01*
G02X5664420Y1653800I0J35580D01*
G01Y1733800D01*
G02X5700000Y1769380I35580J0D01*
G01X5780000D01*
G02X5787140Y1768660I18J-35582D01*
G03X5799340Y1778610I2042J9951D01*
G01Y1879340D01*
X5673160D01*
X5629340Y1923160D01*
Y2066840D01*
G37*
G54D45*
X7740000Y3650000D03*
G54D50*
X4483800Y4720000D03*
Y6720000D03*
X5620000D03*
Y4720000D03*
X6750000D03*
X7840000D03*
X6750000Y6720000D03*
X7840000D03*
%LPD*%
G75*
G36*
G01X5690000Y2070000D02*
X6050000D01*
X6060000Y2060000D01*
Y1800000D01*
X5840000D01*
Y1900000D01*
X5820000Y1920000D01*
X5791140D01*
X5790410Y1920220D01*
G03X5780000Y1921780I-10420J-34019D01*
G01X5700000D01*
G03X5692360Y1920950I0J-35577D01*
G01X5689650Y1920350D01*
X5670000Y1940000D01*
Y2050000D01*
X5690000Y2070000D01*
G37*
G54D10*
X318000Y318000D03*
Y952000D03*
Y8048000D03*
Y8682000D03*
X7500000Y318000D03*
X9150000Y8682000D03*
X14682000Y952000D03*
Y318000D03*
Y8048000D03*
Y8682000D03*
G54D11*
X205490Y6328210D03*
Y5828210D03*
X351490Y1802060D03*
X851490D03*
Y2802060D03*
X351490D03*
X851490Y2302060D03*
X351490D03*
X851490Y3302060D03*
X351490D03*
X851490Y3802060D03*
X351490D03*
X851490Y4302060D03*
X351490D03*
X735490Y6868210D03*
Y7368210D03*
X740000Y7170000D03*
X850960Y7599040D03*
X960000Y8420000D03*
Y8600000D03*
X1640000Y3510000D03*
X1480000D03*
X1310000D03*
X1170000D03*
X1640000Y3600000D03*
X1480000D03*
X1170000D03*
X1310000D03*
X1250000Y4690000D03*
X1360000D03*
X1150000Y6320000D03*
Y5800000D03*
X1155490Y6798210D03*
X1540000Y7560000D03*
X1003360Y7596640D03*
X1155490Y7298210D03*
X1240000Y7860000D03*
Y8040000D03*
X1050000Y7860000D03*
X1420000Y8040000D03*
X1150000Y8420000D03*
X1420000Y7860000D03*
X1050000Y8040000D03*
X1330000Y8420000D03*
X1610000Y8040000D03*
Y7860000D03*
Y8230000D03*
X1420000D03*
X1330000Y8600000D03*
X1150000D03*
X2146460Y1280740D03*
Y1780740D03*
Y2280740D03*
X1940000Y3280000D03*
X2090000Y2900000D03*
X1770000Y2910000D03*
X1936810Y2905550D03*
Y3405550D03*
X1940000Y3160000D03*
X1810000Y4120000D03*
X2100000D03*
X2102420Y4428710D03*
X2332420Y4968710D03*
X2330000Y5530000D03*
Y5440000D03*
X1832420Y4968710D03*
X1731790Y6055490D03*
X2231790D03*
X1731790Y6555490D03*
X2231790D03*
X2252420Y7278710D03*
X2343130Y7361700D03*
X1910000Y7560000D03*
X1752420Y7278710D03*
X2090000Y7560000D03*
X1730000D03*
X2343130Y7477670D03*
X2223480Y8259220D03*
X1710000Y8420000D03*
X1900000D03*
Y7920000D03*
X2080000Y8420000D03*
X1710000Y8600000D03*
X2080000D03*
X1900000D03*
X2646460Y1280740D03*
Y1780740D03*
Y2280740D03*
X2910000Y3260000D03*
Y2970000D03*
Y3120000D03*
Y2830000D03*
Y3400000D03*
X2567250Y2902890D03*
X2730000Y2900000D03*
Y3100000D03*
Y3000000D03*
X2567250Y3102890D03*
Y3002890D03*
X2602420Y4428710D03*
X2801120Y5525340D03*
X2420000Y5530000D03*
Y5440000D03*
X2801120Y6025340D03*
X2753600Y7533600D03*
X2723480Y8259220D03*
X3319430Y1298520D03*
Y1798520D03*
Y2298520D03*
Y2798520D03*
X3689430Y2288520D03*
Y2788520D03*
X3319430Y3298520D03*
X3689430Y3288520D03*
X3319430Y3798520D03*
X3689430Y3788520D03*
X3319430Y4298520D03*
Y4798520D03*
X3689430Y4788520D03*
Y4288520D03*
X3319430Y5298520D03*
X3689430Y5288520D03*
X3319430Y5798520D03*
Y6298520D03*
X3689430Y6288520D03*
Y5788520D03*
Y6788520D03*
X3212790Y7246210D03*
X3690000Y7240000D03*
X3223480Y8259220D03*
X3723480D03*
X3680000Y7830000D03*
X3923680Y1014180D03*
X4423680D03*
X4012540Y1695440D03*
X4512540D03*
X4267250Y2714350D03*
Y3214350D03*
X4403510Y5480870D03*
Y5980870D03*
X4223480Y8259220D03*
X4923680Y1014180D03*
X5012540Y1695440D03*
X5100000Y2100000D03*
X5125440Y2727460D03*
X5100000Y2290000D03*
X5125440Y3227460D03*
X5237250Y3592890D03*
Y3692890D03*
X4903510Y5480870D03*
Y5980870D03*
X4723480Y8259220D03*
X5223480D03*
X5423680Y1014180D03*
X5923680D03*
X5512540Y1695440D03*
X5880000Y1590000D03*
X5830000Y2000000D03*
X5710000D03*
X5495440Y2727460D03*
X5830000Y2180000D03*
X5960000Y2740000D03*
X5580000Y2290000D03*
X5495440Y3227460D03*
X5820000Y3320000D03*
Y3420000D03*
X5660000Y3690000D03*
Y3590000D03*
X5400000D03*
Y3690000D03*
X5403510Y5480870D03*
X5903510D03*
X5403510Y5980870D03*
X5903510D03*
X5723480Y8259220D03*
X6423680Y1014180D03*
X6020000Y1590000D03*
X6352540Y1655440D03*
X6615440Y1667460D03*
Y2167460D03*
X6050000Y2740000D03*
X6130000Y3420000D03*
X6420000Y3320000D03*
X6550000D03*
X6420000Y3420000D03*
X6550000D03*
X6280000Y3320000D03*
X5980000D03*
Y3420000D03*
X6130000Y3320000D03*
X6280000Y3420000D03*
X6403510Y5480870D03*
Y5980870D03*
X6223480Y8259220D03*
X6923680Y1014180D03*
X7294450Y2056810D03*
X6852540Y1655440D03*
X7294450Y2556810D03*
X6904450Y3186810D03*
X7220000Y3690000D03*
Y3590000D03*
X7050000Y3690000D03*
Y3590000D03*
X6740000Y3690000D03*
Y3590000D03*
X6903510Y5480870D03*
Y5980870D03*
X6723480Y8259220D03*
X7223480D03*
X7423680Y1014180D03*
X7794450Y2056810D03*
Y2556810D03*
X7487110Y3477250D03*
X7687110D03*
X7404450Y3186810D03*
X7887110Y3477250D03*
X7490000Y3640000D03*
Y3800000D03*
X7690000D03*
X7890000D03*
X7950000Y3640000D03*
X7403510Y5480870D03*
X7903510D03*
X7403510Y5980870D03*
X7903510D03*
X7723480Y8259220D03*
X8223480D03*
X9101230Y504700D03*
Y1004700D03*
Y2004700D03*
Y1504700D03*
Y2504700D03*
Y3004700D03*
X8935350Y4450080D03*
X9435350D03*
Y4950080D03*
X8935350Y5450080D03*
X9435350D03*
X8935350Y4950080D03*
X9435350Y5950080D03*
X8935350D03*
Y6450080D03*
X9435350D03*
X8935350Y6950080D03*
X9435350D03*
X8935350Y7450080D03*
X9435350D03*
X10101230Y504700D03*
X9601230D03*
X10101230Y1004700D03*
X9601230D03*
X10101230Y2004700D03*
Y1504700D03*
X9601230D03*
Y2004700D03*
X10101230Y2504700D03*
X9601230D03*
X10101230Y3004700D03*
X9601230D03*
X9935350Y4450080D03*
Y4950080D03*
Y5450080D03*
Y5950080D03*
Y6950080D03*
Y6450080D03*
Y7450080D03*
X10601230Y504700D03*
Y1004700D03*
Y2004700D03*
Y1504700D03*
Y2504700D03*
Y3004700D03*
X10435350Y4450080D03*
Y5450080D03*
Y4950080D03*
Y5950080D03*
Y6950080D03*
Y6450080D03*
Y7450080D03*
X11601230Y504700D03*
X11101230D03*
X11601230Y1004700D03*
X11101230D03*
X11601230Y2004700D03*
X11101230D03*
X11601230Y1504700D03*
X11101230D03*
X11601230Y2504700D03*
X11101230D03*
X11601230Y3004700D03*
X11101230D03*
X10935350Y4450080D03*
X11435350D03*
Y5450080D03*
X10935350D03*
Y4950080D03*
X11435350D03*
X10935350Y5950080D03*
X11435350D03*
Y6450080D03*
X10935350Y6950080D03*
X11435350D03*
X10935350Y6450080D03*
Y7450080D03*
X11435350D03*
X12101230Y504700D03*
Y1004700D03*
Y1504700D03*
Y2004700D03*
Y2504700D03*
Y3004700D03*
X12601230Y504700D03*
Y1004700D03*
Y2004700D03*
Y1504700D03*
Y2504700D03*
Y3004700D03*
X13601230Y504700D03*
X13101230D03*
X13601230Y1004700D03*
X13101230D03*
Y1504700D03*
X13601230D03*
Y2004700D03*
X13101230D03*
X13601230Y2504700D03*
X13101230D03*
X13601230Y3004700D03*
X13101230D03*
X14347000Y3342350D03*
Y3842350D03*
Y4342350D03*
Y4842350D03*
Y5342350D03*
Y5842350D03*
Y6342350D03*
Y6842350D03*
G54D20*
X1690000Y4690000D03*
Y4890000D03*
X1490000Y4690000D03*
Y4890000D03*
X1120000Y4690000D03*
Y4890000D03*
G54D12*
X551360Y4841200D03*
Y5095200D03*
Y5349200D03*
Y5603200D03*
Y5857200D03*
X1516160Y8508400D03*
X1263760Y8256000D03*
Y8764000D03*
X1771760Y8256000D03*
Y8764000D03*
X7740000Y3150000D03*
Y3650000D03*
G54D30*
X4050000Y7560000D03*
Y7840000D03*
X8560000Y7560000D03*
Y7840000D03*
G54D21*
X1617760Y5640000D03*
X1516160D03*
X1414560D03*
Y7700000D03*
X1516160D03*
X1617760D03*
X2328960Y5640000D03*
X2227360D03*
X2125760D03*
X2024160D03*
X1922560D03*
X1820960D03*
X1719360D03*
Y7700000D03*
X1820960D03*
X1922560D03*
X2024160D03*
X2125760D03*
X2227360D03*
X2328960D03*
X2532160Y5640000D03*
X2430560D03*
Y7700000D03*
X2532160D03*
G54D13*
X551360Y6111200D03*
G54D31*
X4675000Y7839360D03*
X5685000D03*
X6915000D03*
X7925000D03*
G54D40*
X13510000Y7730000D03*
Y8330000D03*
G54D22*
X1313360Y5806400D03*
Y5908000D03*
Y6009600D03*
Y6111200D03*
Y6212800D03*
Y6314400D03*
Y6416000D03*
Y6517600D03*
Y6619200D03*
Y6720800D03*
Y6822400D03*
Y6924000D03*
Y7025600D03*
Y7127200D03*
Y7228800D03*
Y7330400D03*
Y7432000D03*
Y7533600D03*
X2633360Y6314400D03*
Y6212800D03*
Y6111200D03*
Y6009600D03*
Y5908000D03*
Y5806400D03*
Y7025600D03*
Y6924000D03*
Y6822400D03*
Y6720800D03*
Y6619200D03*
Y6517600D03*
Y6416000D03*
Y7533600D03*
Y7432000D03*
Y7330400D03*
Y7228800D03*
Y7127200D03*
G54D41*
G01X5800000Y4026200D02*
X5962500Y3863700D01*
G01X6092500Y4001300D02*
X5883800Y4210000D01*
G01X5897500Y3650000D02*
Y3776300D01*
X5800000Y3873800D01*
G01X6320000Y2203800D02*
Y2045830D01*
G01X6157500Y3090000D02*
Y2624100D01*
X6160000Y2621600D01*
G01Y2221600D02*
X6185400D01*
X6320000Y2356200D01*
G01X6287500Y3090000D02*
Y2802500D01*
X6350000Y2740000D01*
Y2386200D01*
X6320000Y2356200D01*
G01X6460000Y2196200D02*
X6452400Y2203800D01*
G01D02*
X6320000D01*
G01X6352500Y3090000D02*
Y2837500D01*
X6430000Y2760000D01*
Y2226200D01*
X6452400Y2203800D01*
G01X5962500Y3863700D02*
Y3650000D01*
G01X6092500D02*
Y4001300D01*
G01X6287500Y3650000D02*
Y3991300D01*
G01D02*
X6506200Y4210000D01*
G01X6417500Y3650000D02*
Y3863700D01*
G01D02*
X6580000Y4026200D01*
G01X6222500Y3650000D02*
Y4078700D01*
X6353800Y4210000D01*
G01X6482500Y3650000D02*
Y3776300D01*
X6580000Y3873800D01*
G01X6157500Y3650000D02*
Y4088700D01*
X6036200Y4210000D01*
G54D32*
X4930000Y7329360D03*
X5180000D03*
X7170000D03*
X7420000D03*
X12260000Y5880000D03*
X12510000D03*
X12760000D03*
X13010000D03*
X13260000D03*
G54D14*
X318000Y6835000D03*
Y7025000D03*
G54D23*
X2070000Y3270000D03*
Y3365000D03*
Y3175000D03*
X1810000D03*
Y3270000D03*
Y3365000D03*
G54D42*
G01X551360Y4841200D02*
X839680D01*
X1014800Y5016320D01*
Y5863730D01*
X1059070Y5908000D01*
X1313360D01*
G01X551360Y5603200D02*
X839680D01*
X860000Y5623520D01*
Y6080000D01*
X992800Y6212800D01*
X1313360D01*
G01X551360Y5349200D02*
X839680D01*
X910000Y5419520D01*
Y6000000D01*
X1021200Y6111200D01*
X1313360D01*
G01X551360Y5095200D02*
X839680D01*
X960000Y5215520D01*
Y5930000D01*
X1039600Y6009600D01*
X1313360D01*
G01X850960Y7476200D02*
Y7599040D01*
G01X1385000Y318000D02*
X1440000Y373000D01*
Y660000D01*
X1530000Y750000D01*
X2980000D01*
X3070000Y840000D01*
Y5010000D01*
X3006200Y5073800D01*
X2630000D01*
G01X1400000Y3480000D02*
X1393800Y3473800D01*
G01D02*
Y3320000D01*
G01X1810000Y3175000D02*
X1551200D01*
X1546200Y3170000D01*
G01D02*
Y3320000D01*
G01X1490000Y4890000D02*
Y5073800D01*
G01X1120000Y4890000D02*
Y5073800D01*
G01X1719360Y5640000D02*
Y5455560D01*
X1490000Y5226200D01*
G01X1313360Y6416000D02*
X1007360D01*
X1003360Y6420000D01*
G01Y6560000D02*
Y6420000D01*
G01Y7476200D02*
Y7596640D01*
G01X2070000Y3175000D02*
Y3060000D01*
X2110000Y3020000D01*
X2217600D01*
G01X1863800Y3520000D02*
X1810000Y3466200D01*
Y3365000D01*
G01X2040000Y5030000D02*
Y4866200D01*
G01X1690000Y4890000D02*
Y5073800D01*
G01X1820960Y5640000D02*
Y5357160D01*
X1690000Y5226200D01*
G01X1922560Y5640000D02*
Y5497440D01*
X2140000Y5280000D01*
Y5270000D01*
G01X2490000Y5226200D02*
X2350000D01*
G01D02*
X2163800D01*
X2140000Y5250000D01*
Y5270000D01*
G01X1719360Y7700000D02*
Y7785480D01*
X1749840Y7815960D01*
Y7957320D01*
X1862520Y8070000D01*
X3677480D01*
X3830000Y7917480D01*
Y2277480D01*
X3897480Y2210000D01*
X5690000D01*
X5719680Y2239680D01*
Y2297280D01*
X5699360Y2317600D01*
X5670320D01*
X5650000Y2337920D01*
Y2418400D01*
G01X1820960Y7700000D02*
Y7785480D01*
X1790480Y7815960D01*
Y7940480D01*
X1879360Y8029360D01*
X3660640D01*
X3789360Y7900640D01*
Y2260640D01*
X3880640Y2169360D01*
X5706840D01*
X5760320Y2222840D01*
Y2297280D01*
X5780640Y2317600D01*
X5809680D01*
X5830000Y2337920D01*
Y2418400D01*
G01X1922560Y7700000D02*
Y7785480D01*
X1953040Y7815960D01*
Y7861540D01*
X1997160Y7905660D01*
X3504340D01*
X3610000Y7800000D01*
Y1567480D01*
X3746840Y1430640D01*
X6943160D01*
X7009360Y1496840D01*
Y2430640D01*
X6950640Y2489360D01*
X6819360D01*
X6758400Y2428400D01*
X6750000D01*
G01X2024160Y7700000D02*
Y7785480D01*
X1993680Y7815960D01*
Y7844700D01*
X2014000Y7865020D01*
X3487500D01*
X3569360Y7783160D01*
Y1550640D01*
X3730000Y1390000D01*
X6960000D01*
X7050000Y1480000D01*
Y2447480D01*
X6967480Y2530000D01*
X6671600D01*
X6570000Y2428400D01*
G01X2343130Y7477670D02*
X2380800Y7440000D01*
X2420000D01*
X2461040Y7481040D01*
Y7584040D01*
X2430560Y7614520D01*
Y7700000D01*
G01X2343130Y7361700D02*
X2380790Y7399360D01*
X2436840D01*
X2501680Y7464200D01*
Y7584040D01*
X2532160Y7614520D01*
Y7700000D01*
G01X2885000Y318000D02*
X3120000Y553000D01*
Y6500000D01*
X3080000Y6540000D01*
X3076200D01*
G01X2490000Y5073800D02*
Y4891600D01*
G01X2630000Y5226200D02*
X2490000D01*
G01X2633360Y6822400D02*
X2635760Y6820000D01*
X2923800D01*
G01X2633360Y6720800D02*
X2883800D01*
X2923800Y6680800D01*
G01X2633360Y6619200D02*
X2844600D01*
X2923800Y6540000D01*
G01X4385000Y318000D02*
X4430000Y363000D01*
Y700000D01*
X4370000Y760000D01*
X3240000D01*
X3170000Y830000D01*
Y6590000D01*
X3079200Y6680800D01*
X3076200D01*
G01X5885000Y318000D02*
X5960000Y393000D01*
Y710000D01*
X5860000Y810000D01*
X3280000D01*
X3220000Y870000D01*
Y6680000D01*
X3080000Y6820000D01*
X3076200D01*
G01X4950000Y2418400D02*
X5094600D01*
X5120000Y2443800D01*
G01Y2596200D02*
X5260000D01*
G01X5370000Y3090000D02*
X4993800D01*
X4950000Y3046200D01*
G01X5740000Y1693800D02*
X5880000D01*
G01D02*
Y1590000D01*
G01X5830000Y2621600D02*
Y2702080D01*
X5809680Y2722400D01*
X5780640D01*
X5760320Y2742720D01*
Y2802840D01*
X5795580Y2838100D01*
X5898100D01*
X5950320Y2890320D01*
Y2961700D01*
X5962500Y2973880D01*
Y3090000D01*
G01X5270000Y2850000D02*
Y2606200D01*
X5260000Y2596200D01*
G01X5650000Y2621600D02*
Y2702080D01*
X5670320Y2722400D01*
X5699360D01*
X5719680Y2742720D01*
Y2819680D01*
X5778740Y2878740D01*
X5881260D01*
X5909680Y2907160D01*
Y2961700D01*
X5897500Y2973880D01*
Y3090000D01*
G01X5767500D02*
Y3002500D01*
X5800000Y2970000D01*
G01D02*
X5832500Y3002500D01*
Y3090000D01*
G01X5370000D02*
Y3070000D01*
X5510000Y2930000D01*
X5780000D01*
X5800000Y2950000D01*
Y2970000D01*
G01X6020000Y1693800D02*
X6160000D01*
G01X6020000D02*
Y1590000D01*
G01X6070000Y2130000D02*
X6060480Y2139520D01*
G01D02*
Y2310480D01*
G01D02*
X6070000Y2320000D01*
G01X6027500Y3090000D02*
Y2807500D01*
X5960000Y2740000D01*
G01X6092500Y3090000D02*
Y2782500D01*
X6050000Y2740000D01*
G01X6570000Y2631600D02*
Y2712080D01*
X6590320Y2732400D01*
X6619360D01*
X6639680Y2752720D01*
Y2792840D01*
X6593160Y2839360D01*
X6480640D01*
X6429680Y2890320D01*
Y2961700D01*
X6417500Y2973880D01*
Y3090000D01*
G01X6750000Y2631600D02*
Y2712080D01*
X6729680Y2732400D01*
X6700640D01*
X6680320Y2752720D01*
Y2809680D01*
X6610000Y2880000D01*
X6497480D01*
X6470320Y2907160D01*
Y2961700D01*
X6482500Y2973880D01*
Y3090000D01*
G54D24*
X2370000Y3270000D03*
X2650000D03*
X12350000Y6680000D03*
X12630000D03*
G54D33*
X6190000Y3370000D03*
G54D15*
X850960Y6880000D03*
Y6560000D03*
Y6420000D03*
Y7476200D03*
Y7323800D03*
Y7170000D03*
X1393800Y3170000D03*
X1546200D03*
Y3320000D03*
X1393800D03*
X1396200Y3693800D03*
Y3846200D03*
X1550000Y3693800D03*
Y3846200D03*
X1690000Y5073800D03*
Y5226200D03*
X1490000Y5073800D03*
Y5226200D03*
X1120000Y5073800D03*
Y5226200D03*
X1003360Y6880000D03*
Y6560000D03*
Y6420000D03*
Y7476200D03*
Y7323800D03*
Y7170000D03*
X2016200Y3520000D03*
X1863800D03*
X2370000Y3020000D03*
X2217600D03*
X2040000Y4866200D03*
Y4713800D03*
X2350000Y5073800D03*
Y5226200D03*
X2630000D03*
Y5073800D03*
X2490000Y5226200D03*
Y5073800D03*
X2923800Y6540000D03*
X3076200D03*
X2923800Y6820000D03*
X3076200D03*
X2923800Y6680800D03*
X3076200D03*
X4073800Y7000000D03*
X4226200D03*
X5120000Y2596200D03*
Y2443800D03*
X5260000D03*
Y2596200D03*
X4950000Y3046200D03*
Y2893800D03*
X5880000Y1846200D03*
Y1693800D03*
X5740000D03*
Y1846200D03*
X5530000Y3650000D03*
Y3802400D03*
X5883800Y4210000D03*
X5800000Y4026200D03*
Y3873800D03*
X5893800Y7000000D03*
X6460000Y2043800D03*
X6020000Y1846200D03*
Y1693800D03*
X6320000Y2045830D03*
Y1893430D03*
X6160000Y1693800D03*
Y1846200D03*
X6460000Y2196200D03*
X6320000Y2356200D03*
Y2203800D03*
X6506200Y4210000D03*
X6353800D03*
X6036200D03*
X6580000Y4026200D03*
Y3873800D03*
X6476200Y7000000D03*
X6323800D03*
X6046200D03*
X6890000Y3650000D03*
Y3802400D03*
X8103800Y7000000D03*
X8256200D03*
G54D43*
G01X217420Y6835000D02*
X318000D01*
G01Y952000D02*
X698580D01*
G01X318000D02*
Y1332580D01*
G01X551360Y5857200D02*
X390000Y5695840D01*
Y4750000D01*
X450000Y4690000D01*
X1120000D01*
G01X551360Y6111200D02*
X676940D01*
G01X425780D02*
X551360D01*
G01D02*
Y6236780D01*
G01Y5857200D02*
X687200D01*
X760000Y5930000D01*
Y6320000D01*
X850960Y6410960D01*
Y6420000D01*
G01X318000Y6835000D02*
X418580D01*
G01X318000Y6734420D02*
Y6835000D01*
G01Y7025000D02*
X850960D01*
G01X318000Y7667420D02*
Y8048000D01*
G01X850960Y7170000D02*
Y7323800D01*
G01Y7170000D02*
X740000D01*
G01X318000Y8048000D02*
X698580D01*
G01X1114420Y568000D02*
X1260000D01*
G01D02*
Y713580D01*
G01Y422420D02*
Y568000D01*
G01X1490000Y4690000D02*
X1360000D01*
G01X1690000D02*
X1490000D01*
G01X2040000Y4713800D02*
X1713800D01*
X1690000Y4690000D01*
G01X1250000D02*
X1120000D01*
G01X1360000D02*
X1250000D01*
G01X1003360Y7025000D02*
Y7170000D01*
G01Y6880000D02*
Y7025000D01*
G01X1516160Y7700000D02*
Y8508400D01*
G01X1003360Y7170000D02*
Y7323800D01*
G01X1263760Y8256000D02*
X1389340D01*
G01X1138180D02*
X1263760D01*
G01D02*
Y8381580D01*
G01Y8130420D02*
Y8256000D01*
G01X1646180D02*
X1771760D01*
G01X1646180Y8764000D02*
X1771760D01*
G01X1263760D02*
X1389340D01*
G01X1138180D02*
X1263760D01*
G01D02*
Y8889580D01*
G01Y8638420D02*
Y8764000D01*
G01X1960000Y568000D02*
X2105580D01*
G01X1814420D02*
X1960000D01*
G01Y422420D02*
Y568000D01*
G01X2040000Y4713800D02*
X2464600D01*
X2490000Y4688400D01*
G01X1771760Y8256000D02*
X1897340D01*
G01X1771760D02*
Y8381580D01*
G01Y8130420D02*
Y8256000D01*
G01Y8764000D02*
X1897340D01*
G01X1771760D02*
Y8889580D01*
G01Y8638420D02*
Y8764000D01*
G01X2760000Y568000D02*
X2905580D01*
G01X2614420D02*
X2760000D01*
G01Y422420D02*
Y568000D01*
G01X2633360Y7533600D02*
X2753600D01*
G01X3460000Y568000D02*
X3605580D01*
G01X3314420D02*
X3460000D01*
G01Y422420D02*
Y568000D01*
G01X4114420D02*
X4260000D01*
G01Y422420D02*
Y568000D01*
G01X4483800Y4720000D02*
X4669380D01*
G01X4298220D02*
X4483800D01*
G01D02*
Y4905580D01*
G01Y4534420D02*
Y4720000D01*
G01Y6720000D02*
X4669380D01*
G01X4298220D02*
X4483800D01*
G01D02*
Y6905580D01*
G01Y6534420D02*
Y6720000D01*
G01X4960000Y568000D02*
X5105580D01*
G01X4814420D02*
X4960000D01*
G01D02*
Y713580D01*
G01Y422420D02*
Y568000D01*
G01X4950000Y2893800D02*
Y2621600D01*
G01X5160000Y3570000D02*
X4920000D01*
X4840000Y3490000D01*
Y2970000D01*
X4916200Y2893800D01*
X4950000D01*
G01X5180000Y7329360D02*
X5298080D01*
G01X5180000D02*
Y7447440D01*
G01Y7211280D02*
Y7329360D01*
G01X4811920D02*
X4930000D01*
G01D02*
Y7447440D01*
G01Y7211280D02*
Y7329360D01*
G01X5614420Y568000D02*
X5760000D01*
G01D02*
Y713580D01*
G01Y422420D02*
Y568000D01*
G01X5620000Y4720000D02*
X5805580D01*
G01X5434420D02*
X5620000D01*
G01D02*
Y4905580D01*
G01Y4534420D02*
Y4720000D01*
G01Y6720000D02*
X5805580D01*
G01X5434420D02*
X5620000D01*
G01D02*
Y6905580D01*
G01Y6534420D02*
Y6720000D01*
G01X6460000Y568000D02*
X6605580D01*
G01X6314420D02*
X6460000D01*
G01D02*
Y713580D01*
G01Y422420D02*
Y568000D01*
G01X6564420Y4720000D02*
X6750000D01*
G01X6564420Y6720000D02*
X6750000D01*
G01X7119420Y318000D02*
X7500000D01*
G01X6750000Y4720000D02*
X6935580D01*
G01X6750000D02*
Y4905580D01*
G01Y4534420D02*
Y4720000D01*
G01Y6720000D02*
X6935580D01*
G01X6750000D02*
Y6905580D01*
G01Y6534420D02*
Y6720000D01*
G01X7051920Y7329360D02*
X7170000D01*
G01D02*
Y7447440D01*
G01Y7211280D02*
Y7329360D01*
G01X7500000Y318000D02*
X7880580D01*
G01X7500000D02*
Y698580D01*
G01X7740000Y3150000D02*
X7865580D01*
G01X7614420D02*
X7740000D01*
G01D02*
Y3275580D01*
G01Y3024420D02*
Y3150000D01*
G01Y3650000D02*
X7865580D01*
G01X7614420D02*
X7740000D01*
G01D02*
Y3775580D01*
G01Y3524420D02*
Y3650000D01*
G01X7840000Y4720000D02*
X8025580D01*
G01X7654420D02*
X7840000D01*
G01D02*
Y4905580D01*
G01Y4534420D02*
Y4720000D01*
G01Y6720000D02*
X8025580D01*
G01X7840000D02*
Y6905580D01*
G01Y6534420D02*
Y6720000D01*
G01X7420000Y7329360D02*
X7538080D01*
G01X7420000D02*
Y7447440D01*
G01Y7211280D02*
Y7329360D01*
G01X8769420Y8682000D02*
X9150000D01*
G01Y8301420D02*
Y8682000D01*
G01D02*
X9530580D01*
G01X12260000Y5880000D02*
X12378080D01*
G01X12141920D02*
X12260000D01*
G01D02*
Y5998080D01*
G01Y5761920D02*
Y5880000D01*
G01X12510000D02*
Y6520000D01*
X12350000Y6680000D01*
G01X12760000Y5880000D02*
Y6550000D01*
X12630000Y6680000D01*
G01X12514000Y8060000D02*
X12674580D01*
G01X12353420D02*
X12514000D01*
G01D02*
Y8220580D01*
G01X13510000Y8330000D02*
X13745580D01*
G01X13274420D02*
X13510000D01*
G01D02*
Y8465580D01*
G01Y8194420D02*
Y8330000D01*
G01X14301420Y952000D02*
X14682000D01*
G01X14301420Y8048000D02*
X14682000D01*
G01Y952000D02*
Y1332580D01*
G01Y7667420D02*
Y8048000D01*
G54D16*
X1003360Y7025000D03*
X850960D03*
G54D34*
X5897500Y3090000D03*
X5832500D03*
X5767500D03*
Y3650000D03*
X5832500D03*
X5897500D03*
X6612500Y3090000D03*
X6547500D03*
X6482500D03*
X6417500D03*
X6352500D03*
X6287500D03*
X6222500D03*
X6157500D03*
X6092500D03*
X6027500D03*
X5962500D03*
Y3650000D03*
X6027500D03*
X6092500D03*
X6157500D03*
X6222500D03*
X6287500D03*
X6352500D03*
X6417500D03*
X6482500D03*
X6547500D03*
X6612500D03*
G54D25*
X2335000Y3720000D03*
X2685000D03*
G54D44*
G01X6160000Y2621600D02*
X5970000Y2431600D01*
Y2221600D01*
G54D17*
X1260000Y568000D03*
X1960000D03*
X2760000D03*
X3460000D03*
X4260000D03*
X4960000D03*
X5760000D03*
X6460000D03*
G54D26*
X1780000Y3840000D03*
X2100000D03*
G54D35*
X12470000Y7135000D03*
G54D18*
X1385000Y318000D03*
X1835000D03*
X2885000D03*
X3335000D03*
X4385000D03*
X4835000D03*
X5885000D03*
X6335000D03*
G54D36*
X12085000Y7036000D03*
Y7244000D03*
G54D27*
X1940000Y5270000D03*
X2140000D03*
X2040000Y5030000D03*
X5470000Y2850000D03*
X5270000D03*
X5370000Y3090000D03*
G54D37*
X12006000Y8060000D03*
X12514000D03*
G54D28*
X2490000Y4891600D03*
Y4688400D03*
X4950000Y2418400D03*
Y2621600D03*
X5970000Y2018400D03*
X5650000Y2418400D03*
Y2621600D03*
X5830000Y2418400D03*
Y2621600D03*
X5970000Y2221600D03*
X6160000Y2018400D03*
Y2221600D03*
Y2418400D03*
Y2621600D03*
X6570000Y2428400D03*
Y2631600D03*
X6750000Y2428400D03*
Y2631600D03*
G54D19*
X1210000Y3693800D03*
G54D29*
X4483800Y4720000D03*
Y6720000D03*
X5620000Y4720000D03*
Y6720000D03*
X6750000Y4720000D03*
Y6720000D03*
X7840000Y4720000D03*
Y6720000D03*
G54D38*
X13030000Y8010000D03*
G54D39*
X13510000Y5880000D03*
M02*
