G04 ================== begin FILE IDENTIFICATION RECORD ==================*
G04 Layout Name:  H:/MBEDBoard/TPA311X_TEST_V10A/PCB/TPA311X_TEST_V10A.brd*
G04 Film Name:    TOP*
G04 File Format:  Gerber RS274X*
G04 File Origin:  Cadence Allegro 17.2-S058*
G04 Origin Date:  Fri Mar 06 18:50:16 2020*
G04 *
G04 Layer:  BOARD GEOMETRY/OUTLINE*
G04 Layer:  VIA CLASS/TOP*
G04 Layer:  PIN/TOP*
G04 Layer:  ETCH/TOP*
G04 *
G04 Offset:    (0.0000 0.0000)*
G04 Mirror:    No*
G04 Mode:      Positive*
G04 Rotation:  0*
G04 FullContactRelief:  No*
G04 UndefLineWidth:     0.1524*
G04 ================== end FILE IDENTIFICATION RECORD ====================*
%FSLAX55Y55*MOMM*%
%IR0*IPPOS*OFA0.00000B0.00000*MIA0B0*SFA1.00000B1.00000*%
%ADD20R,1.55X.3*%
%ADD15R,.8X.8*%
%ADD11C,.6096*%
%ADD17R,1.X1.2*%
%ADD19R,2.4X6.2*%
%ADD21C,3.*%
%ADD18C,2.1*%
%ADD14C,1.3*%
%ADD23C,2.032*%
%ADD16C,2.5*%
%ADD22C,1.8*%
%ADD13C,1.65*%
%ADD12R,1.6X1.6*%
%ADD10C,6.9*%
%ADD24C,.1*%
%ADD25C,.3*%
%ADD26C,.2032*%
%ADD27C,.254*%
%ADD28C,.508*%
%ADD29C,1.27*%
%ADD30R,1.5X.2*%
%ADD32C,2.3164*%
%ADD31C,3.5164*%
G75*
%LPD*%
G75*
G36*
G01X668760Y14750000D02*
X7041240D01*
G02X7055830Y14715540I-1J-20319D01*
G03X6944180Y14440000I284176J-275540D01*
G03X7340000Y14044180I395820J0D01*
G03X7615540Y14155830I0J395826D01*
G02X7650000Y14141240I14141J-14591D01*
G01Y9168760D01*
G02X7615540Y9154170I-20319J1D01*
G03X7340000Y9265820I-275540J-284176D01*
G03X6944180Y8870000I0J-395820D01*
G03X7111340Y8546910I395817J0D01*
G02X7099610Y8510000I-11734J-16590D01*
G01X4010000D01*
Y5750000D01*
X60000D01*
Y8571240D01*
G02X94460Y8585830I20319J-1D01*
G03X370000Y8474180I275540J284176D01*
G03Y9265820I0J395820D01*
G03X94460Y9154170I0J-395826D01*
G02X60000Y9168760I-14141J14591D01*
G01Y14141240D01*
G02X94460Y14155830I20319J-1D01*
G03X370000Y14044180I275540J284176D01*
G03X765820Y14440000I0J395820D01*
G03X654170Y14715540I-395826J0D01*
G02X668760Y14750000I14591J14141D01*
G37*
%LPC*%
G75*
G36*
G01X6041050Y14395740D02*
X6075100D01*
X6076200Y14395980D01*
G02X6120000Y14400820I43823J-195977D01*
G02X6163800Y14395980I-23J-200817D01*
G01X6164900Y14395740D01*
X6588950D01*
X6735740Y14248950D01*
Y13288950D01*
X6818950Y13205740D01*
X7157140D01*
X7157400Y13205750D01*
G02X7160000Y13205820I2667J-50748D01*
G01X7320000D01*
G02X7322600Y13205750I-67J-50818D01*
G01X7322860Y13205740D01*
X7365740D01*
Y13177250D01*
X7366590Y13175310D01*
G02X7370820Y13155000I-46592J-20299D01*
G01Y12995000D01*
G02X7366590Y12974690I-50822J-11D01*
G01X7365740Y12972750D01*
Y12944260D01*
X7357540D01*
G03X7342000Y12910850I1J-20320D01*
G02X7373320Y12825000I-102000J-85850D01*
G02X7317520Y12716530I-133328J0D01*
G03Y12683470I11812J-16530D01*
G02X7373320Y12575000I-77528J-108470D01*
G02X7366280Y12532240I-133322J-9D01*
G01X7365740Y12530660D01*
Y12521050D01*
X7358420Y12513730D01*
X7357700Y12512390D01*
G02X7317520Y12466530I-117710J62599D01*
G03Y12433470I11812J-16530D01*
G02X7373320Y12325000I-77528J-108470D01*
G02X7285820Y12199800I-133322J0D01*
G01X7283720Y12199030D01*
X7278950Y12194260D01*
X7266120D01*
X7265170Y12194080D01*
G02X7240000Y12191680I-25183J130919D01*
G02X7214830Y12194080I13J133319D01*
G01X7213880Y12194260D01*
X6788950D01*
X6735740Y12141050D01*
Y11171050D01*
X6568950Y11004260D01*
X6164900D01*
X6163800Y11004020D01*
G02X6120000Y10999180I-43823J195977D01*
G02X6076200Y11004020I23J200817D01*
G01X6075100Y11004260D01*
X6041050D01*
X6018740Y11026570D01*
X6017640Y11027230D01*
G02X5947230Y11097640I102360J172770D01*
G01X5946570Y11098740D01*
X5914260Y11131050D01*
Y11478950D01*
X5981050Y11545740D01*
X6251650D01*
X6253420Y11546430D01*
G02X6270000Y11549540I16580J-42641D01*
G01X6350000D01*
G02X6364530Y11547170I-2J-45740D01*
G01X6370490Y11545180D01*
X6424260Y11598950D01*
Y11840520D01*
G03X6389570Y11854890I-20321J0D01*
G01X6378950Y11844260D01*
X5991050D01*
X5914260Y11921050D01*
Y12488950D01*
X6115310Y12690000D01*
X5914260Y12891050D01*
Y13448950D01*
X6031050Y13565740D01*
X6414260D01*
Y13821050D01*
X6381050Y13854260D01*
X6021050D01*
X5924260Y13951050D01*
Y14155100D01*
X5924020Y14156200D01*
G02X5919180Y14200000I195977J43823D01*
G02X5924020Y14243800I200817J-23D01*
G01X5924260Y14244900D01*
Y14278950D01*
X5946570Y14301260D01*
X5947230Y14302360D01*
G02X6017640Y14372770I172770J-102360D01*
G01X6018740Y14373430D01*
X6041050Y14395740D01*
G37*
G36*
G01X6039150Y10383830D02*
X6051050Y10395740D01*
X6075100D01*
X6076200Y10395980D01*
G02X6120000Y10400820I43823J-195977D01*
G02X6163800Y10395980I-23J-200817D01*
G01X6164900Y10395740D01*
X6218950D01*
X6658950Y9955740D01*
X7157140D01*
X7157400Y9955750D01*
G02X7160000Y9955820I2667J-50748D01*
G01X7320000D01*
G02X7322600Y9955750I-67J-50818D01*
G01X7322860Y9955740D01*
X7365740D01*
Y9927250D01*
X7366590Y9925310D01*
G02X7370820Y9905000I-46592J-20299D01*
G01Y9745000D01*
G02X7366590Y9724690I-50822J-11D01*
G01X7365740Y9722750D01*
Y9704260D01*
X7350530D01*
X7347990Y9702580D01*
G02X7342270Y9699320I-27971J42431D01*
G03X7336470Y9667030I8900J-18265D01*
G02X7357700Y9637610I-96492J-92000D01*
G01X7358420Y9636270D01*
X7375740Y9618950D01*
Y9531050D01*
X7358420Y9513730D01*
X7357700Y9512390D01*
G02X7302610Y9457300I-117700J62610D01*
G01X7301270Y9456580D01*
X7288950Y9444260D01*
X7266120D01*
X7265170Y9444080D01*
G02X7240000Y9441680I-25183J130919D01*
G02X7214830Y9444080I13J133319D01*
G01X7213880Y9444260D01*
X6638950D01*
X6293420Y9098730D01*
G02X6221270Y9026580I-173420J101270D01*
G01X6198950Y9004260D01*
X6164900D01*
X6163800Y9004020D01*
G02X6120000Y8999180I-43823J195977D01*
G02X6076200Y9004020I23J200817D01*
G01X6075100Y9004260D01*
X6041050D01*
X6018730Y9026580D01*
G02X5947230Y9097640I101281J173409D01*
G01X5946570Y9098740D01*
X5944260Y9101050D01*
Y9102790D01*
X5943050Y9105040D01*
G02X5919180Y9200000I176951J94960D01*
G02X5926050Y9252070I200819J-7D01*
G01X5927570Y9257740D01*
X5915310Y9270000D01*
X5946580Y9301270D01*
G02X6018730Y9373420I173420J-101270D01*
G01X6191050Y9545740D01*
X6251650D01*
X6253420Y9546430D01*
G02X6270000Y9549540I16580J-42641D01*
G01X6314850D01*
X6470310Y9705000D01*
X6331050Y9844260D01*
X6191050D01*
X5934260Y10101050D01*
Y10123620D01*
X5933530Y10125440D01*
G02X5919180Y10200000I186472J74550D01*
G02X5933530Y10274560I200822J10D01*
G01X5934260Y10276380D01*
Y10278950D01*
X5936170Y10280850D01*
X5936930Y10282550D01*
G02X6037450Y10383070I183070J-82550D01*
G01X6039150Y10383830D01*
G37*
G36*
G01X1432240Y6795460D02*
G02X1386200Y6779980I-46044J60738D01*
G02Y6932420I0J76220D01*
G02X1432240Y6916940I-4J-76218D01*
G01X2387760D01*
G02X2433800Y6932420I46044J-60738D01*
G02Y6779980I0J-76220D01*
G02X2387760Y6795460I4J76218D01*
G01X1432240D01*
G37*
G36*
G01X4043620Y14385740D02*
X4045440Y14386470D01*
G02X4120000Y14400820I74550J-186472D01*
G02X4194560Y14386470I10J-200822D01*
G01X4196380Y14385740D01*
X4238950D01*
X4345740Y14278950D01*
Y13641050D01*
X4137840Y13433150D01*
G03X4149250Y13398680I14366J-14368D01*
G02X4163800Y13395980I-29340J-198664D01*
G01X4164900Y13395740D01*
X4208950D01*
X4315740Y13288950D01*
Y13244900D01*
X4315980Y13243800D01*
G02X4320820Y13200000I-195977J-43823D01*
G02X4315980Y13156200I-200817J23D01*
G01X4315740Y13155100D01*
Y13121050D01*
X4293430Y13098740D01*
X4292770Y13097640D01*
G02X4222360Y13027230I-172770J102360D01*
G01X4221260Y13026570D01*
X4198950Y13004260D01*
X4164900D01*
X4163800Y13004020D01*
G02X4120000Y12999180I-43823J195977D01*
G02X4076200Y13004020I23J200817D01*
G01X4075100Y13004260D01*
X3948950D01*
X3800880Y12856200D01*
X3806300Y12849130D01*
G02X3815740Y12821300I-36303J-27830D01*
G01Y12741300D01*
G02X3804990Y12711840I-45742J0D01*
G03Y12685660I15541J-13090D01*
G02X3815740Y12656200I-34992J-29460D01*
G01Y12576200D01*
Y12565740D01*
X4138950D01*
X4335740Y12368950D01*
Y12101050D01*
X4238950Y12004260D01*
X4164900D01*
X4163800Y12004020D01*
G02X4132810Y11999590I-43826J195977D01*
G03X4119740Y11964940I1299J-20280D01*
G01X4335740Y11748950D01*
Y11141050D01*
X4293430Y11098740D01*
X4292770Y11097640D01*
G02X4222360Y11027230I-172770J102360D01*
G01X4221260Y11026570D01*
X4198950Y11004260D01*
X4164900D01*
X4163800Y11004020D01*
G02X4120000Y10999180I-43823J195977D01*
G02X4076200Y11004020I23J200817D01*
G01X4075100Y11004260D01*
X4031050D01*
X3924260Y11111050D01*
Y11155100D01*
X3924020Y11156200D01*
G02X3919180Y11200000I195977J43823D01*
G02X3924020Y11243800I200817J-23D01*
G01X3924260Y11244900D01*
Y11801050D01*
X3790430Y11934890D01*
G03X3755740Y11920520I-14369J-14370D01*
G01Y10672240D01*
X6221490D01*
X6241160Y10689340D01*
X6234810Y10696980D01*
G02X6224260Y10726200I35190J29220D01*
G01Y10806200D01*
G02X6270000Y10851940I45740J0D01*
G01X6350000D01*
G02X6379620Y10841050I0J-45727D01*
G01X6396230Y10826940D01*
X6776040D01*
X7109180Y11160080D01*
Y11285000D01*
G02X7160000Y11335820I50820J0D01*
G01X7320000D01*
G02X7370820Y11285000I0J-50820D01*
G01Y11125000D01*
G02X7320000Y11074180I-50820J0D01*
G01X7195080D01*
X6844150Y10723250D01*
G02X6801200Y10705460I-42950J42952D01*
G01X6396230D01*
X6378840Y10690690D01*
X6385240Y10682960D01*
G02X6395740Y10653800I-35241J-29160D01*
G01Y10573800D01*
G02X6350000Y10528060I-45740J0D01*
G01X6270000D01*
G02X6239990Y10539280I0J45744D01*
G01X6221490Y10555360D01*
X3755740D01*
Y10311050D01*
X3569300Y10124610D01*
G03X3572370Y10093360I14370J-14364D01*
G02X3590040Y10076950I-42379J-63352D01*
G03X3620420Y10075100I16009J12518D01*
G01X3951050Y10405740D01*
X4188950D01*
X4221260Y10373430D01*
X4222360Y10372770D01*
G02X4293420Y10301270I-102349J-172781D01*
G01X4315740Y10278950D01*
Y10244900D01*
X4315980Y10243800D01*
G02X4320820Y10200000I-195977J-43823D01*
G02X4315980Y10156200I-200817J23D01*
G01X4315740Y10155100D01*
Y10111050D01*
X4048950Y9844260D01*
X3928720D01*
G03X3909790Y9816540I-5J-20321D01*
G02X3915020Y9788800I-70989J-27747D01*
G02X3871920Y9720150I-76223J0D01*
G03X3871370Y9683820I8825J-18303D01*
G02X3912420Y9616200I-35169J-67620D01*
G02X3905520Y9584510I-76222J0D01*
G03X3924000Y9555740I18479J-8450D01*
G01X4048950D01*
X4315740Y9288950D01*
Y9244900D01*
X4315980Y9243800D01*
G02X4320820Y9200000I-195977J-43823D01*
G02X4315980Y9156200I-200817J23D01*
G01X4315740Y9155100D01*
Y9131050D01*
X4303830Y9119150D01*
X4303070Y9117450D01*
G02X4202550Y9016930I-183070J82550D01*
G01X4200850Y9016170D01*
X4188950Y9004260D01*
X4164900D01*
X4163800Y9004020D01*
G02X4120000Y8999180I-43823J195977D01*
G02X4076200Y9004020I23J200817D01*
G01X4075100Y9004260D01*
X3951050D01*
X3628430Y9326890D01*
G03X3596360Y9322510I-14372J-14368D01*
G02X3585230Y9307470I-66370J37477D01*
G03X3585590Y9279100I14725J-14000D01*
G01X3615740Y9248950D01*
Y8874310D01*
X3615750Y8874130D01*
G02X3615820Y8870000I-115752J-4027D01*
G02X3615750Y8865870I-115822J-103D01*
G01X3615740Y8865690D01*
Y8831050D01*
X3604300Y8819610D01*
X3603560Y8818140D01*
G02X3551860Y8766440I-103560J51860D01*
G01X3550390Y8765700D01*
X3538950Y8754260D01*
X3504310D01*
X3504130Y8754250D01*
G02X3500000Y8754180I-4027J115752D01*
G02X3495870Y8754250I-103J115822D01*
G01X3495690Y8754260D01*
X3221050D01*
X3124260Y8851050D01*
Y9021650D01*
X3123570Y9023420D01*
G02X3120460Y9040000I42641J16580D01*
G01Y9120000D01*
G02X3123570Y9136580I45751J0D01*
G01X3124260Y9138350D01*
Y9151050D01*
X3034260Y9241050D01*
Y9405740D01*
X3039260D01*
Y9425000D01*
G02X3042740Y9442500I45741J0D01*
G02X3039260Y9460000I42261J17500D01*
G01Y9490000D01*
G02X3055110Y9524620I45734J0D01*
G03Y9555380I-13283J15380D01*
G02X3039260Y9590000I29884J34620D01*
G01Y9685000D01*
G02X3042740Y9702500I45741J0D01*
G02X3039260Y9720000I42261J17500D01*
G01Y9750000D01*
G02X3042740Y9767500I45741J0D01*
G02X3039260Y9785000I42261J17500D01*
G01Y9815000D01*
G02X3055110Y9849620I45734J0D01*
G03Y9880380I-13283J15380D01*
G02X3039260Y9915000I29884J34620D01*
G01Y9994260D01*
X3034260D01*
Y10168950D01*
X3114260Y10248950D01*
Y10361050D01*
X3106450Y10368860D01*
X2840640D01*
Y10280000D01*
G02X2794900Y10234260I-45740J0D01*
G01X2714900D01*
G02X2685280Y10245150I0J45727D01*
G03X2672120I-6580J-7745D01*
G02X2642500Y10234260I-29620J34837D01*
G01X2562500D01*
G02X2532880Y10245150I0J45727D01*
G01X2516270Y10259260D01*
X2445160D01*
X2430740Y10244840D01*
Y10202440D01*
G03X2457060Y10183030I20320J4D01*
G02X2475000Y10185740I17940J-58026D01*
G01X2680000D01*
G02X2725740Y10140000I0J-45740D01*
G01Y10110000D01*
G02X2722260Y10092500I-45741J0D01*
G02X2725740Y10075000I-42261J-17500D01*
G01Y10045000D01*
G02X2680000Y9999260I-45740J0D01*
G01X2470000D01*
G02X2461980Y9999790I-13J60741D01*
G03X2452330Y9983870I-1345J-10070D01*
G02X2464980Y9953720I-62325J-43879D01*
G01X2465550Y9950600D01*
X2490410Y9925740D01*
X2680000D01*
G02X2725740Y9880000I0J-45740D01*
G01Y9850000D01*
G02X2722260Y9832500I-45741J0D01*
G02X2725740Y9815000I-42261J-17500D01*
G01Y9785000D01*
G02X2722260Y9767500I-45741J0D01*
G02X2725740Y9750000I-42261J-17500D01*
G01Y9720000D01*
G02X2709890Y9685380I-45734J0D01*
G03Y9654620I13283J-15380D01*
G02X2725740Y9620000I-29884J-34620D01*
G01Y9525000D01*
G02X2722260Y9507500I-45741J0D01*
G02X2725740Y9490000I-42261J-17500D01*
G01Y9460000D01*
G02X2722260Y9442500I-45741J0D01*
G02X2725740Y9425000I-42261J-17500D01*
G01Y9395000D01*
G02X2722260Y9377500I-45741J0D01*
G02X2725740Y9360000I-42261J-17500D01*
G01Y9330000D01*
G02X2722260Y9312500I-45741J0D01*
G02X2725740Y9295000I-42261J-17500D01*
G01Y9265000D01*
G02X2680000Y9219260I-45740J0D01*
G01X2555160D01*
X2372950Y9037050D01*
G02X2330000Y9019260I-42950J42952D01*
G01X2322430D01*
X2305820Y9005150D01*
G02X2276200Y8994260I-29620J34837D01*
G01X2196200D01*
G02X2166580Y9005150I0J45727D01*
G03X2153420I-6580J-7745D01*
G02X2123800Y8994260I-29620J34837D01*
G01X2043800D01*
G02X2013790Y9005480I0J45744D01*
G01X2009290Y9009400D01*
X2003800Y9007590D01*
G02X1980000Y9003780I-23797J72411D01*
G02X1903780Y9080000I0J76220D01*
G02X1950950Y9150470I76225J0D01*
G01X1953100Y9151350D01*
X1961430Y9160660D01*
X1940640Y9179260D01*
X1256200D01*
G02X1213250Y9197050I0J60742D01*
G01X1096040Y9314260D01*
X1056200D01*
G02X1026580Y9325150I0J45727D01*
G03X1013420I-6580J-7745D01*
G02X983800Y9314260I-29620J34837D01*
G01X903800D01*
G02X874180Y9325150I0J45727D01*
G01X857570Y9339260D01*
X450000D01*
G02X407050Y9357050I0J60742D01*
G01X107050Y9657050D01*
G02X89260Y9700000I42952J42950D01*
G01Y12810000D01*
G02X107050Y12852950I60742J0D01*
G01X336680Y13082580D01*
Y13130000D01*
G02X470000Y13263320I133320J0D01*
G02X565650Y13222870I0J-133314D01*
G01X565700Y13222820D01*
X600090Y13188440D01*
X1900790D01*
X1942540Y13230270D01*
X1942690Y13234250D01*
G02X1988400Y13278240I45710J-1754D01*
G01X2088400D01*
G02X2124130Y13261060I0J-45745D01*
G03X2155870I15870J12687D01*
G02X2191600Y13278240I35730J-28565D01*
G01X2291600D01*
G02X2316610Y13270800I4J-45741D01*
G03X2348040Y13287810I11111J17012D01*
G01Y13288780D01*
G02X2353120Y13313100I60741J3D01*
G03X2334500Y13341560I-18617J8141D01*
G01X1685930D01*
G02X1637000Y13323780I-48930J58437D01*
G02Y13476220I0J76220D01*
G02X1685930Y13458440I0J-76217D01*
G01X2676200D01*
G02X2717520Y13441320I-6J-58438D01*
G01X2744960Y13413890D01*
X2766350Y13418990D01*
X2798680Y13451320D01*
G02X2840000Y13468440I41326J-41318D01*
G01X3064260D01*
Y13908950D01*
X3141050Y13985740D01*
X3572490D01*
X3573780Y13986080D01*
G02X3610000Y13990820I36228J-136079D01*
G02X3646220Y13986080I-8J-140819D01*
G01X3647510Y13985740D01*
X3648950D01*
X3649490Y13985190D01*
X3651890Y13984450D01*
G02X3744450Y13891890I-41890J-134450D01*
G01X3745190Y13889490D01*
X3745740Y13888950D01*
Y13887510D01*
X3746080Y13886220D01*
G02X3750820Y13850000I-136079J-36228D01*
G02X3746080Y13813780I-140819J8D01*
G01X3745740Y13812490D01*
Y13419480D01*
G03X3780430Y13405110I20321J0D01*
G01X3914260Y13538950D01*
Y14278950D01*
X4021050Y14385740D01*
X4043620D01*
G37*
G54D30*
X2605000Y9960000D03*
G54D32*
X1700000Y8870000D03*
G54D31*
X2834000Y7805000D03*
X1818000D03*
%LPD*%
G75*
G36*
G01X210740Y12784840D02*
X304490Y12878590D01*
G02X339180Y12864220I14370J-14366D01*
G01Y12800000D01*
G03X390000Y12749180I50820J0D01*
G01X518170D01*
X571560Y12695790D01*
Y12024210D01*
X520390Y11973030D01*
X470080Y11972270D01*
X470000D01*
G03X336680Y11838950I0J-133320D01*
G03X373530Y11746920I133323J-8D01*
G02X367730Y11714630I-14700J-14025D01*
G03X339180Y11668950I22269J-45680D01*
G01Y11540780D01*
X258680Y11460270D01*
G03X241560Y11418950I41318J-41326D01*
G01Y10450000D01*
G03X258680Y10408680I58438J6D01*
G01X339180Y10328170D01*
Y10200000D01*
G03X390000Y10149180I50820J0D01*
G01X550000D01*
G03X600820Y10200000I0J50820D01*
G01Y10264220D01*
G02X635510Y10278590I20320J4D01*
G01X639260Y10274840D01*
Y9790000D01*
G03X657050Y9747050I60742J0D01*
G01X847530Y9556570D01*
X858740Y9492160D01*
G03X864140Y9477220I45061J7841D01*
G01X868340Y9469890D01*
X857570Y9460740D01*
X475160D01*
X210740Y9725160D01*
Y12784840D01*
G37*
G36*
G01X2864210Y13351560D02*
X3064260D01*
Y13298950D01*
X3034260Y13268950D01*
Y12994260D01*
X3039260D01*
Y12912500D01*
G03X3055110Y12877880I45734J0D01*
G02Y12847120I-13283J-15380D01*
G03X3039260Y12812500I29884J-34620D01*
G01Y12587500D01*
G03X3055110Y12552880I45734J0D01*
G02Y12522120I-13283J-15380D01*
G03X3039260Y12487500I29884J-34620D01*
G01Y12405740D01*
X3034260D01*
Y12131050D01*
X3064260Y12101050D01*
Y10511140D01*
X2160000D01*
G03X2109700Y10490300I0J-71123D01*
G01X2008100Y10388700D01*
G03X1987260Y10338400I50297J-50306D01*
G01Y10096380D01*
X1975250Y10081720D01*
X1940640Y10050740D01*
X1566200D01*
G03X1523250Y10032950I0J-60742D01*
G01X1456040Y9965740D01*
X1416200D01*
G03X1386580Y9954850I0J-45727D01*
G02X1373420I-6580J7745D01*
G03X1343800Y9965740I-29620J-34837D01*
G01X1263800D01*
G03X1234180Y9954850I0J-45727D01*
G01X1229210Y9950630D01*
X1223800Y9952410D01*
G03X1200000Y9956220I-23797J-72411D01*
G03X1176200Y9952410I-3J-76221D01*
G01X1170790Y9950630D01*
X1165820Y9954850D01*
G03X1136200Y9965740I-29620J-34837D01*
G01X1056200D01*
G03X1010460Y9920000I0J-45740D01*
G01Y9840000D01*
G03X1019740Y9812380I45743J0D01*
G02Y9800120I-8102J-6130D01*
G03X1010460Y9772500I36463J-27620D01*
G01Y9692500D01*
G03X1056200Y9646760I45740J0D01*
G01X1136200D01*
G03X1165820Y9657650I0J45727D01*
G01X1170790Y9661870D01*
X1176200Y9660090D01*
G03X1200000Y9656280I23797J72411D01*
G03X1223800Y9660090I3J76221D01*
G01X1229210Y9661870D01*
X1234180Y9657650D01*
G03X1263800Y9646760I29620J34837D01*
G01X1343800D01*
G03X1373420Y9657650I0J45727D01*
G02X1386580I6580J-7745D01*
G03X1416200Y9646760I29620J34837D01*
G01X1496200D01*
G03X1541940Y9692500I0J45740D01*
G01Y9772500D01*
G03X1532660Y9800120I-45743J0D01*
G02Y9812380I8102J6130D01*
G03X1541940Y9840000I-36463J27620D01*
G01Y9879840D01*
X1591360Y9929260D01*
X1940640D01*
X1977900Y9895920D01*
G03X2008400Y9884260I30506J34078D01*
G01X2108400D01*
G03X2144130Y9901440I0J45745D01*
G02X2175870I15870J-12687D01*
G03X2175940Y9901360I34458J30080D01*
G02Y9888640I-7927J-6360D01*
G03X2165860Y9860000I35647J-28640D01*
G01Y9740000D01*
G03X2175940Y9711360I45727J0D01*
G02Y9698640I-7927J-6360D01*
G03X2165860Y9670000I35647J-28640D01*
G01Y9550000D01*
G03X2175940Y9521360I45727J0D01*
G02Y9508640I-7927J-6360D01*
G03X2165860Y9480000I35647J-28640D01*
G01Y9360000D01*
G03X2177070Y9330000I45748J0D01*
G03X2169380Y9317590I34537J-29989D01*
G02X2150620I-9380J3910D01*
G03X2108400Y9345740I-42220J-17586D01*
G01X2008400D01*
G03X1977900Y9334080I6J-45738D01*
G01X1940640Y9300740D01*
X1281360D01*
X1181940Y9400160D01*
Y9440000D01*
G03X1170730Y9470000I-45748J0D01*
G03X1181940Y9500000I-34538J30000D01*
G01Y9580000D01*
G03X1136200Y9625740I-45740J0D01*
G01X1056200D01*
G03X1026580Y9614850I0J-45727D01*
G02X1013420I-6580J7745D01*
G03X995660Y9624180I-29635J-34842D01*
G01X935610Y9640290D01*
X760740Y9815160D01*
Y10300000D01*
G03X742950Y10342950I-60742J0D01*
G01X603320Y10482580D01*
Y10525550D01*
X610870Y10578230D01*
X731320Y10698680D01*
G03X748440Y10740000I-41318J41326D01*
G01Y11785790D01*
X954210Y11991560D01*
X1878400D01*
G03X1919720Y12008680I-6J58438D01*
G01X2025310Y12114260D01*
X2291600D01*
G03X2337340Y12160000I0J45740D01*
G01Y12243090D01*
X2443310Y12349060D01*
X2479260D01*
Y12327500D01*
G03X2525000Y12281760I45740J0D01*
G01X2680000D01*
G03X2725740Y12327500I0J45740D01*
G01Y12357500D01*
G03X2722260Y12375000I-45741J0D01*
G03X2725740Y12392500I-42261J17500D01*
G01Y12422500D01*
G03X2722260Y12440000I-45741J0D01*
G03X2725740Y12457500I-42261J17500D01*
G01Y12487500D01*
G03X2722260Y12505000I-45741J0D01*
G03X2725740Y12522500I-42261J17500D01*
G01Y12552500D01*
G03X2722260Y12570000I-45741J0D01*
G03X2725740Y12587500I-42261J17500D01*
G01Y12617500D01*
G03X2709890Y12652120I-45734J0D01*
G02Y12682880I13283J15380D01*
G03X2725740Y12717500I-29884J34620D01*
G01Y12747500D01*
G03X2722260Y12765000I-45741J0D01*
G03X2725740Y12782500I-42261J17500D01*
G01Y12812500D01*
G03X2722260Y12830000I-45741J0D01*
G03X2725740Y12847500I-42261J17500D01*
G01Y12877500D01*
G03X2722260Y12895000I-45741J0D01*
G03X2725740Y12912500I-42261J17500D01*
G01Y12942500D01*
G03X2722260Y12960000I-45741J0D01*
G03X2725740Y12977500I-42261J17500D01*
G01Y13007500D01*
G03X2722260Y13025000I-45741J0D01*
G03X2725740Y13042500I-42261J17500D01*
G01Y13072500D01*
G03X2722260Y13090000I-45741J0D01*
G03X2725740Y13107500I-42261J17500D01*
G01Y13137500D01*
G03X2680000Y13183240I-45740J0D01*
G01X2502500D01*
G03X2493010Y13182490I26J-60738D01*
G02X2469520Y13202560I-3169J20072D01*
G01Y13259260D01*
X2517570D01*
X2534180Y13245150D01*
G03X2563800Y13234260I29620J34837D01*
G01X2643800D01*
G03X2673420Y13245150I0J45727D01*
G02X2686580I6580J-7745D01*
G03X2716200Y13234260I29620J34837D01*
G01X2796200D01*
G03X2841450Y13273330I0J45739D01*
G01X2851040Y13338390D01*
X2864210Y13351560D01*
G37*
G36*
G01X866090Y9392050D02*
X903800Y9360000D01*
X947550Y9400000D01*
X903800Y9440000D01*
X866090Y9407950D01*
G03Y9392050I12720J-7950D01*
G37*
G36*
G01X2088400Y13066760D02*
G03X2130620Y13094910I0J45736D01*
G02X2149380I9380J-3910D01*
G03X2158200Y13081250I42223J17585D01*
G03X2145860Y13050000I33399J-31250D01*
G01Y12930000D01*
G03X2155940Y12901360I45727J0D01*
G02Y12888640I-7927J-6360D01*
G03X2146180Y12865420I35657J-28649D01*
G01X2134250Y12765420D01*
X1954780D01*
X1935130Y12868560D01*
G03X1890200Y12905740I-44930J-8558D01*
G01X1790200D01*
G03X1754470Y12888560I0J-45745D01*
G02X1722730I-15870J12687D01*
G03X1721110Y12890470I-35679J-28620D01*
G01X1701730Y12912160D01*
X1704890Y12918360D01*
G03X1713220Y12953000I-67888J34647D01*
G03X1560780I-76220J0D01*
G03X1569110Y12918360I76218J7D01*
G01X1572270Y12912160D01*
X1552890Y12890470D01*
G03X1542070Y12868560I34110J-30472D01*
G01X1523040Y12768690D01*
X1414880Y12660520D01*
G03X1397760Y12619200I41318J-41326D01*
G01Y12578510D01*
X1380660Y12558840D01*
X1373020Y12565190D01*
G03X1343800Y12575740I-29220J-35190D01*
G01X1263800D01*
G03X1229510Y12560270I0J-45738D01*
G03X1200000Y12566220I-29523J-70267D01*
G03X1170490Y12560270I13J-76217D01*
G03X1136200Y12575740I-34290J-30268D01*
G01X1056200D01*
G03X1010460Y12530000I0J-45740D01*
G01Y12450000D01*
G03X1021670Y12420000I45748J0D01*
G03X1010460Y12390000I34538J-30000D01*
G01Y12310000D01*
G03X1056200Y12264260I45740J0D01*
G01X1136200D01*
G03X1170490Y12279730I0J45738D01*
G03X1200000Y12273780I29523J70267D01*
G03X1229510Y12279730I-13J76217D01*
G03X1263800Y12264260I34290J30268D01*
G01X1343800D01*
G03X1373420Y12275150I0J45727D01*
G02X1386580I6580J-7745D01*
G03X1416200Y12264260I29620J34837D01*
G01X1496200D01*
G03X1541940Y12310000I0J45740D01*
G01Y12390000D01*
G03X1530730Y12420000I-45748J0D01*
G03X1541940Y12450000I-34538J30000D01*
G01Y12530000D01*
G03X1530720Y12560010I-45744J0D01*
G01X1514640Y12578510D01*
Y12594990D01*
X1604020Y12684380D01*
X1692250Y12694560D01*
G03X1722730Y12711440I-5250J45439D01*
G02X1754470I15870J-12687D01*
G03X1784950Y12694560I35730J28559D01*
G01X1873180Y12684380D01*
X1891900Y12665660D01*
G03X1933220Y12648540I41326J41318D01*
G01X2145860D01*
Y12558440D01*
X1903450D01*
X1873370Y12571800D01*
G03X1862840Y12575030I-18581J-41796D01*
G02X1846120Y12593970I3570J20002D01*
G03X1770000Y12666220I-76120J-3974D01*
G03X1694450Y12600050I0J-76215D01*
G01X1693990Y12596640D01*
X1682250Y12584890D01*
X1615840Y12575270D01*
G03X1576660Y12530000I6563J-45270D01*
G01Y12450000D01*
G03X1622400Y12404260I45740J0D01*
G01X1702400D01*
G03X1716230Y12406400I3J45740D01*
G02X1729390Y12395500I3074J-9683D01*
G03X1729060Y12390000I45411J-5485D01*
G01Y12310000D01*
G03X1739140Y12281360I45727J0D01*
G02Y12268640I-7927J-6360D01*
G03X1729060Y12240000I35647J-28640D01*
G01Y12160000D01*
G03X1734500Y12138370I45739J4D01*
G02X1716590Y12108440I-17905J-9610D01*
G01X930000D01*
G03X888680Y12091320I6J-58438D01*
G01X648680Y11851320D01*
G03X631560Y11810000I41318J-41326D01*
G01Y10764210D01*
X530670Y10663320D01*
X470000D01*
G03X390830Y10637270I0J-133330D01*
G02X358440Y10653610I-12071J16345D01*
G01Y11394740D01*
X421830Y11458130D01*
X550000D01*
G03X600820Y11508950I0J50820D01*
G01Y11668950D01*
G03X572270Y11714630I-50819J0D01*
G02X566470Y11746920I8900J18265D01*
G03X603320Y11838950I-96473J92022D01*
G01Y11890670D01*
X671320Y11958680D01*
G03X688440Y12000000I-41318J41326D01*
G01Y12720000D01*
G03X671320Y12761320I-58438J-6D01*
G01X600820Y12831830D01*
Y12960000D01*
G03X559910Y13009840I-50815J0D01*
G02X555390Y13027610I1984J9965D01*
G03X565650Y13037130I-85427J102356D01*
G01X565700Y13037180D01*
X600090Y13071560D01*
X1926280D01*
X1942490Y13070660D01*
X1945220Y13068020D01*
G03X1946550Y13066760I43297J44371D01*
G01X2088400D01*
G37*
G36*
G01X552500Y10462500D02*
Y10530000D01*
X467350Y10532650D01*
X470000Y10447500D01*
X537500D01*
G03X552500Y10462500I0J15000D01*
G37*
G36*
G01X549800Y10612500D02*
X470000D01*
X467610Y10527910D01*
X552360Y10528200D01*
X562370Y10598000D01*
G03X549800Y10612500I-12570J1802D01*
G37*
G36*
G01X539610Y11922500D02*
X469810Y11921440D01*
X467770Y11836690D01*
X552500Y11838950D01*
Y11909800D01*
G03X539610Y11922500I-12701J0D01*
G37*
G36*
G01X402500Y13047500D02*
X470000D01*
X472650Y13132650D01*
X387500Y13130000D01*
Y13062500D01*
G03X402500Y13047500I15000J0D01*
G37*
G36*
G01X577690Y13138980D02*
X528330Y13188320D01*
X466820Y13130000D01*
X528330Y13071680D01*
X577690Y13121020D01*
G03Y13138980I-8980J8980D01*
G37*
G36*
G01X1418700Y6866800D02*
X1407750Y6877740D01*
X1382450Y6856200D01*
X1407750Y6834660D01*
X1418700Y6845600D01*
G03Y6866800I-10610J10600D01*
G37*
G36*
G01X888800Y9586200D02*
X903800Y9500000D01*
X946250Y9537160D01*
X983800Y9580000D01*
X904960Y9601160D01*
G03X888800Y9586200I-1155J-14960D01*
G37*
G36*
G01X1088250Y9477710D02*
X1056200Y9440000D01*
X1096200Y9396250D01*
X1136200Y9440000D01*
X1104150Y9477710D01*
G03X1088250I-7950J-12720D01*
G37*
G36*
G01X1104150Y9462290D02*
X1136200Y9500000D01*
X1096200Y9543750D01*
X1056200Y9500000D01*
X1088250Y9462290D01*
G03X1104150I7950J12720D01*
G37*
G36*
G01X1167500Y9721900D02*
X1178450Y9710960D01*
X1203750Y9732500D01*
X1178450Y9754040D01*
X1167500Y9743100D01*
G03Y9721900I10610J-10600D01*
G37*
G36*
G01X1232500Y9743100D02*
X1221550Y9754040D01*
X1196250Y9732500D01*
X1221550Y9710960D01*
X1232500Y9721900D01*
G03Y9743100I-10610J10600D01*
G37*
G36*
G01X1173910Y9740450D02*
X1136200Y9772500D01*
X1092450Y9732500D01*
X1136200Y9692500D01*
X1173910Y9724550D01*
G03Y9740450I-12720J7950D01*
G37*
G36*
G01X1226090Y9724550D02*
X1263800Y9692500D01*
X1307550Y9732500D01*
X1263800Y9772500D01*
X1226090Y9740450D01*
G03Y9724550I12720J-7950D01*
G37*
G36*
G01X1167500Y9869400D02*
X1178450Y9858460D01*
X1203750Y9880000D01*
X1178450Y9901540D01*
X1167500Y9890600D01*
G03Y9869400I10610J-10600D01*
G37*
G36*
G01X1232500Y9890600D02*
X1221550Y9901540D01*
X1196250Y9880000D01*
X1221550Y9858460D01*
X1232500Y9869400D01*
G03Y9890600I-10610J10600D01*
G37*
G36*
G01X1173910Y9887950D02*
X1136200Y9920000D01*
X1092450Y9880000D01*
X1136200Y9840000D01*
X1173910Y9872050D01*
G03Y9887950I-12720J7950D01*
G37*
G36*
G01X1226090Y9872050D02*
X1263800Y9840000D01*
X1307550Y9880000D01*
X1263800Y9920000D01*
X1226090Y9887950D01*
G03Y9872050I12720J-7950D01*
G37*
G36*
G01X1164080Y12342820D02*
X1178450Y12328450D01*
X1202540Y12350000D01*
X1178450Y12371550D01*
X1164080Y12357180D01*
G03Y12342820I7180J-7180D01*
G37*
G36*
G01X1235920Y12357180D02*
X1221550Y12371550D01*
X1197460Y12350000D01*
X1221550Y12328450D01*
X1235920Y12342820D01*
G03Y12357180I-7180J7180D01*
G37*
G36*
G01X1174170Y12356070D02*
X1136200Y12390000D01*
X1093660Y12350000D01*
X1136200Y12310000D01*
X1174170Y12343930D01*
G03Y12356070I-8140J6070D01*
G37*
G36*
G01X1225830Y12343930D02*
X1263800Y12310000D01*
X1306340Y12350000D01*
X1263800Y12390000D01*
X1225830Y12356070D01*
G03Y12343930I8140J-6070D01*
G37*
G36*
G01X1164080Y12482820D02*
X1178450Y12468450D01*
X1202540Y12490000D01*
X1178450Y12511550D01*
X1164080Y12497180D01*
G03Y12482820I7180J-7180D01*
G37*
G36*
G01X1235920Y12497180D02*
X1221550Y12511550D01*
X1197460Y12490000D01*
X1221550Y12468450D01*
X1235920Y12482820D01*
G03Y12497180I-7180J7180D01*
G37*
G36*
G01X1174170Y12496070D02*
X1136200Y12530000D01*
X1093660Y12490000D01*
X1136200Y12450000D01*
X1174170Y12483930D01*
G03Y12496070I-8140J6070D01*
G37*
G36*
G01X1225830Y12483930D02*
X1263800Y12450000D01*
X1306340Y12490000D01*
X1263800Y12530000D01*
X1225830Y12496070D01*
G03Y12483930I8140J-6070D01*
G37*
G36*
G01X1448250Y9810210D02*
X1416200Y9772500D01*
X1456200Y9728750D01*
X1496200Y9772500D01*
X1464150Y9810210D01*
G03X1448250I-7950J-12720D01*
G37*
G36*
G01X1464150Y9802290D02*
X1496200Y9840000D01*
X1456200Y9883750D01*
X1416200Y9840000D01*
X1448250Y9802290D01*
G03X1464150I7950J12720D01*
G37*
G36*
G01X1914010Y12441560D02*
X2145860D01*
Y12340000D01*
G03X2145980Y12336650I45741J-39D01*
G01X2146010Y12336270D01*
Y12325740D01*
X1988400D01*
G03X1942660Y12280000I0J-45740D01*
G01Y12196910D01*
X1935230Y12189470D01*
G02X1900540Y12203840I-14369J14370D01*
G01Y12240000D01*
G03X1890460Y12268640I-45727J0D01*
G02Y12281360I7927J6360D01*
G03X1900540Y12310000I-35647J28640D01*
G01Y12390000D01*
G03X1894310Y12413050I-45741J4D01*
G01X1890120Y12420220D01*
X1914010Y12441560D01*
G37*
G36*
G01X1449040Y12427780D02*
X1416200Y12390000D01*
X1456200Y12346820D01*
X1496200Y12390000D01*
X1463360Y12427780D01*
G03X1449040I-7160J-10490D01*
G37*
G36*
G01X1807640D02*
X1774800Y12390000D01*
X1814800Y12346820D01*
X1854800Y12390000D01*
X1821960Y12427780D01*
G03X1807640I-7160J-10490D01*
G37*
G36*
G01X1629410Y12907470D02*
X1587000Y12860000D01*
X1637000Y12796820D01*
X1687000Y12860000D01*
X1644590Y12907470D01*
G03X1629410I-7590J-10180D01*
G37*
G36*
G01X1577000Y12727300D02*
X1687000Y12740000D01*
X1639250Y12802250D01*
X1587000Y12860000D01*
X1564340Y12741050D01*
G03X1577000Y12727300I12660J-1047D01*
G37*
G36*
G01X1449040Y12567780D02*
X1416200Y12530000D01*
X1456200Y12486820D01*
X1496200Y12530000D01*
X1463360Y12567780D01*
G03X1449040I-7160J-10490D01*
G37*
G36*
G01X1463360Y12412220D02*
X1496200Y12450000D01*
X1456200Y12493180D01*
X1416200Y12450000D01*
X1449040Y12412220D01*
G03X1463360I7160J10490D01*
G37*
G36*
G01X1912860Y12741050D02*
X1890200Y12860000D01*
X1837950Y12802250D01*
X1790200Y12740000D01*
X1900200Y12727300D01*
G03X1912860Y12741050I0J12703D01*
G37*
G36*
G01X1752220Y12559520D02*
X1770000D01*
X1772250Y12592250D01*
X1739520Y12590000D01*
Y12572220D01*
G03X1752220Y12559520I12700J0D01*
G37*
G36*
G01X1710000Y12542700D02*
X1622400Y12530000D01*
X1659970Y12487960D01*
X1702400Y12450000D01*
X1722640Y12528800D01*
G03X1710000Y12542700I-12640J1203D01*
G37*
G36*
G01X1900050Y12509900D02*
X1854800Y12530000D01*
X1811650Y12489590D01*
X1854800Y12450000D01*
X1902270Y12492410D01*
G03X1900050Y12509900I-10180J7594D01*
G37*
G36*
G01X1821960Y12412220D02*
X1854800Y12450000D01*
X1814800Y12493180D01*
X1774800Y12450000D01*
X1807640Y12412220D01*
G03X1821960I7160J10490D01*
G37*
G36*
G01X1671120Y13408980D02*
X1658540Y13421540D01*
X1633820Y13400000D01*
X1658540Y13378460D01*
X1671120Y13391020D01*
G03Y13408980I-8980J8980D01*
G37*
G36*
G01X1645980Y12918880D02*
X1658540Y12931460D01*
X1637000Y12956180D01*
X1615460Y12931460D01*
X1628020Y12918880D01*
G03X1645980I8980J8980D01*
G37*
G36*
G01X2401300Y6845600D02*
X2412250Y6834660D01*
X2437550Y6856200D01*
X2412250Y6877740D01*
X2401300Y6866800D01*
G03Y6845600I10610J-10600D01*
G37*
G36*
G01X2006020Y9072840D02*
X2043800Y9040000D01*
X2086980Y9080000D01*
X2043800Y9120000D01*
X2006020Y9087160D01*
G03Y9072840I10490J-7160D01*
G37*
G36*
G01X2014120Y9088980D02*
X2001540Y9101540D01*
X1976820Y9080000D01*
X2001540Y9058460D01*
X2014120Y9071020D01*
G03Y9088980I-8980J8980D01*
G37*
G36*
G01X2321600Y9315000D02*
X2211600Y9300000D01*
X2258950Y9237350D01*
X2311600Y9180000D01*
X2336550Y9298750D01*
G03X2321600Y9315000I-14950J1248D01*
G37*
G36*
G01X2313910Y9087950D02*
X2276200Y9120000D01*
X2232450Y9080000D01*
X2276200Y9040000D01*
X2313910Y9072050D01*
G03Y9087950I-12720J7950D01*
G37*
G36*
G01X1951410Y9231000D02*
X2008400Y9180000D01*
X2062150Y9240000D01*
X2008400Y9300000D01*
X1951410Y9249000D01*
G03Y9231000I12000J-9000D01*
G37*
G36*
G01X2317310Y9489980D02*
X2211600Y9480000D01*
X2258950Y9417350D01*
X2311600Y9360000D01*
X2331590Y9474350D01*
G03X2317310Y9489980I-14986J646D01*
G37*
G36*
G01X2422500Y9745600D02*
X2411550Y9756540D01*
X2386250Y9735000D01*
X2411550Y9713460D01*
X2422500Y9724400D01*
G03Y9745600I-10610J10600D01*
G37*
G36*
G01X2357500Y9724400D02*
X2368450Y9713460D01*
X2393750Y9735000D01*
X2368450Y9756540D01*
X2357500Y9745600D01*
G03Y9724400I10610J-10600D01*
G37*
G36*
G01X2336550Y9741250D02*
X2311600Y9860000D01*
X2258950Y9802650D01*
X2211600Y9740000D01*
X2321600Y9725000D01*
G03X2336550Y9741250I0J15002D01*
G37*
G36*
G01X2047190Y10097380D02*
X2008400Y10050000D01*
X2058400Y9983650D01*
X2108400Y10050000D01*
X2069610Y10097380D01*
G03X2047190I-11210J-22790D01*
G37*
G36*
G01X1951410Y9981000D02*
X2008400Y9930000D01*
X2062150Y9990000D01*
X2008400Y10050000D01*
X1951410Y9999000D01*
G03Y9981000I12000J-9000D01*
G37*
G36*
G01X2270200Y9882720D02*
X2311600Y9930000D01*
X2261600Y9993750D01*
X2211600Y9930000D01*
X2253000Y9882720D01*
G03X2270200I8600J12290D01*
G37*
G36*
G01X2253000Y9907280D02*
X2211600Y9860000D01*
X2261600Y9796250D01*
X2311600Y9860000D01*
X2270200Y9907280D01*
G03X2253000I-8600J-12290D01*
G37*
G36*
G01X2420480Y9924520D02*
Y9940000D01*
X2387350Y9942650D01*
X2390000Y9909520D01*
X2405480D01*
G03X2420480Y9924520I0J15000D01*
G37*
G36*
G01Y9824520D02*
Y9840000D01*
X2387350Y9842650D01*
X2390000Y9809520D01*
X2405480D01*
G03X2420480Y9824520I0J15000D01*
G37*
G36*
G01X2348860Y12407860D02*
X2291600Y12460000D01*
X2238420Y12400000D01*
X2291600Y12340000D01*
X2348860Y12392140D01*
G03Y12407860I-9970J7860D01*
G37*
G36*
G01X2413420Y12869680D02*
X2391550Y12891550D01*
X2367510Y12870510D01*
X2387410Y12845950D01*
X2409280Y12852810D01*
G03X2413420Y12869680I-3043J9690D01*
G37*
G36*
G01X2409280Y12807190D02*
X2387410Y12814050D01*
X2367510Y12789490D01*
X2391550Y12768450D01*
X2413420Y12790320D01*
G03X2409280Y12807190I-7183J7180D01*
G37*
G36*
G01X2190000Y12727300D02*
X2291600Y12740000D01*
X2243670Y12802410D01*
X2191600Y12860000D01*
X2177300Y12740170D01*
G03X2190000Y12727300I12700J-169D01*
G37*
G36*
G01X2314260Y12741050D02*
X2291600Y12860000D01*
X2239350Y12802250D01*
X2191600Y12740000D01*
X2301600Y12727300D01*
G03X2314260Y12741050I0J12703D01*
G37*
G36*
G01X2404120Y12611480D02*
X2391540Y12624040D01*
X2366820Y12602500D01*
X2391540Y12580960D01*
X2404120Y12593520D01*
G03Y12611480I-8980J8980D01*
G37*
G36*
G01X2335880Y12593520D02*
X2348460Y12580960D01*
X2373180Y12602500D01*
X2348460Y12624040D01*
X2335880Y12611480D01*
G03Y12593520I8980J-8980D01*
G37*
G36*
G01X2348860Y12610360D02*
X2291600Y12662500D01*
X2238420Y12602500D01*
X2291600Y12542500D01*
X2348860Y12594640D01*
G03Y12610360I-9970J7860D01*
G37*
G36*
G01Y12997860D02*
X2291600Y13050000D01*
X2238420Y12990000D01*
X2291600Y12930000D01*
X2348860Y12982140D01*
G03Y12997860I-9970J7860D01*
G37*
G36*
G01X1922150Y13117600D02*
X2000410Y13113250D01*
X2041370Y13173610D01*
X1988400Y13211470D01*
X1914880Y13137810D01*
G03X1922150Y13117600I10018J-7809D01*
G37*
G36*
G01X2314260Y13113550D02*
X2291600Y13232500D01*
X2239350Y13174750D01*
X2191600Y13112500D01*
X2301600Y13099800D01*
G03X2314260Y13113550I0J12703D01*
G37*
G36*
G01X2694840Y9671920D02*
X2680000Y9685000D01*
X2599320Y9670000D01*
X2680000Y9655000D01*
X2694840Y9668080D01*
G03Y9671920I-12550J1920D01*
G37*
G36*
G01X2524790Y10312050D02*
X2562500Y10280000D01*
X2606250Y10320000D01*
X2562500Y10360000D01*
X2524790Y10327950D01*
G03Y10312050I12720J-7950D01*
G37*
G36*
G01X2747740Y10397780D02*
X2714900Y10360000D01*
X2754900Y10316820D01*
X2794900Y10360000D01*
X2762060Y10397780D01*
G03X2747740I-7160J-10490D01*
G37*
G36*
G01X2694840Y12669420D02*
X2680000Y12682500D01*
X2599320Y12667500D01*
X2680000Y12652500D01*
X2694840Y12665580D01*
G03Y12669420I-12550J1920D01*
G37*
G36*
G01X2510500Y12859390D02*
X2525000Y12847500D01*
X2605040Y12862500D01*
X2525000Y12877500D01*
X2510500Y12865610D01*
G03Y12859390I9670J-3110D01*
G37*
G36*
G01Y12794390D02*
X2525000Y12782500D01*
X2605040Y12797500D01*
X2525000Y12812500D01*
X2510500Y12800610D01*
G03Y12794390I9670J-3110D01*
G37*
G36*
G01X2510160Y12730580D02*
X2525000Y12717500D01*
X2605680Y12732500D01*
X2525000Y12747500D01*
X2510160Y12734420D01*
G03Y12730580I12550J-1920D01*
G37*
G36*
G01Y12470580D02*
X2525000Y12457500D01*
X2605680Y12472500D01*
X2525000Y12487500D01*
X2510160Y12474420D01*
G03Y12470580I12550J-1920D01*
G37*
G36*
G01Y12405580D02*
X2525000Y12392500D01*
X2605680Y12407500D01*
X2525000Y12422500D01*
X2510160Y12409420D01*
G03Y12405580I12550J-1920D01*
G37*
G36*
G01Y12600580D02*
X2525000Y12587500D01*
X2605680Y12602500D01*
X2525000Y12617500D01*
X2510160Y12604420D01*
G03Y12600580I12550J-1920D01*
G37*
G36*
G01Y12535580D02*
X2525000Y12522500D01*
X2605680Y12537500D01*
X2525000Y12552500D01*
X2510160Y12539420D01*
G03Y12535580I12550J-1920D01*
G37*
G36*
G01Y12925580D02*
X2525000Y12912500D01*
X2605680Y12927500D01*
X2525000Y12942500D01*
X2510160Y12929420D01*
G03Y12925580I12550J-1920D01*
G37*
G36*
G01X2795220Y13378860D02*
X2716200Y13360000D01*
X2754120Y13317600D01*
X2796200Y13280000D01*
X2808900Y13366200D01*
G03X2795220Y13378860I-12698J0D01*
G37*
G36*
G01X2510160Y12990580D02*
X2525000Y12977500D01*
X2605680Y12992500D01*
X2525000Y13007500D01*
X2510160Y12994420D01*
G03Y12990580I12550J-1920D01*
G37*
G36*
G01X2526090Y13312050D02*
X2563800Y13280000D01*
X2607550Y13320000D01*
X2563800Y13360000D01*
X2526090Y13327950D01*
G03Y13312050I12720J-7950D01*
G37*
G36*
G01X3514730Y9285270D02*
X3570000Y9230000D01*
Y8850000D01*
X3520000Y8800000D01*
X3240000D01*
X3170000Y8870000D01*
Y9170000D01*
X3080000Y9260000D01*
Y9300000D01*
X3240000D01*
Y9320000D01*
X3080000D01*
Y9360000D01*
X3128010D01*
G03X3162500Y9349260I34490J50010D01*
G01X3454120D01*
X3456050Y9341560D01*
G03X3511960Y9285950I73952J18440D01*
G01X3514730Y9285270D01*
G37*
G36*
G01X3070160Y9538080D02*
X3085000Y9525000D01*
X3165680Y9540000D01*
X3085000Y9555000D01*
X3070160Y9541920D01*
G03Y9538080I12550J-1920D01*
G37*
G36*
G01X3300000Y9470740D02*
Y9609260D01*
X3590740D01*
X3690000Y9510000D01*
X4030000D01*
X4270000Y9270000D01*
Y9150000D01*
X4170000Y9050000D01*
X3970000D01*
X3560000Y9460000D01*
X3514490D01*
G03X3480000Y9470740I-34490J-50010D01*
G01X3300000D01*
G37*
G36*
G01X3307430Y9517430D02*
X3265000Y9475000D01*
X3322430D01*
Y9517430D01*
X3307430D01*
G37*
G36*
G01X3322430Y9562570D02*
Y9605000D01*
X3265000D01*
X3307430Y9562570D01*
X3322430D01*
G37*
G36*
G01X3070160Y9863080D02*
X3085000Y9850000D01*
X3165680Y9865000D01*
X3085000Y9880000D01*
X3070160Y9866920D01*
G03Y9863080I12550J-1920D01*
G37*
G36*
G01X3080000Y12360000D02*
X3124640D01*
G03X3162500Y12346760I37860J47511D01*
G01X3273240D01*
X3338840Y12281160D01*
X3339530Y12278490D01*
G03X3383800Y12244260I44270J11512D01*
G01X3463800D01*
G03X3469740Y12244650I-20J45739D01*
G01X3474700Y12245300D01*
X3710000Y12010000D01*
Y11590060D01*
G02X3679630Y11572400I-20320J1D01*
G03X3610000Y11590820I-69630J-122395D01*
G03Y11309180I0J-140820D01*
G03X3679630Y11327600I0J140815D01*
G02X3710000Y11309940I10050J-17661D01*
G01Y10330000D01*
X3435740Y10055740D01*
X3080000D01*
Y10080000D01*
X3240000D01*
Y10100000D01*
X3080000D01*
Y10150000D01*
X3160000Y10230000D01*
Y10380000D01*
X3110000Y10430000D01*
Y12120000D01*
X3080000Y12150000D01*
Y12300000D01*
X3240000D01*
Y12320000D01*
X3080000D01*
Y12360000D01*
G37*
G36*
G01X3560000Y9950000D02*
X3970000Y10360000D01*
X4170000D01*
X4270000Y10260000D01*
Y10130000D01*
X4030000Y9890000D01*
X3690000D01*
X3669930Y9869930D01*
X3668580Y9869220D01*
G03X3649580Y9850220I21420J-40420D01*
G01X3648870Y9848870D01*
X3595740Y9795740D01*
X3300000D01*
Y9934260D01*
X3495000D01*
G03X3535800Y9950000I0J60749D01*
G01X3560000D01*
G37*
G36*
G01X3312430Y9842430D02*
X3270000Y9800000D01*
X3327430D01*
Y9842430D01*
X3312430D01*
G37*
G36*
G01X3290000Y12504260D02*
X3511050D01*
X3651050Y12364260D01*
X3655740D01*
X4290000Y11730000D01*
Y11160000D01*
X4180000Y11050000D01*
X4050000D01*
X3970250Y11129750D01*
X3972250Y11135720D01*
G03X3976220Y11160000I-72262J24280D01*
G03X3970730Y11188400I-76219J-3D01*
G01X3970000Y11190220D01*
Y11239780D01*
X3970730Y11241600D01*
G03X3976220Y11270000I-70729J28403D01*
G03X3970730Y11298400I-76219J-3D01*
G01X3970000Y11300220D01*
Y11399780D01*
X3970730Y11401600D01*
G03X3976220Y11430000I-70729J28403D01*
G03X3970730Y11458400I-76219J-3D01*
G01X3970000Y11460220D01*
Y11509780D01*
X3970730Y11511600D01*
G03X3976220Y11540000I-70729J28403D01*
G03X3970730Y11568400I-76219J-3D01*
G01X3970000Y11570220D01*
Y11639780D01*
X3970730Y11641600D01*
G03X3976220Y11670000I-70729J28403D01*
G03X3970730Y11698400I-76219J-3D01*
G01X3970000Y11700220D01*
Y11749780D01*
X3970730Y11751600D01*
G03X3976220Y11780000I-70729J28403D01*
G03X3970730Y11808400I-76219J-3D01*
G01X3970000Y11810220D01*
Y11820000D01*
X3530000Y12260000D01*
Y12350000D01*
X3509690Y12370310D01*
X3509370Y12373990D01*
G03X3467790Y12415570I-45570J-3990D01*
G01X3464110Y12415890D01*
X3440000Y12440000D01*
X3399700D01*
X3389250Y12450450D01*
G03X3346300Y12468240I-42950J-42952D01*
G01X3290000D01*
Y12504260D01*
G37*
G36*
G01X3070160Y12535580D02*
X3085000Y12522500D01*
X3165680Y12537500D01*
X3085000Y12552500D01*
X3070160Y12539420D01*
G03Y12535580I12550J-1920D01*
G37*
G36*
G01Y12860580D02*
X3085000Y12847500D01*
X3165680Y12862500D01*
X3085000Y12877500D01*
X3070160Y12864420D01*
G03Y12860580I12550J-1920D01*
G37*
G36*
G01X3294360Y12560740D02*
X3290000Y12561370D01*
Y12606760D01*
X3603240D01*
X3645790Y12564210D01*
X3646550Y12561910D01*
G03X3675710Y12532750I43450J14290D01*
G01X3678010Y12531990D01*
X3690000Y12520000D01*
X4120000D01*
X4290000Y12350000D01*
Y12120000D01*
X4220000Y12050000D01*
X4040000D01*
X3970000Y12120000D01*
Y12270000D01*
X3830000Y12410000D01*
X3670000D01*
X3530000Y12550000D01*
X3524610D01*
X3522140Y12551540D01*
G03X3490000Y12560740I-32140J-51540D01*
G01X3294360D01*
G37*
G36*
G01X3486110Y12970000D02*
X3510000D01*
X3530000Y12990000D01*
Y13090000D01*
X3960000Y13520000D01*
Y14260000D01*
X4040000Y14340000D01*
X4220000D01*
X4300000Y14260000D01*
Y13660000D01*
X4003760Y13363760D01*
G03X3956720Y13316920I116231J-163768D01*
G01X3956240Y13316240D01*
X3530000Y12890000D01*
X3290000D01*
Y12931760D01*
X3366300D01*
G03X3409250Y12949550I0J60742D01*
G01X3423960Y12964260D01*
X3463800D01*
G03X3483990Y12968960I-5J45739D01*
G01X3486110Y12970000D01*
G37*
G36*
G01X3646990Y12836990D02*
X3603240Y12793240D01*
X3290000D01*
Y12844260D01*
X3548950D01*
X4054690Y13350000D01*
X4190000D01*
X4270000Y13270000D01*
Y13140000D01*
X4180000Y13050000D01*
X3930000D01*
X3770000Y12890000D01*
X3700000D01*
X3674310Y12864310D01*
X3672450Y12863540D01*
G03X3647760Y12838850I17550J-42240D01*
G01X3646990Y12836990D01*
G37*
G36*
G01X3080000Y13040000D02*
Y13080000D01*
X3240000D01*
Y13100000D01*
X3080000D01*
Y13250000D01*
X3110000Y13280000D01*
Y13890000D01*
X3160000Y13940000D01*
X3630000D01*
X3700000Y13870000D01*
Y13360000D01*
X3480000Y13140000D01*
X3380000D01*
X3374970Y13134970D01*
X3372290Y13134270D01*
G03X3339530Y13101510I11510J-44270D01*
G01X3338830Y13098830D01*
X3293240Y13053240D01*
X3162500D01*
G03X3124640Y13040000I0J-60751D01*
G01X3080000D01*
G37*
G36*
G01X3807710Y9796750D02*
X3770000Y9828800D01*
X3726250Y9788800D01*
X3770000Y9748800D01*
X3807710Y9780850D01*
G03Y9796750I-12720J7950D01*
G37*
G36*
G01X3499520Y9375480D02*
Y9360000D01*
X3532650Y9357350D01*
X3530000Y9390480D01*
X3514520D01*
G03X3499520Y9375480I0J-15000D01*
G37*
G36*
G01X3803700Y9605600D02*
X3814650Y9594660D01*
X3839950Y9616200D01*
X3814650Y9637740D01*
X3803700Y9626800D01*
G03Y9605600I10610J-10600D01*
G37*
G36*
G01X3807710Y9624150D02*
X3770000Y9656200D01*
X3726250Y9616200D01*
X3770000Y9576200D01*
X3807710Y9608250D01*
G03Y9624150I-12720J7950D01*
G37*
G36*
G01X3514520Y9999520D02*
X3530000D01*
X3532650Y10032650D01*
X3499520Y10030000D01*
Y10014520D01*
G03X3514520Y9999520I15000J0D01*
G37*
G36*
G01X3806300Y9778200D02*
X3817250Y9767260D01*
X3842550Y9788800D01*
X3817250Y9810340D01*
X3806300Y9799400D01*
G03Y9778200I10610J-10600D01*
G37*
G36*
G01X6394210Y9564210D02*
X6490000Y9660000D01*
X7270000D01*
X7330000Y9600000D01*
Y9550000D01*
X7270000Y9490000D01*
X6620000D01*
X6180000Y9050000D01*
X6060000D01*
X5990000Y9120000D01*
Y9260000D01*
X5980000Y9270000D01*
X6210000Y9500000D01*
X6330000D01*
X6361990Y9531990D01*
X6364290Y9532750D01*
G03X6393450Y9561910I-14290J43450D01*
G01X6394210Y9564210D01*
G37*
G36*
G01X6210000Y9890000D02*
X5980000Y10120000D01*
Y10260000D01*
X6070000Y10350000D01*
X6200000D01*
X6640000Y9910000D01*
X7320000D01*
Y9750000D01*
X6490000D01*
X6350000Y9890000D01*
X6210000D01*
G37*
G36*
G01X6000000Y11500000D02*
X6390000D01*
X6470000Y11580000D01*
Y12280000D01*
X6600000Y12410000D01*
X7260000D01*
X7320000Y12350000D01*
Y12300000D01*
X7260000Y12240000D01*
X6770000D01*
X6690000Y12160000D01*
Y11190000D01*
X6550000Y11050000D01*
X6060000D01*
X5960000Y11150000D01*
Y11460000D01*
X6000000Y11500000D01*
G37*
G36*
G01X6140000Y12650000D02*
X7270000D01*
X7320000Y12600000D01*
Y12540000D01*
X7270000Y12490000D01*
X6490000D01*
X6380000Y12380000D01*
Y11910000D01*
X6360000Y11890000D01*
X6010000D01*
X5960000Y11940000D01*
Y12470000D01*
X6140000Y12650000D01*
G37*
G36*
G01X6050000Y13520000D02*
X6360000D01*
Y13040000D01*
X6490000Y12910000D01*
X7270000D01*
X7310000Y12870000D01*
Y12790000D01*
X7260000Y12740000D01*
X6130000D01*
X5960000Y12910000D01*
Y13430000D01*
X6050000Y13520000D01*
G37*
G36*
G01X6040000Y13900000D02*
X5970000Y13970000D01*
Y14260000D01*
X6060000Y14350000D01*
X6570000D01*
X6690000Y14230000D01*
Y13270000D01*
X6800000Y13160000D01*
X7320000D01*
Y12990000D01*
X6650000D01*
X6460000Y13180000D01*
Y13840000D01*
X6400000Y13900000D01*
X6040000D01*
G37*
G36*
G01X6387710Y10774150D02*
X6350000Y10806200D01*
X6306250Y10766200D01*
X6350000Y10726200D01*
X6387710Y10758250D01*
G03Y10774150I-12720J7950D01*
G37*
G36*
G01X6232220Y10606640D02*
X6270000Y10573800D01*
X6313180Y10613800D01*
X6270000Y10653800D01*
X6232220Y10620960D01*
G03Y10606640I10490J-7160D01*
G37*
G54D10*
X360000Y360000D03*
X370000Y8870000D03*
Y14440000D03*
X7340000Y360000D03*
Y8870000D03*
Y14440000D03*
G54D11*
X190000Y5870000D03*
Y6330000D03*
X200000Y6850000D03*
Y7310000D03*
Y7770000D03*
X210000Y8290000D03*
X360000Y9660000D03*
X130000Y9550000D03*
X300000Y9380000D03*
X270000Y9820000D03*
Y10020000D03*
Y10230000D03*
X260000Y11660000D03*
Y11860000D03*
Y12290000D03*
Y12070000D03*
Y12490000D03*
Y12700000D03*
X110000Y12930000D03*
X280000Y13130000D03*
X580000Y6170000D03*
Y6630000D03*
X590000Y7150000D03*
X600000Y7650000D03*
Y7990000D03*
X520000Y9510000D03*
X770000Y9500000D03*
X680000Y9670000D03*
X600000Y9300000D03*
X610000Y10100000D03*
X600000Y9870000D03*
X820000Y9860000D03*
X800000Y10150000D03*
X720000Y10600000D03*
Y10420000D03*
X780000Y11250000D03*
Y11050000D03*
Y10860000D03*
X600000Y10960000D03*
Y11160000D03*
X400000Y10950000D03*
Y11150000D03*
Y11360000D03*
X830000Y11820000D03*
X780000Y11650000D03*
Y11460000D03*
X600000Y11370000D03*
X820000Y12090000D03*
X650000Y11890000D03*
X730000Y12250000D03*
X520000Y12270000D03*
X730000Y12450000D03*
Y12660000D03*
X520000Y12470000D03*
Y12680000D03*
X860000Y13270000D03*
Y13010000D03*
X750000Y13270000D03*
X630000D03*
X750000Y13010000D03*
X630000D03*
X1270000Y6320000D03*
X950000Y6170000D03*
X1386200Y6856200D03*
X1370000Y9010000D03*
Y9120000D03*
X1240000Y9010000D03*
Y9121600D03*
Y8780000D03*
Y8891600D03*
X1120000Y9010000D03*
Y9120000D03*
Y8780000D03*
Y8890000D03*
X950000Y9280000D03*
X1270000Y9381600D03*
X1400000Y9380000D03*
X1200000Y9732500D03*
Y9880000D03*
X1303710Y11274290D03*
Y10874290D03*
X1100000Y11940000D03*
X980000D03*
X1350000D03*
X1230000D03*
Y12170000D03*
X1350000D03*
X980000D03*
X1100000D03*
X1200000Y12350000D03*
Y12490000D03*
X1360000Y13270000D03*
Y13010000D03*
X1230000Y13270000D03*
X1110000D03*
X1230000Y13010000D03*
X1110000D03*
X980000Y13270000D03*
Y13010000D03*
X1123710Y13942650D03*
X1324180Y14314940D03*
X1490000Y9010000D03*
Y9121600D03*
X1630000D03*
X1760000Y9120000D03*
X1880000Y9121600D03*
X1910000Y9380000D03*
X1790000D03*
X1910000Y9490000D03*
X1790000D03*
X1910000Y9600000D03*
X1790000D03*
X1660000D03*
Y9490000D03*
Y9380000D03*
X1520000Y9381600D03*
X1703710Y11274290D03*
Y10874290D03*
X1490000Y12170000D03*
X1740000Y11940000D03*
X1860000D03*
X1490000D03*
X1610000D03*
X1930000Y12330000D03*
X1910000Y12590000D03*
X1770000D03*
X1780000Y13010000D03*
X1900000D03*
X1780000Y13270000D03*
X1900000D03*
X1480000D03*
Y13010000D03*
X1637000Y12953000D03*
Y13400000D03*
X1923710Y13942650D03*
X1523710D03*
X1724180Y14314940D03*
X2120000Y6010000D03*
X2040000D03*
X1960000D03*
X2120000Y5920000D03*
X2040000D03*
X1960000D03*
X2120000Y5830000D03*
X2040000D03*
X1960000D03*
X2040000Y6308400D03*
X1960000Y6420000D03*
X2040000D03*
X2120000D03*
X1960000Y6310000D03*
X2120000D03*
X1960000Y6200000D03*
X2040000D03*
X2120000D03*
X2160000Y6570000D03*
X2080000Y6568400D03*
X2160000Y6680000D03*
X2080000D03*
X2400000Y7000000D03*
Y7110000D03*
X2280000D03*
Y6998400D03*
X2433800Y6856200D03*
X2290000Y7300000D03*
Y7410000D03*
X2170000Y7298400D03*
Y7410000D03*
Y7640000D03*
Y7528400D03*
X2290000Y7640000D03*
Y7530000D03*
X2170000Y7880000D03*
Y7768400D03*
X2290000Y7880000D03*
Y7770000D03*
X2170000Y8120000D03*
Y8008400D03*
X2290000Y8120000D03*
Y8010000D03*
X1980000Y9080000D03*
X2390000Y9735000D03*
Y9940000D03*
Y9840000D03*
X2103710Y11274290D03*
Y10874290D03*
X2440000Y12070000D03*
Y11960000D03*
X2370000Y12870000D03*
Y12790000D03*
Y12602500D03*
X2150000Y13310000D03*
X2270000D03*
X2323710Y13942650D03*
X2124180Y14314940D03*
X2820000Y9200000D03*
X2940000D03*
Y9070000D03*
X2820000D03*
X2680000D03*
X2560000D03*
X2940000Y9310000D03*
X2820000D03*
Y9700000D03*
Y9590000D03*
X2940000Y9701600D03*
Y9590000D03*
Y9480000D03*
X2820000D03*
Y9930000D03*
X2940000Y9931600D03*
X2820000Y9820000D03*
X2940000D03*
X2820000Y10100000D03*
X2940000D03*
Y10210000D03*
X2820000D03*
X2503710Y11274290D03*
Y10874290D03*
X2820000Y12310000D03*
X2940000D03*
Y12200000D03*
X2820000D03*
X2700000Y12070000D03*
X2820000D03*
Y11960000D03*
X2700000D03*
X2560000Y12070000D03*
Y11960000D03*
X2820000Y12700000D03*
Y12590000D03*
X2940000Y12701600D03*
Y12590000D03*
X2820000Y12930000D03*
Y12820000D03*
X2940000Y12931600D03*
Y12820000D03*
Y12480000D03*
X2820000D03*
Y13210000D03*
X2940000D03*
Y13100000D03*
X2820000D03*
X2830000Y13640000D03*
X2950000D03*
Y13530000D03*
X2830000D03*
Y13870000D03*
X2950000D03*
Y13760000D03*
X2830000D03*
X3320000Y6560000D03*
Y6650000D03*
Y6290000D03*
Y6380000D03*
Y6470000D03*
X3220000Y6190000D03*
X3130000D03*
X3040000D03*
X3320000Y7110000D03*
Y6840000D03*
Y6930000D03*
Y7020000D03*
Y6740000D03*
Y7380000D03*
Y7470000D03*
Y7560000D03*
Y7200000D03*
Y7290000D03*
X3250000Y7640000D03*
X3160000D03*
X3070000D03*
X3420000Y14290000D03*
Y14401600D03*
X3300000Y14290000D03*
Y14400000D03*
X3420000Y14520000D03*
Y14631600D03*
X3300000Y14520000D03*
Y14630000D03*
X3578420Y6030380D03*
Y6430380D03*
Y6830380D03*
Y7230380D03*
X3980000Y8568400D03*
Y8680000D03*
X3850000Y8570000D03*
Y8680000D03*
X3730000Y8568400D03*
Y8680000D03*
X3980000Y8798400D03*
Y8910000D03*
X3838800Y9788800D03*
X3836200Y9616200D03*
X3530000Y9360000D03*
Y10030000D03*
X3780000Y11160000D03*
X3900000D03*
Y11270000D03*
X3780000D03*
X3790000Y10910000D03*
X3910000D03*
Y11020000D03*
X3790000D03*
X3780000Y11670000D03*
X3900000D03*
Y11780000D03*
X3780000D03*
Y11430000D03*
X3900000D03*
Y11540000D03*
X3780000D03*
X3790000Y14411600D03*
Y14300000D03*
X3550000Y14180000D03*
Y14070000D03*
X3670000Y14181600D03*
Y14070000D03*
Y14520000D03*
Y14631600D03*
X3550000Y14520000D03*
Y14630000D03*
X4100000Y8570000D03*
Y8680000D03*
Y8800000D03*
Y8910000D03*
X5017540Y9082360D03*
X4617540D03*
X5017540Y9482360D03*
X4617540D03*
X5017540Y9882360D03*
X4617540D03*
X5042100Y11136120D03*
X4642100D03*
X5042100Y11536120D03*
X4642100D03*
X5042100Y12336120D03*
X4642100D03*
X5042100Y11936120D03*
X4642100D03*
X5042100Y12736120D03*
X4642100D03*
X5042100Y13136120D03*
X4642100D03*
X5042100Y13936120D03*
X4642100D03*
X5042100Y13536120D03*
X4642100D03*
X5042100Y14336120D03*
X4642100D03*
X5417540Y9082360D03*
Y9482360D03*
Y9882360D03*
X5442100Y11136120D03*
Y11536120D03*
Y12336120D03*
Y11936120D03*
Y12736120D03*
Y13136120D03*
Y13936120D03*
Y13536120D03*
Y14336120D03*
G54D20*
X2602500Y9280000D03*
Y9345000D03*
Y9410000D03*
Y9475000D03*
Y9540000D03*
Y9605000D03*
Y9670000D03*
Y9735000D03*
Y9800000D03*
Y9865000D03*
Y9930000D03*
Y9995000D03*
Y10060000D03*
Y10125000D03*
Y12277500D03*
Y12342500D03*
Y12407500D03*
Y12472500D03*
Y12537500D03*
Y12602500D03*
Y12667500D03*
Y12732500D03*
Y12797500D03*
Y12862500D03*
Y12927500D03*
Y12992500D03*
Y13057500D03*
Y13122500D03*
X3162500Y9735000D03*
Y9670000D03*
Y9605000D03*
Y9540000D03*
Y9475000D03*
Y9410000D03*
Y9345000D03*
Y9280000D03*
Y10125000D03*
Y10060000D03*
Y9995000D03*
Y9930000D03*
Y9865000D03*
Y9800000D03*
Y12342500D03*
Y12277500D03*
Y12862500D03*
Y12797500D03*
Y12732500D03*
Y12667500D03*
Y12602500D03*
Y12537500D03*
Y12472500D03*
Y12407500D03*
Y13122500D03*
Y13057500D03*
Y12992500D03*
Y12927500D03*
G54D12*
X470000Y10280000D03*
Y11588950D03*
Y12880000D03*
X1895000Y360000D03*
X7240000Y9825000D03*
Y11205000D03*
Y13075000D03*
G54D21*
X4120000Y9200000D03*
Y10200000D03*
Y11200000D03*
Y12200000D03*
Y13200000D03*
Y14200000D03*
X6120000Y9200000D03*
Y10200000D03*
Y11200000D03*
Y12200000D03*
Y13200000D03*
Y14200000D03*
G54D13*
X470000Y10780000D03*
Y10530000D03*
Y11838950D03*
Y12088950D03*
Y13380000D03*
Y13130000D03*
X1645000Y360000D03*
X7240000Y9575000D03*
Y10955000D03*
Y12325000D03*
Y12575000D03*
Y12825000D03*
G54D22*
X3610000Y10950000D03*
Y11450000D03*
Y13850000D03*
Y14350000D03*
G54D23*
X4782540Y410000D03*
X5280000D03*
G54D14*
X1400000Y8870000D03*
X1700000D03*
X3500000D03*
X3800000D03*
G54D24*
G01X360240Y0D02*
X7340000D01*
G03X7700000Y360000I0J360000D01*
G01Y14440000D01*
G03X7340000Y14800000I-360000J0D01*
G01X369760D01*
G03X9760Y14440240I-1J-359999D01*
G01X240Y360240D01*
G03X360240Y0I360001J-239D01*
G54D15*
X943800Y9540000D03*
X1096200D03*
Y9732500D03*
X943800D03*
Y9400000D03*
X1096200D03*
X1303800Y9732500D03*
Y9880000D03*
X1096200D03*
X943800D03*
X1096200Y12350000D03*
X943800D03*
X1303800D03*
Y12490000D03*
X1096200D03*
X943800D03*
X1456200Y9732500D03*
Y9880000D03*
X1814800Y12200000D03*
X1662400D03*
X1814800Y12350000D03*
X1662400D03*
X1456200D03*
X1662400Y12490000D03*
X1814800D03*
X1456200D03*
X2236200Y9080000D03*
X2083800D03*
X2754900Y10320000D03*
X2602500D03*
X2756200Y13320000D03*
X2603800D03*
X3206200Y9080000D03*
X3053800D03*
X3206200Y10320000D03*
X3053800D03*
X3423800Y12330000D03*
X3156200Y12070000D03*
X3003800D03*
X3156200Y13320000D03*
X3003800D03*
X3423800Y13050000D03*
X3730000Y9788800D03*
Y9616200D03*
Y9463800D03*
Y9941200D03*
X3576200Y12330000D03*
X3730000Y12933700D03*
Y12781300D03*
Y12463800D03*
Y12616200D03*
X3576200Y13050000D03*
X6310000Y9783800D03*
Y9616200D03*
Y9463800D03*
Y9936200D03*
Y10613800D03*
Y10766200D03*
Y11463800D03*
Y11616200D03*
Y11783800D03*
Y11936200D03*
Y13626200D03*
Y13473800D03*
Y13793800D03*
Y13946200D03*
G54D25*
G01X470000Y13130000D02*
X150000Y12810000D01*
Y9700000D01*
X450000Y9400000D01*
X943800D01*
G01Y9540000D02*
Y9546200D01*
X700000Y9790000D01*
Y10300000D01*
X470000Y10530000D01*
G01X2433800Y6856200D02*
X1386200D01*
G01X2058400Y9240000D02*
X1256200D01*
X1096200Y9400000D01*
G01D02*
Y9540000D01*
G01Y9732500D02*
X1200000D01*
G01D02*
X1303800D01*
G01X1096200Y9880000D02*
X1200000D01*
G01D02*
X1303800D01*
G01X1456200Y9732500D02*
Y9880000D01*
G01X2058400Y9990000D02*
X1566200D01*
X1456200Y9880000D01*
G01X2602500Y9410000D02*
X2431600D01*
X2261600Y9240000D01*
G01X2602500Y9280000D02*
X2530000D01*
X2330000Y9080000D01*
X2236200D01*
G01X2602500Y9605000D02*
X2266600D01*
G01D02*
X2261600Y9610000D01*
G01X2602500Y9540000D02*
X2331600D01*
X2266600Y9605000D01*
G01X2602500Y9475000D02*
X2316600D01*
X2261600Y9420000D01*
G01X2602500Y9735000D02*
X2390000D01*
G01D02*
X2326600D01*
X2261600Y9800000D01*
G01D02*
Y9990000D01*
G01X2602500Y10125000D02*
X2475000D01*
X2440000Y10090000D01*
G01D02*
X2470000Y10060000D01*
X2602500D01*
G01Y10320000D02*
X2420000D01*
X2370000Y10270000D01*
Y10120000D01*
X2400000Y10090000D01*
X2440000D01*
G01X2390000Y9940000D02*
X2419120Y9910880D01*
X2419370D01*
X2465250Y9865000D01*
X2602500D01*
G01Y9800000D02*
X2430000D01*
X2390000Y9840000D01*
G01X2603800Y13320000D02*
X2440000D01*
X2408780Y13288780D01*
Y13121220D01*
X2430000Y13100000D01*
X2480000D01*
G01X2602500Y13057500D02*
X2522500D01*
X2480000Y13100000D01*
G01D02*
X2502500Y13122500D01*
X2602500D01*
G01X3162500Y9345000D02*
X3435000D01*
X3500000Y9280000D01*
G01X3265000Y9605000D02*
X3310000Y9560000D01*
G01X3162500Y9605000D02*
X3265000D01*
G01Y9475000D02*
X3310000Y9520000D01*
G01X3162500Y9475000D02*
X3265000D01*
G01X3588800Y9605000D02*
X3265000D01*
G01Y9475000D02*
X3515000D01*
G01X3162500Y9735000D02*
X3676200D01*
X3730000Y9788800D01*
G01X3162500Y9670000D02*
X3676200D01*
X3730000Y9616200D01*
G01X3162500Y9410000D02*
X3480000D01*
X3530000Y9360000D01*
G01X3450000Y10090000D02*
X3420000Y10060000D01*
X3162500D01*
G01X3270000Y9930000D02*
X3310000Y9890000D01*
G01X3270000Y9800000D02*
X3320000Y9850000D01*
G01X3162500Y9800000D02*
X3270000D01*
G01X3588800D02*
X3270000D01*
G01X3320000Y9930000D02*
X3540000D01*
G01X3270000D02*
X3320000D01*
G01X3162500D02*
X3270000D01*
G01X3162500Y9995000D02*
X3495000D01*
X3530000Y10030000D01*
G01X3162500Y12407500D02*
X3346300D01*
X3423800Y12330000D01*
G01X3162500Y12667500D02*
X3678700D01*
X3730000Y12616200D01*
G01X3257500Y12602500D02*
X3527500D01*
G01X3257500D02*
X3290000Y12570000D01*
G01X3162500Y12602500D02*
X3257500D01*
G01X3290000Y12570000D02*
X3560000D01*
G01X3162500Y12472500D02*
X3262500D01*
G01X3576200Y12330000D02*
Y12393800D01*
X3497500Y12472500D01*
G01X3262500D02*
X3290000Y12500000D01*
G01X3497500Y12472500D02*
X3262500D01*
G01X3290000Y12500000D02*
X3490000D01*
X3530000Y12460000D01*
G01X3272500Y12927500D02*
X3300000Y12900000D01*
G01X3162500Y12732500D02*
X3681200D01*
X3730000Y12781300D01*
G01X3267500Y12797500D02*
X3527500D01*
G01X3267500D02*
X3300000Y12830000D01*
G01X3162500Y12797500D02*
X3267500D01*
G01X3162500Y12992500D02*
X3366300D01*
X3423800Y13050000D01*
G01X3272500Y12927500D02*
X3517500D01*
G01X3162500D02*
X3272500D01*
G01X3730000Y9463800D02*
X3588800Y9605000D01*
G01X3515000Y9475000D02*
X3520000Y9480000D01*
G01X3730000Y9616200D02*
X3836200D01*
G01X3730000Y9941200D02*
X3588800Y9800000D01*
G01X3730000Y9788800D02*
X3838800D01*
G01X3527500Y12602500D02*
X3560000Y12570000D01*
G01X3575000Y12555000D02*
X3666200Y12463800D01*
X3730000D01*
G01X3560000Y12570000D02*
X3575000Y12555000D01*
G01X3527500Y12797500D02*
X3663700Y12933700D01*
X3730000D01*
G01X3517500Y12927500D02*
X3576200Y12986200D01*
Y13050000D01*
G01X6310000Y10766200D02*
X6801200D01*
X7240000Y11205000D01*
G54D16*
X1818000Y1455000D03*
Y7805000D03*
X2834000D03*
X3850000Y1455000D03*
Y7805000D03*
X4866000Y1455000D03*
Y7805000D03*
X5882000D03*
G54D26*
G01X1096200Y12350000D02*
X1200000D01*
G01D02*
X1303800D01*
G01X1096200Y12490000D02*
X1200000D01*
G01D02*
X1303800D01*
G01X2602500Y12862500D02*
X2383960D01*
X2376460Y12870000D01*
X2370000D01*
G01X2602500Y12797500D02*
X2377500D01*
X2370000Y12790000D01*
G54D17*
X1637000Y12800000D03*
X1840200D03*
X2058400Y9240000D03*
X2261600D03*
X2058400Y9420000D03*
X2261600D03*
X2058400Y9610000D03*
X2261600D03*
X2058400Y9800000D03*
X2261600D03*
X2058400Y9990000D03*
X2261600D03*
X2038400Y12400000D03*
X2241600D03*
X2038400Y12220000D03*
X2241600D03*
X2038400Y12800000D03*
X2241600D03*
X2038400Y12602500D03*
X2241600D03*
X2038400Y12990000D03*
X2241600D03*
X2038400Y13172500D03*
X2241600D03*
G54D27*
G01X470000Y10280000D02*
X300000Y10450000D01*
Y11418950D01*
X470000Y11588950D01*
G01X2038400Y12220000D02*
Y12210000D01*
X1878400Y12050000D01*
X930000D01*
X690000Y11810000D01*
Y10740000D01*
X480000Y10530000D01*
X470000D01*
G01Y12880000D02*
X630000Y12720000D01*
Y12000000D01*
X470000Y11840000D01*
Y11838950D01*
G01Y13130000D02*
X1995900D01*
X2038400Y13172500D01*
G01X1662400Y12200000D02*
Y12197600D01*
G01X1920000Y12210000D02*
Y12160000D01*
X1870000Y12110000D01*
X1750000D01*
X1662400Y12197600D01*
G01X1456200Y12350000D02*
Y12490000D01*
G01X1814800D02*
Y12350000D01*
G01Y12200000D02*
Y12350000D01*
G01X1456200Y12490000D02*
Y12619200D01*
X1637000Y12800000D01*
G01D02*
Y12953000D01*
G01X1840200Y12800000D02*
X1933220Y12706980D01*
X2156980D01*
X2241600Y12791600D01*
Y12800000D01*
G01X1662400Y12490000D02*
X1670000D01*
X1770000Y12590000D01*
G01X2602500Y12537500D02*
X2407500D01*
X2370000Y12500000D01*
X1830000D01*
X1820000Y12490000D01*
X1814800D01*
G01X1637000Y13400000D02*
X2676200D01*
X2756200Y13320000D01*
G01X1980000Y9080000D02*
X2083800D01*
G01X2602500Y12407500D02*
X2419100D01*
X2241600Y12230000D01*
Y12220000D01*
G01Y12800000D02*
X2331600Y12710000D01*
X2386990D01*
X2409490Y12732500D01*
X2602500D01*
G01Y12472500D02*
X2412500D01*
X2340000Y12400000D01*
X2241600D01*
G01X2602500Y12602500D02*
X2370000D01*
G01D02*
X2241600D01*
G01Y12990000D02*
X2353450D01*
X2415950Y12927500D01*
X2602500D01*
G01X2038400Y13172500D02*
X2032500D01*
G01X2602500Y12992500D02*
X2421600D01*
X2241600Y13172500D01*
G01X2602500Y9670000D02*
X2720000D01*
G01X2754900Y10320000D02*
Y10435100D01*
X2750000Y10440000D01*
G01X2720000Y12660000D02*
X2712500Y12667500D01*
G01D02*
X2602500D01*
G01X3110000Y13410000D02*
X2840000D01*
X2756200Y13326200D01*
Y13320000D01*
G01X3162500Y9540000D02*
X3050000D01*
G01X3060000Y9860000D02*
X3065000Y9865000D01*
X3162500D01*
G01X3040000Y12860000D02*
X3042500Y12862500D01*
G01X3060000Y12540000D02*
X3062500Y12537500D01*
X3162500D01*
G01X3042500Y12862500D02*
X3162500D01*
G01X3110000Y13410000D02*
X3120000Y13420000D01*
G01X3670000Y10610000D02*
X3673800Y10613800D01*
G01D02*
X6310000D01*
G54D18*
X2965000Y460000D03*
X3715000Y360000D03*
G54D28*
G01X2750000Y10440000D02*
X2160000D01*
X2058400Y10338400D01*
Y9990000D01*
G01X3130000Y10440000D02*
X2750000D01*
G54D19*
X2882500Y9702500D03*
Y12700000D03*
G54D29*
G01X4782540Y410000D02*
X4462540Y90000D01*
X1740000D01*
X1645000Y185000D01*
Y360000D01*
G01X1895000D02*
X1995000Y460000D01*
X2965000D01*
G01D02*
X3320000D01*
X3845000Y985000D01*
Y1450000D01*
X3850000Y1455000D01*
G01X4865000Y825000D02*
X4400000Y360000D01*
X3715000D01*
G01X5280000Y410000D02*
X4865000Y825000D01*
G01D02*
X4866000Y826000D01*
Y1455000D01*
M02*
