G04 ================== begin FILE IDENTIFICATION RECORD ==================*
G04 Layout Name:  H:/github/MBEDBoard/6UL_WIFI_V10B/PCB/6UL_WIFI_V10B.brd*
G04 Film Name:    PDF*
G04 File Format:  Gerber RS274X*
G04 File Origin:  Cadence Allegro 17.2-S058*
G04 Origin Date:  Thu Jul 16 20:53:41 2020*
G04 *
G04 Layer:  PIN/SOLDERMASK_BOTTOM*
G04 Layer:  PIN/BOTTOM*
G04 Layer:  PACKAGE GEOMETRY/SOLDERMASK_BOTTOM*
G04 Layer:  PACKAGE GEOMETRY/SILKSCREEN_BOTTOM*
G04 Layer:  BOARD GEOMETRY/SOLDERMASK_BOTTOM*
G04 Layer:  BOARD GEOMETRY/SILKSCREEN_BOTTOM*
G04 Layer:  PIN/TOP*
G04 Layer:  PACKAGE GEOMETRY/SILKSCREEN_TOP*
G04 Layer:  BOARD GEOMETRY/SOLDERMASK_TOP*
G04 Layer:  BOARD GEOMETRY/SILKSCREEN_TOP*
G04 Layer:  BOARD GEOMETRY/DIMENSION*
G04 Layer:  BOARD GEOMETRY/ASSEMBLY_DETAIL*
G04 *
G04 Offset:    (0.0000 0.0000)*
G04 Mirror:    No*
G04 Mode:      Positive*
G04 Rotation:  0*
G04 FullContactRelief:  No*
G04 UndefLineWidth:     0.0000*
G04 ================== end FILE IDENTIFICATION RECORD ====================*
%FSLAX55Y55*MOMM*%
%IR0*IPPOS*OFA0.00000B0.00000*MIA0B0*SFA1.00000B1.00000*%
%ADD51R,.6X1.*%
%ADD16R,.6X1.1*%
%ADD40R,1.1X.6*%
%ADD35R,2.X.6*%
%ADD34R,.6X2.*%
%ADD22R,.4X1.6*%
%ADD17R,1.4X.8*%
%ADD15R,.8X1.4*%
%ADD13R,.9X1.3*%
%ADD56R,1.45X.5*%
%ADD55R,.5X1.45*%
%ADD61C,.6*%
%ADD24C,.7*%
%ADD23C,.8*%
%ADD41C,.75*%
%ADD14R,.8X.8*%
%ADD64R,1.X1.*%
%ADD31O,4.X2.*%
%ADD47R,1.2X1.*%
%ADD19O,2.X4.*%
%ADD46R,1.X1.2*%
%ADD63R,2.2X1.1*%
%ADD26O,1.X1.6*%
%ADD62R,1.1X2.2*%
%ADD58R,1.2X1.4*%
%ADD25O,1.1X1.7*%
%ADD57R,1.4X1.2*%
%ADD52R,2.7X1.*%
%ADD39R,4.2X1.4*%
%ADD50R,2.4X2.4*%
%ADD37R,4.4X2.3*%
%ADD36R,1.8X1.2*%
%ADD21R,1.6X1.5*%
%ADD32R,.4X.6*%
%ADD30O,4.15X2.15*%
%ADD53R,.6X.4*%
%ADD27R,.5X.6*%
%ADD20R,1.8X1.6*%
%ADD18O,2.15X4.15*%
%ADD54R,.6X.5*%
%ADD38R,1.6X1.8*%
%ADD12R,1.6X2.7*%
%ADD33R,.4X.9*%
%ADD49R,.8X.25*%
%ADD60C,1.6*%
%ADD48R,.25X.8*%
%ADD29C,2.5*%
%ADD59C,1.7*%
%ADD28C,2.6*%
%ADD45C,1.8*%
%ADD44C,1.9*%
%ADD11C,6.35*%
%ADD10C,6.45*%
%ADD43R,1.8X1.8*%
%ADD42R,1.9X1.9*%
%ADD65C,.2*%
%ADD66C,.2032*%
%ADD67C,.254*%
%ADD68C,.1524*%
%ADD69C,.1778*%
G75*
%LPD*%
G75*
G36*
G01X498800Y1271400D02*
G03I-25400J0D01*
G37*
G36*
G01X610000Y1160000D02*
X530000Y1080000D01*
Y1240000D01*
X610000Y1160000D01*
G37*
G36*
G01X760000Y5000000D02*
X680000Y5080000D01*
X840000D01*
X760000Y5000000D01*
G37*
G36*
G01X1294200Y1172200D02*
G03I-25400J0D01*
G37*
G36*
G01X970000Y5000000D02*
X890000Y5080000D01*
X1050000D01*
X970000Y5000000D01*
G37*
G36*
G01X1220000Y8200000D02*
X1120000D01*
Y8100000D01*
X1220000D01*
Y8200000D01*
G37*
G36*
G01X1395000Y1930000D02*
G03I-20000J0D01*
G37*
G36*
G01X1380000Y5981690D02*
X1299990Y6061670D01*
Y5901680D01*
X1380000Y5981690D01*
G37*
G36*
G01X1450000Y6201680D02*
X1590010D01*
X1450000Y6061670D01*
Y6201680D01*
G37*
G36*
G01X1790000Y7730800D02*
X1886520Y7634280D01*
X1698560D01*
X1693480D01*
X1698560Y7639360D01*
X1790000Y7730800D01*
G37*
G36*
G01Y8539200D02*
X1693480Y8635720D01*
X1881440D01*
X1886520D01*
X1881440Y8630640D01*
X1790000Y8539200D01*
G37*
G36*
G01X2020000Y1300000D02*
X1940000Y1220000D01*
Y1380000D01*
X2020000Y1300000D01*
G37*
G36*
G01Y1510000D02*
X1940000Y1430000D01*
Y1590000D01*
X2020000Y1510000D01*
G37*
G36*
G01X2380000Y7730800D02*
X2476520Y7634280D01*
X2288560D01*
X2283480D01*
X2288560Y7639360D01*
X2380000Y7730800D01*
G37*
G36*
G01X3558010Y8716600D02*
G03I-25400J0D01*
G37*
G36*
G01X4478200Y200000D02*
X4428200Y150000D01*
X4528200D01*
X4478200Y200000D01*
G37*
G36*
G01X5348010Y8706600D02*
G03I-25400J0D01*
G37*
G36*
G01X6820000Y3905000D02*
G03I-30000J0D01*
G37*
G36*
G01X7517600Y1826200D02*
G03I-25400J0D01*
G37*
G36*
G01Y2446200D02*
G03I-25400J0D01*
G37*
G36*
G01X7537600Y3476200D02*
G03I-25400J0D01*
G37*
G36*
G01Y3896200D02*
G03I-25400J0D01*
G37*
G36*
G01X7810000Y9450000D02*
G03I-30000J0D01*
G37*
G36*
G01X8440000Y6540000D02*
G03I-30000J0D01*
G37*
G36*
G01X8610000Y8580000D02*
G03I-30000J0D01*
G37*
G36*
G01X9080000Y5158270D02*
G03I-30000J0D01*
G37*
G36*
G01X8990000Y5898270D02*
Y5798270D01*
X9110000D01*
Y5898270D01*
X8990000D01*
G37*
G36*
G01X9500000D02*
Y5798270D01*
X9610000D01*
Y5898270D01*
X9500000D01*
G37*
G36*
G01X9250000D02*
Y5798270D01*
X9360000D01*
Y5898270D01*
X9250000D01*
G37*
G36*
G01X9680000Y8829870D02*
X9730000D01*
Y8749870D01*
X9680000D01*
Y8829870D01*
G37*
G36*
G01X9760000Y5898270D02*
Y5798270D01*
X9870000D01*
Y5898270D01*
X9760000D01*
G37*
G36*
G01X9830000Y8789870D02*
G03I-60000J0D01*
G37*
G54D10*
X330000Y330000D03*
Y9670000D03*
X9670000Y330000D03*
Y9670000D03*
G54D11*
X330000Y330000D03*
D03*
Y9670000D03*
D03*
X9670000Y330000D03*
D03*
Y9670000D03*
D03*
G54D20*
X980000Y230000D03*
X1820000D03*
G54D12*
X250000Y3908680D03*
Y4554680D03*
Y5437000D03*
Y6083000D03*
G54D30*
X1110000Y8360000D03*
G54D21*
X1070000Y490000D03*
X1730000D03*
G54D31*
X1110000Y8360000D03*
D03*
G54D13*
X310000Y6750000D03*
X510000D03*
G54D22*
X1270000Y540000D03*
X1530000D03*
X1465000D03*
X1400000D03*
X1335000D03*
G54D40*
X3631210Y8525000D03*
Y8620000D03*
Y8715000D03*
X3891210Y8620000D03*
Y8715000D03*
Y8525000D03*
X5681210Y8610000D03*
Y8705000D03*
Y8515000D03*
X5421210D03*
Y8610000D03*
Y8705000D03*
G54D32*
X1335000Y1240000D03*
Y1460000D03*
G54D50*
X6665000Y3620000D03*
G54D14*
X646200Y970000D03*
X493800D03*
X806200Y1800000D03*
X653800D03*
X476200D03*
X323800D03*
X570000Y5266200D03*
Y5113800D03*
Y4803800D03*
Y4956200D03*
X663800Y6750000D03*
X816200D03*
X3203800Y8510000D03*
X3685010Y8350000D03*
X3356200Y8510000D03*
X3685010Y8890000D03*
X3690000Y9196200D03*
Y9043800D03*
X4113800Y8500000D03*
X4266200D03*
Y8650000D03*
X4113800D03*
X3837410Y8350000D03*
X4113800D03*
X4266200D03*
X3837410Y8890000D03*
X3840000Y9196200D03*
Y9043800D03*
X4956200Y860000D03*
X4803800D03*
X5276200D03*
X5123800D03*
X5146200Y8480000D03*
X4993800D03*
X5475010Y8360000D03*
X5627410D03*
Y8870000D03*
X5475010D03*
X5630000Y9176200D03*
Y9023800D03*
X5480000Y9176200D03*
Y9023800D03*
X6200000Y3076200D03*
Y2923800D03*
X6076200Y3220000D03*
X5923800D03*
X6076200Y3360000D03*
X5923800D03*
X6076200Y3640000D03*
X5923800D03*
Y3500000D03*
X6076200D03*
X5923800Y3780000D03*
X6076200D03*
Y3920000D03*
X5923800D03*
X6076200Y4060000D03*
X5923800D03*
X5903800Y8515000D03*
X6056200D03*
Y8650000D03*
X5903800D03*
X6056200Y8360000D03*
X5903800D03*
X6760000Y3076200D03*
Y2923800D03*
X6480000Y3076200D03*
Y2923800D03*
X6340000Y3076200D03*
Y2923800D03*
X6620000D03*
Y3076200D03*
X6580000Y4266200D03*
Y4113800D03*
X6440000Y4266200D03*
Y4113800D03*
X6723800Y7530000D03*
Y7690000D03*
Y8170000D03*
Y8010000D03*
Y8330000D03*
X6750000Y8793800D03*
Y8946200D03*
X6520000Y9553800D03*
Y9706200D03*
X6670000Y9553800D03*
Y9706200D03*
X6900000Y3076200D03*
Y2923800D03*
X7040000Y3076200D03*
Y2923800D03*
X7180000D03*
Y3076200D03*
X7253800Y3520000D03*
Y3720000D03*
Y3300000D03*
Y3940000D03*
X7000000Y4113800D03*
Y4266200D03*
X6830000D03*
Y4113800D03*
X7036200Y7080000D03*
X6883800D03*
X7023800Y7530000D03*
X7176200D03*
X6876200D03*
X7023800Y7690000D03*
X7176200D03*
X6876200D03*
X7023800Y7850000D03*
X7176200D03*
X6876200Y8170000D03*
Y8010000D03*
X7023800Y8170000D03*
X7176200D03*
X7023800Y8010000D03*
X7176200D03*
X6876200Y8330000D03*
X7023800D03*
X7176200D03*
X6890000Y8793800D03*
Y8946200D03*
X7180000D03*
Y8793800D03*
X7593800Y2140000D03*
X7746200D03*
Y1990000D03*
X7593800D03*
X7406200Y3520000D03*
Y3720000D03*
Y3300000D03*
Y3940000D03*
X7613800Y4080000D03*
X7620000Y6970000D03*
Y6817600D03*
X7340000Y8946200D03*
Y8793800D03*
X7540000D03*
Y8946200D03*
X8253800Y970000D03*
Y1120000D03*
X7766200Y4080000D03*
X8223800Y4670000D03*
Y4820000D03*
X7920000Y6656200D03*
Y6503800D03*
Y6970000D03*
Y6817600D03*
X7770000D03*
Y6970000D03*
X8070000Y8793800D03*
Y8946200D03*
X7920000Y8793800D03*
Y8946200D03*
X7770000Y8793800D03*
Y8946200D03*
X8406200Y970000D03*
Y1120000D03*
X8376200Y4670000D03*
Y4820000D03*
X8490000Y8793800D03*
Y8946200D03*
X8653800Y8793800D03*
X9050000Y5026200D03*
Y4873800D03*
X8910000Y6696200D03*
Y6543800D03*
X9190000Y6696200D03*
Y6543800D03*
X9050000Y6696200D03*
Y6543800D03*
X8970000Y8793800D03*
Y8946200D03*
X8806200Y8793800D03*
X9560000Y5026200D03*
Y4873800D03*
X9300000Y5026200D03*
Y4873800D03*
X9330000Y6696200D03*
Y6543800D03*
X9820000Y5026200D03*
Y4873800D03*
G54D41*
X4270000Y9196200D03*
X6056200Y9150000D03*
X6370000Y8960000D03*
X8105000Y6970000D03*
G54D23*
X1270000Y910000D03*
X1400000D03*
X1530000D03*
X1335000Y810000D03*
X1465000D03*
G54D42*
X4478200Y330000D03*
G54D60*
X8331400Y1742000D03*
D03*
X8585400Y1615000D03*
D03*
X8331400Y2250000D03*
D03*
Y1996000D03*
D03*
X8585400Y2123000D03*
D03*
Y1869000D03*
D03*
X8331400Y2504000D03*
D03*
X8585400Y2377000D03*
D03*
Y3235000D03*
D03*
X8331400Y3616000D03*
D03*
Y3362000D03*
D03*
X8585400Y3743000D03*
D03*
Y3489000D03*
D03*
X8331400Y4124000D03*
D03*
Y3870000D03*
D03*
X8585400Y3997000D03*
D03*
X9710400Y1651500D03*
D03*
Y1397500D03*
D03*
Y2722500D03*
D03*
Y2468500D03*
D03*
Y3271500D03*
D03*
Y3017500D03*
D03*
Y4088500D03*
D03*
Y4342500D03*
D03*
G54D33*
X1375000Y1620000D03*
X1295000D03*
Y1820000D03*
X1375000D03*
G54D24*
X1270000Y910000D03*
D03*
X1400000D03*
D03*
X1530000D03*
D03*
X1335000Y810000D03*
D03*
X1465000D03*
D03*
G54D15*
X395000Y1160000D03*
X745000D03*
X1805000Y1300000D03*
X2155000D03*
X1805000Y1510000D03*
X2155000D03*
G54D51*
X6620000Y9120000D03*
X6520000Y9360000D03*
X6720000D03*
X7090000Y9120000D03*
X6890000D03*
X6990000Y9360000D03*
G54D43*
X4478200Y330000D03*
D03*
G54D52*
X7320000Y6950000D03*
Y7210000D03*
G54D25*
X1042500Y888000D03*
X1757500D03*
G54D61*
X8490000Y7800000D03*
Y7980000D03*
Y8160000D03*
G54D34*
X1669990Y2301690D03*
X1769990D03*
Y6161670D03*
X1669990D03*
X1869990Y2301690D03*
X1969990D03*
X2069990D03*
X2169990D03*
X2269990D03*
Y6161670D03*
X2169990D03*
X2069990D03*
X1969990D03*
X1869990D03*
X2369990Y2301690D03*
X2469990D03*
X2569990D03*
X2669990D03*
X2769990D03*
Y6161670D03*
X2669990D03*
X2569990D03*
X2469990D03*
X2369990D03*
X2869990Y2301690D03*
X2969990D03*
X3069990D03*
X3169990D03*
X3269990D03*
Y6161670D03*
X3169990D03*
X3069990D03*
X2969990D03*
X2869990D03*
X3370010Y2301690D03*
X3470010D03*
X3570010D03*
X3670010D03*
X3770010D03*
Y6161670D03*
X3670010D03*
X3570010D03*
X3470010D03*
X3370010D03*
X3870010Y2301690D03*
X3970010D03*
X4070010D03*
X4170010D03*
X4270010D03*
Y6161670D03*
X4170010D03*
X4070010D03*
X3970010D03*
X3870010D03*
X4370010Y2301690D03*
X4470010D03*
X4570010D03*
X4670010D03*
X4770010D03*
Y6161670D03*
X4670010D03*
X4570010D03*
X4470010D03*
X4370010D03*
X4870010Y2301690D03*
X4970010D03*
Y6161670D03*
X4870010D03*
G54D16*
X475000Y1630000D03*
X665000D03*
Y1370000D03*
X570000D03*
X475000D03*
G54D44*
X4732200Y330000D03*
X5240200D03*
X4986200D03*
X9266000Y8535870D03*
Y9043870D03*
X9518400Y8791470D03*
X9774000Y8535870D03*
Y9043870D03*
G54D53*
X7560000Y1760000D03*
Y2380000D03*
X7580000Y3410000D03*
Y3830000D03*
X7780000Y1760000D03*
Y2380000D03*
X7800000Y3410000D03*
Y3830000D03*
G54D62*
X9049000Y5308270D03*
Y6288270D03*
X9557000Y5308270D03*
X9303000D03*
Y6288270D03*
X9557000D03*
X9811000Y5308270D03*
Y6288270D03*
G54D26*
X1042500Y888000D03*
D03*
X1757500D03*
D03*
G54D17*
X760000Y5215000D03*
Y4865000D03*
X970000Y5215000D03*
Y4865000D03*
G54D35*
X1490010Y2781670D03*
Y2681670D03*
Y2581670D03*
Y2481670D03*
Y3281670D03*
Y3181670D03*
Y3081670D03*
Y2981670D03*
Y2881670D03*
Y3681670D03*
Y3581670D03*
Y3481670D03*
Y3381670D03*
Y4181670D03*
Y4081670D03*
Y3981670D03*
Y3881670D03*
Y3781670D03*
Y4681690D03*
Y4581690D03*
Y4481690D03*
Y4381690D03*
Y4281690D03*
Y5181690D03*
Y5081690D03*
Y4981690D03*
Y4881690D03*
Y4781690D03*
Y5681690D03*
Y5581690D03*
Y5481690D03*
Y5381690D03*
Y5281690D03*
Y5981690D03*
Y5881690D03*
Y5781690D03*
X5149990Y2481670D03*
Y2581670D03*
Y2681670D03*
Y2781670D03*
Y2881670D03*
Y2981670D03*
Y3081670D03*
Y3181670D03*
Y3281670D03*
Y3381670D03*
Y3481670D03*
Y3581670D03*
Y3681670D03*
Y3781670D03*
Y3881670D03*
Y3981670D03*
Y4081670D03*
Y4181670D03*
Y4281690D03*
Y4381690D03*
Y4481690D03*
Y4581690D03*
Y4681690D03*
Y4781690D03*
Y4881690D03*
Y4981690D03*
Y5081690D03*
Y5181690D03*
Y5281690D03*
Y5381690D03*
Y5481690D03*
Y5581690D03*
Y5681690D03*
Y5781690D03*
Y5881690D03*
Y5981690D03*
G54D45*
X4732200Y330000D03*
D03*
X5240200D03*
D03*
X4986200D03*
D03*
X9266000Y8535870D03*
D03*
Y9043870D03*
D03*
X9518400Y8791470D03*
D03*
X9774000Y8535870D03*
D03*
Y9043870D03*
D03*
G54D54*
X7560000Y1695000D03*
Y1825000D03*
Y2315000D03*
Y2445000D03*
X7580000Y3765000D03*
Y3345000D03*
Y3475000D03*
Y3895000D03*
X7780000Y1695000D03*
Y1825000D03*
Y2445000D03*
Y2315000D03*
X7800000Y3765000D03*
Y3475000D03*
Y3345000D03*
Y3895000D03*
G54D18*
X790000Y8840000D03*
X1390000D03*
G54D27*
X1270000Y1240000D03*
Y1460000D03*
X1400000Y1240000D03*
Y1460000D03*
G54D36*
X1790000Y7430000D03*
Y7930000D03*
Y8340000D03*
Y8840000D03*
X2380000Y7430000D03*
Y7930000D03*
G54D63*
X9770000Y8642580D03*
Y8937160D03*
G54D28*
X1050000Y7436000D03*
Y7944000D03*
X8915400Y1285500D03*
Y2834500D03*
Y2905500D03*
Y4454500D03*
G54D37*
X2340000Y860000D03*
X3940000D03*
G54D46*
X6071600Y4231680D03*
X5868400D03*
Y4420000D03*
X6071600D03*
G54D19*
X790000Y8840000D03*
D03*
X1390000D03*
D03*
G54D64*
X9619910Y8789870D03*
G54D55*
X7680000Y7310000D03*
Y8470000D03*
X8220000Y7310000D03*
X8130000D03*
X8040000D03*
X7950000D03*
X7860000D03*
X7770000D03*
Y8470000D03*
X7860000D03*
X7950000D03*
X8040000D03*
X8130000D03*
X8220000D03*
X8580000Y7310000D03*
X8490000D03*
X8400000D03*
X8310000D03*
Y8470000D03*
X8400000D03*
X8490000D03*
X8580000D03*
G54D65*
G01X270000Y1860000D02*
G03Y1740000I77500J-60000D01*
G01D02*
X530000D01*
G01Y1860000D02*
X270000D01*
G01X140000Y3921680D02*
X60000D01*
Y4541680D01*
X140000D01*
G01Y5450000D02*
X60000D01*
Y6070000D01*
X140000D01*
G01X240000Y6660000D02*
X210000D01*
Y6840000D01*
X240000D01*
G01X580000Y6660000D02*
Y6840000D01*
X240000D01*
Y6660000D01*
X580000D01*
G01X1220000Y8200000D02*
Y7180000D01*
X0D01*
Y8200000D01*
X1220000D01*
G01X0D02*
X300000D01*
Y7180000D01*
X0D01*
Y7190000D01*
G01X910000Y7532000D02*
X300000D01*
X150000Y7492000D01*
Y7382000D01*
X300000Y7342000D01*
X910000D01*
G01Y8042000D02*
X300000D01*
X150000Y8002000D01*
Y7892000D01*
X300000Y7852000D01*
X910000D01*
G01X880000Y8360000D02*
X-10000D01*
Y9260000D01*
X1390000D01*
Y9070000D01*
G01X440000Y1030000D02*
G03Y910000I77500J-60000D01*
G01X700000D02*
G03Y1030000I-77500J60000D01*
G01X440000Y910000D02*
X700000D01*
G01Y1030000D02*
X440000D01*
G01X613200Y1248900D02*
Y1071100D01*
G01X330000Y1250000D02*
X810000D01*
Y1070000D01*
X803700Y1071100D01*
G01D02*
X810000Y1070000D01*
X330000D01*
X333800Y1071100D01*
G01D02*
X330000Y1070000D01*
Y1250000D01*
G01X417600Y1525400D02*
G02Y1474600I0J-25400D01*
G01X430300Y1550800D02*
X417600D01*
Y1525400D01*
G01X430300Y1550800D02*
X722400D01*
Y1449200D01*
X417600D01*
Y1474600D01*
G01X870000Y1740000D02*
Y1860000D01*
X590000D01*
Y1740000D01*
X870000D01*
G01X530000D02*
G03Y1860000I-77500J60000D01*
G01X360000Y3921680D02*
X440000D01*
Y4541680D01*
X360000D01*
G01X510000Y4740000D02*
X630000D01*
Y5020000D01*
X510000D01*
Y4740000D01*
G01X630000Y5330000D02*
X510000D01*
Y5050000D01*
X630000D01*
Y5330000D01*
G01X848900Y4806300D02*
X850000Y4800000D01*
Y4770000D01*
X670000D01*
Y4800000D01*
G01X848900Y4996800D02*
X671100D01*
G01X850000Y5280000D02*
Y4800000D01*
X670000D01*
X671100Y4806300D01*
G01D02*
X670000Y4800000D01*
Y5280000D01*
X671100Y5276200D01*
G01D02*
X670000Y5280000D01*
X850000D01*
G01X360000Y5450000D02*
X440000D01*
Y6070000D01*
X360000D01*
G01X880000Y6690000D02*
Y6810000D01*
X600000D01*
Y6690000D01*
X880000D01*
G01X1040000Y130000D02*
Y0D01*
X1760000D01*
Y130000D01*
G01X970000Y930000D02*
Y810000D01*
X1040000Y740000D01*
G01D02*
X1760000D01*
G01X1170000Y550000D02*
X1230000D01*
G01X1040000Y330000D02*
Y390000D01*
G01X1760000Y1070000D02*
X1040000D01*
G01X970000Y930000D02*
Y1000000D01*
X1040000Y1070000D01*
G01X1230000Y1030000D02*
X1560000D01*
Y980000D01*
X1230000D01*
Y1030000D01*
G01X803700Y1248900D02*
X810000Y1250000D01*
X840000D01*
Y1070000D01*
X810000D01*
G01X1220700Y1375400D02*
G02Y1324600I0J-25400D01*
G01D02*
Y1299200D01*
X1449300D01*
Y1400800D01*
X1220700D01*
Y1375400D01*
G01X1415000Y1890000D02*
Y1550000D01*
X1255000D01*
Y1890000D01*
X1415000D01*
G01X1058900Y4806300D02*
X1060000Y4800000D01*
Y4770000D01*
X880000D01*
Y4800000D01*
G01X1058900Y4996800D02*
X881100D01*
G01X1060000Y5280000D02*
Y4800000D01*
X880000D01*
X881100Y4806300D01*
G01D02*
X880000Y4800000D01*
Y5280000D01*
X881100Y5276200D01*
G01D02*
X880000Y5280000D01*
X1060000D01*
G01X1760000Y1070000D02*
X1830000Y1000000D01*
Y810000D01*
X1760000Y740000D01*
G01X1570000Y550000D02*
X1630000D01*
G01X1760000Y330000D02*
Y390000D01*
G01X2213700Y1211100D02*
X2220000Y1210000D01*
X1740000D01*
X1743800Y1211100D01*
G01D02*
X1740000Y1210000D01*
Y1390000D01*
G01Y1600000D02*
X2220000D01*
Y1420000D01*
X2213700Y1421100D01*
G01D02*
X2220000Y1420000D01*
X1740000D01*
X1743800Y1421100D01*
G01D02*
X1740000Y1420000D01*
Y1600000D01*
G01Y1390000D02*
X2220000D01*
Y1210000D01*
X2213700Y1211100D01*
G01X1940000Y7930000D02*
Y8010000D01*
X1640000D01*
Y8020000D01*
Y7350000D01*
X1940000D01*
Y7930000D01*
G01Y8010000D02*
Y8040000D01*
X1640000D01*
Y8010000D01*
G01X1876360Y7730800D02*
X1703640D01*
G01X1390000Y8610000D02*
Y8360000D01*
X1340000D01*
G01X1640000Y8260000D02*
Y8230000D01*
X1940000D01*
Y8260000D01*
G01X1640000Y8340000D02*
Y8260000D01*
X1940000D01*
Y8250000D01*
Y8920000D01*
X1640000D01*
Y8340000D01*
G01X1703640Y8539200D02*
X1876360D01*
G01X2213700Y1388900D02*
X2220000Y1390000D01*
X2250000D01*
Y1210000D01*
X2220000D01*
G01X2023200Y1388900D02*
Y1211100D01*
G01X2213700Y1598900D02*
X2220000Y1600000D01*
X2250000D01*
Y1420000D01*
X2220000D01*
G01X2023200Y1598900D02*
Y1421100D01*
G01X2530000Y7930000D02*
Y8010000D01*
X2230000D01*
Y8020000D01*
Y7350000D01*
X2530000D01*
Y7930000D01*
G01Y8010000D02*
Y8040000D01*
X2230000D01*
Y8010000D01*
G01X2010000Y8450000D02*
X2490000D01*
Y8230000D01*
X2010000D01*
Y8450000D01*
G01X2630000Y230000D02*
G03X3920000Y720000I498387J630980D01*
G01X2330000D02*
Y150000D01*
X2630000D01*
Y230000D01*
G01X2330000Y1000000D02*
Y1570000D01*
X2630000D01*
Y1490000D01*
G01X3920000Y1000000D02*
G03X2630000Y1490000I-791613J-140980D01*
G01X2466360Y7730800D02*
X2293640D01*
G01X3150000Y8570000D02*
G03Y8450000I77500J-60000D01*
G01D02*
X3410000D01*
G01Y8570000D02*
X3150000D01*
G01X3812010Y8759700D02*
Y8467600D01*
X3710410D01*
Y8772400D01*
X3735810D01*
G01X3621210Y8410000D02*
Y8290000D01*
X3901210D01*
Y8410000D01*
X3621210D01*
G01X3410000Y8450000D02*
G03Y8570000I-77500J60000D01*
G01X3786610Y8772400D02*
G02X3735810I-25400J0D01*
G01X3631210Y8950000D02*
G03Y8830000I77500J-60000D01*
G01D02*
X3891210D01*
G01Y8950000D02*
X3631210D01*
G01X3630000Y8990000D02*
G03X3750000I60000J77500D01*
G01D02*
Y9250000D01*
G01X3630000D02*
Y8990000D01*
G01X3750000Y9250000D02*
G03X3630000I-60000J-77500D01*
G01X4050000Y8560000D02*
Y8440000D01*
X4330000D01*
Y8560000D01*
X4050000D01*
G01X4330000Y8590000D02*
Y8710000D01*
X4050000D01*
Y8590000D01*
X4330000D01*
G01X4060000Y8410000D02*
G03Y8290000I77500J-60000D01*
G01X4320000Y8410000D02*
X4060000D01*
G01Y8290000D02*
X4320000D01*
G01X3812010Y8759700D02*
Y8772400D01*
X3786610D01*
G01X3891210Y8830000D02*
G03Y8950000I-77500J60000D01*
G01X3780000Y8990000D02*
G03X3900000I60000J77500D01*
G01D02*
Y9250000D01*
G01X3780000D02*
Y8990000D01*
G01X4333500Y9196200D02*
G03I-63500J0D01*
G01X3900000Y9250000D02*
G03X3780000I-60000J-77500D01*
G01X4345200Y460000D02*
Y200000D01*
X5375200D01*
Y460000D01*
X4345200D01*
G01X5020000Y800000D02*
Y920000D01*
X4740000D01*
Y800000D01*
X5020000D01*
G01X4320000Y8290000D02*
G03Y8410000I-77500J60000D01*
G01X5340000Y800000D02*
Y920000D01*
X5060000D01*
Y800000D01*
X5340000D01*
G01X4940000Y8540000D02*
G03Y8420000I77500J-60000D01*
G01X5200000D02*
G03Y8540000I-77500J60000D01*
G01X4940000Y8420000D02*
X5200000D01*
G01Y8540000D02*
X4940000D01*
G01X5602010Y8749700D02*
Y8457600D01*
X5500410D01*
Y8762400D01*
X5525810D01*
G01X5411210Y8420000D02*
Y8300000D01*
X5691210D01*
Y8420000D01*
X5411210D01*
G01X5576610Y8762400D02*
G02X5525810I-25400J0D01*
G01X5602010Y8749700D02*
Y8762400D01*
X5576610D01*
G01X5421210Y8930000D02*
G03Y8810000I77500J-60000D01*
G01X5681210D02*
G03Y8930000I-77500J60000D01*
G01X5421210Y8810000D02*
X5681210D01*
G01Y8930000D02*
X5421210D01*
G01X5570000Y8970000D02*
G03X5690000I60000J77500D01*
G01D02*
Y9230000D01*
G01X5570000D02*
Y8970000D01*
G01X5420000D02*
G03X5540000I60000J77500D01*
G01D02*
Y9230000D01*
G01X5420000D02*
Y8970000D01*
G01X5690000Y9230000D02*
G03X5570000I-60000J-77500D01*
G01X5540000D02*
G03X5420000I-60000J-77500D01*
G01X5970000Y550000D02*
X7230000D01*
Y130000D01*
X5970000D01*
Y550000D01*
G01X6260000Y3140000D02*
X6140000D01*
Y2860000D01*
X6260000D01*
Y3140000D01*
G01X6140000Y3160000D02*
Y3280000D01*
X5860000D01*
Y3160000D01*
X6140000D01*
G01Y3300000D02*
Y3420000D01*
X5860000D01*
Y3300000D01*
X6140000D01*
G01Y3580000D02*
Y3700000D01*
X5860000D01*
Y3580000D01*
X6140000D01*
G01X5860000Y3560000D02*
Y3440000D01*
X6140000D01*
Y3560000D01*
X5860000D01*
G01X6130000Y3720000D02*
G03Y3840000I-77500J60000D01*
G01X5870000D02*
G03Y3720000I77500J-60000D01*
G01D02*
X6130000D01*
G01X6140000Y3860000D02*
Y3980000D01*
X5860000D01*
Y3860000D01*
X6140000D01*
G01Y4000000D02*
Y4120000D01*
X5860000D01*
Y4000000D01*
X6140000D01*
G01X6130000Y3840000D02*
X5870000D01*
G01X5800000Y4311680D02*
G03Y4151680I147500J-80000D01*
G01X6140000D02*
G03Y4311680I-147500J80000D01*
G01Y4151680D02*
X5800000D01*
G01X6200000Y4045400D02*
G03X6360000I80000J147500D01*
G01X6200000D02*
Y4385400D01*
G01X5970000Y4470000D02*
Y4370000D01*
G01X5800000Y4500000D02*
X6140000D01*
Y4340000D01*
X5800000D01*
Y4500000D01*
G01Y4311680D02*
X6140000D01*
G01X6360000Y4385400D02*
G03X6200000I-80000J-147500D01*
G01X5840000Y8575000D02*
Y8455000D01*
X6120000D01*
Y8575000D01*
X5840000D01*
G01X6120000Y8590000D02*
Y8710000D01*
X5840000D01*
Y8590000D01*
X6120000D01*
G01Y8300000D02*
Y8420000D01*
X5840000D01*
Y8300000D01*
X6120000D01*
G01X6119700Y9150000D02*
G03I-63500J0D01*
G01X6820000Y3140000D02*
X6700000D01*
Y2860000D01*
X6820000D01*
Y3140000D01*
G01X6540000D02*
X6420000D01*
Y2860000D01*
X6540000D01*
Y3140000D01*
G01X6400000D02*
X6280000D01*
Y2860000D01*
X6400000D01*
Y3140000D01*
G01X6680000Y3130000D02*
G03X6560000I-60000J-77500D01*
G01Y2870000D02*
G03X6680000I60000J77500D01*
G01X6560000Y3130000D02*
Y2870000D01*
G01X6680000D02*
Y3130000D01*
G01X6455000Y3460000D02*
Y3410000D01*
X6505000D01*
G01Y3830000D02*
X6455000D01*
Y3780000D01*
G01X6640000Y4330000D02*
X6520000D01*
Y4050000D01*
X6640000D01*
Y4330000D01*
G01X6380000Y4060000D02*
G03X6500000I60000J77500D01*
G01D02*
Y4320000D01*
G01X6380000D02*
Y4060000D01*
G01X6360000Y4385400D02*
Y4045400D01*
G01X6500000Y4320000D02*
G03X6380000I-60000J-77500D01*
G01X6660000Y7590000D02*
Y7470000D01*
X6940000D01*
Y7590000D01*
X6660000D01*
G01Y7750000D02*
Y7630000D01*
X6940000D01*
Y7750000D01*
X6660000D01*
G01Y8230000D02*
Y8110000D01*
X6940000D01*
Y8230000D01*
X6660000D01*
G01Y8070000D02*
Y7950000D01*
X6940000D01*
Y8070000D01*
X6660000D01*
G01Y8390000D02*
Y8270000D01*
X6940000D01*
Y8390000D01*
X6660000D01*
G01X6570000Y9160000D02*
X6460000D01*
Y9320000D01*
G01X6670000Y9160000D02*
X6780000D01*
Y9320000D01*
G01X6690000Y8730000D02*
X6810000D01*
Y9010000D01*
X6690000D01*
Y8730000D01*
G01X6433500Y8960000D02*
G03I-63500J0D01*
G01X6670000Y9320000D02*
X6570000D01*
G01X6460000Y9490000D02*
X6580000D01*
Y9770000D01*
X6460000D01*
Y9490000D01*
G01X6610000Y9500000D02*
G03X6730000I60000J77500D01*
G01X6610000Y9760000D02*
Y9500000D01*
G01X6730000D02*
Y9760000D01*
G01D02*
G03X6610000I-60000J-77500D01*
G01X6960000Y3140000D02*
X6840000D01*
Y2860000D01*
X6960000D01*
Y3140000D01*
G01X7100000D02*
X6980000D01*
Y2860000D01*
X7100000D01*
Y3140000D01*
G01X7190000Y3360000D02*
Y3240000D01*
X7470000D01*
Y3360000D01*
X7190000D01*
G01X7240000Y3130000D02*
G03X7120000I-60000J-77500D01*
G01Y2870000D02*
G03X7240000I60000J77500D01*
G01X7120000Y3130000D02*
Y2870000D01*
G01X6825000Y3410000D02*
X6875000D01*
Y3460000D01*
G01X7190000Y3580000D02*
Y3460000D01*
X7470000D01*
Y3580000D01*
X7190000D01*
G01Y3780000D02*
Y3660000D01*
X7470000D01*
Y3780000D01*
X7190000D01*
G01X6875000D02*
Y3830000D01*
X6825000D01*
G01X7190000Y4000000D02*
Y3880000D01*
X7470000D01*
Y4000000D01*
X7190000D01*
G01X6940000Y4050000D02*
X7060000D01*
Y4330000D01*
X6940000D01*
Y4050000D01*
G01X6770000Y4060000D02*
G03X6890000I60000J77500D01*
G01D02*
Y4320000D01*
G01X6770000D02*
Y4060000D01*
G01X6890000Y4320000D02*
G03X6770000I-60000J-77500D01*
G01X6830000Y7140000D02*
G03Y7020000I77500J-60000D01*
G01X7090000D02*
G03Y7140000I-77500J60000D01*
G01X6830000Y7020000D02*
X7090000D01*
G01Y7140000D02*
X6830000D01*
G01X7160000Y7240000D02*
Y6920000D01*
G01X7270000Y7080000D02*
G03X7220000I-25000J0D01*
G01X7160000D01*
G01X6960000Y7590000D02*
Y7470000D01*
X7240000D01*
Y7590000D01*
X6960000D01*
G01Y7750000D02*
Y7630000D01*
X7240000D01*
Y7750000D01*
X6960000D01*
G01Y7910000D02*
Y7790000D01*
X7240000D01*
Y7910000D01*
X6960000D01*
G01Y8230000D02*
Y8110000D01*
X7240000D01*
Y8230000D01*
X6960000D01*
G01Y8070000D02*
Y7950000D01*
X7240000D01*
Y8070000D01*
X6960000D01*
G01Y8390000D02*
Y8270000D01*
X7240000D01*
Y8390000D01*
X6960000D01*
G01X7040000Y9320000D02*
X7150000D01*
Y9160000D01*
G01X6940000D02*
X7040000D01*
G01X6940000Y9320000D02*
X6830000D01*
Y9160000D01*
G01Y8730000D02*
X6950000D01*
Y9010000D01*
X6830000D01*
Y8730000D01*
G01X7240000Y9010000D02*
X7120000D01*
Y8730000D01*
X7240000D01*
Y9010000D01*
G01X7644600Y1874300D02*
X7619200D01*
Y1645700D01*
X7720800D01*
Y1874300D01*
X7695400D01*
G01D02*
G02X7644600I-25400J0D01*
G01X7530000Y2200000D02*
Y2080000D01*
X7810000D01*
Y2200000D01*
X7530000D01*
G01X7540000Y2050000D02*
G03Y1930000I77500J-60000D01*
G01D02*
X7800000D01*
G01Y2050000D02*
X7540000D01*
G01X7695400Y2494300D02*
G02X7644600I-25400J0D01*
G01D02*
X7619200D01*
Y2265700D01*
X7720800D01*
Y2494300D01*
X7695400D01*
G01X7240000Y2870000D02*
Y3130000D01*
G01X7664600Y3944300D02*
X7639200D01*
Y3715700D01*
X7740800D01*
Y3944300D01*
X7715400D01*
G01Y3524300D02*
G02X7664600I-25400J0D01*
G01D02*
X7639200D01*
Y3295700D01*
X7740800D01*
Y3524300D01*
X7715400D01*
G01Y3944300D02*
G02X7664600I-25400J0D01*
G01X7560000Y4140000D02*
G03Y4020000I77500J-60000D01*
G01D02*
X7820000D01*
G01Y4140000D02*
X7560000D01*
G01X7710000Y6753800D02*
X7830000D01*
Y7033800D01*
X7710000D01*
Y6753800D01*
G01X7560000Y6763800D02*
G03X7680000I60000J77500D01*
G01Y7023800D02*
G03X7560000I-60000J-77500D01*
G01X7680000Y6763800D02*
Y7023800D01*
G01X7560000D02*
Y6763800D01*
G01X7480000Y7240000D02*
Y6920000D01*
G01X7320000Y7080000D02*
G03X7270000I-25000J0D01*
G01X7370000D02*
G03X7320000I-25000J0D01*
G01X7370000D02*
G02X7420000I25000J0D01*
G01X7470000D01*
G01X7630000Y7280000D02*
X7520000D01*
Y7390000D01*
G01Y8390000D02*
Y8500000D01*
X7630000D01*
G01X7860000Y9060000D02*
Y9420000D01*
X7440000D01*
Y9060000D01*
X7860000D01*
G01X7400000Y9010000D02*
X7280000D01*
Y8730000D01*
X7400000D01*
Y9010000D01*
G01X7830000Y9000000D02*
G03X7710000I-60000J-77500D01*
G01Y8740000D02*
G03X7830000I60000J77500D01*
G01X7710000Y9000000D02*
Y8740000D01*
G01X7600000Y9000000D02*
G03X7480000I-60000J-77500D01*
G01Y8740000D02*
G03X7600000I60000J77500D01*
G01X7480000Y9000000D02*
Y8740000D01*
G01X7600000D02*
Y9000000D01*
G01X8770400Y2860000D02*
X8180400D01*
Y1260000D01*
X8770400D01*
G01X8190000Y1030000D02*
Y910000D01*
X8470000D01*
Y1030000D01*
X8190000D01*
G01Y1180000D02*
Y1060000D01*
X8470000D01*
Y1180000D01*
X8190000D01*
G01X7800000Y1930000D02*
G03Y2050000I-77500J60000D01*
G01X8770400Y4480000D02*
X8180400D01*
Y2880000D01*
X8770400D01*
G01X7820000Y4020000D02*
G03Y4140000I-77500J60000D01*
G01X8160000Y4730000D02*
Y4610000D01*
X8440000D01*
Y4730000D01*
X8160000D01*
G01Y4880000D02*
Y4760000D01*
X8440000D01*
Y4880000D01*
X8160000D01*
G01X8020000Y6460000D02*
X8380000D01*
Y6880000D01*
X8020000D01*
Y6460000D01*
G01X7860000Y6450000D02*
G03X7980000I60000J77500D01*
G01Y6710000D02*
G03X7860000I-60000J-77500D01*
G01X7980000Y6450000D02*
Y6710000D01*
G01X7860000D02*
Y6450000D01*
G01X7980000Y7033800D02*
X7860000D01*
Y6753800D01*
X7980000D01*
Y7033800D01*
G01X8168500Y6970000D02*
G03I-63500J0D01*
G01X8130000Y9000000D02*
G03X8010000I-60000J-77500D01*
G01Y8740000D02*
G03X8130000I60000J77500D01*
G01X8010000Y9000000D02*
Y8740000D01*
G01X8130000D02*
Y9000000D01*
G01X7980000D02*
G03X7860000I-60000J-77500D01*
G01Y8740000D02*
G03X7980000I60000J77500D01*
G01X7860000Y9000000D02*
Y8740000D01*
G01X7980000D02*
Y9000000D01*
G01X7830000Y8740000D02*
Y9000000D01*
G01X8535400Y310000D02*
G02Y530000I292500J110000D01*
G01X9015400Y310000D02*
X8535400D01*
G01Y530000D02*
X9015400D01*
G01Y560000D02*
X8535400D01*
Y780000D01*
X9015400D01*
Y560000D01*
G01X8740000Y7390000D02*
Y7280000D01*
X8630000D01*
G01Y8500000D02*
X8740000D01*
Y8390000D01*
G01X8550000Y9000000D02*
G03X8430000I-60000J-77500D01*
G01Y8740000D02*
G03X8550000I60000J77500D01*
G01X8430000Y9000000D02*
Y8740000D01*
G01X8550000D02*
Y9000000D01*
G01X8600000Y8853800D02*
G03Y8733800I77500J-60000D01*
G01D02*
X8860000D01*
G01Y8853800D02*
X8600000D01*
G01X9015400Y530000D02*
G02Y310000I-292500J-110000D01*
G01X9060400Y1260000D02*
X10310400D01*
Y2860000D01*
X9060400D01*
G01Y2880000D02*
X10310400D01*
Y4480000D01*
X9060400D01*
G01X9110000Y5090000D02*
X8990000D01*
Y4810000D01*
X9110000D01*
Y5090000D01*
G01X8970000Y6760000D02*
X8850000D01*
Y6480000D01*
X8970000D01*
Y6760000D01*
G01X9250000D02*
X9130000D01*
Y6480000D01*
X9250000D01*
Y6760000D01*
G01X9110000D02*
X8990000D01*
Y6480000D01*
X9110000D01*
Y6760000D01*
G01X9200000Y8629870D02*
Y8949870D01*
G01X9030000Y9000000D02*
G03X8910000I-60000J-77500D01*
G01Y8740000D02*
G03X9030000I60000J77500D01*
G01X8910000Y9000000D02*
Y8740000D01*
G01X9030000D02*
Y9000000D01*
G01X8860000Y8733800D02*
G03Y8853800I-77500J60000D01*
G01X9620000Y5090000D02*
X9500000D01*
Y4810000D01*
X9620000D01*
Y5090000D01*
G01X9360000D02*
X9240000D01*
Y4810000D01*
X9360000D01*
Y5090000D01*
G01X9390000Y6760000D02*
X9270000D01*
Y6480000D01*
X9390000D01*
Y6760000D01*
G01X9360000Y8469870D02*
X9680000D01*
G01X9671330Y8789870D02*
G03I-151330J0D01*
G01X9620000Y8719870D02*
Y8639870D01*
X9640000D01*
G01X9360000Y9109870D02*
X9680000D01*
G01X9640000Y8939870D02*
X9620000D01*
Y8859870D01*
G01X9880000Y5090000D02*
X9760000D01*
Y4810000D01*
X9880000D01*
Y5090000D01*
G01X9840000Y8629870D02*
Y8949870D01*
G01X9900000Y8939870D02*
X9920000D01*
Y8639870D01*
X9900000D01*
G54D29*
X1050000Y7436000D03*
D03*
Y7944000D03*
D03*
X8915400Y1285500D03*
D03*
Y2834500D03*
D03*
Y2905500D03*
D03*
Y4454500D03*
D03*
G54D38*
X2110000Y8340000D03*
X2390000D03*
X8635400Y420000D03*
Y670000D03*
X8915400Y420000D03*
Y670000D03*
G54D47*
X6280000Y4113800D03*
Y4317000D03*
G54D56*
X7550000Y7440000D03*
Y7530000D03*
Y7620000D03*
Y7710000D03*
Y7800000D03*
Y7890000D03*
Y7980000D03*
Y8070000D03*
Y8160000D03*
Y8250000D03*
Y8340000D03*
X8710000Y7710000D03*
Y7620000D03*
Y7530000D03*
Y7440000D03*
Y8160000D03*
Y8070000D03*
Y7980000D03*
Y7890000D03*
Y7800000D03*
Y8340000D03*
Y8250000D03*
G54D66*
G01X9060000Y5538270D02*
Y5617010D01*
X9048320Y5601260D01*
G01Y5538270D02*
X9071680D01*
G01X9010630Y5988270D02*
X9002840Y5989580D01*
X8996030Y5994830D01*
X8990180Y6002700D01*
X8986290Y6011890D01*
X8984340Y6022390D01*
Y6032890D01*
X8986290Y6043390D01*
X8990180Y6052580D01*
X8996030Y6060450D01*
X9002840Y6065700D01*
X9010630Y6067010D01*
X9018420Y6065700D01*
X9025230Y6060450D01*
X9031080Y6052580D01*
X9034970Y6043390D01*
X9036920Y6032890D01*
Y6022390D01*
X9034970Y6011890D01*
X9031080Y6002700D01*
X9025230Y5994830D01*
X9018420Y5989580D01*
X9010630Y5988270D01*
G01X9066980D02*
Y6067010D01*
X9111760Y5988270D01*
Y6067010D01*
G01X9538580Y5554020D02*
X9544420Y5544830D01*
X9552210Y5539580D01*
X9560970Y5538270D01*
X9568760Y5539580D01*
X9576550Y5546140D01*
X9581420Y5554020D01*
X9582390Y5561890D01*
X9580450Y5571080D01*
X9573630Y5577640D01*
X9566820Y5580270D01*
X9558050D01*
G01X9566820D02*
X9572660Y5584200D01*
X9577530Y5590760D01*
X9579470Y5598640D01*
X9577530Y5606510D01*
X9572660Y5613070D01*
X9563890Y5617010D01*
X9555130Y5615700D01*
X9546370Y5610450D01*
G01X9291500Y5603890D02*
X9297340Y5611760D01*
X9304160Y5615700D01*
X9311950Y5617010D01*
X9321680Y5614390D01*
X9328500Y5607820D01*
X9330450Y5599950D01*
X9329470Y5592070D01*
X9325580Y5585510D01*
X9306110Y5572390D01*
X9297340Y5563200D01*
X9291500Y5550080D01*
X9289550Y5538270D01*
X9330450D01*
G01X9831680D02*
Y5617010D01*
X9795660Y5560580D01*
X9844340D01*
G54D48*
X6690000Y3420000D03*
X6640000D03*
X6590000D03*
X6540000D03*
Y3820000D03*
X6590000D03*
X6640000D03*
X6690000D03*
X6790000Y3420000D03*
X6740000D03*
Y3820000D03*
X6790000D03*
G54D39*
X3160000Y8765000D03*
Y9155000D03*
X4970000Y8765000D03*
Y9155000D03*
G54D57*
X7530000Y9145000D03*
X7770000D03*
Y9335000D03*
X7530000D03*
G54D67*
G01X2950000Y8680000D02*
X2900000D01*
Y9240000D01*
X3420000D01*
Y8680000D01*
X2950000D01*
G01X3000000Y8950000D02*
G02X3080000I40000J0D01*
G01X3240000D02*
G02X3320000I40000J0D01*
G01X3160000D02*
G02X3240000I40000J0D01*
G01X3080000D02*
G02X3160000I40000J0D01*
G01X4760000Y8680000D02*
X4710000D01*
Y9240000D01*
X5230000D01*
Y8680000D01*
X4760000D01*
G01X4810000Y8950000D02*
G02X4890000I40000J0D01*
G01X5050000D02*
G02X5130000I40000J0D01*
G01X4970000D02*
G02X5050000I40000J0D01*
G01X4890000D02*
G02X4970000I40000J0D01*
G01X8990000Y5948270D02*
Y5648270D01*
X9110000D01*
Y5948270D01*
X8990000D01*
Y5898270D01*
X9110000D01*
G01X8920000Y5498270D02*
X9940000D01*
Y6098270D01*
X8920000D01*
Y5498270D01*
G01X8990000Y5898270D02*
Y5798270D01*
X9110000D01*
G01X9500000Y5948270D02*
Y5648270D01*
X9620000D01*
Y5948270D01*
X9500000D01*
G01X9240000D02*
Y5648270D01*
X9370000D01*
Y5948270D01*
X9240000D01*
G01X9618000Y5798270D02*
X9498000D01*
Y5898270D01*
X9610000D01*
G01X9364000Y5798270D02*
X9244000D01*
Y5898270D01*
X9360000D01*
G01X9750000Y5948270D02*
Y5648270D01*
X9870000D01*
Y5948270D01*
X9750000D01*
G01X9872000Y5798270D02*
X9752000D01*
Y5898270D01*
X9870000D01*
G54D49*
X6465000Y3495000D03*
Y3545000D03*
Y3595000D03*
Y3645000D03*
Y3695000D03*
Y3745000D03*
X6865000D03*
Y3695000D03*
Y3645000D03*
Y3595000D03*
Y3545000D03*
Y3495000D03*
G54D58*
X8105000Y6790000D03*
Y6550000D03*
X8295000D03*
Y6790000D03*
G54D68*
G01X-1010020Y4729990D02*
Y4890010D01*
X-1033900Y4858010D01*
G01Y4729990D02*
X-986150D01*
G01X-850000Y4890010D02*
X-865920Y4884680D01*
X-877850Y4871340D01*
X-885820Y4855340D01*
X-891780Y4834000D01*
X-893770Y4810000D01*
X-891780Y4785990D01*
X-885820Y4764660D01*
X-877850Y4748660D01*
X-865920Y4735320D01*
X-850000Y4729990D01*
X-834080Y4735320D01*
X-822150Y4748660D01*
X-814180Y4764660D01*
X-808220Y4785990D01*
X-806230Y4810000D01*
X-808220Y4834000D01*
X-814180Y4855340D01*
X-822150Y4871340D01*
X-834080Y4884680D01*
X-850000Y4890010D01*
G01X-689980D02*
X-705900Y4884680D01*
X-717830Y4871340D01*
X-725800Y4855340D01*
X-731760Y4834000D01*
X-733750Y4810000D01*
X-731760Y4785990D01*
X-725800Y4764660D01*
X-717830Y4748660D01*
X-705900Y4735320D01*
X-689980Y4729990D01*
X-674060Y4735320D01*
X-662130Y4748660D01*
X-654160Y4764660D01*
X-648200Y4785990D01*
X-646210Y4810000D01*
X-648200Y4834000D01*
X-654160Y4855340D01*
X-662130Y4871340D01*
X-674060Y4884680D01*
X-689980Y4890010D01*
G01X490670Y2960000D02*
Y2881170D01*
X496000Y2864660D01*
X506670Y2853670D01*
X520000Y2850000D01*
X533330Y2853670D01*
X544000Y2864660D01*
X549330Y2881170D01*
Y2960000D01*
G01X582000Y2864660D02*
X592670Y2855500D01*
X604670Y2850000D01*
X615330D01*
X626000Y2855500D01*
X634000Y2864660D01*
X638000Y2877500D01*
X635330Y2890330D01*
X628670Y2901330D01*
X616670Y2908670D01*
X600670Y2912330D01*
X591330Y2919670D01*
X587330Y2932500D01*
X590000Y2945330D01*
X596670Y2954500D01*
X606000Y2960000D01*
X615330D01*
X624670Y2956330D01*
X632670Y2947170D01*
G01X726670Y2850000D02*
X673330D01*
Y2960000D01*
X726670D01*
G01X705330Y2906830D02*
X673330D01*
G01X763330Y2850000D02*
Y2960000D01*
X796670D01*
X807330Y2954500D01*
X814000Y2947170D01*
X816670Y2932500D01*
X814000Y2917830D01*
X806000Y2908670D01*
X796670Y2903170D01*
X763330D01*
G01X796670D02*
X816670Y2850000D01*
G01X493330Y4300000D02*
Y4410000D01*
X526670D01*
X537330Y4404500D01*
X544000Y4397170D01*
X546670Y4382500D01*
X544000Y4367830D01*
X536000Y4358670D01*
X526670Y4353170D01*
X493330D01*
G01X526670D02*
X546670Y4300000D01*
G01X582000Y4314660D02*
X592670Y4305500D01*
X604670Y4300000D01*
X615330D01*
X626000Y4305500D01*
X634000Y4314660D01*
X638000Y4327500D01*
X635330Y4340330D01*
X628670Y4351330D01*
X616670Y4358670D01*
X600670Y4362330D01*
X591330Y4369670D01*
X587330Y4382500D01*
X590000Y4395330D01*
X596670Y4404500D01*
X606000Y4410000D01*
X615330D01*
X624670Y4406330D01*
X632670Y4397170D01*
G01X700000Y4410000D02*
Y4300000D01*
G01X669330Y4410000D02*
X730670D01*
G01X520000Y5820000D02*
X509330Y5821830D01*
X500000Y5829160D01*
X492000Y5840170D01*
X486670Y5853000D01*
X484000Y5867670D01*
Y5882330D01*
X486670Y5897000D01*
X492000Y5909830D01*
X500000Y5920830D01*
X509330Y5928170D01*
X520000Y5930000D01*
X530670Y5928170D01*
X540000Y5920830D01*
X548000Y5909830D01*
X553330Y5897000D01*
X556000Y5882330D01*
Y5867670D01*
X553330Y5853000D01*
X548000Y5840170D01*
X540000Y5829160D01*
X530670Y5821830D01*
X520000Y5820000D01*
G01X579330D02*
Y5930000D01*
X640670Y5820000D01*
Y5930000D01*
G01X700000Y5820000D02*
X689330Y5821830D01*
X680000Y5829160D01*
X672000Y5840170D01*
X666670Y5853000D01*
X664000Y5867670D01*
Y5882330D01*
X666670Y5897000D01*
X672000Y5909830D01*
X680000Y5920830D01*
X689330Y5928170D01*
X700000Y5930000D01*
X710670Y5928170D01*
X720000Y5920830D01*
X728000Y5909830D01*
X733330Y5897000D01*
X736000Y5882330D01*
Y5867670D01*
X733330Y5853000D01*
X728000Y5840170D01*
X720000Y5829160D01*
X710670Y5821830D01*
X700000Y5820000D01*
G01X764670D02*
Y5930000D01*
X815330D01*
G01X796670Y5876830D02*
X764670D01*
G01X854670Y5820000D02*
Y5930000D01*
X905330D01*
G01X886670Y5876830D02*
X854670D01*
G01X1300000Y7380000D02*
Y7490000D01*
X1284000Y7468000D01*
G01Y7380000D02*
X1316000D01*
G01X1364670Y7471670D02*
X1372670Y7482660D01*
X1382000Y7488170D01*
X1392670Y7490000D01*
X1406000Y7486330D01*
X1415330Y7477170D01*
X1418000Y7466170D01*
X1416670Y7455160D01*
X1411330Y7446000D01*
X1384670Y7427670D01*
X1372670Y7414830D01*
X1364670Y7396500D01*
X1362000Y7380000D01*
X1418000D01*
G01X1446670Y7490000D02*
X1480000Y7380000D01*
X1513330Y7490000D01*
G01X1318000Y7945000D02*
X1344670D01*
Y7912000D01*
X1336670Y7901000D01*
X1327330Y7893670D01*
X1314000Y7890000D01*
X1300670Y7893670D01*
X1291330Y7901000D01*
X1283330Y7912000D01*
X1278000Y7924830D01*
X1275330Y7939500D01*
Y7952330D01*
X1278000Y7963330D01*
X1283330Y7976170D01*
X1291330Y7987170D01*
X1299330Y7994500D01*
X1310000Y8000000D01*
X1319330D01*
X1330000Y7996330D01*
X1338000Y7989000D01*
G01X1369330Y7890000D02*
Y8000000D01*
X1430670Y7890000D01*
Y8000000D01*
G01X1460670Y7890000D02*
Y8000000D01*
X1487330D01*
X1498000Y7994500D01*
X1506000Y7987170D01*
X1512670Y7976170D01*
X1518000Y7963330D01*
X1519330Y7945000D01*
X1518000Y7926670D01*
X1512670Y7913830D01*
X1506000Y7902830D01*
X1498000Y7895500D01*
X1487330Y7890000D01*
X1460670D01*
G01X1469990Y6181690D02*
X5170010D01*
Y2281670D01*
X1469990D01*
Y6181690D01*
G01X4758000Y490670D02*
X4770840Y498670D01*
X4778170Y509330D01*
X4780000Y521330D01*
X4778170Y532000D01*
X4769000Y542670D01*
X4758000Y549330D01*
X4747000Y550670D01*
X4734170Y548000D01*
X4725000Y538670D01*
X4721330Y529330D01*
Y517330D01*
G01Y529330D02*
X4715830Y537330D01*
X4706670Y544000D01*
X4695670Y546670D01*
X4684670Y544000D01*
X4675500Y537330D01*
X4670000Y525330D01*
X4671830Y513330D01*
X4679170Y501330D01*
G01X4670000Y576670D02*
X4780000Y610000D01*
X4670000Y643330D01*
G01X4758000Y670670D02*
X4770840Y678670D01*
X4778170Y689330D01*
X4780000Y701330D01*
X4778170Y712000D01*
X4769000Y722670D01*
X4758000Y729330D01*
X4747000Y730670D01*
X4734170Y728000D01*
X4725000Y718670D01*
X4721330Y709330D01*
Y697330D01*
G01Y709330D02*
X4715830Y717330D01*
X4706670Y724000D01*
X4695670Y726670D01*
X4684670Y724000D01*
X4675500Y717330D01*
X4670000Y705330D01*
X4671830Y693330D01*
X4679170Y681330D01*
G01X4540000Y520000D02*
X4430000D01*
X4452000Y504000D01*
G01X4540000D02*
Y536000D01*
G01X4448330Y584670D02*
X4437340Y592670D01*
X4431830Y602000D01*
X4430000Y612670D01*
X4433670Y626000D01*
X4442830Y635330D01*
X4453830Y638000D01*
X4464840Y636670D01*
X4474000Y631330D01*
X4492330Y604670D01*
X4505170Y592670D01*
X4523500Y584670D01*
X4540000Y582000D01*
Y638000D01*
G01X4430000Y666670D02*
X4540000Y700000D01*
X4430000Y733330D01*
G01X4348000Y9013500D02*
X4354000Y9006000D01*
X4361000Y9001500D01*
X4370000Y9000000D01*
X4379000Y9003000D01*
X4386000Y9009000D01*
X4391000Y9019500D01*
X4392000Y9031500D01*
X4390000Y9043500D01*
X4385000Y9051000D01*
X4378000Y9057000D01*
X4371000Y9058500D01*
X4364000Y9057000D01*
X4355000Y9051000D01*
X4358000Y9090000D01*
X4385000D01*
G01X4415000D02*
X4440000Y9000000D01*
X4465000Y9090000D01*
G01X4939980Y-710010D02*
Y-549990D01*
X4916100Y-581990D01*
G01Y-710010D02*
X4963850D01*
G01X5100000Y-549990D02*
X5084080Y-555320D01*
X5072150Y-568660D01*
X5064180Y-584660D01*
X5058220Y-606000D01*
X5056230Y-630000D01*
X5058220Y-654010D01*
X5064180Y-675340D01*
X5072150Y-691340D01*
X5084080Y-704680D01*
X5100000Y-710010D01*
X5115920Y-704680D01*
X5127850Y-691340D01*
X5135820Y-675340D01*
X5141780Y-654010D01*
X5143770Y-630000D01*
X5141780Y-606000D01*
X5135820Y-584660D01*
X5127850Y-568660D01*
X5115920Y-555320D01*
X5100000Y-549990D01*
G01X5260020D02*
X5244100Y-555320D01*
X5232170Y-568660D01*
X5224200Y-584660D01*
X5218240Y-606000D01*
X5216250Y-630000D01*
X5218240Y-654010D01*
X5224200Y-675340D01*
X5232170Y-691340D01*
X5244100Y-704680D01*
X5260020Y-710010D01*
X5275940Y-704680D01*
X5287870Y-691340D01*
X5295840Y-675340D01*
X5301800Y-654010D01*
X5303790Y-630000D01*
X5301800Y-606000D01*
X5295840Y-584660D01*
X5287870Y-568660D01*
X5275940Y-555320D01*
X5260020Y-549990D01*
G01X4920000Y520000D02*
X5030000D01*
G01X4920000Y489330D02*
Y550670D01*
G01X5030000Y582000D02*
X4920000Y638000D01*
G01Y582000D02*
X5030000Y638000D01*
G01X5290000Y493330D02*
X5180000D01*
Y526670D01*
X5185500Y537330D01*
X5192830Y544000D01*
X5207500Y546670D01*
X5222170Y544000D01*
X5231330Y536000D01*
X5236830Y526670D01*
Y493330D01*
G01Y526670D02*
X5290000Y546670D01*
G01Y582000D02*
X5180000Y638000D01*
G01Y582000D02*
X5290000Y638000D01*
G01X6034670Y281670D02*
X6042670Y292660D01*
X6052000Y298170D01*
X6062670Y300000D01*
X6076000Y296330D01*
X6085330Y287170D01*
X6088000Y276170D01*
X6086670Y265160D01*
X6081330Y256000D01*
X6054670Y237670D01*
X6042670Y224830D01*
X6034670Y206500D01*
X6032000Y190000D01*
X6088000D01*
G01X6150000Y300000D02*
X6139330Y296330D01*
X6131330Y287170D01*
X6126000Y276170D01*
X6122000Y261500D01*
X6120670Y245000D01*
X6122000Y228500D01*
X6126000Y213830D01*
X6131330Y202830D01*
X6139330Y193670D01*
X6150000Y190000D01*
X6160670Y193670D01*
X6168670Y202830D01*
X6174000Y213830D01*
X6178000Y228500D01*
X6179330Y245000D01*
X6178000Y261500D01*
X6174000Y276170D01*
X6168670Y287170D01*
X6160670Y296330D01*
X6150000Y300000D01*
G01X6214670Y281670D02*
X6222670Y292660D01*
X6232000Y298170D01*
X6242670Y300000D01*
X6256000Y296330D01*
X6265330Y287170D01*
X6268000Y276170D01*
X6266670Y265160D01*
X6261330Y256000D01*
X6234670Y237670D01*
X6222670Y224830D01*
X6214670Y206500D01*
X6212000Y190000D01*
X6268000D01*
G01X6330000Y300000D02*
X6319330Y296330D01*
X6311330Y287170D01*
X6306000Y276170D01*
X6302000Y261500D01*
X6300670Y245000D01*
X6302000Y228500D01*
X6306000Y213830D01*
X6311330Y202830D01*
X6319330Y193670D01*
X6330000Y190000D01*
X6340670Y193670D01*
X6348670Y202830D01*
X6354000Y213830D01*
X6358000Y228500D01*
X6359330Y245000D01*
X6358000Y261500D01*
X6354000Y276170D01*
X6348670Y287170D01*
X6340670Y296330D01*
X6330000Y300000D01*
G01X6420000D02*
X6409330Y296330D01*
X6401330Y287170D01*
X6396000Y276170D01*
X6392000Y261500D01*
X6390670Y245000D01*
X6392000Y228500D01*
X6396000Y213830D01*
X6401330Y202830D01*
X6409330Y193670D01*
X6420000Y190000D01*
X6430670Y193670D01*
X6438670Y202830D01*
X6444000Y213830D01*
X6448000Y228500D01*
X6449330Y245000D01*
X6448000Y261500D01*
X6444000Y276170D01*
X6438670Y287170D01*
X6430670Y296330D01*
X6420000Y300000D01*
G01X6507330Y190000D02*
X6510000Y213830D01*
X6514000Y234000D01*
X6519330Y252330D01*
X6526000Y272500D01*
X6536670Y300000D01*
X6483330D01*
G01X6600000Y190000D02*
Y300000D01*
X6584000Y278000D01*
G01Y190000D02*
X6616000D01*
G01X6664670Y235830D02*
X6674000Y248670D01*
X6682000Y256000D01*
X6692670Y259670D01*
X6702000Y256000D01*
X6708670Y248670D01*
X6714000Y237670D01*
X6715330Y224830D01*
X6714000Y213830D01*
X6708670Y202830D01*
X6700670Y193670D01*
X6691330Y190000D01*
X6680670Y193670D01*
X6671330Y204660D01*
X6666000Y221170D01*
X6664670Y239500D01*
X6667330Y263330D01*
X6671330Y276170D01*
X6678000Y289000D01*
X6687330Y298170D01*
X6696670Y300000D01*
X6706000Y296330D01*
X6712670Y287170D01*
G01X6034670Y425830D02*
X6044000Y438670D01*
X6052000Y446000D01*
X6062670Y449670D01*
X6072000Y446000D01*
X6078670Y438670D01*
X6084000Y427670D01*
X6085330Y414830D01*
X6084000Y403830D01*
X6078670Y392830D01*
X6070670Y383670D01*
X6061330Y380000D01*
X6050670Y383670D01*
X6041330Y394660D01*
X6036000Y411170D01*
X6034670Y429500D01*
X6037330Y453330D01*
X6041330Y466170D01*
X6048000Y479000D01*
X6057330Y488170D01*
X6066670Y490000D01*
X6076000Y486330D01*
X6082670Y477170D01*
G01X6120670Y490000D02*
Y411170D01*
X6126000Y394660D01*
X6136670Y383670D01*
X6150000Y380000D01*
X6163330Y383670D01*
X6174000Y394660D01*
X6179330Y411170D01*
Y490000D01*
G01X6213330D02*
Y380000D01*
X6266670D01*
G01X6290000Y343330D02*
X6370000D01*
G01X6380000Y490000D02*
X6398670Y380000D01*
X6420000Y490000D01*
X6441330Y380000D01*
X6460000Y490000D01*
G01X6494000D02*
X6526000D01*
G01X6510000D02*
Y380000D01*
G01X6494000D02*
X6526000D01*
G01X6574670D02*
Y490000D01*
X6625330D01*
G01X6606670Y436830D02*
X6574670D01*
G01X6674000Y490000D02*
X6706000D01*
G01X6690000D02*
Y380000D01*
G01X6674000D02*
X6706000D01*
G01X6740000Y343330D02*
X6820000D01*
G01X6836670Y490000D02*
X6870000Y380000D01*
X6903330Y490000D01*
G01X6960000Y380000D02*
Y490000D01*
X6944000Y468000D01*
G01Y380000D02*
X6976000D01*
G01X7050000Y490000D02*
X7039330Y486330D01*
X7031330Y477170D01*
X7026000Y466170D01*
X7022000Y451500D01*
X7020670Y435000D01*
X7022000Y418500D01*
X7026000Y403830D01*
X7031330Y392830D01*
X7039330Y383670D01*
X7050000Y380000D01*
X7060670Y383670D01*
X7068670Y392830D01*
X7074000Y403830D01*
X7078000Y418500D01*
X7079330Y435000D01*
X7078000Y451500D01*
X7074000Y466170D01*
X7068670Y477170D01*
X7060670Y486330D01*
X7050000Y490000D01*
G01X7150670Y438670D02*
X7156000Y444170D01*
X7160000Y453330D01*
X7162670Y466170D01*
X7160000Y477170D01*
X7154670Y484500D01*
X7145330Y490000D01*
X7109330D01*
Y380000D01*
X7153330D01*
X7162670Y387330D01*
X7168000Y398330D01*
X7170670Y411170D01*
X7168000Y424000D01*
X7160000Y435000D01*
X7150670Y438670D01*
X7109330D01*
G01X6108000Y8808000D02*
X6114000Y8797500D01*
X6122000Y8791500D01*
X6131000Y8790000D01*
X6139000Y8791500D01*
X6147000Y8799000D01*
X6152000Y8808000D01*
X6153000Y8817000D01*
X6151000Y8827500D01*
X6144000Y8835000D01*
X6137000Y8838000D01*
X6128000D01*
G01X6137000D02*
X6143000Y8842500D01*
X6148000Y8850000D01*
X6150000Y8859000D01*
X6148000Y8868000D01*
X6143000Y8875500D01*
X6134000Y8880000D01*
X6125000Y8878500D01*
X6116000Y8872500D01*
G01X6175000Y8880000D02*
X6200000Y8790000D01*
X6225000Y8880000D01*
G01X6248000Y8808000D02*
X6254000Y8797500D01*
X6262000Y8791500D01*
X6271000Y8790000D01*
X6279000Y8791500D01*
X6287000Y8799000D01*
X6292000Y8808000D01*
X6293000Y8817000D01*
X6291000Y8827500D01*
X6284000Y8835000D01*
X6277000Y8838000D01*
X6268000D01*
G01X6277000D02*
X6283000Y8842500D01*
X6288000Y8850000D01*
X6290000Y8859000D01*
X6288000Y8868000D01*
X6283000Y8875500D01*
X6274000Y8880000D01*
X6265000Y8878500D01*
X6256000Y8872500D01*
G01X5968000Y9268000D02*
X5974000Y9257500D01*
X5982000Y9251500D01*
X5991000Y9250000D01*
X5999000Y9251500D01*
X6007000Y9259000D01*
X6012000Y9268000D01*
X6013000Y9277000D01*
X6011000Y9287500D01*
X6004000Y9295000D01*
X5997000Y9298000D01*
X5988000D01*
G01X5997000D02*
X6003000Y9302500D01*
X6008000Y9310000D01*
X6010000Y9319000D01*
X6008000Y9328000D01*
X6003000Y9335500D01*
X5994000Y9340000D01*
X5985000Y9338500D01*
X5976000Y9332500D01*
G01X6035000Y9340000D02*
X6060000Y9250000D01*
X6085000Y9340000D01*
G01X6108000Y9268000D02*
X6114000Y9257500D01*
X6122000Y9251500D01*
X6131000Y9250000D01*
X6139000Y9251500D01*
X6147000Y9259000D01*
X6152000Y9268000D01*
X6153000Y9277000D01*
X6151000Y9287500D01*
X6144000Y9295000D01*
X6137000Y9298000D01*
X6128000D01*
G01X6137000D02*
X6143000Y9302500D01*
X6148000Y9310000D01*
X6150000Y9319000D01*
X6148000Y9328000D01*
X6143000Y9335500D01*
X6134000Y9340000D01*
X6125000Y9338500D01*
X6116000Y9332500D01*
G01X8198000Y6938000D02*
X8204000Y6927500D01*
X8212000Y6921500D01*
X8221000Y6920000D01*
X8229000Y6921500D01*
X8237000Y6929000D01*
X8242000Y6938000D01*
X8243000Y6947000D01*
X8241000Y6957500D01*
X8234000Y6965000D01*
X8227000Y6968000D01*
X8218000D01*
G01X8227000D02*
X8233000Y6972500D01*
X8238000Y6980000D01*
X8240000Y6989000D01*
X8238000Y6998000D01*
X8233000Y7005500D01*
X8224000Y7010000D01*
X8215000Y7008500D01*
X8206000Y7002500D01*
G01X8271000Y6995000D02*
X8277000Y7004000D01*
X8284000Y7008500D01*
X8292000Y7010000D01*
X8302000Y7007000D01*
X8309000Y6999500D01*
X8311000Y6990500D01*
X8310000Y6981500D01*
X8306000Y6974000D01*
X8286000Y6959000D01*
X8277000Y6948500D01*
X8271000Y6933500D01*
X8269000Y6920000D01*
X8311000D01*
G01X8360000Y6917000D02*
X8358000Y6918500D01*
Y6921500D01*
X8360000Y6923000D01*
X8362000Y6921500D01*
Y6918500D01*
X8360000Y6917000D01*
G01X8428000Y6920000D02*
X8430000Y6939500D01*
X8433000Y6956000D01*
X8437000Y6971000D01*
X8442000Y6987500D01*
X8450000Y7010000D01*
X8410000D01*
G01X8481000Y6957500D02*
X8488000Y6968000D01*
X8494000Y6974000D01*
X8502000Y6977000D01*
X8509000Y6974000D01*
X8514000Y6968000D01*
X8518000Y6959000D01*
X8519000Y6948500D01*
X8518000Y6939500D01*
X8514000Y6930500D01*
X8508000Y6923000D01*
X8501000Y6920000D01*
X8493000Y6923000D01*
X8486000Y6932000D01*
X8482000Y6945500D01*
X8481000Y6960500D01*
X8483000Y6980000D01*
X8486000Y6990500D01*
X8491000Y7001000D01*
X8498000Y7008500D01*
X8505000Y7010000D01*
X8512000Y7007000D01*
X8517000Y6999500D01*
G01X8570000Y6920000D02*
X8577000Y6921500D01*
X8585000Y6926000D01*
X8590000Y6933500D01*
X8592000Y6944000D01*
X8590000Y6954500D01*
X8584000Y6963500D01*
X8575000Y6968000D01*
X8565000D01*
X8559000Y6971000D01*
X8554000Y6978500D01*
X8552000Y6989000D01*
X8555000Y6999500D01*
X8562000Y7007000D01*
X8570000Y7010000D01*
X8578000Y7007000D01*
X8585000Y6999500D01*
X8588000Y6989000D01*
X8586000Y6978500D01*
X8581000Y6971000D01*
X8575000Y6968000D01*
X8565000D01*
X8556000Y6963500D01*
X8550000Y6954500D01*
X8548000Y6944000D01*
X8550000Y6933500D01*
X8555000Y6926000D01*
X8563000Y6921500D01*
X8570000Y6920000D01*
G01X8618000D02*
Y7010000D01*
G01X8656000D02*
X8618000Y6954500D01*
G01X8662000Y6920000D02*
X8635000Y6980000D01*
G01X8689000Y6920000D02*
Y7010000D01*
G01X8731000D02*
Y6920000D01*
G01Y6965000D02*
X8689000D01*
G01X8765000Y6980000D02*
X8795000D01*
X8765000Y6920000D01*
X8795000D01*
G54D59*
X8331400Y1742000D03*
X8585400Y1615000D03*
X8331400Y2250000D03*
Y1996000D03*
X8585400Y2123000D03*
Y1869000D03*
X8331400Y2504000D03*
X8585400Y2377000D03*
Y3235000D03*
X8331400Y3616000D03*
Y3362000D03*
X8585400Y3743000D03*
Y3489000D03*
X8331400Y4124000D03*
Y3870000D03*
X8585400Y3997000D03*
X9710400Y1651500D03*
Y1397500D03*
Y2722500D03*
Y2468500D03*
Y3271500D03*
Y3017500D03*
Y4088500D03*
Y4342500D03*
G54D69*
G01X440480Y6686500D02*
X376980Y6750000D01*
X440480Y6813500D01*
Y6686500D01*
X422700Y6704280D01*
Y6788100D01*
X410000Y6775400D01*
Y6724600D01*
X397300Y6737300D01*
Y6762700D01*
M02*
