G04 ================== begin FILE IDENTIFICATION RECORD ==================*
G04 Layout Name:  H:/GitHub/MBEDBoard/MK60_PACK_V20A/PCB/MK60_PACK_V20A.brd*
G04 Film Name:    ADT*
G04 File Format:  Gerber RS274X*
G04 File Origin:  Cadence Allegro 16.6-2015-S095*
G04 Origin Date:  Thu Sep 07 19:47:13 2017*
G04 *
G04 Layer:  REF DES/SILKSCREEN_TOP*
G04 Layer:  PIN/TOP*
G04 Layer:  PACKAGE GEOMETRY/SILKSCREEN_TOP*
G04 Layer:  BOARD GEOMETRY/SILKSCREEN_TOP*
G04 Layer:  BOARD GEOMETRY/OUTLINE*
G04 *
G04 Offset:    (0.0000 0.0000)*
G04 Mirror:    No*
G04 Mode:      Positive*
G04 Rotation:  0*
G04 FullContactRelief:  No*
G04 UndefLineWidth:     0.1524*
G04 ================== end FILE IDENTIFICATION RECORD ====================*
%FSLAX55Y55*MOMM*%
%IR0*IPPOS*OFA0.00000B0.00000*MIA0B0*SFA1.00000B1.00000*%
%ADD39R,.6X1.1*%
%ADD49R,1.4X.4*%
%ADD33R,1.5X.6*%
%ADD28R,.6X1.5*%
%ADD35R,.8X1.4*%
%ADD19R,1.55X.3*%
%ADD32O,.254X2.032*%
%ADD30O,2.032X.254*%
%ADD24R,10.X10.*%
%ADD36R,.635X2.032*%
%ADD25R,.55X1.145*%
%ADD26R,1.145X.55*%
%ADD20R,.6604X1.016*%
%ADD41C,.75*%
%ADD31R,.4318X1.905*%
%ADD40R,1.X1.4*%
%ADD44R,1.2X2.2*%
%ADD42R,2.3X4.*%
%ADD37R,1.8X1.*%
%ADD50R,2.X1.8*%
%ADD38R,1.X1.8*%
%ADD47R,1.4X1.15*%
%ADD27R,1.6X1.5*%
%ADD46R,3.6X2.2*%
%ADD48R,1.6X2.7*%
%ADD21R,.8X.25*%
%ADD15C,3.3*%
%ADD45R,1.27X1.27*%
%ADD22R,.25X.8*%
%ADD16C,2.7*%
%ADD34C,2.54*%
%ADD23R,3.2X3.2*%
%ADD12C,1.524*%
%ADD10C,6.35*%
%ADD13R,1.524X1.524*%
%ADD29C,1.778*%
%ADD18R,.9144X.9144*%
%ADD17R,.9144X.9144*%
%ADD14C,1.6993*%
%ADD11R,1.1938X1.1938*%
%ADD43R,1.778X1.778*%
%ADD51C,.2*%
%ADD52C,.2032*%
%ADD53C,.17*%
%ADD54C,.127*%
%ADD55C,.254*%
%ADD56C,.1524*%
%ADD57C,.3048*%
G75*
%LPD*%
G75*
G36*
G01X250000Y7530000D02*
X170000D01*
Y7440000D01*
X250000D01*
Y7530000D01*
G37*
G36*
G01X1500000Y5660000D02*
G03I-30000J0D01*
G37*
G36*
G01X2165000Y3130000D02*
G03I-30000J0D01*
G37*
G36*
G01X2040000Y7590000D02*
X2080000Y7550000D01*
X2000000D01*
X2040000Y7590000D01*
G37*
G36*
G01X2920000Y5380000D02*
X2960000Y5420000D01*
X2920000Y5460000D01*
Y5380000D01*
G37*
G36*
G01X3080000Y5260000D02*
G03I-40000J0D01*
G37*
G36*
G01X3330000Y8140000D02*
X3230000D01*
X3280000Y8190000D01*
X3330000Y8140000D01*
G37*
G36*
G01X3230000Y8110000D02*
Y8200000D01*
X3140000D01*
Y8110000D01*
X3230000D01*
G37*
G36*
G01X4315320Y2414000D02*
G03I-35920J0D01*
G37*
G36*
G01X5671920Y7009400D02*
G03I-35920J0D01*
G37*
G36*
G01X6472400Y2660000D02*
G03I-22400J0D01*
G37*
G36*
G01X6483900Y3660000D02*
G03I-53900J0D01*
G37*
G36*
G01X6673900Y3470000D02*
G03I-53900J0D01*
G37*
G36*
G01X7161920Y7009400D02*
G03I-35920J0D01*
G37*
G36*
G01X7590200Y2443700D02*
G03I-50800J0D01*
G37*
G36*
G01X8194920Y4396000D02*
G03I-43400J0D01*
G37*
G36*
G01X8249000Y7930000D02*
Y7880000D01*
X8299000D01*
Y7930000D01*
X8249000D01*
G37*
G36*
G01X8521920Y7219400D02*
G03I-35920J0D01*
G37*
G36*
G01X9270000Y1936000D02*
G03I-30000J0D01*
G37*
G36*
G01X9056800Y3649500D02*
Y3687600D01*
X9260000D01*
Y3649500D01*
X9056800D01*
G37*
G36*
G01Y3840000D02*
Y3649500D01*
X9031400D01*
Y3840000D01*
X9056800D01*
G37*
G54D10*
X330000Y330000D03*
Y7970000D03*
X9670000Y330000D03*
Y7970000D03*
G54D11*
X265860Y2020000D03*
X474140D03*
X7195860Y5330000D03*
Y5130000D03*
X7404140Y5330000D03*
Y5130000D03*
G54D20*
X1641600Y6383000D03*
X1438400D03*
X1540000Y6637000D03*
X4571600Y6823000D03*
X4368400D03*
X4470000Y7077000D03*
X6668400Y6523000D03*
X6871600D03*
X6770000Y6777000D03*
G54D12*
X594000Y5064000D03*
Y5318000D03*
X340000Y5064000D03*
Y5318000D03*
X594000Y5572000D03*
Y5826000D03*
Y6080000D03*
X340000Y5572000D03*
Y5826000D03*
Y6080000D03*
X594000Y6334000D03*
Y6588000D03*
X340000Y6334000D03*
Y6588000D03*
X594000Y6842000D03*
X340000D03*
X594000Y7096000D03*
X340000D03*
X594000Y7350000D03*
X1018000Y7766000D03*
X1272000D03*
X1018000Y8020000D03*
X1272000D03*
X1526000Y7766000D03*
X1780000D03*
X1526000Y8020000D03*
X1780000D03*
X2034000Y7766000D03*
X2288000D03*
X2034000Y8020000D03*
X2288000D03*
X2542000Y7766000D03*
Y8020000D03*
X2796000Y7766000D03*
Y8020000D03*
X3050000Y7766000D03*
G54D21*
X2060000Y3285000D03*
Y3335000D03*
Y3385000D03*
Y3435000D03*
Y3485000D03*
Y3535000D03*
Y3585000D03*
Y3635000D03*
X2560000Y3285000D03*
Y3635000D03*
Y3585000D03*
Y3535000D03*
Y3485000D03*
Y3435000D03*
Y3385000D03*
Y3335000D03*
G54D30*
X4460000Y3655000D03*
Y3705000D03*
Y3755000D03*
Y3805000D03*
Y3855000D03*
Y3905000D03*
Y3955000D03*
Y4005000D03*
Y4055000D03*
Y4105000D03*
Y4155000D03*
Y4205000D03*
Y4255000D03*
Y4305000D03*
Y4355000D03*
Y4405000D03*
Y4455000D03*
Y4505000D03*
Y4555000D03*
Y4605000D03*
Y4655000D03*
Y4705000D03*
Y4755000D03*
Y4805000D03*
Y4855000D03*
Y4905000D03*
Y4955000D03*
Y5005000D03*
Y5055000D03*
Y5105000D03*
Y5155000D03*
Y5205000D03*
Y5255000D03*
Y5305000D03*
Y5355000D03*
Y5405000D03*
X6660000Y3855000D03*
Y3805000D03*
Y3755000D03*
Y3705000D03*
Y3655000D03*
Y4355000D03*
Y4305000D03*
Y4255000D03*
Y4205000D03*
Y4155000D03*
Y4105000D03*
Y4055000D03*
Y4005000D03*
Y3955000D03*
Y3905000D03*
Y4905000D03*
Y4855000D03*
Y4805000D03*
Y4755000D03*
Y4705000D03*
Y4655000D03*
Y4605000D03*
Y4555000D03*
Y4505000D03*
Y4455000D03*
Y4405000D03*
Y5405000D03*
Y5355000D03*
Y5305000D03*
Y5255000D03*
Y5205000D03*
Y5155000D03*
Y5105000D03*
Y5055000D03*
Y5005000D03*
Y4955000D03*
G54D13*
X340000Y7350000D03*
X3050000Y8020000D03*
G54D22*
X2385000Y3210000D03*
X2335000D03*
X2285000D03*
X2235000D03*
X2185000D03*
X2135000D03*
Y3710000D03*
X2185000D03*
X2235000D03*
X2285000D03*
X2335000D03*
X2385000D03*
X2485000Y3210000D03*
X2435000D03*
Y3710000D03*
X2485000D03*
G54D40*
X7620000Y1450000D03*
X9120000D03*
G54D31*
X4710000Y1525000D03*
X4790000D03*
X4870000D03*
X4950000D03*
X5030000D03*
Y2655000D03*
X4950000D03*
X4870000D03*
X4790000D03*
X4710000D03*
X5110000Y1525000D03*
X5190000D03*
X5270000D03*
X5350000D03*
X5430000D03*
X5510000D03*
X5590000D03*
Y2655000D03*
X5510000D03*
X5430000D03*
X5350000D03*
X5270000D03*
X5190000D03*
X5110000D03*
X5670000Y1525000D03*
X5750000D03*
X5830000D03*
X5910000D03*
X5990000D03*
X6070000D03*
X6150000D03*
Y2655000D03*
X6070000D03*
X5990000D03*
X5910000D03*
X5830000D03*
X5750000D03*
X5670000D03*
X6230000Y1525000D03*
X6310000D03*
X6390000D03*
Y2655000D03*
X6310000D03*
X6230000D03*
G54D14*
X1027500Y600000D03*
X1281500D03*
X1245000Y1725000D03*
X1372000Y1979000D03*
X1753000Y1725000D03*
X1499000D03*
X1880000Y1979000D03*
X1626000D03*
X2352500Y600000D03*
X2098500D03*
X2007000Y1725000D03*
X2134000Y1979000D03*
G54D23*
X2310000Y3460000D03*
G54D50*
X9790000Y2330000D03*
Y2590000D03*
Y2840000D03*
Y3080000D03*
Y4310000D03*
Y4570000D03*
Y4820000D03*
Y5060000D03*
G54D41*
X7430000Y5960000D03*
Y5810000D03*
Y6110000D03*
G54D32*
X5085000Y3430000D03*
X5035000D03*
X4985000D03*
X4935000D03*
X4885000D03*
X4835000D03*
X4785000D03*
X4735000D03*
X4685000D03*
Y5630000D03*
X4735000D03*
X4785000D03*
X4835000D03*
X4885000D03*
X4935000D03*
X4985000D03*
X5035000D03*
X5085000D03*
X5585000Y3430000D03*
X5535000D03*
X5485000D03*
X5435000D03*
X5385000D03*
X5335000D03*
X5285000D03*
X5235000D03*
X5185000D03*
X5135000D03*
Y5630000D03*
X5185000D03*
X5235000D03*
X5285000D03*
X5335000D03*
X5385000D03*
X5435000D03*
X5485000D03*
X5535000D03*
X5585000D03*
X6135000Y3430000D03*
X6085000D03*
X6035000D03*
X5985000D03*
X5935000D03*
X5885000D03*
X5835000D03*
X5785000D03*
X5735000D03*
X5685000D03*
X5635000D03*
Y5630000D03*
X5685000D03*
X5735000D03*
X5785000D03*
X5835000D03*
X5885000D03*
X5935000D03*
X5985000D03*
X6035000D03*
X6085000D03*
X6135000D03*
X6435000Y3430000D03*
X6385000D03*
X6335000D03*
X6285000D03*
X6235000D03*
X6185000D03*
Y5630000D03*
X6235000D03*
X6285000D03*
X6335000D03*
X6385000D03*
X6435000D03*
G54D51*
G01X6490000Y3570000D02*
X4600000D01*
Y5490000D01*
X6520000D01*
Y3570000D01*
X6480000D01*
G54D15*
X1118500Y1090000D03*
X2261500D03*
G54D42*
X8170000Y2360000D03*
Y3960000D03*
G54D24*
X3130000Y660000D03*
X4420000D03*
X5710000D03*
X7000000D03*
G54D33*
X5640000Y6549000D03*
Y6676000D03*
Y6803000D03*
Y6930000D03*
X6180000Y6549000D03*
Y6930000D03*
Y6803000D03*
Y6676000D03*
X7130000Y6549000D03*
Y6676000D03*
Y6803000D03*
Y6930000D03*
X7670000Y6549000D03*
Y6930000D03*
Y6803000D03*
Y6676000D03*
X8490000Y6759000D03*
Y6886000D03*
Y7013000D03*
Y7140000D03*
X9030000Y7013000D03*
Y6886000D03*
Y6759000D03*
Y7140000D03*
G54D52*
G01X840300Y5496500D02*
Y5623500D01*
G01D02*
X1119700D01*
Y5496500D01*
X840300D01*
G01X1119700Y5923500D02*
Y5796500D01*
G01D02*
X840300D01*
Y5923500D01*
X1119700D01*
G01X840300Y5646500D02*
X1119700D01*
G01Y5773500D02*
X840300D01*
G01X837760Y5646500D02*
G02Y5773500I73330J63500D01*
G01X1119700Y5646500D02*
G03Y5773500I-71651J63500D01*
G01X1362200Y6332200D02*
Y6433800D01*
X1344420Y6413480D01*
G01Y6332200D02*
X1379980D01*
G01X1119700Y6883500D02*
Y6756500D01*
G01D02*
X840300D01*
Y6883500D01*
X1119700D01*
G01Y7033500D02*
Y6906500D01*
G01D02*
X840300D01*
Y7033500D01*
X1119700D01*
G01X1693500Y2200300D02*
Y2479700D01*
G01X1566500D02*
Y2200300D01*
G01X1693500Y2197760D02*
G02X1566500I-63500J73330D01*
G01X1693500Y2479700D02*
G03X1566500I-63500J-71651D01*
G01X1749700Y3313500D02*
Y3186500D01*
G01D02*
X1470300D01*
Y3313500D01*
X1749700D01*
G01X1470300Y2886500D02*
X1749700D01*
G01Y3013500D02*
X1470300D01*
G01X1467760Y2886500D02*
G02Y3013500I73330J63500D01*
G01X1749700Y2886500D02*
G03Y3013500I-71651J63500D01*
G01Y3163500D02*
X1470300D01*
G01Y3036500D02*
X1749700D01*
G01X1752240Y3163500D02*
G02Y3036500I-73330J-63500D01*
G01X1470300Y3163500D02*
G03Y3036500I71651J-63500D01*
G01X1749700Y3843500D02*
Y3716500D01*
G01D02*
X1470300D01*
Y3843500D01*
X1749700D01*
G01X1470300Y3566500D02*
Y3693500D01*
G01D02*
X1749700D01*
Y3566500D01*
X1470300D01*
G01Y3416500D02*
Y3543500D01*
G01D02*
X1749700D01*
Y3416500D01*
X1470300D01*
G01X1749700Y3993500D02*
Y3866500D01*
G01D02*
X1470300D01*
Y3993500D01*
X1749700D01*
G01X1400300Y5966500D02*
Y6093500D01*
G01D02*
X1679700D01*
Y5966500D01*
X1400300D01*
G01X1790300D02*
Y6093500D01*
G01D02*
X2069700D01*
Y5966500D01*
X1790300D01*
G01X1400300Y5746500D02*
X1679700D01*
G01Y5873500D02*
X1400300D01*
G01X1397760Y5746500D02*
G02Y5873500I73330J63500D01*
G01X1679700Y5746500D02*
G03Y5873500I-71651J63500D01*
G01X1702350Y6416870D02*
X1711240Y6427030D01*
X1721610Y6432110D01*
X1733460Y6433800D01*
X1748280Y6430410D01*
X1758650Y6421950D01*
X1761620Y6411790D01*
X1760130Y6401620D01*
X1754210Y6393160D01*
X1724570Y6376230D01*
X1711240Y6364370D01*
X1702350Y6347440D01*
X1699380Y6332200D01*
X1761620D01*
G01X1489200Y6598900D02*
X1374900D01*
Y6433800D01*
X1705100D01*
Y6598900D01*
X1590800D01*
G01X1790300Y6116500D02*
Y6243500D01*
G01D02*
X2069700D01*
Y6116500D01*
X1790300D01*
G01Y6266500D02*
Y6393500D01*
G01D02*
X2069700D01*
Y6266500D01*
X1790300D01*
G01Y6416500D02*
Y6543500D01*
G01D02*
X2069700D01*
Y6416500D01*
X1790300D01*
G01X1400300Y6116500D02*
Y6243500D01*
G01D02*
X1679700D01*
Y6116500D01*
X1400300D01*
G01X1596300Y6631920D02*
X1605190Y6620060D01*
X1617050Y6613290D01*
X1630380Y6611600D01*
X1642240Y6613290D01*
X1654090Y6621760D01*
X1661500Y6631920D01*
X1662980Y6642080D01*
X1660020Y6653930D01*
X1649640Y6662400D01*
X1639270Y6665790D01*
X1625940D01*
G01X1639270D02*
X1648160Y6670870D01*
X1655570Y6679330D01*
X1658530Y6689490D01*
X1655570Y6699650D01*
X1648160Y6708120D01*
X1634830Y6713200D01*
X1621490Y6711510D01*
X1608160Y6704730D01*
G01X1790300Y6566500D02*
Y6693500D01*
G01D02*
X2069700D01*
Y6566500D01*
X1790300D01*
G01X2366500Y2479700D02*
Y2200300D01*
G01D02*
G03X2493500I63500J71651D01*
G01X2216500Y2479700D02*
Y2200300D01*
G01X2343500D02*
Y2479700D01*
G01X2216500Y2200300D02*
G03X2343500I63500J71651D01*
G01X2493500Y2580300D02*
X2366500D01*
G01D02*
Y2859700D01*
X2493500D01*
Y2580300D01*
G01X2343500D02*
X2216500D01*
G01D02*
Y2859700D01*
X2343500D01*
Y2580300D01*
G01X2143500D02*
X2016500D01*
G01D02*
Y2859700D01*
X2143500D01*
Y2580300D01*
G01X2366500Y2482240D02*
G02X2493500I63500J-73330D01*
G01X2216500D02*
G02X2343500I63500J-73330D01*
G01X2373500Y3930300D02*
X2246500D01*
G01D02*
Y4209700D01*
X2373500D01*
Y3930300D01*
G01X2523500D02*
X2396500D01*
G01D02*
Y4209700D01*
X2523500D01*
Y3930300D01*
G01Y4509700D02*
Y4230300D01*
X2396500D01*
Y4509700D01*
G01D02*
X2523500D01*
G01X2200300Y5466500D02*
Y5593500D01*
G01D02*
X2479700D01*
Y5466500D01*
X2200300D01*
G01Y5206500D02*
Y5333500D01*
G01D02*
X2479700D01*
Y5206500D01*
X2200300D01*
G01X2479700Y5183500D02*
X2200300D01*
G01Y5056500D02*
X2479700D01*
G01X2200300Y5183500D02*
G03Y5056500I71651J-63500D01*
G01X2493500Y2200300D02*
Y2479700D01*
G01X2693500Y2580300D02*
X2566500D01*
G01D02*
Y2859700D01*
X2693500D01*
Y2580300D01*
G01X2830300Y3226500D02*
X3109700D01*
G01X2830300Y3353500D02*
G03Y3226500I71651J-63500D01*
G01Y3526500D02*
Y3653500D01*
G01D02*
X3109700D01*
Y3526500D01*
X2830300D01*
G01X3109700Y3376500D02*
X2830300D01*
Y3503500D01*
X3109700D01*
G01Y3736500D02*
X2830300D01*
Y3863500D01*
X3109700D01*
G01Y3353500D02*
X2830300D01*
G01X2546500Y4209700D02*
X2673500D01*
G01D02*
Y3930300D01*
X2546500D01*
Y4209700D01*
G01X3109700Y3886500D02*
X2830300D01*
Y4013500D01*
X3109700D01*
G01X2482240Y5183500D02*
G02Y5056500I-73330J-63500D01*
G01X3477760Y3126500D02*
G02Y3253500I73330J63500D01*
G01X3112240Y3353500D02*
G02Y3226500I-73330J-63500D01*
G01X3109700Y3503500D02*
Y3376500D01*
G01Y3863500D02*
Y3736500D01*
G01Y4013500D02*
Y3886500D01*
G01X3040300Y5796500D02*
X3319700D01*
G01Y5923500D02*
X3040300D01*
G01X3037760Y5796500D02*
G02Y5923500I73330J63500D01*
G01X3319700Y5796500D02*
G03Y5923500I-71651J63500D01*
G01X3599700Y7586500D02*
X3320300D01*
Y7713500D01*
X3599700D01*
G01Y7746500D02*
X3320300D01*
Y7873500D01*
X3599700D01*
G01Y8033500D02*
X3320300D01*
G01Y7906500D02*
X3599700D01*
G01X3320300Y8033500D02*
G03Y7906500I71651J-63500D01*
G01X3863500Y1420300D02*
X3736500D01*
G01D02*
Y1699700D01*
X3863500D01*
Y1420300D01*
G01X4013500D02*
X3886500D01*
G01D02*
Y1699700D01*
X4013500D01*
Y1420300D01*
G01X3536500Y2439700D02*
Y2160300D01*
G01X3663500D02*
Y2439700D01*
G01X3536500Y2160300D02*
G03X3663500I63500J71651D01*
G01X3536500Y2079700D02*
Y1800300D01*
G01X3663500D02*
Y2079700D01*
G01X3536500Y2082240D02*
G02X3663500I63500J-73330D01*
G01X3536500Y1800300D02*
G03X3663500I63500J71651D01*
G01X3536500Y2442240D02*
G02X3663500I63500J-73330D01*
G01X3480300Y3286500D02*
Y3413500D01*
G01D02*
X3759700D01*
Y3286500D01*
X3480300D01*
G01Y3126500D02*
X3759700D01*
G01Y3253500D02*
X3480300D01*
G01X3759700Y3126500D02*
G03Y3253500I-71651J63500D01*
G01X4269700Y3683500D02*
X3990300D01*
G01Y3556500D02*
X4269700D01*
G01X3990300Y3683500D02*
G03Y3556500I71651J-63500D01*
G01X3980300Y4286500D02*
X4259700D01*
G01X3980300Y4413500D02*
G03Y4286500I71651J-63500D01*
G01X4259700Y4413500D02*
X3980300D01*
G01X3789700Y5553500D02*
Y5426500D01*
G01D02*
X3510300D01*
Y5553500D01*
X3789700D01*
G01Y5703500D02*
Y5576500D01*
G01D02*
X3510300D01*
Y5703500D01*
X3789700D01*
G01X4219700Y6956500D02*
X3940300D01*
Y7083500D01*
X4219700D01*
G01X3599700Y7713500D02*
Y7586500D01*
G01Y7873500D02*
Y7746500D01*
G01X3602240Y8033500D02*
G02Y7906500I-73330J-63500D01*
G01X4136500Y1699700D02*
Y1420300D01*
G01X4263500D02*
Y1699700D01*
G01X4136500Y1702240D02*
G02X4263500I63500J-73330D01*
G01X4136500Y1420300D02*
G03X4263500I63500J71651D01*
G01X4272240Y3683500D02*
G02Y3556500I-73330J-63500D01*
G01X4262240Y4413500D02*
G02Y4286500I-73330J-63500D01*
G01X4292200Y6772200D02*
Y6873800D01*
X4274420Y6853480D01*
G01Y6772200D02*
X4309980D01*
G01X4526300Y7071920D02*
X4535190Y7060060D01*
X4547050Y7053290D01*
X4560380Y7051600D01*
X4572240Y7053290D01*
X4584090Y7061760D01*
X4591500Y7071920D01*
X4592980Y7082080D01*
X4590020Y7093930D01*
X4579640Y7102400D01*
X4569270Y7105790D01*
X4555940D01*
G01X4569270D02*
X4578160Y7110870D01*
X4585570Y7119330D01*
X4588530Y7129490D01*
X4585570Y7139650D01*
X4578160Y7148120D01*
X4564830Y7153200D01*
X4551490Y7151510D01*
X4538160Y7144730D01*
G01X4419200Y7038900D02*
X4304900D01*
Y6873800D01*
X4635100D01*
Y7038900D01*
X4520800D01*
G01X4219700Y7083500D02*
Y6956500D01*
G01X4813500Y5800300D02*
Y6079700D01*
G01X4686500D02*
Y5800300D01*
G01X4813500Y5797760D02*
G02X4686500I-63500J73330D01*
G01X4813500Y6079700D02*
G03X4686500I-63500J-71651D01*
G01X4632350Y6856870D02*
X4641240Y6867030D01*
X4651610Y6872110D01*
X4663460Y6873800D01*
X4678280Y6870410D01*
X4688650Y6861950D01*
X4691620Y6851790D01*
X4690130Y6841620D01*
X4684210Y6833160D01*
X4654570Y6816230D01*
X4641240Y6804370D01*
X4632350Y6787440D01*
X4629380Y6772200D01*
X4691620D01*
G01X4690300Y6956500D02*
Y7083500D01*
G01D02*
X4969700D01*
Y6956500D01*
X4690300D01*
G01X5719700Y1363500D02*
X5440300D01*
G01Y1236500D02*
X5719700D01*
G01X5440300Y1363500D02*
G03Y1236500I71651J-63500D01*
G01X5480300Y2806500D02*
X5759700D01*
G01Y2933500D02*
X5480300D01*
G01X5477760Y2806500D02*
G02Y2933500I73330J63500D01*
G01X5266500Y3219700D02*
Y2940300D01*
G01X5393500D02*
Y3219700D01*
G01X5266500Y3222240D02*
G02X5393500I63500J-73330D01*
G01X5266500Y2940300D02*
G03X5393500I63500J71651D01*
G01X5553500Y5820300D02*
Y6099700D01*
G01X5426500D02*
Y5820300D01*
G01X5553500Y5817760D02*
G02X5426500I-63500J73330D01*
G01X5553500Y6099700D02*
G03X5426500I-63500J-71651D01*
G01X5210300Y6616500D02*
X5489700D01*
G01Y6743500D02*
X5210300D01*
G01X5207760Y6616500D02*
G02Y6743500I73330J63500D01*
G01X5489700Y6616500D02*
G03Y6743500I-71651J63500D01*
G01X5722240Y1363500D02*
G02Y1236500I-73330J-63500D01*
G01X6079700Y2933500D02*
Y2806500D01*
G01D02*
X5800300D01*
Y2933500D01*
X6079700D01*
G01X5759700Y2806500D02*
G03Y2933500I-71651J63500D01*
G01X5983500Y6060300D02*
Y6339700D01*
G01X5856500D02*
Y6060300D01*
G01X5983500Y6057760D02*
G02X5856500I-63500J73330D01*
G01X5983500Y6339700D02*
G03X5856500I-63500J-71651D01*
G01X6909700Y5943500D02*
X6630300D01*
G01Y5816500D02*
X6909700D01*
G01X6630300Y5943500D02*
G03Y5816500I71651J-63500D01*
G01X6592200Y6472200D02*
Y6573800D01*
X6574420Y6553480D01*
G01Y6472200D02*
X6609980D01*
G01X6630300Y6276500D02*
Y6403500D01*
G01D02*
X6909700D01*
Y6276500D01*
X6630300D01*
G01X6909700Y6203500D02*
X6630300D01*
G01Y6076500D02*
X6909700D01*
G01X6630300Y6203500D02*
G03Y6076500I71651J-63500D01*
G01X6719200Y6738900D02*
X6604900D01*
Y6573800D01*
X6935100D01*
Y6738900D01*
X6820800D01*
G01X6909700Y6866500D02*
X6630300D01*
Y6993500D01*
X6909700D01*
G01X6320300Y6866500D02*
Y6993500D01*
G01D02*
X6599700D01*
Y6866500D01*
X6320300D01*
G01X7263500Y2630300D02*
X7136500D01*
G01D02*
Y2909700D01*
X7263500D01*
Y2630300D01*
G01X7409700Y3756500D02*
X7130300D01*
Y3883500D01*
X7409700D01*
G01X7130300Y3546500D02*
X7409700D01*
G01Y3673500D02*
X7130300D01*
G01X7127760Y3546500D02*
G02Y3673500I73330J63500D01*
G01X7409700Y3906500D02*
X7130300D01*
Y4033500D01*
X7409700D01*
G01Y4056500D02*
X7130300D01*
Y4183500D01*
X7409700D01*
G01Y4206500D02*
X7130300D01*
Y4333500D01*
X7409700D01*
G01X7130300Y4356500D02*
X7409700D01*
G01X7127760D02*
G02Y4483500I73330J63500D01*
G01X7409700D02*
X7130300D01*
G01Y4736500D02*
X7409700D01*
G01Y4863500D02*
X7130300D01*
G01X7127760Y4736500D02*
G02Y4863500I73330J63500D01*
G01X7073500Y5090300D02*
Y5369700D01*
G01X6946500D02*
Y5090300D01*
G01X7073500Y5087760D02*
G02X6946500I-63500J73330D01*
G01X7073500Y5369700D02*
G03X6946500I-63500J-71651D01*
G01X6912240Y5943500D02*
G02Y5816500I-73330J-63500D01*
G01X6932350Y6556870D02*
X6941240Y6567030D01*
X6951610Y6572110D01*
X6963460Y6573800D01*
X6978280Y6570410D01*
X6988650Y6561950D01*
X6991620Y6551790D01*
X6990130Y6541620D01*
X6984210Y6533160D01*
X6954570Y6516230D01*
X6941240Y6504370D01*
X6932350Y6487440D01*
X6929380Y6472200D01*
X6991620D01*
G01X6912240Y6203500D02*
G02Y6076500I-73330J-63500D01*
G01X6826300Y6771920D02*
X6835190Y6760060D01*
X6847050Y6753290D01*
X6860380Y6751600D01*
X6872240Y6753290D01*
X6884090Y6761760D01*
X6891500Y6771920D01*
X6892980Y6782080D01*
X6890020Y6793930D01*
X6879640Y6802400D01*
X6869270Y6805790D01*
X6855940D01*
G01X6869270D02*
X6878160Y6810870D01*
X6885570Y6819330D01*
X6888530Y6829490D01*
X6885570Y6839650D01*
X6878160Y6848120D01*
X6864830Y6853200D01*
X6851490Y6851510D01*
X6838160Y6844730D01*
G01X6909700Y6993500D02*
Y6866500D01*
G01X7743500Y1660300D02*
Y1939700D01*
G01X7616500D02*
Y1660300D01*
G01X7743500Y1657760D02*
G02X7616500I-63500J73330D01*
G01X7743500Y2339700D02*
Y2060300D01*
X7616500D01*
Y2339700D01*
G01X7743500Y1939700D02*
G03X7616500I-63500J-71651D01*
G01Y2339700D02*
X7743500D01*
G01X7409700Y3883500D02*
Y3756500D01*
G01Y3546500D02*
G03Y3673500I-71651J63500D01*
G01Y4033500D02*
Y3906500D01*
G01Y4183500D02*
Y4056500D01*
G01Y4333500D02*
Y4206500D01*
G01Y4356500D02*
G03Y4483500I-71651J63500D01*
G01Y4736500D02*
G03Y4863500I-71651J63500D01*
G01X7980000Y400000D02*
G03I-50000J0D01*
G01X8246500Y1939700D02*
Y1660300D01*
G01D02*
G03X8373500I63500J71651D01*
G01X8246500Y1942240D02*
G02X8373500I63500J-73330D01*
G01X8469700Y5173500D02*
X8190300D01*
G01Y5046500D02*
X8469700D01*
G01X8190300Y5173500D02*
G03Y5046500I71651J-63500D01*
G01X7830300Y6516500D02*
Y6643500D01*
G01D02*
X8109700D01*
Y6516500D01*
X7830300D01*
G01X8200300D02*
Y6643500D01*
G01D02*
X8479700D01*
Y6516500D01*
X8200300D01*
G01Y6366500D02*
X8479700D01*
G01Y6493500D02*
X8200300D01*
G01X8197760Y6366500D02*
G02Y6493500I73330J63500D01*
G01X7830300Y6366500D02*
X8109700D01*
G01Y6493500D02*
X7830300D01*
G01X7827760Y6366500D02*
G02Y6493500I73330J63500D01*
G01X8109700Y6366500D02*
G03Y6493500I-71651J63500D01*
G01X8129700Y6993500D02*
X7850300D01*
G01Y6866500D02*
X8129700D01*
G01X8132240Y6993500D02*
G02Y6866500I-73330J-63500D01*
G01X7850300Y6993500D02*
G03Y6866500I71651J-63500D01*
G01X8780000Y400000D02*
G03I-50000J0D01*
G01X8373500Y1660300D02*
Y1939700D01*
G01X8420300Y4036500D02*
X8699700D01*
G01Y4163500D02*
X8420300D01*
G01X8417760Y4036500D02*
G02Y4163500I73330J63500D01*
G01X8699700Y4036500D02*
G03Y4163500I-71651J63500D01*
G01X8552040Y5048720D02*
G02Y5211280I106888J81280D01*
G01X8925420D02*
X8554580D01*
G01Y5048720D02*
X8925420D01*
G01X8554580Y5401280D02*
G03Y5238720I106888J-81280D01*
G01D02*
X8925420D01*
G01Y5401280D02*
X8554580D01*
G01X8472240Y5173500D02*
G02Y5046500I-73330J-63500D01*
G01X8479700Y6366500D02*
G03Y6493500I-71651J63500D01*
G01X8430300Y7426500D02*
Y7553500D01*
G01D02*
X8709700D01*
Y7426500D01*
X8430300D01*
G01Y7576500D02*
Y7703500D01*
G01D02*
X8709700D01*
Y7576500D01*
X8430300D01*
G01X9079700Y7426500D02*
X8800300D01*
Y7553500D01*
X9079700D01*
G01Y7576500D02*
X8800300D01*
Y7703500D01*
X9079700D01*
G01Y7403500D02*
X8800300D01*
G01Y7276500D02*
X9079700D01*
G01X8800300Y7403500D02*
G03Y7276500I71651J-63500D01*
G01X8430300D02*
X8709700D01*
G01Y7403500D02*
X8430300D01*
G01X8427760Y7276500D02*
G02Y7403500I73330J63500D01*
G01X8709700Y7276500D02*
G03Y7403500I-71651J63500D01*
G01Y7853500D02*
Y7726500D01*
G01D02*
X8430300D01*
Y7853500D01*
X8709700D01*
G01X8800300Y7726500D02*
Y7853500D01*
G01D02*
X9079700D01*
Y7726500D01*
X8800300D01*
G01X9030300Y2136500D02*
X9309700D01*
G01X9312240Y2263500D02*
G02Y2136500I-73330J-63500D01*
G01X9030300Y2263500D02*
G03Y2136500I71651J-63500D01*
G01X9309700Y2663500D02*
Y2536500D01*
G01D02*
X9030300D01*
Y2663500D01*
X9309700D01*
G01Y2813500D02*
Y2686500D01*
G01D02*
X9030300D01*
Y2813500D01*
X9309700D01*
G01Y2263500D02*
X9030300D01*
G01X9300300Y4036500D02*
X9579700D01*
G01Y4163500D02*
X9300300D01*
G01X9297760Y4036500D02*
G02Y4163500I73330J63500D01*
G01X9219700D02*
X8940300D01*
G01Y4036500D02*
X9219700D01*
G01X9222240Y4163500D02*
G02Y4036500I-73330J-63500D01*
G01X8940300Y4163500D02*
G03Y4036500I71651J-63500D01*
G01X8925420Y5048720D02*
G03Y5211280I-106888J81280D01*
G01X8927960Y5401280D02*
G02Y5238720I-106888J-81280D01*
G01X9253500Y5710300D02*
X9126500D01*
G01D02*
Y5989700D01*
X9253500D01*
Y5710300D01*
G01X9423500Y6020300D02*
X9296500D01*
G01D02*
Y6299700D01*
X9423500D01*
Y6020300D01*
G01X9253500D02*
X9126500D01*
G01D02*
Y6299700D01*
X9253500D01*
Y6020300D01*
G01X9373500Y6580300D02*
X9246500D01*
G01D02*
Y6859700D01*
X9373500D01*
Y6580300D01*
G01Y6910300D02*
Y7189700D01*
G01X9246500D02*
Y6910300D01*
G01X9373500Y6907760D02*
G02X9246500I-63500J73330D01*
G01X9079700Y7553500D02*
Y7426500D01*
G01Y7703500D02*
Y7576500D01*
G01X9082240Y7403500D02*
G02Y7276500I-73330J-63500D01*
G01X9373500Y7189700D02*
G03X9246500I-63500J-71651D01*
G01X9373500Y7260300D02*
Y7539700D01*
G01X9246500D02*
Y7260300D01*
G01X9373500Y7257760D02*
G02X9246500I-63500J73330D01*
G01X9373500Y7539700D02*
G03X9246500I-63500J-71651D01*
G01X9579700Y4036500D02*
G03Y4163500I-71651J63500D01*
G01X9790000Y6380000D02*
G02X9900000Y6490000I74616J35384D01*
G01X9820000Y6350000D02*
G03X9930000Y6460000I40403J69597D01*
G01D02*
X9820000Y6350000D01*
G01X9790000Y6380000D02*
X9900000Y6490000D01*
G54D43*
X8379000Y8010000D03*
G54D34*
X5528000Y8050000D03*
X6290000D03*
X7018000D03*
X7780000D03*
G54D16*
X915500Y1395000D03*
X2464500D03*
G54D25*
X3250000Y1950000D03*
Y2390000D03*
G54D53*
G01X9610000Y2510000D02*
G03I-30000J0D01*
G01Y2910000D02*
G03I-30000J0D01*
G01Y4490000D02*
G03I-30000J0D01*
G01Y4890000D02*
G03I-30000J0D01*
G54D17*
X1056200Y5560000D03*
X903800D03*
Y5860000D03*
X1056200D03*
X903800Y5710000D03*
X1056200D03*
X903800Y6820000D03*
X1056200D03*
X903800Y6970000D03*
X1056200D03*
X1533800Y3250000D03*
X1686200D03*
X1533800Y2950000D03*
X1686200D03*
Y3100000D03*
X1533800D03*
Y3780000D03*
X1686200D03*
Y3630000D03*
X1533800D03*
X1686200Y3480000D03*
X1533800D03*
Y3930000D03*
X1686200D03*
X1616200Y6030000D03*
X1463800D03*
X1853800D03*
X1463800Y5810000D03*
X1616200D03*
X1853800Y6180000D03*
Y6330000D03*
Y6480000D03*
X1616200Y6180000D03*
X1463800D03*
X1853800Y6630000D03*
X2416200Y5270000D03*
X2263800D03*
X2416200Y5120000D03*
X2263800D03*
X2006200Y6030000D03*
X2416200Y5530000D03*
X2263800D03*
X2006200Y6180000D03*
Y6330000D03*
Y6480000D03*
Y6630000D03*
X2893800Y3290000D03*
Y3590000D03*
Y3440000D03*
Y3800000D03*
Y3950000D03*
X3046200Y3290000D03*
Y3590000D03*
Y3440000D03*
Y3800000D03*
Y3950000D03*
X3103800Y5860000D03*
X3256200D03*
X3383800Y7650000D03*
Y7810000D03*
Y7970000D03*
X3696200Y3350000D03*
X3543800D03*
Y3190000D03*
X3696200D03*
X4043800Y4350000D03*
X3573800Y5490000D03*
X3726200D03*
X3573800Y5640000D03*
X3726200D03*
X4003800Y7020000D03*
X3536200Y7650000D03*
Y7810000D03*
Y7970000D03*
X4206200Y3620000D03*
X4053800D03*
X4196200Y4350000D03*
X4156200Y7020000D03*
X4906200D03*
X4753800D03*
X5656200Y1300000D03*
X5503800D03*
X5543800Y2870000D03*
X5273800Y6680000D03*
X5426200D03*
X5863800Y2870000D03*
X6016200D03*
X5696200D03*
X6693800Y5880000D03*
Y6340000D03*
Y6140000D03*
Y6930000D03*
X6536200D03*
X6383800D03*
X7193800Y3820000D03*
Y3610000D03*
Y3970000D03*
Y4120000D03*
Y4270000D03*
Y4420000D03*
Y4800000D03*
X6846200Y5880000D03*
Y6340000D03*
Y6140000D03*
Y6930000D03*
X7346200Y3820000D03*
Y3610000D03*
Y3970000D03*
Y4120000D03*
Y4270000D03*
Y4420000D03*
Y4800000D03*
X8253800Y5110000D03*
X8046200Y6580000D03*
X7893800D03*
X8263800D03*
Y6430000D03*
X7893800D03*
X8046200D03*
X8066200Y6930000D03*
X7913800D03*
X8483800Y4100000D03*
X8636200D03*
X8406200Y5110000D03*
X8416200Y6580000D03*
Y6430000D03*
X8646200Y7490000D03*
X8493800D03*
X8646200Y7640000D03*
X8493800D03*
X8863800Y7490000D03*
Y7640000D03*
Y7340000D03*
X8493800D03*
X8646200D03*
X8493800Y7790000D03*
X8646200D03*
X8863800D03*
X9246200Y2200000D03*
X9093800D03*
Y2600000D03*
X9246200D03*
X9093800Y2750000D03*
X9246200D03*
X9363800Y4100000D03*
X9156200D03*
X9003800D03*
X9016200Y7490000D03*
Y7640000D03*
Y7340000D03*
Y7790000D03*
X9516200Y4100000D03*
G54D44*
X8750000Y5560000D03*
X8520000D03*
X8980000D03*
G54D26*
X3130000Y1970000D03*
Y2050000D03*
Y2130000D03*
Y2210000D03*
X3370000D03*
Y2130000D03*
Y2050000D03*
Y1970000D03*
X3130000Y2290000D03*
Y2370000D03*
X3370000D03*
Y2290000D03*
G54D35*
X6115590Y6343220D03*
X6117300Y6130000D03*
X6460990Y6343220D03*
X6462700Y6130000D03*
G54D54*
G01X7493500Y5960000D02*
G03I-63500J0D01*
G01Y5810000D02*
G03I-63500J0D01*
G01Y6110000D02*
G03I-63500J0D01*
G01X8245000Y2800000D02*
G03I-75000J0D01*
G01Y3550000D02*
G03I-75000J0D01*
G01X9840000Y1177740D02*
X9842120Y1166480D01*
X9848460Y1153610D01*
X9859050Y1145570D01*
X9873870Y1142350D01*
X9888680Y1145570D01*
X9901380Y1155220D01*
X9907730Y1169700D01*
Y1185780D01*
X9911970Y1195440D01*
X9922550Y1203480D01*
X9937370Y1206700D01*
X9952180Y1201870D01*
X9962770Y1190610D01*
X9967000Y1177740D01*
X9962770Y1164870D01*
X9952180Y1153610D01*
X9937370Y1148780D01*
X9922550Y1152000D01*
X9911970Y1160040D01*
X9907730Y1169700D01*
Y1185780D01*
X9901380Y1200260D01*
X9888680Y1209910D01*
X9873870Y1213130D01*
X9859050Y1209910D01*
X9848460Y1201870D01*
X9842120Y1189000D01*
X9840000Y1177740D01*
G01X9945830Y1968310D02*
X9958530Y1958650D01*
X9964880Y1947390D01*
X9967000Y1934520D01*
X9962770Y1918440D01*
X9952180Y1907170D01*
X9939490Y1903960D01*
X9926780Y1905570D01*
X9916200Y1912000D01*
X9895030Y1944170D01*
X9880220Y1958650D01*
X9859050Y1968310D01*
X9840000Y1971520D01*
Y1903960D01*
G54D18*
X1630000Y2263800D03*
Y2416200D03*
X2430000Y2263800D03*
X2280000D03*
X2430000Y2796200D03*
Y2643800D03*
X2280000Y2796200D03*
Y2643800D03*
X2080000Y2796200D03*
Y2643800D03*
X2430000Y2416200D03*
X2280000D03*
X2310000Y4146200D03*
Y3993800D03*
X2630000Y2796200D03*
Y2643800D03*
X2610000Y3993800D03*
Y4146200D03*
X2460000D03*
Y3993800D03*
Y4293800D03*
Y4446200D03*
X3800000Y1636200D03*
Y1483800D03*
X3950000Y1636200D03*
Y1483800D03*
X3600000Y2223800D03*
Y2016200D03*
Y1863800D03*
Y2376200D03*
X4200000Y1636200D03*
Y1483800D03*
X4750000Y5863800D03*
Y6016200D03*
X5330000Y3156200D03*
Y3003800D03*
X5490000Y5883800D03*
Y6036200D03*
X5920000Y6123800D03*
Y6276200D03*
X7200000Y2693800D03*
Y2846200D03*
X7010000Y5153800D03*
Y5306200D03*
X7680000Y1723800D03*
Y2123800D03*
Y2276200D03*
Y1876200D03*
X8310000Y1723800D03*
Y1876200D03*
X9190000Y5926200D03*
Y5773800D03*
X9360000Y6236200D03*
Y6083800D03*
X9190000Y6236200D03*
Y6083800D03*
X9310000Y6796200D03*
Y6643800D03*
Y6973800D03*
Y7126200D03*
Y7323800D03*
Y7476200D03*
G54D45*
X8635860Y5130000D03*
X8844140D03*
Y5320000D03*
X8635860D03*
G54D27*
X3307000Y5420000D03*
X3053000D03*
Y5640000D03*
X3307000D03*
G54D36*
X7196500Y1653800D03*
X7069500D03*
Y2446200D03*
X7196500D03*
X7450500Y1653800D03*
X7323500D03*
Y2446200D03*
X7450500D03*
G54D55*
G01X560000Y1940000D02*
X180000D01*
Y2100000D01*
X560000D01*
Y1940000D01*
G01X2495000Y-2000D02*
X885000D01*
Y2128000D01*
X2495000D01*
Y-2000D01*
G01X1670000Y5630000D02*
X1570000D01*
Y5110000D01*
X1910000D01*
Y5630000D01*
X1810000D01*
G01D02*
G02X1670000I-70000J0D01*
G01X2050000Y3260000D02*
Y3200000D01*
X2110000D01*
G01X2050000Y3660000D02*
Y3720000D01*
X2110000D01*
G01X2610000Y1180000D02*
X3650000D01*
Y140000D01*
X2610000D01*
Y1180000D01*
G01X2510000Y3200000D02*
X2570000D01*
Y3260000D01*
G01Y3660000D02*
Y3720000D01*
X2510000D01*
G01X2910000Y5740000D02*
X3450000D01*
Y5320000D01*
X2910000D01*
Y5740000D01*
G01X3511620Y1970000D02*
G03I-31620J0D01*
G01X3494140D02*
G03I-14140J0D01*
G01X3400000Y1920000D02*
X3100000D01*
Y2420000D01*
X3400000D01*
Y1920000D01*
G01X3280000Y7900000D02*
Y8190000D01*
X3330000Y8140000D01*
X3230000D01*
X3280000Y8190000D01*
G01X3900000Y1180000D02*
X4940000D01*
Y140000D01*
X3900000D01*
Y1180000D01*
G01X3760000Y2010000D02*
X4260000D01*
G01X3760000D02*
Y2270000D01*
G01D02*
X4260000D01*
Y2180000D01*
G01X4890000Y7820000D02*
G03I-610000J0D01*
G01X3850000Y7890000D02*
Y7750000D01*
G01X3790000Y7820000D02*
X3920000D01*
G01D02*
G03I-70000J0D01*
G01X4260000Y2100000D02*
Y2010000D01*
G01Y2180000D02*
G03Y2100000I4108J-40000D01*
G01X4600000Y2490000D02*
Y1690000D01*
X6500000D01*
Y2490000D01*
X4600000D01*
G01X5190000Y1180000D02*
X6230000D01*
Y140000D01*
X5190000D01*
Y1180000D01*
G01X5490000Y7260000D02*
Y7510000D01*
X5240000D01*
G01Y7590000D02*
X5490000D01*
Y7840000D01*
G01X5820000Y7510000D02*
X5570000D01*
Y7260000D01*
G01Y7840000D02*
Y7590000D01*
X5820000D01*
G01X5828000Y7550000D02*
G03I-300000J0D01*
G01X5190000Y7100000D02*
Y8260000D01*
G01X6680000Y7100000D02*
X5140000D01*
Y8260000D01*
X6680000D01*
Y7100000D01*
G01X5780000Y6490000D02*
Y6990000D01*
X5870000D01*
G01X6040000Y6490000D02*
Y6990000D01*
G01Y6490000D02*
X5780000D01*
G01X6054590Y6254320D02*
X6016490D01*
Y6432120D01*
X6054590D01*
G01X6524490Y6254320D02*
X6054590D01*
Y6432120D01*
X6524490D01*
Y6254320D01*
G01X6056300Y6041100D02*
X6018200D01*
Y6218900D01*
X6056300D01*
G01X6526200Y6041100D02*
X6056300D01*
Y6218900D01*
X6526200D01*
Y6041100D01*
G01X5950000Y6990000D02*
X6040000D01*
G01X5870000D02*
G03X5950000I40000J4108D01*
G01X6000000Y7590000D02*
X6250000D01*
Y7840000D01*
G01Y7260000D02*
Y7510000D01*
X6000000D01*
G01X6590000Y7550000D02*
G03I-300000J0D01*
G01X5885000Y7100000D02*
Y8260000D01*
G01X5935000Y7100000D02*
Y8260000D01*
G01X6480000Y1180000D02*
X7520000D01*
Y140000D01*
X6480000D01*
Y1180000D01*
G01X6500000Y2160000D02*
G03Y2020000I-714J-70000D01*
G01X6257790Y6355920D02*
X6283190D01*
Y6317820D01*
X6295890Y6305120D01*
Y6394020D01*
X6321290D01*
Y6292420D01*
X6295890D01*
X6245090Y6343220D01*
X6333990Y6432120D01*
Y6254320D01*
X6245090Y6343220D01*
X6283190D01*
G01X6245090Y6254320D02*
Y6432120D01*
G01X6259500Y6142700D02*
X6284900D01*
Y6104600D01*
X6297600Y6091900D01*
Y6180800D01*
X6323000D01*
Y6079200D01*
X6297600D01*
X6246800Y6130000D01*
X6335700Y6218900D01*
Y6041100D01*
X6246800Y6130000D01*
X6284900D01*
G01X6246800Y6041100D02*
Y6218900D01*
G01X6680000Y7100000D02*
Y8260000D01*
G01X8170000Y7100000D02*
X6630000D01*
Y8260000D01*
X8170000D01*
Y7100000D01*
G01X6330000Y7840000D02*
Y7590000D01*
X6580000D01*
G01Y7510000D02*
X6330000D01*
Y7260000D01*
G01X6630000Y7100000D02*
Y8260000D01*
G01X7530000Y1970000D02*
Y1790000D01*
X6990000D01*
Y2310000D01*
X7530000D01*
Y2130000D01*
G01X7490000Y5250000D02*
X7110000D01*
Y5410000D01*
X7490000D01*
Y5250000D01*
G01Y5050000D02*
X7110000D01*
Y5210000D01*
X7490000D01*
Y5050000D01*
G01X7204300Y6200500D02*
Y5806800D01*
X6975700D01*
Y6213200D01*
X7204300D01*
Y6200500D01*
G01X6980000Y7260000D02*
Y7510000D01*
X6730000D01*
G01Y7590000D02*
X6980000D01*
Y7840000D01*
G01X7310000Y7510000D02*
X7060000D01*
Y7260000D01*
G01Y7840000D02*
Y7590000D01*
X7310000D01*
G01X7318000Y7550000D02*
G03I-300000J0D01*
G01X8430000Y1500000D02*
X7690000D01*
Y120000D01*
X8490000D01*
X8690000Y0D01*
X9166600Y1400D01*
Y1309500D01*
X9039600D01*
Y1500000D01*
X8430000D01*
G01X7530000Y2140000D02*
G03Y1960000I0J-90000D01*
G01X8970000Y3170000D02*
G03I-800000J0D01*
G01X8880000Y3620000D02*
Y3970000D01*
X7460000D01*
Y3620000D01*
X8880000D01*
G01X7270000Y6490000D02*
Y6990000D01*
X7360000D01*
G01X7530000Y6490000D02*
Y6990000D01*
G01Y6490000D02*
X7270000D01*
G01X7440000Y6990000D02*
X7530000D01*
G01X7360000D02*
G03X7440000I40000J4108D01*
G01X7490000Y7590000D02*
X7740000D01*
Y7840000D01*
G01Y7260000D02*
Y7510000D01*
X7490000D01*
G01X8080000Y7550000D02*
G03I-300000J0D01*
G01X7375000Y7100000D02*
Y8260000D01*
G01X7425000Y7100000D02*
Y8260000D01*
G01X8190000Y4700000D02*
G02Y4600000I1000J-50000D01*
G01D02*
Y4480000D01*
X9190000D01*
Y4820000D01*
X8190000D01*
Y4700000D01*
G01X7820000Y7840000D02*
Y7590000D01*
X8070000D01*
G01Y7510000D02*
X7820000D01*
Y7260000D01*
G01X8120000Y7100000D02*
Y8260000D01*
G01X8252000Y7883000D02*
Y8137000D01*
G01X9268000Y7883000D02*
X8252000D01*
G01Y8137000D02*
X9268000D01*
G01X8400000Y6310000D02*
X9100000D01*
Y5430000D01*
X8400000D01*
Y6310000D01*
G01X8630000Y6700000D02*
Y7200000D01*
X8720000D01*
G01X8890000Y6700000D02*
X8630000D01*
G01X8800000Y7200000D02*
X8890000D01*
G01X8720000D02*
G03X8800000I40000J4108D01*
G01X9300000Y2076000D02*
X9820000D01*
Y1036000D01*
X9300000D01*
G01X9293000Y2100000D02*
Y670000D01*
X11773000D01*
Y2100000D01*
X9293000D01*
G01X9001500Y1309500D02*
G03Y1258700I0J-25400D01*
G01X9166600Y1309500D02*
X9001500D01*
G01X9166600Y1258700D02*
X9001500D01*
G01X9060000Y4000000D02*
X9460000D01*
Y3680000D01*
X9060000D01*
Y4000000D01*
G01Y3840000D02*
X9240000D01*
Y3680000D01*
G01X9508920Y5057440D02*
X9011080D01*
Y5382560D01*
X9508920D01*
Y5057440D01*
G01X8890000Y6700000D02*
Y7200000D01*
G01X9268000Y8137000D02*
Y7883000D01*
G01X10030000Y2336000D02*
Y3076000D01*
X9530000D01*
Y2336000D01*
X10030000D01*
G01X9656000D02*
Y3067000D01*
G01X9890000Y2510000D02*
Y2910000D01*
X9700000D01*
Y2510000D01*
X9890000D01*
G01X9700000Y2670000D02*
X9890000D01*
G01X9700000Y2760000D02*
X9890000D01*
G01X10030000Y4316000D02*
Y5056000D01*
X9530000D01*
Y4316000D01*
X10030000D01*
G01X9656000D02*
Y5047000D01*
G01X9890000Y4490000D02*
Y4890000D01*
X9700000D01*
Y4490000D01*
X9890000D01*
G01X9700000Y4650000D02*
X9890000D01*
G01X9700000Y4740000D02*
X9890000D01*
G01X9450000Y5536000D02*
X9970000D01*
Y6526000D01*
X9450000D01*
Y5536000D01*
G01X9820000Y7390000D02*
G02Y6790000I-160000J-300000D01*
G01Y7390000D01*
G01X9410000Y6580000D02*
Y7600000D01*
X9830000D01*
Y6580000D01*
X9410000D01*
G01X11670000Y766000D02*
Y1016000D01*
X11420000D01*
Y1266000D01*
X11670000D01*
Y1516000D01*
X11420000D01*
Y1766000D01*
X11670000D01*
Y2016000D01*
X10920000D01*
G01X11170000D02*
Y1016000D01*
G54D46*
X8750000Y6180000D03*
G54D37*
X7090000Y5885000D03*
Y6135000D03*
G54D19*
X1460000Y5142500D03*
Y5207500D03*
Y5272500D03*
Y5337500D03*
Y5402500D03*
Y5467500D03*
Y5532500D03*
Y5597500D03*
X2020000Y5467500D03*
Y5402500D03*
Y5337500D03*
Y5272500D03*
Y5207500D03*
Y5142500D03*
Y5597500D03*
Y5532500D03*
G54D28*
X3946000Y1870000D03*
X3819000D03*
Y2410000D03*
X3946000D03*
X4200000Y1870000D03*
X4073000D03*
Y2410000D03*
X4200000D03*
X8245500Y4380000D03*
Y4920000D03*
X8880500Y4380000D03*
X8753500D03*
X8626500D03*
X8499500D03*
X8372500D03*
Y4920000D03*
X8499500D03*
X8626500D03*
X8753500D03*
X8880500D03*
X9134500Y4380000D03*
X9007500D03*
Y4920000D03*
X9134500D03*
G54D56*
G01X330000Y0D02*
X9670000D01*
G03X10000000Y330000I0J330000D01*
G01Y7970000D01*
G03X9670000Y8300000I-330000J0D01*
G01X330000D01*
G03X0Y7970000I0J-330000D01*
G01Y330000D01*
G03X330000Y0I330000J0D01*
G01X95330Y690000D02*
Y800000D01*
X130000Y708330D01*
X164670Y800000D01*
Y690000D01*
G01X192000D02*
Y800000D01*
G01X248000D02*
Y690000D01*
G01Y745000D02*
X192000D01*
G01X310000Y690000D02*
Y800000D01*
X294000Y778000D01*
G01Y690000D02*
X326000D01*
G01X33330Y7582000D02*
X40000Y7571000D01*
X48000Y7563670D01*
X57330Y7560000D01*
X68000Y7563670D01*
X76000Y7571000D01*
X84000Y7582000D01*
X86670Y7596670D01*
Y7670000D01*
G01X150000Y7560000D02*
Y7670000D01*
X134000Y7648000D01*
G01Y7560000D02*
X166000D01*
G01X613330Y2080000D02*
Y1970000D01*
X666670D01*
G01X700670Y1986500D02*
X708670Y1977330D01*
X718000Y1971830D01*
X730000Y1970000D01*
X742000Y1973670D01*
X751330Y1981000D01*
X758000Y1993830D01*
X759330Y2008500D01*
X756670Y2023170D01*
X750000Y2032330D01*
X740670Y2039670D01*
X731330Y2041500D01*
X722000Y2039670D01*
X710000Y2032330D01*
X714000Y2080000D01*
X750000D01*
G01X370000Y1969200D02*
Y2070800D01*
G01X505330Y7570000D02*
Y7680000D01*
X540000Y7588330D01*
X574670Y7680000D01*
Y7570000D01*
G01X602000D02*
Y7680000D01*
G01X658000D02*
Y7570000D01*
G01Y7625000D02*
X602000D01*
G01X736000Y7570000D02*
Y7680000D01*
X686670Y7601170D01*
X753330D01*
G01X623330Y8182000D02*
X630000Y8171000D01*
X638000Y8163670D01*
X647330Y8160000D01*
X658000Y8163670D01*
X666000Y8171000D01*
X674000Y8182000D01*
X676670Y8196670D01*
Y8270000D01*
G01X714670Y8251670D02*
X722670Y8262660D01*
X732000Y8268170D01*
X742670Y8270000D01*
X756000Y8266330D01*
X765330Y8257170D01*
X768000Y8246170D01*
X766670Y8235160D01*
X761330Y8226000D01*
X734670Y8207670D01*
X722670Y8194830D01*
X714670Y8176500D01*
X712000Y8160000D01*
X768000D01*
G01X873330Y2182000D02*
X880000Y2171000D01*
X888000Y2163670D01*
X897330Y2160000D01*
X908000Y2163670D01*
X916000Y2171000D01*
X924000Y2182000D01*
X926670Y2196670D01*
Y2270000D01*
G01X964670Y2205830D02*
X974000Y2218670D01*
X982000Y2226000D01*
X992670Y2229670D01*
X1002000Y2226000D01*
X1008670Y2218670D01*
X1014000Y2207670D01*
X1015330Y2194830D01*
X1014000Y2183830D01*
X1008670Y2172830D01*
X1000670Y2163670D01*
X991330Y2160000D01*
X980670Y2163670D01*
X971330Y2174660D01*
X966000Y2191170D01*
X964670Y2209500D01*
X967330Y2233330D01*
X971330Y2246170D01*
X978000Y2259000D01*
X987330Y2268170D01*
X996670Y2270000D01*
X1006000Y2266330D01*
X1012670Y2257170D01*
G01X1203330Y3190000D02*
Y3300000D01*
X1236670D01*
X1247330Y3294500D01*
X1254000Y3287170D01*
X1256670Y3272500D01*
X1254000Y3257830D01*
X1246000Y3248670D01*
X1236670Y3243170D01*
X1203330D01*
G01X1236670D02*
X1256670Y3190000D01*
G01X1336000D02*
Y3300000D01*
X1286670Y3221170D01*
X1353330D01*
G01X1384670Y3281670D02*
X1392670Y3292660D01*
X1402000Y3298170D01*
X1412670Y3300000D01*
X1426000Y3296330D01*
X1435330Y3287170D01*
X1438000Y3276170D01*
X1436670Y3265160D01*
X1431330Y3256000D01*
X1404670Y3237670D01*
X1392670Y3224830D01*
X1384670Y3206500D01*
X1382000Y3190000D01*
X1438000D01*
G01X1239330Y2990830D02*
X1231330Y2996330D01*
X1222000Y3000000D01*
X1211330D01*
X1199330Y2994500D01*
X1190000Y2985330D01*
X1183330Y2974330D01*
X1178000Y2956000D01*
X1176670Y2939500D01*
X1179330Y2923000D01*
X1183330Y2912000D01*
X1191330Y2901000D01*
X1200670Y2893670D01*
X1210000Y2890000D01*
X1219330D01*
X1228670Y2893670D01*
X1236670Y2899160D01*
X1243330Y2906500D01*
G01X1316000Y2890000D02*
Y3000000D01*
X1266670Y2921170D01*
X1333330D01*
G01X1360670Y2912000D02*
X1368670Y2899160D01*
X1379330Y2891830D01*
X1391330Y2890000D01*
X1402000Y2891830D01*
X1412670Y2901000D01*
X1419330Y2912000D01*
X1420670Y2923000D01*
X1418000Y2935830D01*
X1408670Y2945000D01*
X1399330Y2948670D01*
X1387330D01*
G01X1399330D02*
X1407330Y2954170D01*
X1414000Y2963330D01*
X1416670Y2974330D01*
X1414000Y2985330D01*
X1407330Y2994500D01*
X1395330Y3000000D01*
X1383330Y2998170D01*
X1371330Y2990830D01*
G01X1239330Y3140830D02*
X1231330Y3146330D01*
X1222000Y3150000D01*
X1211330D01*
X1199330Y3144500D01*
X1190000Y3135330D01*
X1183330Y3124330D01*
X1178000Y3106000D01*
X1176670Y3089500D01*
X1179330Y3073000D01*
X1183330Y3062000D01*
X1191330Y3051000D01*
X1200670Y3043670D01*
X1210000Y3040000D01*
X1219330D01*
X1228670Y3043670D01*
X1236670Y3049160D01*
X1243330Y3056500D01*
G01X1316000Y3040000D02*
Y3150000D01*
X1266670Y3071170D01*
X1333330D01*
G01X1390000Y3040000D02*
Y3150000D01*
X1374000Y3128000D01*
G01Y3040000D02*
X1406000D01*
G01X1203330Y3730000D02*
Y3840000D01*
X1236670D01*
X1247330Y3834500D01*
X1254000Y3827170D01*
X1256670Y3812500D01*
X1254000Y3797830D01*
X1246000Y3788670D01*
X1236670Y3783170D01*
X1203330D01*
G01X1236670D02*
X1256670Y3730000D01*
G01X1336000D02*
Y3840000D01*
X1286670Y3761170D01*
X1353330D01*
G01X1384670Y3775830D02*
X1394000Y3788670D01*
X1402000Y3796000D01*
X1412670Y3799670D01*
X1422000Y3796000D01*
X1428670Y3788670D01*
X1434000Y3777670D01*
X1435330Y3764830D01*
X1434000Y3753830D01*
X1428670Y3742830D01*
X1420670Y3733670D01*
X1411330Y3730000D01*
X1400670Y3733670D01*
X1391330Y3744660D01*
X1386000Y3761170D01*
X1384670Y3779500D01*
X1387330Y3803330D01*
X1391330Y3816170D01*
X1398000Y3829000D01*
X1407330Y3838170D01*
X1416670Y3840000D01*
X1426000Y3836330D01*
X1432670Y3827170D01*
G01X1203330Y3880000D02*
Y3990000D01*
X1236670D01*
X1247330Y3984500D01*
X1254000Y3977170D01*
X1256670Y3962500D01*
X1254000Y3947830D01*
X1246000Y3938670D01*
X1236670Y3933170D01*
X1203330D01*
G01X1236670D02*
X1256670Y3880000D01*
G01X1336000D02*
Y3990000D01*
X1286670Y3911170D01*
X1353330D01*
G01X1407330Y3880000D02*
X1410000Y3903830D01*
X1414000Y3924000D01*
X1419330Y3942330D01*
X1426000Y3962500D01*
X1436670Y3990000D01*
X1383330D01*
G01X1203330Y3580000D02*
Y3690000D01*
X1236670D01*
X1247330Y3684500D01*
X1254000Y3677170D01*
X1256670Y3662500D01*
X1254000Y3647830D01*
X1246000Y3638670D01*
X1236670Y3633170D01*
X1203330D01*
G01X1236670D02*
X1256670Y3580000D01*
G01X1336000D02*
Y3690000D01*
X1286670Y3611170D01*
X1353330D01*
G01X1410000Y3580000D02*
X1419330Y3581830D01*
X1430000Y3587330D01*
X1436670Y3596500D01*
X1439330Y3609330D01*
X1436670Y3622160D01*
X1428670Y3633170D01*
X1416670Y3638670D01*
X1403330D01*
X1395330Y3642330D01*
X1388670Y3651500D01*
X1386000Y3664330D01*
X1390000Y3677170D01*
X1399330Y3686330D01*
X1410000Y3690000D01*
X1420670Y3686330D01*
X1430000Y3677170D01*
X1434000Y3664330D01*
X1431330Y3651500D01*
X1424670Y3642330D01*
X1416670Y3638670D01*
X1403330D01*
X1391330Y3633170D01*
X1383330Y3622160D01*
X1380670Y3609330D01*
X1383330Y3596500D01*
X1390000Y3587330D01*
X1400670Y3581830D01*
X1410000Y3580000D01*
G01X1203330Y3430000D02*
Y3540000D01*
X1236670D01*
X1247330Y3534500D01*
X1254000Y3527170D01*
X1256670Y3512500D01*
X1254000Y3497830D01*
X1246000Y3488670D01*
X1236670Y3483170D01*
X1203330D01*
G01X1236670D02*
X1256670Y3430000D01*
G01X1336000D02*
Y3540000D01*
X1286670Y3461170D01*
X1353330D01*
G01X1387330Y3442830D02*
X1396670Y3433670D01*
X1407330Y3430000D01*
X1418000Y3433670D01*
X1427330Y3444660D01*
X1434000Y3461170D01*
X1436670Y3477670D01*
Y3497830D01*
X1434000Y3514330D01*
X1427330Y3529000D01*
X1419330Y3536330D01*
X1410000Y3540000D01*
X1399330Y3536330D01*
X1391330Y3529000D01*
X1386000Y3518000D01*
X1383330Y3503330D01*
X1386000Y3490500D01*
X1392670Y3477670D01*
X1400670Y3470330D01*
X1410000Y3468500D01*
X1420670Y3472160D01*
X1428670Y3481330D01*
X1436670Y3497830D01*
G01X853330Y5070000D02*
Y5180000D01*
X886670D01*
X897330Y5174500D01*
X904000Y5167170D01*
X906670Y5152500D01*
X904000Y5137830D01*
X896000Y5128670D01*
X886670Y5123170D01*
X853330D01*
G01X886670D02*
X906670Y5070000D01*
G01X970000D02*
Y5180000D01*
X954000Y5158000D01*
G01Y5070000D02*
X986000D01*
G01X1060000Y5180000D02*
X1049330Y5176330D01*
X1041330Y5167170D01*
X1036000Y5156170D01*
X1032000Y5141500D01*
X1030670Y5125000D01*
X1032000Y5108500D01*
X1036000Y5093830D01*
X1041330Y5082830D01*
X1049330Y5073670D01*
X1060000Y5070000D01*
X1070670Y5073670D01*
X1078670Y5082830D01*
X1084000Y5093830D01*
X1088000Y5108500D01*
X1089330Y5125000D01*
X1088000Y5141500D01*
X1084000Y5156170D01*
X1078670Y5167170D01*
X1070670Y5176330D01*
X1060000Y5180000D01*
G01X853330Y5350000D02*
Y5460000D01*
X886670D01*
X897330Y5454500D01*
X904000Y5447170D01*
X906670Y5432500D01*
X904000Y5417830D01*
X896000Y5408670D01*
X886670Y5403170D01*
X853330D01*
G01X886670D02*
X906670Y5350000D01*
G01X970000D02*
Y5460000D01*
X954000Y5438000D01*
G01Y5350000D02*
X986000D01*
G01X1057330D02*
X1060000Y5373830D01*
X1064000Y5394000D01*
X1069330Y5412330D01*
X1076000Y5432500D01*
X1086670Y5460000D01*
X1033330D01*
G01X909330Y5310830D02*
X901330Y5316330D01*
X892000Y5320000D01*
X881330D01*
X869330Y5314500D01*
X860000Y5305330D01*
X853330Y5294330D01*
X848000Y5276000D01*
X846670Y5259500D01*
X849330Y5243000D01*
X853330Y5232000D01*
X861330Y5221000D01*
X870670Y5213670D01*
X880000Y5210000D01*
X889330D01*
X898670Y5213670D01*
X906670Y5219160D01*
X913330Y5226500D01*
G01X970000Y5210000D02*
Y5320000D01*
X954000Y5298000D01*
G01Y5210000D02*
X986000D01*
G01X1060000Y5320000D02*
X1049330Y5316330D01*
X1041330Y5307170D01*
X1036000Y5296170D01*
X1032000Y5281500D01*
X1030670Y5265000D01*
X1032000Y5248500D01*
X1036000Y5233830D01*
X1041330Y5222830D01*
X1049330Y5213670D01*
X1060000Y5210000D01*
X1070670Y5213670D01*
X1078670Y5222830D01*
X1084000Y5233830D01*
X1088000Y5248500D01*
X1089330Y5265000D01*
X1088000Y5281500D01*
X1084000Y5296170D01*
X1078670Y5307170D01*
X1070670Y5316330D01*
X1060000Y5320000D01*
G01X1133330Y5970000D02*
Y6080000D01*
X1166670D01*
X1177330Y6074500D01*
X1184000Y6067170D01*
X1186670Y6052500D01*
X1184000Y6037830D01*
X1176000Y6028670D01*
X1166670Y6023170D01*
X1133330D01*
G01X1166670D02*
X1186670Y5970000D01*
G01X1224670Y6015830D02*
X1234000Y6028670D01*
X1242000Y6036000D01*
X1252670Y6039670D01*
X1262000Y6036000D01*
X1268670Y6028670D01*
X1274000Y6017670D01*
X1275330Y6004830D01*
X1274000Y5993830D01*
X1268670Y5982830D01*
X1260670Y5973670D01*
X1251330Y5970000D01*
X1240670Y5973670D01*
X1231330Y5984660D01*
X1226000Y6001170D01*
X1224670Y6019500D01*
X1227330Y6043330D01*
X1231330Y6056170D01*
X1238000Y6069000D01*
X1247330Y6078170D01*
X1256670Y6080000D01*
X1266000Y6076330D01*
X1272670Y6067170D01*
G01X1314670Y6015830D02*
X1324000Y6028670D01*
X1332000Y6036000D01*
X1342670Y6039670D01*
X1352000Y6036000D01*
X1358670Y6028670D01*
X1364000Y6017670D01*
X1365330Y6004830D01*
X1364000Y5993830D01*
X1358670Y5982830D01*
X1350670Y5973670D01*
X1341330Y5970000D01*
X1330670Y5973670D01*
X1321330Y5984660D01*
X1316000Y6001170D01*
X1314670Y6019500D01*
X1317330Y6043330D01*
X1321330Y6056170D01*
X1328000Y6069000D01*
X1337330Y6078170D01*
X1346670Y6080000D01*
X1356000Y6076330D01*
X1362670Y6067170D01*
G01X1200000Y6470000D02*
X1189330Y6471830D01*
X1180000Y6479160D01*
X1172000Y6490170D01*
X1166670Y6503000D01*
X1164000Y6517670D01*
Y6532330D01*
X1166670Y6547000D01*
X1172000Y6559830D01*
X1180000Y6570830D01*
X1189330Y6578170D01*
X1200000Y6580000D01*
X1210670Y6578170D01*
X1220000Y6570830D01*
X1228000Y6559830D01*
X1233330Y6547000D01*
X1236000Y6532330D01*
Y6517670D01*
X1233330Y6503000D01*
X1228000Y6490170D01*
X1220000Y6479160D01*
X1210670Y6471830D01*
X1200000Y6470000D01*
G01X1210670Y6499330D02*
X1226670Y6470000D01*
G01X1260670Y6492000D02*
X1268670Y6479160D01*
X1279330Y6471830D01*
X1291330Y6470000D01*
X1302000Y6471830D01*
X1312670Y6481000D01*
X1319330Y6492000D01*
X1320670Y6503000D01*
X1318000Y6515830D01*
X1308670Y6525000D01*
X1299330Y6528670D01*
X1287330D01*
G01X1299330D02*
X1307330Y6534170D01*
X1314000Y6543330D01*
X1316670Y6554330D01*
X1314000Y6565330D01*
X1307330Y6574500D01*
X1295330Y6580000D01*
X1283330Y6578170D01*
X1271330Y6570830D01*
G01X1133330Y6120000D02*
Y6230000D01*
X1166670D01*
X1177330Y6224500D01*
X1184000Y6217170D01*
X1186670Y6202500D01*
X1184000Y6187830D01*
X1176000Y6178670D01*
X1166670Y6173170D01*
X1133330D01*
G01X1166670D02*
X1186670Y6120000D01*
G01X1224670Y6165830D02*
X1234000Y6178670D01*
X1242000Y6186000D01*
X1252670Y6189670D01*
X1262000Y6186000D01*
X1268670Y6178670D01*
X1274000Y6167670D01*
X1275330Y6154830D01*
X1274000Y6143830D01*
X1268670Y6132830D01*
X1260670Y6123670D01*
X1251330Y6120000D01*
X1240670Y6123670D01*
X1231330Y6134660D01*
X1226000Y6151170D01*
X1224670Y6169500D01*
X1227330Y6193330D01*
X1231330Y6206170D01*
X1238000Y6219000D01*
X1247330Y6228170D01*
X1256670Y6230000D01*
X1266000Y6226330D01*
X1272670Y6217170D01*
G01X1337330Y6120000D02*
X1340000Y6143830D01*
X1344000Y6164000D01*
X1349330Y6182330D01*
X1356000Y6202500D01*
X1366670Y6230000D01*
X1313330D01*
G01X863330Y6460000D02*
Y6570000D01*
X896670D01*
X907330Y6564500D01*
X914000Y6557170D01*
X916670Y6542500D01*
X914000Y6527830D01*
X906000Y6518670D01*
X896670Y6513170D01*
X863330D01*
G01X896670D02*
X916670Y6460000D01*
G01X980000D02*
Y6570000D01*
X964000Y6548000D01*
G01Y6460000D02*
X996000D01*
G01X1044670Y6505830D02*
X1054000Y6518670D01*
X1062000Y6526000D01*
X1072670Y6529670D01*
X1082000Y6526000D01*
X1088670Y6518670D01*
X1094000Y6507670D01*
X1095330Y6494830D01*
X1094000Y6483830D01*
X1088670Y6472830D01*
X1080670Y6463670D01*
X1071330Y6460000D01*
X1060670Y6463670D01*
X1051330Y6474660D01*
X1046000Y6491170D01*
X1044670Y6509500D01*
X1047330Y6533330D01*
X1051330Y6546170D01*
X1058000Y6559000D01*
X1067330Y6568170D01*
X1076670Y6570000D01*
X1086000Y6566330D01*
X1092670Y6557170D01*
G01X863330Y6610000D02*
Y6720000D01*
X896670D01*
X907330Y6714500D01*
X914000Y6707170D01*
X916670Y6692500D01*
X914000Y6677830D01*
X906000Y6668670D01*
X896670Y6663170D01*
X863330D01*
G01X896670D02*
X916670Y6610000D01*
G01X980000D02*
Y6720000D01*
X964000Y6698000D01*
G01Y6610000D02*
X996000D01*
G01X1047330Y6622830D02*
X1056670Y6613670D01*
X1067330Y6610000D01*
X1078000Y6613670D01*
X1087330Y6624660D01*
X1094000Y6641170D01*
X1096670Y6657670D01*
Y6677830D01*
X1094000Y6694330D01*
X1087330Y6709000D01*
X1079330Y6716330D01*
X1070000Y6720000D01*
X1059330Y6716330D01*
X1051330Y6709000D01*
X1046000Y6698000D01*
X1043330Y6683330D01*
X1046000Y6670500D01*
X1052670Y6657670D01*
X1060670Y6650330D01*
X1070000Y6648500D01*
X1080670Y6652160D01*
X1088670Y6661330D01*
X1096670Y6677830D01*
G01X1739170Y2279330D02*
X1733670Y2271330D01*
X1730000Y2262000D01*
Y2251330D01*
X1735500Y2239330D01*
X1744670Y2230000D01*
X1755670Y2223330D01*
X1774000Y2218000D01*
X1790500Y2216670D01*
X1807000Y2219330D01*
X1818000Y2223330D01*
X1829000Y2231330D01*
X1836330Y2240670D01*
X1840000Y2250000D01*
Y2259330D01*
X1836330Y2268670D01*
X1830840Y2276670D01*
X1823500Y2283330D01*
G01X1840000Y2356000D02*
X1730000D01*
X1808830Y2306670D01*
Y2373330D01*
G01X1794170Y2404670D02*
X1781330Y2414000D01*
X1774000Y2422000D01*
X1770330Y2432670D01*
X1774000Y2442000D01*
X1781330Y2448670D01*
X1792330Y2454000D01*
X1805170Y2455330D01*
X1816170Y2454000D01*
X1827170Y2448670D01*
X1836330Y2440670D01*
X1840000Y2431330D01*
X1836330Y2420670D01*
X1825340Y2411330D01*
X1808830Y2406000D01*
X1790500Y2404670D01*
X1766670Y2407330D01*
X1753830Y2411330D01*
X1741000Y2418000D01*
X1731830Y2427330D01*
X1730000Y2436670D01*
X1733670Y2446000D01*
X1742830Y2452670D01*
G01X1910000Y3963330D02*
X1800000D01*
Y3996670D01*
X1805500Y4007330D01*
X1812830Y4014000D01*
X1827500Y4016670D01*
X1842170Y4014000D01*
X1851330Y4006000D01*
X1856830Y3996670D01*
Y3963330D01*
G01Y3996670D02*
X1910000Y4016670D01*
G01X1893500Y4050670D02*
X1902670Y4058670D01*
X1908170Y4068000D01*
X1910000Y4080000D01*
X1906330Y4092000D01*
X1899000Y4101330D01*
X1886170Y4108000D01*
X1871500Y4109330D01*
X1856830Y4106670D01*
X1847670Y4100000D01*
X1840330Y4090670D01*
X1838500Y4081330D01*
X1840330Y4072000D01*
X1847670Y4060000D01*
X1800000Y4064000D01*
Y4100000D01*
G01X1910000Y4170000D02*
X1800000D01*
X1822000Y4154000D01*
G01X1910000D02*
Y4186000D01*
G01X1630670Y5070000D02*
Y4991170D01*
X1636000Y4974660D01*
X1646670Y4963670D01*
X1660000Y4960000D01*
X1673330Y4963670D01*
X1684000Y4974660D01*
X1689330Y4991170D01*
Y5070000D01*
G01X1750000Y4960000D02*
Y5070000D01*
X1734000Y5048000D01*
G01Y4960000D02*
X1766000D01*
G01X1814670Y5005830D02*
X1824000Y5018670D01*
X1832000Y5026000D01*
X1842670Y5029670D01*
X1852000Y5026000D01*
X1858670Y5018670D01*
X1864000Y5007670D01*
X1865330Y4994830D01*
X1864000Y4983830D01*
X1858670Y4972830D01*
X1850670Y4963670D01*
X1841330Y4960000D01*
X1830670Y4963670D01*
X1821330Y4974660D01*
X1816000Y4991170D01*
X1814670Y5009500D01*
X1817330Y5033330D01*
X1821330Y5046170D01*
X1828000Y5059000D01*
X1837330Y5068170D01*
X1846670Y5070000D01*
X1856000Y5066330D01*
X1862670Y5057170D01*
G01X1809330Y5860830D02*
X1801330Y5866330D01*
X1792000Y5870000D01*
X1781330D01*
X1769330Y5864500D01*
X1760000Y5855330D01*
X1753330Y5844330D01*
X1748000Y5826000D01*
X1746670Y5809500D01*
X1749330Y5793000D01*
X1753330Y5782000D01*
X1761330Y5771000D01*
X1770670Y5763670D01*
X1780000Y5760000D01*
X1789330D01*
X1798670Y5763670D01*
X1806670Y5769160D01*
X1813330Y5776500D01*
G01X1886000Y5760000D02*
Y5870000D01*
X1836670Y5791170D01*
X1903330D01*
G01X1960000Y5870000D02*
X1949330Y5866330D01*
X1941330Y5857170D01*
X1936000Y5846170D01*
X1932000Y5831500D01*
X1930670Y5815000D01*
X1932000Y5798500D01*
X1936000Y5783830D01*
X1941330Y5772830D01*
X1949330Y5763670D01*
X1960000Y5760000D01*
X1970670Y5763670D01*
X1978670Y5772830D01*
X1984000Y5783830D01*
X1988000Y5798500D01*
X1989330Y5815000D01*
X1988000Y5831500D01*
X1984000Y5846170D01*
X1978670Y5857170D01*
X1970670Y5866330D01*
X1960000Y5870000D01*
G01X2480000Y2893330D02*
X2370000D01*
Y2926670D01*
X2375500Y2937330D01*
X2382830Y2944000D01*
X2397500Y2946670D01*
X2412170Y2944000D01*
X2421330Y2936000D01*
X2426830Y2926670D01*
Y2893330D01*
G01Y2926670D02*
X2480000Y2946670D01*
G01X2463500Y2980670D02*
X2472670Y2988670D01*
X2478170Y2998000D01*
X2480000Y3010000D01*
X2476330Y3022000D01*
X2469000Y3031330D01*
X2456170Y3038000D01*
X2441500Y3039330D01*
X2426830Y3036670D01*
X2417670Y3030000D01*
X2410330Y3020670D01*
X2408500Y3011330D01*
X2410330Y3002000D01*
X2417670Y2990000D01*
X2370000Y2994000D01*
Y3030000D01*
G01X2463500Y3070670D02*
X2472670Y3078670D01*
X2478170Y3088000D01*
X2480000Y3100000D01*
X2476330Y3112000D01*
X2469000Y3121330D01*
X2456170Y3128000D01*
X2441500Y3129330D01*
X2426830Y3126670D01*
X2417670Y3120000D01*
X2410330Y3110670D01*
X2408500Y3101330D01*
X2410330Y3092000D01*
X2417670Y3080000D01*
X2370000Y3084000D01*
Y3120000D01*
G01X2330000Y2893330D02*
X2220000D01*
Y2926670D01*
X2225500Y2937330D01*
X2232830Y2944000D01*
X2247500Y2946670D01*
X2262170Y2944000D01*
X2271330Y2936000D01*
X2276830Y2926670D01*
Y2893330D01*
G01Y2926670D02*
X2330000Y2946670D01*
G01X2313500Y2980670D02*
X2322670Y2988670D01*
X2328170Y2998000D01*
X2330000Y3010000D01*
X2326330Y3022000D01*
X2319000Y3031330D01*
X2306170Y3038000D01*
X2291500Y3039330D01*
X2276830Y3036670D01*
X2267670Y3030000D01*
X2260330Y3020670D01*
X2258500Y3011330D01*
X2260330Y3002000D01*
X2267670Y2990000D01*
X2220000Y2994000D01*
Y3030000D01*
G01X2284170Y3074670D02*
X2271330Y3084000D01*
X2264000Y3092000D01*
X2260330Y3102670D01*
X2264000Y3112000D01*
X2271330Y3118670D01*
X2282330Y3124000D01*
X2295170Y3125330D01*
X2306170Y3124000D01*
X2317170Y3118670D01*
X2326330Y3110670D01*
X2330000Y3101330D01*
X2326330Y3090670D01*
X2315340Y3081330D01*
X2298830Y3076000D01*
X2280500Y3074670D01*
X2256670Y3077330D01*
X2243830Y3081330D01*
X2231000Y3088000D01*
X2221830Y3097330D01*
X2220000Y3106670D01*
X2223670Y3116000D01*
X2232830Y3122670D01*
G01X2130000Y2893330D02*
X2020000D01*
Y2926670D01*
X2025500Y2937330D01*
X2032830Y2944000D01*
X2047500Y2946670D01*
X2062170Y2944000D01*
X2071330Y2936000D01*
X2076830Y2926670D01*
Y2893330D01*
G01Y2926670D02*
X2130000Y2946670D01*
G01X2113500Y2980670D02*
X2122670Y2988670D01*
X2128170Y2998000D01*
X2130000Y3010000D01*
X2126330Y3022000D01*
X2119000Y3031330D01*
X2106170Y3038000D01*
X2091500Y3039330D01*
X2076830Y3036670D01*
X2067670Y3030000D01*
X2060330Y3020670D01*
X2058500Y3011330D01*
X2060330Y3002000D01*
X2067670Y2990000D01*
X2020000Y2994000D01*
Y3030000D01*
G01X2130000Y3097330D02*
X2106170Y3100000D01*
X2086000Y3104000D01*
X2067670Y3109330D01*
X2047500Y3116000D01*
X2020000Y3126670D01*
Y3073330D01*
G01X2000670Y3900000D02*
Y3821170D01*
X2006000Y3804660D01*
X2016670Y3793670D01*
X2030000Y3790000D01*
X2043330Y3793670D01*
X2054000Y3804660D01*
X2059330Y3821170D01*
Y3900000D01*
G01X2120000Y3790000D02*
Y3900000D01*
X2104000Y3878000D01*
G01Y3790000D02*
X2136000D01*
G01X2207330D02*
X2210000Y3813830D01*
X2214000Y3834000D01*
X2219330Y3852330D01*
X2226000Y3872500D01*
X2236670Y3900000D01*
X2183330D01*
G01X2210000Y3963330D02*
X2100000D01*
Y3996670D01*
X2105500Y4007330D01*
X2112830Y4014000D01*
X2127500Y4016670D01*
X2142170Y4014000D01*
X2151330Y4006000D01*
X2156830Y3996670D01*
Y3963330D01*
G01Y3996670D02*
X2210000Y4016670D01*
G01X2193500Y4050670D02*
X2202670Y4058670D01*
X2208170Y4068000D01*
X2210000Y4080000D01*
X2206330Y4092000D01*
X2199000Y4101330D01*
X2186170Y4108000D01*
X2171500Y4109330D01*
X2156830Y4106670D01*
X2147670Y4100000D01*
X2140330Y4090670D01*
X2138500Y4081330D01*
X2140330Y4072000D01*
X2147670Y4060000D01*
X2100000Y4064000D01*
Y4100000D01*
G01Y4170000D02*
X2103670Y4159330D01*
X2112830Y4151330D01*
X2123830Y4146000D01*
X2138500Y4142000D01*
X2155000Y4140670D01*
X2171500Y4142000D01*
X2186170Y4146000D01*
X2197170Y4151330D01*
X2206330Y4159330D01*
X2210000Y4170000D01*
X2206330Y4180670D01*
X2197170Y4188670D01*
X2186170Y4194000D01*
X2171500Y4198000D01*
X2155000Y4199330D01*
X2138500Y4198000D01*
X2123830Y4194000D01*
X2112830Y4188670D01*
X2103670Y4180670D01*
X2100000Y4170000D01*
G01X2060000Y3963330D02*
X1950000D01*
Y3996670D01*
X1955500Y4007330D01*
X1962830Y4014000D01*
X1977500Y4016670D01*
X1992170Y4014000D01*
X2001330Y4006000D01*
X2006830Y3996670D01*
Y3963330D01*
G01Y3996670D02*
X2060000Y4016670D01*
G01X2043500Y4050670D02*
X2052670Y4058670D01*
X2058170Y4068000D01*
X2060000Y4080000D01*
X2056330Y4092000D01*
X2049000Y4101330D01*
X2036170Y4108000D01*
X2021500Y4109330D01*
X2006830Y4106670D01*
X1997670Y4100000D01*
X1990330Y4090670D01*
X1988500Y4081330D01*
X1990330Y4072000D01*
X1997670Y4060000D01*
X1950000Y4064000D01*
Y4100000D01*
G01X1968330Y4144670D02*
X1957340Y4152670D01*
X1951830Y4162000D01*
X1950000Y4172670D01*
X1953670Y4186000D01*
X1962830Y4195330D01*
X1973830Y4198000D01*
X1984840Y4196670D01*
X1994000Y4191330D01*
X2012330Y4164670D01*
X2025170Y4152670D01*
X2043500Y4144670D01*
X2060000Y4142000D01*
Y4198000D01*
G01Y4253330D02*
X1950000D01*
Y4286670D01*
X1955500Y4297330D01*
X1962830Y4304000D01*
X1977500Y4306670D01*
X1992170Y4304000D01*
X2001330Y4296000D01*
X2006830Y4286670D01*
Y4253330D01*
G01Y4286670D02*
X2060000Y4306670D01*
G01Y4370000D02*
X1950000D01*
X1972000Y4354000D01*
G01X2060000D02*
Y4386000D01*
G01X2038000Y4430670D02*
X2050840Y4438670D01*
X2058170Y4449330D01*
X2060000Y4461330D01*
X2058170Y4472000D01*
X2049000Y4482670D01*
X2038000Y4489330D01*
X2027000Y4490670D01*
X2014170Y4488000D01*
X2005000Y4478670D01*
X2001330Y4469330D01*
Y4457330D01*
G01Y4469330D02*
X1995830Y4477330D01*
X1986670Y4484000D01*
X1975670Y4486670D01*
X1964670Y4484000D01*
X1955500Y4477330D01*
X1950000Y4465330D01*
X1951830Y4453330D01*
X1959170Y4441330D01*
G01X2163330Y5980000D02*
Y6090000D01*
X2196670D01*
X2207330Y6084500D01*
X2214000Y6077170D01*
X2216670Y6062500D01*
X2214000Y6047830D01*
X2206000Y6038670D01*
X2196670Y6033170D01*
X2163330D01*
G01X2196670D02*
X2216670Y5980000D01*
G01X2250670Y5996500D02*
X2258670Y5987330D01*
X2268000Y5981830D01*
X2280000Y5980000D01*
X2292000Y5983670D01*
X2301330Y5991000D01*
X2308000Y6003830D01*
X2309330Y6018500D01*
X2306670Y6033170D01*
X2300000Y6042330D01*
X2290670Y6049670D01*
X2281330Y6051500D01*
X2272000Y6049670D01*
X2260000Y6042330D01*
X2264000Y6090000D01*
X2300000D01*
G01X2347330Y5992830D02*
X2356670Y5983670D01*
X2367330Y5980000D01*
X2378000Y5983670D01*
X2387330Y5994660D01*
X2394000Y6011170D01*
X2396670Y6027670D01*
Y6047830D01*
X2394000Y6064330D01*
X2387330Y6079000D01*
X2379330Y6086330D01*
X2370000Y6090000D01*
X2359330Y6086330D01*
X2351330Y6079000D01*
X2346000Y6068000D01*
X2343330Y6053330D01*
X2346000Y6040500D01*
X2352670Y6027670D01*
X2360670Y6020330D01*
X2370000Y6018500D01*
X2380670Y6022160D01*
X2388670Y6031330D01*
X2396670Y6047830D01*
G01X2163330Y6130000D02*
Y6240000D01*
X2196670D01*
X2207330Y6234500D01*
X2214000Y6227170D01*
X2216670Y6212500D01*
X2214000Y6197830D01*
X2206000Y6188670D01*
X2196670Y6183170D01*
X2163330D01*
G01X2196670D02*
X2216670Y6130000D01*
G01X2254670Y6175830D02*
X2264000Y6188670D01*
X2272000Y6196000D01*
X2282670Y6199670D01*
X2292000Y6196000D01*
X2298670Y6188670D01*
X2304000Y6177670D01*
X2305330Y6164830D01*
X2304000Y6153830D01*
X2298670Y6142830D01*
X2290670Y6133670D01*
X2281330Y6130000D01*
X2270670Y6133670D01*
X2261330Y6144660D01*
X2256000Y6161170D01*
X2254670Y6179500D01*
X2257330Y6203330D01*
X2261330Y6216170D01*
X2268000Y6229000D01*
X2277330Y6238170D01*
X2286670Y6240000D01*
X2296000Y6236330D01*
X2302670Y6227170D01*
G01X2370000Y6130000D02*
Y6240000D01*
X2354000Y6218000D01*
G01Y6130000D02*
X2386000D01*
G01X2163330Y6280000D02*
Y6390000D01*
X2196670D01*
X2207330Y6384500D01*
X2214000Y6377170D01*
X2216670Y6362500D01*
X2214000Y6347830D01*
X2206000Y6338670D01*
X2196670Y6333170D01*
X2163330D01*
G01X2196670D02*
X2216670Y6280000D01*
G01X2254670Y6325830D02*
X2264000Y6338670D01*
X2272000Y6346000D01*
X2282670Y6349670D01*
X2292000Y6346000D01*
X2298670Y6338670D01*
X2304000Y6327670D01*
X2305330Y6314830D01*
X2304000Y6303830D01*
X2298670Y6292830D01*
X2290670Y6283670D01*
X2281330Y6280000D01*
X2270670Y6283670D01*
X2261330Y6294660D01*
X2256000Y6311170D01*
X2254670Y6329500D01*
X2257330Y6353330D01*
X2261330Y6366170D01*
X2268000Y6379000D01*
X2277330Y6388170D01*
X2286670Y6390000D01*
X2296000Y6386330D01*
X2302670Y6377170D01*
G01X2340670Y6302000D02*
X2348670Y6289160D01*
X2359330Y6281830D01*
X2371330Y6280000D01*
X2382000Y6281830D01*
X2392670Y6291000D01*
X2399330Y6302000D01*
X2400670Y6313000D01*
X2398000Y6325830D01*
X2388670Y6335000D01*
X2379330Y6338670D01*
X2367330D01*
G01X2379330D02*
X2387330Y6344170D01*
X2394000Y6353330D01*
X2396670Y6364330D01*
X2394000Y6375330D01*
X2387330Y6384500D01*
X2375330Y6390000D01*
X2363330Y6388170D01*
X2351330Y6380830D01*
G01X2163330Y6430000D02*
Y6540000D01*
X2196670D01*
X2207330Y6534500D01*
X2214000Y6527170D01*
X2216670Y6512500D01*
X2214000Y6497830D01*
X2206000Y6488670D01*
X2196670Y6483170D01*
X2163330D01*
G01X2196670D02*
X2216670Y6430000D01*
G01X2254670Y6475830D02*
X2264000Y6488670D01*
X2272000Y6496000D01*
X2282670Y6499670D01*
X2292000Y6496000D01*
X2298670Y6488670D01*
X2304000Y6477670D01*
X2305330Y6464830D01*
X2304000Y6453830D01*
X2298670Y6442830D01*
X2290670Y6433670D01*
X2281330Y6430000D01*
X2270670Y6433670D01*
X2261330Y6444660D01*
X2256000Y6461170D01*
X2254670Y6479500D01*
X2257330Y6503330D01*
X2261330Y6516170D01*
X2268000Y6529000D01*
X2277330Y6538170D01*
X2286670Y6540000D01*
X2296000Y6536330D01*
X2302670Y6527170D01*
G01X2386000Y6430000D02*
Y6540000D01*
X2336670Y6461170D01*
X2403330D01*
G01X2163330Y6580000D02*
Y6690000D01*
X2196670D01*
X2207330Y6684500D01*
X2214000Y6677170D01*
X2216670Y6662500D01*
X2214000Y6647830D01*
X2206000Y6638670D01*
X2196670Y6633170D01*
X2163330D01*
G01X2196670D02*
X2216670Y6580000D01*
G01X2254670Y6625830D02*
X2264000Y6638670D01*
X2272000Y6646000D01*
X2282670Y6649670D01*
X2292000Y6646000D01*
X2298670Y6638670D01*
X2304000Y6627670D01*
X2305330Y6614830D01*
X2304000Y6603830D01*
X2298670Y6592830D01*
X2290670Y6583670D01*
X2281330Y6580000D01*
X2270670Y6583670D01*
X2261330Y6594660D01*
X2256000Y6611170D01*
X2254670Y6629500D01*
X2257330Y6653330D01*
X2261330Y6666170D01*
X2268000Y6679000D01*
X2277330Y6688170D01*
X2286670Y6690000D01*
X2296000Y6686330D01*
X2302670Y6677170D01*
G01X2340670Y6596500D02*
X2348670Y6587330D01*
X2358000Y6581830D01*
X2370000Y6580000D01*
X2382000Y6583670D01*
X2391330Y6591000D01*
X2398000Y6603830D01*
X2399330Y6618500D01*
X2396670Y6633170D01*
X2390000Y6642330D01*
X2380670Y6649670D01*
X2371330Y6651500D01*
X2362000Y6649670D01*
X2350000Y6642330D01*
X2354000Y6690000D01*
X2390000D01*
G01X2630000Y1320000D02*
Y1210000D01*
G01X2599330Y1320000D02*
X2660670D01*
G01X2736000Y1210000D02*
Y1320000D01*
X2686670Y1241170D01*
X2753330D01*
G01X2689170Y2279330D02*
X2683670Y2271330D01*
X2680000Y2262000D01*
Y2251330D01*
X2685500Y2239330D01*
X2694670Y2230000D01*
X2705670Y2223330D01*
X2724000Y2218000D01*
X2740500Y2216670D01*
X2757000Y2219330D01*
X2768000Y2223330D01*
X2779000Y2231330D01*
X2786330Y2240670D01*
X2790000Y2250000D01*
Y2259330D01*
X2786330Y2268670D01*
X2780840Y2276670D01*
X2773500Y2283330D01*
G01X2790000Y2356000D02*
X2680000D01*
X2758830Y2306670D01*
Y2373330D01*
G01X2790000Y2446000D02*
X2680000D01*
X2758830Y2396670D01*
Y2463330D01*
G01X2539170Y2279330D02*
X2533670Y2271330D01*
X2530000Y2262000D01*
Y2251330D01*
X2535500Y2239330D01*
X2544670Y2230000D01*
X2555670Y2223330D01*
X2574000Y2218000D01*
X2590500Y2216670D01*
X2607000Y2219330D01*
X2618000Y2223330D01*
X2629000Y2231330D01*
X2636330Y2240670D01*
X2640000Y2250000D01*
Y2259330D01*
X2636330Y2268670D01*
X2630840Y2276670D01*
X2623500Y2283330D01*
G01X2640000Y2356000D02*
X2530000D01*
X2608830Y2306670D01*
Y2373330D01*
G01X2623500Y2400670D02*
X2632670Y2408670D01*
X2638170Y2418000D01*
X2640000Y2430000D01*
X2636330Y2442000D01*
X2629000Y2451330D01*
X2616170Y2458000D01*
X2601500Y2459330D01*
X2586830Y2456670D01*
X2577670Y2450000D01*
X2570330Y2440670D01*
X2568500Y2431330D01*
X2570330Y2422000D01*
X2577670Y2410000D01*
X2530000Y2414000D01*
Y2450000D01*
G01X2680000Y2893330D02*
X2570000D01*
Y2926670D01*
X2575500Y2937330D01*
X2582830Y2944000D01*
X2597500Y2946670D01*
X2612170Y2944000D01*
X2621330Y2936000D01*
X2626830Y2926670D01*
Y2893330D01*
G01Y2926670D02*
X2680000Y2946670D01*
G01X2663500Y2980670D02*
X2672670Y2988670D01*
X2678170Y2998000D01*
X2680000Y3010000D01*
X2676330Y3022000D01*
X2669000Y3031330D01*
X2656170Y3038000D01*
X2641500Y3039330D01*
X2626830Y3036670D01*
X2617670Y3030000D01*
X2610330Y3020670D01*
X2608500Y3011330D01*
X2610330Y3002000D01*
X2617670Y2990000D01*
X2570000Y2994000D01*
Y3030000D01*
G01X2680000Y3116000D02*
X2570000D01*
X2648830Y3066670D01*
Y3133330D01*
G01X2543330Y5480000D02*
Y5590000D01*
X2576670D01*
X2587330Y5584500D01*
X2594000Y5577170D01*
X2596670Y5562500D01*
X2594000Y5547830D01*
X2586000Y5538670D01*
X2576670Y5533170D01*
X2543330D01*
G01X2576670D02*
X2596670Y5480000D01*
G01X2676000D02*
Y5590000D01*
X2626670Y5511170D01*
X2693330D01*
G01X2766000Y5480000D02*
Y5590000D01*
X2716670Y5511170D01*
X2783330D01*
G01X2543330Y5220000D02*
Y5330000D01*
X2576670D01*
X2587330Y5324500D01*
X2594000Y5317170D01*
X2596670Y5302500D01*
X2594000Y5287830D01*
X2586000Y5278670D01*
X2576670Y5273170D01*
X2543330D01*
G01X2576670D02*
X2596670Y5220000D01*
G01X2676000D02*
Y5330000D01*
X2626670Y5251170D01*
X2693330D01*
G01X2720670Y5236500D02*
X2728670Y5227330D01*
X2738000Y5221830D01*
X2750000Y5220000D01*
X2762000Y5223670D01*
X2771330Y5231000D01*
X2778000Y5243830D01*
X2779330Y5258500D01*
X2776670Y5273170D01*
X2770000Y5282330D01*
X2760670Y5289670D01*
X2751330Y5291500D01*
X2742000Y5289670D01*
X2730000Y5282330D01*
X2734000Y5330000D01*
X2770000D01*
G01X2589330Y5180830D02*
X2581330Y5186330D01*
X2572000Y5190000D01*
X2561330D01*
X2549330Y5184500D01*
X2540000Y5175330D01*
X2533330Y5164330D01*
X2528000Y5146000D01*
X2526670Y5129500D01*
X2529330Y5113000D01*
X2533330Y5102000D01*
X2541330Y5091000D01*
X2550670Y5083670D01*
X2560000Y5080000D01*
X2569330D01*
X2578670Y5083670D01*
X2586670Y5089160D01*
X2593330Y5096500D01*
G01X2666000Y5080000D02*
Y5190000D01*
X2616670Y5111170D01*
X2683330D01*
G01X2714670Y5171670D02*
X2722670Y5182660D01*
X2732000Y5188170D01*
X2742670Y5190000D01*
X2756000Y5186330D01*
X2765330Y5177170D01*
X2768000Y5166170D01*
X2766670Y5155160D01*
X2761330Y5146000D01*
X2734670Y5127670D01*
X2722670Y5114830D01*
X2714670Y5096500D01*
X2712000Y5080000D01*
X2768000D01*
G01X2750000Y5640000D02*
Y5689500D01*
X2723330Y5750000D01*
G01X2776670D02*
X2750000Y5689500D01*
G01X2814670Y5731670D02*
X2822670Y5742660D01*
X2832000Y5748170D01*
X2842670Y5750000D01*
X2856000Y5746330D01*
X2865330Y5737170D01*
X2868000Y5726170D01*
X2866670Y5715160D01*
X2861330Y5706000D01*
X2834670Y5687670D01*
X2822670Y5674830D01*
X2814670Y5656500D01*
X2812000Y5640000D01*
X2868000D01*
G01X3540000Y1453330D02*
X3430000D01*
Y1486670D01*
X3435500Y1497330D01*
X3442830Y1504000D01*
X3457500Y1506670D01*
X3472170Y1504000D01*
X3481330Y1496000D01*
X3486830Y1486670D01*
Y1453330D01*
G01Y1486670D02*
X3540000Y1506670D01*
G01Y1570000D02*
X3430000D01*
X3452000Y1554000D01*
G01X3540000D02*
Y1586000D01*
G01X3448330Y1634670D02*
X3437340Y1642670D01*
X3431830Y1652000D01*
X3430000Y1662670D01*
X3433670Y1676000D01*
X3442830Y1685330D01*
X3453830Y1688000D01*
X3464840Y1686670D01*
X3474000Y1681330D01*
X3492330Y1654670D01*
X3505170Y1642670D01*
X3523500Y1634670D01*
X3540000Y1632000D01*
Y1688000D01*
G01X3100670Y2590000D02*
Y2511170D01*
X3106000Y2494660D01*
X3116670Y2483670D01*
X3130000Y2480000D01*
X3143330Y2483670D01*
X3154000Y2494660D01*
X3159330Y2511170D01*
Y2590000D01*
G01X3217330Y2480000D02*
X3220000Y2503830D01*
X3224000Y2524000D01*
X3229330Y2542330D01*
X3236000Y2562500D01*
X3246670Y2590000D01*
X3193330D01*
G01X3209330Y3340830D02*
X3201330Y3346330D01*
X3192000Y3350000D01*
X3181330D01*
X3169330Y3344500D01*
X3160000Y3335330D01*
X3153330Y3324330D01*
X3148000Y3306000D01*
X3146670Y3289500D01*
X3149330Y3273000D01*
X3153330Y3262000D01*
X3161330Y3251000D01*
X3170670Y3243670D01*
X3180000Y3240000D01*
X3189330D01*
X3198670Y3243670D01*
X3206670Y3249160D01*
X3213330Y3256500D01*
G01X3286000Y3240000D02*
Y3350000D01*
X3236670Y3271170D01*
X3303330D01*
G01X3357330Y3240000D02*
X3360000Y3263830D01*
X3364000Y3284000D01*
X3369330Y3302330D01*
X3376000Y3322500D01*
X3386670Y3350000D01*
X3333330D01*
G01X3153330Y3540000D02*
Y3650000D01*
X3186670D01*
X3197330Y3644500D01*
X3204000Y3637170D01*
X3206670Y3622500D01*
X3204000Y3607830D01*
X3196000Y3598670D01*
X3186670Y3593170D01*
X3153330D01*
G01X3186670D02*
X3206670Y3540000D01*
G01X3244670Y3585830D02*
X3254000Y3598670D01*
X3262000Y3606000D01*
X3272670Y3609670D01*
X3282000Y3606000D01*
X3288670Y3598670D01*
X3294000Y3587670D01*
X3295330Y3574830D01*
X3294000Y3563830D01*
X3288670Y3552830D01*
X3280670Y3543670D01*
X3271330Y3540000D01*
X3260670Y3543670D01*
X3251330Y3554660D01*
X3246000Y3571170D01*
X3244670Y3589500D01*
X3247330Y3613330D01*
X3251330Y3626170D01*
X3258000Y3639000D01*
X3267330Y3648170D01*
X3276670Y3650000D01*
X3286000Y3646330D01*
X3292670Y3637170D01*
G01X3334670Y3631670D02*
X3342670Y3642660D01*
X3352000Y3648170D01*
X3362670Y3650000D01*
X3376000Y3646330D01*
X3385330Y3637170D01*
X3388000Y3626170D01*
X3386670Y3615160D01*
X3381330Y3606000D01*
X3354670Y3587670D01*
X3342670Y3574830D01*
X3334670Y3556500D01*
X3332000Y3540000D01*
X3388000D01*
G01X3153330Y3380000D02*
Y3490000D01*
X3186670D01*
X3197330Y3484500D01*
X3204000Y3477170D01*
X3206670Y3462500D01*
X3204000Y3447830D01*
X3196000Y3438670D01*
X3186670Y3433170D01*
X3153330D01*
G01X3186670D02*
X3206670Y3380000D01*
G01X3244670Y3425830D02*
X3254000Y3438670D01*
X3262000Y3446000D01*
X3272670Y3449670D01*
X3282000Y3446000D01*
X3288670Y3438670D01*
X3294000Y3427670D01*
X3295330Y3414830D01*
X3294000Y3403830D01*
X3288670Y3392830D01*
X3280670Y3383670D01*
X3271330Y3380000D01*
X3260670Y3383670D01*
X3251330Y3394660D01*
X3246000Y3411170D01*
X3244670Y3429500D01*
X3247330Y3453330D01*
X3251330Y3466170D01*
X3258000Y3479000D01*
X3267330Y3488170D01*
X3276670Y3490000D01*
X3286000Y3486330D01*
X3292670Y3477170D01*
G01X3360000Y3490000D02*
X3349330Y3486330D01*
X3341330Y3477170D01*
X3336000Y3466170D01*
X3332000Y3451500D01*
X3330670Y3435000D01*
X3332000Y3418500D01*
X3336000Y3403830D01*
X3341330Y3392830D01*
X3349330Y3383670D01*
X3360000Y3380000D01*
X3370670Y3383670D01*
X3378670Y3392830D01*
X3384000Y3403830D01*
X3388000Y3418500D01*
X3389330Y3435000D01*
X3388000Y3451500D01*
X3384000Y3466170D01*
X3378670Y3477170D01*
X3370670Y3486330D01*
X3360000Y3490000D01*
G01X3163330Y3750000D02*
Y3860000D01*
X3196670D01*
X3207330Y3854500D01*
X3214000Y3847170D01*
X3216670Y3832500D01*
X3214000Y3817830D01*
X3206000Y3808670D01*
X3196670Y3803170D01*
X3163330D01*
G01X3196670D02*
X3216670Y3750000D01*
G01X3280000D02*
Y3860000D01*
X3264000Y3838000D01*
G01Y3750000D02*
X3296000D01*
G01X3340670Y3766500D02*
X3348670Y3757330D01*
X3358000Y3751830D01*
X3370000Y3750000D01*
X3382000Y3753670D01*
X3391330Y3761000D01*
X3398000Y3773830D01*
X3399330Y3788500D01*
X3396670Y3803170D01*
X3390000Y3812330D01*
X3380670Y3819670D01*
X3371330Y3821500D01*
X3362000Y3819670D01*
X3350000Y3812330D01*
X3354000Y3860000D01*
X3390000D01*
G01X3163330Y3900000D02*
Y4010000D01*
X3196670D01*
X3207330Y4004500D01*
X3214000Y3997170D01*
X3216670Y3982500D01*
X3214000Y3967830D01*
X3206000Y3958670D01*
X3196670Y3953170D01*
X3163330D01*
G01X3196670D02*
X3216670Y3900000D01*
G01X3280000D02*
Y4010000D01*
X3264000Y3988000D01*
G01Y3900000D02*
X3296000D01*
G01X3386000D02*
Y4010000D01*
X3336670Y3931170D01*
X3403330D01*
G01X3449330Y5920830D02*
X3441330Y5926330D01*
X3432000Y5930000D01*
X3421330D01*
X3409330Y5924500D01*
X3400000Y5915330D01*
X3393330Y5904330D01*
X3388000Y5886000D01*
X3386670Y5869500D01*
X3389330Y5853000D01*
X3393330Y5842000D01*
X3401330Y5831000D01*
X3410670Y5823670D01*
X3420000Y5820000D01*
X3429330D01*
X3438670Y5823670D01*
X3446670Y5829160D01*
X3453330Y5836500D01*
G01X3510000Y5820000D02*
Y5930000D01*
X3494000Y5908000D01*
G01Y5820000D02*
X3526000D01*
G01X3616000D02*
Y5930000D01*
X3566670Y5851170D01*
X3633330D01*
G01X3323330Y7310000D02*
Y7420000D01*
X3356670D01*
X3367330Y7414500D01*
X3374000Y7407170D01*
X3376670Y7392500D01*
X3374000Y7377830D01*
X3366000Y7368670D01*
X3356670Y7363170D01*
X3323330D01*
G01X3356670D02*
X3376670Y7310000D01*
G01X3414670Y7401670D02*
X3422670Y7412660D01*
X3432000Y7418170D01*
X3442670Y7420000D01*
X3456000Y7416330D01*
X3465330Y7407170D01*
X3468000Y7396170D01*
X3466670Y7385160D01*
X3461330Y7376000D01*
X3434670Y7357670D01*
X3422670Y7344830D01*
X3414670Y7326500D01*
X3412000Y7310000D01*
X3468000D01*
G01X3500670Y7332000D02*
X3508670Y7319160D01*
X3519330Y7311830D01*
X3531330Y7310000D01*
X3542000Y7311830D01*
X3552670Y7321000D01*
X3559330Y7332000D01*
X3560670Y7343000D01*
X3558000Y7355830D01*
X3548670Y7365000D01*
X3539330Y7368670D01*
X3527330D01*
G01X3539330D02*
X3547330Y7374170D01*
X3554000Y7383330D01*
X3556670Y7394330D01*
X3554000Y7405330D01*
X3547330Y7414500D01*
X3535330Y7420000D01*
X3523330Y7418170D01*
X3511330Y7410830D01*
G01X3323330Y7170000D02*
Y7280000D01*
X3356670D01*
X3367330Y7274500D01*
X3374000Y7267170D01*
X3376670Y7252500D01*
X3374000Y7237830D01*
X3366000Y7228670D01*
X3356670Y7223170D01*
X3323330D01*
G01X3356670D02*
X3376670Y7170000D01*
G01X3414670Y7261670D02*
X3422670Y7272660D01*
X3432000Y7278170D01*
X3442670Y7280000D01*
X3456000Y7276330D01*
X3465330Y7267170D01*
X3468000Y7256170D01*
X3466670Y7245160D01*
X3461330Y7236000D01*
X3434670Y7217670D01*
X3422670Y7204830D01*
X3414670Y7186500D01*
X3412000Y7170000D01*
X3468000D01*
G01X3504670Y7261670D02*
X3512670Y7272660D01*
X3522000Y7278170D01*
X3532670Y7280000D01*
X3546000Y7276330D01*
X3555330Y7267170D01*
X3558000Y7256170D01*
X3556670Y7245160D01*
X3551330Y7236000D01*
X3524670Y7217670D01*
X3512670Y7204830D01*
X3504670Y7186500D01*
X3502000Y7170000D01*
X3558000D01*
G01X3379330Y7550830D02*
X3371330Y7556330D01*
X3362000Y7560000D01*
X3351330D01*
X3339330Y7554500D01*
X3330000Y7545330D01*
X3323330Y7534330D01*
X3318000Y7516000D01*
X3316670Y7499500D01*
X3319330Y7483000D01*
X3323330Y7472000D01*
X3331330Y7461000D01*
X3340670Y7453670D01*
X3350000Y7450000D01*
X3359330D01*
X3368670Y7453670D01*
X3376670Y7459160D01*
X3383330Y7466500D01*
G01X3414670Y7541670D02*
X3422670Y7552660D01*
X3432000Y7558170D01*
X3442670Y7560000D01*
X3456000Y7556330D01*
X3465330Y7547170D01*
X3468000Y7536170D01*
X3466670Y7525160D01*
X3461330Y7516000D01*
X3434670Y7497670D01*
X3422670Y7484830D01*
X3414670Y7466500D01*
X3412000Y7450000D01*
X3468000D01*
G01X3530000D02*
X3539330Y7451830D01*
X3550000Y7457330D01*
X3556670Y7466500D01*
X3559330Y7479330D01*
X3556670Y7492160D01*
X3548670Y7503170D01*
X3536670Y7508670D01*
X3523330D01*
X3515330Y7512330D01*
X3508670Y7521500D01*
X3506000Y7534330D01*
X3510000Y7547170D01*
X3519330Y7556330D01*
X3530000Y7560000D01*
X3540670Y7556330D01*
X3550000Y7547170D01*
X3554000Y7534330D01*
X3551330Y7521500D01*
X3544670Y7512330D01*
X3536670Y7508670D01*
X3523330D01*
X3511330Y7503170D01*
X3503330Y7492160D01*
X3500670Y7479330D01*
X3503330Y7466500D01*
X3510000Y7457330D01*
X3520670Y7451830D01*
X3530000Y7450000D01*
G01X3690000Y1453330D02*
X3580000D01*
Y1486670D01*
X3585500Y1497330D01*
X3592830Y1504000D01*
X3607500Y1506670D01*
X3622170Y1504000D01*
X3631330Y1496000D01*
X3636830Y1486670D01*
Y1453330D01*
G01Y1486670D02*
X3690000Y1506670D01*
G01Y1570000D02*
X3580000D01*
X3602000Y1554000D01*
G01X3690000D02*
Y1586000D01*
G01Y1660000D02*
X3580000D01*
X3602000Y1644000D01*
G01X3690000D02*
Y1676000D01*
G01X3920000Y1320000D02*
Y1210000D01*
G01X3889330Y1320000D02*
X3950670D01*
G01X3980670Y1232000D02*
X3988670Y1219160D01*
X3999330Y1211830D01*
X4011330Y1210000D01*
X4022000Y1211830D01*
X4032670Y1221000D01*
X4039330Y1232000D01*
X4040670Y1243000D01*
X4038000Y1255830D01*
X4028670Y1265000D01*
X4019330Y1268670D01*
X4007330D01*
G01X4019330D02*
X4027330Y1274170D01*
X4034000Y1283330D01*
X4036670Y1294330D01*
X4034000Y1305330D01*
X4027330Y1314500D01*
X4015330Y1320000D01*
X4003330Y1318170D01*
X3991330Y1310830D01*
G01X3790670Y2670000D02*
Y2591170D01*
X3796000Y2574660D01*
X3806670Y2563670D01*
X3820000Y2560000D01*
X3833330Y2563670D01*
X3844000Y2574660D01*
X3849330Y2591170D01*
Y2670000D01*
G01X3910000Y2560000D02*
X3919330Y2561830D01*
X3930000Y2567330D01*
X3936670Y2576500D01*
X3939330Y2589330D01*
X3936670Y2602160D01*
X3928670Y2613170D01*
X3916670Y2618670D01*
X3903330D01*
X3895330Y2622330D01*
X3888670Y2631500D01*
X3886000Y2644330D01*
X3890000Y2657170D01*
X3899330Y2666330D01*
X3910000Y2670000D01*
X3920670Y2666330D01*
X3930000Y2657170D01*
X3934000Y2644330D01*
X3931330Y2631500D01*
X3924670Y2622330D01*
X3916670Y2618670D01*
X3903330D01*
X3891330Y2613170D01*
X3883330Y2602160D01*
X3880670Y2589330D01*
X3883330Y2576500D01*
X3890000Y2567330D01*
X3900670Y2561830D01*
X3910000Y2560000D01*
G01X3549170Y2559330D02*
X3543670Y2551330D01*
X3540000Y2542000D01*
Y2531330D01*
X3545500Y2519330D01*
X3554670Y2510000D01*
X3565670Y2503330D01*
X3584000Y2498000D01*
X3600500Y2496670D01*
X3617000Y2499330D01*
X3628000Y2503330D01*
X3639000Y2511330D01*
X3646330Y2520670D01*
X3650000Y2530000D01*
Y2539330D01*
X3646330Y2548670D01*
X3640840Y2556670D01*
X3633500Y2563330D01*
G01X3650000Y2620000D02*
X3540000D01*
X3562000Y2604000D01*
G01X3650000D02*
Y2636000D01*
G01X3628000Y2680670D02*
X3640840Y2688670D01*
X3648170Y2699330D01*
X3650000Y2711330D01*
X3648170Y2722000D01*
X3639000Y2732670D01*
X3628000Y2739330D01*
X3617000Y2740670D01*
X3604170Y2738000D01*
X3595000Y2728670D01*
X3591330Y2719330D01*
Y2707330D01*
G01Y2719330D02*
X3585830Y2727330D01*
X3576670Y2734000D01*
X3565670Y2736670D01*
X3554670Y2734000D01*
X3545500Y2727330D01*
X3540000Y2715330D01*
X3541830Y2703330D01*
X3549170Y2691330D01*
G01X3803330Y3300000D02*
Y3410000D01*
X3836670D01*
X3847330Y3404500D01*
X3854000Y3397170D01*
X3856670Y3382500D01*
X3854000Y3367830D01*
X3846000Y3358670D01*
X3836670Y3353170D01*
X3803330D01*
G01X3836670D02*
X3856670Y3300000D01*
G01X3936000D02*
Y3410000D01*
X3886670Y3331170D01*
X3953330D01*
G01X3980670Y3322000D02*
X3988670Y3309160D01*
X3999330Y3301830D01*
X4011330Y3300000D01*
X4022000Y3301830D01*
X4032670Y3311000D01*
X4039330Y3322000D01*
X4040670Y3333000D01*
X4038000Y3345830D01*
X4028670Y3355000D01*
X4019330Y3358670D01*
X4007330D01*
G01X4019330D02*
X4027330Y3364170D01*
X4034000Y3373330D01*
X4036670Y3384330D01*
X4034000Y3395330D01*
X4027330Y3404500D01*
X4015330Y3410000D01*
X4003330Y3408170D01*
X3991330Y3400830D01*
G01X3869330Y3230830D02*
X3861330Y3236330D01*
X3852000Y3240000D01*
X3841330D01*
X3829330Y3234500D01*
X3820000Y3225330D01*
X3813330Y3214330D01*
X3808000Y3196000D01*
X3806670Y3179500D01*
X3809330Y3163000D01*
X3813330Y3152000D01*
X3821330Y3141000D01*
X3830670Y3133670D01*
X3840000Y3130000D01*
X3849330D01*
X3858670Y3133670D01*
X3866670Y3139160D01*
X3873330Y3146500D01*
G01X3900670Y3152000D02*
X3908670Y3139160D01*
X3919330Y3131830D01*
X3931330Y3130000D01*
X3942000Y3131830D01*
X3952670Y3141000D01*
X3959330Y3152000D01*
X3960670Y3163000D01*
X3958000Y3175830D01*
X3948670Y3185000D01*
X3939330Y3188670D01*
X3927330D01*
G01X3939330D02*
X3947330Y3194170D01*
X3954000Y3203330D01*
X3956670Y3214330D01*
X3954000Y3225330D01*
X3947330Y3234500D01*
X3935330Y3240000D01*
X3923330Y3238170D01*
X3911330Y3230830D01*
G01X3997330Y3142830D02*
X4006670Y3133670D01*
X4017330Y3130000D01*
X4028000Y3133670D01*
X4037330Y3144660D01*
X4044000Y3161170D01*
X4046670Y3177670D01*
Y3197830D01*
X4044000Y3214330D01*
X4037330Y3229000D01*
X4029330Y3236330D01*
X4020000Y3240000D01*
X4009330Y3236330D01*
X4001330Y3229000D01*
X3996000Y3218000D01*
X3993330Y3203330D01*
X3996000Y3190500D01*
X4002670Y3177670D01*
X4010670Y3170330D01*
X4020000Y3168500D01*
X4030670Y3172160D01*
X4038670Y3181330D01*
X4046670Y3197830D01*
G01X3549170Y2849330D02*
X3543670Y2841330D01*
X3540000Y2832000D01*
Y2821330D01*
X3545500Y2809330D01*
X3554670Y2800000D01*
X3565670Y2793330D01*
X3584000Y2788000D01*
X3600500Y2786670D01*
X3617000Y2789330D01*
X3628000Y2793330D01*
X3639000Y2801330D01*
X3646330Y2810670D01*
X3650000Y2820000D01*
Y2829330D01*
X3646330Y2838670D01*
X3640840Y2846670D01*
X3633500Y2853330D01*
G01X3650000Y2910000D02*
X3540000D01*
X3562000Y2894000D01*
G01X3650000D02*
Y2926000D01*
G01X3558330Y2974670D02*
X3547340Y2982670D01*
X3541830Y2992000D01*
X3540000Y3002670D01*
X3543670Y3016000D01*
X3552830Y3025330D01*
X3563830Y3028000D01*
X3574840Y3026670D01*
X3584000Y3021330D01*
X3602330Y2994670D01*
X3615170Y2982670D01*
X3633500Y2974670D01*
X3650000Y2972000D01*
Y3028000D01*
G01X3759330Y3670830D02*
X3751330Y3676330D01*
X3742000Y3680000D01*
X3731330D01*
X3719330Y3674500D01*
X3710000Y3665330D01*
X3703330Y3654330D01*
X3698000Y3636000D01*
X3696670Y3619500D01*
X3699330Y3603000D01*
X3703330Y3592000D01*
X3711330Y3581000D01*
X3720670Y3573670D01*
X3730000Y3570000D01*
X3739330D01*
X3748670Y3573670D01*
X3756670Y3579160D01*
X3763330Y3586500D01*
G01X3820000Y3570000D02*
Y3680000D01*
X3804000Y3658000D01*
G01Y3570000D02*
X3836000D01*
G01X3884670Y3615830D02*
X3894000Y3628670D01*
X3902000Y3636000D01*
X3912670Y3639670D01*
X3922000Y3636000D01*
X3928670Y3628670D01*
X3934000Y3617670D01*
X3935330Y3604830D01*
X3934000Y3593830D01*
X3928670Y3582830D01*
X3920670Y3573670D01*
X3911330Y3570000D01*
X3900670Y3573670D01*
X3891330Y3584660D01*
X3886000Y3601170D01*
X3884670Y3619500D01*
X3887330Y3643330D01*
X3891330Y3656170D01*
X3898000Y3669000D01*
X3907330Y3678170D01*
X3916670Y3680000D01*
X3926000Y3676330D01*
X3932670Y3667170D01*
G01X3749330Y4400830D02*
X3741330Y4406330D01*
X3732000Y4410000D01*
X3721330D01*
X3709330Y4404500D01*
X3700000Y4395330D01*
X3693330Y4384330D01*
X3688000Y4366000D01*
X3686670Y4349500D01*
X3689330Y4333000D01*
X3693330Y4322000D01*
X3701330Y4311000D01*
X3710670Y4303670D01*
X3720000Y4300000D01*
X3729330D01*
X3738670Y4303670D01*
X3746670Y4309160D01*
X3753330Y4316500D01*
G01X3784670Y4391670D02*
X3792670Y4402660D01*
X3802000Y4408170D01*
X3812670Y4410000D01*
X3826000Y4406330D01*
X3835330Y4397170D01*
X3838000Y4386170D01*
X3836670Y4375160D01*
X3831330Y4366000D01*
X3804670Y4347670D01*
X3792670Y4334830D01*
X3784670Y4316500D01*
X3782000Y4300000D01*
X3838000D01*
G01X3900000Y4410000D02*
X3889330Y4406330D01*
X3881330Y4397170D01*
X3876000Y4386170D01*
X3872000Y4371500D01*
X3870670Y4355000D01*
X3872000Y4338500D01*
X3876000Y4323830D01*
X3881330Y4312830D01*
X3889330Y4303670D01*
X3900000Y4300000D01*
X3910670Y4303670D01*
X3918670Y4312830D01*
X3924000Y4323830D01*
X3928000Y4338500D01*
X3929330Y4355000D01*
X3928000Y4371500D01*
X3924000Y4386170D01*
X3918670Y4397170D01*
X3910670Y4406330D01*
X3900000Y4410000D01*
G01X3823330Y5440000D02*
Y5550000D01*
X3856670D01*
X3867330Y5544500D01*
X3874000Y5537170D01*
X3876670Y5522500D01*
X3874000Y5507830D01*
X3866000Y5498670D01*
X3856670Y5493170D01*
X3823330D01*
G01X3856670D02*
X3876670Y5440000D01*
G01X3914670Y5531670D02*
X3922670Y5542660D01*
X3932000Y5548170D01*
X3942670Y5550000D01*
X3956000Y5546330D01*
X3965330Y5537170D01*
X3968000Y5526170D01*
X3966670Y5515160D01*
X3961330Y5506000D01*
X3934670Y5487670D01*
X3922670Y5474830D01*
X3914670Y5456500D01*
X3912000Y5440000D01*
X3968000D01*
G01X4030000Y5550000D02*
X4019330Y5546330D01*
X4011330Y5537170D01*
X4006000Y5526170D01*
X4002000Y5511500D01*
X4000670Y5495000D01*
X4002000Y5478500D01*
X4006000Y5463830D01*
X4011330Y5452830D01*
X4019330Y5443670D01*
X4030000Y5440000D01*
X4040670Y5443670D01*
X4048670Y5452830D01*
X4054000Y5463830D01*
X4058000Y5478500D01*
X4059330Y5495000D01*
X4058000Y5511500D01*
X4054000Y5526170D01*
X4048670Y5537170D01*
X4040670Y5546330D01*
X4030000Y5550000D01*
G01X3823330Y5590000D02*
Y5700000D01*
X3856670D01*
X3867330Y5694500D01*
X3874000Y5687170D01*
X3876670Y5672500D01*
X3874000Y5657830D01*
X3866000Y5648670D01*
X3856670Y5643170D01*
X3823330D01*
G01X3856670D02*
X3876670Y5590000D01*
G01X3940000D02*
Y5700000D01*
X3924000Y5678000D01*
G01Y5590000D02*
X3956000D01*
G01X4030000D02*
X4039330Y5591830D01*
X4050000Y5597330D01*
X4056670Y5606500D01*
X4059330Y5619330D01*
X4056670Y5632160D01*
X4048670Y5643170D01*
X4036670Y5648670D01*
X4023330D01*
X4015330Y5652330D01*
X4008670Y5661500D01*
X4006000Y5674330D01*
X4010000Y5687170D01*
X4019330Y5696330D01*
X4030000Y5700000D01*
X4040670Y5696330D01*
X4050000Y5687170D01*
X4054000Y5674330D01*
X4051330Y5661500D01*
X4044670Y5652330D01*
X4036670Y5648670D01*
X4023330D01*
X4011330Y5643170D01*
X4003330Y5632160D01*
X4000670Y5619330D01*
X4003330Y5606500D01*
X4010000Y5597330D01*
X4020670Y5591830D01*
X4030000Y5590000D01*
G01X3953330Y6800000D02*
Y6910000D01*
X3986670D01*
X3997330Y6904500D01*
X4004000Y6897170D01*
X4006670Y6882500D01*
X4004000Y6867830D01*
X3996000Y6858670D01*
X3986670Y6853170D01*
X3953330D01*
G01X3986670D02*
X4006670Y6800000D01*
G01X4067330D02*
X4070000Y6823830D01*
X4074000Y6844000D01*
X4079330Y6862330D01*
X4086000Y6882500D01*
X4096670Y6910000D01*
X4043330D01*
G01X3620670Y8188670D02*
X3626000Y8194170D01*
X3630000Y8203330D01*
X3632670Y8216170D01*
X3630000Y8227170D01*
X3624670Y8234500D01*
X3615330Y8240000D01*
X3579330D01*
Y8130000D01*
X3623330D01*
X3632670Y8137330D01*
X3638000Y8148330D01*
X3640670Y8161170D01*
X3638000Y8174000D01*
X3630000Y8185000D01*
X3620670Y8188670D01*
X3579330D01*
G01X3700000Y8130000D02*
Y8240000D01*
X3684000Y8218000D01*
G01Y8130000D02*
X3716000D01*
G01X4309170Y1509330D02*
X4303670Y1501330D01*
X4300000Y1492000D01*
Y1481330D01*
X4305500Y1469330D01*
X4314670Y1460000D01*
X4325670Y1453330D01*
X4344000Y1448000D01*
X4360500Y1446670D01*
X4377000Y1449330D01*
X4388000Y1453330D01*
X4399000Y1461330D01*
X4406330Y1470670D01*
X4410000Y1480000D01*
Y1489330D01*
X4406330Y1498670D01*
X4400840Y1506670D01*
X4393500Y1513330D01*
G01X4410000Y1570000D02*
X4300000D01*
X4322000Y1554000D01*
G01X4410000D02*
Y1586000D01*
G01Y1660000D02*
X4300000D01*
X4322000Y1644000D01*
G01X4410000D02*
Y1676000D01*
G01X4420670Y5670000D02*
Y5591170D01*
X4426000Y5574660D01*
X4436670Y5563670D01*
X4450000Y5560000D01*
X4463330Y5563670D01*
X4474000Y5574660D01*
X4479330Y5591170D01*
Y5670000D01*
G01X4556000Y5560000D02*
Y5670000D01*
X4506670Y5591170D01*
X4573330D01*
G01X4430000Y6620000D02*
X4419330Y6621830D01*
X4410000Y6629160D01*
X4402000Y6640170D01*
X4396670Y6653000D01*
X4394000Y6667670D01*
Y6682330D01*
X4396670Y6697000D01*
X4402000Y6709830D01*
X4410000Y6720830D01*
X4419330Y6728170D01*
X4430000Y6730000D01*
X4440670Y6728170D01*
X4450000Y6720830D01*
X4458000Y6709830D01*
X4463330Y6697000D01*
X4466000Y6682330D01*
Y6667670D01*
X4463330Y6653000D01*
X4458000Y6640170D01*
X4450000Y6629160D01*
X4440670Y6621830D01*
X4430000Y6620000D01*
G01X4440670Y6649330D02*
X4456670Y6620000D01*
G01X4520000D02*
Y6730000D01*
X4504000Y6708000D01*
G01Y6620000D02*
X4536000D01*
G01X4859170Y5879330D02*
X4853670Y5871330D01*
X4850000Y5862000D01*
Y5851330D01*
X4855500Y5839330D01*
X4864670Y5830000D01*
X4875670Y5823330D01*
X4894000Y5818000D01*
X4910500Y5816670D01*
X4927000Y5819330D01*
X4938000Y5823330D01*
X4949000Y5831330D01*
X4956330Y5840670D01*
X4960000Y5850000D01*
Y5859330D01*
X4956330Y5868670D01*
X4950840Y5876670D01*
X4943500Y5883330D01*
G01X4960000Y5940000D02*
X4850000D01*
X4872000Y5924000D01*
G01X4960000D02*
Y5956000D01*
G01Y6027330D02*
X4936170Y6030000D01*
X4916000Y6034000D01*
X4897670Y6039330D01*
X4877500Y6046000D01*
X4850000Y6056670D01*
Y6003330D01*
G01X4763330Y6800000D02*
Y6910000D01*
X4796670D01*
X4807330Y6904500D01*
X4814000Y6897170D01*
X4816670Y6882500D01*
X4814000Y6867830D01*
X4806000Y6858670D01*
X4796670Y6853170D01*
X4763330D01*
G01X4796670D02*
X4816670Y6800000D01*
G01X4857330Y6812830D02*
X4866670Y6803670D01*
X4877330Y6800000D01*
X4888000Y6803670D01*
X4897330Y6814660D01*
X4904000Y6831170D01*
X4906670Y6847670D01*
Y6867830D01*
X4904000Y6884330D01*
X4897330Y6899000D01*
X4889330Y6906330D01*
X4880000Y6910000D01*
X4869330Y6906330D01*
X4861330Y6899000D01*
X4856000Y6888000D01*
X4853330Y6873330D01*
X4856000Y6860500D01*
X4862670Y6847670D01*
X4870670Y6840330D01*
X4880000Y6838500D01*
X4890670Y6842160D01*
X4898670Y6851330D01*
X4906670Y6867830D01*
G01X4943330Y8152000D02*
X4950000Y8141000D01*
X4958000Y8133670D01*
X4967330Y8130000D01*
X4978000Y8133670D01*
X4986000Y8141000D01*
X4994000Y8152000D01*
X4996670Y8166670D01*
Y8240000D01*
G01X5030670Y8146500D02*
X5038670Y8137330D01*
X5048000Y8131830D01*
X5060000Y8130000D01*
X5072000Y8133670D01*
X5081330Y8141000D01*
X5088000Y8153830D01*
X5089330Y8168500D01*
X5086670Y8183170D01*
X5080000Y8192330D01*
X5070670Y8199670D01*
X5061330Y8201500D01*
X5052000Y8199670D01*
X5040000Y8192330D01*
X5044000Y8240000D01*
X5080000D01*
G01X5210000Y1320000D02*
Y1210000D01*
G01X5179330Y1320000D02*
X5240670D01*
G01X5274670Y1301670D02*
X5282670Y1312660D01*
X5292000Y1318170D01*
X5302670Y1320000D01*
X5316000Y1316330D01*
X5325330Y1307170D01*
X5328000Y1296170D01*
X5326670Y1285160D01*
X5321330Y1276000D01*
X5294670Y1257670D01*
X5282670Y1244830D01*
X5274670Y1226500D01*
X5272000Y1210000D01*
X5328000D01*
G01X5539330Y3070830D02*
X5531330Y3076330D01*
X5522000Y3080000D01*
X5511330D01*
X5499330Y3074500D01*
X5490000Y3065330D01*
X5483330Y3054330D01*
X5478000Y3036000D01*
X5476670Y3019500D01*
X5479330Y3003000D01*
X5483330Y2992000D01*
X5491330Y2981000D01*
X5500670Y2973670D01*
X5510000Y2970000D01*
X5519330D01*
X5528670Y2973670D01*
X5536670Y2979160D01*
X5543330Y2986500D01*
G01X5570670Y2992000D02*
X5578670Y2979160D01*
X5589330Y2971830D01*
X5601330Y2970000D01*
X5612000Y2971830D01*
X5622670Y2981000D01*
X5629330Y2992000D01*
X5630670Y3003000D01*
X5628000Y3015830D01*
X5618670Y3025000D01*
X5609330Y3028670D01*
X5597330D01*
G01X5609330D02*
X5617330Y3034170D01*
X5624000Y3043330D01*
X5626670Y3054330D01*
X5624000Y3065330D01*
X5617330Y3074500D01*
X5605330Y3080000D01*
X5593330Y3078170D01*
X5581330Y3070830D01*
G01X5690000Y3080000D02*
X5679330Y3076330D01*
X5671330Y3067170D01*
X5666000Y3056170D01*
X5662000Y3041500D01*
X5660670Y3025000D01*
X5662000Y3008500D01*
X5666000Y2993830D01*
X5671330Y2982830D01*
X5679330Y2973670D01*
X5690000Y2970000D01*
X5700670Y2973670D01*
X5708670Y2982830D01*
X5714000Y2993830D01*
X5718000Y3008500D01*
X5719330Y3025000D01*
X5718000Y3041500D01*
X5714000Y3056170D01*
X5708670Y3067170D01*
X5700670Y3076330D01*
X5690000Y3080000D01*
G01X5129170Y3009330D02*
X5123670Y3001330D01*
X5120000Y2992000D01*
Y2981330D01*
X5125500Y2969330D01*
X5134670Y2960000D01*
X5145670Y2953330D01*
X5164000Y2948000D01*
X5180500Y2946670D01*
X5197000Y2949330D01*
X5208000Y2953330D01*
X5219000Y2961330D01*
X5226330Y2970670D01*
X5230000Y2980000D01*
Y2989330D01*
X5226330Y2998670D01*
X5220840Y3006670D01*
X5213500Y3013330D01*
G01X5230000Y3070000D02*
X5120000D01*
X5142000Y3054000D01*
G01X5230000D02*
Y3086000D01*
G01X5217170Y3137330D02*
X5226330Y3146670D01*
X5230000Y3157330D01*
X5226330Y3168000D01*
X5215340Y3177330D01*
X5198830Y3184000D01*
X5182330Y3186670D01*
X5162170D01*
X5145670Y3184000D01*
X5131000Y3177330D01*
X5123670Y3169330D01*
X5120000Y3160000D01*
X5123670Y3149330D01*
X5131000Y3141330D01*
X5142000Y3136000D01*
X5156670Y3133330D01*
X5169500Y3136000D01*
X5182330Y3142670D01*
X5189670Y3150670D01*
X5191500Y3160000D01*
X5187840Y3170670D01*
X5178670Y3178670D01*
X5162170Y3186670D01*
G01X5599170Y5899330D02*
X5593670Y5891330D01*
X5590000Y5882000D01*
Y5871330D01*
X5595500Y5859330D01*
X5604670Y5850000D01*
X5615670Y5843330D01*
X5634000Y5838000D01*
X5650500Y5836670D01*
X5667000Y5839330D01*
X5678000Y5843330D01*
X5689000Y5851330D01*
X5696330Y5860670D01*
X5700000Y5870000D01*
Y5879330D01*
X5696330Y5888670D01*
X5690840Y5896670D01*
X5683500Y5903330D01*
G01X5700000Y5960000D02*
X5590000D01*
X5612000Y5944000D01*
G01X5700000D02*
Y5976000D01*
G01Y6050000D02*
X5698170Y6059330D01*
X5692670Y6070000D01*
X5683500Y6076670D01*
X5670670Y6079330D01*
X5657840Y6076670D01*
X5646830Y6068670D01*
X5641330Y6056670D01*
Y6043330D01*
X5637670Y6035330D01*
X5628500Y6028670D01*
X5615670Y6026000D01*
X5602830Y6030000D01*
X5593670Y6039330D01*
X5590000Y6050000D01*
X5593670Y6060670D01*
X5602830Y6070000D01*
X5615670Y6074000D01*
X5628500Y6071330D01*
X5637670Y6064670D01*
X5641330Y6056670D01*
Y6043330D01*
X5646830Y6031330D01*
X5657840Y6023330D01*
X5670670Y6020670D01*
X5683500Y6023330D01*
X5692670Y6030000D01*
X5698170Y6040670D01*
X5700000Y6050000D01*
G01X5560670Y6450000D02*
Y6371170D01*
X5566000Y6354660D01*
X5576670Y6343670D01*
X5590000Y6340000D01*
X5603330Y6343670D01*
X5614000Y6354660D01*
X5619330Y6371170D01*
Y6450000D01*
G01X5680000Y6340000D02*
Y6450000D01*
X5664000Y6428000D01*
G01Y6340000D02*
X5696000D01*
G01X5786000D02*
Y6450000D01*
X5736670Y6371170D01*
X5803330D01*
G01X5279330Y6570830D02*
X5271330Y6576330D01*
X5262000Y6580000D01*
X5251330D01*
X5239330Y6574500D01*
X5230000Y6565330D01*
X5223330Y6554330D01*
X5218000Y6536000D01*
X5216670Y6519500D01*
X5219330Y6503000D01*
X5223330Y6492000D01*
X5231330Y6481000D01*
X5240670Y6473670D01*
X5250000Y6470000D01*
X5259330D01*
X5268670Y6473670D01*
X5276670Y6479160D01*
X5283330Y6486500D01*
G01X5310670Y6492000D02*
X5318670Y6479160D01*
X5329330Y6471830D01*
X5341330Y6470000D01*
X5352000Y6471830D01*
X5362670Y6481000D01*
X5369330Y6492000D01*
X5370670Y6503000D01*
X5368000Y6515830D01*
X5358670Y6525000D01*
X5349330Y6528670D01*
X5337330D01*
G01X5349330D02*
X5357330Y6534170D01*
X5364000Y6543330D01*
X5366670Y6554330D01*
X5364000Y6565330D01*
X5357330Y6574500D01*
X5345330Y6580000D01*
X5333330Y6578170D01*
X5321330Y6570830D01*
G01X5404670Y6515830D02*
X5414000Y6528670D01*
X5422000Y6536000D01*
X5432670Y6539670D01*
X5442000Y6536000D01*
X5448670Y6528670D01*
X5454000Y6517670D01*
X5455330Y6504830D01*
X5454000Y6493830D01*
X5448670Y6482830D01*
X5440670Y6473670D01*
X5431330Y6470000D01*
X5420670Y6473670D01*
X5411330Y6484660D01*
X5406000Y6501170D01*
X5404670Y6519500D01*
X5407330Y6543330D01*
X5411330Y6556170D01*
X5418000Y6569000D01*
X5427330Y6578170D01*
X5436670Y6580000D01*
X5446000Y6576330D01*
X5452670Y6567170D01*
G01X5849330Y1350830D02*
X5841330Y1356330D01*
X5832000Y1360000D01*
X5821330D01*
X5809330Y1354500D01*
X5800000Y1345330D01*
X5793330Y1334330D01*
X5788000Y1316000D01*
X5786670Y1299500D01*
X5789330Y1283000D01*
X5793330Y1272000D01*
X5801330Y1261000D01*
X5810670Y1253670D01*
X5820000Y1250000D01*
X5829330D01*
X5838670Y1253670D01*
X5846670Y1259160D01*
X5853330Y1266500D01*
G01X5884670Y1341670D02*
X5892670Y1352660D01*
X5902000Y1358170D01*
X5912670Y1360000D01*
X5926000Y1356330D01*
X5935330Y1347170D01*
X5938000Y1336170D01*
X5936670Y1325160D01*
X5931330Y1316000D01*
X5904670Y1297670D01*
X5892670Y1284830D01*
X5884670Y1266500D01*
X5882000Y1250000D01*
X5938000D01*
G01X5977330Y1262830D02*
X5986670Y1253670D01*
X5997330Y1250000D01*
X6008000Y1253670D01*
X6017330Y1264660D01*
X6024000Y1281170D01*
X6026670Y1297670D01*
Y1317830D01*
X6024000Y1334330D01*
X6017330Y1349000D01*
X6009330Y1356330D01*
X6000000Y1360000D01*
X5989330Y1356330D01*
X5981330Y1349000D01*
X5976000Y1338000D01*
X5973330Y1323330D01*
X5976000Y1310500D01*
X5982670Y1297670D01*
X5990670Y1290330D01*
X6000000Y1288500D01*
X6010670Y1292160D01*
X6018670Y1301330D01*
X6026670Y1317830D01*
G01X5813330Y2970000D02*
Y3080000D01*
X5846670D01*
X5857330Y3074500D01*
X5864000Y3067170D01*
X5866670Y3052500D01*
X5864000Y3037830D01*
X5856000Y3028670D01*
X5846670Y3023170D01*
X5813330D01*
G01X5846670D02*
X5866670Y2970000D01*
G01X5904670Y3061670D02*
X5912670Y3072660D01*
X5922000Y3078170D01*
X5932670Y3080000D01*
X5946000Y3076330D01*
X5955330Y3067170D01*
X5958000Y3056170D01*
X5956670Y3045160D01*
X5951330Y3036000D01*
X5924670Y3017670D01*
X5912670Y3004830D01*
X5904670Y2986500D01*
X5902000Y2970000D01*
X5958000D01*
G01X6020000D02*
Y3080000D01*
X6004000Y3058000D01*
G01Y2970000D02*
X6036000D01*
G01X5869170Y5829330D02*
X5863670Y5821330D01*
X5860000Y5812000D01*
Y5801330D01*
X5865500Y5789330D01*
X5874670Y5780000D01*
X5885670Y5773330D01*
X5904000Y5768000D01*
X5920500Y5766670D01*
X5937000Y5769330D01*
X5948000Y5773330D01*
X5959000Y5781330D01*
X5966330Y5790670D01*
X5970000Y5800000D01*
Y5809330D01*
X5966330Y5818670D01*
X5960840Y5826670D01*
X5953500Y5833330D01*
G01X5878330Y5864670D02*
X5867340Y5872670D01*
X5861830Y5882000D01*
X5860000Y5892670D01*
X5863670Y5906000D01*
X5872830Y5915330D01*
X5883830Y5918000D01*
X5894840Y5916670D01*
X5904000Y5911330D01*
X5922330Y5884670D01*
X5935170Y5872670D01*
X5953500Y5864670D01*
X5970000Y5862000D01*
Y5918000D01*
G01X5878330Y5954670D02*
X5867340Y5962670D01*
X5861830Y5972000D01*
X5860000Y5982670D01*
X5863670Y5996000D01*
X5872830Y6005330D01*
X5883830Y6008000D01*
X5894840Y6006670D01*
X5904000Y6001330D01*
X5922330Y5974670D01*
X5935170Y5962670D01*
X5953500Y5954670D01*
X5970000Y5952000D01*
Y6008000D01*
G01X6059760Y5896220D02*
Y6006220D01*
X6086420D01*
X6097090Y6000720D01*
X6105090Y5993390D01*
X6111760Y5982390D01*
X6117090Y5969550D01*
X6118420Y5951220D01*
X6117090Y5932890D01*
X6111760Y5920050D01*
X6105090Y5909050D01*
X6097090Y5901720D01*
X6086420Y5896220D01*
X6059760D01*
G01X6153760Y5942050D02*
X6163090Y5954890D01*
X6171090Y5962220D01*
X6181760Y5965890D01*
X6191090Y5962220D01*
X6197760Y5954890D01*
X6203090Y5943890D01*
X6204420Y5931050D01*
X6203090Y5920050D01*
X6197760Y5909050D01*
X6189760Y5899890D01*
X6180420Y5896220D01*
X6169760Y5899890D01*
X6160420Y5910880D01*
X6155090Y5927390D01*
X6153760Y5945720D01*
X6156420Y5969550D01*
X6160420Y5982390D01*
X6167090Y5995220D01*
X6176420Y6004390D01*
X6185760Y6006220D01*
X6195090Y6002550D01*
X6201760Y5993390D01*
G01X6060670Y5760000D02*
Y5870000D01*
X6087330D01*
X6098000Y5864500D01*
X6106000Y5857170D01*
X6112670Y5846170D01*
X6118000Y5833330D01*
X6119330Y5815000D01*
X6118000Y5796670D01*
X6112670Y5783830D01*
X6106000Y5772830D01*
X6098000Y5765500D01*
X6087330Y5760000D01*
X6060670D01*
G01X6150670Y5776500D02*
X6158670Y5767330D01*
X6168000Y5761830D01*
X6180000Y5760000D01*
X6192000Y5763670D01*
X6201330Y5771000D01*
X6208000Y5783830D01*
X6209330Y5798500D01*
X6206670Y5813170D01*
X6200000Y5822330D01*
X6190670Y5829670D01*
X6181330Y5831500D01*
X6172000Y5829670D01*
X6160000Y5822330D01*
X6164000Y5870000D01*
X6200000D01*
G01X6500000Y1320000D02*
Y1210000D01*
G01X6469330Y1320000D02*
X6530670D01*
G01X6590000Y1210000D02*
Y1320000D01*
X6574000Y1298000D01*
G01Y1210000D02*
X6606000D01*
G01X6570670Y2490000D02*
Y2411170D01*
X6576000Y2394660D01*
X6586670Y2383670D01*
X6600000Y2380000D01*
X6613330Y2383670D01*
X6624000Y2394660D01*
X6629330Y2411170D01*
Y2490000D01*
G01X6690000Y2380000D02*
Y2490000D01*
X6674000Y2468000D01*
G01Y2380000D02*
X6706000D01*
G01X6780000Y2490000D02*
X6769330Y2486330D01*
X6761330Y2477170D01*
X6756000Y2466170D01*
X6752000Y2451500D01*
X6750670Y2435000D01*
X6752000Y2418500D01*
X6756000Y2403830D01*
X6761330Y2392830D01*
X6769330Y2383670D01*
X6780000Y2380000D01*
X6790670Y2383670D01*
X6798670Y2392830D01*
X6804000Y2403830D01*
X6808000Y2418500D01*
X6809330Y2435000D01*
X6808000Y2451500D01*
X6804000Y2466170D01*
X6798670Y2477170D01*
X6790670Y2486330D01*
X6780000Y2490000D01*
G01X6709330Y5770830D02*
X6701330Y5776330D01*
X6692000Y5780000D01*
X6681330D01*
X6669330Y5774500D01*
X6660000Y5765330D01*
X6653330Y5754330D01*
X6648000Y5736000D01*
X6646670Y5719500D01*
X6649330Y5703000D01*
X6653330Y5692000D01*
X6661330Y5681000D01*
X6670670Y5673670D01*
X6680000Y5670000D01*
X6689330D01*
X6698670Y5673670D01*
X6706670Y5679160D01*
X6713330Y5686500D01*
G01X6744670Y5761670D02*
X6752670Y5772660D01*
X6762000Y5778170D01*
X6772670Y5780000D01*
X6786000Y5776330D01*
X6795330Y5767170D01*
X6798000Y5756170D01*
X6796670Y5745160D01*
X6791330Y5736000D01*
X6764670Y5717670D01*
X6752670Y5704830D01*
X6744670Y5686500D01*
X6742000Y5670000D01*
X6798000D01*
G01X6830670Y5686500D02*
X6838670Y5677330D01*
X6848000Y5671830D01*
X6860000Y5670000D01*
X6872000Y5673670D01*
X6881330Y5681000D01*
X6888000Y5693830D01*
X6889330Y5708500D01*
X6886670Y5723170D01*
X6880000Y5732330D01*
X6870670Y5739670D01*
X6861330Y5741500D01*
X6852000Y5739670D01*
X6840000Y5732330D01*
X6844000Y5780000D01*
X6880000D01*
G01X6709330Y5630830D02*
X6701330Y5636330D01*
X6692000Y5640000D01*
X6681330D01*
X6669330Y5634500D01*
X6660000Y5625330D01*
X6653330Y5614330D01*
X6648000Y5596000D01*
X6646670Y5579500D01*
X6649330Y5563000D01*
X6653330Y5552000D01*
X6661330Y5541000D01*
X6670670Y5533670D01*
X6680000Y5530000D01*
X6689330D01*
X6698670Y5533670D01*
X6706670Y5539160D01*
X6713330Y5546500D01*
G01X6744670Y5621670D02*
X6752670Y5632660D01*
X6762000Y5638170D01*
X6772670Y5640000D01*
X6786000Y5636330D01*
X6795330Y5627170D01*
X6798000Y5616170D01*
X6796670Y5605160D01*
X6791330Y5596000D01*
X6764670Y5577670D01*
X6752670Y5564830D01*
X6744670Y5546500D01*
X6742000Y5530000D01*
X6798000D01*
G01X6876000D02*
Y5640000D01*
X6826670Y5561170D01*
X6893330D01*
G01X6333330Y6720000D02*
Y6830000D01*
X6366670D01*
X6377330Y6824500D01*
X6384000Y6817170D01*
X6386670Y6802500D01*
X6384000Y6787830D01*
X6376000Y6778670D01*
X6366670Y6773170D01*
X6333330D01*
G01X6366670D02*
X6386670Y6720000D01*
G01X6420670Y6742000D02*
X6428670Y6729160D01*
X6439330Y6721830D01*
X6451330Y6720000D01*
X6462000Y6721830D01*
X6472670Y6731000D01*
X6479330Y6742000D01*
X6480670Y6753000D01*
X6478000Y6765830D01*
X6468670Y6775000D01*
X6459330Y6778670D01*
X6447330D01*
G01X6459330D02*
X6467330Y6784170D01*
X6474000Y6793330D01*
X6476670Y6804330D01*
X6474000Y6815330D01*
X6467330Y6824500D01*
X6455330Y6830000D01*
X6443330Y6828170D01*
X6431330Y6820830D01*
G01X6540000Y6720000D02*
Y6830000D01*
X6524000Y6808000D01*
G01Y6720000D02*
X6556000D01*
G01X6790670Y2270000D02*
Y2191170D01*
X6796000Y2174660D01*
X6806670Y2163670D01*
X6820000Y2160000D01*
X6833330Y2163670D01*
X6844000Y2174660D01*
X6849330Y2191170D01*
Y2270000D01*
G01X6884670Y2251670D02*
X6892670Y2262660D01*
X6902000Y2268170D01*
X6912670Y2270000D01*
X6926000Y2266330D01*
X6935330Y2257170D01*
X6938000Y2246170D01*
X6936670Y2235160D01*
X6931330Y2226000D01*
X6904670Y2207670D01*
X6892670Y2194830D01*
X6884670Y2176500D01*
X6882000Y2160000D01*
X6938000D01*
G01X7090000Y2673330D02*
X6980000D01*
Y2706670D01*
X6985500Y2717330D01*
X6992830Y2724000D01*
X7007500Y2726670D01*
X7022170Y2724000D01*
X7031330Y2716000D01*
X7036830Y2706670D01*
Y2673330D01*
G01Y2706670D02*
X7090000Y2726670D01*
G01X7073500Y2760670D02*
X7082670Y2768670D01*
X7088170Y2778000D01*
X7090000Y2790000D01*
X7086330Y2802000D01*
X7079000Y2811330D01*
X7066170Y2818000D01*
X7051500Y2819330D01*
X7036830Y2816670D01*
X7027670Y2810000D01*
X7020330Y2800670D01*
X7018500Y2791330D01*
X7020330Y2782000D01*
X7027670Y2770000D01*
X6980000Y2774000D01*
Y2810000D01*
G01X6923330Y3770000D02*
Y3880000D01*
X6956670D01*
X6967330Y3874500D01*
X6974000Y3867170D01*
X6976670Y3852500D01*
X6974000Y3837830D01*
X6966000Y3828670D01*
X6956670Y3823170D01*
X6923330D01*
G01X6956670D02*
X6976670Y3770000D01*
G01X7040000D02*
Y3880000D01*
X7024000Y3858000D01*
G01Y3770000D02*
X7056000D01*
G01X6879330Y3660830D02*
X6871330Y3666330D01*
X6862000Y3670000D01*
X6851330D01*
X6839330Y3664500D01*
X6830000Y3655330D01*
X6823330Y3644330D01*
X6818000Y3626000D01*
X6816670Y3609500D01*
X6819330Y3593000D01*
X6823330Y3582000D01*
X6831330Y3571000D01*
X6840670Y3563670D01*
X6850000Y3560000D01*
X6859330D01*
X6868670Y3563670D01*
X6876670Y3569160D01*
X6883330Y3576500D01*
G01X6914670Y3651670D02*
X6922670Y3662660D01*
X6932000Y3668170D01*
X6942670Y3670000D01*
X6956000Y3666330D01*
X6965330Y3657170D01*
X6968000Y3646170D01*
X6966670Y3635160D01*
X6961330Y3626000D01*
X6934670Y3607670D01*
X6922670Y3594830D01*
X6914670Y3576500D01*
X6912000Y3560000D01*
X6968000D01*
G01X7000670Y3582000D02*
X7008670Y3569160D01*
X7019330Y3561830D01*
X7031330Y3560000D01*
X7042000Y3561830D01*
X7052670Y3571000D01*
X7059330Y3582000D01*
X7060670Y3593000D01*
X7058000Y3605830D01*
X7048670Y3615000D01*
X7039330Y3618670D01*
X7027330D01*
G01X7039330D02*
X7047330Y3624170D01*
X7054000Y3633330D01*
X7056670Y3644330D01*
X7054000Y3655330D01*
X7047330Y3664500D01*
X7035330Y3670000D01*
X7023330Y3668170D01*
X7011330Y3660830D01*
G01X6923330Y3920000D02*
Y4030000D01*
X6956670D01*
X6967330Y4024500D01*
X6974000Y4017170D01*
X6976670Y4002500D01*
X6974000Y3987830D01*
X6966000Y3978670D01*
X6956670Y3973170D01*
X6923330D01*
G01X6956670D02*
X6976670Y3920000D01*
G01X7014670Y4011670D02*
X7022670Y4022660D01*
X7032000Y4028170D01*
X7042670Y4030000D01*
X7056000Y4026330D01*
X7065330Y4017170D01*
X7068000Y4006170D01*
X7066670Y3995160D01*
X7061330Y3986000D01*
X7034670Y3967670D01*
X7022670Y3954830D01*
X7014670Y3936500D01*
X7012000Y3920000D01*
X7068000D01*
G01X6923330Y4070000D02*
Y4180000D01*
X6956670D01*
X6967330Y4174500D01*
X6974000Y4167170D01*
X6976670Y4152500D01*
X6974000Y4137830D01*
X6966000Y4128670D01*
X6956670Y4123170D01*
X6923330D01*
G01X6956670D02*
X6976670Y4070000D01*
G01X7010670Y4092000D02*
X7018670Y4079160D01*
X7029330Y4071830D01*
X7041330Y4070000D01*
X7052000Y4071830D01*
X7062670Y4081000D01*
X7069330Y4092000D01*
X7070670Y4103000D01*
X7068000Y4115830D01*
X7058670Y4125000D01*
X7049330Y4128670D01*
X7037330D01*
G01X7049330D02*
X7057330Y4134170D01*
X7064000Y4143330D01*
X7066670Y4154330D01*
X7064000Y4165330D01*
X7057330Y4174500D01*
X7045330Y4180000D01*
X7033330Y4178170D01*
X7021330Y4170830D01*
G01X6923330Y4220000D02*
Y4330000D01*
X6956670D01*
X6967330Y4324500D01*
X6974000Y4317170D01*
X6976670Y4302500D01*
X6974000Y4287830D01*
X6966000Y4278670D01*
X6956670Y4273170D01*
X6923330D01*
G01X6956670D02*
X6976670Y4220000D01*
G01X7056000D02*
Y4330000D01*
X7006670Y4251170D01*
X7073330D01*
G01X6899330Y4470830D02*
X6891330Y4476330D01*
X6882000Y4480000D01*
X6871330D01*
X6859330Y4474500D01*
X6850000Y4465330D01*
X6843330Y4454330D01*
X6838000Y4436000D01*
X6836670Y4419500D01*
X6839330Y4403000D01*
X6843330Y4392000D01*
X6851330Y4381000D01*
X6860670Y4373670D01*
X6870000Y4370000D01*
X6879330D01*
X6888670Y4373670D01*
X6896670Y4379160D01*
X6903330Y4386500D01*
G01X6934670Y4461670D02*
X6942670Y4472660D01*
X6952000Y4478170D01*
X6962670Y4480000D01*
X6976000Y4476330D01*
X6985330Y4467170D01*
X6988000Y4456170D01*
X6986670Y4445160D01*
X6981330Y4436000D01*
X6954670Y4417670D01*
X6942670Y4404830D01*
X6934670Y4386500D01*
X6932000Y4370000D01*
X6988000D01*
G01X7050000D02*
Y4480000D01*
X7034000Y4458000D01*
G01Y4370000D02*
X7066000D01*
G01X6899330Y4850830D02*
X6891330Y4856330D01*
X6882000Y4860000D01*
X6871330D01*
X6859330Y4854500D01*
X6850000Y4845330D01*
X6843330Y4834330D01*
X6838000Y4816000D01*
X6836670Y4799500D01*
X6839330Y4783000D01*
X6843330Y4772000D01*
X6851330Y4761000D01*
X6860670Y4753670D01*
X6870000Y4750000D01*
X6879330D01*
X6888670Y4753670D01*
X6896670Y4759160D01*
X6903330Y4766500D01*
G01X6960000Y4750000D02*
Y4860000D01*
X6944000Y4838000D01*
G01Y4750000D02*
X6976000D01*
G01X7020670Y4766500D02*
X7028670Y4757330D01*
X7038000Y4751830D01*
X7050000Y4750000D01*
X7062000Y4753670D01*
X7071330Y4761000D01*
X7078000Y4773830D01*
X7079330Y4788500D01*
X7076670Y4803170D01*
X7070000Y4812330D01*
X7060670Y4819670D01*
X7051330Y4821500D01*
X7042000Y4819670D01*
X7030000Y4812330D01*
X7034000Y4860000D01*
X7070000D01*
G01X6819170Y5169330D02*
X6813670Y5161330D01*
X6810000Y5152000D01*
Y5141330D01*
X6815500Y5129330D01*
X6824670Y5120000D01*
X6835670Y5113330D01*
X6854000Y5108000D01*
X6870500Y5106670D01*
X6887000Y5109330D01*
X6898000Y5113330D01*
X6909000Y5121330D01*
X6916330Y5130670D01*
X6920000Y5140000D01*
Y5149330D01*
X6916330Y5158670D01*
X6910840Y5166670D01*
X6903500Y5173330D01*
G01X6920000Y5246000D02*
X6810000D01*
X6888830Y5196670D01*
Y5263330D01*
G01X6920000Y5320000D02*
X6918170Y5329330D01*
X6912670Y5340000D01*
X6903500Y5346670D01*
X6890670Y5349330D01*
X6877840Y5346670D01*
X6866830Y5338670D01*
X6861330Y5326670D01*
Y5313330D01*
X6857670Y5305330D01*
X6848500Y5298670D01*
X6835670Y5296000D01*
X6822830Y5300000D01*
X6813670Y5309330D01*
X6810000Y5320000D01*
X6813670Y5330670D01*
X6822830Y5340000D01*
X6835670Y5344000D01*
X6848500Y5341330D01*
X6857670Y5334670D01*
X6861330Y5326670D01*
Y5313330D01*
X6866830Y5301330D01*
X6877840Y5293330D01*
X6890670Y5290670D01*
X6903500Y5293330D01*
X6912670Y5300000D01*
X6918170Y5310670D01*
X6920000Y5320000D01*
G01X7030000Y5600000D02*
Y5649500D01*
X7003330Y5710000D01*
G01X7056670D02*
X7030000Y5649500D01*
G01X7090670Y5622000D02*
X7098670Y5609160D01*
X7109330Y5601830D01*
X7121330Y5600000D01*
X7132000Y5601830D01*
X7142670Y5611000D01*
X7149330Y5622000D01*
X7150670Y5633000D01*
X7148000Y5645830D01*
X7138670Y5655000D01*
X7129330Y5658670D01*
X7117330D01*
G01X7129330D02*
X7137330Y5664170D01*
X7144000Y5673330D01*
X7146670Y5684330D01*
X7144000Y5695330D01*
X7137330Y5704500D01*
X7125330Y5710000D01*
X7113330Y5708170D01*
X7101330Y5700830D01*
G01X6953330Y6280000D02*
Y6390000D01*
X6986670D01*
X6997330Y6384500D01*
X7004000Y6377170D01*
X7006670Y6362500D01*
X7004000Y6347830D01*
X6996000Y6338670D01*
X6986670Y6333170D01*
X6953330D01*
G01X6986670D02*
X7006670Y6280000D01*
G01X7040670Y6302000D02*
X7048670Y6289160D01*
X7059330Y6281830D01*
X7071330Y6280000D01*
X7082000Y6281830D01*
X7092670Y6291000D01*
X7099330Y6302000D01*
X7100670Y6313000D01*
X7098000Y6325830D01*
X7088670Y6335000D01*
X7079330Y6338670D01*
X7067330D01*
G01X7079330D02*
X7087330Y6344170D01*
X7094000Y6353330D01*
X7096670Y6364330D01*
X7094000Y6375330D01*
X7087330Y6384500D01*
X7075330Y6390000D01*
X7063330Y6388170D01*
X7051330Y6380830D01*
G01X7176000Y6280000D02*
Y6390000D01*
X7126670Y6311170D01*
X7193330D01*
G01X7880000Y2103330D02*
X7770000D01*
Y2136670D01*
X7775500Y2147330D01*
X7782830Y2154000D01*
X7797500Y2156670D01*
X7812170Y2154000D01*
X7821330Y2146000D01*
X7826830Y2136670D01*
Y2103330D01*
G01Y2136670D02*
X7880000Y2156670D01*
G01X7834170Y2194670D02*
X7821330Y2204000D01*
X7814000Y2212000D01*
X7810330Y2222670D01*
X7814000Y2232000D01*
X7821330Y2238670D01*
X7832330Y2244000D01*
X7845170Y2245330D01*
X7856170Y2244000D01*
X7867170Y2238670D01*
X7876330Y2230670D01*
X7880000Y2221330D01*
X7876330Y2210670D01*
X7865340Y2201330D01*
X7848830Y2196000D01*
X7830500Y2194670D01*
X7806670Y2197330D01*
X7793830Y2201330D01*
X7781000Y2208000D01*
X7771830Y2217330D01*
X7770000Y2226670D01*
X7773670Y2236000D01*
X7782830Y2242670D01*
G01X7779170Y1849330D02*
X7773670Y1841330D01*
X7770000Y1832000D01*
Y1821330D01*
X7775500Y1809330D01*
X7784670Y1800000D01*
X7795670Y1793330D01*
X7814000Y1788000D01*
X7830500Y1786670D01*
X7847000Y1789330D01*
X7858000Y1793330D01*
X7869000Y1801330D01*
X7876330Y1810670D01*
X7880000Y1820000D01*
Y1829330D01*
X7876330Y1838670D01*
X7870840Y1846670D01*
X7863500Y1853330D01*
G01X7788330Y1884670D02*
X7777340Y1892670D01*
X7771830Y1902000D01*
X7770000Y1912670D01*
X7773670Y1926000D01*
X7782830Y1935330D01*
X7793830Y1938000D01*
X7804840Y1936670D01*
X7814000Y1931330D01*
X7832330Y1904670D01*
X7845170Y1892670D01*
X7863500Y1884670D01*
X7880000Y1882000D01*
Y1938000D01*
G01X7480670Y4140000D02*
Y4061170D01*
X7486000Y4044660D01*
X7496670Y4033670D01*
X7510000Y4030000D01*
X7523330Y4033670D01*
X7534000Y4044660D01*
X7539330Y4061170D01*
Y4140000D01*
G01X7577330Y4042830D02*
X7586670Y4033670D01*
X7597330Y4030000D01*
X7608000Y4033670D01*
X7617330Y4044660D01*
X7624000Y4061170D01*
X7626670Y4077670D01*
Y4097830D01*
X7624000Y4114330D01*
X7617330Y4129000D01*
X7609330Y4136330D01*
X7600000Y4140000D01*
X7589330Y4136330D01*
X7581330Y4129000D01*
X7576000Y4118000D01*
X7573330Y4103330D01*
X7576000Y4090500D01*
X7582670Y4077670D01*
X7590670Y4070330D01*
X7600000Y4068500D01*
X7610670Y4072160D01*
X7618670Y4081330D01*
X7626670Y4097830D01*
G01X7543330Y5400000D02*
Y5290000D01*
X7596670D01*
G01X7630670Y5312000D02*
X7638670Y5299160D01*
X7649330Y5291830D01*
X7661330Y5290000D01*
X7672000Y5291830D01*
X7682670Y5301000D01*
X7689330Y5312000D01*
X7690670Y5323000D01*
X7688000Y5335830D01*
X7678670Y5345000D01*
X7669330Y5348670D01*
X7657330D01*
G01X7669330D02*
X7677330Y5354170D01*
X7684000Y5363330D01*
X7686670Y5374330D01*
X7684000Y5385330D01*
X7677330Y5394500D01*
X7665330Y5400000D01*
X7653330Y5398170D01*
X7641330Y5390830D01*
G01X7300000Y5279200D02*
Y5380800D01*
G01X7543330Y5200000D02*
Y5090000D01*
X7596670D01*
G01X7660000D02*
Y5200000D01*
X7644000Y5178000D01*
G01Y5090000D02*
X7676000D01*
G01X7300000Y5079200D02*
Y5180800D01*
G01X7549040Y6012840D02*
Y5902840D01*
G01X7518370Y6012840D02*
X7579710D01*
G01X7612370Y5902840D02*
Y6012840D01*
X7644370D01*
X7655040Y6007340D01*
X7663040Y5994510D01*
X7665710Y5979840D01*
X7663040Y5965170D01*
X7656370Y5954170D01*
X7644370Y5948670D01*
X7612370D01*
G01X7703710Y5994510D02*
X7711710Y6005500D01*
X7721040Y6011010D01*
X7731710Y6012840D01*
X7745040Y6009170D01*
X7754370Y6000010D01*
X7757040Y5989010D01*
X7755710Y5978000D01*
X7750370Y5968840D01*
X7723710Y5950510D01*
X7711710Y5937670D01*
X7703710Y5919340D01*
X7701040Y5902840D01*
X7757040D01*
G01X7549040Y5862840D02*
Y5752840D01*
G01X7518370Y5862840D02*
X7579710D01*
G01X7612370Y5752840D02*
Y5862840D01*
X7644370D01*
X7655040Y5857340D01*
X7663040Y5844510D01*
X7665710Y5829840D01*
X7663040Y5815170D01*
X7656370Y5804170D01*
X7644370Y5798670D01*
X7612370D01*
G01X7729040Y5752840D02*
Y5862840D01*
X7713040Y5840840D01*
G01Y5752840D02*
X7745040D01*
G01X7300000Y6210000D02*
X7289330Y6211830D01*
X7280000Y6219160D01*
X7272000Y6230170D01*
X7266670Y6243000D01*
X7264000Y6257670D01*
Y6272330D01*
X7266670Y6287000D01*
X7272000Y6299830D01*
X7280000Y6310830D01*
X7289330Y6318170D01*
X7300000Y6320000D01*
X7310670Y6318170D01*
X7320000Y6310830D01*
X7328000Y6299830D01*
X7333330Y6287000D01*
X7336000Y6272330D01*
Y6257670D01*
X7333330Y6243000D01*
X7328000Y6230170D01*
X7320000Y6219160D01*
X7310670Y6211830D01*
X7300000Y6210000D01*
G01X7310670Y6239330D02*
X7326670Y6210000D01*
G01X7364670Y6301670D02*
X7372670Y6312660D01*
X7382000Y6318170D01*
X7392670Y6320000D01*
X7406000Y6316330D01*
X7415330Y6307170D01*
X7418000Y6296170D01*
X7416670Y6285160D01*
X7411330Y6276000D01*
X7384670Y6257670D01*
X7372670Y6244830D01*
X7364670Y6226500D01*
X7362000Y6210000D01*
X7418000D01*
G01X7273330Y6350000D02*
Y6460000D01*
X7306670D01*
X7317330Y6454500D01*
X7324000Y6447170D01*
X7326670Y6432500D01*
X7324000Y6417830D01*
X7316000Y6408670D01*
X7306670Y6403170D01*
X7273330D01*
G01X7306670D02*
X7326670Y6350000D01*
G01X7364670Y6441670D02*
X7372670Y6452660D01*
X7382000Y6458170D01*
X7392670Y6460000D01*
X7406000Y6456330D01*
X7415330Y6447170D01*
X7418000Y6436170D01*
X7416670Y6425160D01*
X7411330Y6416000D01*
X7384670Y6397670D01*
X7372670Y6384830D01*
X7364670Y6366500D01*
X7362000Y6350000D01*
X7418000D01*
G01X7457330Y6362830D02*
X7466670Y6353670D01*
X7477330Y6350000D01*
X7488000Y6353670D01*
X7497330Y6364660D01*
X7504000Y6381170D01*
X7506670Y6397670D01*
Y6417830D01*
X7504000Y6434330D01*
X7497330Y6449000D01*
X7489330Y6456330D01*
X7480000Y6460000D01*
X7469330Y6456330D01*
X7461330Y6449000D01*
X7456000Y6438000D01*
X7453330Y6423330D01*
X7456000Y6410500D01*
X7462670Y6397670D01*
X7470670Y6390330D01*
X7480000Y6388500D01*
X7490670Y6392160D01*
X7498670Y6401330D01*
X7506670Y6417830D01*
G01X7549040Y6162840D02*
Y6052840D01*
G01X7518370Y6162840D02*
X7579710D01*
G01X7612370Y6052840D02*
Y6162840D01*
X7644370D01*
X7655040Y6157340D01*
X7663040Y6144510D01*
X7665710Y6129840D01*
X7663040Y6115170D01*
X7656370Y6104170D01*
X7644370Y6098670D01*
X7612370D01*
G01X7699710Y6074840D02*
X7707710Y6062000D01*
X7718370Y6054670D01*
X7730370Y6052840D01*
X7741040Y6054670D01*
X7751710Y6063840D01*
X7758370Y6074840D01*
X7759710Y6085840D01*
X7757040Y6098670D01*
X7747710Y6107840D01*
X7738370Y6111510D01*
X7726370D01*
G01X7738370D02*
X7746370Y6117010D01*
X7753040Y6126170D01*
X7755710Y6137170D01*
X7753040Y6148170D01*
X7746370Y6157340D01*
X7734370Y6162840D01*
X7722370Y6161010D01*
X7710370Y6153670D01*
G01X7890670Y1750000D02*
Y1671170D01*
X7896000Y1654660D01*
X7906670Y1643670D01*
X7920000Y1640000D01*
X7933330Y1643670D01*
X7944000Y1654660D01*
X7949330Y1671170D01*
Y1750000D01*
G01X8010000Y1640000D02*
Y1750000D01*
X7994000Y1728000D01*
G01Y1640000D02*
X8026000D01*
G01X8100000D02*
Y1750000D01*
X8084000Y1728000D01*
G01Y1640000D02*
X8116000D01*
G01X7980670Y4720000D02*
Y4641170D01*
X7986000Y4624660D01*
X7996670Y4613670D01*
X8010000Y4610000D01*
X8023330Y4613670D01*
X8034000Y4624660D01*
X8039330Y4641170D01*
Y4720000D01*
G01X8070670Y4632000D02*
X8078670Y4619160D01*
X8089330Y4611830D01*
X8101330Y4610000D01*
X8112000Y4611830D01*
X8122670Y4621000D01*
X8129330Y4632000D01*
X8130670Y4643000D01*
X8128000Y4655830D01*
X8118670Y4665000D01*
X8109330Y4668670D01*
X8097330D01*
G01X8109330D02*
X8117330Y4674170D01*
X8124000Y4683330D01*
X8126670Y4694330D01*
X8124000Y4705330D01*
X8117330Y4714500D01*
X8105330Y4720000D01*
X8093330Y4718170D01*
X8081330Y4710830D01*
G01X8049330Y5160830D02*
X8041330Y5166330D01*
X8032000Y5170000D01*
X8021330D01*
X8009330Y5164500D01*
X8000000Y5155330D01*
X7993330Y5144330D01*
X7988000Y5126000D01*
X7986670Y5109500D01*
X7989330Y5093000D01*
X7993330Y5082000D01*
X8001330Y5071000D01*
X8010670Y5063670D01*
X8020000Y5060000D01*
X8029330D01*
X8038670Y5063670D01*
X8046670Y5069160D01*
X8053330Y5076500D01*
G01X8110000Y5060000D02*
X8119330Y5061830D01*
X8130000Y5067330D01*
X8136670Y5076500D01*
X8139330Y5089330D01*
X8136670Y5102160D01*
X8128670Y5113170D01*
X8116670Y5118670D01*
X8103330D01*
X8095330Y5122330D01*
X8088670Y5131500D01*
X8086000Y5144330D01*
X8090000Y5157170D01*
X8099330Y5166330D01*
X8110000Y5170000D01*
X8120670Y5166330D01*
X8130000Y5157170D01*
X8134000Y5144330D01*
X8131330Y5131500D01*
X8124670Y5122330D01*
X8116670Y5118670D01*
X8103330D01*
X8091330Y5113170D01*
X8083330Y5102160D01*
X8080670Y5089330D01*
X8083330Y5076500D01*
X8090000Y5067330D01*
X8100670Y5061830D01*
X8110000Y5060000D01*
G01X7849330Y5160830D02*
X7841330Y5166330D01*
X7832000Y5170000D01*
X7821330D01*
X7809330Y5164500D01*
X7800000Y5155330D01*
X7793330Y5144330D01*
X7788000Y5126000D01*
X7786670Y5109500D01*
X7789330Y5093000D01*
X7793330Y5082000D01*
X7801330Y5071000D01*
X7810670Y5063670D01*
X7820000Y5060000D01*
X7829330D01*
X7838670Y5063670D01*
X7846670Y5069160D01*
X7853330Y5076500D01*
G01X7880670Y5082000D02*
X7888670Y5069160D01*
X7899330Y5061830D01*
X7911330Y5060000D01*
X7922000Y5061830D01*
X7932670Y5071000D01*
X7939330Y5082000D01*
X7940670Y5093000D01*
X7938000Y5105830D01*
X7928670Y5115000D01*
X7919330Y5118670D01*
X7907330D01*
G01X7919330D02*
X7927330Y5124170D01*
X7934000Y5133330D01*
X7936670Y5144330D01*
X7934000Y5155330D01*
X7927330Y5164500D01*
X7915330Y5170000D01*
X7903330Y5168170D01*
X7891330Y5160830D01*
G01X8200670Y6000000D02*
Y5921170D01*
X8206000Y5904660D01*
X8216670Y5893670D01*
X8230000Y5890000D01*
X8243330Y5893670D01*
X8254000Y5904660D01*
X8259330Y5921170D01*
Y6000000D01*
G01X8294670Y5935830D02*
X8304000Y5948670D01*
X8312000Y5956000D01*
X8322670Y5959670D01*
X8332000Y5956000D01*
X8338670Y5948670D01*
X8344000Y5937670D01*
X8345330Y5924830D01*
X8344000Y5913830D01*
X8338670Y5902830D01*
X8330670Y5893670D01*
X8321330Y5890000D01*
X8310670Y5893670D01*
X8301330Y5904660D01*
X8296000Y5921170D01*
X8294670Y5939500D01*
X8297330Y5963330D01*
X8301330Y5976170D01*
X8308000Y5989000D01*
X8317330Y5998170D01*
X8326670Y6000000D01*
X8336000Y5996330D01*
X8342670Y5987170D01*
G01X7843330Y6220000D02*
Y6330000D01*
X7876670D01*
X7887330Y6324500D01*
X7894000Y6317170D01*
X7896670Y6302500D01*
X7894000Y6287830D01*
X7886000Y6278670D01*
X7876670Y6273170D01*
X7843330D01*
G01X7876670D02*
X7896670Y6220000D01*
G01X7934670Y6311670D02*
X7942670Y6322660D01*
X7952000Y6328170D01*
X7962670Y6330000D01*
X7976000Y6326330D01*
X7985330Y6317170D01*
X7988000Y6306170D01*
X7986670Y6295160D01*
X7981330Y6286000D01*
X7954670Y6267670D01*
X7942670Y6254830D01*
X7934670Y6236500D01*
X7932000Y6220000D01*
X7988000D01*
G01X8066000D02*
Y6330000D01*
X8016670Y6251170D01*
X8083330D01*
G01X8133330Y6220000D02*
Y6330000D01*
X8166670D01*
X8177330Y6324500D01*
X8184000Y6317170D01*
X8186670Y6302500D01*
X8184000Y6287830D01*
X8176000Y6278670D01*
X8166670Y6273170D01*
X8133330D01*
G01X8166670D02*
X8186670Y6220000D01*
G01X8220670Y6242000D02*
X8228670Y6229160D01*
X8239330Y6221830D01*
X8251330Y6220000D01*
X8262000Y6221830D01*
X8272670Y6231000D01*
X8279330Y6242000D01*
X8280670Y6253000D01*
X8278000Y6265830D01*
X8268670Y6275000D01*
X8259330Y6278670D01*
X8247330D01*
G01X8259330D02*
X8267330Y6284170D01*
X8274000Y6293330D01*
X8276670Y6304330D01*
X8274000Y6315330D01*
X8267330Y6324500D01*
X8255330Y6330000D01*
X8243330Y6328170D01*
X8231330Y6320830D01*
G01X8337330Y6220000D02*
X8340000Y6243830D01*
X8344000Y6264000D01*
X8349330Y6282330D01*
X8356000Y6302500D01*
X8366670Y6330000D01*
X8313330D01*
G01X8189330Y6180830D02*
X8181330Y6186330D01*
X8172000Y6190000D01*
X8161330D01*
X8149330Y6184500D01*
X8140000Y6175330D01*
X8133330Y6164330D01*
X8128000Y6146000D01*
X8126670Y6129500D01*
X8129330Y6113000D01*
X8133330Y6102000D01*
X8141330Y6091000D01*
X8150670Y6083670D01*
X8160000Y6080000D01*
X8169330D01*
X8178670Y6083670D01*
X8186670Y6089160D01*
X8193330Y6096500D01*
G01X8220670Y6102000D02*
X8228670Y6089160D01*
X8239330Y6081830D01*
X8251330Y6080000D01*
X8262000Y6081830D01*
X8272670Y6091000D01*
X8279330Y6102000D01*
X8280670Y6113000D01*
X8278000Y6125830D01*
X8268670Y6135000D01*
X8259330Y6138670D01*
X8247330D01*
G01X8259330D02*
X8267330Y6144170D01*
X8274000Y6153330D01*
X8276670Y6164330D01*
X8274000Y6175330D01*
X8267330Y6184500D01*
X8255330Y6190000D01*
X8243330Y6188170D01*
X8231330Y6180830D01*
G01X8340000Y6080000D02*
X8349330Y6081830D01*
X8360000Y6087330D01*
X8366670Y6096500D01*
X8369330Y6109330D01*
X8366670Y6122160D01*
X8358670Y6133170D01*
X8346670Y6138670D01*
X8333330D01*
X8325330Y6142330D01*
X8318670Y6151500D01*
X8316000Y6164330D01*
X8320000Y6177170D01*
X8329330Y6186330D01*
X8340000Y6190000D01*
X8350670Y6186330D01*
X8360000Y6177170D01*
X8364000Y6164330D01*
X8361330Y6151500D01*
X8354670Y6142330D01*
X8346670Y6138670D01*
X8333330D01*
X8321330Y6133170D01*
X8313330Y6122160D01*
X8310670Y6109330D01*
X8313330Y6096500D01*
X8320000Y6087330D01*
X8330670Y6081830D01*
X8340000Y6080000D01*
G01X7899330Y6180830D02*
X7891330Y6186330D01*
X7882000Y6190000D01*
X7871330D01*
X7859330Y6184500D01*
X7850000Y6175330D01*
X7843330Y6164330D01*
X7838000Y6146000D01*
X7836670Y6129500D01*
X7839330Y6113000D01*
X7843330Y6102000D01*
X7851330Y6091000D01*
X7860670Y6083670D01*
X7870000Y6080000D01*
X7879330D01*
X7888670Y6083670D01*
X7896670Y6089160D01*
X7903330Y6096500D01*
G01X7930670Y6102000D02*
X7938670Y6089160D01*
X7949330Y6081830D01*
X7961330Y6080000D01*
X7972000Y6081830D01*
X7982670Y6091000D01*
X7989330Y6102000D01*
X7990670Y6113000D01*
X7988000Y6125830D01*
X7978670Y6135000D01*
X7969330Y6138670D01*
X7957330D01*
G01X7969330D02*
X7977330Y6144170D01*
X7984000Y6153330D01*
X7986670Y6164330D01*
X7984000Y6175330D01*
X7977330Y6184500D01*
X7965330Y6190000D01*
X7953330Y6188170D01*
X7941330Y6180830D01*
G01X8066000Y6080000D02*
Y6190000D01*
X8016670Y6111170D01*
X8083330D01*
G01X7820670Y6820000D02*
Y6741170D01*
X7826000Y6724660D01*
X7836670Y6713670D01*
X7850000Y6710000D01*
X7863330Y6713670D01*
X7874000Y6724660D01*
X7879330Y6741170D01*
Y6820000D01*
G01X7940000Y6710000D02*
Y6820000D01*
X7924000Y6798000D01*
G01Y6710000D02*
X7956000D01*
G01X8000670Y6732000D02*
X8008670Y6719160D01*
X8019330Y6711830D01*
X8031330Y6710000D01*
X8042000Y6711830D01*
X8052670Y6721000D01*
X8059330Y6732000D01*
X8060670Y6743000D01*
X8058000Y6755830D01*
X8048670Y6765000D01*
X8039330Y6768670D01*
X8027330D01*
G01X8039330D02*
X8047330Y6774170D01*
X8054000Y6783330D01*
X8056670Y6794330D01*
X8054000Y6805330D01*
X8047330Y6814500D01*
X8035330Y6820000D01*
X8023330Y6818170D01*
X8011330Y6810830D01*
G01X8170670Y7210000D02*
Y7131170D01*
X8176000Y7114660D01*
X8186670Y7103670D01*
X8200000Y7100000D01*
X8213330Y7103670D01*
X8224000Y7114660D01*
X8229330Y7131170D01*
Y7210000D01*
G01X8290000Y7100000D02*
Y7210000D01*
X8274000Y7188000D01*
G01Y7100000D02*
X8306000D01*
G01X8354670Y7191670D02*
X8362670Y7202660D01*
X8372000Y7208170D01*
X8382670Y7210000D01*
X8396000Y7206330D01*
X8405330Y7197170D01*
X8408000Y7186170D01*
X8406670Y7175160D01*
X8401330Y7166000D01*
X8374670Y7147670D01*
X8362670Y7134830D01*
X8354670Y7116500D01*
X8352000Y7100000D01*
X8408000D01*
G01X8219330Y6980830D02*
X8211330Y6986330D01*
X8202000Y6990000D01*
X8191330D01*
X8179330Y6984500D01*
X8170000Y6975330D01*
X8163330Y6964330D01*
X8158000Y6946000D01*
X8156670Y6929500D01*
X8159330Y6913000D01*
X8163330Y6902000D01*
X8171330Y6891000D01*
X8180670Y6883670D01*
X8190000Y6880000D01*
X8199330D01*
X8208670Y6883670D01*
X8216670Y6889160D01*
X8223330Y6896500D01*
G01X8250670Y6902000D02*
X8258670Y6889160D01*
X8269330Y6881830D01*
X8281330Y6880000D01*
X8292000Y6881830D01*
X8302670Y6891000D01*
X8309330Y6902000D01*
X8310670Y6913000D01*
X8308000Y6925830D01*
X8298670Y6935000D01*
X8289330Y6938670D01*
X8277330D01*
G01X8289330D02*
X8297330Y6944170D01*
X8304000Y6953330D01*
X8306670Y6964330D01*
X8304000Y6975330D01*
X8297330Y6984500D01*
X8285330Y6990000D01*
X8273330Y6988170D01*
X8261330Y6980830D01*
G01X8340670Y6896500D02*
X8348670Y6887330D01*
X8358000Y6881830D01*
X8370000Y6880000D01*
X8382000Y6883670D01*
X8391330Y6891000D01*
X8398000Y6903830D01*
X8399330Y6918500D01*
X8396670Y6933170D01*
X8390000Y6942330D01*
X8380670Y6949670D01*
X8371330Y6951500D01*
X8362000Y6949670D01*
X8350000Y6942330D01*
X8354000Y6990000D01*
X8390000D01*
G01X8193330Y7570000D02*
Y7680000D01*
X8226670D01*
X8237330Y7674500D01*
X8244000Y7667170D01*
X8246670Y7652500D01*
X8244000Y7637830D01*
X8236000Y7628670D01*
X8226670Y7623170D01*
X8193330D01*
G01X8226670D02*
X8246670Y7570000D01*
G01X8284670Y7661670D02*
X8292670Y7672660D01*
X8302000Y7678170D01*
X8312670Y7680000D01*
X8326000Y7676330D01*
X8335330Y7667170D01*
X8338000Y7656170D01*
X8336670Y7645160D01*
X8331330Y7636000D01*
X8304670Y7617670D01*
X8292670Y7604830D01*
X8284670Y7586500D01*
X8282000Y7570000D01*
X8338000D01*
G01X8397330D02*
X8400000Y7593830D01*
X8404000Y7614000D01*
X8409330Y7632330D01*
X8416000Y7652500D01*
X8426670Y7680000D01*
X8373330D01*
G01X8193330Y7720000D02*
Y7830000D01*
X8226670D01*
X8237330Y7824500D01*
X8244000Y7817170D01*
X8246670Y7802500D01*
X8244000Y7787830D01*
X8236000Y7778670D01*
X8226670Y7773170D01*
X8193330D01*
G01X8226670D02*
X8246670Y7720000D01*
G01X8284670Y7811670D02*
X8292670Y7822660D01*
X8302000Y7828170D01*
X8312670Y7830000D01*
X8326000Y7826330D01*
X8335330Y7817170D01*
X8338000Y7806170D01*
X8336670Y7795160D01*
X8331330Y7786000D01*
X8304670Y7767670D01*
X8292670Y7754830D01*
X8284670Y7736500D01*
X8282000Y7720000D01*
X8338000D01*
G01X8370670Y7736500D02*
X8378670Y7727330D01*
X8388000Y7721830D01*
X8400000Y7720000D01*
X8412000Y7723670D01*
X8421330Y7731000D01*
X8428000Y7743830D01*
X8429330Y7758500D01*
X8426670Y7773170D01*
X8420000Y7782330D01*
X8410670Y7789670D01*
X8401330Y7791500D01*
X8392000Y7789670D01*
X8380000Y7782330D01*
X8384000Y7830000D01*
X8420000D01*
G01X8203330Y8192000D02*
X8210000Y8181000D01*
X8218000Y8173670D01*
X8227330Y8170000D01*
X8238000Y8173670D01*
X8246000Y8181000D01*
X8254000Y8192000D01*
X8256670Y8206670D01*
Y8280000D01*
G01X8336000Y8170000D02*
Y8280000D01*
X8286670Y8201170D01*
X8353330D01*
G01X8409170Y1789330D02*
X8403670Y1781330D01*
X8400000Y1772000D01*
Y1761330D01*
X8405500Y1749330D01*
X8414670Y1740000D01*
X8425670Y1733330D01*
X8444000Y1728000D01*
X8460500Y1726670D01*
X8477000Y1729330D01*
X8488000Y1733330D01*
X8499000Y1741330D01*
X8506330Y1750670D01*
X8510000Y1760000D01*
Y1769330D01*
X8506330Y1778670D01*
X8500840Y1786670D01*
X8493500Y1793330D01*
G01X8510000Y1850000D02*
X8400000D01*
X8422000Y1834000D01*
G01X8510000D02*
Y1866000D01*
G01X8799330Y4150830D02*
X8791330Y4156330D01*
X8782000Y4160000D01*
X8771330D01*
X8759330Y4154500D01*
X8750000Y4145330D01*
X8743330Y4134330D01*
X8738000Y4116000D01*
X8736670Y4099500D01*
X8739330Y4083000D01*
X8743330Y4072000D01*
X8751330Y4061000D01*
X8760670Y4053670D01*
X8770000Y4050000D01*
X8779330D01*
X8788670Y4053670D01*
X8796670Y4059160D01*
X8803330Y4066500D01*
G01X8876000Y4050000D02*
Y4160000D01*
X8826670Y4081170D01*
X8893330D01*
G01X8399330Y5370830D02*
X8391330Y5376330D01*
X8382000Y5380000D01*
X8371330D01*
X8359330Y5374500D01*
X8350000Y5365330D01*
X8343330Y5354330D01*
X8338000Y5336000D01*
X8336670Y5319500D01*
X8339330Y5303000D01*
X8343330Y5292000D01*
X8351330Y5281000D01*
X8360670Y5273670D01*
X8370000Y5270000D01*
X8379330D01*
X8388670Y5273670D01*
X8396670Y5279160D01*
X8403330Y5286500D01*
G01X8437330Y5282830D02*
X8446670Y5273670D01*
X8457330Y5270000D01*
X8468000Y5273670D01*
X8477330Y5284660D01*
X8484000Y5301170D01*
X8486670Y5317670D01*
Y5337830D01*
X8484000Y5354330D01*
X8477330Y5369000D01*
X8469330Y5376330D01*
X8460000Y5380000D01*
X8449330Y5376330D01*
X8441330Y5369000D01*
X8436000Y5358000D01*
X8433330Y5343330D01*
X8436000Y5330500D01*
X8442670Y5317670D01*
X8450670Y5310330D01*
X8460000Y5308500D01*
X8470670Y5312160D01*
X8478670Y5321330D01*
X8486670Y5337830D01*
G01X8583330Y6530000D02*
Y6640000D01*
X8616670D01*
X8627330Y6634500D01*
X8634000Y6627170D01*
X8636670Y6612500D01*
X8634000Y6597830D01*
X8626000Y6588670D01*
X8616670Y6583170D01*
X8583330D01*
G01X8616670D02*
X8636670Y6530000D01*
G01X8674670Y6621670D02*
X8682670Y6632660D01*
X8692000Y6638170D01*
X8702670Y6640000D01*
X8716000Y6636330D01*
X8725330Y6627170D01*
X8728000Y6616170D01*
X8726670Y6605160D01*
X8721330Y6596000D01*
X8694670Y6577670D01*
X8682670Y6564830D01*
X8674670Y6546500D01*
X8672000Y6530000D01*
X8728000D01*
G01X8764670Y6575830D02*
X8774000Y6588670D01*
X8782000Y6596000D01*
X8792670Y6599670D01*
X8802000Y6596000D01*
X8808670Y6588670D01*
X8814000Y6577670D01*
X8815330Y6564830D01*
X8814000Y6553830D01*
X8808670Y6542830D01*
X8800670Y6533670D01*
X8791330Y6530000D01*
X8780670Y6533670D01*
X8771330Y6544660D01*
X8766000Y6561170D01*
X8764670Y6579500D01*
X8767330Y6603330D01*
X8771330Y6616170D01*
X8778000Y6629000D01*
X8787330Y6638170D01*
X8796670Y6640000D01*
X8806000Y6636330D01*
X8812670Y6627170D01*
G01X8863330Y6530000D02*
Y6640000D01*
X8896670D01*
X8907330Y6634500D01*
X8914000Y6627170D01*
X8916670Y6612500D01*
X8914000Y6597830D01*
X8906000Y6588670D01*
X8896670Y6583170D01*
X8863330D01*
G01X8896670D02*
X8916670Y6530000D01*
G01X8950670Y6552000D02*
X8958670Y6539160D01*
X8969330Y6531830D01*
X8981330Y6530000D01*
X8992000Y6531830D01*
X9002670Y6541000D01*
X9009330Y6552000D01*
X9010670Y6563000D01*
X9008000Y6575830D01*
X8998670Y6585000D01*
X8989330Y6588670D01*
X8977330D01*
G01X8989330D02*
X8997330Y6594170D01*
X9004000Y6603330D01*
X9006670Y6614330D01*
X9004000Y6625330D01*
X8997330Y6634500D01*
X8985330Y6640000D01*
X8973330Y6638170D01*
X8961330Y6630830D01*
G01X9047330Y6542830D02*
X9056670Y6533670D01*
X9067330Y6530000D01*
X9078000Y6533670D01*
X9087330Y6544660D01*
X9094000Y6561170D01*
X9096670Y6577670D01*
Y6597830D01*
X9094000Y6614330D01*
X9087330Y6629000D01*
X9079330Y6636330D01*
X9070000Y6640000D01*
X9059330Y6636330D01*
X9051330Y6629000D01*
X9046000Y6618000D01*
X9043330Y6603330D01*
X9046000Y6590500D01*
X9052670Y6577670D01*
X9060670Y6570330D01*
X9070000Y6568500D01*
X9080670Y6572160D01*
X9088670Y6581330D01*
X9096670Y6597830D01*
G01X8909330Y6490830D02*
X8901330Y6496330D01*
X8892000Y6500000D01*
X8881330D01*
X8869330Y6494500D01*
X8860000Y6485330D01*
X8853330Y6474330D01*
X8848000Y6456000D01*
X8846670Y6439500D01*
X8849330Y6423000D01*
X8853330Y6412000D01*
X8861330Y6401000D01*
X8870670Y6393670D01*
X8880000Y6390000D01*
X8889330D01*
X8898670Y6393670D01*
X8906670Y6399160D01*
X8913330Y6406500D01*
G01X8940670Y6412000D02*
X8948670Y6399160D01*
X8959330Y6391830D01*
X8971330Y6390000D01*
X8982000Y6391830D01*
X8992670Y6401000D01*
X8999330Y6412000D01*
X9000670Y6423000D01*
X8998000Y6435830D01*
X8988670Y6445000D01*
X8979330Y6448670D01*
X8967330D01*
G01X8979330D02*
X8987330Y6454170D01*
X8994000Y6463330D01*
X8996670Y6474330D01*
X8994000Y6485330D01*
X8987330Y6494500D01*
X8975330Y6500000D01*
X8963330Y6498170D01*
X8951330Y6490830D01*
G01X9057330Y6390000D02*
X9060000Y6413830D01*
X9064000Y6434000D01*
X9069330Y6452330D01*
X9076000Y6472500D01*
X9086670Y6500000D01*
X9033330D01*
G01X8639330Y6490830D02*
X8631330Y6496330D01*
X8622000Y6500000D01*
X8611330D01*
X8599330Y6494500D01*
X8590000Y6485330D01*
X8583330Y6474330D01*
X8578000Y6456000D01*
X8576670Y6439500D01*
X8579330Y6423000D01*
X8583330Y6412000D01*
X8591330Y6401000D01*
X8600670Y6393670D01*
X8610000Y6390000D01*
X8619330D01*
X8628670Y6393670D01*
X8636670Y6399160D01*
X8643330Y6406500D01*
G01X8670670Y6412000D02*
X8678670Y6399160D01*
X8689330Y6391830D01*
X8701330Y6390000D01*
X8712000Y6391830D01*
X8722670Y6401000D01*
X8729330Y6412000D01*
X8730670Y6423000D01*
X8728000Y6435830D01*
X8718670Y6445000D01*
X8709330Y6448670D01*
X8697330D01*
G01X8709330D02*
X8717330Y6454170D01*
X8724000Y6463330D01*
X8726670Y6474330D01*
X8724000Y6485330D01*
X8717330Y6494500D01*
X8705330Y6500000D01*
X8693330Y6498170D01*
X8681330Y6490830D01*
G01X8760670Y6412000D02*
X8768670Y6399160D01*
X8779330Y6391830D01*
X8791330Y6390000D01*
X8802000Y6391830D01*
X8812670Y6401000D01*
X8819330Y6412000D01*
X8820670Y6423000D01*
X8818000Y6435830D01*
X8808670Y6445000D01*
X8799330Y6448670D01*
X8787330D01*
G01X8799330D02*
X8807330Y6454170D01*
X8814000Y6463330D01*
X8816670Y6474330D01*
X8814000Y6485330D01*
X8807330Y6494500D01*
X8795330Y6500000D01*
X8783330Y6498170D01*
X8771330Y6490830D01*
G01X9175330Y30000D02*
Y140000D01*
X9210000Y48330D01*
X9244670Y140000D01*
Y30000D01*
G01X9272000D02*
Y140000D01*
G01X9328000D02*
Y30000D01*
G01Y85000D02*
X9272000D01*
G01X9364670Y121670D02*
X9372670Y132660D01*
X9382000Y138170D01*
X9392670Y140000D01*
X9406000Y136330D01*
X9415330Y127170D01*
X9418000Y116170D01*
X9416670Y105160D01*
X9411330Y96000D01*
X9384670Y77670D01*
X9372670Y64830D01*
X9364670Y46500D01*
X9362000Y30000D01*
X9418000D01*
G01X9400670Y2260000D02*
Y2181170D01*
X9406000Y2164660D01*
X9416670Y2153670D01*
X9430000Y2150000D01*
X9443330Y2153670D01*
X9454000Y2164660D01*
X9459330Y2181170D01*
Y2260000D01*
G01X9520000Y2150000D02*
Y2260000D01*
X9504000Y2238000D01*
G01Y2150000D02*
X9536000D01*
G01X9109330Y2390830D02*
X9101330Y2396330D01*
X9092000Y2400000D01*
X9081330D01*
X9069330Y2394500D01*
X9060000Y2385330D01*
X9053330Y2374330D01*
X9048000Y2356000D01*
X9046670Y2339500D01*
X9049330Y2323000D01*
X9053330Y2312000D01*
X9061330Y2301000D01*
X9070670Y2293670D01*
X9080000Y2290000D01*
X9089330D01*
X9098670Y2293670D01*
X9106670Y2299160D01*
X9113330Y2306500D01*
G01X9140670Y2312000D02*
X9148670Y2299160D01*
X9159330Y2291830D01*
X9171330Y2290000D01*
X9182000Y2291830D01*
X9192670Y2301000D01*
X9199330Y2312000D01*
X9200670Y2323000D01*
X9198000Y2335830D01*
X9188670Y2345000D01*
X9179330Y2348670D01*
X9167330D01*
G01X9179330D02*
X9187330Y2354170D01*
X9194000Y2363330D01*
X9196670Y2374330D01*
X9194000Y2385330D01*
X9187330Y2394500D01*
X9175330Y2400000D01*
X9163330Y2398170D01*
X9151330Y2390830D01*
G01X9234670Y2381670D02*
X9242670Y2392660D01*
X9252000Y2398170D01*
X9262670Y2400000D01*
X9276000Y2396330D01*
X9285330Y2387170D01*
X9288000Y2376170D01*
X9286670Y2365160D01*
X9281330Y2356000D01*
X9254670Y2337670D01*
X9242670Y2324830D01*
X9234670Y2306500D01*
X9232000Y2290000D01*
X9288000D01*
G01X9360000Y2960670D02*
X9438830D01*
X9455340Y2966000D01*
X9466330Y2976670D01*
X9470000Y2990000D01*
X9466330Y3003330D01*
X9455340Y3014000D01*
X9438830Y3019330D01*
X9360000D01*
G01X9455340Y3052000D02*
X9464500Y3062670D01*
X9470000Y3074670D01*
Y3085330D01*
X9464500Y3096000D01*
X9455340Y3104000D01*
X9442500Y3108000D01*
X9429670Y3105330D01*
X9418670Y3098670D01*
X9411330Y3086670D01*
X9407670Y3070670D01*
X9400330Y3061330D01*
X9387500Y3057330D01*
X9374670Y3060000D01*
X9365500Y3066670D01*
X9360000Y3076000D01*
Y3085330D01*
X9363670Y3094670D01*
X9372830Y3102670D01*
G01X9411330Y3180670D02*
X9405830Y3186000D01*
X9396670Y3190000D01*
X9383830Y3192670D01*
X9372830Y3190000D01*
X9365500Y3184670D01*
X9360000Y3175330D01*
Y3139330D01*
X9470000D01*
Y3183330D01*
X9462670Y3192670D01*
X9451670Y3198000D01*
X9438830Y3200670D01*
X9426000Y3198000D01*
X9415000Y3190000D01*
X9411330Y3180670D01*
Y3139330D01*
G01X9470000Y3260000D02*
X9360000D01*
X9382000Y3244000D01*
G01X9470000D02*
Y3276000D01*
G01X9043330Y2850000D02*
Y2960000D01*
X9076670D01*
X9087330Y2954500D01*
X9094000Y2947170D01*
X9096670Y2932500D01*
X9094000Y2917830D01*
X9086000Y2908670D01*
X9076670Y2903170D01*
X9043330D01*
G01X9076670D02*
X9096670Y2850000D01*
G01X9134670Y2895830D02*
X9144000Y2908670D01*
X9152000Y2916000D01*
X9162670Y2919670D01*
X9172000Y2916000D01*
X9178670Y2908670D01*
X9184000Y2897670D01*
X9185330Y2884830D01*
X9184000Y2873830D01*
X9178670Y2862830D01*
X9170670Y2853670D01*
X9161330Y2850000D01*
X9150670Y2853670D01*
X9141330Y2864660D01*
X9136000Y2881170D01*
X9134670Y2899500D01*
X9137330Y2923330D01*
X9141330Y2936170D01*
X9148000Y2949000D01*
X9157330Y2958170D01*
X9166670Y2960000D01*
X9176000Y2956330D01*
X9182670Y2947170D01*
G01X9250000Y2850000D02*
X9259330Y2851830D01*
X9270000Y2857330D01*
X9276670Y2866500D01*
X9279330Y2879330D01*
X9276670Y2892160D01*
X9268670Y2903170D01*
X9256670Y2908670D01*
X9243330D01*
X9235330Y2912330D01*
X9228670Y2921500D01*
X9226000Y2934330D01*
X9230000Y2947170D01*
X9239330Y2956330D01*
X9250000Y2960000D01*
X9260670Y2956330D01*
X9270000Y2947170D01*
X9274000Y2934330D01*
X9271330Y2921500D01*
X9264670Y2912330D01*
X9256670Y2908670D01*
X9243330D01*
X9231330Y2903170D01*
X9223330Y2892160D01*
X9220670Y2879330D01*
X9223330Y2866500D01*
X9230000Y2857330D01*
X9240670Y2851830D01*
X9250000Y2850000D01*
G01X9043330Y3000000D02*
Y3110000D01*
X9076670D01*
X9087330Y3104500D01*
X9094000Y3097170D01*
X9096670Y3082500D01*
X9094000Y3067830D01*
X9086000Y3058670D01*
X9076670Y3053170D01*
X9043330D01*
G01X9076670D02*
X9096670Y3000000D01*
G01X9134670Y3045830D02*
X9144000Y3058670D01*
X9152000Y3066000D01*
X9162670Y3069670D01*
X9172000Y3066000D01*
X9178670Y3058670D01*
X9184000Y3047670D01*
X9185330Y3034830D01*
X9184000Y3023830D01*
X9178670Y3012830D01*
X9170670Y3003670D01*
X9161330Y3000000D01*
X9150670Y3003670D01*
X9141330Y3014660D01*
X9136000Y3031170D01*
X9134670Y3049500D01*
X9137330Y3073330D01*
X9141330Y3086170D01*
X9148000Y3099000D01*
X9157330Y3108170D01*
X9166670Y3110000D01*
X9176000Y3106330D01*
X9182670Y3097170D01*
G01X9227330Y3012830D02*
X9236670Y3003670D01*
X9247330Y3000000D01*
X9258000Y3003670D01*
X9267330Y3014660D01*
X9274000Y3031170D01*
X9276670Y3047670D01*
Y3067830D01*
X9274000Y3084330D01*
X9267330Y3099000D01*
X9259330Y3106330D01*
X9250000Y3110000D01*
X9239330Y3106330D01*
X9231330Y3099000D01*
X9226000Y3088000D01*
X9223330Y3073330D01*
X9226000Y3060500D01*
X9232670Y3047670D01*
X9240670Y3040330D01*
X9250000Y3038500D01*
X9260670Y3042160D01*
X9268670Y3051330D01*
X9276670Y3067830D01*
G01X8930000Y3880000D02*
Y3929500D01*
X8903330Y3990000D01*
G01X8956670D02*
X8930000Y3929500D01*
G01X9020000Y3880000D02*
Y3990000D01*
X9004000Y3968000D01*
G01Y3880000D02*
X9036000D01*
G01X9429330Y4300830D02*
X9421330Y4306330D01*
X9412000Y4310000D01*
X9401330D01*
X9389330Y4304500D01*
X9380000Y4295330D01*
X9373330Y4284330D01*
X9368000Y4266000D01*
X9366670Y4249500D01*
X9369330Y4233000D01*
X9373330Y4222000D01*
X9381330Y4211000D01*
X9390670Y4203670D01*
X9400000Y4200000D01*
X9409330D01*
X9418670Y4203670D01*
X9426670Y4209160D01*
X9433330Y4216500D01*
G01X9464670Y4245830D02*
X9474000Y4258670D01*
X9482000Y4266000D01*
X9492670Y4269670D01*
X9502000Y4266000D01*
X9508670Y4258670D01*
X9514000Y4247670D01*
X9515330Y4234830D01*
X9514000Y4223830D01*
X9508670Y4212830D01*
X9500670Y4203670D01*
X9491330Y4200000D01*
X9480670Y4203670D01*
X9471330Y4214660D01*
X9466000Y4231170D01*
X9464670Y4249500D01*
X9467330Y4273330D01*
X9471330Y4286170D01*
X9478000Y4299000D01*
X9487330Y4308170D01*
X9496670Y4310000D01*
X9506000Y4306330D01*
X9512670Y4297170D01*
G01X9239330Y4300830D02*
X9231330Y4306330D01*
X9222000Y4310000D01*
X9211330D01*
X9199330Y4304500D01*
X9190000Y4295330D01*
X9183330Y4284330D01*
X9178000Y4266000D01*
X9176670Y4249500D01*
X9179330Y4233000D01*
X9183330Y4222000D01*
X9191330Y4211000D01*
X9200670Y4203670D01*
X9210000Y4200000D01*
X9219330D01*
X9228670Y4203670D01*
X9236670Y4209160D01*
X9243330Y4216500D01*
G01X9270670D02*
X9278670Y4207330D01*
X9288000Y4201830D01*
X9300000Y4200000D01*
X9312000Y4203670D01*
X9321330Y4211000D01*
X9328000Y4223830D01*
X9329330Y4238500D01*
X9326670Y4253170D01*
X9320000Y4262330D01*
X9310670Y4269670D01*
X9301330Y4271500D01*
X9292000Y4269670D01*
X9280000Y4262330D01*
X9284000Y4310000D01*
X9320000D01*
G01X9290000Y4540670D02*
X9368830D01*
X9385340Y4546000D01*
X9396330Y4556670D01*
X9400000Y4570000D01*
X9396330Y4583330D01*
X9385340Y4594000D01*
X9368830Y4599330D01*
X9290000D01*
G01X9385340Y4632000D02*
X9394500Y4642670D01*
X9400000Y4654670D01*
Y4665330D01*
X9394500Y4676000D01*
X9385340Y4684000D01*
X9372500Y4688000D01*
X9359670Y4685330D01*
X9348670Y4678670D01*
X9341330Y4666670D01*
X9337670Y4650670D01*
X9330330Y4641330D01*
X9317500Y4637330D01*
X9304670Y4640000D01*
X9295500Y4646670D01*
X9290000Y4656000D01*
Y4665330D01*
X9293670Y4674670D01*
X9302830Y4682670D01*
G01X9341330Y4760670D02*
X9335830Y4766000D01*
X9326670Y4770000D01*
X9313830Y4772670D01*
X9302830Y4770000D01*
X9295500Y4764670D01*
X9290000Y4755330D01*
Y4719330D01*
X9400000D01*
Y4763330D01*
X9392670Y4772670D01*
X9381670Y4778000D01*
X9368830Y4780670D01*
X9356000Y4778000D01*
X9345000Y4770000D01*
X9341330Y4760670D01*
Y4719330D01*
G01X9308330Y4814670D02*
X9297340Y4822670D01*
X9291830Y4832000D01*
X9290000Y4842670D01*
X9293670Y4856000D01*
X9302830Y4865330D01*
X9313830Y4868000D01*
X9324840Y4866670D01*
X9334000Y4861330D01*
X9352330Y4834670D01*
X9365170Y4822670D01*
X9383500Y4814670D01*
X9400000Y4812000D01*
Y4868000D01*
G01Y5743330D02*
X9290000D01*
Y5776670D01*
X9295500Y5787330D01*
X9302830Y5794000D01*
X9317500Y5796670D01*
X9332170Y5794000D01*
X9341330Y5786000D01*
X9346830Y5776670D01*
Y5743330D01*
G01Y5776670D02*
X9400000Y5796670D01*
G01X9378000Y5830670D02*
X9390840Y5838670D01*
X9398170Y5849330D01*
X9400000Y5861330D01*
X9398170Y5872000D01*
X9389000Y5882670D01*
X9378000Y5889330D01*
X9367000Y5890670D01*
X9354170Y5888000D01*
X9345000Y5878670D01*
X9341330Y5869330D01*
Y5857330D01*
G01Y5869330D02*
X9335830Y5877330D01*
X9326670Y5884000D01*
X9315670Y5886670D01*
X9304670Y5884000D01*
X9295500Y5877330D01*
X9290000Y5865330D01*
X9291830Y5853330D01*
X9299170Y5841330D01*
G01X9290000Y5950000D02*
X9293670Y5939330D01*
X9302830Y5931330D01*
X9313830Y5926000D01*
X9328500Y5922000D01*
X9345000Y5920670D01*
X9361500Y5922000D01*
X9376170Y5926000D01*
X9387170Y5931330D01*
X9396330Y5939330D01*
X9400000Y5950000D01*
X9396330Y5960670D01*
X9387170Y5968670D01*
X9376170Y5974000D01*
X9361500Y5978000D01*
X9345000Y5979330D01*
X9328500Y5978000D01*
X9313830Y5974000D01*
X9302830Y5968670D01*
X9293670Y5960670D01*
X9290000Y5950000D01*
G01X9410000Y6333330D02*
X9300000D01*
Y6366670D01*
X9305500Y6377330D01*
X9312830Y6384000D01*
X9327500Y6386670D01*
X9342170Y6384000D01*
X9351330Y6376000D01*
X9356830Y6366670D01*
Y6333330D01*
G01Y6366670D02*
X9410000Y6386670D01*
G01X9388000Y6420670D02*
X9400840Y6428670D01*
X9408170Y6439330D01*
X9410000Y6451330D01*
X9408170Y6462000D01*
X9399000Y6472670D01*
X9388000Y6479330D01*
X9377000Y6480670D01*
X9364170Y6478000D01*
X9355000Y6468670D01*
X9351330Y6459330D01*
Y6447330D01*
G01Y6459330D02*
X9345830Y6467330D01*
X9336670Y6474000D01*
X9325670Y6476670D01*
X9314670Y6474000D01*
X9305500Y6467330D01*
X9300000Y6455330D01*
X9301830Y6443330D01*
X9309170Y6431330D01*
G01X9393500Y6510670D02*
X9402670Y6518670D01*
X9408170Y6528000D01*
X9410000Y6540000D01*
X9406330Y6552000D01*
X9399000Y6561330D01*
X9386170Y6568000D01*
X9371500Y6569330D01*
X9356830Y6566670D01*
X9347670Y6560000D01*
X9340330Y6550670D01*
X9338500Y6541330D01*
X9340330Y6532000D01*
X9347670Y6520000D01*
X9300000Y6524000D01*
Y6560000D01*
G01X9250000Y6333330D02*
X9140000D01*
Y6366670D01*
X9145500Y6377330D01*
X9152830Y6384000D01*
X9167500Y6386670D01*
X9182170Y6384000D01*
X9191330Y6376000D01*
X9196830Y6366670D01*
Y6333330D01*
G01Y6366670D02*
X9250000Y6386670D01*
G01X9228000Y6420670D02*
X9240840Y6428670D01*
X9248170Y6439330D01*
X9250000Y6451330D01*
X9248170Y6462000D01*
X9239000Y6472670D01*
X9228000Y6479330D01*
X9217000Y6480670D01*
X9204170Y6478000D01*
X9195000Y6468670D01*
X9191330Y6459330D01*
Y6447330D01*
G01Y6459330D02*
X9185830Y6467330D01*
X9176670Y6474000D01*
X9165670Y6476670D01*
X9154670Y6474000D01*
X9145500Y6467330D01*
X9140000Y6455330D01*
X9141830Y6443330D01*
X9149170Y6431330D01*
G01X9204170Y6514670D02*
X9191330Y6524000D01*
X9184000Y6532000D01*
X9180330Y6542670D01*
X9184000Y6552000D01*
X9191330Y6558670D01*
X9202330Y6564000D01*
X9215170Y6565330D01*
X9226170Y6564000D01*
X9237170Y6558670D01*
X9246330Y6550670D01*
X9250000Y6541330D01*
X9246330Y6530670D01*
X9235340Y6521330D01*
X9218830Y6516000D01*
X9200500Y6514670D01*
X9176670Y6517330D01*
X9163830Y6521330D01*
X9151000Y6528000D01*
X9141830Y6537330D01*
X9140000Y6546670D01*
X9143670Y6556000D01*
X9152830Y6562670D01*
G01X9230000Y6623330D02*
X9120000D01*
Y6656670D01*
X9125500Y6667330D01*
X9132830Y6674000D01*
X9147500Y6676670D01*
X9162170Y6674000D01*
X9171330Y6666000D01*
X9176830Y6656670D01*
Y6623330D01*
G01Y6656670D02*
X9230000Y6676670D01*
G01Y6740000D02*
X9228170Y6749330D01*
X9222670Y6760000D01*
X9213500Y6766670D01*
X9200670Y6769330D01*
X9187840Y6766670D01*
X9176830Y6758670D01*
X9171330Y6746670D01*
Y6733330D01*
X9167670Y6725330D01*
X9158500Y6718670D01*
X9145670Y6716000D01*
X9132830Y6720000D01*
X9123670Y6729330D01*
X9120000Y6740000D01*
X9123670Y6750670D01*
X9132830Y6760000D01*
X9145670Y6764000D01*
X9158500Y6761330D01*
X9167670Y6754670D01*
X9171330Y6746670D01*
Y6733330D01*
X9176830Y6721330D01*
X9187840Y6713330D01*
X9200670Y6710670D01*
X9213500Y6713330D01*
X9222670Y6720000D01*
X9228170Y6730670D01*
X9230000Y6740000D01*
G01X9129170Y6999330D02*
X9123670Y6991330D01*
X9120000Y6982000D01*
Y6971330D01*
X9125500Y6959330D01*
X9134670Y6950000D01*
X9145670Y6943330D01*
X9164000Y6938000D01*
X9180500Y6936670D01*
X9197000Y6939330D01*
X9208000Y6943330D01*
X9219000Y6951330D01*
X9226330Y6960670D01*
X9230000Y6970000D01*
Y6979330D01*
X9226330Y6988670D01*
X9220840Y6996670D01*
X9213500Y7003330D01*
G01X9208000Y7030670D02*
X9220840Y7038670D01*
X9228170Y7049330D01*
X9230000Y7061330D01*
X9228170Y7072000D01*
X9219000Y7082670D01*
X9208000Y7089330D01*
X9197000Y7090670D01*
X9184170Y7088000D01*
X9175000Y7078670D01*
X9171330Y7069330D01*
Y7057330D01*
G01Y7069330D02*
X9165830Y7077330D01*
X9156670Y7084000D01*
X9145670Y7086670D01*
X9134670Y7084000D01*
X9125500Y7077330D01*
X9120000Y7065330D01*
X9121830Y7053330D01*
X9129170Y7041330D01*
G01X9230000Y7150000D02*
X9120000D01*
X9142000Y7134000D01*
G01X9230000D02*
Y7166000D01*
G01X9113330Y7600000D02*
Y7710000D01*
X9146670D01*
X9157330Y7704500D01*
X9164000Y7697170D01*
X9166670Y7682500D01*
X9164000Y7667830D01*
X9156000Y7658670D01*
X9146670Y7653170D01*
X9113330D01*
G01X9146670D02*
X9166670Y7600000D01*
G01X9246000D02*
Y7710000D01*
X9196670Y7631170D01*
X9263330D01*
G01X9320000Y7710000D02*
X9309330Y7706330D01*
X9301330Y7697170D01*
X9296000Y7686170D01*
X9292000Y7671500D01*
X9290670Y7655000D01*
X9292000Y7638500D01*
X9296000Y7623830D01*
X9301330Y7612830D01*
X9309330Y7603670D01*
X9320000Y7600000D01*
X9330670Y7603670D01*
X9338670Y7612830D01*
X9344000Y7623830D01*
X9348000Y7638500D01*
X9349330Y7655000D01*
X9348000Y7671500D01*
X9344000Y7686170D01*
X9338670Y7697170D01*
X9330670Y7706330D01*
X9320000Y7710000D01*
G01X9129170Y7319330D02*
X9123670Y7311330D01*
X9120000Y7302000D01*
Y7291330D01*
X9125500Y7279330D01*
X9134670Y7270000D01*
X9145670Y7263330D01*
X9164000Y7258000D01*
X9180500Y7256670D01*
X9197000Y7259330D01*
X9208000Y7263330D01*
X9219000Y7271330D01*
X9226330Y7280670D01*
X9230000Y7290000D01*
Y7299330D01*
X9226330Y7308670D01*
X9220840Y7316670D01*
X9213500Y7323330D01*
G01X9230000Y7377330D02*
X9206170Y7380000D01*
X9186000Y7384000D01*
X9167670Y7389330D01*
X9147500Y7396000D01*
X9120000Y7406670D01*
Y7353330D01*
G01X8953330Y8192000D02*
X8960000Y8181000D01*
X8968000Y8173670D01*
X8977330Y8170000D01*
X8988000Y8173670D01*
X8996000Y8181000D01*
X9004000Y8192000D01*
X9006670Y8206670D01*
Y8280000D01*
G01X9040670Y8192000D02*
X9048670Y8179160D01*
X9059330Y8171830D01*
X9071330Y8170000D01*
X9082000Y8171830D01*
X9092670Y8181000D01*
X9099330Y8192000D01*
X9100670Y8203000D01*
X9098000Y8215830D01*
X9088670Y8225000D01*
X9079330Y8228670D01*
X9067330D01*
G01X9079330D02*
X9087330Y8234170D01*
X9094000Y8243330D01*
X9096670Y8254330D01*
X9094000Y8265330D01*
X9087330Y8274500D01*
X9075330Y8280000D01*
X9063330Y8278170D01*
X9051330Y8270830D01*
G01X9113330Y7740000D02*
Y7850000D01*
X9146670D01*
X9157330Y7844500D01*
X9164000Y7837170D01*
X9166670Y7822500D01*
X9164000Y7807830D01*
X9156000Y7798670D01*
X9146670Y7793170D01*
X9113330D01*
G01X9146670D02*
X9166670Y7740000D01*
G01X9200670Y7762000D02*
X9208670Y7749160D01*
X9219330Y7741830D01*
X9231330Y7740000D01*
X9242000Y7741830D01*
X9252670Y7751000D01*
X9259330Y7762000D01*
X9260670Y7773000D01*
X9258000Y7785830D01*
X9248670Y7795000D01*
X9239330Y7798670D01*
X9227330D01*
G01X9239330D02*
X9247330Y7804170D01*
X9254000Y7813330D01*
X9256670Y7824330D01*
X9254000Y7835330D01*
X9247330Y7844500D01*
X9235330Y7850000D01*
X9223330Y7848170D01*
X9211330Y7840830D01*
G01X9320000Y7740000D02*
X9329330Y7741830D01*
X9340000Y7747330D01*
X9346670Y7756500D01*
X9349330Y7769330D01*
X9346670Y7782160D01*
X9338670Y7793170D01*
X9326670Y7798670D01*
X9313330D01*
X9305330Y7802330D01*
X9298670Y7811500D01*
X9296000Y7824330D01*
X9300000Y7837170D01*
X9309330Y7846330D01*
X9320000Y7850000D01*
X9330670Y7846330D01*
X9340000Y7837170D01*
X9344000Y7824330D01*
X9341330Y7811500D01*
X9334670Y7802330D01*
X9326670Y7798670D01*
X9313330D01*
X9301330Y7793170D01*
X9293330Y7782160D01*
X9290670Y7769330D01*
X9293330Y7756500D01*
X9300000Y7747330D01*
X9310670Y7741830D01*
X9320000Y7740000D01*
G01X9175330Y8170000D02*
Y8280000D01*
X9210000Y8188330D01*
X9244670Y8280000D01*
Y8170000D01*
G01X9272000D02*
Y8280000D01*
G01X9328000D02*
Y8170000D01*
G01Y8225000D02*
X9272000D01*
G01X9360670Y8192000D02*
X9368670Y8179160D01*
X9379330Y8171830D01*
X9391330Y8170000D01*
X9402000Y8171830D01*
X9412670Y8181000D01*
X9419330Y8192000D01*
X9420670Y8203000D01*
X9418000Y8215830D01*
X9408670Y8225000D01*
X9399330Y8228670D01*
X9387330D01*
G01X9399330D02*
X9407330Y8234170D01*
X9414000Y8243330D01*
X9416670Y8254330D01*
X9414000Y8265330D01*
X9407330Y8274500D01*
X9395330Y8280000D01*
X9383330Y8278170D01*
X9371330Y8270830D01*
G01X9660000Y3240670D02*
X9738830D01*
X9755340Y3246000D01*
X9766330Y3256670D01*
X9770000Y3270000D01*
X9766330Y3283330D01*
X9755340Y3294000D01*
X9738830Y3299330D01*
X9660000D01*
G01X9755340Y3332000D02*
X9764500Y3342670D01*
X9770000Y3354670D01*
Y3365330D01*
X9764500Y3376000D01*
X9755340Y3384000D01*
X9742500Y3388000D01*
X9729670Y3385330D01*
X9718670Y3378670D01*
X9711330Y3366670D01*
X9707670Y3350670D01*
X9700330Y3341330D01*
X9687500Y3337330D01*
X9674670Y3340000D01*
X9665500Y3346670D01*
X9660000Y3356000D01*
Y3365330D01*
X9663670Y3374670D01*
X9672830Y3382670D01*
G01X9711330Y3460670D02*
X9705830Y3466000D01*
X9696670Y3470000D01*
X9683830Y3472670D01*
X9672830Y3470000D01*
X9665500Y3464670D01*
X9660000Y3455330D01*
Y3419330D01*
X9770000D01*
Y3463330D01*
X9762670Y3472670D01*
X9751670Y3478000D01*
X9738830Y3480670D01*
X9726000Y3478000D01*
X9715000Y3470000D01*
X9711330Y3460670D01*
Y3419330D01*
G01X9940000Y3270000D02*
X9938170Y3259330D01*
X9930840Y3250000D01*
X9919830Y3242000D01*
X9907000Y3236670D01*
X9892330Y3234000D01*
X9877670D01*
X9863000Y3236670D01*
X9850170Y3242000D01*
X9839170Y3250000D01*
X9831830Y3259330D01*
X9830000Y3270000D01*
X9831830Y3280670D01*
X9839170Y3290000D01*
X9850170Y3298000D01*
X9863000Y3303330D01*
X9877670Y3306000D01*
X9892330D01*
X9907000Y3303330D01*
X9919830Y3298000D01*
X9930840Y3290000D01*
X9938170Y3280670D01*
X9940000Y3270000D01*
G01X9830000Y3360000D02*
X9940000D01*
G01X9830000Y3329330D02*
Y3390670D01*
G01X9885000Y3458000D02*
Y3484670D01*
X9918000D01*
X9929000Y3476670D01*
X9936330Y3467330D01*
X9940000Y3454000D01*
X9936330Y3440670D01*
X9929000Y3431330D01*
X9918000Y3423330D01*
X9905170Y3418000D01*
X9890500Y3415330D01*
X9877670D01*
X9866670Y3418000D01*
X9853830Y3423330D01*
X9842830Y3431330D01*
X9835500Y3439330D01*
X9830000Y3450000D01*
Y3459330D01*
X9833670Y3470000D01*
X9841000Y3478000D01*
G01X9660000Y3920670D02*
X9738830D01*
X9755340Y3926000D01*
X9766330Y3936670D01*
X9770000Y3950000D01*
X9766330Y3963330D01*
X9755340Y3974000D01*
X9738830Y3979330D01*
X9660000D01*
G01X9755340Y4012000D02*
X9764500Y4022670D01*
X9770000Y4034670D01*
Y4045330D01*
X9764500Y4056000D01*
X9755340Y4064000D01*
X9742500Y4068000D01*
X9729670Y4065330D01*
X9718670Y4058670D01*
X9711330Y4046670D01*
X9707670Y4030670D01*
X9700330Y4021330D01*
X9687500Y4017330D01*
X9674670Y4020000D01*
X9665500Y4026670D01*
X9660000Y4036000D01*
Y4045330D01*
X9663670Y4054670D01*
X9672830Y4062670D01*
G01X9711330Y4140670D02*
X9705830Y4146000D01*
X9696670Y4150000D01*
X9683830Y4152670D01*
X9672830Y4150000D01*
X9665500Y4144670D01*
X9660000Y4135330D01*
Y4099330D01*
X9770000D01*
Y4143330D01*
X9762670Y4152670D01*
X9751670Y4158000D01*
X9738830Y4160670D01*
X9726000Y4158000D01*
X9715000Y4150000D01*
X9711330Y4140670D01*
Y4099330D01*
G01X9830000Y3950000D02*
X9940000D01*
G01X9830000Y3919330D02*
Y3980670D01*
G01Y4040000D02*
X9940000D01*
G01X9830000Y4009330D02*
Y4070670D01*
G01Y4103330D02*
X9940000D01*
Y4156670D01*
G01X9763330Y5390000D02*
Y5500000D01*
X9796670D01*
X9807330Y5494500D01*
X9814000Y5487170D01*
X9816670Y5472500D01*
X9814000Y5457830D01*
X9806000Y5448670D01*
X9796670Y5443170D01*
X9763330D01*
G01X9796670D02*
X9816670Y5390000D01*
G01X9853330D02*
Y5500000D01*
X9885330D01*
X9896000Y5494500D01*
X9904000Y5481670D01*
X9906670Y5467000D01*
X9904000Y5452330D01*
X9897330Y5441330D01*
X9885330Y5435830D01*
X9853330D01*
G01X9970000Y5390000D02*
Y5500000D01*
X9954000Y5478000D01*
G01Y5390000D02*
X9986000D01*
G01X9544670Y5260000D02*
Y5370000D01*
X9595330D01*
G01X9576670Y5316830D02*
X9544670D01*
G01X9660000Y5260000D02*
Y5370000D01*
X9644000Y5348000D01*
G01Y5260000D02*
X9676000D01*
G01X9835670Y7610000D02*
Y7531170D01*
X9841000Y7514660D01*
X9851670Y7503670D01*
X9865000Y7500000D01*
X9878330Y7503670D01*
X9889000Y7514660D01*
X9894330Y7531170D01*
Y7610000D01*
G01X9925670Y7516500D02*
X9933670Y7507330D01*
X9943000Y7501830D01*
X9955000Y7500000D01*
X9967000Y7503670D01*
X9976330Y7511000D01*
X9983000Y7523830D01*
X9984330Y7538500D01*
X9981670Y7553170D01*
X9975000Y7562330D01*
X9965670Y7569670D01*
X9956330Y7571500D01*
X9947000Y7569670D01*
X9935000Y7562330D01*
X9939000Y7610000D01*
X9975000D01*
G54D29*
X4030000Y7820000D03*
X4530000D03*
X8887000Y8010000D03*
X8633000D03*
X9420000Y1174000D03*
Y1428000D03*
Y1682000D03*
Y1936000D03*
X9141000Y8010000D03*
X9674000Y1174000D03*
Y1428000D03*
Y1682000D03*
Y1936000D03*
X9710000Y6030000D03*
Y5776000D03*
Y6284000D03*
X9620000Y6963000D03*
Y6709000D03*
Y7471000D03*
G54D47*
X9150000Y3760000D03*
X9370000D03*
Y3920000D03*
X9150000D03*
G54D38*
X7622600Y457800D03*
X9237400D03*
G54D57*
G01X164740Y7527800D02*
X162200D01*
Y4886200D01*
X771800D01*
Y7527800D01*
X162200D01*
G01X3227800Y8192720D02*
X814800D01*
X809720Y8187640D01*
Y7585660D01*
X3225260D01*
X3227800Y7588200D01*
Y8192720D01*
G54D48*
X9120000Y5220000D03*
X9400000D03*
G54D39*
X7776000Y1532000D03*
X7886000D03*
X7996000D03*
X8106000D03*
X8216000D03*
X8326000D03*
X8436000D03*
X8546000D03*
X8656000D03*
G54D49*
X9527000Y2579000D03*
Y2644000D03*
Y2709000D03*
Y2774000D03*
Y2839000D03*
Y4559000D03*
Y4624000D03*
Y4689000D03*
Y4754000D03*
Y4819000D03*
M02*
