G04 ================== begin FILE IDENTIFICATION RECORD ==================*
G04 Layout Name:  E:/GitHub/48_CP2102/PCB/UART_V10A.brd*
G04 Film Name:    SilkScreen_Top*
G04 File Format:  Gerber RS274X*
G04 File Origin:  Cadence Allegro 16.6-2015-S071*
G04 Origin Date:  Fri Aug 19 15:11:41 2016*
G04 *
G04 Layer:  REF DES/SILKSCREEN_TOP*
G04 Layer:  PACKAGE GEOMETRY/SILKSCREEN_TOP*
G04 Layer:  BOARD GEOMETRY/SILKSCREEN_TOP*
G04 *
G04 Offset:    (0.0000 0.0000)*
G04 Mirror:    No*
G04 Mode:      Positive*
G04 Rotation:  0*
G04 FullContactRelief:  No*
G04 UndefLineWidth:     0.1524*
G04 ================== end FILE IDENTIFICATION RECORD ====================*
%FSLAX25Y25*MOMM*%
%IR0*IPPOS*OFA0.00000B0.00000*MIA0B0*SFA1.00000B1.00000*%
%ADD10C,.2032*%
%ADD11C,.254*%
%ADD12C,.1524*%
%ADD13C,.1778*%
G75*
%LPD*%
G75*
G36*
G01X790000Y1440000D02*
G03I-30000J0D01*
G37*
G36*
G01X965000Y2027640D02*
G03I-29620J0D01*
G37*
G36*
G01X1618700Y2013400D02*
G03I-38100J0D01*
G37*
G36*
G01X2470000Y750000D02*
G03I-40000J0D01*
G37*
G54D10*
G01X920000Y1030000D02*
X830000D01*
Y1120000D01*
G01Y1460000D02*
Y1550000D01*
X920000D01*
G01X1042200Y2081100D02*
X1397800D01*
Y2258900D01*
X1042200D01*
Y2081100D01*
G01X1350000Y1120000D02*
Y1030000D01*
X1260000D01*
G01Y1550000D02*
X1350000D01*
Y1460000D01*
G01X1452200Y2081100D02*
X1807800D01*
Y2258900D01*
X1452200D01*
Y2081100D01*
G54D11*
G01X-20000Y1824000D02*
Y1084000D01*
X480000D01*
Y1824000D01*
X-20000D01*
G01X120000Y1650000D02*
Y1250000D01*
X310000D01*
Y1650000D01*
X120000D01*
G01X310000Y1490000D02*
X120000D01*
G01X310000Y1400000D02*
X120000D01*
G01X354000Y1824000D02*
Y1093000D01*
G01X980780Y670780D02*
X1201760D01*
G01X980780Y889220D02*
Y670780D01*
G01X963000Y653000D02*
Y907000D01*
G01X1979000Y653000D02*
X963000D01*
G01X1201760Y889220D02*
X980780D01*
G01X963000Y907000D02*
X1979000D01*
G01X1108100Y1999700D02*
X1133500D01*
Y1720300D01*
X1006500D01*
Y1999700D01*
X1031900D01*
G01X1108100D02*
G02X1031900I-38100J12700D01*
G01X1201760Y670780D02*
Y889220D01*
G01X1923500Y2013400D02*
X2025100D01*
Y946600D01*
X1694900D01*
Y2013400D01*
X1821900D01*
G01X1923500D02*
G02X1821900I-50800J-1588D01*
G01X1979000Y907000D02*
Y653000D01*
G01X2871040Y351480D02*
X2481040D01*
X2381040Y301480D01*
Y101480D01*
X2481040Y51480D01*
X2871040D01*
G01X2790000Y2090000D02*
X2370000D01*
Y810000D01*
X2790000D01*
G01X2860000Y2850000D02*
X2470000D01*
X2370000Y2800000D01*
Y2600000D01*
X2470000Y2550000D01*
X2860000D01*
G01X3060000Y400000D02*
X2860000D01*
Y0D01*
X3860000D01*
Y400000D01*
X2860000D01*
G01X3270000Y2990000D02*
Y2510000D01*
G02X3170000Y2410000I-100000J0D01*
G01X2980000D01*
G03X2880000Y2310000I0J-100000D01*
G01Y590000D01*
G03X2980000Y490000I100000J0D01*
G01X3170000D01*
G02X3270000Y390000I0J-100000D01*
G01Y-90000D01*
X3350000D01*
Y530000D01*
G02X3450000Y630000I100000J0D01*
G01X3830000D01*
G03X3930000Y730000I0J100000D01*
G01Y2170000D01*
G03X3830000Y2270000I-100000J0D01*
G01X3450000D01*
G02X3350000Y2370000I0J100000D01*
G01Y2990000D01*
X3270000D01*
G01X2887710Y2278000D02*
X2787710D01*
Y638000D01*
X2873310D01*
X2875010Y639700D01*
G01X3060000Y2900000D02*
X2860000D01*
Y2500000D01*
X3860000D01*
Y2900000D01*
X2860000D01*
G01X3350000Y0D02*
Y100000D01*
X3860000D01*
G01X3350000Y400000D02*
Y300000D01*
X3860000D01*
G01X3270000Y2410000D02*
Y2510000D01*
Y390000D01*
G01X3350000Y2370000D02*
Y520000D01*
G01Y2500000D02*
Y2600000D01*
X3860000D01*
G01X3350000Y2900000D02*
Y2800000D01*
X3860000D01*
G54D12*
G01X435050Y705720D02*
X454530D01*
Y678290D01*
X448680Y669140D01*
X441870Y663050D01*
X432130Y660000D01*
X422390Y663050D01*
X415580Y669140D01*
X409740Y678290D01*
X405840Y688960D01*
X403890Y701150D01*
Y711820D01*
X405840Y720960D01*
X409740Y731630D01*
X415580Y740770D01*
X421420Y746870D01*
X429210Y751440D01*
X436030D01*
X443810Y748390D01*
X449660Y742300D01*
G01X485560Y660000D02*
Y751440D01*
X530340Y660000D01*
Y751440D01*
G01X565270Y660000D02*
Y751440D01*
X584740D01*
X592530Y746870D01*
X598370Y740770D01*
X603240Y731630D01*
X607140Y720960D01*
X608110Y705720D01*
X607140Y690480D01*
X603240Y679810D01*
X598370Y670670D01*
X592530Y664570D01*
X584740Y660000D01*
X565270D01*
G01X652770Y690480D02*
X678090D01*
G01X719830Y751440D02*
X744170Y660000D01*
X768510Y751440D01*
G01X844330Y743820D02*
X838490Y748390D01*
X831670Y751440D01*
X823880D01*
X815120Y746870D01*
X808310Y739250D01*
X803440Y730100D01*
X799540Y714860D01*
X798570Y701150D01*
X800520Y687430D01*
X803440Y678290D01*
X809280Y669140D01*
X816090Y663050D01*
X822910Y660000D01*
X829730D01*
X836540Y663050D01*
X842380Y667620D01*
X847250Y673710D01*
G01X923070Y743820D02*
X917230Y748390D01*
X910410Y751440D01*
X902620D01*
X893860Y746870D01*
X887050Y739250D01*
X882180Y730100D01*
X878280Y714860D01*
X877310Y701150D01*
X879260Y687430D01*
X882180Y678290D01*
X888020Y669140D01*
X894830Y663050D01*
X901650Y660000D01*
X908470D01*
X915280Y663050D01*
X921120Y667620D01*
X925990Y673710D01*
G01X517790Y1821440D02*
Y1755910D01*
X521680Y1742190D01*
X529470Y1733050D01*
X539210Y1730000D01*
X548950Y1733050D01*
X556740Y1742190D01*
X560630Y1755910D01*
Y1821440D01*
G01X597500Y1742190D02*
X605290Y1734570D01*
X614060Y1730000D01*
X621840D01*
X629630Y1734570D01*
X635480Y1742190D01*
X638400Y1752860D01*
X636450Y1763530D01*
X631580Y1772670D01*
X622820Y1778770D01*
X611130Y1781820D01*
X604320Y1787910D01*
X601400Y1798580D01*
X603350Y1809250D01*
X608210Y1816870D01*
X615030Y1821440D01*
X621840D01*
X628660Y1818390D01*
X634500Y1810770D01*
G01X704480Y1778770D02*
X708370Y1783340D01*
X711290Y1790960D01*
X713240Y1801630D01*
X711290Y1810770D01*
X707400Y1816870D01*
X700580Y1821440D01*
X674300D01*
Y1730000D01*
X706430D01*
X713240Y1736090D01*
X717140Y1745240D01*
X719080Y1755910D01*
X717140Y1766570D01*
X711290Y1775720D01*
X704480Y1778770D01*
X674300D01*
G01X775430Y1730000D02*
Y1821440D01*
X763750Y1803150D01*
G01Y1730000D02*
X787110D01*
G01X777790Y1681440D02*
Y1615910D01*
X781680Y1602190D01*
X789470Y1593050D01*
X799210Y1590000D01*
X808950Y1593050D01*
X816740Y1602190D01*
X820630Y1615910D01*
Y1681440D01*
G01X877950Y1590000D02*
Y1681440D01*
X866270Y1663150D01*
G01Y1590000D02*
X889630D01*
G01X707790Y1961440D02*
Y1895910D01*
X711680Y1882190D01*
X719470Y1873050D01*
X729210Y1870000D01*
X738950Y1873050D01*
X746740Y1882190D01*
X750630Y1895910D01*
Y1961440D01*
G01X789450Y1946200D02*
X795290Y1955340D01*
X802110Y1959920D01*
X809900Y1961440D01*
X819630Y1958390D01*
X826450Y1950770D01*
X828400Y1941630D01*
X827420Y1932480D01*
X823530Y1924860D01*
X804060Y1909620D01*
X795290Y1898960D01*
X789450Y1883710D01*
X787500Y1870000D01*
X828400D01*
G01X859210Y2221440D02*
Y2130000D01*
G01X836820Y2221440D02*
X881600D01*
G01X917500Y2130000D02*
X958400Y2221440D01*
G01X917500D02*
X958400Y2130000D01*
G01X1339740Y958290D02*
X1344610Y949140D01*
X1350450Y943050D01*
X1357260Y940000D01*
X1365050Y943050D01*
X1370890Y949140D01*
X1376740Y958290D01*
X1378680Y970480D01*
Y1031440D01*
G01X1437950Y940000D02*
Y1031440D01*
X1426270Y1013150D01*
G01Y940000D02*
X1449630D01*
G01X1337790Y1931440D02*
Y1865910D01*
X1341680Y1852190D01*
X1349470Y1843050D01*
X1359210Y1840000D01*
X1368950Y1843050D01*
X1376740Y1852190D01*
X1380630Y1865910D01*
Y1931440D01*
G01X1416530Y1858290D02*
X1422370Y1847620D01*
X1430160Y1841520D01*
X1438920Y1840000D01*
X1446710Y1841520D01*
X1454500Y1849140D01*
X1459370Y1858290D01*
X1460340Y1867430D01*
X1458400Y1878100D01*
X1451580Y1885720D01*
X1444770Y1888770D01*
X1436000D01*
G01X1444770D02*
X1450610Y1893340D01*
X1455480Y1900960D01*
X1457420Y1910100D01*
X1455480Y1919250D01*
X1450610Y1926870D01*
X1441840Y1931440D01*
X1433080Y1929920D01*
X1424320Y1923820D01*
G01X1287790Y1970000D02*
Y2061440D01*
X1307260D01*
X1315050Y2056870D01*
X1320890Y2050770D01*
X1325760Y2041630D01*
X1329660Y2030960D01*
X1330630Y2015720D01*
X1329660Y2000480D01*
X1325760Y1989810D01*
X1320890Y1980670D01*
X1315050Y1974570D01*
X1307260Y1970000D01*
X1287790D01*
G01X1387950D02*
Y2061440D01*
X1376270Y2043150D01*
G01Y1970000D02*
X1399630D01*
G01X1447790D02*
Y2061440D01*
X1467260D01*
X1475050Y2056870D01*
X1480890Y2050770D01*
X1485760Y2041630D01*
X1489660Y2030960D01*
X1490630Y2015720D01*
X1489660Y2000480D01*
X1485760Y1989810D01*
X1480890Y1980670D01*
X1475050Y1974570D01*
X1467260Y1970000D01*
X1447790D01*
G01X1529450Y2046200D02*
X1535290Y2055340D01*
X1542110Y2059920D01*
X1549900Y2061440D01*
X1559630Y2058390D01*
X1566450Y2050770D01*
X1568400Y2041630D01*
X1567420Y2032480D01*
X1563530Y2024860D01*
X1544060Y2009620D01*
X1535290Y1998960D01*
X1529450Y1983710D01*
X1527500Y1970000D01*
X1568400D01*
G01X1859740Y2120000D02*
Y2211440D01*
X1884080D01*
X1891870Y2206870D01*
X1896740Y2200770D01*
X1898680Y2188580D01*
X1896740Y2176390D01*
X1890890Y2168770D01*
X1884080Y2164190D01*
X1859740D01*
G01X1884080D02*
X1898680Y2120000D01*
G01X1937500D02*
X1978400Y2211440D01*
G01X1937500D02*
X1978400Y2120000D01*
G01X2009740Y650000D02*
Y741440D01*
X2034080D01*
X2041870Y736870D01*
X2046740Y730770D01*
X2048680Y718580D01*
X2046740Y706390D01*
X2040890Y698770D01*
X2034080Y694190D01*
X2009740D01*
G01X2034080D02*
X2048680Y650000D01*
G01X2087500D02*
X2128400Y741440D01*
G01X2087500D02*
X2128400Y650000D01*
G01X2174030Y680480D02*
X2199350D01*
G01X2265430Y741440D02*
Y650000D01*
G01X2243040Y741440D02*
X2287820D01*
G01X2323720Y650000D02*
X2364620Y741440D01*
G01X2323720D02*
X2364620Y650000D01*
G01X2381160Y2138290D02*
X2386030Y2129140D01*
X2391870Y2123050D01*
X2398680Y2120000D01*
X2406470Y2123050D01*
X2412310Y2129140D01*
X2418160Y2138290D01*
X2420100Y2150480D01*
Y2211440D01*
G01X2460870Y2196200D02*
X2466710Y2205340D01*
X2473530Y2209920D01*
X2481320Y2211440D01*
X2491050Y2208390D01*
X2497870Y2200770D01*
X2499820Y2191630D01*
X2498840Y2182480D01*
X2494950Y2174860D01*
X2475480Y2159620D01*
X2466710Y2148960D01*
X2460870Y2133710D01*
X2458920Y2120000D01*
X2499820D01*
G54D13*
G01X1250480Y2106500D02*
X1186980Y2170000D01*
X1250480Y2233500D01*
Y2106500D01*
X1232700Y2124280D01*
Y2208100D01*
X1220000Y2195400D01*
Y2144600D01*
X1207300Y2157300D01*
Y2182700D01*
G01X1660480Y2106500D02*
X1596980Y2170000D01*
X1660480Y2233500D01*
Y2106500D01*
X1642700Y2124280D01*
Y2208100D01*
X1630000Y2195400D01*
Y2144600D01*
X1617300Y2157300D01*
Y2182700D01*
M02*
