M48
INCH,TZ
T01C.018
T02C.03
T03C.032
T04C.038
T05C.066929
T06C.18
;LEADER: 12 
;HEADER: 
;CODE  : ASCII 
;FILE  : DISCOVERY-F030_BOOSTPACK-1-2.drl for  ... layers TOP and BOTTOM
;DESIGN: DISCOVERY-F030_BOOSTPACK.brd
;T01 Holesize 1. = 18.000000 Tolerance = +0.000000/-0.000000 PLATED MILS Quantity = 388
;T02 Holesize 2. = 30.000000 Tolerance = +0.000000/-0.000000 PLATED MILS Quantity = 8
;T03 Holesize 3. = 32.000000 Tolerance = +0.000000/-0.000000 PLATED MILS Quantity = 20
;T04 Holesize 4. = 38.000000 Tolerance = +0.000000/-0.000000 PLATED MILS Quantity = 154
;T05 Holesize 5. = 66.929000 Tolerance = +0.000000/-0.000000 PLATED MILS Quantity = 2
;T06 Holesize 6. = 180.000000 Tolerance = +0.000000/-0.000000 PLATED MILS Quantity = 4
%
G90
T01
X254000Y60500
R03Y7000
X383500Y29000
X363000Y10500
X363000Y29000
X322000Y147000
X351000Y219957
X354500Y220000
X365500Y159000
X365500Y153500
X369500Y153500
X393000Y153500
X402500Y116000
X403000Y106000
X347500Y15856
X347500Y23500
X316500Y106000
X312500Y106000
X358000Y200500
X362500Y220000
X308500Y106000
X304500Y106000
X333500Y184000
X352032Y139000
X322000Y150500
X392000Y180937
X392000Y176500
X357500Y184000
X313500Y162500
X308500Y200000
X365000Y175000
R04X-4000
X349500Y184000
X341500Y184000
X337500Y184000
X353500Y184000
X345500Y184000
X171500Y18500
X110500Y121000
X73000Y74000
X164414Y97500
X164414Y233086
X107500Y242500
X107500Y238000
X107500Y233000
X114000Y242500
X114000Y238000
X114000Y233000
X120000Y242500
X120000Y238000
X120000Y233000
X87000Y269500
X138500Y340500
X106500Y255000
X106500Y258500
X103000Y301000
R02X4000
X111000Y255000
X75000Y303500
X124500Y273500
X98500Y260000
X91000Y269500
X68500Y315500
X97500Y284000
X144500Y334000
X42000Y236000
X191000Y268000
X194000Y63000
X49500Y119500
X53000Y14000
X99000Y170500
X191500Y241500
X192000Y229500
X56000Y77500
X11500Y158500
X52500Y186000
X138000Y266000
X20500Y76500
X11000Y59000
X148000Y127000
X192500Y39500
X195500Y285500
X195000Y259000
X6098Y216164
R05Y20000
X156595Y291297
X150122Y313952
X64124Y197439
X103500Y238000
X51000Y243500
X51000Y225500
X84124Y197439
X133014Y182181
X77994Y149816
X97994Y149816
X97644Y10185
X117644Y10185
X17195Y12728
X143186Y76302
X163186Y76302
X129000Y170000
X70000Y171000
X52000Y170500
X63000Y10500
X17500Y4000
X3500Y3500
X35000Y3500
X52500Y3000
X146500Y4000
X146000Y17500
X108000Y17000
X88000Y18000
X79500Y264500
X75500Y264000
X96000Y299500
X90000Y299500
X83500Y299500
X77500Y299500
X128000Y298000
X128500Y292500
X140500Y292000
X140500Y299000
X127000Y307000
X102000Y324500
X102500Y320000
X102000Y315500
X81000Y349000
R02X11500
X115500Y348500
X128000Y328000
X127500Y316500
X81000Y339000
X194500Y90000
X194000Y136500
X207500Y143000
X194500Y143500
X20000Y118000
X63000Y315500
X58500Y315500
X63000Y321500
X58500Y321500
X294500Y184500
X309500Y178000
X285500Y184500
X285500Y171000
X401000Y253500
X403000Y96000
X389000Y5500
X380500Y300500
X380500Y290000
X319000Y267000
X322500Y236500
X317000Y249500
X334500Y191000
X369000Y220000
X258229Y10630
R04Y10000
X258229Y90630
R25Y10000
X443852Y75780
R26Y10000
X337500Y122000
X349500Y121500
X310000Y139500
X352152Y133465
X347500Y133500
X305909Y62860
R02Y10000
X305500Y90000
X378157Y123151
R02X10000
X369657Y114151
R02X10000
X382157Y132651
X392157Y132651
X393157Y144151
X403157Y144151
X370657Y257151
X380657Y257151
X294157Y216151
X304157Y216151
X293657Y232151
X303657Y232151
X293657Y249651
X303657Y249651
X293157Y269151
X303157Y269151
X293157Y284651
X303157Y284651
X293157Y301151
X303157Y301151
X293657Y318651
X303657Y318651
X293157Y331151
X303157Y331151
X292657Y340651
X302657Y340651
X422500Y347500
X433500Y347500
X405157Y331151
X415157Y331151
X405157Y319151
X415157Y319151
X357157Y297151
X367157Y297151
X364349Y94657
X364349Y104657
X364349Y75157
X364349Y85157
X364349Y56157
X364349Y66157
X364349Y38157
X364349Y48157
X336349Y38157
X336349Y48157
X336349Y56157
X336349Y66157
X336349Y75657
X336349Y85657
X336349Y94657
X336349Y104657
X318349Y73157
X318349Y83157
X402849Y68157
X402849Y78157
X402849Y46657
X402849Y56657
X409500Y26500
X410849Y37157
X418500Y18000
X419349Y28657
X418500Y4500
X415000Y8000
X336349Y18157
X336349Y28157
X336349Y6157
X309730Y146572
X330657Y171151
X374000Y200500
X340657Y171151
X396657Y210651
X406657Y210651
X391157Y218651
X401157Y218651
X410657Y235151
X420657Y235151
X391657Y271651
X401657Y271651
X391657Y281651
X401657Y281651
X397157Y300151
X407157Y300151
X397157Y291151
X407157Y291151
X374000Y169500
X392000Y190000
X411000Y12000
X407500Y15000
X404000Y18500
X404000Y12000
X404000Y4500
X414000Y22000
X404000Y28500
X398000Y28500
X393000Y28500
X388000Y28500
X293000Y49000
X290500Y32500
X304500Y32500
X304500Y26000
X290500Y26000
X290500Y14000
X290500Y20500
X304500Y14000
X304500Y20500
X312000Y20000
X312000Y26500
X326000Y20000
X326000Y26500
X312000Y14000
X326000Y14000
X326000Y33500
X326000Y40500
X369500Y5500
X351000Y263500
X351000Y256000
X410500Y253500
X420500Y253500
X376000Y318000
X201000Y259000
X201000Y268000
X21980Y62000
X10500Y114500
X5500Y109500
X205500Y344500
X124500Y279000
X100500Y192000
X102500Y255000
X99000Y255000
X374000Y175000
X355969Y139000
X356000Y99500
X312000Y32500
X321500Y99500
X396500Y114000
X396500Y105000
X330500Y177000
X386500Y306000
X348000Y200500
X105000Y219000
X91000Y237500
X85000Y233000
X91000Y233000
X96500Y233000
X96500Y237500
X91000Y242000
X96500Y242000
X49500Y274500
X197500Y224000
X189000Y179500
X189000Y43000
X189000Y101000
T02
X102000Y275500
X107000Y275500
X107000Y270500
X102000Y270500
X373500Y22500
X377468Y22468
X377500Y18500
X373500Y18500
T03
X136100Y139200
R04X-7900
X96500Y139200
R04X-7900
X64900Y225800
R04X7900
X104500Y225800
R04X7900
T04
X31000Y336000
R32Y-10000
X181000Y16000
R32Y10000
X17000Y195500
X7000Y195500
X17000Y185500
X7000Y185500
X17000Y175500
X7000Y175500
X17000Y165500
X7000Y165500
X278000Y336000
R32Y-10000
X428000Y16000
R32Y10000
X381000Y338500
X381000Y328500
X371000Y338500
X371000Y328500
X361000Y338500
X361000Y328500
X351000Y338500
X351000Y328500
X341000Y338500
X341000Y328500
X331000Y338500
X331000Y328500
X321000Y338500
X321000Y328500
T05
X54181Y335028
X69929Y335028
T06
X-14500Y15500
X-14500Y336500
X226500Y336500
X226500Y15500
M30
