G04 ================== begin FILE IDENTIFICATION RECORD ==================*
G04 Layout Name:  DISCOVERY-F030_BOOSTPACK.brd*
G04 Film Name:    SilkScreen_Bottom*
G04 File Format:  Gerber RS274X*
G04 File Origin:  Cadence Allegro 16.6-2015-S060*
G04 Origin Date:  Sat Nov 28 15:33:11 2015*
G04 *
G04 Layer:  REF DES/SILKSCREEN_BOTTOM*
G04 Layer:  PACKAGE GEOMETRY/SILKSCREEN_BOTTOM*
G04 Layer:  BOARD GEOMETRY/SILKSCREEN_BOTTOM*
G04 *
G04 Offset:    (0.000 0.000)*
G04 Mirror:    No*
G04 Mode:      Positive*
G04 Rotation:  0*
G04 FullContactRelief:  No*
G04 UndefLineWidth:     6.000*
G04 ================== end FILE IDENTIFICATION RECORD ====================*
%FSLAX25Y25*MOIN*%
%IR0*IPPOS*OFA0.00000B0.00000*MIA0B0*SFA1.00000B1.00000*%
%ADD10C,.005*%
%ADD11C,.006*%
%ADD12C,.008*%
%ADD13C,.009449*%
%ADD14C,.01*%
G75*
%LPD*%
G75*
G54D10*
G01X301200Y73500D02*
X300200D01*
G01X298600D02*
X296000D01*
G01X299000Y73300D02*
X296200D01*
G01X299000Y73100D02*
X298200D01*
G01X297800D02*
X296200D01*
G01X299400Y72900D02*
X298400D01*
G01X298000D02*
X296400D01*
G01X299600Y72700D02*
X298600D01*
G01X298400D02*
X297600D01*
G01X297200D02*
X296400D01*
G01X299600Y72500D02*
X298800D01*
G01X298600D02*
X297800D01*
G01X297400D02*
X296400D01*
G01X299800Y72300D02*
X299000D01*
G01X298800D02*
X298000D01*
G01X297600D02*
X296400D01*
G01X295200D02*
X294800D01*
G01X300000Y72100D02*
X298400D01*
G01X297600D02*
X296400D01*
G01X295200D02*
X294800D01*
G01X300000Y71900D02*
X298600D01*
G01X297800D02*
X296400D01*
G01X295400D02*
X294800D01*
G01X300000Y71700D02*
X298600D01*
G01X298000D02*
X297200D01*
G01X297000D02*
X296400D01*
G01X295600D02*
X295000D01*
G01X300200Y71500D02*
X298800D01*
G01X298200D02*
X297400D01*
G01X297000D02*
X296200D01*
G01X296000D02*
X295200D01*
G01X300200Y71300D02*
X299000D01*
G01X298400D02*
X297600D01*
G01X296800D02*
X295200D01*
G01X300200Y71100D02*
X299200D01*
G01X298400D02*
X297600D01*
G01X296600D02*
X295400D01*
G01X300400Y70900D02*
X299400D01*
G01X298800D02*
X298000D01*
G01X296400D02*
X296000D01*
G01X301800Y70700D02*
X298200D01*
G01X301600Y70500D02*
X298200D01*
G01X301200Y70300D02*
X300200D01*
G01X299800D02*
X298400D01*
G01X294800Y79700D02*
X294200D01*
G01X294800Y79500D02*
X294200D01*
G01X295000Y79300D02*
X294200D01*
G01X295000Y79100D02*
X294200D01*
G01X295200Y78900D02*
X294200D01*
G01X295200Y78700D02*
X294400D01*
G01X295200Y78500D02*
X294400D01*
G01X295400Y78300D02*
X294600D01*
G01X295400Y78100D02*
X294600D01*
G01X295600Y77900D02*
X294800D01*
G01X295600Y77700D02*
X294800D01*
G01X295800Y77500D02*
X294800D01*
G01X295800Y77300D02*
X295000D01*
G01X295800Y77100D02*
X295000D01*
G01X296000Y76900D02*
X295000D01*
G01X296000Y76700D02*
X295000D01*
G01X296000Y76500D02*
X295000D01*
G01X296200Y76300D02*
X295000D01*
G01X296200Y76100D02*
X295200D01*
G01X296400Y75900D02*
X295200D01*
G01X296400Y75700D02*
X295200D01*
G01X296400Y75500D02*
X295400D01*
G01X296600Y75300D02*
X295400D01*
G01X296600Y75100D02*
X295600D01*
G01X296600Y74900D02*
X295600D01*
G01X296800Y74700D02*
X295600D01*
G01X296800Y74500D02*
X295800D01*
G01X296800Y74300D02*
X295800D01*
G01X296800Y74100D02*
X295800D01*
G01X301000Y73900D02*
X300200D01*
G01X298200D02*
X297200D01*
G01X297000D02*
X295800D01*
G01X301000Y73700D02*
X300000D01*
G01X298400D02*
X297200D01*
G01X297000D02*
X296000D01*
G01X305800Y73500D02*
X304200D01*
G01X302400D02*
X301600D01*
G01X306000Y73300D02*
X304000D01*
G01X302400D02*
X301800D01*
G01X301400D02*
X300400D01*
G01X306200Y73100D02*
X303800D01*
G01X302600D02*
X302000D01*
G01X301400D02*
X300600D01*
G01X306400Y72900D02*
X304600D01*
G01X304200D02*
X303600D01*
G01X302800D02*
X302000D01*
G01X301600D02*
X300800D01*
G01X306600Y72700D02*
X304800D01*
G01X304200D02*
X303600D01*
G01X303000D02*
X302200D01*
G01X301600D02*
X300800D01*
G01X306600Y72500D02*
X305000D01*
G01X304000D02*
X303400D01*
G01X303200D02*
X302400D01*
G01X301600D02*
X301000D01*
G01X306800Y72300D02*
X305000D01*
G01X304000D02*
X302600D01*
G01X301800D02*
X301000D01*
G01X307000Y72100D02*
X305200D01*
G01X304200D02*
X302600D01*
G01X301800D02*
X301200D01*
G01X307200Y71900D02*
X306400D01*
G01X306200D02*
X305200D01*
G01X304200D02*
X302800D01*
G01X302000D02*
X301200D01*
G01X307800Y71700D02*
X306600D01*
G01X306400D02*
X305400D01*
G01X304200D02*
X303000D01*
G01X302000D02*
X301200D01*
G01X307800Y71500D02*
X306800D01*
G01X306400D02*
X305400D01*
G01X304400D02*
X303200D01*
G01X302000D02*
X301200D01*
G01X306400Y71300D02*
X305400D01*
G01X304600D02*
X303400D01*
G01X302000D02*
X301400D01*
G01X306400Y71100D02*
X305600D01*
G01X304800D02*
X303400D01*
G01X302000D02*
X301200D01*
G01X306400Y70900D02*
X305800D01*
G01X305000D02*
X303600D01*
G01X302000D02*
X301200D01*
G01X306200Y70700D02*
X306000D01*
G01X305200D02*
X304000D01*
G01X305800Y70500D02*
X304000D01*
G01X306000Y70300D02*
X304400D01*
G01X306000Y70100D02*
X305000D01*
G01X304400Y78500D02*
X303800D01*
G01X304400Y78300D02*
X303800D01*
G01X304600Y78100D02*
X303800D01*
G01X304600Y77900D02*
X303800D01*
G01X304600Y77700D02*
X303800D01*
G01X304800Y77500D02*
X303800D01*
G01X304800Y77300D02*
X303800D01*
G01X304800Y77100D02*
X303800D01*
G01X304800Y76900D02*
X304000D01*
G01X305000Y76700D02*
X304000D01*
G01X305000Y76500D02*
X304000D01*
G01X305000Y76300D02*
X304000D01*
G01X305000Y76100D02*
X304000D01*
G01X305200Y75900D02*
X304000D01*
G01X305200Y75700D02*
X304200D01*
G01X305200Y75500D02*
X304200D01*
G01X302200D02*
X301600D01*
G01X305200Y75300D02*
X304200D01*
G01X302200D02*
X301400D01*
G01X305200Y75100D02*
X304400D01*
G01X302200D02*
X301400D01*
G01X305400Y74900D02*
X304400D01*
G01X302200D02*
X301200D01*
G01X305400Y74700D02*
X304600D01*
G01X302000D02*
X301000D01*
G01X305400Y74500D02*
X304600D01*
G01X302000D02*
X300800D01*
G01X305600Y74300D02*
X304800D01*
G01X302200D02*
X300600D01*
G01X305600Y74100D02*
X304800D01*
G01X302200D02*
X301600D01*
G01X301200D02*
X300400D01*
G01X305600Y73900D02*
X304800D01*
G01X302200D02*
X301400D01*
G01X305800Y73700D02*
X305000D01*
G01X302200D02*
X301600D01*
G01X312400Y71500D02*
X311800D01*
G01X312600Y71300D02*
X311400D01*
G01X307800D02*
X307000D01*
G01X312800Y71100D02*
X311400D01*
G01X312800Y70900D02*
X311200D01*
G01X313000Y70700D02*
X311200D01*
G01X312800Y70500D02*
X311400D01*
G01X312800Y70300D02*
X311400D01*
G01X312800Y70100D02*
X311600D01*
G01X312400Y69900D02*
X311800D01*
G01X319800Y73500D02*
X319000D01*
G01X318800D02*
X318000D01*
G01X317800D02*
X317000D01*
G01X319800Y73300D02*
X319200D01*
G01X319000D02*
X318200D01*
G01X318000D02*
X317200D01*
G01X320000Y73100D02*
X318400D01*
G01X318200D02*
X317200D01*
G01X320000Y72900D02*
X319400D01*
G01X319200D02*
X318600D01*
G01X318200D02*
X317400D01*
G01X320200Y72700D02*
X318800D01*
G01X318400D02*
X317600D01*
G01X320400Y72500D02*
X318800D01*
G01X318600D02*
X317800D01*
G01X320400Y72300D02*
X319000D01*
G01X318800D02*
X318000D01*
G01X320800Y72100D02*
X318000D01*
G01X321000Y71900D02*
X318400D01*
G01X321200Y71700D02*
X318600D01*
G01X321400Y71500D02*
X319000D01*
G01X321800Y71300D02*
X319400D01*
G01X321000Y71100D02*
X319600D01*
G01X320800Y70900D02*
X319000D01*
G01X315800D02*
X315400D01*
G01X320800Y70700D02*
X318000D01*
G01X316600D02*
X315400D01*
G01X321000Y70500D02*
X315400D01*
G01X321000Y70300D02*
X320000D01*
G01X319000D02*
X316000D01*
G01X321000Y70100D02*
X320200D01*
G01X321200Y69900D02*
X320200D01*
G01X318000Y79900D02*
X317600D01*
G01X318000Y79700D02*
X317400D01*
G01X318000Y79500D02*
X317400D01*
G01X318200Y79300D02*
X317400D01*
G01X318200Y79100D02*
X317400D01*
G01X318200Y78900D02*
X317400D01*
G01X318200Y78700D02*
X317400D01*
G01X318200Y78500D02*
X317600D01*
G01X318200Y78300D02*
X317600D01*
G01X318400Y78100D02*
X317600D01*
G01X318400Y77900D02*
X317600D01*
G01X318400Y77700D02*
X317800D01*
G01X318400Y77500D02*
X317800D01*
G01X318600Y77300D02*
X317800D01*
G01X318600Y77100D02*
X317800D01*
G01X318600Y76900D02*
X318000D01*
G01X318600Y76700D02*
X318000D01*
G01X318800Y76500D02*
X318000D01*
G01X318800Y76300D02*
X318000D01*
G01X318800Y76100D02*
X318200D01*
G01X319000Y75900D02*
X318200D01*
G01X319000Y75700D02*
X318200D01*
G01X319000Y75500D02*
X318400D01*
G01X319200Y75300D02*
X318400D01*
G01X319200Y75100D02*
X318400D01*
G01X319200Y74900D02*
X318600D01*
G01X319400Y74700D02*
X318600D01*
G01X319400Y74500D02*
X318600D01*
G01X319400Y74300D02*
X318800D01*
G01X317600D02*
X317200D01*
G01X319600Y74100D02*
X318800D01*
G01X318000D02*
X317000D01*
G01X319600Y73900D02*
X319000D01*
G01X318400D02*
X317000D01*
G01X319800Y73700D02*
X319000D01*
G01X318600D02*
X317000D01*
G01X327200Y73500D02*
X325600D01*
G01X323000D02*
X321600D01*
G01X327400Y73300D02*
X325600D01*
G01X323000D02*
X322000D01*
G01X327600Y73100D02*
X326200D01*
G01X325600D02*
X325200D01*
G01X323200D02*
X322200D01*
G01X327800Y72900D02*
X326600D01*
G01X325800D02*
X325000D01*
G01X323200D02*
X322400D01*
G01X326000Y72700D02*
X325200D01*
G01X323200D02*
X322600D01*
G01X326200Y72500D02*
X325200D01*
G01X323200D02*
X322600D01*
G01X326200Y72300D02*
X325400D01*
G01X323400D02*
X322600D01*
G01X326400Y72100D02*
X325600D01*
G01X323600D02*
X322600D01*
G01X326600Y71900D02*
X325600D01*
G01X324000D02*
X323600D01*
G01X323200D02*
X322600D01*
G01X326600Y71700D02*
X325800D01*
G01X324200D02*
X323800D01*
G01X323200D02*
X322600D01*
G01X327000Y71500D02*
X325800D01*
G01X324400D02*
X324000D01*
G01X323200D02*
X322400D01*
G01X327400Y71300D02*
X325800D01*
G01X324800D02*
X324200D01*
G01X323000D02*
X322200D01*
G01X328200Y71100D02*
X326600D01*
G01X326400D02*
X325600D01*
G01X325200D02*
X324200D01*
G01X322800D02*
X321200D01*
G01X326200Y70900D02*
X324600D01*
G01X322600D02*
X321400D01*
G01X326000Y70700D02*
X325000D01*
G01X322200D02*
X322000D01*
G01X321200Y69700D02*
X320400D01*
G01X321400Y69500D02*
X320400D01*
G01X321400Y69300D02*
X320600D01*
G01X321400Y69100D02*
X320600D01*
G01X321200Y68900D02*
X321000D01*
G01X322000Y74500D02*
X321200D01*
G01X322200Y74300D02*
X321200D01*
G01X322400Y74100D02*
X321200D01*
G01X326400Y73900D02*
X326000D01*
G01X322600D02*
X321600D01*
G01X326800Y73700D02*
X325800D01*
G01X322800D02*
X321600D01*
G01X333600Y66900D02*
X333000D01*
G01X333600Y66700D02*
X333000D01*
G01X333800Y66500D02*
X333200D01*
G01X333800Y66300D02*
X333200D01*
G01X334000Y66100D02*
X333400D01*
G01X334000Y65900D02*
X333400D01*
G01X334200Y65700D02*
X333400D01*
G01X336400Y73500D02*
X331600D01*
G01X331200D02*
X330600D01*
G01X328800D02*
X328200D01*
G01X332400Y73300D02*
X332200D01*
G01X331400D02*
X330600D01*
G01X328600D02*
X328200D01*
G01X331400Y73100D02*
X330600D01*
G01X328600D02*
X328200D01*
G01X331600Y72900D02*
X330600D01*
G01X328800D02*
X328200D01*
G01X331600Y72700D02*
X330800D01*
G01X328800D02*
X327000D01*
G01X331600Y72500D02*
X330800D01*
G01X328800D02*
X327200D01*
G01X333600Y72300D02*
X333400D01*
G01X331600D02*
X331000D01*
G01X329000D02*
X327400D01*
G01X333800Y72100D02*
X333200D01*
G01X331800D02*
X331000D01*
G01X329200D02*
X327400D01*
G01X333600Y71900D02*
X333200D01*
G01X331800D02*
X331000D01*
G01X329600D02*
X328600D01*
G01X328400D02*
X327600D01*
G01X333400Y71700D02*
X333000D01*
G01X332000D02*
X331200D01*
G01X330000D02*
X328800D01*
G01X328400D02*
X327600D01*
G01X333400Y71500D02*
X333000D01*
G01X332200D02*
X331200D01*
G01X330200D02*
X329000D01*
G01X328400D02*
X327600D01*
G01X333400Y71300D02*
X333000D01*
G01X332400D02*
X331400D01*
G01X330400D02*
X329200D01*
G01X328400D02*
X327600D01*
G01X333400Y71100D02*
X331400D01*
G01X330600D02*
X329400D01*
G01X333400Y70900D02*
X331400D01*
G01X330600D02*
X329600D01*
G01X328000D02*
X327000D01*
G01X333800Y70700D02*
X331600D01*
G01X330800D02*
X329800D01*
G01X334000Y70500D02*
X331600D01*
G01X331000D02*
X330000D01*
G01X334200Y70300D02*
X332800D01*
G01X332400D02*
X331600D01*
G01X331000D02*
X330200D01*
G01X334200Y70100D02*
X333000D01*
G01X332400D02*
X331800D01*
G01X331000D02*
X330400D01*
G01X334400Y69900D02*
X333200D01*
G01X332600D02*
X331800D01*
G01X332600Y69700D02*
X332000D01*
G01X332800Y69500D02*
X332000D01*
G01X332800Y69300D02*
X332200D01*
G01X332800Y69100D02*
X332200D01*
G01X333000Y68900D02*
X332200D01*
G01X333000Y68700D02*
X332400D01*
G01X333000Y68500D02*
X332400D01*
G01X333200Y68300D02*
X332400D01*
G01X333200Y68100D02*
X332600D01*
G01X333200Y67900D02*
X332600D01*
G01X333400Y67700D02*
X332600D01*
G01X333400Y67500D02*
X332800D01*
G01X333600Y67300D02*
X332800D01*
G01X333600Y67100D02*
X333000D01*
G01X333800Y74900D02*
X333400D01*
G01X334000Y74700D02*
X333400D01*
G01X334200Y74500D02*
X333400D01*
G01X330800D02*
X329400D01*
G01X334400Y74300D02*
X333400D01*
G01X331400D02*
X329000D01*
G01X331800Y74100D02*
X330400D01*
G01X329600D02*
X328600D01*
G01X336400Y73900D02*
X330600D01*
G01X329200D02*
X328400D01*
G01X336600Y73700D02*
X330400D01*
G01X329000D02*
X328200D01*
G01X340000Y53500D02*
X339400D01*
G01X339800Y53300D02*
X339600D01*
G01X339400Y60100D02*
X338600D01*
G01X337400D02*
X336800D01*
G01X339400Y59900D02*
X338800D01*
G01X337400D02*
X336800D01*
G01X339600Y59700D02*
X338800D01*
G01X337400D02*
X336800D01*
G01X339600Y59500D02*
X338800D01*
G01X337400D02*
X336800D01*
G01X339600Y59300D02*
X338800D01*
G01X337600D02*
X336800D01*
G01X339600Y59100D02*
X338800D01*
G01X337800D02*
X337000D01*
G01X339600Y58900D02*
X338800D01*
G01X338000D02*
X337200D01*
G01X339800Y58700D02*
X339000D01*
G01X338200D02*
X337200D01*
G01X341000Y58500D02*
X340200D01*
G01X339800D02*
X339000D01*
G01X338400D02*
X337400D01*
G01X340800Y58300D02*
X337600D01*
G01X340600Y58100D02*
X338000D01*
G01X340400Y57900D02*
X338200D01*
G01X340000Y57700D02*
X338600D01*
G01X339800Y57500D02*
X339200D01*
G01X340000Y57300D02*
X339200D01*
G01X340000Y57100D02*
X339200D01*
G01X340000Y56900D02*
X339200D01*
G01X340000Y56700D02*
X339200D01*
G01X340000Y56500D02*
X339200D01*
G01X340000Y56300D02*
X339200D01*
G01X340000Y56100D02*
X339200D01*
G01X340000Y55900D02*
X339400D01*
G01X340000Y55700D02*
X339400D01*
G01X340000Y55500D02*
X339400D01*
G01X340000Y55300D02*
X339400D01*
G01X340000Y55100D02*
X339400D01*
G01X340000Y54900D02*
X339400D01*
G01X340000Y54700D02*
X339400D01*
G01X340000Y54500D02*
X339400D01*
G01X340000Y54300D02*
X339400D01*
G01X340000Y54100D02*
X339400D01*
G01X340000Y53900D02*
X339200D01*
G01X340000Y53700D02*
X339400D01*
G01X334800Y65700D02*
X334600D01*
G01X334800Y65500D02*
X334400D01*
G01X334200D02*
X333600D01*
G01X334800Y65300D02*
X333800D01*
G01X334800Y65100D02*
X334000D01*
G01X334600Y64900D02*
X334200D01*
G01X338800Y62300D02*
X338600D01*
G01X339000Y62100D02*
X338400D01*
G01X339000Y61900D02*
X338400D01*
G01X339200Y61700D02*
X338400D01*
G01X339200Y61500D02*
X338400D01*
G01X339200Y61300D02*
X338400D01*
G01X339200Y61100D02*
X338400D01*
G01X339200Y60900D02*
X338600D01*
G01X339400Y60700D02*
X338600D01*
G01X339400Y60500D02*
X338600D01*
G01X339400Y60300D02*
X338600D01*
G01X341400Y73500D02*
X338200D01*
G01X341400Y73300D02*
X338400D01*
G01X335600D02*
X334000D01*
G01X341600Y73100D02*
X338600D01*
G01X335800D02*
X334400D01*
G01X341800Y72900D02*
X339600D01*
G01X339400D02*
X338600D01*
G01X336000D02*
X334400D01*
G01X342000Y72700D02*
X340000D01*
G01X339400D02*
X338800D01*
G01X336000D02*
X335400D01*
G01X335200D02*
X334400D01*
G01X340600Y72500D02*
X340000D01*
G01X339400D02*
X338600D01*
G01X336400D02*
X335600D01*
G01X335200D02*
X334400D01*
G01X340600Y72300D02*
X340000D01*
G01X339200D02*
X338400D01*
G01X336600D02*
X335800D01*
G01X335200D02*
X334600D01*
G01X340600Y72100D02*
X340200D01*
G01X339200D02*
X338200D01*
G01X336800D02*
X336000D01*
G01X335200D02*
X334600D01*
G01X340800Y71900D02*
X340200D01*
G01X338800D02*
X337800D01*
G01X337000D02*
X336200D01*
G01X335400D02*
X334600D01*
G01X341000Y71700D02*
X340200D01*
G01X338600D02*
X337600D01*
G01X337000D02*
X336400D01*
G01X335400D02*
X334600D01*
G01X338200Y71500D02*
X336600D01*
G01X335400D02*
X334600D01*
G01X337800Y71300D02*
X336800D01*
G01X335400D02*
X334800D01*
G01X337800Y71100D02*
X336800D01*
G01X335400D02*
X334800D01*
G01X337800Y70900D02*
X336800D01*
G01X335400D02*
X334800D01*
G01X338000Y70700D02*
X337000D01*
G01X335400D02*
X334800D01*
G01X338200Y70500D02*
X337000D01*
G01X335400D02*
X334800D01*
G01X338400Y70300D02*
X337200D01*
G01X335400D02*
X334800D01*
G01X338600Y70100D02*
X337400D01*
G01X335400D02*
X334800D01*
G01X338600Y69900D02*
X337400D01*
G01X335200D02*
X334600D01*
G01X338800Y69700D02*
X337600D01*
G01X335200D02*
X333600D01*
G01X339000Y69500D02*
X338000D01*
G01X335000D02*
X333800D01*
G01X339000Y69300D02*
X338000D01*
G01X339000Y69100D02*
X338600D01*
G01X337800Y74700D02*
X336800D01*
G01X338000Y74500D02*
X336800D01*
G01X341000Y74300D02*
X340200D01*
G01X338200D02*
X336800D01*
G01X341200Y74100D02*
X340000D01*
G01X338600D02*
X337000D01*
G01X334800D02*
X333600D01*
G01X341200Y73900D02*
X340000D01*
G01X338800D02*
X337600D01*
G01X341400Y73700D02*
X340000D01*
G01X339200D02*
X338000D01*
G01X346200Y60100D02*
X343600D01*
G01X341600D02*
X340800D01*
G01X346200Y59900D02*
X345200D01*
G01X344600D02*
X343400D01*
G01X341600D02*
X340800D01*
G01X346200Y59700D02*
X345600D01*
G01X344200D02*
X343400D01*
G01X341600D02*
X340800D01*
G01X344200Y59500D02*
X343600D01*
G01X341800D02*
X340800D01*
G01X344400Y59300D02*
X343600D01*
G01X341800D02*
X340600D01*
G01X344600Y59100D02*
X343800D01*
G01X342000D02*
X340600D01*
G01X344600Y58900D02*
X343800D01*
G01X342000D02*
X341400D01*
G01X341200D02*
X340400D01*
G01X344800Y58700D02*
X344000D01*
G01X342200D02*
X341400D01*
G01X341200D02*
X340400D01*
G01X344800Y58500D02*
X344000D01*
G01X342600D02*
X341600D01*
G01X345000Y58300D02*
X344200D01*
G01X342800D02*
X341800D01*
G01X345200Y58100D02*
X344400D01*
G01X343200D02*
X342000D01*
G01X345200Y57900D02*
X344400D01*
G01X343400D02*
X342200D01*
G01X345400Y57700D02*
X344600D01*
G01X343800D02*
X342600D01*
G01X345600Y57500D02*
X344800D01*
G01X344200D02*
X342800D01*
G01X345800Y57300D02*
X344800D01*
G01X344600D02*
X343200D01*
G01X346000Y57100D02*
X343600D01*
G01X346000Y56900D02*
X343800D01*
G01X346200Y56700D02*
X344200D01*
G01X346000Y56500D02*
X344600D01*
G01X346000Y56300D02*
X345200D01*
G01X341000Y62100D02*
X340400D01*
G01X341000Y61900D02*
X340400D01*
G01X341200Y61700D02*
X340400D01*
G01X341200Y61500D02*
X340600D01*
G01X341200Y61300D02*
X340600D01*
G01X341400Y61100D02*
X340600D01*
G01X341400Y60900D02*
X340800D01*
G01X341400Y60700D02*
X340800D01*
G01X345400Y60500D02*
X344400D01*
G01X341600D02*
X340800D01*
G01X346000Y60300D02*
X344000D01*
G01X341600D02*
X340800D01*
G01X345200Y72900D02*
X344600D01*
G01X345800Y72700D02*
X344200D01*
G01X346000Y72500D02*
X344000D01*
G01X342200D02*
X341200D01*
G01X346400Y72300D02*
X343800D01*
G01X342600D02*
X341400D01*
G01X346600Y72100D02*
X344800D01*
G01X344200D02*
X343600D01*
G01X343200D02*
X341600D01*
G01X347600Y71900D02*
X345000D01*
G01X344200D02*
X341800D01*
G01X347600Y71700D02*
X345000D01*
G01X344200D02*
X343000D01*
G01X342600D02*
X341800D01*
G01X347600Y71500D02*
X346600D01*
G01X346400D02*
X344800D01*
G01X344600D02*
X343200D01*
G01X342800D02*
X342000D01*
G01X341000D02*
X340400D01*
G01X347600Y71300D02*
X346800D01*
G01X346400D02*
X343600D01*
G01X342800D02*
X342200D01*
G01X341200D02*
X340600D01*
G01X346400Y71100D02*
X345800D01*
G01X345200D02*
X343600D01*
G01X342800D02*
X342200D01*
G01X341200D02*
X340600D01*
G01X346600Y70900D02*
X345800D01*
G01X344200D02*
X343800D01*
G01X342800D02*
X342200D01*
G01X341600D02*
X340800D01*
G01X346600Y70700D02*
X346000D01*
G01X344400D02*
X343800D01*
G01X342800D02*
X342200D01*
G01X341800D02*
X341000D01*
G01X346600Y70500D02*
X346000D01*
G01X344400D02*
X343800D01*
G01X342800D02*
X341200D01*
G01X346600Y70300D02*
X346000D01*
G01X344600D02*
X344000D01*
G01X342800D02*
X341400D01*
G01X346600Y70100D02*
X346000D01*
G01X344600D02*
X344000D01*
G01X342600D02*
X341600D01*
G01X346800Y69900D02*
X346200D01*
G01X344800D02*
X344200D01*
G01X346800Y69700D02*
X346200D01*
G01X345000D02*
X344400D01*
G01X346800Y69500D02*
X346200D01*
G01X345000D02*
X344400D01*
G01X346800Y69300D02*
X346200D01*
G01X345200D02*
X344600D01*
G01X346800Y69100D02*
X346200D01*
G01X345400D02*
X344800D01*
G01X346800Y68900D02*
X346000D01*
G01X345600D02*
X344800D01*
G01X346800Y68700D02*
X345000D01*
G01X346600Y68500D02*
X345400D01*
G01X346400Y68300D02*
X345600D01*
G01X340800Y74500D02*
X340400D01*
G01X349200Y42300D02*
X349000D01*
G01X351600Y42100D02*
X348400D01*
G01X356600Y41900D02*
X348400D01*
G01X357200Y41700D02*
X348400D01*
G01X357400Y41500D02*
X348600D01*
G01X357600Y41300D02*
X352000D01*
G01X352800Y60100D02*
X352200D01*
G01X353000Y59900D02*
X352200D01*
G01X353000Y59700D02*
X352200D01*
G01X353000Y59500D02*
X352200D01*
G01X353000Y59300D02*
X352400D01*
G01X353200Y59100D02*
X352400D01*
G01X353200Y58900D02*
X352400D01*
G01X353200Y58700D02*
X352400D01*
G01X353200Y58500D02*
X352600D01*
G01X353400Y58300D02*
X352600D01*
G01X353400Y58100D02*
X352600D01*
G01X353400Y57900D02*
X352800D01*
G01X353400Y57700D02*
X352800D01*
G01X353600Y57500D02*
X352800D01*
G01X353600Y57300D02*
X352800D01*
G01X353600Y57100D02*
X353000D01*
G01X353600Y56900D02*
X352800D01*
G01X350200D02*
X349600D01*
G01X353600Y56700D02*
X353000D01*
G01X350400D02*
X349400D01*
G01X353600Y56500D02*
X352800D01*
G01X350400D02*
X349200D01*
G01X353800Y56300D02*
X352800D01*
G01X350400D02*
X349200D01*
G01X353800Y56100D02*
X352800D01*
G01X350400D02*
X349200D01*
G01X353800Y55900D02*
X352800D01*
G01X350400D02*
X349200D01*
G01X354000Y55700D02*
X353000D01*
G01X350400D02*
X349400D01*
G01X354000Y55500D02*
X353000D01*
G01X350400D02*
X349600D01*
G01X353800Y55300D02*
X353200D01*
G01X353800Y55100D02*
X353400D01*
G01X352400Y61700D02*
X352000D01*
G01X352600Y61500D02*
X351800D01*
G01X352600Y61300D02*
X351800D01*
G01X352600Y61100D02*
X351800D01*
G01X352600Y60900D02*
X352000D01*
G01X352800Y60700D02*
X352000D01*
G01X352800Y60500D02*
X352200D01*
G01X352800Y60300D02*
X352200D01*
G01X350400Y73500D02*
X349600D01*
G01X348200D02*
X347600D01*
G01X350600Y73300D02*
X349800D01*
G01X348200D02*
X347600D01*
G01X350800Y73100D02*
X349800D01*
G01X348200D02*
X347600D01*
G01X350800Y72900D02*
X350000D01*
G01X348400D02*
X347800D01*
G01X351000Y72700D02*
X350200D01*
G01X348400D02*
X347800D01*
G01X351200Y72500D02*
X350200D01*
G01X348400D02*
X347400D01*
G01X351400Y72300D02*
X350400D01*
G01X348600D02*
X347200D01*
G01X351800Y72100D02*
X350400D01*
G01X349000D02*
X347000D01*
G01X352000Y71900D02*
X350600D01*
G01X349200D02*
X348000D01*
G01X352200Y71700D02*
X350600D01*
G01X349400D02*
X348400D01*
G01X353200Y71500D02*
X350800D01*
G01X349800D02*
X348400D01*
G01X353400Y71300D02*
X350800D01*
G01X349800D02*
X348600D01*
G01X353200Y71100D02*
X352400D01*
G01X351800D02*
X350800D01*
G01X350000D02*
X348600D01*
G01X347800D02*
X347000D01*
G01X351800Y70900D02*
X350800D01*
G01X350200D02*
X348800D01*
G01X348000D02*
X347000D01*
G01X352000Y70700D02*
X351000D01*
G01X350400D02*
X349000D01*
G01X348200D02*
X347200D01*
G01X352200Y70500D02*
X351200D01*
G01X350600D02*
X349000D01*
G01X348400D02*
X347200D01*
G01X352200Y70300D02*
X351200D01*
G01X350600D02*
X349200D01*
G01X348600D02*
X347400D01*
G01X352200Y70100D02*
X351200D01*
G01X350800D02*
X349400D01*
G01X348800D02*
X347400D01*
G01X352400Y69900D02*
X351400D01*
G01X350800D02*
X349600D01*
G01X349000D02*
X348200D01*
G01X348000D02*
X347600D01*
G01X352600Y69700D02*
X351400D01*
G01X350800D02*
X349800D01*
G01X349200D02*
X348400D01*
G01X348200D02*
X347600D01*
G01X352600Y69500D02*
X351400D01*
G01X351000D02*
X350000D01*
G01X349200D02*
X348600D01*
G01X348200D02*
X347600D01*
G01X352600Y69300D02*
X351600D01*
G01X350800D02*
X350200D01*
G01X349400D02*
X348800D01*
G01X348400D02*
X347800D01*
G01X352800Y69100D02*
X351600D01*
G01X349600D02*
X348800D01*
G01X348600D02*
X348000D01*
G01X352800Y68900D02*
X351800D01*
G01X349800D02*
X349000D01*
G01X348800D02*
X348000D01*
G01X352800Y68700D02*
X351800D01*
G01X349800D02*
X349200D01*
G01X348800D02*
X348200D01*
G01X352800Y68500D02*
X351800D01*
G01X350000D02*
X349400D01*
G01X349000D02*
X348400D01*
G01X353000Y68300D02*
X352000D01*
G01X350200D02*
X349400D01*
G01X349200D02*
X348400D01*
G01X353000Y68100D02*
X352200D01*
G01X350200D02*
X349600D01*
G01X349400D02*
X348600D01*
G01X353000Y67900D02*
X352200D01*
G01X350400D02*
X348800D01*
G01X352800Y67700D02*
X352400D01*
G01X350400D02*
X349200D01*
G01X350400Y67500D02*
X349200D01*
G01X350200Y67300D02*
X349600D01*
G01X349200Y76100D02*
X348000D01*
G01X349400Y75900D02*
X347800D01*
G01X349400Y75700D02*
X347600D01*
G01X349600Y75500D02*
X348600D01*
G01X348200D02*
X347400D01*
G01X349600Y75300D02*
X348600D01*
G01X348000D02*
X347400D01*
G01X349800Y75100D02*
X348800D01*
G01X348000D02*
X347400D01*
G01X349800Y74900D02*
X348800D01*
G01X348000D02*
X347400D01*
G01X350000Y74700D02*
X349000D01*
G01X348000D02*
X347400D01*
G01X350000Y74500D02*
X349000D01*
G01X348000D02*
X347400D01*
G01X350000Y74300D02*
X349000D01*
G01X348000D02*
X347400D01*
G01X350200Y74100D02*
X349200D01*
G01X348000D02*
X347400D01*
G01X350200Y73900D02*
X349400D01*
G01X348000D02*
X347400D01*
G01X350400Y73700D02*
X349400D01*
G01X348000D02*
X347400D01*
G01X359800Y40100D02*
X358600D01*
G01X359800Y39900D02*
X358600D01*
G01X359800Y39700D02*
X358800D01*
G01X359800Y39500D02*
X358800D01*
G01X360000Y39300D02*
X359000D01*
G01X360000Y39100D02*
X359200D01*
G01X359800Y38900D02*
X359400D01*
G01Y46100D02*
X358600D01*
G01X359600Y45900D02*
X358400D01*
G01X359400Y45700D02*
X358200D01*
G01X359000Y45500D02*
X358200D01*
G01X356200D02*
X354200D01*
G01X358800Y45300D02*
X358200D01*
G01X356600D02*
X353800D01*
G01X358800Y45100D02*
X358200D01*
G01X356600D02*
X353600D01*
G01X359000Y44900D02*
X358200D01*
G01X356400D02*
X353600D01*
G01X359000Y44700D02*
X358400D01*
G01X356200D02*
X353600D01*
G01X359000Y44500D02*
X358400D01*
G01X354800D02*
X353600D01*
G01X359200Y44300D02*
X358600D01*
G01X354800D02*
X353600D01*
G01X359400Y44100D02*
X358600D01*
G01X354800D02*
X353800D01*
G01X359400Y43900D02*
X358800D01*
G01X355000D02*
X353800D01*
G01X359600Y43700D02*
X359000D01*
G01X355000D02*
X354000D01*
G01X359600Y43500D02*
X359000D01*
G01X355200D02*
X354000D01*
G01X359800Y43300D02*
X359200D01*
G01X355400D02*
X354200D01*
G01X360000Y43100D02*
X359400D01*
G01X357600D02*
X357400D01*
G01X355400D02*
X354400D01*
G01X360000Y42900D02*
X359400D01*
G01X357800D02*
X357400D01*
G01X355600D02*
X354600D01*
G01X360200Y42700D02*
X359400D01*
G01X357800D02*
X357400D01*
G01X355600D02*
X354600D01*
G01X360200Y42500D02*
X359400D01*
G01X357800D02*
X357600D01*
G01X355800D02*
X354600D01*
G01X360000Y42300D02*
X359400D01*
G01X358000D02*
X357600D01*
G01X356000D02*
X354400D01*
G01X360000Y42100D02*
X359200D01*
G01X358200D02*
X357600D01*
G01X356400D02*
X354000D01*
G01X359800Y41900D02*
X359200D01*
G01X358200D02*
X357800D01*
G01X359800Y41700D02*
X359000D01*
G01X358400D02*
X357800D01*
G01X359800Y41500D02*
X359000D01*
G01X358400D02*
X358000D01*
G01X359600Y41300D02*
X359000D01*
G01X358600D02*
X358000D01*
G01X359600Y41100D02*
X359200D01*
G01X358800D02*
X358000D01*
G01X357400D02*
X355800D01*
G01X359600Y40900D02*
X359200D01*
G01X359000D02*
X358200D01*
G01X359600Y40700D02*
X359200D01*
G01X359000D02*
X358200D01*
G01X359800Y40500D02*
X358400D01*
G01X359800Y40300D02*
X358400D01*
G01X355600Y60100D02*
X355000D01*
G01X355800Y59900D02*
X355000D01*
G01X355800Y59700D02*
X355000D01*
G01X355800Y59500D02*
X355000D01*
G01X355800Y59300D02*
X355200D01*
G01X356000Y59100D02*
X355200D01*
G01X356000Y58900D02*
X355200D01*
G01X356000Y58700D02*
X355200D01*
G01X356000Y58500D02*
X355400D01*
G01X356000Y58300D02*
X355400D01*
G01X356200Y58100D02*
X355400D01*
G01X356200Y57900D02*
X355400D01*
G01X356200Y57700D02*
X355400D01*
G01X356200Y57500D02*
X355600D01*
G01X356200Y57300D02*
X355600D01*
G01X356400Y57100D02*
X355600D01*
G01X356400Y56900D02*
X355600D01*
G01X356400Y56700D02*
X355600D01*
G01X356400Y56500D02*
X355600D01*
G01X356400Y56300D02*
X355600D01*
G01X356400Y56100D02*
X355600D01*
G01X356400Y55900D02*
X355800D01*
G01X356200Y55700D02*
X356000D01*
G01X355600Y60300D02*
X355000D01*
G01X360200Y73500D02*
X359800D01*
G01X360400Y73300D02*
X359800D01*
G01X360600Y73100D02*
X359800D01*
G01X354400D02*
X353600D01*
G01X360800Y72900D02*
X359800D01*
G01X355000D02*
X353600D01*
G01X360800Y72700D02*
X359600D01*
G01X355400D02*
X353800D01*
G01X360200Y72500D02*
X359600D01*
G01X356000D02*
X353800D01*
G01X361800Y72300D02*
X359800D01*
G01X356400D02*
X354400D01*
G01X361600Y72100D02*
X359800D01*
G01X356800D02*
X355000D01*
G01X361400Y71900D02*
X360000D01*
G01X357200D02*
X355400D01*
G01X361600Y71700D02*
X360000D01*
G01X357800D02*
X356000D01*
G01X361800Y71500D02*
X360200D01*
G01X358000D02*
X356400D01*
G01X361000Y71300D02*
X360200D01*
G01X358200D02*
X356800D01*
G01X361200Y71100D02*
X360000D01*
G01X357800D02*
X357200D01*
G01X361400Y70900D02*
X360000D01*
G01X361400Y70700D02*
X360000D01*
G01X360600Y70500D02*
X360000D01*
G01X360800Y70300D02*
X360000D01*
G01X360800Y70100D02*
X360200D01*
G01X360800Y69900D02*
X360200D01*
G01X360800Y69700D02*
X360200D01*
G01X360400Y75100D02*
X360000D01*
G01X361000Y74900D02*
X359600D01*
G01X361400Y74700D02*
X359600D01*
G01X360000Y74500D02*
X359400D01*
G01X360000Y74300D02*
X359400D01*
G01X360000Y74100D02*
X359600D01*
G01X360200Y73900D02*
X359600D01*
G01X360200Y73700D02*
X359600D01*
G01X369000Y40100D02*
X365000D01*
G01X362800D02*
X362400D01*
G01X369400Y39900D02*
X365200D01*
G01X363000D02*
X362000D01*
G01X369600Y39700D02*
X366600D01*
G01X366400D02*
X365200D01*
G01X363000D02*
X362000D01*
G01X366200Y39500D02*
X365400D01*
G01X363000D02*
X362200D01*
G01X366000Y39300D02*
X365600D01*
G01X363200D02*
X362200D01*
G01X363400Y39100D02*
X362400D01*
G01X363600Y38900D02*
X362600D01*
G01X363800Y38700D02*
X362800D01*
G01X363800Y38500D02*
X362800D01*
G01X367800Y38300D02*
X366200D01*
G01X363800D02*
X363200D01*
G01X367600Y38100D02*
X366200D01*
G01X367400Y37900D02*
X366400D01*
G01X367400Y46900D02*
X365200D01*
G01X367800Y46700D02*
X365200D01*
G01X368200Y46500D02*
X366400D01*
G01X366200D02*
X365200D01*
G01X365000D02*
X364400D01*
G01X368600Y46300D02*
X366400D01*
G01X366200D02*
X365400D01*
G01X365000D02*
X364200D01*
G01X369200Y46100D02*
X366600D01*
G01X366200D02*
X365400D01*
G01X365200D02*
X364200D01*
G01X367600Y45900D02*
X366800D01*
G01X366200D02*
X365400D01*
G01X365200D02*
X364200D01*
G01X367600Y45700D02*
X366800D01*
G01X366200D02*
X364200D01*
G01X367600Y45500D02*
X366800D01*
G01X366400D02*
X364000D01*
G01X366400Y45300D02*
X365200D01*
G01X364800D02*
X364000D01*
G01X366400Y45100D02*
X365200D01*
G01X365000D02*
X364000D01*
G01X366400Y44900D02*
X364000D01*
G01X366400Y44700D02*
X364000D01*
G01X366400Y44500D02*
X364200D01*
G01X366600Y44300D02*
X364200D01*
G01X366600Y44100D02*
X364200D01*
G01X366600Y43900D02*
X364200D01*
G01X366600Y43700D02*
X365200D01*
G01X365000D02*
X364200D01*
G01X366600Y43500D02*
X365200D01*
G01X365000D02*
X364200D01*
G01X366600Y43300D02*
X365200D01*
G01X365000D02*
X364200D01*
G01X366800Y43100D02*
X364400D01*
G01X366800Y42900D02*
X364400D01*
G01X366800Y42700D02*
X364400D01*
G01X366800Y42500D02*
X364400D01*
G01X366800Y42300D02*
X364400D01*
G01X366800Y42100D02*
X364600D01*
G01X367000Y41900D02*
X364600D01*
G01X367000Y41700D02*
X364600D01*
G01X363000D02*
X362400D01*
G01X367000Y41500D02*
X365600D01*
G01X365400D02*
X364600D01*
G01X363600D02*
X362200D01*
G01X367200Y41300D02*
X365800D01*
G01X365600D02*
X364800D01*
G01X364000D02*
X362200D01*
G01X367400Y41100D02*
X365800D01*
G01X365600D02*
X362600D01*
G01X367800Y40900D02*
X365800D01*
G01X365600D02*
X362800D01*
G01X368000Y40700D02*
X363600D01*
G01X368200Y40500D02*
X364200D01*
G01X367200Y40300D02*
X364800D01*
G01X366200Y48900D02*
X366000D01*
G01X366400Y48700D02*
X365600D01*
G01X366400Y48500D02*
X365600D01*
G01X366600Y48300D02*
X364400D01*
G01X366600Y48100D02*
X363600D01*
G01X366800Y47900D02*
X363600D01*
G01X366800Y47700D02*
X363600D01*
G01X367000Y47500D02*
X363600D01*
G01X367000Y47300D02*
X364400D01*
G01X367200Y47100D02*
X364800D01*
G01X366200Y60100D02*
X363600D01*
G01X366200Y59900D02*
X364800D01*
G01X364400D02*
X363800D01*
G01X366200Y59700D02*
X365600D01*
G01X366400Y59500D02*
X365600D01*
G01X366400Y59300D02*
X365800D01*
G01X366600Y59100D02*
X365800D01*
G01X366600Y58900D02*
X366000D01*
G01X366600Y58700D02*
X366000D01*
G01X366800Y58500D02*
X366000D01*
G01X366800Y58300D02*
X366200D01*
G01X366800Y58100D02*
X366200D01*
G01X366800Y57900D02*
X366200D01*
G01X366800Y57700D02*
X366200D01*
G01X366800Y57500D02*
X366200D01*
G01X367000Y57300D02*
X366200D01*
G01X366800Y57100D02*
X366200D01*
G01X366800Y56900D02*
X366200D01*
G01X366800Y56700D02*
X366000D01*
G01X361800D02*
X361400D01*
G01X366800Y56500D02*
X366000D01*
G01X362200D02*
X361200D01*
G01X366600Y56300D02*
X366000D01*
G01X362200D02*
X361000D01*
G01X366600Y56100D02*
X365800D01*
G01X362200D02*
X361000D01*
G01X366400Y55900D02*
X365600D01*
G01X362200D02*
X361000D01*
G01X366400Y55700D02*
X365400D01*
G01X362200D02*
X361000D01*
G01X366200Y55500D02*
X365200D01*
G01X362200D02*
X361200D01*
G01X366000Y55300D02*
X365200D01*
G01X362000D02*
X361400D01*
G01X366200Y55100D02*
X365200D01*
G01X366400Y54900D02*
X365400D01*
G01X366800Y54700D02*
X365600D01*
G01X367200Y54500D02*
X365800D01*
G01X368400Y54300D02*
X366200D01*
G01X368200Y54100D02*
X366600D01*
G01X363000Y66900D02*
X361800D01*
G01X362800Y66700D02*
X362000D01*
G01X365600Y60700D02*
X365200D01*
G01X365800Y60500D02*
X363800D01*
G01X366000Y60300D02*
X363600D01*
G01X365400Y73500D02*
X364600D01*
G01X362400D02*
X361800D01*
G01X365400Y73300D02*
X364400D01*
G01X362400D02*
X361800D01*
G01X365000Y73100D02*
X364000D01*
G01X362400D02*
X361800D01*
G01X364800Y72900D02*
X364000D01*
G01X362200D02*
X361600D01*
G01X364600Y72700D02*
X364000D01*
G01X362200D02*
X361400D01*
G01X364600Y72500D02*
X364000D01*
G01X362000D02*
X360400D01*
G01X364800Y72300D02*
X364000D01*
G01X364800Y72100D02*
X364200D01*
G01X365000Y71900D02*
X364400D01*
G01X365200Y71700D02*
X364400D01*
G01X365200Y71500D02*
X364600D01*
G01X365400Y71300D02*
X364800D01*
G01X361800D02*
X361200D01*
G01X365600Y71100D02*
X365000D01*
G01X365800Y70900D02*
X365000D01*
G01X364800D02*
X364000D01*
G01X367400Y70700D02*
X366800D01*
G01X365800D02*
X363800D01*
G01X367400Y70500D02*
X366800D01*
G01X365800D02*
X363800D01*
G01X361600D02*
X360800D01*
G01X365800Y70300D02*
X365000D01*
G01X364400D02*
X363600D01*
G01X361600D02*
X361000D01*
G01X364400Y70100D02*
X363800D01*
G01X361800D02*
X361200D01*
G01X364600Y69900D02*
X363800D01*
G01X362000D02*
X361200D01*
G01X364600Y69700D02*
X364000D01*
G01X362000D02*
X361400D01*
G01X364800Y69500D02*
X364200D01*
G01X362200D02*
X361400D01*
G01X361000D02*
X360400D01*
G01X365000Y69300D02*
X364200D01*
G01X362200D02*
X361600D01*
G01X361000D02*
X360400D01*
G01X365200Y69100D02*
X364400D01*
G01X362400D02*
X361800D01*
G01X361000D02*
X360400D01*
G01X365400Y68900D02*
X364600D01*
G01X362400D02*
X361800D01*
G01X361200D02*
X360600D01*
G01X365800Y68700D02*
X364800D01*
G01X362600D02*
X362000D01*
G01X361200D02*
X360600D01*
G01X365800Y68500D02*
X365000D01*
G01X362600D02*
X362000D01*
G01X361400D02*
X360800D01*
G01X365800Y68300D02*
X365200D01*
G01X362600D02*
X362000D01*
G01X361400D02*
X360800D01*
G01X362800Y68100D02*
X362000D01*
G01X361600D02*
X360800D01*
G01X362800Y67900D02*
X362200D01*
G01X361600D02*
X361000D01*
G01X362800Y67700D02*
X362200D01*
G01X361800D02*
X361000D01*
G01X362800Y67500D02*
X362200D01*
G01X362000D02*
X361200D01*
G01X362800Y67300D02*
X361400D01*
G01X363000Y67100D02*
X361600D01*
G01X361800Y74500D02*
X360800D01*
G01X362000Y74300D02*
X361000D01*
G01X362200Y74100D02*
X361400D01*
G01X362200Y73900D02*
X361600D01*
G01X362400Y73700D02*
X361800D01*
G01X373200Y40100D02*
X371400D01*
G01X371000D02*
X370400D01*
G01X373400Y39900D02*
X371400D01*
G01X371200D02*
X370400D01*
G01X373600Y39700D02*
X371600D01*
G01X371200D02*
X370400D01*
G01X373600Y39500D02*
X371600D01*
G01X371400D02*
X370600D01*
G01X369800D02*
X367000D01*
G01X373800Y39300D02*
X370800D01*
G01X369800D02*
X367200D01*
G01X373800Y39100D02*
X372800D01*
G01X372600D02*
X370800D01*
G01X369800D02*
X368200D01*
G01X367800D02*
X367200D01*
G01X373600Y38900D02*
X373000D01*
G01X372600D02*
X371000D01*
G01X369200D02*
X369000D01*
G01X367800D02*
X367200D01*
G01X372600Y38700D02*
X371000D01*
G01X367800D02*
X367200D01*
G01X372600Y38500D02*
X371200D01*
G01X367800D02*
X367000D01*
G01X372600Y38300D02*
X371200D01*
G01X372800Y38100D02*
X371400D01*
G01X372800Y37900D02*
X371600D01*
G01X372600Y37700D02*
X371800D01*
G01Y45900D02*
X371400D01*
G01X369600D02*
X368000D01*
G01X372000Y45700D02*
X371400D01*
G01X369800D02*
X368200D01*
G01X372000Y45500D02*
X371200D01*
G01X370000D02*
X368600D01*
G01X372200Y45300D02*
X371400D01*
G01X369800D02*
X369000D01*
G01X367800D02*
X367000D01*
G01X372200Y45100D02*
X371200D01*
G01X369800D02*
X369000D01*
G01X367800D02*
X367000D01*
G01X372400Y44900D02*
X370800D01*
G01X369800D02*
X369200D01*
G01X367800D02*
X367000D01*
G01X372400Y44700D02*
X370600D01*
G01X370000D02*
X369200D01*
G01X368000D02*
X367200D01*
G01X372600Y44500D02*
X370600D01*
G01X370000D02*
X369200D01*
G01X368000D02*
X367200D01*
G01X372600Y44300D02*
X370600D01*
G01X370000D02*
X369400D01*
G01X368000D02*
X367200D01*
G01X372800Y44100D02*
X370800D01*
G01X370000D02*
X369400D01*
G01X367800D02*
X367200D01*
G01X373000Y43900D02*
X370800D01*
G01X370000D02*
X369400D01*
G01X373000Y43700D02*
X372000D01*
G01X371800D02*
X371000D01*
G01X370000D02*
X369400D01*
G01X373200Y43500D02*
X372200D01*
G01X372000D02*
X371000D01*
G01X370000D02*
X369400D01*
G01X373200Y43300D02*
X371200D01*
G01X370000D02*
X369400D01*
G01X373200Y43100D02*
X372400D01*
G01X372200D02*
X371200D01*
G01X370000D02*
X369400D01*
G01X373200Y42900D02*
X372800D01*
G01X372400D02*
X371000D01*
G01X370200D02*
X369400D01*
G01X372400Y42700D02*
X370800D01*
G01X370200D02*
X369600D01*
G01X372600Y42500D02*
X370800D01*
G01X370200D02*
X369600D01*
G01X372800Y42300D02*
X370800D01*
G01X370200D02*
X369600D01*
G01X373000Y42100D02*
X371000D01*
G01X370400D02*
X369600D01*
G01X373000Y41900D02*
X371000D01*
G01X370400D02*
X369800D01*
G01X372800Y41700D02*
X371200D01*
G01X370400D02*
X369800D01*
G01X372200Y41500D02*
X371000D01*
G01X370600D02*
X369800D01*
G01X372400Y41300D02*
X371000D01*
G01X370600D02*
X369800D01*
G01X372400Y41100D02*
X371000D01*
G01X370600D02*
X370000D01*
G01X372600Y40900D02*
X371200D01*
G01X370800D02*
X370000D01*
G01X372800Y40700D02*
X371200D01*
G01X370800D02*
X370000D01*
G01X372800Y40500D02*
X371200D01*
G01X371000D02*
X370200D01*
G01X373000Y40300D02*
X371200D01*
G01X371000D02*
X370200D01*
G01X368600D02*
X367400D01*
G01X370000Y59900D02*
X369600D01*
G01X374000Y59700D02*
X372800D01*
G01X370200D02*
X369400D01*
G01X374200Y59500D02*
X372600D01*
G01X370200D02*
X369400D01*
G01X374400Y59300D02*
X372600D01*
G01X370400D02*
X369600D01*
G01X373200Y59100D02*
X372600D01*
G01X370400D02*
X369600D01*
G01X373000Y58900D02*
X372400D01*
G01X370400D02*
X369800D01*
G01X373000Y58700D02*
X372400D01*
G01X370400D02*
X369800D01*
G01X373000Y58500D02*
X372400D01*
G01X370600D02*
X370000D01*
G01X373000Y58300D02*
X372400D01*
G01X370600D02*
X370000D01*
G01X373000Y58100D02*
X372400D01*
G01X370600D02*
X370000D01*
G01X373200Y57900D02*
X372600D01*
G01X370800D02*
X370000D01*
G01X373200Y57700D02*
X372600D01*
G01X370800D02*
X370200D01*
G01X373400Y57500D02*
X372800D01*
G01X370800D02*
X370200D01*
G01X373400Y57300D02*
X372800D01*
G01X370800D02*
X370200D01*
G01X373600Y57100D02*
X373000D01*
G01X371000D02*
X370200D01*
G01X373800Y56900D02*
X373000D01*
G01X371000D02*
X370200D01*
G01X373800Y56700D02*
X373200D01*
G01X371000D02*
X370200D01*
G01X374000Y56500D02*
X373200D01*
G01X371000D02*
X370400D01*
G01X374200Y56300D02*
X373400D01*
G01X371200D02*
X370400D01*
G01X371200Y56100D02*
X370400D01*
G01X371200Y55900D02*
X370400D01*
G01X371200Y55700D02*
X370400D01*
G01X371200Y55500D02*
X370400D01*
G01X371400Y55300D02*
X370600D01*
G01X371200Y55100D02*
X370800D01*
G01X368400Y54900D02*
X368200D01*
G01X368600Y54700D02*
X368200D01*
G01X368400Y54500D02*
X367800D01*
G01Y53900D02*
X367200D01*
G01X372000Y73500D02*
X371600D01*
G01X369600D02*
X369000D01*
G01X372200Y73300D02*
X371600D01*
G01X369600D02*
X369000D01*
G01X372200Y73100D02*
X371600D01*
G01X369800D02*
X369000D01*
G01X372400Y72900D02*
X371800D01*
G01X369800D02*
X369000D01*
G01X372400Y72700D02*
X371800D01*
G01X369800D02*
X369200D01*
G01X372600Y72500D02*
X370800D01*
G01X370000D02*
X369200D01*
G01X372600Y72300D02*
X370400D01*
G01X370000D02*
X369200D01*
G01X372800Y72100D02*
X372000D01*
G01X371400D02*
X370400D01*
G01X370000D02*
X369400D01*
G01X368000D02*
X367800D01*
G01X372600Y71900D02*
X372000D01*
G01X371000D02*
X370400D01*
G01X370200D02*
X369400D01*
G01X368400D02*
X367600D01*
G01X372600Y71700D02*
X372200D01*
G01X370200D02*
X369400D01*
G01X368400D02*
X367800D01*
G01X372800Y71500D02*
X372200D01*
G01X370200D02*
X369400D01*
G01X368400D02*
X367800D01*
G01X372800Y71300D02*
X372200D01*
G01X370200D02*
X369400D01*
G01X368600D02*
X367800D01*
G01X372800Y71100D02*
X372200D01*
G01X370200D02*
X369400D01*
G01X368600D02*
X367800D01*
G01X372800Y70900D02*
X372200D01*
G01X370200D02*
X369600D01*
G01X368600D02*
X368000D01*
G01X367400D02*
X367000D01*
G01X372800Y70700D02*
X372200D01*
G01X370200D02*
X369400D01*
G01X368800D02*
X368000D01*
G01X372800Y70500D02*
X372200D01*
G01X370000D02*
X369400D01*
G01X368800D02*
X368200D01*
G01X372800Y70300D02*
X372200D01*
G01X370000D02*
X369400D01*
G01X368800D02*
X368200D01*
G01X367600D02*
X367000D01*
G01X372800Y70100D02*
X372200D01*
G01X370000D02*
X369400D01*
G01X368800D02*
X368200D01*
G01X368000D02*
X367000D01*
G01X372800Y69900D02*
X372200D01*
G01X370000D02*
X369400D01*
G01X369000D02*
X367200D01*
G01X372800Y69700D02*
X372000D01*
G01X370000D02*
X367400D01*
G01X372600Y69500D02*
X372000D01*
G01X369800D02*
X367800D01*
G01X372600Y69300D02*
X371800D01*
G01X369400D02*
X368200D01*
G01X372400Y69100D02*
X371800D01*
G01X369200D02*
X368400D01*
G01X372400Y68900D02*
X371800D01*
G01X369200D02*
X368400D01*
G01X372400Y68700D02*
X371600D01*
G01X369200D02*
X368400D01*
G01X372600Y68500D02*
X371600D01*
G01X369200D02*
X368400D01*
G01X373400Y68300D02*
X371800D01*
G01X369400D02*
X368400D01*
G01X374400Y68100D02*
X372200D01*
G01X369200D02*
X368600D01*
G01X374200Y67900D02*
X373000D01*
G01X371800Y73900D02*
X371400D01*
G01X369200D02*
X369000D01*
G01X372000Y73700D02*
X371400D01*
G01X369400D02*
X368800D01*
G01X379200Y40100D02*
X378400D01*
G01X376600D02*
X375600D01*
G01X379400Y39900D02*
X378400D01*
G01X376800D02*
X375800D01*
G01X379400Y39700D02*
X378600D01*
G01X377000D02*
X375800D01*
G01X379600Y39500D02*
X378800D01*
G01X377200D02*
X376200D01*
G01X379800Y39300D02*
X378800D01*
G01X378200D02*
X376400D01*
G01X379800Y39100D02*
X376400D01*
G01X380000Y38900D02*
X376600D01*
G01X379800Y38700D02*
X376600D01*
G01X379800Y38500D02*
X376600D01*
G01X379400Y38300D02*
X379000D01*
G01X378800D02*
X376800D01*
G01X379000Y38100D02*
X376800D01*
G01X379000Y37900D02*
X378000D01*
G01X377800D02*
X376800D01*
G01X379200Y37700D02*
X378200D01*
G01X377800D02*
X377000D01*
G01X379400Y37500D02*
X378400D01*
G01X378000D02*
X377000D01*
G01X379600Y37300D02*
X378600D01*
G01X378200D02*
X377200D01*
G01X379800Y37100D02*
X378800D01*
G01X378200D02*
X377400D01*
G01X380000Y36900D02*
X379000D01*
G01X378400D02*
X377400D01*
G01X380200Y36700D02*
X379200D01*
G01X378600D02*
X377600D01*
G01X380400Y36500D02*
X379400D01*
G01X378800D02*
X377800D01*
G01X380600Y36300D02*
X379600D01*
G01X378800D02*
X377800D01*
G01X380600Y36100D02*
X379600D01*
G01X379000D02*
X378000D01*
G01X380800Y35900D02*
X379800D01*
G01X379200D02*
X378200D01*
G01X380800Y35700D02*
X379800D01*
G01X379400D02*
X378400D01*
G01X380800Y35500D02*
X380000D01*
G01X379800D02*
X378400D01*
G01X381000Y35300D02*
X378800D01*
G01X381000Y35100D02*
X379000D01*
G01X381000Y34900D02*
X379200D01*
G01X381000Y34700D02*
X379400D01*
G01X381000Y34500D02*
X379800D01*
G01X381000Y34300D02*
X380200D01*
G01X378400Y46900D02*
X376400D01*
G01X378600Y46700D02*
X377000D01*
G01X379000Y46500D02*
X377400D01*
G01X379400Y46300D02*
X377600D01*
G01X379600Y46100D02*
X377600D01*
G01X380000Y45900D02*
X376800D01*
G01X380400Y45700D02*
X375800D01*
G01X381000Y45500D02*
X375400D01*
G01X381200Y45300D02*
X375200D01*
G01X381200Y45100D02*
X380000D01*
G01X379600D02*
X377800D01*
G01X376400D02*
X375200D01*
G01X379600Y44900D02*
X378000D01*
G01X376200D02*
X375400D01*
G01X379800Y44700D02*
X378000D01*
G01X380000Y44500D02*
X378000D01*
G01X380200Y44300D02*
X379200D01*
G01X378800D02*
X378000D01*
G01X380200Y44100D02*
X379400D01*
G01X378800D02*
X378000D01*
G01X380400Y43900D02*
X379600D01*
G01X379000D02*
X378000D01*
G01X380600Y43700D02*
X379600D01*
G01X379000D02*
X378200D01*
G01X380600Y43500D02*
X379800D01*
G01X379000D02*
X378200D01*
G01X380800Y43300D02*
X380000D01*
G01X379000D02*
X378200D01*
G01X381000Y43100D02*
X380200D01*
G01X379000D02*
X378200D01*
G01X381200Y42900D02*
X380200D01*
G01X379200D02*
X378200D01*
G01X379200Y42700D02*
X378200D01*
G01X379200Y42500D02*
X378200D01*
G01X379200Y42300D02*
X378400D01*
G01X379800Y42100D02*
X378400D01*
G01X380000Y41900D02*
X378200D01*
G01X380000Y41700D02*
X378000D01*
G01X380000Y41500D02*
X378000D01*
G01X379600Y41300D02*
X377800D01*
G01X379400Y41100D02*
X377800D01*
G01X379400Y40900D02*
X377800D01*
G01X378800Y40700D02*
X378000D01*
G01X378800Y40500D02*
X378000D01*
G01X376200D02*
X375800D01*
G01X379000Y40300D02*
X378200D01*
G01X376400D02*
X375600D01*
G01X378000Y48700D02*
X377600D01*
G01X378200Y48500D02*
X377400D01*
G01X378200Y48300D02*
X377400D01*
G01X378200Y48100D02*
X377400D01*
G01X378200Y47900D02*
X377200D01*
G01X378200Y47700D02*
X376400D01*
G01X378200Y47500D02*
X376200D01*
G01X378400Y47300D02*
X376200D01*
G01X378400Y47100D02*
X376200D01*
G01X379600Y59900D02*
X378800D01*
G01X380000Y59700D02*
X378000D01*
G01X380000Y59500D02*
X377600D01*
G01X379800Y59300D02*
X379200D01*
G01X379000D02*
X377400D01*
G01X378200Y59100D02*
X377400D01*
G01X374600D02*
X373600D01*
G01X378200Y58900D02*
X377400D01*
G01X374800D02*
X374000D01*
G01X378200Y58700D02*
X377400D01*
G01X375000D02*
X374000D01*
G01X378200Y58500D02*
X377600D01*
G01X375200D02*
X374200D01*
G01X378400Y58300D02*
X377600D01*
G01X375200D02*
X374200D01*
G01X378600Y58100D02*
X377800D01*
G01X375400D02*
X374400D01*
G01X378600Y57900D02*
X378000D01*
G01X375800D02*
X374400D01*
G01X378800Y57700D02*
X378200D01*
G01X376000D02*
X374400D01*
G01X379000Y57500D02*
X378200D01*
G01X376200D02*
X374400D01*
G01X379200Y57300D02*
X378400D01*
G01X376600D02*
X375600D01*
G01X375400D02*
X374600D01*
G01X379400Y57100D02*
X378600D01*
G01X376800D02*
X375800D01*
G01X375400D02*
X374600D01*
G01X379600Y56900D02*
X378800D01*
G01X377200D02*
X376200D01*
G01X375400D02*
X374800D01*
G01X380000Y56700D02*
X379000D01*
G01X377600D02*
X376400D01*
G01X375400D02*
X374800D01*
G01X380200Y56500D02*
X379200D01*
G01X378000D02*
X376800D01*
G01X375400D02*
X374800D01*
G01X380400Y56300D02*
X379400D01*
G01X378600D02*
X377000D01*
G01X375400D02*
X374600D01*
G01X380600Y56100D02*
X379800D01*
G01X379000D02*
X377400D01*
G01X375400D02*
X373600D01*
G01X380800Y55900D02*
X380000D01*
G01X379600D02*
X377800D01*
G01X375200D02*
X373800D01*
G01X381200Y55700D02*
X378400D01*
G01X375200D02*
X373800D01*
G01X381400Y55500D02*
X378800D01*
G01X374800D02*
X374200D01*
G01X381800Y55300D02*
X379200D01*
G01X382200Y55100D02*
X379800D01*
G01Y66900D02*
X379000D01*
G01X379800Y66700D02*
X379200D01*
G01X380000Y66500D02*
X379200D01*
G01X379800Y66300D02*
X379200D01*
G01X379800Y66100D02*
X379400D01*
G01X377800Y73500D02*
X377200D01*
G01X377800Y73300D02*
X377200D01*
G01X377800Y73100D02*
X377200D01*
G01X378000Y72900D02*
X377400D01*
G01X378000Y72700D02*
X377400D01*
G01X378000Y72500D02*
X377400D01*
G01X378200Y72300D02*
X377400D01*
G01X378200Y72100D02*
X377600D01*
G01X378200Y71900D02*
X377600D01*
G01X375000D02*
X374600D01*
G01X378200Y71700D02*
X377600D01*
G01X375000D02*
X374400D01*
G01X378200Y71500D02*
X377800D01*
G01X375400D02*
X374600D01*
G01X378400Y71300D02*
X377800D01*
G01X376000D02*
X374800D01*
G01X378400Y71100D02*
X377800D01*
G01X376200D02*
X375200D01*
G01X378600Y70900D02*
X377800D01*
G01X377200D02*
X375600D01*
G01X379000Y70700D02*
X376000D01*
G01X379400Y70500D02*
X376600D01*
G01X379200Y70300D02*
X377400D01*
G01X378800Y70100D02*
X378000D01*
G01X378800Y69900D02*
X378200D01*
G01X378800Y69700D02*
X378200D01*
G01X378800Y69500D02*
X378200D01*
G01X379000Y69300D02*
X378400D01*
G01X379000Y69100D02*
X378400D01*
G01X379000Y68900D02*
X378400D01*
G01X379200Y68700D02*
X378600D01*
G01X374600D02*
X374200D01*
G01X379200Y68500D02*
X378600D01*
G01X374600D02*
X374200D01*
G01X379200Y68300D02*
X378600D01*
G01X374600D02*
X373800D01*
G01X379400Y68100D02*
X378800D01*
G01X379400Y67900D02*
X378800D01*
G01X379400Y67700D02*
X378800D01*
G01X379600Y67500D02*
X379000D01*
G01X379600Y67300D02*
X379000D01*
G01X379800Y67100D02*
X379000D01*
G01X375400Y76100D02*
X374600D01*
G01X375800Y75900D02*
X374600D01*
G01X376200Y75700D02*
X375000D01*
G01X376400Y75500D02*
X375400D01*
G01X377000Y75300D02*
X375600D01*
G01X379400Y75100D02*
X379000D01*
G01X377600D02*
X376000D01*
G01X379600Y74900D02*
X376400D01*
G01X379400Y74700D02*
X376800D01*
G01X378800Y74500D02*
X377000D01*
G01X377800Y74300D02*
X377000D01*
G01X377800Y74100D02*
X377000D01*
G01X377800Y73900D02*
X377000D01*
G01X377800Y73700D02*
X377200D01*
G01X383400Y40100D02*
X382400D01*
G01X383400Y39900D02*
X382600D01*
G01X383600Y39700D02*
X382800D01*
G01X383800Y39500D02*
X383000D01*
G01X384000Y39300D02*
X383000D01*
G01X384000Y39100D02*
X383200D01*
G01X384200Y38900D02*
X383400D01*
G01X384400Y38700D02*
X383600D01*
G01X384600Y38500D02*
X383600D01*
G01X384600Y38300D02*
X383800D01*
G01X384600Y38100D02*
X384000D01*
G01X381200Y44900D02*
X380600D01*
G01X381400Y42700D02*
X380400D01*
G01X381400Y42500D02*
X380600D01*
G01X381600Y42300D02*
X380800D01*
G01X381800Y42100D02*
X380800D01*
G01X382000Y41900D02*
X381000D01*
G01X382000Y41700D02*
X381200D01*
G01X382200Y41500D02*
X381400D01*
G01X382400Y41300D02*
X381400D01*
G01X382600Y41100D02*
X381600D01*
G01X382600Y40900D02*
X381800D01*
G01X382800Y40700D02*
X382000D01*
G01X383000Y40500D02*
X382200D01*
G01X383200Y40300D02*
X382200D01*
G01X382600Y54900D02*
X380400D01*
G01X382600Y54700D02*
X381200D01*
G01X382400Y54500D02*
X381800D01*
G01X386600Y70500D02*
X386000D01*
G01X386600Y70300D02*
X385800D01*
G01X386600Y70100D02*
X385600D01*
G01X386400Y69900D02*
X385600D01*
G01X386200Y69700D02*
X385600D01*
G01X386000Y69500D02*
X385800D01*
G01X386200Y68500D02*
X386000D01*
G01X386600Y68300D02*
X385800D01*
G01X387000Y68100D02*
X386000D01*
G01X387200Y67900D02*
X386200D01*
G01X387200Y67700D02*
X386400D01*
G01X391600Y56700D02*
X391200D01*
G01X391800Y56500D02*
X391200D01*
G01X391800Y56300D02*
X391000D01*
G01X391800Y56100D02*
X391000D01*
G01X391800Y55900D02*
X391000D01*
G01X391800Y55700D02*
X391200D01*
G01X391600Y54700D02*
X391200D01*
G01X392200Y54500D02*
X391000D01*
G01X392200Y54300D02*
X391000D01*
G01X392200Y54100D02*
X391000D01*
G01X392200Y53900D02*
X391200D01*
G01X392000Y53700D02*
X391800D01*
G01X391000Y72900D02*
X390400D01*
G01X391400Y72700D02*
X390400D01*
G01X391600Y72500D02*
X390400D01*
G01X391800Y72300D02*
X390400D01*
G01X392200Y72100D02*
X390600D01*
G01X392400Y71900D02*
X390600D01*
G01X392600Y71700D02*
X391600D01*
G01X391400D02*
X390800D01*
G01X392600Y71500D02*
X391800D01*
G01X391600D02*
X391000D01*
G01X392800Y71300D02*
X392000D01*
G01X391600D02*
X391000D01*
G01X393000Y71100D02*
X392200D01*
G01X391800D02*
X391200D01*
G01X393200Y70900D02*
X392400D01*
G01X392000D02*
X391400D01*
G01X393200Y70700D02*
X392400D01*
G01X392000D02*
X391400D01*
G01X393400Y70500D02*
X392600D01*
G01X392200D02*
X391600D01*
G01X393400Y70300D02*
X392600D01*
G01X392400D02*
X391800D01*
G01X393400Y70100D02*
X392000D01*
G01X389400D02*
X389000D01*
G01X393600Y69900D02*
X392200D01*
G01X389600D02*
X389200D01*
G01X393600Y69700D02*
X392400D01*
G01X389800D02*
X389400D01*
G01X393600Y69500D02*
X392400D01*
G01X390200D02*
X389600D01*
G01X393800Y69300D02*
X392600D01*
G01X390400D02*
X389800D01*
G01X393800Y69100D02*
X392800D01*
G01X390800D02*
X390000D01*
G01X394000Y68900D02*
X392800D01*
G01X391000D02*
X390200D01*
G01X394400Y68700D02*
X392800D01*
G01X391400D02*
X390600D01*
G01X396200Y68500D02*
X392800D01*
G01X391800D02*
X390800D01*
G01X393600Y68300D02*
X391000D01*
G01X393400Y68100D02*
X391200D01*
G01X393200Y67900D02*
X391600D01*
G01X392800Y67700D02*
X392400D01*
G01X396400Y40100D02*
X394800D01*
G01X396400Y39900D02*
X394800D01*
G01X396200Y39700D02*
X395000D01*
G01X396200Y39500D02*
X395000D01*
G01X396000Y39300D02*
X395400D01*
G01X396400Y38500D02*
X395600D01*
G01X396400Y38300D02*
X395200D01*
G01X396400Y38100D02*
X395200D01*
G01X396400Y37900D02*
X395000D01*
G01X396400Y37700D02*
X395200D01*
G01X396200Y37500D02*
X395200D01*
G01X396000Y37300D02*
X395600D01*
G01X396200Y40500D02*
X395200D01*
G01X396200Y40300D02*
X395000D01*
G01X400800Y58300D02*
X400000D01*
G01X401600Y58100D02*
X399800D01*
G01X401800Y57900D02*
X399600D01*
G01X400200Y57700D02*
X399600D01*
G01X400400Y57500D02*
X399600D01*
G01X400400Y57300D02*
X399800D01*
G01X400600Y57100D02*
X399800D01*
G01X400800Y56900D02*
X400000D01*
G01X400800Y56700D02*
X400200D01*
G01X401000Y56500D02*
X400200D01*
G01X400400Y54500D02*
X400000D01*
G01X400600Y54300D02*
X400000D01*
G01X400800Y54100D02*
X400000D01*
G01X401400Y53900D02*
X400200D01*
G01X395000Y72300D02*
X394600D01*
G01X398000Y72100D02*
X397400D01*
G01X395200D02*
X394600D01*
G01X400200Y71900D02*
X399600D01*
G01X398400D02*
X397200D01*
G01X395800D02*
X394600D01*
G01X400200Y71700D02*
X399400D01*
G01X398600D02*
X397200D01*
G01X396200D02*
X394600D01*
G01X400400Y71500D02*
X399400D01*
G01X398800D02*
X397200D01*
G01X396400D02*
X394800D01*
G01X400400Y71300D02*
X399400D01*
G01X399000D02*
X398200D01*
G01X397800D02*
X397200D01*
G01X396600D02*
X394800D01*
G01X400400Y71100D02*
X399400D01*
G01X399200D02*
X398600D01*
G01X398000D02*
X397200D01*
G01X396600D02*
X395000D01*
G01X400600Y70900D02*
X398800D01*
G01X398000D02*
X397400D01*
G01X396800D02*
X395000D01*
G01X400800Y70700D02*
X399000D01*
G01X398200D02*
X397400D01*
G01X397000D02*
X396200D01*
G01X396000D02*
X395200D01*
G01X401000Y70500D02*
X399200D01*
G01X398200D02*
X397600D01*
G01X397200D02*
X396400D01*
G01X396000D02*
X395200D01*
G01X401200Y70300D02*
X399200D01*
G01X398400D02*
X397600D01*
G01X397200D02*
X396400D01*
G01X396200D02*
X395400D01*
G01X401400Y70100D02*
X399600D01*
G01X398400D02*
X397800D01*
G01X397400D02*
X396600D01*
G01X396200D02*
X395400D01*
G01X401600Y69900D02*
X399600D01*
G01X398600D02*
X397800D01*
G01X397600D02*
X396800D01*
G01X396200D02*
X395400D01*
G01X400800Y69700D02*
X399800D01*
G01X398800D02*
X398000D01*
G01X397600D02*
X396800D01*
G01X396400D02*
X395400D01*
G01X401000Y69500D02*
X400000D01*
G01X398800D02*
X398000D01*
G01X397800D02*
X397000D01*
G01X396400D02*
X395600D01*
G01X401200Y69300D02*
X400200D01*
G01X399000D02*
X397000D01*
G01X396400D02*
X395600D01*
G01X399000Y69100D02*
X397200D01*
G01X396400D02*
X395600D01*
G01X399200Y68900D02*
X397400D01*
G01X396400D02*
X395600D01*
G01X399200Y68700D02*
X398000D01*
G01X396400D02*
X395400D01*
G01X399200Y68500D02*
X398000D01*
G01X399400Y68300D02*
X398200D01*
G01X396000D02*
X394000D01*
G01X399400Y68100D02*
X398400D01*
G01X395800D02*
X394400D01*
G01X399400Y67900D02*
X398400D01*
G01X399400Y67700D02*
X398800D01*
G01X407400Y33500D02*
X405400D01*
G01X407600Y33300D02*
X405600D01*
G01X407600Y33100D02*
X405600D01*
G01X407800Y32900D02*
X405800D01*
G01X408000Y32700D02*
X406000D01*
G01X408000Y32500D02*
X406000D01*
G01X408200Y32300D02*
X406200D01*
G01X408400Y32100D02*
X406400D01*
G01X408400Y31900D02*
X406400D01*
G01X408600Y31700D02*
X406600D01*
G01X408800Y31500D02*
X406800D01*
G01X408800Y31300D02*
X406800D01*
G01Y40100D02*
X405800D01*
G01X405200D02*
X403600D01*
G01X403000D02*
X402000D01*
G01X406800Y39900D02*
X406000D01*
G01X405400D02*
X403800D01*
G01X403200D02*
X402000D01*
G01X407000Y39700D02*
X406000D01*
G01X405800D02*
X404000D01*
G01X403200D02*
X402200D01*
G01X407000Y39500D02*
X404000D01*
G01X403600D02*
X402400D01*
G01X407200Y39300D02*
X404000D01*
G01X403600D02*
X402400D01*
G01X407400Y39100D02*
X405200D01*
G01X405000D02*
X404000D01*
G01X403800D02*
X402600D01*
G01X407400Y38900D02*
X405400D01*
G01X405000D02*
X402600D01*
G01X407600Y38700D02*
X405600D01*
G01X405000D02*
X402800D01*
G01X407800Y38500D02*
X406000D01*
G01X405000D02*
X403000D01*
G01X408000Y38300D02*
X406000D01*
G01X405000D02*
X403000D01*
G01X408200Y38100D02*
X406400D01*
G01X404800D02*
X403200D01*
G01X402200D02*
X401600D01*
G01X408400Y37900D02*
X406600D01*
G01X404400D02*
X403200D01*
G01X402600D02*
X401600D01*
G01X404200Y37700D02*
X403400D01*
G01X402800D02*
X401600D01*
G01X404400Y37500D02*
X403400D01*
G01X403200D02*
X401800D01*
G01X404400Y37300D02*
X402000D01*
G01X404600Y37100D02*
X402600D01*
G01X404600Y36900D02*
X402800D01*
G01X404800Y36700D02*
X403200D01*
G01X404800Y36500D02*
X403400D01*
G01X405000Y36300D02*
X403800D01*
G01X405200Y36100D02*
X404000D01*
G01X405400Y35900D02*
X404200D01*
G01X405600Y35700D02*
X404200D01*
G01X405800Y35500D02*
X404400D01*
G01X406000Y35300D02*
X404600D01*
G01X406000Y35100D02*
X404600D01*
G01X406400Y34900D02*
X404800D01*
G01X406400Y34700D02*
X404800D01*
G01X406600Y34500D02*
X405000D01*
G01X406800Y34300D02*
X405000D01*
G01X406800Y34100D02*
X405200D01*
G01X407000Y33900D02*
X405200D01*
G01X407200Y33700D02*
X405200D01*
G01X406200Y46900D02*
X405400D01*
G01X406400Y46700D02*
X405400D01*
G01X406400Y46500D02*
X405400D01*
G01X406600Y46300D02*
X405600D01*
G01X406600Y46100D02*
X405600D01*
G01X406800Y45900D02*
X405600D01*
G01X406800Y45700D02*
X405800D01*
G01X407000Y45500D02*
X405800D01*
G01X407000Y45300D02*
X405800D01*
G01X407000Y45100D02*
X406000D01*
G01X407200Y44900D02*
X406200D01*
G01X407400Y44700D02*
X406200D01*
G01X407400Y44500D02*
X406400D01*
G01X407400Y44300D02*
X406600D01*
G01X407600Y44100D02*
X406600D01*
G01X407800Y43900D02*
X406800D01*
G01X407800Y43700D02*
X406800D01*
G01X401600Y42100D02*
X401000D01*
G01X401800Y41900D02*
X401000D01*
G01X403400Y41700D02*
X403000D01*
G01X402000D02*
X401000D01*
G01X407600Y41500D02*
X406600D01*
G01X403800D02*
X402800D01*
G01X402000D02*
X401000D01*
G01X410400Y41300D02*
X406200D01*
G01X404000D02*
X402800D01*
G01X402200D02*
X401200D01*
G01X409000Y41100D02*
X406000D01*
G01X404000D02*
X403000D01*
G01X402200D02*
X401400D01*
G01X409200Y40900D02*
X405800D01*
G01X404200D02*
X403200D01*
G01X402400D02*
X401600D01*
G01X406800Y40700D02*
X405800D01*
G01X404600D02*
X403400D01*
G01X402600D02*
X401600D01*
G01X406600Y40500D02*
X405800D01*
G01X404800D02*
X403400D01*
G01X402600D02*
X401800D01*
G01X406600Y40300D02*
X405800D01*
G01X405000D02*
X403600D01*
G01X402800D02*
X401800D01*
G01X410400Y53500D02*
X406800D01*
G01X406000D02*
X403600D01*
G01X402800D02*
X400600D01*
G01X405800Y53300D02*
X403800D01*
G01X402400D02*
X401000D01*
G01X405800Y53100D02*
X404200D01*
G01X405400Y52900D02*
X404600D01*
G01X406200Y47100D02*
X405400D01*
G01X403200Y59300D02*
X402600D01*
G01X403400Y59100D02*
X402600D01*
G01X403600Y58900D02*
X402600D01*
G01X403800Y58700D02*
X402800D01*
G01X403800Y58500D02*
X402800D01*
G01X404000Y58300D02*
X403000D01*
G01X404200Y58100D02*
X403200D01*
G01X404200Y57900D02*
X403200D01*
G01X404400Y57700D02*
X403400D01*
G01X402000D02*
X400800D01*
G01X404400Y57500D02*
X403400D01*
G01X402400D02*
X401000D01*
G01X404600Y57300D02*
X403600D01*
G01X402800D02*
X401000D01*
G01X404800Y57100D02*
X401200D01*
G01X405600Y56900D02*
X401200D01*
G01X406200Y56700D02*
X401400D01*
G01X406200Y56500D02*
X403800D01*
G01X403000D02*
X401400D01*
G01X406200Y56300D02*
X404200D01*
G01X403000D02*
X401600D01*
G01X401400D02*
X400400D01*
G01X405400Y56100D02*
X404400D01*
G01X403200D02*
X400600D01*
G01X405600Y55900D02*
X404600D01*
G01X403200D02*
X400800D01*
G01X405600Y55700D02*
X404600D01*
G01X403200D02*
X401000D01*
G01X405800Y55500D02*
X404800D01*
G01X403200D02*
X401200D01*
G01X406000Y55300D02*
X404800D01*
G01X403200D02*
X401400D01*
G01X406200Y55100D02*
X405000D01*
G01X403200D02*
X401600D01*
G01X406400Y54900D02*
X405000D01*
G01X403400D02*
X401800D01*
G01X406600Y54700D02*
X405000D01*
G01X403600D02*
X401400D01*
G01X407000Y54500D02*
X405200D01*
G01X403600D02*
X401400D01*
G01X410200Y54300D02*
X405200D01*
G01X403800D02*
X401400D01*
G01X410200Y54100D02*
X405200D01*
G01X404000D02*
X401600D01*
G01X410400Y53900D02*
X406400D01*
G01X406000D02*
X405200D01*
G01X404200D02*
X403400D01*
G01X403000D02*
X401800D01*
G01X410400Y53700D02*
X406600D01*
G01X406000D02*
X405200D01*
G01X404400D02*
X403600D01*
G01X403000D02*
X400400D01*
G01X407200Y66900D02*
X406600D01*
G01X404400Y71900D02*
X403400D01*
G01X404600Y71700D02*
X403200D01*
G01X405000Y71500D02*
X403000D01*
G01X405200Y71300D02*
X404200D01*
G01X403800D02*
X402600D01*
G01X405400Y71100D02*
X404600D01*
G01X403800D02*
X402600D01*
G01X405800Y70900D02*
X404800D01*
G01X404000D02*
X402600D01*
G01X405800Y70700D02*
X405000D01*
G01X404200D02*
X402800D01*
G01X406000Y70500D02*
X405400D01*
G01X404400D02*
X402800D01*
G01X406200Y70300D02*
X405400D01*
G01X404600D02*
X403000D01*
G01X406400Y70100D02*
X405600D01*
G01X405000D02*
X403000D01*
G01X406600Y69900D02*
X405800D01*
G01X405000D02*
X403200D01*
G01X406600Y69700D02*
X406000D01*
G01X405400D02*
X403200D01*
G01X401800D02*
X401000D01*
G01X406800Y69500D02*
X406000D01*
G01X405600D02*
X404800D01*
G01X404600D02*
X403400D01*
G01X402000D02*
X401200D01*
G01X407000Y69300D02*
X406200D01*
G01X405800D02*
X405000D01*
G01X404800D02*
X403600D01*
G01X402200D02*
X401400D01*
G01X407000Y69100D02*
X406200D01*
G01X406000D02*
X405200D01*
G01X405000D02*
X403600D01*
G01X402400D02*
X401600D01*
G01X401200D02*
X400400D01*
G01X407200Y68900D02*
X406400D01*
G01X406200D02*
X405400D01*
G01X405200D02*
X403600D01*
G01X402600D02*
X402000D01*
G01X401400D02*
X400400D01*
G01X407200Y68700D02*
X405800D01*
G01X405200D02*
X404600D01*
G01X404400D02*
X403800D01*
G01X402800D02*
X402000D01*
G01X401600D02*
X400600D01*
G01X407200Y68500D02*
X406000D01*
G01X405400D02*
X404600D01*
G01X404400D02*
X403800D01*
G01X403000D02*
X402200D01*
G01X401600D02*
X400800D01*
G01X407400Y68300D02*
X406200D01*
G01X405800D02*
X404800D01*
G01X404400D02*
X403800D01*
G01X403200D02*
X402400D01*
G01X401800D02*
X400800D01*
G01X407400Y68100D02*
X406400D01*
G01X406000D02*
X405200D01*
G01X404400D02*
X402600D01*
G01X402000D02*
X401000D01*
G01X407600Y67900D02*
X406600D01*
G01X406200D02*
X405400D01*
G01X404400D02*
X402800D01*
G01X402000D02*
X401200D01*
G01X407600Y67700D02*
X406800D01*
G01X406400D02*
X405600D01*
G01X404200D02*
X403200D01*
G01X402200D02*
X401400D01*
G01X407800Y67500D02*
X405800D01*
G01X402400D02*
X401400D01*
G01X408000Y67300D02*
X406000D01*
G01X402400D02*
X401600D01*
G01X408200Y67100D02*
X406200D01*
G01X402200D02*
X402000D01*
G01X409000Y31100D02*
X407000D01*
G01X409200Y30900D02*
X407000D01*
G01X409200Y30700D02*
X407200D01*
G01X409400Y30500D02*
X407400D01*
G01X409400Y30300D02*
X407400D01*
G01X409600Y30100D02*
X407600D01*
G01X409800Y29900D02*
X407600D01*
G01X409800Y29700D02*
X407800D01*
G01X410000Y29500D02*
X408000D01*
G01X410000Y29300D02*
X408200D01*
G01X410200Y29100D02*
X408200D01*
G01X410200Y28900D02*
X408400D01*
G01X410200Y28700D02*
X408600D01*
G01X410200Y28500D02*
X408800D01*
G01X410400Y28300D02*
X409000D01*
G01X410400Y28100D02*
X409000D01*
G01X410200Y27900D02*
X409200D01*
G01X410200Y27700D02*
X409200D01*
G01X410000Y27500D02*
X409400D01*
G01X409600Y40100D02*
X408000D01*
G01X409600Y39900D02*
X408200D01*
G01X409800Y39700D02*
X408400D01*
G01X409800Y39500D02*
X408400D01*
G01X410000Y39300D02*
X408600D01*
G01X410000Y39100D02*
X408800D01*
G01X410200Y38900D02*
X408800D01*
G01X410200Y38700D02*
X409000D01*
G01X410400Y38500D02*
X409000D01*
G01X410400Y38300D02*
X409200D01*
G01X410600Y38100D02*
X409400D01*
G01X410600Y37900D02*
X409400D01*
G01X410800Y37700D02*
X409600D01*
G01X408600D02*
X407000D01*
G01X410800Y37500D02*
X409600D01*
G01X408800D02*
X407200D01*
G01X410800Y37300D02*
X409800D01*
G01X409200D02*
X407400D01*
G01X410800Y37100D02*
X410200D01*
G01X409400D02*
X407800D01*
G01X410600Y36900D02*
X410400D01*
G01X409800D02*
X408000D01*
G01X410000Y36700D02*
X408400D01*
G01X410000Y36500D02*
X408600D01*
G01X410000Y36300D02*
X409000D01*
G01X409600Y36100D02*
X409400D01*
G01X408000Y43500D02*
X407000D01*
G01X408200Y43300D02*
X407000D01*
G01X408400Y43100D02*
X407200D01*
G01X408600Y42900D02*
X407200D01*
G01X408600Y42700D02*
X407400D01*
G01X408800Y42500D02*
X407400D01*
G01X409000Y42300D02*
X407600D01*
G01X409200Y42100D02*
X407600D01*
G01X409400Y41900D02*
X407800D01*
G01X409800Y41700D02*
X407800D01*
G01X410000Y41500D02*
X407800D01*
G01X410800Y41100D02*
X409200D01*
G01X411800Y40900D02*
X409600D01*
G01X411800Y40700D02*
X409800D01*
G01X409200D02*
X407600D01*
G01X411800Y40500D02*
X410400D01*
G01X409400D02*
X407800D01*
G01X411200Y40300D02*
X411000D01*
G01X409400D02*
X407800D01*
G01X412800Y53500D02*
X412000D01*
G01X412800Y53300D02*
X412000D01*
G01X410600D02*
X409600D01*
G01X409400D02*
X408400D01*
G01X408000D02*
X407200D01*
G01X412800Y53100D02*
X412000D01*
G01X411000D02*
X408600D01*
G01X412600Y52900D02*
X411800D01*
G01X411400D02*
X408800D01*
G01X412600Y52700D02*
X409000D01*
G01X412400Y52500D02*
X410800D01*
G01X410200D02*
X409200D01*
G01X412200Y52300D02*
X411200D01*
G01X410000D02*
X409600D01*
G01X410600Y60100D02*
X409600D01*
G01X410600Y59900D02*
X409600D01*
G01X410800Y59700D02*
X409600D01*
G01X410800Y59500D02*
X409800D01*
G01X411000Y59300D02*
X409800D01*
G01X411000Y59100D02*
X410000D01*
G01X411200Y58900D02*
X410200D01*
G01X411200Y58700D02*
X410200D01*
G01X411400Y58500D02*
X410200D01*
G01X411400Y58300D02*
X410400D01*
G01X411400Y58100D02*
X410400D01*
G01X411600Y57900D02*
X410600D01*
G01X411600Y57700D02*
X410600D01*
G01X411800Y57500D02*
X410800D01*
G01X411800Y57300D02*
X410800D01*
G01X411800Y57100D02*
X411000D01*
G01X412000Y56900D02*
X411000D01*
G01X412000Y56700D02*
X411200D01*
G01X412000Y56500D02*
X411400D01*
G01X412200Y56300D02*
X411400D01*
G01X407600D02*
X407000D01*
G01X412400Y56100D02*
X411400D01*
G01X408600D02*
X407000D01*
G01X412400Y55900D02*
X411600D01*
G01X409000D02*
X407000D01*
G01X412600Y55700D02*
X411600D01*
G01X409200D02*
X407000D01*
G01X412800Y55500D02*
X411800D01*
G01X409200D02*
X407000D01*
G01X413000Y55300D02*
X411800D01*
G01X409400D02*
X407200D01*
G01X413200Y55100D02*
X411800D01*
G01X409600D02*
X408800D01*
G01X408400D02*
X407200D01*
G01X413400Y54900D02*
X412000D01*
G01X409800D02*
X409000D01*
G01X408600D02*
X407400D01*
G01X413400Y54700D02*
X412000D01*
G01X410000D02*
X409200D01*
G01X408800D02*
X407400D01*
G01X413600Y54500D02*
X412000D01*
G01X410000D02*
X409200D01*
G01X409000D02*
X407400D01*
G01X413800Y54300D02*
X413000D01*
G01X412800D02*
X412000D01*
G01X414000Y54100D02*
X413200D01*
G01X412800D02*
X412000D01*
G01X414200Y53900D02*
X413400D01*
G01X412800D02*
X412000D01*
G01X412800Y53700D02*
X412000D01*
G01X411200Y66900D02*
X410400D01*
G01X408400D02*
X407800D01*
G01X411200Y66700D02*
X410400D01*
G01X408600D02*
X408000D01*
G01X411200Y66500D02*
X410400D01*
G01X408800D02*
X408200D01*
G01X411200Y66300D02*
X410400D01*
G01X409000D02*
X408400D01*
G01X411200Y66100D02*
X410400D01*
G01X409400D02*
X408600D01*
G01X411000Y65900D02*
X410400D01*
G01X409800D02*
X408800D01*
G01X411000Y65700D02*
X408800D01*
G01X410800Y65500D02*
X409200D01*
G01X410600Y65300D02*
X409600D01*
G01Y61900D02*
X409000D01*
G01X409800Y61700D02*
X409000D01*
G01X409800Y61500D02*
X409000D01*
G01X410000Y61300D02*
X409200D01*
G01X410200Y61100D02*
X409200D01*
G01X410200Y60900D02*
X409200D01*
G01X410200Y60700D02*
X409400D01*
G01X410400Y60500D02*
X409400D01*
G01X410400Y60300D02*
X409400D01*
G01X413200Y73500D02*
X412800D01*
G01X409800D02*
X407800D01*
G01X413600Y73300D02*
X412400D01*
G01X410000D02*
X409000D01*
G01X408400D02*
X407800D01*
G01X413600Y73100D02*
X412200D01*
G01X410400D02*
X409600D01*
G01X408400D02*
X407800D01*
G01X413800Y72900D02*
X413200D01*
G01X413000D02*
X412200D01*
G01X410600D02*
X409800D01*
G01X408400D02*
X407800D01*
G01X413600Y72700D02*
X413400D01*
G01X412800D02*
X412200D01*
G01X411000D02*
X410200D01*
G01X408600D02*
X408000D01*
G01X412800Y72500D02*
X412200D01*
G01X411200D02*
X410400D01*
G01X408600D02*
X408000D01*
G01X412800Y72300D02*
X412200D01*
G01X411400D02*
X410600D01*
G01X408600D02*
X408000D01*
G01X412800Y72100D02*
X412200D01*
G01X411800D02*
X411000D01*
G01X408800D02*
X408200D01*
G01X412800Y71900D02*
X412200D01*
G01X411800D02*
X411200D01*
G01X409000D02*
X408200D01*
G01X413000Y71700D02*
X411400D01*
G01X409000D02*
X408400D01*
G01X413000Y71500D02*
X411600D01*
G01X409200D02*
X408400D01*
G01X413000Y71300D02*
X411800D01*
G01X409200D02*
X408600D01*
G01X413200Y71100D02*
X412000D01*
G01X409400D02*
X408800D01*
G01X413200Y70900D02*
X412200D01*
G01X409400D02*
X408800D01*
G01X413200Y70700D02*
X412400D01*
G01X409600D02*
X409000D01*
G01X413400Y70500D02*
X412400D01*
G01X409800D02*
X409000D01*
G01X413400Y70300D02*
X412600D01*
G01X409800D02*
X409200D01*
G01X413600Y70100D02*
X412600D01*
G01X410000D02*
X409200D01*
G01X413600Y69900D02*
X412800D01*
G01X410000D02*
X409400D01*
G01X413800Y69700D02*
X413000D01*
G01X410200D02*
X409400D01*
G01X414000Y69500D02*
X413000D01*
G01X410200D02*
X409600D01*
G01X414000Y69300D02*
X413200D01*
G01X410400D02*
X409600D01*
G01X414200Y69100D02*
X413400D01*
G01X410400D02*
X409800D01*
G01X414200Y68900D02*
X413400D01*
G01X410600D02*
X410000D01*
G01X410600Y68700D02*
X410000D01*
G01X410800Y68500D02*
X410200D01*
G01X410800Y68300D02*
X410200D01*
G01X410800Y68100D02*
X410200D01*
G01X411000Y67900D02*
X410400D01*
G01X411000Y67700D02*
X410400D01*
G01X411000Y67500D02*
X410400D01*
G01X411000Y67300D02*
X410400D01*
G01X411200Y67100D02*
X410400D01*
G01X408800Y73900D02*
X408400D01*
G01X409400Y73700D02*
X408000D01*
G01X416600Y53500D02*
X415800D01*
G01X414600D02*
X413800D01*
G01X416800Y53300D02*
X416000D01*
G01X414800D02*
X414000D01*
G01X416800Y53100D02*
X416200D01*
G01X415000D02*
X414200D01*
G01X416800Y52900D02*
X416200D01*
G01X415000D02*
X414200D01*
G01X417000Y52700D02*
X416200D01*
G01X415400D02*
X414400D01*
G01X417000Y52500D02*
X416200D01*
G01X415600D02*
X414600D01*
G01X417000Y52300D02*
X416200D01*
G01X415800D02*
X414800D01*
G01X417000Y52100D02*
X415000D01*
G01X417000Y51900D02*
X415400D01*
G01X416800Y51700D02*
X415600D01*
G01X416400Y51500D02*
X416000D01*
G01X415000Y55700D02*
X414200D01*
G01X415200Y55500D02*
X413800D01*
G01X415400Y55300D02*
X413800D01*
G01X415600Y55100D02*
X414600D01*
G01X414400D02*
X413800D01*
G01X415800Y54900D02*
X414800D01*
G01X414400D02*
X413800D01*
G01X415800Y54700D02*
X415000D01*
G01X414200D02*
X413800D01*
G01X416000Y54500D02*
X415200D01*
G01X416200Y54300D02*
X415400D01*
G01X416200Y54100D02*
X415600D01*
G01X416400Y53900D02*
X415600D01*
G01X416600Y53700D02*
X415800D01*
G01X414400D02*
X413600D01*
G01X415600Y66900D02*
X414600D01*
G01X415800Y66700D02*
X414800D01*
G01X415800Y66500D02*
X414800D01*
G01X416000Y66300D02*
X415000D01*
G01X416200Y66100D02*
X415200D01*
G01X416200Y65900D02*
X415200D01*
G01X416400Y65700D02*
X415400D01*
G01X416400Y65500D02*
X415600D01*
G01X416200Y65300D02*
X416000D01*
G01X414000Y72700D02*
X413800D01*
G01X414400Y68700D02*
X413600D01*
G01X414600Y68500D02*
X413600D01*
G01X414800Y68300D02*
X413800D01*
G01X414800Y68100D02*
X414000D01*
G01X415000Y67900D02*
X414000D01*
G01X415200Y67700D02*
X414200D01*
G01X415200Y67500D02*
X414200D01*
G01X415400Y67300D02*
X414400D01*
G01X415600Y67100D02*
X414400D01*
G54D11*
G01X9126Y156986D02*
X9043Y156542D01*
X8793Y156036D01*
X8376Y155719D01*
X7793Y155592D01*
X7209Y155719D01*
X6709Y156099D01*
X6459Y156669D01*
Y157302D01*
X6293Y157682D01*
X5876Y157999D01*
X5293Y158126D01*
X4709Y157936D01*
X4293Y157492D01*
X4126Y156986D01*
X4293Y156479D01*
X4709Y156036D01*
X5293Y155846D01*
X5876Y155972D01*
X6293Y156289D01*
X6459Y156669D01*
Y157302D01*
X6709Y157872D01*
X7209Y158253D01*
X7793Y158379D01*
X8376Y158253D01*
X8793Y157936D01*
X9043Y157429D01*
X9126Y156986D01*
G01X4959Y205433D02*
X4459Y205053D01*
X4209Y204610D01*
X4126Y204103D01*
X4293Y203470D01*
X4709Y203026D01*
X5209Y202900D01*
X5710Y202963D01*
X6126Y203217D01*
X6959Y204483D01*
X7543Y205053D01*
X8376Y205433D01*
X9126Y205560D01*
Y202900D01*
G01X18575Y203836D02*
X13575D01*
X14575Y204596D01*
G01X18575D02*
Y203076D01*
G01X21193Y213100D02*
Y210878D01*
X21040Y210413D01*
X20733Y210103D01*
X20350Y210000D01*
X19967Y210103D01*
X19660Y210413D01*
X19507Y210878D01*
Y213100D01*
G01X17250Y210000D02*
Y213100D01*
X17710Y212480D01*
G01Y210000D02*
X16790D01*
G01X14878Y212583D02*
X14648Y212893D01*
X14380Y213048D01*
X14073Y213100D01*
X13690Y212997D01*
X13422Y212738D01*
X13345Y212428D01*
X13383Y212118D01*
X13537Y211860D01*
X14303Y211343D01*
X14648Y210982D01*
X14878Y210465D01*
X14955Y210000D01*
X13345D01*
G01X20150Y157112D02*
X19066Y156986D01*
X18150Y156796D01*
X17316Y156542D01*
X16400Y156226D01*
X15150Y155719D01*
Y158253D01*
G01X130693Y95600D02*
Y93378D01*
X130540Y92913D01*
X130233Y92603D01*
X129850Y92500D01*
X129467Y92603D01*
X129160Y92913D01*
X129007Y93378D01*
Y95600D01*
G01X126827Y92500D02*
X126750Y93172D01*
X126635Y93740D01*
X126482Y94257D01*
X126290Y94825D01*
X125983Y95600D01*
X127517D01*
G01X152693Y228600D02*
Y226378D01*
X152540Y225913D01*
X152233Y225603D01*
X151850Y225500D01*
X151467Y225603D01*
X151160Y225913D01*
X151007Y226378D01*
Y228600D01*
G01X148290Y225500D02*
Y228600D01*
X149708Y226378D01*
X147792D01*
G01X268117Y86000D02*
Y89100D01*
X267158D01*
X266852Y88945D01*
X266660Y88738D01*
X266583Y88325D01*
X266660Y87912D01*
X266890Y87653D01*
X267158Y87498D01*
X268117D01*
G01X267158D02*
X266583Y86000D01*
G01X265093Y86465D02*
X264863Y86207D01*
X264595Y86052D01*
X264250Y86000D01*
X263905Y86103D01*
X263637Y86310D01*
X263445Y86672D01*
X263407Y87085D01*
X263483Y87498D01*
X263675Y87757D01*
X263943Y87963D01*
X264212Y88015D01*
X264480Y87963D01*
X264825Y87757D01*
X264710Y89100D01*
X263675D01*
G01X261150Y86000D02*
Y89100D01*
X261610Y88480D01*
G01Y86000D02*
X260690D01*
G01X268117Y94000D02*
Y97100D01*
X267158D01*
X266852Y96945D01*
X266660Y96738D01*
X266583Y96325D01*
X266660Y95912D01*
X266890Y95653D01*
X267158Y95498D01*
X268117D01*
G01X267158D02*
X266583Y94000D01*
G01X263790D02*
Y97100D01*
X265208Y94878D01*
X263292D01*
G01X261802Y94362D02*
X261533Y94103D01*
X261227Y94000D01*
X260920Y94103D01*
X260652Y94413D01*
X260460Y94878D01*
X260383Y95343D01*
Y95912D01*
X260460Y96377D01*
X260652Y96790D01*
X260882Y96997D01*
X261150Y97100D01*
X261457Y96997D01*
X261687Y96790D01*
X261840Y96480D01*
X261917Y96067D01*
X261840Y95705D01*
X261648Y95343D01*
X261418Y95137D01*
X261150Y95085D01*
X260843Y95188D01*
X260613Y95447D01*
X260383Y95912D01*
G01X268117Y90000D02*
Y93100D01*
X267158D01*
X266852Y92945D01*
X266660Y92738D01*
X266583Y92325D01*
X266660Y91912D01*
X266890Y91653D01*
X267158Y91498D01*
X268117D01*
G01X267158D02*
X266583Y90000D01*
G01X265093Y90465D02*
X264863Y90207D01*
X264595Y90052D01*
X264250Y90000D01*
X263905Y90103D01*
X263637Y90310D01*
X263445Y90672D01*
X263407Y91085D01*
X263483Y91498D01*
X263675Y91757D01*
X263943Y91963D01*
X264212Y92015D01*
X264480Y91963D01*
X264825Y91757D01*
X264710Y93100D01*
X263675D01*
G01X261150D02*
X261457Y92997D01*
X261687Y92738D01*
X261840Y92428D01*
X261955Y92015D01*
X261993Y91550D01*
X261955Y91085D01*
X261840Y90672D01*
X261687Y90362D01*
X261457Y90103D01*
X261150Y90000D01*
X260843Y90103D01*
X260613Y90362D01*
X260460Y90672D01*
X260345Y91085D01*
X260307Y91550D01*
X260345Y92015D01*
X260460Y92428D01*
X260613Y92738D01*
X260843Y92997D01*
X261150Y93100D01*
G01X268117Y98000D02*
Y101100D01*
X267158D01*
X266852Y100945D01*
X266660Y100738D01*
X266583Y100325D01*
X266660Y99912D01*
X266890Y99653D01*
X267158Y99498D01*
X268117D01*
G01X267158D02*
X266583Y98000D01*
G01X263790D02*
Y101100D01*
X265208Y98878D01*
X263292D01*
G01X261150Y98000D02*
X260882Y98052D01*
X260575Y98207D01*
X260383Y98465D01*
X260307Y98827D01*
X260383Y99188D01*
X260613Y99498D01*
X260958Y99653D01*
X261342D01*
X261572Y99757D01*
X261763Y100015D01*
X261840Y100377D01*
X261725Y100738D01*
X261457Y100997D01*
X261150Y101100D01*
X260843Y100997D01*
X260575Y100738D01*
X260460Y100377D01*
X260537Y100015D01*
X260728Y99757D01*
X260958Y99653D01*
X261342D01*
X261687Y99498D01*
X261917Y99188D01*
X261993Y98827D01*
X261917Y98465D01*
X261725Y98207D01*
X261418Y98052D01*
X261150Y98000D01*
G01X324007Y183342D02*
X324237Y183497D01*
X324505Y183600D01*
X324812D01*
X325157Y183445D01*
X325425Y183187D01*
X325617Y182877D01*
X325770Y182360D01*
X325808Y181895D01*
X325732Y181430D01*
X325617Y181120D01*
X325387Y180810D01*
X325118Y180603D01*
X324850Y180500D01*
X324582D01*
X324313Y180603D01*
X324083Y180758D01*
X323892Y180965D01*
G01X321290Y180500D02*
Y183600D01*
X322708Y181378D01*
X320792D01*
G01X318727Y180500D02*
X318650Y181172D01*
X318535Y181740D01*
X318382Y182257D01*
X318190Y182825D01*
X317883Y183600D01*
X319417D01*
G01X336507Y225842D02*
X336737Y225997D01*
X337005Y226100D01*
X337312D01*
X337657Y225945D01*
X337925Y225687D01*
X338117Y225377D01*
X338270Y224860D01*
X338308Y224395D01*
X338232Y223930D01*
X338117Y223620D01*
X337887Y223310D01*
X337618Y223103D01*
X337350Y223000D01*
X337082D01*
X336813Y223103D01*
X336583Y223258D01*
X336392Y223465D01*
G01X333790Y223000D02*
Y226100D01*
X335208Y223878D01*
X333292D01*
G01X331993Y223620D02*
X331763Y223258D01*
X331457Y223052D01*
X331112Y223000D01*
X330805Y223052D01*
X330498Y223310D01*
X330307Y223620D01*
X330268Y223930D01*
X330345Y224292D01*
X330613Y224550D01*
X330882Y224653D01*
X331227D01*
G01X330882D02*
X330652Y224808D01*
X330460Y225067D01*
X330383Y225377D01*
X330460Y225687D01*
X330652Y225945D01*
X330997Y226100D01*
X331342Y226048D01*
X331687Y225842D01*
G01X349507Y152842D02*
X349737Y152997D01*
X350005Y153100D01*
X350312D01*
X350657Y152945D01*
X350925Y152687D01*
X351117Y152377D01*
X351270Y151860D01*
X351308Y151395D01*
X351232Y150930D01*
X351117Y150620D01*
X350887Y150310D01*
X350618Y150103D01*
X350350Y150000D01*
X350082D01*
X349813Y150103D01*
X349583Y150258D01*
X349392Y150465D01*
G01X346790Y150000D02*
Y153100D01*
X348208Y150878D01*
X346292D01*
G01X344993Y150465D02*
X344763Y150207D01*
X344495Y150052D01*
X344150Y150000D01*
X343805Y150103D01*
X343537Y150310D01*
X343345Y150672D01*
X343307Y151085D01*
X343383Y151498D01*
X343575Y151757D01*
X343843Y151963D01*
X344112Y152015D01*
X344380Y151963D01*
X344725Y151757D01*
X344610Y153100D01*
X343575D01*
G01X352842Y197993D02*
X352997Y197763D01*
X353100Y197495D01*
Y197188D01*
X352945Y196843D01*
X352687Y196575D01*
X352377Y196383D01*
X351860Y196230D01*
X351395Y196192D01*
X350930Y196268D01*
X350620Y196383D01*
X350310Y196613D01*
X350103Y196882D01*
X350000Y197150D01*
Y197418D01*
X350103Y197687D01*
X350258Y197917D01*
X350465Y198108D01*
G01X350000Y200710D02*
X353100D01*
X350878Y199292D01*
Y201208D01*
G01X350000Y203350D02*
X350052Y203618D01*
X350207Y203925D01*
X350465Y204117D01*
X350827Y204193D01*
X351188Y204117D01*
X351498Y203887D01*
X351653Y203542D01*
Y203158D01*
X351757Y202928D01*
X352015Y202737D01*
X352377Y202660D01*
X352738Y202775D01*
X352997Y203043D01*
X353100Y203350D01*
X352997Y203657D01*
X352738Y203925D01*
X352377Y204040D01*
X352015Y203963D01*
X351757Y203772D01*
X351653Y203542D01*
Y203158D01*
X351498Y202813D01*
X351188Y202583D01*
X350827Y202507D01*
X350465Y202583D01*
X350207Y202775D01*
X350052Y203082D01*
X350000Y203350D01*
G01X350345Y241500D02*
X351955Y238400D01*
G01X350345D02*
X351955Y241500D01*
G01X353407Y240880D02*
X353637Y241242D01*
X353943Y241448D01*
X354288Y241500D01*
X354595Y241448D01*
X354902Y241190D01*
X355093Y240880D01*
X355132Y240570D01*
X355055Y240208D01*
X354787Y239950D01*
X354518Y239847D01*
X354173D01*
G01X354518D02*
X354748Y239692D01*
X354940Y239433D01*
X355017Y239123D01*
X354940Y238813D01*
X354748Y238555D01*
X354403Y238400D01*
X354058Y238452D01*
X353713Y238658D01*
G01X362507Y152842D02*
X362737Y152997D01*
X363005Y153100D01*
X363312D01*
X363657Y152945D01*
X363925Y152687D01*
X364117Y152377D01*
X364270Y151860D01*
X364308Y151395D01*
X364232Y150930D01*
X364117Y150620D01*
X363887Y150310D01*
X363618Y150103D01*
X363350Y150000D01*
X363082D01*
X362813Y150103D01*
X362583Y150258D01*
X362392Y150465D01*
G01X359790Y150000D02*
Y153100D01*
X361208Y150878D01*
X359292D01*
G01X357802Y150362D02*
X357533Y150103D01*
X357227Y150000D01*
X356920Y150103D01*
X356652Y150413D01*
X356460Y150878D01*
X356383Y151343D01*
Y151912D01*
X356460Y152377D01*
X356652Y152790D01*
X356882Y152997D01*
X357150Y153100D01*
X357457Y152997D01*
X357687Y152790D01*
X357840Y152480D01*
X357917Y152067D01*
X357840Y151705D01*
X357648Y151343D01*
X357418Y151137D01*
X357150Y151085D01*
X356843Y151188D01*
X356613Y151447D01*
X356383Y151912D01*
G01X358100Y198883D02*
X355000D01*
Y200417D01*
G01X355362Y202098D02*
X355103Y202367D01*
X355000Y202673D01*
X355103Y202980D01*
X355413Y203248D01*
X355878Y203440D01*
X356343Y203517D01*
X356912D01*
X357377Y203440D01*
X357790Y203248D01*
X357997Y203018D01*
X358100Y202750D01*
X357997Y202443D01*
X357790Y202213D01*
X357480Y202060D01*
X357067Y201983D01*
X356705Y202060D01*
X356343Y202252D01*
X356137Y202482D01*
X356085Y202750D01*
X356188Y203057D01*
X356447Y203287D01*
X356912Y203517D01*
G01X363842Y197993D02*
X363997Y197763D01*
X364100Y197495D01*
Y197188D01*
X363945Y196843D01*
X363687Y196575D01*
X363377Y196383D01*
X362860Y196230D01*
X362395Y196192D01*
X361930Y196268D01*
X361620Y196383D01*
X361310Y196613D01*
X361103Y196882D01*
X361000Y197150D01*
Y197418D01*
X361103Y197687D01*
X361258Y197917D01*
X361465Y198108D01*
G01X361000Y200710D02*
X364100D01*
X361878Y199292D01*
Y201208D01*
G01X362292Y202622D02*
X362653Y202890D01*
X362860Y203120D01*
X362963Y203427D01*
X362860Y203695D01*
X362653Y203887D01*
X362343Y204040D01*
X361982Y204078D01*
X361672Y204040D01*
X361362Y203887D01*
X361103Y203657D01*
X361000Y203388D01*
X361103Y203082D01*
X361413Y202813D01*
X361878Y202660D01*
X362395Y202622D01*
X363067Y202698D01*
X363428Y202813D01*
X363790Y203005D01*
X364048Y203273D01*
X364100Y203542D01*
X363997Y203810D01*
X363738Y204002D01*
G01X369600Y198883D02*
X366500D01*
Y200417D01*
G01Y202750D02*
X366552Y203018D01*
X366707Y203325D01*
X366965Y203517D01*
X367327Y203593D01*
X367688Y203517D01*
X367998Y203287D01*
X368153Y202942D01*
Y202558D01*
X368257Y202328D01*
X368515Y202137D01*
X368877Y202060D01*
X369238Y202175D01*
X369497Y202443D01*
X369600Y202750D01*
X369497Y203057D01*
X369238Y203325D01*
X368877Y203440D01*
X368515Y203363D01*
X368257Y203172D01*
X368153Y202942D01*
Y202558D01*
X367998Y202213D01*
X367688Y201983D01*
X367327Y201907D01*
X366965Y201983D01*
X366707Y202175D01*
X366552Y202482D01*
X366500Y202750D01*
G01X373007Y225842D02*
X373237Y225997D01*
X373505Y226100D01*
X373812D01*
X374157Y225945D01*
X374425Y225687D01*
X374617Y225377D01*
X374770Y224860D01*
X374808Y224395D01*
X374732Y223930D01*
X374617Y223620D01*
X374387Y223310D01*
X374118Y223103D01*
X373850Y223000D01*
X373582D01*
X373313Y223103D01*
X373083Y223258D01*
X372892Y223465D01*
G01X370290Y223000D02*
Y226100D01*
X371708Y223878D01*
X369792D01*
G01X367190Y223000D02*
Y226100D01*
X368608Y223878D01*
X366692D01*
G01X384842Y175493D02*
X384997Y175263D01*
X385100Y174995D01*
Y174688D01*
X384945Y174343D01*
X384687Y174075D01*
X384377Y173883D01*
X383860Y173730D01*
X383395Y173692D01*
X382930Y173768D01*
X382620Y173883D01*
X382310Y174113D01*
X382103Y174382D01*
X382000Y174650D01*
Y174918D01*
X382103Y175187D01*
X382258Y175417D01*
X382465Y175608D01*
G01Y176907D02*
X382207Y177137D01*
X382052Y177405D01*
X382000Y177750D01*
X382103Y178095D01*
X382310Y178363D01*
X382672Y178555D01*
X383085Y178593D01*
X383498Y178517D01*
X383757Y178325D01*
X383963Y178057D01*
X384015Y177788D01*
X383963Y177520D01*
X383757Y177175D01*
X385100Y177290D01*
Y178325D01*
G01Y180850D02*
X384997Y180543D01*
X384738Y180313D01*
X384428Y180160D01*
X384015Y180045D01*
X383550Y180007D01*
X383085Y180045D01*
X382672Y180160D01*
X382362Y180313D01*
X382103Y180543D01*
X382000Y180850D01*
X382103Y181157D01*
X382362Y181387D01*
X382672Y181540D01*
X383085Y181655D01*
X383550Y181693D01*
X384015Y181655D01*
X384428Y181540D01*
X384738Y181387D01*
X384997Y181157D01*
X385100Y180850D01*
G01X392342Y168493D02*
X392497Y168263D01*
X392600Y167995D01*
Y167688D01*
X392445Y167343D01*
X392187Y167075D01*
X391877Y166883D01*
X391360Y166730D01*
X390895Y166692D01*
X390430Y166768D01*
X390120Y166883D01*
X389810Y167113D01*
X389603Y167382D01*
X389500Y167650D01*
Y167918D01*
X389603Y168187D01*
X389758Y168417D01*
X389965Y168608D01*
G01X390120Y169907D02*
X389758Y170137D01*
X389552Y170443D01*
X389500Y170788D01*
X389552Y171095D01*
X389810Y171402D01*
X390120Y171593D01*
X390430Y171632D01*
X390792Y171555D01*
X391050Y171287D01*
X391153Y171018D01*
Y170673D01*
G01Y171018D02*
X391308Y171248D01*
X391567Y171440D01*
X391877Y171517D01*
X392187Y171440D01*
X392445Y171248D01*
X392600Y170903D01*
X392548Y170558D01*
X392342Y170213D01*
G01X389862Y173198D02*
X389603Y173467D01*
X389500Y173773D01*
X389603Y174080D01*
X389913Y174348D01*
X390378Y174540D01*
X390843Y174617D01*
X391412D01*
X391877Y174540D01*
X392290Y174348D01*
X392497Y174118D01*
X392600Y173850D01*
X392497Y173543D01*
X392290Y173313D01*
X391980Y173160D01*
X391567Y173083D01*
X391205Y173160D01*
X390843Y173352D01*
X390637Y173582D01*
X390585Y173850D01*
X390688Y174157D01*
X390947Y174387D01*
X391412Y174617D01*
G01X392342Y185993D02*
X392497Y185763D01*
X392600Y185495D01*
Y185188D01*
X392445Y184843D01*
X392187Y184575D01*
X391877Y184383D01*
X391360Y184230D01*
X390895Y184192D01*
X390430Y184268D01*
X390120Y184383D01*
X389810Y184613D01*
X389603Y184882D01*
X389500Y185150D01*
Y185418D01*
X389603Y185687D01*
X389758Y185917D01*
X389965Y186108D01*
G01X389500Y188710D02*
X392600D01*
X390378Y187292D01*
Y189208D01*
G01X392083Y190622D02*
X392393Y190852D01*
X392548Y191120D01*
X392600Y191427D01*
X392497Y191810D01*
X392238Y192078D01*
X391928Y192155D01*
X391618Y192117D01*
X391360Y191963D01*
X390843Y191197D01*
X390482Y190852D01*
X389965Y190622D01*
X389500Y190545D01*
Y192155D01*
G01X415000Y176845D02*
X418100Y178455D01*
G01Y176845D02*
X415000Y178455D01*
G01X417583Y180022D02*
X417893Y180252D01*
X418048Y180520D01*
X418100Y180827D01*
X417997Y181210D01*
X417738Y181478D01*
X417428Y181555D01*
X417118Y181517D01*
X416860Y181363D01*
X416343Y180597D01*
X415982Y180252D01*
X415465Y180022D01*
X415000Y179945D01*
Y181555D01*
G54D12*
G01X166200Y204800D02*
X140500Y230500D01*
X36500D01*
Y134500D01*
X140500D01*
G01D02*
X166200Y160200D01*
Y204800D01*
X140500Y230500D01*
X36500D01*
Y134500D01*
X140500D01*
G01X138342Y132800D02*
G03I-1942J0D01*
G01X140500Y134500D02*
X166200Y160200D01*
G01Y167500D02*
X216200D01*
Y197500D01*
X166200D01*
G01Y167500D02*
X216200D01*
Y197500D01*
X166200D01*
G01X269000Y63000D02*
X258000D01*
Y58000D01*
X269000D01*
G01Y70000D02*
X258000D01*
Y65000D01*
X269000D01*
G01Y77000D02*
X258000D01*
Y72000D01*
X269000D01*
G01Y84000D02*
X258000D01*
Y79000D01*
X269000D01*
G01X266600Y58000D02*
X269000D01*
Y63000D01*
X266600D01*
G01Y65000D02*
X269000D01*
Y70000D01*
X266600D01*
G01Y72000D02*
X269000D01*
Y77000D01*
X266600D01*
G01Y79000D02*
X269000D01*
Y84000D01*
X266600D01*
G01X316000Y174500D02*
G02Y179500I2821J2500D01*
G01D02*
X327000D01*
G01Y174500D02*
X316000D01*
G01X327100D02*
G03Y179500I-2887J2500D01*
G01X340400Y227000D02*
G03Y222000I2887J-2500D01*
G01X341400Y149000D02*
G03Y144000I2887J-2500D01*
G01X352500D02*
X341500D01*
G01Y149000D02*
X352500D01*
G01X340500Y227000D02*
X351500D01*
G01Y222000D02*
X340500D01*
G01X352500Y149000D02*
G02Y144000I-2821J-2500D01*
G01X354400Y149000D02*
G03Y144000I2887J-2500D01*
G01X348000Y206400D02*
G03X353000I2500J2887D01*
G01Y217500D02*
Y206500D01*
G01X348000D02*
Y217500D01*
G01D02*
G02X353000I2500J-2821D01*
G01X364500Y222000D02*
X353500D01*
G01Y227000D02*
X364500D01*
G01X353500Y222000D02*
G02Y227000I2821J2500D01*
G01X351500D02*
G02Y222000I-2821J-2500D01*
G01X365500Y144000D02*
X354500D01*
G01Y149000D02*
X365500D01*
G01X354000Y208400D02*
Y206000D01*
X359000D01*
Y208400D01*
G01Y206000D02*
Y217000D01*
X354000D01*
Y206000D01*
G01X365000D02*
G02X360000I-2500J2821D01*
G01D02*
Y217000D01*
G01X365000Y217100D02*
G03X360000I-2500J-2887D01*
G01X365500Y149000D02*
G02Y144000I-2821J-2500D01*
G01X366000Y217000D02*
Y206000D01*
X371000D01*
Y217000D01*
G01X365000D02*
Y206000D01*
G01X371000Y214600D02*
Y217000D01*
X366000D01*
Y214600D01*
G01X364600Y222000D02*
G03Y227000I-2887J2500D01*
G01X376000Y172400D02*
G03X381000I2500J2887D01*
G01X376000Y172500D02*
Y183500D01*
G01D02*
G02X381000I2500J-2821D01*
G01D02*
Y172500D01*
G01X393500Y168000D02*
Y179000D01*
G01Y167900D02*
G03X398500I2500J2887D01*
G01X393500Y179000D02*
G02X398500I2500J-2821D01*
G01X393500Y181000D02*
Y192000D01*
G01X398500Y181000D02*
G02X393500I-2500J2821D01*
G01X398500Y192100D02*
G03X393500I-2500J-2887D01*
G01X398500Y179000D02*
Y168000D01*
G01Y192000D02*
Y181000D01*
G54D13*
G01X80000Y9000D02*
Y86756D01*
X131181D01*
Y-18559D01*
X80000D01*
Y9000D01*
G01Y1126D02*
X131181D01*
G01X123307Y-2811D02*
Y-14622D01*
X115433D01*
Y-6748D01*
X107559D01*
Y-14622D01*
X99685D01*
Y-6748D01*
X91811D01*
Y-14622D01*
X83937D01*
G54D14*
G01X22000Y208650D02*
Y152350D01*
X-75638D01*
Y208650D01*
X22000D01*
G01X-71583Y156130D02*
Y165972D01*
X-61740D01*
Y175815D01*
X-71583D01*
Y185658D01*
X-61740D01*
Y195500D01*
X-71583D01*
Y205343D01*
X-42055D01*
G01X-51898D02*
Y165972D01*
G01X21724Y201012D02*
X1252D01*
Y160067D01*
X21724D01*
G01X212000Y228500D02*
X247000D01*
Y74500D01*
X212000D01*
Y228500D01*
G01X345000Y228000D02*
X360500D01*
Y237000D01*
X344500D01*
Y228000D01*
X345000D01*
G01X400595Y191311D02*
X399413D01*
Y167689D01*
X413587D01*
Y191311D01*
X400595D01*
G01X402000Y180500D02*
Y178500D01*
X411000D01*
Y180500D01*
X402000D01*
G01X403500Y177000D02*
X409500D01*
G01X406500Y176000D02*
Y177000D01*
G01X403500Y182000D02*
X409500D01*
G01X406500Y183000D02*
Y182000D01*
M02*
