G04 ================== begin FILE IDENTIFICATION RECORD ==================*
G04 Layout Name:  H:/github/MBEDBoard/F071_HCHO_V10/PCB/F071_HCHO_V10.brd*
G04 Film Name:    Drill_Legend*
G04 File Format:  Gerber RS274X*
G04 File Origin:  Cadence Allegro 17.2-S067*
G04 Origin Date:  Wed Mar 10 15:23:28 2021*
G04 *
G04 Layer:  MANUFACTURING/NCLEGEND-1-2*
G04 Layer:  MANUFACTURING/NCDRILL_LEGEND*
G04 Layer:  MANUFACTURING/NCDRILL_FIGURE*
G04 Layer:  BOARD GEOMETRY/DIMENSION*
G04 *
G04 Offset:    (0.0000 0.0000)*
G04 Mirror:    No*
G04 Mode:      Positive*
G04 Rotation:  0*
G04 FullContactRelief:  No*
G04 UndefLineWidth:     0.1524*
G04 ================== end FILE IDENTIFICATION RECORD ====================*
%FSLAX55Y55*MOMM*%
%IR0*IPPOS*OFA0.00000B0.00000*MIA0B0*SFA1.00000B1.00000*%
%AMMACRO10*
1,1,.1524,.683452,-1.65*
20,1,.1524,.683452,-1.65,-.683452,-1.65,0.0*
1,1,.1524,-.683452,-1.65*
20,1,.1524,-.683452,-1.65,-1.65,-.683452,0.0*
1,1,.1524,-1.65,-.683452*
20,1,.1524,-1.65,-.683452,-1.65,.683452,0.0*
1,1,.1524,-1.65,.683452*
20,1,.1524,-1.65,.683452,-.683452,1.65,0.0*
1,1,.1524,-.683452,1.65*
20,1,.1524,-.683452,1.65,.683452,1.65,0.0*
1,1,.1524,.683452,1.65*
20,1,.1524,.683452,1.65,1.65,.683452,0.0*
1,1,.1524,1.65,.683452*
20,1,.1524,1.65,.683452,1.65,-.683452,0.0*
1,1,.1524,1.65,-.683452*
20,1,.1524,1.65,-.683452,.683452,-1.65,0.0*
1,1,.1524,.683452,-1.65*
%
%ADD10MACRO10*%
%AMMACRO13*
1,1,.1524,-.3,.3*
20,1,.1524,-.3,.3,.3,.3,0.0*
1,1,.1524,.3,.3*
20,1,.1524,.3,.3,.352094,.295442,0.0*
1,1,.1524,.352094,.295442*
20,1,.1524,.352094,.295442,.402606,.281908,0.0*
1,1,.1524,.402606,.281908*
20,1,.1524,.402606,.281908,.45,.259808,0.0*
1,1,.1524,.45,.259808*
20,1,.1524,.45,.259808,.492836,.229813,0.0*
1,1,.1524,.492836,.229813*
20,1,.1524,.492836,.229813,.529813,.192836,0.0*
1,1,.1524,.529813,.192836*
20,1,.1524,.529813,.192836,.559808,.15,0.0*
1,1,.1524,.559808,.15*
20,1,.1524,.559808,.15,.581908,.102606,0.0*
1,1,.1524,.581908,.102606*
20,1,.1524,.581908,.102606,.595442,.052094,0.0*
1,1,.1524,.595442,.052094*
20,1,.1524,.595442,.052094,.6,0.0,0.0*
1,1,.1524,.6,0.0*
20,1,.1524,.6,0.0,.595442,-.052094,0.0*
1,1,.1524,.595442,-.052094*
20,1,.1524,.595442,-.052094,.581908,-.102606,0.0*
1,1,.1524,.581908,-.102606*
20,1,.1524,.581908,-.102606,.559808,-.15,0.0*
1,1,.1524,.559808,-.15*
20,1,.1524,.559808,-.15,.529813,-.192836,0.0*
1,1,.1524,.529813,-.192836*
20,1,.1524,.529813,-.192836,.492836,-.229813,0.0*
1,1,.1524,.492836,-.229813*
20,1,.1524,.492836,-.229813,.45,-.259808,0.0*
1,1,.1524,.45,-.259808*
20,1,.1524,.45,-.259808,.402606,-.281908,0.0*
1,1,.1524,.402606,-.281908*
20,1,.1524,.402606,-.281908,.352094,-.295442,0.0*
1,1,.1524,.352094,-.295442*
20,1,.1524,.352094,-.295442,.3,-.3,0.0*
1,1,.1524,.3,-.3*
20,1,.1524,.3,-.3,-.3,-.3,0.0*
1,1,.1524,-.3,-.3*
20,1,.1524,-.3,-.3,-.352094,-.295442,0.0*
1,1,.1524,-.352094,-.295442*
20,1,.1524,-.352094,-.295442,-.402606,-.281908,0.0*
1,1,.1524,-.402606,-.281908*
20,1,.1524,-.402606,-.281908,-.45,-.259808,0.0*
1,1,.1524,-.45,-.259808*
20,1,.1524,-.45,-.259808,-.492836,-.229813,0.0*
1,1,.1524,-.492836,-.229813*
20,1,.1524,-.492836,-.229813,-.529813,-.192836,0.0*
1,1,.1524,-.529813,-.192836*
20,1,.1524,-.529813,-.192836,-.559808,-.15,0.0*
1,1,.1524,-.559808,-.15*
20,1,.1524,-.559808,-.15,-.581908,-.102606,0.0*
1,1,.1524,-.581908,-.102606*
20,1,.1524,-.581908,-.102606,-.595442,-.052094,0.0*
1,1,.1524,-.595442,-.052094*
20,1,.1524,-.595442,-.052094,-.6,0.0,0.0*
1,1,.1524,-.6,0.0*
20,1,.1524,-.6,0.0,-.595442,.052094,0.0*
1,1,.1524,-.595442,.052094*
20,1,.1524,-.595442,.052094,-.581908,.102606,0.0*
1,1,.1524,-.581908,.102606*
20,1,.1524,-.581908,.102606,-.559808,.15,0.0*
1,1,.1524,-.559808,.15*
20,1,.1524,-.559808,.15,-.529813,.192836,0.0*
1,1,.1524,-.529813,.192836*
20,1,.1524,-.529813,.192836,-.492836,.229813,0.0*
1,1,.1524,-.492836,.229813*
20,1,.1524,-.492836,.229813,-.45,.259808,0.0*
1,1,.1524,-.45,.259808*
20,1,.1524,-.45,.259808,-.402606,.281908,0.0*
1,1,.1524,-.402606,.281908*
20,1,.1524,-.402606,.281908,-.352094,.295442,0.0*
1,1,.1524,-.352094,.295442*
20,1,.1524,-.352094,.295442,-.3,.3,0.0*
1,1,.1524,-.3,.3*
1,1,.1524,-.15,-.15*
20,1,.1524,-.15,-.15,-.19,-.145,0.0*
1,1,.1524,-.19,-.145*
20,1,.1524,-.19,-.145,-.225,-.125,0.0*
1,1,.1524,-.225,-.125*
20,1,.1524,-.225,-.125,-.255,-.095,0.0*
1,1,.1524,-.255,-.095*
20,1,.1524,-.255,-.095,-.275,-.06,0.0*
1,1,.1524,-.275,-.06*
20,1,.1524,-.275,-.06,-.285,-.02,0.0*
1,1,.1524,-.285,-.02*
20,1,.1524,-.285,-.02,-.285,.02,0.0*
1,1,.1524,-.285,.02*
20,1,.1524,-.285,.02,-.275,.06,0.0*
1,1,.1524,-.275,.06*
20,1,.1524,-.275,.06,-.255,.095,0.0*
1,1,.1524,-.255,.095*
20,1,.1524,-.255,.095,-.225,.125,0.0*
1,1,.1524,-.225,.125*
20,1,.1524,-.225,.125,-.19,.145,0.0*
1,1,.1524,-.19,.145*
20,1,.1524,-.19,.145,-.15,.15,0.0*
1,1,.1524,-.15,.15*
20,1,.1524,-.15,.15,-.11,.145,0.0*
1,1,.1524,-.11,.145*
20,1,.1524,-.11,.145,-.075,.125,0.0*
1,1,.1524,-.075,.125*
20,1,.1524,-.075,.125,-.045,.095,0.0*
1,1,.1524,-.045,.095*
20,1,.1524,-.045,.095,-.025,.06,0.0*
1,1,.1524,-.025,.06*
20,1,.1524,-.025,.06,-.015,.02,0.0*
1,1,.1524,-.015,.02*
20,1,.1524,-.015,.02,-.015,-.02,0.0*
1,1,.1524,-.015,-.02*
20,1,.1524,-.015,-.02,-.025,-.06,0.0*
1,1,.1524,-.025,-.06*
20,1,.1524,-.025,-.06,-.045,-.095,0.0*
1,1,.1524,-.045,-.095*
20,1,.1524,-.045,-.095,-.075,-.125,0.0*
1,1,.1524,-.075,-.125*
20,1,.1524,-.075,-.125,-.11,-.145,0.0*
1,1,.1524,-.11,-.145*
20,1,.1524,-.11,-.145,-.15,-.15,0.0*
1,1,.1524,-.15,-.15*
1,1,.1524,.0251,-.15*
20,1,.1524,.0251,-.15,.1501,.15,0.0*
1,1,.1524,.1501,.15*
20,1,.1524,.1501,.15,.2751,-.15,0.0*
1,1,.1524,.2751,-.15*
1,1,.1524,.2301,-.045*
20,1,.1524,.2301,-.045,.0701,-.045,0.0*
1,1,.1524,.0701,-.045*
%
%ADD13MACRO13*%
%AMMACRO18*
1,1,.1524,.4,.4*
20,1,.1524,.4,.4,.4,-.4,0.0*
1,1,.1524,.4,-.4*
20,1,.1524,.4,-.4,-.4,-.4,0.0*
1,1,.1524,-.4,-.4*
20,1,.1524,-.4,-.4,-.4,.4,0.0*
1,1,.1524,-.4,.4*
20,1,.1524,-.4,.4,.4,.4,0.0*
1,1,.1524,.4,.4*
%
%ADD18MACRO18*%
%AMMACRO16*
1,1,.1524,-.55,.3*
20,1,.1524,-.55,.3,.55,.3,0.0*
1,1,.1524,.55,.3*
20,1,.1524,.55,.3,.602094,.295442,0.0*
1,1,.1524,.602094,.295442*
20,1,.1524,.602094,.295442,.652606,.281908,0.0*
1,1,.1524,.652606,.281908*
20,1,.1524,.652606,.281908,.7,.259808,0.0*
1,1,.1524,.7,.259808*
20,1,.1524,.7,.259808,.742836,.229813,0.0*
1,1,.1524,.742836,.229813*
20,1,.1524,.742836,.229813,.779813,.192836,0.0*
1,1,.1524,.779813,.192836*
20,1,.1524,.779813,.192836,.809808,.15,0.0*
1,1,.1524,.809808,.15*
20,1,.1524,.809808,.15,.831908,.102606,0.0*
1,1,.1524,.831908,.102606*
20,1,.1524,.831908,.102606,.845442,.052094,0.0*
1,1,.1524,.845442,.052094*
20,1,.1524,.845442,.052094,.85,0.0,0.0*
1,1,.1524,.85,0.0*
20,1,.1524,.85,0.0,.845442,-.052094,0.0*
1,1,.1524,.845442,-.052094*
20,1,.1524,.845442,-.052094,.831908,-.102606,0.0*
1,1,.1524,.831908,-.102606*
20,1,.1524,.831908,-.102606,.809808,-.15,0.0*
1,1,.1524,.809808,-.15*
20,1,.1524,.809808,-.15,.779813,-.192836,0.0*
1,1,.1524,.779813,-.192836*
20,1,.1524,.779813,-.192836,.742836,-.229813,0.0*
1,1,.1524,.742836,-.229813*
20,1,.1524,.742836,-.229813,.7,-.259808,0.0*
1,1,.1524,.7,-.259808*
20,1,.1524,.7,-.259808,.652606,-.281908,0.0*
1,1,.1524,.652606,-.281908*
20,1,.1524,.652606,-.281908,.602094,-.295442,0.0*
1,1,.1524,.602094,-.295442*
20,1,.1524,.602094,-.295442,.55,-.3,0.0*
1,1,.1524,.55,-.3*
20,1,.1524,.55,-.3,-.55,-.3,0.0*
1,1,.1524,-.55,-.3*
20,1,.1524,-.55,-.3,-.602094,-.295442,0.0*
1,1,.1524,-.602094,-.295442*
20,1,.1524,-.602094,-.295442,-.652606,-.281908,0.0*
1,1,.1524,-.652606,-.281908*
20,1,.1524,-.652606,-.281908,-.7,-.259808,0.0*
1,1,.1524,-.7,-.259808*
20,1,.1524,-.7,-.259808,-.742836,-.229813,0.0*
1,1,.1524,-.742836,-.229813*
20,1,.1524,-.742836,-.229813,-.779813,-.192836,0.0*
1,1,.1524,-.779813,-.192836*
20,1,.1524,-.779813,-.192836,-.809808,-.15,0.0*
1,1,.1524,-.809808,-.15*
20,1,.1524,-.809808,-.15,-.831908,-.102606,0.0*
1,1,.1524,-.831908,-.102606*
20,1,.1524,-.831908,-.102606,-.845442,-.052094,0.0*
1,1,.1524,-.845442,-.052094*
20,1,.1524,-.845442,-.052094,-.85,0.0,0.0*
1,1,.1524,-.85,0.0*
20,1,.1524,-.85,0.0,-.845442,.052094,0.0*
1,1,.1524,-.845442,.052094*
20,1,.1524,-.845442,.052094,-.831908,.102606,0.0*
1,1,.1524,-.831908,.102606*
20,1,.1524,-.831908,.102606,-.809808,.15,0.0*
1,1,.1524,-.809808,.15*
20,1,.1524,-.809808,.15,-.779813,.192836,0.0*
1,1,.1524,-.779813,.192836*
20,1,.1524,-.779813,.192836,-.742836,.229813,0.0*
1,1,.1524,-.742836,.229813*
20,1,.1524,-.742836,.229813,-.7,.259808,0.0*
1,1,.1524,-.7,.259808*
20,1,.1524,-.7,.259808,-.652606,.281908,0.0*
1,1,.1524,-.652606,.281908*
20,1,.1524,-.652606,.281908,-.602094,.295442,0.0*
1,1,.1524,-.602094,.295442*
20,1,.1524,-.602094,.295442,-.55,.3,0.0*
1,1,.1524,-.55,.3*
1,1,.1524,-.15,-.15*
20,1,.1524,-.15,-.15,-.19,-.145,0.0*
1,1,.1524,-.19,-.145*
20,1,.1524,-.19,-.145,-.225,-.125,0.0*
1,1,.1524,-.225,-.125*
20,1,.1524,-.225,-.125,-.255,-.095,0.0*
1,1,.1524,-.255,-.095*
20,1,.1524,-.255,-.095,-.275,-.06,0.0*
1,1,.1524,-.275,-.06*
20,1,.1524,-.275,-.06,-.285,-.02,0.0*
1,1,.1524,-.285,-.02*
20,1,.1524,-.285,-.02,-.285,.02,0.0*
1,1,.1524,-.285,.02*
20,1,.1524,-.285,.02,-.275,.06,0.0*
1,1,.1524,-.275,.06*
20,1,.1524,-.275,.06,-.255,.095,0.0*
1,1,.1524,-.255,.095*
20,1,.1524,-.255,.095,-.225,.125,0.0*
1,1,.1524,-.225,.125*
20,1,.1524,-.225,.125,-.19,.145,0.0*
1,1,.1524,-.19,.145*
20,1,.1524,-.19,.145,-.15,.15,0.0*
1,1,.1524,-.15,.15*
20,1,.1524,-.15,.15,-.11,.145,0.0*
1,1,.1524,-.11,.145*
20,1,.1524,-.11,.145,-.075,.125,0.0*
1,1,.1524,-.075,.125*
20,1,.1524,-.075,.125,-.045,.095,0.0*
1,1,.1524,-.045,.095*
20,1,.1524,-.045,.095,-.025,.06,0.0*
1,1,.1524,-.025,.06*
20,1,.1524,-.025,.06,-.015,.02,0.0*
1,1,.1524,-.015,.02*
20,1,.1524,-.015,.02,-.015,-.02,0.0*
1,1,.1524,-.015,-.02*
20,1,.1524,-.015,-.02,-.025,-.06,0.0*
1,1,.1524,-.025,-.06*
20,1,.1524,-.025,-.06,-.045,-.095,0.0*
1,1,.1524,-.045,-.095*
20,1,.1524,-.045,-.095,-.075,-.125,0.0*
1,1,.1524,-.075,-.125*
20,1,.1524,-.075,-.125,-.11,-.145,0.0*
1,1,.1524,-.11,-.145*
20,1,.1524,-.11,-.145,-.15,-.15,0.0*
1,1,.1524,-.15,-.15*
1,1,.1524,.1901,.01*
20,1,.1524,.1901,.01,.2101,.025,0.0*
1,1,.1524,.2101,.025*
20,1,.1524,.2101,.025,.2251,.05,0.0*
1,1,.1524,.2251,.05*
20,1,.1524,.2251,.05,.2351,.085,0.0*
1,1,.1524,.2351,.085*
20,1,.1524,.2351,.085,.2251,.115,0.0*
1,1,.1524,.2251,.115*
20,1,.1524,.2251,.115,.2051,.135,0.0*
1,1,.1524,.2051,.135*
20,1,.1524,.2051,.135,.1701,.15,0.0*
1,1,.1524,.1701,.15*
20,1,.1524,.1701,.15,.0351,.15,0.0*
1,1,.1524,.0351,.15*
20,1,.1524,.0351,.15,.0351,-.15,0.0*
1,1,.1524,.0351,-.15*
20,1,.1524,.0351,-.15,.2001,-.15,0.0*
1,1,.1524,.2001,-.15*
20,1,.1524,.2001,-.15,.2351,-.13,0.0*
1,1,.1524,.2351,-.13*
20,1,.1524,.2351,-.13,.2551,-.1,0.0*
1,1,.1524,.2551,-.1*
20,1,.1524,.2551,-.1,.2651,-.065,0.0*
1,1,.1524,.2651,-.065*
20,1,.1524,.2651,-.065,.2551,-.03,0.0*
1,1,.1524,.2551,-.03*
20,1,.1524,.2551,-.03,.2251,0.0,0.0*
1,1,.1524,.2251,0.0*
20,1,.1524,.2251,0.0,.1901,.01,0.0*
1,1,.1524,.1901,.01*
20,1,.1524,.1901,.01,.0351,.01,0.0*
1,1,.1524,.0351,.01*
%
%ADD16MACRO16*%
%AMMACRO14*
1,1,.1524,.127,0.0*
20,1,.1524,.127,0.0,-.127,0.0,0.0*
1,1,.1524,-.127,0.0*
1,1,.1524,0.0,.127*
20,1,.1524,0.0,.127,0.0,-.127,0.0*
1,1,.1524,0.0,-.127*
%
%ADD14MACRO14*%
%AMMACRO17*
1,1,.1524,.5,0.0*
20,1,.1524,.5,0.0,.25,.433013,0.0*
1,1,.1524,.25,.433013*
20,1,.1524,.25,.433013,-.25,.433013,0.0*
1,1,.1524,-.25,.433013*
20,1,.1524,-.25,.433013,-.5,0.0,0.0*
1,1,.1524,-.5,0.0*
20,1,.1524,-.5,0.0,-.25,-.433013,0.0*
1,1,.1524,-.25,-.433013*
20,1,.1524,-.25,-.433013,.25,-.433013,0.0*
1,1,.1524,.25,-.433013*
20,1,.1524,.25,-.433013,.5,0.0,0.0*
1,1,.1524,.5,0.0*
%
%ADD17MACRO17*%
%AMMACRO15*
1,1,.1524,0.0,.55*
20,1,.1524,0.0,.55,-.476314,.275,0.0*
1,1,.1524,-.476314,.275*
20,1,.1524,-.476314,.275,-.476314,-.275,0.0*
1,1,.1524,-.476314,-.275*
20,1,.1524,-.476314,-.275,0.0,-.55,0.0*
1,1,.1524,0.0,-.55*
20,1,.1524,0.0,-.55,.476314,-.275,0.0*
1,1,.1524,.476314,-.275*
20,1,.1524,.476314,-.275,.476314,.275,0.0*
1,1,.1524,.476314,.275*
20,1,.1524,.476314,.275,0.0,.55,0.0*
1,1,.1524,0.0,.55*
%
%ADD15MACRO15*%
%AMMACRO11*
1,1,.1524,-.5,-1.*
20,1,.1524,-.5,-1.,-.5,1.,0.0*
1,1,.1524,-.5,1.*
20,1,.1524,-.5,1.,-.492404,1.086824,0.0*
1,1,.1524,-.492404,1.086824*
20,1,.1524,-.492404,1.086824,-.469846,1.17101,0.0*
1,1,.1524,-.469846,1.17101*
20,1,.1524,-.469846,1.17101,-.433013,1.25,0.0*
1,1,.1524,-.433013,1.25*
20,1,.1524,-.433013,1.25,-.383022,1.321394,0.0*
1,1,.1524,-.383022,1.321394*
20,1,.1524,-.383022,1.321394,-.321394,1.383022,0.0*
1,1,.1524,-.321394,1.383022*
20,1,.1524,-.321394,1.383022,-.25,1.433013,0.0*
1,1,.1524,-.25,1.433013*
20,1,.1524,-.25,1.433013,-.17101,1.469846,0.0*
1,1,.1524,-.17101,1.469846*
20,1,.1524,-.17101,1.469846,-.086824,1.492404,0.0*
1,1,.1524,-.086824,1.492404*
20,1,.1524,-.086824,1.492404,0.0,1.5,0.0*
1,1,.1524,0.0,1.5*
20,1,.1524,0.0,1.5,.086824,1.492404,0.0*
1,1,.1524,.086824,1.492404*
20,1,.1524,.086824,1.492404,.17101,1.469846,0.0*
1,1,.1524,.17101,1.469846*
20,1,.1524,.17101,1.469846,.25,1.433013,0.0*
1,1,.1524,.25,1.433013*
20,1,.1524,.25,1.433013,.321394,1.383022,0.0*
1,1,.1524,.321394,1.383022*
20,1,.1524,.321394,1.383022,.383022,1.321394,0.0*
1,1,.1524,.383022,1.321394*
20,1,.1524,.383022,1.321394,.433013,1.25,0.0*
1,1,.1524,.433013,1.25*
20,1,.1524,.433013,1.25,.469846,1.17101,0.0*
1,1,.1524,.469846,1.17101*
20,1,.1524,.469846,1.17101,.492404,1.086824,0.0*
1,1,.1524,.492404,1.086824*
20,1,.1524,.492404,1.086824,.5,1.,0.0*
1,1,.1524,.5,1.*
20,1,.1524,.5,1.,.5,-1.,0.0*
1,1,.1524,.5,-1.*
20,1,.1524,.5,-1.,.492404,-1.086824,0.0*
1,1,.1524,.492404,-1.086824*
20,1,.1524,.492404,-1.086824,.469846,-1.17101,0.0*
1,1,.1524,.469846,-1.17101*
20,1,.1524,.469846,-1.17101,.433013,-1.25,0.0*
1,1,.1524,.433013,-1.25*
20,1,.1524,.433013,-1.25,.383022,-1.321394,0.0*
1,1,.1524,.383022,-1.321394*
20,1,.1524,.383022,-1.321394,.321394,-1.383022,0.0*
1,1,.1524,.321394,-1.383022*
20,1,.1524,.321394,-1.383022,.25,-1.433013,0.0*
1,1,.1524,.25,-1.433013*
20,1,.1524,.25,-1.433013,.17101,-1.469846,0.0*
1,1,.1524,.17101,-1.469846*
20,1,.1524,.17101,-1.469846,.086824,-1.492404,0.0*
1,1,.1524,.086824,-1.492404*
20,1,.1524,.086824,-1.492404,0.0,-1.5,0.0*
1,1,.1524,0.0,-1.5*
20,1,.1524,0.0,-1.5,-.086824,-1.492404,0.0*
1,1,.1524,-.086824,-1.492404*
20,1,.1524,-.086824,-1.492404,-.17101,-1.469846,0.0*
1,1,.1524,-.17101,-1.469846*
20,1,.1524,-.17101,-1.469846,-.25,-1.433013,0.0*
1,1,.1524,-.25,-1.433013*
20,1,.1524,-.25,-1.433013,-.321394,-1.383022,0.0*
1,1,.1524,-.321394,-1.383022*
20,1,.1524,-.321394,-1.383022,-.383022,-1.321394,0.0*
1,1,.1524,-.383022,-1.321394*
20,1,.1524,-.383022,-1.321394,-.433013,-1.25,0.0*
1,1,.1524,-.433013,-1.25*
20,1,.1524,-.433013,-1.25,-.469846,-1.17101,0.0*
1,1,.1524,-.469846,-1.17101*
20,1,.1524,-.469846,-1.17101,-.492404,-1.086824,0.0*
1,1,.1524,-.492404,-1.086824*
20,1,.1524,-.492404,-1.086824,-.5,-1.,0.0*
1,1,.1524,-.5,-1.*
1,1,.1524,-.25,-.25*
20,1,.1524,-.25,-.25,-.3167,-.2417,0.0*
1,1,.1524,-.3167,-.2417*
20,1,.1524,-.3167,-.2417,-.375,-.2083,0.0*
1,1,.1524,-.375,-.2083*
20,1,.1524,-.375,-.2083,-.425,-.1583,0.0*
1,1,.1524,-.425,-.1583*
20,1,.1524,-.425,-.1583,-.4583,-.1,0.0*
1,1,.1524,-.4583,-.1*
20,1,.1524,-.4583,-.1,-.475,-.0333,0.0*
1,1,.1524,-.475,-.0333*
20,1,.1524,-.475,-.0333,-.475,.0333,0.0*
1,1,.1524,-.475,.0333*
20,1,.1524,-.475,.0333,-.4583,.1,0.0*
1,1,.1524,-.4583,.1*
20,1,.1524,-.4583,.1,-.425,.1583,0.0*
1,1,.1524,-.425,.1583*
20,1,.1524,-.425,.1583,-.375,.2083,0.0*
1,1,.1524,-.375,.2083*
20,1,.1524,-.375,.2083,-.3167,.2417,0.0*
1,1,.1524,-.3167,.2417*
20,1,.1524,-.3167,.2417,-.25,.25,0.0*
1,1,.1524,-.25,.25*
20,1,.1524,-.25,.25,-.1833,.2417,0.0*
1,1,.1524,-.1833,.2417*
20,1,.1524,-.1833,.2417,-.125,.2083,0.0*
1,1,.1524,-.125,.2083*
20,1,.1524,-.125,.2083,-.075,.1583,0.0*
1,1,.1524,-.075,.1583*
20,1,.1524,-.075,.1583,-.0417,.1,0.0*
1,1,.1524,-.0417,.1*
20,1,.1524,-.0417,.1,-.025,.0333,0.0*
1,1,.1524,-.025,.0333*
20,1,.1524,-.025,.0333,-.025,-.0333,0.0*
1,1,.1524,-.025,-.0333*
20,1,.1524,-.025,-.0333,-.0417,-.1,0.0*
1,1,.1524,-.0417,-.1*
20,1,.1524,-.0417,-.1,-.075,-.1583,0.0*
1,1,.1524,-.075,-.1583*
20,1,.1524,-.075,-.1583,-.125,-.2083,0.0*
1,1,.1524,-.125,-.2083*
20,1,.1524,-.125,-.2083,-.1833,-.2417,0.0*
1,1,.1524,-.1833,-.2417*
20,1,.1524,-.1833,-.2417,-.25,-.25,0.0*
1,1,.1524,-.25,-.25*
1,1,.1524,.4334,.2083*
20,1,.1524,.4334,.2083,.3834,.2333,0.0*
1,1,.1524,.3834,.2333*
20,1,.1524,.3834,.2333,.3251,.25,0.0*
1,1,.1524,.3251,.25*
20,1,.1524,.3251,.25,.2584,.25,0.0*
1,1,.1524,.2584,.25*
20,1,.1524,.2584,.25,.1834,.225,0.0*
1,1,.1524,.1834,.225*
20,1,.1524,.1834,.225,.1251,.1833,0.0*
1,1,.1524,.1251,.1833*
20,1,.1524,.1251,.1833,.0834,.1333,0.0*
1,1,.1524,.0834,.1333*
20,1,.1524,.0834,.1333,.0501,.05,0.0*
1,1,.1524,.0501,.05*
20,1,.1524,.0501,.05,.0418,-.025,0.0*
1,1,.1524,.0418,-.025*
20,1,.1524,.0418,-.025,.0584,-.1,0.0*
1,1,.1524,.0584,-.1*
20,1,.1524,.0584,-.1,.0834,-.15,0.0*
1,1,.1524,.0834,-.15*
20,1,.1524,.0834,-.15,.1334,-.2,0.0*
1,1,.1524,.1334,-.2*
20,1,.1524,.1334,-.2,.1918,-.2333,0.0*
1,1,.1524,.1918,-.2333*
20,1,.1524,.1918,-.2333,.2501,-.25,0.0*
1,1,.1524,.2501,-.25*
20,1,.1524,.2501,-.25,.3084,-.25,0.0*
1,1,.1524,.3084,-.25*
20,1,.1524,.3084,-.25,.3668,-.2333,0.0*
1,1,.1524,.3668,-.2333*
20,1,.1524,.3668,-.2333,.4168,-.2083,0.0*
1,1,.1524,.4168,-.2083*
20,1,.1524,.4168,-.2083,.4584,-.175,0.0*
1,1,.1524,.4584,-.175*
%
%ADD11MACRO11*%
%AMMACRO12*
1,1,.1524,-1.,.5*
20,1,.1524,-1.,.5,1.,.5,0.0*
1,1,.1524,1.,.5*
20,1,.1524,1.,.5,1.086824,.492404,0.0*
1,1,.1524,1.086824,.492404*
20,1,.1524,1.086824,.492404,1.17101,.469846,0.0*
1,1,.1524,1.17101,.469846*
20,1,.1524,1.17101,.469846,1.25,.433013,0.0*
1,1,.1524,1.25,.433013*
20,1,.1524,1.25,.433013,1.321394,.383022,0.0*
1,1,.1524,1.321394,.383022*
20,1,.1524,1.321394,.383022,1.383022,.321394,0.0*
1,1,.1524,1.383022,.321394*
20,1,.1524,1.383022,.321394,1.433013,.25,0.0*
1,1,.1524,1.433013,.25*
20,1,.1524,1.433013,.25,1.469846,.17101,0.0*
1,1,.1524,1.469846,.17101*
20,1,.1524,1.469846,.17101,1.492404,.086824,0.0*
1,1,.1524,1.492404,.086824*
20,1,.1524,1.492404,.086824,1.5,0.0,0.0*
1,1,.1524,1.5,0.0*
20,1,.1524,1.5,0.0,1.492404,-.086824,0.0*
1,1,.1524,1.492404,-.086824*
20,1,.1524,1.492404,-.086824,1.469846,-.17101,0.0*
1,1,.1524,1.469846,-.17101*
20,1,.1524,1.469846,-.17101,1.433013,-.25,0.0*
1,1,.1524,1.433013,-.25*
20,1,.1524,1.433013,-.25,1.383022,-.321394,0.0*
1,1,.1524,1.383022,-.321394*
20,1,.1524,1.383022,-.321394,1.321394,-.383022,0.0*
1,1,.1524,1.321394,-.383022*
20,1,.1524,1.321394,-.383022,1.25,-.433013,0.0*
1,1,.1524,1.25,-.433013*
20,1,.1524,1.25,-.433013,1.17101,-.469846,0.0*
1,1,.1524,1.17101,-.469846*
20,1,.1524,1.17101,-.469846,1.086824,-.492404,0.0*
1,1,.1524,1.086824,-.492404*
20,1,.1524,1.086824,-.492404,1.,-.5,0.0*
1,1,.1524,1.,-.5*
20,1,.1524,1.,-.5,-1.,-.5,0.0*
1,1,.1524,-1.,-.5*
20,1,.1524,-1.,-.5,-1.086824,-.492404,0.0*
1,1,.1524,-1.086824,-.492404*
20,1,.1524,-1.086824,-.492404,-1.17101,-.469846,0.0*
1,1,.1524,-1.17101,-.469846*
20,1,.1524,-1.17101,-.469846,-1.25,-.433013,0.0*
1,1,.1524,-1.25,-.433013*
20,1,.1524,-1.25,-.433013,-1.321394,-.383022,0.0*
1,1,.1524,-1.321394,-.383022*
20,1,.1524,-1.321394,-.383022,-1.383022,-.321394,0.0*
1,1,.1524,-1.383022,-.321394*
20,1,.1524,-1.383022,-.321394,-1.433013,-.25,0.0*
1,1,.1524,-1.433013,-.25*
20,1,.1524,-1.433013,-.25,-1.469846,-.17101,0.0*
1,1,.1524,-1.469846,-.17101*
20,1,.1524,-1.469846,-.17101,-1.492404,-.086824,0.0*
1,1,.1524,-1.492404,-.086824*
20,1,.1524,-1.492404,-.086824,-1.5,0.0,0.0*
1,1,.1524,-1.5,0.0*
20,1,.1524,-1.5,0.0,-1.492404,.086824,0.0*
1,1,.1524,-1.492404,.086824*
20,1,.1524,-1.492404,.086824,-1.469846,.17101,0.0*
1,1,.1524,-1.469846,.17101*
20,1,.1524,-1.469846,.17101,-1.433013,.25,0.0*
1,1,.1524,-1.433013,.25*
20,1,.1524,-1.433013,.25,-1.383022,.321394,0.0*
1,1,.1524,-1.383022,.321394*
20,1,.1524,-1.383022,.321394,-1.321394,.383022,0.0*
1,1,.1524,-1.321394,.383022*
20,1,.1524,-1.321394,.383022,-1.25,.433013,0.0*
1,1,.1524,-1.25,.433013*
20,1,.1524,-1.25,.433013,-1.17101,.469846,0.0*
1,1,.1524,-1.17101,.469846*
20,1,.1524,-1.17101,.469846,-1.086824,.492404,0.0*
1,1,.1524,-1.086824,.492404*
20,1,.1524,-1.086824,.492404,-1.,.5,0.0*
1,1,.1524,-1.,.5*
1,1,.1524,-.25,-.25*
20,1,.1524,-.25,-.25,-.3167,-.2417,0.0*
1,1,.1524,-.3167,-.2417*
20,1,.1524,-.3167,-.2417,-.375,-.2083,0.0*
1,1,.1524,-.375,-.2083*
20,1,.1524,-.375,-.2083,-.425,-.1583,0.0*
1,1,.1524,-.425,-.1583*
20,1,.1524,-.425,-.1583,-.4583,-.1,0.0*
1,1,.1524,-.4583,-.1*
20,1,.1524,-.4583,-.1,-.475,-.0333,0.0*
1,1,.1524,-.475,-.0333*
20,1,.1524,-.475,-.0333,-.475,.0333,0.0*
1,1,.1524,-.475,.0333*
20,1,.1524,-.475,.0333,-.4583,.1,0.0*
1,1,.1524,-.4583,.1*
20,1,.1524,-.4583,.1,-.425,.1583,0.0*
1,1,.1524,-.425,.1583*
20,1,.1524,-.425,.1583,-.375,.2083,0.0*
1,1,.1524,-.375,.2083*
20,1,.1524,-.375,.2083,-.3167,.2417,0.0*
1,1,.1524,-.3167,.2417*
20,1,.1524,-.3167,.2417,-.25,.25,0.0*
1,1,.1524,-.25,.25*
20,1,.1524,-.25,.25,-.1833,.2417,0.0*
1,1,.1524,-.1833,.2417*
20,1,.1524,-.1833,.2417,-.125,.2083,0.0*
1,1,.1524,-.125,.2083*
20,1,.1524,-.125,.2083,-.075,.1583,0.0*
1,1,.1524,-.075,.1583*
20,1,.1524,-.075,.1583,-.0417,.1,0.0*
1,1,.1524,-.0417,.1*
20,1,.1524,-.0417,.1,-.025,.0333,0.0*
1,1,.1524,-.025,.0333*
20,1,.1524,-.025,.0333,-.025,-.0333,0.0*
1,1,.1524,-.025,-.0333*
20,1,.1524,-.025,-.0333,-.0417,-.1,0.0*
1,1,.1524,-.0417,-.1*
20,1,.1524,-.0417,-.1,-.075,-.1583,0.0*
1,1,.1524,-.075,-.1583*
20,1,.1524,-.075,-.1583,-.125,-.2083,0.0*
1,1,.1524,-.125,-.2083*
20,1,.1524,-.125,-.2083,-.1833,-.2417,0.0*
1,1,.1524,-.1833,-.2417*
20,1,.1524,-.1833,-.2417,-.25,-.25,0.0*
1,1,.1524,-.25,-.25*
1,1,.1524,.4334,.2083*
20,1,.1524,.4334,.2083,.3834,.2333,0.0*
1,1,.1524,.3834,.2333*
20,1,.1524,.3834,.2333,.3251,.25,0.0*
1,1,.1524,.3251,.25*
20,1,.1524,.3251,.25,.2584,.25,0.0*
1,1,.1524,.2584,.25*
20,1,.1524,.2584,.25,.1834,.225,0.0*
1,1,.1524,.1834,.225*
20,1,.1524,.1834,.225,.1251,.1833,0.0*
1,1,.1524,.1251,.1833*
20,1,.1524,.1251,.1833,.0834,.1333,0.0*
1,1,.1524,.0834,.1333*
20,1,.1524,.0834,.1333,.0501,.05,0.0*
1,1,.1524,.0501,.05*
20,1,.1524,.0501,.05,.0418,-.025,0.0*
1,1,.1524,.0418,-.025*
20,1,.1524,.0418,-.025,.0584,-.1,0.0*
1,1,.1524,.0584,-.1*
20,1,.1524,.0584,-.1,.0834,-.15,0.0*
1,1,.1524,.0834,-.15*
20,1,.1524,.0834,-.15,.1334,-.2,0.0*
1,1,.1524,.1334,-.2*
20,1,.1524,.1334,-.2,.1918,-.2333,0.0*
1,1,.1524,.1918,-.2333*
20,1,.1524,.1918,-.2333,.2501,-.25,0.0*
1,1,.1524,.2501,-.25*
20,1,.1524,.2501,-.25,.3084,-.25,0.0*
1,1,.1524,.3084,-.25*
20,1,.1524,.3084,-.25,.3668,-.2333,0.0*
1,1,.1524,.3668,-.2333*
20,1,.1524,.3668,-.2333,.4168,-.2083,0.0*
1,1,.1524,.4168,-.2083*
20,1,.1524,.4168,-.2083,.4584,-.175,0.0*
1,1,.1524,.4584,-.175*
%
%ADD12MACRO12*%
%ADD19C,.1524*%
G75*
%LPD*%
G75*
G54D10*
X360000Y360000D03*
Y5040000D03*
X8140000Y360000D03*
Y5040000D03*
X10991730Y2982500D03*
G54D11*
X189040Y1310000D03*
X789040D03*
X10991730Y442500D03*
G54D12*
X509040Y1790000D03*
X10991730Y1077500D03*
G54D13*
X218000Y2264080D03*
Y3128080D03*
X10991730Y2347500D03*
G54D14*
X144900Y2501360D03*
Y2901360D03*
X894900Y2351360D03*
X1134900D03*
X894900Y2751360D03*
X1134900D03*
X930000Y4600000D03*
X940000Y5220000D03*
X1550000Y210000D03*
X1540000Y400000D03*
X1360000D03*
Y210000D03*
X1570000Y1850000D03*
X1480000Y2230000D03*
X1400000Y2090000D03*
X1294900Y2451360D03*
Y2851360D03*
X1480000Y2760000D03*
X1400000Y3440000D03*
X1528640Y3584900D03*
X1260000Y4170000D03*
X1270000Y4640000D03*
X1370000Y4920000D03*
X1430000D03*
X1310000D03*
X1730000Y210000D03*
X1940000D03*
Y400000D03*
X1676470Y1001020D03*
Y1401020D03*
X1668640Y1704900D03*
X1730000Y1940000D03*
X1870000Y2090000D03*
X1960000Y2150000D03*
X1800000Y2020000D03*
X1970000Y2910000D03*
Y2760000D03*
Y3003100D03*
X1928640Y3584900D03*
X1670000Y4170000D03*
X1930000D03*
X1670000Y4540000D03*
X1953200Y4403200D03*
X1660000Y4900000D03*
X1960000D03*
X1640000Y5230000D03*
X2290000Y480000D03*
Y570000D03*
Y660000D03*
X2210000D03*
X2280000Y1270000D03*
X2068640Y1704900D03*
X2260000Y1850000D03*
X2023100Y2253100D03*
Y2353100D03*
X2310000Y2280000D03*
Y2580000D03*
Y2430000D03*
X2339200Y4260800D03*
X2650000Y1270000D03*
X2470000D03*
X2650000Y1540000D03*
X2720000Y1460000D03*
X2490000Y1850000D03*
X2570000Y1620000D03*
X2700000Y2250000D03*
X2440000Y2210000D03*
X2524040D03*
X2440000Y2720000D03*
Y2930000D03*
X2640000Y2900000D03*
X2740000Y2810000D03*
X2750000Y3400000D03*
X2660000Y3650000D03*
X2640000Y3970000D03*
X2539500Y5020000D03*
X2380000Y5200000D03*
X3010000Y1050000D03*
X3070000D03*
X3010000Y990000D03*
X3070000D03*
X3010000Y930000D03*
X3070000D03*
X2830000Y1270000D03*
X2800000Y1850000D03*
X2923800Y1823800D03*
X3060000Y2240000D03*
X3070000Y2700000D03*
X2890000Y2810000D03*
X2820000D03*
X2974040D03*
X2820000Y3400000D03*
X2890000D03*
X3043800Y4136200D03*
X3060000Y5005100D03*
X3244030Y246490D03*
X3160000Y1290000D03*
X3400000D03*
X3340000Y1720000D03*
X3460000Y2250000D03*
X3193100Y2703100D03*
X3180000Y2810000D03*
X3470000Y2890000D03*
X3230000Y3300000D03*
X3140000Y3370000D03*
X3230000Y3650000D03*
X3250000Y4220000D03*
X3481180Y5140160D03*
X3644030Y246490D03*
X3730000Y1290000D03*
X3617780Y1702220D03*
X3676200Y1823800D03*
X3610000Y2900000D03*
X3680000Y2970000D03*
Y3130000D03*
X3540000Y3550000D03*
X3850000Y3530000D03*
X3880000Y4230000D03*
X3881180Y5140160D03*
X4044030Y246490D03*
X4030000Y1850000D03*
Y1770000D03*
X4180000Y2340000D03*
X4010000Y2720000D03*
X4260000Y2730000D03*
X4010000Y2800000D03*
Y2960000D03*
Y2880000D03*
X4060000Y3130000D03*
X4130000Y3530000D03*
X4163800Y3656200D03*
X4270000Y4210000D03*
X4153700Y4090000D03*
X3933700Y4093700D03*
X4281180Y5140160D03*
X4444030Y246490D03*
X4343800Y933800D03*
X4510000Y1380000D03*
X4560000Y1800000D03*
X4350000Y1850000D03*
X4290000Y1770000D03*
X4540000Y2290000D03*
X4483700Y4090000D03*
X4844030Y246490D03*
X4980000Y1380000D03*
X4950000Y1780000D03*
X4930000Y2340000D03*
X4820000Y2610000D03*
X4930000Y2500000D03*
Y2580000D03*
Y2420000D03*
X4850000Y2900000D03*
X4750000Y3300000D03*
Y3220000D03*
Y3140000D03*
X4670000Y4220000D03*
X4870000D03*
X4681180Y5140160D03*
X5244030Y246490D03*
X5081180Y5140160D03*
X5644030Y246490D03*
X5500000Y1390000D03*
X5480000Y1700000D03*
Y1860000D03*
Y1923500D03*
Y1980000D03*
X5720000Y1923500D03*
Y1980000D03*
Y1860000D03*
X5490000Y2660000D03*
Y2740000D03*
Y2900000D03*
Y2820000D03*
Y2980000D03*
X5606180Y4179280D03*
X5530000Y3980000D03*
X5606180Y4579280D03*
Y4979280D03*
X5481180Y5140160D03*
X6117410Y1247390D03*
Y1647390D03*
Y2047390D03*
Y2447390D03*
Y2847390D03*
Y3247390D03*
Y3647390D03*
X6006180Y4179280D03*
Y4579280D03*
Y4979280D03*
X6406180Y4179280D03*
Y4579280D03*
Y4979280D03*
X6640000Y530000D03*
X6806180Y4179280D03*
Y4579280D03*
Y4979280D03*
X7104030Y266490D03*
X7102910Y1099560D03*
Y1499560D03*
Y1899560D03*
Y2299560D03*
Y2699560D03*
X7084440Y3692690D03*
Y4092690D03*
Y4492690D03*
X7504030Y266490D03*
X7502910Y1099560D03*
Y1499560D03*
Y1899560D03*
Y2299560D03*
Y2699560D03*
X7484440Y3692690D03*
Y4092690D03*
Y4492690D03*
X7884440Y3692690D03*
Y4092690D03*
Y4492690D03*
X10991730Y5522500D03*
G54D15*
X240000Y3575000D03*
Y3829000D03*
Y4337000D03*
Y4083000D03*
X871100Y3575000D03*
Y3829000D03*
Y4337000D03*
Y4083000D03*
X10991730Y3617500D03*
G54D16*
X636000Y2264080D03*
Y3128080D03*
X10991730Y1712500D03*
G54D17*
X6045000Y110000D03*
X6795000D03*
X10991730Y4252500D03*
G54D18*
X5905000Y2285000D03*
Y2485000D03*
Y2685000D03*
Y2885000D03*
Y3085000D03*
X8175000Y2285000D03*
Y2085000D03*
Y2685000D03*
Y2485000D03*
Y3085000D03*
Y2885000D03*
Y3285000D03*
X10991730Y4887500D03*
G54D19*
G01X-1387400Y2523320D02*
X-1373180Y2507450D01*
X-1356590Y2497920D01*
X-1335250Y2494750D01*
X-1313910Y2501100D01*
X-1297320Y2513800D01*
X-1285470Y2536020D01*
X-1283100Y2561420D01*
X-1287840Y2586820D01*
X-1299690Y2602700D01*
X-1316290Y2615400D01*
X-1332880Y2618570D01*
X-1349470Y2615400D01*
X-1370810Y2602700D01*
X-1363700Y2685250D01*
X-1299690D01*
G01X-1116300Y2494750D02*
Y2685250D01*
X-1204020Y2548730D01*
X-1085480D01*
G01X-777300Y2514420D02*
Y2704920D01*
X-865020Y2568400D01*
X-746480D01*
G01X-660290Y2593790D02*
X-643700Y2616020D01*
X-629470Y2628720D01*
X-610510Y2635070D01*
X-593910Y2628720D01*
X-582060Y2616020D01*
X-572580Y2596970D01*
X-570210Y2574740D01*
X-572580Y2555690D01*
X-582060Y2536640D01*
X-596290Y2520770D01*
X-612880Y2514420D01*
X-631840Y2520770D01*
X-648440Y2539810D01*
X-657920Y2568400D01*
X-660290Y2600140D01*
X-655550Y2641420D01*
X-648440Y2663650D01*
X-636590Y2685870D01*
X-619990Y2701750D01*
X-603400Y2704920D01*
X-586800Y2698570D01*
X-574950Y2682690D01*
G01X-424750Y2508070D02*
X-429490Y2511250D01*
Y2517590D01*
X-424750Y2520770D01*
X-420010Y2517590D01*
Y2511250D01*
X-424750Y2508070D01*
G01X-234250Y2514420D02*
X-217660Y2517590D01*
X-198690Y2527120D01*
X-186840Y2542990D01*
X-182100Y2565220D01*
X-186840Y2587440D01*
X-201060Y2606490D01*
X-222400Y2616020D01*
X-246100D01*
X-260330Y2622370D01*
X-272180Y2638240D01*
X-276920Y2660470D01*
X-269810Y2682690D01*
X-253220Y2698570D01*
X-234250Y2704920D01*
X-215290Y2698570D01*
X-198690Y2682690D01*
X-191580Y2660470D01*
X-196320Y2638240D01*
X-208170Y2622370D01*
X-222400Y2616020D01*
X-246100D01*
X-267440Y2606490D01*
X-281660Y2587440D01*
X-286400Y2565220D01*
X-281660Y2542990D01*
X-269810Y2527120D01*
X-250840Y2517590D01*
X-234250Y2514420D01*
G01X3904750Y-1125250D02*
X3921340Y-1122080D01*
X3940310Y-1112550D01*
X3952160Y-1096680D01*
X3956900Y-1074450D01*
X3952160Y-1052230D01*
X3937940Y-1033180D01*
X3916600Y-1023650D01*
X3892900D01*
X3878670Y-1017300D01*
X3866820Y-1001430D01*
X3862080Y-979200D01*
X3869190Y-956980D01*
X3885780Y-941100D01*
X3904750Y-934750D01*
X3923710Y-941100D01*
X3940310Y-956980D01*
X3947420Y-979200D01*
X3942680Y-1001430D01*
X3930830Y-1017300D01*
X3916600Y-1023650D01*
X3892900D01*
X3871560Y-1033180D01*
X3857340Y-1052230D01*
X3852600Y-1074450D01*
X3857340Y-1096680D01*
X3869190Y-1112550D01*
X3888160Y-1122080D01*
X3904750Y-1125250D01*
G01X4043100Y-1096680D02*
X4057320Y-1112550D01*
X4073910Y-1122080D01*
X4095250Y-1125250D01*
X4116590Y-1118900D01*
X4133180Y-1106200D01*
X4145030Y-1083980D01*
X4147400Y-1058580D01*
X4142660Y-1033180D01*
X4130810Y-1017300D01*
X4114210Y-1004600D01*
X4097620Y-1001430D01*
X4081030Y-1004600D01*
X4059690Y-1017300D01*
X4066800Y-934750D01*
X4130810D01*
G01X3719510Y-595250D02*
X3724250Y-553980D01*
X3731360Y-519050D01*
X3740840Y-487300D01*
X3752700Y-452380D01*
X3771660Y-404750D01*
X3676840D01*
G01X3910010Y-595250D02*
X3914750Y-553980D01*
X3921860Y-519050D01*
X3931340Y-487300D01*
X3943200Y-452380D01*
X3962160Y-404750D01*
X3867340D01*
G01X4105250Y-601600D02*
X4100510Y-598420D01*
Y-592080D01*
X4105250Y-588900D01*
X4109990Y-592080D01*
Y-598420D01*
X4105250Y-601600D01*
G01X4295750Y-595250D02*
X4312340Y-592080D01*
X4331310Y-582550D01*
X4343160Y-566680D01*
X4347900Y-544450D01*
X4343160Y-522230D01*
X4328940Y-503180D01*
X4307600Y-493650D01*
X4283900D01*
X4269670Y-487300D01*
X4257820Y-471430D01*
X4253080Y-449200D01*
X4260190Y-426980D01*
X4276780Y-411100D01*
X4295750Y-404750D01*
X4314710Y-411100D01*
X4331310Y-426980D01*
X4338420Y-449200D01*
X4333680Y-471430D01*
X4321830Y-487300D01*
X4307600Y-493650D01*
X4283900D01*
X4262560Y-503180D01*
X4248340Y-522230D01*
X4243600Y-544450D01*
X4248340Y-566680D01*
X4260190Y-582550D01*
X4279160Y-592080D01*
X4295750Y-595250D01*
G01X10129520Y5998750D02*
Y6316250D01*
X10279140D01*
G01X10224010Y6162800D02*
X10129520D01*
G01X10472050Y6316250D02*
X10566530D01*
G01X10519290D02*
Y5998750D01*
G01X10472050D02*
X10566530D01*
G01X10857870Y6157500D02*
X10936620D01*
Y6062250D01*
X10912990Y6030490D01*
X10885430Y6009330D01*
X10846060Y5998750D01*
X10806690Y6009330D01*
X10779130Y6030490D01*
X10755510Y6062250D01*
X10739760Y6099290D01*
X10731880Y6141620D01*
Y6178670D01*
X10739760Y6210410D01*
X10755510Y6247460D01*
X10779130Y6279210D01*
X10802750Y6300370D01*
X10834250Y6316250D01*
X10861810D01*
X10893300Y6305670D01*
X10916930Y6284500D01*
G01X11062600Y6316250D02*
Y6088710D01*
X11078340Y6041070D01*
X11109840Y6009330D01*
X11149210Y5998750D01*
X11188580Y6009330D01*
X11220080Y6041070D01*
X11235820Y6088710D01*
Y6316250D01*
G01X11385430Y5998750D02*
Y6316250D01*
X11483850D01*
X11515350Y6300370D01*
X11535040Y6279210D01*
X11542910Y6236870D01*
X11535040Y6194540D01*
X11511410Y6168090D01*
X11483850Y6152200D01*
X11385430D01*
G01X11483850D02*
X11542910Y5998750D01*
G01X11857870D02*
X11700390D01*
Y6316250D01*
X11857870D01*
G01X11794880Y6162800D02*
X11700390D01*
G01X12727940Y5998750D02*
Y6316250D01*
X12877560D01*
G01X12822430Y6162800D02*
X12727940D01*
G01X13070470Y6316250D02*
X13164950D01*
G01X13117710D02*
Y5998750D01*
G01X13070470D02*
X13164950D01*
G01X13342120D02*
Y6316250D01*
X13523220Y5998750D01*
Y6316250D01*
G01X13700390D02*
X13794870D01*
G01X13747630D02*
Y5998750D01*
G01X13700390D02*
X13794870D01*
G01X13979910Y6041070D02*
X14011410Y6014620D01*
X14046840Y5998750D01*
X14078340D01*
X14109830Y6014620D01*
X14133460Y6041070D01*
X14145270Y6078130D01*
X14137400Y6115160D01*
X14117710Y6146910D01*
X14082270Y6168090D01*
X14035030Y6178670D01*
X14007470Y6199830D01*
X13995660Y6236870D01*
X14003540Y6273920D01*
X14023220Y6300370D01*
X14050780Y6316250D01*
X14078340D01*
X14105900Y6305670D01*
X14129520Y6279210D01*
G01X14294870Y5998750D02*
Y6316250D01*
G01X14460230D02*
Y5998750D01*
G01Y6157500D02*
X14294870D01*
G01X14771250Y5998750D02*
X14613770D01*
Y6316250D01*
X14771250D01*
G01X14708260Y6162800D02*
X14613770D01*
G01X14920860Y5998750D02*
Y6316250D01*
X14999590D01*
X15031090Y6300370D01*
X15054710Y6279210D01*
X15074400Y6247460D01*
X15090150Y6210410D01*
X15094080Y6157500D01*
X15090150Y6104580D01*
X15074400Y6067540D01*
X15054710Y6035780D01*
X15031090Y6014620D01*
X14999590Y5998750D01*
X14920860D01*
G01X15204320Y5892920D02*
X15440540D01*
G01X15554710Y6041070D02*
X15586210Y6014620D01*
X15621640Y5998750D01*
X15653140D01*
X15684630Y6014620D01*
X15708260Y6041070D01*
X15720070Y6078130D01*
X15712200Y6115160D01*
X15692510Y6146910D01*
X15657070Y6168090D01*
X15609830Y6178670D01*
X15582270Y6199830D01*
X15570460Y6236870D01*
X15578340Y6273920D01*
X15598020Y6300370D01*
X15625580Y6316250D01*
X15653140D01*
X15680700Y6305670D01*
X15704320Y6279210D01*
G01X15905110Y6316250D02*
X15999590D01*
G01X15952350D02*
Y5998750D01*
G01X15905110D02*
X15999590D01*
G01X16192500Y6316250D02*
X16342120D01*
X16192500Y5998750D01*
X16342120D01*
G01X16661010D02*
X16503530D01*
Y6316250D01*
X16661010D01*
G01X16598020Y6162800D02*
X16503530D01*
G01X13412980Y6633750D02*
X13511410Y6951250D01*
X13609840Y6633750D01*
G01X13574400Y6744870D02*
X13448410D01*
G01X13747630Y6951250D02*
Y6633750D01*
X13905110D01*
G01X14062590Y6951250D02*
Y6633750D01*
X14220070D01*
G01X14684640Y6951250D02*
Y6723710D01*
X14700380Y6676070D01*
X14731880Y6644330D01*
X14771250Y6633750D01*
X14810620Y6644330D01*
X14842120Y6676070D01*
X14857860Y6723710D01*
Y6951250D01*
G01X14995660Y6633750D02*
Y6951250D01*
X15176760Y6633750D01*
Y6951250D01*
G01X15353930D02*
X15448410D01*
G01X15401170D02*
Y6633750D01*
G01X15353930D02*
X15448410D01*
G01X15716130Y6951250D02*
Y6633750D01*
G01X15625580Y6951250D02*
X15806680D01*
G01X15948410Y6676070D02*
X15979910Y6649620D01*
X16015340Y6633750D01*
X16046840D01*
X16078330Y6649620D01*
X16101960Y6676070D01*
X16113770Y6713130D01*
X16105900Y6750160D01*
X16086210Y6781910D01*
X16050770Y6803090D01*
X16003530Y6813670D01*
X15975970Y6834830D01*
X15964160Y6871870D01*
X15972040Y6908920D01*
X15991720Y6935370D01*
X16019280Y6951250D01*
X16046840D01*
X16074400Y6940670D01*
X16098020Y6914210D01*
G01X16562580Y6633750D02*
X16661010Y6951250D01*
X16759440Y6633750D01*
G01X16724000Y6744870D02*
X16598010D01*
G01X16897230Y6633750D02*
Y6951250D01*
X16995650D01*
X17027150Y6935370D01*
X17046840Y6914210D01*
X17054710Y6871870D01*
X17046840Y6829540D01*
X17023210Y6803090D01*
X16995650Y6787200D01*
X16897230D01*
G01X16995650D02*
X17054710Y6633750D01*
G01X17369670D02*
X17212190D01*
Y6951250D01*
X17369670D01*
G01X17306680Y6797800D02*
X17212190D01*
G01X17873610Y6951250D02*
X17968090D01*
G01X17920850D02*
Y6633750D01*
G01X17873610D02*
X17968090D01*
G01X18145260D02*
Y6951250D01*
X18326360Y6633750D01*
Y6951250D01*
G01X18763360Y6633750D02*
Y6951250D01*
X18865730Y6686670D01*
X18968100Y6951250D01*
Y6633750D01*
G01X19133450Y6951250D02*
X19227930D01*
G01X19180690D02*
Y6633750D01*
G01X19133450D02*
X19227930D01*
G01X19416910Y6951250D02*
Y6633750D01*
X19574390D01*
G01X19731870Y6951250D02*
Y6633750D01*
X19889350D01*
G01X20078330Y6951250D02*
X20172810D01*
G01X20125570D02*
Y6633750D01*
G01X20078330D02*
X20172810D01*
G01X20338160D02*
Y6951250D01*
X20440530Y6686670D01*
X20542900Y6951250D01*
Y6633750D01*
G01X20834230D02*
X20676750D01*
Y6951250D01*
X20834230D01*
G01X20771240Y6797800D02*
X20676750D01*
G01X21070450Y6951250D02*
Y6633750D01*
G01X20979900Y6951250D02*
X21161000D01*
G01X21464150Y6633750D02*
X21306670D01*
Y6951250D01*
X21464150D01*
G01X21401160Y6797800D02*
X21306670D01*
G01X21621630Y6633750D02*
Y6951250D01*
X21720050D01*
X21751550Y6935370D01*
X21771240Y6914210D01*
X21779110Y6871870D01*
X21771240Y6829540D01*
X21747610Y6803090D01*
X21720050Y6787200D01*
X21621630D01*
G01X21720050D02*
X21779110Y6633750D01*
G01X21932650Y6676070D02*
X21964150Y6649620D01*
X21999580Y6633750D01*
X22031080D01*
X22062570Y6649620D01*
X22086200Y6676070D01*
X22098010Y6713130D01*
X22090140Y6750160D01*
X22070450Y6781910D01*
X22035010Y6803090D01*
X21987770Y6813670D01*
X21960210Y6834830D01*
X21948400Y6871870D01*
X21956280Y6908920D01*
X21975960Y6935370D01*
X22003520Y6951250D01*
X22031080D01*
X22058640Y6940670D01*
X22082260Y6914210D01*
G01X13661020Y347250D02*
X13684630Y310200D01*
X13716130Y289040D01*
X13751570Y283750D01*
X13783070Y289040D01*
X13814560Y315490D01*
X13834240Y347250D01*
X13838180Y379000D01*
X13830310Y416030D01*
X13802750Y442500D01*
X13775190Y453090D01*
X13739750D01*
G01X13775190D02*
X13798810Y468960D01*
X13818500Y495410D01*
X13826370Y527160D01*
X13818500Y558920D01*
X13798810Y585370D01*
X13763380Y601250D01*
X13727950Y595960D01*
X13692510Y574790D01*
G01X14062590Y273170D02*
X14054710Y278460D01*
Y289040D01*
X14062590Y294330D01*
X14070470Y289040D01*
Y278460D01*
X14062590Y273170D01*
G01X14377550Y601250D02*
X14346050Y590670D01*
X14322430Y564210D01*
X14306680Y532460D01*
X14294870Y490120D01*
X14290940Y442500D01*
X14294870Y394870D01*
X14306680Y352540D01*
X14322430Y320780D01*
X14346050Y294330D01*
X14377550Y283750D01*
X14409040Y294330D01*
X14432670Y320780D01*
X14448420Y352540D01*
X14460230Y394870D01*
X14464160Y442500D01*
X14460230Y490120D01*
X14448420Y532460D01*
X14432670Y564210D01*
X14409040Y590670D01*
X14377550Y601250D01*
G01X14633460Y495410D02*
X14751560Y283750D01*
G01Y495410D02*
X14633460Y283750D01*
G01X15007470D02*
Y601250D01*
X14960230Y537750D01*
G01Y283750D02*
X15054710D01*
G01X15322430Y273170D02*
X15314550Y278460D01*
Y289040D01*
X15322430Y294330D01*
X15330310Y289040D01*
Y278460D01*
X15322430Y273170D01*
G01X15637390Y601250D02*
X15605890Y590670D01*
X15582270Y564210D01*
X15566520Y532460D01*
X15554710Y490120D01*
X15550780Y442500D01*
X15554710Y394870D01*
X15566520Y352540D01*
X15582270Y320780D01*
X15605890Y294330D01*
X15637390Y283750D01*
X15668880Y294330D01*
X15692510Y320780D01*
X15708260Y352540D01*
X15720070Y394870D01*
X15724000Y442500D01*
X15720070Y490120D01*
X15708260Y532460D01*
X15692510Y564210D01*
X15668880Y590670D01*
X15637390Y601250D01*
G01X13661020Y982250D02*
X13684630Y945200D01*
X13716130Y924040D01*
X13751570Y918750D01*
X13783070Y924040D01*
X13814560Y950490D01*
X13834240Y982250D01*
X13838180Y1014000D01*
X13830310Y1051030D01*
X13802750Y1077500D01*
X13775190Y1088090D01*
X13739750D01*
G01X13775190D02*
X13798810Y1103960D01*
X13818500Y1130410D01*
X13826370Y1162160D01*
X13818500Y1193920D01*
X13798810Y1220370D01*
X13763380Y1236250D01*
X13727950Y1230960D01*
X13692510Y1209790D01*
G01X14062590Y908170D02*
X14054710Y913460D01*
Y924040D01*
X14062590Y929330D01*
X14070470Y924040D01*
Y913460D01*
X14062590Y908170D01*
G01X14377550Y1236250D02*
X14346050Y1225670D01*
X14322430Y1199210D01*
X14306680Y1167460D01*
X14294870Y1125120D01*
X14290940Y1077500D01*
X14294870Y1029870D01*
X14306680Y987540D01*
X14322430Y955780D01*
X14346050Y929330D01*
X14377550Y918750D01*
X14409040Y929330D01*
X14432670Y955780D01*
X14448420Y987540D01*
X14460230Y1029870D01*
X14464160Y1077500D01*
X14460230Y1125120D01*
X14448420Y1167460D01*
X14432670Y1199210D01*
X14409040Y1225670D01*
X14377550Y1236250D01*
G01X14633460Y1130410D02*
X14751560Y918750D01*
G01Y1130410D02*
X14633460Y918750D01*
G01X15007470D02*
Y1236250D01*
X14960230Y1172750D01*
G01Y918750D02*
X15054710D01*
G01X15322430Y908170D02*
X15314550Y913460D01*
Y924040D01*
X15322430Y929330D01*
X15330310Y924040D01*
Y913460D01*
X15322430Y908170D01*
G01X15637390Y1236250D02*
X15605890Y1225670D01*
X15582270Y1199210D01*
X15566520Y1167460D01*
X15554710Y1125120D01*
X15550780Y1077500D01*
X15554710Y1029870D01*
X15566520Y987540D01*
X15582270Y955780D01*
X15605890Y929330D01*
X15637390Y918750D01*
X15668880Y929330D01*
X15692510Y955780D01*
X15708260Y987540D01*
X15720070Y1029870D01*
X15724000Y1077500D01*
X15720070Y1125120D01*
X15708260Y1167460D01*
X15692510Y1199210D01*
X15668880Y1225670D01*
X15637390Y1236250D01*
G01X13747630Y1553750D02*
Y1871250D01*
X13700390Y1807750D01*
G01Y1553750D02*
X13794870D01*
G01X14062590Y1543170D02*
X14054710Y1548460D01*
Y1559040D01*
X14062590Y1564330D01*
X14070470Y1559040D01*
Y1548460D01*
X14062590Y1543170D01*
G01X14369670Y1553750D02*
X14377550Y1622540D01*
X14389360Y1680740D01*
X14405110Y1733670D01*
X14424790Y1791870D01*
X14456290Y1871250D01*
X14298810D01*
G01X14633460Y1765410D02*
X14751560Y1553750D01*
G01Y1765410D02*
X14633460Y1553750D01*
G01X15007470Y1871250D02*
X14975970Y1860670D01*
X14952350Y1834210D01*
X14936600Y1802460D01*
X14924790Y1760120D01*
X14920860Y1712500D01*
X14924790Y1664870D01*
X14936600Y1622540D01*
X14952350Y1590780D01*
X14975970Y1564330D01*
X15007470Y1553750D01*
X15038960Y1564330D01*
X15062590Y1590780D01*
X15078340Y1622540D01*
X15090150Y1664870D01*
X15094080Y1712500D01*
X15090150Y1760120D01*
X15078340Y1802460D01*
X15062590Y1834210D01*
X15038960Y1860670D01*
X15007470Y1871250D01*
G01X15322430Y1543170D02*
X15314550Y1548460D01*
Y1559040D01*
X15322430Y1564330D01*
X15330310Y1559040D01*
Y1548460D01*
X15322430Y1543170D01*
G01X15562580Y1686030D02*
X15590150Y1723090D01*
X15613770Y1744250D01*
X15645270Y1754830D01*
X15672830Y1744250D01*
X15692510Y1723090D01*
X15708260Y1691330D01*
X15712200Y1654290D01*
X15708260Y1622540D01*
X15692510Y1590780D01*
X15668880Y1564330D01*
X15641330Y1553750D01*
X15609830Y1564330D01*
X15582270Y1596070D01*
X15566520Y1643710D01*
X15562580Y1696620D01*
X15570460Y1765410D01*
X15582270Y1802460D01*
X15601950Y1839500D01*
X15629510Y1865960D01*
X15657070Y1871250D01*
X15684630Y1860670D01*
X15704320Y1834210D01*
G01X13747630Y2188750D02*
Y2506250D01*
X13700390Y2442750D01*
G01Y2188750D02*
X13794870D01*
G01X14062590Y2178170D02*
X14054710Y2183460D01*
Y2194040D01*
X14062590Y2199330D01*
X14070470Y2194040D01*
Y2183460D01*
X14062590Y2178170D01*
G01X14302740Y2453330D02*
X14326370Y2485080D01*
X14353930Y2500960D01*
X14385430Y2506250D01*
X14424790Y2495670D01*
X14452360Y2469210D01*
X14460230Y2437460D01*
X14456290Y2405700D01*
X14440540Y2379250D01*
X14361800Y2326330D01*
X14326370Y2289290D01*
X14302740Y2236360D01*
X14294870Y2188750D01*
X14460230D01*
G01X14633460Y2400410D02*
X14751560Y2188750D01*
G01Y2400410D02*
X14633460Y2188750D01*
G01X15007470Y2506250D02*
X14975970Y2495670D01*
X14952350Y2469210D01*
X14936600Y2437460D01*
X14924790Y2395120D01*
X14920860Y2347500D01*
X14924790Y2299870D01*
X14936600Y2257540D01*
X14952350Y2225780D01*
X14975970Y2199330D01*
X15007470Y2188750D01*
X15038960Y2199330D01*
X15062590Y2225780D01*
X15078340Y2257540D01*
X15090150Y2299870D01*
X15094080Y2347500D01*
X15090150Y2395120D01*
X15078340Y2437460D01*
X15062590Y2469210D01*
X15038960Y2495670D01*
X15007470Y2506250D01*
G01X15322430Y2178170D02*
X15314550Y2183460D01*
Y2194040D01*
X15322430Y2199330D01*
X15330310Y2194040D01*
Y2183460D01*
X15322430Y2178170D01*
G01X15562580Y2321030D02*
X15590150Y2358090D01*
X15613770Y2379250D01*
X15645270Y2389830D01*
X15672830Y2379250D01*
X15692510Y2358090D01*
X15708260Y2326330D01*
X15712200Y2289290D01*
X15708260Y2257540D01*
X15692510Y2225780D01*
X15668880Y2199330D01*
X15641330Y2188750D01*
X15609830Y2199330D01*
X15582270Y2231070D01*
X15566520Y2278710D01*
X15562580Y2331620D01*
X15570460Y2400410D01*
X15582270Y2437460D01*
X15601950Y2474500D01*
X15629510Y2500960D01*
X15657070Y2506250D01*
X15684630Y2495670D01*
X15704320Y2469210D01*
G01X13739760Y7283750D02*
Y7601250D01*
X13818490D01*
X13849990Y7585370D01*
X13873610Y7564210D01*
X13893300Y7532460D01*
X13909050Y7495410D01*
X13912980Y7442500D01*
X13909050Y7389580D01*
X13893300Y7352540D01*
X13873610Y7320780D01*
X13849990Y7299620D01*
X13818490Y7283750D01*
X13739760D01*
G01X14062590D02*
Y7601250D01*
X14161010D01*
X14192510Y7585370D01*
X14212200Y7564210D01*
X14220070Y7521870D01*
X14212200Y7479540D01*
X14188570Y7453090D01*
X14161010Y7437200D01*
X14062590D01*
G01X14161010D02*
X14220070Y7283750D01*
G01X14409050Y7601250D02*
X14503530D01*
G01X14456290D02*
Y7283750D01*
G01X14409050D02*
X14503530D01*
G01X14692510Y7601250D02*
Y7283750D01*
X14849990D01*
G01X15007470Y7601250D02*
Y7283750D01*
X15164950D01*
G01X15802740Y7574790D02*
X15779120Y7590670D01*
X15751570Y7601250D01*
X15720070D01*
X15684630Y7585370D01*
X15657080Y7558920D01*
X15637390Y7527160D01*
X15621640Y7474250D01*
X15617700Y7426620D01*
X15625580Y7379000D01*
X15637390Y7347250D01*
X15661010Y7315490D01*
X15688570Y7294330D01*
X15716130Y7283750D01*
X15743690D01*
X15771250Y7294330D01*
X15794870Y7310200D01*
X15814560Y7331360D01*
G01X15948410Y7283750D02*
Y7601250D01*
G01X16113770D02*
Y7283750D01*
G01Y7442500D02*
X15948410D01*
G01X16247620Y7283750D02*
X16346050Y7601250D01*
X16444480Y7283750D01*
G01X16409040Y7394870D02*
X16283050D01*
G01X16582270Y7283750D02*
Y7601250D01*
X16680690D01*
X16712190Y7585370D01*
X16731880Y7564210D01*
X16739750Y7521870D01*
X16731880Y7479540D01*
X16708250Y7453090D01*
X16680690Y7437200D01*
X16582270D01*
G01X16680690D02*
X16739750Y7283750D01*
G01X16975970Y7601250D02*
Y7283750D01*
G01X16885420Y7601250D02*
X17066520D01*
G01X17290930Y7273170D02*
X17283050Y7278460D01*
Y7289040D01*
X17290930Y7294330D01*
X17298810Y7289040D01*
Y7278460D01*
X17290930Y7273170D01*
G01Y7416030D02*
X17283050Y7421330D01*
Y7431910D01*
X17290930Y7437200D01*
X17298810Y7431910D01*
Y7421330D01*
X17290930Y7416030D01*
G01X17920850Y7601250D02*
Y7283750D01*
G01X17830300Y7601250D02*
X18011400D01*
G01X18235810Y7283750D02*
X18204310Y7289040D01*
X18176760Y7310200D01*
X18153130Y7341960D01*
X18137380Y7379000D01*
X18129510Y7421330D01*
Y7463670D01*
X18137380Y7506000D01*
X18153130Y7543040D01*
X18176760Y7574790D01*
X18204310Y7595960D01*
X18235810Y7601250D01*
X18267300Y7595960D01*
X18294860Y7574790D01*
X18318490Y7543040D01*
X18334240Y7506000D01*
X18342110Y7463670D01*
Y7421330D01*
X18334240Y7379000D01*
X18318490Y7341960D01*
X18294860Y7310200D01*
X18267300Y7289040D01*
X18235810Y7283750D01*
G01X18472030D02*
Y7601250D01*
X18566520D01*
X18598010Y7585370D01*
X18621640Y7548330D01*
X18629510Y7506000D01*
X18621640Y7463670D01*
X18601950Y7431910D01*
X18566520Y7416030D01*
X18472030D01*
G01X19180690Y7601250D02*
Y7283750D01*
G01X19125570Y7495410D02*
X19235810D01*
G01X19495650Y7283750D02*
X19472030Y7289040D01*
X19448410Y7310200D01*
X19432650Y7347250D01*
X19424780Y7389580D01*
X19432650Y7431910D01*
X19448410Y7468960D01*
X19472030Y7490120D01*
X19495650Y7495410D01*
X19519270Y7490120D01*
X19542890Y7468960D01*
X19558640Y7431910D01*
X19562580Y7389580D01*
X19558640Y7347250D01*
X19542890Y7310200D01*
X19519270Y7289040D01*
X19495650Y7283750D01*
G01X20157060Y7453090D02*
X20172810Y7468960D01*
X20184620Y7495410D01*
X20192500Y7532460D01*
X20184620Y7564210D01*
X20168880Y7585370D01*
X20141320Y7601250D01*
X20035020D01*
Y7283750D01*
X20164940D01*
X20192500Y7304910D01*
X20208250Y7336670D01*
X20216120Y7373710D01*
X20208250Y7410740D01*
X20184620Y7442500D01*
X20157060Y7453090D01*
X20035020D01*
G01X20440530Y7283750D02*
X20409030Y7289040D01*
X20381480Y7310200D01*
X20357850Y7341960D01*
X20342100Y7379000D01*
X20334230Y7421330D01*
Y7463670D01*
X20342100Y7506000D01*
X20357850Y7543040D01*
X20381480Y7574790D01*
X20409030Y7595960D01*
X20440530Y7601250D01*
X20472020Y7595960D01*
X20499580Y7574790D01*
X20523210Y7543040D01*
X20538960Y7506000D01*
X20546830Y7463670D01*
Y7421330D01*
X20538960Y7379000D01*
X20523210Y7341960D01*
X20499580Y7310200D01*
X20472020Y7289040D01*
X20440530Y7283750D01*
G01X20755490Y7601250D02*
Y7283750D01*
G01X20664940Y7601250D02*
X20846040D01*
G01X21070450D02*
Y7283750D01*
G01X20979900Y7601250D02*
X21161000D01*
G01X21385410Y7283750D02*
X21353910Y7289040D01*
X21326360Y7310200D01*
X21302730Y7341960D01*
X21286980Y7379000D01*
X21279110Y7421330D01*
Y7463670D01*
X21286980Y7506000D01*
X21302730Y7543040D01*
X21326360Y7574790D01*
X21353910Y7595960D01*
X21385410Y7601250D01*
X21416900Y7595960D01*
X21444460Y7574790D01*
X21468090Y7543040D01*
X21483840Y7506000D01*
X21491710Y7463670D01*
Y7421330D01*
X21483840Y7379000D01*
X21468090Y7341960D01*
X21444460Y7310200D01*
X21416900Y7289040D01*
X21385410Y7283750D01*
G01X21598000D02*
Y7601250D01*
X21700370Y7336670D01*
X21802740Y7601250D01*
Y7283750D01*
G01X14062590Y5681250D02*
X14031090Y5670670D01*
X14007470Y5644210D01*
X13991720Y5612460D01*
X13979910Y5570120D01*
X13975980Y5522500D01*
X13979910Y5474870D01*
X13991720Y5432540D01*
X14007470Y5400780D01*
X14031090Y5374330D01*
X14062590Y5363750D01*
X14094080Y5374330D01*
X14117710Y5400780D01*
X14133460Y5432540D01*
X14145270Y5474870D01*
X14149200Y5522500D01*
X14145270Y5570120D01*
X14133460Y5612460D01*
X14117710Y5644210D01*
X14094080Y5670670D01*
X14062590Y5681250D01*
G01X14377550Y5353170D02*
X14369670Y5358460D01*
Y5369040D01*
X14377550Y5374330D01*
X14385430Y5369040D01*
Y5358460D01*
X14377550Y5353170D01*
G01X14617700Y5628330D02*
X14641330Y5660080D01*
X14668890Y5675960D01*
X14700390Y5681250D01*
X14739750Y5670670D01*
X14767320Y5644210D01*
X14775190Y5612460D01*
X14771250Y5580700D01*
X14755500Y5554250D01*
X14676760Y5501330D01*
X14641330Y5464290D01*
X14617700Y5411360D01*
X14609830Y5363750D01*
X14775190D01*
G01X14920860Y5411360D02*
X14944470Y5384910D01*
X14972030Y5369040D01*
X15007470Y5363750D01*
X15042910Y5374330D01*
X15070460Y5395490D01*
X15090150Y5432540D01*
X15094080Y5474870D01*
X15086210Y5517200D01*
X15066520Y5543670D01*
X15038960Y5564830D01*
X15011410Y5570120D01*
X14983850Y5564830D01*
X14948420Y5543670D01*
X14960230Y5681250D01*
X15066520D01*
G01X15369670Y5363750D02*
Y5681250D01*
X15224000Y5453710D01*
X15420860D01*
G01X14290940Y2887250D02*
X14314550Y2850200D01*
X14346050Y2829040D01*
X14381490Y2823750D01*
X14412990Y2829040D01*
X14444480Y2855490D01*
X14464160Y2887250D01*
X14468100Y2919000D01*
X14460230Y2956030D01*
X14432670Y2982500D01*
X14405110Y2993090D01*
X14369670D01*
G01X14405110D02*
X14428730Y3008960D01*
X14448420Y3035410D01*
X14456290Y3067160D01*
X14448420Y3098920D01*
X14428730Y3125370D01*
X14393300Y3141250D01*
X14357870Y3135960D01*
X14322430Y3114790D01*
G01X14692510Y2813170D02*
X14684630Y2818460D01*
Y2829040D01*
X14692510Y2834330D01*
X14700390Y2829040D01*
Y2818460D01*
X14692510Y2813170D01*
G01X14920860Y2887250D02*
X14944470Y2850200D01*
X14975970Y2829040D01*
X15011410Y2823750D01*
X15042910Y2829040D01*
X15074400Y2855490D01*
X15094080Y2887250D01*
X15098020Y2919000D01*
X15090150Y2956030D01*
X15062590Y2982500D01*
X15035030Y2993090D01*
X14999590D01*
G01X15035030D02*
X15058650Y3008960D01*
X15078340Y3035410D01*
X15086210Y3067160D01*
X15078340Y3098920D01*
X15058650Y3125370D01*
X15023220Y3141250D01*
X14987790Y3135960D01*
X14952350Y3114790D01*
G01X14377550Y3458750D02*
Y3776250D01*
X14330310Y3712750D01*
G01Y3458750D02*
X14424790D01*
G01X14692510Y3448170D02*
X14684630Y3453460D01*
Y3464040D01*
X14692510Y3469330D01*
X14700390Y3464040D01*
Y3453460D01*
X14692510Y3448170D01*
G01X15007470Y3458750D02*
Y3776250D01*
X14960230Y3712750D01*
G01Y3458750D02*
X15054710D01*
G01X14377550Y4093750D02*
Y4411250D01*
X14330310Y4347750D01*
G01Y4093750D02*
X14424790D01*
G01X14692510Y4083170D02*
X14684630Y4088460D01*
Y4099040D01*
X14692510Y4104330D01*
X14700390Y4099040D01*
Y4088460D01*
X14692510Y4083170D01*
G01X15007470Y4411250D02*
X14975970Y4400670D01*
X14952350Y4374210D01*
X14936600Y4342460D01*
X14924790Y4300120D01*
X14920860Y4252500D01*
X14924790Y4204870D01*
X14936600Y4162540D01*
X14952350Y4130780D01*
X14975970Y4104330D01*
X15007470Y4093750D01*
X15038960Y4104330D01*
X15062590Y4130780D01*
X15078340Y4162540D01*
X15090150Y4204870D01*
X15094080Y4252500D01*
X15090150Y4300120D01*
X15078340Y4342460D01*
X15062590Y4374210D01*
X15038960Y4400670D01*
X15007470Y4411250D01*
G01X14377550Y5046250D02*
X14346050Y5035670D01*
X14322430Y5009210D01*
X14306680Y4977460D01*
X14294870Y4935120D01*
X14290940Y4887500D01*
X14294870Y4839870D01*
X14306680Y4797540D01*
X14322430Y4765780D01*
X14346050Y4739330D01*
X14377550Y4728750D01*
X14409040Y4739330D01*
X14432670Y4765780D01*
X14448420Y4797540D01*
X14460230Y4839870D01*
X14464160Y4887500D01*
X14460230Y4935120D01*
X14448420Y4977460D01*
X14432670Y5009210D01*
X14409040Y5035670D01*
X14377550Y5046250D01*
G01X14692510Y4718170D02*
X14684630Y4723460D01*
Y4734040D01*
X14692510Y4739330D01*
X14700390Y4734040D01*
Y4723460D01*
X14692510Y4718170D01*
G01X15007470Y4728750D02*
X15035030Y4734040D01*
X15066520Y4749910D01*
X15086210Y4776360D01*
X15094080Y4813420D01*
X15086210Y4850450D01*
X15062590Y4882200D01*
X15027150Y4898090D01*
X14987790D01*
X14964160Y4908670D01*
X14944470Y4935120D01*
X14936600Y4972160D01*
X14948420Y5009210D01*
X14975970Y5035670D01*
X15007470Y5046250D01*
X15038960Y5035670D01*
X15066520Y5009210D01*
X15078340Y4972160D01*
X15070460Y4935120D01*
X15050780Y4908670D01*
X15027150Y4898090D01*
X14987790D01*
X14952350Y4882200D01*
X14928730Y4850450D01*
X14920860Y4813420D01*
X14928730Y4776360D01*
X14948420Y4749910D01*
X14979910Y4734040D01*
X15007470Y4728750D01*
G01X18011400Y320780D02*
X18038960Y294330D01*
X18070450Y283750D01*
X18101950Y294330D01*
X18129510Y326070D01*
X18149200Y373710D01*
X18157070Y421330D01*
Y479540D01*
X18149200Y527160D01*
X18129510Y569500D01*
X18105890Y590670D01*
X18078330Y601250D01*
X18046830Y590670D01*
X18023210Y569500D01*
X18007460Y537750D01*
X17999590Y495410D01*
X18007460Y458380D01*
X18027150Y421330D01*
X18050770Y400160D01*
X18078330Y394870D01*
X18109820Y405450D01*
X18133450Y431910D01*
X18157070Y479540D01*
G01X18393290Y601250D02*
X18361790Y590670D01*
X18338170Y564210D01*
X18322420Y532460D01*
X18310610Y490120D01*
X18306680Y442500D01*
X18310610Y394870D01*
X18322420Y352540D01*
X18338170Y320780D01*
X18361790Y294330D01*
X18393290Y283750D01*
X18424780Y294330D01*
X18448410Y320780D01*
X18464160Y352540D01*
X18475970Y394870D01*
X18479900Y442500D01*
X18475970Y490120D01*
X18464160Y532460D01*
X18448410Y564210D01*
X18424780Y590670D01*
X18393290Y601250D01*
G01X18708250Y273170D02*
X18700370Y278460D01*
Y289040D01*
X18708250Y294330D01*
X18716130Y289040D01*
Y278460D01*
X18708250Y273170D01*
G01X19023210Y601250D02*
X18991710Y590670D01*
X18968090Y564210D01*
X18952340Y532460D01*
X18940530Y490120D01*
X18936600Y442500D01*
X18940530Y394870D01*
X18952340Y352540D01*
X18968090Y320780D01*
X18991710Y294330D01*
X19023210Y283750D01*
X19054700Y294330D01*
X19078330Y320780D01*
X19094080Y352540D01*
X19105890Y394870D01*
X19109820Y442500D01*
X19105890Y490120D01*
X19094080Y532460D01*
X19078330Y564210D01*
X19054700Y590670D01*
X19023210Y601250D01*
G01X19338170D02*
X19306670Y590670D01*
X19283050Y564210D01*
X19267300Y532460D01*
X19255490Y490120D01*
X19251560Y442500D01*
X19255490Y394870D01*
X19267300Y352540D01*
X19283050Y320780D01*
X19306670Y294330D01*
X19338170Y283750D01*
X19369660Y294330D01*
X19393290Y320780D01*
X19409040Y352540D01*
X19420850Y394870D01*
X19424780Y442500D01*
X19420850Y490120D01*
X19409040Y532460D01*
X19393290Y564210D01*
X19369660Y590670D01*
X19338170Y601250D01*
G01X19653130D02*
X19621630Y590670D01*
X19598010Y564210D01*
X19582260Y532460D01*
X19570450Y490120D01*
X19566520Y442500D01*
X19570450Y394870D01*
X19582260Y352540D01*
X19598010Y320780D01*
X19621630Y294330D01*
X19653130Y283750D01*
X19684620Y294330D01*
X19708250Y320780D01*
X19724000Y352540D01*
X19735810Y394870D01*
X19739740Y442500D01*
X19735810Y490120D01*
X19724000Y532460D01*
X19708250Y564210D01*
X19684620Y590670D01*
X19653130Y601250D01*
G01X17684630Y5998750D02*
Y6316250D01*
X17783050D01*
X17814550Y6300370D01*
X17834240Y6279210D01*
X17842110Y6236870D01*
X17834240Y6194540D01*
X17810610Y6168090D01*
X17783050Y6152200D01*
X17684630D01*
G01X17783050D02*
X17842110Y5998750D01*
G01X18078330D02*
X18046830Y6004040D01*
X18019280Y6025200D01*
X17995650Y6056960D01*
X17979900Y6094000D01*
X17972030Y6136330D01*
Y6178670D01*
X17979900Y6221000D01*
X17995650Y6258040D01*
X18019280Y6289790D01*
X18046830Y6310960D01*
X18078330Y6316250D01*
X18109820Y6310960D01*
X18137380Y6289790D01*
X18161010Y6258040D01*
X18176760Y6221000D01*
X18184630Y6178670D01*
Y6136330D01*
X18176760Y6094000D01*
X18161010Y6056960D01*
X18137380Y6025200D01*
X18109820Y6004040D01*
X18078330Y5998750D01*
G01X18393290Y6316250D02*
Y5998750D01*
G01X18302740Y6316250D02*
X18483840D01*
G01X18609820Y5998750D02*
X18708250Y6316250D01*
X18806680Y5998750D01*
G01X18771240Y6109870D02*
X18645250D01*
G01X19023210Y6316250D02*
Y5998750D01*
G01X18932660Y6316250D02*
X19113760D01*
G01X19290930D02*
X19385410D01*
G01X19338170D02*
Y5998750D01*
G01X19290930D02*
X19385410D01*
G01X19653130D02*
X19621630Y6004040D01*
X19594080Y6025200D01*
X19570450Y6056960D01*
X19554700Y6094000D01*
X19546830Y6136330D01*
Y6178670D01*
X19554700Y6221000D01*
X19570450Y6258040D01*
X19594080Y6289790D01*
X19621630Y6310960D01*
X19653130Y6316250D01*
X19684620Y6310960D01*
X19712180Y6289790D01*
X19735810Y6258040D01*
X19751560Y6221000D01*
X19759430Y6178670D01*
Y6136330D01*
X19751560Y6094000D01*
X19735810Y6056960D01*
X19712180Y6025200D01*
X19684620Y6004040D01*
X19653130Y5998750D01*
G01X19877540D02*
Y6316250D01*
X20058640Y5998750D01*
Y6316250D01*
G01X18235810Y1236250D02*
X18204310Y1225670D01*
X18180690Y1199210D01*
X18164940Y1167460D01*
X18153130Y1125120D01*
X18149200Y1077500D01*
X18153130Y1029870D01*
X18164940Y987540D01*
X18180690Y955780D01*
X18204310Y929330D01*
X18235810Y918750D01*
X18267300Y929330D01*
X18290930Y955780D01*
X18306680Y987540D01*
X18318490Y1029870D01*
X18322420Y1077500D01*
X18318490Y1125120D01*
X18306680Y1167460D01*
X18290930Y1199210D01*
X18267300Y1225670D01*
X18235810Y1236250D01*
G01X18550770Y908170D02*
X18542890Y913460D01*
Y924040D01*
X18550770Y929330D01*
X18558650Y924040D01*
Y913460D01*
X18550770Y908170D01*
G01X18865730Y1236250D02*
X18834230Y1225670D01*
X18810610Y1199210D01*
X18794860Y1167460D01*
X18783050Y1125120D01*
X18779120Y1077500D01*
X18783050Y1029870D01*
X18794860Y987540D01*
X18810610Y955780D01*
X18834230Y929330D01*
X18865730Y918750D01*
X18897220Y929330D01*
X18920850Y955780D01*
X18936600Y987540D01*
X18948410Y1029870D01*
X18952340Y1077500D01*
X18948410Y1125120D01*
X18936600Y1167460D01*
X18920850Y1199210D01*
X18897220Y1225670D01*
X18865730Y1236250D01*
G01X19180690D02*
X19149190Y1225670D01*
X19125570Y1199210D01*
X19109820Y1167460D01*
X19098010Y1125120D01*
X19094080Y1077500D01*
X19098010Y1029870D01*
X19109820Y987540D01*
X19125570Y955780D01*
X19149190Y929330D01*
X19180690Y918750D01*
X19212180Y929330D01*
X19235810Y955780D01*
X19251560Y987540D01*
X19263370Y1029870D01*
X19267300Y1077500D01*
X19263370Y1125120D01*
X19251560Y1167460D01*
X19235810Y1199210D01*
X19212180Y1225670D01*
X19180690Y1236250D01*
G01X19495650D02*
X19464150Y1225670D01*
X19440530Y1199210D01*
X19424780Y1167460D01*
X19412970Y1125120D01*
X19409040Y1077500D01*
X19412970Y1029870D01*
X19424780Y987540D01*
X19440530Y955780D01*
X19464150Y929330D01*
X19495650Y918750D01*
X19527140Y929330D01*
X19550770Y955780D01*
X19566520Y987540D01*
X19578330Y1029870D01*
X19582260Y1077500D01*
X19578330Y1125120D01*
X19566520Y1167460D01*
X19550770Y1199210D01*
X19527140Y1225670D01*
X19495650Y1236250D01*
G01X18235810Y1871250D02*
X18204310Y1860670D01*
X18180690Y1834210D01*
X18164940Y1802460D01*
X18153130Y1760120D01*
X18149200Y1712500D01*
X18153130Y1664870D01*
X18164940Y1622540D01*
X18180690Y1590780D01*
X18204310Y1564330D01*
X18235810Y1553750D01*
X18267300Y1564330D01*
X18290930Y1590780D01*
X18306680Y1622540D01*
X18318490Y1664870D01*
X18322420Y1712500D01*
X18318490Y1760120D01*
X18306680Y1802460D01*
X18290930Y1834210D01*
X18267300Y1860670D01*
X18235810Y1871250D01*
G01X18550770Y1543170D02*
X18542890Y1548460D01*
Y1559040D01*
X18550770Y1564330D01*
X18558650Y1559040D01*
Y1548460D01*
X18550770Y1543170D01*
G01X18865730Y1871250D02*
X18834230Y1860670D01*
X18810610Y1834210D01*
X18794860Y1802460D01*
X18783050Y1760120D01*
X18779120Y1712500D01*
X18783050Y1664870D01*
X18794860Y1622540D01*
X18810610Y1590780D01*
X18834230Y1564330D01*
X18865730Y1553750D01*
X18897220Y1564330D01*
X18920850Y1590780D01*
X18936600Y1622540D01*
X18948410Y1664870D01*
X18952340Y1712500D01*
X18948410Y1760120D01*
X18936600Y1802460D01*
X18920850Y1834210D01*
X18897220Y1860670D01*
X18865730Y1871250D01*
G01X19180690D02*
X19149190Y1860670D01*
X19125570Y1834210D01*
X19109820Y1802460D01*
X19098010Y1760120D01*
X19094080Y1712500D01*
X19098010Y1664870D01*
X19109820Y1622540D01*
X19125570Y1590780D01*
X19149190Y1564330D01*
X19180690Y1553750D01*
X19212180Y1564330D01*
X19235810Y1590780D01*
X19251560Y1622540D01*
X19263370Y1664870D01*
X19267300Y1712500D01*
X19263370Y1760120D01*
X19251560Y1802460D01*
X19235810Y1834210D01*
X19212180Y1860670D01*
X19180690Y1871250D01*
G01X19495650D02*
X19464150Y1860670D01*
X19440530Y1834210D01*
X19424780Y1802460D01*
X19412970Y1760120D01*
X19409040Y1712500D01*
X19412970Y1664870D01*
X19424780Y1622540D01*
X19440530Y1590780D01*
X19464150Y1564330D01*
X19495650Y1553750D01*
X19527140Y1564330D01*
X19550770Y1590780D01*
X19566520Y1622540D01*
X19578330Y1664870D01*
X19582260Y1712500D01*
X19578330Y1760120D01*
X19566520Y1802460D01*
X19550770Y1834210D01*
X19527140Y1860670D01*
X19495650Y1871250D01*
G01X18235810Y2506250D02*
X18204310Y2495670D01*
X18180690Y2469210D01*
X18164940Y2437460D01*
X18153130Y2395120D01*
X18149200Y2347500D01*
X18153130Y2299870D01*
X18164940Y2257540D01*
X18180690Y2225780D01*
X18204310Y2199330D01*
X18235810Y2188750D01*
X18267300Y2199330D01*
X18290930Y2225780D01*
X18306680Y2257540D01*
X18318490Y2299870D01*
X18322420Y2347500D01*
X18318490Y2395120D01*
X18306680Y2437460D01*
X18290930Y2469210D01*
X18267300Y2495670D01*
X18235810Y2506250D01*
G01X18550770Y2178170D02*
X18542890Y2183460D01*
Y2194040D01*
X18550770Y2199330D01*
X18558650Y2194040D01*
Y2183460D01*
X18550770Y2178170D01*
G01X18865730Y2506250D02*
X18834230Y2495670D01*
X18810610Y2469210D01*
X18794860Y2437460D01*
X18783050Y2395120D01*
X18779120Y2347500D01*
X18783050Y2299870D01*
X18794860Y2257540D01*
X18810610Y2225780D01*
X18834230Y2199330D01*
X18865730Y2188750D01*
X18897220Y2199330D01*
X18920850Y2225780D01*
X18936600Y2257540D01*
X18948410Y2299870D01*
X18952340Y2347500D01*
X18948410Y2395120D01*
X18936600Y2437460D01*
X18920850Y2469210D01*
X18897220Y2495670D01*
X18865730Y2506250D01*
G01X19180690D02*
X19149190Y2495670D01*
X19125570Y2469210D01*
X19109820Y2437460D01*
X19098010Y2395120D01*
X19094080Y2347500D01*
X19098010Y2299870D01*
X19109820Y2257540D01*
X19125570Y2225780D01*
X19149190Y2199330D01*
X19180690Y2188750D01*
X19212180Y2199330D01*
X19235810Y2225780D01*
X19251560Y2257540D01*
X19263370Y2299870D01*
X19267300Y2347500D01*
X19263370Y2395120D01*
X19251560Y2437460D01*
X19235810Y2469210D01*
X19212180Y2495670D01*
X19180690Y2506250D01*
G01X19495650D02*
X19464150Y2495670D01*
X19440530Y2469210D01*
X19424780Y2437460D01*
X19412970Y2395120D01*
X19409040Y2347500D01*
X19412970Y2299870D01*
X19424780Y2257540D01*
X19440530Y2225780D01*
X19464150Y2199330D01*
X19495650Y2188750D01*
X19527140Y2199330D01*
X19550770Y2225780D01*
X19566520Y2257540D01*
X19578330Y2299870D01*
X19582260Y2347500D01*
X19578330Y2395120D01*
X19566520Y2437460D01*
X19550770Y2469210D01*
X19527140Y2495670D01*
X19495650Y2506250D01*
G01X18814550Y2929580D02*
X18916910D01*
G01X18814550Y3564580D02*
X18916910D01*
G01X18814550Y4199580D02*
X18916910D01*
G01X18814550Y4834580D02*
X18916910D01*
G01X18814550Y5469580D02*
X18916910D01*
G01X19808070Y-33750D02*
Y-351250D01*
G01X19717520Y-33750D02*
X19898620D01*
G01X20123030Y-351250D02*
X20091530Y-345960D01*
X20063980Y-324800D01*
X20040350Y-293040D01*
X20024600Y-256000D01*
X20016730Y-213670D01*
Y-171330D01*
X20024600Y-129000D01*
X20040350Y-91960D01*
X20063980Y-60210D01*
X20091530Y-39040D01*
X20123030Y-33750D01*
X20154520Y-39040D01*
X20182080Y-60210D01*
X20205710Y-91960D01*
X20221460Y-129000D01*
X20229330Y-171330D01*
Y-213670D01*
X20221460Y-256000D01*
X20205710Y-293040D01*
X20182080Y-324800D01*
X20154520Y-345960D01*
X20123030Y-351250D01*
G01X20437990Y-33750D02*
Y-351250D01*
G01X20347440Y-33750D02*
X20528540D01*
G01X20654520Y-351250D02*
X20752950Y-33750D01*
X20851380Y-351250D01*
G01X20815940Y-240130D02*
X20689950D01*
G01X20989170Y-33750D02*
Y-351250D01*
X21146650D01*
G01X21615150D02*
Y-33750D01*
G01X21780510D02*
Y-351250D01*
G01Y-192500D02*
X21615150D01*
G01X22012790Y-351250D02*
X21981290Y-345960D01*
X21953740Y-324800D01*
X21930110Y-293040D01*
X21914360Y-256000D01*
X21906490Y-213670D01*
Y-171330D01*
X21914360Y-129000D01*
X21930110Y-91960D01*
X21953740Y-60210D01*
X21981290Y-39040D01*
X22012790Y-33750D01*
X22044280Y-39040D01*
X22071840Y-60210D01*
X22095470Y-91960D01*
X22111220Y-129000D01*
X22119090Y-171330D01*
Y-213670D01*
X22111220Y-256000D01*
X22095470Y-293040D01*
X22071840Y-324800D01*
X22044280Y-345960D01*
X22012790Y-351250D01*
G01X22249010Y-33750D02*
Y-351250D01*
X22406490D01*
G01X22721450D02*
X22563970D01*
Y-33750D01*
X22721450D01*
G01X22658460Y-187200D02*
X22563970D01*
G01X22874990Y-308930D02*
X22906490Y-335380D01*
X22941920Y-351250D01*
X22973420D01*
X23004910Y-335380D01*
X23028540Y-308930D01*
X23040350Y-271870D01*
X23032480Y-234840D01*
X23012790Y-203090D01*
X22977350Y-181910D01*
X22930110Y-171330D01*
X22902550Y-150170D01*
X22890740Y-113130D01*
X22898620Y-76080D01*
X22918300Y-49630D01*
X22945860Y-33750D01*
X22973420D01*
X23000980Y-44330D01*
X23024600Y-70790D01*
G01X23272630Y-361830D02*
X23264750Y-356540D01*
Y-345960D01*
X23272630Y-340670D01*
X23280510Y-345960D01*
Y-356540D01*
X23272630Y-361830D01*
G01Y-218970D02*
X23264750Y-213670D01*
Y-203090D01*
X23272630Y-197800D01*
X23280510Y-203090D01*
Y-213670D01*
X23272630Y-218970D01*
G01X21227930Y283750D02*
Y601250D01*
X21322420D01*
X21353910Y585370D01*
X21377540Y548330D01*
X21385410Y506000D01*
X21377540Y463670D01*
X21357850Y431910D01*
X21322420Y416030D01*
X21227930D01*
G01X21542890Y601250D02*
Y283750D01*
X21700370D01*
G01X21838160D02*
X21936590Y601250D01*
X22035020Y283750D01*
G01X21999580Y394870D02*
X21873590D01*
G01X22251550Y601250D02*
Y283750D01*
G01X22161000Y601250D02*
X22342100D01*
G01X22645250Y283750D02*
X22487770D01*
Y601250D01*
X22645250D01*
G01X22582260Y447800D02*
X22487770D01*
G01X22794860Y283750D02*
Y601250D01*
X22873590D01*
X22905090Y585370D01*
X22928710Y564210D01*
X22948400Y532460D01*
X22964150Y495410D01*
X22968080Y442500D01*
X22964150Y389580D01*
X22948400Y352540D01*
X22928710Y320780D01*
X22905090Y299620D01*
X22873590Y283750D01*
X22794860D01*
G01X21227930Y918750D02*
Y1236250D01*
X21322420D01*
X21353910Y1220370D01*
X21377540Y1183330D01*
X21385410Y1141000D01*
X21377540Y1098670D01*
X21357850Y1066910D01*
X21322420Y1051030D01*
X21227930D01*
G01X21542890Y1236250D02*
Y918750D01*
X21700370D01*
G01X21838160D02*
X21936590Y1236250D01*
X22035020Y918750D01*
G01X21999580Y1029870D02*
X21873590D01*
G01X22251550Y1236250D02*
Y918750D01*
G01X22161000Y1236250D02*
X22342100D01*
G01X22645250Y918750D02*
X22487770D01*
Y1236250D01*
X22645250D01*
G01X22582260Y1082800D02*
X22487770D01*
G01X22794860Y918750D02*
Y1236250D01*
X22873590D01*
X22905090Y1220370D01*
X22928710Y1199210D01*
X22948400Y1167460D01*
X22964150Y1130410D01*
X22968080Y1077500D01*
X22964150Y1024580D01*
X22948400Y987540D01*
X22928710Y955780D01*
X22905090Y934620D01*
X22873590Y918750D01*
X22794860D01*
G01X21227930Y1553750D02*
Y1871250D01*
X21322420D01*
X21353910Y1855370D01*
X21377540Y1818330D01*
X21385410Y1776000D01*
X21377540Y1733670D01*
X21357850Y1701910D01*
X21322420Y1686030D01*
X21227930D01*
G01X21542890Y1871250D02*
Y1553750D01*
X21700370D01*
G01X21838160D02*
X21936590Y1871250D01*
X22035020Y1553750D01*
G01X21999580Y1664870D02*
X21873590D01*
G01X22251550Y1871250D02*
Y1553750D01*
G01X22161000Y1871250D02*
X22342100D01*
G01X22645250Y1553750D02*
X22487770D01*
Y1871250D01*
X22645250D01*
G01X22582260Y1717800D02*
X22487770D01*
G01X22794860Y1553750D02*
Y1871250D01*
X22873590D01*
X22905090Y1855370D01*
X22928710Y1834210D01*
X22948400Y1802460D01*
X22964150Y1765410D01*
X22968080Y1712500D01*
X22964150Y1659580D01*
X22948400Y1622540D01*
X22928710Y1590780D01*
X22905090Y1569620D01*
X22873590Y1553750D01*
X22794860D01*
G01X21227930Y2188750D02*
Y2506250D01*
X21322420D01*
X21353910Y2490370D01*
X21377540Y2453330D01*
X21385410Y2411000D01*
X21377540Y2368670D01*
X21357850Y2336910D01*
X21322420Y2321030D01*
X21227930D01*
G01X21542890Y2506250D02*
Y2188750D01*
X21700370D01*
G01X21838160D02*
X21936590Y2506250D01*
X22035020Y2188750D01*
G01X21999580Y2299870D02*
X21873590D01*
G01X22251550Y2506250D02*
Y2188750D01*
G01X22161000Y2506250D02*
X22342100D01*
G01X22645250Y2188750D02*
X22487770D01*
Y2506250D01*
X22645250D01*
G01X22582260Y2352800D02*
X22487770D01*
G01X22794860Y2188750D02*
Y2506250D01*
X22873590D01*
X22905090Y2490370D01*
X22928710Y2469210D01*
X22948400Y2437460D01*
X22964150Y2400410D01*
X22968080Y2347500D01*
X22964150Y2294580D01*
X22948400Y2257540D01*
X22928710Y2225780D01*
X22905090Y2204620D01*
X22873590Y2188750D01*
X22794860D01*
G01X21227930Y2823750D02*
Y3141250D01*
X21322420D01*
X21353910Y3125370D01*
X21377540Y3088330D01*
X21385410Y3046000D01*
X21377540Y3003670D01*
X21357850Y2971910D01*
X21322420Y2956030D01*
X21227930D01*
G01X21542890Y3141250D02*
Y2823750D01*
X21700370D01*
G01X21838160D02*
X21936590Y3141250D01*
X22035020Y2823750D01*
G01X21999580Y2934870D02*
X21873590D01*
G01X22251550Y3141250D02*
Y2823750D01*
G01X22161000Y3141250D02*
X22342100D01*
G01X22645250Y2823750D02*
X22487770D01*
Y3141250D01*
X22645250D01*
G01X22582260Y2987800D02*
X22487770D01*
G01X22794860Y2823750D02*
Y3141250D01*
X22873590D01*
X22905090Y3125370D01*
X22928710Y3104210D01*
X22948400Y3072460D01*
X22964150Y3035410D01*
X22968080Y2982500D01*
X22964150Y2929580D01*
X22948400Y2892540D01*
X22928710Y2860780D01*
X22905090Y2839620D01*
X22873590Y2823750D01*
X22794860D01*
G01X21227930Y3458750D02*
Y3776250D01*
X21322420D01*
X21353910Y3760370D01*
X21377540Y3723330D01*
X21385410Y3681000D01*
X21377540Y3638670D01*
X21357850Y3606910D01*
X21322420Y3591030D01*
X21227930D01*
G01X21542890Y3776250D02*
Y3458750D01*
X21700370D01*
G01X21838160D02*
X21936590Y3776250D01*
X22035020Y3458750D01*
G01X21999580Y3569870D02*
X21873590D01*
G01X22251550Y3776250D02*
Y3458750D01*
G01X22161000Y3776250D02*
X22342100D01*
G01X22645250Y3458750D02*
X22487770D01*
Y3776250D01*
X22645250D01*
G01X22582260Y3622800D02*
X22487770D01*
G01X22794860Y3458750D02*
Y3776250D01*
X22873590D01*
X22905090Y3760370D01*
X22928710Y3739210D01*
X22948400Y3707460D01*
X22964150Y3670410D01*
X22968080Y3617500D01*
X22964150Y3564580D01*
X22948400Y3527540D01*
X22928710Y3495780D01*
X22905090Y3474620D01*
X22873590Y3458750D01*
X22794860D01*
G01X21227930Y4093750D02*
Y4411250D01*
X21322420D01*
X21353910Y4395370D01*
X21377540Y4358330D01*
X21385410Y4316000D01*
X21377540Y4273670D01*
X21357850Y4241910D01*
X21322420Y4226030D01*
X21227930D01*
G01X21542890Y4411250D02*
Y4093750D01*
X21700370D01*
G01X21838160D02*
X21936590Y4411250D01*
X22035020Y4093750D01*
G01X21999580Y4204870D02*
X21873590D01*
G01X22251550Y4411250D02*
Y4093750D01*
G01X22161000Y4411250D02*
X22342100D01*
G01X22645250Y4093750D02*
X22487770D01*
Y4411250D01*
X22645250D01*
G01X22582260Y4257800D02*
X22487770D01*
G01X22794860Y4093750D02*
Y4411250D01*
X22873590D01*
X22905090Y4395370D01*
X22928710Y4374210D01*
X22948400Y4342460D01*
X22964150Y4305410D01*
X22968080Y4252500D01*
X22964150Y4199580D01*
X22948400Y4162540D01*
X22928710Y4130780D01*
X22905090Y4109620D01*
X22873590Y4093750D01*
X22794860D01*
G01X21227930Y4728750D02*
Y5046250D01*
X21322420D01*
X21353910Y5030370D01*
X21377540Y4993330D01*
X21385410Y4951000D01*
X21377540Y4908670D01*
X21357850Y4876910D01*
X21322420Y4861030D01*
X21227930D01*
G01X21542890Y5046250D02*
Y4728750D01*
X21700370D01*
G01X21838160D02*
X21936590Y5046250D01*
X22035020Y4728750D01*
G01X21999580Y4839870D02*
X21873590D01*
G01X22251550Y5046250D02*
Y4728750D01*
G01X22161000Y5046250D02*
X22342100D01*
G01X22645250Y4728750D02*
X22487770D01*
Y5046250D01*
X22645250D01*
G01X22582260Y4892800D02*
X22487770D01*
G01X22794860Y4728750D02*
Y5046250D01*
X22873590D01*
X22905090Y5030370D01*
X22928710Y5009210D01*
X22948400Y4977460D01*
X22964150Y4940410D01*
X22968080Y4887500D01*
X22964150Y4834580D01*
X22948400Y4797540D01*
X22928710Y4765780D01*
X22905090Y4744620D01*
X22873590Y4728750D01*
X22794860D01*
G01X21227930Y5363750D02*
Y5681250D01*
X21322420D01*
X21353910Y5665370D01*
X21377540Y5628330D01*
X21385410Y5586000D01*
X21377540Y5543670D01*
X21357850Y5511910D01*
X21322420Y5496030D01*
X21227930D01*
G01X21542890Y5681250D02*
Y5363750D01*
X21700370D01*
G01X21838160D02*
X21936590Y5681250D01*
X22035020Y5363750D01*
G01X21999580Y5474870D02*
X21873590D01*
G01X22251550Y5681250D02*
Y5363750D01*
G01X22161000Y5681250D02*
X22342100D01*
G01X22645250Y5363750D02*
X22487770D01*
Y5681250D01*
X22645250D01*
G01X22582260Y5527800D02*
X22487770D01*
G01X22794860Y5363750D02*
Y5681250D01*
X22873590D01*
X22905090Y5665370D01*
X22928710Y5644210D01*
X22948400Y5612460D01*
X22964150Y5575410D01*
X22968080Y5522500D01*
X22964150Y5469580D01*
X22948400Y5432540D01*
X22928710Y5400780D01*
X22905090Y5379620D01*
X22873590Y5363750D01*
X22794860D01*
G01X21227930Y5998750D02*
Y6316250D01*
X21322420D01*
X21353910Y6300370D01*
X21377540Y6263330D01*
X21385410Y6221000D01*
X21377540Y6178670D01*
X21357850Y6146910D01*
X21322420Y6131030D01*
X21227930D01*
G01X21542890Y6316250D02*
Y5998750D01*
X21700370D01*
G01X21838160D02*
X21936590Y6316250D01*
X22035020Y5998750D01*
G01X21999580Y6109870D02*
X21873590D01*
G01X22251550Y6316250D02*
Y5998750D01*
G01X22161000Y6316250D02*
X22342100D01*
G01X22645250Y5998750D02*
X22487770D01*
Y6316250D01*
X22645250D01*
G01X22582260Y6162800D02*
X22487770D01*
G01X22794860Y5998750D02*
Y6316250D01*
X22873590D01*
X22905090Y6300370D01*
X22928710Y6279210D01*
X22948400Y6247460D01*
X22964150Y6210410D01*
X22968080Y6157500D01*
X22964150Y6104580D01*
X22948400Y6067540D01*
X22928710Y6035780D01*
X22905090Y6014620D01*
X22873590Y5998750D01*
X22794860D01*
G01X24302720Y-86670D02*
X24326350Y-54920D01*
X24353910Y-39040D01*
X24385410Y-33750D01*
X24424770Y-44330D01*
X24452340Y-70790D01*
X24460210Y-102540D01*
X24456270Y-134300D01*
X24440520Y-160750D01*
X24361780Y-213670D01*
X24326350Y-250710D01*
X24302720Y-303640D01*
X24294850Y-351250D01*
X24460210D01*
G01X24605880Y-303640D02*
X24629490Y-330090D01*
X24657050Y-345960D01*
X24692490Y-351250D01*
X24727930Y-340670D01*
X24755480Y-319510D01*
X24775170Y-282460D01*
X24779100Y-240130D01*
X24771230Y-197800D01*
X24751540Y-171330D01*
X24723980Y-150170D01*
X24696430Y-144880D01*
X24668870Y-150170D01*
X24633440Y-171330D01*
X24645250Y-33750D01*
X24751540D01*
G01X25007450D02*
X24975950Y-44330D01*
X24952330Y-70790D01*
X24936580Y-102540D01*
X24924770Y-144880D01*
X24920840Y-192500D01*
X24924770Y-240130D01*
X24936580Y-282460D01*
X24952330Y-314220D01*
X24975950Y-340670D01*
X25007450Y-351250D01*
X25038940Y-340670D01*
X25062570Y-314220D01*
X25078320Y-282460D01*
X25090130Y-240130D01*
X25094060Y-192500D01*
X25090130Y-144880D01*
X25078320Y-102540D01*
X25062570Y-70790D01*
X25038940Y-44330D01*
X25007450Y-33750D01*
G01X24535010Y4728750D02*
Y5046250D01*
X24487770Y4982750D01*
G01Y4728750D02*
X24582250D01*
G01X24775160Y4993330D02*
X24798790Y5025080D01*
X24826350Y5040960D01*
X24857850Y5046250D01*
X24897210Y5035670D01*
X24924780Y5009210D01*
X24932650Y4977460D01*
X24928710Y4945700D01*
X24912960Y4919250D01*
X24834220Y4866330D01*
X24798790Y4829290D01*
X24775160Y4776360D01*
X24767290Y4728750D01*
X24932650D01*
G01X24302720Y5628330D02*
X24326350Y5660080D01*
X24353910Y5675960D01*
X24385410Y5681250D01*
X24424770Y5670670D01*
X24452340Y5644210D01*
X24460210Y5612460D01*
X24456270Y5580700D01*
X24440520Y5554250D01*
X24361780Y5501330D01*
X24326350Y5464290D01*
X24302720Y5411360D01*
X24294850Y5363750D01*
X24460210D01*
G01X24692490D02*
Y5681250D01*
X24645250Y5617750D01*
G01Y5363750D02*
X24739730D01*
G01X24999570D02*
X25007450Y5432540D01*
X25019260Y5490740D01*
X25035010Y5543670D01*
X25054690Y5601870D01*
X25086190Y5681250D01*
X24928710D01*
G01X24377530Y5998750D02*
X24346030Y6004040D01*
X24318480Y6025200D01*
X24294850Y6056960D01*
X24279100Y6094000D01*
X24271230Y6136330D01*
Y6178670D01*
X24279100Y6221000D01*
X24294850Y6258040D01*
X24318480Y6289790D01*
X24346030Y6310960D01*
X24377530Y6316250D01*
X24409020Y6310960D01*
X24436580Y6289790D01*
X24460210Y6258040D01*
X24475960Y6221000D01*
X24483830Y6178670D01*
Y6136330D01*
X24475960Y6094000D01*
X24460210Y6056960D01*
X24436580Y6025200D01*
X24409020Y6004040D01*
X24377530Y5998750D01*
G01X24409020Y6083420D02*
X24456270Y5998750D01*
G01X24692490Y6316250D02*
Y5998750D01*
G01X24601940Y6316250D02*
X24783040D01*
G01X25007450Y5998750D02*
Y6141620D01*
X24928710Y6316250D01*
G01X25086190D02*
X25007450Y6141620D01*
G01X24617680Y548330D02*
X24641310Y580080D01*
X24668870Y595960D01*
X24700370Y601250D01*
X24739730Y590670D01*
X24767300Y564210D01*
X24775170Y532460D01*
X24771230Y500700D01*
X24755480Y474250D01*
X24676740Y421330D01*
X24641310Y384290D01*
X24617680Y331360D01*
X24609810Y283750D01*
X24775170D01*
G01X24692490Y918750D02*
Y1236250D01*
X24645250Y1172750D01*
G01Y918750D02*
X24739730D01*
G01X24617680Y1818330D02*
X24641310Y1850080D01*
X24668870Y1865960D01*
X24700370Y1871250D01*
X24739730Y1860670D01*
X24767300Y1834210D01*
X24775170Y1802460D01*
X24771230Y1770700D01*
X24755480Y1744250D01*
X24676740Y1691330D01*
X24641310Y1654290D01*
X24617680Y1601360D01*
X24609810Y1553750D01*
X24775170D01*
G01X24617680Y2453330D02*
X24641310Y2485080D01*
X24668870Y2500960D01*
X24700370Y2506250D01*
X24739730Y2495670D01*
X24767300Y2469210D01*
X24775170Y2437460D01*
X24771230Y2405700D01*
X24755480Y2379250D01*
X24676740Y2326330D01*
X24641310Y2289290D01*
X24617680Y2236360D01*
X24609810Y2188750D01*
X24775170D01*
G01X24739730Y2823750D02*
Y3141250D01*
X24594060Y2913710D01*
X24790920D01*
G01X24692490Y3458750D02*
X24720050Y3464040D01*
X24751540Y3479910D01*
X24771230Y3506360D01*
X24779100Y3543420D01*
X24771230Y3580450D01*
X24747610Y3612200D01*
X24712170Y3628090D01*
X24672810D01*
X24649180Y3638670D01*
X24629490Y3665120D01*
X24621620Y3702160D01*
X24633440Y3739210D01*
X24660990Y3765670D01*
X24692490Y3776250D01*
X24723980Y3765670D01*
X24751540Y3739210D01*
X24763360Y3702160D01*
X24755480Y3665120D01*
X24735800Y3638670D01*
X24712170Y3628090D01*
X24672810D01*
X24637370Y3612200D01*
X24613750Y3580450D01*
X24605880Y3543420D01*
X24613750Y3506360D01*
X24633440Y3479910D01*
X24664930Y3464040D01*
X24692490Y3458750D01*
G01X24617680Y4358330D02*
X24641310Y4390080D01*
X24668870Y4405960D01*
X24700370Y4411250D01*
X24739730Y4400670D01*
X24767300Y4374210D01*
X24775170Y4342460D01*
X24771230Y4310700D01*
X24755480Y4284250D01*
X24676740Y4231330D01*
X24641310Y4194290D01*
X24617680Y4141360D01*
X24609810Y4093750D01*
X24775170D01*
G01X-250000Y0D02*
X-1490000D01*
G01X790000Y5400000D02*
X-1490000D01*
G01X-1240000Y2344260D02*
Y0D01*
G01X-1302500Y400000D02*
X-1240000Y0D01*
X-1177500Y400000D01*
X-1302500D01*
G01X-1240000Y2835740D02*
Y5400000D01*
G01X-1177500Y5000000D02*
X-1240000Y5400000D01*
X-1302500Y5000000D01*
X-1177500D01*
G01X110000Y360000D02*
X-770000D01*
G01X7890000Y5040000D02*
X-770000D01*
G01X-520000Y2363930D02*
Y360000D01*
G01X-582500Y760000D02*
X-520000Y360000D01*
X-457500Y760000D01*
X-582500D01*
G01X-520000Y2855410D02*
Y5040000D01*
G01X-457500Y4640000D02*
X-520000Y5040000D01*
X-582500Y4640000D01*
X-457500D01*
G01X0Y-250000D02*
Y-1280000D01*
G01X3683140Y-1030000D02*
X0D01*
G01X400000Y-967500D02*
X0Y-1030000D01*
X400000Y-1092500D01*
Y-967500D01*
G01X360000Y110000D02*
Y-750000D01*
G01X3502640Y-500000D02*
X360000D01*
G01X760000Y-437500D02*
X360000Y-500000D01*
X760000Y-562500D01*
Y-437500D01*
G01X4316860Y-1030000D02*
X8500000D01*
G01X4517360Y-500000D02*
X8140000D01*
G01X7740000Y-562500D02*
X8140000Y-500000D01*
X7740000Y-437500D01*
Y-562500D01*
G01X8100000Y-1092500D02*
X8500000Y-1030000D01*
X8100000Y-967500D01*
Y-1092500D01*
G01X8140000Y110000D02*
Y-750000D01*
G01X8500000Y420000D02*
Y-1280000D01*
G01X9850000Y125000D02*
Y7760000D01*
X25676740D01*
Y125000D01*
X9850000D01*
G01Y760000D02*
X25676740D01*
G01X9850000Y1395000D02*
X25676740D01*
G01X9850000Y2030000D02*
X25676740D01*
G01X9850000Y2665000D02*
X25676740D01*
G01X9850000Y3300000D02*
X25676740D01*
G01X9850000Y3935000D02*
X25676740D01*
G01X9850000Y4570000D02*
X25676740D01*
G01X9850000Y5205000D02*
X25676740D01*
G01X9850000Y5840000D02*
X25676740D01*
G01X9850000Y6475000D02*
X25676740D01*
G01X9850000Y7110000D02*
X25676740D01*
G01X12133460Y6475000D02*
Y125000D01*
G01X17251560Y6475000D02*
Y125000D01*
G01X20479900Y6475000D02*
Y125000D01*
G01X23708240Y6475000D02*
Y125000D01*
M02*
