G04 ================== begin FILE IDENTIFICATION RECORD ==================*
G04 Layout Name:  H:/MBEDBoard/MYD-Y6ULX_TEST_V10A/PCB/MYD-Y6ULX_TEST_V10A.brd*
G04 Film Name:    SilkScreen_Bottom*
G04 File Format:  Gerber RS274X*
G04 File Origin:  Cadence Allegro 17.2-S045*
G04 Origin Date:  Sat Dec 29 11:02:46 2018*
G04 *
G04 Layer:  BOARD GEOMETRY/OUTLINE*
G04 Layer:  REF DES/SILKSCREEN_BOTTOM*
G04 Layer:  PACKAGE GEOMETRY/SILKSCREEN_BOTTOM*
G04 Layer:  BOARD GEOMETRY/SILKSCREEN_BOTTOM*
G04 *
G04 Offset:    (0.0000 0.0000)*
G04 Mirror:    No*
G04 Mode:      Positive*
G04 Rotation:  0*
G04 FullContactRelief:  No*
G04 UndefLineWidth:     0.1524*
G04 ================== end FILE IDENTIFICATION RECORD ====================*
%FSLAX55Y55*MOMM*%
%IR0*IPPOS*OFA0.00000B0.00000*MIA0B0*SFA1.00000B1.00000*%
%ADD10C,.1*%
%ADD11C,.2*%
%ADD12C,.2032*%
%ADD13C,.17*%
%ADD14C,.127*%
%ADD15C,.254*%
%ADD16C,.1524*%
G75*
%LPD*%
G75*
G36*
G01X2157400Y6468480D02*
G03I-43400J0D01*
G37*
G36*
G01X2637360Y720000D02*
G03I-22360J0D01*
G37*
G36*
G01X2497260Y4411580D02*
G03I-29620J0D01*
G37*
G36*
G01X5042920Y2839880D02*
X5102960Y2779830D01*
X4982870D01*
X5042920Y2839880D01*
G37*
G36*
G01X5359920Y6539400D02*
G03I-35920J0D01*
G37*
G36*
G01X6646920D02*
G03I-35920J0D01*
G37*
G36*
G01X7941920Y1490600D02*
G03I-35920J0D01*
G37*
G36*
G01X9976060Y1325380D02*
G03I-29620J0D01*
G37*
G36*
G01X11090000Y5488500D02*
G03I-30000J0D01*
G37*
G54D10*
G01X470000Y310000D02*
G03I-160000J0D01*
G01X300000Y0D02*
X13400000D01*
G03X13700000Y300000I0J300000D01*
G01Y7200000D01*
G03X13400000Y7500000I-300000J0D01*
G01X300000D01*
G03X0Y7200000I0J-300000D01*
G01Y300000D01*
G03X300000Y0I300000J0D01*
G01X305000Y4550000D02*
G03I-75000J0D01*
G01Y5612500D02*
G03I-75000J0D01*
G01X470000Y7190000D02*
G03I-160000J0D01*
G01X1005000Y4550000D02*
G03I-75000J0D01*
G01Y5612500D02*
G03I-75000J0D01*
G01X13550000Y310000D02*
G03I-160000J0D01*
G01Y7190000D02*
G03I-160000J0D01*
G54D11*
G01X2930000Y50000D02*
Y30000D01*
X850000D01*
Y50000D01*
G01Y400000D02*
Y540000D01*
X1130000D01*
G01X2780000Y1360000D02*
X970000D01*
Y910000D01*
X2780000D01*
Y1360000D01*
G01X2930000Y400000D02*
Y540000D01*
X2650000D01*
G01X11790000Y694200D02*
X11330000D01*
G01X11790000Y1274200D02*
X11330000D01*
G01X11460000Y984200D02*
X11360000D01*
G01X11660000D02*
X11760000D01*
G01X11660000D02*
G03X11560000I-50000J0D01*
G01X11460000D02*
G03X11560000I50000J0D01*
G54D12*
G01X270000Y2070000D02*
G03I-50000J0D01*
G01Y2870000D02*
G03I-50000J0D01*
G01X830300Y2433500D02*
Y2306500D01*
G01D02*
X1109700D01*
Y2433500D01*
X830300D01*
G01Y2133500D02*
Y2006500D01*
G01D02*
X1109700D01*
Y2133500D01*
X830300D01*
G01Y2283500D02*
Y2156500D01*
G01D02*
X1109700D01*
Y2283500D01*
X830300D01*
G01Y2763500D02*
Y2636500D01*
G01D02*
X1109700D01*
Y2763500D01*
X830300D01*
G01Y2913500D02*
Y2786500D01*
G01D02*
X1109700D01*
Y2913500D01*
X830300D01*
G01Y3063500D02*
Y2936500D01*
G01D02*
X1109700D01*
Y3063500D01*
X830300D01*
G01X1109700Y2456500D02*
X830300D01*
G01Y2583500D02*
X1109700D01*
G01X830300Y2456500D02*
G02Y2583500I71651J63500D01*
G01Y3213500D02*
Y3086500D01*
G01D02*
X1109700D01*
Y3213500D01*
X830300D01*
G01X1112240Y2456500D02*
G03Y2583500I-73330J63500D01*
G01X1439700Y5523500D02*
X1160300D01*
Y5396500D01*
X1439700D01*
G01Y6306500D02*
X1160300D01*
G01Y6433500D02*
X1439700D01*
G01X1160300Y6306500D02*
G02Y6433500I71651J63500D01*
G01X1439700Y5396500D02*
Y5523500D01*
G01X1442240Y6306500D02*
G03Y6433500I-73330J63500D01*
G01X2114580Y4086320D02*
G02Y4248880I106888J81280D01*
G01D02*
X2485420D01*
G01Y4086320D02*
X2114580D01*
G01Y4788720D02*
G02Y4951280I106888J81280D01*
G01D02*
X2485420D01*
G01Y4788720D02*
X2114580D01*
G01X2260300Y5523500D02*
Y5396500D01*
G01D02*
X2539700D01*
Y5523500D01*
X2260300D01*
G01Y5676000D02*
Y5549000D01*
G01D02*
X2539700D01*
Y5676000D01*
X2260300D01*
G01Y5973500D02*
X2539700D01*
G01Y5846500D02*
X2260300D01*
G01X2257760Y5973500D02*
G03Y5846500I73330J-63500D01*
G01X2260300Y5823500D02*
X2539700D01*
G01Y5696500D02*
X2260300D01*
G01X2257760Y5823500D02*
G03Y5696500I73330J-63500D01*
G01X2539700Y6336500D02*
X2260300D01*
G01Y6463500D02*
X2539700D01*
G01X2260300Y6336500D02*
G02Y6463500I71651J63500D01*
G01Y6311000D02*
X2539700D01*
G01Y6184000D02*
X2260300D01*
G01X2257760Y6311000D02*
G03Y6184000I73330J-63500D01*
G01X2487960Y4086320D02*
G03Y4248880I-106888J81280D01*
G01Y4788720D02*
G03Y4951280I-106888J81280D01*
G01X2539700Y5973500D02*
G02Y5846500I-71651J-63500D01*
G01Y5823500D02*
G02Y5696500I-71651J-63500D01*
G01X2542240Y6336500D02*
G03Y6463500I-73330J63500D01*
G01X2539700Y6311000D02*
G02Y6184000I-71651J-63500D01*
G01X4653500Y6409700D02*
X4526500D01*
G01D02*
Y6130300D01*
X4653500D01*
Y6409700D01*
G01X4533540Y7158900D02*
X4647840D01*
Y6993800D01*
X4317640D01*
Y7158900D01*
X4431940D01*
G01X4561100Y2610800D02*
Y2725100D01*
X4726200D01*
Y2394900D01*
X4561100D01*
Y2509200D01*
G01Y2236690D02*
Y2350990D01*
X4726200D01*
Y2020790D01*
X4561100D01*
Y2135090D01*
G01X4900300Y2537500D02*
Y2410500D01*
G01D02*
X5179700D01*
Y2537500D01*
X4900300D01*
G01X5179700Y2350990D02*
X4900300D01*
Y2223990D01*
X5179700D01*
G01X4900300Y2143500D02*
Y2016500D01*
G01D02*
X5179700D01*
Y2143500D01*
X4900300D01*
G01X5179700Y2725100D02*
X4900300D01*
Y2598100D01*
X5179700D01*
G01X5199700Y3262400D02*
X4920300D01*
G01Y3389400D02*
X5199700D01*
G01X4920300Y3262400D02*
G02Y3389400I71651J63500D01*
G01X5199700Y3426500D02*
X4920300D01*
G01D02*
G02Y3553500I71651J63500D01*
G01D02*
X5199700D01*
G01X4989700Y5846500D02*
Y5973500D01*
G01D02*
X4710300D01*
Y5846500D01*
X4989700D01*
G01X5311100Y2236690D02*
Y2350990D01*
X5476200D01*
Y2020790D01*
X5311100D01*
Y2135090D01*
G01X5179700Y2223990D02*
Y2350990D01*
G01Y2598100D02*
Y2725100D01*
G01X5202240Y3262400D02*
G03Y3389400I-73330J63500D01*
G01Y3426500D02*
G03Y3553500I-73330J63500D01*
G01X5729700Y6142500D02*
X5450300D01*
G01Y6269500D02*
X5729700D01*
G01X5450300Y6142500D02*
G02Y6269500I71651J63500D01*
G01X5390300Y7043500D02*
Y6916500D01*
G01D02*
X5669700D01*
Y7043500D01*
X5390300D01*
G01X5923500Y6409700D02*
X5796500D01*
G01D02*
Y6130300D01*
X5923500D01*
Y6409700D01*
G01X5732240Y6142500D02*
G03Y6269500I-73330J63500D01*
G01X5700300Y7043500D02*
Y6916500D01*
G01D02*
X5979700D01*
Y7043500D01*
X5700300D01*
G01X6476700Y6566500D02*
X6197300D01*
G01X6194760Y6693500D02*
G03Y6566500I73330J-63500D01*
G01X6476700Y6693500D02*
G02Y6566500I-71651J-63500D01*
G01X6197300Y6693500D02*
X6476700D01*
G01X6750300Y6523500D02*
Y6396500D01*
G01D02*
X7029700D01*
Y6523500D01*
X6750300D01*
G01X7029700Y6142500D02*
Y6269500D01*
G01D02*
X6750300D01*
Y6142500D01*
X7029700D01*
G01X8126500Y550300D02*
Y829700D01*
G01X8253500Y832240D02*
G03X8126500I-63500J-73330D01*
G01X8253500Y550300D02*
G02X8126500I-63500J71651D01*
G01X8036500Y980300D02*
X8163500D01*
G01D02*
Y1259700D01*
X8036500D01*
Y980300D01*
G01X8186500D02*
X8313500D01*
G01D02*
Y1259700D01*
X8186500D01*
Y980300D01*
G01X8613500Y829700D02*
Y550300D01*
G01X8486500D02*
Y829700D01*
G01X8613500Y832240D02*
G03X8486500I-63500J-73330D01*
G01X8613500Y550300D02*
G02X8486500I-63500J71651D01*
G01X8253500Y829700D02*
Y550300D01*
G01X8638720Y835420D02*
G02X8801280I81280J-106888D01*
G01X8638720Y462040D02*
G03X8801280I81280J106888D01*
G01X8638720Y464580D02*
Y835420D01*
G01X8336500Y980300D02*
X8463500D01*
G01D02*
Y1259700D01*
X8336500D01*
Y980300D01*
G01X8486500D02*
X8613500D01*
G01D02*
Y1259700D01*
X8486500D01*
Y980300D01*
G01X8636500D02*
X8763500D01*
G01D02*
Y1259700D01*
X8636500D01*
Y980300D01*
G01X8889700Y2014500D02*
X8610300D01*
Y1887500D01*
X8889700D01*
G01X8610300Y1763500D02*
X8889700D01*
G01Y1636500D02*
X8610300D01*
G01X8607760Y1763500D02*
G03Y1636500I73330J-63500D01*
G01X8801280Y835420D02*
Y464580D01*
G01X8786500Y980300D02*
Y1259700D01*
G01X8913500D02*
Y980300D01*
G01X8786500Y977760D02*
G03X8913500I63500J73330D01*
G01X8786500Y1259700D02*
G02X8913500I63500J-71651D01*
G01X8889700Y1887500D02*
Y2014500D01*
G01Y1763500D02*
G02Y1636500I-71651J-63500D01*
G01X9764580Y1038720D02*
G02Y1201280I106888J81280D01*
G01D02*
X10135420D01*
G01Y1038720D02*
X9764580D01*
G01X9448720Y6852040D02*
G03X9611280I81280J106888D01*
G01Y7225420D02*
Y6854580D01*
G01X9448720D02*
Y7225420D01*
G01X9258720Y6852040D02*
G03X9421280I81280J106888D01*
G01Y7225420D02*
Y6854580D01*
G01X9258720D02*
Y7225420D01*
G01X9448720D02*
G02X9611280I81280J-106888D01*
G01X9258720D02*
G02X9421280I81280J-106888D01*
G01X10260300Y413500D02*
Y286500D01*
G01D02*
X10539700D01*
Y413500D01*
X10260300D01*
G01Y563500D02*
Y436500D01*
G01D02*
X10539700D01*
Y563500D01*
X10260300D01*
G01Y713500D02*
Y586500D01*
G01D02*
X10539700D01*
Y713500D01*
X10260300D01*
G01X10137960Y1038720D02*
G03Y1201280I-106888J81280D01*
G01X9998720Y1272040D02*
G03X10161280I81280J106888D01*
G01Y1645420D02*
Y1274580D01*
G01X9998720D02*
Y1645420D01*
G01X10089700Y1917800D02*
Y2044800D01*
G01D02*
X9810300D01*
Y1917800D01*
X10089700D01*
G01Y1706500D02*
Y1833500D01*
G01D02*
X9810300D01*
Y1706500D01*
X10089700D01*
G01X9998720Y1645420D02*
G02X10161280I81280J-106888D01*
G01X10509700Y5396500D02*
X10230300D01*
G01Y5523500D02*
X10509700D01*
G01X10230300Y5396500D02*
G02Y5523500I71651J63500D01*
G01X10134580Y5548720D02*
G02Y5711280I106888J81280D01*
G01X10505420Y5548720D02*
X10134580D01*
G01X10509700Y5923500D02*
X10230300D01*
Y5796500D01*
X10509700D01*
G01X10134580Y5711280D02*
X10505420D01*
G01X10810800Y540500D02*
X10925100D01*
Y375400D01*
X10594900D01*
Y540500D01*
X10709200D01*
G01X10736500Y5050300D02*
Y5329700D01*
G01Y5047760D02*
G03X10863500I63500J73330D01*
G01X10548720Y4952040D02*
G03X10711280I81280J106888D01*
G01Y5325420D02*
Y4954580D01*
G01X10548720D02*
Y5325420D01*
G01X10736500Y5329700D02*
G02X10863500I63500J-71651D01*
G01X10512240Y5396500D02*
G03Y5523500I-73330J63500D01*
G01X10548720Y5325420D02*
G02X10711280I81280J-106888D01*
G01X10507960Y5548720D02*
G03Y5711280I-106888J81280D01*
G01X10509700Y5796500D02*
Y5923500D01*
G01X10805870Y6479700D02*
X10678870D01*
G01D02*
Y6200300D01*
X10805870D01*
Y6479700D01*
G01X10380300Y6622500D02*
Y6495500D01*
G01D02*
X10659700D01*
Y6622500D01*
X10380300D01*
G01Y7130500D02*
Y7003500D01*
G01D02*
X10659700D01*
Y7130500D01*
X10380300D01*
G01Y6876500D02*
Y6749500D01*
G01D02*
X10659700D01*
Y6876500D01*
X10380300D01*
G01Y7384500D02*
Y7257500D01*
G01D02*
X10659700D01*
Y7384500D01*
X10380300D01*
G01X11226500Y5050300D02*
X11353500D01*
G01D02*
Y5329700D01*
X11226500D01*
Y5050300D01*
G01X10863500Y5329700D02*
Y5050300D01*
G01X11203500Y5329700D02*
Y5050300D01*
G01X11076500D02*
Y5329700D01*
G01X11203500Y5050300D02*
G02X11076500I-63500J71651D01*
G01X11203500Y5332240D02*
G03X11076500I-63500J-73330D01*
G01X10953500Y6479700D02*
X10826500D01*
G01D02*
Y6200300D01*
X10953500D01*
Y6479700D01*
G01X11156500Y6200300D02*
Y6479700D01*
G01X11283500D02*
Y6200300D01*
G01X11156500Y6197760D02*
G03X11283500I63500J73330D01*
G01X11156500Y6479700D02*
G02X11283500I63500J-71651D01*
G01X11006500Y6200300D02*
Y6479700D01*
G01X11133500D02*
Y6200300D01*
G01X11006500Y6197760D02*
G03X11133500I63500J73330D01*
G01X11006500Y6479700D02*
G02X11133500I63500J-71651D01*
G01X11319700Y7003500D02*
Y7130500D01*
G01D02*
X11040300D01*
Y7003500D01*
X11319700D01*
G01Y7257500D02*
Y7384500D01*
G01D02*
X11040300D01*
Y7257500D01*
X11319700D01*
G01X11410300Y7130500D02*
Y7003500D01*
G01D02*
X11689700D01*
Y7130500D01*
X11410300D01*
G01Y7384500D02*
Y7257500D01*
G01D02*
X11689700D01*
Y7384500D01*
X11410300D01*
G01X12110000Y680000D02*
Y1420000D01*
X12660000D01*
Y680000D01*
X12110000D01*
G01X12889700Y4436400D02*
X12610300D01*
G01X12892240D02*
G03Y4563400I-73330J63500D01*
G01X12610300Y4436400D02*
G02Y4563400I71651J63500D01*
G01D02*
X12889700D01*
G01Y6071710D02*
X12610300D01*
G01X12892240D02*
G03Y6198710I-73330J63500D01*
G01X12610300Y6071710D02*
G02Y6198710I71651J63500D01*
G01D02*
X12889700D01*
G01X13486500Y4150300D02*
X13613500D01*
G01D02*
Y4429700D01*
X13486500D01*
Y4150300D01*
G01Y4729700D02*
Y4450300D01*
X13613500D01*
Y4729700D01*
G01D02*
X13486500D01*
G01Y5780300D02*
X13613500D01*
G01D02*
Y6059700D01*
X13486500D01*
Y5780300D01*
G01Y6359700D02*
Y6080300D01*
X13613500D01*
Y6359700D01*
G01D02*
X13486500D01*
G54D13*
G01X9260000Y380000D02*
G03I-30000J0D01*
G01X9660000D02*
G03I-30000J0D01*
G54D14*
G01X2655000Y2590000D02*
G03I-75000J0D01*
G01X3405000D02*
G03I-75000J0D01*
G54D15*
G01X1910000Y6430000D02*
X2030000D01*
Y5430000D01*
X1690000D01*
Y6430000D01*
X1810000D01*
G01D02*
G03X1910000I50000J-1000D01*
G01X2439700Y4584300D02*
G03Y4508100I12700J-38100D01*
G01Y4584300D02*
Y4609700D01*
X2160300D01*
Y4482700D01*
X2439700D01*
Y4508100D01*
G01X2920000Y5180000D02*
X2540000D01*
Y5020000D01*
X2920000D01*
Y5180000D01*
G01Y4950000D02*
X2540000D01*
Y4790000D01*
X2920000D01*
Y4950000D01*
G01X5212900Y3220000D02*
Y2780000D01*
X4182900D01*
Y3220000D01*
X5212900D01*
G01X4920000Y6020000D02*
Y6520000D01*
G01Y6020000D02*
X5180000D01*
G01X5010000Y6520000D02*
X4920000D01*
G01X5090000D02*
G02X5010000I-40000J4108D01*
G01X5288030Y3067360D02*
Y2937260D01*
G01X5172900Y3220000D02*
Y2780000D01*
G01X5348070Y3007320D02*
X5227980D01*
G01X5180000Y6020000D02*
Y6520000D01*
X5090000D01*
G01X7118920Y562560D02*
X6621080D01*
Y237440D01*
X7118920D01*
Y562560D01*
G01Y922560D02*
X6621080D01*
Y597440D01*
X7118920D01*
Y922560D01*
G01X6467000Y6020000D02*
Y6520000D01*
X6377000D01*
G01X6207000Y6020000D02*
Y6520000D01*
G01Y6020000D02*
X6467000D01*
G01X6297000Y6520000D02*
X6207000D01*
G01X6377000D02*
G02X6297000I-40000J4108D01*
G01X8010000Y930000D02*
Y1310000D01*
X7850000D01*
Y930000D01*
X8010000D01*
G01X8050000Y2010000D02*
Y1510000D01*
X8140000D01*
G01D02*
G02X8220000I40000J-4108D01*
G01X8310000Y2010000D02*
X8050000D01*
G01X8220000Y1510000D02*
X8310000D01*
G01Y2010000D02*
Y1510000D01*
G01X9918500Y1498100D02*
Y1523500D01*
X9639100D01*
Y1396500D01*
X9918500D01*
Y1421900D01*
G01Y1498100D02*
G03Y1421900I12700J-38100D01*
G01X10780000Y5568500D02*
X10720000D01*
Y5628500D01*
G01Y5928500D02*
Y5988500D01*
X10780000D01*
G01X11050000Y4950000D02*
Y5330000D01*
X10890000D01*
Y4950000D01*
X11050000D01*
G01X11140000Y5628500D02*
Y5568500D01*
X11080000D01*
G01X11140000Y5928500D02*
Y5988500D01*
X11080000D01*
G54D16*
G01X2713000Y1180000D02*
Y1270000D01*
X2667000Y1180000D01*
Y1270000D01*
G01X2645000Y1180000D02*
X2620000Y1270000D01*
X2595000Y1180000D01*
G01X2604000Y1211500D02*
X2636000D01*
G01X2576000Y1180000D02*
Y1270000D01*
X2550000Y1195000D01*
X2524000Y1270000D01*
Y1180000D01*
G01X2460000D02*
X2500000D01*
Y1270000D01*
X2460000D01*
G01X2476000Y1226500D02*
X2500000D01*
G01X2410000Y1177000D02*
X2412000Y1178500D01*
Y1181500D01*
X2410000Y1183000D01*
X2408000Y1181500D01*
Y1178500D01*
X2410000Y1177000D01*
G01Y1217500D02*
X2412000Y1219000D01*
Y1222000D01*
X2410000Y1223500D01*
X2408000Y1222000D01*
Y1219000D01*
X2410000Y1217500D01*
G01X2366000Y1180000D02*
Y1270000D01*
X2340000Y1195000D01*
X2314000Y1270000D01*
Y1180000D01*
G01X2270000D02*
Y1220500D01*
X2290000Y1270000D01*
G01X2250000D02*
X2270000Y1220500D01*
G01X2222000Y1180000D02*
Y1270000D01*
X2202000D01*
X2194000Y1265500D01*
X2188000Y1259500D01*
X2183000Y1250500D01*
X2179000Y1240000D01*
X2178000Y1225000D01*
X2179000Y1210000D01*
X2183000Y1199500D01*
X2188000Y1190500D01*
X2194000Y1184500D01*
X2202000Y1180000D01*
X2222000D01*
G01X2143000Y1210000D02*
X2117000D01*
G01X2060000Y1180000D02*
Y1220500D01*
X2080000Y1270000D01*
G01X2040000D02*
X2060000Y1220500D01*
G01X2009000Y1217500D02*
X2002000Y1228000D01*
X1996000Y1234000D01*
X1988000Y1237000D01*
X1981000Y1234000D01*
X1976000Y1228000D01*
X1972000Y1219000D01*
X1971000Y1208500D01*
X1972000Y1199500D01*
X1976000Y1190500D01*
X1982000Y1183000D01*
X1989000Y1180000D01*
X1997000Y1183000D01*
X2004000Y1192000D01*
X2008000Y1205500D01*
X2009000Y1220500D01*
X2007000Y1240000D01*
X2004000Y1250500D01*
X1999000Y1261000D01*
X1992000Y1268500D01*
X1985000Y1270000D01*
X1978000Y1267000D01*
X1973000Y1259500D01*
G01X1942000Y1270000D02*
Y1205500D01*
X1938000Y1192000D01*
X1930000Y1183000D01*
X1920000Y1180000D01*
X1910000Y1183000D01*
X1902000Y1192000D01*
X1898000Y1205500D01*
Y1270000D01*
G01X1870000D02*
Y1180000D01*
X1830000D01*
G01X1801000D02*
X1759000Y1270000D01*
G01X1801000D02*
X1759000Y1180000D01*
G01X1740000Y1150000D02*
X1680000D01*
G01X1640000Y1270000D02*
Y1180000D01*
G01X1663000Y1270000D02*
X1617000D01*
G01X1550000Y1180000D02*
X1590000D01*
Y1270000D01*
X1550000D01*
G01X1566000Y1226500D02*
X1590000D01*
G01X1521000Y1192000D02*
X1513000Y1184500D01*
X1504000Y1180000D01*
X1496000D01*
X1488000Y1184500D01*
X1482000Y1192000D01*
X1479000Y1202500D01*
X1481000Y1213000D01*
X1486000Y1222000D01*
X1495000Y1228000D01*
X1507000Y1231000D01*
X1514000Y1237000D01*
X1517000Y1247500D01*
X1515000Y1258000D01*
X1510000Y1265500D01*
X1503000Y1270000D01*
X1496000D01*
X1489000Y1267000D01*
X1483000Y1259500D01*
G01X1430000Y1270000D02*
Y1180000D01*
G01X1453000Y1270000D02*
X1407000D01*
G01X1390000Y1150000D02*
X1330000D01*
G01X1315000Y1270000D02*
X1290000Y1180000D01*
X1265000Y1270000D01*
G01X1220000Y1180000D02*
Y1270000D01*
X1232000Y1252000D01*
G01Y1180000D02*
X1208000D01*
G01X1150000Y1270000D02*
X1158000Y1267000D01*
X1164000Y1259500D01*
X1168000Y1250500D01*
X1171000Y1238500D01*
X1172000Y1225000D01*
X1171000Y1211500D01*
X1168000Y1199500D01*
X1164000Y1190500D01*
X1158000Y1183000D01*
X1150000Y1180000D01*
X1142000Y1183000D01*
X1136000Y1190500D01*
X1132000Y1199500D01*
X1129000Y1211500D01*
X1128000Y1225000D01*
X1129000Y1238500D01*
X1132000Y1250500D01*
X1136000Y1259500D01*
X1142000Y1267000D01*
X1150000Y1270000D01*
G01X1105000Y1180000D02*
X1080000Y1270000D01*
X1055000Y1180000D01*
G01X1064000Y1211500D02*
X1096000D01*
G01X1330000Y2335000D02*
Y2425000D01*
X1305000D01*
X1297000Y2420500D01*
X1292000Y2414500D01*
X1290000Y2402500D01*
X1292000Y2390500D01*
X1298000Y2383000D01*
X1305000Y2378500D01*
X1330000D01*
G01X1305000D02*
X1290000Y2335000D01*
G01X1240000D02*
Y2425000D01*
X1252000Y2407000D01*
G01Y2335000D02*
X1228000D01*
G01X1172000D02*
X1170000Y2354500D01*
X1167000Y2371000D01*
X1163000Y2386000D01*
X1158000Y2402500D01*
X1150000Y2425000D01*
X1190000D01*
G01X1330000Y2035000D02*
Y2125000D01*
X1305000D01*
X1297000Y2120500D01*
X1292000Y2114500D01*
X1290000Y2102500D01*
X1292000Y2090500D01*
X1298000Y2083000D01*
X1305000Y2078500D01*
X1330000D01*
G01X1305000D02*
X1290000Y2035000D01*
G01X1240000D02*
Y2125000D01*
X1252000Y2107000D01*
G01Y2035000D02*
X1228000D01*
G01X1192000Y2048500D02*
X1186000Y2041000D01*
X1179000Y2036500D01*
X1170000Y2035000D01*
X1161000Y2038000D01*
X1154000Y2044000D01*
X1149000Y2054500D01*
X1148000Y2066500D01*
X1150000Y2078500D01*
X1155000Y2086000D01*
X1162000Y2092000D01*
X1169000Y2093500D01*
X1176000Y2092000D01*
X1185000Y2086000D01*
X1182000Y2125000D01*
X1155000D01*
G01X1330000Y2185000D02*
Y2275000D01*
X1305000D01*
X1297000Y2270500D01*
X1292000Y2264500D01*
X1290000Y2252500D01*
X1292000Y2240500D01*
X1298000Y2233000D01*
X1305000Y2228500D01*
X1330000D01*
G01X1305000D02*
X1290000Y2185000D01*
G01X1240000D02*
Y2275000D01*
X1252000Y2257000D01*
G01Y2185000D02*
X1228000D01*
G01X1189000Y2222500D02*
X1182000Y2233000D01*
X1176000Y2239000D01*
X1168000Y2242000D01*
X1161000Y2239000D01*
X1156000Y2233000D01*
X1152000Y2224000D01*
X1151000Y2213500D01*
X1152000Y2204500D01*
X1156000Y2195500D01*
X1162000Y2188000D01*
X1169000Y2185000D01*
X1177000Y2188000D01*
X1184000Y2197000D01*
X1188000Y2210500D01*
X1189000Y2225500D01*
X1187000Y2245000D01*
X1184000Y2255500D01*
X1179000Y2266000D01*
X1172000Y2273500D01*
X1165000Y2275000D01*
X1158000Y2272000D01*
X1153000Y2264500D01*
G01X1330000Y2665000D02*
Y2755000D01*
X1305000D01*
X1297000Y2750500D01*
X1292000Y2744500D01*
X1290000Y2732500D01*
X1292000Y2720500D01*
X1298000Y2713000D01*
X1305000Y2708500D01*
X1330000D01*
G01X1305000D02*
X1290000Y2665000D01*
G01X1240000D02*
Y2755000D01*
X1252000Y2737000D01*
G01Y2665000D02*
X1228000D01*
G01X1170000D02*
X1163000Y2666500D01*
X1155000Y2671000D01*
X1150000Y2678500D01*
X1148000Y2689000D01*
X1150000Y2699500D01*
X1156000Y2708500D01*
X1165000Y2713000D01*
X1175000D01*
X1181000Y2716000D01*
X1186000Y2723500D01*
X1188000Y2734000D01*
X1185000Y2744500D01*
X1178000Y2752000D01*
X1170000Y2755000D01*
X1162000Y2752000D01*
X1155000Y2744500D01*
X1152000Y2734000D01*
X1154000Y2723500D01*
X1159000Y2716000D01*
X1165000Y2713000D01*
X1175000D01*
X1184000Y2708500D01*
X1190000Y2699500D01*
X1192000Y2689000D01*
X1190000Y2678500D01*
X1185000Y2671000D01*
X1177000Y2666500D01*
X1170000Y2665000D01*
G01X1330000Y2815000D02*
Y2905000D01*
X1305000D01*
X1297000Y2900500D01*
X1292000Y2894500D01*
X1290000Y2882500D01*
X1292000Y2870500D01*
X1298000Y2863000D01*
X1305000Y2858500D01*
X1330000D01*
G01X1305000D02*
X1290000Y2815000D01*
G01X1240000D02*
Y2905000D01*
X1252000Y2887000D01*
G01Y2815000D02*
X1228000D01*
G01X1187000Y2825500D02*
X1180000Y2818000D01*
X1172000Y2815000D01*
X1164000Y2818000D01*
X1157000Y2827000D01*
X1152000Y2840500D01*
X1150000Y2854000D01*
Y2870500D01*
X1152000Y2884000D01*
X1157000Y2896000D01*
X1163000Y2902000D01*
X1170000Y2905000D01*
X1178000Y2902000D01*
X1184000Y2896000D01*
X1188000Y2887000D01*
X1190000Y2875000D01*
X1188000Y2864500D01*
X1183000Y2854000D01*
X1177000Y2848000D01*
X1170000Y2846500D01*
X1162000Y2849500D01*
X1156000Y2857000D01*
X1150000Y2870500D01*
G01X1330000Y2965000D02*
Y3055000D01*
X1305000D01*
X1297000Y3050500D01*
X1292000Y3044500D01*
X1290000Y3032500D01*
X1292000Y3020500D01*
X1298000Y3013000D01*
X1305000Y3008500D01*
X1330000D01*
G01X1305000D02*
X1290000Y2965000D01*
G01X1240000D02*
X1233000Y2966500D01*
X1225000Y2971000D01*
X1220000Y2978500D01*
X1218000Y2989000D01*
X1220000Y2999500D01*
X1226000Y3008500D01*
X1235000Y3013000D01*
X1245000D01*
X1251000Y3016000D01*
X1256000Y3023500D01*
X1258000Y3034000D01*
X1255000Y3044500D01*
X1248000Y3052000D01*
X1240000Y3055000D01*
X1232000Y3052000D01*
X1225000Y3044500D01*
X1222000Y3034000D01*
X1224000Y3023500D01*
X1229000Y3016000D01*
X1235000Y3013000D01*
X1245000D01*
X1254000Y3008500D01*
X1260000Y2999500D01*
X1262000Y2989000D01*
X1260000Y2978500D01*
X1255000Y2971000D01*
X1247000Y2966500D01*
X1240000Y2965000D01*
G01X1170000Y3055000D02*
X1178000Y3052000D01*
X1184000Y3044500D01*
X1188000Y3035500D01*
X1191000Y3023500D01*
X1192000Y3010000D01*
X1191000Y2996500D01*
X1188000Y2984500D01*
X1184000Y2975500D01*
X1178000Y2968000D01*
X1170000Y2965000D01*
X1162000Y2968000D01*
X1156000Y2975500D01*
X1152000Y2984500D01*
X1149000Y2996500D01*
X1148000Y3010000D01*
X1149000Y3023500D01*
X1152000Y3035500D01*
X1156000Y3044500D01*
X1162000Y3052000D01*
X1170000Y3055000D01*
G01X1253000Y2567500D02*
X1259000Y2572000D01*
X1266000Y2575000D01*
X1274000D01*
X1283000Y2570500D01*
X1290000Y2563000D01*
X1295000Y2554000D01*
X1299000Y2539000D01*
X1300000Y2525500D01*
X1298000Y2512000D01*
X1295000Y2503000D01*
X1289000Y2494000D01*
X1282000Y2488000D01*
X1275000Y2485000D01*
X1268000D01*
X1261000Y2488000D01*
X1255000Y2492500D01*
X1250000Y2498500D01*
G01X1227000Y2503000D02*
X1221000Y2492500D01*
X1213000Y2486500D01*
X1204000Y2485000D01*
X1196000Y2486500D01*
X1188000Y2494000D01*
X1183000Y2503000D01*
X1182000Y2512000D01*
X1184000Y2522500D01*
X1191000Y2530000D01*
X1198000Y2533000D01*
X1207000D01*
G01X1198000D02*
X1192000Y2537500D01*
X1187000Y2545000D01*
X1185000Y2554000D01*
X1187000Y2563000D01*
X1192000Y2570500D01*
X1201000Y2575000D01*
X1210000Y2573500D01*
X1219000Y2567500D01*
G01X1330000Y3115000D02*
Y3205000D01*
X1305000D01*
X1297000Y3200500D01*
X1292000Y3194500D01*
X1290000Y3182500D01*
X1292000Y3170500D01*
X1298000Y3163000D01*
X1305000Y3158500D01*
X1330000D01*
G01X1305000D02*
X1290000Y3115000D01*
G01X1240000D02*
X1233000Y3116500D01*
X1225000Y3121000D01*
X1220000Y3128500D01*
X1218000Y3139000D01*
X1220000Y3149500D01*
X1226000Y3158500D01*
X1235000Y3163000D01*
X1245000D01*
X1251000Y3166000D01*
X1256000Y3173500D01*
X1258000Y3184000D01*
X1255000Y3194500D01*
X1248000Y3202000D01*
X1240000Y3205000D01*
X1232000Y3202000D01*
X1225000Y3194500D01*
X1222000Y3184000D01*
X1224000Y3173500D01*
X1229000Y3166000D01*
X1235000Y3163000D01*
X1245000D01*
X1254000Y3158500D01*
X1260000Y3149500D01*
X1262000Y3139000D01*
X1260000Y3128500D01*
X1255000Y3121000D01*
X1247000Y3116500D01*
X1240000Y3115000D01*
G01X1170000D02*
Y3205000D01*
X1182000Y3187000D01*
G01Y3115000D02*
X1158000D01*
G01X1430000Y5550000D02*
Y5640000D01*
X1405000D01*
X1397000Y5635500D01*
X1392000Y5629500D01*
X1390000Y5617500D01*
X1392000Y5605500D01*
X1398000Y5598000D01*
X1405000Y5593500D01*
X1430000D01*
G01X1405000D02*
X1390000Y5550000D01*
G01X1359000Y5587500D02*
X1352000Y5598000D01*
X1346000Y5604000D01*
X1338000Y5607000D01*
X1331000Y5604000D01*
X1326000Y5598000D01*
X1322000Y5589000D01*
X1321000Y5578500D01*
X1322000Y5569500D01*
X1326000Y5560500D01*
X1332000Y5553000D01*
X1339000Y5550000D01*
X1347000Y5553000D01*
X1354000Y5562000D01*
X1358000Y5575500D01*
X1359000Y5590500D01*
X1357000Y5610000D01*
X1354000Y5620500D01*
X1349000Y5631000D01*
X1342000Y5638500D01*
X1335000Y5640000D01*
X1328000Y5637000D01*
X1323000Y5629500D01*
G01X1270000Y5550000D02*
Y5640000D01*
X1282000Y5622000D01*
G01Y5550000D02*
X1258000D01*
G01X1452000Y6200000D02*
Y6135500D01*
X1448000Y6122000D01*
X1440000Y6113000D01*
X1430000Y6110000D01*
X1420000Y6113000D01*
X1412000Y6122000D01*
X1408000Y6135500D01*
Y6200000D01*
G01X1360000Y6110000D02*
Y6200000D01*
X1372000Y6182000D01*
G01Y6110000D02*
X1348000D01*
G01X1292000D02*
X1290000Y6129500D01*
X1287000Y6146000D01*
X1283000Y6161000D01*
X1278000Y6177500D01*
X1270000Y6200000D01*
X1310000D01*
G01X1408000Y6552500D02*
X1414000Y6557000D01*
X1421000Y6560000D01*
X1429000D01*
X1438000Y6555500D01*
X1445000Y6548000D01*
X1450000Y6539000D01*
X1454000Y6524000D01*
X1455000Y6510500D01*
X1453000Y6497000D01*
X1450000Y6488000D01*
X1444000Y6479000D01*
X1437000Y6473000D01*
X1430000Y6470000D01*
X1423000D01*
X1416000Y6473000D01*
X1410000Y6477500D01*
X1405000Y6483500D01*
G01X1382000D02*
X1376000Y6476000D01*
X1369000Y6471500D01*
X1360000Y6470000D01*
X1351000Y6473000D01*
X1344000Y6479000D01*
X1339000Y6489500D01*
X1338000Y6501500D01*
X1340000Y6513500D01*
X1345000Y6521000D01*
X1352000Y6527000D01*
X1359000Y6528500D01*
X1366000Y6527000D01*
X1375000Y6521000D01*
X1372000Y6560000D01*
X1345000D01*
G01X1307000Y6480500D02*
X1300000Y6473000D01*
X1292000Y6470000D01*
X1284000Y6473000D01*
X1277000Y6482000D01*
X1272000Y6495500D01*
X1270000Y6509000D01*
Y6525500D01*
X1272000Y6539000D01*
X1277000Y6551000D01*
X1283000Y6557000D01*
X1290000Y6560000D01*
X1298000Y6557000D01*
X1304000Y6551000D01*
X1308000Y6542000D01*
X1310000Y6530000D01*
X1308000Y6519500D01*
X1303000Y6509000D01*
X1297000Y6503000D01*
X1290000Y6501500D01*
X1282000Y6504500D01*
X1276000Y6512000D01*
X1270000Y6525500D01*
G01X2712000Y1010000D02*
Y1100000D01*
X2692000D01*
X2684000Y1095500D01*
X2678000Y1089500D01*
X2673000Y1080500D01*
X2669000Y1070000D01*
X2668000Y1055000D01*
X2669000Y1040000D01*
X2673000Y1029500D01*
X2678000Y1020500D01*
X2684000Y1014500D01*
X2692000Y1010000D01*
X2712000D01*
G01X2645000D02*
X2620000Y1100000D01*
X2595000Y1010000D01*
G01X2604000Y1041500D02*
X2636000D01*
G01X2550000Y1100000D02*
Y1010000D01*
G01X2573000Y1100000D02*
X2527000D01*
G01X2460000Y1010000D02*
X2500000D01*
Y1100000D01*
X2460000D01*
G01X2476000Y1056500D02*
X2500000D01*
G01X2410000Y1007000D02*
X2412000Y1008500D01*
Y1011500D01*
X2410000Y1013000D01*
X2408000Y1011500D01*
Y1008500D01*
X2410000Y1007000D01*
G01Y1047500D02*
X2412000Y1049000D01*
Y1052000D01*
X2410000Y1053500D01*
X2408000Y1052000D01*
Y1049000D01*
X2410000Y1047500D01*
G01X2359000Y1085000D02*
X2353000Y1094000D01*
X2346000Y1098500D01*
X2338000Y1100000D01*
X2328000Y1097000D01*
X2321000Y1089500D01*
X2319000Y1080500D01*
X2320000Y1071500D01*
X2324000Y1064000D01*
X2344000Y1049000D01*
X2353000Y1038500D01*
X2359000Y1023500D01*
X2361000Y1010000D01*
X2319000D01*
G01X2270000Y1100000D02*
X2278000Y1097000D01*
X2284000Y1089500D01*
X2288000Y1080500D01*
X2291000Y1068500D01*
X2292000Y1055000D01*
X2291000Y1041500D01*
X2288000Y1029500D01*
X2284000Y1020500D01*
X2278000Y1013000D01*
X2270000Y1010000D01*
X2262000Y1013000D01*
X2256000Y1020500D01*
X2252000Y1029500D01*
X2249000Y1041500D01*
X2248000Y1055000D01*
X2249000Y1068500D01*
X2252000Y1080500D01*
X2256000Y1089500D01*
X2262000Y1097000D01*
X2270000Y1100000D01*
G01X2200000Y1010000D02*
Y1100000D01*
X2212000Y1082000D01*
G01Y1010000D02*
X2188000D01*
G01X2130000D02*
X2123000Y1011500D01*
X2115000Y1016000D01*
X2110000Y1023500D01*
X2108000Y1034000D01*
X2110000Y1044500D01*
X2116000Y1053500D01*
X2125000Y1058000D01*
X2135000D01*
X2141000Y1061000D01*
X2146000Y1068500D01*
X2148000Y1079000D01*
X2145000Y1089500D01*
X2138000Y1097000D01*
X2130000Y1100000D01*
X2122000Y1097000D01*
X2115000Y1089500D01*
X2112000Y1079000D01*
X2114000Y1068500D01*
X2119000Y1061000D01*
X2125000Y1058000D01*
X2135000D01*
X2144000Y1053500D01*
X2150000Y1044500D01*
X2152000Y1034000D01*
X2150000Y1023500D01*
X2145000Y1016000D01*
X2137000Y1011500D01*
X2130000Y1010000D01*
G01X2090000Y980000D02*
X2030000D01*
G01X1990000Y1010000D02*
Y1100000D01*
X2002000Y1082000D01*
G01Y1010000D02*
X1978000D01*
G01X1939000Y1085000D02*
X1933000Y1094000D01*
X1926000Y1098500D01*
X1918000Y1100000D01*
X1908000Y1097000D01*
X1901000Y1089500D01*
X1899000Y1080500D01*
X1900000Y1071500D01*
X1904000Y1064000D01*
X1924000Y1049000D01*
X1933000Y1038500D01*
X1939000Y1023500D01*
X1941000Y1010000D01*
X1899000D01*
G01X1880000Y980000D02*
X1820000D01*
G01X1799000Y1085000D02*
X1793000Y1094000D01*
X1786000Y1098500D01*
X1778000Y1100000D01*
X1768000Y1097000D01*
X1761000Y1089500D01*
X1759000Y1080500D01*
X1760000Y1071500D01*
X1764000Y1064000D01*
X1784000Y1049000D01*
X1793000Y1038500D01*
X1799000Y1023500D01*
X1801000Y1010000D01*
X1759000D01*
G01X1727000Y1020500D02*
X1720000Y1013000D01*
X1712000Y1010000D01*
X1704000Y1013000D01*
X1697000Y1022000D01*
X1692000Y1035500D01*
X1690000Y1049000D01*
Y1065500D01*
X1692000Y1079000D01*
X1697000Y1091000D01*
X1703000Y1097000D01*
X1710000Y1100000D01*
X1718000Y1097000D01*
X1724000Y1091000D01*
X1728000Y1082000D01*
X1730000Y1070000D01*
X1728000Y1059500D01*
X1723000Y1049000D01*
X1717000Y1043000D01*
X1710000Y1041500D01*
X1702000Y1044500D01*
X1696000Y1052000D01*
X1690000Y1065500D01*
G01X2052000Y4581200D02*
Y4516700D01*
X2048000Y4503200D01*
X2040000Y4494200D01*
X2030000Y4491200D01*
X2020000Y4494200D01*
X2012000Y4503200D01*
X2008000Y4516700D01*
Y4581200D01*
G01X1960000Y4491200D02*
Y4581200D01*
X1972000Y4563200D01*
G01Y4491200D02*
X1948000D01*
G01X1909000Y4528700D02*
X1902000Y4539200D01*
X1896000Y4545200D01*
X1888000Y4548200D01*
X1881000Y4545200D01*
X1876000Y4539200D01*
X1872000Y4530200D01*
X1871000Y4519700D01*
X1872000Y4510700D01*
X1876000Y4501700D01*
X1882000Y4494200D01*
X1889000Y4491200D01*
X1897000Y4494200D01*
X1904000Y4503200D01*
X1908000Y4516700D01*
X1909000Y4531700D01*
X1907000Y4551200D01*
X1904000Y4561700D01*
X1899000Y4572200D01*
X1892000Y4579700D01*
X1885000Y4581200D01*
X1878000Y4578200D01*
X1873000Y4570700D01*
G01X1998000Y4212500D02*
X2004000Y4217000D01*
X2011000Y4220000D01*
X2019000D01*
X2028000Y4215500D01*
X2035000Y4208000D01*
X2040000Y4199000D01*
X2044000Y4184000D01*
X2045000Y4170500D01*
X2043000Y4157000D01*
X2040000Y4148000D01*
X2034000Y4139000D01*
X2027000Y4133000D01*
X2020000Y4130000D01*
X2013000D01*
X2006000Y4133000D01*
X2000000Y4137500D01*
X1995000Y4143500D01*
G01X1972000D02*
X1966000Y4136000D01*
X1959000Y4131500D01*
X1950000Y4130000D01*
X1941000Y4133000D01*
X1934000Y4139000D01*
X1929000Y4149500D01*
X1928000Y4161500D01*
X1930000Y4173500D01*
X1935000Y4181000D01*
X1942000Y4187000D01*
X1949000Y4188500D01*
X1956000Y4187000D01*
X1965000Y4181000D01*
X1962000Y4220000D01*
X1935000D01*
G01X1880000Y4130000D02*
Y4220000D01*
X1892000Y4202000D01*
G01Y4130000D02*
X1868000D01*
G01X2008000Y4912500D02*
X2014000Y4917000D01*
X2021000Y4920000D01*
X2029000D01*
X2038000Y4915500D01*
X2045000Y4908000D01*
X2050000Y4899000D01*
X2054000Y4884000D01*
X2055000Y4870500D01*
X2053000Y4857000D01*
X2050000Y4848000D01*
X2044000Y4839000D01*
X2037000Y4833000D01*
X2030000Y4830000D01*
X2023000D01*
X2016000Y4833000D01*
X2010000Y4837500D01*
X2005000Y4843500D01*
G01X1982000D02*
X1976000Y4836000D01*
X1969000Y4831500D01*
X1960000Y4830000D01*
X1951000Y4833000D01*
X1944000Y4839000D01*
X1939000Y4849500D01*
X1938000Y4861500D01*
X1940000Y4873500D01*
X1945000Y4881000D01*
X1952000Y4887000D01*
X1959000Y4888500D01*
X1966000Y4887000D01*
X1975000Y4881000D01*
X1972000Y4920000D01*
X1945000D01*
G01X1909000Y4905000D02*
X1903000Y4914000D01*
X1896000Y4918500D01*
X1888000Y4920000D01*
X1878000Y4917000D01*
X1871000Y4909500D01*
X1869000Y4900500D01*
X1870000Y4891500D01*
X1874000Y4884000D01*
X1894000Y4869000D01*
X1903000Y4858500D01*
X1909000Y4843500D01*
X1911000Y4830000D01*
X1869000D01*
G01X2930000Y598000D02*
X2925000Y589000D01*
X2919000Y583000D01*
X2912000Y580000D01*
X2904000Y583000D01*
X2898000Y589000D01*
X2892000Y598000D01*
X2890000Y610000D01*
Y670000D01*
G01X2840000Y580000D02*
Y670000D01*
X2852000Y652000D01*
G01Y580000D02*
X2828000D01*
G01X2770000D02*
Y670000D01*
X2782000Y652000D01*
G01Y580000D02*
X2758000D01*
G01X3075000Y5135000D02*
Y5045000D01*
X3035000D01*
G01X2973000D02*
Y5135000D01*
X3010000Y5070500D01*
X2960000D01*
G01X2730000Y5150800D02*
Y5049200D01*
G01X3075000Y4905000D02*
Y4815000D01*
X3035000D01*
G01X3007000Y4828500D02*
X3001000Y4821000D01*
X2994000Y4816500D01*
X2985000Y4815000D01*
X2976000Y4818000D01*
X2969000Y4824000D01*
X2964000Y4834500D01*
X2963000Y4846500D01*
X2965000Y4858500D01*
X2970000Y4866000D01*
X2977000Y4872000D01*
X2984000Y4873500D01*
X2991000Y4872000D01*
X3000000Y4866000D01*
X2997000Y4905000D01*
X2970000D01*
G01X2730000Y4920800D02*
Y4819200D01*
G01X2770000Y5415000D02*
Y5505000D01*
X2745000D01*
X2737000Y5500500D01*
X2732000Y5494500D01*
X2730000Y5482500D01*
X2732000Y5470500D01*
X2738000Y5463000D01*
X2745000Y5458500D01*
X2770000D01*
G01X2745000D02*
X2730000Y5415000D01*
G01X2702000Y5428500D02*
X2696000Y5421000D01*
X2689000Y5416500D01*
X2680000Y5415000D01*
X2671000Y5418000D01*
X2664000Y5424000D01*
X2659000Y5434500D01*
X2658000Y5446500D01*
X2660000Y5458500D01*
X2665000Y5466000D01*
X2672000Y5472000D01*
X2679000Y5473500D01*
X2686000Y5472000D01*
X2695000Y5466000D01*
X2692000Y5505000D01*
X2665000D01*
G01X2627000Y5425500D02*
X2620000Y5418000D01*
X2612000Y5415000D01*
X2604000Y5418000D01*
X2597000Y5427000D01*
X2592000Y5440500D01*
X2590000Y5454000D01*
Y5470500D01*
X2592000Y5484000D01*
X2597000Y5496000D01*
X2603000Y5502000D01*
X2610000Y5505000D01*
X2618000Y5502000D01*
X2624000Y5496000D01*
X2628000Y5487000D01*
X2630000Y5475000D01*
X2628000Y5464500D01*
X2623000Y5454000D01*
X2617000Y5448000D01*
X2610000Y5446500D01*
X2602000Y5449500D01*
X2596000Y5457000D01*
X2590000Y5470500D01*
G01X2770000Y5567500D02*
Y5657500D01*
X2745000D01*
X2737000Y5653000D01*
X2732000Y5647000D01*
X2730000Y5635000D01*
X2732000Y5623000D01*
X2738000Y5615500D01*
X2745000Y5611000D01*
X2770000D01*
G01X2745000D02*
X2730000Y5567500D01*
G01X2699000Y5605000D02*
X2692000Y5615500D01*
X2686000Y5621500D01*
X2678000Y5624500D01*
X2671000Y5621500D01*
X2666000Y5615500D01*
X2662000Y5606500D01*
X2661000Y5596000D01*
X2662000Y5587000D01*
X2666000Y5578000D01*
X2672000Y5570500D01*
X2679000Y5567500D01*
X2687000Y5570500D01*
X2694000Y5579500D01*
X2698000Y5593000D01*
X2699000Y5608000D01*
X2697000Y5627500D01*
X2694000Y5638000D01*
X2689000Y5648500D01*
X2682000Y5656000D01*
X2675000Y5657500D01*
X2668000Y5654500D01*
X2663000Y5647000D01*
G01X2610000Y5657500D02*
X2618000Y5654500D01*
X2624000Y5647000D01*
X2628000Y5638000D01*
X2631000Y5626000D01*
X2632000Y5612500D01*
X2631000Y5599000D01*
X2628000Y5587000D01*
X2624000Y5578000D01*
X2618000Y5570500D01*
X2610000Y5567500D01*
X2602000Y5570500D01*
X2596000Y5578000D01*
X2592000Y5587000D01*
X2589000Y5599000D01*
X2588000Y5612500D01*
X2589000Y5626000D01*
X2592000Y5638000D01*
X2596000Y5647000D01*
X2602000Y5654500D01*
X2610000Y5657500D01*
G01X2728000Y5947500D02*
X2734000Y5952000D01*
X2741000Y5955000D01*
X2749000D01*
X2758000Y5950500D01*
X2765000Y5943000D01*
X2770000Y5934000D01*
X2774000Y5919000D01*
X2775000Y5905500D01*
X2773000Y5892000D01*
X2770000Y5883000D01*
X2764000Y5874000D01*
X2757000Y5868000D01*
X2750000Y5865000D01*
X2743000D01*
X2736000Y5868000D01*
X2730000Y5872500D01*
X2725000Y5878500D01*
G01X2702000D02*
X2696000Y5871000D01*
X2689000Y5866500D01*
X2680000Y5865000D01*
X2671000Y5868000D01*
X2664000Y5874000D01*
X2659000Y5884500D01*
X2658000Y5896500D01*
X2660000Y5908500D01*
X2665000Y5916000D01*
X2672000Y5922000D01*
X2679000Y5923500D01*
X2686000Y5922000D01*
X2695000Y5916000D01*
X2692000Y5955000D01*
X2665000D01*
G01X2612000Y5865000D02*
X2610000Y5884500D01*
X2607000Y5901000D01*
X2603000Y5916000D01*
X2598000Y5932500D01*
X2590000Y5955000D01*
X2630000D01*
G01X2728000Y5797500D02*
X2734000Y5802000D01*
X2741000Y5805000D01*
X2749000D01*
X2758000Y5800500D01*
X2765000Y5793000D01*
X2770000Y5784000D01*
X2774000Y5769000D01*
X2775000Y5755500D01*
X2773000Y5742000D01*
X2770000Y5733000D01*
X2764000Y5724000D01*
X2757000Y5718000D01*
X2750000Y5715000D01*
X2743000D01*
X2736000Y5718000D01*
X2730000Y5722500D01*
X2725000Y5728500D01*
G01X2702000D02*
X2696000Y5721000D01*
X2689000Y5716500D01*
X2680000Y5715000D01*
X2671000Y5718000D01*
X2664000Y5724000D01*
X2659000Y5734500D01*
X2658000Y5746500D01*
X2660000Y5758500D01*
X2665000Y5766000D01*
X2672000Y5772000D01*
X2679000Y5773500D01*
X2686000Y5772000D01*
X2695000Y5766000D01*
X2692000Y5805000D01*
X2665000D01*
G01X2610000Y5715000D02*
X2603000Y5716500D01*
X2595000Y5721000D01*
X2590000Y5728500D01*
X2588000Y5739000D01*
X2590000Y5749500D01*
X2596000Y5758500D01*
X2605000Y5763000D01*
X2615000D01*
X2621000Y5766000D01*
X2626000Y5773500D01*
X2628000Y5784000D01*
X2625000Y5794500D01*
X2618000Y5802000D01*
X2610000Y5805000D01*
X2602000Y5802000D01*
X2595000Y5794500D01*
X2592000Y5784000D01*
X2594000Y5773500D01*
X2599000Y5766000D01*
X2605000Y5763000D01*
X2615000D01*
X2624000Y5758500D01*
X2630000Y5749500D01*
X2632000Y5739000D01*
X2630000Y5728500D01*
X2625000Y5721000D01*
X2617000Y5716500D01*
X2610000Y5715000D01*
G01X2728000Y6422500D02*
X2734000Y6427000D01*
X2741000Y6430000D01*
X2749000D01*
X2758000Y6425500D01*
X2765000Y6418000D01*
X2770000Y6409000D01*
X2774000Y6394000D01*
X2775000Y6380500D01*
X2773000Y6367000D01*
X2770000Y6358000D01*
X2764000Y6349000D01*
X2757000Y6343000D01*
X2750000Y6340000D01*
X2743000D01*
X2736000Y6343000D01*
X2730000Y6347500D01*
X2725000Y6353500D01*
G01X2702000D02*
X2696000Y6346000D01*
X2689000Y6341500D01*
X2680000Y6340000D01*
X2671000Y6343000D01*
X2664000Y6349000D01*
X2659000Y6359500D01*
X2658000Y6371500D01*
X2660000Y6383500D01*
X2665000Y6391000D01*
X2672000Y6397000D01*
X2679000Y6398500D01*
X2686000Y6397000D01*
X2695000Y6391000D01*
X2692000Y6430000D01*
X2665000D01*
G01X2632000Y6353500D02*
X2626000Y6346000D01*
X2619000Y6341500D01*
X2610000Y6340000D01*
X2601000Y6343000D01*
X2594000Y6349000D01*
X2589000Y6359500D01*
X2588000Y6371500D01*
X2590000Y6383500D01*
X2595000Y6391000D01*
X2602000Y6397000D01*
X2609000Y6398500D01*
X2616000Y6397000D01*
X2625000Y6391000D01*
X2622000Y6430000D01*
X2595000D01*
G01X2728000Y6285000D02*
X2734000Y6289500D01*
X2741000Y6292500D01*
X2749000D01*
X2758000Y6288000D01*
X2765000Y6280500D01*
X2770000Y6271500D01*
X2774000Y6256500D01*
X2775000Y6243000D01*
X2773000Y6229500D01*
X2770000Y6220500D01*
X2764000Y6211500D01*
X2757000Y6205500D01*
X2750000Y6202500D01*
X2743000D01*
X2736000Y6205500D01*
X2730000Y6210000D01*
X2725000Y6216000D01*
G01X2702000D02*
X2696000Y6208500D01*
X2689000Y6204000D01*
X2680000Y6202500D01*
X2671000Y6205500D01*
X2664000Y6211500D01*
X2659000Y6222000D01*
X2658000Y6234000D01*
X2660000Y6246000D01*
X2665000Y6253500D01*
X2672000Y6259500D01*
X2679000Y6261000D01*
X2686000Y6259500D01*
X2695000Y6253500D01*
X2692000Y6292500D01*
X2665000D01*
G01X2629000Y6240000D02*
X2622000Y6250500D01*
X2616000Y6256500D01*
X2608000Y6259500D01*
X2601000Y6256500D01*
X2596000Y6250500D01*
X2592000Y6241500D01*
X2591000Y6231000D01*
X2592000Y6222000D01*
X2596000Y6213000D01*
X2602000Y6205500D01*
X2609000Y6202500D01*
X2617000Y6205500D01*
X2624000Y6214500D01*
X2628000Y6228000D01*
X2629000Y6243000D01*
X2627000Y6262500D01*
X2624000Y6273000D01*
X2619000Y6283500D01*
X2612000Y6291000D01*
X2605000Y6292500D01*
X2598000Y6289500D01*
X2593000Y6282000D01*
G01X3404000Y678000D02*
Y702000D01*
G01Y690000D02*
X3314000D01*
G01Y678000D02*
Y702000D01*
G01X3389000Y741000D02*
X3398000Y747000D01*
X3402500Y754000D01*
X3404000Y762000D01*
X3401000Y772000D01*
X3393500Y779000D01*
X3384500Y781000D01*
X3375500Y780000D01*
X3368000Y776000D01*
X3353000Y756000D01*
X3342500Y747000D01*
X3327500Y741000D01*
X3314000Y739000D01*
Y781000D01*
G01X3396500Y852000D02*
X3401000Y846000D01*
X3404000Y839000D01*
Y831000D01*
X3399500Y822000D01*
X3392000Y815000D01*
X3383000Y810000D01*
X3368000Y806000D01*
X3354500Y805000D01*
X3341000Y807000D01*
X3332000Y810000D01*
X3323000Y816000D01*
X3317000Y823000D01*
X3314000Y830000D01*
Y837000D01*
X3317000Y844000D01*
X3321500Y850000D01*
X3327500Y855000D01*
G01X3389000Y881000D02*
X3398000Y887000D01*
X3402500Y894000D01*
X3404000Y902000D01*
X3401000Y912000D01*
X3393500Y919000D01*
X3384500Y921000D01*
X3375500Y920000D01*
X3368000Y916000D01*
X3353000Y896000D01*
X3342500Y887000D01*
X3327500Y881000D01*
X3314000Y879000D01*
Y921000D01*
G01X3284000Y940000D02*
Y1000000D01*
G01X3326000Y1019000D02*
X3318500Y1027000D01*
X3314000Y1036000D01*
Y1044000D01*
X3318500Y1052000D01*
X3326000Y1058000D01*
X3336500Y1061000D01*
X3347000Y1059000D01*
X3356000Y1054000D01*
X3362000Y1045000D01*
X3365000Y1033000D01*
X3371000Y1026000D01*
X3381500Y1023000D01*
X3392000Y1025000D01*
X3399500Y1030000D01*
X3404000Y1037000D01*
Y1044000D01*
X3401000Y1051000D01*
X3393500Y1057000D01*
G01X3396500Y1132000D02*
X3401000Y1126000D01*
X3404000Y1119000D01*
Y1111000D01*
X3399500Y1102000D01*
X3392000Y1095000D01*
X3383000Y1090000D01*
X3368000Y1086000D01*
X3354500Y1085000D01*
X3341000Y1087000D01*
X3332000Y1090000D01*
X3323000Y1096000D01*
X3317000Y1103000D01*
X3314000Y1110000D01*
Y1117000D01*
X3317000Y1124000D01*
X3321500Y1130000D01*
X3327500Y1135000D01*
G01X3404000Y1160000D02*
X3314000D01*
Y1200000D01*
G01X3404000Y1278000D02*
Y1302000D01*
G01Y1290000D02*
X3314000D01*
G01Y1278000D02*
Y1302000D01*
G01X3389000Y1341000D02*
X3398000Y1347000D01*
X3402500Y1354000D01*
X3404000Y1362000D01*
X3401000Y1372000D01*
X3393500Y1379000D01*
X3384500Y1381000D01*
X3375500Y1380000D01*
X3368000Y1376000D01*
X3353000Y1356000D01*
X3342500Y1347000D01*
X3327500Y1341000D01*
X3314000Y1339000D01*
Y1381000D01*
G01X3396500Y1452000D02*
X3401000Y1446000D01*
X3404000Y1439000D01*
Y1431000D01*
X3399500Y1422000D01*
X3392000Y1415000D01*
X3383000Y1410000D01*
X3368000Y1406000D01*
X3354500Y1405000D01*
X3341000Y1407000D01*
X3332000Y1410000D01*
X3323000Y1416000D01*
X3317000Y1423000D01*
X3314000Y1430000D01*
Y1437000D01*
X3317000Y1444000D01*
X3321500Y1450000D01*
X3327500Y1455000D01*
G01X3389000Y1481000D02*
X3398000Y1487000D01*
X3402500Y1494000D01*
X3404000Y1502000D01*
X3401000Y1512000D01*
X3393500Y1519000D01*
X3384500Y1521000D01*
X3375500Y1520000D01*
X3368000Y1516000D01*
X3353000Y1496000D01*
X3342500Y1487000D01*
X3327500Y1481000D01*
X3314000Y1479000D01*
Y1521000D01*
G01X3284000Y1540000D02*
Y1600000D01*
G01X3326000Y1619000D02*
X3318500Y1627000D01*
X3314000Y1636000D01*
Y1644000D01*
X3318500Y1652000D01*
X3326000Y1658000D01*
X3336500Y1661000D01*
X3347000Y1659000D01*
X3356000Y1654000D01*
X3362000Y1645000D01*
X3365000Y1633000D01*
X3371000Y1626000D01*
X3381500Y1623000D01*
X3392000Y1625000D01*
X3399500Y1630000D01*
X3404000Y1637000D01*
Y1644000D01*
X3401000Y1651000D01*
X3393500Y1657000D01*
G01X3314000Y1688000D02*
X3404000D01*
Y1708000D01*
X3399500Y1716000D01*
X3393500Y1722000D01*
X3384500Y1727000D01*
X3374000Y1731000D01*
X3359000Y1732000D01*
X3344000Y1731000D01*
X3333500Y1727000D01*
X3324500Y1722000D01*
X3318500Y1716000D01*
X3314000Y1708000D01*
Y1688000D01*
G01Y1755000D02*
X3404000Y1780000D01*
X3314000Y1805000D01*
G01X3345500Y1796000D02*
Y1764000D01*
G01X3904500Y712000D02*
X3909000Y706000D01*
X3912000Y699000D01*
Y691000D01*
X3907500Y682000D01*
X3900000Y675000D01*
X3891000Y670000D01*
X3876000Y666000D01*
X3862500Y665000D01*
X3849000Y667000D01*
X3840000Y670000D01*
X3831000Y676000D01*
X3825000Y683000D01*
X3822000Y690000D01*
Y697000D01*
X3825000Y704000D01*
X3829500Y710000D01*
X3835500Y715000D01*
G01X3834000Y739000D02*
X3826500Y747000D01*
X3822000Y756000D01*
Y764000D01*
X3826500Y772000D01*
X3834000Y778000D01*
X3844500Y781000D01*
X3855000Y779000D01*
X3864000Y774000D01*
X3870000Y765000D01*
X3873000Y753000D01*
X3879000Y746000D01*
X3889500Y743000D01*
X3900000Y745000D01*
X3907500Y750000D01*
X3912000Y757000D01*
Y764000D01*
X3909000Y771000D01*
X3901500Y777000D01*
G01X3912000Y818000D02*
Y842000D01*
G01Y830000D02*
X3822000D01*
G01Y818000D02*
Y842000D01*
G01X3792000Y870000D02*
Y930000D01*
G01X3822000Y948000D02*
X3912000D01*
Y968000D01*
X3907500Y976000D01*
X3901500Y982000D01*
X3892500Y987000D01*
X3882000Y991000D01*
X3867000Y992000D01*
X3852000Y991000D01*
X3841500Y987000D01*
X3832500Y982000D01*
X3826500Y976000D01*
X3822000Y968000D01*
Y948000D01*
G01Y1038000D02*
X3841500Y1040000D01*
X3858000Y1043000D01*
X3873000Y1047000D01*
X3889500Y1052000D01*
X3912000Y1060000D01*
Y1020000D01*
G01X3650500Y712000D02*
X3655000Y706000D01*
X3658000Y699000D01*
Y691000D01*
X3653500Y682000D01*
X3646000Y675000D01*
X3637000Y670000D01*
X3622000Y666000D01*
X3608500Y665000D01*
X3595000Y667000D01*
X3586000Y670000D01*
X3577000Y676000D01*
X3571000Y683000D01*
X3568000Y690000D01*
Y697000D01*
X3571000Y704000D01*
X3575500Y710000D01*
X3581500Y715000D01*
G01X3580000Y739000D02*
X3572500Y747000D01*
X3568000Y756000D01*
Y764000D01*
X3572500Y772000D01*
X3580000Y778000D01*
X3590500Y781000D01*
X3601000Y779000D01*
X3610000Y774000D01*
X3616000Y765000D01*
X3619000Y753000D01*
X3625000Y746000D01*
X3635500Y743000D01*
X3646000Y745000D01*
X3653500Y750000D01*
X3658000Y757000D01*
Y764000D01*
X3655000Y771000D01*
X3647500Y777000D01*
G01X3658000Y818000D02*
Y842000D01*
G01Y830000D02*
X3568000D01*
G01Y818000D02*
Y842000D01*
G01X3538000Y870000D02*
Y930000D01*
G01X3568000Y948000D02*
X3658000D01*
Y968000D01*
X3653500Y976000D01*
X3647500Y982000D01*
X3638500Y987000D01*
X3628000Y991000D01*
X3613000Y992000D01*
X3598000Y991000D01*
X3587500Y987000D01*
X3578500Y982000D01*
X3572500Y976000D01*
X3568000Y968000D01*
Y948000D01*
G01Y1052000D02*
X3658000D01*
X3593500Y1015000D01*
Y1065000D01*
G01X3904500Y1312000D02*
X3909000Y1306000D01*
X3912000Y1299000D01*
Y1291000D01*
X3907500Y1282000D01*
X3900000Y1275000D01*
X3891000Y1270000D01*
X3876000Y1266000D01*
X3862500Y1265000D01*
X3849000Y1267000D01*
X3840000Y1270000D01*
X3831000Y1276000D01*
X3825000Y1283000D01*
X3822000Y1290000D01*
Y1297000D01*
X3825000Y1304000D01*
X3829500Y1310000D01*
X3835500Y1315000D01*
G01X3834000Y1339000D02*
X3826500Y1347000D01*
X3822000Y1356000D01*
Y1364000D01*
X3826500Y1372000D01*
X3834000Y1378000D01*
X3844500Y1381000D01*
X3855000Y1379000D01*
X3864000Y1374000D01*
X3870000Y1365000D01*
X3873000Y1353000D01*
X3879000Y1346000D01*
X3889500Y1343000D01*
X3900000Y1345000D01*
X3907500Y1350000D01*
X3912000Y1357000D01*
Y1364000D01*
X3909000Y1371000D01*
X3901500Y1377000D01*
G01X3912000Y1418000D02*
Y1442000D01*
G01Y1430000D02*
X3822000D01*
G01Y1418000D02*
Y1442000D01*
G01X3792000Y1470000D02*
Y1530000D01*
G01X3822000Y1548000D02*
X3912000D01*
Y1568000D01*
X3907500Y1576000D01*
X3901500Y1582000D01*
X3892500Y1587000D01*
X3882000Y1591000D01*
X3867000Y1592000D01*
X3852000Y1591000D01*
X3841500Y1587000D01*
X3832500Y1582000D01*
X3826500Y1576000D01*
X3822000Y1568000D01*
Y1548000D01*
G01X3859500Y1621000D02*
X3870000Y1628000D01*
X3876000Y1634000D01*
X3879000Y1642000D01*
X3876000Y1649000D01*
X3870000Y1654000D01*
X3861000Y1658000D01*
X3850500Y1659000D01*
X3841500Y1658000D01*
X3832500Y1654000D01*
X3825000Y1648000D01*
X3822000Y1641000D01*
X3825000Y1633000D01*
X3834000Y1626000D01*
X3847500Y1622000D01*
X3862500Y1621000D01*
X3882000Y1623000D01*
X3892500Y1626000D01*
X3903000Y1631000D01*
X3910500Y1638000D01*
X3912000Y1645000D01*
X3909000Y1652000D01*
X3901500Y1657000D01*
G01X3650500Y1312000D02*
X3655000Y1306000D01*
X3658000Y1299000D01*
Y1291000D01*
X3653500Y1282000D01*
X3646000Y1275000D01*
X3637000Y1270000D01*
X3622000Y1266000D01*
X3608500Y1265000D01*
X3595000Y1267000D01*
X3586000Y1270000D01*
X3577000Y1276000D01*
X3571000Y1283000D01*
X3568000Y1290000D01*
Y1297000D01*
X3571000Y1304000D01*
X3575500Y1310000D01*
X3581500Y1315000D01*
G01X3580000Y1339000D02*
X3572500Y1347000D01*
X3568000Y1356000D01*
Y1364000D01*
X3572500Y1372000D01*
X3580000Y1378000D01*
X3590500Y1381000D01*
X3601000Y1379000D01*
X3610000Y1374000D01*
X3616000Y1365000D01*
X3619000Y1353000D01*
X3625000Y1346000D01*
X3635500Y1343000D01*
X3646000Y1345000D01*
X3653500Y1350000D01*
X3658000Y1357000D01*
Y1364000D01*
X3655000Y1371000D01*
X3647500Y1377000D01*
G01X3658000Y1418000D02*
Y1442000D01*
G01Y1430000D02*
X3568000D01*
G01Y1418000D02*
Y1442000D01*
G01X3538000Y1470000D02*
Y1530000D01*
G01X3568000Y1548000D02*
X3658000D01*
Y1568000D01*
X3653500Y1576000D01*
X3647500Y1582000D01*
X3638500Y1587000D01*
X3628000Y1591000D01*
X3613000Y1592000D01*
X3598000Y1591000D01*
X3587500Y1587000D01*
X3578500Y1582000D01*
X3572500Y1576000D01*
X3568000Y1568000D01*
Y1548000D01*
G01X3581500Y1618000D02*
X3574000Y1624000D01*
X3569500Y1631000D01*
X3568000Y1640000D01*
X3571000Y1649000D01*
X3577000Y1656000D01*
X3587500Y1661000D01*
X3599500Y1662000D01*
X3611500Y1660000D01*
X3619000Y1655000D01*
X3625000Y1648000D01*
X3626500Y1641000D01*
X3625000Y1634000D01*
X3619000Y1625000D01*
X3658000Y1628000D01*
Y1655000D01*
G01X4330000Y667000D02*
X4420000D01*
X4330000Y713000D01*
X4420000D01*
G01X4412500Y782000D02*
X4417000Y776000D01*
X4420000Y769000D01*
Y761000D01*
X4415500Y752000D01*
X4408000Y745000D01*
X4399000Y740000D01*
X4384000Y736000D01*
X4370500Y735000D01*
X4357000Y737000D01*
X4348000Y740000D01*
X4339000Y746000D01*
X4333000Y753000D01*
X4330000Y760000D01*
Y767000D01*
X4333000Y774000D01*
X4337500Y780000D01*
X4343500Y785000D01*
G01X4076000Y667000D02*
X4166000D01*
X4076000Y713000D01*
X4166000D01*
G01X4158500Y782000D02*
X4163000Y776000D01*
X4166000Y769000D01*
Y761000D01*
X4161500Y752000D01*
X4154000Y745000D01*
X4145000Y740000D01*
X4130000Y736000D01*
X4116500Y735000D01*
X4103000Y737000D01*
X4094000Y740000D01*
X4085000Y746000D01*
X4079000Y753000D01*
X4076000Y760000D01*
Y767000D01*
X4079000Y774000D01*
X4083500Y780000D01*
X4089500Y785000D01*
G01X4330000Y1267000D02*
X4420000D01*
X4330000Y1313000D01*
X4420000D01*
G01X4412500Y1382000D02*
X4417000Y1376000D01*
X4420000Y1369000D01*
Y1361000D01*
X4415500Y1352000D01*
X4408000Y1345000D01*
X4399000Y1340000D01*
X4384000Y1336000D01*
X4370500Y1335000D01*
X4357000Y1337000D01*
X4348000Y1340000D01*
X4339000Y1346000D01*
X4333000Y1353000D01*
X4330000Y1360000D01*
Y1367000D01*
X4333000Y1374000D01*
X4337500Y1380000D01*
X4343500Y1385000D01*
G01X4121000Y1296000D02*
Y1316000D01*
X4094000D01*
X4085000Y1310000D01*
X4079000Y1303000D01*
X4076000Y1293000D01*
X4079000Y1283000D01*
X4085000Y1276000D01*
X4094000Y1270000D01*
X4104500Y1266000D01*
X4116500Y1264000D01*
X4127000D01*
X4136000Y1266000D01*
X4146500Y1270000D01*
X4155500Y1276000D01*
X4161500Y1282000D01*
X4166000Y1290000D01*
Y1297000D01*
X4163000Y1305000D01*
X4157000Y1311000D01*
G01X4508650Y2285890D02*
X4516650Y2287390D01*
X4523650Y2293390D01*
X4529650Y2302390D01*
X4533650Y2312890D01*
X4535650Y2324890D01*
Y2336890D01*
X4533650Y2348890D01*
X4529650Y2359390D01*
X4523650Y2368390D01*
X4516650Y2374390D01*
X4508650Y2375890D01*
X4500650Y2374390D01*
X4493650Y2368390D01*
X4487650Y2359390D01*
X4483650Y2348890D01*
X4481650Y2336890D01*
Y2324890D01*
X4483650Y2312890D01*
X4487650Y2302390D01*
X4493650Y2293390D01*
X4500650Y2287390D01*
X4508650Y2285890D01*
G01X4500650Y2309890D02*
X4488650Y2285890D01*
G01X4438650D02*
Y2375890D01*
X4450650Y2357890D01*
G01Y2285890D02*
X4426650D01*
G01X4508650Y2660000D02*
X4516650Y2661500D01*
X4523650Y2667500D01*
X4529650Y2676500D01*
X4533650Y2687000D01*
X4535650Y2699000D01*
Y2711000D01*
X4533650Y2723000D01*
X4529650Y2733500D01*
X4523650Y2742500D01*
X4516650Y2748500D01*
X4508650Y2750000D01*
X4500650Y2748500D01*
X4493650Y2742500D01*
X4487650Y2733500D01*
X4483650Y2723000D01*
X4481650Y2711000D01*
Y2699000D01*
X4483650Y2687000D01*
X4487650Y2676500D01*
X4493650Y2667500D01*
X4500650Y2661500D01*
X4508650Y2660000D01*
G01X4500650Y2684000D02*
X4488650Y2660000D01*
G01X4460650Y2678000D02*
X4454650Y2667500D01*
X4446650Y2661500D01*
X4437650Y2660000D01*
X4429650Y2661500D01*
X4421650Y2669000D01*
X4416650Y2678000D01*
X4415650Y2687000D01*
X4417650Y2697500D01*
X4424650Y2705000D01*
X4431650Y2708000D01*
X4440650D01*
G01X4431650D02*
X4425650Y2712500D01*
X4420650Y2720000D01*
X4418650Y2729000D01*
X4420650Y2738000D01*
X4425650Y2745500D01*
X4434650Y2750000D01*
X4443650Y2748500D01*
X4452650Y2742500D01*
G01X4680000Y5870000D02*
Y5960000D01*
X4655000D01*
X4647000Y5955500D01*
X4642000Y5949500D01*
X4640000Y5937500D01*
X4642000Y5925500D01*
X4648000Y5918000D01*
X4655000Y5913500D01*
X4680000D01*
G01X4655000D02*
X4640000Y5870000D01*
G01X4609000Y5907500D02*
X4602000Y5918000D01*
X4596000Y5924000D01*
X4588000Y5927000D01*
X4581000Y5924000D01*
X4576000Y5918000D01*
X4572000Y5909000D01*
X4571000Y5898500D01*
X4572000Y5889500D01*
X4576000Y5880500D01*
X4582000Y5873000D01*
X4589000Y5870000D01*
X4597000Y5873000D01*
X4604000Y5882000D01*
X4608000Y5895500D01*
X4609000Y5910500D01*
X4607000Y5930000D01*
X4604000Y5940500D01*
X4599000Y5951000D01*
X4592000Y5958500D01*
X4585000Y5960000D01*
X4578000Y5957000D01*
X4573000Y5949500D01*
G01X4520000Y5870000D02*
X4513000Y5871500D01*
X4505000Y5876000D01*
X4500000Y5883500D01*
X4498000Y5894000D01*
X4500000Y5904500D01*
X4506000Y5913500D01*
X4515000Y5918000D01*
X4525000D01*
X4531000Y5921000D01*
X4536000Y5928500D01*
X4538000Y5939000D01*
X4535000Y5949500D01*
X4528000Y5957000D01*
X4520000Y5960000D01*
X4512000Y5957000D01*
X4505000Y5949500D01*
X4502000Y5939000D01*
X4504000Y5928500D01*
X4509000Y5921000D01*
X4515000Y5918000D01*
X4525000D01*
X4534000Y5913500D01*
X4540000Y5904500D01*
X4542000Y5894000D01*
X4540000Y5883500D01*
X4535000Y5876000D01*
X4527000Y5871500D01*
X4520000Y5870000D01*
G01X4410000Y6160000D02*
X4500000D01*
Y6185000D01*
X4495500Y6193000D01*
X4489500Y6198000D01*
X4477500Y6200000D01*
X4465500Y6198000D01*
X4458000Y6192000D01*
X4453500Y6185000D01*
Y6160000D01*
G01Y6185000D02*
X4410000Y6200000D01*
G01X4447500Y6231000D02*
X4458000Y6238000D01*
X4464000Y6244000D01*
X4467000Y6252000D01*
X4464000Y6259000D01*
X4458000Y6264000D01*
X4449000Y6268000D01*
X4438500Y6269000D01*
X4429500Y6268000D01*
X4420500Y6264000D01*
X4413000Y6258000D01*
X4410000Y6251000D01*
X4413000Y6243000D01*
X4422000Y6236000D01*
X4435500Y6232000D01*
X4450500Y6231000D01*
X4470000Y6233000D01*
X4480500Y6236000D01*
X4491000Y6241000D01*
X4498500Y6248000D01*
X4500000Y6255000D01*
X4497000Y6262000D01*
X4489500Y6267000D01*
G01X4410000Y6318000D02*
X4429500Y6320000D01*
X4446000Y6323000D01*
X4461000Y6327000D01*
X4477500Y6332000D01*
X4500000Y6340000D01*
Y6300000D01*
G01X4928000Y668000D02*
X4863500D01*
X4850000Y672000D01*
X4841000Y680000D01*
X4838000Y690000D01*
X4841000Y700000D01*
X4850000Y708000D01*
X4863500Y712000D01*
X4928000D01*
G01X4838000Y758000D02*
X4857500Y760000D01*
X4874000Y763000D01*
X4889000Y767000D01*
X4905500Y772000D01*
X4928000Y780000D01*
Y740000D01*
G01X4808000Y800000D02*
Y860000D01*
G01X4928000Y900000D02*
X4838000D01*
G01X4928000Y877000D02*
Y923000D01*
G01X4838000Y949000D02*
X4928000Y991000D01*
G01Y949000D02*
X4838000Y991000D01*
G01Y1018000D02*
X4928000D01*
Y1038000D01*
X4923500Y1046000D01*
X4917500Y1052000D01*
X4908500Y1057000D01*
X4898000Y1061000D01*
X4883000Y1062000D01*
X4868000Y1061000D01*
X4857500Y1057000D01*
X4848500Y1052000D01*
X4842500Y1046000D01*
X4838000Y1038000D01*
Y1018000D01*
G01X4674000Y668000D02*
X4609500D01*
X4596000Y672000D01*
X4587000Y680000D01*
X4584000Y690000D01*
X4587000Y700000D01*
X4596000Y708000D01*
X4609500Y712000D01*
X4674000D01*
G01X4584000Y758000D02*
X4603500Y760000D01*
X4620000Y763000D01*
X4635000Y767000D01*
X4651500Y772000D01*
X4674000Y780000D01*
Y740000D01*
G01X4554000Y800000D02*
Y860000D01*
G01X4674000Y900000D02*
X4584000D01*
G01X4674000Y877000D02*
Y923000D01*
G01X4584000Y949000D02*
X4674000Y991000D01*
G01Y949000D02*
X4584000Y991000D01*
G01Y1018000D02*
X4674000D01*
Y1038000D01*
X4669500Y1046000D01*
X4663500Y1052000D01*
X4654500Y1057000D01*
X4644000Y1061000D01*
X4629000Y1062000D01*
X4614000Y1061000D01*
X4603500Y1057000D01*
X4594500Y1052000D01*
X4588500Y1046000D01*
X4584000Y1038000D01*
Y1018000D01*
G01X4928000Y1268000D02*
X4863500D01*
X4850000Y1272000D01*
X4841000Y1280000D01*
X4838000Y1290000D01*
X4841000Y1300000D01*
X4850000Y1308000D01*
X4863500Y1312000D01*
X4928000D01*
G01X4856000Y1338000D02*
X4845500Y1344000D01*
X4839500Y1352000D01*
X4838000Y1361000D01*
X4839500Y1369000D01*
X4847000Y1377000D01*
X4856000Y1382000D01*
X4865000Y1383000D01*
X4875500Y1381000D01*
X4883000Y1374000D01*
X4886000Y1367000D01*
Y1358000D01*
G01Y1367000D02*
X4890500Y1373000D01*
X4898000Y1378000D01*
X4907000Y1380000D01*
X4916000Y1378000D01*
X4923500Y1373000D01*
X4928000Y1364000D01*
X4926500Y1355000D01*
X4920500Y1346000D01*
G01X4808000Y1400000D02*
Y1460000D01*
G01X4838000Y1480000D02*
X4928000D01*
Y1505000D01*
X4923500Y1513000D01*
X4917500Y1518000D01*
X4905500Y1520000D01*
X4893500Y1518000D01*
X4886000Y1512000D01*
X4881500Y1505000D01*
Y1480000D01*
G01Y1505000D02*
X4838000Y1520000D01*
G01X4928000Y1570000D02*
X4838000D01*
G01X4928000Y1547000D02*
Y1593000D01*
G01X4850000Y1619000D02*
X4842500Y1627000D01*
X4838000Y1636000D01*
Y1644000D01*
X4842500Y1652000D01*
X4850000Y1658000D01*
X4860500Y1661000D01*
X4871000Y1659000D01*
X4880000Y1654000D01*
X4886000Y1645000D01*
X4889000Y1633000D01*
X4895000Y1626000D01*
X4905500Y1623000D01*
X4916000Y1625000D01*
X4923500Y1630000D01*
X4928000Y1637000D01*
Y1644000D01*
X4925000Y1651000D01*
X4917500Y1657000D01*
G01X4674000Y1268000D02*
X4609500D01*
X4596000Y1272000D01*
X4587000Y1280000D01*
X4584000Y1290000D01*
X4587000Y1300000D01*
X4596000Y1308000D01*
X4609500Y1312000D01*
X4674000D01*
G01X4584000Y1358000D02*
X4603500Y1360000D01*
X4620000Y1363000D01*
X4635000Y1367000D01*
X4651500Y1372000D01*
X4674000Y1380000D01*
Y1340000D01*
G01X4554000Y1400000D02*
Y1460000D01*
G01X4584000Y1480000D02*
X4674000D01*
Y1505000D01*
X4669500Y1513000D01*
X4663500Y1518000D01*
X4651500Y1520000D01*
X4639500Y1518000D01*
X4632000Y1512000D01*
X4627500Y1505000D01*
Y1480000D01*
G01Y1505000D02*
X4584000Y1520000D01*
G01Y1549000D02*
X4674000Y1591000D01*
G01Y1549000D02*
X4584000Y1591000D01*
G01Y1618000D02*
X4674000D01*
Y1638000D01*
X4669500Y1646000D01*
X4663500Y1652000D01*
X4654500Y1657000D01*
X4644000Y1661000D01*
X4629000Y1662000D01*
X4614000Y1661000D01*
X4603500Y1657000D01*
X4594500Y1652000D01*
X4588500Y1646000D01*
X4584000Y1638000D01*
Y1618000D01*
G01X5180000Y1892490D02*
Y1982490D01*
X5155000D01*
X5147000Y1977990D01*
X5142000Y1971990D01*
X5140000Y1959990D01*
X5142000Y1947990D01*
X5148000Y1940490D01*
X5155000Y1935990D01*
X5180000D01*
G01X5155000D02*
X5140000Y1892490D01*
G01X5112000Y1910490D02*
X5106000Y1899990D01*
X5098000Y1893990D01*
X5089000Y1892490D01*
X5081000Y1893990D01*
X5073000Y1901490D01*
X5068000Y1910490D01*
X5067000Y1919490D01*
X5069000Y1929990D01*
X5076000Y1937490D01*
X5083000Y1940490D01*
X5092000D01*
G01X5083000D02*
X5077000Y1944990D01*
X5072000Y1952490D01*
X5070000Y1961490D01*
X5072000Y1970490D01*
X5077000Y1977990D01*
X5086000Y1982490D01*
X5095000Y1980990D01*
X5104000Y1974990D01*
G01X5042000Y1910490D02*
X5036000Y1899990D01*
X5028000Y1893990D01*
X5019000Y1892490D01*
X5011000Y1893990D01*
X5003000Y1901490D01*
X4998000Y1910490D01*
X4997000Y1919490D01*
X4999000Y1929990D01*
X5006000Y1937490D01*
X5013000Y1940490D01*
X5022000D01*
G01X5013000D02*
X5007000Y1944990D01*
X5002000Y1952490D01*
X5000000Y1961490D01*
X5002000Y1970490D01*
X5007000Y1977990D01*
X5016000Y1982490D01*
X5025000Y1980990D01*
X5034000Y1974990D01*
G01X5180000Y1780000D02*
Y1870000D01*
X5155000D01*
X5147000Y1865500D01*
X5142000Y1859500D01*
X5140000Y1847500D01*
X5142000Y1835500D01*
X5148000Y1828000D01*
X5155000Y1823500D01*
X5180000D01*
G01X5155000D02*
X5140000Y1780000D01*
G01X5112000Y1798000D02*
X5106000Y1787500D01*
X5098000Y1781500D01*
X5089000Y1780000D01*
X5081000Y1781500D01*
X5073000Y1789000D01*
X5068000Y1798000D01*
X5067000Y1807000D01*
X5069000Y1817500D01*
X5076000Y1825000D01*
X5083000Y1828000D01*
X5092000D01*
G01X5083000D02*
X5077000Y1832500D01*
X5072000Y1840000D01*
X5070000Y1849000D01*
X5072000Y1858000D01*
X5077000Y1865500D01*
X5086000Y1870000D01*
X5095000Y1868500D01*
X5104000Y1862500D01*
G01X5008000Y1780000D02*
Y1870000D01*
X5045000Y1805500D01*
X4995000D01*
G01X4882000Y7130000D02*
Y7065500D01*
X4878000Y7052000D01*
X4870000Y7043000D01*
X4860000Y7040000D01*
X4850000Y7043000D01*
X4842000Y7052000D01*
X4838000Y7065500D01*
Y7130000D01*
G01X4809000Y7115000D02*
X4803000Y7124000D01*
X4796000Y7128500D01*
X4788000Y7130000D01*
X4778000Y7127000D01*
X4771000Y7119500D01*
X4769000Y7110500D01*
X4770000Y7101500D01*
X4774000Y7094000D01*
X4794000Y7079000D01*
X4803000Y7068500D01*
X4809000Y7053500D01*
X4811000Y7040000D01*
X4769000D01*
G01X4720000Y7130000D02*
X4728000Y7127000D01*
X4734000Y7119500D01*
X4738000Y7110500D01*
X4741000Y7098500D01*
X4742000Y7085000D01*
X4741000Y7071500D01*
X4738000Y7059500D01*
X4734000Y7050500D01*
X4728000Y7043000D01*
X4720000Y7040000D01*
X4712000Y7043000D01*
X4706000Y7050500D01*
X4702000Y7059500D01*
X4699000Y7071500D01*
X4698000Y7085000D01*
X4699000Y7098500D01*
X4702000Y7110500D01*
X4706000Y7119500D01*
X4712000Y7127000D01*
X4720000Y7130000D01*
G01X5618000Y668000D02*
X5607500Y674000D01*
X5601500Y682000D01*
X5600000Y691000D01*
X5601500Y699000D01*
X5609000Y707000D01*
X5618000Y712000D01*
X5627000Y713000D01*
X5637500Y711000D01*
X5645000Y704000D01*
X5648000Y697000D01*
Y688000D01*
G01Y697000D02*
X5652500Y703000D01*
X5660000Y708000D01*
X5669000Y710000D01*
X5678000Y708000D01*
X5685500Y703000D01*
X5690000Y694000D01*
X5688500Y685000D01*
X5682500Y676000D01*
G01X5690000Y735000D02*
X5600000Y760000D01*
X5690000Y785000D01*
G01X5618000Y808000D02*
X5607500Y814000D01*
X5601500Y822000D01*
X5600000Y831000D01*
X5601500Y839000D01*
X5609000Y847000D01*
X5618000Y852000D01*
X5627000Y853000D01*
X5637500Y851000D01*
X5645000Y844000D01*
X5648000Y837000D01*
Y828000D01*
G01Y837000D02*
X5652500Y843000D01*
X5660000Y848000D01*
X5669000Y850000D01*
X5678000Y848000D01*
X5685500Y843000D01*
X5690000Y834000D01*
X5688500Y825000D01*
X5682500Y816000D01*
G01X5346000Y667000D02*
X5436000D01*
X5346000Y713000D01*
X5436000D01*
G01X5428500Y782000D02*
X5433000Y776000D01*
X5436000Y769000D01*
Y761000D01*
X5431500Y752000D01*
X5424000Y745000D01*
X5415000Y740000D01*
X5400000Y736000D01*
X5386500Y735000D01*
X5373000Y737000D01*
X5364000Y740000D01*
X5355000Y746000D01*
X5349000Y753000D01*
X5346000Y760000D01*
Y767000D01*
X5349000Y774000D01*
X5353500Y780000D01*
X5359500Y785000D01*
G01X5182000Y668000D02*
X5117500D01*
X5104000Y672000D01*
X5095000Y680000D01*
X5092000Y690000D01*
X5095000Y700000D01*
X5104000Y708000D01*
X5117500Y712000D01*
X5182000D01*
G01X5110000Y738000D02*
X5099500Y744000D01*
X5093500Y752000D01*
X5092000Y761000D01*
X5093500Y769000D01*
X5101000Y777000D01*
X5110000Y782000D01*
X5119000Y783000D01*
X5129500Y781000D01*
X5137000Y774000D01*
X5140000Y767000D01*
Y758000D01*
G01Y767000D02*
X5144500Y773000D01*
X5152000Y778000D01*
X5161000Y780000D01*
X5170000Y778000D01*
X5177500Y773000D01*
X5182000Y764000D01*
X5180500Y755000D01*
X5174500Y746000D01*
G01X5062000Y800000D02*
Y860000D01*
G01X5092000Y880000D02*
X5182000D01*
Y905000D01*
X5177500Y913000D01*
X5171500Y918000D01*
X5159500Y920000D01*
X5147500Y918000D01*
X5140000Y912000D01*
X5135500Y905000D01*
Y880000D01*
G01Y905000D02*
X5092000Y920000D01*
G01Y949000D02*
X5182000Y991000D01*
G01Y949000D02*
X5092000Y991000D01*
G01Y1018000D02*
X5182000D01*
Y1038000D01*
X5177500Y1046000D01*
X5171500Y1052000D01*
X5162500Y1057000D01*
X5152000Y1061000D01*
X5137000Y1062000D01*
X5122000Y1061000D01*
X5111500Y1057000D01*
X5102500Y1052000D01*
X5096500Y1046000D01*
X5092000Y1038000D01*
Y1018000D01*
G01X5613500Y1268000D02*
X5606000Y1274000D01*
X5601500Y1281000D01*
X5600000Y1290000D01*
X5603000Y1299000D01*
X5609000Y1306000D01*
X5619500Y1311000D01*
X5631500Y1312000D01*
X5643500Y1310000D01*
X5651000Y1305000D01*
X5657000Y1298000D01*
X5658500Y1291000D01*
X5657000Y1284000D01*
X5651000Y1275000D01*
X5690000Y1278000D01*
Y1305000D01*
G01Y1335000D02*
X5600000Y1360000D01*
X5690000Y1385000D01*
G01X5391000Y1296000D02*
Y1316000D01*
X5364000D01*
X5355000Y1310000D01*
X5349000Y1303000D01*
X5346000Y1293000D01*
X5349000Y1283000D01*
X5355000Y1276000D01*
X5364000Y1270000D01*
X5374500Y1266000D01*
X5386500Y1264000D01*
X5397000D01*
X5406000Y1266000D01*
X5416500Y1270000D01*
X5425500Y1276000D01*
X5431500Y1282000D01*
X5436000Y1290000D01*
Y1297000D01*
X5433000Y1305000D01*
X5427000Y1311000D01*
G01X5182000Y1268000D02*
X5117500D01*
X5104000Y1272000D01*
X5095000Y1280000D01*
X5092000Y1290000D01*
X5095000Y1300000D01*
X5104000Y1308000D01*
X5117500Y1312000D01*
X5182000D01*
G01X5110000Y1338000D02*
X5099500Y1344000D01*
X5093500Y1352000D01*
X5092000Y1361000D01*
X5093500Y1369000D01*
X5101000Y1377000D01*
X5110000Y1382000D01*
X5119000Y1383000D01*
X5129500Y1381000D01*
X5137000Y1374000D01*
X5140000Y1367000D01*
Y1358000D01*
G01Y1367000D02*
X5144500Y1373000D01*
X5152000Y1378000D01*
X5161000Y1380000D01*
X5170000Y1378000D01*
X5177500Y1373000D01*
X5182000Y1364000D01*
X5180500Y1355000D01*
X5174500Y1346000D01*
G01X5062000Y1400000D02*
Y1460000D01*
G01X5182000Y1500000D02*
X5092000D01*
G01X5182000Y1477000D02*
Y1523000D01*
G01X5092000Y1549000D02*
X5182000Y1591000D01*
G01Y1549000D02*
X5092000Y1591000D01*
G01Y1618000D02*
X5182000D01*
Y1638000D01*
X5177500Y1646000D01*
X5171500Y1652000D01*
X5162500Y1657000D01*
X5152000Y1661000D01*
X5137000Y1662000D01*
X5122000Y1661000D01*
X5111500Y1657000D01*
X5102500Y1652000D01*
X5096500Y1646000D01*
X5092000Y1638000D01*
Y1618000D01*
G01X5445000Y1890000D02*
X5453000Y1891500D01*
X5460000Y1897500D01*
X5466000Y1906500D01*
X5470000Y1917000D01*
X5472000Y1929000D01*
Y1941000D01*
X5470000Y1953000D01*
X5466000Y1963500D01*
X5460000Y1972500D01*
X5453000Y1978500D01*
X5445000Y1980000D01*
X5437000Y1978500D01*
X5430000Y1972500D01*
X5424000Y1963500D01*
X5420000Y1953000D01*
X5418000Y1941000D01*
Y1929000D01*
X5420000Y1917000D01*
X5424000Y1906500D01*
X5430000Y1897500D01*
X5437000Y1891500D01*
X5445000Y1890000D01*
G01X5437000Y1914000D02*
X5425000Y1890000D01*
G01X5394000Y1965000D02*
X5388000Y1974000D01*
X5381000Y1978500D01*
X5373000Y1980000D01*
X5363000Y1977000D01*
X5356000Y1969500D01*
X5354000Y1960500D01*
X5355000Y1951500D01*
X5359000Y1944000D01*
X5379000Y1929000D01*
X5388000Y1918500D01*
X5394000Y1903500D01*
X5396000Y1890000D01*
X5354000D01*
G01X5400000Y2429000D02*
Y2519000D01*
X5375000D01*
X5367000Y2514500D01*
X5362000Y2508500D01*
X5360000Y2496500D01*
X5362000Y2484500D01*
X5368000Y2477000D01*
X5375000Y2472500D01*
X5400000D01*
G01X5375000D02*
X5360000Y2429000D01*
G01X5332000Y2447000D02*
X5326000Y2436500D01*
X5318000Y2430500D01*
X5309000Y2429000D01*
X5301000Y2430500D01*
X5293000Y2438000D01*
X5288000Y2447000D01*
X5287000Y2456000D01*
X5289000Y2466500D01*
X5296000Y2474000D01*
X5303000Y2477000D01*
X5312000D01*
G01X5303000D02*
X5297000Y2481500D01*
X5292000Y2489000D01*
X5290000Y2498000D01*
X5292000Y2507000D01*
X5297000Y2514500D01*
X5306000Y2519000D01*
X5315000Y2517500D01*
X5324000Y2511500D01*
G01X5259000Y2504000D02*
X5253000Y2513000D01*
X5246000Y2517500D01*
X5238000Y2519000D01*
X5228000Y2516000D01*
X5221000Y2508500D01*
X5219000Y2499500D01*
X5220000Y2490500D01*
X5224000Y2483000D01*
X5244000Y2468000D01*
X5253000Y2457500D01*
X5259000Y2442500D01*
X5261000Y2429000D01*
X5219000D01*
G01X5400000Y2616600D02*
Y2706600D01*
X5375000D01*
X5367000Y2702100D01*
X5362000Y2696100D01*
X5360000Y2684100D01*
X5362000Y2672100D01*
X5368000Y2664600D01*
X5375000Y2660100D01*
X5400000D01*
G01X5375000D02*
X5360000Y2616600D01*
G01X5332000Y2634600D02*
X5326000Y2624100D01*
X5318000Y2618100D01*
X5309000Y2616600D01*
X5301000Y2618100D01*
X5293000Y2625600D01*
X5288000Y2634600D01*
X5287000Y2643600D01*
X5289000Y2654100D01*
X5296000Y2661600D01*
X5303000Y2664600D01*
X5312000D01*
G01X5303000D02*
X5297000Y2669100D01*
X5292000Y2676600D01*
X5290000Y2685600D01*
X5292000Y2694600D01*
X5297000Y2702100D01*
X5306000Y2706600D01*
X5315000Y2705100D01*
X5324000Y2699100D01*
G01X5262000Y2630100D02*
X5256000Y2622600D01*
X5249000Y2618100D01*
X5240000Y2616600D01*
X5231000Y2619600D01*
X5224000Y2625600D01*
X5219000Y2636100D01*
X5218000Y2648100D01*
X5220000Y2660100D01*
X5225000Y2667600D01*
X5232000Y2673600D01*
X5239000Y2675100D01*
X5246000Y2673600D01*
X5255000Y2667600D01*
X5252000Y2706600D01*
X5225000D01*
G01X5408000Y3373400D02*
X5414000Y3377900D01*
X5421000Y3380900D01*
X5429000D01*
X5438000Y3376400D01*
X5445000Y3368900D01*
X5450000Y3359900D01*
X5454000Y3344900D01*
X5455000Y3331400D01*
X5453000Y3317900D01*
X5450000Y3308900D01*
X5444000Y3299900D01*
X5437000Y3293900D01*
X5430000Y3290900D01*
X5423000D01*
X5416000Y3293900D01*
X5410000Y3298400D01*
X5405000Y3304400D01*
G01X5360000Y3290900D02*
Y3380900D01*
X5372000Y3362900D01*
G01Y3290900D02*
X5348000D01*
G01X5312000Y3304400D02*
X5306000Y3296900D01*
X5299000Y3292400D01*
X5290000Y3290900D01*
X5281000Y3293900D01*
X5274000Y3299900D01*
X5269000Y3310400D01*
X5268000Y3322400D01*
X5270000Y3334400D01*
X5275000Y3341900D01*
X5282000Y3347900D01*
X5289000Y3349400D01*
X5296000Y3347900D01*
X5305000Y3341900D01*
X5302000Y3380900D01*
X5275000D01*
G01X5408000Y3537500D02*
X5414000Y3542000D01*
X5421000Y3545000D01*
X5429000D01*
X5438000Y3540500D01*
X5445000Y3533000D01*
X5450000Y3524000D01*
X5454000Y3509000D01*
X5455000Y3495500D01*
X5453000Y3482000D01*
X5450000Y3473000D01*
X5444000Y3464000D01*
X5437000Y3458000D01*
X5430000Y3455000D01*
X5423000D01*
X5416000Y3458000D01*
X5410000Y3462500D01*
X5405000Y3468500D01*
G01X5360000Y3455000D02*
Y3545000D01*
X5372000Y3527000D01*
G01Y3455000D02*
X5348000D01*
G01X5278000D02*
Y3545000D01*
X5315000Y3480500D01*
X5265000D01*
G01X5408000Y3222500D02*
X5414000Y3227000D01*
X5421000Y3230000D01*
X5429000D01*
X5438000Y3225500D01*
X5445000Y3218000D01*
X5450000Y3209000D01*
X5454000Y3194000D01*
X5455000Y3180500D01*
X5453000Y3167000D01*
X5450000Y3158000D01*
X5444000Y3149000D01*
X5437000Y3143000D01*
X5430000Y3140000D01*
X5423000D01*
X5416000Y3143000D01*
X5410000Y3147500D01*
X5405000Y3153500D01*
G01X5360000Y3140000D02*
Y3230000D01*
X5372000Y3212000D01*
G01Y3140000D02*
X5348000D01*
G01X5312000Y3158000D02*
X5306000Y3147500D01*
X5298000Y3141500D01*
X5289000Y3140000D01*
X5281000Y3141500D01*
X5273000Y3149000D01*
X5268000Y3158000D01*
X5267000Y3167000D01*
X5269000Y3177500D01*
X5276000Y3185000D01*
X5283000Y3188000D01*
X5292000D01*
G01X5283000D02*
X5277000Y3192500D01*
X5272000Y3200000D01*
X5270000Y3209000D01*
X5272000Y3218000D01*
X5277000Y3225500D01*
X5286000Y3230000D01*
X5295000Y3228500D01*
X5304000Y3222500D01*
G01X5347000Y5980000D02*
Y5915500D01*
X5343000Y5902000D01*
X5335000Y5893000D01*
X5325000Y5890000D01*
X5315000Y5893000D01*
X5307000Y5902000D01*
X5303000Y5915500D01*
Y5980000D01*
G01X5255000Y5890000D02*
Y5980000D01*
X5267000Y5962000D01*
G01Y5890000D02*
X5243000D01*
G01X5202000Y5900500D02*
X5195000Y5893000D01*
X5187000Y5890000D01*
X5179000Y5893000D01*
X5172000Y5902000D01*
X5167000Y5915500D01*
X5165000Y5929000D01*
Y5945500D01*
X5167000Y5959000D01*
X5172000Y5971000D01*
X5178000Y5977000D01*
X5185000Y5980000D01*
X5193000Y5977000D01*
X5199000Y5971000D01*
X5203000Y5962000D01*
X5205000Y5950000D01*
X5203000Y5939500D01*
X5198000Y5929000D01*
X5192000Y5923000D01*
X5185000Y5921500D01*
X5177000Y5924500D01*
X5171000Y5932000D01*
X5165000Y5945500D01*
G01X5688000Y6102500D02*
X5694000Y6107000D01*
X5701000Y6110000D01*
X5709000D01*
X5718000Y6105500D01*
X5725000Y6098000D01*
X5730000Y6089000D01*
X5734000Y6074000D01*
X5735000Y6060500D01*
X5733000Y6047000D01*
X5730000Y6038000D01*
X5724000Y6029000D01*
X5717000Y6023000D01*
X5710000Y6020000D01*
X5703000D01*
X5696000Y6023000D01*
X5690000Y6027500D01*
X5685000Y6033500D01*
G01X5659000Y6057500D02*
X5652000Y6068000D01*
X5646000Y6074000D01*
X5638000Y6077000D01*
X5631000Y6074000D01*
X5626000Y6068000D01*
X5622000Y6059000D01*
X5621000Y6048500D01*
X5622000Y6039500D01*
X5626000Y6030500D01*
X5632000Y6023000D01*
X5639000Y6020000D01*
X5647000Y6023000D01*
X5654000Y6032000D01*
X5658000Y6045500D01*
X5659000Y6060500D01*
X5657000Y6080000D01*
X5654000Y6090500D01*
X5649000Y6101000D01*
X5642000Y6108500D01*
X5635000Y6110000D01*
X5628000Y6107000D01*
X5623000Y6099500D01*
G01X5570000Y6020000D02*
Y6110000D01*
X5582000Y6092000D01*
G01Y6020000D02*
X5558000D01*
G01X5660000Y7075000D02*
Y7165000D01*
X5635000D01*
X5627000Y7160500D01*
X5622000Y7154500D01*
X5620000Y7142500D01*
X5622000Y7130500D01*
X5628000Y7123000D01*
X5635000Y7118500D01*
X5660000D01*
G01X5635000D02*
X5620000Y7075000D01*
G01X5589000Y7112500D02*
X5582000Y7123000D01*
X5576000Y7129000D01*
X5568000Y7132000D01*
X5561000Y7129000D01*
X5556000Y7123000D01*
X5552000Y7114000D01*
X5551000Y7103500D01*
X5552000Y7094500D01*
X5556000Y7085500D01*
X5562000Y7078000D01*
X5569000Y7075000D01*
X5577000Y7078000D01*
X5584000Y7087000D01*
X5588000Y7100500D01*
X5589000Y7115500D01*
X5587000Y7135000D01*
X5584000Y7145500D01*
X5579000Y7156000D01*
X5572000Y7163500D01*
X5565000Y7165000D01*
X5558000Y7162000D01*
X5553000Y7154500D01*
G01X5519000Y7112500D02*
X5512000Y7123000D01*
X5506000Y7129000D01*
X5498000Y7132000D01*
X5491000Y7129000D01*
X5486000Y7123000D01*
X5482000Y7114000D01*
X5481000Y7103500D01*
X5482000Y7094500D01*
X5486000Y7085500D01*
X5492000Y7078000D01*
X5499000Y7075000D01*
X5507000Y7078000D01*
X5514000Y7087000D01*
X5518000Y7100500D01*
X5519000Y7115500D01*
X5517000Y7135000D01*
X5514000Y7145500D01*
X5509000Y7156000D01*
X5502000Y7163500D01*
X5495000Y7165000D01*
X5488000Y7162000D01*
X5483000Y7154500D01*
G01X5830000Y5920000D02*
X5920000D01*
Y5945000D01*
X5915500Y5953000D01*
X5909500Y5958000D01*
X5897500Y5960000D01*
X5885500Y5958000D01*
X5878000Y5952000D01*
X5873500Y5945000D01*
Y5920000D01*
G01Y5945000D02*
X5830000Y5960000D01*
G01X5867500Y5991000D02*
X5878000Y5998000D01*
X5884000Y6004000D01*
X5887000Y6012000D01*
X5884000Y6019000D01*
X5878000Y6024000D01*
X5869000Y6028000D01*
X5858500Y6029000D01*
X5849500Y6028000D01*
X5840500Y6024000D01*
X5833000Y6018000D01*
X5830000Y6011000D01*
X5833000Y6003000D01*
X5842000Y5996000D01*
X5855500Y5992000D01*
X5870500Y5991000D01*
X5890000Y5993000D01*
X5900500Y5996000D01*
X5911000Y6001000D01*
X5918500Y6008000D01*
X5920000Y6015000D01*
X5917000Y6022000D01*
X5909500Y6027000D01*
G01X5830000Y6092000D02*
X5920000D01*
X5855500Y6055000D01*
Y6105000D01*
G01X5970000Y7075000D02*
Y7165000D01*
X5945000D01*
X5937000Y7160500D01*
X5932000Y7154500D01*
X5930000Y7142500D01*
X5932000Y7130500D01*
X5938000Y7123000D01*
X5945000Y7118500D01*
X5970000D01*
G01X5945000D02*
X5930000Y7075000D01*
G01X5899000Y7112500D02*
X5892000Y7123000D01*
X5886000Y7129000D01*
X5878000Y7132000D01*
X5871000Y7129000D01*
X5866000Y7123000D01*
X5862000Y7114000D01*
X5861000Y7103500D01*
X5862000Y7094500D01*
X5866000Y7085500D01*
X5872000Y7078000D01*
X5879000Y7075000D01*
X5887000Y7078000D01*
X5894000Y7087000D01*
X5898000Y7100500D01*
X5899000Y7115500D01*
X5897000Y7135000D01*
X5894000Y7145500D01*
X5889000Y7156000D01*
X5882000Y7163500D01*
X5875000Y7165000D01*
X5868000Y7162000D01*
X5863000Y7154500D01*
G01X5829000Y7150000D02*
X5823000Y7159000D01*
X5816000Y7163500D01*
X5808000Y7165000D01*
X5798000Y7162000D01*
X5791000Y7154500D01*
X5789000Y7145500D01*
X5790000Y7136500D01*
X5794000Y7129000D01*
X5814000Y7114000D01*
X5823000Y7103500D01*
X5829000Y7088500D01*
X5831000Y7075000D01*
X5789000D01*
G01X6566540Y255000D02*
Y345000D01*
X6528540D01*
G01X6542540Y301500D02*
X6566540D01*
G01X6496540Y330000D02*
X6490540Y339000D01*
X6483540Y343500D01*
X6475540Y345000D01*
X6465540Y342000D01*
X6458540Y334500D01*
X6456540Y325500D01*
X6457540Y316500D01*
X6461540Y309000D01*
X6481540Y294000D01*
X6490540Y283500D01*
X6496540Y268500D01*
X6498540Y255000D01*
X6456540D01*
G01X6566540Y615000D02*
Y705000D01*
X6528540D01*
G01X6542540Y661500D02*
X6566540D01*
G01X6477540Y615000D02*
Y705000D01*
X6489540Y687000D01*
G01Y615000D02*
X6465540D01*
G01X6634000Y5980000D02*
Y5915500D01*
X6630000Y5902000D01*
X6622000Y5893000D01*
X6612000Y5890000D01*
X6602000Y5893000D01*
X6594000Y5902000D01*
X6590000Y5915500D01*
Y5980000D01*
G01X6542000Y5890000D02*
Y5980000D01*
X6554000Y5962000D01*
G01Y5890000D02*
X6530000D01*
G01X6472000D02*
X6465000Y5891500D01*
X6457000Y5896000D01*
X6452000Y5903500D01*
X6450000Y5914000D01*
X6452000Y5924500D01*
X6458000Y5933500D01*
X6467000Y5938000D01*
X6477000D01*
X6483000Y5941000D01*
X6488000Y5948500D01*
X6490000Y5959000D01*
X6487000Y5969500D01*
X6480000Y5977000D01*
X6472000Y5980000D01*
X6464000Y5977000D01*
X6457000Y5969500D01*
X6454000Y5959000D01*
X6456000Y5948500D01*
X6461000Y5941000D01*
X6467000Y5938000D01*
X6477000D01*
X6486000Y5933500D01*
X6492000Y5924500D01*
X6494000Y5914000D01*
X6492000Y5903500D01*
X6487000Y5896000D01*
X6479000Y5891500D01*
X6472000Y5890000D01*
G01X6438000Y6802500D02*
X6444000Y6807000D01*
X6451000Y6810000D01*
X6459000D01*
X6468000Y6805500D01*
X6475000Y6798000D01*
X6480000Y6789000D01*
X6484000Y6774000D01*
X6485000Y6760500D01*
X6483000Y6747000D01*
X6480000Y6738000D01*
X6474000Y6729000D01*
X6467000Y6723000D01*
X6460000Y6720000D01*
X6453000D01*
X6446000Y6723000D01*
X6440000Y6727500D01*
X6435000Y6733500D01*
G01X6409000Y6757500D02*
X6402000Y6768000D01*
X6396000Y6774000D01*
X6388000Y6777000D01*
X6381000Y6774000D01*
X6376000Y6768000D01*
X6372000Y6759000D01*
X6371000Y6748500D01*
X6372000Y6739500D01*
X6376000Y6730500D01*
X6382000Y6723000D01*
X6389000Y6720000D01*
X6397000Y6723000D01*
X6404000Y6732000D01*
X6408000Y6745500D01*
X6409000Y6760500D01*
X6407000Y6780000D01*
X6404000Y6790500D01*
X6399000Y6801000D01*
X6392000Y6808500D01*
X6385000Y6810000D01*
X6378000Y6807000D01*
X6373000Y6799500D01*
G01X6320000Y6810000D02*
X6328000Y6807000D01*
X6334000Y6799500D01*
X6338000Y6790500D01*
X6341000Y6778500D01*
X6342000Y6765000D01*
X6341000Y6751500D01*
X6338000Y6739500D01*
X6334000Y6730500D01*
X6328000Y6723000D01*
X6320000Y6720000D01*
X6312000Y6723000D01*
X6306000Y6730500D01*
X6302000Y6739500D01*
X6299000Y6751500D01*
X6298000Y6765000D01*
X6299000Y6778500D01*
X6302000Y6790500D01*
X6306000Y6799500D01*
X6312000Y6807000D01*
X6320000Y6810000D01*
G01X7250000Y6420000D02*
Y6510000D01*
X7225000D01*
X7217000Y6505500D01*
X7212000Y6499500D01*
X7210000Y6487500D01*
X7212000Y6475500D01*
X7218000Y6468000D01*
X7225000Y6463500D01*
X7250000D01*
G01X7225000D02*
X7210000Y6420000D01*
G01X7179000Y6457500D02*
X7172000Y6468000D01*
X7166000Y6474000D01*
X7158000Y6477000D01*
X7151000Y6474000D01*
X7146000Y6468000D01*
X7142000Y6459000D01*
X7141000Y6448500D01*
X7142000Y6439500D01*
X7146000Y6430500D01*
X7152000Y6423000D01*
X7159000Y6420000D01*
X7167000Y6423000D01*
X7174000Y6432000D01*
X7178000Y6445500D01*
X7179000Y6460500D01*
X7177000Y6480000D01*
X7174000Y6490500D01*
X7169000Y6501000D01*
X7162000Y6508500D01*
X7155000Y6510000D01*
X7148000Y6507000D01*
X7143000Y6499500D01*
G01X7112000Y6438000D02*
X7106000Y6427500D01*
X7098000Y6421500D01*
X7089000Y6420000D01*
X7081000Y6421500D01*
X7073000Y6429000D01*
X7068000Y6438000D01*
X7067000Y6447000D01*
X7069000Y6457500D01*
X7076000Y6465000D01*
X7083000Y6468000D01*
X7092000D01*
G01X7083000D02*
X7077000Y6472500D01*
X7072000Y6480000D01*
X7070000Y6489000D01*
X7072000Y6498000D01*
X7077000Y6505500D01*
X7086000Y6510000D01*
X7095000Y6508500D01*
X7104000Y6502500D01*
G01X7250000Y6170000D02*
Y6260000D01*
X7225000D01*
X7217000Y6255500D01*
X7212000Y6249500D01*
X7210000Y6237500D01*
X7212000Y6225500D01*
X7218000Y6218000D01*
X7225000Y6213500D01*
X7250000D01*
G01X7225000D02*
X7210000Y6170000D01*
G01X7179000Y6207500D02*
X7172000Y6218000D01*
X7166000Y6224000D01*
X7158000Y6227000D01*
X7151000Y6224000D01*
X7146000Y6218000D01*
X7142000Y6209000D01*
X7141000Y6198500D01*
X7142000Y6189500D01*
X7146000Y6180500D01*
X7152000Y6173000D01*
X7159000Y6170000D01*
X7167000Y6173000D01*
X7174000Y6182000D01*
X7178000Y6195500D01*
X7179000Y6210500D01*
X7177000Y6230000D01*
X7174000Y6240500D01*
X7169000Y6251000D01*
X7162000Y6258500D01*
X7155000Y6260000D01*
X7148000Y6257000D01*
X7143000Y6249500D01*
G01X7112000Y6183500D02*
X7106000Y6176000D01*
X7099000Y6171500D01*
X7090000Y6170000D01*
X7081000Y6173000D01*
X7074000Y6179000D01*
X7069000Y6189500D01*
X7068000Y6201500D01*
X7070000Y6213500D01*
X7075000Y6221000D01*
X7082000Y6227000D01*
X7089000Y6228500D01*
X7096000Y6227000D01*
X7105000Y6221000D01*
X7102000Y6260000D01*
X7075000D01*
G01X8227500Y352000D02*
X8232000Y346000D01*
X8235000Y339000D01*
Y331000D01*
X8230500Y322000D01*
X8223000Y315000D01*
X8214000Y310000D01*
X8199000Y306000D01*
X8185500Y305000D01*
X8172000Y307000D01*
X8163000Y310000D01*
X8154000Y316000D01*
X8148000Y323000D01*
X8145000Y330000D01*
Y337000D01*
X8148000Y344000D01*
X8152500Y350000D01*
X8158500Y355000D01*
G01X8145000Y400000D02*
X8235000D01*
X8217000Y388000D01*
G01X8145000D02*
Y412000D01*
G01X8220000Y451000D02*
X8229000Y457000D01*
X8233500Y464000D01*
X8235000Y472000D01*
X8232000Y482000D01*
X8224500Y489000D01*
X8215500Y491000D01*
X8206500Y490000D01*
X8199000Y486000D01*
X8184000Y466000D01*
X8173500Y457000D01*
X8158500Y451000D01*
X8145000Y449000D01*
Y491000D01*
G01X8055000Y1290000D02*
X8145000D01*
Y1315000D01*
X8140500Y1323000D01*
X8134500Y1328000D01*
X8122500Y1330000D01*
X8110500Y1328000D01*
X8103000Y1322000D01*
X8098500Y1315000D01*
Y1290000D01*
G01Y1315000D02*
X8055000Y1330000D01*
G01X8130000Y1361000D02*
X8139000Y1367000D01*
X8143500Y1374000D01*
X8145000Y1382000D01*
X8142000Y1392000D01*
X8134500Y1399000D01*
X8125500Y1401000D01*
X8116500Y1400000D01*
X8109000Y1396000D01*
X8094000Y1376000D01*
X8083500Y1367000D01*
X8068500Y1361000D01*
X8055000Y1359000D01*
Y1401000D01*
G01X8145000Y1450000D02*
X8142000Y1442000D01*
X8134500Y1436000D01*
X8125500Y1432000D01*
X8113500Y1429000D01*
X8100000Y1428000D01*
X8086500Y1429000D01*
X8074500Y1432000D01*
X8065500Y1436000D01*
X8058000Y1442000D01*
X8055000Y1450000D01*
X8058000Y1458000D01*
X8065500Y1464000D01*
X8074500Y1468000D01*
X8086500Y1471000D01*
X8100000Y1472000D01*
X8113500Y1471000D01*
X8125500Y1468000D01*
X8134500Y1464000D01*
X8142000Y1458000D01*
X8145000Y1450000D01*
G01X8205000Y1290000D02*
X8295000D01*
Y1315000D01*
X8290500Y1323000D01*
X8284500Y1328000D01*
X8272500Y1330000D01*
X8260500Y1328000D01*
X8253000Y1322000D01*
X8248500Y1315000D01*
Y1290000D01*
G01Y1315000D02*
X8205000Y1330000D01*
G01X8280000Y1361000D02*
X8289000Y1367000D01*
X8293500Y1374000D01*
X8295000Y1382000D01*
X8292000Y1392000D01*
X8284500Y1399000D01*
X8275500Y1401000D01*
X8266500Y1400000D01*
X8259000Y1396000D01*
X8244000Y1376000D01*
X8233500Y1367000D01*
X8218500Y1361000D01*
X8205000Y1359000D01*
Y1401000D01*
G01X8223000Y1428000D02*
X8212500Y1434000D01*
X8206500Y1442000D01*
X8205000Y1451000D01*
X8206500Y1459000D01*
X8214000Y1467000D01*
X8223000Y1472000D01*
X8232000Y1473000D01*
X8242500Y1471000D01*
X8250000Y1464000D01*
X8253000Y1457000D01*
Y1448000D01*
G01Y1457000D02*
X8257500Y1463000D01*
X8265000Y1468000D01*
X8274000Y1470000D01*
X8283000Y1468000D01*
X8290500Y1463000D01*
X8295000Y1454000D01*
X8293500Y1445000D01*
X8287500Y1436000D01*
G01X7980000Y1335000D02*
X7890000D01*
Y1375000D01*
G01X7965000Y1406000D02*
X7974000Y1412000D01*
X7978500Y1419000D01*
X7980000Y1427000D01*
X7977000Y1437000D01*
X7969500Y1444000D01*
X7960500Y1446000D01*
X7951500Y1445000D01*
X7944000Y1441000D01*
X7929000Y1421000D01*
X7918500Y1412000D01*
X7903500Y1406000D01*
X7890000Y1404000D01*
Y1446000D01*
G01X7980800Y1120000D02*
X7879200D01*
G01X8307000Y2140000D02*
Y2075500D01*
X8303000Y2062000D01*
X8295000Y2053000D01*
X8285000Y2050000D01*
X8275000Y2053000D01*
X8267000Y2062000D01*
X8263000Y2075500D01*
Y2140000D01*
G01X8217000Y2050000D02*
X8215000Y2069500D01*
X8212000Y2086000D01*
X8208000Y2101000D01*
X8203000Y2117500D01*
X8195000Y2140000D01*
X8235000D01*
G01X8587500Y352000D02*
X8592000Y346000D01*
X8595000Y339000D01*
Y331000D01*
X8590500Y322000D01*
X8583000Y315000D01*
X8574000Y310000D01*
X8559000Y306000D01*
X8545500Y305000D01*
X8532000Y307000D01*
X8523000Y310000D01*
X8514000Y316000D01*
X8508000Y323000D01*
X8505000Y330000D01*
Y337000D01*
X8508000Y344000D01*
X8512500Y350000D01*
X8518500Y355000D01*
G01X8505000Y400000D02*
X8595000D01*
X8577000Y388000D01*
G01X8505000D02*
Y412000D01*
G01Y470000D02*
X8595000D01*
X8577000Y458000D01*
G01X8505000D02*
Y482000D01*
G01X8752500Y262000D02*
X8757000Y256000D01*
X8760000Y249000D01*
Y241000D01*
X8755500Y232000D01*
X8748000Y225000D01*
X8739000Y220000D01*
X8724000Y216000D01*
X8710500Y215000D01*
X8697000Y217000D01*
X8688000Y220000D01*
X8679000Y226000D01*
X8673000Y233000D01*
X8670000Y240000D01*
Y247000D01*
X8673000Y254000D01*
X8677500Y260000D01*
X8683500Y265000D01*
G01X8670000Y310000D02*
X8760000D01*
X8742000Y298000D01*
G01X8670000D02*
Y322000D01*
G01X8760000Y380000D02*
X8757000Y372000D01*
X8749500Y366000D01*
X8740500Y362000D01*
X8728500Y359000D01*
X8715000Y358000D01*
X8701500Y359000D01*
X8689500Y362000D01*
X8680500Y366000D01*
X8673000Y372000D01*
X8670000Y380000D01*
X8673000Y388000D01*
X8680500Y394000D01*
X8689500Y398000D01*
X8701500Y401000D01*
X8715000Y402000D01*
X8728500Y401000D01*
X8740500Y398000D01*
X8749500Y394000D01*
X8757000Y388000D01*
X8760000Y380000D01*
G01X8355000Y1290000D02*
X8445000D01*
Y1315000D01*
X8440500Y1323000D01*
X8434500Y1328000D01*
X8422500Y1330000D01*
X8410500Y1328000D01*
X8403000Y1322000D01*
X8398500Y1315000D01*
Y1290000D01*
G01Y1315000D02*
X8355000Y1330000D01*
G01X8430000Y1361000D02*
X8439000Y1367000D01*
X8443500Y1374000D01*
X8445000Y1382000D01*
X8442000Y1392000D01*
X8434500Y1399000D01*
X8425500Y1401000D01*
X8416500Y1400000D01*
X8409000Y1396000D01*
X8394000Y1376000D01*
X8383500Y1367000D01*
X8368500Y1361000D01*
X8355000Y1359000D01*
Y1401000D01*
G01X8392500Y1431000D02*
X8403000Y1438000D01*
X8409000Y1444000D01*
X8412000Y1452000D01*
X8409000Y1459000D01*
X8403000Y1464000D01*
X8394000Y1468000D01*
X8383500Y1469000D01*
X8374500Y1468000D01*
X8365500Y1464000D01*
X8358000Y1458000D01*
X8355000Y1451000D01*
X8358000Y1443000D01*
X8367000Y1436000D01*
X8380500Y1432000D01*
X8395500Y1431000D01*
X8415000Y1433000D01*
X8425500Y1436000D01*
X8436000Y1441000D01*
X8443500Y1448000D01*
X8445000Y1455000D01*
X8442000Y1462000D01*
X8434500Y1467000D01*
G01X8505000Y1290000D02*
X8595000D01*
Y1315000D01*
X8590500Y1323000D01*
X8584500Y1328000D01*
X8572500Y1330000D01*
X8560500Y1328000D01*
X8553000Y1322000D01*
X8548500Y1315000D01*
Y1290000D01*
G01Y1315000D02*
X8505000Y1330000D01*
G01X8580000Y1361000D02*
X8589000Y1367000D01*
X8593500Y1374000D01*
X8595000Y1382000D01*
X8592000Y1392000D01*
X8584500Y1399000D01*
X8575500Y1401000D01*
X8566500Y1400000D01*
X8559000Y1396000D01*
X8544000Y1376000D01*
X8533500Y1367000D01*
X8518500Y1361000D01*
X8505000Y1359000D01*
Y1401000D01*
G01X8518500Y1428000D02*
X8511000Y1434000D01*
X8506500Y1441000D01*
X8505000Y1450000D01*
X8508000Y1459000D01*
X8514000Y1466000D01*
X8524500Y1471000D01*
X8536500Y1472000D01*
X8548500Y1470000D01*
X8556000Y1465000D01*
X8562000Y1458000D01*
X8563500Y1451000D01*
X8562000Y1444000D01*
X8556000Y1435000D01*
X8595000Y1438000D01*
Y1465000D01*
G01X8655000Y1290000D02*
X8745000D01*
Y1315000D01*
X8740500Y1323000D01*
X8734500Y1328000D01*
X8722500Y1330000D01*
X8710500Y1328000D01*
X8703000Y1322000D01*
X8698500Y1315000D01*
Y1290000D01*
G01Y1315000D02*
X8655000Y1330000D01*
G01X8730000Y1361000D02*
X8739000Y1367000D01*
X8743500Y1374000D01*
X8745000Y1382000D01*
X8742000Y1392000D01*
X8734500Y1399000D01*
X8725500Y1401000D01*
X8716500Y1400000D01*
X8709000Y1396000D01*
X8694000Y1376000D01*
X8683500Y1367000D01*
X8668500Y1361000D01*
X8655000Y1359000D01*
Y1401000D01*
G01Y1462000D02*
X8745000D01*
X8680500Y1425000D01*
Y1475000D01*
G01X8892500Y1367000D02*
X8897000Y1361000D01*
X8900000Y1354000D01*
Y1346000D01*
X8895500Y1337000D01*
X8888000Y1330000D01*
X8879000Y1325000D01*
X8864000Y1321000D01*
X8850500Y1320000D01*
X8837000Y1322000D01*
X8828000Y1325000D01*
X8819000Y1331000D01*
X8813000Y1338000D01*
X8810000Y1345000D01*
Y1352000D01*
X8813000Y1359000D01*
X8817500Y1365000D01*
X8823500Y1370000D01*
G01X8820500Y1398000D02*
X8813000Y1405000D01*
X8810000Y1413000D01*
X8813000Y1421000D01*
X8822000Y1428000D01*
X8835500Y1433000D01*
X8849000Y1435000D01*
X8865500D01*
X8879000Y1433000D01*
X8891000Y1428000D01*
X8897000Y1422000D01*
X8900000Y1415000D01*
X8897000Y1407000D01*
X8891000Y1401000D01*
X8882000Y1397000D01*
X8870000Y1395000D01*
X8859500Y1397000D01*
X8849000Y1402000D01*
X8843000Y1408000D01*
X8841500Y1415000D01*
X8844500Y1423000D01*
X8852000Y1429000D01*
X8865500Y1435000D01*
G01X9120000Y1906000D02*
Y1996000D01*
X9095000D01*
X9087000Y1991500D01*
X9082000Y1985500D01*
X9080000Y1973500D01*
X9082000Y1961500D01*
X9088000Y1954000D01*
X9095000Y1949500D01*
X9120000D01*
G01X9095000D02*
X9080000Y1906000D01*
G01X9049000Y1981000D02*
X9043000Y1990000D01*
X9036000Y1994500D01*
X9028000Y1996000D01*
X9018000Y1993000D01*
X9011000Y1985500D01*
X9009000Y1976500D01*
X9010000Y1967500D01*
X9014000Y1960000D01*
X9034000Y1945000D01*
X9043000Y1934500D01*
X9049000Y1919500D01*
X9051000Y1906000D01*
X9009000D01*
G01X8962000D02*
X8960000Y1925500D01*
X8957000Y1942000D01*
X8953000Y1957000D01*
X8948000Y1973500D01*
X8940000Y1996000D01*
X8980000D01*
G01X9023000Y1742500D02*
X9029000Y1747000D01*
X9036000Y1750000D01*
X9044000D01*
X9053000Y1745500D01*
X9060000Y1738000D01*
X9065000Y1729000D01*
X9069000Y1714000D01*
X9070000Y1700500D01*
X9068000Y1687000D01*
X9065000Y1678000D01*
X9059000Y1669000D01*
X9052000Y1663000D01*
X9045000Y1660000D01*
X9038000D01*
X9031000Y1663000D01*
X9025000Y1667500D01*
X9020000Y1673500D01*
G01X8994000Y1697500D02*
X8987000Y1708000D01*
X8981000Y1714000D01*
X8973000Y1717000D01*
X8966000Y1714000D01*
X8961000Y1708000D01*
X8957000Y1699000D01*
X8956000Y1688500D01*
X8957000Y1679500D01*
X8961000Y1670500D01*
X8967000Y1663000D01*
X8974000Y1660000D01*
X8982000Y1663000D01*
X8989000Y1672000D01*
X8993000Y1685500D01*
X8994000Y1700500D01*
X8992000Y1720000D01*
X8989000Y1730500D01*
X8984000Y1741000D01*
X8977000Y1748500D01*
X8970000Y1750000D01*
X8963000Y1747000D01*
X8958000Y1739500D01*
G01X9597000Y1500000D02*
Y1435500D01*
X9593000Y1422000D01*
X9585000Y1413000D01*
X9575000Y1410000D01*
X9565000Y1413000D01*
X9557000Y1422000D01*
X9553000Y1435500D01*
Y1500000D01*
G01X9524000Y1485000D02*
X9518000Y1494000D01*
X9511000Y1498500D01*
X9503000Y1500000D01*
X9493000Y1497000D01*
X9486000Y1489500D01*
X9484000Y1480500D01*
X9485000Y1471500D01*
X9489000Y1464000D01*
X9509000Y1449000D01*
X9518000Y1438500D01*
X9524000Y1423500D01*
X9526000Y1410000D01*
X9484000D01*
G01X9643000Y1162500D02*
X9649000Y1167000D01*
X9656000Y1170000D01*
X9664000D01*
X9673000Y1165500D01*
X9680000Y1158000D01*
X9685000Y1149000D01*
X9689000Y1134000D01*
X9690000Y1120500D01*
X9688000Y1107000D01*
X9685000Y1098000D01*
X9679000Y1089000D01*
X9672000Y1083000D01*
X9665000Y1080000D01*
X9658000D01*
X9651000Y1083000D01*
X9645000Y1087500D01*
X9640000Y1093500D01*
G01X9614000Y1155000D02*
X9608000Y1164000D01*
X9601000Y1168500D01*
X9593000Y1170000D01*
X9583000Y1167000D01*
X9576000Y1159500D01*
X9574000Y1150500D01*
X9575000Y1141500D01*
X9579000Y1134000D01*
X9599000Y1119000D01*
X9608000Y1108500D01*
X9614000Y1093500D01*
X9616000Y1080000D01*
X9574000D01*
G01X9760000Y1936300D02*
Y2026300D01*
X9735000D01*
X9727000Y2021800D01*
X9722000Y2015800D01*
X9720000Y2003800D01*
X9722000Y1991800D01*
X9728000Y1984300D01*
X9735000Y1979800D01*
X9760000D01*
G01X9735000D02*
X9720000Y1936300D01*
G01X9670000D02*
Y2026300D01*
X9682000Y2008300D01*
G01Y1936300D02*
X9658000D01*
G01X9600000Y2026300D02*
X9608000Y2023300D01*
X9614000Y2015800D01*
X9618000Y2006800D01*
X9621000Y1994800D01*
X9622000Y1981300D01*
X9621000Y1967800D01*
X9618000Y1955800D01*
X9614000Y1946800D01*
X9608000Y1939300D01*
X9600000Y1936300D01*
X9592000Y1939300D01*
X9586000Y1946800D01*
X9582000Y1955800D01*
X9579000Y1967800D01*
X9578000Y1981300D01*
X9579000Y1994800D01*
X9582000Y2006800D01*
X9586000Y2015800D01*
X9592000Y2023300D01*
X9600000Y2026300D01*
G01X9760000Y1725000D02*
Y1815000D01*
X9735000D01*
X9727000Y1810500D01*
X9722000Y1804500D01*
X9720000Y1792500D01*
X9722000Y1780500D01*
X9728000Y1773000D01*
X9735000Y1768500D01*
X9760000D01*
G01X9735000D02*
X9720000Y1725000D01*
G01X9670000D02*
Y1815000D01*
X9682000Y1797000D01*
G01Y1725000D02*
X9658000D01*
G01X9600000D02*
Y1815000D01*
X9612000Y1797000D01*
G01Y1725000D02*
X9588000D01*
G01X9567500Y7322000D02*
X9572000Y7316000D01*
X9575000Y7309000D01*
Y7301000D01*
X9570500Y7292000D01*
X9563000Y7285000D01*
X9554000Y7280000D01*
X9539000Y7276000D01*
X9525500Y7275000D01*
X9512000Y7277000D01*
X9503000Y7280000D01*
X9494000Y7286000D01*
X9488000Y7293000D01*
X9485000Y7300000D01*
Y7307000D01*
X9488000Y7314000D01*
X9492500Y7320000D01*
X9498500Y7325000D01*
G01Y7348000D02*
X9491000Y7354000D01*
X9486500Y7361000D01*
X9485000Y7370000D01*
X9488000Y7379000D01*
X9494000Y7386000D01*
X9504500Y7391000D01*
X9516500Y7392000D01*
X9528500Y7390000D01*
X9536000Y7385000D01*
X9542000Y7378000D01*
X9543500Y7371000D01*
X9542000Y7364000D01*
X9536000Y7355000D01*
X9575000Y7358000D01*
Y7385000D01*
G01X9503000Y7418000D02*
X9492500Y7424000D01*
X9486500Y7432000D01*
X9485000Y7441000D01*
X9486500Y7449000D01*
X9494000Y7457000D01*
X9503000Y7462000D01*
X9512000Y7463000D01*
X9522500Y7461000D01*
X9530000Y7454000D01*
X9533000Y7447000D01*
Y7438000D01*
G01Y7447000D02*
X9537500Y7453000D01*
X9545000Y7458000D01*
X9554000Y7460000D01*
X9563000Y7458000D01*
X9570500Y7453000D01*
X9575000Y7444000D01*
X9573500Y7435000D01*
X9567500Y7426000D01*
G01X9377500Y7322000D02*
X9382000Y7316000D01*
X9385000Y7309000D01*
Y7301000D01*
X9380500Y7292000D01*
X9373000Y7285000D01*
X9364000Y7280000D01*
X9349000Y7276000D01*
X9335500Y7275000D01*
X9322000Y7277000D01*
X9313000Y7280000D01*
X9304000Y7286000D01*
X9298000Y7293000D01*
X9295000Y7300000D01*
Y7307000D01*
X9298000Y7314000D01*
X9302500Y7320000D01*
X9308500Y7325000D01*
G01Y7348000D02*
X9301000Y7354000D01*
X9296500Y7361000D01*
X9295000Y7370000D01*
X9298000Y7379000D01*
X9304000Y7386000D01*
X9314500Y7391000D01*
X9326500Y7392000D01*
X9338500Y7390000D01*
X9346000Y7385000D01*
X9352000Y7378000D01*
X9353500Y7371000D01*
X9352000Y7364000D01*
X9346000Y7355000D01*
X9385000Y7358000D01*
Y7385000D01*
G01X9295000Y7452000D02*
X9385000D01*
X9320500Y7415000D01*
Y7465000D01*
G01X10220000Y305000D02*
Y395000D01*
X10195000D01*
X10187000Y390500D01*
X10182000Y384500D01*
X10180000Y372500D01*
X10182000Y360500D01*
X10188000Y353000D01*
X10195000Y348500D01*
X10220000D01*
G01X10195000D02*
X10180000Y305000D01*
G01X10130000D02*
Y395000D01*
X10142000Y377000D01*
G01Y305000D02*
X10118000D01*
G01X10048000D02*
Y395000D01*
X10085000Y330500D01*
X10035000D01*
G01X10220000Y455000D02*
Y545000D01*
X10195000D01*
X10187000Y540500D01*
X10182000Y534500D01*
X10180000Y522500D01*
X10182000Y510500D01*
X10188000Y503000D01*
X10195000Y498500D01*
X10220000D01*
G01X10195000D02*
X10180000Y455000D01*
G01X10130000D02*
Y545000D01*
X10142000Y527000D01*
G01Y455000D02*
X10118000D01*
G01X10079000Y530000D02*
X10073000Y539000D01*
X10066000Y543500D01*
X10058000Y545000D01*
X10048000Y542000D01*
X10041000Y534500D01*
X10039000Y525500D01*
X10040000Y516500D01*
X10044000Y509000D01*
X10064000Y494000D01*
X10073000Y483500D01*
X10079000Y468500D01*
X10081000Y455000D01*
X10039000D01*
G01X10220000Y605000D02*
Y695000D01*
X10195000D01*
X10187000Y690500D01*
X10182000Y684500D01*
X10180000Y672500D01*
X10182000Y660500D01*
X10188000Y653000D01*
X10195000Y648500D01*
X10220000D01*
G01X10195000D02*
X10180000Y605000D01*
G01X10130000D02*
Y695000D01*
X10142000Y677000D01*
G01Y605000D02*
X10118000D01*
G01X10082000Y623000D02*
X10076000Y612500D01*
X10068000Y606500D01*
X10059000Y605000D01*
X10051000Y606500D01*
X10043000Y614000D01*
X10038000Y623000D01*
X10037000Y632000D01*
X10039000Y642500D01*
X10046000Y650000D01*
X10053000Y653000D01*
X10062000D01*
G01X10053000D02*
X10047000Y657500D01*
X10042000Y665000D01*
X10040000Y674000D01*
X10042000Y683000D01*
X10047000Y690500D01*
X10056000Y695000D01*
X10065000Y693500D01*
X10074000Y687500D01*
G01X10282500Y1337000D02*
X10287000Y1331000D01*
X10290000Y1324000D01*
Y1316000D01*
X10285500Y1307000D01*
X10278000Y1300000D01*
X10269000Y1295000D01*
X10254000Y1291000D01*
X10240500Y1290000D01*
X10227000Y1292000D01*
X10218000Y1295000D01*
X10209000Y1301000D01*
X10203000Y1308000D01*
X10200000Y1315000D01*
Y1322000D01*
X10203000Y1329000D01*
X10207500Y1335000D01*
X10213500Y1340000D01*
G01X10200000Y1385000D02*
X10290000D01*
X10272000Y1373000D01*
G01X10200000D02*
Y1397000D01*
G01X10147500Y5032000D02*
X10152000Y5026000D01*
X10155000Y5019000D01*
Y5011000D01*
X10150500Y5002000D01*
X10143000Y4995000D01*
X10134000Y4990000D01*
X10119000Y4986000D01*
X10105500Y4985000D01*
X10092000Y4987000D01*
X10083000Y4990000D01*
X10074000Y4996000D01*
X10068000Y5003000D01*
X10065000Y5010000D01*
Y5017000D01*
X10068000Y5024000D01*
X10072500Y5030000D01*
X10078500Y5035000D01*
G01X10140000Y5061000D02*
X10149000Y5067000D01*
X10153500Y5074000D01*
X10155000Y5082000D01*
X10152000Y5092000D01*
X10144500Y5099000D01*
X10135500Y5101000D01*
X10126500Y5100000D01*
X10119000Y5096000D01*
X10104000Y5076000D01*
X10093500Y5067000D01*
X10078500Y5061000D01*
X10065000Y5059000D01*
Y5101000D01*
G01X10102500Y5131000D02*
X10113000Y5138000D01*
X10119000Y5144000D01*
X10122000Y5152000D01*
X10119000Y5159000D01*
X10113000Y5164000D01*
X10104000Y5168000D01*
X10093500Y5169000D01*
X10084500Y5168000D01*
X10075500Y5164000D01*
X10068000Y5158000D01*
X10065000Y5151000D01*
X10068000Y5143000D01*
X10077000Y5136000D01*
X10090500Y5132000D01*
X10105500Y5131000D01*
X10125000Y5133000D01*
X10135500Y5136000D01*
X10146000Y5141000D01*
X10153500Y5148000D01*
X10155000Y5155000D01*
X10152000Y5162000D01*
X10144500Y5167000D01*
G01X10392500Y5022000D02*
X10397000Y5016000D01*
X10400000Y5009000D01*
Y5001000D01*
X10395500Y4992000D01*
X10388000Y4985000D01*
X10379000Y4980000D01*
X10364000Y4976000D01*
X10350500Y4975000D01*
X10337000Y4977000D01*
X10328000Y4980000D01*
X10319000Y4986000D01*
X10313000Y4993000D01*
X10310000Y5000000D01*
Y5007000D01*
X10313000Y5014000D01*
X10317500Y5020000D01*
X10323500Y5025000D01*
G01X10385000Y5051000D02*
X10394000Y5057000D01*
X10398500Y5064000D01*
X10400000Y5072000D01*
X10397000Y5082000D01*
X10389500Y5089000D01*
X10380500Y5091000D01*
X10371500Y5090000D01*
X10364000Y5086000D01*
X10349000Y5066000D01*
X10338500Y5057000D01*
X10323500Y5051000D01*
X10310000Y5049000D01*
Y5091000D01*
G01Y5138000D02*
X10329500Y5140000D01*
X10346000Y5143000D01*
X10361000Y5147000D01*
X10377500Y5152000D01*
X10400000Y5160000D01*
Y5120000D01*
G01X10022500Y5032000D02*
X10027000Y5026000D01*
X10030000Y5019000D01*
Y5011000D01*
X10025500Y5002000D01*
X10018000Y4995000D01*
X10009000Y4990000D01*
X9994000Y4986000D01*
X9980500Y4985000D01*
X9967000Y4987000D01*
X9958000Y4990000D01*
X9949000Y4996000D01*
X9943000Y5003000D01*
X9940000Y5010000D01*
Y5017000D01*
X9943000Y5024000D01*
X9947500Y5030000D01*
X9953500Y5035000D01*
G01X10015000Y5061000D02*
X10024000Y5067000D01*
X10028500Y5074000D01*
X10030000Y5082000D01*
X10027000Y5092000D01*
X10019500Y5099000D01*
X10010500Y5101000D01*
X10001500Y5100000D01*
X9994000Y5096000D01*
X9979000Y5076000D01*
X9968500Y5067000D01*
X9953500Y5061000D01*
X9940000Y5059000D01*
Y5101000D01*
G01X9953500Y5128000D02*
X9946000Y5134000D01*
X9941500Y5141000D01*
X9940000Y5150000D01*
X9943000Y5159000D01*
X9949000Y5166000D01*
X9959500Y5171000D01*
X9971500Y5172000D01*
X9983500Y5170000D01*
X9991000Y5165000D01*
X9997000Y5158000D01*
X9998500Y5151000D01*
X9997000Y5144000D01*
X9991000Y5135000D01*
X10030000Y5138000D01*
Y5165000D01*
G01X10280000Y4985000D02*
X10190000D01*
Y5025000D01*
G01X10208000Y5053000D02*
X10197500Y5059000D01*
X10191500Y5067000D01*
X10190000Y5076000D01*
X10191500Y5084000D01*
X10199000Y5092000D01*
X10208000Y5097000D01*
X10217000Y5098000D01*
X10227500Y5096000D01*
X10235000Y5089000D01*
X10238000Y5082000D01*
Y5073000D01*
G01Y5082000D02*
X10242500Y5088000D01*
X10250000Y5093000D01*
X10259000Y5095000D01*
X10268000Y5093000D01*
X10275500Y5088000D01*
X10280000Y5079000D01*
X10278500Y5070000D01*
X10272500Y5061000D01*
G01X10128000Y5497500D02*
X10134000Y5502000D01*
X10141000Y5505000D01*
X10149000D01*
X10158000Y5500500D01*
X10165000Y5493000D01*
X10170000Y5484000D01*
X10174000Y5469000D01*
X10175000Y5455500D01*
X10173000Y5442000D01*
X10170000Y5433000D01*
X10164000Y5424000D01*
X10157000Y5418000D01*
X10150000Y5415000D01*
X10143000D01*
X10136000Y5418000D01*
X10130000Y5422500D01*
X10125000Y5428500D01*
G01X10099000Y5490000D02*
X10093000Y5499000D01*
X10086000Y5503500D01*
X10078000Y5505000D01*
X10068000Y5502000D01*
X10061000Y5494500D01*
X10059000Y5485500D01*
X10060000Y5476500D01*
X10064000Y5469000D01*
X10084000Y5454000D01*
X10093000Y5443500D01*
X10099000Y5428500D01*
X10101000Y5415000D01*
X10059000D01*
G01X10032000Y5433000D02*
X10026000Y5422500D01*
X10018000Y5416500D01*
X10009000Y5415000D01*
X10001000Y5416500D01*
X9993000Y5424000D01*
X9988000Y5433000D01*
X9987000Y5442000D01*
X9989000Y5452500D01*
X9996000Y5460000D01*
X10003000Y5463000D01*
X10012000D01*
G01X10003000D02*
X9997000Y5467500D01*
X9992000Y5475000D01*
X9990000Y5484000D01*
X9992000Y5493000D01*
X9997000Y5500500D01*
X10006000Y5505000D01*
X10015000Y5503500D01*
X10024000Y5497500D01*
G01X10038000Y5677500D02*
X10044000Y5682000D01*
X10051000Y5685000D01*
X10059000D01*
X10068000Y5680500D01*
X10075000Y5673000D01*
X10080000Y5664000D01*
X10084000Y5649000D01*
X10085000Y5635500D01*
X10083000Y5622000D01*
X10080000Y5613000D01*
X10074000Y5604000D01*
X10067000Y5598000D01*
X10060000Y5595000D01*
X10053000D01*
X10046000Y5598000D01*
X10040000Y5602500D01*
X10035000Y5608500D01*
G01X10009000Y5670000D02*
X10003000Y5679000D01*
X9996000Y5683500D01*
X9988000Y5685000D01*
X9978000Y5682000D01*
X9971000Y5674500D01*
X9969000Y5665500D01*
X9970000Y5656500D01*
X9974000Y5649000D01*
X9994000Y5634000D01*
X10003000Y5623500D01*
X10009000Y5608500D01*
X10011000Y5595000D01*
X9969000D01*
G01X9939000Y5670000D02*
X9933000Y5679000D01*
X9926000Y5683500D01*
X9918000Y5685000D01*
X9908000Y5682000D01*
X9901000Y5674500D01*
X9899000Y5665500D01*
X9900000Y5656500D01*
X9904000Y5649000D01*
X9924000Y5634000D01*
X9933000Y5623500D01*
X9939000Y5608500D01*
X9941000Y5595000D01*
X9899000D01*
G01X10170000Y5815000D02*
Y5905000D01*
X10145000D01*
X10137000Y5900500D01*
X10132000Y5894500D01*
X10130000Y5882500D01*
X10132000Y5870500D01*
X10138000Y5863000D01*
X10145000Y5858500D01*
X10170000D01*
G01X10145000D02*
X10130000Y5815000D01*
G01X10068000D02*
Y5905000D01*
X10105000Y5840500D01*
X10055000D01*
G01X10027000Y5825500D02*
X10020000Y5818000D01*
X10012000Y5815000D01*
X10004000Y5818000D01*
X9997000Y5827000D01*
X9992000Y5840500D01*
X9990000Y5854000D01*
Y5870500D01*
X9992000Y5884000D01*
X9997000Y5896000D01*
X10003000Y5902000D01*
X10010000Y5905000D01*
X10018000Y5902000D01*
X10024000Y5896000D01*
X10028000Y5887000D01*
X10030000Y5875000D01*
X10028000Y5864500D01*
X10023000Y5854000D01*
X10017000Y5848000D01*
X10010000Y5846500D01*
X10002000Y5849500D01*
X9996000Y5857000D01*
X9990000Y5870500D01*
G01X10345000Y6514000D02*
Y6604000D01*
X10320000D01*
X10312000Y6599500D01*
X10307000Y6593500D01*
X10305000Y6581500D01*
X10307000Y6569500D01*
X10313000Y6562000D01*
X10320000Y6557500D01*
X10345000D01*
G01X10320000D02*
X10305000Y6514000D01*
G01X10272000Y6524500D02*
X10265000Y6517000D01*
X10257000Y6514000D01*
X10249000Y6517000D01*
X10242000Y6526000D01*
X10237000Y6539500D01*
X10235000Y6553000D01*
Y6569500D01*
X10237000Y6583000D01*
X10242000Y6595000D01*
X10248000Y6601000D01*
X10255000Y6604000D01*
X10263000Y6601000D01*
X10269000Y6595000D01*
X10273000Y6586000D01*
X10275000Y6574000D01*
X10273000Y6563500D01*
X10268000Y6553000D01*
X10262000Y6547000D01*
X10255000Y6545500D01*
X10247000Y6548500D01*
X10241000Y6556000D01*
X10235000Y6569500D01*
G01X10345000Y7022000D02*
Y7112000D01*
X10320000D01*
X10312000Y7107500D01*
X10307000Y7101500D01*
X10305000Y7089500D01*
X10307000Y7077500D01*
X10313000Y7070000D01*
X10320000Y7065500D01*
X10345000D01*
G01X10320000D02*
X10305000Y7022000D01*
G01X10274000Y7059500D02*
X10267000Y7070000D01*
X10261000Y7076000D01*
X10253000Y7079000D01*
X10246000Y7076000D01*
X10241000Y7070000D01*
X10237000Y7061000D01*
X10236000Y7050500D01*
X10237000Y7041500D01*
X10241000Y7032500D01*
X10247000Y7025000D01*
X10254000Y7022000D01*
X10262000Y7025000D01*
X10269000Y7034000D01*
X10273000Y7047500D01*
X10274000Y7062500D01*
X10272000Y7082000D01*
X10269000Y7092500D01*
X10264000Y7103000D01*
X10257000Y7110500D01*
X10250000Y7112000D01*
X10243000Y7109000D01*
X10238000Y7101500D01*
G01X10345000Y6768000D02*
Y6858000D01*
X10320000D01*
X10312000Y6853500D01*
X10307000Y6847500D01*
X10305000Y6835500D01*
X10307000Y6823500D01*
X10313000Y6816000D01*
X10320000Y6811500D01*
X10345000D01*
G01X10320000D02*
X10305000Y6768000D01*
G01X10255000D02*
X10248000Y6769500D01*
X10240000Y6774000D01*
X10235000Y6781500D01*
X10233000Y6792000D01*
X10235000Y6802500D01*
X10241000Y6811500D01*
X10250000Y6816000D01*
X10260000D01*
X10266000Y6819000D01*
X10271000Y6826500D01*
X10273000Y6837000D01*
X10270000Y6847500D01*
X10263000Y6855000D01*
X10255000Y6858000D01*
X10247000Y6855000D01*
X10240000Y6847500D01*
X10237000Y6837000D01*
X10239000Y6826500D01*
X10244000Y6819000D01*
X10250000Y6816000D01*
X10260000D01*
X10269000Y6811500D01*
X10275000Y6802500D01*
X10277000Y6792000D01*
X10275000Y6781500D01*
X10270000Y6774000D01*
X10262000Y6769500D01*
X10255000Y6768000D01*
G01X10345000Y7276000D02*
Y7366000D01*
X10320000D01*
X10312000Y7361500D01*
X10307000Y7355500D01*
X10305000Y7343500D01*
X10307000Y7331500D01*
X10313000Y7324000D01*
X10320000Y7319500D01*
X10345000D01*
G01X10320000D02*
X10305000Y7276000D01*
G01X10243000D02*
Y7366000D01*
X10280000Y7301500D01*
X10230000D01*
G01X10675000Y160000D02*
G03I-50000J0D01*
G01X10905000D02*
G03I-50000J0D01*
G01X10430000Y4980000D02*
X10520000D01*
Y5005000D01*
X10515500Y5013000D01*
X10509500Y5018000D01*
X10497500Y5020000D01*
X10485500Y5018000D01*
X10478000Y5012000D01*
X10473500Y5005000D01*
Y4980000D01*
G01Y5005000D02*
X10430000Y5020000D01*
G01Y5082000D02*
X10520000D01*
X10455500Y5045000D01*
Y5095000D01*
G01X10430000Y5152000D02*
X10520000D01*
X10455500Y5115000D01*
Y5165000D01*
G01X10707370Y6530000D02*
X10797370D01*
Y6555000D01*
X10792870Y6563000D01*
X10786870Y6568000D01*
X10774870Y6570000D01*
X10762870Y6568000D01*
X10755370Y6562000D01*
X10750870Y6555000D01*
Y6530000D01*
G01Y6555000D02*
X10707370Y6570000D01*
G01Y6632000D02*
X10797370D01*
X10732870Y6595000D01*
Y6645000D01*
G01X10720870Y6668000D02*
X10713370Y6674000D01*
X10708870Y6681000D01*
X10707370Y6690000D01*
X10710370Y6699000D01*
X10716370Y6706000D01*
X10726870Y6711000D01*
X10738870Y6712000D01*
X10750870Y6710000D01*
X10758370Y6705000D01*
X10764370Y6698000D01*
X10765870Y6691000D01*
X10764370Y6684000D01*
X10758370Y6675000D01*
X10797370Y6678000D01*
Y6705000D01*
G01X11077000Y400000D02*
Y490000D01*
X11057000D01*
X11049000Y485500D01*
X11043000Y479500D01*
X11038000Y470500D01*
X11034000Y460000D01*
X11033000Y445000D01*
X11034000Y430000D01*
X11038000Y419500D01*
X11043000Y410500D01*
X11049000Y404500D01*
X11057000Y400000D01*
X11077000D01*
G01X11007000Y418000D02*
X11001000Y407500D01*
X10993000Y401500D01*
X10984000Y400000D01*
X10976000Y401500D01*
X10968000Y409000D01*
X10963000Y418000D01*
X10962000Y427000D01*
X10964000Y437500D01*
X10971000Y445000D01*
X10978000Y448000D01*
X10987000D01*
G01X10978000D02*
X10972000Y452500D01*
X10967000Y460000D01*
X10965000Y469000D01*
X10967000Y478000D01*
X10972000Y485500D01*
X10981000Y490000D01*
X10990000Y488500D01*
X10999000Y482500D01*
G01X11020800Y5140000D02*
X10919200D01*
G01X11422000Y5920000D02*
Y5855500D01*
X11418000Y5842000D01*
X11410000Y5833000D01*
X11400000Y5830000D01*
X11390000Y5833000D01*
X11382000Y5842000D01*
X11378000Y5855500D01*
Y5920000D01*
G01X11330000Y5830000D02*
Y5920000D01*
X11342000Y5902000D01*
G01Y5830000D02*
X11318000D01*
G01X11279000Y5905000D02*
X11273000Y5914000D01*
X11266000Y5918500D01*
X11258000Y5920000D01*
X11248000Y5917000D01*
X11241000Y5909500D01*
X11239000Y5900500D01*
X11240000Y5891500D01*
X11244000Y5884000D01*
X11264000Y5869000D01*
X11273000Y5858500D01*
X11279000Y5843500D01*
X11281000Y5830000D01*
X11239000D01*
G01X10855000Y6530000D02*
X10945000D01*
Y6555000D01*
X10940500Y6563000D01*
X10934500Y6568000D01*
X10922500Y6570000D01*
X10910500Y6568000D01*
X10903000Y6562000D01*
X10898500Y6555000D01*
Y6530000D01*
G01Y6555000D02*
X10855000Y6570000D01*
G01Y6632000D02*
X10945000D01*
X10880500Y6595000D01*
Y6645000D01*
G01X10892500Y6671000D02*
X10903000Y6678000D01*
X10909000Y6684000D01*
X10912000Y6692000D01*
X10909000Y6699000D01*
X10903000Y6704000D01*
X10894000Y6708000D01*
X10883500Y6709000D01*
X10874500Y6708000D01*
X10865500Y6704000D01*
X10858000Y6698000D01*
X10855000Y6691000D01*
X10858000Y6683000D01*
X10867000Y6676000D01*
X10880500Y6672000D01*
X10895500Y6671000D01*
X10915000Y6673000D01*
X10925500Y6676000D01*
X10936000Y6681000D01*
X10943500Y6688000D01*
X10945000Y6695000D01*
X10942000Y6702000D01*
X10934500Y6707000D01*
G01X11257500Y6572000D02*
X11262000Y6566000D01*
X11265000Y6559000D01*
Y6551000D01*
X11260500Y6542000D01*
X11253000Y6535000D01*
X11244000Y6530000D01*
X11229000Y6526000D01*
X11215500Y6525000D01*
X11202000Y6527000D01*
X11193000Y6530000D01*
X11184000Y6536000D01*
X11178000Y6543000D01*
X11175000Y6550000D01*
Y6557000D01*
X11178000Y6564000D01*
X11182500Y6570000D01*
X11188500Y6575000D01*
G01X11250000Y6601000D02*
X11259000Y6607000D01*
X11263500Y6614000D01*
X11265000Y6622000D01*
X11262000Y6632000D01*
X11254500Y6639000D01*
X11245500Y6641000D01*
X11236500Y6640000D01*
X11229000Y6636000D01*
X11214000Y6616000D01*
X11203500Y6607000D01*
X11188500Y6601000D01*
X11175000Y6599000D01*
Y6641000D01*
G01Y6690000D02*
X11176500Y6697000D01*
X11181000Y6705000D01*
X11188500Y6710000D01*
X11199000Y6712000D01*
X11209500Y6710000D01*
X11218500Y6704000D01*
X11223000Y6695000D01*
Y6685000D01*
X11226000Y6679000D01*
X11233500Y6674000D01*
X11244000Y6672000D01*
X11254500Y6675000D01*
X11262000Y6682000D01*
X11265000Y6690000D01*
X11262000Y6698000D01*
X11254500Y6705000D01*
X11244000Y6708000D01*
X11233500Y6706000D01*
X11226000Y6701000D01*
X11223000Y6695000D01*
Y6685000D01*
X11218500Y6676000D01*
X11209500Y6670000D01*
X11199000Y6668000D01*
X11188500Y6670000D01*
X11181000Y6675000D01*
X11176500Y6683000D01*
X11175000Y6690000D01*
G01X11107500Y6572000D02*
X11112000Y6566000D01*
X11115000Y6559000D01*
Y6551000D01*
X11110500Y6542000D01*
X11103000Y6535000D01*
X11094000Y6530000D01*
X11079000Y6526000D01*
X11065500Y6525000D01*
X11052000Y6527000D01*
X11043000Y6530000D01*
X11034000Y6536000D01*
X11028000Y6543000D01*
X11025000Y6550000D01*
Y6557000D01*
X11028000Y6564000D01*
X11032500Y6570000D01*
X11038500Y6575000D01*
G01X11100000Y6601000D02*
X11109000Y6607000D01*
X11113500Y6614000D01*
X11115000Y6622000D01*
X11112000Y6632000D01*
X11104500Y6639000D01*
X11095500Y6641000D01*
X11086500Y6640000D01*
X11079000Y6636000D01*
X11064000Y6616000D01*
X11053500Y6607000D01*
X11038500Y6601000D01*
X11025000Y6599000D01*
Y6641000D01*
G01Y6702000D02*
X11115000D01*
X11050500Y6665000D01*
Y6715000D01*
G01X11005000Y7022000D02*
Y7112000D01*
X10980000D01*
X10972000Y7107500D01*
X10967000Y7101500D01*
X10965000Y7089500D01*
X10967000Y7077500D01*
X10973000Y7070000D01*
X10980000Y7065500D01*
X11005000D01*
G01X10980000D02*
X10965000Y7022000D01*
G01X10917000D02*
X10915000Y7041500D01*
X10912000Y7058000D01*
X10908000Y7073000D01*
X10903000Y7089500D01*
X10895000Y7112000D01*
X10935000D01*
G01X11005000Y7276000D02*
Y7366000D01*
X10980000D01*
X10972000Y7361500D01*
X10967000Y7355500D01*
X10965000Y7343500D01*
X10967000Y7331500D01*
X10973000Y7324000D01*
X10980000Y7319500D01*
X11005000D01*
G01X10980000D02*
X10965000Y7276000D01*
G01X10937000Y7294000D02*
X10931000Y7283500D01*
X10923000Y7277500D01*
X10914000Y7276000D01*
X10906000Y7277500D01*
X10898000Y7285000D01*
X10893000Y7294000D01*
X10892000Y7303000D01*
X10894000Y7313500D01*
X10901000Y7321000D01*
X10908000Y7324000D01*
X10917000D01*
G01X10908000D02*
X10902000Y7328500D01*
X10897000Y7336000D01*
X10895000Y7345000D01*
X10897000Y7354000D01*
X10902000Y7361500D01*
X10911000Y7366000D01*
X10920000Y7364500D01*
X10929000Y7358500D01*
G01X11625000Y160000D02*
G03I-50000J0D01*
G01X11855000D02*
G03I-50000J0D01*
G01X11764000Y1330000D02*
Y1420000D01*
X11726000D01*
G01X11740000Y1376500D02*
X11764000D01*
G01X11697000Y1348000D02*
X11691000Y1337500D01*
X11683000Y1331500D01*
X11674000Y1330000D01*
X11666000Y1331500D01*
X11658000Y1339000D01*
X11653000Y1348000D01*
X11652000Y1357000D01*
X11654000Y1367500D01*
X11661000Y1375000D01*
X11668000Y1378000D01*
X11677000D01*
G01X11668000D02*
X11662000Y1382500D01*
X11657000Y1390000D01*
X11655000Y1399000D01*
X11657000Y1408000D01*
X11662000Y1415500D01*
X11671000Y1420000D01*
X11680000Y1418500D01*
X11689000Y1412500D01*
G01X11845000Y7032000D02*
Y7122000D01*
X11820000D01*
X11812000Y7117500D01*
X11807000Y7111500D01*
X11805000Y7099500D01*
X11807000Y7087500D01*
X11813000Y7080000D01*
X11820000Y7075500D01*
X11845000D01*
G01X11820000D02*
X11805000Y7032000D01*
G01X11777000Y7045500D02*
X11771000Y7038000D01*
X11764000Y7033500D01*
X11755000Y7032000D01*
X11746000Y7035000D01*
X11739000Y7041000D01*
X11734000Y7051500D01*
X11733000Y7063500D01*
X11735000Y7075500D01*
X11740000Y7083000D01*
X11747000Y7089000D01*
X11754000Y7090500D01*
X11761000Y7089000D01*
X11770000Y7083000D01*
X11767000Y7122000D01*
X11740000D01*
G01X11845000Y7286000D02*
Y7376000D01*
X11820000D01*
X11812000Y7371500D01*
X11807000Y7365500D01*
X11805000Y7353500D01*
X11807000Y7341500D01*
X11813000Y7334000D01*
X11820000Y7329500D01*
X11845000D01*
G01X11820000D02*
X11805000Y7286000D01*
G01X11774000Y7361000D02*
X11768000Y7370000D01*
X11761000Y7374500D01*
X11753000Y7376000D01*
X11743000Y7373000D01*
X11736000Y7365500D01*
X11734000Y7356500D01*
X11735000Y7347500D01*
X11739000Y7340000D01*
X11759000Y7325000D01*
X11768000Y7314500D01*
X11774000Y7299500D01*
X11776000Y7286000D01*
X11734000D01*
G01X12575000Y160000D02*
G03I-50000J0D01*
G01X12805000D02*
G03I-50000J0D01*
G01X12637000Y1450000D02*
Y1540000D01*
X12617000D01*
X12609000Y1535500D01*
X12603000Y1529500D01*
X12598000Y1520500D01*
X12594000Y1510000D01*
X12593000Y1495000D01*
X12594000Y1480000D01*
X12598000Y1469500D01*
X12603000Y1460500D01*
X12609000Y1454500D01*
X12617000Y1450000D01*
X12637000D01*
G01X12564000Y1487500D02*
X12557000Y1498000D01*
X12551000Y1504000D01*
X12543000Y1507000D01*
X12536000Y1504000D01*
X12531000Y1498000D01*
X12527000Y1489000D01*
X12526000Y1478500D01*
X12527000Y1469500D01*
X12531000Y1460500D01*
X12537000Y1453000D01*
X12544000Y1450000D01*
X12552000Y1453000D01*
X12559000Y1462000D01*
X12563000Y1475500D01*
X12564000Y1490500D01*
X12562000Y1510000D01*
X12559000Y1520500D01*
X12554000Y1531000D01*
X12547000Y1538500D01*
X12540000Y1540000D01*
X12533000Y1537000D01*
X12528000Y1529500D01*
G01X13360000Y4160000D02*
X13450000D01*
Y4185000D01*
X13445500Y4193000D01*
X13439500Y4198000D01*
X13427500Y4200000D01*
X13415500Y4198000D01*
X13408000Y4192000D01*
X13403500Y4185000D01*
Y4160000D01*
G01Y4185000D02*
X13360000Y4200000D01*
G01X13378000Y4228000D02*
X13367500Y4234000D01*
X13361500Y4242000D01*
X13360000Y4251000D01*
X13361500Y4259000D01*
X13369000Y4267000D01*
X13378000Y4272000D01*
X13387000Y4273000D01*
X13397500Y4271000D01*
X13405000Y4264000D01*
X13408000Y4257000D01*
Y4248000D01*
G01Y4257000D02*
X13412500Y4263000D01*
X13420000Y4268000D01*
X13429000Y4270000D01*
X13438000Y4268000D01*
X13445500Y4263000D01*
X13450000Y4254000D01*
X13448500Y4245000D01*
X13442500Y4236000D01*
G01X13397500Y4301000D02*
X13408000Y4308000D01*
X13414000Y4314000D01*
X13417000Y4322000D01*
X13414000Y4329000D01*
X13408000Y4334000D01*
X13399000Y4338000D01*
X13388500Y4339000D01*
X13379500Y4338000D01*
X13370500Y4334000D01*
X13363000Y4328000D01*
X13360000Y4321000D01*
X13363000Y4313000D01*
X13372000Y4306000D01*
X13385500Y4302000D01*
X13400500Y4301000D01*
X13420000Y4303000D01*
X13430500Y4306000D01*
X13441000Y4311000D01*
X13448500Y4318000D01*
X13450000Y4325000D01*
X13447000Y4332000D01*
X13439500Y4337000D01*
G01X13365000Y4460000D02*
X13455000D01*
Y4485000D01*
X13450500Y4493000D01*
X13444500Y4498000D01*
X13432500Y4500000D01*
X13420500Y4498000D01*
X13413000Y4492000D01*
X13408500Y4485000D01*
Y4460000D01*
G01Y4485000D02*
X13365000Y4500000D01*
G01X13383000Y4528000D02*
X13372500Y4534000D01*
X13366500Y4542000D01*
X13365000Y4551000D01*
X13366500Y4559000D01*
X13374000Y4567000D01*
X13383000Y4572000D01*
X13392000Y4573000D01*
X13402500Y4571000D01*
X13410000Y4564000D01*
X13413000Y4557000D01*
Y4548000D01*
G01Y4557000D02*
X13417500Y4563000D01*
X13425000Y4568000D01*
X13434000Y4570000D01*
X13443000Y4568000D01*
X13450500Y4563000D01*
X13455000Y4554000D01*
X13453500Y4545000D01*
X13447500Y4536000D01*
G01X13365000Y4620000D02*
X13366500Y4627000D01*
X13371000Y4635000D01*
X13378500Y4640000D01*
X13389000Y4642000D01*
X13399500Y4640000D01*
X13408500Y4634000D01*
X13413000Y4625000D01*
Y4615000D01*
X13416000Y4609000D01*
X13423500Y4604000D01*
X13434000Y4602000D01*
X13444500Y4605000D01*
X13452000Y4612000D01*
X13455000Y4620000D01*
X13452000Y4628000D01*
X13444500Y4635000D01*
X13434000Y4638000D01*
X13423500Y4636000D01*
X13416000Y4631000D01*
X13413000Y4625000D01*
Y4615000D01*
X13408500Y4606000D01*
X13399500Y4600000D01*
X13389000Y4598000D01*
X13378500Y4600000D01*
X13371000Y4605000D01*
X13366500Y4613000D01*
X13365000Y4620000D01*
G01X13078000Y4537400D02*
X13084000Y4541900D01*
X13091000Y4544900D01*
X13099000D01*
X13108000Y4540400D01*
X13115000Y4532900D01*
X13120000Y4523900D01*
X13124000Y4508900D01*
X13125000Y4495400D01*
X13123000Y4481900D01*
X13120000Y4472900D01*
X13114000Y4463900D01*
X13107000Y4457900D01*
X13100000Y4454900D01*
X13093000D01*
X13086000Y4457900D01*
X13080000Y4462400D01*
X13075000Y4468400D01*
G01X13030000Y4454900D02*
Y4544900D01*
X13042000Y4526900D01*
G01Y4454900D02*
X13018000D01*
G01X12977000Y4465400D02*
X12970000Y4457900D01*
X12962000Y4454900D01*
X12954000Y4457900D01*
X12947000Y4466900D01*
X12942000Y4480400D01*
X12940000Y4493900D01*
Y4510400D01*
X12942000Y4523900D01*
X12947000Y4535900D01*
X12953000Y4541900D01*
X12960000Y4544900D01*
X12968000Y4541900D01*
X12974000Y4535900D01*
X12978000Y4526900D01*
X12980000Y4514900D01*
X12978000Y4504400D01*
X12973000Y4493900D01*
X12967000Y4487900D01*
X12960000Y4486400D01*
X12952000Y4489400D01*
X12946000Y4496900D01*
X12940000Y4510400D01*
G01X13360000Y5800000D02*
X13450000D01*
Y5825000D01*
X13445500Y5833000D01*
X13439500Y5838000D01*
X13427500Y5840000D01*
X13415500Y5838000D01*
X13408000Y5832000D01*
X13403500Y5825000D01*
Y5800000D01*
G01Y5825000D02*
X13360000Y5840000D01*
G01Y5902000D02*
X13450000D01*
X13385500Y5865000D01*
Y5915000D01*
G01X13360000Y5958000D02*
X13379500Y5960000D01*
X13396000Y5963000D01*
X13411000Y5967000D01*
X13427500Y5972000D01*
X13450000Y5980000D01*
Y5940000D01*
G01X13365000Y6090000D02*
X13455000D01*
Y6115000D01*
X13450500Y6123000D01*
X13444500Y6128000D01*
X13432500Y6130000D01*
X13420500Y6128000D01*
X13413000Y6122000D01*
X13408500Y6115000D01*
Y6090000D01*
G01Y6115000D02*
X13365000Y6130000D01*
G01Y6192000D02*
X13455000D01*
X13390500Y6155000D01*
Y6205000D01*
G01X13365000Y6250000D02*
X13366500Y6257000D01*
X13371000Y6265000D01*
X13378500Y6270000D01*
X13389000Y6272000D01*
X13399500Y6270000D01*
X13408500Y6264000D01*
X13413000Y6255000D01*
Y6245000D01*
X13416000Y6239000D01*
X13423500Y6234000D01*
X13434000Y6232000D01*
X13444500Y6235000D01*
X13452000Y6242000D01*
X13455000Y6250000D01*
X13452000Y6258000D01*
X13444500Y6265000D01*
X13434000Y6268000D01*
X13423500Y6266000D01*
X13416000Y6261000D01*
X13413000Y6255000D01*
Y6245000D01*
X13408500Y6236000D01*
X13399500Y6230000D01*
X13389000Y6228000D01*
X13378500Y6230000D01*
X13371000Y6235000D01*
X13366500Y6243000D01*
X13365000Y6250000D01*
G01X13078000Y6172710D02*
X13084000Y6177210D01*
X13091000Y6180210D01*
X13099000D01*
X13108000Y6175710D01*
X13115000Y6168210D01*
X13120000Y6159210D01*
X13124000Y6144210D01*
X13125000Y6130710D01*
X13123000Y6117210D01*
X13120000Y6108210D01*
X13114000Y6099210D01*
X13107000Y6093210D01*
X13100000Y6090210D01*
X13093000D01*
X13086000Y6093210D01*
X13080000Y6097710D01*
X13075000Y6103710D01*
G01X13049000Y6165210D02*
X13043000Y6174210D01*
X13036000Y6178710D01*
X13028000Y6180210D01*
X13018000Y6177210D01*
X13011000Y6169710D01*
X13009000Y6160710D01*
X13010000Y6151710D01*
X13014000Y6144210D01*
X13034000Y6129210D01*
X13043000Y6118710D01*
X13049000Y6103710D01*
X13051000Y6090210D01*
X13009000D01*
G01X12960000D02*
Y6180210D01*
X12972000Y6162210D01*
G01Y6090210D02*
X12948000D01*
M02*
