M48
METRIC,TZ
T01C.254
T02C.4572
T03C.6
T04C.9
T05C1.
T06C1.1
T07C1.1
T08C3.3
;LEADER: 12 
;HEADER: 
;CODE  : ASCII 
;FILE  : HY_CEPRI_TEST_V10_220517-1-4.drl for board G:/github/MBEDBoard/HY_CEPRI_TEST_V10_220517/PCB/#Taaaaao07880.tmp ... layers TOP and BOTTOM
;T01 Holesize 1. = 0.254000 Tolerance = +0.000000/-0.000000 PLATED MM Quantity = 156
;T02 Holesize 2. = 0.457200 Tolerance = +0.000000/-0.000000 PLATED MM Quantity = 18
;T03 Holesize 3. = 0.600000 Tolerance = +0.000000/-0.000000 PLATED MM Quantity = 10
;T04 Holesize 4. = 0.900000 Tolerance = +0.000000/-0.000000 PLATED MM Quantity = 1
;T05 Holesize 5. = 1.000000 Tolerance = +0.000000/-0.000000 PLATED MM Quantity = 3
;T06 Holesize 6. = 1.100000 Tolerance = +0.000000/-0.000000 PLATED MM Quantity = 14
;T07 Holesize 7. = 1.100000 Tolerance = +0.030000/-0.030000 PLATED MM Quantity = 2
;T08 Holesize 8. = 3.300000 Tolerance = +0.000000/-0.000000 PLATED MM Quantity = 4
%
G90
T01
X884250Y376060
X884250Y876060
X1384250Y376060
X1384250Y876060
X1884250Y376060
X1884250Y876060
X2384250Y376060
X2384250Y876060
X2884250Y376060
X2884250Y876060
X3384250Y376060
X3384250Y876060
X5143630Y360950
X5643630Y360950
X6143630Y360950
X6643630Y360950
X7143630Y360950
X7180480Y1346500
X6680480Y1346500
X6223800Y1673800
X6150000Y1230000
X5980000Y1930000
X5840000Y1230000
X5400000Y1230000
X5310000Y1930000
X5230000Y1660000
X5230000Y1500000
X5090000Y1230000
X5080000Y1940000
X4810000Y1230000
X4750000Y1970000
X4750000Y1680000
X4530000Y1230000
X4410000Y1970000
X4320000Y1760000
X4250000Y1580000
X4250000Y1240000
X2480000Y1980000
X2480000Y1780000
X2480000Y1550000
X2210000Y1550000
X1940000Y1980000
X1940000Y1780000
X1940000Y1550000
X1575000Y1835000
X1485000Y1835000
X170000Y2080000
X170000Y2280000
X370000Y2080000
X370000Y2280000
X570000Y2080000
X570000Y2280000
X570000Y2480000
X570000Y2900000
X770000Y2080000
X770000Y2280000
X770000Y2480000
X770000Y2900000
X970000Y2080000
X970000Y2280000
X970000Y2480000
X1170000Y2080000
X1170000Y2280000
X1170000Y2480000
X1390000Y2510000
X1640000Y2285000
X2765000Y3030000
X4140000Y2460000
X4470000Y2110000
X4570000Y2210000
X4690000Y2810000
X4695000Y2985000
X5825000Y2865000
X5916860Y2865000
X6174460Y2910000
X6257990Y2177990
X6260000Y2060000
X6260000Y2440000
X6260000Y2560000
X6260000Y2680000
X6290000Y2880000
X6960480Y2156500
X7210000Y2440000
X7280000Y2440000
X7350000Y2440000
X7460480Y2156500
X8206500Y2519520
X8206500Y3019520
X8310480Y3806500
X7810480Y3806500
X7520480Y3166500
X7020480Y3166500
X6389720Y3812250
X5766500Y3739520
X5670000Y3340000
X5530000Y3700000
X5405000Y3220000
X5396500Y3739520
X5290000Y3610000
X4830000Y3340000
X4382430Y3738290
X4382430Y3238290
X3882430Y3738290
X3882430Y3238290
X2999100Y3823580
X2499100Y3823580
X2200000Y3120000
X1999100Y3823580
X1640000Y3140000
X1499100Y3823580
X1170000Y3300000
X1170000Y3100000
X999100Y3823580
X970000Y3300000
X970000Y3100000
X770000Y3300000
X770000Y3100000
X570000Y3300000
X570000Y3100000
X499100Y3823580
X370000Y3300000
X370000Y3100000
X170000Y3300000
X170000Y3100000
X990480Y4326500
X1490480Y4326500
X1980000Y4750000
X2080000Y4550000
X2080000Y4605670
X2080000Y4660000
X2435000Y4520000
X2730480Y4556500
X3230480Y4556500
X3950480Y4656500
X4450480Y4656500
X5210480Y4666500
X5396500Y4239520
X5710480Y4666500
X5766500Y4239520
X6389720Y4312250
X7030480Y4386500
X7530480Y4386500
X7565500Y5164070
X7065500Y5164070
X6565500Y5164070
X6065500Y5164070
X5565500Y5164070
X5065500Y5164070
X4565500Y5164070
X4065500Y5164070
X3565500Y5164070
X3065500Y5164070
X2565500Y5164070
X2065500Y5164070
X1565500Y5164070
X1065500Y5164070
T02
X1990000Y2570000
X1990000Y2690000
X1990000Y2810000
X2110000Y2570000
X2230000Y2570000
X2110000Y2690000
X2230000Y2690000
X2110000Y2810000
X2230000Y2810000
X5160000Y2540000
X5280000Y2540000
X5160000Y2660000
X5280000Y2660000
X5160000Y2780000
X5280000Y2780000
X5400000Y2780000
X5400000Y2660000
X5400000Y2540000
T03
X8076500Y1246000
X8076500Y1373000
X8076500Y1500000
X8076500Y1627000
X8076500Y1754000
X8203500Y1754000
X8203500Y1627000
X8203500Y1500000
X8203500Y1373000
X8203500Y1246000
T04
X8140000Y4035000
T05
X3855000Y120000
X4605000Y120000
X8140000Y4285000
T06
X3460000Y1990000
X3460000Y2244000
X3460000Y2498000
X3460000Y2752000
X3460000Y3006000
X3460000Y3260000
X3460000Y4088000
X3460000Y4342000
X3460000Y4596000
X3460000Y4850000
X6096000Y3480000
X6350000Y3480000
X6746000Y3480000
X7000000Y3480000
T07
X4780000Y4640000
X7320000Y4640000
T08
X360000Y360000
X360000Y5040000
X8140000Y5040000
X8140000Y360000
M30
