G04 ================== begin FILE IDENTIFICATION RECORD ==================*
G04 Layout Name:  HY_CEPRI_TEST_V10_220517.brd*
G04 Film Name:    L02_GND*
G04 File Format:  Gerber RS274X*
G04 File Origin:  Cadence Allegro 17.2-S079*
G04 Origin Date:  Wed May 18 09:49:00 2022*
G04 *
G04 Layer:  VIA CLASS/L02_GND*
G04 Layer:  PIN/L02_GND*
G04 Layer:  ETCH/L02_GND*
G04 *
G04 Offset:    (0.0000 0.0000)*
G04 Mirror:    No*
G04 Mode:      Positive*
G04 Rotation:  0*
G04 FullContactRelief:  No*
G04 UndefLineWidth:     0.1524*
G04 ================== end FILE IDENTIFICATION RECORD ====================*
%FSLAX55Y55*MOMM*%
%IR0*IPPOS*OFA0.00000B0.00000*MIA0B0*SFA1.00000B1.00000*%
%ADD11C,.508*%
%ADD12C,.762*%
%ADD19O,2.1X1.*%
%ADD20O,1.6X1.*%
%ADD17C,1.*%
%ADD18R,1.X1.*%
%ADD16C,1.7*%
%ADD13C,1.8*%
%ADD15C,1.65*%
%ADD21R,1.6X1.6*%
%ADD10C,6.9*%
%ADD14R,1.8X1.8*%
%ADD22C,.5032*%
%ADD25C,1.2004*%
%ADD23C,1.4228*%
%ADD24C,2.6148*%
G75*
%LPD*%
G75*
G36*
G01X630310Y5370000D02*
X7869690D01*
G02X7883050Y5334370I-1J-20320D01*
G03X7749260Y5040000I256947J-294370D01*
G03X8140000Y4649260I390740J0D01*
G03X8434370Y4783050I0J390737D01*
G02X8470000Y4769690I15310J-13361D01*
G01Y630310D01*
G02X8434370Y616950I-20320J1D01*
G03X8140000Y750740I-294370J-256947D01*
G03X7749260Y360000I0J-390740D01*
G03X7883050Y65630I390737J0D01*
G02X7869690Y30000I-13361J-15310D01*
G01X4736200D01*
G02X4718260Y59850I5J20319D01*
G03X4733240Y120000I-113272J60150D01*
G03X4476760I-128240J0D01*
G03X4491740Y59850I128252J0D01*
G02X4473800Y30000I-17945J-9531D01*
G01X3986200D01*
G02X3968260Y59850I5J20319D01*
G03X3983240Y120000I-113272J60150D01*
G03X3726760I-128240J0D01*
G03X3741740Y59850I128252J0D01*
G02X3723800Y30000I-17945J-9531D01*
G01X630310D01*
G02X616950Y65630I1J20320D01*
G03X750740Y360000I-256947J294370D01*
G03X360000Y750740I-390740J0D01*
G03X65630Y616950I0J-390737D01*
G02X30000Y630310I-15310J13361D01*
G01Y4769690D01*
G02X65630Y4783050I20320J-1D01*
G03X360000Y4649260I294370J256947D01*
G03X750740Y5040000I0J390740D01*
G03X616950Y5334370I-390737J0D01*
G02X630310Y5370000I13361J15310D01*
G37*
%LPC*%
G75*
G36*
G01X7819000Y3106260D02*
G02Y3297740I0J95740D01*
G01X7929000D01*
G02X8024740Y3202000I0J-95740D01*
G02X7967000Y3114130I-95731J0D01*
G03X7958880Y3083190I8066J-18652D01*
G02X7967020Y3059000I-31873J-24190D01*
G02X7886980I-40020J0D01*
G02X7891190Y3076870I40031J0D01*
G03X7873010Y3106260I-18182J9071D01*
G01X7819000D01*
G37*
G36*
G01X7891190Y2463130D02*
G02X7886980Y2481000I35821J17870D01*
G02X7967020I40020J0D01*
G02X7958880Y2456810I-40013J0D01*
G03X7967000Y2425870I16186J-12288D01*
G02X8024740Y2338000I-37991J-87870D01*
G02X7929000Y2242260I-95740J0D01*
G01X7819000D01*
G02Y2433740I0J95740D01*
G01X7873010D01*
G03X7891190Y2463130I-2J20319D01*
G37*
G36*
G01X3324260Y4760000D02*
Y4940000D01*
G02X3370000Y4985740I45740J0D01*
G01X3550000D01*
G02X3595740Y4940000I0J-45740D01*
G01Y4760000D01*
G02X3568500Y4718170I-45737J0D01*
G03X3561530Y4686100I8225J-18580D01*
G02X3595740Y4596000I-101532J-90095D01*
G02X3538890Y4485540I-135737J0D01*
G03Y4452460I11805J-16540D01*
G02Y4231540I-78887J-110460D01*
G03Y4198460I11805J-16540D01*
G02X3595740Y4088000I-78887J-110460D01*
G02X3324260I-135740J0D01*
G02X3381110Y4198460I135737J0D01*
G03Y4231540I-11805J16540D01*
G02Y4452460I78887J110460D01*
G03Y4485540I-11805J16540D01*
G02X3324260Y4596000I78887J110460D01*
G02X3358470Y4686100I135742J5D01*
G03X3351500Y4718170I-15195J13490D01*
G02X3324260Y4760000I18497J41830D01*
G37*
G36*
G01X8060000Y4160740D02*
X8071830D01*
Y4176250D01*
X8067420Y4179280D01*
G02X8011760Y4285000I72572J105720D01*
G02X8268240I128240J0D01*
G02X8212580Y4179280I-128232J0D01*
G01X8208170Y4176250D01*
Y4160740D01*
X8220000D01*
G02X8265740Y4115000I0J-45740D01*
G01Y3955000D01*
G02X8220000Y3909260I-45740J0D01*
G01X8060000D01*
G02X8014260Y3955000I0J45740D01*
G01Y4115000D01*
G02X8060000Y4160740I45740J0D01*
G37*
G36*
G01X6836100Y3581530D02*
G03X6868170Y3588500I13490J15195D01*
G02X6910000Y3615740I41830J-18497D01*
G01X7090000D01*
G02X7135740Y3570000I0J-45740D01*
G01Y3390000D01*
G02X7090000Y3344260I-45740J0D01*
G01X6910000D01*
G02X6868170Y3371500I0J45737D01*
G03X6836100Y3378470I-18580J-8225D01*
G02X6746000Y3344260I-90095J101532D01*
G02Y3615740I0J135740D01*
G02X6836100Y3581530I5J-135742D01*
G37*
G36*
G01X6186100D02*
G03X6218170Y3588500I13490J15195D01*
G02X6260000Y3615740I41830J-18497D01*
G01X6440000D01*
G02X6485740Y3570000I0J-45740D01*
G01Y3390000D01*
G02X6440000Y3344260I-45740J0D01*
G01X6260000D01*
G02X6218170Y3371500I0J45737D01*
G03X6186100Y3378470I-18580J-8225D01*
G02X6096000Y3344260I-90095J101532D01*
G02Y3615740I0J135740D01*
G02X6186100Y3581530I5J-135742D01*
G37*
G36*
G01X3324260Y3170000D02*
Y3350000D01*
G02X3370000Y3395740I45740J0D01*
G01X3550000D01*
G02X3595740Y3350000I0J-45740D01*
G01Y3170000D01*
G02X3568500Y3128170I-45737J0D01*
G03X3561530Y3096100I8225J-18580D01*
G02X3595740Y3006000I-101532J-90095D01*
G02X3538890Y2895540I-135737J0D01*
G03Y2862460I11805J-16540D01*
G02Y2641540I-78887J-110460D01*
G03Y2608460I11805J-16540D01*
G02Y2387540I-78887J-110460D01*
G03Y2354460I11805J-16540D01*
G02Y2133540I-78887J-110460D01*
G03Y2100460I11805J-16540D01*
G02X3595740Y1990000I-78887J-110460D01*
G02X3324260I-135740J0D01*
G02X3381110Y2100460I135737J0D01*
G03Y2133540I-11805J16540D01*
G02Y2354460I78887J110460D01*
G03Y2387540I-11805J16540D01*
G02Y2608460I78887J110460D01*
G03Y2641540I-11805J16540D01*
G02Y2862460I78887J110460D01*
G03Y2895540I-11805J16540D01*
G02X3324260Y3006000I78887J110460D01*
G02X3358470Y3096100I135742J5D01*
G03X3351500Y3128170I-15195J13490D01*
G02X3324260Y3170000I18497J41830D01*
G37*
G36*
G01X5870930Y2919330D02*
G02X5916860Y2936140I45930J-54342D01*
G02Y2793860I0J-71140D01*
G02X5870930Y2810670I0J71152D01*
G02X5825000Y2793860I-45930J54342D01*
G02Y2936140I0J71140D01*
G02X5870930Y2919330I0J-71152D01*
G37*
G36*
G01X6206310Y2486670D02*
G03Y2513330I-15338J13330D01*
G02X6188860Y2560000I53684J46670D01*
G02X6331140I71140J0D01*
G02X6313690Y2513330I-71134J0D01*
G03Y2486670I15338J-13330D01*
G02X6331140Y2440000I-53684J-46670D01*
G02X6188860I-71140J0D01*
G02X6206310Y2486670I71134J0D01*
G37*
G36*
G01X7245000Y2378070D02*
G02X7210000Y2368860I-35008J61928D01*
G02Y2511140I0J71140D01*
G02X7245000Y2501930I-8J-71138D01*
G02X7280000Y2511140I35008J-61928D01*
G02X7315000Y2501930I-8J-71138D01*
G02X7350000Y2511140I35008J-61928D01*
G02Y2368860I0J-71140D01*
G02X7315000Y2378070I8J71138D01*
G02X7280000Y2368860I-35008J61928D01*
G02X7245000Y2378070I8J71138D01*
G37*
G36*
G01X1530000Y1890100D02*
G02X1575000Y1906140I45000J-55103D01*
G02Y1763860I0J-71140D01*
G02X1530000Y1779900I0J71143D01*
G02X1485000Y1763860I-45000J55103D01*
G02Y1906140I0J71140D01*
G02X1530000Y1890100I0J-71143D01*
G37*
G36*
G01X8026500Y1849740D02*
X8126500D01*
G02X8157270Y1837840I0J-45731D01*
G02X8203500Y1849740I46230J-83849D01*
G02X8299240Y1754000I0J-95740D01*
G02X8275150Y1690500I-95736J0D01*
G02Y1563500I-71646J-63500D01*
G02Y1436500I-71646J-63500D01*
G02Y1309500I-71646J-63500D01*
G02X8299240Y1246000I-71646J-63500D01*
G02X8203500Y1150260I-95740J0D01*
G02X8140000Y1174350I0J95736D01*
G02X8076500Y1150260I-63500J71646D01*
G02X7980760Y1246000I0J95740D01*
G02X8004850Y1309500I95736J0D01*
G02Y1436500I71646J63500D01*
G02Y1563500I71646J63500D01*
G02X7980760Y1627000I71646J63500D01*
G02X7992660Y1673230I95749J0D01*
G02X7980760Y1704000I33831J30770D01*
G01Y1804000D01*
G02X8026500Y1849740I45740J0D01*
G37*
G36*
G01X8262000Y3297740D02*
X8322000D01*
G02Y3106260I0J-95740D01*
G01X8262000D01*
G02Y3297740I0J95740D01*
G37*
G36*
G01Y2433740D02*
X8322000D01*
G02Y2242260I0J-95740D01*
G01X8262000D01*
G02Y2433740I0J95740D01*
G37*
G36*
G01X6231520Y2839490D02*
G03X6205850Y2846160I-16707J-11566D01*
G02X6174460Y2838860I-31390J63839D01*
G02Y2981140I0J71140D01*
G02X6232940Y2950510I0J-71141D01*
G03X6258610Y2943840I16707J11566D01*
G02X6290000Y2951140I31390J-63839D01*
G02Y2808860I0J-71140D01*
G02X6231520Y2839490I0J71141D01*
G37*
G54D25*
X4345000Y150000D03*
X4115000D03*
G54D23*
X6260000Y2060000D03*
X4140000Y2460000D03*
X2765000Y3030000D03*
X2200000Y3120000D03*
X4690000Y2810000D03*
X2435000Y4520000D03*
X4695000Y2985000D03*
X6223800Y1673800D03*
X4830000Y3340000D03*
X5310000Y1930000D03*
X4570000Y2210000D03*
X1980000Y4750000D03*
X5405000Y3220000D03*
X5670000Y3340000D03*
X5980000Y1930000D03*
X1640000Y2285000D03*
Y3140000D03*
X5290000Y3610000D03*
X5530000Y3700000D03*
G54D24*
X7320000Y4640000D03*
X4780000D03*
%LPD*%
G75*
G54D10*
X360000Y360000D03*
Y5040000D03*
X8140000Y360000D03*
Y5040000D03*
G54D20*
X8292000Y2338000D03*
Y3202000D03*
G54D11*
X170000Y2080000D03*
Y2280000D03*
Y3100000D03*
Y3300000D03*
X570000Y2480000D03*
X770000D03*
X570000Y2280000D03*
X770000D03*
X570000Y2080000D03*
X770000D03*
X370000D03*
Y2280000D03*
X570000Y2900000D03*
X770000D03*
X570000Y3100000D03*
X770000D03*
X370000D03*
Y3300000D03*
X770000D03*
X570000D03*
X499100Y3823580D03*
X884250Y376060D03*
Y876060D03*
X970000Y2480000D03*
X1170000D03*
X970000Y2280000D03*
X1170000D03*
X970000Y2080000D03*
X1170000D03*
X970000Y3100000D03*
X1170000D03*
Y3300000D03*
X970000D03*
X999100Y3823580D03*
X990480Y4326500D03*
X1065500Y5164070D03*
X1384250Y376060D03*
Y876060D03*
X1485000Y1835000D03*
X1575000D03*
X1390000Y2510000D03*
X1640000Y2285000D03*
Y3140000D03*
X1499100Y3823580D03*
X1490480Y4326500D03*
X1565500Y5164070D03*
X1884250Y376060D03*
Y876060D03*
X1940000Y1550000D03*
X2210000D03*
X1940000Y1980000D03*
Y1780000D03*
X2200000Y3120000D03*
X1999100Y3823580D03*
X2080000Y4605670D03*
Y4550000D03*
Y4660000D03*
X2065500Y5164070D03*
X1980000Y4750000D03*
X2884250Y376060D03*
X2384250D03*
X2884250Y876060D03*
X2384250D03*
X2480000Y1550000D03*
Y1780000D03*
Y1980000D03*
X2765000Y3030000D03*
X2499100Y3823580D03*
X2730480Y4556500D03*
X2435000Y4520000D03*
X2565500Y5164070D03*
X3384250Y376060D03*
Y876060D03*
X2999100Y3823580D03*
X3230480Y4556500D03*
X3065500Y5164070D03*
X3882430Y3238290D03*
Y3738290D03*
X3565500Y5164070D03*
X4250000Y1240000D03*
X4410000Y1970000D03*
X4320000Y1760000D03*
X4250000Y1580000D03*
X4140000Y2460000D03*
X4382430Y3238290D03*
Y3738290D03*
X3950480Y4656500D03*
X4065500Y5164070D03*
X4530000Y1230000D03*
X4810000D03*
X4750000Y1970000D03*
Y1680000D03*
X4470000Y2110000D03*
X4570000Y2210000D03*
X4690000Y2810000D03*
X4695000Y2985000D03*
X4830000Y3340000D03*
X4450480Y4656500D03*
X4565500Y5164070D03*
X5143630Y360950D03*
X5090000Y1230000D03*
X5400000D03*
X5230000Y1500000D03*
X5080000Y1940000D03*
X5230000Y1660000D03*
X5310000Y1930000D03*
X5405000Y3220000D03*
X5290000Y3610000D03*
X5396500Y3739520D03*
Y4239520D03*
X5065500Y5164070D03*
X5210480Y4666500D03*
X5643630Y360950D03*
X5840000Y1230000D03*
X5980000Y1930000D03*
X5825000Y2865000D03*
X5916860D03*
X5670000Y3340000D03*
X5766500Y3739520D03*
X5530000Y3700000D03*
X5766500Y4239520D03*
X5565500Y5164070D03*
X5710480Y4666500D03*
X6143630Y360950D03*
X6150000Y1230000D03*
X6223800Y1673800D03*
X6260000Y2060000D03*
X6257990Y2177990D03*
X6260000Y2440000D03*
Y2560000D03*
Y2680000D03*
X6174460Y2910000D03*
X6290000Y2880000D03*
X6389720Y3812250D03*
Y4312250D03*
X6065500Y5164070D03*
X6643630Y360950D03*
X6680480Y1346500D03*
X6960480Y2156500D03*
X7020480Y3166500D03*
X7030480Y4386500D03*
X6565500Y5164070D03*
X7143630Y360950D03*
X7180480Y1346500D03*
X7460480Y2156500D03*
X7210000Y2440000D03*
X7280000D03*
X7350000D03*
X7520480Y3166500D03*
X7530480Y4386500D03*
X7065500Y5164070D03*
X7810480Y3806500D03*
X7565500Y5164070D03*
X8206500Y2519520D03*
Y3019520D03*
X8310480Y3806500D03*
G54D21*
X8140000Y4035000D03*
G54D12*
X1990000Y2570000D03*
X2110000D03*
X2230000D03*
X2110000Y2690000D03*
X1990000Y2810000D03*
X2110000D03*
X2230000D03*
X1990000Y2690000D03*
X2230000D03*
X5160000Y2540000D03*
X5400000D03*
X5280000D03*
X5160000Y2660000D03*
Y2780000D03*
X5400000Y2660000D03*
Y2780000D03*
X5280000D03*
Y2660000D03*
G54D22*
G01X360000Y360000D02*
Y760900D01*
G01Y360000D02*
X760900D01*
G01X360000Y4639100D02*
Y5040000D01*
G01D02*
X760900D01*
G01X3314100Y1990000D02*
X3460000D01*
G01X3314100Y4088000D02*
X3460000D01*
G01X3855000Y120000D02*
Y258400D01*
G01X3716600Y120000D02*
X3855000D01*
G01D02*
X3993400D01*
G01X3460000Y1844100D02*
Y1990000D01*
G01D02*
X3605900D01*
G01X3460000Y3942100D02*
Y4088000D01*
G01D02*
X3605900D01*
G01X4605000Y120000D02*
Y258400D01*
G01X4466600Y120000D02*
X4605000D01*
G01D02*
X4743400D01*
G01X4780000Y4499100D02*
Y4640000D01*
G01D02*
Y4780900D01*
G01X4639100Y4640000D02*
X4780000D01*
G01D02*
X4920900D01*
G01X7739100Y360000D02*
X8140000D01*
G01X7970600Y1246000D02*
X8076500D01*
G01X7874000Y2232100D02*
Y2338000D01*
G01X7713100D02*
X7874000D01*
G01D02*
X8034900D01*
G01X7874000Y3202000D02*
Y3307900D01*
G01X7713100Y3202000D02*
X7874000D01*
G01D02*
X8034900D01*
G01X8001600Y4285000D02*
X8140000D01*
G01X7739100Y5040000D02*
X8140000D01*
G01Y360000D02*
Y760900D01*
G01X8076500Y1140100D02*
Y1246000D01*
G01X8292000Y2232100D02*
Y2338000D01*
G01D02*
Y2443900D01*
G01X8156100Y2338000D02*
X8292000D01*
G01D02*
X8427900D01*
G01X8292000Y3096100D02*
Y3202000D01*
G01D02*
Y3307900D01*
G01X8156100Y3202000D02*
X8292000D01*
G01D02*
X8427900D01*
G01X8140000Y4285000D02*
Y4423400D01*
G01Y4285000D02*
X8278400D01*
G01X8140000Y4639100D02*
Y5040000D01*
G54D13*
X3460000Y1990000D03*
Y2244000D03*
Y2498000D03*
Y2752000D03*
Y3006000D03*
Y4088000D03*
Y4342000D03*
Y4596000D03*
X6096000Y3480000D03*
X6746000D03*
G54D14*
X3460000Y3260000D03*
Y4850000D03*
X6350000Y3480000D03*
X7000000D03*
G54D15*
X3855000Y120000D03*
X4605000D03*
X8140000Y4285000D03*
G54D16*
X4780000Y4640000D03*
X7320000D03*
G54D17*
X8076500Y1246000D03*
Y1373000D03*
Y1500000D03*
Y1627000D03*
X8203500Y1246000D03*
Y1373000D03*
Y1500000D03*
Y1627000D03*
Y1754000D03*
G54D18*
X8076500D03*
G54D19*
X7874000Y2338000D03*
Y3202000D03*
M02*
