G04 ================== begin FILE IDENTIFICATION RECORD ==================*
G04 Layout Name:  HY_CEPRI_TEST_V10_220517.brd*
G04 Film Name:    Drill_Legend*
G04 File Format:  Gerber RS274X*
G04 File Origin:  Cadence Allegro 17.2-S079*
G04 Origin Date:  Wed May 18 09:49:00 2022*
G04 *
G04 Layer:  MANUFACTURING/NCLEGEND-1-4*
G04 Layer:  MANUFACTURING/NCDRILL_LEGEND*
G04 Layer:  MANUFACTURING/NCDRILL_FIGURE*
G04 Layer:  BOARD GEOMETRY/DIMENSION*
G04 *
G04 Offset:    (0.0000 0.0000)*
G04 Mirror:    No*
G04 Mode:      Positive*
G04 Rotation:  0*
G04 FullContactRelief:  No*
G04 UndefLineWidth:     0.1524*
G04 ================== end FILE IDENTIFICATION RECORD ====================*
%FSLAX55Y55*MOMM*%
%IR0*IPPOS*OFA0.00000B0.00000*MIA0B0*SFA1.00000B1.00000*%
%AMMACRO16*
1,1,.1524,.55,0.0*
20,1,.1524,.55,0.0,0.0,-.55,0.0*
1,1,.1524,0.0,-.55*
20,1,.1524,0.0,-.55,-.55,0.0,0.0*
1,1,.1524,-.55,0.0*
20,1,.1524,-.55,0.0,0.0,.55,0.0*
1,1,.1524,0.0,.55*
20,1,.1524,0.0,.55,.55,0.0,0.0*
1,1,.1524,.55,0.0*
%
%ADD16MACRO16*%
%AMMACRO14*
1,1,.1524,-.1375,.4125*
20,1,.1524,-.1375,.4125,.1375,.4125,0.0*
1,1,.1524,.1375,.4125*
20,1,.1524,.1375,.4125,.20913,.406233,0.0*
1,1,.1524,.20913,.406233*
20,1,.1524,.20913,.406233,.278583,.387623,0.0*
1,1,.1524,.278583,.387623*
20,1,.1524,.278583,.387623,.34375,.357235,0.0*
1,1,.1524,.34375,.357235*
20,1,.1524,.34375,.357235,.40265,.315993,0.0*
1,1,.1524,.40265,.315993*
20,1,.1524,.40265,.315993,.453493,.26515,0.0*
1,1,.1524,.453493,.26515*
20,1,.1524,.453493,.26515,.494735,.20625,0.0*
1,1,.1524,.494735,.20625*
20,1,.1524,.494735,.20625,.525123,.141083,0.0*
1,1,.1524,.525123,.141083*
20,1,.1524,.525123,.141083,.543733,.07163,0.0*
1,1,.1524,.543733,.07163*
20,1,.1524,.543733,.07163,.55,0.0,0.0*
1,1,.1524,.55,0.0*
20,1,.1524,.55,0.0,.543733,-.07163,0.0*
1,1,.1524,.543733,-.07163*
20,1,.1524,.543733,-.07163,.525123,-.141083,0.0*
1,1,.1524,.525123,-.141083*
20,1,.1524,.525123,-.141083,.494735,-.20625,0.0*
1,1,.1524,.494735,-.20625*
20,1,.1524,.494735,-.20625,.453493,-.26515,0.0*
1,1,.1524,.453493,-.26515*
20,1,.1524,.453493,-.26515,.40265,-.315993,0.0*
1,1,.1524,.40265,-.315993*
20,1,.1524,.40265,-.315993,.34375,-.357235,0.0*
1,1,.1524,.34375,-.357235*
20,1,.1524,.34375,-.357235,.278583,-.387623,0.0*
1,1,.1524,.278583,-.387623*
20,1,.1524,.278583,-.387623,.20913,-.406233,0.0*
1,1,.1524,.20913,-.406233*
20,1,.1524,.20913,-.406233,.1375,-.4125,0.0*
1,1,.1524,.1375,-.4125*
20,1,.1524,.1375,-.4125,-.1375,-.4125,0.0*
1,1,.1524,-.1375,-.4125*
20,1,.1524,-.1375,-.4125,-.20913,-.406233,0.0*
1,1,.1524,-.20913,-.406233*
20,1,.1524,-.20913,-.406233,-.278583,-.387623,0.0*
1,1,.1524,-.278583,-.387623*
20,1,.1524,-.278583,-.387623,-.34375,-.357235,0.0*
1,1,.1524,-.34375,-.357235*
20,1,.1524,-.34375,-.357235,-.40265,-.315993,0.0*
1,1,.1524,-.40265,-.315993*
20,1,.1524,-.40265,-.315993,-.453493,-.26515,0.0*
1,1,.1524,-.453493,-.26515*
20,1,.1524,-.453493,-.26515,-.494735,-.20625,0.0*
1,1,.1524,-.494735,-.20625*
20,1,.1524,-.494735,-.20625,-.525123,-.141083,0.0*
1,1,.1524,-.525123,-.141083*
20,1,.1524,-.525123,-.141083,-.543733,-.07163,0.0*
1,1,.1524,-.543733,-.07163*
20,1,.1524,-.543733,-.07163,-.55,0.0,0.0*
1,1,.1524,-.55,0.0*
20,1,.1524,-.55,0.0,-.543733,.07163,0.0*
1,1,.1524,-.543733,.07163*
20,1,.1524,-.543733,.07163,-.525123,.141083,0.0*
1,1,.1524,-.525123,.141083*
20,1,.1524,-.525123,.141083,-.494735,.20625,0.0*
1,1,.1524,-.494735,.20625*
20,1,.1524,-.494735,.20625,-.453493,.26515,0.0*
1,1,.1524,-.453493,.26515*
20,1,.1524,-.453493,.26515,-.40265,.315993,0.0*
1,1,.1524,-.40265,.315993*
20,1,.1524,-.40265,.315993,-.34375,.357235,0.0*
1,1,.1524,-.34375,.357235*
20,1,.1524,-.34375,.357235,-.278583,.387623,0.0*
1,1,.1524,-.278583,.387623*
20,1,.1524,-.278583,.387623,-.20913,.406233,0.0*
1,1,.1524,-.20913,.406233*
20,1,.1524,-.20913,.406233,-.1375,.4125,0.0*
1,1,.1524,-.1375,.4125*
%
%ADD14MACRO14*%
%AMMACRO19*
1,1,.1524,-.3,.3*
20,1,.1524,-.3,.3,.3,.3,0.0*
1,1,.1524,.3,.3*
20,1,.1524,.3,.3,.352094,.295442,0.0*
1,1,.1524,.352094,.295442*
20,1,.1524,.352094,.295442,.402606,.281908,0.0*
1,1,.1524,.402606,.281908*
20,1,.1524,.402606,.281908,.45,.259808,0.0*
1,1,.1524,.45,.259808*
20,1,.1524,.45,.259808,.492836,.229813,0.0*
1,1,.1524,.492836,.229813*
20,1,.1524,.492836,.229813,.529813,.192836,0.0*
1,1,.1524,.529813,.192836*
20,1,.1524,.529813,.192836,.559808,.15,0.0*
1,1,.1524,.559808,.15*
20,1,.1524,.559808,.15,.581908,.102606,0.0*
1,1,.1524,.581908,.102606*
20,1,.1524,.581908,.102606,.595442,.052094,0.0*
1,1,.1524,.595442,.052094*
20,1,.1524,.595442,.052094,.6,0.0,0.0*
1,1,.1524,.6,0.0*
20,1,.1524,.6,0.0,.595442,-.052094,0.0*
1,1,.1524,.595442,-.052094*
20,1,.1524,.595442,-.052094,.581908,-.102606,0.0*
1,1,.1524,.581908,-.102606*
20,1,.1524,.581908,-.102606,.559808,-.15,0.0*
1,1,.1524,.559808,-.15*
20,1,.1524,.559808,-.15,.529813,-.192836,0.0*
1,1,.1524,.529813,-.192836*
20,1,.1524,.529813,-.192836,.492836,-.229813,0.0*
1,1,.1524,.492836,-.229813*
20,1,.1524,.492836,-.229813,.45,-.259808,0.0*
1,1,.1524,.45,-.259808*
20,1,.1524,.45,-.259808,.402606,-.281908,0.0*
1,1,.1524,.402606,-.281908*
20,1,.1524,.402606,-.281908,.352094,-.295442,0.0*
1,1,.1524,.352094,-.295442*
20,1,.1524,.352094,-.295442,.3,-.3,0.0*
1,1,.1524,.3,-.3*
20,1,.1524,.3,-.3,-.3,-.3,0.0*
1,1,.1524,-.3,-.3*
20,1,.1524,-.3,-.3,-.352094,-.295442,0.0*
1,1,.1524,-.352094,-.295442*
20,1,.1524,-.352094,-.295442,-.402606,-.281908,0.0*
1,1,.1524,-.402606,-.281908*
20,1,.1524,-.402606,-.281908,-.45,-.259808,0.0*
1,1,.1524,-.45,-.259808*
20,1,.1524,-.45,-.259808,-.492836,-.229813,0.0*
1,1,.1524,-.492836,-.229813*
20,1,.1524,-.492836,-.229813,-.529813,-.192836,0.0*
1,1,.1524,-.529813,-.192836*
20,1,.1524,-.529813,-.192836,-.559808,-.15,0.0*
1,1,.1524,-.559808,-.15*
20,1,.1524,-.559808,-.15,-.581908,-.102606,0.0*
1,1,.1524,-.581908,-.102606*
20,1,.1524,-.581908,-.102606,-.595442,-.052094,0.0*
1,1,.1524,-.595442,-.052094*
20,1,.1524,-.595442,-.052094,-.6,0.0,0.0*
1,1,.1524,-.6,0.0*
20,1,.1524,-.6,0.0,-.595442,.052094,0.0*
1,1,.1524,-.595442,.052094*
20,1,.1524,-.595442,.052094,-.581908,.102606,0.0*
1,1,.1524,-.581908,.102606*
20,1,.1524,-.581908,.102606,-.559808,.15,0.0*
1,1,.1524,-.559808,.15*
20,1,.1524,-.559808,.15,-.529813,.192836,0.0*
1,1,.1524,-.529813,.192836*
20,1,.1524,-.529813,.192836,-.492836,.229813,0.0*
1,1,.1524,-.492836,.229813*
20,1,.1524,-.492836,.229813,-.45,.259808,0.0*
1,1,.1524,-.45,.259808*
20,1,.1524,-.45,.259808,-.402606,.281908,0.0*
1,1,.1524,-.402606,.281908*
20,1,.1524,-.402606,.281908,-.352094,.295442,0.0*
1,1,.1524,-.352094,.295442*
20,1,.1524,-.352094,.295442,-.3,.3,0.0*
1,1,.1524,-.3,.3*
1,1,.1524,-.15,-.15*
20,1,.1524,-.15,-.15,-.19,-.145,0.0*
1,1,.1524,-.19,-.145*
20,1,.1524,-.19,-.145,-.225,-.125,0.0*
1,1,.1524,-.225,-.125*
20,1,.1524,-.225,-.125,-.255,-.095,0.0*
1,1,.1524,-.255,-.095*
20,1,.1524,-.255,-.095,-.275,-.06,0.0*
1,1,.1524,-.275,-.06*
20,1,.1524,-.275,-.06,-.285,-.02,0.0*
1,1,.1524,-.285,-.02*
20,1,.1524,-.285,-.02,-.285,.02,0.0*
1,1,.1524,-.285,.02*
20,1,.1524,-.285,.02,-.275,.06,0.0*
1,1,.1524,-.275,.06*
20,1,.1524,-.275,.06,-.255,.095,0.0*
1,1,.1524,-.255,.095*
20,1,.1524,-.255,.095,-.225,.125,0.0*
1,1,.1524,-.225,.125*
20,1,.1524,-.225,.125,-.19,.145,0.0*
1,1,.1524,-.19,.145*
20,1,.1524,-.19,.145,-.15,.15,0.0*
1,1,.1524,-.15,.15*
20,1,.1524,-.15,.15,-.11,.145,0.0*
1,1,.1524,-.11,.145*
20,1,.1524,-.11,.145,-.075,.125,0.0*
1,1,.1524,-.075,.125*
20,1,.1524,-.075,.125,-.045,.095,0.0*
1,1,.1524,-.045,.095*
20,1,.1524,-.045,.095,-.025,.06,0.0*
1,1,.1524,-.025,.06*
20,1,.1524,-.025,.06,-.015,.02,0.0*
1,1,.1524,-.015,.02*
20,1,.1524,-.015,.02,-.015,-.02,0.0*
1,1,.1524,-.015,-.02*
20,1,.1524,-.015,-.02,-.025,-.06,0.0*
1,1,.1524,-.025,-.06*
20,1,.1524,-.025,-.06,-.045,-.095,0.0*
1,1,.1524,-.045,-.095*
20,1,.1524,-.045,-.095,-.075,-.125,0.0*
1,1,.1524,-.075,-.125*
20,1,.1524,-.075,-.125,-.11,-.145,0.0*
1,1,.1524,-.11,-.145*
20,1,.1524,-.11,-.145,-.15,-.15,0.0*
1,1,.1524,-.15,-.15*
1,1,.1524,.0251,-.15*
20,1,.1524,.0251,-.15,.1501,.15,0.0*
1,1,.1524,.1501,.15*
20,1,.1524,.1501,.15,.2751,-.15,0.0*
1,1,.1524,.2751,-.15*
1,1,.1524,.2301,-.045*
20,1,.1524,.2301,-.045,.0701,-.045,0.0*
1,1,.1524,.0701,-.045*
%
%ADD19MACRO19*%
%AMMACRO18*
1,1,.1524,-.55,.3*
20,1,.1524,-.55,.3,.55,.3,0.0*
1,1,.1524,.55,.3*
20,1,.1524,.55,.3,.602094,.295442,0.0*
1,1,.1524,.602094,.295442*
20,1,.1524,.602094,.295442,.652606,.281908,0.0*
1,1,.1524,.652606,.281908*
20,1,.1524,.652606,.281908,.7,.259808,0.0*
1,1,.1524,.7,.259808*
20,1,.1524,.7,.259808,.742836,.229813,0.0*
1,1,.1524,.742836,.229813*
20,1,.1524,.742836,.229813,.779813,.192836,0.0*
1,1,.1524,.779813,.192836*
20,1,.1524,.779813,.192836,.809808,.15,0.0*
1,1,.1524,.809808,.15*
20,1,.1524,.809808,.15,.831908,.102606,0.0*
1,1,.1524,.831908,.102606*
20,1,.1524,.831908,.102606,.845442,.052094,0.0*
1,1,.1524,.845442,.052094*
20,1,.1524,.845442,.052094,.85,0.0,0.0*
1,1,.1524,.85,0.0*
20,1,.1524,.85,0.0,.845442,-.052094,0.0*
1,1,.1524,.845442,-.052094*
20,1,.1524,.845442,-.052094,.831908,-.102606,0.0*
1,1,.1524,.831908,-.102606*
20,1,.1524,.831908,-.102606,.809808,-.15,0.0*
1,1,.1524,.809808,-.15*
20,1,.1524,.809808,-.15,.779813,-.192836,0.0*
1,1,.1524,.779813,-.192836*
20,1,.1524,.779813,-.192836,.742836,-.229813,0.0*
1,1,.1524,.742836,-.229813*
20,1,.1524,.742836,-.229813,.7,-.259808,0.0*
1,1,.1524,.7,-.259808*
20,1,.1524,.7,-.259808,.652606,-.281908,0.0*
1,1,.1524,.652606,-.281908*
20,1,.1524,.652606,-.281908,.602094,-.295442,0.0*
1,1,.1524,.602094,-.295442*
20,1,.1524,.602094,-.295442,.55,-.3,0.0*
1,1,.1524,.55,-.3*
20,1,.1524,.55,-.3,-.55,-.3,0.0*
1,1,.1524,-.55,-.3*
20,1,.1524,-.55,-.3,-.602094,-.295442,0.0*
1,1,.1524,-.602094,-.295442*
20,1,.1524,-.602094,-.295442,-.652606,-.281908,0.0*
1,1,.1524,-.652606,-.281908*
20,1,.1524,-.652606,-.281908,-.7,-.259808,0.0*
1,1,.1524,-.7,-.259808*
20,1,.1524,-.7,-.259808,-.742836,-.229813,0.0*
1,1,.1524,-.742836,-.229813*
20,1,.1524,-.742836,-.229813,-.779813,-.192836,0.0*
1,1,.1524,-.779813,-.192836*
20,1,.1524,-.779813,-.192836,-.809808,-.15,0.0*
1,1,.1524,-.809808,-.15*
20,1,.1524,-.809808,-.15,-.831908,-.102606,0.0*
1,1,.1524,-.831908,-.102606*
20,1,.1524,-.831908,-.102606,-.845442,-.052094,0.0*
1,1,.1524,-.845442,-.052094*
20,1,.1524,-.845442,-.052094,-.85,0.0,0.0*
1,1,.1524,-.85,0.0*
20,1,.1524,-.85,0.0,-.845442,.052094,0.0*
1,1,.1524,-.845442,.052094*
20,1,.1524,-.845442,.052094,-.831908,.102606,0.0*
1,1,.1524,-.831908,.102606*
20,1,.1524,-.831908,.102606,-.809808,.15,0.0*
1,1,.1524,-.809808,.15*
20,1,.1524,-.809808,.15,-.779813,.192836,0.0*
1,1,.1524,-.779813,.192836*
20,1,.1524,-.779813,.192836,-.742836,.229813,0.0*
1,1,.1524,-.742836,.229813*
20,1,.1524,-.742836,.229813,-.7,.259808,0.0*
1,1,.1524,-.7,.259808*
20,1,.1524,-.7,.259808,-.652606,.281908,0.0*
1,1,.1524,-.652606,.281908*
20,1,.1524,-.652606,.281908,-.602094,.295442,0.0*
1,1,.1524,-.602094,.295442*
20,1,.1524,-.602094,.295442,-.55,.3,0.0*
1,1,.1524,-.55,.3*
1,1,.1524,-.15,-.15*
20,1,.1524,-.15,-.15,-.19,-.145,0.0*
1,1,.1524,-.19,-.145*
20,1,.1524,-.19,-.145,-.225,-.125,0.0*
1,1,.1524,-.225,-.125*
20,1,.1524,-.225,-.125,-.255,-.095,0.0*
1,1,.1524,-.255,-.095*
20,1,.1524,-.255,-.095,-.275,-.06,0.0*
1,1,.1524,-.275,-.06*
20,1,.1524,-.275,-.06,-.285,-.02,0.0*
1,1,.1524,-.285,-.02*
20,1,.1524,-.285,-.02,-.285,.02,0.0*
1,1,.1524,-.285,.02*
20,1,.1524,-.285,.02,-.275,.06,0.0*
1,1,.1524,-.275,.06*
20,1,.1524,-.275,.06,-.255,.095,0.0*
1,1,.1524,-.255,.095*
20,1,.1524,-.255,.095,-.225,.125,0.0*
1,1,.1524,-.225,.125*
20,1,.1524,-.225,.125,-.19,.145,0.0*
1,1,.1524,-.19,.145*
20,1,.1524,-.19,.145,-.15,.15,0.0*
1,1,.1524,-.15,.15*
20,1,.1524,-.15,.15,-.11,.145,0.0*
1,1,.1524,-.11,.145*
20,1,.1524,-.11,.145,-.075,.125,0.0*
1,1,.1524,-.075,.125*
20,1,.1524,-.075,.125,-.045,.095,0.0*
1,1,.1524,-.045,.095*
20,1,.1524,-.045,.095,-.025,.06,0.0*
1,1,.1524,-.025,.06*
20,1,.1524,-.025,.06,-.015,.02,0.0*
1,1,.1524,-.015,.02*
20,1,.1524,-.015,.02,-.015,-.02,0.0*
1,1,.1524,-.015,-.02*
20,1,.1524,-.015,-.02,-.025,-.06,0.0*
1,1,.1524,-.025,-.06*
20,1,.1524,-.025,-.06,-.045,-.095,0.0*
1,1,.1524,-.045,-.095*
20,1,.1524,-.045,-.095,-.075,-.125,0.0*
1,1,.1524,-.075,-.125*
20,1,.1524,-.075,-.125,-.11,-.145,0.0*
1,1,.1524,-.11,-.145*
20,1,.1524,-.11,-.145,-.15,-.15,0.0*
1,1,.1524,-.15,-.15*
1,1,.1524,.1901,.01*
20,1,.1524,.1901,.01,.2101,.025,0.0*
1,1,.1524,.2101,.025*
20,1,.1524,.2101,.025,.2251,.05,0.0*
1,1,.1524,.2251,.05*
20,1,.1524,.2251,.05,.2351,.085,0.0*
1,1,.1524,.2351,.085*
20,1,.1524,.2351,.085,.2251,.115,0.0*
1,1,.1524,.2251,.115*
20,1,.1524,.2251,.115,.2051,.135,0.0*
1,1,.1524,.2051,.135*
20,1,.1524,.2051,.135,.1701,.15,0.0*
1,1,.1524,.1701,.15*
20,1,.1524,.1701,.15,.0351,.15,0.0*
1,1,.1524,.0351,.15*
20,1,.1524,.0351,.15,.0351,-.15,0.0*
1,1,.1524,.0351,-.15*
20,1,.1524,.0351,-.15,.2001,-.15,0.0*
1,1,.1524,.2001,-.15*
20,1,.1524,.2001,-.15,.2351,-.13,0.0*
1,1,.1524,.2351,-.13*
20,1,.1524,.2351,-.13,.2551,-.1,0.0*
1,1,.1524,.2551,-.1*
20,1,.1524,.2551,-.1,.2651,-.065,0.0*
1,1,.1524,.2651,-.065*
20,1,.1524,.2651,-.065,.2551,-.03,0.0*
1,1,.1524,.2551,-.03*
20,1,.1524,.2551,-.03,.2251,0.0,0.0*
1,1,.1524,.2251,0.0*
20,1,.1524,.2251,0.0,.1901,.01,0.0*
1,1,.1524,.1901,.01*
20,1,.1524,.1901,.01,.0351,.01,0.0*
1,1,.1524,.0351,.01*
%
%ADD18MACRO18*%
%AMMACRO11*
1,1,.1524,.127,0.0*
20,1,.1524,.127,0.0,-.127,0.0,0.0*
1,1,.1524,-.127,0.0*
1,1,.1524,0.0,.127*
20,1,.1524,0.0,.127,0.0,-.127,0.0*
1,1,.1524,0.0,-.127*
%
%ADD11MACRO11*%
%AMMACRO12*
1,1,.1524,.2286,.2286*
20,1,.1524,.2286,.2286,.2286,-.2286,0.0*
1,1,.1524,.2286,-.2286*
20,1,.1524,.2286,-.2286,-.2286,-.2286,0.0*
1,1,.1524,-.2286,-.2286*
20,1,.1524,-.2286,-.2286,-.2286,.2286,0.0*
1,1,.1524,-.2286,.2286*
20,1,.1524,-.2286,.2286,.2286,.2286,0.0*
1,1,.1524,.2286,.2286*
%
%ADD12MACRO12*%
%AMMACRO13*
1,1,.1524,0.0,.55*
20,1,.1524,0.0,.55,.476314,-.275,0.0*
1,1,.1524,.476314,-.275*
20,1,.1524,.476314,-.275,-.476314,-.275,0.0*
1,1,.1524,-.476314,-.275*
20,1,.1524,-.476314,-.275,0.0,.55,0.0*
1,1,.1524,0.0,.55*
%
%ADD13MACRO13*%
%AMMACRO17*
1,1,.1524,.3,0.0*
20,1,.1524,.3,0.0,.15,.259808,0.0*
1,1,.1524,.15,.259808*
20,1,.1524,.15,.259808,-.15,.259808,0.0*
1,1,.1524,-.15,.259808*
20,1,.1524,-.15,.259808,-.3,0.0,0.0*
1,1,.1524,-.3,0.0*
20,1,.1524,-.3,0.0,-.15,-.259808,0.0*
1,1,.1524,-.15,-.259808*
20,1,.1524,-.15,-.259808,.15,-.259808,0.0*
1,1,.1524,.15,-.259808*
20,1,.1524,.15,-.259808,.3,0.0,0.0*
1,1,.1524,.3,0.0*
%
%ADD17MACRO17*%
%AMMACRO10*
1,1,.1524,-1.2375,.4125*
20,1,.1524,-1.2375,.4125,-1.2187,.62739,0.0*
1,1,.1524,-1.2187,.62739*
20,1,.1524,-1.2187,.62739,-1.16287,.83575,0.0*
1,1,.1524,-1.16287,.83575*
20,1,.1524,-1.16287,.83575,-1.071706,1.03125,0.0*
1,1,.1524,-1.071706,1.03125*
20,1,.1524,-1.071706,1.03125,-.94798,1.20795,0.0*
1,1,.1524,-.94798,1.20795*
20,1,.1524,-.94798,1.20795,-.79545,1.36048,0.0*
1,1,.1524,-.79545,1.36048*
20,1,.1524,-.79545,1.36048,-.61875,1.484206,0.0*
1,1,.1524,-.61875,1.484206*
20,1,.1524,-.61875,1.484206,-.42325,1.57537,0.0*
1,1,.1524,-.42325,1.57537*
20,1,.1524,-.42325,1.57537,-.21489,1.6312,0.0*
1,1,.1524,-.21489,1.6312*
20,1,.1524,-.21489,1.6312,0.0,1.65,0.0*
1,1,.1524,0.0,1.65*
20,1,.1524,0.0,1.65,.21489,1.6312,0.0*
1,1,.1524,.21489,1.6312*
20,1,.1524,.21489,1.6312,.42325,1.57537,0.0*
1,1,.1524,.42325,1.57537*
20,1,.1524,.42325,1.57537,.61875,1.484206,0.0*
1,1,.1524,.61875,1.484206*
20,1,.1524,.61875,1.484206,.79545,1.36048,0.0*
1,1,.1524,.79545,1.36048*
20,1,.1524,.79545,1.36048,.94798,1.20795,0.0*
1,1,.1524,.94798,1.20795*
20,1,.1524,.94798,1.20795,1.071706,1.03125,0.0*
1,1,.1524,1.071706,1.03125*
20,1,.1524,1.071706,1.03125,1.16287,.83575,0.0*
1,1,.1524,1.16287,.83575*
20,1,.1524,1.16287,.83575,1.2187,.62739,0.0*
1,1,.1524,1.2187,.62739*
20,1,.1524,1.2187,.62739,1.2375,.4125,0.0*
1,1,.1524,1.2375,.4125*
20,1,.1524,1.2375,.4125,1.2375,-.4125,0.0*
1,1,.1524,1.2375,-.4125*
20,1,.1524,1.2375,-.4125,1.2187,-.62739,0.0*
1,1,.1524,1.2187,-.62739*
20,1,.1524,1.2187,-.62739,1.16287,-.83575,0.0*
1,1,.1524,1.16287,-.83575*
20,1,.1524,1.16287,-.83575,1.071706,-1.03125,0.0*
1,1,.1524,1.071706,-1.03125*
20,1,.1524,1.071706,-1.03125,.94798,-1.20795,0.0*
1,1,.1524,.94798,-1.20795*
20,1,.1524,.94798,-1.20795,.79545,-1.36048,0.0*
1,1,.1524,.79545,-1.36048*
20,1,.1524,.79545,-1.36048,.61875,-1.484206,0.0*
1,1,.1524,.61875,-1.484206*
20,1,.1524,.61875,-1.484206,.42325,-1.57537,0.0*
1,1,.1524,.42325,-1.57537*
20,1,.1524,.42325,-1.57537,.21489,-1.6312,0.0*
1,1,.1524,.21489,-1.6312*
20,1,.1524,.21489,-1.6312,0.0,-1.65,0.0*
1,1,.1524,0.0,-1.65*
20,1,.1524,0.0,-1.65,-.21489,-1.6312,0.0*
1,1,.1524,-.21489,-1.6312*
20,1,.1524,-.21489,-1.6312,-.42325,-1.57537,0.0*
1,1,.1524,-.42325,-1.57537*
20,1,.1524,-.42325,-1.57537,-.61875,-1.484206,0.0*
1,1,.1524,-.61875,-1.484206*
20,1,.1524,-.61875,-1.484206,-.79545,-1.36048,0.0*
1,1,.1524,-.79545,-1.36048*
20,1,.1524,-.79545,-1.36048,-.94798,-1.20795,0.0*
1,1,.1524,-.94798,-1.20795*
20,1,.1524,-.94798,-1.20795,-1.071706,-1.03125,0.0*
1,1,.1524,-1.071706,-1.03125*
20,1,.1524,-1.071706,-1.03125,-1.16287,-.83575,0.0*
1,1,.1524,-1.16287,-.83575*
20,1,.1524,-1.16287,-.83575,-1.2187,-.62739,0.0*
1,1,.1524,-1.2187,-.62739*
20,1,.1524,-1.2187,-.62739,-1.2375,-.4125,0.0*
1,1,.1524,-1.2375,-.4125*
20,1,.1524,-1.2375,-.4125,-1.2375,.4125,0.0*
1,1,.1524,-1.2375,.4125*
%
%ADD10MACRO10*%
%AMMACRO20*
1,1,.1524,0.0,.45*
20,1,.1524,0.0,.45,-.389711,.225,0.0*
1,1,.1524,-.389711,.225*
20,1,.1524,-.389711,.225,-.389711,-.225,0.0*
1,1,.1524,-.389711,-.225*
20,1,.1524,-.389711,-.225,0.0,-.45,0.0*
1,1,.1524,0.0,-.45*
20,1,.1524,0.0,-.45,.389711,-.225,0.0*
1,1,.1524,.389711,-.225*
20,1,.1524,.389711,-.225,.389711,.225,0.0*
1,1,.1524,.389711,.225*
20,1,.1524,.389711,.225,0.0,.45,0.0*
1,1,.1524,0.0,.45*
%
%ADD20MACRO20*%
%AMMACRO15*
1,1,.1524,.207107,-.5*
20,1,.1524,.207107,-.5,-.207107,-.5,0.0*
1,1,.1524,-.207107,-.5*
20,1,.1524,-.207107,-.5,-.5,-.207107,0.0*
1,1,.1524,-.5,-.207107*
20,1,.1524,-.5,-.207107,-.5,.207107,0.0*
1,1,.1524,-.5,.207107*
20,1,.1524,-.5,.207107,-.207107,.5,0.0*
1,1,.1524,-.207107,.5*
20,1,.1524,-.207107,.5,.207107,.5,0.0*
1,1,.1524,.207107,.5*
20,1,.1524,.207107,.5,.5,.207107,0.0*
1,1,.1524,.5,.207107*
20,1,.1524,.5,.207107,.5,-.207107,0.0*
1,1,.1524,.5,-.207107*
20,1,.1524,.5,-.207107,.207107,-.5,0.0*
1,1,.1524,.207107,-.5*
%
%ADD15MACRO15*%
%ADD21C,.1524*%
G75*
%LPD*%
G75*
G54D10*
X360000Y360000D03*
Y5040000D03*
X8140000Y360000D03*
Y5040000D03*
X10321730Y1562500D03*
G54D20*
X8140000Y4035000D03*
X10321730Y4737500D03*
G54D11*
X170000Y2080000D03*
Y2280000D03*
Y3100000D03*
Y3300000D03*
X570000Y2480000D03*
X770000D03*
X570000Y2280000D03*
X770000D03*
X570000Y2080000D03*
X770000D03*
X370000D03*
Y2280000D03*
X570000Y2900000D03*
X770000D03*
X570000Y3100000D03*
X770000D03*
X370000D03*
Y3300000D03*
X770000D03*
X570000D03*
X499100Y3823580D03*
X884250Y376060D03*
Y876060D03*
X970000Y2480000D03*
X1170000D03*
X970000Y2280000D03*
X1170000D03*
X970000Y2080000D03*
X1170000D03*
X970000Y3100000D03*
X1170000D03*
Y3300000D03*
X970000D03*
X999100Y3823580D03*
X990480Y4326500D03*
X1065500Y5164070D03*
X1384250Y376060D03*
Y876060D03*
X1485000Y1835000D03*
X1575000D03*
X1390000Y2510000D03*
X1640000Y2285000D03*
Y3140000D03*
X1499100Y3823580D03*
X1490480Y4326500D03*
X1565500Y5164070D03*
X1884250Y376060D03*
Y876060D03*
X1940000Y1550000D03*
X2210000D03*
X1940000Y1980000D03*
Y1780000D03*
X2200000Y3120000D03*
X1999100Y3823580D03*
X2080000Y4605670D03*
Y4550000D03*
Y4660000D03*
X2065500Y5164070D03*
X1980000Y4750000D03*
X2884250Y376060D03*
X2384250D03*
X2884250Y876060D03*
X2384250D03*
X2480000Y1550000D03*
Y1780000D03*
Y1980000D03*
X2765000Y3030000D03*
X2499100Y3823580D03*
X2730480Y4556500D03*
X2435000Y4520000D03*
X2565500Y5164070D03*
X3384250Y376060D03*
Y876060D03*
X2999100Y3823580D03*
X3230480Y4556500D03*
X3065500Y5164070D03*
X3882430Y3238290D03*
Y3738290D03*
X3565500Y5164070D03*
X4250000Y1240000D03*
X4410000Y1970000D03*
X4320000Y1760000D03*
X4250000Y1580000D03*
X4140000Y2460000D03*
X4382430Y3238290D03*
Y3738290D03*
X3950480Y4656500D03*
X4065500Y5164070D03*
X4530000Y1230000D03*
X4810000D03*
X4750000Y1970000D03*
Y1680000D03*
X4470000Y2110000D03*
X4570000Y2210000D03*
X4690000Y2810000D03*
X4695000Y2985000D03*
X4830000Y3340000D03*
X4450480Y4656500D03*
X4565500Y5164070D03*
X5143630Y360950D03*
X5090000Y1230000D03*
X5400000D03*
X5230000Y1500000D03*
X5080000Y1940000D03*
X5230000Y1660000D03*
X5310000Y1930000D03*
X5405000Y3220000D03*
X5290000Y3610000D03*
X5396500Y3739520D03*
Y4239520D03*
X5065500Y5164070D03*
X5210480Y4666500D03*
X5643630Y360950D03*
X5840000Y1230000D03*
X5980000Y1930000D03*
X5825000Y2865000D03*
X5916860D03*
X5670000Y3340000D03*
X5766500Y3739520D03*
X5530000Y3700000D03*
X5766500Y4239520D03*
X5565500Y5164070D03*
X5710480Y4666500D03*
X6143630Y360950D03*
X6150000Y1230000D03*
X6223800Y1673800D03*
X6260000Y2060000D03*
X6257990Y2177990D03*
X6260000Y2440000D03*
Y2560000D03*
Y2680000D03*
X6174460Y2910000D03*
X6290000Y2880000D03*
X6389720Y3812250D03*
Y4312250D03*
X6065500Y5164070D03*
X6643630Y360950D03*
X6680480Y1346500D03*
X6960480Y2156500D03*
X7020480Y3166500D03*
X7030480Y4386500D03*
X6565500Y5164070D03*
X7143630Y360950D03*
X7180480Y1346500D03*
X7460480Y2156500D03*
X7210000Y2440000D03*
X7280000D03*
X7350000D03*
X7520480Y3166500D03*
X7530480Y4386500D03*
X7065500Y5164070D03*
X7810480Y3806500D03*
X7565500Y5164070D03*
X8206500Y2519520D03*
Y3019520D03*
X8310480Y3806500D03*
X10321730Y6642500D03*
G54D21*
G01X-1037400Y2603320D02*
X-1023180Y2587450D01*
X-1006590Y2577920D01*
X-985250Y2574750D01*
X-963910Y2581100D01*
X-947320Y2593800D01*
X-935470Y2616020D01*
X-933100Y2641420D01*
X-937840Y2666820D01*
X-949690Y2682700D01*
X-966290Y2695400D01*
X-982880Y2698570D01*
X-999470Y2695400D01*
X-1020810Y2682700D01*
X-1013700Y2765250D01*
X-949690D01*
G01X-766300Y2574750D02*
Y2765250D01*
X-854020Y2628730D01*
X-735480D01*
G01X3544750Y-765250D02*
X3561340Y-762080D01*
X3580310Y-752550D01*
X3592160Y-736680D01*
X3596900Y-714450D01*
X3592160Y-692230D01*
X3577940Y-673180D01*
X3556600Y-663650D01*
X3532900D01*
X3518670Y-657300D01*
X3506820Y-641430D01*
X3502080Y-619200D01*
X3509190Y-596980D01*
X3525780Y-581100D01*
X3544750Y-574750D01*
X3563710Y-581100D01*
X3580310Y-596980D01*
X3587420Y-619200D01*
X3582680Y-641430D01*
X3570830Y-657300D01*
X3556600Y-663650D01*
X3532900D01*
X3511560Y-673180D01*
X3497340Y-692230D01*
X3492600Y-714450D01*
X3497340Y-736680D01*
X3509190Y-752550D01*
X3528160Y-762080D01*
X3544750Y-765250D01*
G01X3683100Y-736680D02*
X3697320Y-752550D01*
X3713910Y-762080D01*
X3735250Y-765250D01*
X3756590Y-758900D01*
X3773180Y-746200D01*
X3785030Y-723980D01*
X3787400Y-698580D01*
X3782660Y-673180D01*
X3770810Y-657300D01*
X3754210Y-644600D01*
X3737620Y-641430D01*
X3721030Y-644600D01*
X3699690Y-657300D01*
X3706800Y-574750D01*
X3770810D01*
G01X9459520Y7118750D02*
Y7436250D01*
X9609140D01*
G01X9554010Y7282800D02*
X9459520D01*
G01X9802050Y7436250D02*
X9896530D01*
G01X9849290D02*
Y7118750D01*
G01X9802050D02*
X9896530D01*
G01X10187870Y7277500D02*
X10266620D01*
Y7182250D01*
X10242990Y7150490D01*
X10215430Y7129330D01*
X10176060Y7118750D01*
X10136690Y7129330D01*
X10109130Y7150490D01*
X10085510Y7182250D01*
X10069760Y7219290D01*
X10061880Y7261620D01*
Y7298670D01*
X10069760Y7330410D01*
X10085510Y7367460D01*
X10109130Y7399210D01*
X10132750Y7420370D01*
X10164250Y7436250D01*
X10191810D01*
X10223300Y7425670D01*
X10246930Y7404500D01*
G01X10392600Y7436250D02*
Y7208710D01*
X10408340Y7161070D01*
X10439840Y7129330D01*
X10479210Y7118750D01*
X10518580Y7129330D01*
X10550080Y7161070D01*
X10565820Y7208710D01*
Y7436250D01*
G01X10715430Y7118750D02*
Y7436250D01*
X10813850D01*
X10845350Y7420370D01*
X10865040Y7399210D01*
X10872910Y7356870D01*
X10865040Y7314540D01*
X10841410Y7288090D01*
X10813850Y7272200D01*
X10715430D01*
G01X10813850D02*
X10872910Y7118750D01*
G01X11187870D02*
X11030390D01*
Y7436250D01*
X11187870D01*
G01X11124880Y7282800D02*
X11030390D01*
G01X12057940Y7118750D02*
Y7436250D01*
X12207560D01*
G01X12152430Y7282800D02*
X12057940D01*
G01X12400470Y7436250D02*
X12494950D01*
G01X12447710D02*
Y7118750D01*
G01X12400470D02*
X12494950D01*
G01X12672120D02*
Y7436250D01*
X12853220Y7118750D01*
Y7436250D01*
G01X13030390D02*
X13124870D01*
G01X13077630D02*
Y7118750D01*
G01X13030390D02*
X13124870D01*
G01X13309910Y7161070D02*
X13341410Y7134620D01*
X13376840Y7118750D01*
X13408340D01*
X13439830Y7134620D01*
X13463460Y7161070D01*
X13475270Y7198130D01*
X13467400Y7235160D01*
X13447710Y7266910D01*
X13412270Y7288090D01*
X13365030Y7298670D01*
X13337470Y7319830D01*
X13325660Y7356870D01*
X13333540Y7393920D01*
X13353220Y7420370D01*
X13380780Y7436250D01*
X13408340D01*
X13435900Y7425670D01*
X13459520Y7399210D01*
G01X13624870Y7118750D02*
Y7436250D01*
G01X13790230D02*
Y7118750D01*
G01Y7277500D02*
X13624870D01*
G01X14101250Y7118750D02*
X13943770D01*
Y7436250D01*
X14101250D01*
G01X14038260Y7282800D02*
X13943770D01*
G01X14250860Y7118750D02*
Y7436250D01*
X14329590D01*
X14361090Y7420370D01*
X14384710Y7399210D01*
X14404400Y7367460D01*
X14420150Y7330410D01*
X14424080Y7277500D01*
X14420150Y7224580D01*
X14404400Y7187540D01*
X14384710Y7155780D01*
X14361090Y7134620D01*
X14329590Y7118750D01*
X14250860D01*
G01X14534320Y7012920D02*
X14770540D01*
G01X14884710Y7161070D02*
X14916210Y7134620D01*
X14951640Y7118750D01*
X14983140D01*
X15014630Y7134620D01*
X15038260Y7161070D01*
X15050070Y7198130D01*
X15042200Y7235160D01*
X15022510Y7266910D01*
X14987070Y7288090D01*
X14939830Y7298670D01*
X14912270Y7319830D01*
X14900460Y7356870D01*
X14908340Y7393920D01*
X14928020Y7420370D01*
X14955580Y7436250D01*
X14983140D01*
X15010700Y7425670D01*
X15034320Y7399210D01*
G01X15235110Y7436250D02*
X15329590D01*
G01X15282350D02*
Y7118750D01*
G01X15235110D02*
X15329590D01*
G01X15522500Y7436250D02*
X15672120D01*
X15522500Y7118750D01*
X15672120D01*
G01X15991010D02*
X15833530D01*
Y7436250D01*
X15991010D01*
G01X15928020Y7282800D02*
X15833530D01*
G01X13077630Y133750D02*
Y451250D01*
X13030390Y387750D01*
G01Y133750D02*
X13124870D01*
G01X13392590Y123170D02*
X13384710Y128460D01*
Y139040D01*
X13392590Y144330D01*
X13400470Y139040D01*
Y128460D01*
X13392590Y123170D01*
G01X13699670Y133750D02*
X13707550Y202540D01*
X13719360Y260740D01*
X13735110Y313670D01*
X13754790Y371870D01*
X13786290Y451250D01*
X13628810D01*
G01X13963460Y345410D02*
X14081560Y133750D01*
G01Y345410D02*
X13963460Y133750D01*
G01X14337470Y451250D02*
X14305970Y440670D01*
X14282350Y414210D01*
X14266600Y382460D01*
X14254790Y340120D01*
X14250860Y292500D01*
X14254790Y244870D01*
X14266600Y202540D01*
X14282350Y170780D01*
X14305970Y144330D01*
X14337470Y133750D01*
X14368960Y144330D01*
X14392590Y170780D01*
X14408340Y202540D01*
X14420150Y244870D01*
X14424080Y292500D01*
X14420150Y340120D01*
X14408340Y382460D01*
X14392590Y414210D01*
X14368960Y440670D01*
X14337470Y451250D01*
G01X14652430Y123170D02*
X14644550Y128460D01*
Y139040D01*
X14652430Y144330D01*
X14660310Y139040D01*
Y128460D01*
X14652430Y123170D01*
G01X14892580Y266030D02*
X14920150Y303090D01*
X14943770Y324250D01*
X14975270Y334830D01*
X15002830Y324250D01*
X15022510Y303090D01*
X15038260Y271330D01*
X15042200Y234290D01*
X15038260Y202540D01*
X15022510Y170780D01*
X14998880Y144330D01*
X14971330Y133750D01*
X14939830Y144330D01*
X14912270Y176070D01*
X14896520Y223710D01*
X14892580Y276620D01*
X14900460Y345410D01*
X14912270Y382460D01*
X14931950Y419500D01*
X14959510Y445960D01*
X14987070Y451250D01*
X15014630Y440670D01*
X15034320Y414210D01*
G01X13077630Y768750D02*
Y1086250D01*
X13030390Y1022750D01*
G01Y768750D02*
X13124870D01*
G01X13392590Y758170D02*
X13384710Y763460D01*
Y774040D01*
X13392590Y779330D01*
X13400470Y774040D01*
Y763460D01*
X13392590Y758170D01*
G01X13632740Y1033330D02*
X13656370Y1065080D01*
X13683930Y1080960D01*
X13715430Y1086250D01*
X13754790Y1075670D01*
X13782360Y1049210D01*
X13790230Y1017460D01*
X13786290Y985700D01*
X13770540Y959250D01*
X13691800Y906330D01*
X13656370Y869290D01*
X13632740Y816360D01*
X13624870Y768750D01*
X13790230D01*
G01X13963460Y980410D02*
X14081560Y768750D01*
G01Y980410D02*
X13963460Y768750D01*
G01X14337470Y1086250D02*
X14305970Y1075670D01*
X14282350Y1049210D01*
X14266600Y1017460D01*
X14254790Y975120D01*
X14250860Y927500D01*
X14254790Y879870D01*
X14266600Y837540D01*
X14282350Y805780D01*
X14305970Y779330D01*
X14337470Y768750D01*
X14368960Y779330D01*
X14392590Y805780D01*
X14408340Y837540D01*
X14420150Y879870D01*
X14424080Y927500D01*
X14420150Y975120D01*
X14408340Y1017460D01*
X14392590Y1049210D01*
X14368960Y1075670D01*
X14337470Y1086250D01*
G01X14652430Y758170D02*
X14644550Y763460D01*
Y774040D01*
X14652430Y779330D01*
X14660310Y774040D01*
Y763460D01*
X14652430Y758170D01*
G01X14892580Y901030D02*
X14920150Y938090D01*
X14943770Y959250D01*
X14975270Y969830D01*
X15002830Y959250D01*
X15022510Y938090D01*
X15038260Y906330D01*
X15042200Y869290D01*
X15038260Y837540D01*
X15022510Y805780D01*
X14998880Y779330D01*
X14971330Y768750D01*
X14939830Y779330D01*
X14912270Y811070D01*
X14896520Y858710D01*
X14892580Y911620D01*
X14900460Y980410D01*
X14912270Y1017460D01*
X14931950Y1054500D01*
X14959510Y1080960D01*
X14987070Y1086250D01*
X15014630Y1075670D01*
X15034320Y1049210D01*
G01X13235110Y6166250D02*
X13203610Y6155670D01*
X13179990Y6129210D01*
X13164240Y6097460D01*
X13152430Y6055120D01*
X13148500Y6007500D01*
X13152430Y5959870D01*
X13164240Y5917540D01*
X13179990Y5885780D01*
X13203610Y5859330D01*
X13235110Y5848750D01*
X13266600Y5859330D01*
X13290230Y5885780D01*
X13305980Y5917540D01*
X13317790Y5959870D01*
X13321720Y6007500D01*
X13317790Y6055120D01*
X13305980Y6097460D01*
X13290230Y6129210D01*
X13266600Y6155670D01*
X13235110Y6166250D01*
G01X13550070Y5838170D02*
X13542190Y5843460D01*
Y5854040D01*
X13550070Y5859330D01*
X13557950Y5854040D01*
Y5843460D01*
X13550070Y5838170D01*
G01X13912270Y5848750D02*
Y6166250D01*
X13766600Y5938710D01*
X13963460D01*
G01X14093380Y5896360D02*
X14116990Y5869910D01*
X14144550Y5854040D01*
X14179990Y5848750D01*
X14215430Y5859330D01*
X14242980Y5880490D01*
X14262670Y5917540D01*
X14266600Y5959870D01*
X14258730Y6002200D01*
X14239040Y6028670D01*
X14211480Y6049830D01*
X14183930Y6055120D01*
X14156370Y6049830D01*
X14120940Y6028670D01*
X14132750Y6166250D01*
X14239040D01*
G01X14487070Y5848750D02*
X14494950Y5917540D01*
X14506760Y5975740D01*
X14522510Y6028670D01*
X14542190Y6086870D01*
X14573690Y6166250D01*
X14416210D01*
G01X14735100Y6113330D02*
X14758730Y6145080D01*
X14786290Y6160960D01*
X14817790Y6166250D01*
X14857150Y6155670D01*
X14884720Y6129210D01*
X14892590Y6097460D01*
X14888650Y6065700D01*
X14872900Y6039250D01*
X14794160Y5986330D01*
X14758730Y5949290D01*
X14735100Y5896360D01*
X14727230Y5848750D01*
X14892590D01*
G01X13620940Y1467250D02*
X13644550Y1430200D01*
X13676050Y1409040D01*
X13711490Y1403750D01*
X13742990Y1409040D01*
X13774480Y1435490D01*
X13794160Y1467250D01*
X13798100Y1499000D01*
X13790230Y1536030D01*
X13762670Y1562500D01*
X13735110Y1573090D01*
X13699670D01*
G01X13735110D02*
X13758730Y1588960D01*
X13778420Y1615410D01*
X13786290Y1647160D01*
X13778420Y1678920D01*
X13758730Y1705370D01*
X13723300Y1721250D01*
X13687870Y1715960D01*
X13652430Y1694790D01*
G01X14022510Y1393170D02*
X14014630Y1398460D01*
Y1409040D01*
X14022510Y1414330D01*
X14030390Y1409040D01*
Y1398460D01*
X14022510Y1393170D01*
G01X14250860Y1467250D02*
X14274470Y1430200D01*
X14305970Y1409040D01*
X14341410Y1403750D01*
X14372910Y1409040D01*
X14404400Y1435490D01*
X14424080Y1467250D01*
X14428020Y1499000D01*
X14420150Y1536030D01*
X14392590Y1562500D01*
X14365030Y1573090D01*
X14329590D01*
G01X14365030D02*
X14388650Y1588960D01*
X14408340Y1615410D01*
X14416210Y1647160D01*
X14408340Y1678920D01*
X14388650Y1705370D01*
X14353220Y1721250D01*
X14317790Y1715960D01*
X14282350Y1694790D01*
G01X13707550Y2038750D02*
Y2356250D01*
X13660310Y2292750D01*
G01Y2038750D02*
X13754790D01*
G01X14022510Y2028170D02*
X14014630Y2033460D01*
Y2044040D01*
X14022510Y2049330D01*
X14030390Y2044040D01*
Y2033460D01*
X14022510Y2028170D01*
G01X14337470Y2038750D02*
Y2356250D01*
X14290230Y2292750D01*
G01Y2038750D02*
X14384710D01*
G01X13707550Y2673750D02*
Y2991250D01*
X13660310Y2927750D01*
G01Y2673750D02*
X13754790D01*
G01X14022510Y2663170D02*
X14014630Y2668460D01*
Y2679040D01*
X14022510Y2684330D01*
X14030390Y2679040D01*
Y2668460D01*
X14022510Y2663170D01*
G01X14337470Y2673750D02*
Y2991250D01*
X14290230Y2927750D01*
G01Y2673750D02*
X14384710D01*
G01X13707550Y3308750D02*
Y3626250D01*
X13660310Y3562750D01*
G01Y3308750D02*
X13754790D01*
G01X14022510Y3298170D02*
X14014630Y3303460D01*
Y3314040D01*
X14022510Y3319330D01*
X14030390Y3314040D01*
Y3303460D01*
X14022510Y3298170D01*
G01X14337470Y3308750D02*
Y3626250D01*
X14290230Y3562750D01*
G01Y3308750D02*
X14384710D01*
G01X13707550Y3943750D02*
Y4261250D01*
X13660310Y4197750D01*
G01Y3943750D02*
X13754790D01*
G01X14022510Y3933170D02*
X14014630Y3938460D01*
Y3949040D01*
X14022510Y3954330D01*
X14030390Y3949040D01*
Y3938460D01*
X14022510Y3933170D01*
G01X14337470Y4261250D02*
X14305970Y4250670D01*
X14282350Y4224210D01*
X14266600Y4192460D01*
X14254790Y4150120D01*
X14250860Y4102500D01*
X14254790Y4054870D01*
X14266600Y4012540D01*
X14282350Y3980780D01*
X14305970Y3954330D01*
X14337470Y3943750D01*
X14368960Y3954330D01*
X14392590Y3980780D01*
X14408340Y4012540D01*
X14420150Y4054870D01*
X14424080Y4102500D01*
X14420150Y4150120D01*
X14408340Y4192460D01*
X14392590Y4224210D01*
X14368960Y4250670D01*
X14337470Y4261250D01*
G01X13707550Y4896250D02*
X13676050Y4885670D01*
X13652430Y4859210D01*
X13636680Y4827460D01*
X13624870Y4785120D01*
X13620940Y4737500D01*
X13624870Y4689870D01*
X13636680Y4647540D01*
X13652430Y4615780D01*
X13676050Y4589330D01*
X13707550Y4578750D01*
X13739040Y4589330D01*
X13762670Y4615780D01*
X13778420Y4647540D01*
X13790230Y4689870D01*
X13794160Y4737500D01*
X13790230Y4785120D01*
X13778420Y4827460D01*
X13762670Y4859210D01*
X13739040Y4885670D01*
X13707550Y4896250D01*
G01X14022510Y4568170D02*
X14014630Y4573460D01*
Y4584040D01*
X14022510Y4589330D01*
X14030390Y4584040D01*
Y4573460D01*
X14022510Y4568170D01*
G01X14270540Y4615780D02*
X14298100Y4589330D01*
X14329590Y4578750D01*
X14361090Y4589330D01*
X14388650Y4621070D01*
X14408340Y4668710D01*
X14416210Y4716330D01*
Y4774540D01*
X14408340Y4822160D01*
X14388650Y4864500D01*
X14365030Y4885670D01*
X14337470Y4896250D01*
X14305970Y4885670D01*
X14282350Y4864500D01*
X14266600Y4832750D01*
X14258730Y4790410D01*
X14266600Y4753380D01*
X14286290Y4716330D01*
X14309910Y4695160D01*
X14337470Y4689870D01*
X14368960Y4700450D01*
X14392590Y4726910D01*
X14416210Y4774540D01*
G01X13707550Y5531250D02*
X13676050Y5520670D01*
X13652430Y5494210D01*
X13636680Y5462460D01*
X13624870Y5420120D01*
X13620940Y5372500D01*
X13624870Y5324870D01*
X13636680Y5282540D01*
X13652430Y5250780D01*
X13676050Y5224330D01*
X13707550Y5213750D01*
X13739040Y5224330D01*
X13762670Y5250780D01*
X13778420Y5282540D01*
X13790230Y5324870D01*
X13794160Y5372500D01*
X13790230Y5420120D01*
X13778420Y5462460D01*
X13762670Y5494210D01*
X13739040Y5520670D01*
X13707550Y5531250D01*
G01X14022510Y5203170D02*
X14014630Y5208460D01*
Y5219040D01*
X14022510Y5224330D01*
X14030390Y5219040D01*
Y5208460D01*
X14022510Y5203170D01*
G01X14262660Y5346030D02*
X14290230Y5383090D01*
X14313850Y5404250D01*
X14345350Y5414830D01*
X14372910Y5404250D01*
X14392590Y5383090D01*
X14408340Y5351330D01*
X14412280Y5314290D01*
X14408340Y5282540D01*
X14392590Y5250780D01*
X14368960Y5224330D01*
X14341410Y5213750D01*
X14309910Y5224330D01*
X14282350Y5256070D01*
X14266600Y5303710D01*
X14262660Y5356620D01*
X14270540Y5425410D01*
X14282350Y5462460D01*
X14302030Y5499500D01*
X14329590Y5525960D01*
X14357150Y5531250D01*
X14384710Y5520670D01*
X14404400Y5494210D01*
G01X13392590Y6801250D02*
X13361090Y6790670D01*
X13337470Y6764210D01*
X13321720Y6732460D01*
X13309910Y6690120D01*
X13305980Y6642500D01*
X13309910Y6594870D01*
X13321720Y6552540D01*
X13337470Y6520780D01*
X13361090Y6494330D01*
X13392590Y6483750D01*
X13424080Y6494330D01*
X13447710Y6520780D01*
X13463460Y6552540D01*
X13475270Y6594870D01*
X13479200Y6642500D01*
X13475270Y6690120D01*
X13463460Y6732460D01*
X13447710Y6764210D01*
X13424080Y6790670D01*
X13392590Y6801250D01*
G01X13707550Y6473170D02*
X13699670Y6478460D01*
Y6489040D01*
X13707550Y6494330D01*
X13715430Y6489040D01*
Y6478460D01*
X13707550Y6473170D01*
G01X13947700Y6748330D02*
X13971330Y6780080D01*
X13998890Y6795960D01*
X14030390Y6801250D01*
X14069750Y6790670D01*
X14097320Y6764210D01*
X14105190Y6732460D01*
X14101250Y6700700D01*
X14085500Y6674250D01*
X14006760Y6621330D01*
X13971330Y6584290D01*
X13947700Y6531360D01*
X13939830Y6483750D01*
X14105190D01*
G01X14250860Y6531360D02*
X14274470Y6504910D01*
X14302030Y6489040D01*
X14337470Y6483750D01*
X14372910Y6494330D01*
X14400460Y6515490D01*
X14420150Y6552540D01*
X14424080Y6594870D01*
X14416210Y6637200D01*
X14396520Y6663670D01*
X14368960Y6684830D01*
X14341410Y6690120D01*
X14313850Y6684830D01*
X14278420Y6663670D01*
X14290230Y6801250D01*
X14396520D01*
G01X14699670Y6483750D02*
Y6801250D01*
X14554000Y6573710D01*
X14750860D01*
G01X13687860Y7753750D02*
X13786290Y8071250D01*
X13884720Y7753750D01*
G01X13849280Y7864870D02*
X13723290D01*
G01X14022510Y8071250D02*
Y7753750D01*
X14179990D01*
G01X14337470Y8071250D02*
Y7753750D01*
X14494950D01*
G01X14959520Y8071250D02*
Y7843710D01*
X14975260Y7796070D01*
X15006760Y7764330D01*
X15046130Y7753750D01*
X15085500Y7764330D01*
X15117000Y7796070D01*
X15132740Y7843710D01*
Y8071250D01*
G01X15270540Y7753750D02*
Y8071250D01*
X15451640Y7753750D01*
Y8071250D01*
G01X15628810D02*
X15723290D01*
G01X15676050D02*
Y7753750D01*
G01X15628810D02*
X15723290D01*
G01X15991010Y8071250D02*
Y7753750D01*
G01X15900460Y8071250D02*
X16081560D01*
G01X16223290Y7796070D02*
X16254790Y7769620D01*
X16290220Y7753750D01*
X16321720D01*
X16353210Y7769620D01*
X16376840Y7796070D01*
X16388650Y7833130D01*
X16380780Y7870160D01*
X16361090Y7901910D01*
X16325650Y7923090D01*
X16278410Y7933670D01*
X16250850Y7954830D01*
X16239040Y7991870D01*
X16246920Y8028920D01*
X16266600Y8055370D01*
X16294160Y8071250D01*
X16321720D01*
X16349280Y8060670D01*
X16372900Y8034210D01*
G01X16837460Y7753750D02*
X16935890Y8071250D01*
X17034320Y7753750D01*
G01X16998880Y7864870D02*
X16872890D01*
G01X17172110Y7753750D02*
Y8071250D01*
X17270530D01*
X17302030Y8055370D01*
X17321720Y8034210D01*
X17329590Y7991870D01*
X17321720Y7949540D01*
X17298090Y7923090D01*
X17270530Y7907200D01*
X17172110D01*
G01X17270530D02*
X17329590Y7753750D01*
G01X17644550D02*
X17487070D01*
Y8071250D01*
X17644550D01*
G01X17581560Y7917800D02*
X17487070D01*
G01X18148490Y8071250D02*
X18242970D01*
G01X18195730D02*
Y7753750D01*
G01X18148490D02*
X18242970D01*
G01X18420140D02*
Y8071250D01*
X18601240Y7753750D01*
Y8071250D01*
G01X19038240Y7753750D02*
Y8071250D01*
X19140610Y7806670D01*
X19242980Y8071250D01*
Y7753750D01*
G01X19408330Y8071250D02*
X19502810D01*
G01X19455570D02*
Y7753750D01*
G01X19408330D02*
X19502810D01*
G01X19691790Y8071250D02*
Y7753750D01*
X19849270D01*
G01X20006750Y8071250D02*
Y7753750D01*
X20164230D01*
G01X20353210Y8071250D02*
X20447690D01*
G01X20400450D02*
Y7753750D01*
G01X20353210D02*
X20447690D01*
G01X20613040D02*
Y8071250D01*
X20715410Y7806670D01*
X20817780Y8071250D01*
Y7753750D01*
G01X21109110D02*
X20951630D01*
Y8071250D01*
X21109110D01*
G01X21046120Y7917800D02*
X20951630D01*
G01X21345330Y8071250D02*
Y7753750D01*
G01X21254780Y8071250D02*
X21435880D01*
G01X21739030Y7753750D02*
X21581550D01*
Y8071250D01*
X21739030D01*
G01X21676040Y7917800D02*
X21581550D01*
G01X21896510Y7753750D02*
Y8071250D01*
X21994930D01*
X22026430Y8055370D01*
X22046120Y8034210D01*
X22053990Y7991870D01*
X22046120Y7949540D01*
X22022490Y7923090D01*
X21994930Y7907200D01*
X21896510D01*
G01X21994930D02*
X22053990Y7753750D01*
G01X22207530Y7796070D02*
X22239030Y7769620D01*
X22274460Y7753750D01*
X22305960D01*
X22337450Y7769620D01*
X22361080Y7796070D01*
X22372890Y7833130D01*
X22365020Y7870160D01*
X22345330Y7901910D01*
X22309890Y7923090D01*
X22262650Y7933670D01*
X22235090Y7954830D01*
X22223280Y7991870D01*
X22231160Y8028920D01*
X22250840Y8055370D01*
X22278400Y8071250D01*
X22305960D01*
X22333520Y8060670D01*
X22357140Y8034210D01*
G01X14014640Y8403750D02*
Y8721250D01*
X14093370D01*
X14124870Y8705370D01*
X14148490Y8684210D01*
X14168180Y8652460D01*
X14183930Y8615410D01*
X14187860Y8562500D01*
X14183930Y8509580D01*
X14168180Y8472540D01*
X14148490Y8440780D01*
X14124870Y8419620D01*
X14093370Y8403750D01*
X14014640D01*
G01X14337470D02*
Y8721250D01*
X14435890D01*
X14467390Y8705370D01*
X14487080Y8684210D01*
X14494950Y8641870D01*
X14487080Y8599540D01*
X14463450Y8573090D01*
X14435890Y8557200D01*
X14337470D01*
G01X14435890D02*
X14494950Y8403750D01*
G01X14683930Y8721250D02*
X14778410D01*
G01X14731170D02*
Y8403750D01*
G01X14683930D02*
X14778410D01*
G01X14967390Y8721250D02*
Y8403750D01*
X15124870D01*
G01X15282350Y8721250D02*
Y8403750D01*
X15439830D01*
G01X16077620Y8694790D02*
X16054000Y8710670D01*
X16026450Y8721250D01*
X15994950D01*
X15959510Y8705370D01*
X15931960Y8678920D01*
X15912270Y8647160D01*
X15896520Y8594250D01*
X15892580Y8546620D01*
X15900460Y8499000D01*
X15912270Y8467250D01*
X15935890Y8435490D01*
X15963450Y8414330D01*
X15991010Y8403750D01*
X16018570D01*
X16046130Y8414330D01*
X16069750Y8430200D01*
X16089440Y8451360D01*
G01X16223290Y8403750D02*
Y8721250D01*
G01X16388650D02*
Y8403750D01*
G01Y8562500D02*
X16223290D01*
G01X16522500Y8403750D02*
X16620930Y8721250D01*
X16719360Y8403750D01*
G01X16683920Y8514870D02*
X16557930D01*
G01X16857150Y8403750D02*
Y8721250D01*
X16955570D01*
X16987070Y8705370D01*
X17006760Y8684210D01*
X17014630Y8641870D01*
X17006760Y8599540D01*
X16983130Y8573090D01*
X16955570Y8557200D01*
X16857150D01*
G01X16955570D02*
X17014630Y8403750D01*
G01X17250850Y8721250D02*
Y8403750D01*
G01X17160300Y8721250D02*
X17341400D01*
G01X17565810Y8393170D02*
X17557930Y8398460D01*
Y8409040D01*
X17565810Y8414330D01*
X17573690Y8409040D01*
Y8398460D01*
X17565810Y8393170D01*
G01Y8536030D02*
X17557930Y8541330D01*
Y8551910D01*
X17565810Y8557200D01*
X17573690Y8551910D01*
Y8541330D01*
X17565810Y8536030D01*
G01X18195730Y8721250D02*
Y8403750D01*
G01X18105180Y8721250D02*
X18286280D01*
G01X18510690Y8403750D02*
X18479190Y8409040D01*
X18451640Y8430200D01*
X18428010Y8461960D01*
X18412260Y8499000D01*
X18404390Y8541330D01*
Y8583670D01*
X18412260Y8626000D01*
X18428010Y8663040D01*
X18451640Y8694790D01*
X18479190Y8715960D01*
X18510690Y8721250D01*
X18542180Y8715960D01*
X18569740Y8694790D01*
X18593370Y8663040D01*
X18609120Y8626000D01*
X18616990Y8583670D01*
Y8541330D01*
X18609120Y8499000D01*
X18593370Y8461960D01*
X18569740Y8430200D01*
X18542180Y8409040D01*
X18510690Y8403750D01*
G01X18746910D02*
Y8721250D01*
X18841400D01*
X18872890Y8705370D01*
X18896520Y8668330D01*
X18904390Y8626000D01*
X18896520Y8583670D01*
X18876830Y8551910D01*
X18841400Y8536030D01*
X18746910D01*
G01X19455570Y8721250D02*
Y8403750D01*
G01X19400450Y8615410D02*
X19510690D01*
G01X19770530Y8403750D02*
X19746910Y8409040D01*
X19723290Y8430200D01*
X19707530Y8467250D01*
X19699660Y8509580D01*
X19707530Y8551910D01*
X19723290Y8588960D01*
X19746910Y8610120D01*
X19770530Y8615410D01*
X19794150Y8610120D01*
X19817770Y8588960D01*
X19833520Y8551910D01*
X19837460Y8509580D01*
X19833520Y8467250D01*
X19817770Y8430200D01*
X19794150Y8409040D01*
X19770530Y8403750D01*
G01X20431940Y8573090D02*
X20447690Y8588960D01*
X20459500Y8615410D01*
X20467380Y8652460D01*
X20459500Y8684210D01*
X20443760Y8705370D01*
X20416200Y8721250D01*
X20309900D01*
Y8403750D01*
X20439820D01*
X20467380Y8424910D01*
X20483130Y8456670D01*
X20491000Y8493710D01*
X20483130Y8530740D01*
X20459500Y8562500D01*
X20431940Y8573090D01*
X20309900D01*
G01X20715410Y8403750D02*
X20683910Y8409040D01*
X20656360Y8430200D01*
X20632730Y8461960D01*
X20616980Y8499000D01*
X20609110Y8541330D01*
Y8583670D01*
X20616980Y8626000D01*
X20632730Y8663040D01*
X20656360Y8694790D01*
X20683910Y8715960D01*
X20715410Y8721250D01*
X20746900Y8715960D01*
X20774460Y8694790D01*
X20798090Y8663040D01*
X20813840Y8626000D01*
X20821710Y8583670D01*
Y8541330D01*
X20813840Y8499000D01*
X20798090Y8461960D01*
X20774460Y8430200D01*
X20746900Y8409040D01*
X20715410Y8403750D01*
G01X21030370Y8721250D02*
Y8403750D01*
G01X20939820Y8721250D02*
X21120920D01*
G01X21345330D02*
Y8403750D01*
G01X21254780Y8721250D02*
X21435880D01*
G01X21660290Y8403750D02*
X21628790Y8409040D01*
X21601240Y8430200D01*
X21577610Y8461960D01*
X21561860Y8499000D01*
X21553990Y8541330D01*
Y8583670D01*
X21561860Y8626000D01*
X21577610Y8663040D01*
X21601240Y8694790D01*
X21628790Y8715960D01*
X21660290Y8721250D01*
X21691780Y8715960D01*
X21719340Y8694790D01*
X21742970Y8663040D01*
X21758720Y8626000D01*
X21766590Y8583670D01*
Y8541330D01*
X21758720Y8499000D01*
X21742970Y8461960D01*
X21719340Y8430200D01*
X21691780Y8409040D01*
X21660290Y8403750D01*
G01X21872880D02*
Y8721250D01*
X21975250Y8456670D01*
X22077620Y8721250D01*
Y8403750D01*
G01X16935890Y7436250D02*
Y7118750D01*
G01X16845340Y7436250D02*
X17026440D01*
G01X17250850Y7118750D02*
X17219350Y7124040D01*
X17191800Y7145200D01*
X17168170Y7176960D01*
X17152420Y7214000D01*
X17144550Y7256330D01*
Y7298670D01*
X17152420Y7341000D01*
X17168170Y7378040D01*
X17191800Y7409790D01*
X17219350Y7430960D01*
X17250850Y7436250D01*
X17282340Y7430960D01*
X17309900Y7409790D01*
X17333530Y7378040D01*
X17349280Y7341000D01*
X17357150Y7298670D01*
Y7256330D01*
X17349280Y7214000D01*
X17333530Y7176960D01*
X17309900Y7145200D01*
X17282340Y7124040D01*
X17250850Y7118750D01*
G01X17487070Y7436250D02*
Y7118750D01*
X17644550D01*
G01X17959510D02*
X17802030D01*
Y7436250D01*
X17959510D01*
G01X17896520Y7282800D02*
X17802030D01*
G01X18116990Y7118750D02*
Y7436250D01*
X18215410D01*
X18246910Y7420370D01*
X18266600Y7399210D01*
X18274470Y7356870D01*
X18266600Y7314540D01*
X18242970Y7288090D01*
X18215410Y7272200D01*
X18116990D01*
G01X18215410D02*
X18274470Y7118750D01*
G01X18412260D02*
X18510690Y7436250D01*
X18609120Y7118750D01*
G01X18573680Y7229870D02*
X18447690D01*
G01X18735100Y7118750D02*
Y7436250D01*
X18916200Y7118750D01*
Y7436250D01*
G01X19227220Y7409790D02*
X19203600Y7425670D01*
X19176050Y7436250D01*
X19144550D01*
X19109110Y7420370D01*
X19081560Y7393920D01*
X19061870Y7362160D01*
X19046120Y7309250D01*
X19042180Y7261620D01*
X19050060Y7214000D01*
X19061870Y7182250D01*
X19085490Y7150490D01*
X19113050Y7129330D01*
X19140610Y7118750D01*
X19168170D01*
X19195730Y7129330D01*
X19219350Y7145200D01*
X19239040Y7166360D01*
G01X19534310Y7118750D02*
X19376830D01*
Y7436250D01*
X19534310D01*
G01X19471320Y7282800D02*
X19376830D01*
G01X19652420Y7012920D02*
X19888640D01*
G01X19998880Y7118750D02*
Y7436250D01*
X20077610D01*
X20109110Y7420370D01*
X20132730Y7399210D01*
X20152420Y7367460D01*
X20168170Y7330410D01*
X20172100Y7277500D01*
X20168170Y7224580D01*
X20152420Y7187540D01*
X20132730Y7155780D01*
X20109110Y7134620D01*
X20077610Y7118750D01*
X19998880D01*
G01X20321710D02*
Y7436250D01*
X20420130D01*
X20451630Y7420370D01*
X20471320Y7399210D01*
X20479190Y7356870D01*
X20471320Y7314540D01*
X20447690Y7288090D01*
X20420130Y7272200D01*
X20321710D01*
G01X20420130D02*
X20479190Y7118750D01*
G01X20668170Y7436250D02*
X20762650D01*
G01X20715410D02*
Y7118750D01*
G01X20668170D02*
X20762650D01*
G01X20951630Y7436250D02*
Y7118750D01*
X21109110D01*
G01X21266590Y7436250D02*
Y7118750D01*
X21424070D01*
G01X17837460Y239580D02*
X17931950D01*
G01X17880770Y308380D02*
Y170780D01*
G01X18195730Y451250D02*
X18164230Y440670D01*
X18140610Y414210D01*
X18124860Y382460D01*
X18113050Y340120D01*
X18109120Y292500D01*
X18113050Y244870D01*
X18124860Y202540D01*
X18140610Y170780D01*
X18164230Y144330D01*
X18195730Y133750D01*
X18227220Y144330D01*
X18250850Y170780D01*
X18266600Y202540D01*
X18278410Y244870D01*
X18282340Y292500D01*
X18278410Y340120D01*
X18266600Y382460D01*
X18250850Y414210D01*
X18227220Y440670D01*
X18195730Y451250D01*
G01X18510690Y123170D02*
X18502810Y128460D01*
Y139040D01*
X18510690Y144330D01*
X18518570Y139040D01*
Y128460D01*
X18510690Y123170D01*
G01X18825650Y451250D02*
X18794150Y440670D01*
X18770530Y414210D01*
X18754780Y382460D01*
X18742970Y340120D01*
X18739040Y292500D01*
X18742970Y244870D01*
X18754780Y202540D01*
X18770530Y170780D01*
X18794150Y144330D01*
X18825650Y133750D01*
X18857140Y144330D01*
X18880770Y170780D01*
X18896520Y202540D01*
X18908330Y244870D01*
X18912260Y292500D01*
X18908330Y340120D01*
X18896520Y382460D01*
X18880770Y414210D01*
X18857140Y440670D01*
X18825650Y451250D01*
G01X19069740Y123170D02*
X19211480Y451250D01*
G01X19404390Y239580D02*
X19506750D01*
G01X19770530Y451250D02*
X19739030Y440670D01*
X19715410Y414210D01*
X19699660Y382460D01*
X19687850Y340120D01*
X19683920Y292500D01*
X19687850Y244870D01*
X19699660Y202540D01*
X19715410Y170780D01*
X19739030Y144330D01*
X19770530Y133750D01*
X19802020Y144330D01*
X19825650Y170780D01*
X19841400Y202540D01*
X19853210Y244870D01*
X19857140Y292500D01*
X19853210Y340120D01*
X19841400Y382460D01*
X19825650Y414210D01*
X19802020Y440670D01*
X19770530Y451250D01*
G01X20085490Y123170D02*
X20077610Y128460D01*
Y139040D01*
X20085490Y144330D01*
X20093370Y139040D01*
Y128460D01*
X20085490Y123170D01*
G01X20400450Y451250D02*
X20368950Y440670D01*
X20345330Y414210D01*
X20329580Y382460D01*
X20317770Y340120D01*
X20313840Y292500D01*
X20317770Y244870D01*
X20329580Y202540D01*
X20345330Y170780D01*
X20368950Y144330D01*
X20400450Y133750D01*
X20431940Y144330D01*
X20455570Y170780D01*
X20471320Y202540D01*
X20483130Y244870D01*
X20487060Y292500D01*
X20483130Y340120D01*
X20471320Y382460D01*
X20455570Y414210D01*
X20431940Y440670D01*
X20400450Y451250D01*
G01X17837460Y874580D02*
X17931950D01*
G01X17880770Y943380D02*
Y805780D01*
G01X18195730Y1086250D02*
X18164230Y1075670D01*
X18140610Y1049210D01*
X18124860Y1017460D01*
X18113050Y975120D01*
X18109120Y927500D01*
X18113050Y879870D01*
X18124860Y837540D01*
X18140610Y805780D01*
X18164230Y779330D01*
X18195730Y768750D01*
X18227220Y779330D01*
X18250850Y805780D01*
X18266600Y837540D01*
X18278410Y879870D01*
X18282340Y927500D01*
X18278410Y975120D01*
X18266600Y1017460D01*
X18250850Y1049210D01*
X18227220Y1075670D01*
X18195730Y1086250D01*
G01X18510690Y758170D02*
X18502810Y763460D01*
Y774040D01*
X18510690Y779330D01*
X18518570Y774040D01*
Y763460D01*
X18510690Y758170D01*
G01X18825650Y1086250D02*
X18794150Y1075670D01*
X18770530Y1049210D01*
X18754780Y1017460D01*
X18742970Y975120D01*
X18739040Y927500D01*
X18742970Y879870D01*
X18754780Y837540D01*
X18770530Y805780D01*
X18794150Y779330D01*
X18825650Y768750D01*
X18857140Y779330D01*
X18880770Y805780D01*
X18896520Y837540D01*
X18908330Y879870D01*
X18912260Y927500D01*
X18908330Y975120D01*
X18896520Y1017460D01*
X18880770Y1049210D01*
X18857140Y1075670D01*
X18825650Y1086250D01*
G01X19069740Y758170D02*
X19211480Y1086250D01*
G01X19404390Y874580D02*
X19506750D01*
G01X19770530Y1086250D02*
X19739030Y1075670D01*
X19715410Y1049210D01*
X19699660Y1017460D01*
X19687850Y975120D01*
X19683920Y927500D01*
X19687850Y879870D01*
X19699660Y837540D01*
X19715410Y805780D01*
X19739030Y779330D01*
X19770530Y768750D01*
X19802020Y779330D01*
X19825650Y805780D01*
X19841400Y837540D01*
X19853210Y879870D01*
X19857140Y927500D01*
X19853210Y975120D01*
X19841400Y1017460D01*
X19825650Y1049210D01*
X19802020Y1075670D01*
X19770530Y1086250D01*
G01X20085490Y758170D02*
X20077610Y763460D01*
Y774040D01*
X20085490Y779330D01*
X20093370Y774040D01*
Y763460D01*
X20085490Y758170D01*
G01X20400450Y1086250D02*
X20368950Y1075670D01*
X20345330Y1049210D01*
X20329580Y1017460D01*
X20317770Y975120D01*
X20313840Y927500D01*
X20317770Y879870D01*
X20329580Y837540D01*
X20345330Y805780D01*
X20368950Y779330D01*
X20400450Y768750D01*
X20431940Y779330D01*
X20455570Y805780D01*
X20471320Y837540D01*
X20483130Y879870D01*
X20487060Y927500D01*
X20483130Y975120D01*
X20471320Y1017460D01*
X20455570Y1049210D01*
X20431940Y1075670D01*
X20400450Y1086250D01*
G01X17837460Y1509580D02*
X17931950D01*
G01X17880770Y1578380D02*
Y1440780D01*
G01X18195730Y1721250D02*
X18164230Y1710670D01*
X18140610Y1684210D01*
X18124860Y1652460D01*
X18113050Y1610120D01*
X18109120Y1562500D01*
X18113050Y1514870D01*
X18124860Y1472540D01*
X18140610Y1440780D01*
X18164230Y1414330D01*
X18195730Y1403750D01*
X18227220Y1414330D01*
X18250850Y1440780D01*
X18266600Y1472540D01*
X18278410Y1514870D01*
X18282340Y1562500D01*
X18278410Y1610120D01*
X18266600Y1652460D01*
X18250850Y1684210D01*
X18227220Y1710670D01*
X18195730Y1721250D01*
G01X18510690Y1393170D02*
X18502810Y1398460D01*
Y1409040D01*
X18510690Y1414330D01*
X18518570Y1409040D01*
Y1398460D01*
X18510690Y1393170D01*
G01X18825650Y1721250D02*
X18794150Y1710670D01*
X18770530Y1684210D01*
X18754780Y1652460D01*
X18742970Y1610120D01*
X18739040Y1562500D01*
X18742970Y1514870D01*
X18754780Y1472540D01*
X18770530Y1440780D01*
X18794150Y1414330D01*
X18825650Y1403750D01*
X18857140Y1414330D01*
X18880770Y1440780D01*
X18896520Y1472540D01*
X18908330Y1514870D01*
X18912260Y1562500D01*
X18908330Y1610120D01*
X18896520Y1652460D01*
X18880770Y1684210D01*
X18857140Y1710670D01*
X18825650Y1721250D01*
G01X19069740Y1393170D02*
X19211480Y1721250D01*
G01X19404390Y1509580D02*
X19506750D01*
G01X19770530Y1721250D02*
X19739030Y1710670D01*
X19715410Y1684210D01*
X19699660Y1652460D01*
X19687850Y1610120D01*
X19683920Y1562500D01*
X19687850Y1514870D01*
X19699660Y1472540D01*
X19715410Y1440780D01*
X19739030Y1414330D01*
X19770530Y1403750D01*
X19802020Y1414330D01*
X19825650Y1440780D01*
X19841400Y1472540D01*
X19853210Y1514870D01*
X19857140Y1562500D01*
X19853210Y1610120D01*
X19841400Y1652460D01*
X19825650Y1684210D01*
X19802020Y1710670D01*
X19770530Y1721250D01*
G01X20085490Y1393170D02*
X20077610Y1398460D01*
Y1409040D01*
X20085490Y1414330D01*
X20093370Y1409040D01*
Y1398460D01*
X20085490Y1393170D01*
G01X20400450Y1721250D02*
X20368950Y1710670D01*
X20345330Y1684210D01*
X20329580Y1652460D01*
X20317770Y1610120D01*
X20313840Y1562500D01*
X20317770Y1514870D01*
X20329580Y1472540D01*
X20345330Y1440780D01*
X20368950Y1414330D01*
X20400450Y1403750D01*
X20431940Y1414330D01*
X20455570Y1440780D01*
X20471320Y1472540D01*
X20483130Y1514870D01*
X20487060Y1562500D01*
X20483130Y1610120D01*
X20471320Y1652460D01*
X20455570Y1684210D01*
X20431940Y1710670D01*
X20400450Y1721250D01*
G01X17522500Y2144580D02*
X17616990D01*
G01X17565810Y2213380D02*
Y2075780D01*
G01X17880770Y2356250D02*
X17849270Y2345670D01*
X17825650Y2319210D01*
X17809900Y2287460D01*
X17798090Y2245120D01*
X17794160Y2197500D01*
X17798090Y2149870D01*
X17809900Y2107540D01*
X17825650Y2075780D01*
X17849270Y2049330D01*
X17880770Y2038750D01*
X17912260Y2049330D01*
X17935890Y2075780D01*
X17951640Y2107540D01*
X17963450Y2149870D01*
X17967380Y2197500D01*
X17963450Y2245120D01*
X17951640Y2287460D01*
X17935890Y2319210D01*
X17912260Y2345670D01*
X17880770Y2356250D01*
G01X18195730Y2028170D02*
X18187850Y2033460D01*
Y2044040D01*
X18195730Y2049330D01*
X18203610Y2044040D01*
Y2033460D01*
X18195730Y2028170D01*
G01X18510690Y2356250D02*
X18479190Y2345670D01*
X18455570Y2319210D01*
X18439820Y2287460D01*
X18428010Y2245120D01*
X18424080Y2197500D01*
X18428010Y2149870D01*
X18439820Y2107540D01*
X18455570Y2075780D01*
X18479190Y2049330D01*
X18510690Y2038750D01*
X18542180Y2049330D01*
X18565810Y2075780D01*
X18581560Y2107540D01*
X18593370Y2149870D01*
X18597300Y2197500D01*
X18593370Y2245120D01*
X18581560Y2287460D01*
X18565810Y2319210D01*
X18542180Y2345670D01*
X18510690Y2356250D01*
G01X18739040Y2102250D02*
X18762650Y2065200D01*
X18794150Y2044040D01*
X18829590Y2038750D01*
X18861090Y2044040D01*
X18892580Y2070490D01*
X18912260Y2102250D01*
X18916200Y2134000D01*
X18908330Y2171030D01*
X18880770Y2197500D01*
X18853210Y2208090D01*
X18817770D01*
G01X18853210D02*
X18876830Y2223960D01*
X18896520Y2250410D01*
X18904390Y2282160D01*
X18896520Y2313920D01*
X18876830Y2340370D01*
X18841400Y2356250D01*
X18805970Y2350960D01*
X18770530Y2329790D01*
G01X19069740Y2028170D02*
X19211480Y2356250D01*
G01X19404390Y2144580D02*
X19506750D01*
G01X19770530Y2356250D02*
X19739030Y2345670D01*
X19715410Y2319210D01*
X19699660Y2287460D01*
X19687850Y2245120D01*
X19683920Y2197500D01*
X19687850Y2149870D01*
X19699660Y2107540D01*
X19715410Y2075780D01*
X19739030Y2049330D01*
X19770530Y2038750D01*
X19802020Y2049330D01*
X19825650Y2075780D01*
X19841400Y2107540D01*
X19853210Y2149870D01*
X19857140Y2197500D01*
X19853210Y2245120D01*
X19841400Y2287460D01*
X19825650Y2319210D01*
X19802020Y2345670D01*
X19770530Y2356250D01*
G01X20085490Y2028170D02*
X20077610Y2033460D01*
Y2044040D01*
X20085490Y2049330D01*
X20093370Y2044040D01*
Y2033460D01*
X20085490Y2028170D01*
G01X20400450Y2356250D02*
X20368950Y2345670D01*
X20345330Y2319210D01*
X20329580Y2287460D01*
X20317770Y2245120D01*
X20313840Y2197500D01*
X20317770Y2149870D01*
X20329580Y2107540D01*
X20345330Y2075780D01*
X20368950Y2049330D01*
X20400450Y2038750D01*
X20431940Y2049330D01*
X20455570Y2075780D01*
X20471320Y2107540D01*
X20483130Y2149870D01*
X20487060Y2197500D01*
X20483130Y2245120D01*
X20471320Y2287460D01*
X20455570Y2319210D01*
X20431940Y2345670D01*
X20400450Y2356250D01*
G01X20628800Y2102250D02*
X20652410Y2065200D01*
X20683910Y2044040D01*
X20719350Y2038750D01*
X20750850Y2044040D01*
X20782340Y2070490D01*
X20802020Y2102250D01*
X20805960Y2134000D01*
X20798090Y2171030D01*
X20770530Y2197500D01*
X20742970Y2208090D01*
X20707530D01*
G01X20742970D02*
X20766590Y2223960D01*
X20786280Y2250410D01*
X20794150Y2282160D01*
X20786280Y2313920D01*
X20766590Y2340370D01*
X20731160Y2356250D01*
X20695730Y2350960D01*
X20660290Y2329790D01*
G01X17837460Y2779580D02*
X17931950D01*
G01X17880770Y2848380D02*
Y2710780D01*
G01X18195730Y2991250D02*
X18164230Y2980670D01*
X18140610Y2954210D01*
X18124860Y2922460D01*
X18113050Y2880120D01*
X18109120Y2832500D01*
X18113050Y2784870D01*
X18124860Y2742540D01*
X18140610Y2710780D01*
X18164230Y2684330D01*
X18195730Y2673750D01*
X18227220Y2684330D01*
X18250850Y2710780D01*
X18266600Y2742540D01*
X18278410Y2784870D01*
X18282340Y2832500D01*
X18278410Y2880120D01*
X18266600Y2922460D01*
X18250850Y2954210D01*
X18227220Y2980670D01*
X18195730Y2991250D01*
G01X18510690Y2663170D02*
X18502810Y2668460D01*
Y2679040D01*
X18510690Y2684330D01*
X18518570Y2679040D01*
Y2668460D01*
X18510690Y2663170D01*
G01X18825650Y2991250D02*
X18794150Y2980670D01*
X18770530Y2954210D01*
X18754780Y2922460D01*
X18742970Y2880120D01*
X18739040Y2832500D01*
X18742970Y2784870D01*
X18754780Y2742540D01*
X18770530Y2710780D01*
X18794150Y2684330D01*
X18825650Y2673750D01*
X18857140Y2684330D01*
X18880770Y2710780D01*
X18896520Y2742540D01*
X18908330Y2784870D01*
X18912260Y2832500D01*
X18908330Y2880120D01*
X18896520Y2922460D01*
X18880770Y2954210D01*
X18857140Y2980670D01*
X18825650Y2991250D01*
G01X19069740Y2663170D02*
X19211480Y2991250D01*
G01X19404390Y2779580D02*
X19506750D01*
G01X19770530Y2991250D02*
X19739030Y2980670D01*
X19715410Y2954210D01*
X19699660Y2922460D01*
X19687850Y2880120D01*
X19683920Y2832500D01*
X19687850Y2784870D01*
X19699660Y2742540D01*
X19715410Y2710780D01*
X19739030Y2684330D01*
X19770530Y2673750D01*
X19802020Y2684330D01*
X19825650Y2710780D01*
X19841400Y2742540D01*
X19853210Y2784870D01*
X19857140Y2832500D01*
X19853210Y2880120D01*
X19841400Y2922460D01*
X19825650Y2954210D01*
X19802020Y2980670D01*
X19770530Y2991250D01*
G01X20085490Y2663170D02*
X20077610Y2668460D01*
Y2679040D01*
X20085490Y2684330D01*
X20093370Y2679040D01*
Y2668460D01*
X20085490Y2663170D01*
G01X20400450Y2991250D02*
X20368950Y2980670D01*
X20345330Y2954210D01*
X20329580Y2922460D01*
X20317770Y2880120D01*
X20313840Y2832500D01*
X20317770Y2784870D01*
X20329580Y2742540D01*
X20345330Y2710780D01*
X20368950Y2684330D01*
X20400450Y2673750D01*
X20431940Y2684330D01*
X20455570Y2710780D01*
X20471320Y2742540D01*
X20483130Y2784870D01*
X20487060Y2832500D01*
X20483130Y2880120D01*
X20471320Y2922460D01*
X20455570Y2954210D01*
X20431940Y2980670D01*
X20400450Y2991250D01*
G01X17837460Y3414580D02*
X17931950D01*
G01X17880770Y3483380D02*
Y3345780D01*
G01X18195730Y3626250D02*
X18164230Y3615670D01*
X18140610Y3589210D01*
X18124860Y3557460D01*
X18113050Y3515120D01*
X18109120Y3467500D01*
X18113050Y3419870D01*
X18124860Y3377540D01*
X18140610Y3345780D01*
X18164230Y3319330D01*
X18195730Y3308750D01*
X18227220Y3319330D01*
X18250850Y3345780D01*
X18266600Y3377540D01*
X18278410Y3419870D01*
X18282340Y3467500D01*
X18278410Y3515120D01*
X18266600Y3557460D01*
X18250850Y3589210D01*
X18227220Y3615670D01*
X18195730Y3626250D01*
G01X18510690Y3298170D02*
X18502810Y3303460D01*
Y3314040D01*
X18510690Y3319330D01*
X18518570Y3314040D01*
Y3303460D01*
X18510690Y3298170D01*
G01X18825650Y3626250D02*
X18794150Y3615670D01*
X18770530Y3589210D01*
X18754780Y3557460D01*
X18742970Y3515120D01*
X18739040Y3467500D01*
X18742970Y3419870D01*
X18754780Y3377540D01*
X18770530Y3345780D01*
X18794150Y3319330D01*
X18825650Y3308750D01*
X18857140Y3319330D01*
X18880770Y3345780D01*
X18896520Y3377540D01*
X18908330Y3419870D01*
X18912260Y3467500D01*
X18908330Y3515120D01*
X18896520Y3557460D01*
X18880770Y3589210D01*
X18857140Y3615670D01*
X18825650Y3626250D01*
G01X19069740Y3298170D02*
X19211480Y3626250D01*
G01X19404390Y3414580D02*
X19506750D01*
G01X19770530Y3626250D02*
X19739030Y3615670D01*
X19715410Y3589210D01*
X19699660Y3557460D01*
X19687850Y3515120D01*
X19683920Y3467500D01*
X19687850Y3419870D01*
X19699660Y3377540D01*
X19715410Y3345780D01*
X19739030Y3319330D01*
X19770530Y3308750D01*
X19802020Y3319330D01*
X19825650Y3345780D01*
X19841400Y3377540D01*
X19853210Y3419870D01*
X19857140Y3467500D01*
X19853210Y3515120D01*
X19841400Y3557460D01*
X19825650Y3589210D01*
X19802020Y3615670D01*
X19770530Y3626250D01*
G01X20085490Y3298170D02*
X20077610Y3303460D01*
Y3314040D01*
X20085490Y3319330D01*
X20093370Y3314040D01*
Y3303460D01*
X20085490Y3298170D01*
G01X20400450Y3626250D02*
X20368950Y3615670D01*
X20345330Y3589210D01*
X20329580Y3557460D01*
X20317770Y3515120D01*
X20313840Y3467500D01*
X20317770Y3419870D01*
X20329580Y3377540D01*
X20345330Y3345780D01*
X20368950Y3319330D01*
X20400450Y3308750D01*
X20431940Y3319330D01*
X20455570Y3345780D01*
X20471320Y3377540D01*
X20483130Y3419870D01*
X20487060Y3467500D01*
X20483130Y3515120D01*
X20471320Y3557460D01*
X20455570Y3589210D01*
X20431940Y3615670D01*
X20400450Y3626250D01*
G01X17837460Y4049580D02*
X17931950D01*
G01X17880770Y4118380D02*
Y3980780D01*
G01X18195730Y4261250D02*
X18164230Y4250670D01*
X18140610Y4224210D01*
X18124860Y4192460D01*
X18113050Y4150120D01*
X18109120Y4102500D01*
X18113050Y4054870D01*
X18124860Y4012540D01*
X18140610Y3980780D01*
X18164230Y3954330D01*
X18195730Y3943750D01*
X18227220Y3954330D01*
X18250850Y3980780D01*
X18266600Y4012540D01*
X18278410Y4054870D01*
X18282340Y4102500D01*
X18278410Y4150120D01*
X18266600Y4192460D01*
X18250850Y4224210D01*
X18227220Y4250670D01*
X18195730Y4261250D01*
G01X18510690Y3933170D02*
X18502810Y3938460D01*
Y3949040D01*
X18510690Y3954330D01*
X18518570Y3949040D01*
Y3938460D01*
X18510690Y3933170D01*
G01X18825650Y4261250D02*
X18794150Y4250670D01*
X18770530Y4224210D01*
X18754780Y4192460D01*
X18742970Y4150120D01*
X18739040Y4102500D01*
X18742970Y4054870D01*
X18754780Y4012540D01*
X18770530Y3980780D01*
X18794150Y3954330D01*
X18825650Y3943750D01*
X18857140Y3954330D01*
X18880770Y3980780D01*
X18896520Y4012540D01*
X18908330Y4054870D01*
X18912260Y4102500D01*
X18908330Y4150120D01*
X18896520Y4192460D01*
X18880770Y4224210D01*
X18857140Y4250670D01*
X18825650Y4261250D01*
G01X19069740Y3933170D02*
X19211480Y4261250D01*
G01X19404390Y4049580D02*
X19506750D01*
G01X19770530Y4261250D02*
X19739030Y4250670D01*
X19715410Y4224210D01*
X19699660Y4192460D01*
X19687850Y4150120D01*
X19683920Y4102500D01*
X19687850Y4054870D01*
X19699660Y4012540D01*
X19715410Y3980780D01*
X19739030Y3954330D01*
X19770530Y3943750D01*
X19802020Y3954330D01*
X19825650Y3980780D01*
X19841400Y4012540D01*
X19853210Y4054870D01*
X19857140Y4102500D01*
X19853210Y4150120D01*
X19841400Y4192460D01*
X19825650Y4224210D01*
X19802020Y4250670D01*
X19770530Y4261250D01*
G01X20085490Y3933170D02*
X20077610Y3938460D01*
Y3949040D01*
X20085490Y3954330D01*
X20093370Y3949040D01*
Y3938460D01*
X20085490Y3933170D01*
G01X20400450Y4261250D02*
X20368950Y4250670D01*
X20345330Y4224210D01*
X20329580Y4192460D01*
X20317770Y4150120D01*
X20313840Y4102500D01*
X20317770Y4054870D01*
X20329580Y4012540D01*
X20345330Y3980780D01*
X20368950Y3954330D01*
X20400450Y3943750D01*
X20431940Y3954330D01*
X20455570Y3980780D01*
X20471320Y4012540D01*
X20483130Y4054870D01*
X20487060Y4102500D01*
X20483130Y4150120D01*
X20471320Y4192460D01*
X20455570Y4224210D01*
X20431940Y4250670D01*
X20400450Y4261250D01*
G01X17837460Y4684580D02*
X17931950D01*
G01X17880770Y4753380D02*
Y4615780D01*
G01X18195730Y4896250D02*
X18164230Y4885670D01*
X18140610Y4859210D01*
X18124860Y4827460D01*
X18113050Y4785120D01*
X18109120Y4737500D01*
X18113050Y4689870D01*
X18124860Y4647540D01*
X18140610Y4615780D01*
X18164230Y4589330D01*
X18195730Y4578750D01*
X18227220Y4589330D01*
X18250850Y4615780D01*
X18266600Y4647540D01*
X18278410Y4689870D01*
X18282340Y4737500D01*
X18278410Y4785120D01*
X18266600Y4827460D01*
X18250850Y4859210D01*
X18227220Y4885670D01*
X18195730Y4896250D01*
G01X18510690Y4568170D02*
X18502810Y4573460D01*
Y4584040D01*
X18510690Y4589330D01*
X18518570Y4584040D01*
Y4573460D01*
X18510690Y4568170D01*
G01X18825650Y4896250D02*
X18794150Y4885670D01*
X18770530Y4859210D01*
X18754780Y4827460D01*
X18742970Y4785120D01*
X18739040Y4737500D01*
X18742970Y4689870D01*
X18754780Y4647540D01*
X18770530Y4615780D01*
X18794150Y4589330D01*
X18825650Y4578750D01*
X18857140Y4589330D01*
X18880770Y4615780D01*
X18896520Y4647540D01*
X18908330Y4689870D01*
X18912260Y4737500D01*
X18908330Y4785120D01*
X18896520Y4827460D01*
X18880770Y4859210D01*
X18857140Y4885670D01*
X18825650Y4896250D01*
G01X19069740Y4568170D02*
X19211480Y4896250D01*
G01X19404390Y4684580D02*
X19506750D01*
G01X19770530Y4896250D02*
X19739030Y4885670D01*
X19715410Y4859210D01*
X19699660Y4827460D01*
X19687850Y4785120D01*
X19683920Y4737500D01*
X19687850Y4689870D01*
X19699660Y4647540D01*
X19715410Y4615780D01*
X19739030Y4589330D01*
X19770530Y4578750D01*
X19802020Y4589330D01*
X19825650Y4615780D01*
X19841400Y4647540D01*
X19853210Y4689870D01*
X19857140Y4737500D01*
X19853210Y4785120D01*
X19841400Y4827460D01*
X19825650Y4859210D01*
X19802020Y4885670D01*
X19770530Y4896250D01*
G01X20085490Y4568170D02*
X20077610Y4573460D01*
Y4584040D01*
X20085490Y4589330D01*
X20093370Y4584040D01*
Y4573460D01*
X20085490Y4568170D01*
G01X20400450Y4896250D02*
X20368950Y4885670D01*
X20345330Y4859210D01*
X20329580Y4827460D01*
X20317770Y4785120D01*
X20313840Y4737500D01*
X20317770Y4689870D01*
X20329580Y4647540D01*
X20345330Y4615780D01*
X20368950Y4589330D01*
X20400450Y4578750D01*
X20431940Y4589330D01*
X20455570Y4615780D01*
X20471320Y4647540D01*
X20483130Y4689870D01*
X20487060Y4737500D01*
X20483130Y4785120D01*
X20471320Y4827460D01*
X20455570Y4859210D01*
X20431940Y4885670D01*
X20400450Y4896250D01*
G01X17837460Y5319580D02*
X17931950D01*
G01X17880770Y5388380D02*
Y5250780D01*
G01X18195730Y5531250D02*
X18164230Y5520670D01*
X18140610Y5494210D01*
X18124860Y5462460D01*
X18113050Y5420120D01*
X18109120Y5372500D01*
X18113050Y5324870D01*
X18124860Y5282540D01*
X18140610Y5250780D01*
X18164230Y5224330D01*
X18195730Y5213750D01*
X18227220Y5224330D01*
X18250850Y5250780D01*
X18266600Y5282540D01*
X18278410Y5324870D01*
X18282340Y5372500D01*
X18278410Y5420120D01*
X18266600Y5462460D01*
X18250850Y5494210D01*
X18227220Y5520670D01*
X18195730Y5531250D01*
G01X18510690Y5203170D02*
X18502810Y5208460D01*
Y5219040D01*
X18510690Y5224330D01*
X18518570Y5219040D01*
Y5208460D01*
X18510690Y5203170D01*
G01X18825650Y5531250D02*
X18794150Y5520670D01*
X18770530Y5494210D01*
X18754780Y5462460D01*
X18742970Y5420120D01*
X18739040Y5372500D01*
X18742970Y5324870D01*
X18754780Y5282540D01*
X18770530Y5250780D01*
X18794150Y5224330D01*
X18825650Y5213750D01*
X18857140Y5224330D01*
X18880770Y5250780D01*
X18896520Y5282540D01*
X18908330Y5324870D01*
X18912260Y5372500D01*
X18908330Y5420120D01*
X18896520Y5462460D01*
X18880770Y5494210D01*
X18857140Y5520670D01*
X18825650Y5531250D01*
G01X19069740Y5203170D02*
X19211480Y5531250D01*
G01X19404390Y5319580D02*
X19506750D01*
G01X19770530Y5531250D02*
X19739030Y5520670D01*
X19715410Y5494210D01*
X19699660Y5462460D01*
X19687850Y5420120D01*
X19683920Y5372500D01*
X19687850Y5324870D01*
X19699660Y5282540D01*
X19715410Y5250780D01*
X19739030Y5224330D01*
X19770530Y5213750D01*
X19802020Y5224330D01*
X19825650Y5250780D01*
X19841400Y5282540D01*
X19853210Y5324870D01*
X19857140Y5372500D01*
X19853210Y5420120D01*
X19841400Y5462460D01*
X19825650Y5494210D01*
X19802020Y5520670D01*
X19770530Y5531250D01*
G01X20085490Y5203170D02*
X20077610Y5208460D01*
Y5219040D01*
X20085490Y5224330D01*
X20093370Y5219040D01*
Y5208460D01*
X20085490Y5203170D01*
G01X20400450Y5531250D02*
X20368950Y5520670D01*
X20345330Y5494210D01*
X20329580Y5462460D01*
X20317770Y5420120D01*
X20313840Y5372500D01*
X20317770Y5324870D01*
X20329580Y5282540D01*
X20345330Y5250780D01*
X20368950Y5224330D01*
X20400450Y5213750D01*
X20431940Y5224330D01*
X20455570Y5250780D01*
X20471320Y5282540D01*
X20483130Y5324870D01*
X20487060Y5372500D01*
X20483130Y5420120D01*
X20471320Y5462460D01*
X20455570Y5494210D01*
X20431940Y5520670D01*
X20400450Y5531250D01*
G01X17837460Y5954580D02*
X17931950D01*
G01X17880770Y6023380D02*
Y5885780D01*
G01X18195730Y6166250D02*
X18164230Y6155670D01*
X18140610Y6129210D01*
X18124860Y6097460D01*
X18113050Y6055120D01*
X18109120Y6007500D01*
X18113050Y5959870D01*
X18124860Y5917540D01*
X18140610Y5885780D01*
X18164230Y5859330D01*
X18195730Y5848750D01*
X18227220Y5859330D01*
X18250850Y5885780D01*
X18266600Y5917540D01*
X18278410Y5959870D01*
X18282340Y6007500D01*
X18278410Y6055120D01*
X18266600Y6097460D01*
X18250850Y6129210D01*
X18227220Y6155670D01*
X18195730Y6166250D01*
G01X18510690Y5838170D02*
X18502810Y5843460D01*
Y5854040D01*
X18510690Y5859330D01*
X18518570Y5854040D01*
Y5843460D01*
X18510690Y5838170D01*
G01X18825650Y6166250D02*
X18794150Y6155670D01*
X18770530Y6129210D01*
X18754780Y6097460D01*
X18742970Y6055120D01*
X18739040Y6007500D01*
X18742970Y5959870D01*
X18754780Y5917540D01*
X18770530Y5885780D01*
X18794150Y5859330D01*
X18825650Y5848750D01*
X18857140Y5859330D01*
X18880770Y5885780D01*
X18896520Y5917540D01*
X18908330Y5959870D01*
X18912260Y6007500D01*
X18908330Y6055120D01*
X18896520Y6097460D01*
X18880770Y6129210D01*
X18857140Y6155670D01*
X18825650Y6166250D01*
G01X19069740Y5838170D02*
X19211480Y6166250D01*
G01X19404390Y5954580D02*
X19506750D01*
G01X19770530Y6166250D02*
X19739030Y6155670D01*
X19715410Y6129210D01*
X19699660Y6097460D01*
X19687850Y6055120D01*
X19683920Y6007500D01*
X19687850Y5959870D01*
X19699660Y5917540D01*
X19715410Y5885780D01*
X19739030Y5859330D01*
X19770530Y5848750D01*
X19802020Y5859330D01*
X19825650Y5885780D01*
X19841400Y5917540D01*
X19853210Y5959870D01*
X19857140Y6007500D01*
X19853210Y6055120D01*
X19841400Y6097460D01*
X19825650Y6129210D01*
X19802020Y6155670D01*
X19770530Y6166250D01*
G01X20085490Y5838170D02*
X20077610Y5843460D01*
Y5854040D01*
X20085490Y5859330D01*
X20093370Y5854040D01*
Y5843460D01*
X20085490Y5838170D01*
G01X20400450Y6166250D02*
X20368950Y6155670D01*
X20345330Y6129210D01*
X20329580Y6097460D01*
X20317770Y6055120D01*
X20313840Y6007500D01*
X20317770Y5959870D01*
X20329580Y5917540D01*
X20345330Y5885780D01*
X20368950Y5859330D01*
X20400450Y5848750D01*
X20431940Y5859330D01*
X20455570Y5885780D01*
X20471320Y5917540D01*
X20483130Y5959870D01*
X20487060Y6007500D01*
X20483130Y6055120D01*
X20471320Y6097460D01*
X20455570Y6129210D01*
X20431940Y6155670D01*
X20400450Y6166250D01*
G01X17837460Y6589580D02*
X17931950D01*
G01X17880770Y6658380D02*
Y6520780D01*
G01X18195730Y6801250D02*
X18164230Y6790670D01*
X18140610Y6764210D01*
X18124860Y6732460D01*
X18113050Y6690120D01*
X18109120Y6642500D01*
X18113050Y6594870D01*
X18124860Y6552540D01*
X18140610Y6520780D01*
X18164230Y6494330D01*
X18195730Y6483750D01*
X18227220Y6494330D01*
X18250850Y6520780D01*
X18266600Y6552540D01*
X18278410Y6594870D01*
X18282340Y6642500D01*
X18278410Y6690120D01*
X18266600Y6732460D01*
X18250850Y6764210D01*
X18227220Y6790670D01*
X18195730Y6801250D01*
G01X18510690Y6473170D02*
X18502810Y6478460D01*
Y6489040D01*
X18510690Y6494330D01*
X18518570Y6489040D01*
Y6478460D01*
X18510690Y6473170D01*
G01X18825650Y6801250D02*
X18794150Y6790670D01*
X18770530Y6764210D01*
X18754780Y6732460D01*
X18742970Y6690120D01*
X18739040Y6642500D01*
X18742970Y6594870D01*
X18754780Y6552540D01*
X18770530Y6520780D01*
X18794150Y6494330D01*
X18825650Y6483750D01*
X18857140Y6494330D01*
X18880770Y6520780D01*
X18896520Y6552540D01*
X18908330Y6594870D01*
X18912260Y6642500D01*
X18908330Y6690120D01*
X18896520Y6732460D01*
X18880770Y6764210D01*
X18857140Y6790670D01*
X18825650Y6801250D01*
G01X19069740Y6473170D02*
X19211480Y6801250D01*
G01X19404390Y6589580D02*
X19506750D01*
G01X19770530Y6801250D02*
X19739030Y6790670D01*
X19715410Y6764210D01*
X19699660Y6732460D01*
X19687850Y6690120D01*
X19683920Y6642500D01*
X19687850Y6594870D01*
X19699660Y6552540D01*
X19715410Y6520780D01*
X19739030Y6494330D01*
X19770530Y6483750D01*
X19802020Y6494330D01*
X19825650Y6520780D01*
X19841400Y6552540D01*
X19853210Y6594870D01*
X19857140Y6642500D01*
X19853210Y6690120D01*
X19841400Y6732460D01*
X19825650Y6764210D01*
X19802020Y6790670D01*
X19770530Y6801250D01*
G01X20085490Y6473170D02*
X20077610Y6478460D01*
Y6489040D01*
X20085490Y6494330D01*
X20093370Y6489040D01*
Y6478460D01*
X20085490Y6473170D01*
G01X20400450Y6801250D02*
X20368950Y6790670D01*
X20345330Y6764210D01*
X20329580Y6732460D01*
X20317770Y6690120D01*
X20313840Y6642500D01*
X20317770Y6594870D01*
X20329580Y6552540D01*
X20345330Y6520780D01*
X20368950Y6494330D01*
X20400450Y6483750D01*
X20431940Y6494330D01*
X20455570Y6520780D01*
X20471320Y6552540D01*
X20483130Y6594870D01*
X20487060Y6642500D01*
X20483130Y6690120D01*
X20471320Y6732460D01*
X20455570Y6764210D01*
X20431940Y6790670D01*
X20400450Y6801250D01*
G01X21027830Y-183750D02*
Y-501250D01*
G01X20937280Y-183750D02*
X21118380D01*
G01X21342790Y-501250D02*
X21311290Y-495960D01*
X21283740Y-474800D01*
X21260110Y-443040D01*
X21244360Y-406000D01*
X21236490Y-363670D01*
Y-321330D01*
X21244360Y-279000D01*
X21260110Y-241960D01*
X21283740Y-210210D01*
X21311290Y-189040D01*
X21342790Y-183750D01*
X21374280Y-189040D01*
X21401840Y-210210D01*
X21425470Y-241960D01*
X21441220Y-279000D01*
X21449090Y-321330D01*
Y-363670D01*
X21441220Y-406000D01*
X21425470Y-443040D01*
X21401840Y-474800D01*
X21374280Y-495960D01*
X21342790Y-501250D01*
G01X21657750Y-183750D02*
Y-501250D01*
G01X21567200Y-183750D02*
X21748300D01*
G01X21874280Y-501250D02*
X21972710Y-183750D01*
X22071140Y-501250D01*
G01X22035700Y-390130D02*
X21909710D01*
G01X22208930Y-183750D02*
Y-501250D01*
X22366410D01*
G01X22834910D02*
Y-183750D01*
G01X23000270D02*
Y-501250D01*
G01Y-342500D02*
X22834910D01*
G01X23232550Y-501250D02*
X23201050Y-495960D01*
X23173500Y-474800D01*
X23149870Y-443040D01*
X23134120Y-406000D01*
X23126250Y-363670D01*
Y-321330D01*
X23134120Y-279000D01*
X23149870Y-241960D01*
X23173500Y-210210D01*
X23201050Y-189040D01*
X23232550Y-183750D01*
X23264040Y-189040D01*
X23291600Y-210210D01*
X23315230Y-241960D01*
X23330980Y-279000D01*
X23338850Y-321330D01*
Y-363670D01*
X23330980Y-406000D01*
X23315230Y-443040D01*
X23291600Y-474800D01*
X23264040Y-495960D01*
X23232550Y-501250D01*
G01X23468770Y-183750D02*
Y-501250D01*
X23626250D01*
G01X23941210D02*
X23783730D01*
Y-183750D01*
X23941210D01*
G01X23878220Y-337200D02*
X23783730D01*
G01X24094750Y-458930D02*
X24126250Y-485380D01*
X24161680Y-501250D01*
X24193180D01*
X24224670Y-485380D01*
X24248300Y-458930D01*
X24260110Y-421870D01*
X24252240Y-384840D01*
X24232550Y-353090D01*
X24197110Y-331910D01*
X24149870Y-321330D01*
X24122310Y-300170D01*
X24110500Y-263130D01*
X24118380Y-226080D01*
X24138060Y-199630D01*
X24165620Y-183750D01*
X24193180D01*
X24220740Y-194330D01*
X24244360Y-220790D01*
G01X24492390Y-511830D02*
X24484510Y-506540D01*
Y-495960D01*
X24492390Y-490670D01*
X24500270Y-495960D01*
Y-506540D01*
X24492390Y-511830D01*
G01Y-368970D02*
X24484510Y-363670D01*
Y-353090D01*
X24492390Y-347800D01*
X24500270Y-353090D01*
Y-363670D01*
X24492390Y-368970D01*
G01X22447690Y133750D02*
Y451250D01*
X22542180D01*
X22573670Y435370D01*
X22597300Y398330D01*
X22605170Y356000D01*
X22597300Y313670D01*
X22577610Y281910D01*
X22542180Y266030D01*
X22447690D01*
G01X22762650Y451250D02*
Y133750D01*
X22920130D01*
G01X23057920D02*
X23156350Y451250D01*
X23254780Y133750D01*
G01X23219340Y244870D02*
X23093350D01*
G01X23471310Y451250D02*
Y133750D01*
G01X23380760Y451250D02*
X23561860D01*
G01X23865010Y133750D02*
X23707530D01*
Y451250D01*
X23865010D01*
G01X23802020Y297800D02*
X23707530D01*
G01X24014620Y133750D02*
Y451250D01*
X24093350D01*
X24124850Y435370D01*
X24148470Y414210D01*
X24168160Y382460D01*
X24183910Y345410D01*
X24187840Y292500D01*
X24183910Y239580D01*
X24168160Y202540D01*
X24148470Y170780D01*
X24124850Y149620D01*
X24093350Y133750D01*
X24014620D01*
G01X22447690Y768750D02*
Y1086250D01*
X22542180D01*
X22573670Y1070370D01*
X22597300Y1033330D01*
X22605170Y991000D01*
X22597300Y948670D01*
X22577610Y916910D01*
X22542180Y901030D01*
X22447690D01*
G01X22762650Y1086250D02*
Y768750D01*
X22920130D01*
G01X23057920D02*
X23156350Y1086250D01*
X23254780Y768750D01*
G01X23219340Y879870D02*
X23093350D01*
G01X23471310Y1086250D02*
Y768750D01*
G01X23380760Y1086250D02*
X23561860D01*
G01X23865010Y768750D02*
X23707530D01*
Y1086250D01*
X23865010D01*
G01X23802020Y932800D02*
X23707530D01*
G01X24014620Y768750D02*
Y1086250D01*
X24093350D01*
X24124850Y1070370D01*
X24148470Y1049210D01*
X24168160Y1017460D01*
X24183910Y980410D01*
X24187840Y927500D01*
X24183910Y874580D01*
X24168160Y837540D01*
X24148470Y805780D01*
X24124850Y784620D01*
X24093350Y768750D01*
X24014620D01*
G01X22447690Y1403750D02*
Y1721250D01*
X22542180D01*
X22573670Y1705370D01*
X22597300Y1668330D01*
X22605170Y1626000D01*
X22597300Y1583670D01*
X22577610Y1551910D01*
X22542180Y1536030D01*
X22447690D01*
G01X22762650Y1721250D02*
Y1403750D01*
X22920130D01*
G01X23057920D02*
X23156350Y1721250D01*
X23254780Y1403750D01*
G01X23219340Y1514870D02*
X23093350D01*
G01X23471310Y1721250D02*
Y1403750D01*
G01X23380760Y1721250D02*
X23561860D01*
G01X23865010Y1403750D02*
X23707530D01*
Y1721250D01*
X23865010D01*
G01X23802020Y1567800D02*
X23707530D01*
G01X24014620Y1403750D02*
Y1721250D01*
X24093350D01*
X24124850Y1705370D01*
X24148470Y1684210D01*
X24168160Y1652460D01*
X24183910Y1615410D01*
X24187840Y1562500D01*
X24183910Y1509580D01*
X24168160Y1472540D01*
X24148470Y1440780D01*
X24124850Y1419620D01*
X24093350Y1403750D01*
X24014620D01*
G01X22447690Y2038750D02*
Y2356250D01*
X22542180D01*
X22573670Y2340370D01*
X22597300Y2303330D01*
X22605170Y2261000D01*
X22597300Y2218670D01*
X22577610Y2186910D01*
X22542180Y2171030D01*
X22447690D01*
G01X22762650Y2356250D02*
Y2038750D01*
X22920130D01*
G01X23057920D02*
X23156350Y2356250D01*
X23254780Y2038750D01*
G01X23219340Y2149870D02*
X23093350D01*
G01X23471310Y2356250D02*
Y2038750D01*
G01X23380760Y2356250D02*
X23561860D01*
G01X23865010Y2038750D02*
X23707530D01*
Y2356250D01*
X23865010D01*
G01X23802020Y2202800D02*
X23707530D01*
G01X24014620Y2038750D02*
Y2356250D01*
X24093350D01*
X24124850Y2340370D01*
X24148470Y2319210D01*
X24168160Y2287460D01*
X24183910Y2250410D01*
X24187840Y2197500D01*
X24183910Y2144580D01*
X24168160Y2107540D01*
X24148470Y2075780D01*
X24124850Y2054620D01*
X24093350Y2038750D01*
X24014620D01*
G01X22447690Y2673750D02*
Y2991250D01*
X22542180D01*
X22573670Y2975370D01*
X22597300Y2938330D01*
X22605170Y2896000D01*
X22597300Y2853670D01*
X22577610Y2821910D01*
X22542180Y2806030D01*
X22447690D01*
G01X22762650Y2991250D02*
Y2673750D01*
X22920130D01*
G01X23057920D02*
X23156350Y2991250D01*
X23254780Y2673750D01*
G01X23219340Y2784870D02*
X23093350D01*
G01X23471310Y2991250D02*
Y2673750D01*
G01X23380760Y2991250D02*
X23561860D01*
G01X23865010Y2673750D02*
X23707530D01*
Y2991250D01*
X23865010D01*
G01X23802020Y2837800D02*
X23707530D01*
G01X24014620Y2673750D02*
Y2991250D01*
X24093350D01*
X24124850Y2975370D01*
X24148470Y2954210D01*
X24168160Y2922460D01*
X24183910Y2885410D01*
X24187840Y2832500D01*
X24183910Y2779580D01*
X24168160Y2742540D01*
X24148470Y2710780D01*
X24124850Y2689620D01*
X24093350Y2673750D01*
X24014620D01*
G01X22447690Y3308750D02*
Y3626250D01*
X22542180D01*
X22573670Y3610370D01*
X22597300Y3573330D01*
X22605170Y3531000D01*
X22597300Y3488670D01*
X22577610Y3456910D01*
X22542180Y3441030D01*
X22447690D01*
G01X22762650Y3626250D02*
Y3308750D01*
X22920130D01*
G01X23057920D02*
X23156350Y3626250D01*
X23254780Y3308750D01*
G01X23219340Y3419870D02*
X23093350D01*
G01X23471310Y3626250D02*
Y3308750D01*
G01X23380760Y3626250D02*
X23561860D01*
G01X23865010Y3308750D02*
X23707530D01*
Y3626250D01*
X23865010D01*
G01X23802020Y3472800D02*
X23707530D01*
G01X24014620Y3308750D02*
Y3626250D01*
X24093350D01*
X24124850Y3610370D01*
X24148470Y3589210D01*
X24168160Y3557460D01*
X24183910Y3520410D01*
X24187840Y3467500D01*
X24183910Y3414580D01*
X24168160Y3377540D01*
X24148470Y3345780D01*
X24124850Y3324620D01*
X24093350Y3308750D01*
X24014620D01*
G01X22447690Y3943750D02*
Y4261250D01*
X22542180D01*
X22573670Y4245370D01*
X22597300Y4208330D01*
X22605170Y4166000D01*
X22597300Y4123670D01*
X22577610Y4091910D01*
X22542180Y4076030D01*
X22447690D01*
G01X22762650Y4261250D02*
Y3943750D01*
X22920130D01*
G01X23057920D02*
X23156350Y4261250D01*
X23254780Y3943750D01*
G01X23219340Y4054870D02*
X23093350D01*
G01X23471310Y4261250D02*
Y3943750D01*
G01X23380760Y4261250D02*
X23561860D01*
G01X23865010Y3943750D02*
X23707530D01*
Y4261250D01*
X23865010D01*
G01X23802020Y4107800D02*
X23707530D01*
G01X24014620Y3943750D02*
Y4261250D01*
X24093350D01*
X24124850Y4245370D01*
X24148470Y4224210D01*
X24168160Y4192460D01*
X24183910Y4155410D01*
X24187840Y4102500D01*
X24183910Y4049580D01*
X24168160Y4012540D01*
X24148470Y3980780D01*
X24124850Y3959620D01*
X24093350Y3943750D01*
X24014620D01*
G01X22447690Y4578750D02*
Y4896250D01*
X22542180D01*
X22573670Y4880370D01*
X22597300Y4843330D01*
X22605170Y4801000D01*
X22597300Y4758670D01*
X22577610Y4726910D01*
X22542180Y4711030D01*
X22447690D01*
G01X22762650Y4896250D02*
Y4578750D01*
X22920130D01*
G01X23057920D02*
X23156350Y4896250D01*
X23254780Y4578750D01*
G01X23219340Y4689870D02*
X23093350D01*
G01X23471310Y4896250D02*
Y4578750D01*
G01X23380760Y4896250D02*
X23561860D01*
G01X23865010Y4578750D02*
X23707530D01*
Y4896250D01*
X23865010D01*
G01X23802020Y4742800D02*
X23707530D01*
G01X24014620Y4578750D02*
Y4896250D01*
X24093350D01*
X24124850Y4880370D01*
X24148470Y4859210D01*
X24168160Y4827460D01*
X24183910Y4790410D01*
X24187840Y4737500D01*
X24183910Y4684580D01*
X24168160Y4647540D01*
X24148470Y4615780D01*
X24124850Y4594620D01*
X24093350Y4578750D01*
X24014620D01*
G01X22447690Y5213750D02*
Y5531250D01*
X22542180D01*
X22573670Y5515370D01*
X22597300Y5478330D01*
X22605170Y5436000D01*
X22597300Y5393670D01*
X22577610Y5361910D01*
X22542180Y5346030D01*
X22447690D01*
G01X22762650Y5531250D02*
Y5213750D01*
X22920130D01*
G01X23057920D02*
X23156350Y5531250D01*
X23254780Y5213750D01*
G01X23219340Y5324870D02*
X23093350D01*
G01X23471310Y5531250D02*
Y5213750D01*
G01X23380760Y5531250D02*
X23561860D01*
G01X23865010Y5213750D02*
X23707530D01*
Y5531250D01*
X23865010D01*
G01X23802020Y5377800D02*
X23707530D01*
G01X24014620Y5213750D02*
Y5531250D01*
X24093350D01*
X24124850Y5515370D01*
X24148470Y5494210D01*
X24168160Y5462460D01*
X24183910Y5425410D01*
X24187840Y5372500D01*
X24183910Y5319580D01*
X24168160Y5282540D01*
X24148470Y5250780D01*
X24124850Y5229620D01*
X24093350Y5213750D01*
X24014620D01*
G01X22447690Y5848750D02*
Y6166250D01*
X22542180D01*
X22573670Y6150370D01*
X22597300Y6113330D01*
X22605170Y6071000D01*
X22597300Y6028670D01*
X22577610Y5996910D01*
X22542180Y5981030D01*
X22447690D01*
G01X22762650Y6166250D02*
Y5848750D01*
X22920130D01*
G01X23057920D02*
X23156350Y6166250D01*
X23254780Y5848750D01*
G01X23219340Y5959870D02*
X23093350D01*
G01X23471310Y6166250D02*
Y5848750D01*
G01X23380760Y6166250D02*
X23561860D01*
G01X23865010Y5848750D02*
X23707530D01*
Y6166250D01*
X23865010D01*
G01X23802020Y6012800D02*
X23707530D01*
G01X24014620Y5848750D02*
Y6166250D01*
X24093350D01*
X24124850Y6150370D01*
X24148470Y6129210D01*
X24168160Y6097460D01*
X24183910Y6060410D01*
X24187840Y6007500D01*
X24183910Y5954580D01*
X24168160Y5917540D01*
X24148470Y5885780D01*
X24124850Y5864620D01*
X24093350Y5848750D01*
X24014620D01*
G01X22447690Y6483750D02*
Y6801250D01*
X22542180D01*
X22573670Y6785370D01*
X22597300Y6748330D01*
X22605170Y6706000D01*
X22597300Y6663670D01*
X22577610Y6631910D01*
X22542180Y6616030D01*
X22447690D01*
G01X22762650Y6801250D02*
Y6483750D01*
X22920130D01*
G01X23057920D02*
X23156350Y6801250D01*
X23254780Y6483750D01*
G01X23219340Y6594870D02*
X23093350D01*
G01X23471310Y6801250D02*
Y6483750D01*
G01X23380760Y6801250D02*
X23561860D01*
G01X23865010Y6483750D02*
X23707530D01*
Y6801250D01*
X23865010D01*
G01X23802020Y6647800D02*
X23707530D01*
G01X24014620Y6483750D02*
Y6801250D01*
X24093350D01*
X24124850Y6785370D01*
X24148470Y6764210D01*
X24168160Y6732460D01*
X24183910Y6695410D01*
X24187840Y6642500D01*
X24183910Y6589580D01*
X24168160Y6552540D01*
X24148470Y6520780D01*
X24124850Y6499620D01*
X24093350Y6483750D01*
X24014620D01*
G01X22447690Y7118750D02*
Y7436250D01*
X22542180D01*
X22573670Y7420370D01*
X22597300Y7383330D01*
X22605170Y7341000D01*
X22597300Y7298670D01*
X22577610Y7266910D01*
X22542180Y7251030D01*
X22447690D01*
G01X22762650Y7436250D02*
Y7118750D01*
X22920130D01*
G01X23057920D02*
X23156350Y7436250D01*
X23254780Y7118750D01*
G01X23219340Y7229870D02*
X23093350D01*
G01X23471310Y7436250D02*
Y7118750D01*
G01X23380760Y7436250D02*
X23561860D01*
G01X23865010Y7118750D02*
X23707530D01*
Y7436250D01*
X23865010D01*
G01X23802020Y7282800D02*
X23707530D01*
G01X24014620Y7118750D02*
Y7436250D01*
X24093350D01*
X24124850Y7420370D01*
X24148470Y7399210D01*
X24168160Y7367460D01*
X24183910Y7330410D01*
X24187840Y7277500D01*
X24183910Y7224580D01*
X24168160Y7187540D01*
X24148470Y7155780D01*
X24124850Y7134620D01*
X24093350Y7118750D01*
X24014620D01*
G01X25522480Y-236670D02*
X25546110Y-204920D01*
X25573670Y-189040D01*
X25605170Y-183750D01*
X25644530Y-194330D01*
X25672100Y-220790D01*
X25679970Y-252540D01*
X25676030Y-284300D01*
X25660280Y-310750D01*
X25581540Y-363670D01*
X25546110Y-400710D01*
X25522480Y-453640D01*
X25514610Y-501250D01*
X25679970D01*
G01X25912250D02*
Y-183750D01*
X25865010Y-247250D01*
G01Y-501250D02*
X25959490D01*
G01X26152400Y-236670D02*
X26176030Y-204920D01*
X26203590Y-189040D01*
X26235090Y-183750D01*
X26274450Y-194330D01*
X26302020Y-220790D01*
X26309890Y-252540D01*
X26305950Y-284300D01*
X26290200Y-310750D01*
X26211460Y-363670D01*
X26176030Y-400710D01*
X26152400Y-453640D01*
X26144530Y-501250D01*
X26309890D01*
G01X25597290Y6483750D02*
Y6801250D01*
X25550050Y6737750D01*
G01Y6483750D02*
X25644530D01*
G01X25825640Y6531360D02*
X25849250Y6504910D01*
X25876810Y6489040D01*
X25912250Y6483750D01*
X25947690Y6494330D01*
X25975240Y6515490D01*
X25994930Y6552540D01*
X25998860Y6594870D01*
X25990990Y6637200D01*
X25971300Y6663670D01*
X25943740Y6684830D01*
X25916190Y6690120D01*
X25888630Y6684830D01*
X25853200Y6663670D01*
X25865010Y6801250D01*
X25971300D01*
G01X26152400Y6616030D02*
X26179970Y6653090D01*
X26203590Y6674250D01*
X26235090Y6684830D01*
X26262650Y6674250D01*
X26282330Y6653090D01*
X26298080Y6621330D01*
X26302020Y6584290D01*
X26298080Y6552540D01*
X26282330Y6520780D01*
X26258700Y6494330D01*
X26231150Y6483750D01*
X26199650Y6494330D01*
X26172090Y6526070D01*
X26156340Y6573710D01*
X26152400Y6626620D01*
X26160280Y6695410D01*
X26172090Y6732460D01*
X26191770Y6769500D01*
X26219330Y6795960D01*
X26246890Y6801250D01*
X26274450Y6790670D01*
X26294140Y6764210D01*
G01X25597290Y7118750D02*
X25565790Y7124040D01*
X25538240Y7145200D01*
X25514610Y7176960D01*
X25498860Y7214000D01*
X25490990Y7256330D01*
Y7298670D01*
X25498860Y7341000D01*
X25514610Y7378040D01*
X25538240Y7409790D01*
X25565790Y7430960D01*
X25597290Y7436250D01*
X25628780Y7430960D01*
X25656340Y7409790D01*
X25679970Y7378040D01*
X25695720Y7341000D01*
X25703590Y7298670D01*
Y7256330D01*
X25695720Y7214000D01*
X25679970Y7176960D01*
X25656340Y7145200D01*
X25628780Y7124040D01*
X25597290Y7118750D01*
G01X25628780Y7203420D02*
X25676030Y7118750D01*
G01X25912250Y7436250D02*
Y7118750D01*
G01X25821700Y7436250D02*
X26002800D01*
G01X26227210Y7118750D02*
Y7261620D01*
X26148470Y7436250D01*
G01X26305950D02*
X26227210Y7261620D01*
G01X25837440Y398330D02*
X25861070Y430080D01*
X25888630Y445960D01*
X25920130Y451250D01*
X25959490Y440670D01*
X25987060Y414210D01*
X25994930Y382460D01*
X25990990Y350700D01*
X25975240Y324250D01*
X25896500Y271330D01*
X25861070Y234290D01*
X25837440Y181360D01*
X25829570Y133750D01*
X25994930D01*
G01X25837440Y1033330D02*
X25861070Y1065080D01*
X25888630Y1080960D01*
X25920130Y1086250D01*
X25959490Y1075670D01*
X25987060Y1049210D01*
X25994930Y1017460D01*
X25990990Y985700D01*
X25975240Y959250D01*
X25896500Y906330D01*
X25861070Y869290D01*
X25837440Y816360D01*
X25829570Y768750D01*
X25994930D01*
G01X25959490Y1403750D02*
Y1721250D01*
X25813820Y1493710D01*
X26010680D01*
G01X25837440Y2303330D02*
X25861070Y2335080D01*
X25888630Y2350960D01*
X25920130Y2356250D01*
X25959490Y2345670D01*
X25987060Y2319210D01*
X25994930Y2287460D01*
X25990990Y2255700D01*
X25975240Y2229250D01*
X25896500Y2176330D01*
X25861070Y2139290D01*
X25837440Y2086360D01*
X25829570Y2038750D01*
X25994930D01*
G01X25754770Y2673750D02*
Y2991250D01*
X25707530Y2927750D01*
G01Y2673750D02*
X25802010D01*
G01X26069730Y2991250D02*
X26038230Y2980670D01*
X26014610Y2954210D01*
X25998860Y2922460D01*
X25987050Y2880120D01*
X25983120Y2832500D01*
X25987050Y2784870D01*
X25998860Y2742540D01*
X26014610Y2710780D01*
X26038230Y2684330D01*
X26069730Y2673750D01*
X26101220Y2684330D01*
X26124850Y2710780D01*
X26140600Y2742540D01*
X26152410Y2784870D01*
X26156340Y2832500D01*
X26152410Y2880120D01*
X26140600Y2922460D01*
X26124850Y2954210D01*
X26101220Y2980670D01*
X26069730Y2991250D01*
G01X25959490Y3308750D02*
Y3626250D01*
X25813820Y3398710D01*
X26010680D01*
G01X25825640Y4007250D02*
X25849250Y3970200D01*
X25880750Y3949040D01*
X25916190Y3943750D01*
X25947690Y3949040D01*
X25979180Y3975490D01*
X25998860Y4007250D01*
X26002800Y4039000D01*
X25994930Y4076030D01*
X25967370Y4102500D01*
X25939810Y4113090D01*
X25904370D01*
G01X25939810D02*
X25963430Y4128960D01*
X25983120Y4155410D01*
X25990990Y4187160D01*
X25983120Y4218920D01*
X25963430Y4245370D01*
X25928000Y4261250D01*
X25892570Y4255960D01*
X25857130Y4234790D01*
G01X25912250Y4578750D02*
Y4896250D01*
X25865010Y4832750D01*
G01Y4578750D02*
X25959490D01*
G01X25754770Y5213750D02*
Y5531250D01*
X25707530Y5467750D01*
G01Y5213750D02*
X25802010D01*
G01X26069730Y5531250D02*
X26038230Y5520670D01*
X26014610Y5494210D01*
X25998860Y5462460D01*
X25987050Y5420120D01*
X25983120Y5372500D01*
X25987050Y5324870D01*
X25998860Y5282540D01*
X26014610Y5250780D01*
X26038230Y5224330D01*
X26069730Y5213750D01*
X26101220Y5224330D01*
X26124850Y5250780D01*
X26140600Y5282540D01*
X26152410Y5324870D01*
X26156340Y5372500D01*
X26152410Y5420120D01*
X26140600Y5462460D01*
X26124850Y5494210D01*
X26101220Y5520670D01*
X26069730Y5531250D01*
G01X25754770Y5848750D02*
Y6166250D01*
X25707530Y6102750D01*
G01Y5848750D02*
X25802010D01*
G01X26069730D02*
X26097290Y5854040D01*
X26128780Y5869910D01*
X26148470Y5896360D01*
X26156340Y5933420D01*
X26148470Y5970450D01*
X26124850Y6002200D01*
X26089410Y6018090D01*
X26050050D01*
X26026420Y6028670D01*
X26006730Y6055120D01*
X25998860Y6092160D01*
X26010680Y6129210D01*
X26038230Y6155670D01*
X26069730Y6166250D01*
X26101220Y6155670D01*
X26128780Y6129210D01*
X26140600Y6092160D01*
X26132720Y6055120D01*
X26113040Y6028670D01*
X26089410Y6018090D01*
X26050050D01*
X26014610Y6002200D01*
X25990990Y5970450D01*
X25983120Y5933420D01*
X25990990Y5896360D01*
X26010680Y5869910D01*
X26042170Y5854040D01*
X26069730Y5848750D01*
G01X-250000Y0D02*
X-1140000D01*
G01X-890000Y2424260D02*
Y0D01*
G01X-952500Y400000D02*
X-890000Y0D01*
X-827500Y400000D01*
X-952500D01*
G01X-890000Y2915740D02*
Y5400000D01*
G01X-827500Y5000000D02*
X-890000Y5400000D01*
X-952500Y5000000D01*
X-827500D01*
G01X510000Y5400000D02*
X-1140000D01*
G01X0Y-250000D02*
Y-920000D01*
G01X3323140Y-670000D02*
X0D01*
G01X400000Y-607500D02*
X0Y-670000D01*
X400000Y-732500D01*
Y-607500D01*
G01X3956860Y-670000D02*
X8500000D01*
G01Y50000D02*
Y-920000D01*
G01X8100000Y-732500D02*
X8500000Y-670000D01*
X8100000Y-607500D01*
Y-732500D01*
G01X9180000Y-25000D02*
Y8880000D01*
X26896500D01*
Y-25000D01*
X9180000D01*
G01Y610000D02*
X26896500D01*
G01X9180000Y1245000D02*
X26896500D01*
G01X9180000Y1880000D02*
X26896500D01*
G01X9180000Y2515000D02*
X26896500D01*
G01X9180000Y3150000D02*
X26896500D01*
G01X9180000Y3785000D02*
X26896500D01*
G01X9180000Y4420000D02*
X26896500D01*
G01X9180000Y5055000D02*
X26896500D01*
G01X9180000Y5690000D02*
X26896500D01*
G01X9180000Y6325000D02*
X26896500D01*
G01X9180000Y6960000D02*
X26896500D01*
G01X9180000Y7595000D02*
X26896500D01*
G01X9180000Y8230000D02*
X26896500D01*
G01X11463460Y7595000D02*
Y-25000D01*
G01X16581560Y7595000D02*
Y-25000D01*
G01X21699660Y7595000D02*
Y-25000D01*
G01X24928000Y7595000D02*
Y-25000D01*
G54D12*
X1990000Y2570000D03*
X2110000D03*
X2230000D03*
X2110000Y2690000D03*
X1990000Y2810000D03*
X2110000D03*
X2230000D03*
X1990000Y2690000D03*
X2230000D03*
X5160000Y2540000D03*
X5400000D03*
X5280000D03*
X5160000Y2660000D03*
Y2780000D03*
X5400000Y2660000D03*
Y2780000D03*
X5280000D03*
Y2660000D03*
X10321730Y6007500D03*
G54D13*
X3460000Y1990000D03*
Y2244000D03*
Y2498000D03*
Y2752000D03*
Y3006000D03*
Y4088000D03*
Y4342000D03*
Y4596000D03*
X6096000Y3480000D03*
X6746000D03*
X10321730Y2832500D03*
G54D14*
X3460000Y3260000D03*
Y4850000D03*
X6350000Y3480000D03*
X7000000D03*
X10321730Y3467500D03*
G54D15*
X3855000Y120000D03*
X4605000D03*
X8140000Y4285000D03*
X10321730Y4102500D03*
G54D16*
X4780000Y4640000D03*
X7320000D03*
X10321730Y2197500D03*
G54D17*
X8076500Y1246000D03*
Y1373000D03*
Y1500000D03*
Y1754000D03*
Y1627000D03*
X8203500Y1246000D03*
Y1373000D03*
Y1500000D03*
Y1627000D03*
Y1754000D03*
X10321730Y5372500D03*
G54D18*
X7874000Y2338000D03*
Y3202000D03*
X10321730Y292500D03*
G54D19*
X8292000Y2338000D03*
Y3202000D03*
X10321730Y927500D03*
M02*
