M48
METRIC,TZ
T01C.3048
T02C.8
T03C.9
T04C1.
T05C1.1
T06C1.3
T07C1.5
T08C1.8
T09C2.
T10C3.1
;LEADER: 12 
;HEADER: 
;CODE  : ASCII 
;FILE  : TPA311X_TEST_V10B-1-2.drl for board H:/github/MBEDBoard/TPA311X_TEST_V10B/PCB/#Taaaaxh14172.tmp ... layers TOP and BOTTOM
;T01 Holesize 1. = 0.304800 Tolerance = +0.000000/-0.000000 PLATED MM Quantity = 337
;T02 Holesize 2. = 0.800000 Tolerance = +0.000000/-0.000000 PLATED MM Quantity = 2
;T03 Holesize 3. = 0.900000 Tolerance = +0.000000/-0.000000 PLATED MM Quantity = 11
;T04 Holesize 4. = 1.000000 Tolerance = +0.000000/-0.000000 PLATED MM Quantity = 9
;T05 Holesize 5. = 1.100000 Tolerance = +0.000000/-0.000000 PLATED MM Quantity = 6
;T06 Holesize 6. = 1.300000 Tolerance = +0.000000/-0.000000 PLATED MM Quantity = 5
;T07 Holesize 7. = 1.500000 Tolerance = +0.000000/-0.000000 PLATED MM Quantity = 8
;T08 Holesize 8. = 1.800000 Tolerance = +0.000000/-0.000000 PLATED MM Quantity = 2
;T09 Holesize 9. = 2.000000 Tolerance = +0.000000/-0.000000 PLATED MM Quantity = 12
;T10 Holesize 10. = 3.100000 Tolerance = +0.000000/-0.000000 PLATED MM Quantity = 10
%
G90
T01
X351490Y1802060
X351490Y2302060
X351490Y2802060
X351490Y3302060
X351490Y3802060
X351490Y4302060
X205490Y5828210
X205490Y6328210
X735490Y6868210
X740000Y7170000
X735490Y7368210
X1330000Y8600000
X1150000Y8600000
X960000Y8600000
X1330000Y8420000
X1150000Y8420000
X960000Y8420000
X1420000Y8230000
X1420000Y8040000
X1240000Y8040000
X1050000Y8040000
X1420000Y7860000
X1240000Y7860000
X1050000Y7860000
X850960Y7599040
X1003360Y7596640
X1155490Y7298210
X1155490Y6798210
X1150000Y6320000
X1150000Y5800000
X1360000Y4690000
X1250000Y4690000
X851490Y4302060
X851490Y3802060
X1480000Y3600000
X1310000Y3600000
X1170000Y3600000
X1480000Y3510000
X1310000Y3510000
X1170000Y3510000
X851490Y3302060
X851490Y2802060
X851490Y2302060
X851490Y1802060
X2146460Y1280740
X2146460Y1780740
X2146460Y2280740
X2090000Y2900000
X1936810Y2905550
X1770000Y2910000
X1940000Y3160000
X1940000Y3280000
X1936810Y3405550
X1640000Y3510000
X1640000Y3600000
X1810000Y4120000
X2100000Y4120000
X2102420Y4428710
X1832420Y4968710
X1731790Y6055490
X2231790Y6055490
X1731790Y6555490
X2231790Y6555490
X1752420Y7278710
X2252420Y7278710
X1540000Y7560000
X1730000Y7560000
X1910000Y7560000
X2090000Y7560000
X1610000Y7860000
X1900000Y7920000
X1610000Y8040000
X1610000Y8230000
X2223480Y8259220
X1710000Y8420000
X1900000Y8420000
X2080000Y8420000
X1710000Y8600000
X1900000Y8600000
X2080000Y8600000
X2723480Y8259220
X2753600Y7533600
X2343130Y7477670
X2343130Y7361700
X2801120Y6025340
X2420000Y5530000
X2330000Y5530000
X2801120Y5525340
X2420000Y5440000
X2330000Y5440000
X2332420Y4968710
X2602420Y4428710
X2910000Y3400000
X2910000Y3260000
X2910000Y3120000
X2567250Y3102890
X2730000Y3100000
X2567250Y3002890
X2730000Y3000000
X2910000Y2970000
X2567250Y2902890
X2730000Y2900000
X2910000Y2830000
X2646460Y2280740
X2646460Y1780740
X2646460Y1280740
X3319430Y1298520
X3319430Y1798520
X3689430Y2288520
X3319430Y2298520
X3689430Y2788520
X3319430Y2798520
X3689430Y3288520
X3319430Y3298520
X3689430Y3788520
X3319430Y3798520
X3689430Y4288520
X3319430Y4298520
X3689430Y4788520
X3319430Y4798520
X3689430Y5288520
X3319430Y5298520
X3689430Y5788520
X3319430Y5798520
X3689430Y6288520
X3319430Y6298520
X3689430Y6788520
X3690000Y7240000
X3212790Y7246210
X3680000Y7830000
X3223480Y8259220
X3723480Y8259220
X4223480Y8259220
X4403510Y5980870
X4403510Y5480870
X4267250Y3214350
X4267250Y2714350
X4512540Y1695440
X4012540Y1695440
X4423680Y1014180
X3923680Y1014180
X4923680Y1014180
X5012540Y1695440
X5100000Y2100000
X5100000Y2290000
X5125440Y2727460
X5125440Y3227460
X5237250Y3592890
X5237250Y3692890
X4903510Y5480870
X4903510Y5980870
X4723480Y8259220
X5223480Y8259220
X5723480Y8259220
X5903510Y5980870
X5403510Y5980870
X5903510Y5480870
X5403510Y5480870
X5660000Y3690000
X5400000Y3690000
X5660000Y3590000
X5400000Y3590000
X5980000Y3420000
X5820000Y3420000
X5980000Y3320000
X5820000Y3320000
X5495440Y3227460
X6050000Y2740000
X5960000Y2740000
X5495440Y2727460
X5580000Y2290000
X5830000Y2180000
X5830000Y2000000
X5710000Y2000000
X5512540Y1695440
X6020000Y1590000
X5880000Y1590000
X5923680Y1014180
X5423680Y1014180
X6423680Y1014180
X6352540Y1655440
X6852540Y1655440
X6615440Y1667460
X6615440Y2167460
X6130000Y3320000
X6280000Y3320000
X6420000Y3320000
X6550000Y3320000
X6130000Y3420000
X6280000Y3420000
X6420000Y3420000
X6550000Y3420000
X6740000Y3590000
X6740000Y3690000
X6403510Y5480870
X6403510Y5980870
X6223480Y8259220
X6723480Y8259220
X7223480Y8259220
X7403510Y5980870
X6903510Y5980870
X7403510Y5480870
X6903510Y5480870
X7490000Y3800000
X7220000Y3690000
X7050000Y3690000
X7490000Y3640000
X7220000Y3590000
X7050000Y3590000
X7487110Y3477250
X7404450Y3186810
X6904450Y3186810
X7294450Y2556810
X7294450Y2056810
X7423680Y1014180
X6923680Y1014180
X7794450Y2056810
X7794450Y2556810
X7687110Y3477250
X7887110Y3477250
X7950000Y3640000
X7690000Y3800000
X7890000Y3800000
X7903510Y5480870
X7903510Y5980870
X7723480Y8259220
X8223480Y8259220
X8935350Y7450080
X8935350Y6950080
X8935350Y6450080
X8935350Y5950080
X8935350Y5450080
X8935350Y4950080
X8935350Y4450080
X9101230Y3004700
X9101230Y2504700
X9101230Y2004700
X9101230Y1504700
X9101230Y1004700
X9101230Y504700
X9601230Y504700
X9601230Y1004700
X9601230Y1504700
X9601230Y2004700
X9601230Y2504700
X9601230Y3004700
X9435350Y4450080
X9435350Y4950080
X9435350Y5450080
X9435350Y5950080
X9435350Y6450080
X9435350Y6950080
X9435350Y7450080
X10435350Y7450080
X9935350Y7450080
X10435350Y6950080
X9935350Y6950080
X10435350Y6450080
X9935350Y6450080
X10435350Y5950080
X9935350Y5950080
X10435350Y5450080
X9935350Y5450080
X10435350Y4950080
X9935350Y4950080
X10435350Y4450080
X9935350Y4450080
X10601230Y3004700
X10101230Y3004700
X10601230Y2504700
X10101230Y2504700
X10601230Y2004700
X10101230Y2004700
X10601230Y1504700
X10101230Y1504700
X10601230Y1004700
X10101230Y1004700
X10601230Y504700
X10101230Y504700
X11101230Y504700
X11101230Y1004700
X11101230Y1504700
X11101230Y2004700
X11101230Y2504700
X11101230Y3004700
X10935350Y4450080
X10935350Y4950080
X10935350Y5450080
X10935350Y5950080
X10935350Y6450080
X10935350Y6950080
X10935350Y7450080
X11435350Y7450080
X11435350Y6950080
X11435350Y6450080
X11435350Y5950080
X11435350Y5450080
X11435350Y4950080
X11435350Y4450080
X12101230Y3004700
X11601230Y3004700
X12101230Y2504700
X11601230Y2504700
X12101230Y2004700
X11601230Y2004700
X12101230Y1504700
X11601230Y1504700
X12101230Y1004700
X11601230Y1004700
X12101230Y504700
X11601230Y504700
X12601230Y3004700
X12601230Y2504700
X12601230Y2004700
X12601230Y1504700
X12601230Y1004700
X12601230Y504700
X13101230Y504700
X13601230Y504700
X13101230Y1004700
X13601230Y1004700
X13101230Y1504700
X13601230Y1504700
X13101230Y2004700
X13601230Y2004700
X13101230Y2504700
X13601230Y2504700
X13101230Y3004700
X13601230Y3004700
X14347000Y3342350
X14347000Y3842350
X14347000Y4342350
X14347000Y4842350
X14347000Y5342350
X14347000Y5842350
X14347000Y6342350
X14347000Y6842350
T02
X318000Y6835000
X318000Y7025000
T03
X1385000Y318000
X1835000Y318000
X2885000Y318000
X3335000Y318000
X4385000Y318000
X4835000Y318000
X5885000Y318000
X6335000Y318000
X7740000Y3150000
X7740000Y3650000
X13510000Y5880000
T04
X13260000Y5880000
X13010000Y5880000
X12760000Y5880000
X12510000Y5880000
X12260000Y5880000
X7420000Y7329360
X7170000Y7329360
X5180000Y7329360
X4930000Y7329360
T05
X551360Y4841200
X551360Y5095200
X551360Y5349200
X551360Y5603200
X551360Y5857200
X551360Y6111200
T06
X1263760Y8256000
X1516160Y8508400
X1263760Y8764000
X1771760Y8764000
X1771760Y8256000
T07
X1260000Y568000
X1960000Y568000
X2760000Y568000
X3460000Y568000
X4260000Y568000
X4960000Y568000
X5760000Y568000
X6460000Y568000
T08
X12006000Y8060000
X12514000Y8060000
T09
X4483800Y4720000
X5620000Y4720000
X6750000Y4720000
X7840000Y4720000
X7840000Y6720000
X6750000Y6720000
X5620000Y6720000
X4483800Y6720000
X4675000Y7839360
X5685000Y7839360
X6915000Y7839360
X7925000Y7839360
T10
X318000Y318000
X318000Y952000
X7500000Y318000
X14682000Y318000
X14682000Y952000
X14682000Y8682000
X14682000Y8048000
X9150000Y8682000
X318000Y8682000
X318000Y8048000
M30
