G04 ================== begin FILE IDENTIFICATION RECORD ==================*
G04 Layout Name:  E:/GitHub/MBEDBoard/EZFET_V10A/PCB/EZFET_V10A.brd*
G04 Film Name:    BOTTOM*
G04 File Format:  Gerber RS274X*
G04 File Origin:  Cadence Allegro 16.6-2015-S071*
G04 Origin Date:  Tue Nov 01 11:21:20 2016*
G04 *
G04 Layer:  BOARD GEOMETRY/OUTLINE*
G04 Layer:  ETCH/BOTTOM*
G04 Layer:  PIN/BOTTOM*
G04 Layer:  VIA CLASS/BOTTOM*
G04 *
G04 Offset:    (0.0000 0.0000)*
G04 Mirror:    No*
G04 Mode:      Positive*
G04 Rotation:  0*
G04 FullContactRelief:  No*
G04 UndefLineWidth:     0.1524*
G04 ================== end FILE IDENTIFICATION RECORD ====================*
%FSLAX55Y55*MOMM*%
%IR0*IPPOS*OFA0.00000B0.00000*MIA0B0*SFA1.00000B1.00000*%
%ADD17C,.762*%
%ADD11C,.6096*%
%ADD14C,3.3*%
%ADD15C,1.6*%
%ADD13C,1.27*%
%ADD16R,1.6X1.6*%
%ADD10C,6.35*%
%ADD12C,1.778*%
%ADD18C,.254*%
%ADD19C,.7112*%
%ADD20C,.1524*%
%ADD21C,.508*%
%ADD23C,2.0324*%
%ADD25C,3.3024*%
%ADD24C,1.9308*%
%ADD22C,3.9608*%
G75*
%LPD*%
G75*
G36*
G01X10000Y7451530D02*
G02X46740Y7463500I20320J1D01*
G03X536500Y7953260I283260J206500D01*
G02X548470Y7990000I11969J16420D01*
G01X3951530D01*
G02X3963500Y7953260I1J-20320D01*
G03X4453260Y7463500I206500J-283260D01*
G02X4490000Y7451530I16420J-11969D01*
G01Y548470D01*
G02X4453260Y536500I-20320J-1D01*
G03X3963500Y46740I-283260J-206500D01*
G02X3951530Y10000I-11969J-16420D01*
G01X548470D01*
G02X536500Y46740I-1J20320D01*
G03X46740Y536500I-206500J283260D01*
G02X10000Y548470I-16420J11969D01*
G01Y7451530D01*
G37*
%LPC*%
G75*
G36*
G01X2648440Y1834960D02*
X2649140Y1833180D01*
G02X2530860I-59140J-23180D01*
G01X2531560Y1834960D01*
Y2367820D01*
G03X2496870Y2382190I-20321J0D01*
G01X2415150Y2300460D01*
X1547880D01*
G02Y2391940I-44080J45740D01*
G01X2377250D01*
X2404740Y2419430D01*
X2392380Y2435350D01*
G02X2315920Y2444260I-32381J54649D01*
G01X1168950D01*
X945950Y2221260D01*
X888150D01*
G03X869650Y2192540I-1J-20318D01*
G02X818400Y2030510I-115648J-52541D01*
G03Y1995490I10299J-17510D01*
G02X644510Y1821600I-64400J-109490D01*
G03X609490I-17510J-10299D01*
G02X435600Y1995490I-109490J64400D01*
G03Y2030510I-10299J17510D01*
G02X440050Y2251980I64399J109486D01*
G03X440390Y2287620I-9592J17913D01*
G02Y2500380I59610J106380D01*
G03X440050Y2536020I-9932J17727D01*
G02X435600Y2757490I59949J111984D01*
G03Y2792510I-10299J17510D01*
G02Y3011490I64400J109490D01*
G03Y3046510I-10299J17510D01*
G02Y3265490I64400J109490D01*
G03Y3300510I-10299J17510D01*
G02X609490Y3474400I64400J109490D01*
G03X644510I17510J10299D01*
G02X854660Y3332530I109480J-64410D01*
G01X849220Y3325460D01*
X1268950Y2905740D01*
X1775920D01*
G02X1882620Y2849360I44078J-45738D01*
G02X1922620Y2779360I-22622J-59356D01*
G02X1962700Y2730160I-22624J-59355D01*
G01X1963230Y2726920D01*
X1972730Y2717420D01*
X1994260Y2738950D01*
Y2905920D01*
G02X2085740I45740J44080D01*
G01Y2701050D01*
X2025110Y2640430D01*
G03X2039480Y2605740I14370J-14369D01*
G01X2245920D01*
G02X2353440Y2563100I44076J-45739D01*
G03X2363100Y2553440I10152J492D01*
G02X2414650Y2457620I-3099J-63444D01*
G01X2430570Y2445260D01*
X2454260Y2468950D01*
Y3138950D01*
X2651380Y3336060D01*
X2651660Y3339820D01*
G02X2761660Y3291890I63340J-4825D01*
G03Y3278110I7458J-6890D01*
G02X2740430Y3176790I-46657J-43108D01*
G01X2738670Y3176020D01*
X2648440Y3085790D01*
Y1834960D01*
G37*
G36*
G01X1659490Y6881600D02*
G02X1485600Y7055490I-109490J64400D01*
G03Y7090510I-10299J17510D01*
G02X1659490Y7264400I64400J109490D01*
G03X1694510I17510J10299D01*
G02X1913490I109490J-64400D01*
G03X1948510I17510J10299D01*
G02X2167490I109490J-64400D01*
G03X2202510I17510J10299D01*
G02X2421490I109490J-64400D01*
G03X2456510I17510J10299D01*
G02X2675490I109490J-64400D01*
G03X2710510I17510J10299D01*
G02X2731580Y7291190I109474J-64419D01*
G01X2731630Y7291250D01*
X2774260Y7333890D01*
Y7435920D01*
G02X2865740I45740J44080D01*
G01Y7333890D01*
X2908370Y7291250D01*
X2908420Y7291190D01*
G02X2929490Y7264400I-88404J-91209D01*
G03X2964510I17510J10299D01*
G02X3165190Y7288420I109486J-64399D01*
G01X3165250Y7288370D01*
X3207890Y7245740D01*
X3505920D01*
G02Y7154260I44080J-45740D01*
G01X3207890D01*
X3165250Y7111630D01*
X3165190Y7111580D01*
G02X3138400Y7090510I-91210J88405D01*
G03Y7055490I10299J-17510D01*
G02X2964510Y6881600I-64400J-109490D01*
G03X2929490I-17510J-10299D01*
G02X2708020Y6886050I-109486J64399D01*
G03X2672380Y6886390I-17913J-9592D01*
G02X2459620I-106380J59610D01*
G03X2423980Y6886050I-17727J-9932D01*
G02X2202510Y6881600I-111984J59949D01*
G03X2167490I-17510J-10299D01*
G02X1948510I-109490J64400D01*
G03X1913490I-17510J-10299D01*
G02X1694510I-109490J64400D01*
G03X1659490I-17510J-10299D01*
G37*
G36*
G01X2271390Y1025810D02*
G03X2234010Y1025510I-18626J-8124D01*
G02X2043320Y1156320I-109010J45485D01*
G03Y1185680I-14057J14680D01*
G02X2220190Y1340940I81678J85327D01*
G03X2256880Y1352970I16371J12036D01*
G01Y1389120D01*
X2493120D01*
Y1152880D01*
G03X2475280Y1123180I183J-20318D01*
G02X2271390Y1025810I-100276J-52180D01*
G37*
G36*
G01X3438440Y3604210D02*
Y2404960D01*
X3439140Y2403180D01*
G02X3320860I-59140J-23180D01*
G01X3321560Y2404960D01*
Y3555790D01*
X3295790Y3581560D01*
X3109960D01*
X3108180Y3580860D01*
G02Y3699140I-23180J59140D01*
G01X3109960Y3698440D01*
X3344210D01*
X3438440Y3604210D01*
G37*
G36*
G01X3641050Y4554260D02*
X2599050Y5596260D01*
X947960D01*
X923100Y5571410D01*
X923040Y5571350D01*
G02Y5712650I-73040J70650D01*
G01X923100Y5712590D01*
X947960Y5687740D01*
X2568520D01*
G03X2582890Y5722430I0J20321D01*
G01X2105050Y6200260D01*
X947960D01*
X923100Y6175410D01*
X923040Y6175350D01*
G02Y6316650I-73040J70650D01*
G01X923100Y6316590D01*
X947960Y6291740D01*
X2142950D01*
X3701060Y4733620D01*
X3704820Y4733340D01*
G02X3763450Y4667010I-4821J-63338D01*
G03X3783750Y4645740I20297J-950D01*
G01X3805920D01*
G02Y4554260I44080J-45740D01*
G01X3641050D01*
G37*
G54D23*
X1580000Y3558000D03*
Y3070000D03*
G54D25*
X3940000Y7130000D03*
X670000Y850000D03*
G54D24*
X850000Y6500000D03*
Y5896000D03*
G54D22*
X2852000Y800000D03*
X1648000D03*
%LPD*%
G75*
G36*
G01X576200Y2228900D02*
X500000D01*
X497750Y2137750D01*
X588900Y2140000D01*
Y2216200D01*
G03X576200Y2228900I-12700J0D01*
G37*
G36*
G01X588900Y2571800D02*
Y2648000D01*
X497750Y2650250D01*
X500000Y2559100D01*
X576200D01*
G03X588900Y2571800I0J12700D01*
G37*
G36*
G01Y2825800D02*
Y2902000D01*
X497750Y2904250D01*
X500000Y2813100D01*
X576200D01*
G03X588900Y2825800I0J12700D01*
G37*
G36*
G01Y3079800D02*
Y3156000D01*
X497750Y3158250D01*
X500000Y3067100D01*
X576200D01*
G03X588900Y3079800I0J12700D01*
G37*
G36*
G01Y3333800D02*
Y3410000D01*
X497750Y3412250D01*
X500000Y3321100D01*
X576200D01*
G03X588900Y3333800I0J12700D01*
G37*
G36*
G01X870740Y2656980D02*
X816850Y2710850D01*
X750820Y2648000D01*
X816850Y2585150D01*
X870740Y2639020D01*
G03Y2656980I-8980J8980D01*
G37*
G36*
G01X930820Y5650980D02*
X894890Y5686890D01*
X846820Y5642000D01*
X894890Y5597110D01*
X930820Y5633020D01*
G03Y5650980I-8980J8980D01*
G37*
G36*
G01Y6254980D02*
X894890Y6290890D01*
X846820Y6246000D01*
X894890Y6201110D01*
X930820Y6237020D01*
G03Y6254980I-8980J8980D01*
G37*
G36*
G01X1537920Y2355180D02*
X1525340Y2367740D01*
X1500620Y2346200D01*
X1525340Y2324660D01*
X1537920Y2337220D01*
G03Y2355180I-8980J8980D01*
G37*
G36*
G01X1865880Y2711020D02*
X1878460Y2698460D01*
X1903180Y2720000D01*
X1878460Y2741540D01*
X1865880Y2728980D01*
G03Y2711020I8980J-8980D01*
G37*
G36*
G01X1785880Y2851020D02*
X1798460Y2838460D01*
X1823180Y2860000D01*
X1798460Y2881540D01*
X1785880Y2868980D01*
G03Y2851020I8980J-8980D01*
G37*
G36*
G01X1825880Y2781020D02*
X1838460Y2768460D01*
X1863180Y2790000D01*
X1838460Y2811540D01*
X1825880Y2798980D01*
G03Y2781020I8980J-8980D01*
G37*
G36*
G01X2048980Y2915880D02*
X2061540Y2928460D01*
X2040000Y2953180D01*
X2018460Y2928460D01*
X2031020Y2915880D01*
G03X2048980I8980J8980D01*
G37*
G36*
G01X2255880Y2551020D02*
X2268460Y2538460D01*
X2293180Y2560000D01*
X2268460Y2581540D01*
X2255880Y2568980D01*
G03Y2551020I8980J-8980D01*
G37*
G36*
G01X2325880Y2481020D02*
X2338460Y2468460D01*
X2363180Y2490000D01*
X2338460Y2511540D01*
X2325880Y2498980D01*
G03Y2481020I8980J-8980D01*
G37*
G36*
G01X2697220Y3304520D02*
X2715000D01*
X2717250Y3337250D01*
X2684520Y3335000D01*
Y3317220D01*
G03X2697220Y3304520I12700J0D01*
G37*
G36*
G01X2811020Y7316740D02*
X2757150Y7262850D01*
X2820000Y7196820D01*
X2882850Y7262850D01*
X2828980Y7316740D01*
G03X2811020I-8980J-8980D01*
G37*
G36*
G01X2828980Y7445880D02*
X2841540Y7458460D01*
X2820000Y7483180D01*
X2798460Y7458460D01*
X2811020Y7445880D01*
G03X2828980I8980J8980D01*
G37*
G36*
G01X3190740Y7208980D02*
X3136850Y7262850D01*
X3070820Y7200000D01*
X3136850Y7137150D01*
X3190740Y7191020D01*
G03Y7208980I-8980J8980D01*
G37*
G36*
G01X3515880Y7191020D02*
X3528460Y7178460D01*
X3553180Y7200000D01*
X3528460Y7221540D01*
X3515880Y7208980D01*
G03Y7191020I8980J-8980D01*
G37*
G36*
G01X3669520Y4687780D02*
Y4670000D01*
X3702250Y4667750D01*
X3700000Y4700480D01*
X3682220D01*
G03X3669520Y4687780I0J-12700D01*
G37*
G36*
G01X3815880Y4591020D02*
X3828460Y4578460D01*
X3853180Y4600000D01*
X3828460Y4621540D01*
X3815880Y4608980D01*
G03Y4591020I8980J-8980D01*
G37*
G54D10*
X330000Y330000D03*
Y7670000D03*
X4170000Y330000D03*
Y7670000D03*
G54D20*
G01X330000Y0D02*
X4170000D01*
G03X4500000Y330000I0J330000D01*
G01Y7670000D01*
G03X4170000Y8000000I-330000J0D01*
G01X330000D01*
G03X0Y7670000I0J-330000D01*
G01Y330000D01*
G03X330000Y0I330000J0D01*
G54D11*
X146880Y1662330D03*
Y1962330D03*
Y2262330D03*
Y2562330D03*
Y2862330D03*
Y3162330D03*
Y3462330D03*
Y3762330D03*
Y4062330D03*
X135390Y5458610D03*
Y5758610D03*
Y6058610D03*
Y6358610D03*
Y6658610D03*
Y6958610D03*
X370690Y1140070D03*
Y1440070D03*
X387900Y4787150D03*
Y5087150D03*
X435390Y5458610D03*
Y5758610D03*
Y6058610D03*
Y6358610D03*
Y6658610D03*
Y6958610D03*
X670690Y1140070D03*
Y1440070D03*
X687900Y4787150D03*
Y5087150D03*
X1024930Y204630D03*
Y504630D03*
X970690Y1140070D03*
Y1440070D03*
X1020000Y1730000D03*
Y2120000D03*
X1140000Y1730000D03*
Y2120000D03*
X1130000Y4180000D03*
X1250000D03*
X1240130Y7682460D03*
X1535690Y198890D03*
X1503800Y2346200D03*
X1450000Y3020000D03*
X1520000Y2940000D03*
X1450000Y3140000D03*
Y3300000D03*
Y3420000D03*
Y3540000D03*
X1520000Y3760000D03*
X1450000Y3660000D03*
X1480000Y4070000D03*
X1540130Y7682460D03*
X1580000Y1360000D03*
Y1480000D03*
Y1600000D03*
Y1720000D03*
X1640000Y2940000D03*
X1710000Y3310000D03*
X1590000D03*
X1640000Y3760000D03*
X1600000Y4070000D03*
X1835690Y198890D03*
X1900000Y2720000D03*
X1820000Y2860000D03*
X1860000Y2790000D03*
X1830000Y3760000D03*
X1870000Y4080000D03*
X1753770Y4781410D03*
Y5081410D03*
Y5381410D03*
X1840130Y7682460D03*
X2000000Y1750000D03*
X2040000Y2950000D03*
X1950000Y3760000D03*
X1990000Y4080000D03*
X2053770Y4781410D03*
Y5081410D03*
Y5381410D03*
X2135690Y198890D03*
X2200000Y1460000D03*
X2080000D03*
X2120000Y1750000D03*
Y3760000D03*
X2140130Y7682460D03*
X2240000Y2130000D03*
X2290000Y2560000D03*
X2360000Y2490000D03*
X2240000Y3760000D03*
X2390000Y4080000D03*
X2270000D03*
X2353770Y4781410D03*
Y5081410D03*
Y5381410D03*
X2435690Y198890D03*
X2560000Y1000000D03*
Y1120000D03*
X2500000Y2120000D03*
X2560000Y3670000D03*
Y3840000D03*
Y3960000D03*
X2440130Y7682460D03*
X2735690Y198890D03*
X2720000Y1190000D03*
Y1310000D03*
X2590000Y1810000D03*
X2690000Y1930000D03*
Y2050000D03*
X2715000Y3235000D03*
Y3335000D03*
X2680000Y3670000D03*
X2710000Y6680000D03*
X2740130Y7682460D03*
X2840000Y2500000D03*
X2830000Y6680000D03*
X2820000Y7480000D03*
X3035690Y198890D03*
X3030000Y1500000D03*
Y1620000D03*
X2960000Y2500000D03*
X3085000Y3640000D03*
X3060000Y4080000D03*
Y4200000D03*
X3020000Y6680000D03*
X3040130Y7682460D03*
X3170000Y6680000D03*
X3360680Y307930D03*
Y607930D03*
Y907930D03*
Y1207930D03*
Y1507930D03*
X3380000Y2380000D03*
X3340000Y3940000D03*
Y4060000D03*
X3320000Y6680000D03*
X3340130Y7682460D03*
X3510000Y2530000D03*
X3470000Y6680000D03*
X3550000Y7200000D03*
X3630000Y3940000D03*
Y4060000D03*
X3700000Y4670000D03*
X3780000Y3940000D03*
Y4060000D03*
X3850000Y4600000D03*
X3917340Y4669520D03*
Y4969520D03*
Y5269520D03*
Y5569520D03*
Y5869520D03*
Y6169520D03*
Y6469520D03*
X3950000Y3940000D03*
Y4060000D03*
X4106730Y864600D03*
Y1164600D03*
Y1464600D03*
Y1764600D03*
Y2064600D03*
Y2364600D03*
Y2664600D03*
Y2964600D03*
Y3264600D03*
Y3564600D03*
X4217340Y4669520D03*
Y4969520D03*
Y5269520D03*
Y5569520D03*
Y5869520D03*
Y6169520D03*
Y6469520D03*
G54D21*
G01X2715000Y3235000D02*
X2590000Y3110000D01*
Y1810000D01*
G01X3380000Y2380000D02*
Y3580000D01*
X3320000Y3640000D01*
X3085000D01*
G54D12*
X500000Y1886000D03*
Y2140000D03*
Y2394000D03*
Y2648000D03*
Y2902000D03*
Y3156000D03*
Y3410000D03*
X754000Y1886000D03*
Y2140000D03*
Y2394000D03*
Y2648000D03*
Y2902000D03*
Y3156000D03*
Y3410000D03*
X1550000Y6946000D03*
Y7200000D03*
X1804000Y6946000D03*
Y7200000D03*
X2058000Y6946000D03*
Y7200000D03*
X2312000Y6946000D03*
Y7200000D03*
X2566000Y6946000D03*
Y7200000D03*
X2820000Y6946000D03*
Y7200000D03*
X3074000Y6946000D03*
Y7200000D03*
G54D13*
X850000Y5642000D03*
Y5896000D03*
Y6246000D03*
Y6500000D03*
X1580000Y3070000D03*
Y3558000D03*
G54D14*
X1648000Y800000D03*
X2852000D03*
G54D15*
X2125000Y1071000D03*
Y1271000D03*
X2375000Y1071000D03*
G54D16*
Y1271000D03*
G54D17*
X2930000Y2930000D03*
X3060000Y3060000D03*
X2930000Y3190000D03*
X3190000Y2930000D03*
Y3190000D03*
G54D18*
G01X500000Y2140000D02*
X627000Y2267000D01*
X927000D01*
X1150000Y2490000D01*
X2360000D01*
G01X2290000Y2560000D02*
X930000D01*
X891000Y2521000D01*
X627000D01*
X500000Y2648000D01*
G01X1900000Y2720000D02*
X920000D01*
X865000Y2775000D01*
X627000D01*
X500000Y2902000D01*
G01X1860000Y2790000D02*
X1080000D01*
X841000Y3029000D01*
X627000D01*
X500000Y3156000D01*
G01Y3410000D02*
X627000Y3283000D01*
X827000D01*
X1250000Y2860000D01*
X1820000D01*
G01X754000Y2648000D02*
X1968000D01*
X2040000Y2720000D01*
Y2950000D01*
G01X3850000Y4600000D02*
X3660000D01*
X2618000Y5642000D01*
X850000D01*
G01Y6246000D02*
X2124000D01*
X3700000Y4670000D01*
G01X1503800Y2346200D02*
X2396200D01*
X2500000Y2450000D01*
Y3120000D01*
X2715000Y3335000D01*
G01X2820000Y7480000D02*
Y7200000D01*
G01X3550000D02*
X3074000D01*
G54D19*
G01X330000Y330000D02*
Y690700D01*
G01Y330000D02*
X690700D01*
G01X330000Y7309300D02*
Y7670000D01*
G01D02*
X690700D01*
G01X850000Y5789300D02*
Y5896000D01*
G01D02*
Y6002700D01*
G01X743300Y5896000D02*
X850000D01*
G01D02*
X956700D01*
G01X850000Y6393300D02*
Y6500000D01*
G01D02*
Y6606700D01*
G01X743300Y6500000D02*
X850000D01*
G01D02*
X956700D01*
G01X1439800Y800000D02*
X1648000D01*
G01Y591800D02*
Y800000D01*
G01D02*
Y1008200D01*
G01Y800000D02*
X1856200D01*
G01X2375000Y947800D02*
Y1071000D01*
G01D02*
X2498200D01*
G01X2643800Y800000D02*
X2852000D01*
G01Y591800D02*
Y800000D01*
G01D02*
Y1008200D01*
G01Y800000D02*
X3060200D01*
G01X3809300Y330000D02*
X4170000D01*
G01X3809300Y7670000D02*
X4170000D01*
G01Y330000D02*
Y690700D01*
G01Y7309300D02*
Y7670000D01*
M02*
