G04 ================== begin FILE IDENTIFICATION RECORD ==================*
G04 Layout Name:  E:/GitHub/MBEDBoard/EZFET_V10A/PCB/EZFET_V10A.brd*
G04 Film Name:    SolderMask_Top*
G04 File Format:  Gerber RS274X*
G04 File Origin:  Cadence Allegro 16.6-2015-S071*
G04 Origin Date:  Tue Nov 01 11:21:20 2016*
G04 *
G04 Layer:  BOARD GEOMETRY/OUTLINE*
G04 Layer:  PIN/SOLDERMASK_TOP*
G04 Layer:  PACKAGE GEOMETRY/SOLDERMASK_TOP*
G04 Layer:  BOARD GEOMETRY/SOLDERMASK_TOP*
G04 *
G04 Offset:    (0.0000 0.0000)*
G04 Mirror:    No*
G04 Mode:      Positive*
G04 Rotation:  0*
G04 FullContactRelief:  No*
G04 UndefLineWidth:     0.1524*
G04 ================== end FILE IDENTIFICATION RECORD ====================*
%FSLAX55Y55*MOMM*%
%IR0*IPPOS*OFA0.00000B0.00000*MIA0B0*SFA1.00000B1.00000*%
%ADD20R,1.16X.75*%
%ADD13R,.9144X.9144*%
%ADD16R,1.0668X.6858*%
%ADD23R,4.2X4.2*%
%ADD17C,1.7*%
%ADD15C,3.5*%
%ADD12C,1.016*%
%ADD19R,1.4224X1.4224*%
%ADD10C,6.35*%
%ADD18R,1.7X1.7*%
%ADD11C,1.905*%
%ADD21R,.95X.38*%
%ADD22R,.38X.95*%
%ADD14C,1.397*%
%ADD24C,.1524*%
G75*
%LPD*%
G75*
G36*
G01X820000Y850000D02*
G03I-150000J0D01*
G37*
G36*
G01X4090000Y7130000D02*
G03I-150000J0D01*
G37*
G54D10*
X330000Y330000D03*
Y7670000D03*
X4170000Y330000D03*
Y7670000D03*
G54D11*
X500000Y1886000D03*
Y2140000D03*
Y2394000D03*
Y2648000D03*
Y2902000D03*
Y3156000D03*
Y3410000D03*
X754000Y1886000D03*
Y2140000D03*
Y2394000D03*
Y2648000D03*
Y2902000D03*
Y3156000D03*
Y3410000D03*
X1550000Y6946000D03*
Y7200000D03*
X1804000Y6946000D03*
Y7200000D03*
X2058000Y6946000D03*
Y7200000D03*
X2312000Y6946000D03*
Y7200000D03*
X2566000Y6946000D03*
Y7200000D03*
X2820000Y6946000D03*
Y7200000D03*
X3074000Y6946000D03*
Y7200000D03*
G54D20*
X2574600Y1515000D03*
Y1610000D03*
Y1705000D03*
X2845400Y1515000D03*
Y1705000D03*
G54D21*
X2610000Y2685000D03*
Y2735000D03*
Y2785000D03*
Y2835000D03*
Y2885000D03*
Y2935000D03*
Y2985000D03*
Y3035000D03*
Y3085000D03*
Y3135000D03*
Y3185000D03*
Y3235000D03*
Y3285000D03*
Y3335000D03*
Y3385000D03*
Y3435000D03*
X3510000Y2685000D03*
Y2885000D03*
Y2835000D03*
Y2785000D03*
Y2735000D03*
Y3035000D03*
Y2985000D03*
Y2935000D03*
Y3235000D03*
Y3185000D03*
Y3135000D03*
Y3085000D03*
Y3385000D03*
Y3335000D03*
Y3285000D03*
Y3435000D03*
G54D12*
X670000Y850000D03*
X3940000Y7130000D03*
G54D22*
X2685000Y2610000D03*
Y3510000D03*
X2885000Y2610000D03*
X2835000D03*
X2785000D03*
X2735000D03*
Y3510000D03*
X2785000D03*
X2835000D03*
X2885000D03*
X3035000Y2610000D03*
X2985000D03*
X2935000D03*
Y3510000D03*
X2985000D03*
X3035000D03*
X3235000Y2610000D03*
X3185000D03*
X3135000D03*
X3085000D03*
Y3510000D03*
X3135000D03*
X3185000D03*
X3235000D03*
X3385000Y2610000D03*
X3335000D03*
X3285000D03*
Y3510000D03*
X3335000D03*
X3385000D03*
X3435000Y2610000D03*
Y3510000D03*
G54D13*
X850000Y4343800D03*
Y4496200D03*
X1000000Y4343800D03*
Y4496200D03*
X1310000Y1863800D03*
Y2016200D03*
Y2193800D03*
Y2346200D03*
X1380000Y4343800D03*
Y4496200D03*
X1530000Y4343800D03*
Y4496200D03*
X1610000Y1873800D03*
Y2026200D03*
Y2193800D03*
Y2346200D03*
X1760000Y1873800D03*
Y2026200D03*
Y2193800D03*
Y2346200D03*
X1900000Y3063800D03*
Y3216200D03*
Y3413800D03*
Y3566200D03*
X1910000Y1873800D03*
X2060000D03*
X1910000Y2026200D03*
X2060000D03*
X2210000Y1873800D03*
Y2026200D03*
X2140000Y2233800D03*
Y2386200D03*
X2240000Y3413800D03*
X2090000D03*
X2240000Y3566200D03*
X2090000D03*
X2290000Y2233800D03*
Y2386200D03*
X2440000Y2233800D03*
Y2386200D03*
X2590000Y2233800D03*
X2740000D03*
X2590000Y2386200D03*
X2740000D03*
X2650000Y4343800D03*
Y4496200D03*
X2890000Y2233800D03*
Y2386200D03*
X2800000Y4343800D03*
Y4496200D03*
X3040000Y2233800D03*
Y2386200D03*
X3080000Y3763800D03*
Y3916200D03*
X2950000Y4343800D03*
Y4496200D03*
X3190000Y2233800D03*
Y2386200D03*
X3250000Y4343800D03*
X3100000D03*
X3250000Y4496200D03*
X3100000D03*
X3400000Y4343800D03*
Y4496200D03*
X3480000Y2233800D03*
Y2386200D03*
X3550000Y4343800D03*
Y4496200D03*
X3630000Y2233800D03*
Y2386200D03*
X3700000Y4343800D03*
Y4496200D03*
X3850000Y4343800D03*
Y4496200D03*
G54D14*
X850000Y5642000D03*
Y5896000D03*
Y6246000D03*
Y6500000D03*
X1580000Y3070000D03*
Y3558000D03*
G54D23*
X3060000Y3060000D03*
G54D24*
G01X330000Y0D02*
X4170000D01*
G03X4500000Y330000I0J330000D01*
G01Y7670000D01*
G03X4170000Y8000000I-330000J0D01*
G01X330000D01*
G03X0Y7670000I0J-330000D01*
G01Y330000D01*
G03X330000Y0I330000J0D01*
G54D15*
X1648000Y800000D03*
X2852000D03*
G54D16*
X1730780Y1536500D03*
Y1600000D03*
Y1663500D03*
X1949220Y1536500D03*
Y1663500D03*
Y1600000D03*
G54D17*
X2125000Y1071000D03*
Y1271000D03*
X2375000Y1071000D03*
G54D18*
Y1271000D03*
G54D19*
X2390000Y1795860D03*
Y2004140D03*
X3040000Y1795860D03*
Y2004140D03*
X3360000Y1795860D03*
Y2004140D03*
M02*
