G04 ================== begin FILE IDENTIFICATION RECORD ==================*
G04 Layout Name:  E:/GitHub/48_CP2102/RS485_V10A/PCB/RS485_V10A.brd*
G04 Film Name:    SilkScreen_Top*
G04 File Format:  Gerber RS274X*
G04 File Origin:  Cadence Allegro 16.6-2015-S071*
G04 Origin Date:  Wed Aug 31 17:13:47 2016*
G04 *
G04 Layer:  REF DES/SILKSCREEN_TOP*
G04 Layer:  PACKAGE GEOMETRY/SILKSCREEN_TOP*
G04 Layer:  BOARD GEOMETRY/SILKSCREEN_TOP*
G04 *
G04 Offset:    (0.0000 0.0000)*
G04 Mirror:    No*
G04 Mode:      Positive*
G04 Rotation:  0*
G04 FullContactRelief:  No*
G04 UndefLineWidth:     0.1524*
G04 ================== end FILE IDENTIFICATION RECORD ====================*
%FSLAX25Y25*MOMM*%
%IR0*IPPOS*OFA0.00000B0.00000*MIA0B0*SFA1.00000B1.00000*%
%ADD10C,.2032*%
%ADD11C,.254*%
%ADD12C,.1524*%
%ADD13C,.1778*%
G75*
%LPD*%
G75*
G36*
G01X790000Y1130000D02*
G03I-30000J0D01*
G37*
G36*
G01X965000Y1717640D02*
G03I-29620J0D01*
G37*
G36*
G01X1711920Y1199400D02*
G03I-35920J0D01*
G37*
G36*
G01X2371620Y150000D02*
G03I-31620J0D01*
G37*
G54D10*
G01X920000Y720000D02*
X830000D01*
Y810000D01*
G01Y1150000D02*
Y1240000D01*
X920000D01*
G01X1042200Y1771100D02*
X1397800D01*
Y1948900D01*
X1042200D01*
Y1771100D01*
G01X1350000Y810000D02*
Y720000D01*
X1260000D01*
G01Y1240000D02*
X1350000D01*
Y1150000D01*
G01X1452200Y1771100D02*
X1807800D01*
Y1948900D01*
X1452200D01*
Y1771100D01*
G01X2249700Y1786500D02*
X1970300D01*
Y1913500D01*
X2249700D01*
G01X2188740D02*
X2249700D01*
Y1786500D01*
X2188740D01*
G54D11*
G01X-20000Y1514000D02*
Y774000D01*
X480000D01*
Y1514000D01*
X-20000D01*
G01X120000Y1340000D02*
Y940000D01*
X310000D01*
Y1340000D01*
X120000D01*
G01X310000Y1180000D02*
X120000D01*
G01X310000Y1090000D02*
X120000D01*
G01X354000Y1514000D02*
Y783000D01*
G01X973000Y343000D02*
Y597000D01*
G01X1989000Y343000D02*
X973000D01*
G01X990780Y360780D02*
X1211760D01*
G01X990780Y579220D02*
Y360780D01*
G01X1211760Y579220D02*
X990780D01*
G01X973000Y597000D02*
X1989000D01*
G01X1108100Y1689700D02*
X1133500D01*
Y1410300D01*
X1006500D01*
Y1689700D01*
X1031900D01*
G01X1108100D02*
G02X1031900I-38100J12700D01*
G01X1211760Y360780D02*
Y579220D01*
G01X1820000Y680000D02*
Y1180000D01*
X1910000D01*
G01X2080000Y680000D02*
X1820000D01*
G01X1989000Y597000D02*
Y343000D01*
G01X1990000Y1180000D02*
X2080000D01*
G01X1910000D02*
G03X1990000I40000J4108D01*
G01X2080000Y680000D02*
Y1180000D01*
G01X2390000Y20000D02*
Y2260000D01*
X3630000D01*
Y20000D01*
X2390000D01*
G01X2392000Y632000D02*
X2390000Y630000D01*
G01X2710000Y280000D02*
X3320000D01*
X3470000Y320000D01*
Y430000D01*
X3320000Y470000D01*
X2710000D01*
G01Y790000D02*
X3320000D01*
X3470000Y830000D01*
Y940000D01*
X3320000Y980000D01*
X2710000D01*
G01Y1300000D02*
X3320000D01*
X3470000Y1340000D01*
Y1450000D01*
X3320000Y1490000D01*
X2710000D01*
G01Y1810000D02*
X3320000D01*
X3470000Y1850000D01*
Y1960000D01*
X3320000Y2000000D01*
X2710000D01*
G01X3630000Y20000D02*
X3320000D01*
Y2260000D01*
X3630000D01*
G54D12*
G01X435050Y395720D02*
X454530D01*
Y368290D01*
X448680Y359140D01*
X441870Y353050D01*
X432130Y350000D01*
X422390Y353050D01*
X415580Y359140D01*
X409740Y368290D01*
X405840Y378960D01*
X403890Y391150D01*
Y401820D01*
X405840Y410960D01*
X409740Y421630D01*
X415580Y430770D01*
X421420Y436870D01*
X429210Y441440D01*
X436030D01*
X443810Y438390D01*
X449660Y432300D01*
G01X485560Y350000D02*
Y441440D01*
X530340Y350000D01*
Y441440D01*
G01X565270Y350000D02*
Y441440D01*
X584740D01*
X592530Y436870D01*
X598370Y430770D01*
X603240Y421630D01*
X607140Y410960D01*
X608110Y395720D01*
X607140Y380480D01*
X603240Y369810D01*
X598370Y360670D01*
X592530Y354570D01*
X584740Y350000D01*
X565270D01*
G01X652770Y380480D02*
X678090D01*
G01X719830Y441440D02*
X744170Y350000D01*
X768510Y441440D01*
G01X844330Y433820D02*
X838490Y438390D01*
X831670Y441440D01*
X823880D01*
X815120Y436870D01*
X808310Y429250D01*
X803440Y420100D01*
X799540Y404860D01*
X798570Y391150D01*
X800520Y377430D01*
X803440Y368290D01*
X809280Y359140D01*
X816090Y353050D01*
X822910Y350000D01*
X829730D01*
X836540Y353050D01*
X842380Y357620D01*
X847250Y363710D01*
G01X923070Y433820D02*
X917230Y438390D01*
X910410Y441440D01*
X902620D01*
X893860Y436870D01*
X887050Y429250D01*
X882180Y420100D01*
X878280Y404860D01*
X877310Y391150D01*
X879260Y377430D01*
X882180Y368290D01*
X888020Y359140D01*
X894830Y353050D01*
X901650Y350000D01*
X908470D01*
X915280Y353050D01*
X921120Y357620D01*
X925990Y363710D01*
G01X517790Y1511440D02*
Y1445910D01*
X521680Y1432190D01*
X529470Y1423050D01*
X539210Y1420000D01*
X548950Y1423050D01*
X556740Y1432190D01*
X560630Y1445910D01*
Y1511440D01*
G01X597500Y1432190D02*
X605290Y1424570D01*
X614060Y1420000D01*
X621840D01*
X629630Y1424570D01*
X635480Y1432190D01*
X638400Y1442860D01*
X636450Y1453530D01*
X631580Y1462670D01*
X622820Y1468770D01*
X611130Y1471820D01*
X604320Y1477910D01*
X601400Y1488580D01*
X603350Y1499250D01*
X608210Y1506870D01*
X615030Y1511440D01*
X621840D01*
X628660Y1508390D01*
X634500Y1500770D01*
G01X704480Y1468770D02*
X708370Y1473340D01*
X711290Y1480960D01*
X713240Y1491630D01*
X711290Y1500770D01*
X707400Y1506870D01*
X700580Y1511440D01*
X674300D01*
Y1420000D01*
X706430D01*
X713240Y1426090D01*
X717140Y1435240D01*
X719080Y1445910D01*
X717140Y1456570D01*
X711290Y1465720D01*
X704480Y1468770D01*
X674300D01*
G01X775430Y1420000D02*
Y1511440D01*
X763750Y1493150D01*
G01Y1420000D02*
X787110D01*
G01X829740Y568290D02*
X834610Y559140D01*
X840450Y553050D01*
X847260Y550000D01*
X855050Y553050D01*
X860890Y559140D01*
X866740Y568290D01*
X868680Y580480D01*
Y641440D01*
G01X927950Y550000D02*
Y641440D01*
X916270Y623150D01*
G01Y550000D02*
X939630D01*
G01X777790Y1371440D02*
Y1305910D01*
X781680Y1292190D01*
X789470Y1283050D01*
X799210Y1280000D01*
X808950Y1283050D01*
X816740Y1292190D01*
X820630Y1305910D01*
Y1371440D01*
G01X877950Y1280000D02*
Y1371440D01*
X866270Y1353150D01*
G01Y1280000D02*
X889630D01*
G01X707790Y1651440D02*
Y1585910D01*
X711680Y1572190D01*
X719470Y1563050D01*
X729210Y1560000D01*
X738950Y1563050D01*
X746740Y1572190D01*
X750630Y1585910D01*
Y1651440D01*
G01X789450Y1636200D02*
X795290Y1645340D01*
X802110Y1649920D01*
X809900Y1651440D01*
X819630Y1648390D01*
X826450Y1640770D01*
X828400Y1631630D01*
X827420Y1622480D01*
X823530Y1614860D01*
X804060Y1599620D01*
X795290Y1588960D01*
X789450Y1573710D01*
X787500Y1560000D01*
X828400D01*
G01X909210Y1941440D02*
Y1850000D01*
G01X886820Y1941440D02*
X931600D01*
G01X967500Y1850000D02*
X1008400Y1941440D01*
G01X967500D02*
X1008400Y1850000D01*
G01X1297790Y1650000D02*
Y1741440D01*
X1317260D01*
X1325050Y1736870D01*
X1330890Y1730770D01*
X1335760Y1721630D01*
X1339660Y1710960D01*
X1340630Y1695720D01*
X1339660Y1680480D01*
X1335760Y1669810D01*
X1330890Y1660670D01*
X1325050Y1654570D01*
X1317260Y1650000D01*
X1297790D01*
G01X1397950D02*
Y1741440D01*
X1386270Y1723150D01*
G01Y1650000D02*
X1409630D01*
G01X1457790D02*
Y1741440D01*
X1477260D01*
X1485050Y1736870D01*
X1490890Y1730770D01*
X1495760Y1721630D01*
X1499660Y1710960D01*
X1500630Y1695720D01*
X1499660Y1680480D01*
X1495760Y1669810D01*
X1490890Y1660670D01*
X1485050Y1654570D01*
X1477260Y1650000D01*
X1457790D01*
G01X1539450Y1726200D02*
X1545290Y1735340D01*
X1552110Y1739920D01*
X1559900Y1741440D01*
X1569630Y1738390D01*
X1576450Y1730770D01*
X1578400Y1721630D01*
X1577420Y1712480D01*
X1573530Y1704860D01*
X1554060Y1689620D01*
X1545290Y1678960D01*
X1539450Y1663710D01*
X1537500Y1650000D01*
X1578400D01*
G01X1837790Y1301440D02*
Y1235910D01*
X1841680Y1222190D01*
X1849470Y1213050D01*
X1859210Y1210000D01*
X1868950Y1213050D01*
X1876740Y1222190D01*
X1880630Y1235910D01*
Y1301440D01*
G01X1919450Y1248100D02*
X1926270Y1258770D01*
X1932110Y1264860D01*
X1939900Y1267910D01*
X1946710Y1264860D01*
X1951580Y1258770D01*
X1955480Y1249620D01*
X1956450Y1238960D01*
X1955480Y1229810D01*
X1951580Y1220670D01*
X1945740Y1213050D01*
X1938920Y1210000D01*
X1931130Y1213050D01*
X1924320Y1222190D01*
X1920420Y1235910D01*
X1919450Y1251150D01*
X1921400Y1270960D01*
X1924320Y1281630D01*
X1929190Y1292300D01*
X1936000Y1299920D01*
X1942820Y1301440D01*
X1949630Y1298390D01*
X1954500Y1290770D01*
G01X1809740Y1650000D02*
Y1741440D01*
X1834080D01*
X1841870Y1736870D01*
X1846740Y1730770D01*
X1848680Y1718580D01*
X1846740Y1706390D01*
X1840890Y1698770D01*
X1834080Y1694190D01*
X1809740D01*
G01X1834080D02*
X1848680Y1650000D01*
G01X1907950D02*
Y1741440D01*
X1896270Y1723150D01*
G01Y1650000D02*
X1919630D01*
G01X1998370D02*
Y1741440D01*
X1962350Y1675910D01*
X2011030D01*
G01X1829740Y1850000D02*
Y1941440D01*
X1854080D01*
X1861870Y1936870D01*
X1866740Y1930770D01*
X1868680Y1918580D01*
X1866740Y1906390D01*
X1860890Y1898770D01*
X1854080Y1894190D01*
X1829740D01*
G01X1854080D02*
X1868680Y1850000D01*
G01X1907500D02*
X1948400Y1941440D01*
G01X1907500D02*
X1948400Y1850000D01*
G01X2009740Y340000D02*
Y431440D01*
X2034080D01*
X2041870Y426870D01*
X2046740Y420770D01*
X2048680Y408580D01*
X2046740Y396390D01*
X2040890Y388770D01*
X2034080Y384190D01*
X2009740D01*
G01X2034080D02*
X2048680Y340000D01*
G01X2087500D02*
X2128400Y431440D01*
G01X2087500D02*
X2128400Y340000D01*
G01X2174030Y370480D02*
X2199350D01*
G01X2265430Y431440D02*
Y340000D01*
G01X2243040Y431440D02*
X2287820D01*
G01X2323720Y340000D02*
X2364620Y431440D01*
G01X2323720D02*
X2364620Y340000D01*
G01X2020890Y1360000D02*
Y1451440D01*
X1984870Y1385910D01*
X2033550D01*
G01X2087950Y1360000D02*
X2094770Y1361520D01*
X2102550Y1366090D01*
X2107420Y1373710D01*
X2109370Y1384380D01*
X2107420Y1395050D01*
X2101580Y1404190D01*
X2092820Y1408770D01*
X2083080D01*
X2077240Y1411820D01*
X2072370Y1419430D01*
X2070420Y1430100D01*
X2073350Y1440770D01*
X2080160Y1448390D01*
X2087950Y1451440D01*
X2095740Y1448390D01*
X2102550Y1440770D01*
X2105480Y1430100D01*
X2103530Y1419430D01*
X2098660Y1411820D01*
X2092820Y1408770D01*
X2083080D01*
X2074320Y1404190D01*
X2068480Y1395050D01*
X2066530Y1384380D01*
X2068480Y1373710D01*
X2073350Y1366090D01*
X2081130Y1361520D01*
X2087950Y1360000D01*
G01X2145270Y1373710D02*
X2151110Y1366090D01*
X2157930Y1361520D01*
X2166690Y1360000D01*
X2175450Y1363050D01*
X2182270Y1369140D01*
X2187140Y1379810D01*
X2188110Y1392000D01*
X2186160Y1404190D01*
X2181290Y1411820D01*
X2174480Y1417910D01*
X2167660Y1419430D01*
X2160850Y1417910D01*
X2152090Y1411820D01*
X2155010Y1451440D01*
X2181290D01*
G01X2216220Y1329520D02*
X2274640D01*
G01X2299830Y1360000D02*
X2324170Y1451440D01*
X2348510Y1360000D01*
G01X2339750Y1392000D02*
X2308590D01*
G01X2020890Y1480000D02*
Y1571440D01*
X1984870Y1505910D01*
X2033550D01*
G01X2087950Y1480000D02*
X2094770Y1481520D01*
X2102550Y1486090D01*
X2107420Y1493710D01*
X2109370Y1504380D01*
X2107420Y1515050D01*
X2101580Y1524190D01*
X2092820Y1528770D01*
X2083080D01*
X2077240Y1531820D01*
X2072370Y1539430D01*
X2070420Y1550100D01*
X2073350Y1560770D01*
X2080160Y1568390D01*
X2087950Y1571440D01*
X2095740Y1568390D01*
X2102550Y1560770D01*
X2105480Y1550100D01*
X2103530Y1539430D01*
X2098660Y1531820D01*
X2092820Y1528770D01*
X2083080D01*
X2074320Y1524190D01*
X2068480Y1515050D01*
X2066530Y1504380D01*
X2068480Y1493710D01*
X2073350Y1486090D01*
X2081130Y1481520D01*
X2087950Y1480000D01*
G01X2145270Y1493710D02*
X2151110Y1486090D01*
X2157930Y1481520D01*
X2166690Y1480000D01*
X2175450Y1483050D01*
X2182270Y1489140D01*
X2187140Y1499810D01*
X2188110Y1512000D01*
X2186160Y1524190D01*
X2181290Y1531820D01*
X2174480Y1537910D01*
X2167660Y1539430D01*
X2160850Y1537910D01*
X2152090Y1531820D01*
X2155010Y1571440D01*
X2181290D01*
G01X2216220Y1449520D02*
X2274640D01*
G01X2331960Y1528770D02*
X2335850Y1533340D01*
X2338770Y1540960D01*
X2340720Y1551630D01*
X2338770Y1560770D01*
X2334880Y1566870D01*
X2328060Y1571440D01*
X2301780D01*
Y1480000D01*
X2333910D01*
X2340720Y1486090D01*
X2344620Y1495240D01*
X2346560Y1505910D01*
X2344620Y1516570D01*
X2338770Y1525720D01*
X2331960Y1528770D01*
X2301780D01*
G01X2155050Y505720D02*
X2174530D01*
Y478290D01*
X2168680Y469140D01*
X2161870Y463050D01*
X2152130Y460000D01*
X2142390Y463050D01*
X2135580Y469140D01*
X2129740Y478290D01*
X2125840Y488960D01*
X2123890Y501150D01*
Y511820D01*
X2125840Y520960D01*
X2129740Y531630D01*
X2135580Y540770D01*
X2141420Y546870D01*
X2149210Y551440D01*
X2156030D01*
X2163810Y548390D01*
X2169660Y542300D01*
G01X2205560Y460000D02*
Y551440D01*
X2250340Y460000D01*
Y551440D01*
G01X2285270Y460000D02*
Y551440D01*
X2304740D01*
X2312530Y546870D01*
X2318370Y540770D01*
X2323240Y531630D01*
X2327140Y520960D01*
X2328110Y505720D01*
X2327140Y490480D01*
X2323240Y479810D01*
X2318370Y470670D01*
X2312530Y464570D01*
X2304740Y460000D01*
X2285270D01*
G01X2124870Y671440D02*
X2149210Y580000D01*
X2173550Y671440D01*
G01X2249370Y663820D02*
X2243530Y668390D01*
X2236710Y671440D01*
X2228920D01*
X2220160Y666870D01*
X2213350Y659250D01*
X2208480Y650100D01*
X2204580Y634860D01*
X2203610Y621150D01*
X2205560Y607430D01*
X2208480Y598290D01*
X2214320Y589140D01*
X2221130Y583050D01*
X2227950Y580000D01*
X2234770D01*
X2241580Y583050D01*
X2247420Y587620D01*
X2252290Y593710D01*
G01X2328110Y663820D02*
X2322270Y668390D01*
X2315450Y671440D01*
X2307660D01*
X2298900Y666870D01*
X2292090Y659250D01*
X2287220Y650100D01*
X2283320Y634860D01*
X2282350Y621150D01*
X2284300Y607430D01*
X2287220Y598290D01*
X2293060Y589140D01*
X2299870Y583050D01*
X2306690Y580000D01*
X2313510D01*
X2320320Y583050D01*
X2326160Y587620D01*
X2331030Y593710D01*
G01X2251160Y1958290D02*
X2256030Y1949140D01*
X2261870Y1943050D01*
X2268680Y1940000D01*
X2276470Y1943050D01*
X2282310Y1949140D01*
X2288160Y1958290D01*
X2290100Y1970480D01*
Y2031440D01*
G01X2330870Y1978100D02*
X2337690Y1988770D01*
X2343530Y1994860D01*
X2351320Y1997910D01*
X2358130Y1994860D01*
X2363000Y1988770D01*
X2366900Y1979620D01*
X2367870Y1968960D01*
X2366900Y1959810D01*
X2363000Y1950670D01*
X2357160Y1943050D01*
X2350340Y1940000D01*
X2342550Y1943050D01*
X2335740Y1952190D01*
X2331840Y1965910D01*
X2330870Y1981150D01*
X2332820Y2000960D01*
X2335740Y2011630D01*
X2340610Y2022300D01*
X2347420Y2029920D01*
X2354240Y2031440D01*
X2361050Y2028390D01*
X2365920Y2020770D01*
G54D13*
G01X1250480Y1796500D02*
X1186980Y1860000D01*
X1250480Y1923500D01*
Y1796500D01*
X1232700Y1814280D01*
Y1898100D01*
X1220000Y1885400D01*
Y1834600D01*
X1207300Y1847300D01*
Y1872700D01*
G01X1660480Y1796500D02*
X1596980Y1860000D01*
X1660480Y1923500D01*
Y1796500D01*
X1642700Y1814280D01*
Y1898100D01*
X1630000Y1885400D01*
Y1834600D01*
X1617300Y1847300D01*
Y1872700D01*
M02*
