G04 ================== begin FILE IDENTIFICATION RECORD ==================*
G04 Layout Name:  E:/GitHub/48_CP2102/RS485_V10A/PCB/RS485_V10A.brd*
G04 Film Name:    SolderMask_Top*
G04 File Format:  Gerber RS274X*
G04 File Origin:  Cadence Allegro 16.6-2015-S071*
G04 Origin Date:  Wed Aug 31 17:13:47 2016*
G04 *
G04 Layer:  PIN/SOLDERMASK_TOP*
G04 Layer:  PACKAGE GEOMETRY/SOLDERMASK_TOP*
G04 Layer:  BOARD GEOMETRY/SOLDERMASK_TOP*
G04 *
G04 Offset:    (0.0000 0.0000)*
G04 Mirror:    No*
G04 Mode:      Positive*
G04 Rotation:  0*
G04 FullContactRelief:  No*
G04 UndefLineWidth:     0.1524*
G04 ================== end FILE IDENTIFICATION RECORD ====================*
%FSLAX25Y25*MOMM*%
%IR0*IPPOS*OFA0.00000B0.00000*MIA0B0*SFA1.00000B1.00000*%
%ADD12R,1.1X.33*%
%ADD14R,.33X1.1*%
%ADD11R,1.6X.6*%
%ADD20R,1.6X.7*%
%ADD17R,1.16X.75*%
%ADD21R,.9144X.9144*%
%ADD10R,2.1X1.9*%
%ADD19C,1.524*%
%ADD15R,3.2X3.2*%
%ADD16R,.55X.57*%
%ADD18R,1.2192X1.4224*%
%ADD22C,3.175*%
%ADD13R,1.651X1.651*%
%LPD*%
G75*
G54D10*
X220000Y770000D03*
Y1010000D03*
Y1260000D03*
Y1520000D03*
G54D20*
X1680000Y739000D03*
Y866000D03*
Y993000D03*
Y1120000D03*
X2220000Y866000D03*
Y739000D03*
Y993000D03*
Y1120000D03*
G54D11*
X483000Y1011000D03*
Y1206000D03*
Y1141000D03*
Y1076000D03*
Y1271000D03*
G54D21*
X2033800Y1850000D03*
X2186200D03*
G54D12*
X840000Y830000D03*
Y880000D03*
Y930000D03*
Y980000D03*
Y1030000D03*
Y1080000D03*
Y1130000D03*
X1340300Y830200D03*
Y1030200D03*
Y980200D03*
Y930200D03*
Y880200D03*
Y1130200D03*
Y1080200D03*
G54D13*
X1100000Y470000D03*
G54D22*
X2570000Y378000D03*
Y886000D03*
Y1394000D03*
Y1902000D03*
G54D14*
X990600Y731300D03*
X940600D03*
X941400Y1231600D03*
X991400D03*
X1190600Y731300D03*
X1140600D03*
X1090600D03*
X1040600D03*
X1041400Y1231600D03*
X1091400D03*
X1141400D03*
X1191400D03*
X1240600Y731300D03*
X1241400Y1231600D03*
G54D15*
X1090000Y980000D03*
G54D16*
X878100Y1193500D03*
G54D17*
X934600Y1455000D03*
Y1550000D03*
Y1645000D03*
X1205400Y1455000D03*
Y1645000D03*
G54D18*
X1118400Y1860000D03*
X1321600D03*
X1528400D03*
X1731600D03*
G54D19*
X1354000Y470000D03*
X1608000D03*
X1862000D03*
M02*
