G04 ================== begin FILE IDENTIFICATION RECORD ==================*
G04 Layout Name:  H:/GitHub/MBEDBoard/MK60_PACK_V20A/PCB/MK60_PACK_V20A.brd*
G04 Film Name:    BOTTOM*
G04 File Format:  Gerber RS274X*
G04 File Origin:  Cadence Allegro 16.6-2015-S095*
G04 Origin Date:  Thu Sep 07 19:47:13 2017*
G04 *
G04 Layer:  BOARD GEOMETRY/OUTLINE*
G04 Layer:  ETCH/BOTTOM*
G04 Layer:  PIN/BOTTOM*
G04 Layer:  VIA CLASS/BOTTOM*
G04 *
G04 Offset:    (0.0000 0.0000)*
G04 Mirror:    No*
G04 Mode:      Positive*
G04 Rotation:  0*
G04 FullContactRelief:  No*
G04 UndefLineWidth:     0.1524*
G04 ================== end FILE IDENTIFICATION RECORD ====================*
%FSLAX55Y55*MOMM*%
%IR0*IPPOS*OFA0.00000B0.00000*MIA0B0*SFA1.00000B1.00000*%
%ADD19C,.762*%
%ADD21R,3.099X.508*%
%ADD12C,.6096*%
%ADD20R,2.2X1.1*%
%ADD11R,1.1X2.2*%
%ADD16C,3.3*%
%ADD17C,2.7*%
%ADD25R,1.016X1.2192*%
%ADD23C,2.54*%
%ADD13C,1.524*%
%ADD10C,6.35*%
%ADD14R,1.524X1.524*%
%ADD22C,1.778*%
%ADD18R,.9144X.9144*%
%ADD15C,1.6993*%
%ADD24R,1.778X1.778*%
%ADD26C,.2032*%
%ADD27C,.17*%
%ADD28C,.127*%
%ADD29C,.254*%
%ADD30C,.7112*%
%ADD31C,.1524*%
%ADD32C,.508*%
%ADD36C,1.0202*%
%ADD35C,1.4146*%
%ADD33C,1.4228*%
%ADD34C,1.0774*%
%ADD37C,2.7944*%
G75*
%LPD*%
G75*
G36*
G01X9690000Y2230000D02*
Y3156580D01*
X9777770Y3244340D01*
X9883060Y3279840D01*
Y3363060D01*
X9890000Y3370000D01*
Y4020000D01*
X9883060Y4026940D01*
Y4101620D01*
X9808380D01*
X9690000Y4220000D01*
Y5160000D01*
X9900000Y5370000D01*
Y7460000D01*
X9800000Y7560000D01*
X9727710D01*
G03X9712840Y7575420I-107715J-88993D01*
G02X9723360Y7610700I13503J15182D01*
G03X9953800Y7743290I-53367J359297D01*
G02X9990000Y7730610I15879J-12681D01*
G01Y569390D01*
G02X9953800Y556710I-20321J1D01*
G03X9443290Y46200I-283800J-226710D01*
G02X9430610Y10000I-12681J-15879D01*
G01X569390D01*
G02X556710Y46200I1J20321D01*
G03X46200Y556710I-226710J283800D01*
G02X10000Y569390I-15879J12681D01*
G01Y7730610D01*
G02X46200Y7743290I20321J-1D01*
G03X556710Y8253800I283800J226710D01*
G02X569390Y8290000I12681J15879D01*
G01X9430610D01*
G02X9443290Y8253800I-1J-20321D01*
G03X9546420Y7628430I226712J-283801D01*
G02X9549720Y7591760I-6917J-19106D01*
G03X9515230Y7563440I70283J-120757D01*
G01X9512200Y7560000D01*
X9480000D01*
X9270000Y7770000D01*
Y7956330D01*
G03X9190670Y8140590I-129000J53668D01*
G01X9188630Y8141370D01*
X9120000Y8210000D01*
X7857590D01*
G03X7702410I-77590J-160000D01*
G01X7095590D01*
G03X6940410I-77590J-160000D01*
G01X6367590D01*
G03X6212410I-77590J-160000D01*
G01X5605590D01*
G03X5450410I-77590J-160000D01*
G01X870000D01*
X750000Y8090000D01*
Y7820000D01*
X480000Y7550000D01*
X220000D01*
X110000Y7440000D01*
Y6691840D01*
X99180Y6681020D01*
Y5778950D01*
X110000Y5768130D01*
Y2320000D01*
X330000Y2100000D01*
Y1020000D01*
X1230000Y120000D01*
X8840000D01*
X9530000Y810000D01*
X9720000D01*
X9880000Y970000D01*
Y2040000D01*
X9690000Y2230000D01*
G37*
G36*
G01X410000Y1473760D02*
Y2140000D01*
X190000Y2360000D01*
Y5639070D01*
G02X224690Y5653440I20320J4D01*
G01X234680Y5643450D01*
X230670Y5636660D01*
G03X275600Y5462510I109330J-64664D01*
G02Y5427490I-10299J-17510D01*
G03Y5208510I64400J-109490D01*
G02Y5173490I-10299J-17510D01*
G03X401370Y4952790I64399J-109487D01*
G01X408060Y4956480D01*
X621640Y4742900D01*
Y4697500D01*
X579340Y4650640D01*
Y4399360D01*
X621640Y4352500D01*
Y3747500D01*
X579340Y3700640D01*
Y3424340D01*
X770660D01*
Y3700640D01*
X728360Y3747500D01*
Y4352500D01*
X770660Y4399360D01*
Y4650640D01*
X728360Y4697500D01*
Y4787100D01*
X605680Y4909780D01*
G02X616330Y4944120I14372J14364D01*
G03X648940Y5172860I-22330J119878D01*
G02Y5209140I9160J18140D01*
G03Y5426860I-54940J108860D01*
G02Y5463140I9160J18140D01*
G03X715720Y5564620I-54937J108864D01*
G02X750370Y5577760I20282J-1226D01*
G01X819180Y5508950D01*
Y4538950D01*
X1288940Y4069190D01*
X2420020D01*
X2579180Y3910030D01*
Y3896790D01*
G02X2552450Y3877510I-20318J0D01*
G03Y3742490I-22450J-67510D01*
G02X2579180Y3723210I6412J-19280D01*
G01Y2745170D01*
X2678830Y2645520D01*
Y2626900D01*
G02X2652180Y2607600I-20318J6D01*
G03X2605250Y2606690I-22163J-67600D01*
G01X2603540Y2606060D01*
X2456460D01*
X2454750Y2606690D01*
G03X2371660Y2580710I-24754J-66692D01*
G02X2338340I-16660J11634D01*
G03X2255250Y2606690I-58336J-40712D01*
G01X2253540Y2606060D01*
X2106460D01*
X2104750Y2606690D01*
G03Y2473310I-24750J-66690D01*
G01X2106460Y2473940D01*
X2253540D01*
X2255250Y2473310D01*
G03X2338340Y2499290I24754J66692D01*
G02X2371660I16660J-11634D01*
G03X2454750Y2473310I58336J40712D01*
G01X2456460Y2473940D01*
X2603540D01*
X2605250Y2473310D01*
G03X2652180Y2472400I24767J66690D01*
G02X2678830Y2453100I6332J-19306D01*
G01Y1774590D01*
X2617220Y1712980D01*
X2610420Y1708770D01*
X2609070Y1708390D01*
G03X2562820Y1666930I19599J-68390D01*
G01X2560240Y1660610D01*
X2543260D01*
Y1681120D01*
X2490000Y1734380D01*
Y2130000D01*
X890000D01*
Y1579260D01*
X881690Y1577720D01*
G03X747200Y1473760I33814J-182717D01*
G01X410000D01*
G37*
G36*
G01X667260Y3737360D02*
X620000Y3685000D01*
X675000Y3571820D01*
X730000Y3685000D01*
X682740Y3737360D01*
G03X667260I-7740J-10070D01*
G37*
G36*
G01X682740Y4362640D02*
X730000Y4415000D01*
X675000Y4528180D01*
X620000Y4415000D01*
X667260Y4362640D01*
G03X682740I7740J10070D01*
G37*
G36*
G01X667260Y4687360D02*
X620000Y4635000D01*
X675000Y4521820D01*
X730000Y4635000D01*
X682740Y4687360D01*
G03X667260I-7740J-10070D01*
G37*
G36*
G01X699220Y5887620D02*
G03X648940Y5934860I-105224J-61618D01*
G02Y5971140I9160J18140D01*
G03X711300Y6113310I-54941J108860D01*
G02X730850Y6139180I19548J5550D01*
G01X768950D01*
X890300Y6017830D01*
Y5918890D01*
G02X854430Y5905800I-20321J-6D01*
G03X735250Y5889470I-54433J-45802D01*
G02X699220Y5887620I-18495J8419D01*
G37*
G36*
G01X263800Y5892040D02*
Y5826000D01*
X341800Y5824200D01*
X340000Y5902200D01*
X273960D01*
G03X263800Y5892040I0J-10160D01*
G37*
G36*
G01X416200Y5508500D02*
Y5572000D01*
X337750Y5574250D01*
X340000Y5495800D01*
X403500D01*
G03X416200Y5508500I0J12700D01*
G37*
G36*
G01X1145290Y6823420D02*
X1455170D01*
G02X1469540Y6788730I4J-20320D01*
G01X958950Y6278140D01*
X731750D01*
G02X712070Y6303540I-4J20321D01*
G03X697690Y6398170I-118072J30465D01*
G02X714970Y6429180I17280J10690D01*
G01X751050D01*
X1145290Y6823420D01*
G37*
G36*
G01X683800Y6351960D02*
X647870Y6387870D01*
X587650Y6334000D01*
X647870Y6280130D01*
X683800Y6316040D01*
G03Y6351960I-17960J17960D01*
G37*
G36*
G01X273960Y6511800D02*
X340000D01*
X341800Y6589800D01*
X263800Y6588000D01*
Y6521960D01*
G03X273960Y6511800I10160J0D01*
G37*
G36*
G01X416200Y6521960D02*
Y6588000D01*
X338200Y6589800D01*
X340000Y6511800D01*
X406040D01*
G03X416200Y6521960I0J10160D01*
G37*
G36*
G01Y6263960D02*
Y6334000D01*
X338260Y6335850D01*
X339390Y6257830D01*
X405430Y6253820D01*
G03X416200Y6263960I612J10140D01*
G37*
G36*
G01X2297280Y6884300D02*
X2182070Y6999510D01*
X2131580D01*
G03X2130660Y6999500I92J-50819D01*
G01X1128210D01*
G02X1112220Y7032350I5J20319D01*
G03X1000180I-56020J43850D01*
G02X984190Y6999500I-15995J-12531D01*
G01X714140D01*
G02X696980Y7030700I2J20320D01*
G03X653610Y7202380I-102980J65303D01*
G02X653950Y7238020I9932J17727D01*
G03X502050Y7437630I-59948J111983D01*
G02X467020Y7451650I-14710J14019D01*
G01Y7490000D01*
X500000D01*
X810000Y7800000D01*
Y8060000D01*
X910000Y8160000D01*
X932060D01*
G02X943910Y8123180I-3J-20318D01*
G03X953600Y7910510I74087J-103180D01*
G02Y7875490I-10299J-17510D01*
G03X1127490Y7701600I64400J-109490D01*
G02X1162510I17510J-10299D01*
G03X1381490I109490J64400D01*
G02X1416510I17510J-10299D01*
G03X1635490I109490J64400D01*
G02X1670510I17510J-10299D01*
G03X1889490I109490J64400D01*
G02X1924510I17510J-10299D01*
G03X1963020Y7660670I109473J64418D01*
G02X1969950Y7634970I-11361J-16848D01*
G03X2098050I64050J-30970D01*
G02X2104980Y7660670I18291J8852D01*
G03X2143490Y7701600I-70963J105348D01*
G02X2178510I17510J-10299D01*
G03X2199270Y7675110I109477J64417D01*
G01X2237180Y7637200D01*
Y7087650D01*
G03X2339790Y7090810I52821J-47651D01*
G01X2338820Y7091780D01*
Y7637200D01*
X2376730Y7675110D01*
G03X2397490Y7701600I-88717J90907D01*
G02X2432510I17510J-10299D01*
G03X2453230Y7675150I109475J64418D01*
G01X2453270Y7675110D01*
X2517070Y7611310D01*
Y6949800D01*
G03X2496840Y6903600I50819J-49782D01*
G02X2476550Y6884300I-20294J1020D01*
G01X2297280D01*
G37*
G36*
G01X265990Y6765800D02*
X340000D01*
X341900Y6843690D01*
X263880Y6843220D01*
X255900Y6777180D01*
G03X265990Y6765800I10090J-1217D01*
G37*
G36*
G01X406040Y6918200D02*
X340000D01*
X338200Y6840200D01*
X416200Y6842000D01*
Y6908040D01*
G03X406040Y6918200I-10160J0D01*
G37*
G36*
G01X1112460Y532940D02*
X1112450Y600000D01*
X1023280Y604750D01*
X1024330Y515250D01*
X1083890Y507740D01*
G03X1112460Y532940I3171J25200D01*
G37*
G36*
G01X1392680Y608980D02*
X1341570Y660070D01*
X1278320Y600000D01*
X1341570Y539930D01*
X1392680Y591020D01*
G03Y608980I-8980J8980D01*
G37*
G36*
G01X2919180Y4184000D02*
G02X2884490Y4169630I-20320J-4D01*
G01X2859980Y4194140D01*
X2859970D01*
X2591030Y4463080D01*
X2481610D01*
G03X2480690Y4463070I92J-50819D01*
G01X2094760D01*
X2075460Y4482370D01*
Y4780220D01*
G03X1987810Y4890860I-50824J49775D01*
G03X1914150I-36830J-60860D01*
G03X1840490I-36830J-60860D01*
G03X1766830I-36830J-60860D01*
G03X1679180Y4780220I-36826J-60865D01*
G01Y4533750D01*
X1896290Y4316640D01*
G02X1881920Y4281950I-14366J-14370D01*
G01X1377070D01*
X1030820Y4628200D01*
Y5358970D01*
G02X1053110Y5379190I20318J-2D01*
G03X1129560Y5464900I6888J70807D01*
G02X1151780Y5489340I19871J4255D01*
G03X1137550Y5627510I8218J70664D01*
G02X1110820Y5646790I-6412J19280D01*
G01Y5773210D01*
G02X1137550Y5792490I20318J0D01*
G03Y5927510I22450J67510D01*
G02X1110820Y5946790I-6412J19280D01*
G01Y6198950D01*
X1612970Y6701100D01*
X2043930D01*
G02X2060830Y6669500I1J-20319D01*
G03X2090340Y6565340I59169J-39497D01*
G01X2092000Y6564580D01*
X2102000Y6554580D01*
X2093450Y6546030D01*
X2091680Y6545260D01*
G03X2090340Y6415340I28321J-65259D01*
G01X2092000Y6414580D01*
X2102000Y6404580D01*
X2093450Y6396030D01*
X2091680Y6395260D01*
G03X2090340Y6265340I28321J-65259D01*
G01X2092000Y6264580D01*
X2102000Y6254580D01*
X2093450Y6246030D01*
X2091680Y6245260D01*
G03X2090340Y6115340I28321J-65259D01*
G01X2092000Y6114580D01*
X2102000Y6104580D01*
X2093450Y6096030D01*
X2091680Y6095260D01*
G03X2090340Y5965340I28321J-65259D01*
G01X2092000Y5964580D01*
X2179640Y5876940D01*
X2868600D01*
G02X2888910Y5857370I4J-20320D01*
G03X2909770Y5809620I71092J2626D01*
G01X2909780D01*
X2916970Y5802430D01*
X2867900Y5753360D01*
X1752900D01*
X1603130Y5603590D01*
X1599590Y5603200D01*
G03X1557450Y5481940I7908J-70700D01*
G02Y5453060I-14292J-14440D01*
G03X1588960Y5333820I50049J-50558D01*
G03X1707050Y5284140I71043J3680D01*
G01X1729600D01*
X1935100Y5489640D01*
X2356540D01*
G02X2369790Y5453920I-4J-20319D01*
G03X2462610I46410J-53920D01*
G02X2475860Y5489640I13254J15401D01*
G01X3011390D01*
Y5476940D01*
X3402610D01*
Y6609060D01*
X2975640D01*
X2932000Y6565420D01*
X2930340Y6564660D01*
G03Y6435340I29660J-64660D01*
G01X2932000Y6434580D01*
X2940170Y6426400D01*
G02X2932990Y6409060I-7184J-7182D01*
G01X2434360D01*
X2244490Y6598930D01*
G02X2258860Y6633620I14368J14370D01*
G01X3051640D01*
X3127200Y6709180D01*
X3978950D01*
X4029180Y6658950D01*
Y5509780D01*
G03X4008860Y5460020I50820J-49782D01*
G01Y5449860D01*
X3544690D01*
X3534760Y5459790D01*
X3534730Y5459820D01*
G03X3413270Y5418070I-50780J-49821D01*
G01X3412240Y5409060D01*
X3011390D01*
Y5276020D01*
G02X2984170Y5256910I-20319J1D01*
G03X2910220Y5240820I-24167J-66909D01*
G01X2618950D01*
X2509180Y5131050D01*
Y4919780D01*
G03X2610820I50820J-49780D01*
G01Y5088950D01*
X2661050Y5139180D01*
X2910220D01*
G03X2984170Y5123090I49783J50819D01*
G02X3011390Y5103980I6901J-19111D01*
G01Y4566020D01*
G02X2984170Y4546910I-20319J1D01*
G03Y4413090I-24170J-66910D01*
G02X3011390Y4393980I6901J-19111D01*
G01Y4329540D01*
G02X2976700Y4315170I-20320J-4D01*
G01X2261050Y5030820D01*
X1551050D01*
X1510820Y5071050D01*
Y5738950D01*
X1620630Y5848760D01*
X1624460Y5849000D01*
G03X1557790Y5954500I-4458J70999D01*
G02X1523080Y5953120I-17774J9853D01*
G03X1436520Y5848100I-59284J-39319D01*
G02X1443090Y5814960I-7793J-18766D01*
G01X1409180Y5781050D01*
Y5028950D01*
X1508950Y4929180D01*
X2218950D01*
X2919180Y4228950D01*
Y4184000D01*
G37*
G36*
G01X1052820Y5485920D02*
X1038450Y5471550D01*
X1060000Y5447460D01*
X1081550Y5471550D01*
X1067180Y5485920D01*
G03X1052820I-7180J-7180D01*
G37*
G36*
G01X830480Y5839680D02*
Y5860000D01*
X798200Y5861800D01*
X800000Y5829520D01*
X820320D01*
G03X830480Y5839680I0J10160D01*
G37*
G36*
G01X944080Y6220140D02*
X972820Y6191400D01*
X980000Y6227320D01*
X951260D01*
X944080Y6220140D01*
G37*
G36*
G01X1752820Y525920D02*
X1738450Y511550D01*
X1760000Y487460D01*
X1781550Y511550D01*
X1767180Y525920D01*
G03X1752820I-7180J-7180D01*
G37*
G36*
G01X1766320Y506980D02*
X1809520Y554280D01*
X1763910Y602540D01*
X1718080Y554280D01*
X1753050Y507520D01*
G03X1766320Y506980I6948J7411D01*
G37*
G36*
G01X1364770Y592570D02*
X1408080Y554280D01*
X1456980Y600000D01*
X1408080Y645720D01*
X1364770Y607430D01*
G03Y592570I10300J-7430D01*
G37*
G36*
G01X1592820Y525920D02*
X1578450Y511550D01*
X1600000Y487460D01*
X1621550Y511550D01*
X1607180Y525920D01*
G03X1592820I-7180J-7180D01*
G37*
G36*
G01X1606370Y504610D02*
X1651920Y554280D01*
X1606380Y602530D01*
X1560480Y554280D01*
X1592620Y505550D01*
G03X1606370Y504610I7384J6979D01*
G37*
G36*
G01X1770960Y1622800D02*
X1813070Y1664930D01*
X1753000Y1731350D01*
X1692930Y1664930D01*
X1735040Y1622800D01*
G03X1770960I17960J17960D01*
G37*
G36*
G01X1735040Y1827200D02*
X1692930Y1785070D01*
X1753000Y1718650D01*
X1813070Y1785070D01*
X1770960Y1827200D01*
G03X1735040I-17960J-17960D01*
G37*
G36*
G01X1710960Y1919440D02*
X1710950Y1979000D01*
X1621510Y1983490D01*
X1626000Y1894050D01*
X1685560Y1894040D01*
G03X1710960Y1919440I0J25400D01*
G37*
G36*
G01X1737180Y4794080D02*
X1751550Y4808450D01*
X1730000Y4832540D01*
X1708450Y4808450D01*
X1722820Y4794080D01*
G03X1737180I7180J7180D01*
G37*
G36*
G01X1810840D02*
X1825210Y4808450D01*
X1803660Y4832540D01*
X1782110Y4808450D01*
X1796480Y4794080D01*
G03X1810840I7180J7180D01*
G37*
G36*
G01X1641620Y5411480D02*
X1629040Y5424040D01*
X1604320Y5402500D01*
X1629040Y5380960D01*
X1641620Y5393520D01*
G03Y5411480I-8980J8980D01*
G37*
G36*
G01X1694120Y5346480D02*
X1681540Y5359040D01*
X1656820Y5337500D01*
X1681540Y5315960D01*
X1694120Y5328520D01*
G03Y5346480I-8980J8980D01*
G37*
G36*
G01X1599680Y5889520D02*
X1620000D01*
X1621800Y5921800D01*
X1589520Y5920000D01*
Y5899680D01*
G03X1599680Y5889520I10160J0D01*
G37*
G36*
G01X1625280Y5562980D02*
X1607500D01*
X1605250Y5530250D01*
X1637980Y5532500D01*
Y5550280D01*
G03X1625280Y5562980I-12700J0D01*
G37*
G36*
G01X1677780Y5497980D02*
X1660000D01*
X1657750Y5465250D01*
X1690480Y5467500D01*
Y5485280D01*
G03X1677780Y5497980I-12700J0D01*
G37*
G36*
G01X2265060Y658500D02*
X2267570Y598940D01*
X2357080Y595600D01*
X2352500Y684950D01*
X2290440Y684970D01*
G03X2265060Y658500I0J-25402D01*
G37*
G36*
G01X2292940Y515030D02*
X2352500Y515040D01*
X2356990Y604490D01*
X2267550Y600000D01*
X2267540Y540430D01*
G03X2292940Y515030I25400J0D01*
G37*
G36*
G01X1987320Y591020D02*
X2038430Y539930D01*
X2101680Y600000D01*
X2038430Y660070D01*
X1987320Y608980D01*
G03Y591020I8980J-8980D01*
G37*
G36*
G01X2005230Y607430D02*
X1961920Y645720D01*
X1913020Y600000D01*
X1961920Y554280D01*
X2005230Y592570D01*
G03Y607430I-10300J7430D01*
G37*
G36*
G01X1958160Y4794080D02*
X1972530Y4808450D01*
X1950980Y4832540D01*
X1929430Y4808450D01*
X1943800Y4794080D01*
G03X1958160I7180J7180D01*
G37*
G36*
G01X2031820D02*
X2046190Y4808450D01*
X2024640Y4832540D01*
X2003090Y4808450D01*
X2017460Y4794080D01*
G03X2031820I7180J7180D01*
G37*
G36*
G01X1884500D02*
X1898870Y4808450D01*
X1877320Y4832540D01*
X1855770Y4808450D01*
X1870140Y4794080D01*
G03X1884500I7180J7180D01*
G37*
G36*
G01X2279890Y7076870D02*
X2267530Y7060490D01*
X2290160Y7037470D01*
X2311550Y7061550D01*
X2295180Y7077920D01*
G03X2279890Y7076870I-7188J-7181D01*
G37*
G36*
G01X2295180Y7665430D02*
X2341870Y7712120D01*
X2288000Y7768540D01*
X2234130Y7712120D01*
X2280820Y7665430D01*
G03X2295180I7180J7180D01*
G37*
G36*
G01X2608760Y200000D02*
Y1277880D01*
G03X2548810Y1560590I-144261J117120D01*
G01X2543260Y1563420D01*
Y1575750D01*
G02X2578040Y1590020I20319J-3D01*
G03X2665500Y1579140I50624J49981D01*
G03X2739160I36830J60860D01*
G03X2812820I36830J60860D01*
G03X2915430Y1612910I36832J60862D01*
G02X2948590Y1619540I18790J-7736D01*
G01X3030070Y1538060D01*
X3605070D01*
G02X3623940Y1510200I1J-20320D01*
G03X3756060I66060J-26400D01*
G02X3774930Y1538060I18869J7540D01*
G01X6680070D01*
X6778950Y1439180D01*
X6850220D01*
G03X6900450Y1561140I49780J50821D01*
G02X6890450Y1569890I61J10159D01*
G03X6887510Y1582450I-70455J-9868D01*
G02X6906790Y1609180I19280J6412D01*
G01X6940220D01*
G03X7061130Y1659110I49777J50822D01*
G02X7081450Y1679180I20320J-251D01*
G01X7488680D01*
G02X7508970Y1657740I1J-20320D01*
G03X7623870Y1709800I71030J-3941D01*
G02X7620820Y1738840I12532J15996D01*
G01Y1937210D01*
G02X7649770Y1955600I20319J-5D01*
G03Y2084400I30230J64400D01*
G02X7620820Y2102790I-8631J18395D01*
G01Y2271050D01*
X7561050Y2330820D01*
X7369780D01*
G03Y2229180I-49780J-50820D01*
G01X7518950D01*
X7519180Y2228950D01*
Y1950660D01*
X7289120D01*
X7240470Y1905820D01*
X6639530D01*
X6590880Y1950660D01*
X6340820D01*
Y3068570D01*
G02X6375510Y3082940I20320J4D01*
G01X6409270Y3049180D01*
X9070220D01*
G03X9189770Y3113910I49783J50820D01*
G02X9209690Y3138200I19927J3971D01*
G01X9428470D01*
X9490700Y3200430D01*
G02X9523940Y3193600I14370J-14367D01*
G03X9589750Y3148860I66060J26400D01*
G02X9610000Y3128540I-70J-20319D01*
G01Y2961050D01*
G02X9585890Y2941090I-20319J2D01*
G03Y2878910I-5890J-31090D01*
G02X9610000Y2858950I3791J-19962D01*
G01Y2561050D01*
G02X9585890Y2541090I-20319J2D01*
G03X9561320Y2535540I-5889J-31089D01*
G01X9554290Y2530390D01*
X9498950Y2585740D01*
X9341050D01*
X9284260Y2528950D01*
Y2381050D01*
X9341050Y2324260D01*
X9498950D01*
X9555740Y2381050D01*
Y2458190D01*
G02X9577600Y2478450I20319J-1D01*
G03X9585890Y2478910I2407J31550D01*
G02X9610000Y2458950I3791J-19962D01*
G01Y2060200D01*
G03X9560370Y2017310I63991J-124207D01*
G02X9527610Y2016920I-16523J11824D01*
G03X9339080Y1828390I-107610J-80920D01*
G02X9338690Y1795630I-12214J-16237D01*
G03X9334980Y1571120I81307J-113629D01*
G02Y1538880I-12364J-16120D01*
G03Y1317120I85020J-110880D01*
G02Y1284880I-12364J-16120D01*
G03X9291510Y1119120I85020J-110876D01*
G02X9272820Y1090820I-18687J-7980D01*
G01X8741050D01*
X8706820Y1125050D01*
Y1354220D01*
G03X8605180I-50820J49780D01*
G01Y1082950D01*
X8698950Y989180D01*
X9561050D01*
X9592660Y1020790D01*
G02X9610000Y1013600I7180J-7188D01*
G01Y990000D01*
X8820000Y200000D01*
X2608760D01*
G37*
G36*
G01X2790970Y1681520D02*
X2770650Y1668950D01*
X2774650Y1637840D01*
X2806470Y1640000D01*
Y1672880D01*
G03X2790970Y1681520I-10158J0D01*
G37*
G36*
G01X2717310D02*
X2696990Y1668950D01*
X2700990Y1637840D01*
X2732810Y1640000D01*
Y1672880D01*
G03X2717310Y1681520I-10158J0D01*
G37*
G36*
G01X2643650D02*
X2623330Y1668950D01*
X2627330Y1637840D01*
X2659150Y1640000D01*
Y1672880D01*
G03X2643650Y1681520I-10158J0D01*
G37*
G36*
G01X2552820Y4905920D02*
X2538450Y4891550D01*
X2560000Y4867460D01*
X2581550Y4891550D01*
X2567180Y4905920D01*
G03X2552820I-7180J-7180D01*
G37*
G36*
G01X2924080Y5182820D02*
X2938450Y5168450D01*
X2962540Y5190000D01*
X2938450Y5211550D01*
X2924080Y5197180D01*
G03Y5182820I7180J-7180D01*
G37*
G36*
G01X2711840Y6935920D02*
X2697470Y6921550D01*
X2719020Y6897460D01*
X2740570Y6921550D01*
X2726200Y6935920D01*
G03X2711840I-7180J-7180D01*
G37*
G36*
G01X2726200Y7073100D02*
X2741550Y7088450D01*
X2720080Y7112540D01*
X2697980Y7088960D01*
X2711360Y7073600D01*
G03X2726200Y7073100I7654J6681D01*
G37*
G36*
G01X2785500Y6935920D02*
X2771130Y6921550D01*
X2792680Y6897460D01*
X2814230Y6921550D01*
X2799860Y6935920D01*
G03X2785500I-7180J-7180D01*
G37*
G36*
G01X2932820D02*
X2918450Y6921550D01*
X2940000Y6897460D01*
X2961550Y6921550D01*
X2947180Y6935920D01*
G03X2932820I-7180J-7180D01*
G37*
G36*
G01X2862820Y6939580D02*
X2844790Y6921550D01*
X2866050Y6897480D01*
X2889440Y6919550D01*
X2878740Y6937590D01*
G03X2862820Y6939580I-8733J-5191D01*
G37*
G36*
G01X2560710Y6935940D02*
X2546340Y6921570D01*
X2567890Y6897480D01*
X2589440Y6921570D01*
X2575070Y6935940D01*
G03X2560710I-7180J-7180D01*
G37*
G36*
G01X2634370Y6935270D02*
X2620000Y6920900D01*
X2641550Y6896810D01*
X2663100Y6920900D01*
X2648730Y6935270D01*
G03X2634370I-7180J-7180D01*
G37*
G36*
G01X2649460Y7003340D02*
X2662280Y7019260D01*
X2639870Y7042540D01*
X2618450Y7018450D01*
X2634370Y7002530D01*
G03X2649460Y7003340I7181J7183D01*
G37*
G36*
G01X5598290Y5355820D02*
G02X5578680Y5381440I5J20318D01*
G03X5459260Y5449860I-68677J18559D01*
G01X4351140D01*
Y5460020D01*
G03X4330820Y5509780I-71140J-22D01*
G01Y5910220D01*
G03Y6009780I-50820J49780D01*
G01Y6670220D01*
G03X4349640Y6734550I-50818J49785D01*
G02X4369530Y6759030I19888J4162D01*
G01X4679090D01*
X5398940Y6039180D01*
X5665780D01*
G03Y6140820I49780J50820D01*
G01X5441040D01*
X5417370Y6164490D01*
G02X5431740Y6199180I14366J14370D01*
G01X5440070D01*
X5442950Y6196640D01*
G03X5545100Y6295000I47052J53358D01*
G03Y6385000I-55100J45000D01*
G03X5498370Y6500650I-55099J45002D01*
G02X5484190Y6532590I2387J20177D01*
G03X5358410Y6595390I-57995J41205D01*
G02X5324680Y6587190I-19360J6164D01*
G01X4936610Y6975260D01*
X3043680D01*
X3004080Y6935660D01*
X2996460Y6943290D01*
X2996070Y6943780D01*
G03X2990820Y6949780I-56078J-43772D01*
G01Y7270220D01*
G03X2868870Y7321130I-50820J49781D01*
G03X2799550Y7259890I1129J-71131D01*
G02X2789550Y7251140I-10061J1409D01*
G03X2718870Y7181130I451J-71139D01*
G03X2649550Y7119890I1129J-71131D01*
G02X2639550Y7111140I-10061J1409D01*
G01X2639250D01*
G02X2618710Y7131450I-222J20317D01*
G01Y7613010D01*
G03X2626510Y7629910I-50818J33705D01*
G01X2643690Y7689870D01*
X2644750Y7691320D01*
G03X2651490Y7701600I-102733J74706D01*
G02X2686510I17510J-10299D01*
G03X2907980Y7706050I109486J64399D01*
G02X2943620Y7706390I17913J-9592D01*
G03X3130690Y7857430I106376J59616D01*
G02X3144130Y7892980I13447J15232D01*
G01X3177020D01*
Y8160000D01*
X5351320D01*
G02X5369440Y8130480I0J-20321D01*
G03X5655440Y7925990I158565J-80475D01*
G01X5655490Y7926040D01*
X5726110Y7996640D01*
X5735330D01*
X5772680Y7963620D01*
X6047320D01*
X6088500Y8000030D01*
X6162510Y7926040D01*
X6162560Y7925990D01*
G03X6448560Y8130480I127435J124015D01*
G02X6466680Y8160000I18120J9199D01*
G01X6841320D01*
G02X6859440Y8130480I0J-20321D01*
G03X7032310Y7872760I158563J-80479D01*
G02X7054260Y7852500I1629J-20255D01*
G01Y7521050D01*
X7101050Y7474260D01*
X7208950D01*
X7255740Y7521050D01*
Y7763620D01*
X7570180D01*
Y7911120D01*
X7536680Y7949010D01*
X7553720Y7978130D01*
X7578500Y8000030D01*
X7652510Y7926040D01*
X7652560Y7925990D01*
G03X7938560Y8130480I127435J124015D01*
G02X7956680Y8160000I18120J9199D01*
G01X8239280D01*
Y7870280D01*
X8518720D01*
Y7886780D01*
G02X8551360Y7902930I20318J-6D01*
G03X8743350Y7932850I81641J107068D01*
G02X8776650I16650J-11639D01*
G03X8994610Y7929080I110347J77149D01*
G02X9027370Y7928690I16237J-12214D01*
G03X9157310Y7871240I113621J81314D01*
G02X9180000Y7851050I2369J-20183D01*
G01Y7760000D01*
X9430000Y7510000D01*
X9461050D01*
G02X9481240Y7487310I7J-20321D01*
G03X9757110Y7497890I138764J-16313D01*
G01X9756920Y7498850D01*
Y7510000D01*
X9780000D01*
X9850000Y7440000D01*
Y6390250D01*
G02X9814480Y6376760I-20321J-1D01*
G03X9588770Y6353460I-104482J-92762D01*
G02X9550820Y6363560I-17630J10104D01*
G01Y6567950D01*
X9552150Y6569280D01*
X9620000D01*
G03X9701310Y6822630I0J139723D01*
G02X9700920Y6855390I11824J16523D01*
G03X9539080I-80920J107610D01*
G02X9538690Y6822630I-12214J-16237D01*
G03X9525900Y6812280I81346J-113601D01*
G02X9493100Y6820390I-13690J15017D01*
G03X9452470Y6730090I-66900J-24189D01*
G02X9480290Y6710930I7503J-18883D01*
G03X9480280Y6709000I139711J-1689D01*
G01Y6641150D01*
X9449180Y6610050D01*
Y5521050D01*
X9378950Y5450820D01*
X9265740D01*
Y5668950D01*
X9208950Y5725740D01*
X9081050D01*
X9024260Y5668950D01*
Y5450820D01*
X5859780D01*
G03X5741320Y5381440I-49783J-50820D01*
G02X5721710Y5355820I-19615J-5302D01*
G01X5598290D01*
G37*
G36*
G01X2801060Y7142830D02*
X2812740Y7159890D01*
X2789780Y7182530D01*
X2768450Y7158450D01*
X2785500Y7141400D01*
G03X2801060Y7142830I7186J7181D01*
G37*
G36*
G01X2947180Y7284080D02*
X2961550Y7298450D01*
X2940000Y7322540D01*
X2918450Y7298450D01*
X2932820Y7284080D01*
G03X2947180I7180J7180D01*
G37*
G36*
G01X2877180Y7214080D02*
X2891550Y7228450D01*
X2870000Y7252540D01*
X2848450Y7228450D01*
X2862820Y7214080D01*
G03X2877180I7180J7180D01*
G37*
G36*
G01X2577660Y7643920D02*
X2598460Y7716500D01*
X2541460Y7768480D01*
X2488130Y7712120D01*
X2560710Y7639540D01*
G03X2577660Y7643920I7185J7182D01*
G37*
G36*
G01X3094340Y1817460D02*
G02X3059650Y1803090I-20320J-4D01*
G01X3047150Y1815590D01*
Y2772970D01*
X3025630Y2794490D01*
G02X3040000Y2829180I14366J14370D01*
G01X4101050D01*
X4194490Y2922620D01*
G02X4229180Y2908250I14370J-14366D01*
G01Y2048950D01*
X4292780Y1985350D01*
G02X4278410Y1950660I-14366J-14370D01*
G01X4069120D01*
X4020470Y1905820D01*
X3419530D01*
X3370880Y1950660D01*
X3094340D01*
Y1817460D01*
G37*
G36*
G01X3407710Y1861420D02*
X3355000Y1910000D01*
X3242460Y1855000D01*
X3355000Y1800000D01*
X3407710Y1848580D01*
G03Y1861420I-7880J6420D01*
G37*
G36*
G01X4051450Y2930820D02*
G02X4031130Y2950890I0J20321D01*
G03X3910220Y3000820I-71133J-892D01*
G01X3041050D01*
X3020820Y3021050D01*
Y3076940D01*
X3420360D01*
X3468000Y3124580D01*
X3469660Y3125340D01*
G03X3506690Y3214750I-29663J64658D01*
G01X3506060Y3216460D01*
Y3219560D01*
X3503480Y3222140D01*
X3502770Y3223470D01*
G03X3473470Y3252770I-62770J-33470D01*
G01X3472140Y3253480D01*
X3457440Y3268180D01*
X3466020Y3276760D01*
X3467830Y3277530D01*
G03X3508240Y3363110I-27829J65471D01*
G02X3527730Y3389180I19488J5751D01*
G01X3646990D01*
X3658080Y3388000D01*
X3659630Y3387270D01*
G03X3759370Y3467360I30369J64331D01*
G02X3779190Y3492180I19816J4500D01*
G01X4195950D01*
X4215730Y3472400D01*
X4202480Y3457060D01*
G03X4109180Y3350220I-42473J-57068D01*
G01Y2981050D01*
X4058950Y2930820D01*
X4051450D01*
G37*
G36*
G01X3404080Y3335820D02*
X3418450Y3321450D01*
X3442540Y3343000D01*
X3418450Y3364550D01*
X3404080Y3350180D01*
G03Y3335820I7180J-7180D01*
G37*
G36*
G01X3924080Y2942820D02*
X3938450Y2928450D01*
X3962540Y2950000D01*
X3938450Y2971550D01*
X3924080Y2957180D01*
G03Y2942820I7180J-7180D01*
G37*
G36*
G01X3655920Y3837180D02*
X3641550Y3851550D01*
X3617460Y3830000D01*
X3641550Y3808450D01*
X3655920Y3822820D01*
G03Y3837180I-7180J7180D01*
G37*
G36*
G01X3648580Y3429900D02*
X3674550Y3427140D01*
X3692440Y3452300D01*
X3668450Y3473150D01*
X3642480Y3447180D01*
G03X3648580Y3429900I7184J-7181D01*
G37*
G36*
G01X3669780Y3880820D02*
G03X3635460Y3899440I-49782J-50819D01*
G02X3625510Y3933640I4420J19833D01*
G01X3771050Y4079180D01*
X4581050D01*
X4670000Y4168130D01*
X4759180Y4078950D01*
Y3921450D01*
G02X4739110Y3901130I-20321J0D01*
G03X4690220Y3880820I886J-71133D01*
G01X3669780D01*
G37*
G36*
G01X3847670Y4215510D02*
X4001340Y4369180D01*
X4228750D01*
G02X4249020Y4350220I-4J-20319D01*
G03X4390980I70980J4780D01*
G02X4411250Y4369180I20274J-1359D01*
G01X4598950D01*
X4636090Y4332040D01*
G02X4632440Y4300420I-14374J-14361D01*
G03X4599000Y4244460I37561J-60417D01*
G01X4598760Y4240630D01*
X4538950Y4180820D01*
X3862040D01*
G02X3847670Y4215510I-4J20320D01*
G37*
G36*
G01X5814190Y5161890D02*
G03X5880540Y5084000I70807J-6888D01*
G01X5884370Y5083760D01*
X5928950Y5039180D01*
X6078950D01*
X6160140Y4957990D01*
Y3685790D01*
G02X6125450Y3671420I-20320J-4D01*
G01X5641240Y4155630D01*
X5641000Y4159460D01*
G03X5566370Y4226050I-71001J-4458D01*
G02X5545010Y4246340I-1041J20292D01*
G01Y4806860D01*
X5268050Y5083820D01*
X4011050D01*
X3781340Y5313530D01*
G02X3795710Y5348220I14366J14370D01*
G01X4556450D01*
G02X4576130Y5322810I6J-20321D01*
G03X4694780Y5254180I68873J-17808D01*
G01X5493550D01*
G02X5513870Y5234110I0J-20321D01*
G03X5634780Y5184180I71133J892D01*
G01X5793970D01*
G02X5814190Y5161890I-2J-20318D01*
G37*
G36*
G01X3530830Y5406220D02*
X3505500Y5431550D01*
X3481500Y5410680D01*
X3499670Y5385570D01*
X3525010Y5388970D01*
G03X3530830Y5406220I-1363J10067D01*
G37*
G36*
G01X4357710Y1861420D02*
X4305000Y1910000D01*
X4192460Y1855000D01*
X4305000Y1800000D01*
X4357710Y1848580D01*
G03Y1861420I-7880J6420D01*
G37*
G36*
G01X4032290Y1848580D02*
X4085000Y1800000D01*
X4197540Y1855000D01*
X4085000Y1910000D01*
X4032290Y1861420D01*
G03Y1848580I7880J-6420D01*
G37*
G36*
G01X4425920Y3287180D02*
X4411550Y3301550D01*
X4387460Y3280000D01*
X4411550Y3258450D01*
X4425920Y3272820D01*
G03Y3287180I-7180J7180D01*
G37*
G36*
G01X4167180Y3364080D02*
X4181550Y3378450D01*
X4160000Y3402540D01*
X4138450Y3378450D01*
X4152820Y3364080D01*
G03X4167180I7180J7180D01*
G37*
G36*
G01X4425920Y3407180D02*
X4411550Y3421550D01*
X4387460Y3400000D01*
X4411550Y3378450D01*
X4425920Y3392820D01*
G03Y3407180I-7180J7180D01*
G37*
G36*
G01X4272820Y5495920D02*
X4258450Y5481550D01*
X4280000Y5457460D01*
X4301550Y5481550D01*
X4287180Y5495920D01*
G03X4272820I-7180J-7180D01*
G37*
G36*
G01X4072820D02*
X4058450Y5481550D01*
X4080000Y5457460D01*
X4101550Y5481550D01*
X4087180Y5495920D01*
G03X4072820I-7180J-7180D01*
G37*
G36*
G01X4172820Y5545920D02*
X4158450Y5531550D01*
X4180000Y5507460D01*
X4201550Y5531550D01*
X4187180Y5545920D01*
G03X4172820I-7180J-7180D01*
G37*
G36*
G01X4187180Y5994080D02*
X4201550Y6008450D01*
X4180000Y6032540D01*
X4158450Y6008450D01*
X4172820Y5994080D01*
G03X4187180I7180J7180D01*
G37*
G36*
G01X4287180Y5924080D02*
X4301550Y5938450D01*
X4280000Y5962540D01*
X4258450Y5938450D01*
X4272820Y5924080D01*
G03X4287180I7180J7180D01*
G37*
G36*
G01X4272820Y5995920D02*
X4258450Y5981550D01*
X4280000Y5957460D01*
X4301550Y5981550D01*
X4287180Y5995920D01*
G03X4272820I-7180J-7180D01*
G37*
G36*
G01X4172820Y6065920D02*
X4158450Y6051550D01*
X4180000Y6027460D01*
X4201550Y6051550D01*
X4187180Y6065920D01*
G03X4172820I-7180J-7180D01*
G37*
G36*
G01X4187180Y6684080D02*
X4201550Y6698450D01*
X4180000Y6722540D01*
X4158450Y6698450D01*
X4172820Y6684080D01*
G03X4187180I7180J7180D01*
G37*
G36*
G01X4287180D02*
X4301550Y6698450D01*
X4280000Y6722540D01*
X4258450Y6698450D01*
X4272820Y6684080D01*
G03X4287180I7180J7180D01*
G37*
G36*
G01X4789520Y2110320D02*
Y2090000D01*
X4821800Y2088200D01*
X4820000Y2120480D01*
X4799680D01*
G03X4789520Y2110320I0J-10160D01*
G37*
G36*
G01X4792720Y2207120D02*
Y2186800D01*
X4825000Y2185000D01*
X4823200Y2217280D01*
X4802880D01*
G03X4792720Y2207120I0J-10160D01*
G37*
G36*
G01X5017710Y1861420D02*
X4965000Y1910000D01*
X4852460Y1855000D01*
X4965000Y1800000D01*
X5017710Y1848580D01*
G03Y1861420I-7880J6420D01*
G37*
G36*
G01X4789520Y2300320D02*
Y2280000D01*
X4821800Y2278200D01*
X4820000Y2310480D01*
X4799680D01*
G03X4789520Y2300320I0J-10160D01*
G37*
G36*
G01Y2390320D02*
Y2370000D01*
X4821800Y2368200D01*
X4820000Y2400480D01*
X4799680D01*
G03X4789520Y2390320I0J-10160D01*
G37*
G36*
G01X4840320Y2490480D02*
X4820000D01*
X4818200Y2458200D01*
X4850480Y2460000D01*
Y2480320D01*
G03X4840320Y2490480I-10160J0D01*
G37*
G36*
G01X4930320D02*
X4910000D01*
X4908200Y2458200D01*
X4940480Y2460000D01*
Y2480320D01*
G03X4930320Y2490480I-10160J0D01*
G37*
G36*
G01X5030320D02*
X5010000D01*
X5008200Y2458200D01*
X5040480Y2460000D01*
Y2480320D01*
G03X5030320Y2490480I-10160J0D01*
G37*
G36*
G01X4594080Y3272820D02*
X4608450Y3258450D01*
X4632540Y3280000D01*
X4608450Y3301550D01*
X4594080Y3287180D01*
G03Y3272820I7180J-7180D01*
G37*
G36*
G01X4704080Y3822820D02*
X4718450Y3808450D01*
X4742540Y3830000D01*
X4718450Y3851550D01*
X4704080Y3837180D01*
G03Y3822820I7180J-7180D01*
G37*
G36*
G01X4701090Y3735820D02*
X4718450Y3718460D01*
X4742530Y3739770D01*
X4720070Y3762870D01*
X4702700Y3751500D01*
G03X4701090Y3735820I5571J-8495D01*
G37*
G36*
G01X4747180Y3614080D02*
X4761550Y3628450D01*
X4740000Y3652540D01*
X4718450Y3628450D01*
X4732820Y3614080D01*
G03X4747180I7180J7180D01*
G37*
G36*
G01X4649680Y4209520D02*
X4670000D01*
X4671800Y4241800D01*
X4639520Y4240000D01*
Y4219680D01*
G03X4649680Y4209520I10160J0D01*
G37*
G36*
G01X4700480Y4219680D02*
Y4240000D01*
X4668200Y4241800D01*
X4670000Y4209520D01*
X4690320D01*
G03X4700480Y4219680I0J10160D01*
G37*
G36*
G01X4704520Y4325320D02*
Y4305000D01*
X4736800Y4303200D01*
X4735000Y4335480D01*
X4714680D01*
G03X4704520Y4325320I0J-10160D01*
G37*
G36*
G01X4765480Y4284680D02*
Y4305000D01*
X4733200Y4306800D01*
X4735000Y4274520D01*
X4755320D01*
G03X4765480Y4284680I0J10160D01*
G37*
G36*
G01X4830480Y4369680D02*
Y4390000D01*
X4798200Y4391800D01*
X4800000Y4359520D01*
X4820320D01*
G03X4830480Y4369680I0J10160D01*
G37*
G36*
G01X4769520Y4410320D02*
Y4390000D01*
X4801800Y4388200D01*
X4800000Y4420480D01*
X4779680D01*
G03X4769520Y4410320I0J-10160D01*
G37*
G36*
G01X4839520Y4470320D02*
Y4450000D01*
X4871800Y4448200D01*
X4870000Y4480480D01*
X4849680D01*
G03X4839520Y4470320I0J-10160D01*
G37*
G36*
G01X4900480Y4429680D02*
Y4450000D01*
X4868200Y4451800D01*
X4870000Y4419520D01*
X4890320D01*
G03X4900480Y4429680I0J10160D01*
G37*
G36*
G01X4834080Y4532820D02*
X4848450Y4518450D01*
X4872540Y4540000D01*
X4848450Y4561550D01*
X4834080Y4547180D01*
G03Y4532820I7180J-7180D01*
G37*
G36*
G01X4900480Y4519680D02*
Y4540000D01*
X4868200Y4541800D01*
X4870000Y4509520D01*
X4890320D01*
G03X4900480Y4519680I0J10160D01*
G37*
G36*
G01X4884080Y4602820D02*
X4918450Y4568450D01*
X4942350Y4589040D01*
X4920000Y4610000D01*
X4891260D01*
X4884080Y4602820D01*
G37*
G36*
G01X4970480Y4569680D02*
Y4590000D01*
X4938200Y4591800D01*
X4940000Y4559520D01*
X4960320D01*
G03X4970480Y4569680I0J10160D01*
G37*
G36*
G01X4963120Y4643780D02*
X4988450Y4618450D01*
X5012450Y4639320D01*
X4994280Y4664430D01*
X4968940Y4661030D01*
G03X4963120Y4643780I1363J-10067D01*
G37*
G36*
G01X5040480Y4619680D02*
Y4640000D01*
X5008200Y4641800D01*
X5010000Y4609520D01*
X5030320D01*
G03X5040480Y4619680I0J10160D01*
G37*
G36*
G01X5039080Y4697820D02*
X5053450Y4683450D01*
X5077540Y4705000D01*
X5053450Y4726550D01*
X5039080Y4712180D01*
G03Y4697820I7180J-7180D01*
G37*
G36*
G01X5090000Y4661260D02*
Y4690000D01*
X5074180Y4707400D01*
X5053450Y4683450D01*
X5082820Y4654080D01*
X5090000Y4661260D01*
G37*
G36*
G01X4680920Y5312180D02*
X4666550Y5326550D01*
X4642460Y5305000D01*
X4666550Y5283450D01*
X4680920Y5297820D01*
G03Y5312180I-7180J7180D01*
G37*
G36*
G01X5643620Y2954510D02*
Y2174510D01*
X5728950Y2089180D01*
X5918310D01*
X5919510Y2080390D01*
G03X5920830Y2073360I70492J9597D01*
G01X5921120Y2072190D01*
Y2060820D01*
X5521450D01*
G02X5501130Y2080890I0J20321D01*
G03X5479820Y2130780I-71132J-887D01*
G01X5479790Y2130810D01*
X5470820Y2139780D01*
Y2760220D01*
G03X5491000Y2805540I-50820J49782D01*
G01X5491240Y2809370D01*
X5540820Y2858950D01*
Y3021340D01*
X5478540Y3083620D01*
G02X5478760Y3098200I7185J7183D01*
G03X5481920Y3101370I-48777J51783D01*
G01X5482040Y3101490D01*
X5489340Y3108790D01*
X5643620Y2954510D01*
G37*
G36*
G01X5170000Y2120530D02*
X5165640Y2096160D01*
X5190630Y2077540D01*
X5211550Y2101550D01*
X5187180Y2125920D01*
G03X5170000Y2120530I-7182J-7183D01*
G37*
G36*
G01X5250520Y2120280D02*
X5245680Y2096390D01*
X5270610Y2077540D01*
X5291550Y2101550D01*
X5267660Y2125440D01*
G03X5250520Y2120280I-7184J-7182D01*
G37*
G36*
G01X5342820Y2115920D02*
X5328450Y2101550D01*
X5350000Y2077460D01*
X5371550Y2101550D01*
X5357180Y2115920D01*
G03X5342820I-7180J-7180D01*
G37*
G36*
G01X5410000Y2120530D02*
X5405640Y2096160D01*
X5430630Y2077540D01*
X5451550Y2101550D01*
X5427180Y2125920D01*
G03X5410000Y2120530I-7182J-7183D01*
G37*
G36*
G01X5090000Y2508740D02*
Y2480000D01*
X5110960Y2457650D01*
X5131550Y2481550D01*
X5097180Y2515920D01*
X5090000Y2508740D01*
G37*
G36*
G01X5427180Y2774080D02*
X5441550Y2788450D01*
X5420000Y2812540D01*
X5398450Y2788450D01*
X5412820Y2774080D01*
G03X5427180I7180J7180D01*
G37*
G36*
G01X5520480Y3249680D02*
Y3270000D01*
X5488200Y3271800D01*
X5490000Y3239520D01*
X5510320D01*
G03X5520480Y3249680I0J10160D01*
G37*
G36*
G01X5187180Y2954080D02*
X5201550Y2968450D01*
X5180000Y2992540D01*
X5158450Y2968450D01*
X5172820Y2954080D01*
G03X5187180I7180J7180D01*
G37*
G36*
G01X5172820Y3025920D02*
X5158450Y3011550D01*
X5180000Y2987460D01*
X5201550Y3011550D01*
X5187180Y3025920D01*
G03X5172820I-7180J-7180D01*
G37*
G36*
G01X5430480Y3249680D02*
Y3270000D01*
X5398200Y3271800D01*
X5400000Y3239520D01*
X5420320D01*
G03X5430480Y3249680I0J10160D01*
G37*
G36*
G01X5239960Y2941270D02*
X5236080Y2916420D01*
X5261140Y2898030D01*
X5282030Y2922030D01*
X5257180Y2946880D01*
G03X5239960Y2941270I-7184J-7183D01*
G37*
G36*
G01X5267660Y2864560D02*
X5282030Y2878930D01*
X5260480Y2903020D01*
X5238930Y2878930D01*
X5253300Y2864560D01*
G03X5267660I7180J7180D01*
G37*
G36*
G01X5412820Y2945920D02*
X5398450Y2931550D01*
X5420000Y2907460D01*
X5441550Y2931550D01*
X5427180Y2945920D01*
G03X5412820I-7180J-7180D01*
G37*
G36*
G01X5399680Y2879520D02*
X5420000D01*
X5421800Y2911800D01*
X5389520Y2910000D01*
Y2889680D01*
G03X5399680Y2879520I10160J0D01*
G37*
G36*
G01X5440320Y2840480D02*
X5420000D01*
X5418200Y2808200D01*
X5450480Y2810000D01*
Y2830320D01*
G03X5440320Y2840480I-10160J0D01*
G37*
G36*
G01X5425920Y3637180D02*
X5411550Y3651550D01*
X5387460Y3630000D01*
X5411550Y3608450D01*
X5425920Y3622820D01*
G03Y3637180I-7180J7180D01*
G37*
G36*
G01X5464520Y3855320D02*
Y3835000D01*
X5496800Y3833200D01*
X5495000Y3865480D01*
X5474680D01*
G03X5464520Y3855320I0J-10160D01*
G37*
G36*
G01X5525480Y3814680D02*
Y3835000D01*
X5493200Y3836800D01*
X5495000Y3804520D01*
X5515320D01*
G03X5525480Y3814680I0J10160D01*
G37*
G36*
G01X5464520Y3945320D02*
Y3925000D01*
X5496800Y3923200D01*
X5495000Y3955480D01*
X5474680D01*
G03X5464520Y3945320I0J-10160D01*
G37*
G36*
G01X5525480Y3904680D02*
Y3925000D01*
X5493200Y3926800D01*
X5495000Y3894520D01*
X5515320D01*
G03X5525480Y3904680I0J10160D01*
G37*
G36*
G01X5456230Y4032470D02*
X5465430Y4012160D01*
X5497090Y4014900D01*
X5495000Y4046820D01*
X5465490D01*
G03X5456230Y4032470I0J-10163D01*
G37*
G36*
G01X5525480Y3996020D02*
Y4016340D01*
X5493200Y4018140D01*
X5495000Y3985860D01*
X5515320D01*
G03X5525480Y3996020I0J10160D01*
G37*
G36*
G01X5487010Y4130100D02*
X5472640Y4115730D01*
X5494190Y4091640D01*
X5515740Y4115730D01*
X5501370Y4130100D01*
G03X5487010I-7180J-7180D01*
G37*
G36*
G01X5534960Y4078910D02*
X5523320Y4099220D01*
X5492050Y4095540D01*
X5494190Y4063700D01*
X5526140D01*
G03X5534960Y4078910I0J10162D01*
G37*
G36*
G01X5600480Y4134680D02*
Y4155000D01*
X5568200Y4156800D01*
X5570000Y4124520D01*
X5590320D01*
G03X5600480Y4134680I0J10160D01*
G37*
G36*
G01X5473610Y5391390D02*
X5488950Y5377990D01*
X5512540Y5400080D01*
X5488450Y5421550D01*
X5473120Y5406220D01*
G03X5473610Y5391390I7181J-7186D01*
G37*
G36*
G01X5620920Y5242180D02*
X5606550Y5256550D01*
X5582460Y5235000D01*
X5606550Y5213450D01*
X5620920Y5227820D01*
G03Y5242180I-7180J7180D01*
G37*
G36*
G01X5454080Y6242820D02*
X5468450Y6228450D01*
X5492540Y6250000D01*
X5468450Y6271550D01*
X5454080Y6257180D01*
G03Y6242820I7180J-7180D01*
G37*
G36*
G01Y6332820D02*
X5468450Y6318450D01*
X5492540Y6340000D01*
X5468450Y6361550D01*
X5454080Y6347180D01*
G03Y6332820I7180J-7180D01*
G37*
G36*
G01Y6422820D02*
X5468450Y6408450D01*
X5492540Y6430000D01*
X5468450Y6451550D01*
X5454080Y6437180D01*
G03Y6422820I7180J-7180D01*
G37*
G36*
G01X5698620Y8058980D02*
X5617790Y8139790D01*
X5524820Y8050000D01*
X5617790Y7960210D01*
X5698620Y8041020D01*
G03Y8058980I-8980J8980D01*
G37*
G36*
G01X6039520Y2120320D02*
Y2090000D01*
X6071410Y2087890D01*
X6074480Y2119430D01*
X6054170Y2129440D01*
G03X6039520Y2120320I-4486J-9120D01*
G37*
G36*
G01X5959520Y1960320D02*
Y1940000D01*
X5991800Y1938200D01*
X5990000Y1970480D01*
X5969680D01*
G03X5959520Y1960320I0J-10160D01*
G37*
G36*
G01Y2110320D02*
Y2090000D01*
X5991800Y2088200D01*
X5990000Y2120480D01*
X5969680D01*
G03X5959520Y2110320I0J-10160D01*
G37*
G36*
G01X6157180Y2224080D02*
X6171550Y2238450D01*
X6150000Y2262540D01*
X6128450Y2238450D01*
X6142820Y2224080D01*
G03X6157180I7180J7180D01*
G37*
G36*
G01X5967710Y1861420D02*
X5915000Y1910000D01*
X5802460Y1855000D01*
X5915000Y1800000D01*
X5967710Y1848580D01*
G03Y1861420I-7880J6420D01*
G37*
G36*
G01X5642290Y1848580D02*
X5695000Y1800000D01*
X5807540Y1855000D01*
X5695000Y1910000D01*
X5642290Y1861420D01*
G03Y1848580I7880J-6420D01*
G37*
G36*
G01X5792820Y2295920D02*
X5778450Y2281550D01*
X5800000Y2257460D01*
X5821550Y2281550D01*
X5807180Y2295920D01*
G03X5792820I-7180J-7180D01*
G37*
G36*
G01X5882820D02*
X5868450Y2281550D01*
X5890000Y2257460D01*
X5911550Y2281550D01*
X5897180Y2295920D01*
G03X5882820I-7180J-7180D01*
G37*
G36*
G01X5972820D02*
X5958450Y2281550D01*
X5980000Y2257460D01*
X6001550Y2281550D01*
X5987180Y2295920D01*
G03X5972820I-7180J-7180D01*
G37*
G36*
G01X6062820D02*
X6048450Y2281550D01*
X6070000Y2257460D01*
X6091550Y2281550D01*
X6077180Y2295920D01*
G03X6062820I-7180J-7180D01*
G37*
G36*
G01X6142820D02*
X6128450Y2281550D01*
X6150000Y2257460D01*
X6171550Y2281550D01*
X6157180Y2295920D01*
G03X6142820I-7180J-7180D01*
G37*
G36*
G01X5722820Y3215920D02*
X5708450Y3201550D01*
X5730000Y3177460D01*
X5751550Y3201550D01*
X5737180Y3215920D01*
G03X5722820I-7180J-7180D01*
G37*
G36*
G01X5845920Y5407180D02*
X5831550Y5421550D01*
X5807460Y5400000D01*
X5831550Y5378450D01*
X5845920Y5392820D01*
G03Y5407180I-7180J7180D01*
G37*
G36*
G01X6010920Y5162180D02*
X5996550Y5176550D01*
X5972460Y5155000D01*
X5996550Y5133450D01*
X6010920Y5147820D01*
G03Y5162180I-7180J7180D01*
G37*
G36*
G01X5915480Y5134680D02*
Y5155000D01*
X5883200Y5156800D01*
X5885000Y5124520D01*
X5905320D01*
G03X5915480Y5134680I0J10160D01*
G37*
G36*
G01X5679640Y6082820D02*
X5694010Y6068450D01*
X5718100Y6090000D01*
X5694010Y6111550D01*
X5679640Y6097180D01*
G03Y6082820I7180J-7180D01*
G37*
G36*
G01X6119380Y8041020D02*
X6200210Y7960210D01*
X6293180Y8050000D01*
X6200210Y8139790D01*
X6119380Y8058980D01*
G03Y8041020I8980J-8980D01*
G37*
G36*
G01X6075230Y8057430D02*
X6031920Y8095720D01*
X5983020Y8050000D01*
X6031920Y8004280D01*
X6075230Y8042570D01*
G03Y8057430I-10300J7430D01*
G37*
G36*
G01X5744770Y8042570D02*
X5788080Y8004280D01*
X5836980Y8050000D01*
X5788080Y8095720D01*
X5744770Y8057430D01*
G03Y8042570I10300J-7430D01*
G37*
G36*
G01X6313070Y1849170D02*
X6355000Y1807010D01*
X6467540Y1855000D01*
X6355000Y1902990D01*
X6313070Y1860830D01*
G03Y1849170I8320J-5830D01*
G37*
G36*
G01X6627710Y1861420D02*
X6575000Y1910000D01*
X6462460Y1855000D01*
X6575000Y1800000D01*
X6627710Y1848580D01*
G03Y1861420I-7880J6420D01*
G37*
G36*
G01X6460820Y3150820D02*
Y3928550D01*
G02X6480890Y3948870I20321J0D01*
G03X6529780Y3969180I-886J71133D01*
G01X8311050D01*
X8500630Y4158760D01*
X8504460Y4159000D01*
G03X8451410Y4281960I-4460J71000D01*
G02X8423090Y4282520I-13872J14847D01*
G03X8301500Y4236960I-50589J-50018D01*
G01X8301260Y4233130D01*
X8228950Y4160820D01*
X6529780D01*
G03X6480890Y4181130I-49776J-50823D01*
G02X6460820Y4201450I251J20320D01*
G01Y5131050D01*
X6277380Y5314490D01*
G02X6291750Y5349180I14366J14370D01*
G01X9421050D01*
X9550820Y5478950D01*
Y5696440D01*
G02X9588770Y5706540I20320J-4D01*
G03X9814480Y5683240I121228J69462D01*
G02X9850000Y5669750I15199J-13489D01*
G01Y5410000D01*
X9630000Y5190000D01*
Y4932650D01*
G02X9598070Y4915970I-20320J-3D01*
G03X9583690Y4921420I-18066J-25973D01*
G02X9565740Y4941610I2371J20182D01*
G01Y5048950D01*
X9508950Y5105740D01*
X9311050D01*
X9264260Y5058950D01*
Y4578950D01*
X9224260Y4538950D01*
Y4351050D01*
X9301050Y4274260D01*
X9538950D01*
X9605740Y4341050D01*
Y4471390D01*
X9607170Y4473790D01*
G03X9610160Y4480430I-27163J16225D01*
G01X9612410Y4487510D01*
X9630000D01*
Y4180000D01*
X9673690Y4136310D01*
G02X9659320Y4101620I-14366J-14370D01*
G01X9503180D01*
X9480050Y3963520D01*
X8977350Y3460820D01*
X8629780D01*
G03X8519140Y3373170I-49775J-50824D01*
G03Y3299510I60860J-36830D01*
G03Y3225850I60860J-36830D01*
G03X8510230Y3175110I60858J-36839D01*
G02X8490310Y3150820I-19927J-3971D01*
G01X6460820D01*
G37*
G36*
G01X6515920Y4117180D02*
X6501550Y4131550D01*
X6477460Y4110000D01*
X6501550Y4088450D01*
X6515920Y4102820D01*
G03Y4117180I-7180J7180D01*
G37*
G36*
G01Y4027180D02*
X6501550Y4041550D01*
X6477460Y4020000D01*
X6501550Y3998450D01*
X6515920Y4012820D01*
G03Y4027180I-7180J7180D01*
G37*
G36*
G01X6864080Y1482820D02*
X6878450Y1468450D01*
X6902540Y1490000D01*
X6878450Y1511550D01*
X6864080Y1497180D01*
G03Y1482820I7180J-7180D01*
G37*
G36*
G01X6789520Y1580320D02*
Y1560000D01*
X6821800Y1558200D01*
X6820000Y1590480D01*
X6799680D01*
G03X6789520Y1580320I0J-10160D01*
G37*
G36*
G01X6954080Y1652820D02*
X6968450Y1638450D01*
X6992540Y1660000D01*
X6968450Y1681550D01*
X6954080Y1667180D01*
G03Y1652820I7180J-7180D01*
G37*
G36*
G01X7100000Y7540000D02*
Y7870000D01*
X7120000Y7890000D01*
X7210000D01*
Y7540000D01*
X7190000Y7520000D01*
X7120000D01*
X7100000Y7540000D01*
G37*
G36*
G01X7234770Y8042570D02*
X7278080Y8004280D01*
X7326980Y8050000D01*
X7278080Y8095720D01*
X7234770Y8057430D01*
G03Y8042570I10300J-7430D01*
G37*
G36*
G01X7188620Y8058980D02*
X7107790Y8139790D01*
X7014820Y8050000D01*
X7107790Y7960210D01*
X7188620Y8041020D01*
G03Y8058980I-8980J8980D01*
G37*
G36*
G01X7252290Y1848580D02*
X7305000Y1800000D01*
X7417540Y1855000D01*
X7305000Y1910000D01*
X7252290Y1861420D01*
G03Y1848580I7880J-6420D01*
G37*
G36*
G01X7355920Y2287180D02*
X7341550Y2301550D01*
X7317460Y2280000D01*
X7341550Y2258450D01*
X7355920Y2272820D01*
G03Y2287180I-7180J7180D01*
G37*
G36*
G01X7323890Y7953570D02*
X7369520Y8004280D01*
X7324080Y8053160D01*
X7278080Y8004280D01*
X7306940Y7954980D01*
G03X7323890Y7953570I9257J8692D01*
G37*
G36*
G01X7308770Y7939030D02*
X7270480Y7895720D01*
X7316200Y7846820D01*
X7361920Y7895720D01*
X7323630Y7939030D01*
G03X7308770I-7430J-10300D01*
G37*
G36*
G01X7565230Y8057430D02*
X7521920Y8095720D01*
X7473020Y8050000D01*
X7521920Y8004280D01*
X7565230Y8042570D01*
G03Y8057430I-10300J7430D01*
G37*
G36*
G01X7493060Y7954980D02*
X7521920Y8004280D01*
X7475920Y8053160D01*
X7430480Y8004280D01*
X7476110Y7953570D01*
G03X7493060Y7954980I7693J10102D01*
G37*
G36*
G01X7476370Y7939030D02*
X7438080Y7895720D01*
X7483800Y7846820D01*
X7529520Y7895720D01*
X7491230Y7939030D01*
G03X7476370I-7430J-10300D01*
G37*
G36*
G01X7609380Y8041020D02*
X7690210Y7960210D01*
X7783180Y8050000D01*
X7690210Y8139790D01*
X7609380Y8058980D01*
G03Y8041020I8980J-8980D01*
G37*
G36*
G01X8663180Y1368080D02*
X8677550Y1382450D01*
X8656000Y1406540D01*
X8634450Y1382450D01*
X8648820Y1368080D01*
G03X8663180I7180J7180D01*
G37*
G36*
G01X8615920Y3196200D02*
X8601550Y3210570D01*
X8577460Y3189020D01*
X8601550Y3167470D01*
X8615920Y3181840D01*
G03Y3196200I-7180J7180D01*
G37*
G36*
G01Y3269860D02*
X8601550Y3284230D01*
X8577460Y3262680D01*
X8601550Y3241130D01*
X8615920Y3255500D01*
G03Y3269860I-7180J7180D01*
G37*
G36*
G01Y3343520D02*
X8601550Y3357890D01*
X8577460Y3336340D01*
X8601550Y3314790D01*
X8615920Y3329160D01*
G03Y3343520I-7180J7180D01*
G37*
G36*
G01Y3417180D02*
X8601550Y3431550D01*
X8577460Y3410000D01*
X8601550Y3388450D01*
X8615920Y3402820D01*
G03Y3417180I-7180J7180D01*
G37*
G36*
G01X8352180Y4202020D02*
X8372500D01*
X8374300Y4234300D01*
X8342020Y4232500D01*
Y4212180D01*
G03X8352180Y4202020I10160J0D01*
G37*
G36*
G01X8479680Y4199520D02*
X8500000D01*
X8501800Y4231800D01*
X8469520Y4230000D01*
Y4209680D01*
G03X8479680Y4199520I10160J0D01*
G37*
G36*
G01X9360000Y2370000D02*
X9330000Y2400000D01*
Y2510000D01*
X9360000Y2540000D01*
X9480000D01*
X9510000Y2510000D01*
Y2400000D01*
X9480000Y2370000D01*
X9360000D01*
G37*
G36*
G01X9084080Y3092820D02*
X9098450Y3078450D01*
X9122540Y3100000D01*
X9098450Y3121550D01*
X9084080Y3107180D01*
G03Y3092820I7180J-7180D01*
G37*
G36*
G01X9560000Y4360000D02*
X9520000Y4320000D01*
X9320000D01*
X9270000Y4370000D01*
Y4520000D01*
X9310000Y4560000D01*
Y5040000D01*
X9330000Y5060000D01*
X9490000D01*
X9520000Y5030000D01*
Y4560000D01*
X9560000Y4520000D01*
Y4514520D01*
G03Y4465480I20000J-24520D01*
G01Y4360000D01*
G37*
G36*
G01X9079180Y5450820D02*
X9070000Y5460000D01*
Y5650000D01*
X9100000Y5680000D01*
X9190000D01*
X9220000Y5650000D01*
Y5460000D01*
X9210820Y5450820D01*
X9079180D01*
G37*
G36*
G01X9595260Y1085100D02*
X9674000D01*
X9675800Y1175800D01*
X9585100Y1174000D01*
Y1095260D01*
G03X9595260Y1085100I10160J0D01*
G37*
G36*
G01X9742850Y3275480D02*
X9842400Y3309040D01*
X9795360Y3375120D01*
X9740800Y3430960D01*
X9715400Y3300800D01*
G03X9742850Y3275480I25403J0D01*
G37*
G36*
G01X9527440Y3298880D02*
X9639200Y3309040D01*
X9590200Y3371800D01*
X9537600Y3430960D01*
X9517320Y3309880D01*
G03X9527440Y3298880I10120J-845D01*
G37*
G36*
G01X9802960Y3680930D02*
X9842400Y3729040D01*
X9791600Y3796350D01*
X9740800Y3729040D01*
X9780240Y3680930D01*
G03X9802960I11360J22720D01*
G37*
G36*
G01X9780240Y3899070D02*
X9740800Y3850960D01*
X9791600Y3783650D01*
X9842400Y3850960D01*
X9802960Y3899070D01*
G03X9780240I-11360J-22720D01*
G37*
G36*
G01X9802960Y3470930D02*
X9842400Y3519040D01*
X9791600Y3586350D01*
X9740800Y3519040D01*
X9780240Y3470930D01*
G03X9802960I11360J22720D01*
G37*
G36*
G01X9780240Y3689070D02*
X9740800Y3640960D01*
X9791600Y3573650D01*
X9842400Y3640960D01*
X9802960Y3689070D01*
G03X9780240I-11360J-22720D01*
G37*
G36*
G01Y3479070D02*
X9740800Y3430960D01*
X9791600Y3363650D01*
X9842400Y3430960D01*
X9802960Y3479070D01*
G03X9780240I-11360J-22720D01*
G37*
G36*
G01X9527440Y3508880D02*
X9639200Y3519040D01*
X9590200Y3581800D01*
X9537600Y3640960D01*
X9517320Y3519880D01*
G03X9527440Y3508880I10120J-845D01*
G37*
G36*
G01Y3718880D02*
X9639200Y3729040D01*
X9590200Y3791800D01*
X9537600Y3850960D01*
X9517320Y3729880D01*
G03X9527440Y3718880I10120J-845D01*
G37*
G36*
G01X9802960Y3890930D02*
X9842400Y3939040D01*
X9791600Y4006350D01*
X9740800Y3939040D01*
X9780240Y3890930D01*
G03X9802960I11360J22720D01*
G37*
G36*
G01X9527440Y3928880D02*
X9639200Y3939040D01*
X9590200Y4001800D01*
X9537600Y4060960D01*
X9517320Y3939880D01*
G03X9527440Y3928880I10120J-845D01*
G37*
G36*
G01X9541260Y6620100D02*
X9620000D01*
X9621800Y6710800D01*
X9531100Y6709000D01*
Y6630260D01*
G03X9541260Y6620100I10160J0D01*
G37*
%LPC*%
G75*
G36*
G01X9111050Y7084260D02*
X9064260Y7131050D01*
Y7228950D01*
X9101050Y7265740D01*
X9258950D01*
X9305740Y7218950D01*
Y7131050D01*
X9258950Y7084260D01*
X9111050D01*
G37*
G36*
G01X8611050Y5744260D02*
X8554260Y5801050D01*
Y6038950D01*
X8621050Y6105740D01*
X8898950D01*
X8955740Y6048950D01*
Y5801050D01*
X8898950Y5744260D01*
X8611050D01*
G37*
G36*
G01X8193360Y6122100D02*
Y5817050D01*
G02X8086640I-53360J-47050D01*
G01Y6077900D01*
X7967900Y6196640D01*
X6617050D01*
G02Y6303360I-47050J53360D01*
G01X8012100D01*
X8193360Y6122100D01*
G37*
G36*
G01X3728950Y7454260D02*
X3601050D01*
X3554260Y7501050D01*
Y7678950D01*
X3598520Y7723200D01*
G03X3596560Y7753660I-14369J14368D01*
G02X3697450Y7768040I43440J56339D01*
G03X3713860Y7735740I16411J-11981D01*
G01X3728950D01*
X3775740Y7688950D01*
Y7501050D01*
X3728950Y7454260D01*
G37*
G36*
G01X8780410Y3578540D02*
X8650320D01*
X8648150Y3571290D01*
G02X8530140Y3642440I-68149J20408D01*
G03Y3656930I-7126J7245D01*
G02X8648150Y3728070I49858J50743D01*
G01X8650320Y3720820D01*
X8721470D01*
X8745860Y3745210D01*
Y3789680D01*
X8738610Y3791850D01*
G02Y3928150I20400J68150D01*
G01X8745860Y3930320D01*
Y4272270D01*
X8508950Y4509180D01*
X7135190D01*
G03X7121820Y4473560I2J-20320D01*
G02X7004500Y4429500I-46818J-53561D01*
G03X6987830Y4452240I-20139J2717D01*
G02X6950140Y4573070I12171J70090D01*
G03Y4587560I-7126J7245D01*
G02X7068150Y4658710I49861J50742D01*
G01X7070320Y4651460D01*
X8567890D01*
X8888140Y4331210D01*
Y3930320D01*
X8895390Y3928150D01*
G02Y3791850I-20410J-68150D01*
G01X8888140Y3789680D01*
Y3686270D01*
X8780410Y3578540D01*
G37*
G54D36*
X8730000Y400000D03*
G54D35*
X8170000Y2800000D03*
Y3550000D03*
G54D33*
X1526200Y2263800D03*
X1743800D03*
X1420000Y3250000D03*
Y3630000D03*
X2200000Y3080000D03*
X5370000Y1300000D03*
X7093800Y2846200D03*
X8326000Y1416000D03*
X4156200Y7126200D03*
X4636200Y5863800D03*
X5485000Y5780000D03*
X6006900Y6036900D03*
X6460990Y6499010D03*
X6693800Y7040000D03*
X7913800Y7046200D03*
X3480000Y2370000D03*
X3690000Y2110000D03*
X5985000Y4005000D03*
X7193800Y3506200D03*
X7070000Y4800000D03*
X7530000Y5130000D03*
X8245500Y4775500D03*
G54D34*
X7930000Y400000D03*
G54D37*
X4030000Y7820000D03*
X4530000D03*
%LPD*%
G75*
G36*
G01X3600000Y7520000D02*
Y7660000D01*
X3630000Y7690000D01*
X3710000D01*
X3730000Y7670000D01*
Y7520000D01*
X3710000Y7500000D01*
X3620000D01*
X3600000Y7520000D01*
G37*
G36*
G01X6604120Y6258980D02*
X6591540Y6271540D01*
X6566820Y6250000D01*
X6591540Y6228460D01*
X6604120Y6241020D01*
G03Y6258980I-8980J8980D01*
G37*
G36*
G01X7020320Y4552810D02*
X7000000D01*
X6998200Y4520530D01*
X7030480Y4522330D01*
Y4542650D01*
G03X7020320Y4552810I-10160J0D01*
G37*
G36*
G01X7030480Y4617980D02*
Y4638300D01*
X6998200Y4640100D01*
X7000000Y4607820D01*
X7020320D01*
G03X7030480Y4617980I0J10160D01*
G37*
G36*
G01X8131020Y5804120D02*
X8118460Y5791540D01*
X8140000Y5766820D01*
X8161540Y5791540D01*
X8148980Y5804120D01*
G03X8131020I-8980J-8980D01*
G37*
G36*
G01X8789490Y3839680D02*
Y3860000D01*
X8757210Y3861800D01*
X8759010Y3829520D01*
X8779330D01*
G03X8789490Y3839680I0J10160D01*
G37*
G36*
G01X8610480Y3687350D02*
Y3707670D01*
X8578200Y3709470D01*
X8580000Y3677190D01*
X8600320D01*
G03X8610480Y3687350I0J10160D01*
G37*
G36*
G01X8854660Y3829520D02*
X8874980D01*
X8876780Y3861800D01*
X8844500Y3860000D01*
Y3839680D01*
G03X8854660Y3829520I10160J0D01*
G37*
G36*
G01X8600320Y3622180D02*
X8580000D01*
X8578200Y3589900D01*
X8610480Y3591700D01*
Y3612020D01*
G03X8600320Y3622180I-10160J0D01*
G37*
G36*
G01X8779330Y3890480D02*
X8759010D01*
X8757210Y3858200D01*
X8789490Y3860000D01*
Y3880320D01*
G03X8779330Y3890480I-10160J0D01*
G37*
G36*
G01X8844500Y3880320D02*
Y3860000D01*
X8876780Y3858200D01*
X8874980Y3890480D01*
X8854660D01*
G03X8844500Y3880320I0J-10160D01*
G37*
G36*
G01X8600000Y5820000D02*
Y6020000D01*
X8640000Y6060000D01*
X8880000D01*
X8910000Y6030000D01*
Y5820000D01*
X8880000Y5790000D01*
X8630000D01*
X8600000Y5820000D01*
G37*
G36*
G01X9110000Y7150000D02*
Y7210000D01*
X9120000Y7220000D01*
X9240000D01*
X9260000Y7200000D01*
Y7150000D01*
X9240000Y7130000D01*
X9130000D01*
X9110000Y7150000D01*
G37*
G54D10*
X330000Y330000D03*
Y7970000D03*
X9670000Y330000D03*
Y7970000D03*
G54D11*
X285000Y3575000D03*
Y4525000D03*
X675000Y3575000D03*
Y4525000D03*
G54D20*
X3245000Y1465000D03*
Y1855000D03*
X4195000Y1465000D03*
Y1855000D03*
X4855000Y1465000D03*
Y1855000D03*
X5805000Y1465000D03*
Y1855000D03*
X6465000Y1465000D03*
Y1855000D03*
X7415000Y1465000D03*
Y1855000D03*
G54D30*
G01X330000Y330000D02*
Y703400D01*
G01Y330000D02*
X703400D01*
G01X594000Y5064000D02*
X726100D01*
G01X330000Y7596600D02*
Y7970000D01*
G01D02*
X703400D01*
G01X3050000Y7633900D02*
Y7766000D01*
G01D02*
X3182100D01*
G01X9296600Y330000D02*
X9670000D01*
G01X9420000Y1936000D02*
Y2080800D01*
G01X9275200Y1936000D02*
X9420000D01*
G01X9670000Y330000D02*
Y703400D01*
G01X9620000Y6963000D02*
Y7107800D01*
G01X9475200Y6963000D02*
X9620000D01*
G01D02*
X9764800D01*
G54D12*
X740000Y2180000D03*
X370000Y2610000D03*
Y2340000D03*
X740000Y2670000D03*
Y2450000D03*
X370000Y3290000D03*
Y3060000D03*
Y2830000D03*
X740000Y3130000D03*
Y2900000D03*
X800000Y5860000D03*
X1290000Y2210000D03*
Y2480000D03*
Y2700000D03*
Y2930000D03*
Y3160000D03*
X950000Y3860000D03*
Y3640000D03*
Y3370000D03*
Y4320000D03*
Y4090000D03*
X1260000Y4810000D03*
Y4540000D03*
Y5490000D03*
Y5260000D03*
Y5030000D03*
X1060000Y5450000D03*
X810000Y6040000D03*
X1160000Y5860000D03*
Y5560000D03*
X1280000Y6200000D03*
X990000Y6480000D03*
X1260000Y6750000D03*
Y7070000D03*
X1056200Y7076200D03*
X970000Y7390000D03*
X1760000Y490000D03*
X1600000D03*
X1526200Y2263800D03*
X1743800D03*
X1820000Y3050000D03*
Y3190000D03*
X1420000Y3250000D03*
Y3630000D03*
X1610000Y4400000D03*
X1730000Y4830000D03*
X1803660D03*
X1877320D03*
X1607500Y5402500D03*
X1660000Y5337500D03*
Y5467500D03*
X1850000Y5810000D03*
X1620000Y5920000D03*
X1463800Y5913800D03*
X1607500Y5532500D03*
X1540000Y6510000D03*
X2350000Y2170000D03*
X2070000Y2220000D03*
Y2410000D03*
X1940000Y2610000D03*
X1950000Y2780000D03*
X2080000Y2540000D03*
X2280000D03*
X2360000Y2940000D03*
X1970000Y3190000D03*
X2200000Y3080000D03*
X1900000Y3970000D03*
X2160000Y4870000D03*
X1950980Y4830000D03*
X2024640D03*
X2360000Y5010000D03*
X2416200Y5400000D03*
X2080000Y5810000D03*
X2310000D03*
X2120000Y6030000D03*
X2420000Y6530000D03*
X2120000Y6180000D03*
Y6330000D03*
Y6480000D03*
X2400000Y6930000D03*
X2120000Y6630000D03*
X2290000Y7040000D03*
X2034000Y7604000D03*
X2775990Y1640000D03*
X2849650D03*
X2702330D03*
X2628670D03*
X2640000Y1790000D03*
Y2020000D03*
Y2190000D03*
Y2420000D03*
X2630000Y2540000D03*
X2430000D03*
X2530000Y3810000D03*
X2590000Y4500000D03*
X2650000Y4690000D03*
X2960000D03*
X2560000Y4870000D03*
X2960000Y4480000D03*
Y4970000D03*
Y5190000D03*
Y5860000D03*
X2880000Y6440000D03*
X2960000Y6500000D03*
X2880000Y6590000D03*
X2720000Y7110000D03*
X2719020Y6900000D03*
X2792680D03*
X2940000D03*
X2866340D03*
X2567890Y6900020D03*
X2640000Y7040000D03*
X2641550Y6899350D03*
X2790000Y7180000D03*
X2940000Y7320000D03*
X2870000Y7250000D03*
X3470000Y2720000D03*
X3250000D03*
X3480000Y2370000D03*
X3470000Y3040000D03*
X3440000Y3343000D03*
Y3190000D03*
X3483950Y5410000D03*
X3460000Y5540000D03*
X3470000Y5820000D03*
X3780000Y470000D03*
Y870000D03*
Y700000D03*
X3690000Y1483800D03*
X3970000Y2190000D03*
X3830000D03*
X3690000Y2110000D03*
X3680000Y3040000D03*
X3570000D03*
X3960000Y2950000D03*
X3620000Y3830000D03*
X3690000Y3451600D03*
X3980000Y3920000D03*
X3940000Y4250000D03*
X3700000Y5820000D03*
X3930000D03*
X3910000Y7300000D03*
X3690000Y7540000D03*
X3640000Y7600000D03*
X4040000Y8040000D03*
X3770000D03*
X3690000Y7660000D03*
X3640000Y7810000D03*
X4070000Y1990000D03*
X4110000Y2190000D03*
X4190000Y2650000D03*
Y2870000D03*
X4060000Y3280000D03*
Y3060000D03*
X4390000Y3280000D03*
X4060000Y3460000D03*
X4390000Y3400000D03*
X4160000D03*
X4320000Y3620000D03*
X4140000Y3920000D03*
X4280000D03*
X4320000Y4355000D03*
X4280000Y5460000D03*
X4080000D03*
X4180000Y6030000D03*
Y5510000D03*
X4280000Y5960000D03*
X4490000Y6720000D03*
X4180000D03*
X4280000D03*
X4140000Y7300000D03*
X4370000D03*
X4190000Y7490000D03*
X4420000D03*
X4156200Y7126200D03*
X4490000Y8040000D03*
X4260000D03*
X5060000Y500000D03*
Y900000D03*
Y730000D03*
X4820000Y2090000D03*
X4823200Y2186800D03*
X4820000Y2280000D03*
Y2370000D03*
Y2460000D03*
X4910000D03*
X5010000D03*
X5110000D03*
X4630000Y3280000D03*
X4740000Y3830000D03*
Y3740010D03*
Y3650000D03*
X4670000Y4240000D03*
X4735000Y4305000D03*
X4800000Y4390000D03*
X4870000Y4450000D03*
Y4540000D03*
X4940000Y4590000D03*
X5010000Y4640000D03*
X5075000Y4705000D03*
X4880000Y5160000D03*
X5110000D03*
X4645000Y5305000D03*
X4636200Y5863800D03*
X4670000Y6720000D03*
X4650000Y7490000D03*
X5020000Y7250000D03*
X4750000D03*
X5070000Y7810000D03*
X4800000D03*
X4720000Y8040000D03*
X5370000Y1300000D03*
X5190000Y2080000D03*
X5270000D03*
X5350000D03*
X5430000D03*
X5500000Y2460000D03*
X5430000Y3150000D03*
X5490000Y3270000D03*
X5180000Y2990000D03*
X5400000Y3270000D03*
X5260480Y2900480D03*
X5420000Y2910000D03*
Y2810000D03*
X5390000Y3630000D03*
X5495000Y3835000D03*
X5630000Y4280000D03*
X5495000Y3925000D03*
Y4016340D03*
X5494190Y4094180D03*
X5570000Y4155000D03*
X5630000Y4500000D03*
Y4730000D03*
X5510000Y4980000D03*
X5340000Y5160000D03*
X5510000Y5400000D03*
X5585000Y5235000D03*
X5485000Y5780000D03*
X5490000Y6160000D03*
X5426200Y6573800D03*
X5490000Y6250000D03*
Y6340000D03*
Y6430000D03*
X5240000Y6890000D03*
X5470000Y7250000D03*
X5240000D03*
X5520000Y7810000D03*
X5290000D03*
X6160000Y1300000D03*
X5930000D03*
X6070000Y2090000D03*
X5990000D03*
Y1940000D03*
X5800000Y2260000D03*
X5890000D03*
X5980000D03*
X6070000D03*
X6150000D03*
X5730000Y3180000D03*
X5860000Y4280000D03*
X6090000D03*
X5910000Y3940000D03*
X5985000Y4005000D03*
X5860000Y4500000D03*
X6090000D03*
X5860000Y4730000D03*
X6090000D03*
X5740000Y4980000D03*
X5970000D03*
X5810000Y5400000D03*
X5975000Y5155000D03*
X5885000D03*
X6006900Y6036900D03*
X5940000Y6560000D03*
X5715560Y6090000D03*
X5700000Y7250000D03*
X6040000Y7810000D03*
X5750000D03*
X6350000Y490000D03*
Y890000D03*
Y720000D03*
X6330000Y1300000D03*
X6720000Y1280000D03*
X6680000Y2060000D03*
Y2280000D03*
Y2700000D03*
Y2480000D03*
X6720000Y3280000D03*
Y3500000D03*
X6480000Y4110000D03*
Y4020000D03*
X6550000Y5870000D03*
X6570000Y6130000D03*
Y6250000D03*
X6460990Y6499010D03*
X6460000Y6630000D03*
Y6790000D03*
X6693800Y7040000D03*
X6700000Y7250000D03*
X6480000D03*
X6210000D03*
X6530000Y7810000D03*
X6310000D03*
X7120000Y1280000D03*
X6950000D03*
X6900000Y1490000D03*
X6820000Y1560000D03*
X6990000Y1660000D03*
X7100000Y2170000D03*
X7093800Y2846200D03*
X7193800Y3506200D03*
X7075000Y4420000D03*
X6850000Y4480000D03*
X7070000Y4800000D03*
X7000000Y4522330D03*
Y4638300D03*
X6950000Y5790000D03*
X7230000D03*
X7120000Y6010000D03*
X6900000D03*
X7050000Y6380000D03*
X7270000Y6140000D03*
X7160000Y7250000D03*
X6930000D03*
X7150000Y7560000D03*
Y7650000D03*
X6990000Y7810000D03*
X6760000D03*
X7770000Y820000D03*
X7580000Y1653800D03*
X7800000Y1870000D03*
X7320000Y2170000D03*
X7680000Y2020000D03*
X7620000Y2660000D03*
X7320000Y2280000D03*
X7620000Y2880000D03*
X7510000Y3490000D03*
X7340000D03*
X7710000Y3910000D03*
X7480000Y4410000D03*
X7710000D03*
X7510000Y4710000D03*
X7740000D03*
X7510000Y4850000D03*
X7740000D03*
X7600000Y5300000D03*
X7530000Y5130000D03*
X7750000Y6070000D03*
X7740000Y6390000D03*
X7350000D03*
X7650000Y7240000D03*
X7760000Y7690000D03*
X8260000Y270000D03*
X7990000Y560000D03*
X8220000D03*
X7990000Y820000D03*
X8100000Y1700000D03*
X8330000Y1300000D03*
X8110000D03*
X8326000Y1416000D03*
X8180000Y1890000D03*
X8240000Y2960000D03*
X7960000Y3670000D03*
X8190000D03*
X7940000Y4410000D03*
X7970000Y4710000D03*
Y4850000D03*
X8245500Y4775500D03*
X8290000Y5840000D03*
Y5570000D03*
X7980000D03*
X8140000Y5770000D03*
X8030000Y6330000D03*
X8230000Y6760000D03*
X7950000D03*
X7913800Y7046200D03*
X7880000Y7240000D03*
X8110000D03*
X7990000Y7690000D03*
X8220000D03*
X8490000Y270000D03*
X8720000D03*
X8450000Y560000D03*
X8370000Y830000D03*
X8600000D03*
X8830000D03*
X8656000Y1404000D03*
X8770000Y1820000D03*
X8700000Y2010000D03*
X8630000Y2340000D03*
X8860000D03*
X8350000Y2610000D03*
X8580000D03*
X8810000D03*
X8470000Y2960000D03*
X8700000D03*
X8580000Y3189020D03*
Y3262680D03*
Y3336340D03*
X8420000Y3670000D03*
X8580000Y3707670D03*
X8759010Y3860000D03*
X8580000Y3591700D03*
X8874980Y3860000D03*
X8580000Y3410000D03*
X8372500Y4232500D03*
X8500000Y4230000D03*
X8400000Y4770000D03*
X8630000D03*
X8860000D03*
X8480000Y5850000D03*
X8650000Y5840000D03*
X8760000D03*
X8860000D03*
X8650000Y5920000D03*
X8760000D03*
X8860000D03*
Y6000000D03*
X8760000D03*
X8650000D03*
X8480000Y6100000D03*
X8640000Y6490000D03*
X8870000D03*
X8740000Y6750000D03*
Y6930000D03*
Y7110000D03*
X9000000Y1820000D03*
X9230000D03*
X8930000Y2010000D03*
X9160000D03*
X9090000Y2340000D03*
X9380000Y2420000D03*
Y2493660D03*
X9120000Y3100000D03*
X9410000Y4380000D03*
X9330000D03*
X9410000Y4460000D03*
X9330000D03*
X9180000Y5470000D03*
X9110000D03*
X9410000Y5020000D03*
X9340000D03*
X9110000Y5550000D03*
X9180000D03*
Y5630000D03*
X9110000D03*
X9280000Y6310000D03*
X9100000Y6490000D03*
X9160000Y7350000D03*
Y7650000D03*
X9150000Y7180000D03*
X9220000D03*
X9460000Y2420000D03*
Y2493660D03*
X9590000Y3220000D03*
X9490000Y4380000D03*
Y4460000D03*
X9480000Y5020000D03*
X9426200Y6796200D03*
G54D21*
X3207000Y3243000D03*
Y3143000D03*
Y3043000D03*
Y3843000D03*
Y3743000D03*
Y3643000D03*
Y3543000D03*
Y3443000D03*
Y3343000D03*
Y4343000D03*
Y4243000D03*
Y4143000D03*
Y4043000D03*
Y3943000D03*
Y4943000D03*
Y4843000D03*
Y4743000D03*
Y4643000D03*
Y4543000D03*
Y4443000D03*
Y5443000D03*
Y5343000D03*
Y5243000D03*
Y5143000D03*
Y5043000D03*
Y5943000D03*
Y5843000D03*
Y5743000D03*
Y5643000D03*
Y5543000D03*
Y6543000D03*
Y6443000D03*
Y6343000D03*
Y6243000D03*
Y6143000D03*
Y6043000D03*
Y6643000D03*
G54D31*
G01X330000Y0D02*
X9670000D01*
G03X10000000Y330000I0J330000D01*
G01Y7970000D01*
G03X9670000Y8300000I-330000J0D01*
G01X330000D01*
G03X0Y7970000I0J-330000D01*
G01Y330000D01*
G03X330000Y0I330000J0D01*
G54D22*
X4030000Y7820000D03*
X4530000D03*
X8887000Y8010000D03*
X8633000D03*
X9420000Y1174000D03*
Y1428000D03*
Y1682000D03*
Y1936000D03*
X9141000Y8010000D03*
X9674000Y1174000D03*
Y1428000D03*
Y1682000D03*
Y1936000D03*
X9710000Y6030000D03*
Y5776000D03*
Y6284000D03*
X9620000Y6963000D03*
Y6709000D03*
Y7471000D03*
G54D13*
X594000Y5064000D03*
Y5318000D03*
X340000Y5064000D03*
Y5318000D03*
X594000Y5572000D03*
Y5826000D03*
Y6080000D03*
X340000Y5572000D03*
Y5826000D03*
Y6080000D03*
X594000Y6334000D03*
Y6588000D03*
X340000Y6334000D03*
Y6588000D03*
X594000Y6842000D03*
X340000D03*
X594000Y7096000D03*
X340000D03*
X594000Y7350000D03*
X1018000Y7766000D03*
X1272000D03*
X1018000Y8020000D03*
X1272000D03*
X1526000Y7766000D03*
X1780000D03*
X1526000Y8020000D03*
X1780000D03*
X2034000Y7766000D03*
X2288000D03*
X2034000Y8020000D03*
X2288000D03*
X2542000Y7766000D03*
Y8020000D03*
X2796000Y7766000D03*
Y8020000D03*
X3050000Y7766000D03*
G54D32*
G01X710000Y5470000D02*
X608000Y5572000D01*
X594000D01*
G01X700000Y5920000D02*
X606000Y5826000D01*
X594000D01*
G01X750000Y6330000D02*
X746000Y6334000D01*
G01D02*
X594000D01*
G01X2352500Y600000D02*
X2162500Y410000D01*
X1210000D01*
X1027500Y592500D01*
Y600000D01*
G01X1753000Y1725000D02*
Y1197000D01*
X2350000Y600000D01*
X2352500D01*
G01X1753000Y1725000D02*
Y1852000D01*
X1626000Y1979000D01*
G01X2280000Y2540000D02*
X2080000D01*
G01X3207000Y5943000D02*
X2207000D01*
X2120000Y6030000D01*
G01X3207000Y6043000D02*
X2257000D01*
X2120000Y6180000D01*
G01X3207000Y6143000D02*
X2307000D01*
X2120000Y6330000D01*
G01X3207000Y6243000D02*
X2357000D01*
X2120000Y6480000D01*
G01X3207000Y6343000D02*
X2407000D01*
X2120000Y6630000D01*
G01X2430000Y2540000D02*
X2630000D01*
G01X3207000Y6543000D02*
X3003000D01*
X2960000Y6500000D01*
G01X3207000Y6443000D02*
X3017000D01*
X2960000Y6500000D01*
G01X3207000Y3243000D02*
X3389200D01*
X3440000Y3192200D01*
Y3190000D01*
G01D02*
X3393000Y3143000D01*
X3207000D01*
G01X9590000Y3220000D02*
X9660000D01*
X9791600Y3351600D01*
Y3370000D01*
G01Y3790000D02*
Y4000000D01*
G01Y3580000D02*
Y3790000D01*
G01Y3370000D02*
Y3580000D01*
G54D14*
X340000Y7350000D03*
X3050000Y8020000D03*
G54D23*
X5528000Y8050000D03*
X6290000D03*
X7018000D03*
X7780000D03*
G54D24*
X8379000Y8010000D03*
G54D15*
X1027500Y600000D03*
X1281500D03*
X1245000Y1725000D03*
X1372000Y1979000D03*
X1753000Y1725000D03*
X1499000D03*
X1880000Y1979000D03*
X1626000D03*
X2352500Y600000D03*
X2098500D03*
X2007000Y1725000D03*
X2134000Y1979000D03*
G54D25*
X9791600Y3370000D03*
X9588400D03*
X9791600Y3790000D03*
X9588400D03*
X9791600Y3580000D03*
X9588400D03*
X9791600Y4000000D03*
X9588400D03*
G54D16*
X1118500Y1090000D03*
X2261500D03*
G54D26*
G01X5490000Y6340000D02*
X5400000D01*
X4851120Y6888880D01*
X3079460D01*
X2988490Y6797910D01*
X2261510D01*
X2146300Y6913120D01*
X943120D01*
X750000Y6720000D01*
X290000D01*
X190000Y6620000D01*
Y5976000D01*
X340000Y5826000D01*
G01Y6842000D02*
X332030D01*
X150000Y6659970D01*
Y5800000D01*
X250000Y5700000D01*
X700000D01*
X870000Y5530000D01*
Y4560000D01*
X1309990Y4120010D01*
X2441070D01*
X2630000Y3931080D01*
Y2766220D01*
X2729650Y2666570D01*
Y1753540D01*
X2628670Y1652560D01*
Y1640000D01*
G01X340000Y6588000D02*
X225560Y6473560D01*
Y6264440D01*
X300000Y6190000D01*
X790000D01*
X941120Y6038880D01*
Y4589460D01*
X1339450Y4191130D01*
X2470530D01*
X2701120Y3960540D01*
Y2795680D01*
X2809660Y2687140D01*
Y2657700D01*
X2809650Y2657690D01*
Y1686220D01*
X2775990Y1652560D01*
Y1640000D01*
G01X5490000Y6250000D02*
X5430000D01*
X4830000Y6850000D01*
X3095570D01*
X3004610Y6759040D01*
X2245390D01*
X2130190Y6874240D01*
X1124240D01*
X730000Y6480000D01*
X448000D01*
X340000Y6588000D01*
G01X980000Y6227320D02*
X442680D01*
X340000Y6330000D01*
Y6334000D01*
G01X5490000Y6430000D02*
X5410000D01*
X4915560Y6924440D01*
X3064730D01*
X2973770Y6833480D01*
X2276230D01*
X2161020Y6948690D01*
X2131580D01*
X2131570Y6948680D01*
X446680D01*
X340000Y6842000D01*
G01X2849650Y1640000D02*
X2845210Y1644440D01*
Y2642960D01*
X2845220Y2642970D01*
Y2701870D01*
X2740000Y2807090D01*
Y3978230D01*
X2487100Y4231130D01*
X1356020D01*
X980000Y4607150D01*
Y6227320D01*
G01X800000Y5860000D02*
X905560Y5754440D01*
Y4574730D01*
X1324720Y4155570D01*
X2455800D01*
X2665560Y3945810D01*
Y2780950D01*
X2774090Y2672420D01*
Y1724320D01*
X2702330Y1652560D01*
Y1640000D01*
G01X1060000Y5450000D02*
Y6220000D01*
X1591920Y6751920D01*
X2151920D01*
X2219400Y6684440D01*
X3030590D01*
X3106150Y6760000D01*
X4000000D01*
X4080000Y6680000D01*
Y5460000D01*
G01X5715560Y6090000D02*
X5419990D01*
X4700140Y6809850D01*
X3105710D01*
X3015860Y6720000D01*
X2234140D01*
X2115460Y6838680D01*
X1591360D01*
X980000Y6227320D01*
G01X1760000Y490000D02*
Y596200D01*
X1763800Y600000D01*
G01X1600000Y490000D02*
Y593800D01*
X1606200Y600000D01*
G01X1730000Y4830000D02*
Y4554800D01*
X2014790Y4270010D01*
X2511070D01*
X2780000Y4001080D01*
Y2817380D01*
X2880780Y2716600D01*
Y2628240D01*
X2880770Y2628230D01*
Y1759230D01*
X3051120Y1588880D01*
X6701120D01*
X6800000Y1490000D01*
X6900000D01*
G01X6820000Y1560000D02*
X6755560Y1624440D01*
X3065850D01*
X2916330Y1773960D01*
Y2613500D01*
X2916340Y2613510D01*
Y2731330D01*
X2815560Y2832110D01*
Y4015820D01*
X2794740Y4036640D01*
X2794730D01*
X2525800Y4305570D01*
X2029520D01*
X1803660Y4531430D01*
Y4830000D01*
G01X1620000Y5920000D02*
X1460000Y5760000D01*
Y5050000D01*
X1530000Y4980000D01*
X2240000D01*
X2970000Y4250000D01*
Y3000000D01*
X3020000Y2950000D01*
X3960000D01*
G01X7320000Y2280000D02*
X7540000D01*
X7570000Y2250000D01*
Y1760000D01*
X7540000Y1730000D01*
X3060870D01*
X2996330Y1794540D01*
Y2751920D01*
X2886680Y2861570D01*
Y4045280D01*
X2824210Y4107750D01*
X2824200D01*
X2555260Y4376690D01*
X2058980D01*
X1950980Y4484690D01*
Y4830000D01*
G01X1877320D02*
Y4508060D01*
X2044250Y4341130D01*
X2540530D01*
X2809480Y4072180D01*
X2809490D01*
X2851120Y4030550D01*
Y2846840D01*
X2951900Y2746060D01*
Y2598780D01*
X2951890Y2598770D01*
Y1788690D01*
X3080580Y1660000D01*
X6990000D01*
G01X4160000Y3400000D02*
Y2960000D01*
X4080000Y2880000D01*
X2980000D01*
X2922240Y2937760D01*
Y4060010D01*
X2838930Y4143320D01*
X2838920D01*
X2569980Y4412260D01*
X2481610D01*
X2481600Y4412250D01*
X2073710D01*
X2024640Y4461320D01*
Y4830000D01*
G01X2290000Y7040000D02*
X2288000Y7042000D01*
Y7766000D01*
G01X2560000Y4870000D02*
Y5110000D01*
X2640000Y5190000D01*
X2960000D01*
G01X2719020Y6900000D02*
Y7109020D01*
X2720000Y7110000D01*
G01X2792680Y6900000D02*
Y7177320D01*
X2790000Y7180000D01*
G01X2866340Y6900000D02*
X2870000Y6903660D01*
Y7250000D01*
G01X2567890Y6900020D02*
Y7740110D01*
X2542000Y7766000D01*
G01X2641550Y6899350D02*
Y7038450D01*
X2640000Y7040000D01*
G01X3245000Y1855000D02*
X4195000D01*
G01X3207000Y3343000D02*
X3440000D01*
G01X3690000Y3451600D02*
X3678400Y3440000D01*
X3210000D01*
X3207000Y3443000D01*
G01X4740000Y3740010D02*
X4737010Y3743000D01*
X3207000D01*
G01X4670000Y4240000D02*
X4560000Y4130000D01*
X3750000D01*
X3463000Y3843000D01*
X3207000D01*
G01X5990000Y1940000D02*
X5960000Y1970000D01*
X4380000D01*
X4280000Y2070000D01*
Y3480000D01*
X4217000Y3543000D01*
X3207000D01*
G01Y3643000D02*
X4207000D01*
X4320000Y3530000D01*
Y2086570D01*
X4396570Y2010000D01*
X6100000D01*
X6150000Y2060000D01*
Y2260000D01*
G01X4735000Y4305000D02*
X4620000Y4420000D01*
X3980290D01*
X3503290Y3943000D01*
X3207000D01*
G01X4800000Y4390000D02*
X4730000Y4460000D01*
X3960000D01*
X3543000Y4043000D01*
X3207000D01*
G01X4870000Y4450000D02*
X4820000Y4500000D01*
X3940000D01*
X3583000Y4143000D01*
X3207000D01*
G01X4870000Y4540000D02*
X3919990D01*
X3622990Y4243000D01*
X3207000D01*
G01Y4343000D02*
X3663580D01*
X3930580Y4610000D01*
X4920000D01*
X4940000Y4590000D01*
G01X3207000Y4443000D02*
X3713290D01*
X3921250Y4650960D01*
X4999040D01*
X5010000Y4640000D01*
G01X5075000Y4705000D02*
X3925000D01*
X3763000Y4543000D01*
X3207000D01*
G01X5180000Y2990000D02*
Y4700000D01*
X5114040Y4765960D01*
X3925960D01*
X3803000Y4643000D01*
X3207000D01*
G01X5260480Y2900480D02*
X5250000Y2910960D01*
Y4700000D01*
X5147000Y4803000D01*
X3903000D01*
X3843000Y4743000D01*
X3207000D01*
G01Y4843000D02*
X5167000D01*
X5286520Y4723480D01*
Y3143480D01*
X5420000Y3010000D01*
Y2910000D01*
G01Y2810000D02*
X5490000Y2880000D01*
Y3000290D01*
X5322080Y3168210D01*
Y4747920D01*
X5190000Y4880000D01*
X3900000D01*
X3837000Y4943000D01*
X3207000D01*
G01X5495000Y3835000D02*
X5361440Y3968560D01*
Y4765030D01*
X5206470Y4920000D01*
X3920000D01*
X3797000Y5043000D01*
X3207000D01*
G01X5495000Y3925000D02*
X5397000Y4023000D01*
Y4779760D01*
X5216760Y4960000D01*
X3940000D01*
X3757000Y5143000D01*
X3207000D01*
G01X5495000Y4016340D02*
X5485810D01*
X5433230Y4068920D01*
Y4119440D01*
X5434440Y4120650D01*
Y4795270D01*
X5232270Y4997440D01*
X3960000D01*
X3714440Y5243000D01*
X3207000D01*
G01X5494190Y4094180D02*
Y4785810D01*
X5247000Y5033000D01*
X3990000D01*
X3680000Y5343000D01*
X3207000D01*
G01X2940000Y7320000D02*
Y6900000D01*
G01X3620000Y3830000D02*
X4740000D01*
G01X3483950Y5410000D02*
X3494910Y5399040D01*
X5509040D01*
X5510000Y5400000D01*
G01X5975000Y5155000D02*
X6090220D01*
X6250000Y4995220D01*
Y1905560D01*
X6110000Y1765560D01*
X4594440D01*
X4505000Y1855000D01*
X4195000D01*
G01X4630000Y3280000D02*
X4390000D01*
G01X4740000Y3650000D02*
Y3460000D01*
X4680000Y3400000D01*
X4390000D01*
G01X4280000Y5460000D02*
Y5960000D01*
G01X4180000Y5510000D02*
Y6030000D01*
G01X4280000Y5960000D02*
Y6720000D01*
G01X4180000Y6030000D02*
Y6720000D01*
G01X4820000Y2090000D02*
X4648880Y2261120D01*
Y2559460D01*
X4810000Y2720580D01*
Y4100000D01*
X4670000Y4240000D01*
G01X4823200Y2186800D02*
X4684440Y2325560D01*
Y2544730D01*
X4850000Y2710290D01*
Y4190000D01*
X4735000Y4305000D01*
G01X4855000Y1855000D02*
X5805000D01*
G01X4820000Y2280000D02*
X4720000Y2380000D01*
Y2530000D01*
X4890000Y2700000D01*
Y4300000D01*
X4800000Y4390000D01*
G01X4820000Y2370000D02*
X4759040Y2430960D01*
Y2509040D01*
X4930000Y2680000D01*
Y4390000D01*
X4870000Y4450000D01*
G01X4820000Y2460000D02*
X4970000Y2610000D01*
Y4440000D01*
X4870000Y4540000D01*
G01X4910000Y2460000D02*
X5010000Y2560000D01*
Y4520000D01*
X4940000Y4590000D01*
G01X5010000Y2460000D02*
X5050000Y2500000D01*
Y4600000D01*
X5010000Y4640000D01*
G01X5110000Y2460000D02*
X5090000Y2480000D01*
Y4690000D01*
X5075000Y4705000D01*
G01X9120000Y3100000D02*
X6430320D01*
X6410000Y3120320D01*
Y5110000D01*
X6215000Y5305000D01*
X4645000D01*
G01X5180000Y2990000D02*
Y2090000D01*
X5190000Y2080000D01*
G01X5260480Y2900480D02*
Y2095740D01*
X5270000Y2086220D01*
Y2080000D01*
G01X5420000Y2910000D02*
X5350000Y2840000D01*
Y2080000D01*
G01X5430000D02*
X5420000Y2090000D01*
Y2810000D01*
G01X5490000Y3270000D02*
X5730000Y3030000D01*
Y2220290D01*
X5770290Y2180000D01*
X5990000D01*
X6070000Y2100000D01*
Y2090000D01*
G01X5400000Y3270000D02*
X5694440Y2975560D01*
Y2195560D01*
X5750000Y2140000D01*
X5940000D01*
X5990000Y2090000D01*
G01X5730000Y3180000D02*
Y3530000D01*
X5630000Y3630000D01*
X5390000D01*
G01X5800000Y2260000D02*
Y3530000D01*
X5495000Y3835000D01*
G01X5890000Y2260000D02*
Y3530000D01*
X5495000Y3925000D01*
G01X5980000Y2260000D02*
Y3531340D01*
X5495000Y4016340D01*
G01X6070000Y2260000D02*
Y3530000D01*
X5505820Y4094180D01*
X5494190D01*
G01X5570000Y4155000D02*
X6150000Y3575000D01*
Y2260000D01*
G01X5585000Y5235000D02*
X6066790D01*
X6290000Y5011790D01*
Y1886390D01*
X6321390Y1855000D01*
X6465000D01*
G01X5885000Y5155000D02*
X5950000Y5090000D01*
X6100000D01*
X6210960Y4979040D01*
Y1950960D01*
X6115000Y1855000D01*
X5805000D01*
G01X5810000Y5400000D02*
X9400000D01*
X9500000Y5500000D01*
Y6589000D01*
X9620000Y6709000D01*
G01X6465000Y1855000D02*
X7415000D01*
G01X6480000Y4110000D02*
X8250000D01*
X8372500Y4232500D01*
G01X6480000Y4020000D02*
X8290000D01*
X8500000Y4230000D01*
G01X7000000Y4522330D02*
X7037670Y4560000D01*
X8530000D01*
X8796680Y4293320D01*
Y3897670D01*
X8759010Y3860000D01*
G01X7000000Y4638300D02*
X7037660Y4600640D01*
X8546840D01*
X8837320Y4310160D01*
Y3897660D01*
X8874980Y3860000D01*
G01X7980000Y400000D02*
G03I-50000J0D01*
G01X8780000D02*
G03I-50000J0D01*
G01X8656000Y1404000D02*
Y1104000D01*
X8720000Y1040000D01*
X9540000D01*
X9674000Y1174000D01*
G01X8580000Y3189020D02*
X9407420D01*
X9588400Y3370000D01*
G01X8580000Y3262680D02*
X9271080D01*
X9588400Y3580000D01*
G01X8580000Y3707670D02*
X8617670Y3670000D01*
X8742520D01*
X8796680Y3724160D01*
Y3822330D01*
X8759010Y3860000D01*
G01X8580000Y3591700D02*
X8617660Y3629360D01*
X8759360D01*
X8837320Y3707320D01*
Y3822340D01*
X8874980Y3860000D01*
G01X8580000Y3336340D02*
X9134740D01*
X9588400Y3790000D01*
G01X8580000Y3410000D02*
X8998400D01*
X9588400Y4000000D01*
G54D17*
X915500Y1395000D03*
X2464500D03*
G54D27*
G01X9610000Y2510000D02*
G03I-30000J0D01*
G01Y2910000D02*
G03I-30000J0D01*
G01Y4490000D02*
G03I-30000J0D01*
G01Y4890000D02*
G03I-30000J0D01*
G54D18*
X1606200Y600000D03*
X1453800D03*
X1763800D03*
X1916200D03*
X5986200Y8050000D03*
X5833800D03*
X7163800Y7850000D03*
X7476200Y8050000D03*
X7323800D03*
X7636200Y7850000D03*
X7483800D03*
X7316200D03*
G54D28*
G01X8245000Y2800000D02*
G03I-75000J0D01*
G01Y3550000D02*
G03I-75000J0D01*
G54D19*
G01X290000Y1390000D02*
X295000Y1395000D01*
G01D02*
X915500D01*
G01X2134000Y1979000D02*
X2464500Y1648500D01*
Y1395000D01*
G01X2530000Y70000D02*
Y1329500D01*
X2464500Y1395000D01*
G01X9670000Y7970000D02*
X9400000Y7700000D01*
G01X9340000Y8180000D02*
X9550000Y7970000D01*
X9670000D01*
G01X9930000Y7680000D02*
X9670000Y7940000D01*
Y7970000D01*
X2210000Y3370000D03*
X2400000D03*
Y3560000D03*
X2210000D03*
X2310000Y3460000D03*
G54D29*
G01X675000Y3575000D02*
Y4525000D01*
G01X340000Y5572000D02*
X470000Y5442000D01*
Y4970000D01*
X675000Y4765000D01*
Y4525000D01*
G01X1453800Y600000D02*
X1281500D01*
G01X1607500Y5402500D02*
X1692500D01*
X1880000Y5590000D01*
X2980000D01*
X3033000Y5643000D01*
X3207000D01*
G01X1660000Y5337500D02*
X1707500D01*
X1913000Y5543000D01*
X3207000D01*
G01Y5743000D02*
X3023000D01*
X2920000Y5640000D01*
X1832500D01*
X1660000Y5467500D01*
G01X3207000Y5843000D02*
X3033000D01*
X2890000Y5700000D01*
X1775000D01*
X1607500Y5532500D01*
G01X1916200Y600000D02*
X2098500D01*
G01X5833800Y8050000D02*
X5528000D01*
G01X5986200D02*
X6290000D01*
G01X6570000Y6250000D02*
X7990000D01*
X8140000Y6100000D01*
Y5770000D01*
G01X7323800Y8050000D02*
X7018000D01*
G01X7316200Y7850000D02*
Y8042400D01*
X7323800Y8050000D01*
G01X7476200D02*
X7780000D01*
G01X7483800Y7850000D02*
Y8042400D01*
X7476200Y8050000D01*
M02*
