G04 ================== begin FILE IDENTIFICATION RECORD ==================*
G04 Layout Name:  H:/GitHub/MBEDBoard/USBHUB_V11A/PCB/USBHUB_V11A.brd*
G04 Film Name:    TOP*
G04 File Format:  Gerber RS274X*
G04 File Origin:  Cadence Allegro 16.6-2015-S088*
G04 Origin Date:  Thu Jun 29 11:34:46 2017*
G04 *
G04 Layer:  BOARD GEOMETRY/OUTLINE*
G04 Layer:  VIA CLASS/TOP*
G04 Layer:  PIN/TOP*
G04 Layer:  ETCH/TOP*
G04 *
G04 Offset:    (0.0000 0.0000)*
G04 Mirror:    No*
G04 Mode:      Positive*
G04 Rotation:  0*
G04 FullContactRelief:  No*
G04 UndefLineWidth:     0.1524*
G04 ================== end FILE IDENTIFICATION RECORD ====================*
%FSLAX55Y55*MOMM*%
%IR0*IPPOS*OFA0.00000B0.00000*MIA0B0*SFA1.00000B1.00000*%
%ADD23R,1.55X.3*%
%ADD24R,1.06X.65*%
%ADD21R,.6604X1.016*%
%ADD11C,.6096*%
%ADD16O,4.X2.*%
%ADD13O,2.X4.*%
%ADD26R,1.15X1.4*%
%ADD27R,1.6X2.7*%
%ADD14C,3.3*%
%ADD20R,1.27X1.27*%
%ADD17C,1.6*%
%ADD18R,1.2192X1.016*%
%ADD29C,1.27*%
%ADD12R,1.016X1.2192*%
%ADD19R,1.6X1.6*%
%ADD10C,6.35*%
%ADD28R,1.27X1.27*%
%ADD25R,.9144X.9144*%
%ADD15R,.9144X.9144*%
%ADD22R,1.1938X1.1938*%
%ADD30C,.2032*%
%ADD31C,.7112*%
%ADD32C,.254*%
%ADD33C,.1524*%
%ADD34C,.508*%
%ADD35C,.762*%
%ADD36C,4.2148*%
%ADD37C,2.1848*%
%ADD38O,2.9148X4.9148*%
%ADD39R,1.9748X1.5648*%
G75*
%LPD*%
G75*
G36*
G01X5215220Y3460540D02*
X5235740Y3481050D01*
Y3718950D01*
X5223160Y3731530D01*
X5222400Y3733830D01*
Y3733840D01*
G03X5173830Y3782400I-72397J-23842D01*
G01X5171530Y3783160D01*
X5168950Y3785740D01*
X5158560D01*
X5158020Y3785800D01*
G03X5141980I-8020J-75800D01*
G01X5141440Y3785740D01*
X5078560D01*
X5078020Y3785800D01*
G03X5061980I-8020J-75800D01*
G01X5061440Y3785740D01*
X4785740D01*
Y3848950D01*
X4688950Y3945740D01*
X2011050D01*
X1964260Y3898950D01*
Y3628950D01*
X1961050Y3625740D01*
X1818950D01*
X1805740Y3638950D01*
Y3808950D01*
X1728950Y3885740D01*
X1071050D01*
X984260Y3798950D01*
Y3463840D01*
X955270D01*
X810430Y3319000D01*
G02X775740Y3333360I-14371J14365D01*
G01Y3480000D01*
G03X484260I-145740J0D01*
G01Y3280000D01*
G03X589040Y3140130I145746J0D01*
G02X597700Y3106270I-5712J-19498D01*
G01X576160Y3084730D01*
Y2715270D01*
X675280Y2616150D01*
G02X660920Y2581460I-14365J-14371D01*
G01X552340D01*
Y2556330D01*
X543410Y2548440D01*
X453050D01*
X428140Y2571150D01*
Y2596700D01*
X235060D01*
Y2183300D01*
X428140D01*
Y2208850D01*
X453050Y2231560D01*
X543410D01*
X552340Y2223670D01*
Y2198540D01*
X570920D01*
G02X585280Y2163850I-5J-20319D01*
G01X406160Y1984730D01*
Y1205270D01*
X695270Y916160D01*
X1214730D01*
X1322750Y1024180D01*
X1440820D01*
Y1223460D01*
X1829990D01*
X2056540Y1450010D01*
Y1780010D01*
X2190310Y1913780D01*
X2275670D01*
G02X2290040Y1879090I1J-20321D01*
G01X2244100Y1833150D01*
Y1406850D01*
X2385750Y1265200D01*
X5473430D01*
G02X5493740Y1244360I-4J-20320D01*
G03X5719310Y1267570I114282J-2941D01*
G01X5718010Y1273080D01*
X5729200Y1284270D01*
X5754890Y1258580D01*
X5754370Y1253740D01*
G03X5944570Y1326330I113654J-12319D01*
G02Y1356510I13605J15090D01*
G03X5828650Y1548740I-76551J84904D01*
G01X5822550Y1546510D01*
X5723150Y1645900D01*
X5711900D01*
Y1657600D01*
X5712360Y1659070D01*
G03X5664610Y1784860I-104340J32350D01*
G02X5664840Y1819760I10526J17381D01*
G03X5513740Y1795390I-106814J181662D01*
G02X5524920Y1762330I-4275J-19866D01*
G03X5500870Y1670170I83102J-70904D01*
G02X5480940Y1645900I-19933J-3949D01*
G01X4203150D01*
X3919680Y1929370D01*
G02X3934050Y1964060I14369J14369D01*
G01X4190510D01*
X4271190Y2044740D01*
X4531460D01*
Y2085770D01*
X4545420Y2152770D01*
X4574210Y2181560D01*
X4666120D01*
X4676760Y2058030D01*
Y2014260D01*
X4883240D01*
Y2245740D01*
X4841510D01*
X4750900Y2261750D01*
X4723240Y2289410D01*
Y2465740D01*
X4516760D01*
Y2439940D01*
X4511730Y2435260D01*
X4348540D01*
Y2410130D01*
X4339610Y2402240D01*
X4129590D01*
X4003290Y2275940D01*
X3974050D01*
G02X3959680Y2310630I-1J20321D01*
G01X4712830Y3063780D01*
X5475410D01*
G02X5495720Y3042940I-4J-20320D01*
G03X5724280I114280J-2940D01*
G02X5744590Y3063780I20314J520D01*
G01X5756430D01*
Y3053060D01*
X5756370Y3052500D01*
G03X5946550Y3124910I113634J-12499D01*
G02Y3155090I13605J15090D01*
G03X5823720Y3344530I-76549J84907D01*
G01X5817340Y3341710D01*
X5723150Y3435900D01*
X5710860D01*
Y3448010D01*
X5711570Y3449810D01*
G03X5666590Y3583440I-101573J40195D01*
G02X5666820Y3618340I10526J17381D01*
G03X5703040Y3954760I-106820J181660D01*
G02X5716830Y3990000I13794J14920D01*
G01X5983170D01*
G02X5996960Y3954760I-4J-20320D01*
G03X6283040I143040J-154760D01*
G02X6296830Y3990000I13794J14920D01*
G01X6369680D01*
X6370300Y3989980D01*
X6370320D01*
G03X6437930Y4009660I6682J103021D01*
G02X6468470Y4001560I11994J-16400D01*
G03X7083800Y3923290I331525J148441D01*
G02X7120000Y3910610I15879J-12681D01*
G01Y569390D01*
G02X7083800Y556710I-20321J1D01*
G03X6468110Y477630I-283805J-226711D01*
G02X6437470Y469540I-18567J8254D01*
G03X6370250Y490010I-62471J-84540D01*
G01X6370230D01*
X6369990Y490000D01*
X6303650D01*
G02X6289090Y524490I5J20320D01*
G03X6257360Y845110I-151071J146929D01*
G02X6268860Y882180I11506J16749D01*
G01X6466670D01*
X6699240Y1114750D01*
Y2685250D01*
X6485250Y2899240D01*
X5984320D01*
Y2904320D01*
X5755680D01*
Y2899240D01*
X5724320D01*
Y2904320D01*
X5495680D01*
Y2899240D01*
X5094900D01*
Y2490760D01*
X5313380D01*
Y2680760D01*
X5429160D01*
G02X5440660Y2643690I-6J-20321D01*
G03X5685820Y2639060I119343J-173690D01*
G02X5697950Y2675680I12131J16301D01*
G01X5724320D01*
Y2680760D01*
X5755680D01*
Y2675680D01*
X5984320D01*
Y2680760D01*
X6009160D01*
G02X6020660Y2643690I-6J-20321D01*
G03X6259340I119340J-173690D01*
G02X6270840Y2680760I11506J16749D01*
G01X6394750D01*
X6480760Y2594750D01*
Y1205250D01*
X6376170Y1100660D01*
X5982340D01*
Y1105740D01*
X5753700D01*
Y1100660D01*
X5722340D01*
Y1105740D01*
X5493700D01*
Y1100660D01*
X5160310D01*
X5158890Y1099240D01*
X5094900D01*
Y690760D01*
X5313380D01*
Y882180D01*
X5427180D01*
G02X5438680Y845110I-6J-20321D01*
G03X5406950Y524490I119341J-173691D01*
G02X5392390Y490000I-14565J-14170D01*
G01X997970D01*
G02X983990Y525070I-1J20321D01*
G03X708490Y512530I-144996J152930D01*
G02X705300Y478560I-12581J-15953D01*
G03X692070Y470340I47713J-91551D01*
G02X661530Y478440I-11994J16400D01*
G03X46200Y556710I-331525J-148441D01*
G02X10000Y569390I-15879J12681D01*
G01Y3910610D01*
G02X46200Y3923290I20321J-1D01*
G03X661530Y4001560I283805J226711D01*
G02X692070Y4009660I18546J-8300D01*
G03X759680Y3989980I60928J83341D01*
G01X760010Y3990000D01*
X5403170D01*
G02X5416960Y3954760I-4J-20320D01*
G03X5515720Y3593970I143041J-154757D01*
G02X5526900Y3560910I-4275J-19866D01*
G03X5504540Y3461520I83101J-70906D01*
G02X5484930Y3435900I-19617J-5300D01*
G01X5218070D01*
G02X5208490Y3449420I6J10159D01*
G01X5209510Y3452350D01*
X5210500Y3453640D01*
G03X5214610Y3459560I-60486J46380D01*
G01X5215220Y3460540D01*
G37*
G36*
G01X440610Y2297880D02*
X382400Y2350960D01*
X328420Y2290000D01*
X382400Y2229040D01*
X440610Y2282120D01*
G03Y2297880I-9960J7880D01*
G37*
G36*
G01Y2497880D02*
X382400Y2550960D01*
X328420Y2490000D01*
X382400Y2429040D01*
X440610Y2482120D01*
G03Y2497880I-9960J7880D01*
G37*
G36*
G01X764730Y1083840D02*
X573840Y1274730D01*
Y1915270D01*
X597530Y1938960D01*
G02X631870Y1920850I14370J-14365D01*
G03X971990Y2045480I207129J-38849D01*
G02X984810Y2081560I12824J15761D01*
G01X1754210D01*
X1801750Y2129100D01*
X1872560Y2138540D01*
X1985010D01*
X2029490Y2094060D01*
X2435420D01*
G02X2442610Y2076720I2J-10160D01*
G01X2436880Y2070990D01*
X2432120Y2066220D01*
X2127170D01*
X1904100Y1843150D01*
Y1513150D01*
X1766850Y1375900D01*
X1460880D01*
G02X1440820Y1393010I5J20320D01*
G01Y1404560D01*
G03X1436360Y1438860I-130817J430D01*
G03X1217200Y1497210I-126362J-33859D01*
G02X1202790I-7205J7162D01*
G03X1040460Y1294190I-92794J-92212D01*
G02X1040840Y1260010I-10799J-17212D01*
G03X992120Y1111230I69158J-105014D01*
G02X973070Y1083840I-19048J-7072D01*
G01X764730D01*
G37*
G36*
G01X554770Y2282570D02*
X598080Y2244280D01*
X646980Y2290000D01*
X598080Y2335720D01*
X554770Y2297430D01*
G03Y2282570I10300J-7430D01*
G37*
G36*
G01Y2482570D02*
X598080Y2444280D01*
X646980Y2490000D01*
X598080Y2535720D01*
X554770Y2497430D01*
G03Y2482570I10300J-7430D01*
G37*
G36*
G01X844120Y2148980D02*
X831540Y2161540D01*
X806820Y2140000D01*
X831540Y2118460D01*
X844120Y2131020D01*
G03Y2148980I-8980J8980D01*
G37*
G36*
G01X874170Y2653950D02*
G03X869280Y2659280I-64164J-53959D01*
G01X806400Y2722160D01*
G02X824350Y2756540I14366J14375D01*
G03X850000Y2754260I25678J143458D01*
G01X956640D01*
G02X971000Y2719570I-5J-20319D01*
G01X904090Y2652660D01*
G02X874170Y2653950I-14368J14369D01*
G37*
G36*
G01X806400Y3077840D02*
X949570Y3221000D01*
G02X984260Y3206640I14371J-14365D01*
G01Y3131050D01*
X1034890Y3080430D01*
G02X1020520Y3045740I-14370J-14369D01*
G01X850000D01*
G03X824350Y3043460I28J-145738D01*
G02X806400Y3077840I-3584J20005D01*
G37*
G36*
G01X1190000Y1335160D02*
Y1405000D01*
X1108200Y1406800D01*
X1110000Y1325000D01*
X1179840D01*
G03X1190000Y1335160I0J10160D01*
G37*
G36*
G01X1209210Y2296020D02*
X1160960Y2339200D01*
X1096820Y2288400D01*
X1160960Y2237600D01*
X1209210Y2280780D01*
G03Y2296020I-10160J7620D01*
G37*
G36*
G01X1210770Y2497670D02*
X1160960Y2542400D01*
X1096830Y2491650D01*
X1160960Y2440800D01*
X1210530Y2482030D01*
G03X1210770Y2497670I-9882J7973D01*
G37*
G36*
G01X1162300Y2807110D02*
G03X1156020Y3000000I-112300J92891D01*
G02X1170800Y3034260I14783J13940D01*
G01X1456640D01*
G02X1471000Y2999570I-5J-20319D01*
G01X1245270Y2773840D01*
X1177960D01*
G02X1162300Y2807110I-1J20320D01*
G37*
G36*
G01X1551430Y3080000D02*
X1100000D01*
X1030000Y3150000D01*
Y3780000D01*
X1090000Y3840000D01*
X1710000D01*
X1760000Y3790000D01*
Y3620000D01*
X1784900Y3595100D01*
Y3590760D01*
X1789240D01*
X1800000Y3580000D01*
X1980000D01*
X1990760Y3590760D01*
X2003380D01*
Y3603380D01*
X2010000Y3610000D01*
Y3880000D01*
X2030000Y3900000D01*
X4670000D01*
X4740000Y3830000D01*
Y3488440D01*
X4550000D01*
Y3690000D01*
X4460000Y3780000D01*
X4353380D01*
Y3789240D01*
X3926620D01*
Y3780000D01*
X3740000D01*
X3713240Y3753240D01*
X3696660D01*
Y3736660D01*
X3618240Y3658240D01*
X3425860D01*
Y3501760D01*
X3580000D01*
Y3383840D01*
X2716160D01*
X2600000Y3500000D01*
X2378760D01*
Y3539540D01*
X2221240D01*
Y3500000D01*
X2130000D01*
X2080000Y3450000D01*
Y3341570D01*
X1842270Y3103840D01*
X1575270D01*
X1551430Y3080000D01*
G37*
G36*
G01X1390000Y1335160D02*
Y1405000D01*
X1308200Y1406800D01*
X1310000Y1325000D01*
X1379840D01*
G03X1390000Y1335160I0J10160D01*
G37*
G36*
G01X1283480Y2280560D02*
X1328080Y2244280D01*
X1376970Y2290060D01*
X1328080Y2335720D01*
X1283220Y2295900D01*
G03X1283480Y2280560I10250J-7498D01*
G37*
G36*
G01X1284770Y2482570D02*
X1328080Y2444280D01*
X1376980Y2490000D01*
X1328080Y2535720D01*
X1284770Y2497430D01*
G03Y2482570I10300J-7430D01*
G37*
G36*
G01X1515890Y2379240D02*
X1480480Y2335720D01*
X1526200Y2283650D01*
X1571920Y2335720D01*
X1536510Y2379240D01*
G03X1515890I-10310J-23210D01*
G37*
G36*
G01Y2579240D02*
X1480480Y2535720D01*
X1526200Y2483650D01*
X1571920Y2535720D01*
X1536510Y2579240D01*
G03X1515890I-10310J-23210D01*
G37*
G36*
G01X1536510Y2400760D02*
X1571920Y2444280D01*
X1526200Y2496350D01*
X1480480Y2444280D01*
X1515890Y2400760D01*
G03X1536510I10310J23210D01*
G37*
G36*
G01X1732340Y2321460D02*
Y2279830D01*
X1720190Y2212840D01*
X1705790Y2198440D01*
X1695620D01*
G02X1688430Y2215780I-2J10160D01*
G01X1698440Y2225790D01*
Y2453470D01*
G02X1718680Y2473790I20320J0D01*
G03X1720380Y2473780I1298J76210D01*
G03X1721880Y2473800I-266J76220D01*
G01X1721920D01*
X1732340Y2473930D01*
Y2458540D01*
X1884740D01*
Y2321460D01*
X1732340D01*
G37*
G36*
G01X1774280Y2171580D02*
X1869520Y2184280D01*
X1826130Y2232150D01*
X1778080Y2275720D01*
X1761590Y2184810D01*
G03X1774280Y2171580I12690J-529D01*
G37*
G36*
G01X1734770Y2542570D02*
X1778080Y2504280D01*
X1826980Y2550000D01*
X1778080Y2595720D01*
X1734770Y2557430D01*
G03Y2542570I10300J-7430D01*
G37*
G36*
G01X1754120Y2558980D02*
X1741540Y2571540D01*
X1716820Y2550000D01*
X1741540Y2528460D01*
X1754120Y2541020D01*
G03Y2558980I-8980J8980D01*
G37*
G36*
G01X1968770Y2479030D02*
X1930480Y2435720D01*
X1976200Y2386820D01*
X2021920Y2435720D01*
X1983630Y2479030D01*
G03X1968770I-7430J-10300D01*
G37*
G36*
G01X1983630Y2460970D02*
X2021920Y2504280D01*
X1976200Y2553180D01*
X1930480Y2504280D01*
X1968770Y2460970D01*
G03X1983630I7430J10300D01*
G37*
G36*
G01X2169860Y2897350D02*
X2226170Y2850310D01*
X2292210Y2910000D01*
X2226170Y2969690D01*
X2169860Y2922650D01*
G03Y2897350I22030J-12650D01*
G37*
G36*
G01X2290480Y2552220D02*
Y2570000D01*
X2257750Y2572250D01*
X2260000Y2539520D01*
X2277780D01*
G03X2290480Y2552220I0J12700D01*
G37*
G36*
G01X2448890Y1417640D02*
X2396540Y1469990D01*
Y1770010D01*
X2410310Y1783780D01*
X2432120D01*
X2444300Y1771600D01*
X2456920D01*
Y1766760D01*
X2693240D01*
Y2016360D01*
X2766970D01*
X2844570Y2093960D01*
Y2606040D01*
X2771970Y2678640D01*
X2381970D01*
X2357000Y2703610D01*
Y2792670D01*
X2366940Y2804570D01*
X2599570D01*
Y3015430D01*
X2575220D01*
X2565280Y3027330D01*
Y3114670D01*
X2589470Y3138860D01*
X2914670D01*
X2954900Y3098630D01*
Y3001460D01*
X2774740D01*
Y2818540D01*
X2957660D01*
Y2838860D01*
X2982340D01*
Y2818540D01*
X3002660D01*
Y1866730D01*
X3113030Y1756360D01*
X3350000D01*
G03X3387030Y1766760I-4J71139D01*
G01X3473240D01*
Y1834140D01*
X3487880Y1848780D01*
X3784690D01*
X4140010Y1493460D01*
X5477170D01*
G02X5496920Y1468350I2J-20321D01*
G03X5493740Y1438480I111101J-26932D01*
G02X5473430Y1417640I-20314J-520D01*
G01X2448890D01*
G37*
G36*
G01X2298510Y2794000D02*
X2345550Y2850310D01*
X2285860Y2916350D01*
X2226170Y2850310D01*
X2273210Y2794000D01*
G03X2298510I12650J22030D01*
G37*
G36*
G01X2478000Y1824390D02*
X2492500Y1812500D01*
X2572540Y1827500D01*
X2492500Y1842500D01*
X2478000Y1830610D01*
G03Y1824390I9670J-3110D01*
G37*
G36*
G01Y1889390D02*
X2492500Y1877500D01*
X2572540Y1892500D01*
X2492500Y1907500D01*
X2478000Y1895610D01*
G03Y1889390I9670J-3110D01*
G37*
G36*
G01Y1954390D02*
X2492500Y1942500D01*
X2572540Y1957500D01*
X2492500Y1972500D01*
X2478000Y1960610D01*
G03Y1954390I9670J-3110D01*
G37*
G36*
G01Y2019390D02*
X2492500Y2007500D01*
X2572540Y2022500D01*
X2492500Y2037500D01*
X2478000Y2025610D01*
G03Y2019390I9670J-3110D01*
G37*
G36*
G01X2477660Y2150580D02*
X2492500Y2137500D01*
X2573180Y2152500D01*
X2492500Y2167500D01*
X2477660Y2154420D01*
G03Y2150580I12550J-1920D01*
G37*
G36*
G01Y2280580D02*
X2492500Y2267500D01*
X2573180Y2282500D01*
X2492500Y2297500D01*
X2477660Y2284420D01*
G03Y2280580I12550J-1920D01*
G37*
G36*
G01Y2540580D02*
X2492500Y2527500D01*
X2573180Y2542500D01*
X2492500Y2557500D01*
X2477660Y2544420D01*
G03Y2540580I12550J-1920D01*
G37*
G36*
G01Y2475580D02*
X2492500Y2462500D01*
X2573180Y2477500D01*
X2492500Y2492500D01*
X2477660Y2479420D01*
G03Y2475580I12550J-1920D01*
G37*
G36*
G01Y2670580D02*
X2492500Y2657500D01*
X2573180Y2672500D01*
X2492500Y2687500D01*
X2477660Y2674420D01*
G03Y2670580I12550J-1920D01*
G37*
G36*
G01X2481490Y3026000D02*
X2434450Y2969690D01*
X2494140Y2903650D01*
X2553830Y2969690D01*
X2506790Y3026000D01*
G03X2481490I-12650J-22030D01*
G37*
G36*
G01X2662340Y2674420D02*
X2647500Y2687500D01*
X2566820Y2672500D01*
X2647500Y2657500D01*
X2662340Y2670580D01*
G03Y2674420I-12550J1920D01*
G37*
G36*
G01X2955440Y2920310D02*
X2911920Y2955720D01*
X2859850Y2910000D01*
X2911920Y2864280D01*
X2955440Y2899690D01*
G03Y2920310I-23210J10310D01*
G37*
G36*
G01X3084110Y2820760D02*
X3119520Y2864280D01*
X3073800Y2916350D01*
X3028080Y2864280D01*
X3063490Y2820760D01*
G03X3084110I10310J23210D01*
G37*
G36*
G01X2984560Y2899690D02*
X3028080Y2864280D01*
X3080150Y2910000D01*
X3028080Y2955720D01*
X2984560Y2920310D01*
G03Y2899690I23210J-10310D01*
G37*
G36*
G01X3090650Y2959750D02*
X3127640Y3026500D01*
X3063590Y3096330D01*
X3000640Y3026500D01*
X3059920Y2957480D01*
G03X3090650Y2959750I13878J21271D01*
G37*
G36*
G01X3063490Y2999240D02*
X3028080Y2955720D01*
X3073800Y2903650D01*
X3119520Y2955720D01*
X3084110Y2999240D01*
G03X3063490I-10310J-23210D01*
G37*
G36*
G01X3124830Y3192880D02*
X3000640Y3153500D01*
X3060120Y3085080D01*
X3127640Y3026500D01*
X3153040Y3167640D01*
G03X3124830Y3192880I-25396J0D01*
G37*
G36*
G01X3173380Y2980760D02*
Y3022420D01*
X3192540Y3128860D01*
X3464740D01*
Y2818540D01*
X3489870D01*
X3497760Y2809610D01*
Y2710410D01*
X3490580Y2703230D01*
G02X3473240Y2710420I-7180J7188D01*
G01Y2733240D01*
X3226760D01*
Y2483640D01*
X3144940D01*
Y2818540D01*
X3165260D01*
Y2980760D01*
X3173380D01*
G37*
G36*
G01X3442000Y1895610D02*
X3427500Y1907500D01*
X3347460Y1892500D01*
X3427500Y1877500D01*
X3442000Y1889390D01*
G03Y1895610I-9670J3110D01*
G37*
G36*
G01Y1960610D02*
X3427500Y1972500D01*
X3347460Y1957500D01*
X3427500Y1942500D01*
X3442000Y1954390D01*
G03Y1960610I-9670J3110D01*
G37*
G36*
G01X3442340Y2024420D02*
X3427500Y2037500D01*
X3346820Y2022500D01*
X3427500Y2007500D01*
X3442340Y2020580D01*
G03Y2024420I-12550J1920D01*
G37*
G36*
G01Y2154420D02*
X3427500Y2167500D01*
X3346820Y2152500D01*
X3427500Y2137500D01*
X3442340Y2150580D01*
G03Y2154420I-12550J1920D01*
G37*
G36*
G01X3442000Y2285610D02*
X3427500Y2297500D01*
X3347460Y2282500D01*
X3427500Y2267500D01*
X3442000Y2279390D01*
G03Y2285610I-9670J3110D01*
G37*
G36*
G01Y2350610D02*
X3427500Y2362500D01*
X3347460Y2347500D01*
X3427500Y2332500D01*
X3442000Y2344390D01*
G03Y2350610I-9670J3110D01*
G37*
G36*
G01X3442340Y2219420D02*
X3427500Y2232500D01*
X3346820Y2217500D01*
X3427500Y2202500D01*
X3442340Y2215580D01*
G03Y2219420I-12550J1920D01*
G37*
G36*
G01X3442000Y2545610D02*
X3427500Y2557500D01*
X3347460Y2542500D01*
X3427500Y2527500D01*
X3442000Y2539390D01*
G03Y2545610I-9670J3110D01*
G37*
G36*
G01Y2480610D02*
X3427500Y2492500D01*
X3347460Y2477500D01*
X3427500Y2462500D01*
X3442000Y2474390D01*
G03Y2480610I-9670J3110D01*
G37*
G36*
G01X3442340Y2609420D02*
X3427500Y2622500D01*
X3346820Y2607500D01*
X3427500Y2592500D01*
X3442340Y2605580D01*
G03Y2609420I-12550J1920D01*
G37*
G36*
G01X3487880Y2391220D02*
X3475700Y2403400D01*
X3473240D01*
Y2419140D01*
X3487880Y2433780D01*
X3832830D01*
X4682510Y3283460D01*
X5477370D01*
G02X5497380Y3259650I-7J-20319D01*
G03X5495720Y3237060I112621J-19632D01*
G02X5475410Y3216220I-20314J-520D01*
G01X4649690D01*
X3824690Y2391220D01*
X3487880D01*
G37*
G36*
G01X3563630Y2820970D02*
X3601920Y2864280D01*
X3556200Y2913180D01*
X3510480Y2864280D01*
X3548770Y2820970D01*
G03X3563630I7430J10300D01*
G37*
G36*
G01X3548770Y2999030D02*
X3510480Y2955720D01*
X3556200Y2906820D01*
X3601920Y2955720D01*
X3563630Y2999030D01*
G03X3548770I-7430J-10300D01*
G37*
G36*
G01X3645230Y2917430D02*
X3601920Y2955720D01*
X3553020Y2910000D01*
X3601920Y2864280D01*
X3645230Y2902570D01*
G03Y2917430I-10300J7430D01*
G37*
G36*
G01X3563630Y2980970D02*
X3601920Y3024280D01*
X3556200Y3073180D01*
X3510480Y3024280D01*
X3548770Y2980970D01*
G03X3563630I7430J10300D01*
G37*
G36*
G01X3625740Y3383840D02*
Y3565740D01*
X3498950D01*
X3487770Y3576920D01*
G02X3494950Y3594260I7186J7181D01*
G01X3598950D01*
X3601450Y3596760D01*
X3623340D01*
Y3598650D01*
X3661970Y3637290D01*
G02X3696660Y3622920I14369J-14370D01*
G01Y3596760D01*
X3765220D01*
X3766890Y3596150D01*
G03X3795400Y3591160I28493J78853D01*
G01X3926620D01*
Y3570760D01*
X3952340D01*
Y3430910D01*
X3905270Y3383840D01*
X3625740D01*
G37*
G36*
G01X3587920Y2586220D02*
G02X3573240Y2620600I-3J20323D01*
G01X3600840Y2648190D01*
X3614640Y2661990D01*
Y2809610D01*
X3622530Y2818540D01*
X3957660D01*
Y3001460D01*
X3937340D01*
Y3163270D01*
X3919140Y3181470D01*
G02X3933500Y3216160I14364J14371D01*
G01X3974730D01*
X4127110Y3368540D01*
X4287660D01*
Y3551460D01*
X4257110D01*
X4145100Y3663470D01*
Y3734260D01*
X4441050D01*
X4504260Y3671050D01*
Y3441050D01*
X4514260Y3431050D01*
Y3419260D01*
X4526050D01*
X4541210Y3404100D01*
G02X4553040Y3369570I-2539J-20161D01*
G01X3769690Y2586220D01*
X3587920D01*
G37*
G36*
G01X3624770Y2902570D02*
X3668080Y2864280D01*
X3716980Y2910000D01*
X3668080Y2955720D01*
X3624770Y2917430D01*
G03Y2902570I10300J-7430D01*
G37*
G36*
G01X3855890Y2999240D02*
X3820480Y2955720D01*
X3866200Y2903650D01*
X3911920Y2955720D01*
X3876510Y2999240D01*
G03X3855890I-10310J-23210D01*
G37*
G36*
G01X4491920Y2194620D02*
X4394280Y2181920D01*
X4437620Y2134100D01*
X4485720Y2090480D01*
X4504590Y2181060D01*
G03X4491920Y2194620I-12670J861D01*
G37*
G36*
G01X4350970Y2336370D02*
X4394280Y2298080D01*
X4443180Y2343800D01*
X4394280Y2389520D01*
X4350970Y2351230D01*
G03Y2336370I10300J-7430D01*
G37*
G36*
G01X4529030Y2351230D02*
X4485720Y2389520D01*
X4436820Y2343800D01*
X4485720Y2298080D01*
X4529030Y2336370D01*
G03Y2351230I-10300J7430D01*
G37*
G36*
G01X4490010Y2334840D02*
X4562500Y2280000D01*
X4623170Y2350160D01*
X4562500Y2420000D01*
X4489250Y2351930D01*
G03X4490010Y2334840I9759J-8128D01*
G37*
G36*
G01X4709800Y2207500D02*
X4722500Y2060000D01*
X4781890Y2127450D01*
X4837500Y2200000D01*
X4723330Y2220170D01*
G03X4709800Y2207500I-833J-12670D01*
G37*
G36*
G01X4840000Y3488440D02*
Y3740000D01*
X5150000D01*
X5190000Y3700000D01*
Y3500000D01*
X5178440Y3488440D01*
X4840000D01*
G37*
G36*
G01X5577540Y1321100D02*
X5577550Y1274440D01*
X5608650Y1238960D01*
X5608020Y1300780D01*
X5587700Y1321100D01*
X5577540D01*
G37*
G36*
G01X5587700Y1361740D02*
X5608020Y1382060D01*
X5608650Y1443880D01*
X5577550Y1408400D01*
X5577540Y1361740D01*
X5587700D01*
G37*
G36*
G01X5579520Y3119680D02*
X5579530Y3073020D01*
X5610630Y3037540D01*
X5610000Y3099360D01*
X5589680Y3119680D01*
X5579520D01*
G37*
G36*
G01X5589680Y3160320D02*
X5610000Y3180640D01*
X5610630Y3242460D01*
X5579530Y3206980D01*
X5579520Y3160320D01*
X5589680D01*
G37*
G36*
G01X5723660Y490000D02*
G02X5709090Y524490I-5J20320D01*
G03X5683840Y840480I-151070J146932D01*
G02X5695970Y877100I12131J16301D01*
G01X5722340D01*
Y882180D01*
X5753700D01*
Y877100D01*
X5982340D01*
Y882180D01*
X6007170D01*
G02X6018680Y845110I4J-20321D01*
G03X5986950Y524490I119341J-173691D01*
G02X5972380Y490000I-14565J-14170D01*
G01X5723660D01*
G37*
G36*
G01X5837540Y1321100D02*
X5837550Y1274440D01*
X5868650Y1238960D01*
X5868020Y1300780D01*
X5847700Y1321100D01*
X5837540D01*
G37*
G36*
G01X5847700Y1361740D02*
X5868020Y1382060D01*
X5868650Y1443880D01*
X5837550Y1408400D01*
X5837540Y1361740D01*
X5847700D01*
G37*
G36*
G01X5839520Y3119680D02*
X5839530Y3073020D01*
X5870630Y3037540D01*
X5870000Y3099360D01*
X5849680Y3119680D01*
X5839520D01*
G37*
G36*
G01X5849680Y3160320D02*
X5870000Y3180640D01*
X5870630Y3242460D01*
X5839530Y3206980D01*
X5839520Y3160320D01*
X5849680D01*
G37*
%LPC*%
G75*
G36*
G01X2956300Y3464040D02*
G03X2938220Y3448540I1677J-20251D01*
G01X2754740D01*
Y3475260D01*
X2740000Y3490000D01*
Y3590000D01*
X2721460Y3608540D01*
X2602340D01*
Y3610000D01*
X2480360D01*
Y3600460D01*
X2322840D01*
Y3607160D01*
X2280000Y3650000D01*
Y3770000D01*
X2322840D01*
Y3793540D01*
X2480360D01*
Y3780840D01*
X2602340D01*
Y3791460D01*
X2937660D01*
Y3770000D01*
X2976620D01*
Y3789240D01*
X3195100D01*
Y3770000D01*
X3230000D01*
Y3520000D01*
X3190000Y3480000D01*
X2997010D01*
G02X2956300Y3464040I-47006J60001D01*
G37*
G54D36*
X6138020Y2001420D03*
G54D37*
X5870000Y3490000D03*
X5868020Y1691420D03*
G54D38*
X1230000Y3380000D03*
G54D39*
X3795400Y3485000D03*
%LPD*%
G75*
G36*
G01X2935230Y3547430D02*
X2891920Y3585720D01*
X2843020Y3540000D01*
X2891920Y3494280D01*
X2935230Y3532570D01*
G03Y3547430I-10300J7430D01*
G37*
G36*
G01X2838770Y3629030D02*
X2800480Y3585720D01*
X2846200Y3536820D01*
X2891920Y3585720D01*
X2853630Y3629030D01*
G03X2838770I-7430J-10300D01*
G37*
G36*
G01X2853630Y3610970D02*
X2891920Y3654280D01*
X2846200Y3703180D01*
X2800480Y3654280D01*
X2838770Y3610970D01*
G03X2853630I7430J10300D01*
G37*
G36*
G01X3046350Y3525740D02*
G02X3026070Y3544780I-1J20320D01*
G03X2956300Y3615960I-76070J-4779D01*
G02X2937660Y3636210I1679J20250D01*
G01Y3724260D01*
X3184260D01*
Y3538950D01*
X3171050Y3525740D01*
X3046350D01*
G37*
G36*
G01X2915880Y3531020D02*
X2928460Y3518460D01*
X2953180Y3540000D01*
X2928460Y3561540D01*
X2915880Y3548980D01*
G03Y3531020I8980J-8980D01*
G37*
G54D10*
X330000Y330000D03*
Y4150000D03*
X6800000Y330000D03*
Y4150000D03*
G54D20*
X1685860Y3700000D03*
X1894140D03*
X2855860Y3090000D03*
X3064140D03*
X3085860Y3680000D03*
X3294140D03*
X4035860D03*
X4244140D03*
X4995860Y800000D03*
Y990000D03*
Y2600000D03*
Y2790000D03*
X5204140Y800000D03*
Y990000D03*
Y2600000D03*
Y2790000D03*
G54D11*
X184890Y859460D03*
Y1159460D03*
Y1459460D03*
Y1759460D03*
X243020Y2886090D03*
Y3186090D03*
Y3486090D03*
X828290Y1210060D03*
Y1510060D03*
X810000Y2140000D03*
Y2600000D03*
X1114300Y1716590D03*
X1130000Y2040000D03*
X1490000Y1180000D03*
Y1410000D03*
X1414300Y1716590D03*
X1688290Y650060D03*
Y950060D03*
X1690000Y1180000D03*
Y1420000D03*
X1714300Y1716590D03*
X1640000Y2040000D03*
X1720000Y2390000D03*
Y2550000D03*
X1840000Y1520000D03*
X1860000Y1720000D03*
X1900000Y1920000D03*
X1988290Y650060D03*
Y950060D03*
X1950000Y1290000D03*
X2050000Y2060000D03*
X2230000Y1350000D03*
X2150000Y1550000D03*
Y1750000D03*
X2288290Y650060D03*
Y950060D03*
X2240000Y1880000D03*
X2260000Y2570000D03*
X2480000Y1230000D03*
X2440000Y1500000D03*
X2430000Y1730000D03*
X2588290Y650060D03*
Y950060D03*
X2660000Y1450000D03*
X2628290Y2770060D03*
Y3070060D03*
X2888290Y650060D03*
Y950060D03*
X2768290Y1230060D03*
X3068290D03*
X2948290Y1450060D03*
X3038290Y1620060D03*
X2938290Y1880060D03*
Y2180060D03*
X2928290Y2440060D03*
Y2740060D03*
X3060000Y3560000D03*
X2950000Y3540000D03*
X3188290Y650060D03*
Y950060D03*
X3248290Y1450060D03*
X3150000Y3560000D03*
X3368290Y1230060D03*
X3338290Y1620060D03*
X3420000Y2780000D03*
X3258290Y2780060D03*
Y3080060D03*
X3488290Y650060D03*
Y950060D03*
X3548290Y1450060D03*
X3530000Y1800000D03*
X3540000Y2410000D03*
X3668290Y1230060D03*
X3638290Y1620060D03*
X3760000Y1790000D03*
X3740000Y2410000D03*
X3620000Y2620000D03*
X3660000Y3420000D03*
Y3500000D03*
Y3580000D03*
X3788290Y650060D03*
Y950060D03*
X3848290Y1450060D03*
X3810000Y2680000D03*
X3920000Y3510000D03*
X4088290Y650060D03*
Y950060D03*
X3968290Y1230060D03*
X3938290Y1620060D03*
X4010000Y1920000D03*
X3990000Y2310000D03*
X4000000Y2870000D03*
X3980000Y3100000D03*
X4268290Y1230060D03*
X4148290Y1450060D03*
X4220000Y1690000D03*
X4160000Y2460000D03*
X4190000Y3070000D03*
X4120000Y3280000D03*
X4388290Y650060D03*
Y950060D03*
X4310000Y2470000D03*
X4350000Y2660000D03*
X4380000Y3250000D03*
X4410000Y3500000D03*
Y3630000D03*
X4568290Y1230060D03*
X4448290Y1450060D03*
X4497670Y1685540D03*
X4600000Y1970000D03*
X4560000Y2510000D03*
X4540000Y2840000D03*
X4500000Y3370000D03*
X4688290Y650060D03*
Y950060D03*
X4748290Y1450060D03*
X4740000Y3020000D03*
Y3250000D03*
X4868290Y1230060D03*
X4797670Y1685540D03*
X4790000Y1970000D03*
X4910000Y2370000D03*
X4790000Y2500000D03*
X4930000Y3030000D03*
Y3250000D03*
X5048290Y1450060D03*
X5097670Y1685540D03*
X4978290Y1900060D03*
Y2200060D03*
X5070000Y3500000D03*
Y3570000D03*
Y3640000D03*
Y3710000D03*
X5168290Y1230060D03*
X5278290Y1900060D03*
Y2200060D03*
X5150000Y3500000D03*
Y3570000D03*
Y3640000D03*
Y3710000D03*
X5348290Y1450060D03*
X5310000Y3030000D03*
X5300000Y3250000D03*
X6068290Y1280060D03*
Y1580060D03*
X6274130Y3021690D03*
Y3321690D03*
X6368290Y1280060D03*
Y1580060D03*
X6574130Y3021690D03*
Y3321690D03*
X6871170Y915490D03*
Y1215490D03*
Y1515490D03*
Y1815490D03*
Y2115490D03*
Y2415490D03*
Y2715490D03*
Y3015490D03*
Y3315490D03*
G54D30*
G01X1110000Y1405000D02*
X1235640Y1279360D01*
X1806840D01*
X2000640Y1473160D01*
Y1803160D01*
X2167160Y1969680D01*
X2455270D01*
X2467450Y1957500D01*
X2570000D01*
G01X1310000Y1405000D02*
X1395000Y1320000D01*
X1790000D01*
X1960000Y1490000D01*
Y1820000D01*
X2150320Y2010320D01*
X2455270D01*
X2467450Y2022500D01*
X2570000D01*
G01X5608020Y1241420D02*
Y1300780D01*
X5587700Y1321100D01*
X2408900D01*
X2300000Y1430000D01*
Y1810000D01*
X2370320Y1880320D01*
X2455270D01*
X2467450Y1892500D01*
X2570000D01*
G01X5608020Y1441420D02*
Y1382060D01*
X5587700Y1361740D01*
X2425740D01*
X2340640Y1446840D01*
Y1793160D01*
X2387160Y1839680D01*
X2455270D01*
X2467450Y1827500D01*
X2570000D01*
G01X3350000Y1892500D02*
X3452550D01*
X3464730Y1904680D01*
X3807840D01*
X4163160Y1549360D01*
X5683160D01*
X5719360Y1513160D01*
Y1373160D01*
X5771420Y1321100D01*
X5847700D01*
X5868020Y1300780D01*
Y1241420D01*
G01X3350000Y1957500D02*
X3452550D01*
X3464730Y1945320D01*
X3824680D01*
X4180000Y1590000D01*
X5700000D01*
X5760000Y1530000D01*
Y1390000D01*
X5788260Y1361740D01*
X5847700D01*
X5868020Y1382060D01*
Y1441420D01*
G01X3350000Y2282500D02*
X3452550D01*
X3464730Y2294680D01*
X3864680D01*
X4689680Y3119680D01*
X5589680D01*
X5610000Y3099360D01*
Y3040000D01*
G01X3350000Y2347500D02*
X3452550D01*
X3464730Y2335320D01*
X3847840D01*
X4672840Y3160320D01*
X5589680D01*
X5610000Y3180640D01*
Y3240000D01*
G01X5870000D02*
Y3180640D01*
X5849680Y3160320D01*
X5779680D01*
X5760000Y3180000D01*
Y3320000D01*
X5700000Y3380000D01*
X4642520D01*
X3792840Y2530320D01*
X3464730D01*
X3452550Y2542500D01*
X3350000D01*
G01X5870000Y3040000D02*
Y3099360D01*
X5849680Y3119680D01*
X5762840D01*
X5719360Y3163160D01*
Y3303160D01*
X5683160Y3339360D01*
X4659360D01*
X3809680Y2489680D01*
X3464730D01*
X3452550Y2477500D01*
X3350000D01*
G54D12*
X128400Y2290000D03*
Y2490000D03*
X331600Y2290000D03*
Y2490000D03*
G54D21*
X2198400Y3697000D03*
X2300000Y3443000D03*
X2401600Y3697000D03*
G54D31*
G01X474100Y3380000D02*
X630000D01*
G01X618100Y678000D02*
X839000D01*
G01X618100Y1882000D02*
X839000D01*
G01X630000Y3380000D02*
Y3635900D01*
G01Y3380000D02*
X785900D01*
G01X839000Y678000D02*
Y898900D01*
G01Y678000D02*
X1059900D01*
G01X839000Y1661100D02*
Y1882000D01*
G01D02*
X1059900D01*
G01X950000Y2744100D02*
Y2900000D01*
G01D02*
Y3055900D01*
G01Y2900000D02*
X1205900D01*
G01X1230000Y3124100D02*
Y3380000D01*
G01D02*
Y3635900D01*
G01Y3380000D02*
X1385900D01*
G01X5337120Y671420D02*
X5558020D01*
G01X5337120Y2001420D02*
X5558020D01*
G01X5339100Y2470000D02*
X5560000D01*
G01X5339100Y3800000D02*
X5560000D01*
G01X5558020Y671420D02*
X5778920D01*
G01X5488620Y1691420D02*
X5608020D01*
G01D02*
X5727420D01*
G01X5558020Y2001420D02*
Y2222320D01*
G01Y2001420D02*
X5778920D01*
G01X5560000Y2249100D02*
Y2470000D01*
G01D02*
X5780900D01*
G01X5490600Y3490000D02*
X5610000D01*
G01D02*
X5729400D01*
G01X5560000Y3800000D02*
X5780900D01*
G01X5748620Y1691420D02*
X5868020D01*
G01X5750600Y3490000D02*
X5870000D01*
G01X5917120Y671420D02*
X6138020D01*
G01X5868020Y1572020D02*
Y1691420D01*
G01D02*
Y1810820D01*
G01Y1691420D02*
X5987420D01*
G01X5917120Y2001420D02*
X6138020D01*
G01X5919100Y2470000D02*
X6140000D01*
G01X5870000Y3370600D02*
Y3490000D01*
G01D02*
Y3609400D01*
G01Y3490000D02*
X5989400D01*
G01X5919100Y3800000D02*
X6140000D01*
G01X6138020Y671420D02*
X6358920D01*
G01X6138020Y1780520D02*
Y2001420D01*
G01D02*
Y2222320D01*
G01Y2001420D02*
X6358920D01*
G01X6140000Y2249100D02*
Y2470000D01*
G01D02*
X6360900D01*
G01X6140000Y3579100D02*
Y3800000D01*
G01D02*
X6360900D01*
G54D22*
X2285860Y2910000D03*
X2494140D03*
G54D13*
X630000Y3380000D03*
X1230000D03*
G54D32*
G01X331600Y2290000D02*
X643800D01*
G01Y2490000D02*
X331600D01*
G01X810000Y2140000D02*
X1730000D01*
X1820000Y2230000D01*
X1823800D01*
G01X1100000Y2288400D02*
X1372200D01*
X1373800Y2290000D01*
G01Y2490000D02*
X1101600D01*
X1100000Y2491600D01*
G01X2570000Y2477500D02*
X2212500D01*
X2050000Y2640000D01*
X1700000D01*
X1640000Y2580000D01*
Y2250000D01*
X1590000Y2200000D01*
X1463800D01*
X1373800Y2290000D01*
G01X1823800Y2550000D02*
X1720000D01*
G01X2570000Y2152500D02*
X2053700D01*
X1976200Y2230000D01*
G01X2570000Y2282500D02*
X2083700D01*
X1976200Y2390000D01*
G01Y2550000D02*
Y2390000D01*
G01X2570000Y2542500D02*
X2287500D01*
X2260000Y2570000D01*
G01X2390000Y2690000D02*
X2407500Y2672500D01*
X2570000D01*
G01D02*
X2787500D01*
G01D02*
X2790000Y2670000D01*
G01X2846200Y3700000D02*
Y3540000D01*
G01D02*
X2950000D01*
G01X3350000Y2022500D02*
X4166300D01*
X4280000Y2136200D01*
G01X4440000D02*
X4286200Y2290000D01*
X4170000D01*
X4032500Y2152500D01*
X3350000D01*
G01X4440000Y2343800D02*
X4153800D01*
X4027500Y2217500D01*
X3350000D01*
G01X3556200Y2910000D02*
Y2686200D01*
X3477500Y2607500D01*
X3350000D01*
G01X3556200Y2910000D02*
X3713800D01*
G01X3556200Y3070000D02*
Y2910000D01*
G01X4780000Y2130000D02*
Y2150000D01*
X4690000Y2240000D01*
X4550000D01*
X4446200Y2136200D01*
X4440000D01*
G01Y2343800D02*
X4613800D01*
X4620000Y2350000D01*
G01X4580000Y3430000D02*
X4540000Y3390000D01*
G01X4510000Y3420000D02*
X4520000Y3430000D01*
X4550000D01*
G01D02*
X4530000Y3410000D01*
G01X4550000Y3430000D02*
X4580000D01*
G01X5220000Y3440000D02*
X5210000Y3430000D01*
X4580000D01*
G01X5230000Y3440000D02*
X5220000D01*
G54D14*
X839000Y678000D03*
Y1882000D03*
X5558020Y671420D03*
Y2001420D03*
X5560000Y2470000D03*
Y3800000D03*
X6138020Y671420D03*
Y2001420D03*
X6140000Y2470000D03*
Y3800000D03*
G54D23*
X2570000Y1827500D03*
Y1892500D03*
Y1957500D03*
Y2022500D03*
Y2087500D03*
Y2152500D03*
Y2217500D03*
Y2282500D03*
Y2347500D03*
Y2412500D03*
Y2477500D03*
Y2542500D03*
Y2607500D03*
Y2672500D03*
X3350000Y1827500D03*
Y2022500D03*
Y1957500D03*
Y1892500D03*
Y2217500D03*
Y2152500D03*
Y2087500D03*
Y2347500D03*
Y2282500D03*
Y2542500D03*
Y2477500D03*
Y2412500D03*
Y2672500D03*
Y2607500D03*
G54D33*
G01X6800000Y4480000D02*
G02X7130000Y4150000I0J-330000D01*
G01Y330000D01*
G02X6800000Y0I-330000J0D01*
G02X6470000Y330000I0J330000D01*
G01Y380000D01*
G03X6370000Y480000I-100000J0D01*
G01X760000D01*
G03X660000Y380000I0J-100000D01*
G01Y330000D01*
G02X330000Y0I-330000J0D01*
G02X0Y330000I0J330000D01*
G01Y4150000D01*
G02X330000Y4480000I330000J0D01*
G02X660000Y4150000I0J-330000D01*
G01Y4100000D01*
G03X760000Y4000000I100000J0D01*
G01X6370000D01*
G03X6470000Y4100000I0J100000D01*
G01Y4150000D01*
G02X6800000Y4480000I330000J0D01*
G54D15*
X643800Y2290000D03*
Y2490000D03*
X796200Y2290000D03*
Y2490000D03*
X1373800Y2290000D03*
Y2490000D03*
X1526200Y2290000D03*
Y2490000D03*
X1823800Y2230000D03*
Y2390000D03*
Y2550000D03*
X1976200Y2230000D03*
Y2390000D03*
Y2550000D03*
X2713800Y2910000D03*
X2693800Y3540000D03*
Y3700000D03*
X2866200Y2910000D03*
X2846200Y3540000D03*
Y3700000D03*
X3073800Y2910000D03*
X3226200D03*
X3403800D03*
Y3070000D03*
X3556200Y2910000D03*
Y3070000D03*
X3713800Y2910000D03*
X3866200D03*
X4043800Y3460000D03*
X4196200D03*
G54D24*
X3524600Y3485000D03*
Y3580000D03*
Y3675000D03*
X3795400Y3485000D03*
Y3675000D03*
G54D34*
G01X1526200Y2290000D02*
Y2490000D01*
G01X2285860Y2910000D02*
X1760000D01*
X1526200Y2676200D01*
Y2490000D01*
G01X2285860Y2910000D02*
Y2674140D01*
X2352500Y2607500D01*
X2570000D01*
G01X3064140Y3090000D02*
X2944140Y3210000D01*
X2560000D01*
X2494140Y3144140D01*
Y2910000D01*
G01X2570000Y2607500D02*
X2742500D01*
X2773430Y2576570D01*
Y2123430D01*
X2737500Y2087500D01*
X2570000D01*
G01X2866200Y2910000D02*
X3073800D01*
G01Y2090000D02*
Y1896200D01*
X3142500Y1827500D01*
X3350000D01*
G01Y2087500D02*
X3076300D01*
X3073800Y2090000D01*
G01X3350000Y2412500D02*
X3076300D01*
X3073800Y2410000D01*
G01Y2910000D02*
Y3080340D01*
X3064140Y3090000D01*
G01X3866200Y2910000D02*
Y3133800D01*
X3800000Y3200000D01*
X3160000D01*
X3064140Y3104140D01*
Y3090000D01*
G01X3073800Y2410000D02*
Y2090000D01*
G01Y2910000D02*
Y2410000D01*
G54D25*
X4280000Y1983800D03*
X4440000D03*
X4280000Y2136200D03*
X4440000D03*
Y2343800D03*
Y2496200D03*
G54D16*
X950000Y2900000D03*
G54D35*
G01X796200Y2290000D02*
Y2256200D01*
X490000Y1950000D01*
Y1240000D01*
X730000Y1000000D01*
X1180000D01*
X1310000Y1130000D01*
Y1155000D01*
G01X810000Y2600000D02*
X660000Y2750000D01*
Y3050000D01*
X990000Y3380000D01*
X1230000D01*
G01X796200Y2290000D02*
X820000D01*
X930000Y2400000D01*
Y2560000D01*
X1060000Y2690000D01*
X1280000D01*
X1610000Y3020000D01*
X1877000D01*
X2300000Y3443000D01*
G01X796200Y2490000D02*
Y2586200D01*
X810000Y2600000D01*
G01X4043800Y3460000D02*
Y3403800D01*
X3940000Y3300000D01*
X2390000D01*
X2285860Y3195860D01*
Y2910000D01*
G01X2401600Y3697000D02*
X2690800D01*
X2693800Y3700000D01*
G01X3795400Y3675000D02*
X4030860D01*
X4035860Y3680000D01*
G01X4196200Y3460000D02*
Y3493800D01*
X4035860Y3654140D01*
Y3680000D01*
G54D17*
X1110000Y1155000D03*
Y1405000D03*
X1310000D03*
G54D26*
X4620000Y2130000D03*
Y2350000D03*
X4780000Y2130000D03*
Y2350000D03*
G54D18*
X1100000Y2288400D03*
Y2491600D03*
G54D27*
X4640000Y3600000D03*
X4920000D03*
G54D28*
X5608020Y991420D03*
X5610000Y2790000D03*
X5868020Y991420D03*
X5870000Y2790000D03*
G54D19*
X1310000Y1155000D03*
G54D29*
G01X5204140Y800000D02*
Y990000D01*
G01X5608020Y991420D02*
X5205560D01*
X5204140Y990000D01*
G01Y2600000D02*
Y2790000D01*
G01X5610000D02*
X5204140D01*
G01X5868020Y991420D02*
X5608020D01*
G01X5610000Y2790000D02*
X5870000D01*
G01D02*
X6440000D01*
X6590000Y2640000D01*
Y1160000D01*
X6421420Y991420D01*
X5868020D01*
X5608020Y1241420D03*
Y1441420D03*
Y1691420D03*
X5610000Y3040000D03*
Y3240000D03*
Y3490000D03*
X5868020Y1241420D03*
Y1441420D03*
Y1691420D03*
X5870000Y3040000D03*
Y3240000D03*
Y3490000D03*
M02*
