M48
METRIC,TZ
T01C.3048
T02C.8
T03C.8128
T04C.9
T05C2.3
T06C3.4036
;LEADER: 12 
;HEADER: 
;CODE  : ASCII 
;FILE  : USBHUB_V11A-1-2.drl for board H:/GitHub/MBEDBoard/USBHUB_V11A/PCB/#Taaaabl10448.tmp ... layers TOP and BOTTOM
;T01 Holesize 1. = 0.304800 Tolerance = +0.000000/-0.000000 PLATED MM Quantity = 160
;T02 Holesize 2. = 0.800000 Tolerance = +0.000000/-0.000000 PLATED MM Quantity = 12
;T03 Holesize 3. = 0.812800 Tolerance = +0.000000/-0.000000 PLATED MM Quantity = 4
;T04 Holesize 4. = 0.900000 Tolerance = +0.000000/-0.000000 PLATED MM Quantity = 4
;T05 Holesize 5. = 2.300000 Tolerance = +0.000000/-0.000000 PLATED MM Quantity = 10
;T06 Holesize 6. = 3.403600 Tolerance = +0.000000/-0.000000 PLATED MM Quantity = 4
%
G90
T01
X184890Y859460
X184890Y1159460
X184890Y1459460
X184890Y1759460
X243020Y2886090
X243020Y3186090
X243020Y3486090
X810000Y2600000
X810000Y2140000
X828290Y1510060
X828290Y1210060
X1490000Y1180000
X1490000Y1410000
X1114300Y1716590
X1414300Y1716590
X1130000Y2040000
X1720000Y2550000
X1720000Y2390000
X1640000Y2040000
X1900000Y1920000
X1860000Y1720000
X1714300Y1716590
X1840000Y1520000
X1690000Y1420000
X1950000Y1290000
X1690000Y1180000
X1988290Y950060
X1688290Y950060
X1988290Y650060
X1688290Y650060
X2288290Y650060
X2288290Y950060
X2480000Y1230000
X2230000Y1350000
X2440000Y1500000
X2150000Y1550000
X2430000Y1730000
X2150000Y1750000
X2240000Y1880000
X2050000Y2060000
X2260000Y2570000
X2950000Y3540000
X2628290Y3070060
X2628290Y2770060
X2928290Y2740060
X2928290Y2440060
X2938290Y2180060
X2938290Y1880060
X3038290Y1620060
X2948290Y1450060
X2660000Y1450000
X2768290Y1230060
X2888290Y950060
X2588290Y950060
X2888290Y650060
X2588290Y650060
X3188290Y650060
X3488290Y650060
X3188290Y950060
X3488290Y950060
X3068290Y1230060
X3368290Y1230060
X3248290Y1450060
X3548290Y1450060
X3338290Y1620060
X3530000Y1800000
X3540000Y2410000
X3420000Y2780000
X3258290Y2780060
X3258290Y3080060
X3060000Y3560000
X3150000Y3560000
X3660000Y3580000
X3920000Y3510000
X3660000Y3500000
X3660000Y3420000
X3980000Y3100000
X4000000Y2870000
X3810000Y2680000
X3620000Y2620000
X3740000Y2410000
X3990000Y2310000
X4010000Y1920000
X3760000Y1790000
X3938290Y1620060
X3638290Y1620060
X3848290Y1450060
X3968290Y1230060
X3668290Y1230060
X3788290Y950060
X3788290Y650060
X4088290Y650060
X4388290Y650060
X4088290Y950060
X4388290Y950060
X4268290Y1230060
X4568290Y1230060
X4148290Y1450060
X4448290Y1450060
X4497670Y1685540
X4220000Y1690000
X4160000Y2460000
X4310000Y2470000
X4560000Y2510000
X4350000Y2660000
X4540000Y2840000
X4190000Y3070000
X4380000Y3250000
X4120000Y3280000
X4500000Y3370000
X4410000Y3500000
X4410000Y3630000
X5070000Y3710000
X5070000Y3640000
X5070000Y3570000
X5070000Y3500000
X4930000Y3250000
X4740000Y3250000
X4930000Y3030000
X4740000Y3020000
X4790000Y2500000
X4910000Y2370000
X4978290Y2200060
X4790000Y1970000
X4600000Y1970000
X4978290Y1900060
X4797670Y1685540
X5048290Y1450060
X4748290Y1450060
X4868290Y1230060
X4688290Y950060
X4688290Y650060
X5168290Y1230060
X5348290Y1450060
X5097670Y1685540
X5278290Y1900060
X5278290Y2200060
X5310000Y3030000
X5300000Y3250000
X5150000Y3500000
X5150000Y3570000
X5150000Y3640000
X5150000Y3710000
X6068290Y1580060
X6068290Y1280060
X6368290Y1280060
X6368290Y1580060
X6274130Y3021690
X6574130Y3021690
X6274130Y3321690
X6574130Y3321690
X6871170Y3315490
X6871170Y3015490
X6871170Y2715490
X6871170Y2415490
X6871170Y2115490
X6871170Y1815490
X6871170Y1515490
X6871170Y1215490
X6871170Y915490
T02
X5608020Y1241420
X5868020Y1241420
X5868020Y1441420
X5608020Y1441420
X5608020Y1691420
X5868020Y1691420
X5870000Y3040000
X5610000Y3040000
X5610000Y3240000
X5870000Y3240000
X5870000Y3490000
X5610000Y3490000
T03
X5608020Y991420
X5868020Y991420
X5870000Y2790000
X5610000Y2790000
T04
X1110000Y1155000
X1310000Y1155000
X1310000Y1405000
X1110000Y1405000
T05
X839000Y678000
X839000Y1882000
X5558020Y671420
X6138020Y671420
X5558020Y2001420
X6138020Y2001420
X5560000Y2470000
X6140000Y2470000
X5560000Y3800000
X6140000Y3800000
T06
X330000Y330000
X330000Y4150000
X6800000Y4150000
X6800000Y330000
M30
