G04 ================== begin FILE IDENTIFICATION RECORD ==================*
G04 Layout Name:  G:/SVN/test/LAN9500_TEST_V10A/PCB/LAN9500_TEST_V10A.brd*
G04 Film Name:    BOTTOM*
G04 File Format:  Gerber RS274X*
G04 File Origin:  Cadence Allegro 17.2-S045*
G04 Origin Date:  Mon Feb 25 08:57:33 2019*
G04 *
G04 Layer:  BOARD GEOMETRY/OUTLINE*
G04 Layer:  ETCH/BOTTOM*
G04 Layer:  PIN/BOTTOM*
G04 Layer:  VIA CLASS/BOTTOM*
G04 *
G04 Offset:    (0.0000 0.0000)*
G04 Mirror:    No*
G04 Mode:      Positive*
G04 Rotation:  0*
G04 FullContactRelief:  No*
G04 UndefLineWidth:     0.1524*
G04 ================== end FILE IDENTIFICATION RECORD ====================*
%FSLAX55Y55*MOMM*%
%IR0*IPPOS*OFA0.00000B0.00000*MIA0B0*SFA1.00000B1.00000*%
%ADD15R,.6604X1.016*%
%ADD17C,.762*%
%ADD12C,.6096*%
%ADD10C,3.3*%
%ADD14C,1.6*%
%ADD20C,2.7*%
%ADD13R,1.6X1.6*%
%ADD16R,.9144X.9144*%
%ADD19C,1.6993*%
%ADD11R,.9144X.9144*%
%ADD18R,1.1938X1.1938*%
%ADD21C,.4*%
%ADD22C,.2032*%
%ADD23C,.254*%
%ADD24C,.7112*%
%ADD25C,.1524*%
%ADD26C,.508*%
%ADD27C,1.27*%
G75*
%LPD*%
G75*
G36*
G01X300000Y1840000D02*
X4590200D01*
G02X4606860Y1808040I3J-20321D01*
G03X4577330Y1737660I148140J-103542D01*
G02X4542980Y1727020I-19976J3724D01*
G01X4510000Y1760000D01*
X4506530D01*
X4499990Y1766540D01*
X4070000D01*
G03X4036720Y1760620I6J-96539D01*
G01X4035030Y1760000D01*
X3841540D01*
X3839240Y1761280D01*
G03X3819520Y1766380I-19716J-35561D01*
G01X3728080D01*
G03X3708360Y1761280I-4J-40661D01*
G01X3706060Y1760000D01*
X2106530D01*
X2049990Y1816540D01*
X1530010D01*
X1473470Y1760000D01*
X420000D01*
X390000Y1730000D01*
Y1711500D01*
X377140D01*
X374790Y1712840D01*
G03X270000Y1740740I-104790J-182841D01*
G03Y1319260I0J-210740D01*
G03X360910Y1339880I-6J210739D01*
G02X390000Y1321550I8769J-18331D01*
G01Y1284490D01*
X236960Y1131450D01*
Y850000D01*
G03X248580Y800970I109250J0D01*
G01X249660Y798820D01*
Y763800D01*
G03X277940Y695540I96537J7D01*
G01X331740Y641740D01*
G03X381760Y615200I68267J68257D01*
G01X390000Y613610D01*
Y538450D01*
G02X360910Y520120I-20321J1D01*
G03X270000Y540740I-90916J-190119D01*
G03Y119260I0J-210740D01*
G03X360910Y139880I-6J210739D01*
G02X390000Y121550I8769J-18331D01*
G01Y20000D01*
X300000D01*
G02X20000Y300000I8636J288636D01*
G01Y1560000D01*
G02X300000Y1840000I290455J-10455D01*
G37*
G36*
G01X808530Y959180D02*
X2677500D01*
G02X2691870Y924490I2J-20320D01*
G01X2653940Y886560D01*
Y477360D01*
X2475670Y299100D01*
X2383330Y278740D01*
X2375740Y284840D01*
Y285740D01*
X1978950D01*
X1965740Y298950D01*
Y825740D01*
X1791050D01*
X1644260Y678950D01*
Y20000D01*
X440000D01*
Y197040D01*
G03X485820Y330000I-170001J132960D01*
G03X466000Y420350I-215821J4D01*
G02X484450Y449180I18451J8511D01*
G01X620000D01*
G03X670820Y500000I0J50820D01*
G01Y660000D01*
G03X640550Y706480I-50820J0D01*
G02X634150Y739170I8222J18581D01*
G03X670820Y830000I-94156J90830D01*
G01Y858860D01*
X708210D01*
X808530Y959180D01*
G37*
G36*
G01X356510Y760760D02*
X391920Y804280D01*
X346200Y856350D01*
X300480Y804280D01*
X335890Y760760D01*
G03X356510I10310J23210D01*
G37*
G36*
G01X460000Y1710000D02*
X570680D01*
G02X590530Y1685310I5J-20321D01*
G03X588860Y1670000I69469J-15324D01*
G03X660000Y1598860I71140J0D01*
G03X707050Y1616640I0J71143D01*
G01X1201140D01*
G02X1218660Y1586030I-2J-20320D01*
G03X1208860Y1550000I61333J-36030D01*
G03X1226640Y1502950I71143J0D01*
G01Y1463300D01*
X1276400Y1413530D01*
X1271700Y1406590D01*
G03X1264720Y1383800I33683J-22780D01*
G01Y1293360D01*
X1133700D01*
X1031090Y1395970D01*
X1030700Y1399510D01*
G03X960000Y1462740I-70700J-7911D01*
G03X888860Y1391600I0J-71140D01*
G03X952090Y1320900I71141J0D01*
G01X955630Y1320510D01*
X978820Y1297320D01*
G02X963460Y1262660I-14370J-14365D01*
G03X960000Y1262740I-3374J-71062D01*
G03X888860Y1191600I0J-71140D01*
G03X914050Y1137290I71142J0D01*
G02X900920Y1101460I-13127J-15510D01*
G01X749590D01*
X700880Y1052750D01*
G02X666810Y1062130I-14371J14367D01*
G03X609540Y1140810I-126815J-32124D01*
G02X609160Y1174990I10799J17212D01*
G03X665740Y1280000I-69157J105010D01*
G03X540000Y1405740I-125740J0D01*
G03X456880Y1374350I0J-125745D01*
G01X454000Y1371810D01*
X440000D01*
Y1397000D01*
X442060Y1399720D01*
G03Y1660280I-172051J130280D01*
G01X440000Y1663000D01*
Y1690000D01*
X460000Y1710000D01*
G37*
G36*
G01X609840Y910000D02*
X540000D01*
X538200Y828200D01*
X620000Y830000D01*
Y899840D01*
G03X609840Y910000I-10160J0D01*
G37*
G36*
G01X620000Y960160D02*
Y1030000D01*
X538200Y1031800D01*
X540000Y950000D01*
X609840D01*
G03X620000Y960160I0J10160D01*
G37*
G36*
G01X694120Y1678980D02*
X681540Y1691540D01*
X656820Y1670000D01*
X681540Y1648460D01*
X694120Y1661020D01*
G03Y1678980I-8980J8980D01*
G37*
G36*
G01X1005170Y1136640D02*
X1502950D01*
G03X1531110Y1121410I47056J53356D01*
G01X1538570Y1119360D01*
Y1101460D01*
X964430D01*
Y1120090D01*
X972770Y1121610D01*
G03X1005170Y1136640I-12779J69985D01*
G37*
G36*
G01X995720Y1198980D02*
X981540Y1213140D01*
X956830Y1191790D01*
X980340Y1169000D01*
X994510Y1179960D01*
G03X995720Y1198980I-7771J10043D01*
G37*
G36*
G01X990480Y1373820D02*
Y1391600D01*
X957750Y1393850D01*
X960000Y1361120D01*
X977780D01*
G03X990480Y1373820I0J12700D01*
G37*
G36*
G01X2527290Y60000D02*
X2528130Y59860D01*
G03X2582880Y186760I11866J70141D01*
G02X2580770Y217340I12254J16208D01*
G01X2603420Y240000D01*
X2901780D01*
G03X2910000Y235490I38256J59980D01*
G01Y30000D01*
X2890000Y10000D01*
X1730000D01*
X1690000Y50000D01*
Y660000D01*
X1810000Y780000D01*
X1920000D01*
Y280000D01*
X1960000Y240000D01*
X2330000D01*
Y110000D01*
X2380000Y60000D01*
X2527290D01*
G37*
G36*
G01X2131150Y1710000D02*
X3816960D01*
Y1530000D01*
G03X3848960Y1452760I109237J7D01*
G01X4010000Y1291710D01*
Y227760D01*
X3675740D01*
Y768950D01*
X3598950Y845740D01*
X3347040D01*
G02X3331200Y878800I-7J20321D01*
G03X3339440Y896550I-31675J25492D01*
G01X3359940Y1002380D01*
X3377210Y1019650D01*
X3443830D01*
G03X3484490Y1060310I0J40660D01*
G01Y1179690D01*
G03X3473070Y1207940I-40651J0D01*
G02Y1222060I7309J7060D01*
G03X3484490Y1250310I-29231J28250D01*
G01Y1369690D01*
G03X3475030Y1395760I-40652J0D01*
G01X3450200Y1425490D01*
Y1453220D01*
X3267360Y1636060D01*
X2852640D01*
X2627640Y1411060D01*
X2492490D01*
Y1421530D01*
X2492510Y1421830D01*
G03X2492580Y1424280I-40592J2386D01*
G01Y1515720D01*
G03X2451920Y1556380I-40660J0D01*
G01X2360480D01*
G03X2319820Y1515720I0J-40660D01*
G01Y1424280D01*
G03X2328020Y1399800I40658J6D01*
G01X2338940Y1385310D01*
Y1337640D01*
X2364580Y1312000D01*
X2365340Y1310340D01*
G03X2430000Y1268860I64660J29657D01*
G03X2464310Y1277680I0J71143D01*
G01X2466600Y1278940D01*
X2682360D01*
X2907360Y1503940D01*
X3212640D01*
X3305800Y1410780D01*
X3293250Y1395760D01*
G03X3288890Y1389400I31204J-26066D01*
G02X3271110I-8890J4924D01*
G03X3235550Y1410350I-35560J-19704D01*
G01X3116170D01*
G03X3090100Y1400890I0J-40652D01*
G01X3060850Y1376460D01*
X3047680Y1387180D01*
X3049170Y1393390D01*
G03X3051140Y1410000I-69168J16625D01*
G03X2908860I-71140J0D01*
G03X2909610Y1399710I71139J13D01*
G01X2910250Y1395290D01*
X2898940Y1381380D01*
G03X2889820Y1355720I31538J-25660D01*
G01Y1264280D01*
G03X2895200Y1244070I40649J0D01*
G02X2893570Y1231840I-8816J-5049D01*
G03X2872750Y1181550I50327J-50290D01*
G03X2904150Y1122540I71149J0D01*
G01X2904970Y1121990D01*
X2912850Y1114120D01*
X2900190Y1101460D01*
X1610920D01*
G02X1597380Y1136940I-6J20321D01*
G03X1621140Y1190000I-47366J53060D01*
G03X1550000Y1261140I-71140J0D01*
G03X1534010Y1259320I0J-71152D01*
G02X1509570Y1274870I-4570J19799D01*
G03X1442620Y1331090I-69568J-14872D01*
G02X1423270Y1354390I750J20308D01*
G01X1423870Y1358410D01*
X1431460Y1366000D01*
X1618540D01*
X1637630Y1346910D01*
X1647760Y1269040D01*
G03X1688080Y1233620I40320J5239D01*
G01X1744720D01*
X1791700Y1186640D01*
X2252950D01*
G03X2300000Y1168860I47050J53363D01*
G03Y1311140I0J71140D01*
G03X2269990Y1304500I0J-71136D01*
G02X2241100Y1322270I-8579J18421D01*
G03X2170000Y1391140I-71100J-2266D01*
G03X2145250Y1386690I15J-71137D01*
G01X2143540Y1386060D01*
X2128350D01*
Y1695070D01*
X2125960Y1697460D01*
X2131150Y1710000D01*
G37*
G36*
G01X1515880Y1181020D02*
X1528460Y1168460D01*
X1553180Y1190000D01*
X1528460Y1211540D01*
X1515880Y1198980D01*
G03Y1181020I8980J-8980D01*
G37*
G36*
G01X1490800Y1663200D02*
X1406980Y1637800D01*
X1435510Y1582510D01*
X1473020Y1536200D01*
X1515820Y1633420D01*
G03X1490800Y1663200I-25020J4380D01*
G37*
G36*
G01X1394860Y1240000D02*
X1420000D01*
X1442900Y1261290D01*
X1418460Y1281540D01*
X1385880Y1248980D01*
X1394860Y1240000D01*
G37*
G36*
G01X1288980Y1515880D02*
X1301540Y1528460D01*
X1280000Y1553180D01*
X1258460Y1528460D01*
X1271020Y1515880D01*
G03X1288980I8980J8980D01*
G37*
G36*
G01X1684280Y1561580D02*
X1779520Y1574280D01*
X1736130Y1622150D01*
X1688080Y1665720D01*
X1671590Y1574810D01*
G03X1684280Y1561580I12690J-529D01*
G37*
G36*
G01X1675380Y1371920D02*
X1688080Y1274280D01*
X1735900Y1317620D01*
X1779520Y1365720D01*
X1688940Y1384590D01*
G03X1675380Y1371920I-861J-12670D01*
G37*
G36*
G01X1373800Y1396500D02*
X1305380Y1383800D01*
X1336580Y1330400D01*
X1371420Y1282200D01*
X1386500Y1383500D01*
G03X1373800Y1396500I-12700J297D01*
G37*
G36*
G01X2265880Y1231020D02*
X2278460Y1218460D01*
X2303180Y1240000D01*
X2278460Y1261540D01*
X2265880Y1248980D01*
G03Y1231020I8980J-8980D01*
G37*
G36*
G01X1965960Y1400100D02*
X1970560Y1399490D01*
G03X1976820Y1398930I9462J70508D01*
G02X1996230Y1378630I-909J-20299D01*
G01Y1293360D01*
X1835900D01*
X1820180Y1309080D01*
Y1365720D01*
G03X1819550Y1372860I-40661J10D01*
G02X1831730Y1384570I10000J1788D01*
G03X1840480Y1383620I8738J39711D01*
G01X1931920D01*
G03X1958850Y1393820I0J40650D01*
G01X1965960Y1400100D01*
G37*
G36*
G01X1984860Y1702040D02*
X2008460Y1678460D01*
X2035110Y1696240D01*
X2010000Y1720000D01*
X2002820D01*
X1984860Y1702040D01*
G37*
G36*
G01X1945880Y1611020D02*
X1958460Y1598460D01*
X1983180Y1620000D01*
X1958460Y1641540D01*
X1945880Y1628980D01*
G03Y1611020I8980J-8980D01*
G37*
G36*
G01X1975230Y1627430D02*
X1931920Y1665720D01*
X1883020Y1620000D01*
X1931920Y1574280D01*
X1975230Y1612570D01*
G03Y1627430I-10300J7430D01*
G37*
G36*
G01X1945880Y1461020D02*
X1958460Y1448460D01*
X1983180Y1470000D01*
X1958460Y1491540D01*
X1945880Y1478980D01*
G03Y1461020I8980J-8980D01*
G37*
G36*
G01X1975230Y1477430D02*
X1931920Y1515720D01*
X1883020Y1470000D01*
X1931920Y1424280D01*
X1975230Y1462570D01*
G03Y1477430I-10300J7430D01*
G37*
G36*
G01X2509520Y264920D02*
X2394280Y239520D01*
X2434690Y190310D01*
X2485720Y148080D01*
X2534100Y233120D01*
G03X2509520Y264920I-24580J6400D01*
G37*
G36*
G01X2511120Y135080D02*
X2485720Y239520D01*
X2436100Y198810D01*
X2394280Y148080D01*
X2482140Y109930D01*
G03X2511120Y135080I3577J25150D01*
G37*
G36*
G01X2798160Y843940D02*
X2874260D01*
Y591050D01*
X2889820Y575490D01*
Y564280D01*
G03X2930480Y523620I40660J0D01*
G01X2941690D01*
X3034260Y431050D01*
Y305740D01*
X2954260D01*
Y290350D01*
X2912560D01*
Y320410D01*
X2914080Y322860D01*
G03X2920180Y344280I-34558J21420D01*
G01Y435720D01*
G03X2879520Y476380I-40660J0D01*
G01X2786060D01*
Y831840D01*
X2798160Y843940D01*
G37*
G36*
G01X2683850Y320430D02*
X2730080Y366650D01*
G02X2747420Y359470I7182J-7184D01*
G01Y344280D01*
G03X2753520Y322860I40658J0D01*
G01X2755040Y320410D01*
Y285740D01*
X2698220D01*
G02X2683850Y320430I-2J20320D01*
G37*
G36*
G01X2442180Y1345000D02*
X2435000D01*
X2424130Y1337590D01*
X2451540Y1318460D01*
X2460140Y1327040D01*
X2442180Y1345000D01*
G37*
G36*
G01X2415590Y1379680D02*
X2451920Y1424280D01*
X2406310Y1476350D01*
X2360480Y1424280D01*
X2393950Y1379900D01*
G03X2415590Y1379680I11054J22870D01*
G37*
G36*
G01X2990000Y130000D02*
Y240000D01*
X3000000Y250000D01*
Y260000D01*
X3060000D01*
X3080000Y280000D01*
Y450000D01*
X3072580Y457420D01*
Y476380D01*
X3053620D01*
X2920000Y610000D01*
Y796640D01*
X3042100D01*
X3078600Y833140D01*
X3126860D01*
X3160000Y800000D01*
X3580000D01*
X3630000Y750000D01*
Y150000D01*
X3610000Y130000D01*
X2990000D01*
G37*
G36*
G01X3306180Y1224920D02*
X3443830Y1250320D01*
X3389180Y1313860D01*
X3324450Y1369690D01*
X3281070Y1254160D01*
G03X3306180Y1224920I25110J-3838D01*
G37*
G36*
G01X3039540Y1151070D02*
X3059860D01*
X3061660Y1183350D01*
X3029380Y1181550D01*
Y1161230D01*
G03X3039540Y1151070I10160J0D01*
G37*
G36*
G01X2974370Y1161230D02*
Y1181550D01*
X2942090Y1183350D01*
X2943890Y1151070D01*
X2964210D01*
G03X2974370Y1161230I0J10160D01*
G37*
G36*
G01X3289410Y1058680D02*
X3208080Y995720D01*
X3250800Y944400D01*
X3299520Y904280D01*
X3324920Y1035380D01*
G03X3289410Y1058680I-25399J0D01*
G37*
G36*
G01X3164560Y939690D02*
X3208080Y904280D01*
X3260150Y950000D01*
X3208080Y995720D01*
X3164560Y960310D01*
G03Y939690I23210J-10310D01*
G37*
G36*
G01X3371490Y1426000D02*
X3324450Y1369690D01*
X3384140Y1303650D01*
X3443830Y1369690D01*
X3396790Y1426000D01*
G03X3371490I-12650J-22030D01*
G37*
G36*
G01X2994160Y1381060D02*
X3001540Y1388460D01*
X2982080Y1416000D01*
X2976200Y1406200D01*
Y1399020D01*
X2994160Y1381060D01*
G37*
G36*
G01X3065440Y1320310D02*
X3021920Y1355720D01*
X2969850Y1310000D01*
X3021920Y1264280D01*
X3065440Y1299690D01*
G03Y1320310I-23210J10310D01*
G37*
G36*
G01X2965890Y1399240D02*
X2930480Y1355720D01*
X2976200Y1303650D01*
X3021920Y1355720D01*
X2986510Y1399240D01*
G03X2965890I-10310J-23210D01*
G37*
G36*
G01X3059860Y1297350D02*
X3116170Y1250310D01*
X3182210Y1310000D01*
X3116170Y1369690D01*
X3059860Y1322650D01*
G03Y1297350I22030J-12650D01*
G37*
G36*
G01X5251220Y1570000D02*
G03X5060000Y1704620I-191220J-68499D01*
G03X4965450Y1681270I4J-203119D01*
G02X4935680Y1699790I-9457J17985D01*
G03X4935740Y1704450I-180681J4657D01*
G01Y1704500D01*
G03X4903140Y1808040I-180739J-4D01*
G02X4919790Y1840000I16657J11639D01*
G01X5830000D01*
G02X6110000Y1560000I-10455J-290455D01*
G01Y300000D01*
G02X5830000Y20000I-288636J8636D01*
G01X4919790D01*
G02X4903140Y51960I7J20321D01*
G03X4935740Y155500I-148139J103544D01*
G01Y155550D01*
G03X4935680Y160210I-180741J3D01*
G02X4965450Y178730I20313J535D01*
G03X5060000Y155380I94554J179769D01*
G03X5251220Y290000I0J203119D01*
G01X5393910D01*
G02X5414230Y269400I2J-20320D01*
G03X5414220Y267500I135771J-1665D01*
G03X5685780I135780J0D01*
G03X5685770Y269310I-135781J155D01*
G01Y290000D01*
X5860000D01*
X5880000Y310000D01*
Y1550000D01*
X5860000Y1570000D01*
X5706090D01*
G02X5685780Y1590600I7J20319D01*
G03X5685790Y1592500I-135781J1665D01*
G03X5414210I-135790J0D01*
G03X5414220Y1590600I135791J-235D01*
G02X5393910Y1570000I-20317J-281D01*
G01X5251220D01*
G37*
G36*
G01X4815890Y1089240D02*
X4780480Y1045720D01*
X4826200Y993650D01*
X4871920Y1045720D01*
X4836510Y1089240D01*
G03X4815890I-10310J-23210D01*
G37*
G36*
G01Y1239240D02*
X4780480Y1195720D01*
X4826200Y1143650D01*
X4871920Y1195720D01*
X4836510Y1239240D01*
G03X4815890I-10310J-23210D01*
G37*
G36*
G01X4836510Y1060760D02*
X4871920Y1104280D01*
X4826200Y1156350D01*
X4780480Y1104280D01*
X4815890Y1060760D01*
G03X4836510I10310J23210D01*
G37*
G36*
G01Y760760D02*
X4871920Y804280D01*
X4826200Y856350D01*
X4780480Y804280D01*
X4815890Y760760D01*
G03X4836510I10310J23210D01*
G37*
G36*
G01X5414110Y930760D02*
X5449520Y974280D01*
X5403800Y1026350D01*
X5358080Y974280D01*
X5393490Y930760D01*
G03X5414110I10310J23210D01*
G37*
G36*
G01Y780760D02*
X5449520Y824280D01*
X5403800Y876350D01*
X5358080Y824280D01*
X5393490Y780760D01*
G03X5414110I10310J23210D01*
G37*
G36*
G01X5393490Y959240D02*
X5358080Y915720D01*
X5403800Y863650D01*
X5449520Y915720D01*
X5414110Y959240D01*
G03X5393490I-10310J-23210D01*
G37*
G36*
G01X5618410Y824810D02*
X5601920Y915720D01*
X5553870Y872150D01*
X5510480Y824280D01*
X5605720Y811580D01*
G03X5618410Y824810I0J12701D01*
G37*
G36*
G01X5605720Y1075880D02*
X5510480Y1065720D01*
X5554330Y1018280D01*
X5601920Y974280D01*
X5615870Y1065300D01*
G03X5605720Y1075880I-10150J421D01*
G37*
G36*
G01X5622260Y352470D02*
X5550000Y352460D01*
X5547760Y265250D01*
X5634950Y267500D01*
X5634960Y339770D01*
G03X5622260Y352470I-12700J0D01*
G37*
G36*
G01X5634960Y1517690D02*
X5634950Y1592500D01*
X5548200Y1594300D01*
X5550000Y1507540D01*
X5624800Y1507530D01*
G03X5634960Y1517690I0J10160D01*
G37*
G54D10*
X270000Y330000D03*
Y1530000D03*
X5060000Y358500D03*
Y1501500D03*
G54D11*
X193800Y850000D03*
Y1010000D03*
X346200Y850000D03*
Y1010000D03*
X1733800Y1620000D03*
Y1470000D03*
Y1320000D03*
X1873800Y730000D03*
X2026200D03*
X1873800Y580000D03*
X2026200D03*
X2253800Y1470000D03*
X1886200Y1620000D03*
Y1470000D03*
Y1320000D03*
X2833800Y390000D03*
X2823800Y610000D03*
Y760000D03*
Y1310000D03*
X2406200Y1470000D03*
X2986200Y390000D03*
X2976200Y610000D03*
Y760000D03*
X3253800Y950000D03*
X3406200D03*
X2976200Y1310000D03*
X3773800Y1680000D03*
X3926200D03*
Y1530000D03*
X3773800D03*
X4673800Y1000000D03*
X4826200D03*
X4673800Y1150000D03*
X4826200D03*
X4673800Y850000D03*
X4826200D03*
X5556200Y870000D03*
X5403800D03*
X5556200Y1020000D03*
X5403800D03*
G54D20*
X4755000Y155500D03*
Y1704500D03*
G54D21*
G01X400000Y710000D02*
X400320Y709680D01*
X689680D01*
G01D02*
X690000Y710000D01*
G01X1000000Y1120000D02*
X890000D01*
G01D02*
X880000Y1130000D01*
G01X1520670Y1119200D02*
X1519870Y1120000D01*
X1500000D01*
G01X1610000D02*
X1609200Y1119200D01*
G01D02*
X1520670D01*
G54D12*
X500000Y70000D03*
X660000Y1540000D03*
Y1670000D03*
X1160000Y90000D03*
X750000Y680000D03*
X1160000Y250000D03*
Y410000D03*
Y570000D03*
X1000000Y930000D03*
X910000Y840000D03*
X750000D03*
X810000Y1190000D03*
X960000Y1191600D03*
X810000Y1390000D03*
X1070000Y1550000D03*
X960000Y1391600D03*
X1740000Y180000D03*
Y300000D03*
Y410000D03*
Y520000D03*
Y620000D03*
X1440000Y1260000D03*
X1550000Y1190000D03*
X1520000Y1670000D03*
X1280000Y1550000D03*
X2290000Y60000D03*
X2350000D03*
X2000000Y320000D03*
X1860000Y300000D03*
Y410000D03*
X2300000Y1240000D03*
X2030000Y1700000D03*
X2170000Y1320000D03*
X1980000Y1620000D03*
Y1470000D03*
X2620000Y60000D03*
X2690000D03*
Y140000D03*
X2540000Y130000D03*
X2375490Y1603650D03*
X2430000Y1340000D03*
X2940000Y300000D03*
X3120000Y490000D03*
X3059860Y1181550D03*
X2943890D03*
X3200000Y740000D03*
X3097300Y822700D03*
X3130000Y950000D03*
X3210000Y1450000D03*
X3090000D03*
X3040000Y1670000D03*
X3200000D03*
X3360000D03*
X2980000Y1410000D03*
X3590000Y180000D03*
X3730000Y390000D03*
X3890000D03*
X3730000Y510000D03*
X3890000D03*
X3590000Y730000D03*
Y530000D03*
Y380000D03*
X3890000Y1200000D03*
X3730000D03*
X3890000Y1060000D03*
X3730000D03*
X3890000Y900000D03*
X3730000D03*
X3510000Y1020000D03*
Y880000D03*
X3730000Y1340000D03*
X3890000D03*
X3520000Y1670000D03*
X3660000D03*
X3500000Y1500000D03*
X3660000D03*
X4070000Y1670000D03*
G54D22*
G01X3059860Y1181550D02*
X3022200Y1143890D01*
Y1094120D01*
X2938080Y1010000D01*
X787480D01*
X687160Y909680D01*
X619680D01*
X540000Y830000D01*
G01X2943890Y1181550D02*
X2981560Y1143880D01*
Y1110960D01*
X2921240Y1050640D01*
X770640D01*
X670320Y950320D01*
X619680D01*
X540000Y1030000D01*
G01X5550000Y1592500D02*
X5690000Y1452500D01*
Y1150000D01*
X5560000Y1020000D01*
X5556200D01*
G54D13*
X540000Y580000D03*
G54D23*
G01X660000Y1670000D02*
X1310000D01*
X1350000Y1630000D01*
Y1525400D01*
X1374760Y1500640D01*
X1610640D01*
X1730000Y1620000D01*
X1733800D01*
G01X1440000Y1260000D02*
X1420000Y1240000D01*
X1111600D01*
X960000Y1391600D01*
G01X1550000Y1190000D02*
X961600D01*
X960000Y1191600D01*
G01X1280000Y1550000D02*
Y1485400D01*
X1305400Y1460000D01*
X1723800D01*
X1733800Y1470000D01*
G01X1338400Y1333000D02*
Y1348400D01*
X1409360Y1419360D01*
X1640640D01*
X1733800Y1326200D01*
Y1320000D01*
G01X2300000Y1240000D02*
X1813800D01*
X1733800Y1320000D01*
G01X1886200Y1620000D02*
X1980000D01*
G01Y1470000D02*
X1886200D01*
G01X3360000Y860000D02*
X3176500D01*
X3150000Y886500D01*
X3056500D01*
X3020000Y850000D01*
X2818880D01*
X2800000Y831120D01*
G01X5550000Y267500D02*
X5680000Y397500D01*
Y750000D01*
X5560000Y870000D01*
X5556200D01*
G54D14*
X540000Y1280000D03*
Y1030000D03*
Y830000D03*
G54D24*
G01X49100Y330000D02*
X270000D01*
G01X49100Y1530000D02*
X270000D01*
G01Y109100D02*
Y330000D01*
G01D02*
Y550900D01*
G01X540000Y1280000D02*
Y1415900D01*
G01Y1280000D02*
X675900D01*
G01X270000Y1309100D02*
Y1530000D01*
G01D02*
Y1750900D01*
G54D15*
X1338400Y1333000D03*
X1541600D03*
X1440000Y1587000D03*
G54D25*
G01X300000Y0D02*
X5830000D01*
G03X6130000Y300000I0J300000D01*
G01Y1560000D01*
G03X5830000Y1860000I-300000J0D01*
G01X300000D01*
G03X0Y1560000I0J-300000D01*
G01Y300000D01*
G03X300000Y0I300000J0D01*
G01X345000Y705000D02*
G03I-75000J0D01*
G01Y1155000D02*
G03I-75000J0D01*
G01X350000Y705000D02*
G03I-80000J0D01*
G01Y1155000D02*
G03I-80000J0D01*
G54D16*
X2290000Y193800D03*
Y346200D03*
X2440000Y193800D03*
Y346200D03*
G54D26*
G01X346200Y850000D02*
Y763800D01*
X400000Y710000D01*
G01X2030000Y1700000D02*
X2010000Y1720000D01*
X1570000D01*
X1520000Y1670000D01*
G01D02*
Y1667000D01*
X1440000Y1587000D01*
G01X2170000Y1320000D02*
X2062290D01*
Y1667710D01*
X2030000Y1700000D01*
G01X2860000Y60000D02*
X4350000D01*
X4890000Y600000D01*
X5300000D01*
X5403800Y703800D01*
Y870000D01*
G01X2440000Y193800D02*
X2463800D01*
X2720000Y450000D01*
Y859200D01*
X2770800Y910000D01*
X2960000D01*
X3170000Y1120000D01*
X3175860D01*
G01X2440000Y193800D02*
Y180800D01*
X2490800Y130000D01*
X2540000D01*
G01X3384140Y1310000D02*
Y1425860D01*
X3240000Y1570000D01*
X2880000D01*
X2655000Y1345000D01*
X2435000D01*
X2430000Y1340000D01*
G01D02*
X2405000Y1365000D01*
Y1468800D01*
X2406200Y1470000D01*
G01X3384140Y1310000D02*
X3365860D01*
X3175860Y1120000D01*
G01X3253800Y950000D02*
Y989660D01*
X3384140Y1120000D01*
G01X3253800Y950000D02*
X3130000D01*
G01X2976200Y1310000D02*
X3175860D01*
G01X2976200D02*
Y1406200D01*
X2980000Y1410000D01*
G01X4826200Y850000D02*
Y629600D01*
X4358300Y161700D01*
X3608300D01*
G01D02*
X3590000Y180000D01*
G01X4070000Y1670000D02*
X4460000D01*
X4826200Y1303800D01*
Y1150000D01*
G01Y1000000D02*
Y1150000D01*
G01X5403800Y1020000D02*
Y870000D01*
G54D17*
G01X346200Y1010000D02*
Y1086200D01*
X540000Y1280000D01*
G01X346200Y1010000D02*
Y850000D01*
G01X2845860Y190000D02*
X2833800Y202060D01*
G01D02*
Y390000D01*
G01X3926200Y1530000D02*
Y1680000D01*
G01X4171000Y1374000D02*
X4082200D01*
X3926200Y1530000D01*
G01Y1680000D02*
Y1786200D01*
G01D02*
X3930000Y1790000D01*
G01X4171000Y866000D02*
X4298000D01*
X4425000Y993000D01*
G01D02*
X4666800D01*
X4673800Y1000000D01*
G01D02*
Y1150000D01*
G01Y850000D02*
Y1000000D01*
X2220000Y730000D03*
Y530000D03*
Y930000D03*
X2610000Y730000D03*
X2420000Y530000D03*
X2610000D03*
X2420000Y730000D03*
X2610000Y930000D03*
X2420000D03*
G54D27*
G01X4755000Y155500D02*
Y155000D01*
X4820000Y90000D01*
X4960000D01*
G01X4755000Y1704500D02*
Y1705000D01*
G01X4950000Y1770000D02*
X4820000D01*
X4755000Y1705000D01*
G01D02*
X4680000Y1780000D01*
X4570000D01*
G54D18*
X2845860Y190000D03*
X3054140D03*
X3384140Y1120000D03*
X3175860D03*
Y1310000D03*
X3384140D03*
G54D19*
X4171000Y612000D03*
X4425000Y739000D03*
Y485000D03*
X4171000Y1120000D03*
Y866000D03*
X4425000Y1247000D03*
Y993000D03*
X4171000Y1374000D03*
X5550000Y267500D03*
Y521500D03*
Y1592500D03*
Y1338500D03*
M02*
