G04 ================== begin FILE IDENTIFICATION RECORD ==================*
G04 Layout Name:  G:/SVN/test/LAN9500_TEST_V10A/PCB/LAN9500_TEST_V10A.brd*
G04 Film Name:    SolderMask_Top*
G04 File Format:  Gerber RS274X*
G04 File Origin:  Cadence Allegro 17.2-S045*
G04 Origin Date:  Mon Feb 25 08:57:33 2019*
G04 *
G04 Layer:  BOARD GEOMETRY/OUTLINE*
G04 Layer:  PIN/SOLDERMASK_TOP*
G04 Layer:  PACKAGE GEOMETRY/SOLDERMASK_TOP*
G04 Layer:  BOARD GEOMETRY/SOLDERMASK_TOP*
G04 *
G04 Offset:    (0.0000 0.0000)*
G04 Mirror:    No*
G04 Mode:      Positive*
G04 Rotation:  0*
G04 FullContactRelief:  No*
G04 UndefLineWidth:     0.1524*
G04 ================== end FILE IDENTIFICATION RECORD ====================*
%FSLAX55Y55*MOMM*%
%IR0*IPPOS*OFA0.00000B0.00000*MIA0B0*SFA1.00000B1.00000*%
%ADD15R,1.6X.7*%
%ADD17R,.9144X.9144*%
%ADD16R,1.3X2.3*%
%ADD20R,6.X6.*%
%ADD23R,1.5X1.25*%
%ADD19R,3.7X2.3*%
%ADD26C,3.3*%
%ADD22R,.9X.35*%
%ADD14C,1.7*%
%ADD10C,3.5*%
%ADD25C,2.7*%
%ADD21R,.35X.9*%
%ADD12R,1.4224X1.4224*%
%ADD18R,1.2192X1.4224*%
%ADD13R,1.7X1.7*%
%ADD24C,1.8009*%
%ADD11R,1.2954X1.2954*%
%ADD27C,.1524*%
G75*
%LPD*%
G75*
G54D10*
X270000Y330000D03*
Y1530000D03*
G54D11*
X755860Y160000D03*
X964140D03*
G54D20*
X2420000Y730000D03*
G54D12*
X755860Y540000D03*
Y350000D03*
X964140Y540000D03*
Y350000D03*
X2144140Y150000D03*
X1935860D03*
G54D21*
X2295000Y340000D03*
X2245000D03*
X2195000D03*
X2145000D03*
X2095000D03*
Y1120000D03*
X2145000D03*
X2195000D03*
X2245000D03*
X2295000D03*
X2745000Y340000D03*
X2695000D03*
X2645000D03*
X2595000D03*
X2545000D03*
X2495000D03*
X2445000D03*
X2395000D03*
X2345000D03*
Y1120000D03*
X2395000D03*
X2445000D03*
X2495000D03*
X2545000D03*
X2595000D03*
X2645000D03*
X2695000D03*
X2745000D03*
G54D13*
X540000Y580000D03*
G54D22*
X2030000Y405000D03*
Y455000D03*
Y505000D03*
Y555000D03*
Y605000D03*
Y655000D03*
Y705000D03*
Y755000D03*
Y805000D03*
Y855000D03*
Y905000D03*
Y955000D03*
Y1005000D03*
Y1055000D03*
X2810000Y705000D03*
Y655000D03*
Y605000D03*
Y555000D03*
Y505000D03*
Y455000D03*
Y405000D03*
Y1055000D03*
Y1005000D03*
Y955000D03*
Y905000D03*
Y855000D03*
Y805000D03*
Y755000D03*
G54D14*
X540000Y1280000D03*
Y1030000D03*
Y830000D03*
G54D23*
X2710000Y1670000D03*
X2490000D03*
Y1510000D03*
X2710000D03*
G54D24*
X4171000Y612000D03*
X4425000Y739000D03*
Y485000D03*
X4171000Y1120000D03*
Y866000D03*
X4425000Y1247000D03*
Y993000D03*
X4171000Y1374000D03*
X5550000Y267500D03*
Y521500D03*
Y1592500D03*
Y1338500D03*
G54D15*
X1170000Y1090000D03*
Y1217000D03*
Y1344000D03*
Y1471000D03*
X1710000Y1217000D03*
Y1090000D03*
Y1471000D03*
Y1344000D03*
G54D25*
X4755000Y155500D03*
Y1704500D03*
G54D16*
X1210000Y820000D03*
X1440000D03*
X1670000D03*
G54D26*
X5060000Y358500D03*
Y1501500D03*
G54D17*
X956200Y1090000D03*
X803800D03*
X956200Y1490000D03*
X803800D03*
X956200Y1290000D03*
X803800D03*
X2290000Y1513800D03*
Y1666200D03*
X2140000D03*
Y1513800D03*
X3333800Y180000D03*
Y380000D03*
Y730000D03*
Y530000D03*
Y1160000D03*
X2910000Y1666200D03*
Y1513800D03*
X3333800Y1340000D03*
X3486200Y180000D03*
Y380000D03*
Y730000D03*
Y530000D03*
Y1160000D03*
Y1340000D03*
G54D27*
G01X300000Y0D02*
X5830000D01*
G03X6130000Y300000I0J300000D01*
G01Y1560000D01*
G03X5830000Y1860000I-300000J0D01*
G01X300000D01*
G03X0Y1560000I0J-300000D01*
G01Y300000D01*
G03X300000Y0I300000J0D01*
G01X345000Y705000D02*
G03I-75000J0D01*
G01Y1155000D02*
G03I-75000J0D01*
G01X350000Y705000D02*
G03I-80000J0D01*
G01Y1155000D02*
G03I-80000J0D01*
G54D18*
X981600Y1670000D03*
X778400D03*
X1158400D03*
X1361600D03*
G54D19*
X1440000Y200000D03*
M02*
