G04 ================== begin FILE IDENTIFICATION RECORD ==================*
G04 Layout Name:  LAN9500_TEST_V10A.brd*
G04 Film Name:    TOP*
G04 File Format:  Gerber RS274X*
G04 File Origin:  Cadence Allegro 16.6-2015-S075*
G04 Origin Date:  Fri Aug 11 23:33:33 2017*
G04 *
G04 Layer:  BOARD GEOMETRY/OUTLINE*
G04 Layer:  VIA CLASS/TOP*
G04 Layer:  PIN/TOP*
G04 Layer:  ETCH/TOP*
G04 *
G04 Offset:    (0.0000 0.0000)*
G04 Mirror:    No*
G04 Mode:      Positive*
G04 Rotation:  0*
G04 FullContactRelief:  No*
G04 UndefLineWidth:     0.1524*
G04 ================== end FILE IDENTIFICATION RECORD ====================*
%FSLAX55Y55*MOMM*%
%IR0*IPPOS*OFA0.00000B0.00000*MIA0B0*SFA1.00000B1.00000*%
%ADD19R,1.5X.6*%
%ADD24C,.762*%
%ADD11C,.6096*%
%ADD20R,1.2X2.2*%
%ADD26R,1.4X1.15*%
%ADD18R,3.6X2.2*%
%ADD23R,.8X.25*%
%ADD10C,3.3*%
%ADD22R,.25X.8*%
%ADD16C,1.6*%
%ADD13R,1.27X1.27*%
%ADD28C,2.7*%
%ADD17R,1.016X1.2192*%
%ADD14R,1.6X1.6*%
%ADD21R,5.9X5.9*%
%ADD25R,.9144X.9144*%
%ADD27C,1.6993*%
%ADD15R,.9144X.9144*%
%ADD12R,1.1938X1.1938*%
%ADD29C,.2032*%
%ADD30C,.254*%
%ADD31C,.7112*%
%ADD32C,.1524*%
%ADD33C,.508*%
%ADD34C,1.27*%
G75*
%LPD*%
G75*
G36*
G01X360910Y1720120D02*
G03Y1339880I-90910J-190120D01*
G02X390000Y1321550I8769J-18331D01*
G01Y538450D01*
G02X360910Y520120I-20321J1D01*
G03Y139880I-90910J-190120D01*
G02X390000Y121550I8769J-18331D01*
G01Y20000D01*
X300000D01*
G02X20000Y300000I8636J288636D01*
G01Y1560000D01*
G02X300000Y1840000I290455J-10455D01*
G01X390000D01*
Y1738450D01*
G02X360910Y1720120I-20321J1D01*
G37*
G36*
G01X440000Y20000D02*
Y136260D01*
G02X474690Y150630I20321J0D01*
G01X571050Y54260D01*
X854260D01*
Y44260D01*
X1075740D01*
Y591050D01*
X1148950Y664260D01*
X1315740D01*
Y975740D01*
X1101050D01*
X854260Y728950D01*
Y260350D01*
X665740D01*
Y449180D01*
X670820D01*
Y710820D01*
X654320D01*
G02X638950Y744430I2J20320D01*
G03X632210Y922790I-98951J85568D01*
G02Y937210I7165J7210D01*
G03X651130Y960970I-92186J92820D01*
G02X682760Y964620I17262J-10718D01*
G01X723440Y923940D01*
X883560D01*
X963240Y1003620D01*
X1016370D01*
X1041350Y1023940D01*
X1074420D01*
X1079650Y1019340D01*
X1260350D01*
X1265580Y1023940D01*
X1352640D01*
X1373940Y1002640D01*
Y986150D01*
X1373600Y985740D01*
X1344260D01*
Y950640D01*
X1339340Y944760D01*
Y669340D01*
X1344260D01*
Y548950D01*
X1204260Y408950D01*
Y54260D01*
X1219340D01*
Y49340D01*
X1660660D01*
Y54260D01*
X1831700D01*
Y45840D01*
X2040020D01*
Y255740D01*
X1968950D01*
X1965740Y258950D01*
Y351840D01*
X2041840D01*
Y259340D01*
X2205600D01*
G02X2219970Y224650I0J-20321D01*
G01X2204260Y208950D01*
Y41050D01*
X2207970Y37340D01*
G02X2200790Y20000I-7186J-7181D01*
G01X440000D01*
G37*
G36*
G01X590000Y100000D02*
X480000Y210000D01*
Y280200D01*
X480260Y281330D01*
G03Y378670I-210260J48670D01*
G01X480000Y379800D01*
Y454260D01*
X620000D01*
Y240000D01*
X650000Y210000D01*
X820000D01*
Y100000D01*
X590000D01*
G37*
G36*
G01X869820Y1176410D02*
Y1097040D01*
X828840Y1056060D01*
X778160D01*
X746060Y1088160D01*
Y1407360D01*
X606060Y1547360D01*
Y1584940D01*
G02X633850Y1603840I20320J4D01*
G03X671620Y1599820I26141J66162D01*
G01X676490Y1600620D01*
X711850Y1568380D01*
X869820D01*
Y1428780D01*
X890170Y1405970D01*
X889530Y1401320D01*
G03X888970Y1395570I70466J-9765D01*
G02X869820Y1376410I-20289J1128D01*
G01Y1228880D01*
X890150Y1205880D01*
X889520Y1201270D01*
G03X888970Y1195570I70479J-9677D01*
G02X869820Y1176410I-20289J1128D01*
G37*
G36*
G01X694120Y1678980D02*
X681540Y1691540D01*
X656820Y1670000D01*
X681540Y1648460D01*
X694120Y1661020D01*
G03Y1678980I-8980J8980D01*
G37*
G36*
G01X669390Y1662120D02*
X727600Y1609040D01*
X781580Y1670000D01*
X727600Y1730960D01*
X669390Y1677880D01*
G03Y1662120I9960J-7880D01*
G37*
G36*
G01X1250000Y100000D02*
Y390000D01*
X1390000Y530000D01*
Y940000D01*
X1500000D01*
Y710000D01*
X1540000Y670000D01*
X1569340D01*
Y669340D01*
X1770660D01*
Y680660D01*
X1841640Y751640D01*
X1920000D01*
Y240000D01*
X1950000Y210000D01*
X1990000D01*
Y100000D01*
X1250000D01*
G37*
G36*
G01X900000Y710000D02*
X1120000Y930000D01*
X1270000D01*
Y710000D01*
X1130000D01*
X1030000Y610000D01*
Y90000D01*
X900000D01*
Y710000D01*
G37*
G36*
G01X1045440Y1100310D02*
X1001920Y1135720D01*
X949850Y1090000D01*
X1001920Y1044280D01*
X1045440Y1079690D01*
G03Y1100310I-23210J10310D01*
G37*
G36*
G01X1274700Y1093840D02*
X1245000Y1120000D01*
X1163650Y1090000D01*
X1245000Y1060000D01*
X1274700Y1086160D01*
G03Y1093840I-25110J3840D01*
G37*
G36*
G01X1065300Y1086160D02*
X1095000Y1060000D01*
X1176350Y1090000D01*
X1095000Y1120000D01*
X1065300Y1093840D01*
G03Y1086160I25110J-3840D01*
G37*
G36*
G01X1042340Y1430780D02*
X1042580Y1431110D01*
Y1568380D01*
X1073060D01*
X1076650Y1571590D01*
X1196360Y1558180D01*
X1208910Y1545630D01*
X1209300Y1542090D01*
G03X1276640Y1478940I70699J7911D01*
G02X1296000Y1458640I-960J-20297D01*
G01Y1414660D01*
X1050570D01*
G02X1042340Y1430780I-2J10160D01*
G37*
G36*
G01X1285400Y1749200D02*
X1310800Y1609040D01*
X1365030Y1664660D01*
X1412400Y1730960D01*
X1315290Y1774200D01*
G03X1285400Y1749200I-4490J-25000D01*
G37*
G36*
G01X970240Y1779070D02*
X930800Y1730960D01*
X981600Y1663650D01*
X1032400Y1730960D01*
X992960Y1779070D01*
G03X970240I-11360J-22720D01*
G37*
G36*
G01X968380Y1397930D02*
X1001920Y1444280D01*
X956050Y1493170D01*
X910480Y1444280D01*
X952420Y1397280D01*
G03X968380Y1397930I7578J10190D01*
G37*
G36*
G01X951020Y1425720D02*
X938460Y1413140D01*
X960000Y1388420D01*
X981540Y1413140D01*
X968980Y1425720D01*
G03X951020I-8980J-8980D01*
G37*
G36*
G01X1249520Y1567780D02*
Y1550000D01*
X1282250Y1547750D01*
X1280000Y1580480D01*
X1262220D01*
G03X1249520Y1567780I0J-12700D01*
G37*
G36*
G01X1233600Y1610260D02*
X1209200Y1730960D01*
X1156130Y1672220D01*
X1107600Y1609040D01*
X1220960Y1596340D01*
G03X1233600Y1610260I0J12699D01*
G37*
G36*
G01X945010Y1226540D02*
X936240Y1210160D01*
X960410Y1188450D01*
X981540Y1213140D01*
X965180Y1229520D01*
G03X945010Y1226540I-8978J-8981D01*
G37*
G36*
G01X963630Y1200970D02*
X1001920Y1244280D01*
X956200Y1293180D01*
X910480Y1244280D01*
X948770Y1200970D01*
G03X963630I7430J10300D01*
G37*
G36*
G01X999560Y1708540D02*
X1063060Y1772040D01*
X1007000Y1796350D01*
X956200D01*
X900140Y1772040D01*
X963640Y1708540D01*
G03X999560I17960J17960D01*
G37*
G36*
G01X1960000Y815740D02*
X1841050D01*
X1741050Y715740D01*
X1558950D01*
X1545740Y728950D01*
Y924270D01*
G02X1563080Y931450I10158J-4D01*
G01X1568540Y926000D01*
X1728540D01*
X1802900Y851640D01*
X1960000D01*
Y815740D01*
G37*
G36*
G01X1427310Y986600D02*
X1380000Y930000D01*
X1440000Y813650D01*
X1500000Y930000D01*
X1452690Y986600D01*
G03X1427310I-12690J-22010D01*
G37*
G36*
G01X1607680Y1116920D02*
X1635000Y1060000D01*
X1722050Y1085980D01*
X1785000Y1120000D01*
X1620000Y1132700D01*
G03X1607680Y1116920I0J-12699D01*
G37*
G36*
G01X1802660Y1061050D02*
X1785000Y1120000D01*
X1698110Y1094460D01*
X1635000Y1060000D01*
X1790000Y1047300D01*
G03X1802660Y1061050I0J12703D01*
G37*
G36*
G01X1469890Y1682800D02*
X1412400Y1730960D01*
X1355250Y1670000D01*
X1412400Y1609040D01*
X1469890Y1657200D01*
G03Y1682800I-21940J12800D01*
G37*
G36*
G01X1606710Y1464660D02*
X1635000Y1441000D01*
X1713180Y1471000D01*
X1635000Y1501000D01*
X1606710Y1477340D01*
G03Y1464660I11000J-6340D01*
G37*
G36*
G01X1448980Y1225880D02*
X1461540Y1238460D01*
X1440000Y1263180D01*
X1418460Y1238460D01*
X1431020Y1225880D01*
G03X1448980I8980J8980D01*
G37*
G36*
G01X1431020Y1294120D02*
X1418460Y1281540D01*
X1440000Y1256820D01*
X1461540Y1281540D01*
X1448980Y1294120D01*
G03X1431020I-8980J-8980D01*
G37*
G36*
G01X1797700Y1185000D02*
X1785000Y1247000D01*
X1698320Y1221980D01*
X1635000Y1187000D01*
X1784830Y1172300D01*
G03X1797700Y1185000I169J12700D01*
G37*
G36*
G01X1580480Y1172220D02*
Y1190000D01*
X1547750Y1192250D01*
X1550000Y1159520D01*
X1567780D01*
G03X1580480Y1172220I0J12700D01*
G37*
G36*
G01X1794000Y1386700D02*
X1635000Y1374000D01*
X1698040Y1339730D01*
X1785000Y1314000D01*
X1806560Y1372120D01*
G03X1794000Y1386700I-12560J1880D01*
G37*
G36*
G01X2590000Y240000D02*
X2680000D01*
X2750000Y170000D01*
Y50000D01*
X2710000Y10000D01*
X2300000D01*
X2250000Y60000D01*
Y190000D01*
X2319340Y259340D01*
X2348160D01*
Y270000D01*
X2391640D01*
Y133300D01*
X2410000Y114940D01*
Y110000D01*
X2460000Y60000D01*
X2527290D01*
X2528130Y59860D01*
G03X2586870Y76480I11875J70142D01*
G03X2544790Y200980I-46865J53521D01*
G03X2523250Y199140I-4785J-70979D01*
G02X2498360Y218940I-4570J19799D01*
G01Y270000D01*
X2541840D01*
Y259340D01*
X2570660D01*
X2590000Y240000D01*
G37*
G36*
G01X2110660Y420660D02*
Y808160D01*
X2110000D01*
Y851840D01*
X2110660D01*
Y1039340D01*
X2729340D01*
Y420660D01*
X2110660D01*
G37*
G36*
G01X2373540Y1580260D02*
X2351220Y1600180D01*
X2226380D01*
Y1710000D01*
X2571390D01*
G02X2591400Y1686150I1J-20318D01*
G01X2582980Y1638440D01*
X2552700Y1608160D01*
X2404310D01*
X2373540Y1580260D01*
G37*
G36*
G01X2178980Y1285880D02*
X2191540Y1298460D01*
X2170000Y1323180D01*
X2148460Y1298460D01*
X2161020Y1285880D01*
G03X2178980I8980J8980D01*
G37*
G36*
G01X2019170Y1685710D02*
X2094280Y1620480D01*
X2146010Y1664160D01*
X2185720Y1711920D01*
X2038100Y1725320D01*
G03X2019170Y1685710I2069J-25317D01*
G37*
G36*
G01X2365190Y1502200D02*
X2420000Y1452500D01*
X2493180Y1510000D01*
X2420000Y1567500D01*
X2365190Y1517800D01*
G03Y1502200I10020J-7800D01*
G37*
G36*
G01X2382720Y1517580D02*
X2335720Y1559520D01*
X2286830Y1513950D01*
X2335720Y1468080D01*
X2382070Y1501620D01*
G03X2382720Y1517580I-9540J8382D01*
G37*
G36*
G01X2010480Y1602220D02*
Y1620000D01*
X1977750Y1622250D01*
X1980000Y1589520D01*
X1997780D01*
G03X2010480Y1602220I0J12700D01*
G37*
G36*
G01X2303980Y1200880D02*
X2321540Y1218460D01*
X2300520Y1243130D01*
X2275780Y1222410D01*
X2283340Y1204830D01*
G03X2303980Y1200880I11661J5030D01*
G37*
G36*
G01X1988980Y1435880D02*
X2001540Y1448460D01*
X1980000Y1473180D01*
X1958460Y1448460D01*
X1971020Y1435880D01*
G03X1988980I8980J8980D01*
G37*
G36*
G01X2795740Y20000D02*
Y188950D01*
X2760030Y224650D01*
G02X2774400Y259340I14370J14369D01*
G01X2798160D01*
Y351840D01*
X2890660D01*
Y404180D01*
X2903600D01*
X2908280Y408860D01*
X2919270D01*
X3118950Y209180D01*
X3232750D01*
X3247420Y194510D01*
Y93620D01*
X3546370D01*
X3568840Y111900D01*
X3573700Y110750D01*
G03X3660850Y186390I16298J69248D01*
G02X3681090Y208540I20238J1830D01*
G01X4010000D01*
Y20000D01*
X2795740D01*
G37*
G36*
G01X2505880Y121020D02*
X2518460Y108460D01*
X2543180Y130000D01*
X2518460Y151540D01*
X2505880Y138980D01*
G03Y121020I8980J-8980D01*
G37*
G36*
G01X2862320Y506860D02*
X2850000Y517500D01*
X2807460Y505000D01*
X2850000Y492500D01*
X2862320Y503140D01*
G03Y506860I-9990J1860D01*
G37*
G36*
G01Y456860D02*
X2850000Y467500D01*
X2807460Y455000D01*
X2850000Y442500D01*
X2862320Y453140D01*
G03Y456860I-9990J1860D01*
G37*
G36*
G01Y606860D02*
X2850000Y617500D01*
X2807460Y605000D01*
X2850000Y592500D01*
X2862320Y603140D01*
G03Y606860I-9990J1860D01*
G37*
G36*
G01Y906860D02*
X2850000Y917500D01*
X2807460Y905000D01*
X2850000Y892500D01*
X2862320Y903140D01*
G03Y906860I-9990J1860D01*
G37*
G36*
G01Y956860D02*
X2850000Y967500D01*
X2807460Y955000D01*
X2850000Y942500D01*
X2862320Y953140D01*
G03Y956860I-9990J1860D01*
G37*
G36*
G01Y656860D02*
X2850000Y667500D01*
X2807460Y655000D01*
X2850000Y642500D01*
X2862320Y653140D01*
G03Y656860I-9990J1860D01*
G37*
G36*
G01X2648360Y1372880D02*
Y1552900D01*
X2656520Y1561060D01*
X2797150Y1573170D01*
X2826460Y1599740D01*
X2848780Y1579820D01*
X2996380D01*
Y1710000D01*
X4010000D01*
Y1548730D01*
X3929180Y1467910D01*
Y888530D01*
X3741470Y700820D01*
X3681030D01*
G02X3660810Y723110I2J20318D01*
G03X3643360Y777050I-70808J6886D01*
G01Y1212100D01*
X3552100Y1303360D01*
X3420180D01*
Y1426380D01*
X3272680D01*
X3235330Y1393360D01*
X3071390D01*
G02X3051080Y1412860I-6J20321D01*
G03X2932950Y1463360I-71082J-2860D01*
G01X2787900D01*
X2683050Y1358510D01*
G02X2648360Y1372880I-14370J14367D01*
G37*
G36*
G01X2445000Y1299860D02*
Y1325000D01*
X2428890Y1342970D01*
X2408460Y1318460D01*
X2436020Y1290880D01*
X2445000Y1299860D01*
G37*
G36*
G01X2632500Y1599800D02*
X2780000Y1612500D01*
X2712550Y1671890D01*
X2640000Y1727500D01*
X2619830Y1613330D01*
G03X2632500Y1599800I12670J-833D01*
G37*
G36*
G01X2834810Y1677800D02*
X2780000Y1727500D01*
X2706820Y1670000D01*
X2780000Y1612500D01*
X2834810Y1662200D01*
G03Y1677800I-10020J7800D01*
G37*
G36*
G01X2817280Y1662420D02*
X2864280Y1620480D01*
X2913170Y1666050D01*
X2864280Y1711920D01*
X2817930Y1678380D01*
G03X2817280Y1662420I9540J-8382D01*
G37*
G36*
G01X2557480Y1386660D02*
X2559260Y1464940D01*
X2488690Y1512890D01*
X2463530Y1452500D01*
X2537190Y1378980D01*
G03X2557480Y1386660I7807J10018D01*
G37*
G36*
G01X3389680Y330480D02*
X3379520Y425720D01*
X3332080Y381870D01*
X3288080Y334280D01*
X3379100Y320330D01*
G03X3389680Y330480I421J10150D01*
G37*
G36*
G01X3379170Y239030D02*
X3288080Y225720D01*
X3332060Y178140D01*
X3379520Y134280D01*
X3389680Y228880D01*
G03X3379170Y239030I-10156J0D01*
G37*
G36*
G01Y589030D02*
X3288080Y575720D01*
X3332060Y528140D01*
X3379520Y484280D01*
X3389680Y578880D01*
G03X3379170Y589030I-10156J0D01*
G37*
G36*
G01X3089520Y507780D02*
Y490000D01*
X3122250Y487750D01*
X3120000Y520480D01*
X3102220D01*
G03X3089520Y507780I0J-12700D01*
G37*
G36*
G01X3536640Y816380D02*
X3310910D01*
G02X3296540Y851070I-3J20320D01*
G01X3387160Y941690D01*
Y1061530D01*
X3420180Y1098880D01*
Y1196640D01*
X3507900D01*
X3536640Y1167900D01*
Y816380D01*
G37*
G36*
G01X3039540Y1151070D02*
X3059860D01*
X3061660Y1183350D01*
X3029380Y1181550D01*
Y1161230D01*
G03X3039540Y1151070I10160J0D01*
G37*
G36*
G01X2974370Y1161230D02*
Y1181550D01*
X2942090Y1183350D01*
X2943890Y1151070D01*
X2964210D01*
G03X2974370Y1161230I0J10160D01*
G37*
G36*
G01X3389680Y680480D02*
X3379520Y775720D01*
X3332080Y731870D01*
X3288080Y684280D01*
X3379100Y670330D01*
G03X3389680Y680480I421J10150D01*
G37*
G36*
G01X3054460Y805000D02*
X3079600D01*
X3100230Y823910D01*
X3075760Y844240D01*
X3045480Y813980D01*
X3054460Y805000D01*
G37*
G36*
G01X3182220Y709520D02*
X3200000D01*
X3202250Y742250D01*
X3169520Y740000D01*
Y722220D01*
G03X3182220Y709520I12700J0D01*
G37*
G36*
G01X3341230Y1070970D02*
X3379520Y1114280D01*
X3333800Y1163180D01*
X3288080Y1114280D01*
X3326370Y1070970D01*
G03X3341230I7430J10300D01*
G37*
G36*
G01X3112220Y919520D02*
X3130000D01*
X3132250Y952250D01*
X3099520Y950000D01*
Y932220D01*
G03X3112220Y919520I12700J0D01*
G37*
G36*
G01X3244770Y1332570D02*
X3288080Y1294280D01*
X3336980Y1340000D01*
X3288080Y1385720D01*
X3244770Y1347430D01*
G03Y1332570I10300J-7430D01*
G37*
G36*
G01X2945880Y1401020D02*
X2958460Y1388460D01*
X2983180Y1410000D01*
X2958460Y1431540D01*
X2945880Y1418980D01*
G03Y1401020I8980J-8980D01*
G37*
G36*
G01X3660810Y373110D02*
G03X3630710Y438340I-70807J6886D01*
G02Y471660I11634J16660D01*
G03X3660850Y536390I-40711J58338D01*
G02X3681090Y558540I20238J1830D01*
G01X3800410D01*
X3975310Y733440D01*
G02X4010000Y719070I14370J-14366D01*
G01Y350820D01*
X3681030D01*
G02X3660810Y373110I2J20318D01*
G37*
G36*
G01X3575440Y190310D02*
X3531920Y225720D01*
X3479850Y180000D01*
X3531920Y134280D01*
X3575440Y169690D01*
G03Y190310I-23210J10310D01*
G37*
G36*
G01Y390310D02*
X3531920Y425720D01*
X3479850Y380000D01*
X3531920Y334280D01*
X3575440Y369690D01*
G03Y390310I-23210J10310D01*
G37*
G36*
G01Y540310D02*
X3531920Y575720D01*
X3479850Y530000D01*
X3531920Y484280D01*
X3575440Y519690D01*
G03Y540310I-23210J10310D01*
G37*
G36*
G01X3581020Y764120D02*
X3568460Y751540D01*
X3590000Y726820D01*
X3611540Y751540D01*
X3598980Y764120D01*
G03X3581020I-8980J-8980D01*
G37*
G36*
G01X3575440Y740310D02*
X3531920Y775720D01*
X3479850Y730000D01*
X3531920Y684280D01*
X3575440Y719690D01*
G03Y740310I-23210J10310D01*
G37*
G36*
G01X4498540Y579240D02*
X4423740Y569870D01*
X4423310Y483100D01*
X4509950Y485000D01*
X4509960Y569160D01*
G03X4498540Y579240I-10159J0D01*
G37*
G36*
G01X4285970Y617180D02*
X4231080Y672070D01*
X4168460Y612050D01*
X4230800Y551660D01*
X4285700Y602550D01*
G03X4285970Y617180I-6911J7445D01*
G37*
G36*
G01X4285230Y1125920D02*
X4231080Y1180070D01*
X4168460Y1120030D01*
X4230900Y1059750D01*
X4285060Y1111390D01*
G03X4285230Y1125920I-7012J7348D01*
G37*
G36*
G01X4499800Y823960D02*
X4425000Y823950D01*
X4423200Y737200D01*
X4509950Y739000D01*
X4509960Y813800D01*
G03X4499800Y823960I-10160J0D01*
G37*
G36*
G01X5830000Y1840000D02*
G02X6110000Y1560000I-10455J-290455D01*
G01Y300000D01*
G02X5830000Y20000I-288636J8636D01*
G01X4919790D01*
G02X4903140Y51960I7J20321D01*
G03X4935710Y152490I-148142J103537D01*
G02X4965170Y170300I20318J-338D01*
G03X5259300Y290000I94832J188199D01*
G01X5393910D01*
G02X5414220Y269400I-7J-20319D01*
G03X5685780I135780J-1900D01*
G02X5706090Y290000I20317J281D01*
G01X5860000D01*
X5880000Y310000D01*
Y1550000D01*
X5860000Y1570000D01*
X5706090D01*
G02X5685780Y1590600I7J20319D01*
G03X5414220I-135780J1900D01*
G02X5393910Y1570000I-20317J-281D01*
G01X5259300D01*
G03X4965170Y1689700I-199298J-68499D01*
G02X4935710Y1707510I-9142J18148D01*
G03X4903140Y1808040I-180712J-3007D01*
G02X4919790Y1840000I16657J11639D01*
G01X5830000D01*
G37*
G36*
G01X5541020Y632680D02*
X5489930Y581570D01*
X5550000Y518320D01*
X5610070Y581570D01*
X5558980Y632680D01*
G03X5541020I-8980J-8980D01*
G37*
G36*
G01X5477740Y1507530D02*
X5550000Y1507540D01*
X5552240Y1594750D01*
X5465050Y1592500D01*
X5465040Y1520230D01*
G03X5477740Y1507530I12700J0D01*
G37*
G54D10*
X270000Y330000D03*
Y1530000D03*
X5060000Y358500D03*
Y1501500D03*
G54D20*
X1210000Y820000D03*
X1440000D03*
X1670000D03*
G54D11*
X500000Y70000D03*
X750000Y840000D03*
Y680000D03*
X660000Y1540000D03*
Y1670000D03*
X1160000Y90000D03*
Y250000D03*
Y410000D03*
Y570000D03*
X1000000Y930000D03*
X910000Y840000D03*
X810000Y1190000D03*
X960000Y1191600D03*
X810000Y1390000D03*
X1070000Y1550000D03*
X960000Y1391600D03*
X1280000Y1550000D03*
X1740000Y300000D03*
Y410000D03*
Y520000D03*
Y620000D03*
X1860000Y300000D03*
Y410000D03*
X1740000Y180000D03*
X1550000Y1190000D03*
X1520000Y1670000D03*
X1440000Y1260000D03*
X2290000Y60000D03*
X2350000D03*
X2000000Y320000D03*
X2375490Y1603650D03*
X2030000Y1700000D03*
X2170000Y1320000D03*
X1980000Y1620000D03*
X2300000Y1240000D03*
X1980000Y1470000D03*
X2620000Y60000D03*
X2690000D03*
X2940000Y300000D03*
X2690000Y140000D03*
X2540000Y130000D03*
X2943890Y1181550D03*
X2430000Y1340000D03*
X3120000Y490000D03*
X3059860Y1181550D03*
X3200000Y740000D03*
X3097300Y822700D03*
X3130000Y950000D03*
X3210000Y1450000D03*
X3090000D03*
X3040000Y1670000D03*
X3200000D03*
X3360000D03*
X3500000Y1500000D03*
X2980000Y1410000D03*
X3730000Y390000D03*
X3890000D03*
X3730000Y510000D03*
X3890000D03*
X3590000Y530000D03*
Y380000D03*
Y180000D03*
X3890000Y1060000D03*
X3730000D03*
X3890000Y900000D03*
X3730000D03*
X3510000Y1020000D03*
Y880000D03*
X3590000Y730000D03*
X3730000Y1340000D03*
X3890000D03*
Y1200000D03*
X3730000D03*
X3520000Y1670000D03*
X3660000D03*
Y1500000D03*
X4070000Y1670000D03*
G54D30*
G01X660000D02*
X778400D01*
G01X960000Y1391600D02*
Y1476200D01*
X956200Y1480000D01*
Y1490000D01*
G01X1158400Y1670000D02*
X1160000D01*
X1280000Y1550000D01*
G01X956200Y1290000D02*
Y1195400D01*
X960000Y1191600D01*
G01X1780000Y860000D02*
X1785000Y855000D01*
G01X1810000Y800000D02*
X1815000Y805000D01*
G01X1785000Y855000D02*
X2030000D01*
G01X1815000Y805000D02*
X2030000D01*
G01Y955000D02*
X1835000D01*
X1770000Y1020000D01*
X1620000D01*
X1440000Y1200000D01*
Y1260000D01*
G01X2030000Y1055000D02*
X1915000D01*
X1753000Y1217000D01*
X1710000D01*
G01X2030000Y1005000D02*
X1845000D01*
X1760000Y1090000D01*
X1710000D01*
G01X1550000Y1190000D02*
X1650000Y1090000D01*
X1710000D01*
G01Y1344000D02*
X1764000D01*
X1820000Y1400000D01*
Y1510000D01*
X1790000Y1540000D01*
X1414400D01*
X1349360Y1474960D01*
Y1220640D01*
X1590640Y979360D01*
X1750640D01*
X1825000Y905000D01*
X2030000D01*
G01X1440000Y1260000D02*
Y1445600D01*
X1465400Y1471000D01*
X1710000D01*
G01X2345000Y245000D02*
Y340000D01*
G01X2380000Y250000D02*
X2395000Y265000D01*
Y340000D01*
G01X1900000Y600000D02*
X1905000Y605000D01*
G01X1900000Y560000D02*
X1905000Y555000D01*
G01X1900000Y500000D02*
X1905000Y505000D01*
G01Y605000D02*
X2030000D01*
G01X1905000Y555000D02*
X2030000D01*
G01X1905000Y505000D02*
X2030000D01*
G01X2340000Y240000D02*
X2345000Y245000D01*
G01Y805000D02*
X2295000Y855000D01*
G01X2420000Y730000D02*
X2345000Y805000D01*
G01D02*
X2030000D01*
G01X2295000Y855000D02*
X2030000D01*
G01X1900000Y750000D02*
X1905000Y755000D01*
X2030000D01*
G01X2170000Y1320000D02*
Y1270000D01*
X2245000Y1195000D01*
Y1120000D01*
G01X1900000Y700000D02*
X1905000Y705000D01*
G01D02*
X2030000D01*
G01X2145000Y1120000D02*
Y1165000D01*
X1910000Y1400000D01*
Y1712520D01*
X1966840Y1769360D01*
X4333160D01*
X4863160Y1239360D01*
X5260640D01*
X5550000Y950000D01*
Y521500D01*
G01X2095000Y1120000D02*
Y1145000D01*
X1869360Y1370640D01*
Y1729360D01*
X1950000Y1810000D01*
X4350000D01*
X4880000Y1280000D01*
X5237500D01*
X5550000Y1592500D01*
G01X2395000Y1120000D02*
Y1265000D01*
X2350000Y1310000D01*
X2270000D01*
X2160000Y1420000D01*
X2090000D01*
X2050000Y1460000D01*
Y1550000D01*
X1980000Y1620000D01*
G01X2300000Y1240000D02*
X2295000Y1235000D01*
Y1120000D01*
G01X1980000Y1470000D02*
Y1390000D01*
X2195000Y1175000D01*
Y1120000D01*
G01X2495000D02*
Y1365000D01*
X2450000Y1410000D01*
X2243800D01*
X2140000Y1513800D01*
G01X2490000Y1510000D02*
X2293800D01*
X2290000Y1513800D01*
G01X2545000Y255000D02*
Y340000D01*
G01X2520000Y240000D02*
X2495000Y265000D01*
Y340000D01*
G01X2550000Y250000D02*
X2545000Y255000D01*
G01X2445000Y340000D02*
Y155400D01*
X2470400Y130000D01*
X2540000D01*
G01X2810000Y555000D02*
X3055000D01*
X3120000Y490000D01*
G01X2420000Y730000D02*
X2695000Y1005000D01*
G01D02*
X2810000D01*
G01X2430000Y1340000D02*
X2445000Y1325000D01*
Y1120000D01*
G01X3333800Y1340000D02*
X2810000D01*
X2695000Y1225000D01*
Y1120000D01*
G01X2595000D02*
Y1575000D01*
X2690000Y1670000D01*
X2710000D01*
G01X2545000Y1120000D02*
Y1475000D01*
X2510000Y1510000D01*
X2490000D01*
G01X3590000Y730000D02*
Y1190000D01*
X3530000Y1250000D01*
X2790000D01*
X2745000Y1205000D01*
Y1120000D01*
G01X2810000Y705000D02*
X3165000D01*
X3200000Y740000D01*
G01X3097300Y822700D02*
X3079600Y805000D01*
X2810000D01*
G01X3333800Y1160000D02*
Y963790D01*
X3125010Y755000D01*
X2810000D01*
G01X3130000Y950000D02*
X3035000Y855000D01*
X2810000D01*
G01X2980000Y1410000D02*
X2810000D01*
X2645000Y1245000D01*
Y1120000D01*
G01X2710000Y1670000D02*
X2906200D01*
X2910000Y1666200D01*
G54D12*
X755860Y160000D03*
X964140D03*
G54D21*
X2420000Y730000D03*
G54D31*
G01X49100Y330000D02*
X270000D01*
G01X49100Y1530000D02*
X270000D01*
G01Y109100D02*
Y330000D01*
G01D02*
Y550900D01*
G01Y1309100D02*
Y1530000D01*
G01D02*
Y1750900D01*
G54D13*
X755860Y540000D03*
Y350000D03*
X964140Y540000D03*
Y350000D03*
X2144140Y150000D03*
X1935860D03*
G54D22*
X2395000Y340000D03*
X2345000D03*
X2295000D03*
X2245000D03*
X2195000D03*
X2145000D03*
X2095000D03*
Y1120000D03*
X2145000D03*
X2195000D03*
X2245000D03*
X2295000D03*
X2345000D03*
X2395000D03*
X2745000Y340000D03*
X2695000D03*
X2645000D03*
X2595000D03*
X2545000D03*
X2495000D03*
X2445000D03*
Y1120000D03*
X2495000D03*
X2545000D03*
X2595000D03*
X2645000D03*
X2695000D03*
X2745000D03*
G54D32*
G01X300000Y0D02*
X5830000D01*
G03X6130000Y300000I0J300000D01*
G01Y1560000D01*
G03X5830000Y1860000I-300000J0D01*
G01X300000D01*
G03X0Y1560000I0J-300000D01*
G01Y300000D01*
G03X300000Y0I300000J0D01*
G01X345000Y1155000D02*
G03I-75000J0D01*
G01Y705000D02*
G03I-75000J0D01*
G01X350000Y1155000D02*
G03I-80000J0D01*
G01Y705000D02*
G03I-80000J0D01*
G54D14*
X540000Y580000D03*
G54D23*
X2030000Y405000D03*
Y455000D03*
Y505000D03*
Y555000D03*
Y605000D03*
Y655000D03*
Y705000D03*
Y755000D03*
Y805000D03*
Y855000D03*
Y905000D03*
Y955000D03*
Y1005000D03*
Y1055000D03*
X2810000Y605000D03*
Y555000D03*
Y505000D03*
Y455000D03*
Y405000D03*
Y1055000D03*
Y1005000D03*
Y955000D03*
Y905000D03*
Y855000D03*
Y805000D03*
Y755000D03*
Y705000D03*
Y655000D03*
G54D33*
G01X981600Y1790000D02*
X620000D01*
X540000Y1710000D01*
Y1520000D01*
X680000Y1380000D01*
Y1060800D01*
X750800Y990000D01*
X856200D01*
X956200Y1090000D01*
G01D02*
X1170000D01*
G01X1440000Y820000D02*
Y1030000D01*
X1380000Y1090000D01*
X1170000D01*
G01X981600Y1790000D02*
Y1670000D01*
G01Y1790000D02*
X1270000D01*
X1361600Y1698400D01*
Y1670000D01*
G01D02*
X1520000D01*
G01X2140000Y1666200D02*
X2106200Y1700000D01*
X2030000D01*
G01X3486200Y530000D02*
X3590000D01*
G01X3486200Y380000D02*
X3590000D01*
G01X3486200Y180000D02*
X3590000D01*
G01X3486200Y730000D02*
X3590000D01*
G01X4070000Y1670000D02*
X4000000D01*
G54D15*
X803800Y1090000D03*
Y1490000D03*
Y1290000D03*
X956200Y1090000D03*
Y1490000D03*
Y1290000D03*
X3486200Y380000D03*
X3333800D03*
X3486200Y180000D03*
X3333800D03*
X3486200Y530000D03*
X3333800D03*
X3486200Y1160000D03*
X3333800D03*
X3486200Y730000D03*
X3333800D03*
X3486200Y1340000D03*
X3333800D03*
G54D24*
X2220000Y530000D03*
X2420000D03*
X2220000Y730000D03*
X2420000Y930000D03*
X2220000D03*
X2420000Y730000D03*
X2610000Y530000D03*
Y730000D03*
Y930000D03*
G54D34*
G01X540000Y450000D02*
Y580000D01*
G01X560000Y430000D02*
X540000Y450000D01*
G01X4970000Y90000D02*
X4840000D01*
X4774500Y155500D01*
X4755000D01*
G01X4980000Y1770000D02*
X4840000D01*
X4774500Y1704500D01*
X4755000D01*
G54D25*
X2290000Y1513800D03*
Y1666200D03*
X2140000D03*
Y1513800D03*
X2910000Y1666200D03*
Y1513800D03*
G54D16*
X540000Y1030000D03*
Y830000D03*
Y1280000D03*
G54D17*
X778400Y1670000D03*
X981600D03*
X1361600D03*
X1158400D03*
G54D26*
X2710000D03*
X2490000D03*
Y1510000D03*
X2710000D03*
G54D27*
X4171000Y612000D03*
X4425000Y485000D03*
X4171000Y1120000D03*
Y866000D03*
X4425000Y993000D03*
Y739000D03*
X4171000Y1374000D03*
X4425000Y1247000D03*
X5550000Y267500D03*
Y521500D03*
Y1592500D03*
Y1338500D03*
G54D18*
X1440000Y200000D03*
G54D28*
X4755000Y155500D03*
Y1704500D03*
G54D19*
X1170000Y1090000D03*
Y1217000D03*
Y1344000D03*
Y1471000D03*
X1710000Y1090000D03*
Y1471000D03*
Y1344000D03*
Y1217000D03*
G54D29*
G01X3333800Y380000D02*
X3254440Y300640D01*
X3156840D01*
X2957160Y500320D01*
X2887230D01*
X2882550Y505000D01*
X2810000D01*
G01X3333800Y180000D02*
X3253800Y260000D01*
X3140000D01*
X2940320Y459680D01*
X2887230D01*
X2882550Y455000D01*
X2810000D01*
G01X3333800Y530000D02*
X3254120Y609680D01*
X2887230D01*
X2882550Y605000D01*
X2810000D01*
G01Y905000D02*
X2882550D01*
X2887230Y909680D01*
X2937160D01*
X3022200Y994720D01*
Y1143890D01*
X3059860Y1181550D01*
G01X2810000Y955000D02*
X2882550D01*
X2887230Y950320D01*
X2920320D01*
X2981560Y1011560D01*
Y1143880D01*
X2943890Y1181550D01*
G01X3333800Y730000D02*
X3254120Y650320D01*
X2887230D01*
X2882550Y655000D01*
X2810000D01*
G01X4425000Y485000D02*
Y494360D01*
X4500000Y569360D01*
X4533160D01*
X4559360Y543160D01*
Y349360D01*
X4510000Y300000D01*
X3410000D01*
X3333800Y376200D01*
Y380000D01*
G01X4171000Y612000D02*
X4173000Y610000D01*
X4550000D01*
X4600000Y560000D01*
Y332520D01*
X4526840Y259360D01*
X3410000D01*
X3333800Y183160D01*
Y180000D01*
G01X4171000Y1120000D02*
X4172260Y1118740D01*
X4511260D01*
X4549360Y1156840D01*
Y1373160D01*
X4402590Y1519930D01*
X4110550D01*
X4020640Y1430020D01*
Y850640D01*
X3779360Y609360D01*
X3410000D01*
X3333800Y533160D01*
Y530000D01*
G01X4425000Y739000D02*
X4550000Y864000D01*
Y1100000D01*
X4590000Y1140000D01*
Y1390000D01*
X4419430Y1560570D01*
X4093710D01*
X3980000Y1446860D01*
Y867480D01*
X3762520Y650000D01*
X3410000D01*
X3333800Y726200D01*
Y730000D01*
M02*
