G04 ================== begin FILE IDENTIFICATION RECORD ==================*
G04 Layout Name:  H:/MBEDBoard/MK60_PACK_V30A/PCB/MK60_PACK_V30A.brd*
G04 Film Name:    BOTTOM*
G04 File Format:  Gerber RS274X*
G04 File Origin:  Cadence Allegro 17.2-S058*
G04 Origin Date:  Mon Sep 23 19:27:07 2019*
G04 *
G04 Layer:  ETCH/BOTTOM*
G04 Layer:  PIN/BOTTOM*
G04 Layer:  VIA CLASS/BOTTOM*
G04 *
G04 Offset:    (0.0000 0.0000)*
G04 Mirror:    No*
G04 Mode:      Positive*
G04 Rotation:  0*
G04 FullContactRelief:  No*
G04 UndefLineWidth:     0.1524*
G04 ================== end FILE IDENTIFICATION RECORD ====================*
%FSLAX55Y55*MOMM*%
%IR0*IPPOS*OFA0.00000B0.00000*MIA0B0*SFA1.00000B1.00000*%
%ADD10C,.6096*%
%ADD13O,4.X2.*%
%ADD11O,2.X4.*%
%ADD14C,2.5*%
%ADD12C,1.6*%
%ADD15C,1.7*%
%ADD18C,1.8*%
%ADD16R,1.8X1.8*%
%ADD17R,1.9X1.9*%
%ADD19C,.2032*%
%ADD20C,.254*%
%ADD21C,.7112*%
%ADD22C,.508*%
%ADD23C,.762*%
%ADD24C,1.27*%
%ADD27C,.6328*%
%ADD29C,1.0202*%
%ADD26C,1.4146*%
%ADD28C,1.0774*%
%ADD31C,3.4148*%
%ADD25C,2.7148*%
%ADD30O,2.9148X4.9148*%
G75*
%LPD*%
G75*
G36*
G01X1283920Y6514790D02*
G03X1174000Y6574740I-109920J-70796D01*
G03X1043260Y6444000I0J-130740D01*
G01Y6443980D01*
G03X1045150Y6421840I130741J10D01*
G01X1046040Y6416650D01*
X909700Y6280300D01*
G03X888860Y6230000I50297J-50306D01*
G01Y6130230D01*
X658630Y5900000D01*
X30000D01*
Y6250000D01*
X780000D01*
Y6970000D01*
X9310000D01*
Y6320000D01*
X9970000D01*
Y790000D01*
X9240000D01*
Y30000D01*
X7608110D01*
G02X7593490Y64430I1J20319D01*
G01X7600460Y71410D01*
X7657400Y74270D01*
X7657600D01*
G03X7766580Y131280I-1602J135730D01*
G02X7799540Y131110I16419J-11975D01*
G03X8020460I110460J78887D01*
G02X8053540I16540J-11805D01*
G03X8274460I110460J78887D01*
G02X8307540I16540J-11805D01*
G03X8528460I110460J78887D01*
G02X8561540I16540J-11805D01*
G03X8782460I110460J78887D01*
G02X8815540I16540J-11805D01*
G03X8926000Y74260I110460J78887D01*
G03X9061740Y210000I0J135740D01*
G03X9004890Y320460I-135737J0D01*
G02Y353540I11805J16540D01*
G03X9061740Y464000I-78887J110460D01*
G03X8926000Y599740I-135740J0D01*
G03X8815540Y542890I0J-135737D01*
G02X8782460I-16540J11805D01*
G03X8561540I-110460J-78887D01*
G02X8528460I-16540J11805D01*
G03X8418000Y599740I-110460J-78887D01*
G03X8372960Y592050I0J-135744D01*
G02X8345900Y611220I-6740J19169D01*
G01Y970000D01*
G03X8329530Y1009530I-55913J0D01*
G01X7865900Y1473150D01*
Y2599610D01*
G03X7880020Y2643800I-62089J44190D01*
G03X7727580I-76220J0D01*
G03X7754100Y2586010I76225J0D01*
G01Y1505900D01*
X6130000D01*
G03X6090470Y1489530I0J-55913D01*
G01X5316850Y715900D01*
X4071810D01*
G03X4020000Y736220I-51810J-55890D01*
G03Y583780I0J-76220D01*
G03X4071810Y604100I0J76210D01*
G01X4769960D01*
G02X4782340Y567670I-2J-20319D01*
G03X4731260Y464000I79662J-103670D01*
G03X4765270Y376040I130750J0D01*
G02X4756930Y343190I-15034J-13667D01*
G03X4726260Y300000I15075J-43190D01*
G01Y120000D01*
G03X4772000Y74260I45740J0D01*
G01X4952000D01*
G03X4995190Y104930I0J45745D01*
G02X5028040Y113270I19183J-6694D01*
G03X5116000Y79260I87960J96740D01*
G03X5225920Y139210I0J130746D01*
G02X5260080I17080J-11003D01*
G03X5479920I109920J70796D01*
G02X5514080I17080J-11003D01*
G03X5733920I109920J70796D01*
G02X5768080I17080J-11003D01*
G03X5987920I109920J70796D01*
G02X6022080I17080J-11003D01*
G03X6132000Y79260I109920J70796D01*
G03X6249690Y153070I0J130733D01*
G02X6282350Y158590I18292J-8848D01*
G01X6333640Y107300D01*
X6376510Y64430D01*
G02X6361890Y30000I-14621J-14111D01*
G01X760000D01*
Y720000D01*
X30000D01*
Y3960780D01*
G02X47340Y3967970I10160J2D01*
G01X61050Y3954260D01*
X468950D01*
X495450Y3980760D01*
X1180000D01*
G03X1257240Y4012760I-7J109237D01*
G01X1378470Y4133980D01*
X1383090Y4133650D01*
G03X1395200Y4133220I12110J170311D01*
G03X1526420Y4194720I0J170739D01*
G01X1648700D01*
G03X1725940Y4226720I-7J109237D01*
G01X1759230Y4260000D01*
X1776900D01*
G02X1784090Y4242660I2J-10160D01*
G01X1680720Y4139280D01*
G03X1656160Y4080000I59277J-59287D01*
G01Y3280850D01*
X1611050Y3235740D01*
X1291050D01*
X1254260Y3198950D01*
Y2921050D01*
X1321050Y2854260D01*
X1768950D01*
X1825740Y2911050D01*
Y3248950D01*
X1823840Y3250850D01*
Y4045270D01*
X2038570Y4260000D01*
X2150000D01*
Y4371430D01*
X2679280Y4900720D01*
G03X2703840Y4960000I-59277J59287D01*
G01Y6595270D01*
X2808730Y6700160D01*
X4761680D01*
G03X4765270Y6696040I100344J83812D01*
G02X4756930Y6663190I-15034J-13667D01*
G03X4726260Y6620000I15075J-43190D01*
G01Y6440000D01*
G03X4772000Y6394260I45740J0D01*
G01X4952000D01*
G03X4995190Y6424930I0J45745D01*
G02X5028040Y6433270I19183J-6694D01*
G03X5116000Y6399260I87960J96740D01*
G03X5225920Y6459210I0J130746D01*
G02X5260080I17080J-11003D01*
G03X5479920I109920J70796D01*
G02X5514080I17080J-11003D01*
G03X5733920I109920J70796D01*
G02X5768080I17080J-11003D01*
G03X5987920I109920J70796D01*
G02X6022080I17080J-11003D01*
G03X6241920I109920J70796D01*
G02X6276080I17080J-11003D01*
G03X6495920I109920J70796D01*
G02X6530080I17080J-11003D01*
G03X6749920I109920J70796D01*
G02X6784080I17080J-11003D01*
G03X7003920I109920J70796D01*
G02X7038080I17080J-11003D01*
G03X7257920I109920J70796D01*
G02X7292080I17080J-11003D01*
G03X7511920I109920J70796D01*
G02X7546080I17080J-11003D01*
G03X7765920I109920J70796D01*
G02X7800080I17080J-11003D01*
G03X8019920I109920J70796D01*
G02X8054080I17080J-11003D01*
G03X8273920I109920J70796D01*
G02X8308080I17080J-11003D01*
G03X8527920I109920J70796D01*
G02X8562080I17080J-11003D01*
G03X8781920I109920J70796D01*
G02X8816080I17080J-11003D01*
G03X8926000Y6399260I109920J70796D01*
G03X9056740Y6530000I0J130740D01*
G03X8996790Y6639920I-130746J0D01*
G02Y6674080I11003J17080D01*
G03X9056740Y6784000I-70796J109920D01*
G03X8926000Y6914740I-130740J0D01*
G03X8816080Y6854790I0J-130746D01*
G02X8781920I-17080J11003D01*
G03X8562080I-109920J-70796D01*
G02X8527920I-17080J11003D01*
G03X8308080I-109920J-70796D01*
G02X8273920I-17080J11003D01*
G03X8054080I-109920J-70796D01*
G02X8019920I-17080J11003D01*
G03X7800080I-109920J-70796D01*
G02X7765920I-17080J11003D01*
G03X7546080I-109920J-70796D01*
G02X7511920I-17080J11003D01*
G03X7292080I-109920J-70796D01*
G02X7257920I-17080J11003D01*
G03X7038080I-109920J-70796D01*
G02X7003920I-17080J11003D01*
G03X6784080I-109920J-70796D01*
G02X6749920I-17080J11003D01*
G03X6530080I-109920J-70796D01*
G02X6495920I-17080J11003D01*
G03X6276080I-109920J-70796D01*
G02X6241920I-17080J11003D01*
G03X6022080I-109920J-70796D01*
G02X5987920I-17080J11003D01*
G03X5768080I-109920J-70796D01*
G02X5733920I-17080J11003D01*
G03X5514080I-109920J-70796D01*
G02X5479920I-17080J11003D01*
G03X5260080I-109920J-70796D01*
G02X5225920I-17080J11003D01*
G03X5006080I-109920J-70796D01*
G02X4971920I-17080J11003D01*
G03X4862000Y6914740I-109920J-70796D01*
G03X4761680Y6867840I0J-130743D01*
G01X2774000D01*
G03X2714720Y6843280I7J-83837D01*
G01X2560720Y6689280D01*
G03X2536160Y6630000I59277J-59287D01*
G01Y4994730D01*
X2184690Y4643260D01*
G02X2150000Y4657620I-14371J14365D01*
G01Y5071320D01*
X2178350D01*
X2181790Y5070720D01*
G03X2207530Y5066240I25746J71741D01*
G01X2207540D01*
G03Y5218680I0J76220D01*
G01X2207530D01*
G03X2181790Y5214200I6J-76221D01*
G01X2180120Y5213600D01*
X2150000D01*
Y5900000D01*
X1559500D01*
X1557180Y5906950D01*
G03X1233220I-161980J-53991D01*
G01X1230900Y5900000D01*
X908900D01*
G02X894540Y5934690I4J20319D01*
G01X1010300Y6050460D01*
G03X1031140Y6100760I-50297J50306D01*
G01Y6101670D01*
G02X1067940Y6113550I20319J-5D01*
G03X1174000Y6059260I106060J76453D01*
G03X1283920Y6119210I0J130746D01*
G02X1318080I17080J-11003D01*
G03X1537920I109920J70796D01*
G02X1572080I17080J-11003D01*
G03X1791920I109920J70796D01*
G02X1826080I17080J-11003D01*
G03X1936000Y6059260I109920J70796D01*
G03X2066740Y6190000I0J130740D01*
G03X2006790Y6299920I-130746J0D01*
G02Y6334080I11003J17080D01*
G03X2029460Y6352570I-70781J109925D01*
G01X2029500Y6352610D01*
X2064990Y6388100D01*
X2262850D01*
X2344100Y6306850D01*
Y5721810D01*
G03X2323780Y5670000I55890J-51810D01*
G03X2476220I76220J0D01*
G03X2455900Y5721810I-76210J0D01*
G01Y6330000D01*
G03X2439530Y6369530I-55913J0D01*
G01X2325530Y6483530D01*
G03X2286000Y6499900I-39530J-39543D01*
G01X2064990D01*
X2029630Y6535260D01*
X2029580Y6535300D01*
G03X1936000Y6574740I-93580J-91299D01*
G01Y6574750D01*
G03X1826260Y6515070I6J-130747D01*
G02X1791920Y6514790I-17259J10722D01*
G03X1572080I-109920J-70796D01*
G02X1537920I-17080J11003D01*
G03X1318080I-109920J-70796D01*
G02X1283920I-17080J11003D01*
G37*
G36*
G01X470000Y4020000D02*
X450000Y4000000D01*
X80000D01*
X60000Y4020000D01*
Y4500000D01*
X130000Y4570000D01*
X390000D01*
X470000Y4490000D01*
Y4020000D01*
G37*
G36*
G01X660560Y4495960D02*
X600200D01*
X595490Y4411700D01*
X680050Y4413300D01*
X685820Y4467900D01*
G03X660560Y4495960I-25260J2660D01*
G37*
G36*
G01X654800Y5820960D02*
X600200D01*
X595710Y5736470D01*
X680200Y5740960D01*
Y5795560D01*
G03X654800Y5820960I-25400J0D01*
G37*
G36*
G01X680200Y5686360D02*
Y5740960D01*
X595710Y5745450D01*
X600200Y5660960D01*
X654800D01*
G03X680200Y5686360I0J25400D01*
G37*
G36*
G01X1300000Y3180000D02*
X1310000Y3190000D01*
X1630000D01*
X1700000Y3260000D01*
X1750000D01*
X1780000Y3230000D01*
Y2930000D01*
X1750000Y2900000D01*
X1340000D01*
X1300000Y2940000D01*
Y3180000D01*
G37*
G36*
G01X1191960Y6087750D02*
X1234100Y6129910D01*
X1174000Y6196350D01*
X1113900Y6129910D01*
X1156040Y6087750D01*
G03X1191960I17960J17960D01*
G37*
G36*
G01X1114400Y6359000D02*
X1174000D01*
X1178490Y6448490D01*
X1089000Y6444000D01*
Y6384400D01*
G03X1114400Y6359000I25400J0D01*
G37*
G36*
G01X1630020Y4997500D02*
X1668640Y4958900D01*
X1731550Y5015460D01*
X1668640Y5072020D01*
X1630020Y5033420D01*
G03Y4997500I17960J-17960D01*
G37*
G36*
G01X1820380Y5033420D02*
X1781760Y5072020D01*
X1718850Y5015460D01*
X1781760Y4958900D01*
X1820380Y4997500D01*
G03Y5033420I-17960J17960D01*
G37*
G36*
G01X1924600Y5062460D02*
X1979200D01*
X1983690Y5146950D01*
X1899200Y5142460D01*
Y5087860D01*
G03X1924600Y5062460I25400J0D01*
G37*
G36*
G01X2049020Y6451180D02*
X1996100Y6504100D01*
X1933460Y6444000D01*
X1996100Y6383900D01*
X2049020Y6436820D01*
G03Y6451180I-7180J7180D01*
G37*
G36*
G01X2074380Y5160420D02*
X2035760Y5199020D01*
X1972850Y5142460D01*
X2035760Y5085900D01*
X2074380Y5124500D01*
G03Y5160420I-17960J17960D01*
G37*
G36*
G01X2392820Y5705920D02*
X2378450Y5691550D01*
X2400000Y5667460D01*
X2421550Y5691550D01*
X2407180Y5705920D01*
G03X2392820I-7180J-7180D01*
G37*
G36*
G01X4055920Y667180D02*
X4041550Y681550D01*
X4017460Y660000D01*
X4041550Y638450D01*
X4055920Y652820D01*
G03Y667180I-7180J7180D01*
G37*
G36*
G01X5133960Y6427750D02*
X5176100Y6469910D01*
X5116000Y6536350D01*
X5055900Y6469910D01*
X5098040Y6427750D01*
G03X5133960I17960J17960D01*
G37*
G36*
G01X6204940Y1264330D02*
X6226290Y1285680D01*
X6237560Y1274410D01*
X6236140Y1268810D01*
G03X6233780Y1250000I73859J-18820D01*
G03X6254100Y1198190I76210J0D01*
G01Y575620D01*
G02X6220090Y560610I-20319J4D01*
G03X6132000Y594740I-88090J-96616D01*
G03X6022080Y534790I0J-130746D01*
G02X5987920I-17080J11003D01*
G03X5768080I-109920J-70796D01*
G02X5733920I-17080J11003D01*
G03X5514080I-109920J-70796D01*
G02X5479920I-17080J11003D01*
G03X5375780Y594610I-109915J-70793D01*
G02X5370660Y613260I449J10151D01*
G03X5379530Y620470I-30640J46756D01*
G01X6027970Y1268920D01*
G02X6062660Y1254550I14369J-14369D01*
G01Y1013620D01*
X6062060Y1011950D01*
G03X6057580Y986200I71741J-25746D01*
G03X6210020I76220J0D01*
G03X6205540Y1011950I-76221J4D01*
G01X6204940Y1013620D01*
Y1264330D01*
G37*
G36*
G01X5387960Y6427750D02*
X5430100Y6469910D01*
X5370000Y6536350D01*
X5309900Y6469910D01*
X5352040Y6427750D01*
G03X5387960I17960J17960D01*
G37*
G36*
G01X5860040Y566250D02*
X5817900Y524090D01*
X5878000Y457650D01*
X5938100Y524090D01*
X5895960Y566250D01*
G03X5860040I-17960J-17960D01*
G37*
G36*
G01X5895960Y361750D02*
X5938100Y403910D01*
X5878000Y470350D01*
X5817900Y403910D01*
X5860040Y361750D01*
G03X5895960I17960J17960D01*
G37*
G36*
G01Y107750D02*
X5938100Y149910D01*
X5878000Y216350D01*
X5817900Y149910D01*
X5860040Y107750D01*
G03X5895960I17960J17960D01*
G37*
G36*
G01X5860040Y312250D02*
X5817900Y270090D01*
X5878000Y203650D01*
X5938100Y270090D01*
X5895960Y312250D01*
G03X5860040I-17960J-17960D01*
G37*
G36*
G01X6317180Y1214080D02*
X6331550Y1228450D01*
X6310000Y1252540D01*
X6288450Y1228450D01*
X6302820Y1214080D01*
G03X6317180I7180J7180D01*
G37*
G36*
G01X7241040Y1394100D02*
X7786850D01*
X8234100Y946850D01*
Y611910D01*
G02X8207300Y592650I-20319J-2D01*
G03X8164000Y599740I-43296J-128651D01*
G03X8119740Y592320I4J-135739D01*
G02X8093620Y605790I-6626J19211D01*
G03X8079530Y629530I-53627J-15777D01*
G01X7959530Y749530D01*
G03X7920000Y765900I-39530J-39543D01*
G01X6753150D01*
X6675900Y843150D01*
Y1280000D01*
G03X6675550Y1286260I-55901J14D01*
G02X6695740Y1308860I20191J2281D01*
G01X7100530D01*
X7118860Y1290530D01*
Y1007420D01*
X7118260Y1005750D01*
G03X7113780Y980000I71741J-25746D01*
G03X7266220I76220J0D01*
G03X7261740Y1005750I-76221J4D01*
G01X7261140Y1007420D01*
Y1320000D01*
G03X7240300Y1370300I-71123J0D01*
G01X7233850Y1376760D01*
G02X7241040Y1394100I7186J7181D01*
G37*
G36*
G01X6390840Y1214080D02*
X6405210Y1228450D01*
X6383660Y1252540D01*
X6362110Y1228450D01*
X6376480Y1214080D01*
G03X6390840I7180J7180D01*
G37*
G36*
G01X6475900Y1283870D02*
X6455580Y1280320D01*
X6455670Y1248070D01*
X6487800Y1250000D01*
Y1273860D01*
G03X6475900Y1283870I-10160J0D01*
G37*
G36*
G01X6547180Y1214080D02*
X6561550Y1228450D01*
X6540000Y1252540D01*
X6518450Y1228450D01*
X6532820Y1214080D01*
G03X6547180I7180J7180D01*
G37*
G36*
G01X7058000Y289840D02*
Y210000D01*
X7149800Y208200D01*
X7148000Y300000D01*
X7068160D01*
G03X7058000Y289840I0J-10160D01*
G37*
G36*
G01X7312000D02*
Y210000D01*
X7403800Y208200D01*
X7402000Y300000D01*
X7322160D01*
G03X7312000Y289840I0J-10160D01*
G37*
G36*
G01X7576670Y116010D02*
X7656510Y120020D01*
X7657750Y211840D01*
X7566000Y210000D01*
Y126160D01*
G03X7576670Y116010I10163J0D01*
G37*
G36*
G01X7781260Y1450000D02*
X7810000D01*
X7802820Y1485920D01*
X7774080Y1457180D01*
X7781260Y1450000D01*
G37*
G36*
G01X7819440Y2605110D02*
X7827600Y2625680D01*
X7803360Y2646300D01*
X7782250Y2622250D01*
X7802820Y2601680D01*
G03X7819440Y2605110I7182J7183D01*
G37*
G36*
G01X8146040Y573320D02*
X8100370Y527630D01*
X8164000Y457650D01*
X8227630Y527630D01*
X8181960Y573320D01*
G03X8146040I-17960J-17960D01*
G37*
G36*
G01X8400040D02*
X8354370Y527630D01*
X8418000Y457650D01*
X8481630Y527630D01*
X8435960Y573320D01*
G03X8400040I-17960J-17960D01*
G37*
G36*
G01X8074000Y295840D02*
Y210000D01*
X8165730Y208140D01*
X8164760Y299960D01*
X8084920Y305970D01*
G03X8074000Y295840I-761J-10130D01*
G37*
G36*
G01X8328000Y289840D02*
Y210000D01*
X8419800Y208200D01*
X8418000Y300000D01*
X8338160D01*
G03X8328000Y289840I0J-10160D01*
G37*
G36*
G01X8654040Y573320D02*
X8608370Y527630D01*
X8672000Y457650D01*
X8735630Y527630D01*
X8689960Y573320D01*
G03X8654040I-17960J-17960D01*
G37*
%LPC*%
G75*
G36*
G01X3335750Y4901740D02*
X3337420Y4901140D01*
X3482580D01*
X3484250Y4901740D01*
G02X3510000Y4906220I25746J-71741D01*
G02Y4753780I0J-76220D01*
G02X3484250Y4758260I-4J76221D01*
G01X3482580Y4758860D01*
X3337420D01*
X3335750Y4758260D01*
G02X3310000Y4753780I-25746J71741D01*
G02Y4906220I0J76220D01*
G02X3335750Y4901740I4J-76221D01*
G37*
G36*
G01X1018680Y1155420D02*
X1218680D01*
G02Y863940I0J-145740D01*
G01X1018680D01*
G02Y1155420I0J145740D01*
G37*
G36*
G01X8127810Y1408100D02*
G02X8076000Y1387780I-51810J55890D01*
G02Y1540220I0J76220D01*
G02X8127810Y1519900I0J-76210D01*
G01X8218190D01*
G02X8270000Y1540220I51810J-55890D01*
G02Y1387780I0J-76220D01*
G02X8218190Y1408100I0J76210D01*
G01X8127810D01*
G37*
G36*
G01X9223100Y5558190D02*
G02X9202780Y5610000I55890J51810D01*
G02X9279000Y5686220I76220J0D01*
G02X9319500Y5674570I0J-76222D01*
G02X9360000Y5686220I40500J-64572D01*
G02X9436220Y5610000I0J-76220D01*
G02X9415900Y5558190I-76210J0D01*
G01Y5051810D01*
G02X9436220Y5000000I-55890J-51810D01*
G02X9360000Y4923780I-76220J0D01*
G02X9319500Y4935430I0J76222D01*
G02X9279000Y4923780I-40500J64572D01*
G02X9202780Y5000000I0J76220D01*
G02X9223100Y5051810I76210J0D01*
G01Y5558190D01*
G37*
G36*
G01X2893780Y4349990D02*
Y4350000D01*
G02X2898260Y4375750I76221J4D01*
G01X2898860Y4377420D01*
Y4540810D01*
X2898260Y4544250D01*
G02X2893780Y4569990I71741J25746D01*
G01Y4570000D01*
G02X3046220I76220J0D01*
G01Y4569990D01*
G02X3041740Y4544250I-76221J6D01*
G01X3041140Y4542580D01*
Y4379190D01*
X3041740Y4375750D01*
G02X3046220Y4350000I-71741J-25746D01*
G01Y4349990D01*
G02X3027220Y4299640I-76223J3D01*
G03X3042470Y4265900I15254J-13422D01*
G01X4008190D01*
G02X4060000Y4286220I51810J-55890D01*
G02Y4133780I0J-76220D01*
G02X4046560Y4134970I-24J76222D01*
G03X4023720Y4120620I-3335J-20043D01*
G02X3950000Y4063780I-73720J19386D01*
G02X3880740Y4108180I0J76220D01*
G01X3878020Y4114100D01*
X3154010D01*
G03X3139390Y4079670I1J-20319D01*
G01X3436930Y3782120D01*
X5883070D01*
X6170470Y4069530D01*
G02X6210000Y4085900I39530J-39543D01*
G01X6280000D01*
G02X6319530Y4069530I0J-55913D01*
G01X6359530Y4029530D01*
G02X6374110Y4004060I-39526J-39534D01*
G01X6376080Y3996460D01*
X6394100D01*
Y5580000D01*
G02X6410470Y5619530I55913J0D01*
G01X6459980Y5669040D01*
X6501370Y5710430D01*
G03X6486750Y5744860I-14621J14111D01*
G01X5471470D01*
X5384370Y5657760D01*
G03X5394990Y5623420I14366J-14369D01*
G02X5480460Y5568890I-24992J-133419D01*
G03X5513540I16540J11805D01*
G02X5624000Y5625740I110460J-78887D01*
G02Y5354260I0J-135740D01*
G02X5513540Y5411110I0J135737D01*
G03X5480460I-16540J-11805D01*
G02X5259540I-110460J78887D01*
G03X5226580Y5411280I-16541J-11805D01*
G02X5116000Y5354260I-110580J78715D01*
G02X5030150Y5384850I-7J135743D01*
G03X4999000Y5376880I-12495J-16023D01*
G02X4957000Y5349260I-42000J18123D01*
G01X4767000D01*
G02X4721260Y5395000I0J45740D01*
G01Y5585010D01*
G02X4721360Y5588000I45739J-33D01*
G01X4721380Y5588330D01*
Y5598860D01*
X3883470D01*
X3861140Y5576530D01*
Y4531140D01*
X4370810D01*
X4374250Y4531740D01*
G02X4399990Y4536220I25746J-71741D01*
G01X4400000D01*
G02Y4383780I0J-76220D01*
G01X4399990D01*
G02X4374250Y4388260I6J76221D01*
G01X4372580Y4388860D01*
X3819190D01*
X3815750Y4388260D01*
G02X3790010Y4383780I-25746J71741D01*
G01X3790000D01*
G02X3713780Y4460000I0J76220D01*
G01Y4460010D01*
G02X3718260Y4485750I76221J-6D01*
G01X3718860Y4487420D01*
Y5606000D01*
G02X3739700Y5656300I71137J-6D01*
G01X3784300Y5700910D01*
X3785060Y5702510D01*
G02X3854000Y5746220I68940J-32512D01*
G01X3854010D01*
G02X3879750Y5741740I-6J-76221D01*
G01X3881420Y5741140D01*
X4960000D01*
G02X5010300Y5720300I-6J-71137D01*
G01X5078190Y5652410D01*
X5090730Y5639880D01*
X5128760Y5625740D01*
X5151130D01*
X5391700Y5866300D01*
G02X5442000Y5887140I50306J-50297D01*
G01X8636810D01*
X8640250Y5887740D01*
G02X8666000Y5892220I25746J-71741D01*
G02X8691750Y5887740I4J-76221D01*
G01X8693420Y5887140D01*
X9701450D01*
X9705980Y5888210D01*
X9705990D01*
G02X9740000Y5896220I34010J-68197D01*
G02X9741070Y5896210I-177J-76218D01*
G02X9816220Y5820000I-1067J-76210D01*
G02X9740000Y5743780I-76220J0D01*
G01X9739950D01*
G02X9727960Y5744730I7J76223D01*
G01X9727170Y5744860D01*
X9051140D01*
Y5219190D01*
X9051740Y5215750D01*
G02X9056220Y5190000I-71741J-25746D01*
G02X9051740Y5164250I-76221J-4D01*
G01X9051140Y5162580D01*
Y5059470D01*
X9386500Y4724100D01*
G02X9407340Y4673800I-50297J-50306D01*
G01Y3689190D01*
X9407940Y3685750D01*
G02X9412420Y3660000I-71741J-25746D01*
G02X9407940Y3634250I-76221J-4D01*
G01X9407340Y3632580D01*
Y1426200D01*
G02X9386500Y1375900I-71123J0D01*
G01X9320300Y1309700D01*
G02X9270000Y1288860I-50306J50297D01*
G01X9180820D01*
X9157310Y1265360D01*
X9157260Y1265320D01*
G02X9060000Y1224260I-97267J94677D01*
G02X8924260Y1360000I0J135740D01*
G02X8965320Y1457260I135737J-7D01*
G01X8965360Y1457310D01*
X8988860Y1480820D01*
Y1680530D01*
X8870530Y1798860D01*
X8069190D01*
X8065750Y1798260D01*
G02X8040010Y1793780I-25746J71741D01*
G01X8040000D01*
G02X7971060Y1837490I0J76222D01*
G01X7970300Y1839090D01*
X7929700Y1879700D01*
G02X7908860Y1930000I50283J50300D01*
G01Y2080810D01*
X7908260Y2084250D01*
G02X7903780Y2109990I71741J25746D01*
G01Y2110000D01*
G02X7921410Y2158750I76216J0D01*
G03Y2184750I-15618J13000D01*
G02X7903780Y2233500I58586J48750D01*
G02X7922590Y2283630I76218J-5D01*
G03X7922820Y2310110I-15305J13374D01*
G02X7903780Y2360500I57177J50397D01*
G02X7924100Y2412310I76210J0D01*
G01Y3556850D01*
X7795380Y3685560D01*
X7786460Y3693920D01*
X7784760Y3694630D01*
G02X7774520Y3699830I29292J70365D01*
G02X7735000Y3688780I-39526J65168D01*
G01X7734960D01*
G02X7732200Y3688830I0J76221D01*
G03X7711140Y3668530I-741J-20306D01*
G01Y3349190D01*
X7711740Y3345750D01*
G02X7716220Y3320000I-71741J-25746D01*
G01Y3319990D01*
G02X7710630Y3291340I-76222J2D01*
G03X7724270Y3264050I18825J-7645D01*
G02X7749530Y3249530I-14266J-54051D01*
G01X7792800Y3206260D01*
X7796500Y3205940D01*
G02X7866220Y3130000I-6497J-75940D01*
G02X7790000Y3053780I-76220J0D01*
G02X7722890Y3093860I0J76225D01*
G03X7687110I-17890J-9630D01*
G02X7682290Y3086070I-67110J36138D01*
G02X7675900Y3078190I-62265J43961D01*
G01Y1680000D01*
G02X7659530Y1640470I-55913J0D01*
G01X7569530Y1550470D01*
G02X7530000Y1534100I-39530J39543D01*
G01X6053150D01*
X5299530Y780470D01*
G02X5260000Y764100I-39530J39543D01*
G01X3473150D01*
X3366260Y657200D01*
X3365940Y653500D01*
G02X3290000Y583780I-75940J6497D01*
G02X3213780Y660000I0J76220D01*
G02X3283500Y735940I76217J0D01*
G01X3287200Y736260D01*
X3410470Y859530D01*
G02X3450000Y875900I39530J-39543D01*
G01X5236850D01*
X5990470Y1629530D01*
G02X6030000Y1645900I39530J-39543D01*
G01X7506850D01*
X7564100Y1703150D01*
Y1979350D01*
G03X7539570Y1999230I-20320J1D01*
G02X7523800Y1997580I-15773J74570D01*
G01X7523790D01*
G02X7498050Y2002060I6J76221D01*
G01X7496380Y2002660D01*
X7355780D01*
X7353660Y2001620D01*
G02X7320000Y1993780I-33669J68378D01*
G02Y2146220I0J76220D01*
G02X7333070Y2145090I-6J-76219D01*
G01X7333940Y2144940D01*
X7494610D01*
X7498050Y2145540D01*
G02X7523790Y2150020I25746J-71741D01*
G01X7523800D01*
G02X7539570Y2148370I-3J-76220D01*
G03X7564100Y2168250I4210J19879D01*
G01Y3078190D01*
G02X7543780Y3130000I55890J51810D01*
G02X7543850Y3133220I76219J-46D01*
G03X7523540Y3154100I-20313J559D01*
G01X6673150D01*
X6625900Y3106850D01*
Y2871810D01*
G02X6646220Y2820000I-55890J-51810D01*
G02X6574510Y2743910I-76224J0D01*
G03X6555390Y2723630I1199J-20283D01*
G01Y2629490D01*
G02X6539020Y2589960I-55913J0D01*
G01X6386260Y2437200D01*
X6385940Y2433500D01*
G02X6310000Y2363780I-75940J6497D01*
G02X6265000Y2378480I0J76228D01*
G02X6220000Y2363780I-45000J61528D01*
G02X6143970Y2434650I0J76218D01*
G01X6143300Y2444100D01*
X5701810D01*
G02X5650000Y2423780I-51810J55890D01*
G02X5573800Y2498150I0J76223D01*
G01X5573560Y2508060D01*
X5108670D01*
X5011140Y2410530D01*
Y1372960D01*
X5032960Y1351140D01*
X5150810D01*
X5154250Y1351740D01*
G02X5179990Y1356220I25746J-71741D01*
G01X5180000D01*
G02Y1203780I0J-76220D01*
G01X5179990D01*
G02X5154250Y1208260I6J76221D01*
G01X5152580Y1208860D01*
X4969470D01*
X4680300Y919700D01*
G02X4630000Y898860I-50306J50297D01*
G01X2975740D01*
Y791050D01*
X2928950Y744260D01*
X2491050D01*
X2444260Y791050D01*
Y948950D01*
X2448860Y953550D01*
Y2319730D01*
X2439730Y2328860D01*
X1040000D01*
G02X989700Y2349700I6J71137D01*
G01X809700Y2529700D01*
G02X788860Y2580000I50283J50300D01*
G01Y3850810D01*
X788260Y3854250D01*
G02X783780Y3879990I71741J25746D01*
G01Y3880000D01*
G02X936220I76220J0D01*
G01Y3879990D01*
G02X931740Y3854250I-76221J6D01*
G01X931140Y3852580D01*
Y2609470D01*
X1069470Y2471140D01*
X2469200D01*
G02X2519500Y2450300I-6J-71137D01*
G01X2570300Y2399500D01*
G02X2591140Y2349200I-50297J-50306D01*
G01Y1019660D01*
G03X2600960Y1009510I10160J4D01*
G02X2640700Y995740I-2381J-71100D01*
G01X2865130D01*
X2872130Y1002730D01*
X2889700Y1020300D01*
G02X2940000Y1041140I50306J-50297D01*
G01X4600530D01*
X4868860Y1309470D01*
Y2410810D01*
X4868260Y2414250D01*
G02X4863780Y2439990I71741J25746D01*
G01Y2440000D01*
G02X4907490Y2508940I76222J0D01*
G01X4909090Y2509700D01*
X4948800Y2549410D01*
G03X4934440Y2584100I-14364J14371D01*
G01X3633150D01*
X3535900Y2486850D01*
Y2121810D01*
G02X3556220Y2070000I-55890J-51810D01*
G02X3403780I-76220J0D01*
G02X3424100Y2121810I76210J0D01*
G01Y2510000D01*
G02X3440470Y2549530I55913J0D01*
G01X3478640Y2587700D01*
X3510610Y2619670D01*
G03X3495990Y2654100I-14621J14111D01*
G01X1229990D01*
G02X1198540Y2663790I6J55901D01*
G02X1123780Y2740000I1464J76210D01*
G02X1200000Y2816220I76220J0D01*
G02X1269260Y2771820I0J-76220D01*
G01X1271980Y2765900D01*
X5488190D01*
G02X5540000Y2786220I51810J-55890D01*
G02X5598500Y2758860I0J-76221D01*
G03X5628460Y2757520I15593J13027D01*
G01X5653740Y2782800D01*
X5654060Y2786500D01*
G02X5681920Y2839140I75941J-6500D01*
G03X5668900Y2875060I-13023J15599D01*
G01X4965390D01*
X4961950Y2874460D01*
G02X4936210Y2869980I-25746J71741D01*
G01X4936200D01*
G02X4859980Y2946200I0J76220D01*
G02X4861120Y2959320I76219J-13D01*
G03X4841110Y2983140I-20017J3500D01*
G01X3540960D01*
G02X3501430Y2999510I0J55913D01*
G01X3477200Y3023740D01*
X3473500Y3024060D01*
G02X3403780Y3100000I6497J75940D01*
G02X3419660Y3146560I76218J-7D01*
G03X3403460Y3179150I-16200J12268D01*
G01X2654950D01*
G02X2615420Y3195520I0J55913D01*
G01X2499510Y3311430D01*
G02X2483140Y3350960I39543J39530D01*
G01Y3679040D01*
G02X2499510Y3718570I55913J0D01*
G01X2523740Y3742800D01*
X2524060Y3746500D01*
G02X2600000Y3816220I75940J-6497D01*
G02X2676220Y3740000I0J-76220D01*
G02X2652490Y3684730I-76230J0D01*
G03Y3655270I13992J-14730D01*
G02X2676220Y3600000I-52500J-55270D01*
G02X2655900Y3548190I-76210J0D01*
G01Y3413150D01*
X2724440Y3344610D01*
X3995870D01*
G03X4015680Y3369440I-4J20321D01*
G02X4013780Y3386340I74319J16912D01*
G02X4023270Y3423170I76212J0D01*
G02X4013780Y3460000I66722J36830D01*
G02X4025120Y3500000I76217J0D01*
G02X4013910Y3535470I64876J40010D01*
G03X3993630Y3554580I-20282J-1208D01*
G01X3319520D01*
G02X3279990Y3570950I0J55913D01*
G01X3037200Y3813740D01*
X3033500Y3814060D01*
G02X2963780Y3890000I6497J75940D01*
G02X3003860Y3957110I76225J0D01*
G03Y3992890I-9630J17890D01*
G02X2963780Y4060000I36145J67110D01*
G02X2968680Y4086880I76219J-7D01*
G03X2949570Y4114100I-19114J6899D01*
G01X2311980D01*
X2309260Y4108180D01*
G02X2308930Y4107470I-69283J31770D01*
G02X2296160Y4088460I-68939J32515D01*
G03X2298260Y4059000I14968J-13738D01*
G02X2326220Y4000000I-48270J-59000D01*
G02X2250000Y3923780I-76220J0D01*
G02X2174060Y3993500I0J76217D01*
G01X2173740Y3997200D01*
X2139510Y4031430D01*
G02X2123140Y4070960I39543J39530D01*
G01Y4169040D01*
G02X2139510Y4208570I55913J0D01*
G01X2180470Y4249530D01*
G02X2220000Y4265900I39530J-39543D01*
G01X2897530D01*
G03X2912780Y4299640I-4J20318D01*
G02X2893780Y4349990I57223J50353D01*
G37*
G54D27*
X460000Y3211330D03*
Y2811330D03*
G54D29*
X3450000Y6560000D03*
G54D26*
X5170000Y1600000D03*
X4420000D03*
G54D28*
X4250000Y6560000D03*
G54D25*
X9560000Y1360000D03*
G54D30*
X798680Y1489680D03*
X1398680D03*
%LPD*%
G75*
G36*
G01X1230480Y2719680D02*
Y2740000D01*
X1198200Y2741800D01*
X1200000Y2709520D01*
X1220320D01*
G03X1230480Y2719680I0J10160D01*
G37*
G36*
G01X2490000Y930000D02*
X2510000Y950000D01*
X2910000D01*
X2930000Y930000D01*
Y810000D01*
X2910000Y790000D01*
X2510000D01*
X2490000Y810000D01*
Y930000D01*
G37*
G36*
G01X2260320Y4170480D02*
X2240000D01*
X2238200Y4138200D01*
X2270480Y4140000D01*
Y4160320D01*
G03X2260320Y4170480I-10160J0D01*
G37*
G36*
G01X2219520Y4020320D02*
Y4000000D01*
X2251800Y3998200D01*
X2250000Y4030480D01*
X2229680D01*
G03X2219520Y4020320I0J-10160D01*
G37*
G36*
G01X2607180Y3564080D02*
X2621550Y3578450D01*
X2600000Y3602540D01*
X2578450Y3578450D01*
X2592820Y3564080D01*
G03X2607180I7180J7180D01*
G37*
G36*
G01X2579680Y3709520D02*
X2600000D01*
X2601800Y3741800D01*
X2569520Y3740000D01*
Y3719680D01*
G03X2579680Y3709520I10160J0D01*
G37*
G36*
G01X3070480Y3869680D02*
Y3890000D01*
X3038200Y3891800D01*
X3040000Y3859520D01*
X3060320D01*
G03X3070480Y3869680I0J10160D01*
G37*
G36*
G01X3075920Y4067180D02*
X3061550Y4081550D01*
X3037460Y4060000D01*
X3061550Y4038450D01*
X3075920Y4052820D01*
G03Y4067180I-7180J7180D01*
G37*
G36*
G01X3310320Y690480D02*
X3290000D01*
X3288200Y658200D01*
X3320480Y660000D01*
Y680320D01*
G03X3310320Y690480I-10160J0D01*
G37*
G36*
G01X3472820Y2105920D02*
X3458450Y2091550D01*
X3480000Y2067460D01*
X3501550Y2091550D01*
X3487180Y2105920D01*
G03X3472820I-7180J-7180D01*
G37*
G36*
G01X3510480Y3079680D02*
Y3100000D01*
X3478200Y3101800D01*
X3480000Y3069520D01*
X3500320D01*
G03X3510480Y3079680I0J10160D01*
G37*
G36*
G01X3180480Y3869680D02*
Y3890000D01*
X3148200Y3891800D01*
X3150000Y3859520D01*
X3170320D01*
G03X3180480Y3869680I0J10160D01*
G37*
G36*
G01X3655920Y3107180D02*
X3641550Y3121550D01*
X3617460Y3100000D01*
X3641550Y3078450D01*
X3655920Y3092820D01*
G03Y3107180I-7180J7180D01*
G37*
G36*
G01X4125920Y3393520D02*
X4111550Y3407890D01*
X4087460Y3386340D01*
X4111550Y3364790D01*
X4125920Y3379160D01*
G03Y3393520I-7180J7180D01*
G37*
G36*
G01Y3467180D02*
X4111550Y3481550D01*
X4087460Y3460000D01*
X4111550Y3438450D01*
X4125920Y3452820D01*
G03Y3467180I-7180J7180D01*
G37*
G36*
G01Y3547180D02*
X4111550Y3561550D01*
X4087460Y3540000D01*
X4111550Y3518450D01*
X4125920Y3532820D01*
G03Y3547180I-7180J7180D01*
G37*
G36*
G01X3919520Y4160320D02*
Y4140000D01*
X3951800Y4138200D01*
X3950000Y4170480D01*
X3929680D01*
G03X3919520Y4160320I0J-10160D01*
G37*
G36*
G01X4024080Y4202820D02*
X4038450Y4188450D01*
X4062540Y4210000D01*
X4038450Y4231550D01*
X4024080Y4217180D01*
G03Y4202820I7180J-7180D01*
G37*
G36*
G01X4940000Y1343500D02*
Y1280000D01*
X5023900Y1295510D01*
X4957960Y1361460D01*
X4940000Y1343500D01*
G37*
G36*
G01X5026000Y5578600D02*
Y5490000D01*
X5119740Y5484870D01*
X5124840Y5578400D01*
X5060250Y5602410D01*
G03X5026000Y5578600I-8849J-23810D01*
G37*
G36*
G01X5180600Y5580000D02*
X5116000D01*
X5111510Y5485510D01*
X5206000Y5490000D01*
Y5554600D01*
G03X5180600Y5580000I-25400J0D01*
G37*
G36*
G01X5685920Y2507180D02*
X5671550Y2521550D01*
X5647460Y2500000D01*
X5671550Y2478450D01*
X5685920Y2492820D01*
G03Y2507180I-7180J7180D01*
G37*
G36*
G01X5504080Y2702820D02*
X5518450Y2688450D01*
X5542540Y2710000D01*
X5518450Y2731550D01*
X5504080Y2717180D01*
G03Y2702820I7180J-7180D01*
G37*
G36*
G01X5709680Y2749520D02*
X5730000D01*
X5731800Y2781800D01*
X5699520Y2780000D01*
Y2759680D01*
G03X5709680Y2749520I10160J0D01*
G37*
G36*
G01X6369530Y3170470D02*
G03X6375640Y3177730I-39560J39495D01*
G01X6394100Y3171860D01*
Y2693150D01*
X6280590Y2579640D01*
G02X6245900Y2594010I-14369J14369D01*
G01Y2758190D01*
G03X6266220Y2810000I-55890J51810D01*
G03X6113780I-76220J0D01*
G03X6134100Y2758190I76210J0D01*
G01Y2573150D01*
X6116850Y2555900D01*
X5855560D01*
G02X5841200Y2590590I4J20319D01*
G01X5890300Y2639700D01*
G03X5911140Y2690000I-50297J50306D01*
G01Y2870000D01*
G03X5890300Y2920300I-71137J-6D01*
G01X5862160Y2948450D01*
G02X5876520Y2983140I14364J14371D01*
G01X6159040D01*
G03X6198570Y2999510I0J55913D01*
G01X6369530Y3170470D01*
G37*
G36*
G01X6240320Y2470480D02*
X6220000D01*
X6218200Y2438200D01*
X6250480Y2440000D01*
Y2460320D01*
G03X6240320Y2470480I-10160J0D01*
G37*
G36*
G01X6197180Y2774080D02*
X6211550Y2788450D01*
X6190000Y2812540D01*
X6168450Y2788450D01*
X6182820Y2774080D01*
G03X6197180I7180J7180D01*
G37*
G36*
G01X6292690Y3496000D02*
X6280120Y3516320D01*
X6249010Y3512320D01*
X6251170Y3480500D01*
X6284050D01*
G03X6292690Y3496000I0J10158D01*
G37*
G36*
G01X6218290Y3406840D02*
X6251170D01*
X6253330Y3438660D01*
X6222220Y3442660D01*
X6209650Y3422340D01*
G03X6218290Y3406840I8640J-5342D01*
G37*
G36*
G01Y3554160D02*
X6251170D01*
X6253330Y3585980D01*
X6222220Y3589980D01*
X6209650Y3569660D01*
G03X6218290Y3554160I8640J-5342D01*
G37*
G36*
G01Y3333180D02*
X6251170D01*
X6253330Y3365000D01*
X6222220Y3369000D01*
X6209650Y3348680D01*
G03X6218290Y3333180I8640J-5342D01*
G37*
G36*
G01X6214200Y3627820D02*
X6251170D01*
X6253400Y3659520D01*
X6223000Y3664730D01*
X6206340Y3644420D01*
G03X6214200Y3627820I7860J-6439D01*
G37*
G36*
G01X6211640Y3701480D02*
X6251170D01*
X6253430Y3733120D01*
X6223470Y3738930D01*
X6204260Y3718620D01*
G03X6211640Y3701480I7380J-6981D01*
G37*
G36*
G01X6230850Y3259520D02*
X6251170D01*
X6252970Y3291800D01*
X6220690Y3290000D01*
Y3269680D01*
G03X6230850Y3259520I10160J0D01*
G37*
G36*
G01X6213140Y3848800D02*
X6251170D01*
X6253410Y3880480D01*
X6223200Y3885950D01*
X6205480Y3865640D01*
G03X6213140Y3848800I7660J-6678D01*
G37*
G36*
G01X6202620Y3922460D02*
X6251170D01*
X6253510Y3953920D01*
X6222940Y3952940D01*
X6202620Y3932620D01*
Y3922460D01*
G37*
G36*
G01X6284050Y3836100D02*
X6251170D01*
X6249010Y3804280D01*
X6280120Y3800280D01*
X6292690Y3820600D01*
G03X6284050Y3836100I-8640J5342D01*
G37*
G36*
G01X6330320Y2470480D02*
X6310000D01*
X6308200Y2438200D01*
X6340480Y2440000D01*
Y2460320D01*
G03X6330320Y2470480I-10160J0D01*
G37*
G36*
G01X6597420Y4408860D02*
X7360530D01*
X7568860Y4200530D01*
Y3347420D01*
X7568260Y3345750D01*
G03X7563780Y3320000I71741J-25746D01*
G03X7568600Y3293330I76219J4D01*
G02X7549560Y3265900I-19036J-7110D01*
G01X6650000D01*
G03X6610470Y3249530I0J-55913D01*
G01X6590080Y3229130D01*
G02X6555390Y3243500I-14369J14369D01*
G01Y3792450D01*
X6555470Y3793080D01*
G03X6555900Y3800010I-55471J6920D01*
G01Y4383660D01*
G02X6574910Y4403940I20320J2D01*
G03X6595750Y4408260I-4899J76062D01*
G01X6597420Y4408860D01*
G37*
G36*
G01X6562820Y2855920D02*
X6548450Y2841550D01*
X6570000Y2817460D01*
X6591550Y2841550D01*
X6577180Y2855920D01*
G03X6562820I-7180J-7180D01*
G37*
G36*
G01X8750150Y5744860D02*
X8908860D01*
Y5261140D01*
X7500000D01*
G03X7449700Y5240300I6J-71137D01*
G01X7339700Y5130300D01*
G03X7318860Y5080000I50297J-50306D01*
G01Y4551140D01*
X6597420D01*
X6595750Y4551740D01*
G03X6574910Y4556060I-25739J-71742D01*
G02X6555900Y4576340I1310J20278D01*
G01Y5526850D01*
X6593150Y5564100D01*
X8487190D01*
G03X8539000Y5543780I51810J55890D01*
G03X8613090Y5602120I0J76216D01*
G02X8638560Y5616860I19756J-4762D01*
G03X8660000Y5613780I21448J73139D01*
G03X8736220Y5690000I0J76220D01*
G03X8731170Y5717270I-76218J-12D01*
G02X8750150Y5744860I18977J7269D01*
G37*
G36*
G01X7330980Y2073800D02*
X7323800D01*
X7314000Y2067920D01*
X7341540Y2048460D01*
X7348940Y2055840D01*
X7330980Y2073800D01*
G37*
G36*
G01X7759520Y3150320D02*
Y3130000D01*
X7791800Y3128200D01*
X7790000Y3160480D01*
X7769680D01*
G03X7759520Y3150320I0J-10160D01*
G37*
G36*
G01X7627180Y3094080D02*
X7641550Y3108450D01*
X7620000Y3132540D01*
X7598450Y3108450D01*
X7612820Y3094080D01*
G03X7627180I7180J7180D01*
G37*
G36*
G01X7923560Y3726600D02*
Y3765000D01*
X7891890Y3767250D01*
X7886330Y3737100D01*
X7906650Y3719010D01*
G03X7923560Y3726600I6752J7590D01*
G37*
G36*
G01X7844520Y3725640D02*
Y3765000D01*
X7812870Y3767260D01*
X7807100Y3737270D01*
X7827410Y3718230D01*
G03X7844520Y3725640I6950J7410D01*
G37*
G36*
G01X7751940Y3802080D02*
X7731620Y3794890D01*
X7733490Y3762960D01*
X7765480Y3765000D01*
Y3792500D01*
G03X7751940Y3802080I-10159J0D01*
G37*
G36*
G01X7529470Y5118860D02*
X8908860D01*
Y5030000D01*
G03X8929700Y4979700I71137J6D01*
G01X8963970Y4945420D01*
G02X8945460Y4911160I-14368J-14368D01*
G03X8910680Y4914740I-34780J-167155D01*
G03X9081420Y4744000I0J-170740D01*
G03X9077840Y4778780I-170735J0D01*
G02X9112100Y4797290I19892J4142D01*
G01X9265060Y4644330D01*
Y3687420D01*
X9264460Y3685750D01*
G03X9259980Y3660000I71741J-25746D01*
G03X9264460Y3634250I76221J-4D01*
G01X9265060Y3632580D01*
Y1455670D01*
X9240530Y1431140D01*
X9175600D01*
G03X9131140Y1475600I-115600J-71140D01*
G01Y1710000D01*
G03X9110300Y1760300I-71123J0D01*
G01X8950300Y1920300D01*
G03X8900000Y1941140I-50306J-50297D01*
G01X8514840D01*
G02X8494880Y1965260I0J20319D01*
G03X8496220Y1979500I-74881J14229D01*
G03X8477410Y2029630I-76218J-5D01*
G02Y2056370I15306J13370D01*
G03X8496220Y2106500I-57408J50135D01*
G03X8420000Y2182720I-76220J0D01*
G03X8368190Y2162400I0J-76210D01*
G01X8276650D01*
X8225900Y2213150D01*
Y3690000D01*
G03X8209530Y3729530I-55913J0D01*
G01X8059530Y3879530D01*
G03X8020000Y3895900I-39530J-39543D01*
G01X7802820D01*
G03X7763290Y3879530I0J-55913D01*
G01X7745830Y3862060D01*
G02X7711140Y3876430I-14369J14369D01*
G01Y4230000D01*
G03X7690300Y4280300I-71137J-6D01*
G01X7461140Y4509470D01*
Y5050530D01*
X7529470Y5118860D01*
G37*
G36*
G01X8234080Y1456820D02*
X8248450Y1442450D01*
X8272540Y1464000D01*
X8248450Y1485550D01*
X8234080Y1471180D01*
G03Y1456820I7180J-7180D01*
G37*
G36*
G01X8111920Y1471180D02*
X8097550Y1485550D01*
X8073460Y1464000D01*
X8097550Y1442450D01*
X8111920Y1456820D01*
G03Y1471180I-7180J7180D01*
G37*
G36*
G01X8384080Y2099320D02*
X8398450Y2084950D01*
X8422540Y2106500D01*
X8398450Y2128050D01*
X8384080Y2113680D01*
G03Y2099320I7180J-7180D01*
G37*
G36*
G01Y1972320D02*
X8398450Y1957950D01*
X8422540Y1979500D01*
X8398450Y2001050D01*
X8384080Y1986680D01*
G03Y1972320I7180J-7180D01*
G37*
G36*
G01X8000320Y2263980D02*
X7980000D01*
X7978200Y2231700D01*
X8010480Y2233500D01*
Y2253820D01*
G03X8000320Y2263980I-10160J0D01*
G37*
G36*
G01X7972820Y2396420D02*
X7958450Y2382050D01*
X7980000Y2357960D01*
X8001550Y2382050D01*
X7987180Y2396420D01*
G03X7972820I-7180J-7180D01*
G37*
G36*
G01X8002600Y3744680D02*
Y3765000D01*
X7970320Y3766800D01*
X7972120Y3734520D01*
X7992440D01*
G03X8002600Y3744680I0J10160D01*
G37*
G36*
G01X9042040Y1469320D02*
X8996370Y1423630D01*
X9060000Y1353650D01*
X9123630Y1423630D01*
X9077960Y1469320D01*
G03X9042040I-17960J-17960D01*
G37*
G36*
G01X8624080Y5682820D02*
X8638450Y5668450D01*
X8662540Y5690000D01*
X8638450Y5711550D01*
X8624080Y5697180D01*
G03Y5682820I7180J-7180D01*
G37*
G36*
G01X8503080Y5612820D02*
X8517450Y5598450D01*
X8541540Y5620000D01*
X8517450Y5641550D01*
X8503080Y5627180D01*
G03Y5612820I7180J-7180D01*
G37*
G36*
G01X9169320Y1377960D02*
X9123630Y1423630D01*
X9053650Y1360000D01*
X9123630Y1296370D01*
X9169320Y1342040D01*
G03Y1377960I-17960J17960D01*
G37*
G36*
G01X9352820Y5035920D02*
X9338450Y5021550D01*
X9360000Y4997460D01*
X9381550Y5021550D01*
X9367180Y5035920D01*
G03X9352820I-7180J-7180D01*
G37*
G36*
G01X9271820D02*
X9257450Y5021550D01*
X9279000Y4997460D01*
X9300550Y5021550D01*
X9286180Y5035920D01*
G03X9271820I-7180J-7180D01*
G37*
G36*
G01X9367180Y5574080D02*
X9381550Y5588450D01*
X9360000Y5612540D01*
X9338450Y5588450D01*
X9352820Y5574080D01*
G03X9367180I7180J7180D01*
G37*
G36*
G01X9286180D02*
X9300550Y5588450D01*
X9279000Y5612540D01*
X9257450Y5588450D01*
X9271820Y5574080D01*
G03X9286180I7180J7180D01*
G37*
G36*
G01X9728820Y5816000D02*
X9736000D01*
X9745980Y5822140D01*
X9718460Y5841540D01*
X9710860Y5833960D01*
X9728820Y5816000D01*
G37*
%LPC*%
G75*
G54D31*
X8910680Y4236000D03*
Y3094000D03*
Y2586000D03*
%LPD*%
G75*
G54D10*
X100000Y790000D03*
Y1390000D03*
Y1920000D03*
Y2470000D03*
Y3070000D03*
Y3600000D03*
X310000Y4270000D03*
X180000D03*
X310000Y4490000D03*
Y4380000D03*
X180000D03*
Y4490000D03*
X90000Y5970000D03*
X100000Y6180000D03*
X900000Y140000D03*
X870000Y750000D03*
X740000Y3760000D03*
Y3320000D03*
X860000Y3880000D03*
X410000Y4270000D03*
Y4490000D03*
Y4380000D03*
X780000Y6180000D03*
X870000Y6890000D03*
X1440000Y130000D03*
X1190000Y2590000D03*
X1030000D03*
X1200000Y2740000D03*
X1420000Y2810000D03*
X1360000Y3000000D03*
Y3110000D03*
X1340000Y3760000D03*
Y3320000D03*
X1150000D03*
X990000D03*
X1400000Y6890000D03*
X1640000Y1050000D03*
X1800000D03*
X1980000D03*
X1760000Y2220000D03*
X1920000D03*
X1890000Y3090000D03*
X1580000Y2810000D03*
X1490000Y3110000D03*
Y3000000D03*
X1620000Y3110000D03*
Y3000000D03*
X1870000Y3760000D03*
X2180000Y100000D03*
X2380000Y90000D03*
X2140000Y1050000D03*
X2080000Y720000D03*
X2170000D03*
Y650000D03*
X2530000Y910000D03*
Y840000D03*
X2160000Y1220000D03*
X2070000Y1800000D03*
X2160000D03*
Y1710000D03*
X2430000Y2220000D03*
X2270000D03*
X2110000D03*
X2490000Y3090000D03*
X2200000Y2820000D03*
X2130000Y3400000D03*
X2430000Y4000000D03*
X2370000Y4310000D03*
X2240000Y4140000D03*
X2250000Y4000000D03*
X2430000Y4580000D03*
X2207540Y5142460D03*
X2400000Y5670000D03*
X2000000Y6890000D03*
X2990000Y510000D03*
Y340000D03*
X2620000Y90000D03*
X2860000D03*
X2610000Y310000D03*
X2720000Y1060000D03*
X2850000D03*
X2600000Y680000D03*
X2900000D03*
X2600000Y910000D03*
X2810000D03*
X2880000D03*
X2600000Y840000D03*
X2880000Y836340D03*
X2810000D03*
X2600000Y1340000D03*
X3060000Y2160000D03*
X2850000Y1670000D03*
X3060000Y2400000D03*
X3070000Y3070000D03*
Y2800000D03*
X2730000Y3470000D03*
X2600000Y3600000D03*
Y3740000D03*
X2620000Y4000000D03*
X2560000Y4310000D03*
X3040000Y3890000D03*
X2970000Y4350000D03*
X3040000Y4060000D03*
X2560000Y4580000D03*
X2720000Y4820000D03*
X2980000D03*
X2970000Y4570000D03*
X2960000Y6920000D03*
X3100000Y110000D03*
X3290000Y660000D03*
X3180000Y1270000D03*
X3480000Y2070000D03*
Y3100000D03*
X3620000D03*
X3080000Y3470000D03*
Y3660000D03*
X3280000Y4310000D03*
X3090000D03*
X3450000Y4040000D03*
X3550000D03*
X3450000Y3940000D03*
Y3840000D03*
X3550000D03*
X3150000Y3890000D03*
X3100000Y4580000D03*
X3190000Y4810000D03*
X3310000Y4830000D03*
X3510000D03*
X3490000Y6920000D03*
X3630000Y110000D03*
X4020000Y660000D03*
X3980000Y1260000D03*
X3960000Y2400000D03*
X3790000Y2800000D03*
X4090000Y3386340D03*
Y3460000D03*
Y3540000D03*
X3870000Y4310000D03*
X3650000Y3840000D03*
Y4040000D03*
Y3940000D03*
X3950000Y4140000D03*
X4060000Y4210000D03*
X3640000Y4460000D03*
X4060000Y4710000D03*
X3790000Y4460000D03*
X4070000Y5200000D03*
X3920000Y5020000D03*
X4060000Y5860000D03*
X3854000Y5670000D03*
X4090000Y6920000D03*
X4230000Y110000D03*
X4340000Y2870000D03*
X4510000Y4070000D03*
X4530000Y4690000D03*
X4400000Y4460000D03*
X4630000Y5240000D03*
X4330000Y6220000D03*
X5180000Y1280000D03*
X4940000Y2560000D03*
Y2440000D03*
X4936200Y2946200D03*
X5090000Y3820000D03*
X4720000D03*
X5090000Y4260000D03*
Y4670000D03*
X5330000Y2120000D03*
Y1850000D03*
X5650000Y2500000D03*
X5540000Y2710000D03*
X5730000Y2780000D03*
X5380000Y5240000D03*
X5320000Y6200000D03*
X5890000Y1030000D03*
X6130000Y840000D03*
X6133800Y986200D03*
X6310000Y1250000D03*
X5860000Y2050000D03*
X6120000Y2060000D03*
X5860000Y1870000D03*
X5870000Y1690000D03*
X6110000D03*
X6290000Y1680000D03*
X6260000Y2340000D03*
X5980000D03*
X5870000Y2210000D03*
X6220000Y2440000D03*
X6310000D03*
X6300000Y3010000D03*
X6190000Y2810000D03*
X6251170Y3290000D03*
Y3510980D03*
Y3437320D03*
Y3584640D03*
Y3363660D03*
Y3658300D03*
Y3731960D03*
Y3805620D03*
X5860000Y4210000D03*
X6251170Y3879280D03*
Y3952940D03*
X5860000Y4640000D03*
X5870000Y5210000D03*
Y5660000D03*
X6740000Y1260000D03*
X6383660Y1250000D03*
X6457320D03*
X6540000D03*
X6690000Y1950000D03*
X6610000Y2350000D03*
X6570000Y2820000D03*
X6730000Y4050000D03*
X6570000Y4870000D03*
Y4480000D03*
X6560000Y5940000D03*
Y6220000D03*
X7190000Y830000D03*
X7340000Y1090000D03*
X7190000Y980000D03*
X6910000Y1260000D03*
X6990000Y1960000D03*
X7320000Y2070000D03*
X6890000Y2350000D03*
X7330000Y2510000D03*
X7320000Y2300000D03*
X7170000Y3830000D03*
Y4040000D03*
X7280000Y4740000D03*
X7390000Y4480000D03*
X7810000Y940000D03*
X7530000Y1370000D03*
Y1960000D03*
X7720000Y1880000D03*
X7523800Y2073800D03*
X7530000Y2290000D03*
Y2510000D03*
X7803800Y2643800D03*
X7430000Y2750000D03*
X7700000Y2970000D03*
X7790000Y3130000D03*
X7620000D03*
X7640000Y3320000D03*
X7893080Y3765000D03*
X7814040D03*
X7735000D03*
X7510000Y4170000D03*
X7530000Y4580000D03*
Y5040000D03*
Y5400000D03*
X7730000Y5940000D03*
X8060000Y890000D03*
X8200000Y1220000D03*
X8230000Y1560000D03*
X8076000Y1464000D03*
X8270000D03*
X8380000Y1700000D03*
X7980000Y2110000D03*
X8040000Y1870000D03*
X8420000Y2106500D03*
Y1979500D03*
X8340000Y2360000D03*
X7980000Y2233500D03*
Y2360500D03*
X8340000Y2890000D03*
X8370000Y3370000D03*
X7972120Y3765000D03*
X8380000Y3960000D03*
Y4590000D03*
Y5400000D03*
X8420000Y5930000D03*
X8690000Y990000D03*
X8840000Y1610000D03*
X9010000Y1960000D03*
X8980000Y5190000D03*
X8666000Y5816000D03*
X8660000Y5690000D03*
X8539000Y5620000D03*
X8950000Y6180000D03*
X9220000Y990000D03*
X9120000Y2400000D03*
Y3320000D03*
X9336200Y3660000D03*
X9190000Y5340000D03*
X9360000Y5000000D03*
X9279000D03*
X9360000Y5610000D03*
X9279000D03*
X9240000Y6140000D03*
X9230000Y6430000D03*
Y6890000D03*
X9820000Y990000D03*
X9850000Y1680000D03*
Y2280000D03*
Y2810000D03*
X9860000Y3340000D03*
Y3940000D03*
X9880000Y4860000D03*
X9860000Y4470000D03*
X9880000Y5460000D03*
Y5990000D03*
X9740000Y5820000D03*
G54D20*
G01X2920000Y4080000D02*
X2930000D01*
G01X3040480Y4280480D02*
X3040000Y4280000D01*
X2860000D01*
G01X2930000Y4080000D02*
X2973500Y4123500D01*
X3116500D01*
X3150000Y4090000D01*
G54D11*
X798680Y1489680D03*
X1398680D03*
G54D21*
G01X862780Y1009680D02*
X1118680D01*
G01X798680Y1233780D02*
Y1489680D01*
G01D02*
Y1745580D01*
G01X642780Y1489680D02*
X798680D01*
G01D02*
X954580D01*
G01X1118680Y853780D02*
Y1009680D01*
G01D02*
Y1165580D01*
G01Y1009680D02*
X1374580D01*
G01X4862000Y5339100D02*
Y5490000D01*
G01X4711100D02*
X4862000D01*
G01Y6384100D02*
Y6530000D01*
G01X4716100D02*
X4862000D01*
G01X8926000Y464000D02*
Y609900D01*
G01Y464000D02*
X9071900D01*
G54D12*
X600200Y4415960D03*
Y4669960D03*
Y5486960D03*
Y5740960D03*
X1979200Y4634460D03*
Y4888460D03*
X1725200Y4761460D03*
X1979200Y5142460D03*
Y5396460D03*
X1725200Y5015460D03*
Y5269460D03*
Y5523460D03*
G54D22*
G01X2520000Y920000D02*
Y2349200D01*
X2469200Y2400000D01*
X1040000D01*
X860000Y2580000D01*
Y3880000D01*
G01X760000Y5010000D02*
Y4570000D01*
X605960Y4415960D01*
X600200D01*
G01Y5740960D02*
X760000Y5581160D01*
Y5010000D01*
G01X1725200Y5015460D02*
X765460D01*
X760000Y5010000D01*
G01X1174000Y6444000D02*
X960000Y6230000D01*
Y6100760D01*
X600200Y5740960D01*
G01X1160000Y6030000D02*
X1174000Y6044000D01*
G01D02*
Y6190000D01*
G01X1725200Y5015460D02*
X1852200D01*
X1979200Y5142460D01*
G01X2530000Y910000D02*
X2520000Y920000D01*
G01X1979200Y5142460D02*
X2207540D01*
G01X2600000Y840000D02*
Y910000D01*
G01X4940000Y1280000D02*
X4630000Y970000D01*
X2940000D01*
X2880000Y910000D01*
G01X2598580Y938410D02*
Y911420D01*
X2600000Y910000D01*
G01X2970000Y4350000D02*
Y4570000D01*
G01X3310000Y4830000D02*
X3510000D01*
G01X3790000Y4460000D02*
Y5606000D01*
X3854000Y5670000D01*
G01X4400000Y4460000D02*
X3790000D01*
G01X3854000Y5670000D02*
X4960000D01*
X5116000Y5514000D01*
Y5490000D01*
G01X5180000Y1280000D02*
X4940000D01*
G01D02*
Y2440000D01*
G01D02*
X5079200Y2579200D01*
X5729200D01*
X5840000Y2690000D01*
Y2870000D01*
X5763800Y2946200D01*
X4936200D01*
G01X8666000Y5816000D02*
X5442000D01*
X5116000Y5490000D01*
G01X5120000Y6370000D02*
X5116000Y6374000D01*
G01D02*
Y6530000D01*
G01X5370000D02*
Y6374000D01*
G01X5870000Y60000D02*
X5878000Y68000D01*
G01Y464000D02*
Y210000D01*
G01Y68000D02*
Y210000D01*
G01Y632000D02*
Y464000D01*
G01X5870000Y640000D02*
X5878000Y632000D01*
G01X7190000Y980000D02*
Y1320000D01*
X7130000Y1380000D01*
X6220000D01*
X6133800Y1293800D01*
Y986200D01*
G01X7390000Y4480000D02*
X6570000D01*
G01X7523800Y2073800D02*
X7323800D01*
X7320000Y2070000D01*
G01X7640000Y3320000D02*
Y4230000D01*
X7390000Y4480000D01*
G01X8980000Y5190000D02*
X7500000D01*
X7390000Y5080000D01*
Y4480000D01*
G01X8418000Y628000D02*
Y464000D01*
G01X8164000Y634000D02*
Y464000D01*
G01X8180000Y650000D02*
X8164000Y634000D01*
G01X8430000Y640000D02*
X8418000Y628000D01*
G01X7980000Y2110000D02*
Y1930000D01*
X8040000Y1870000D01*
G01X9060000Y1360000D02*
Y1710000D01*
X8900000Y1870000D01*
X8040000D01*
G01X8672000Y464000D02*
Y628000D01*
G01X8980000Y5190000D02*
Y5806000D01*
X8970000Y5816000D01*
G01X9336200Y3660000D02*
Y4673800D01*
X8980000Y5030000D01*
Y5190000D01*
G01X9740000Y5820000D02*
X9736000Y5816000D01*
X8970000D01*
G01D02*
X8666000D01*
G01X9336200Y3660000D02*
Y1426200D01*
X9270000Y1360000D01*
X9060000D01*
G54D13*
X1118680Y1009680D03*
G54D23*
G01X1740000Y3150000D02*
Y4080000D01*
X2620000Y4960000D01*
Y6630000D01*
X2774000Y6784000D01*
X4862000D01*
G54D14*
X1395200Y4303960D03*
Y5852960D03*
X8910680Y2586000D03*
Y3094000D03*
Y4236000D03*
Y4744000D03*
G54D24*
G01X200000Y4090000D02*
X1180000D01*
X1393960Y4303960D01*
X1395200D01*
G01X1979200Y4634460D02*
X1648700Y4303960D01*
X1395200D01*
G54D15*
X1428000Y6444000D03*
Y6190000D03*
X1174000Y6444000D03*
Y6190000D03*
X1936000Y6444000D03*
Y6190000D03*
X1682000Y6444000D03*
Y6190000D03*
X5116000Y464000D03*
Y210000D03*
X4862000Y464000D03*
X5116000Y6530000D03*
Y6784000D03*
X4862000D03*
X5624000Y464000D03*
Y210000D03*
X5370000Y464000D03*
Y210000D03*
X5624000Y6530000D03*
X5370000D03*
X5624000Y6784000D03*
X5370000D03*
X6132000Y464000D03*
X5878000D03*
X6132000Y210000D03*
X5878000D03*
X6386000Y6530000D03*
X6132000D03*
X5878000D03*
X6386000Y6784000D03*
X6132000D03*
X5878000D03*
X6894000Y6530000D03*
X6640000D03*
X6894000Y6784000D03*
X6640000D03*
X7402000Y6530000D03*
X7148000D03*
X7402000Y6784000D03*
X7148000D03*
X7910000Y6530000D03*
X7656000D03*
X7910000Y6784000D03*
X7656000D03*
X8418000Y6530000D03*
X8164000D03*
X8418000Y6784000D03*
X8164000D03*
X8926000Y6530000D03*
X8672000D03*
X8926000Y6784000D03*
X8672000D03*
G54D16*
X4862000Y210000D03*
Y6530000D03*
X6640000Y210000D03*
G54D17*
X4862000Y5490000D03*
G54D18*
X5116000D03*
X5624000D03*
X5370000D03*
X6894000Y464000D03*
Y210000D03*
X6640000Y464000D03*
X7402000D03*
Y210000D03*
X7148000Y464000D03*
Y210000D03*
X7910000Y464000D03*
X7656000D03*
X7910000Y210000D03*
X7656000D03*
X8418000Y464000D03*
X8164000D03*
X8418000Y210000D03*
X8164000D03*
X8926000Y464000D03*
X8672000D03*
X8926000Y210000D03*
X8672000D03*
X9060000Y1360000D03*
X9560000D03*
G54D19*
G01X5540000Y2710000D02*
X1230000D01*
X1200000Y2740000D01*
G01X1936000Y6444000D02*
X2286000D01*
X2400000Y6330000D01*
Y5670000D01*
G01X2240000Y4140000D02*
X2270000Y4170000D01*
X3920000D01*
X3950000Y4140000D01*
G01X4060000Y4210000D02*
X2220000D01*
X2179040Y4169040D01*
Y4070960D01*
X2250000Y4000000D01*
G01X6251170Y3363660D02*
X6238610D01*
X6110000Y3235050D01*
X2654950D01*
X2539040Y3350960D01*
Y3679040D01*
X2600000Y3740000D01*
G01X6251170Y3437320D02*
X6238610D01*
X6090000Y3288710D01*
X2701290D01*
X2600000Y3390000D01*
Y3600000D01*
G01X3040000Y3890000D02*
X3319520Y3610480D01*
X5964660D01*
X6233460Y3879280D01*
X6251170D01*
G01X3040000Y4060000D02*
X3080000D01*
X3413780Y3726220D01*
X5906220D01*
X6210000Y4030000D01*
X6280000D01*
X6320000Y3990000D01*
Y3861890D01*
X6263730Y3805620D01*
X6251170D01*
G01X7620000Y3130000D02*
Y1680000D01*
X7530000Y1590000D01*
X6030000D01*
X5260000Y820000D01*
X3450000D01*
X3290000Y660000D01*
G01X5730000Y2780000D02*
X5590000Y2640000D01*
X3610000D01*
X3480000Y2510000D01*
Y2070000D01*
G01Y3100000D02*
X3540960Y3039040D01*
X6159040D01*
X6330000Y3210000D01*
Y3444710D01*
X6263730Y3510980D01*
X6251170D01*
G01X3150000Y3890000D02*
X3370000Y3670000D01*
X5940000D01*
X6222940Y3952940D01*
X6251170D01*
G01X4020000Y660000D02*
X5340000D01*
X6130000Y1450000D01*
X7810000D01*
G01X3620000Y3100000D02*
X6061170D01*
X6251170Y3290000D01*
G01Y3584640D02*
X6238610D01*
X6040310Y3386340D01*
X4090000D01*
G01Y3460000D02*
X6036220D01*
X6234520Y3658300D01*
X6251170D01*
G01X4090000Y3540000D02*
X6040000D01*
X6231960Y3731960D01*
X6251170D01*
G01X6190000Y2810000D02*
Y2550000D01*
X6140000Y2500000D01*
X5650000D01*
G01X6310000Y1250000D02*
Y210000D01*
X6440000Y80000D01*
X7530000D01*
X7656000Y206000D01*
Y210000D01*
G01X8660000Y5690000D02*
X6560000D01*
X6450000Y5580000D01*
Y2670000D01*
X6220000Y2440000D01*
G01X8539000Y5620000D02*
X6570000D01*
X6500000Y5550000D01*
Y3800010D01*
X6499490Y3799500D01*
Y2629490D01*
X6310000Y2440000D01*
G01X7148000Y210000D02*
X7027520Y330480D01*
Y562480D01*
X6970000Y620000D01*
X6520000D01*
X6383660Y756340D01*
Y1250000D01*
G01X6457320D02*
Y1253540D01*
X6523780Y1320000D01*
X6580000D01*
X6620000Y1280000D01*
Y820000D01*
X6730000Y710000D01*
X7920000D01*
X8040000Y590000D01*
Y340000D01*
X8164000Y216000D01*
Y210000D01*
G01X7402000D02*
X7270000Y342000D01*
Y580000D01*
X7190000Y660000D01*
X6650000D01*
X6540000Y770000D01*
Y1250000D01*
G01X6570000Y2820000D02*
Y3130000D01*
X6650000Y3210000D01*
X7710000D01*
X7790000Y3130000D01*
G01X7810000Y1450000D02*
Y2637600D01*
X7803800Y2643800D01*
G01X7810000Y1450000D02*
X8290000Y970000D01*
Y338000D01*
X8418000Y210000D01*
G01X7980000Y2233500D02*
X8050000Y2303500D01*
Y3590000D01*
X7893080Y3746920D01*
Y3765000D01*
G01X7980000Y2360500D02*
Y3580000D01*
X7814040Y3745960D01*
Y3765000D01*
G01X7735000D02*
Y3772180D01*
X7802820Y3840000D01*
X8020000D01*
X8170000Y3690000D01*
Y2190000D01*
X8253500Y2106500D01*
X8420000D01*
G01X8076000Y1464000D02*
X8270000D01*
G01X7972120Y3765000D02*
X8110000Y3627120D01*
Y2090000D01*
X8220500Y1979500D01*
X8420000D01*
G01X9360000Y5610000D02*
Y5000000D01*
G01X9279000Y5610000D02*
Y5000000D01*
M02*
