G04 ================== begin FILE IDENTIFICATION RECORD ==================*
G04 Layout Name:  H:/MBEDBoard/MK60_PACK_V30A/PCB/MK60_PACK_V30A.brd*
G04 Film Name:    Drill_Legend*
G04 File Format:  Gerber RS274X*
G04 File Origin:  Cadence Allegro 17.2-S058*
G04 Origin Date:  Mon Sep 23 19:27:07 2019*
G04 *
G04 Layer:  MANUFACTURING/NCLEGEND-1-2*
G04 Layer:  MANUFACTURING/NCDRILL_LEGEND*
G04 Layer:  MANUFACTURING/NCDRILL_FIGURE*
G04 Layer:  BOARD GEOMETRY/DIMENSION*
G04 *
G04 Offset:    (0.0000 0.0000)*
G04 Mirror:    No*
G04 Mode:      Positive*
G04 Rotation:  0*
G04 FullContactRelief:  No*
G04 UndefLineWidth:     0.1524*
G04 ================== end FILE IDENTIFICATION RECORD ====================*
%FSLAX55Y55*MOMM*%
%IR0*IPPOS*OFA0.00000B0.00000*MIA0B0*SFA1.00000B1.00000*%
%AMMACRO12*
1,1,.1524,.45,.45*
20,1,.1524,.45,.45,.45,-.45,0.0*
1,1,.1524,.45,-.45*
20,1,.1524,.45,-.45,-.45,-.45,0.0*
1,1,.1524,-.45,-.45*
20,1,.1524,-.45,-.45,-.45,.45,0.0*
1,1,.1524,-.45,.45*
20,1,.1524,-.45,.45,.45,.45,0.0*
1,1,.1524,.45,.45*
%
%ADD12MACRO12*%
%AMMACRO10*
1,1,.1524,.1524,0.0*
20,1,.1524,.1524,0.0,-.1524,0.0,0.0*
1,1,.1524,-.1524,0.0*
1,1,.1524,0.0,.1524*
20,1,.1524,0.0,.1524,0.0,-.1524,0.0*
1,1,.1524,0.0,-.1524*
%
%ADD10MACRO10*%
%AMMACRO15*
1,1,.1524,.55,0.0*
20,1,.1524,.55,0.0,.275,.476314,0.0*
1,1,.1524,.275,.476314*
20,1,.1524,.275,.476314,-.275,.476314,0.0*
1,1,.1524,-.275,.476314*
20,1,.1524,-.275,.476314,-.55,0.0,0.0*
1,1,.1524,-.55,0.0*
20,1,.1524,-.55,0.0,-.275,-.476314,0.0*
1,1,.1524,-.275,-.476314*
20,1,.1524,-.275,-.476314,.275,-.476314,0.0*
1,1,.1524,.275,-.476314*
20,1,.1524,.275,-.476314,.55,0.0,0.0*
1,1,.1524,.55,0.0*
%
%ADD15MACRO15*%
%AMMACRO11*
1,1,.1524,-.5,-1.*
20,1,.1524,-.5,-1.,-.5,1.,0.0*
1,1,.1524,-.5,1.*
20,1,.1524,-.5,1.,-.492404,1.086824,0.0*
1,1,.1524,-.492404,1.086824*
20,1,.1524,-.492404,1.086824,-.469846,1.17101,0.0*
1,1,.1524,-.469846,1.17101*
20,1,.1524,-.469846,1.17101,-.433013,1.25,0.0*
1,1,.1524,-.433013,1.25*
20,1,.1524,-.433013,1.25,-.383022,1.321394,0.0*
1,1,.1524,-.383022,1.321394*
20,1,.1524,-.383022,1.321394,-.321394,1.383022,0.0*
1,1,.1524,-.321394,1.383022*
20,1,.1524,-.321394,1.383022,-.25,1.433013,0.0*
1,1,.1524,-.25,1.433013*
20,1,.1524,-.25,1.433013,-.17101,1.469846,0.0*
1,1,.1524,-.17101,1.469846*
20,1,.1524,-.17101,1.469846,-.086824,1.492404,0.0*
1,1,.1524,-.086824,1.492404*
20,1,.1524,-.086824,1.492404,0.0,1.5,0.0*
1,1,.1524,0.0,1.5*
20,1,.1524,0.0,1.5,.086824,1.492404,0.0*
1,1,.1524,.086824,1.492404*
20,1,.1524,.086824,1.492404,.17101,1.469846,0.0*
1,1,.1524,.17101,1.469846*
20,1,.1524,.17101,1.469846,.25,1.433013,0.0*
1,1,.1524,.25,1.433013*
20,1,.1524,.25,1.433013,.321394,1.383022,0.0*
1,1,.1524,.321394,1.383022*
20,1,.1524,.321394,1.383022,.383022,1.321394,0.0*
1,1,.1524,.383022,1.321394*
20,1,.1524,.383022,1.321394,.433013,1.25,0.0*
1,1,.1524,.433013,1.25*
20,1,.1524,.433013,1.25,.469846,1.17101,0.0*
1,1,.1524,.469846,1.17101*
20,1,.1524,.469846,1.17101,.492404,1.086824,0.0*
1,1,.1524,.492404,1.086824*
20,1,.1524,.492404,1.086824,.5,1.,0.0*
1,1,.1524,.5,1.*
20,1,.1524,.5,1.,.5,-1.,0.0*
1,1,.1524,.5,-1.*
20,1,.1524,.5,-1.,.492404,-1.086824,0.0*
1,1,.1524,.492404,-1.086824*
20,1,.1524,.492404,-1.086824,.469846,-1.17101,0.0*
1,1,.1524,.469846,-1.17101*
20,1,.1524,.469846,-1.17101,.433013,-1.25,0.0*
1,1,.1524,.433013,-1.25*
20,1,.1524,.433013,-1.25,.383022,-1.321394,0.0*
1,1,.1524,.383022,-1.321394*
20,1,.1524,.383022,-1.321394,.321394,-1.383022,0.0*
1,1,.1524,.321394,-1.383022*
20,1,.1524,.321394,-1.383022,.25,-1.433013,0.0*
1,1,.1524,.25,-1.433013*
20,1,.1524,.25,-1.433013,.17101,-1.469846,0.0*
1,1,.1524,.17101,-1.469846*
20,1,.1524,.17101,-1.469846,.086824,-1.492404,0.0*
1,1,.1524,.086824,-1.492404*
20,1,.1524,.086824,-1.492404,0.0,-1.5,0.0*
1,1,.1524,0.0,-1.5*
20,1,.1524,0.0,-1.5,-.086824,-1.492404,0.0*
1,1,.1524,-.086824,-1.492404*
20,1,.1524,-.086824,-1.492404,-.17101,-1.469846,0.0*
1,1,.1524,-.17101,-1.469846*
20,1,.1524,-.17101,-1.469846,-.25,-1.433013,0.0*
1,1,.1524,-.25,-1.433013*
20,1,.1524,-.25,-1.433013,-.321394,-1.383022,0.0*
1,1,.1524,-.321394,-1.383022*
20,1,.1524,-.321394,-1.383022,-.383022,-1.321394,0.0*
1,1,.1524,-.383022,-1.321394*
20,1,.1524,-.383022,-1.321394,-.433013,-1.25,0.0*
1,1,.1524,-.433013,-1.25*
20,1,.1524,-.433013,-1.25,-.469846,-1.17101,0.0*
1,1,.1524,-.469846,-1.17101*
20,1,.1524,-.469846,-1.17101,-.492404,-1.086824,0.0*
1,1,.1524,-.492404,-1.086824*
20,1,.1524,-.492404,-1.086824,-.5,-1.,0.0*
1,1,.1524,-.5,-1.*
1,1,.1524,-.25,-.25*
20,1,.1524,-.25,-.25,-.3167,-.2417,0.0*
1,1,.1524,-.3167,-.2417*
20,1,.1524,-.3167,-.2417,-.375,-.2083,0.0*
1,1,.1524,-.375,-.2083*
20,1,.1524,-.375,-.2083,-.425,-.1583,0.0*
1,1,.1524,-.425,-.1583*
20,1,.1524,-.425,-.1583,-.4583,-.1,0.0*
1,1,.1524,-.4583,-.1*
20,1,.1524,-.4583,-.1,-.475,-.0333,0.0*
1,1,.1524,-.475,-.0333*
20,1,.1524,-.475,-.0333,-.475,.0333,0.0*
1,1,.1524,-.475,.0333*
20,1,.1524,-.475,.0333,-.4583,.1,0.0*
1,1,.1524,-.4583,.1*
20,1,.1524,-.4583,.1,-.425,.1583,0.0*
1,1,.1524,-.425,.1583*
20,1,.1524,-.425,.1583,-.375,.2083,0.0*
1,1,.1524,-.375,.2083*
20,1,.1524,-.375,.2083,-.3167,.2417,0.0*
1,1,.1524,-.3167,.2417*
20,1,.1524,-.3167,.2417,-.25,.25,0.0*
1,1,.1524,-.25,.25*
20,1,.1524,-.25,.25,-.1833,.2417,0.0*
1,1,.1524,-.1833,.2417*
20,1,.1524,-.1833,.2417,-.125,.2083,0.0*
1,1,.1524,-.125,.2083*
20,1,.1524,-.125,.2083,-.075,.1583,0.0*
1,1,.1524,-.075,.1583*
20,1,.1524,-.075,.1583,-.0417,.1,0.0*
1,1,.1524,-.0417,.1*
20,1,.1524,-.0417,.1,-.025,.0333,0.0*
1,1,.1524,-.025,.0333*
20,1,.1524,-.025,.0333,-.025,-.0333,0.0*
1,1,.1524,-.025,-.0333*
20,1,.1524,-.025,-.0333,-.0417,-.1,0.0*
1,1,.1524,-.0417,-.1*
20,1,.1524,-.0417,-.1,-.075,-.1583,0.0*
1,1,.1524,-.075,-.1583*
20,1,.1524,-.075,-.1583,-.125,-.2083,0.0*
1,1,.1524,-.125,-.2083*
20,1,.1524,-.125,-.2083,-.1833,-.2417,0.0*
1,1,.1524,-.1833,-.2417*
20,1,.1524,-.1833,-.2417,-.25,-.25,0.0*
1,1,.1524,-.25,-.25*
1,1,.1524,.0418,-.25*
20,1,.1524,.0418,-.25,.2501,.25,0.0*
1,1,.1524,.2501,.25*
20,1,.1524,.2501,.25,.4584,-.25,0.0*
1,1,.1524,.4584,-.25*
1,1,.1524,.3834,-.075*
20,1,.1524,.3834,-.075,.1168,-.075,0.0*
1,1,.1524,.1168,-.075*
%
%ADD11MACRO11*%
%AMMACRO13*
1,1,.1524,-1.,.5*
20,1,.1524,-1.,.5,1.,.5,0.0*
1,1,.1524,1.,.5*
20,1,.1524,1.,.5,1.086824,.492404,0.0*
1,1,.1524,1.086824,.492404*
20,1,.1524,1.086824,.492404,1.17101,.469846,0.0*
1,1,.1524,1.17101,.469846*
20,1,.1524,1.17101,.469846,1.25,.433013,0.0*
1,1,.1524,1.25,.433013*
20,1,.1524,1.25,.433013,1.321394,.383022,0.0*
1,1,.1524,1.321394,.383022*
20,1,.1524,1.321394,.383022,1.383022,.321394,0.0*
1,1,.1524,1.383022,.321394*
20,1,.1524,1.383022,.321394,1.433013,.25,0.0*
1,1,.1524,1.433013,.25*
20,1,.1524,1.433013,.25,1.469846,.17101,0.0*
1,1,.1524,1.469846,.17101*
20,1,.1524,1.469846,.17101,1.492404,.086824,0.0*
1,1,.1524,1.492404,.086824*
20,1,.1524,1.492404,.086824,1.5,0.0,0.0*
1,1,.1524,1.5,0.0*
20,1,.1524,1.5,0.0,1.492404,-.086824,0.0*
1,1,.1524,1.492404,-.086824*
20,1,.1524,1.492404,-.086824,1.469846,-.17101,0.0*
1,1,.1524,1.469846,-.17101*
20,1,.1524,1.469846,-.17101,1.433013,-.25,0.0*
1,1,.1524,1.433013,-.25*
20,1,.1524,1.433013,-.25,1.383022,-.321394,0.0*
1,1,.1524,1.383022,-.321394*
20,1,.1524,1.383022,-.321394,1.321394,-.383022,0.0*
1,1,.1524,1.321394,-.383022*
20,1,.1524,1.321394,-.383022,1.25,-.433013,0.0*
1,1,.1524,1.25,-.433013*
20,1,.1524,1.25,-.433013,1.17101,-.469846,0.0*
1,1,.1524,1.17101,-.469846*
20,1,.1524,1.17101,-.469846,1.086824,-.492404,0.0*
1,1,.1524,1.086824,-.492404*
20,1,.1524,1.086824,-.492404,1.,-.5,0.0*
1,1,.1524,1.,-.5*
20,1,.1524,1.,-.5,-1.,-.5,0.0*
1,1,.1524,-1.,-.5*
20,1,.1524,-1.,-.5,-1.086824,-.492404,0.0*
1,1,.1524,-1.086824,-.492404*
20,1,.1524,-1.086824,-.492404,-1.17101,-.469846,0.0*
1,1,.1524,-1.17101,-.469846*
20,1,.1524,-1.17101,-.469846,-1.25,-.433013,0.0*
1,1,.1524,-1.25,-.433013*
20,1,.1524,-1.25,-.433013,-1.321394,-.383022,0.0*
1,1,.1524,-1.321394,-.383022*
20,1,.1524,-1.321394,-.383022,-1.383022,-.321394,0.0*
1,1,.1524,-1.383022,-.321394*
20,1,.1524,-1.383022,-.321394,-1.433013,-.25,0.0*
1,1,.1524,-1.433013,-.25*
20,1,.1524,-1.433013,-.25,-1.469846,-.17101,0.0*
1,1,.1524,-1.469846,-.17101*
20,1,.1524,-1.469846,-.17101,-1.492404,-.086824,0.0*
1,1,.1524,-1.492404,-.086824*
20,1,.1524,-1.492404,-.086824,-1.5,0.0,0.0*
1,1,.1524,-1.5,0.0*
20,1,.1524,-1.5,0.0,-1.492404,.086824,0.0*
1,1,.1524,-1.492404,.086824*
20,1,.1524,-1.492404,.086824,-1.469846,.17101,0.0*
1,1,.1524,-1.469846,.17101*
20,1,.1524,-1.469846,.17101,-1.433013,.25,0.0*
1,1,.1524,-1.433013,.25*
20,1,.1524,-1.433013,.25,-1.383022,.321394,0.0*
1,1,.1524,-1.383022,.321394*
20,1,.1524,-1.383022,.321394,-1.321394,.383022,0.0*
1,1,.1524,-1.321394,.383022*
20,1,.1524,-1.321394,.383022,-1.25,.433013,0.0*
1,1,.1524,-1.25,.433013*
20,1,.1524,-1.25,.433013,-1.17101,.469846,0.0*
1,1,.1524,-1.17101,.469846*
20,1,.1524,-1.17101,.469846,-1.086824,.492404,0.0*
1,1,.1524,-1.086824,.492404*
20,1,.1524,-1.086824,.492404,-1.,.5,0.0*
1,1,.1524,-1.,.5*
1,1,.1524,-.25,-.25*
20,1,.1524,-.25,-.25,-.3167,-.2417,0.0*
1,1,.1524,-.3167,-.2417*
20,1,.1524,-.3167,-.2417,-.375,-.2083,0.0*
1,1,.1524,-.375,-.2083*
20,1,.1524,-.375,-.2083,-.425,-.1583,0.0*
1,1,.1524,-.425,-.1583*
20,1,.1524,-.425,-.1583,-.4583,-.1,0.0*
1,1,.1524,-.4583,-.1*
20,1,.1524,-.4583,-.1,-.475,-.0333,0.0*
1,1,.1524,-.475,-.0333*
20,1,.1524,-.475,-.0333,-.475,.0333,0.0*
1,1,.1524,-.475,.0333*
20,1,.1524,-.475,.0333,-.4583,.1,0.0*
1,1,.1524,-.4583,.1*
20,1,.1524,-.4583,.1,-.425,.1583,0.0*
1,1,.1524,-.425,.1583*
20,1,.1524,-.425,.1583,-.375,.2083,0.0*
1,1,.1524,-.375,.2083*
20,1,.1524,-.375,.2083,-.3167,.2417,0.0*
1,1,.1524,-.3167,.2417*
20,1,.1524,-.3167,.2417,-.25,.25,0.0*
1,1,.1524,-.25,.25*
20,1,.1524,-.25,.25,-.1833,.2417,0.0*
1,1,.1524,-.1833,.2417*
20,1,.1524,-.1833,.2417,-.125,.2083,0.0*
1,1,.1524,-.125,.2083*
20,1,.1524,-.125,.2083,-.075,.1583,0.0*
1,1,.1524,-.075,.1583*
20,1,.1524,-.075,.1583,-.0417,.1,0.0*
1,1,.1524,-.0417,.1*
20,1,.1524,-.0417,.1,-.025,.0333,0.0*
1,1,.1524,-.025,.0333*
20,1,.1524,-.025,.0333,-.025,-.0333,0.0*
1,1,.1524,-.025,-.0333*
20,1,.1524,-.025,-.0333,-.0417,-.1,0.0*
1,1,.1524,-.0417,-.1*
20,1,.1524,-.0417,-.1,-.075,-.1583,0.0*
1,1,.1524,-.075,-.1583*
20,1,.1524,-.075,-.1583,-.125,-.2083,0.0*
1,1,.1524,-.125,-.2083*
20,1,.1524,-.125,-.2083,-.1833,-.2417,0.0*
1,1,.1524,-.1833,-.2417*
20,1,.1524,-.1833,-.2417,-.25,-.25,0.0*
1,1,.1524,-.25,-.25*
1,1,.1524,.0418,-.25*
20,1,.1524,.0418,-.25,.2501,.25,0.0*
1,1,.1524,.2501,.25*
20,1,.1524,.2501,.25,.4584,-.25,0.0*
1,1,.1524,.4584,-.25*
1,1,.1524,.3834,-.075*
20,1,.1524,.3834,-.075,.1168,-.075,0.0*
1,1,.1524,.1168,-.075*
%
%ADD13MACRO13*%
%AMMACRO14*
1,1,.1524,0.0,.9*
20,1,.1524,0.0,.9,-.779423,.45,0.0*
1,1,.1524,-.779423,.45*
20,1,.1524,-.779423,.45,-.779423,-.45,0.0*
1,1,.1524,-.779423,-.45*
20,1,.1524,-.779423,-.45,0.0,-.9,0.0*
1,1,.1524,0.0,-.9*
20,1,.1524,0.0,-.9,.779423,-.45,0.0*
1,1,.1524,.779423,-.45*
20,1,.1524,.779423,-.45,.779423,.45,0.0*
1,1,.1524,.779423,.45*
20,1,.1524,.779423,.45,0.0,.9,0.0*
1,1,.1524,0.0,.9*
%
%ADD14MACRO14*%
%ADD16C,.1524*%
G75*
%LPD*%
G75*
G54D10*
X100000Y790000D03*
Y1390000D03*
Y1920000D03*
Y2470000D03*
Y3070000D03*
Y3600000D03*
X310000Y4270000D03*
X180000D03*
X310000Y4490000D03*
Y4380000D03*
X180000D03*
Y4490000D03*
X90000Y5970000D03*
X100000Y6180000D03*
X900000Y140000D03*
X870000Y750000D03*
X740000Y3760000D03*
Y3320000D03*
X860000Y3880000D03*
X410000Y4270000D03*
Y4490000D03*
Y4380000D03*
X780000Y6180000D03*
X870000Y6890000D03*
X1440000Y130000D03*
X1190000Y2590000D03*
X1030000D03*
X1200000Y2740000D03*
X1420000Y2810000D03*
X1360000Y3000000D03*
Y3110000D03*
X1340000Y3760000D03*
Y3320000D03*
X1150000D03*
X990000D03*
X1400000Y6890000D03*
X1640000Y1050000D03*
X1800000D03*
X1980000D03*
X1760000Y2220000D03*
X1920000D03*
X1890000Y3090000D03*
X1580000Y2810000D03*
X1490000Y3110000D03*
Y3000000D03*
X1620000Y3110000D03*
Y3000000D03*
X1870000Y3760000D03*
X2180000Y100000D03*
X2380000Y90000D03*
X2140000Y1050000D03*
X2080000Y720000D03*
X2170000D03*
Y650000D03*
X2530000Y910000D03*
Y840000D03*
X2160000Y1220000D03*
X2070000Y1800000D03*
X2160000D03*
Y1710000D03*
X2430000Y2220000D03*
X2270000D03*
X2110000D03*
X2490000Y3090000D03*
X2200000Y2820000D03*
X2130000Y3400000D03*
X2430000Y4000000D03*
X2370000Y4310000D03*
X2240000Y4140000D03*
X2250000Y4000000D03*
X2430000Y4580000D03*
X2207540Y5142460D03*
X2400000Y5670000D03*
X2000000Y6890000D03*
X2990000Y510000D03*
Y340000D03*
X2620000Y90000D03*
X2860000D03*
X2610000Y310000D03*
X2720000Y1060000D03*
X2850000D03*
X2600000Y680000D03*
X2900000D03*
X2600000Y910000D03*
X2810000D03*
X2880000D03*
X2600000Y840000D03*
X2880000Y836340D03*
X2810000D03*
X2600000Y1340000D03*
X3060000Y2160000D03*
X2850000Y1670000D03*
X3060000Y2400000D03*
X3070000Y3070000D03*
Y2800000D03*
X2730000Y3470000D03*
X2600000Y3600000D03*
Y3740000D03*
X2620000Y4000000D03*
X2560000Y4310000D03*
X3040000Y3890000D03*
X2970000Y4350000D03*
X3040000Y4060000D03*
X2560000Y4580000D03*
X2720000Y4820000D03*
X2980000D03*
X2970000Y4570000D03*
X2960000Y6920000D03*
X3100000Y110000D03*
X3290000Y660000D03*
X3180000Y1270000D03*
X3480000Y2070000D03*
Y3100000D03*
X3620000D03*
X3080000Y3470000D03*
Y3660000D03*
X3280000Y4310000D03*
X3090000D03*
X3450000Y4040000D03*
X3550000D03*
X3450000Y3940000D03*
Y3840000D03*
X3550000D03*
X3150000Y3890000D03*
X3100000Y4580000D03*
X3190000Y4810000D03*
X3310000Y4830000D03*
X3510000D03*
X3490000Y6920000D03*
X3630000Y110000D03*
X4020000Y660000D03*
X3980000Y1260000D03*
X3960000Y2400000D03*
X3790000Y2800000D03*
X4090000Y3386340D03*
Y3460000D03*
Y3540000D03*
X3870000Y4310000D03*
X3650000Y3840000D03*
Y4040000D03*
Y3940000D03*
X3950000Y4140000D03*
X4060000Y4210000D03*
X3640000Y4460000D03*
X4060000Y4710000D03*
X3790000Y4460000D03*
X4070000Y5200000D03*
X3920000Y5020000D03*
X4060000Y5860000D03*
X3854000Y5670000D03*
X4090000Y6920000D03*
X4230000Y110000D03*
X4340000Y2870000D03*
X4510000Y4070000D03*
X4530000Y4690000D03*
X4400000Y4460000D03*
X4630000Y5240000D03*
X4330000Y6220000D03*
X5180000Y1280000D03*
X4940000Y2560000D03*
Y2440000D03*
X4936200Y2946200D03*
X5090000Y3820000D03*
X4720000D03*
X5090000Y4260000D03*
Y4670000D03*
X5330000Y2120000D03*
Y1850000D03*
X5650000Y2500000D03*
X5540000Y2710000D03*
X5730000Y2780000D03*
X5380000Y5240000D03*
X5320000Y6200000D03*
X5890000Y1030000D03*
X6130000Y840000D03*
X6133800Y986200D03*
X6310000Y1250000D03*
X5860000Y2050000D03*
X6120000Y2060000D03*
X5860000Y1870000D03*
X5870000Y1690000D03*
X6110000D03*
X6290000Y1680000D03*
X6260000Y2340000D03*
X5980000D03*
X5870000Y2210000D03*
X6220000Y2440000D03*
X6310000D03*
X6300000Y3010000D03*
X6190000Y2810000D03*
X6251170Y3290000D03*
Y3510980D03*
Y3437320D03*
Y3584640D03*
Y3363660D03*
Y3658300D03*
Y3731960D03*
Y3805620D03*
X5860000Y4210000D03*
X6251170Y3879280D03*
Y3952940D03*
X5860000Y4640000D03*
X5870000Y5210000D03*
Y5660000D03*
X6740000Y1260000D03*
X6383660Y1250000D03*
X6457320D03*
X6540000D03*
X6690000Y1950000D03*
X6610000Y2350000D03*
X6570000Y2820000D03*
X6730000Y4050000D03*
X6570000Y4870000D03*
Y4480000D03*
X6560000Y5940000D03*
Y6220000D03*
X7190000Y830000D03*
X7340000Y1090000D03*
X7190000Y980000D03*
X6910000Y1260000D03*
X6990000Y1960000D03*
X7320000Y2070000D03*
X6890000Y2350000D03*
X7330000Y2510000D03*
X7320000Y2300000D03*
X7170000Y3830000D03*
Y4040000D03*
X7280000Y4740000D03*
X7390000Y4480000D03*
X7810000Y940000D03*
X7530000Y1370000D03*
Y1960000D03*
X7720000Y1880000D03*
X7523800Y2073800D03*
X7530000Y2290000D03*
Y2510000D03*
X7803800Y2643800D03*
X7430000Y2750000D03*
X7700000Y2970000D03*
X7790000Y3130000D03*
X7620000D03*
X7640000Y3320000D03*
X7893080Y3765000D03*
X7814040D03*
X7735000D03*
X7510000Y4170000D03*
X7530000Y4580000D03*
Y5040000D03*
Y5400000D03*
X7730000Y5940000D03*
X8060000Y890000D03*
X8200000Y1220000D03*
X8230000Y1560000D03*
X8076000Y1464000D03*
X8270000D03*
X8380000Y1700000D03*
X7980000Y2110000D03*
X8040000Y1870000D03*
X8420000Y2106500D03*
Y1979500D03*
X8340000Y2360000D03*
X7980000Y2233500D03*
Y2360500D03*
X8340000Y2890000D03*
X8370000Y3370000D03*
X7972120Y3765000D03*
X8380000Y3960000D03*
Y4590000D03*
Y5400000D03*
X8420000Y5930000D03*
X8690000Y990000D03*
X8840000Y1610000D03*
X9010000Y1960000D03*
X8980000Y5190000D03*
X8666000Y5816000D03*
X8660000Y5690000D03*
X8539000Y5620000D03*
X8950000Y6180000D03*
X9220000Y990000D03*
X9120000Y2400000D03*
Y3320000D03*
X9336200Y3660000D03*
X9190000Y5340000D03*
X9360000Y5000000D03*
X9279000D03*
X9360000Y5610000D03*
X9279000D03*
X9240000Y6140000D03*
X9230000Y6430000D03*
Y6890000D03*
X9820000Y990000D03*
X9850000Y1680000D03*
Y2280000D03*
Y2810000D03*
X9860000Y3340000D03*
Y3940000D03*
X9880000Y4860000D03*
X9860000Y4470000D03*
X9880000Y5460000D03*
Y5990000D03*
X9740000Y5820000D03*
X12261730Y3632500D03*
G54D11*
X798680Y1489680D03*
X1398680D03*
X12261730Y1092500D03*
G54D12*
X600200Y4415960D03*
Y4669960D03*
Y5486960D03*
Y5740960D03*
X1979200Y4634460D03*
Y4888460D03*
X1725200Y4761460D03*
X1979200Y5142460D03*
Y5396460D03*
X1725200Y5015460D03*
Y5269460D03*
Y5523460D03*
X9060000Y1360000D03*
X9560000D03*
X12261730Y2997500D03*
G54D13*
X1118680Y1009680D03*
X12261730Y457500D03*
G54D14*
X1395200Y4303960D03*
Y5852960D03*
X8910680Y2586000D03*
Y3094000D03*
Y4236000D03*
Y4744000D03*
X12261730Y1727500D03*
G54D15*
X1428000Y6444000D03*
Y6190000D03*
X1174000Y6444000D03*
Y6190000D03*
X1936000Y6444000D03*
Y6190000D03*
X1682000Y6444000D03*
Y6190000D03*
X4862000Y210000D03*
X5116000Y464000D03*
Y210000D03*
X4862000Y464000D03*
Y5490000D03*
X5116000D03*
Y6530000D03*
X4862000D03*
X5116000Y6784000D03*
X4862000D03*
X5624000Y464000D03*
Y210000D03*
X5370000Y464000D03*
Y210000D03*
X5624000Y5490000D03*
X5370000D03*
X5624000Y6530000D03*
X5370000D03*
X5624000Y6784000D03*
X5370000D03*
X6132000Y464000D03*
X5878000D03*
X6132000Y210000D03*
X5878000D03*
X6386000Y6530000D03*
X6132000D03*
X5878000D03*
X6386000Y6784000D03*
X6132000D03*
X5878000D03*
X6640000Y210000D03*
X6894000Y464000D03*
Y210000D03*
X6640000Y464000D03*
X6894000Y6530000D03*
X6640000D03*
X6894000Y6784000D03*
X6640000D03*
X7402000Y464000D03*
Y210000D03*
X7148000Y464000D03*
Y210000D03*
X7402000Y6530000D03*
X7148000D03*
X7402000Y6784000D03*
X7148000D03*
X7910000Y464000D03*
X7656000D03*
X7910000Y210000D03*
X7656000D03*
X7910000Y6530000D03*
X7656000D03*
X7910000Y6784000D03*
X7656000D03*
X8418000Y464000D03*
X8164000D03*
X8418000Y210000D03*
X8164000D03*
X8418000Y6530000D03*
X8164000D03*
X8418000Y6784000D03*
X8164000D03*
X8926000Y464000D03*
X8672000D03*
X8926000Y210000D03*
X8672000D03*
X8926000Y6530000D03*
X8672000D03*
X8926000Y6784000D03*
X8672000D03*
X12261730Y2362500D03*
G54D16*
G01X-649990Y3074750D02*
X-645250Y3116020D01*
X-638140Y3150950D01*
X-628660Y3182700D01*
X-616800Y3217620D01*
X-597840Y3265250D01*
X-692660D01*
G01X-454750D02*
X-473720Y3258900D01*
X-487940Y3243020D01*
X-497420Y3223980D01*
X-504530Y3198570D01*
X-506900Y3170000D01*
X-504530Y3141420D01*
X-497420Y3116020D01*
X-487940Y3096970D01*
X-473720Y3081100D01*
X-454750Y3074750D01*
X-435790Y3081100D01*
X-421560Y3096970D01*
X-412080Y3116020D01*
X-404970Y3141420D01*
X-402600Y3170000D01*
X-404970Y3198570D01*
X-412080Y3223980D01*
X-421560Y3243020D01*
X-435790Y3258900D01*
X-454750Y3265250D01*
G01X4039500Y-1005250D02*
Y-814750D01*
X4011050Y-852850D01*
G01Y-1005250D02*
X4067940D01*
G01X4230000Y-814750D02*
X4211030Y-821100D01*
X4196810Y-836980D01*
X4187330Y-856020D01*
X4180220Y-881430D01*
X4177850Y-910000D01*
X4180220Y-938580D01*
X4187330Y-963980D01*
X4196810Y-983030D01*
X4211030Y-998900D01*
X4230000Y-1005250D01*
X4248960Y-998900D01*
X4263190Y-983030D01*
X4272670Y-963980D01*
X4279780Y-938580D01*
X4282150Y-910000D01*
X4279780Y-881430D01*
X4272670Y-856020D01*
X4263190Y-836980D01*
X4248960Y-821100D01*
X4230000Y-814750D01*
G01X4420500D02*
X4401530Y-821100D01*
X4387310Y-836980D01*
X4377830Y-856020D01*
X4370720Y-881430D01*
X4368350Y-910000D01*
X4370720Y-938580D01*
X4377830Y-963980D01*
X4387310Y-983030D01*
X4401530Y-998900D01*
X4420500Y-1005250D01*
X4439460Y-998900D01*
X4453690Y-983030D01*
X4463170Y-963980D01*
X4470280Y-938580D01*
X4472650Y-910000D01*
X4470280Y-881430D01*
X4463170Y-856020D01*
X4453690Y-836980D01*
X4439460Y-821100D01*
X4420500Y-814750D01*
G01X11399520Y4108750D02*
Y4426250D01*
X11549140D01*
G01X11494010Y4272800D02*
X11399520D01*
G01X11742050Y4426250D02*
X11836530D01*
G01X11789290D02*
Y4108750D01*
G01X11742050D02*
X11836530D01*
G01X12127870Y4267500D02*
X12206620D01*
Y4172250D01*
X12182990Y4140490D01*
X12155430Y4119330D01*
X12116060Y4108750D01*
X12076690Y4119330D01*
X12049130Y4140490D01*
X12025510Y4172250D01*
X12009760Y4209290D01*
X12001880Y4251620D01*
Y4288670D01*
X12009760Y4320410D01*
X12025510Y4357460D01*
X12049130Y4389210D01*
X12072750Y4410370D01*
X12104250Y4426250D01*
X12131810D01*
X12163300Y4415670D01*
X12186930Y4394500D01*
G01X12332600Y4426250D02*
Y4198710D01*
X12348340Y4151070D01*
X12379840Y4119330D01*
X12419210Y4108750D01*
X12458580Y4119330D01*
X12490080Y4151070D01*
X12505820Y4198710D01*
Y4426250D01*
G01X12655430Y4108750D02*
Y4426250D01*
X12753850D01*
X12785350Y4410370D01*
X12805040Y4389210D01*
X12812910Y4346870D01*
X12805040Y4304540D01*
X12781410Y4278090D01*
X12753850Y4262200D01*
X12655430D01*
G01X12753850D02*
X12812910Y4108750D01*
G01X13127870D02*
X12970390D01*
Y4426250D01*
X13127870D01*
G01X13064880Y4272800D02*
X12970390D01*
G01X13997940Y4108750D02*
Y4426250D01*
X14147560D01*
G01X14092430Y4272800D02*
X13997940D01*
G01X14340470Y4426250D02*
X14434950D01*
G01X14387710D02*
Y4108750D01*
G01X14340470D02*
X14434950D01*
G01X14612120D02*
Y4426250D01*
X14793220Y4108750D01*
Y4426250D01*
G01X14970390D02*
X15064870D01*
G01X15017630D02*
Y4108750D01*
G01X14970390D02*
X15064870D01*
G01X15249910Y4151070D02*
X15281410Y4124620D01*
X15316840Y4108750D01*
X15348340D01*
X15379830Y4124620D01*
X15403460Y4151070D01*
X15415270Y4188130D01*
X15407400Y4225160D01*
X15387710Y4256910D01*
X15352270Y4278090D01*
X15305030Y4288670D01*
X15277470Y4309830D01*
X15265660Y4346870D01*
X15273540Y4383920D01*
X15293220Y4410370D01*
X15320780Y4426250D01*
X15348340D01*
X15375900Y4415670D01*
X15399520Y4389210D01*
G01X15564870Y4108750D02*
Y4426250D01*
G01X15730230D02*
Y4108750D01*
G01Y4267500D02*
X15564870D01*
G01X16041250Y4108750D02*
X15883770D01*
Y4426250D01*
X16041250D01*
G01X15978260Y4272800D02*
X15883770D01*
G01X16190860Y4108750D02*
Y4426250D01*
X16269590D01*
X16301090Y4410370D01*
X16324710Y4389210D01*
X16344400Y4357460D01*
X16360150Y4320410D01*
X16364080Y4267500D01*
X16360150Y4214580D01*
X16344400Y4177540D01*
X16324710Y4145780D01*
X16301090Y4124620D01*
X16269590Y4108750D01*
X16190860D01*
G01X16474320Y4002920D02*
X16710540D01*
G01X16824710Y4151070D02*
X16856210Y4124620D01*
X16891640Y4108750D01*
X16923140D01*
X16954630Y4124620D01*
X16978260Y4151070D01*
X16990070Y4188130D01*
X16982200Y4225160D01*
X16962510Y4256910D01*
X16927070Y4278090D01*
X16879830Y4288670D01*
X16852270Y4309830D01*
X16840460Y4346870D01*
X16848340Y4383920D01*
X16868020Y4410370D01*
X16895580Y4426250D01*
X16923140D01*
X16950700Y4415670D01*
X16974320Y4389210D01*
G01X17175110Y4426250D02*
X17269590D01*
G01X17222350D02*
Y4108750D01*
G01X17175110D02*
X17269590D01*
G01X17462500Y4426250D02*
X17612120D01*
X17462500Y4108750D01*
X17612120D01*
G01X17931010D02*
X17773530D01*
Y4426250D01*
X17931010D01*
G01X17868020Y4272800D02*
X17773530D01*
G01X14931020Y362250D02*
X14954630Y325200D01*
X14986130Y304040D01*
X15021570Y298750D01*
X15053070Y304040D01*
X15084560Y330490D01*
X15104240Y362250D01*
X15108180Y394000D01*
X15100310Y431030D01*
X15072750Y457500D01*
X15045190Y468090D01*
X15009750D01*
G01X15045190D02*
X15068810Y483960D01*
X15088500Y510410D01*
X15096370Y542160D01*
X15088500Y573920D01*
X15068810Y600370D01*
X15033380Y616250D01*
X14997950Y610960D01*
X14962510Y589790D01*
G01X15332590Y288170D02*
X15324710Y293460D01*
Y304040D01*
X15332590Y309330D01*
X15340470Y304040D01*
Y293460D01*
X15332590Y288170D01*
G01X15647550Y616250D02*
X15616050Y605670D01*
X15592430Y579210D01*
X15576680Y547460D01*
X15564870Y505120D01*
X15560940Y457500D01*
X15564870Y409870D01*
X15576680Y367540D01*
X15592430Y335780D01*
X15616050Y309330D01*
X15647550Y298750D01*
X15679040Y309330D01*
X15702670Y335780D01*
X15718420Y367540D01*
X15730230Y409870D01*
X15734160Y457500D01*
X15730230Y505120D01*
X15718420Y547460D01*
X15702670Y579210D01*
X15679040Y605670D01*
X15647550Y616250D01*
G01X15903460Y510410D02*
X16021560Y298750D01*
G01Y510410D02*
X15903460Y298750D01*
G01X16277470D02*
Y616250D01*
X16230230Y552750D01*
G01Y298750D02*
X16324710D01*
G01X16592430Y288170D02*
X16584550Y293460D01*
Y304040D01*
X16592430Y309330D01*
X16600310Y304040D01*
Y293460D01*
X16592430Y288170D01*
G01X16907390Y616250D02*
X16875890Y605670D01*
X16852270Y579210D01*
X16836520Y547460D01*
X16824710Y505120D01*
X16820780Y457500D01*
X16824710Y409870D01*
X16836520Y367540D01*
X16852270Y335780D01*
X16875890Y309330D01*
X16907390Y298750D01*
X16938880Y309330D01*
X16962510Y335780D01*
X16978260Y367540D01*
X16990070Y409870D01*
X16994000Y457500D01*
X16990070Y505120D01*
X16978260Y547460D01*
X16962510Y579210D01*
X16938880Y605670D01*
X16907390Y616250D01*
G01X14931020Y997250D02*
X14954630Y960200D01*
X14986130Y939040D01*
X15021570Y933750D01*
X15053070Y939040D01*
X15084560Y965490D01*
X15104240Y997250D01*
X15108180Y1029000D01*
X15100310Y1066030D01*
X15072750Y1092500D01*
X15045190Y1103090D01*
X15009750D01*
G01X15045190D02*
X15068810Y1118960D01*
X15088500Y1145410D01*
X15096370Y1177160D01*
X15088500Y1208920D01*
X15068810Y1235370D01*
X15033380Y1251250D01*
X14997950Y1245960D01*
X14962510Y1224790D01*
G01X15332590Y923170D02*
X15324710Y928460D01*
Y939040D01*
X15332590Y944330D01*
X15340470Y939040D01*
Y928460D01*
X15332590Y923170D01*
G01X15647550Y1251250D02*
X15616050Y1240670D01*
X15592430Y1214210D01*
X15576680Y1182460D01*
X15564870Y1140120D01*
X15560940Y1092500D01*
X15564870Y1044870D01*
X15576680Y1002540D01*
X15592430Y970780D01*
X15616050Y944330D01*
X15647550Y933750D01*
X15679040Y944330D01*
X15702670Y970780D01*
X15718420Y1002540D01*
X15730230Y1044870D01*
X15734160Y1092500D01*
X15730230Y1140120D01*
X15718420Y1182460D01*
X15702670Y1214210D01*
X15679040Y1240670D01*
X15647550Y1251250D01*
G01X15903460Y1145410D02*
X16021560Y933750D01*
G01Y1145410D02*
X15903460Y933750D01*
G01X16277470D02*
Y1251250D01*
X16230230Y1187750D01*
G01Y933750D02*
X16324710D01*
G01X16592430Y923170D02*
X16584550Y928460D01*
Y939040D01*
X16592430Y944330D01*
X16600310Y939040D01*
Y928460D01*
X16592430Y923170D01*
G01X16907390Y1251250D02*
X16875890Y1240670D01*
X16852270Y1214210D01*
X16836520Y1182460D01*
X16824710Y1140120D01*
X16820780Y1092500D01*
X16824710Y1044870D01*
X16836520Y1002540D01*
X16852270Y970780D01*
X16875890Y944330D01*
X16907390Y933750D01*
X16938880Y944330D01*
X16962510Y970780D01*
X16978260Y1002540D01*
X16990070Y1044870D01*
X16994000Y1092500D01*
X16990070Y1140120D01*
X16978260Y1182460D01*
X16962510Y1214210D01*
X16938880Y1240670D01*
X16907390Y1251250D01*
G01X14682980Y4743750D02*
X14781410Y5061250D01*
X14879840Y4743750D01*
G01X14844400Y4854870D02*
X14718410D01*
G01X15017630Y5061250D02*
Y4743750D01*
X15175110D01*
G01X15332590Y5061250D02*
Y4743750D01*
X15490070D01*
G01X15954640Y5061250D02*
Y4833710D01*
X15970380Y4786070D01*
X16001880Y4754330D01*
X16041250Y4743750D01*
X16080620Y4754330D01*
X16112120Y4786070D01*
X16127860Y4833710D01*
Y5061250D01*
G01X16265660Y4743750D02*
Y5061250D01*
X16446760Y4743750D01*
Y5061250D01*
G01X16623930D02*
X16718410D01*
G01X16671170D02*
Y4743750D01*
G01X16623930D02*
X16718410D01*
G01X16986130Y5061250D02*
Y4743750D01*
G01X16895580Y5061250D02*
X17076680D01*
G01X17218410Y4786070D02*
X17249910Y4759620D01*
X17285340Y4743750D01*
X17316840D01*
X17348330Y4759620D01*
X17371960Y4786070D01*
X17383770Y4823130D01*
X17375900Y4860160D01*
X17356210Y4891910D01*
X17320770Y4913090D01*
X17273530Y4923670D01*
X17245970Y4944830D01*
X17234160Y4981870D01*
X17242040Y5018920D01*
X17261720Y5045370D01*
X17289280Y5061250D01*
X17316840D01*
X17344400Y5050670D01*
X17368020Y5024210D01*
G01X17832580Y4743750D02*
X17931010Y5061250D01*
X18029440Y4743750D01*
G01X17994000Y4854870D02*
X17868010D01*
G01X18167230Y4743750D02*
Y5061250D01*
X18265650D01*
X18297150Y5045370D01*
X18316840Y5024210D01*
X18324710Y4981870D01*
X18316840Y4939540D01*
X18293210Y4913090D01*
X18265650Y4897200D01*
X18167230D01*
G01X18265650D02*
X18324710Y4743750D01*
G01X18639670D02*
X18482190D01*
Y5061250D01*
X18639670D01*
G01X18576680Y4907800D02*
X18482190D01*
G01X19143610Y5061250D02*
X19238090D01*
G01X19190850D02*
Y4743750D01*
G01X19143610D02*
X19238090D01*
G01X19415260D02*
Y5061250D01*
X19596360Y4743750D01*
Y5061250D01*
G01X20033360Y4743750D02*
Y5061250D01*
X20135730Y4796670D01*
X20238100Y5061250D01*
Y4743750D01*
G01X20403450Y5061250D02*
X20497930D01*
G01X20450690D02*
Y4743750D01*
G01X20403450D02*
X20497930D01*
G01X20686910Y5061250D02*
Y4743750D01*
X20844390D01*
G01X21001870Y5061250D02*
Y4743750D01*
X21159350D01*
G01X21348330Y5061250D02*
X21442810D01*
G01X21395570D02*
Y4743750D01*
G01X21348330D02*
X21442810D01*
G01X21608160D02*
Y5061250D01*
X21710530Y4796670D01*
X21812900Y5061250D01*
Y4743750D01*
G01X22104230D02*
X21946750D01*
Y5061250D01*
X22104230D01*
G01X22041240Y4907800D02*
X21946750D01*
G01X22340450Y5061250D02*
Y4743750D01*
G01X22249900Y5061250D02*
X22431000D01*
G01X22734150Y4743750D02*
X22576670D01*
Y5061250D01*
X22734150D01*
G01X22671160Y4907800D02*
X22576670D01*
G01X22891630Y4743750D02*
Y5061250D01*
X22990050D01*
X23021550Y5045370D01*
X23041240Y5024210D01*
X23049110Y4981870D01*
X23041240Y4939540D01*
X23017610Y4913090D01*
X22990050Y4897200D01*
X22891630D01*
G01X22990050D02*
X23049110Y4743750D01*
G01X23202650Y4786070D02*
X23234150Y4759620D01*
X23269580Y4743750D01*
X23301080D01*
X23332570Y4759620D01*
X23356200Y4786070D01*
X23368010Y4823130D01*
X23360140Y4860160D01*
X23340450Y4891910D01*
X23305010Y4913090D01*
X23257770Y4923670D01*
X23230210Y4944830D01*
X23218400Y4981870D01*
X23226280Y5018920D01*
X23245960Y5045370D01*
X23273520Y5061250D01*
X23301080D01*
X23328640Y5050670D01*
X23352260Y5024210D01*
G01X15009760Y5393750D02*
Y5711250D01*
X15088490D01*
X15119990Y5695370D01*
X15143610Y5674210D01*
X15163300Y5642460D01*
X15179050Y5605410D01*
X15182980Y5552500D01*
X15179050Y5499580D01*
X15163300Y5462540D01*
X15143610Y5430780D01*
X15119990Y5409620D01*
X15088490Y5393750D01*
X15009760D01*
G01X15332590D02*
Y5711250D01*
X15431010D01*
X15462510Y5695370D01*
X15482200Y5674210D01*
X15490070Y5631870D01*
X15482200Y5589540D01*
X15458570Y5563090D01*
X15431010Y5547200D01*
X15332590D01*
G01X15431010D02*
X15490070Y5393750D01*
G01X15679050Y5711250D02*
X15773530D01*
G01X15726290D02*
Y5393750D01*
G01X15679050D02*
X15773530D01*
G01X15962510Y5711250D02*
Y5393750D01*
X16119990D01*
G01X16277470Y5711250D02*
Y5393750D01*
X16434950D01*
G01X17072740Y5684790D02*
X17049120Y5700670D01*
X17021570Y5711250D01*
X16990070D01*
X16954630Y5695370D01*
X16927080Y5668920D01*
X16907390Y5637160D01*
X16891640Y5584250D01*
X16887700Y5536620D01*
X16895580Y5489000D01*
X16907390Y5457250D01*
X16931010Y5425490D01*
X16958570Y5404330D01*
X16986130Y5393750D01*
X17013690D01*
X17041250Y5404330D01*
X17064870Y5420200D01*
X17084560Y5441360D01*
G01X17218410Y5393750D02*
Y5711250D01*
G01X17383770D02*
Y5393750D01*
G01Y5552500D02*
X17218410D01*
G01X17517620Y5393750D02*
X17616050Y5711250D01*
X17714480Y5393750D01*
G01X17679040Y5504870D02*
X17553050D01*
G01X17852270Y5393750D02*
Y5711250D01*
X17950690D01*
X17982190Y5695370D01*
X18001880Y5674210D01*
X18009750Y5631870D01*
X18001880Y5589540D01*
X17978250Y5563090D01*
X17950690Y5547200D01*
X17852270D01*
G01X17950690D02*
X18009750Y5393750D01*
G01X18245970Y5711250D02*
Y5393750D01*
G01X18155420Y5711250D02*
X18336520D01*
G01X18560930Y5383170D02*
X18553050Y5388460D01*
Y5399040D01*
X18560930Y5404330D01*
X18568810Y5399040D01*
Y5388460D01*
X18560930Y5383170D01*
G01Y5526030D02*
X18553050Y5531330D01*
Y5541910D01*
X18560930Y5547200D01*
X18568810Y5541910D01*
Y5531330D01*
X18560930Y5526030D01*
G01X19190850Y5711250D02*
Y5393750D01*
G01X19100300Y5711250D02*
X19281400D01*
G01X19505810Y5393750D02*
X19474310Y5399040D01*
X19446760Y5420200D01*
X19423130Y5451960D01*
X19407380Y5489000D01*
X19399510Y5531330D01*
Y5573670D01*
X19407380Y5616000D01*
X19423130Y5653040D01*
X19446760Y5684790D01*
X19474310Y5705960D01*
X19505810Y5711250D01*
X19537300Y5705960D01*
X19564860Y5684790D01*
X19588490Y5653040D01*
X19604240Y5616000D01*
X19612110Y5573670D01*
Y5531330D01*
X19604240Y5489000D01*
X19588490Y5451960D01*
X19564860Y5420200D01*
X19537300Y5399040D01*
X19505810Y5393750D01*
G01X19742030D02*
Y5711250D01*
X19836520D01*
X19868010Y5695370D01*
X19891640Y5658330D01*
X19899510Y5616000D01*
X19891640Y5573670D01*
X19871950Y5541910D01*
X19836520Y5526030D01*
X19742030D01*
G01X20450690Y5711250D02*
Y5393750D01*
G01X20395570Y5605410D02*
X20505810D01*
G01X20765650Y5393750D02*
X20742030Y5399040D01*
X20718410Y5420200D01*
X20702650Y5457250D01*
X20694780Y5499580D01*
X20702650Y5541910D01*
X20718410Y5578960D01*
X20742030Y5600120D01*
X20765650Y5605410D01*
X20789270Y5600120D01*
X20812890Y5578960D01*
X20828640Y5541910D01*
X20832580Y5499580D01*
X20828640Y5457250D01*
X20812890Y5420200D01*
X20789270Y5399040D01*
X20765650Y5393750D01*
G01X21427060Y5563090D02*
X21442810Y5578960D01*
X21454620Y5605410D01*
X21462500Y5642460D01*
X21454620Y5674210D01*
X21438880Y5695370D01*
X21411320Y5711250D01*
X21305020D01*
Y5393750D01*
X21434940D01*
X21462500Y5414910D01*
X21478250Y5446670D01*
X21486120Y5483710D01*
X21478250Y5520740D01*
X21454620Y5552500D01*
X21427060Y5563090D01*
X21305020D01*
G01X21710530Y5393750D02*
X21679030Y5399040D01*
X21651480Y5420200D01*
X21627850Y5451960D01*
X21612100Y5489000D01*
X21604230Y5531330D01*
Y5573670D01*
X21612100Y5616000D01*
X21627850Y5653040D01*
X21651480Y5684790D01*
X21679030Y5705960D01*
X21710530Y5711250D01*
X21742020Y5705960D01*
X21769580Y5684790D01*
X21793210Y5653040D01*
X21808960Y5616000D01*
X21816830Y5573670D01*
Y5531330D01*
X21808960Y5489000D01*
X21793210Y5451960D01*
X21769580Y5420200D01*
X21742020Y5399040D01*
X21710530Y5393750D01*
G01X22025490Y5711250D02*
Y5393750D01*
G01X21934940Y5711250D02*
X22116040D01*
G01X22340450D02*
Y5393750D01*
G01X22249900Y5711250D02*
X22431000D01*
G01X22655410Y5393750D02*
X22623910Y5399040D01*
X22596360Y5420200D01*
X22572730Y5451960D01*
X22556980Y5489000D01*
X22549110Y5531330D01*
Y5573670D01*
X22556980Y5616000D01*
X22572730Y5653040D01*
X22596360Y5684790D01*
X22623910Y5705960D01*
X22655410Y5711250D01*
X22686900Y5705960D01*
X22714460Y5684790D01*
X22738090Y5653040D01*
X22753840Y5616000D01*
X22761710Y5573670D01*
Y5531330D01*
X22753840Y5489000D01*
X22738090Y5451960D01*
X22714460Y5420200D01*
X22686900Y5399040D01*
X22655410Y5393750D01*
G01X22868000D02*
Y5711250D01*
X22970370Y5446670D01*
X23072740Y5711250D01*
Y5393750D01*
G01X15647550Y1568750D02*
Y1886250D01*
X15600310Y1822750D01*
G01Y1568750D02*
X15694790D01*
G01X15962510Y1558170D02*
X15954630Y1563460D01*
Y1574040D01*
X15962510Y1579330D01*
X15970390Y1574040D01*
Y1563460D01*
X15962510Y1558170D01*
G01X16277470Y1568750D02*
X16305030Y1574040D01*
X16336520Y1589910D01*
X16356210Y1616360D01*
X16364080Y1653420D01*
X16356210Y1690450D01*
X16332590Y1722200D01*
X16297150Y1738090D01*
X16257790D01*
X16234160Y1748670D01*
X16214470Y1775120D01*
X16206600Y1812160D01*
X16218420Y1849210D01*
X16245970Y1875670D01*
X16277470Y1886250D01*
X16308960Y1875670D01*
X16336520Y1849210D01*
X16348340Y1812160D01*
X16340460Y1775120D01*
X16320780Y1748670D01*
X16297150Y1738090D01*
X16257790D01*
X16222350Y1722200D01*
X16198730Y1690450D01*
X16190860Y1653420D01*
X16198730Y1616360D01*
X16218420Y1589910D01*
X16249910Y1574040D01*
X16277470Y1568750D01*
G01X15647550Y2203750D02*
Y2521250D01*
X15600310Y2457750D01*
G01Y2203750D02*
X15694790D01*
G01X15962510Y2193170D02*
X15954630Y2198460D01*
Y2209040D01*
X15962510Y2214330D01*
X15970390Y2209040D01*
Y2198460D01*
X15962510Y2193170D01*
G01X16277470Y2203750D02*
Y2521250D01*
X16230230Y2457750D01*
G01Y2203750D02*
X16324710D01*
G01X15647550Y3156250D02*
X15616050Y3145670D01*
X15592430Y3119210D01*
X15576680Y3087460D01*
X15564870Y3045120D01*
X15560940Y2997500D01*
X15564870Y2949870D01*
X15576680Y2907540D01*
X15592430Y2875780D01*
X15616050Y2849330D01*
X15647550Y2838750D01*
X15679040Y2849330D01*
X15702670Y2875780D01*
X15718420Y2907540D01*
X15730230Y2949870D01*
X15734160Y2997500D01*
X15730230Y3045120D01*
X15718420Y3087460D01*
X15702670Y3119210D01*
X15679040Y3145670D01*
X15647550Y3156250D01*
G01X15962510Y2828170D02*
X15954630Y2833460D01*
Y2844040D01*
X15962510Y2849330D01*
X15970390Y2844040D01*
Y2833460D01*
X15962510Y2828170D01*
G01X16210540Y2875780D02*
X16238100Y2849330D01*
X16269590Y2838750D01*
X16301090Y2849330D01*
X16328650Y2881070D01*
X16348340Y2928710D01*
X16356210Y2976330D01*
Y3034540D01*
X16348340Y3082160D01*
X16328650Y3124500D01*
X16305030Y3145670D01*
X16277470Y3156250D01*
X16245970Y3145670D01*
X16222350Y3124500D01*
X16206600Y3092750D01*
X16198730Y3050410D01*
X16206600Y3013380D01*
X16226290Y2976330D01*
X16249910Y2955160D01*
X16277470Y2949870D01*
X16308960Y2960450D01*
X16332590Y2986910D01*
X16356210Y3034540D01*
G01X15175110Y3791250D02*
X15143610Y3780670D01*
X15119990Y3754210D01*
X15104240Y3722460D01*
X15092430Y3680120D01*
X15088500Y3632500D01*
X15092430Y3584870D01*
X15104240Y3542540D01*
X15119990Y3510780D01*
X15143610Y3484330D01*
X15175110Y3473750D01*
X15206600Y3484330D01*
X15230230Y3510780D01*
X15245980Y3542540D01*
X15257790Y3584870D01*
X15261720Y3632500D01*
X15257790Y3680120D01*
X15245980Y3722460D01*
X15230230Y3754210D01*
X15206600Y3780670D01*
X15175110Y3791250D01*
G01X15490070Y3463170D02*
X15482190Y3468460D01*
Y3479040D01*
X15490070Y3484330D01*
X15497950Y3479040D01*
Y3468460D01*
X15490070Y3463170D01*
G01X15718420Y3537250D02*
X15742030Y3500200D01*
X15773530Y3479040D01*
X15808970Y3473750D01*
X15840470Y3479040D01*
X15871960Y3505490D01*
X15891640Y3537250D01*
X15895580Y3569000D01*
X15887710Y3606030D01*
X15860150Y3632500D01*
X15832590Y3643090D01*
X15797150D01*
G01X15832590D02*
X15856210Y3658960D01*
X15875900Y3685410D01*
X15883770Y3717160D01*
X15875900Y3748920D01*
X15856210Y3775370D01*
X15820780Y3791250D01*
X15785350Y3785960D01*
X15749910Y3764790D01*
G01X16119990Y3791250D02*
X16088490Y3780670D01*
X16064870Y3754210D01*
X16049120Y3722460D01*
X16037310Y3680120D01*
X16033380Y3632500D01*
X16037310Y3584870D01*
X16049120Y3542540D01*
X16064870Y3510780D01*
X16088490Y3484330D01*
X16119990Y3473750D01*
X16151480Y3484330D01*
X16175110Y3510780D01*
X16190860Y3542540D01*
X16202670Y3584870D01*
X16206600Y3632500D01*
X16202670Y3680120D01*
X16190860Y3722460D01*
X16175110Y3754210D01*
X16151480Y3780670D01*
X16119990Y3791250D01*
G01X16482190Y3473750D02*
Y3791250D01*
X16336520Y3563710D01*
X16533380D01*
G01X16749910Y3473750D02*
X16777470Y3479040D01*
X16808960Y3494910D01*
X16828650Y3521360D01*
X16836520Y3558420D01*
X16828650Y3595450D01*
X16805030Y3627200D01*
X16769590Y3643090D01*
X16730230D01*
X16706600Y3653670D01*
X16686910Y3680120D01*
X16679040Y3717160D01*
X16690860Y3754210D01*
X16718410Y3780670D01*
X16749910Y3791250D01*
X16781400Y3780670D01*
X16808960Y3754210D01*
X16820780Y3717160D01*
X16812900Y3680120D01*
X16793220Y3653670D01*
X16769590Y3643090D01*
X16730230D01*
X16694790Y3627200D01*
X16671170Y3595450D01*
X16663300Y3558420D01*
X16671170Y3521360D01*
X16690860Y3494910D01*
X16722350Y3479040D01*
X16749910Y3473750D01*
G01X19281400Y970780D02*
X19308960Y944330D01*
X19340450Y933750D01*
X19371950Y944330D01*
X19399510Y976070D01*
X19419200Y1023710D01*
X19427070Y1071330D01*
Y1129540D01*
X19419200Y1177160D01*
X19399510Y1219500D01*
X19375890Y1240670D01*
X19348330Y1251250D01*
X19316830Y1240670D01*
X19293210Y1219500D01*
X19277460Y1187750D01*
X19269590Y1145410D01*
X19277460Y1108380D01*
X19297150Y1071330D01*
X19320770Y1050160D01*
X19348330Y1044870D01*
X19379820Y1055450D01*
X19403450Y1081910D01*
X19427070Y1129540D01*
G01X19663290Y1251250D02*
X19631790Y1240670D01*
X19608170Y1214210D01*
X19592420Y1182460D01*
X19580610Y1140120D01*
X19576680Y1092500D01*
X19580610Y1044870D01*
X19592420Y1002540D01*
X19608170Y970780D01*
X19631790Y944330D01*
X19663290Y933750D01*
X19694780Y944330D01*
X19718410Y970780D01*
X19734160Y1002540D01*
X19745970Y1044870D01*
X19749900Y1092500D01*
X19745970Y1140120D01*
X19734160Y1182460D01*
X19718410Y1214210D01*
X19694780Y1240670D01*
X19663290Y1251250D01*
G01X19978250Y923170D02*
X19970370Y928460D01*
Y939040D01*
X19978250Y944330D01*
X19986130Y939040D01*
Y928460D01*
X19978250Y923170D01*
G01X20293210Y1251250D02*
X20261710Y1240670D01*
X20238090Y1214210D01*
X20222340Y1182460D01*
X20210530Y1140120D01*
X20206600Y1092500D01*
X20210530Y1044870D01*
X20222340Y1002540D01*
X20238090Y970780D01*
X20261710Y944330D01*
X20293210Y933750D01*
X20324700Y944330D01*
X20348330Y970780D01*
X20364080Y1002540D01*
X20375890Y1044870D01*
X20379820Y1092500D01*
X20375890Y1140120D01*
X20364080Y1182460D01*
X20348330Y1214210D01*
X20324700Y1240670D01*
X20293210Y1251250D01*
G01X20608170D02*
X20576670Y1240670D01*
X20553050Y1214210D01*
X20537300Y1182460D01*
X20525490Y1140120D01*
X20521560Y1092500D01*
X20525490Y1044870D01*
X20537300Y1002540D01*
X20553050Y970780D01*
X20576670Y944330D01*
X20608170Y933750D01*
X20639660Y944330D01*
X20663290Y970780D01*
X20679040Y1002540D01*
X20690850Y1044870D01*
X20694780Y1092500D01*
X20690850Y1140120D01*
X20679040Y1182460D01*
X20663290Y1214210D01*
X20639660Y1240670D01*
X20608170Y1251250D01*
G01X20923130D02*
X20891630Y1240670D01*
X20868010Y1214210D01*
X20852260Y1182460D01*
X20840450Y1140120D01*
X20836520Y1092500D01*
X20840450Y1044870D01*
X20852260Y1002540D01*
X20868010Y970780D01*
X20891630Y944330D01*
X20923130Y933750D01*
X20954620Y944330D01*
X20978250Y970780D01*
X20994000Y1002540D01*
X21005810Y1044870D01*
X21009740Y1092500D01*
X21005810Y1140120D01*
X20994000Y1182460D01*
X20978250Y1214210D01*
X20954620Y1240670D01*
X20923130Y1251250D01*
G01X18954630Y4108750D02*
Y4426250D01*
X19053050D01*
X19084550Y4410370D01*
X19104240Y4389210D01*
X19112110Y4346870D01*
X19104240Y4304540D01*
X19080610Y4278090D01*
X19053050Y4262200D01*
X18954630D01*
G01X19053050D02*
X19112110Y4108750D01*
G01X19348330D02*
X19316830Y4114040D01*
X19289280Y4135200D01*
X19265650Y4166960D01*
X19249900Y4204000D01*
X19242030Y4246330D01*
Y4288670D01*
X19249900Y4331000D01*
X19265650Y4368040D01*
X19289280Y4399790D01*
X19316830Y4420960D01*
X19348330Y4426250D01*
X19379820Y4420960D01*
X19407380Y4399790D01*
X19431010Y4368040D01*
X19446760Y4331000D01*
X19454630Y4288670D01*
Y4246330D01*
X19446760Y4204000D01*
X19431010Y4166960D01*
X19407380Y4135200D01*
X19379820Y4114040D01*
X19348330Y4108750D01*
G01X19663290Y4426250D02*
Y4108750D01*
G01X19572740Y4426250D02*
X19753840D01*
G01X19879820Y4108750D02*
X19978250Y4426250D01*
X20076680Y4108750D01*
G01X20041240Y4219870D02*
X19915250D01*
G01X20293210Y4426250D02*
Y4108750D01*
G01X20202660Y4426250D02*
X20383760D01*
G01X20560930D02*
X20655410D01*
G01X20608170D02*
Y4108750D01*
G01X20560930D02*
X20655410D01*
G01X20923130D02*
X20891630Y4114040D01*
X20864080Y4135200D01*
X20840450Y4166960D01*
X20824700Y4204000D01*
X20816830Y4246330D01*
Y4288670D01*
X20824700Y4331000D01*
X20840450Y4368040D01*
X20864080Y4399790D01*
X20891630Y4420960D01*
X20923130Y4426250D01*
X20954620Y4420960D01*
X20982180Y4399790D01*
X21005810Y4368040D01*
X21021560Y4331000D01*
X21029430Y4288670D01*
Y4246330D01*
X21021560Y4204000D01*
X21005810Y4166960D01*
X20982180Y4135200D01*
X20954620Y4114040D01*
X20923130Y4108750D01*
G01X21147540D02*
Y4426250D01*
X21328640Y4108750D01*
Y4426250D01*
G01X19505810Y616250D02*
X19474310Y605670D01*
X19450690Y579210D01*
X19434940Y547460D01*
X19423130Y505120D01*
X19419200Y457500D01*
X19423130Y409870D01*
X19434940Y367540D01*
X19450690Y335780D01*
X19474310Y309330D01*
X19505810Y298750D01*
X19537300Y309330D01*
X19560930Y335780D01*
X19576680Y367540D01*
X19588490Y409870D01*
X19592420Y457500D01*
X19588490Y505120D01*
X19576680Y547460D01*
X19560930Y579210D01*
X19537300Y605670D01*
X19505810Y616250D01*
G01X19820770Y288170D02*
X19812890Y293460D01*
Y304040D01*
X19820770Y309330D01*
X19828650Y304040D01*
Y293460D01*
X19820770Y288170D01*
G01X20135730Y616250D02*
X20104230Y605670D01*
X20080610Y579210D01*
X20064860Y547460D01*
X20053050Y505120D01*
X20049120Y457500D01*
X20053050Y409870D01*
X20064860Y367540D01*
X20080610Y335780D01*
X20104230Y309330D01*
X20135730Y298750D01*
X20167220Y309330D01*
X20190850Y335780D01*
X20206600Y367540D01*
X20218410Y409870D01*
X20222340Y457500D01*
X20218410Y505120D01*
X20206600Y547460D01*
X20190850Y579210D01*
X20167220Y605670D01*
X20135730Y616250D01*
G01X20450690D02*
X20419190Y605670D01*
X20395570Y579210D01*
X20379820Y547460D01*
X20368010Y505120D01*
X20364080Y457500D01*
X20368010Y409870D01*
X20379820Y367540D01*
X20395570Y335780D01*
X20419190Y309330D01*
X20450690Y298750D01*
X20482180Y309330D01*
X20505810Y335780D01*
X20521560Y367540D01*
X20533370Y409870D01*
X20537300Y457500D01*
X20533370Y505120D01*
X20521560Y547460D01*
X20505810Y579210D01*
X20482180Y605670D01*
X20450690Y616250D01*
G01X20765650D02*
X20734150Y605670D01*
X20710530Y579210D01*
X20694780Y547460D01*
X20682970Y505120D01*
X20679040Y457500D01*
X20682970Y409870D01*
X20694780Y367540D01*
X20710530Y335780D01*
X20734150Y309330D01*
X20765650Y298750D01*
X20797140Y309330D01*
X20820770Y335780D01*
X20836520Y367540D01*
X20848330Y409870D01*
X20852260Y457500D01*
X20848330Y505120D01*
X20836520Y547460D01*
X20820770Y579210D01*
X20797140Y605670D01*
X20765650Y616250D01*
G01X20084550Y1674580D02*
X20186910D01*
G01X20084550Y2309580D02*
X20186910D01*
G01X20084550Y2944580D02*
X20186910D01*
G01X20084550Y3579580D02*
X20186910D01*
G01X21078070Y-18750D02*
Y-336250D01*
G01X20987520Y-18750D02*
X21168620D01*
G01X21393030Y-336250D02*
X21361530Y-330960D01*
X21333980Y-309800D01*
X21310350Y-278040D01*
X21294600Y-241000D01*
X21286730Y-198670D01*
Y-156330D01*
X21294600Y-114000D01*
X21310350Y-76960D01*
X21333980Y-45210D01*
X21361530Y-24040D01*
X21393030Y-18750D01*
X21424520Y-24040D01*
X21452080Y-45210D01*
X21475710Y-76960D01*
X21491460Y-114000D01*
X21499330Y-156330D01*
Y-198670D01*
X21491460Y-241000D01*
X21475710Y-278040D01*
X21452080Y-309800D01*
X21424520Y-330960D01*
X21393030Y-336250D01*
G01X21707990Y-18750D02*
Y-336250D01*
G01X21617440Y-18750D02*
X21798540D01*
G01X21924520Y-336250D02*
X22022950Y-18750D01*
X22121380Y-336250D01*
G01X22085940Y-225130D02*
X21959950D01*
G01X22259170Y-18750D02*
Y-336250D01*
X22416650D01*
G01X22885150D02*
Y-18750D01*
G01X23050510D02*
Y-336250D01*
G01Y-177500D02*
X22885150D01*
G01X23282790Y-336250D02*
X23251290Y-330960D01*
X23223740Y-309800D01*
X23200110Y-278040D01*
X23184360Y-241000D01*
X23176490Y-198670D01*
Y-156330D01*
X23184360Y-114000D01*
X23200110Y-76960D01*
X23223740Y-45210D01*
X23251290Y-24040D01*
X23282790Y-18750D01*
X23314280Y-24040D01*
X23341840Y-45210D01*
X23365470Y-76960D01*
X23381220Y-114000D01*
X23389090Y-156330D01*
Y-198670D01*
X23381220Y-241000D01*
X23365470Y-278040D01*
X23341840Y-309800D01*
X23314280Y-330960D01*
X23282790Y-336250D01*
G01X23519010Y-18750D02*
Y-336250D01*
X23676490D01*
G01X23991450D02*
X23833970D01*
Y-18750D01*
X23991450D01*
G01X23928460Y-172200D02*
X23833970D01*
G01X24144990Y-293930D02*
X24176490Y-320380D01*
X24211920Y-336250D01*
X24243420D01*
X24274910Y-320380D01*
X24298540Y-293930D01*
X24310350Y-256870D01*
X24302480Y-219840D01*
X24282790Y-188090D01*
X24247350Y-166910D01*
X24200110Y-156330D01*
X24172550Y-135170D01*
X24160740Y-98130D01*
X24168620Y-61080D01*
X24188300Y-34630D01*
X24215860Y-18750D01*
X24243420D01*
X24270980Y-29330D01*
X24294600Y-55790D01*
G01X24542630Y-346830D02*
X24534750Y-341540D01*
Y-330960D01*
X24542630Y-325670D01*
X24550510Y-330960D01*
Y-341540D01*
X24542630Y-346830D01*
G01Y-203970D02*
X24534750Y-198670D01*
Y-188090D01*
X24542630Y-182800D01*
X24550510Y-188090D01*
Y-198670D01*
X24542630Y-203970D01*
G01X22497930Y298750D02*
Y616250D01*
X22592420D01*
X22623910Y600370D01*
X22647540Y563330D01*
X22655410Y521000D01*
X22647540Y478670D01*
X22627850Y446910D01*
X22592420Y431030D01*
X22497930D01*
G01X22812890Y616250D02*
Y298750D01*
X22970370D01*
G01X23108160D02*
X23206590Y616250D01*
X23305020Y298750D01*
G01X23269580Y409870D02*
X23143590D01*
G01X23521550Y616250D02*
Y298750D01*
G01X23431000Y616250D02*
X23612100D01*
G01X23915250Y298750D02*
X23757770D01*
Y616250D01*
X23915250D01*
G01X23852260Y462800D02*
X23757770D01*
G01X24064860Y298750D02*
Y616250D01*
X24143590D01*
X24175090Y600370D01*
X24198710Y579210D01*
X24218400Y547460D01*
X24234150Y510410D01*
X24238080Y457500D01*
X24234150Y404580D01*
X24218400Y367540D01*
X24198710Y335780D01*
X24175090Y314620D01*
X24143590Y298750D01*
X24064860D01*
G01X22497930Y933750D02*
Y1251250D01*
X22592420D01*
X22623910Y1235370D01*
X22647540Y1198330D01*
X22655410Y1156000D01*
X22647540Y1113670D01*
X22627850Y1081910D01*
X22592420Y1066030D01*
X22497930D01*
G01X22812890Y1251250D02*
Y933750D01*
X22970370D01*
G01X23108160D02*
X23206590Y1251250D01*
X23305020Y933750D01*
G01X23269580Y1044870D02*
X23143590D01*
G01X23521550Y1251250D02*
Y933750D01*
G01X23431000Y1251250D02*
X23612100D01*
G01X23915250Y933750D02*
X23757770D01*
Y1251250D01*
X23915250D01*
G01X23852260Y1097800D02*
X23757770D01*
G01X24064860Y933750D02*
Y1251250D01*
X24143590D01*
X24175090Y1235370D01*
X24198710Y1214210D01*
X24218400Y1182460D01*
X24234150Y1145410D01*
X24238080Y1092500D01*
X24234150Y1039580D01*
X24218400Y1002540D01*
X24198710Y970780D01*
X24175090Y949620D01*
X24143590Y933750D01*
X24064860D01*
G01X22497930Y1568750D02*
Y1886250D01*
X22592420D01*
X22623910Y1870370D01*
X22647540Y1833330D01*
X22655410Y1791000D01*
X22647540Y1748670D01*
X22627850Y1716910D01*
X22592420Y1701030D01*
X22497930D01*
G01X22812890Y1886250D02*
Y1568750D01*
X22970370D01*
G01X23108160D02*
X23206590Y1886250D01*
X23305020Y1568750D01*
G01X23269580Y1679870D02*
X23143590D01*
G01X23521550Y1886250D02*
Y1568750D01*
G01X23431000Y1886250D02*
X23612100D01*
G01X23915250Y1568750D02*
X23757770D01*
Y1886250D01*
X23915250D01*
G01X23852260Y1732800D02*
X23757770D01*
G01X24064860Y1568750D02*
Y1886250D01*
X24143590D01*
X24175090Y1870370D01*
X24198710Y1849210D01*
X24218400Y1817460D01*
X24234150Y1780410D01*
X24238080Y1727500D01*
X24234150Y1674580D01*
X24218400Y1637540D01*
X24198710Y1605780D01*
X24175090Y1584620D01*
X24143590Y1568750D01*
X24064860D01*
G01X22497930Y2203750D02*
Y2521250D01*
X22592420D01*
X22623910Y2505370D01*
X22647540Y2468330D01*
X22655410Y2426000D01*
X22647540Y2383670D01*
X22627850Y2351910D01*
X22592420Y2336030D01*
X22497930D01*
G01X22812890Y2521250D02*
Y2203750D01*
X22970370D01*
G01X23108160D02*
X23206590Y2521250D01*
X23305020Y2203750D01*
G01X23269580Y2314870D02*
X23143590D01*
G01X23521550Y2521250D02*
Y2203750D01*
G01X23431000Y2521250D02*
X23612100D01*
G01X23915250Y2203750D02*
X23757770D01*
Y2521250D01*
X23915250D01*
G01X23852260Y2367800D02*
X23757770D01*
G01X24064860Y2203750D02*
Y2521250D01*
X24143590D01*
X24175090Y2505370D01*
X24198710Y2484210D01*
X24218400Y2452460D01*
X24234150Y2415410D01*
X24238080Y2362500D01*
X24234150Y2309580D01*
X24218400Y2272540D01*
X24198710Y2240780D01*
X24175090Y2219620D01*
X24143590Y2203750D01*
X24064860D01*
G01X22497930Y2838750D02*
Y3156250D01*
X22592420D01*
X22623910Y3140370D01*
X22647540Y3103330D01*
X22655410Y3061000D01*
X22647540Y3018670D01*
X22627850Y2986910D01*
X22592420Y2971030D01*
X22497930D01*
G01X22812890Y3156250D02*
Y2838750D01*
X22970370D01*
G01X23108160D02*
X23206590Y3156250D01*
X23305020Y2838750D01*
G01X23269580Y2949870D02*
X23143590D01*
G01X23521550Y3156250D02*
Y2838750D01*
G01X23431000Y3156250D02*
X23612100D01*
G01X23915250Y2838750D02*
X23757770D01*
Y3156250D01*
X23915250D01*
G01X23852260Y3002800D02*
X23757770D01*
G01X24064860Y2838750D02*
Y3156250D01*
X24143590D01*
X24175090Y3140370D01*
X24198710Y3119210D01*
X24218400Y3087460D01*
X24234150Y3050410D01*
X24238080Y2997500D01*
X24234150Y2944580D01*
X24218400Y2907540D01*
X24198710Y2875780D01*
X24175090Y2854620D01*
X24143590Y2838750D01*
X24064860D01*
G01X22497930Y3473750D02*
Y3791250D01*
X22592420D01*
X22623910Y3775370D01*
X22647540Y3738330D01*
X22655410Y3696000D01*
X22647540Y3653670D01*
X22627850Y3621910D01*
X22592420Y3606030D01*
X22497930D01*
G01X22812890Y3791250D02*
Y3473750D01*
X22970370D01*
G01X23108160D02*
X23206590Y3791250D01*
X23305020Y3473750D01*
G01X23269580Y3584870D02*
X23143590D01*
G01X23521550Y3791250D02*
Y3473750D01*
G01X23431000Y3791250D02*
X23612100D01*
G01X23915250Y3473750D02*
X23757770D01*
Y3791250D01*
X23915250D01*
G01X23852260Y3637800D02*
X23757770D01*
G01X24064860Y3473750D02*
Y3791250D01*
X24143590D01*
X24175090Y3775370D01*
X24198710Y3754210D01*
X24218400Y3722460D01*
X24234150Y3685410D01*
X24238080Y3632500D01*
X24234150Y3579580D01*
X24218400Y3542540D01*
X24198710Y3510780D01*
X24175090Y3489620D01*
X24143590Y3473750D01*
X24064860D01*
G01X22497930Y4108750D02*
Y4426250D01*
X22592420D01*
X22623910Y4410370D01*
X22647540Y4373330D01*
X22655410Y4331000D01*
X22647540Y4288670D01*
X22627850Y4256910D01*
X22592420Y4241030D01*
X22497930D01*
G01X22812890Y4426250D02*
Y4108750D01*
X22970370D01*
G01X23108160D02*
X23206590Y4426250D01*
X23305020Y4108750D01*
G01X23269580Y4219870D02*
X23143590D01*
G01X23521550Y4426250D02*
Y4108750D01*
G01X23431000Y4426250D02*
X23612100D01*
G01X23915250Y4108750D02*
X23757770D01*
Y4426250D01*
X23915250D01*
G01X23852260Y4272800D02*
X23757770D01*
G01X24064860Y4108750D02*
Y4426250D01*
X24143590D01*
X24175090Y4410370D01*
X24198710Y4389210D01*
X24218400Y4357460D01*
X24234150Y4320410D01*
X24238080Y4267500D01*
X24234150Y4214580D01*
X24218400Y4177540D01*
X24198710Y4145780D01*
X24175090Y4124620D01*
X24143590Y4108750D01*
X24064860D01*
G01X25694770Y-336250D02*
Y-18750D01*
X25549100Y-246290D01*
X25745960D01*
G01X25962490Y-18750D02*
X25930990Y-29330D01*
X25907370Y-55790D01*
X25891620Y-87540D01*
X25879810Y-129880D01*
X25875880Y-177500D01*
X25879810Y-225130D01*
X25891620Y-267460D01*
X25907370Y-299220D01*
X25930990Y-325670D01*
X25962490Y-336250D01*
X25993980Y-325670D01*
X26017610Y-299220D01*
X26033360Y-267460D01*
X26045170Y-225130D01*
X26049100Y-177500D01*
X26045170Y-129880D01*
X26033360Y-87540D01*
X26017610Y-55790D01*
X25993980Y-29330D01*
X25962490Y-18750D01*
G01X26202640Y-71670D02*
X26226270Y-39920D01*
X26253830Y-24040D01*
X26285330Y-18750D01*
X26324690Y-29330D01*
X26352260Y-55790D01*
X26360130Y-87540D01*
X26356190Y-119300D01*
X26340440Y-145750D01*
X26261700Y-198670D01*
X26226270Y-235710D01*
X26202640Y-288640D01*
X26194770Y-336250D01*
X26360130D01*
G01X25962490Y298750D02*
Y616250D01*
X25915250Y552750D01*
G01Y298750D02*
X26009730D01*
G01X25887680Y1198330D02*
X25911310Y1230080D01*
X25938870Y1245960D01*
X25970370Y1251250D01*
X26009730Y1240670D01*
X26037300Y1214210D01*
X26045170Y1182460D01*
X26041230Y1150700D01*
X26025480Y1124250D01*
X25946740Y1071330D01*
X25911310Y1034290D01*
X25887680Y981360D01*
X25879810Y933750D01*
X26045170D01*
G01X25887680Y1701030D02*
X25915250Y1738090D01*
X25938870Y1759250D01*
X25970370Y1769830D01*
X25997930Y1759250D01*
X26017610Y1738090D01*
X26033360Y1706330D01*
X26037300Y1669290D01*
X26033360Y1637540D01*
X26017610Y1605780D01*
X25993980Y1579330D01*
X25966430Y1568750D01*
X25934930Y1579330D01*
X25907370Y1611070D01*
X25891620Y1658710D01*
X25887680Y1711620D01*
X25895560Y1780410D01*
X25907370Y1817460D01*
X25927050Y1854500D01*
X25954610Y1880960D01*
X25982170Y1886250D01*
X26009730Y1875670D01*
X26029420Y1849210D01*
G01X25797130Y2203750D02*
X25805010Y2272540D01*
X25816820Y2330740D01*
X25832570Y2383670D01*
X25852250Y2441870D01*
X25883750Y2521250D01*
X25726270D01*
G01X26119970Y2203750D02*
X26147530Y2209040D01*
X26179020Y2224910D01*
X26198710Y2251360D01*
X26206580Y2288420D01*
X26198710Y2325450D01*
X26175090Y2357200D01*
X26139650Y2373090D01*
X26100290D01*
X26076660Y2383670D01*
X26056970Y2410120D01*
X26049100Y2447160D01*
X26060920Y2484210D01*
X26088470Y2510670D01*
X26119970Y2521250D01*
X26151460Y2510670D01*
X26179020Y2484210D01*
X26190840Y2447160D01*
X26182960Y2410120D01*
X26163280Y2383670D01*
X26139650Y2373090D01*
X26100290D01*
X26064850Y2357200D01*
X26041230Y2325450D01*
X26033360Y2288420D01*
X26041230Y2251360D01*
X26060920Y2224910D01*
X26092410Y2209040D01*
X26119970Y2203750D01*
G01X25805010Y2838750D02*
Y3156250D01*
X25757770Y3092750D01*
G01Y2838750D02*
X25852250D01*
G01X26167210D02*
Y3156250D01*
X26021540Y2928710D01*
X26218400D01*
G01X25560920Y3537250D02*
X25584530Y3500200D01*
X25616030Y3479040D01*
X25651470Y3473750D01*
X25682970Y3479040D01*
X25714460Y3505490D01*
X25734140Y3537250D01*
X25738080Y3569000D01*
X25730210Y3606030D01*
X25702650Y3632500D01*
X25675090Y3643090D01*
X25639650D01*
G01X25675090D02*
X25698710Y3658960D01*
X25718400Y3685410D01*
X25726270Y3717160D01*
X25718400Y3748920D01*
X25698710Y3775370D01*
X25663280Y3791250D01*
X25627850Y3785960D01*
X25592410Y3764790D01*
G01X25962490Y3791250D02*
X25930990Y3780670D01*
X25907370Y3754210D01*
X25891620Y3722460D01*
X25879810Y3680120D01*
X25875880Y3632500D01*
X25879810Y3584870D01*
X25891620Y3542540D01*
X25907370Y3510780D01*
X25930990Y3484330D01*
X25962490Y3473750D01*
X25993980Y3484330D01*
X26017610Y3510780D01*
X26033360Y3542540D01*
X26045170Y3584870D01*
X26049100Y3632500D01*
X26045170Y3680120D01*
X26033360Y3722460D01*
X26017610Y3754210D01*
X25993980Y3780670D01*
X25962490Y3791250D01*
G01X26277450Y3473750D02*
Y3791250D01*
X26230210Y3727750D01*
G01Y3473750D02*
X26324690D01*
G01X25647530Y4108750D02*
X25616030Y4114040D01*
X25588480Y4135200D01*
X25564850Y4166960D01*
X25549100Y4204000D01*
X25541230Y4246330D01*
Y4288670D01*
X25549100Y4331000D01*
X25564850Y4368040D01*
X25588480Y4399790D01*
X25616030Y4420960D01*
X25647530Y4426250D01*
X25679020Y4420960D01*
X25706580Y4399790D01*
X25730210Y4368040D01*
X25745960Y4331000D01*
X25753830Y4288670D01*
Y4246330D01*
X25745960Y4204000D01*
X25730210Y4166960D01*
X25706580Y4135200D01*
X25679020Y4114040D01*
X25647530Y4108750D01*
G01X25679020Y4193420D02*
X25726270Y4108750D01*
G01X25962490Y4426250D02*
Y4108750D01*
G01X25871940Y4426250D02*
X26053040D01*
G01X26277450Y4108750D02*
Y4251620D01*
X26198710Y4426250D01*
G01X26356190D02*
X26277450Y4251620D01*
G01X-250000Y0D02*
X-800000D01*
G01X-160000Y7000000D02*
X-800000D01*
G01X-550000Y2924260D02*
Y0D01*
G01X-612500Y400000D02*
X-550000Y0D01*
X-487500Y400000D01*
X-612500D01*
G01X-550000Y3415740D02*
Y7000000D01*
G01X-487500Y6600000D02*
X-550000Y7000000D01*
X-612500Y6600000D01*
X-487500D01*
G01X0Y-250000D02*
Y-1160000D01*
G01X3817890Y-910000D02*
X0D01*
G01X400000Y-847500D02*
X0Y-910000D01*
X400000Y-972500D01*
Y-847500D01*
G01X4642110Y-910000D02*
X10000000D01*
G01Y-200000D02*
Y-1160000D01*
G01X9600000Y-972500D02*
X10000000Y-910000D01*
X9600000Y-847500D01*
Y-972500D01*
G01X11120000Y140000D02*
Y5870000D01*
X26946740D01*
Y140000D01*
X11120000D01*
G01Y775000D02*
X26946740D01*
G01X11120000Y1410000D02*
X26946740D01*
G01X11120000Y2045000D02*
X26946740D01*
G01X11120000Y2680000D02*
X26946740D01*
G01X11120000Y3315000D02*
X26946740D01*
G01X11120000Y3950000D02*
X26946740D01*
G01X11120000Y4585000D02*
X26946740D01*
G01X11120000Y5220000D02*
X26946740D01*
G01X13403460Y4585000D02*
Y140000D01*
G01X18521560Y4585000D02*
Y140000D01*
G01X21749900Y4585000D02*
Y140000D01*
G01X24978240Y4585000D02*
Y140000D01*
M02*
