G04 ================== begin FILE IDENTIFICATION RECORD ==================*
G04 Layout Name:  H:/MBEDBoard/TPA311X_TEST_V10A/PCB/TPA311X_TEST_V10A.brd*
G04 Film Name:    SilkScreen_Bottom*
G04 File Format:  Gerber RS274X*
G04 File Origin:  Cadence Allegro 17.2-S058*
G04 Origin Date:  Fri Mar 06 18:50:16 2020*
G04 *
G04 Layer:  BOARD GEOMETRY/OUTLINE*
G04 Layer:  REF DES/SILKSCREEN_BOTTOM*
G04 Layer:  PACKAGE GEOMETRY/SILKSCREEN_BOTTOM*
G04 Layer:  BOARD GEOMETRY/SILKSCREEN_BOTTOM*
G04 *
G04 Offset:    (0.0000 0.0000)*
G04 Mirror:    No*
G04 Mode:      Positive*
G04 Rotation:  0*
G04 FullContactRelief:  No*
G04 UndefLineWidth:     0.1524*
G04 ================== end FILE IDENTIFICATION RECORD ====================*
%FSLAX55Y55*MOMM*%
%IR0*IPPOS*OFA0.00000B0.00000*MIA0B0*SFA1.00000B1.00000*%
%ADD10C,.1*%
%ADD11C,.2*%
%ADD12C,.2032*%
%ADD13C,.1524*%
G75*
%LPD*%
G75*
G36*
G01X2460000Y6498400D02*
G03I-30000J0D01*
G37*
G54D10*
G01X360240Y0D02*
X7340000D01*
G03X7700000Y360000I0J360000D01*
G01Y14440000D01*
G03X7340000Y14800000I-360000J0D01*
G01X369760D01*
G03X9760Y14440240I-1J-359999D01*
G01X240Y360240D01*
G03X360240Y0I360001J-239D01*
G54D11*
G01X1010000Y5940000D02*
Y6060000D01*
X1290000D01*
Y5940000D01*
X1010000D01*
G01X1330000D02*
Y6060000D01*
X1610000D01*
Y5940000D01*
X1330000D01*
G01X1280000Y6230000D02*
G02Y6110000I-77500J-60000D01*
G01X1020000D02*
G02Y6230000I77500J60000D01*
G01X1280000Y6110000D02*
X1020000D01*
G01Y6230000D02*
X1280000D01*
G01X1340000Y6260000D02*
G02Y6380000I77500J60000D01*
G01X1600000Y6260000D02*
X1340000D01*
G01Y6380000D02*
X1600000D01*
G01X1610000Y6230000D02*
Y6110000D01*
X1330000D01*
Y6230000D01*
X1610000D01*
G01X1880000Y6058400D02*
Y6558400D01*
G01Y6058400D02*
X2200000D01*
G01X1600000Y6380000D02*
G02Y6260000I-77500J-60000D01*
G01X2000000Y6558400D02*
X1880000D01*
G01X1830000Y7290000D02*
G02Y7410000I77500J60000D01*
G01D02*
X2090000D01*
G01Y7290000D02*
X1830000D01*
G01X2430000Y6020000D02*
Y6140000D01*
X2710000D01*
Y6020000D01*
X2430000D01*
G01Y5870000D02*
Y5990000D01*
X2710000D01*
Y5870000D01*
X2430000D01*
G01X2200000Y6058400D02*
Y6558400D01*
X2080000D01*
G01X2370000Y6650000D02*
G02X2250000I-60000J77500D01*
G01X2710000Y6290000D02*
Y6170000D01*
X2430000D01*
Y6290000D01*
X2710000D01*
G01X2080000Y6558400D02*
G02X2000000I-40000J4108D01*
G01X2250000Y6910000D02*
G02X2370000I60000J-77500D01*
G01D02*
Y6650000D01*
G01X2250000D02*
Y6910000D01*
G01X2090000Y7410000D02*
G02Y7290000I-77500J-60000D01*
G01X2750000Y6590000D02*
G02Y6910000I300000J160000D01*
G01Y6590000D02*
X3230000D01*
G01X2750000Y6240000D02*
G02Y6560000I300000J160000D01*
G01Y6240000D02*
X3230000D01*
G01Y6560000D02*
X2750000D01*
G01X3230000Y6910000D02*
X2750000D01*
G01Y6930000D02*
G02Y7250000I300000J160000D01*
G01Y6930000D02*
X3230000D01*
G01Y7250000D02*
X2750000D01*
G01Y7270000D02*
G02Y7590000I300000J160000D01*
G01Y7270000D02*
X3230000D01*
G01Y7590000D02*
X2750000D01*
G01X3230000Y6910000D02*
G02Y6590000I-300000J-160000D01*
G01Y6560000D02*
G02Y6240000I-300000J-160000D01*
G01Y7250000D02*
G02Y6930000I-300000J-160000D01*
G01Y7590000D02*
G02Y7270000I-300000J-160000D01*
G01X7600000Y1650000D02*
X5660000D01*
Y1070000D01*
X7600000D01*
Y1650000D01*
G54D12*
G01X710000Y7618400D02*
X390000D01*
Y6418400D01*
X710000D01*
G01X1110000D02*
X1430000D01*
Y7618400D01*
X1110000D01*
G01X910000Y7018400D02*
G03Y7118400I0J50000D01*
G01D02*
G03Y7218400I0J50000D01*
G01Y6918400D02*
G03Y7018400I0J50000D01*
G01Y6818400D02*
G03Y6918400I0J50000D01*
G01Y6718400D02*
G03Y6818400I0J50000D01*
G01Y6648400D02*
Y6718400D01*
G01Y7318400D02*
Y7388400D01*
G01Y7218400D02*
G03Y7318400I0J50000D01*
G01X1460000Y7190000D02*
X2200000D01*
Y6640000D01*
X1460000D01*
Y7190000D01*
G54D13*
G01X588000Y6181870D02*
X594000Y6186370D01*
X601000Y6189370D01*
X609000D01*
X618000Y6184870D01*
X625000Y6177370D01*
X630000Y6168370D01*
X634000Y6153370D01*
X635000Y6139870D01*
X633000Y6126370D01*
X630000Y6117370D01*
X624000Y6108370D01*
X617000Y6102370D01*
X610000Y6099370D01*
X603000D01*
X596000Y6102370D01*
X590000Y6106870D01*
X585000Y6112870D01*
G01X528000Y6099370D02*
Y6189370D01*
X565000Y6124870D01*
X515000D01*
G01X470000Y6189370D02*
X478000Y6186370D01*
X484000Y6178870D01*
X488000Y6169870D01*
X491000Y6157870D01*
X492000Y6144370D01*
X491000Y6130870D01*
X488000Y6118870D01*
X484000Y6109870D01*
X478000Y6102370D01*
X470000Y6099370D01*
X462000Y6102370D01*
X456000Y6109870D01*
X452000Y6118870D01*
X449000Y6130870D01*
X448000Y6144370D01*
X449000Y6157870D01*
X452000Y6169870D01*
X456000Y6178870D01*
X462000Y6186370D01*
X470000Y6189370D01*
G01X620000Y5970000D02*
Y6060000D01*
X595000D01*
X587000Y6055500D01*
X582000Y6049500D01*
X580000Y6037500D01*
X582000Y6025500D01*
X588000Y6018000D01*
X595000Y6013500D01*
X620000D01*
G01X595000D02*
X580000Y5970000D01*
G01X549000Y6045000D02*
X543000Y6054000D01*
X536000Y6058500D01*
X528000Y6060000D01*
X518000Y6057000D01*
X511000Y6049500D01*
X509000Y6040500D01*
X510000Y6031500D01*
X514000Y6024000D01*
X534000Y6009000D01*
X543000Y5998500D01*
X549000Y5983500D01*
X551000Y5970000D01*
X509000D01*
G01X460000Y6060000D02*
X468000Y6057000D01*
X474000Y6049500D01*
X478000Y6040500D01*
X481000Y6028500D01*
X482000Y6015000D01*
X481000Y6001500D01*
X478000Y5989500D01*
X474000Y5980500D01*
X468000Y5973000D01*
X460000Y5970000D01*
X452000Y5973000D01*
X446000Y5980500D01*
X442000Y5989500D01*
X439000Y6001500D01*
X438000Y6015000D01*
X439000Y6028500D01*
X442000Y6040500D01*
X446000Y6049500D01*
X452000Y6057000D01*
X460000Y6060000D01*
G01X950000Y6105000D02*
Y6195000D01*
X925000D01*
X917000Y6190500D01*
X912000Y6184500D01*
X910000Y6172500D01*
X912000Y6160500D01*
X918000Y6153000D01*
X925000Y6148500D01*
X950000D01*
G01X925000D02*
X910000Y6105000D01*
G01X879000Y6180000D02*
X873000Y6189000D01*
X866000Y6193500D01*
X858000Y6195000D01*
X848000Y6192000D01*
X841000Y6184500D01*
X839000Y6175500D01*
X840000Y6166500D01*
X844000Y6159000D01*
X864000Y6144000D01*
X873000Y6133500D01*
X879000Y6118500D01*
X881000Y6105000D01*
X839000D01*
G01X790000D02*
Y6195000D01*
X802000Y6177000D01*
G01Y6105000D02*
X778000D01*
G01X950000Y5970000D02*
Y6060000D01*
X925000D01*
X917000Y6055500D01*
X912000Y6049500D01*
X910000Y6037500D01*
X912000Y6025500D01*
X918000Y6018000D01*
X925000Y6013500D01*
X950000D01*
G01X925000D02*
X910000Y5970000D01*
G01X879000Y6045000D02*
X873000Y6054000D01*
X866000Y6058500D01*
X858000Y6060000D01*
X848000Y6057000D01*
X841000Y6049500D01*
X839000Y6040500D01*
X840000Y6031500D01*
X844000Y6024000D01*
X864000Y6009000D01*
X873000Y5998500D01*
X879000Y5983500D01*
X881000Y5970000D01*
X839000D01*
G01X778000D02*
Y6060000D01*
X815000Y5995500D01*
X765000D01*
G01X908000Y6331870D02*
X914000Y6336370D01*
X921000Y6339370D01*
X929000D01*
X938000Y6334870D01*
X945000Y6327370D01*
X950000Y6318370D01*
X954000Y6303370D01*
X955000Y6289870D01*
X953000Y6276370D01*
X950000Y6267370D01*
X944000Y6258370D01*
X937000Y6252370D01*
X930000Y6249370D01*
X923000D01*
X916000Y6252370D01*
X910000Y6256870D01*
X905000Y6262870D01*
G01X848000Y6249370D02*
Y6339370D01*
X885000Y6274870D01*
X835000D01*
G01X790000Y6249370D02*
Y6339370D01*
X802000Y6321370D01*
G01Y6249370D02*
X778000D01*
G01X1587000Y7230000D02*
Y7320000D01*
X1567000D01*
X1559000Y7315500D01*
X1553000Y7309500D01*
X1548000Y7300500D01*
X1544000Y7290000D01*
X1543000Y7275000D01*
X1544000Y7260000D01*
X1548000Y7249500D01*
X1553000Y7240500D01*
X1559000Y7234500D01*
X1567000Y7230000D01*
X1587000D01*
G01X1495000D02*
Y7320000D01*
X1507000Y7302000D01*
G01Y7230000D02*
X1483000D01*
G01X1575000Y7600000D02*
Y7510000D01*
X1535000D01*
G01X1487000D02*
X1485000Y7529500D01*
X1482000Y7546000D01*
X1478000Y7561000D01*
X1473000Y7577500D01*
X1465000Y7600000D01*
X1505000D01*
G01X2097000Y6020000D02*
Y5955500D01*
X2093000Y5942000D01*
X2085000Y5933000D01*
X2075000Y5930000D01*
X2065000Y5933000D01*
X2057000Y5942000D01*
X2053000Y5955500D01*
Y6020000D01*
G01X1993000Y5930000D02*
Y6020000D01*
X2030000Y5955500D01*
X1980000D01*
G01X2362500Y7032000D02*
X2367000Y7026000D01*
X2370000Y7019000D01*
Y7011000D01*
X2365500Y7002000D01*
X2358000Y6995000D01*
X2349000Y6990000D01*
X2334000Y6986000D01*
X2320500Y6985000D01*
X2307000Y6987000D01*
X2298000Y6990000D01*
X2289000Y6996000D01*
X2283000Y7003000D01*
X2280000Y7010000D01*
Y7017000D01*
X2283000Y7024000D01*
X2287500Y7030000D01*
X2293500Y7035000D01*
G01X2298000Y7058000D02*
X2287500Y7064000D01*
X2281500Y7072000D01*
X2280000Y7081000D01*
X2281500Y7089000D01*
X2289000Y7097000D01*
X2298000Y7102000D01*
X2307000Y7103000D01*
X2317500Y7101000D01*
X2325000Y7094000D01*
X2328000Y7087000D01*
Y7078000D01*
G01Y7087000D02*
X2332500Y7093000D01*
X2340000Y7098000D01*
X2349000Y7100000D01*
X2358000Y7098000D01*
X2365500Y7093000D01*
X2370000Y7084000D01*
X2368500Y7075000D01*
X2362500Y7066000D01*
G01X2280000Y7162000D02*
X2370000D01*
X2305500Y7125000D01*
Y7175000D01*
G01X2068000Y7532500D02*
X2074000Y7537000D01*
X2081000Y7540000D01*
X2089000D01*
X2098000Y7535500D01*
X2105000Y7528000D01*
X2110000Y7519000D01*
X2114000Y7504000D01*
X2115000Y7490500D01*
X2113000Y7477000D01*
X2110000Y7468000D01*
X2104000Y7459000D01*
X2097000Y7453000D01*
X2090000Y7450000D01*
X2083000D01*
X2076000Y7453000D01*
X2070000Y7457500D01*
X2065000Y7463500D01*
G01X2042000Y7468000D02*
X2036000Y7457500D01*
X2028000Y7451500D01*
X2019000Y7450000D01*
X2011000Y7451500D01*
X2003000Y7459000D01*
X1998000Y7468000D01*
X1997000Y7477000D01*
X1999000Y7487500D01*
X2006000Y7495000D01*
X2013000Y7498000D01*
X2022000D01*
G01X2013000D02*
X2007000Y7502500D01*
X2002000Y7510000D01*
X2000000Y7519000D01*
X2002000Y7528000D01*
X2007000Y7535500D01*
X2016000Y7540000D01*
X2025000Y7538500D01*
X2034000Y7532500D01*
G01X1952000Y7450000D02*
X1950000Y7469500D01*
X1947000Y7486000D01*
X1943000Y7501000D01*
X1938000Y7517500D01*
X1930000Y7540000D01*
X1970000D01*
G01X2650000Y6475000D02*
Y6565000D01*
X2625000D01*
X2617000Y6560500D01*
X2612000Y6554500D01*
X2610000Y6542500D01*
X2612000Y6530500D01*
X2618000Y6523000D01*
X2625000Y6518500D01*
X2650000D01*
G01X2625000D02*
X2610000Y6475000D01*
G01X2579000Y6550000D02*
X2573000Y6559000D01*
X2566000Y6563500D01*
X2558000Y6565000D01*
X2548000Y6562000D01*
X2541000Y6554500D01*
X2539000Y6545500D01*
X2540000Y6536500D01*
X2544000Y6529000D01*
X2564000Y6514000D01*
X2573000Y6503500D01*
X2579000Y6488500D01*
X2581000Y6475000D01*
X2539000D01*
G01X2509000Y6550000D02*
X2503000Y6559000D01*
X2496000Y6563500D01*
X2488000Y6565000D01*
X2478000Y6562000D01*
X2471000Y6554500D01*
X2469000Y6545500D01*
X2470000Y6536500D01*
X2474000Y6529000D01*
X2494000Y6514000D01*
X2503000Y6503500D01*
X2509000Y6488500D01*
X2511000Y6475000D01*
X2469000D01*
G01X2650000Y6325000D02*
Y6415000D01*
X2625000D01*
X2617000Y6410500D01*
X2612000Y6404500D01*
X2610000Y6392500D01*
X2612000Y6380500D01*
X2618000Y6373000D01*
X2625000Y6368500D01*
X2650000D01*
G01X2625000D02*
X2610000Y6325000D01*
G01X2579000Y6400000D02*
X2573000Y6409000D01*
X2566000Y6413500D01*
X2558000Y6415000D01*
X2548000Y6412000D01*
X2541000Y6404500D01*
X2539000Y6395500D01*
X2540000Y6386500D01*
X2544000Y6379000D01*
X2564000Y6364000D01*
X2573000Y6353500D01*
X2579000Y6338500D01*
X2581000Y6325000D01*
X2539000D01*
G01X2512000Y6343000D02*
X2506000Y6332500D01*
X2498000Y6326500D01*
X2489000Y6325000D01*
X2481000Y6326500D01*
X2473000Y6334000D01*
X2468000Y6343000D01*
X2467000Y6352000D01*
X2469000Y6362500D01*
X2476000Y6370000D01*
X2483000Y6373000D01*
X2492000D01*
G01X2483000D02*
X2477000Y6377500D01*
X2472000Y6385000D01*
X2470000Y6394000D01*
X2472000Y6403000D01*
X2477000Y6410500D01*
X2486000Y6415000D01*
X2495000Y6413500D01*
X2504000Y6407500D01*
G01X2650000Y6625000D02*
Y6715000D01*
X2625000D01*
X2617000Y6710500D01*
X2612000Y6704500D01*
X2610000Y6692500D01*
X2612000Y6680500D01*
X2618000Y6673000D01*
X2625000Y6668500D01*
X2650000D01*
G01X2625000D02*
X2610000Y6625000D01*
G01X2560000D02*
Y6715000D01*
X2572000Y6697000D01*
G01Y6625000D02*
X2548000D01*
G01X2507000Y6635500D02*
X2500000Y6628000D01*
X2492000Y6625000D01*
X2484000Y6628000D01*
X2477000Y6637000D01*
X2472000Y6650500D01*
X2470000Y6664000D01*
Y6680500D01*
X2472000Y6694000D01*
X2477000Y6706000D01*
X2483000Y6712000D01*
X2490000Y6715000D01*
X2498000Y6712000D01*
X2504000Y6706000D01*
X2508000Y6697000D01*
X2510000Y6685000D01*
X2508000Y6674500D01*
X2503000Y6664000D01*
X2497000Y6658000D01*
X2490000Y6656500D01*
X2482000Y6659500D01*
X2476000Y6667000D01*
X2470000Y6680500D01*
G01X3478000Y6467100D02*
X3484000Y6471600D01*
X3491000Y6474600D01*
X3499000D01*
X3508000Y6470100D01*
X3515000Y6462600D01*
X3520000Y6453600D01*
X3524000Y6438600D01*
X3525000Y6425100D01*
X3523000Y6411600D01*
X3520000Y6402600D01*
X3514000Y6393600D01*
X3507000Y6387600D01*
X3500000Y6384600D01*
X3493000D01*
X3486000Y6387600D01*
X3480000Y6392100D01*
X3475000Y6398100D01*
G01X3452000Y6402600D02*
X3446000Y6392100D01*
X3438000Y6386100D01*
X3429000Y6384600D01*
X3421000Y6386100D01*
X3413000Y6393600D01*
X3408000Y6402600D01*
X3407000Y6411600D01*
X3409000Y6422100D01*
X3416000Y6429600D01*
X3423000Y6432600D01*
X3432000D01*
G01X3423000D02*
X3417000Y6437100D01*
X3412000Y6444600D01*
X3410000Y6453600D01*
X3412000Y6462600D01*
X3417000Y6470100D01*
X3426000Y6474600D01*
X3435000Y6473100D01*
X3444000Y6467100D01*
G01X3377000Y6395100D02*
X3370000Y6387600D01*
X3362000Y6384600D01*
X3354000Y6387600D01*
X3347000Y6396600D01*
X3342000Y6410100D01*
X3340000Y6423600D01*
Y6440100D01*
X3342000Y6453600D01*
X3347000Y6465600D01*
X3353000Y6471600D01*
X3360000Y6474600D01*
X3368000Y6471600D01*
X3374000Y6465600D01*
X3378000Y6456600D01*
X3380000Y6444600D01*
X3378000Y6434100D01*
X3373000Y6423600D01*
X3367000Y6417600D01*
X3360000Y6416100D01*
X3352000Y6419100D01*
X3346000Y6426600D01*
X3340000Y6440100D01*
G01X3478000Y6817100D02*
X3484000Y6821600D01*
X3491000Y6824600D01*
X3499000D01*
X3508000Y6820100D01*
X3515000Y6812600D01*
X3520000Y6803600D01*
X3524000Y6788600D01*
X3525000Y6775100D01*
X3523000Y6761600D01*
X3520000Y6752600D01*
X3514000Y6743600D01*
X3507000Y6737600D01*
X3500000Y6734600D01*
X3493000D01*
X3486000Y6737600D01*
X3480000Y6742100D01*
X3475000Y6748100D01*
G01X3452000Y6752600D02*
X3446000Y6742100D01*
X3438000Y6736100D01*
X3429000Y6734600D01*
X3421000Y6736100D01*
X3413000Y6743600D01*
X3408000Y6752600D01*
X3407000Y6761600D01*
X3409000Y6772100D01*
X3416000Y6779600D01*
X3423000Y6782600D01*
X3432000D01*
G01X3423000D02*
X3417000Y6787100D01*
X3412000Y6794600D01*
X3410000Y6803600D01*
X3412000Y6812600D01*
X3417000Y6820100D01*
X3426000Y6824600D01*
X3435000Y6823100D01*
X3444000Y6817100D01*
G01X3382000Y6752600D02*
X3376000Y6742100D01*
X3368000Y6736100D01*
X3359000Y6734600D01*
X3351000Y6736100D01*
X3343000Y6743600D01*
X3338000Y6752600D01*
X3337000Y6761600D01*
X3339000Y6772100D01*
X3346000Y6779600D01*
X3353000Y6782600D01*
X3362000D01*
G01X3353000D02*
X3347000Y6787100D01*
X3342000Y6794600D01*
X3340000Y6803600D01*
X3342000Y6812600D01*
X3347000Y6820100D01*
X3356000Y6824600D01*
X3365000Y6823100D01*
X3374000Y6817100D01*
G01X3478000Y7157100D02*
X3484000Y7161600D01*
X3491000Y7164600D01*
X3499000D01*
X3508000Y7160100D01*
X3515000Y7152600D01*
X3520000Y7143600D01*
X3524000Y7128600D01*
X3525000Y7115100D01*
X3523000Y7101600D01*
X3520000Y7092600D01*
X3514000Y7083600D01*
X3507000Y7077600D01*
X3500000Y7074600D01*
X3493000D01*
X3486000Y7077600D01*
X3480000Y7082100D01*
X3475000Y7088100D01*
G01X3452000Y7092600D02*
X3446000Y7082100D01*
X3438000Y7076100D01*
X3429000Y7074600D01*
X3421000Y7076100D01*
X3413000Y7083600D01*
X3408000Y7092600D01*
X3407000Y7101600D01*
X3409000Y7112100D01*
X3416000Y7119600D01*
X3423000Y7122600D01*
X3432000D01*
G01X3423000D02*
X3417000Y7127100D01*
X3412000Y7134600D01*
X3410000Y7143600D01*
X3412000Y7152600D01*
X3417000Y7160100D01*
X3426000Y7164600D01*
X3435000Y7163100D01*
X3444000Y7157100D01*
G01X3379000Y7149600D02*
X3373000Y7158600D01*
X3366000Y7163100D01*
X3358000Y7164600D01*
X3348000Y7161600D01*
X3341000Y7154100D01*
X3339000Y7145100D01*
X3340000Y7136100D01*
X3344000Y7128600D01*
X3364000Y7113600D01*
X3373000Y7103100D01*
X3379000Y7088100D01*
X3381000Y7074600D01*
X3339000D01*
G01X3478000Y7497100D02*
X3484000Y7501600D01*
X3491000Y7504600D01*
X3499000D01*
X3508000Y7500100D01*
X3515000Y7492600D01*
X3520000Y7483600D01*
X3524000Y7468600D01*
X3525000Y7455100D01*
X3523000Y7441600D01*
X3520000Y7432600D01*
X3514000Y7423600D01*
X3507000Y7417600D01*
X3500000Y7414600D01*
X3493000D01*
X3486000Y7417600D01*
X3480000Y7422100D01*
X3475000Y7428100D01*
G01X3452000Y7432600D02*
X3446000Y7422100D01*
X3438000Y7416100D01*
X3429000Y7414600D01*
X3421000Y7416100D01*
X3413000Y7423600D01*
X3408000Y7432600D01*
X3407000Y7441600D01*
X3409000Y7452100D01*
X3416000Y7459600D01*
X3423000Y7462600D01*
X3432000D01*
G01X3423000D02*
X3417000Y7467100D01*
X3412000Y7474600D01*
X3410000Y7483600D01*
X3412000Y7492600D01*
X3417000Y7500100D01*
X3426000Y7504600D01*
X3435000Y7503100D01*
X3444000Y7497100D01*
G01X3360000Y7414600D02*
X3353000Y7416100D01*
X3345000Y7420600D01*
X3340000Y7428100D01*
X3338000Y7438600D01*
X3340000Y7449100D01*
X3346000Y7458100D01*
X3355000Y7462600D01*
X3365000D01*
X3371000Y7465600D01*
X3376000Y7473100D01*
X3378000Y7483600D01*
X3375000Y7494100D01*
X3368000Y7501600D01*
X3360000Y7504600D01*
X3352000Y7501600D01*
X3345000Y7494100D01*
X3342000Y7483600D01*
X3344000Y7473100D01*
X3349000Y7465600D01*
X3355000Y7462600D01*
X3365000D01*
X3374000Y7458100D01*
X3380000Y7449100D01*
X3382000Y7438600D01*
X3380000Y7428100D01*
X3375000Y7420600D01*
X3367000Y7416100D01*
X3360000Y7414600D01*
G01X7350000Y1570000D02*
Y1480000D01*
G01X7373000Y1570000D02*
X7327000D01*
G01X7300000Y1480000D02*
Y1570000D01*
X7276000D01*
X7268000Y1565500D01*
X7262000Y1555000D01*
X7260000Y1543000D01*
X7262000Y1531000D01*
X7267000Y1522000D01*
X7276000Y1517500D01*
X7300000D01*
G01X7235000Y1480000D02*
X7210000Y1570000D01*
X7185000Y1480000D01*
G01X7194000Y1511500D02*
X7226000D01*
G01X7162000Y1498000D02*
X7156000Y1487500D01*
X7148000Y1481500D01*
X7139000Y1480000D01*
X7131000Y1481500D01*
X7123000Y1489000D01*
X7118000Y1498000D01*
X7117000Y1507000D01*
X7119000Y1517500D01*
X7126000Y1525000D01*
X7133000Y1528000D01*
X7142000D01*
G01X7133000D02*
X7127000Y1532500D01*
X7122000Y1540000D01*
X7120000Y1549000D01*
X7122000Y1558000D01*
X7127000Y1565500D01*
X7136000Y1570000D01*
X7145000Y1568500D01*
X7154000Y1562500D01*
G01X7070000Y1480000D02*
Y1570000D01*
X7082000Y1552000D01*
G01Y1480000D02*
X7058000D01*
G01X7000000D02*
Y1570000D01*
X7012000Y1552000D01*
G01Y1480000D02*
X6988000D01*
G01X6951000D02*
X6909000Y1570000D01*
G01X6951000D02*
X6909000Y1480000D01*
G01X6890000Y1450000D02*
X6830000D01*
G01X6790000Y1570000D02*
Y1480000D01*
G01X6813000Y1570000D02*
X6767000D01*
G01X6700000Y1480000D02*
X6740000D01*
Y1570000D01*
X6700000D01*
G01X6716000Y1526500D02*
X6740000D01*
G01X6671000Y1492000D02*
X6663000Y1484500D01*
X6654000Y1480000D01*
X6646000D01*
X6638000Y1484500D01*
X6632000Y1492000D01*
X6629000Y1502500D01*
X6631000Y1513000D01*
X6636000Y1522000D01*
X6645000Y1528000D01*
X6657000Y1531000D01*
X6664000Y1537000D01*
X6667000Y1547500D01*
X6665000Y1558000D01*
X6660000Y1565500D01*
X6653000Y1570000D01*
X6646000D01*
X6639000Y1567000D01*
X6633000Y1559500D01*
G01X6580000Y1570000D02*
Y1480000D01*
G01X6603000Y1570000D02*
X6557000D01*
G01X6540000Y1450000D02*
X6480000D01*
G01X6465000Y1570000D02*
X6440000Y1480000D01*
X6415000Y1570000D01*
G01X6370000Y1480000D02*
Y1570000D01*
X6382000Y1552000D01*
G01Y1480000D02*
X6358000D01*
G01X6300000Y1570000D02*
X6308000Y1567000D01*
X6314000Y1559500D01*
X6318000Y1550500D01*
X6321000Y1538500D01*
X6322000Y1525000D01*
X6321000Y1511500D01*
X6318000Y1499500D01*
X6314000Y1490500D01*
X6308000Y1483000D01*
X6300000Y1480000D01*
X6292000Y1483000D01*
X6286000Y1490500D01*
X6282000Y1499500D01*
X6279000Y1511500D01*
X6278000Y1525000D01*
X6279000Y1538500D01*
X6282000Y1550500D01*
X6286000Y1559500D01*
X6292000Y1567000D01*
X6300000Y1570000D01*
G01X6255000Y1480000D02*
X6230000Y1570000D01*
X6205000Y1480000D01*
G01X6214000Y1511500D02*
X6246000D01*
G01X6160000Y1477000D02*
X6162000Y1478500D01*
Y1481500D01*
X6160000Y1483000D01*
X6158000Y1481500D01*
Y1478500D01*
X6160000Y1477000D01*
G01X6082000Y1528000D02*
X6078000Y1532500D01*
X6075000Y1540000D01*
X6073000Y1550500D01*
X6075000Y1559500D01*
X6079000Y1565500D01*
X6086000Y1570000D01*
X6113000D01*
Y1480000D01*
X6080000D01*
X6073000Y1486000D01*
X6069000Y1495000D01*
X6067000Y1505500D01*
X6069000Y1516000D01*
X6075000Y1525000D01*
X6082000Y1528000D01*
X6113000D01*
G01X6040000Y1480000D02*
Y1570000D01*
X6015000D01*
X6007000Y1565500D01*
X6002000Y1559500D01*
X6000000Y1547500D01*
X6002000Y1535500D01*
X6008000Y1528000D01*
X6015000Y1523500D01*
X6040000D01*
G01X6015000D02*
X6000000Y1480000D01*
G01X5972000D02*
Y1570000D01*
X5952000D01*
X5944000Y1565500D01*
X5938000Y1559500D01*
X5933000Y1550500D01*
X5929000Y1540000D01*
X5928000Y1525000D01*
X5929000Y1510000D01*
X5933000Y1499500D01*
X5938000Y1490500D01*
X5944000Y1484500D01*
X5952000Y1480000D01*
X5972000D01*
G01X7369000Y1375000D02*
X7363000Y1384000D01*
X7356000Y1388500D01*
X7348000Y1390000D01*
X7338000Y1387000D01*
X7331000Y1379500D01*
X7329000Y1370500D01*
X7330000Y1361500D01*
X7334000Y1354000D01*
X7354000Y1339000D01*
X7363000Y1328500D01*
X7369000Y1313500D01*
X7371000Y1300000D01*
X7329000D01*
G01X7280000Y1390000D02*
X7288000Y1387000D01*
X7294000Y1379500D01*
X7298000Y1370500D01*
X7301000Y1358500D01*
X7302000Y1345000D01*
X7301000Y1331500D01*
X7298000Y1319500D01*
X7294000Y1310500D01*
X7288000Y1303000D01*
X7280000Y1300000D01*
X7272000Y1303000D01*
X7266000Y1310500D01*
X7262000Y1319500D01*
X7259000Y1331500D01*
X7258000Y1345000D01*
X7259000Y1358500D01*
X7262000Y1370500D01*
X7266000Y1379500D01*
X7272000Y1387000D01*
X7280000Y1390000D01*
G01X7229000Y1375000D02*
X7223000Y1384000D01*
X7216000Y1388500D01*
X7208000Y1390000D01*
X7198000Y1387000D01*
X7191000Y1379500D01*
X7189000Y1370500D01*
X7190000Y1361500D01*
X7194000Y1354000D01*
X7214000Y1339000D01*
X7223000Y1328500D01*
X7229000Y1313500D01*
X7231000Y1300000D01*
X7189000D01*
G01X7140000Y1390000D02*
X7148000Y1387000D01*
X7154000Y1379500D01*
X7158000Y1370500D01*
X7161000Y1358500D01*
X7162000Y1345000D01*
X7161000Y1331500D01*
X7158000Y1319500D01*
X7154000Y1310500D01*
X7148000Y1303000D01*
X7140000Y1300000D01*
X7132000Y1303000D01*
X7126000Y1310500D01*
X7122000Y1319500D01*
X7119000Y1331500D01*
X7118000Y1345000D01*
X7119000Y1358500D01*
X7122000Y1370500D01*
X7126000Y1379500D01*
X7132000Y1387000D01*
X7140000Y1390000D01*
G01X7100000Y1270000D02*
X7040000D01*
G01X7000000Y1390000D02*
X7008000Y1387000D01*
X7014000Y1379500D01*
X7018000Y1370500D01*
X7021000Y1358500D01*
X7022000Y1345000D01*
X7021000Y1331500D01*
X7018000Y1319500D01*
X7014000Y1310500D01*
X7008000Y1303000D01*
X7000000Y1300000D01*
X6992000Y1303000D01*
X6986000Y1310500D01*
X6982000Y1319500D01*
X6979000Y1331500D01*
X6978000Y1345000D01*
X6979000Y1358500D01*
X6982000Y1370500D01*
X6986000Y1379500D01*
X6992000Y1387000D01*
X7000000Y1390000D01*
G01X6952000Y1318000D02*
X6946000Y1307500D01*
X6938000Y1301500D01*
X6929000Y1300000D01*
X6921000Y1301500D01*
X6913000Y1309000D01*
X6908000Y1318000D01*
X6907000Y1327000D01*
X6909000Y1337500D01*
X6916000Y1345000D01*
X6923000Y1348000D01*
X6932000D01*
G01X6923000D02*
X6917000Y1352500D01*
X6912000Y1360000D01*
X6910000Y1369000D01*
X6912000Y1378000D01*
X6917000Y1385500D01*
X6926000Y1390000D01*
X6935000Y1388500D01*
X6944000Y1382500D01*
G01X6890000Y1270000D02*
X6830000D01*
G01X6790000Y1390000D02*
X6798000Y1387000D01*
X6804000Y1379500D01*
X6808000Y1370500D01*
X6811000Y1358500D01*
X6812000Y1345000D01*
X6811000Y1331500D01*
X6808000Y1319500D01*
X6804000Y1310500D01*
X6798000Y1303000D01*
X6790000Y1300000D01*
X6782000Y1303000D01*
X6776000Y1310500D01*
X6772000Y1319500D01*
X6769000Y1331500D01*
X6768000Y1345000D01*
X6769000Y1358500D01*
X6772000Y1370500D01*
X6776000Y1379500D01*
X6782000Y1387000D01*
X6790000Y1390000D01*
G01X6739000Y1337500D02*
X6732000Y1348000D01*
X6726000Y1354000D01*
X6718000Y1357000D01*
X6711000Y1354000D01*
X6706000Y1348000D01*
X6702000Y1339000D01*
X6701000Y1328500D01*
X6702000Y1319500D01*
X6706000Y1310500D01*
X6712000Y1303000D01*
X6719000Y1300000D01*
X6727000Y1303000D01*
X6734000Y1312000D01*
X6738000Y1325500D01*
X6739000Y1340500D01*
X6737000Y1360000D01*
X6734000Y1370500D01*
X6729000Y1381000D01*
X6722000Y1388500D01*
X6715000Y1390000D01*
X6708000Y1387000D01*
X6703000Y1379500D01*
G01X7371000Y1130000D02*
X7329000Y1220000D01*
G01X7371000D02*
X7329000Y1130000D01*
G01X7301000D02*
X7259000Y1220000D01*
G01X7301000D02*
X7259000Y1130000D01*
G01X7231000D02*
X7189000Y1220000D01*
G01X7231000D02*
X7189000Y1130000D01*
G01X7160000Y1220000D02*
Y1130000D01*
X7120000D01*
G01X7089000Y1220000D02*
X7051000D01*
X7089000Y1130000D01*
X7051000D01*
G01X7020000Y1148000D02*
X7015000Y1139000D01*
X7009000Y1133000D01*
X7002000Y1130000D01*
X6994000Y1133000D01*
X6988000Y1139000D01*
X6982000Y1148000D01*
X6980000Y1160000D01*
Y1220000D01*
G01X6951000Y1130000D02*
X6909000Y1220000D01*
G01X6951000D02*
X6909000Y1130000D01*
G01X6881000D02*
X6839000Y1220000D01*
G01X6881000D02*
X6839000Y1130000D01*
G01X6811000D02*
X6769000Y1220000D01*
G01X6811000D02*
X6769000Y1130000D01*
M02*
