G04 ================== begin FILE IDENTIFICATION RECORD ==================*
G04 Layout Name:  E:/GitHub/MBEDBoard/OPAMP_TEST_V10A/PCB/OPAMP_TEST_V10A.brd*
G04 Film Name:    ADB*
G04 File Format:  Gerber RS274X*
G04 File Origin:  Cadence Allegro 16.6-2015-S082*
G04 Origin Date:  Wed May 10 21:03:18 2017*
G04 *
G04 Layer:  REF DES/SILKSCREEN_BOTTOM*
G04 Layer:  PIN/BOTTOM*
G04 Layer:  PACKAGE GEOMETRY/SILKSCREEN_BOTTOM*
G04 Layer:  BOARD GEOMETRY/SILKSCREEN_BOTTOM*
G04 Layer:  BOARD GEOMETRY/OUTLINE*
G04 *
G04 Offset:    (0.0000 0.0000)*
G04 Mirror:    No*
G04 Mode:      Positive*
G04 Rotation:  0*
G04 FullContactRelief:  No*
G04 UndefLineWidth:     0.1524*
G04 ================== end FILE IDENTIFICATION RECORD ====================*
%FSLAX55Y55*MOMM*%
%IR0*IPPOS*OFA0.00000B0.00000*MIA0B0*SFA1.00000B1.00000*%
%ADD12R,1.4X.4*%
%ADD20R,1.4X.8*%
%ADD13R,.8X1.4*%
%ADD14O,4.X2.*%
%ADD15O,2.X4.*%
%ADD24R,2.2X1.1*%
%ADD16O,1.5X3.*%
%ADD11R,2.X1.8*%
%ADD21C,2.032*%
%ADD18C,1.27*%
%ADD10C,6.35*%
%ADD23C,3.048*%
%ADD22C,1.905*%
%ADD17C,1.778*%
%ADD19R,1.778X1.778*%
%ADD25C,.24*%
%ADD26C,.2032*%
%ADD27C,.17*%
%ADD28C,.127*%
%ADD29C,.254*%
%ADD30C,.1524*%
G75*
%LPD*%
G75*
G36*
G01X470000Y3440000D02*
X2530000D01*
Y2070000D01*
X470000D01*
Y3440000D01*
G37*
G36*
G01X590000Y3540000D02*
G03I-30000J0D01*
G37*
G36*
G01X6250000Y4460000D02*
X6350000D01*
Y4350000D01*
X6250000D01*
Y4460000D01*
G37*
G36*
G01Y4720000D02*
X6350000D01*
Y4610000D01*
X6250000D01*
Y4720000D01*
G37*
G36*
G01Y4970000D02*
X6350000D01*
Y4860000D01*
X6250000D01*
Y4970000D01*
G37*
G36*
G01Y5230000D02*
X6350000D01*
Y5110000D01*
X6250000D01*
Y5230000D01*
G37*
G36*
G01X6880000Y5290000D02*
G03I-40000J0D01*
G37*
G54D10*
X320000Y320000D03*
Y5080000D03*
X8240000Y320000D03*
Y5080000D03*
G54D11*
X210000Y1210000D03*
Y1470000D03*
Y1960000D03*
Y1720000D03*
G54D20*
X2520000Y2270000D03*
Y2390000D03*
Y2510000D03*
Y2630000D03*
Y2750000D03*
Y2870000D03*
Y2990000D03*
Y3110000D03*
Y3230000D03*
G54D30*
G01X318000Y0D02*
X8242000D01*
G03X8560000Y318000I0J318000D01*
G01Y5082000D01*
G03X8242000Y5400000I-318000J0D01*
G01X318000D01*
G03X0Y5082000I0J-318000D01*
G01Y318000D01*
G03X318000Y0I318000J0D01*
G01X2150670Y960000D02*
Y1070000D01*
X2089330Y960000D01*
Y1070000D01*
G01X2063330Y960000D02*
X2030000Y1070000D01*
X1996670Y960000D01*
G01X2008670Y998500D02*
X2051330D01*
G01X1974670Y960000D02*
Y1070000D01*
X1940000Y978330D01*
X1905330Y1070000D01*
Y960000D01*
G01X1823330D02*
X1876670D01*
Y1070000D01*
X1823330D01*
G01X1844670Y1016830D02*
X1876670D01*
G01X1760000Y956330D02*
X1762670Y958170D01*
Y961830D01*
X1760000Y963670D01*
X1757330Y961830D01*
Y958170D01*
X1760000Y956330D01*
G01Y1005830D02*
X1762670Y1007670D01*
Y1011330D01*
X1760000Y1013170D01*
X1757330Y1011330D01*
Y1007670D01*
X1760000Y1005830D01*
G01X1670000Y960000D02*
X1680670Y961830D01*
X1690000Y969160D01*
X1698000Y980170D01*
X1703330Y993000D01*
X1706000Y1007670D01*
Y1022330D01*
X1703330Y1037000D01*
X1698000Y1049830D01*
X1690000Y1060830D01*
X1680670Y1068170D01*
X1670000Y1070000D01*
X1659330Y1068170D01*
X1650000Y1060830D01*
X1642000Y1049830D01*
X1636670Y1037000D01*
X1634000Y1022330D01*
Y1007670D01*
X1636670Y993000D01*
X1642000Y980170D01*
X1650000Y969160D01*
X1659330Y961830D01*
X1670000Y960000D01*
G01X1606670D02*
Y1070000D01*
X1574670D01*
X1564000Y1064500D01*
X1556000Y1051670D01*
X1553330Y1037000D01*
X1556000Y1022330D01*
X1562670Y1011330D01*
X1574670Y1005830D01*
X1606670D01*
G01X1523330Y960000D02*
X1490000Y1070000D01*
X1456670Y960000D01*
G01X1468670Y998500D02*
X1511330D01*
G01X1434670Y960000D02*
Y1070000D01*
X1400000Y978330D01*
X1365330Y1070000D01*
Y960000D01*
G01X1336670D02*
Y1070000D01*
X1304670D01*
X1294000Y1064500D01*
X1286000Y1051670D01*
X1283330Y1037000D01*
X1286000Y1022330D01*
X1292670Y1011330D01*
X1304670Y1005830D01*
X1336670D01*
G01X1260000Y923330D02*
X1180000D01*
G01X1130000Y1070000D02*
Y960000D01*
G01X1160670Y1070000D02*
X1099330D01*
G01X1013330Y960000D02*
X1066670D01*
Y1070000D01*
X1013330D01*
G01X1034670Y1016830D02*
X1066670D01*
G01X978000Y974660D02*
X967330Y965500D01*
X955330Y960000D01*
X944670D01*
X934000Y965500D01*
X926000Y974660D01*
X922000Y987500D01*
X924670Y1000330D01*
X931330Y1011330D01*
X943330Y1018670D01*
X959330Y1022330D01*
X968670Y1029670D01*
X972670Y1042500D01*
X970000Y1055330D01*
X963330Y1064500D01*
X954000Y1070000D01*
X944670D01*
X935330Y1066330D01*
X927330Y1057170D01*
G01X860000Y1070000D02*
Y960000D01*
G01X890670Y1070000D02*
X829330D01*
G01X810000Y923330D02*
X730000D01*
G01X713330Y1070000D02*
X680000Y960000D01*
X646670Y1070000D01*
G01X590000Y960000D02*
Y1070000D01*
X606000Y1048000D01*
G01Y960000D02*
X574000D01*
G01X500000Y1070000D02*
X510670Y1066330D01*
X518670Y1057170D01*
X524000Y1046170D01*
X528000Y1031500D01*
X529330Y1015000D01*
X528000Y998500D01*
X524000Y983830D01*
X518670Y972830D01*
X510670Y963670D01*
X500000Y960000D01*
X489330Y963670D01*
X481330Y972830D01*
X476000Y983830D01*
X472000Y998500D01*
X470670Y1015000D01*
X472000Y1031500D01*
X476000Y1046170D01*
X481330Y1057170D01*
X489330Y1066330D01*
X500000Y1070000D01*
G01X443330Y960000D02*
X410000Y1070000D01*
X376670Y960000D01*
G01X388670Y998500D02*
X431330D01*
G01X320000Y956330D02*
X322670Y958170D01*
Y961830D01*
X320000Y963670D01*
X317330Y961830D01*
Y958170D01*
X320000Y956330D01*
G01X219330Y1018670D02*
X214000Y1024170D01*
X210000Y1033330D01*
X207330Y1046170D01*
X210000Y1057170D01*
X215330Y1064500D01*
X224670Y1070000D01*
X260670D01*
Y960000D01*
X216670D01*
X207330Y967330D01*
X202000Y978330D01*
X199330Y991170D01*
X202000Y1004000D01*
X210000Y1015000D01*
X219330Y1018670D01*
X260670D01*
G01X166670Y960000D02*
Y1070000D01*
X133330D01*
X122670Y1064500D01*
X116000Y1057170D01*
X113330Y1042500D01*
X116000Y1027830D01*
X124000Y1018670D01*
X133330Y1013170D01*
X166670D01*
G01X133330D02*
X113330Y960000D01*
G01X79330D02*
Y1070000D01*
X52670D01*
X42000Y1064500D01*
X34000Y1057170D01*
X27330Y1046170D01*
X22000Y1033330D01*
X20670Y1015000D01*
X22000Y996670D01*
X27330Y983830D01*
X34000Y972830D01*
X42000Y965500D01*
X52670Y960000D01*
X79330D01*
G01X189330Y3610000D02*
Y3531170D01*
X184000Y3514660D01*
X173330Y3503670D01*
X160000Y3500000D01*
X146670Y3503670D01*
X136000Y3514660D01*
X130670Y3531170D01*
Y3610000D01*
G01X95330Y3591670D02*
X87330Y3602660D01*
X78000Y3608170D01*
X67330Y3610000D01*
X54000Y3606330D01*
X44670Y3597170D01*
X42000Y3586170D01*
X43330Y3575160D01*
X48670Y3566000D01*
X75330Y3547670D01*
X87330Y3534830D01*
X95330Y3516500D01*
X98000Y3500000D01*
X42000D01*
G01X2149330Y780000D02*
Y890000D01*
X2122670D01*
X2112000Y884500D01*
X2104000Y877170D01*
X2097330Y866170D01*
X2092000Y853330D01*
X2090670Y835000D01*
X2092000Y816670D01*
X2097330Y803830D01*
X2104000Y792830D01*
X2112000Y785500D01*
X2122670Y780000D01*
X2149330D01*
G01X2063330D02*
X2030000Y890000D01*
X1996670Y780000D01*
G01X2008670Y818500D02*
X2051330D01*
G01X1940000Y890000D02*
Y780000D01*
G01X1970670Y890000D02*
X1909330D01*
G01X1823330Y780000D02*
X1876670D01*
Y890000D01*
X1823330D01*
G01X1844670Y836830D02*
X1876670D01*
G01X1760000Y776330D02*
X1762670Y778170D01*
Y781830D01*
X1760000Y783670D01*
X1757330Y781830D01*
Y778170D01*
X1760000Y776330D01*
G01Y825830D02*
X1762670Y827670D01*
Y831330D01*
X1760000Y833170D01*
X1757330Y831330D01*
Y827670D01*
X1760000Y825830D01*
G01X1695330Y871670D02*
X1687330Y882660D01*
X1678000Y888170D01*
X1667330Y890000D01*
X1654000Y886330D01*
X1644670Y877170D01*
X1642000Y866170D01*
X1643330Y855160D01*
X1648670Y846000D01*
X1675330Y827670D01*
X1687330Y814830D01*
X1695330Y796500D01*
X1698000Y780000D01*
X1642000D01*
G01X1580000Y890000D02*
X1590670Y886330D01*
X1598670Y877170D01*
X1604000Y866170D01*
X1608000Y851500D01*
X1609330Y835000D01*
X1608000Y818500D01*
X1604000Y803830D01*
X1598670Y792830D01*
X1590670Y783670D01*
X1580000Y780000D01*
X1569330Y783670D01*
X1561330Y792830D01*
X1556000Y803830D01*
X1552000Y818500D01*
X1550670Y835000D01*
X1552000Y851500D01*
X1556000Y866170D01*
X1561330Y877170D01*
X1569330Y886330D01*
X1580000Y890000D01*
G01X1490000Y780000D02*
Y890000D01*
X1506000Y868000D01*
G01Y780000D02*
X1474000D01*
G01X1402670D02*
X1400000Y803830D01*
X1396000Y824000D01*
X1390670Y842330D01*
X1384000Y862500D01*
X1373330Y890000D01*
X1426670D01*
G01X1350000Y743330D02*
X1270000D01*
G01X1220000Y890000D02*
X1230670Y886330D01*
X1238670Y877170D01*
X1244000Y866170D01*
X1248000Y851500D01*
X1249330Y835000D01*
X1248000Y818500D01*
X1244000Y803830D01*
X1238670Y792830D01*
X1230670Y783670D01*
X1220000Y780000D01*
X1209330Y783670D01*
X1201330Y792830D01*
X1196000Y803830D01*
X1192000Y818500D01*
X1190670Y835000D01*
X1192000Y851500D01*
X1196000Y866170D01*
X1201330Y877170D01*
X1209330Y886330D01*
X1220000Y890000D01*
G01X1159330Y796500D02*
X1151330Y787330D01*
X1142000Y781830D01*
X1130000Y780000D01*
X1118000Y783670D01*
X1108670Y791000D01*
X1102000Y803830D01*
X1100670Y818500D01*
X1103330Y833170D01*
X1110000Y842330D01*
X1119330Y849670D01*
X1128670Y851500D01*
X1138000Y849670D01*
X1150000Y842330D01*
X1146000Y890000D01*
X1110000D01*
G01X1080000Y743330D02*
X1000000D01*
G01X950000Y780000D02*
Y890000D01*
X966000Y868000D01*
G01Y780000D02*
X934000D01*
G01X860000Y890000D02*
X870670Y886330D01*
X878670Y877170D01*
X884000Y866170D01*
X888000Y851500D01*
X889330Y835000D01*
X888000Y818500D01*
X884000Y803830D01*
X878670Y792830D01*
X870670Y783670D01*
X860000Y780000D01*
X849330Y783670D01*
X841330Y792830D01*
X836000Y803830D01*
X832000Y818500D01*
X830670Y835000D01*
X832000Y851500D01*
X836000Y866170D01*
X841330Y877170D01*
X849330Y886330D01*
X860000Y890000D01*
G01X879330Y1950000D02*
Y1871170D01*
X874000Y1854660D01*
X863330Y1843670D01*
X850000Y1840000D01*
X836670Y1843670D01*
X826000Y1854660D01*
X820670Y1871170D01*
Y1950000D01*
G01X788000Y1854660D02*
X777330Y1845500D01*
X765330Y1840000D01*
X754670D01*
X744000Y1845500D01*
X736000Y1854660D01*
X732000Y1867500D01*
X734670Y1880330D01*
X741330Y1891330D01*
X753330Y1898670D01*
X769330Y1902330D01*
X778670Y1909670D01*
X782670Y1922500D01*
X780000Y1935330D01*
X773330Y1944500D01*
X764000Y1950000D01*
X754670D01*
X745330Y1946330D01*
X737330Y1937170D01*
G01X659330Y1898670D02*
X654000Y1904170D01*
X650000Y1913330D01*
X647330Y1926170D01*
X650000Y1937170D01*
X655330Y1944500D01*
X664670Y1950000D01*
X700670D01*
Y1840000D01*
X656670D01*
X647330Y1847330D01*
X642000Y1858330D01*
X639330Y1871170D01*
X642000Y1884000D01*
X650000Y1895000D01*
X659330Y1898670D01*
X700670D01*
G01X580000Y1840000D02*
Y1950000D01*
X596000Y1928000D01*
G01Y1840000D02*
X564000D01*
G01X2109330Y648670D02*
X2104000Y654170D01*
X2100000Y663330D01*
X2097330Y676170D01*
X2100000Y687170D01*
X2105330Y694500D01*
X2114670Y700000D01*
X2150670D01*
Y590000D01*
X2106670D01*
X2097330Y597330D01*
X2092000Y608330D01*
X2089330Y621170D01*
X2092000Y634000D01*
X2100000Y645000D01*
X2109330Y648670D01*
X2150670D01*
G01X2030000Y590000D02*
Y639500D01*
X2056670Y700000D01*
G01X2003330D02*
X2030000Y639500D01*
G01X1878000Y590000D02*
X1822000Y700000D01*
G01X1878000D02*
X1822000Y590000D01*
G01X1788000D02*
X1732000Y700000D01*
G01X1788000D02*
X1732000Y590000D01*
G01X1698000D02*
X1642000Y700000D01*
G01X1698000D02*
X1642000Y590000D01*
G01X1606670Y700000D02*
Y590000D01*
X1553330D01*
G01X1515330Y700000D02*
X1464670D01*
X1515330Y590000D01*
X1464670D01*
G01X1426670Y612000D02*
X1420000Y601000D01*
X1412000Y593670D01*
X1402670Y590000D01*
X1392000Y593670D01*
X1384000Y601000D01*
X1376000Y612000D01*
X1373330Y626670D01*
Y700000D01*
G01X1338000Y590000D02*
X1282000Y700000D01*
G01X1338000D02*
X1282000Y590000D01*
G01X1248000D02*
X1192000Y700000D01*
G01X1248000D02*
X1192000Y590000D01*
G01X1158000D02*
X1102000Y700000D01*
G01X1158000D02*
X1102000Y590000D01*
G01X5648000Y4624660D02*
X5637330Y4615500D01*
X5625330Y4610000D01*
X5614670D01*
X5604000Y4615500D01*
X5596000Y4624660D01*
X5592000Y4637500D01*
X5594670Y4650330D01*
X5601330Y4661330D01*
X5613330Y4668670D01*
X5629330Y4672330D01*
X5638670Y4679670D01*
X5642670Y4692500D01*
X5640000Y4705330D01*
X5633330Y4714500D01*
X5624000Y4720000D01*
X5614670D01*
X5605330Y4716330D01*
X5597330Y4707170D01*
G01X5530000Y4610000D02*
X5540670Y4611830D01*
X5550000Y4619160D01*
X5558000Y4630170D01*
X5563330Y4643000D01*
X5566000Y4657670D01*
Y4672330D01*
X5563330Y4687000D01*
X5558000Y4699830D01*
X5550000Y4710830D01*
X5540670Y4718170D01*
X5530000Y4720000D01*
X5519330Y4718170D01*
X5510000Y4710830D01*
X5502000Y4699830D01*
X5496670Y4687000D01*
X5494000Y4672330D01*
Y4657670D01*
X5496670Y4643000D01*
X5502000Y4630170D01*
X5510000Y4619160D01*
X5519330Y4611830D01*
X5530000Y4610000D01*
G01X5469330Y4720000D02*
Y4641170D01*
X5464000Y4624660D01*
X5453330Y4613670D01*
X5440000Y4610000D01*
X5426670Y4613670D01*
X5416000Y4624660D01*
X5410670Y4641170D01*
Y4720000D01*
G01X5376670Y4610000D02*
Y4720000D01*
X5343330D01*
X5332670Y4714500D01*
X5326000Y4707170D01*
X5323330Y4692500D01*
X5326000Y4677830D01*
X5334000Y4668670D01*
X5343330Y4663170D01*
X5376670D01*
G01X5343330D02*
X5323330Y4610000D01*
G01X5288000Y4624660D02*
X5277330Y4615500D01*
X5265330Y4610000D01*
X5254670D01*
X5244000Y4615500D01*
X5236000Y4624660D01*
X5232000Y4637500D01*
X5234670Y4650330D01*
X5241330Y4661330D01*
X5253330Y4668670D01*
X5269330Y4672330D01*
X5278670Y4679670D01*
X5282670Y4692500D01*
X5280000Y4705330D01*
X5273330Y4714500D01*
X5264000Y4720000D01*
X5254670D01*
X5245330Y4716330D01*
X5237330Y4707170D01*
G01X5143330Y4610000D02*
X5196670D01*
Y4720000D01*
X5143330D01*
G01X5164670Y4666830D02*
X5196670D01*
G01X5612000Y5165000D02*
X5585330D01*
Y5132000D01*
X5593330Y5121000D01*
X5602670Y5113670D01*
X5616000Y5110000D01*
X5629330Y5113670D01*
X5638670Y5121000D01*
X5646670Y5132000D01*
X5652000Y5144830D01*
X5654670Y5159500D01*
Y5172330D01*
X5652000Y5183330D01*
X5646670Y5196170D01*
X5638670Y5207170D01*
X5630670Y5214500D01*
X5620000Y5220000D01*
X5610670D01*
X5600000Y5216330D01*
X5592000Y5209000D01*
G01X5563330Y5110000D02*
X5530000Y5220000D01*
X5496670Y5110000D01*
G01X5508670Y5148500D02*
X5551330D01*
G01X5456000Y5220000D02*
X5424000D01*
G01X5440000D02*
Y5110000D01*
G01X5456000D02*
X5424000D01*
G01X5380670D02*
Y5220000D01*
X5319330Y5110000D01*
Y5220000D01*
G01X5260000D02*
X5270670Y5216330D01*
X5278670Y5207170D01*
X5284000Y5196170D01*
X5288000Y5181500D01*
X5289330Y5165000D01*
X5288000Y5148500D01*
X5284000Y5133830D01*
X5278670Y5122830D01*
X5270670Y5113670D01*
X5260000Y5110000D01*
X5249330Y5113670D01*
X5241330Y5122830D01*
X5236000Y5133830D01*
X5232000Y5148500D01*
X5230670Y5165000D01*
X5232000Y5181500D01*
X5236000Y5196170D01*
X5241330Y5207170D01*
X5249330Y5216330D01*
X5260000Y5220000D01*
G01X5612000Y4925000D02*
X5585330D01*
Y4892000D01*
X5593330Y4881000D01*
X5602670Y4873670D01*
X5616000Y4870000D01*
X5629330Y4873670D01*
X5638670Y4881000D01*
X5646670Y4892000D01*
X5652000Y4904830D01*
X5654670Y4919500D01*
Y4932330D01*
X5652000Y4943330D01*
X5646670Y4956170D01*
X5638670Y4967170D01*
X5630670Y4974500D01*
X5620000Y4980000D01*
X5610670D01*
X5600000Y4976330D01*
X5592000Y4969000D01*
G01X5563330Y4870000D02*
X5530000Y4980000D01*
X5496670Y4870000D01*
G01X5508670Y4908500D02*
X5551330D01*
G01X5456000Y4980000D02*
X5424000D01*
G01X5440000D02*
Y4870000D01*
G01X5456000D02*
X5424000D01*
G01X5380670D02*
Y4980000D01*
X5319330Y4870000D01*
Y4980000D01*
G01X5260000Y4870000D02*
Y4980000D01*
X5276000Y4958000D01*
G01Y4870000D02*
X5244000D01*
G01X6383330Y2390000D02*
X6436670D01*
Y2500000D01*
X6383330D01*
G01X6404670Y2446830D02*
X6436670D01*
G01X6353330Y2390000D02*
X6320000Y2500000D01*
X6286670Y2390000D01*
G01X6298670Y2428500D02*
X6341330D01*
G01X6256670Y2390000D02*
Y2500000D01*
X6223330D01*
X6212670Y2494500D01*
X6206000Y2487170D01*
X6203330Y2472500D01*
X6206000Y2457830D01*
X6214000Y2448670D01*
X6223330Y2443170D01*
X6256670D01*
G01X6223330D02*
X6203330Y2390000D01*
G01X6166670D02*
Y2500000D01*
X6134670D01*
X6124000Y2494500D01*
X6116000Y2481670D01*
X6113330Y2467000D01*
X6116000Y2452330D01*
X6122670Y2441330D01*
X6134670Y2435830D01*
X6166670D01*
G01X6078000Y2390000D02*
Y2500000D01*
G01X6022000D02*
Y2390000D01*
G01Y2445000D02*
X6078000D01*
G01X5960000Y2390000D02*
X5970670Y2391830D01*
X5980000Y2399160D01*
X5988000Y2410170D01*
X5993330Y2423000D01*
X5996000Y2437670D01*
Y2452330D01*
X5993330Y2467000D01*
X5988000Y2479830D01*
X5980000Y2490830D01*
X5970670Y2498170D01*
X5960000Y2500000D01*
X5949330Y2498170D01*
X5940000Y2490830D01*
X5932000Y2479830D01*
X5926670Y2467000D01*
X5924000Y2452330D01*
Y2437670D01*
X5926670Y2423000D01*
X5932000Y2410170D01*
X5940000Y2399160D01*
X5949330Y2391830D01*
X5960000Y2390000D01*
G01X5900670D02*
Y2500000D01*
X5839330Y2390000D01*
Y2500000D01*
G01X5753330Y2390000D02*
X5806670D01*
Y2500000D01*
X5753330D01*
G01X5774670Y2446830D02*
X5806670D01*
G01X5909330Y3082000D02*
X5901330Y3069160D01*
X5890670Y3061830D01*
X5878670Y3060000D01*
X5868000Y3061830D01*
X5857330Y3071000D01*
X5850670Y3082000D01*
X5849330Y3093000D01*
X5852000Y3105830D01*
X5861330Y3115000D01*
X5870670Y3118670D01*
X5882670D01*
G01X5870670D02*
X5862670Y3124170D01*
X5856000Y3133330D01*
X5853330Y3144330D01*
X5856000Y3155330D01*
X5862670Y3164500D01*
X5874670Y3170000D01*
X5886670Y3168170D01*
X5898670Y3160830D01*
G01X5815330Y3105830D02*
X5806000Y3118670D01*
X5798000Y3126000D01*
X5787330Y3129670D01*
X5778000Y3126000D01*
X5771330Y3118670D01*
X5766000Y3107670D01*
X5764670Y3094830D01*
X5766000Y3083830D01*
X5771330Y3072830D01*
X5779330Y3063670D01*
X5788670Y3060000D01*
X5799330Y3063670D01*
X5808670Y3074660D01*
X5814000Y3091170D01*
X5815330Y3109500D01*
X5812670Y3133330D01*
X5808670Y3146170D01*
X5802000Y3159000D01*
X5792670Y3168170D01*
X5783330Y3170000D01*
X5774000Y3166330D01*
X5767330Y3157170D01*
G01X6399330Y2658670D02*
X6394000Y2664170D01*
X6390000Y2673330D01*
X6387330Y2686170D01*
X6390000Y2697170D01*
X6395330Y2704500D01*
X6404670Y2710000D01*
X6440670D01*
Y2600000D01*
X6396670D01*
X6387330Y2607330D01*
X6382000Y2618330D01*
X6379330Y2631170D01*
X6382000Y2644000D01*
X6390000Y2655000D01*
X6399330Y2658670D01*
X6440670D01*
G01X6346670Y2710000D02*
Y2600000D01*
X6293330D01*
G01X6259330Y2710000D02*
Y2631170D01*
X6254000Y2614660D01*
X6243330Y2603670D01*
X6230000Y2600000D01*
X6216670Y2603670D01*
X6206000Y2614660D01*
X6200670Y2631170D01*
Y2710000D01*
G01X6140000D02*
Y2600000D01*
G01X6170670Y2710000D02*
X6109330D01*
G01X6050000Y2600000D02*
X6060670Y2601830D01*
X6070000Y2609160D01*
X6078000Y2620170D01*
X6083330Y2633000D01*
X6086000Y2647670D01*
Y2662330D01*
X6083330Y2677000D01*
X6078000Y2689830D01*
X6070000Y2700830D01*
X6060670Y2708170D01*
X6050000Y2710000D01*
X6039330Y2708170D01*
X6030000Y2700830D01*
X6022000Y2689830D01*
X6016670Y2677000D01*
X6014000Y2662330D01*
Y2647670D01*
X6016670Y2633000D01*
X6022000Y2620170D01*
X6030000Y2609160D01*
X6039330Y2601830D01*
X6050000Y2600000D01*
G01X5960000D02*
X5970670Y2601830D01*
X5980000Y2609160D01*
X5988000Y2620170D01*
X5993330Y2633000D01*
X5996000Y2647670D01*
Y2662330D01*
X5993330Y2677000D01*
X5988000Y2689830D01*
X5980000Y2700830D01*
X5970670Y2708170D01*
X5960000Y2710000D01*
X5949330Y2708170D01*
X5940000Y2700830D01*
X5932000Y2689830D01*
X5926670Y2677000D01*
X5924000Y2662330D01*
Y2647670D01*
X5926670Y2633000D01*
X5932000Y2620170D01*
X5940000Y2609160D01*
X5949330Y2601830D01*
X5960000Y2600000D01*
G01X5870000Y2710000D02*
Y2600000D01*
G01X5900670Y2710000D02*
X5839330D01*
G01X5808000Y2600000D02*
Y2710000D01*
G01X5752000D02*
Y2600000D01*
G01Y2655000D02*
X5808000D01*
G01X5905330Y3601670D02*
X5897330Y3612660D01*
X5888000Y3618170D01*
X5877330Y3620000D01*
X5864000Y3616330D01*
X5854670Y3607170D01*
X5852000Y3596170D01*
X5853330Y3585160D01*
X5858670Y3576000D01*
X5885330Y3557670D01*
X5897330Y3544830D01*
X5905330Y3526500D01*
X5908000Y3510000D01*
X5852000D01*
G01X5815330Y3555830D02*
X5806000Y3568670D01*
X5798000Y3576000D01*
X5787330Y3579670D01*
X5778000Y3576000D01*
X5771330Y3568670D01*
X5766000Y3557670D01*
X5764670Y3544830D01*
X5766000Y3533830D01*
X5771330Y3522830D01*
X5779330Y3513670D01*
X5788670Y3510000D01*
X5799330Y3513670D01*
X5808670Y3524660D01*
X5814000Y3541170D01*
X5815330Y3559500D01*
X5812670Y3583330D01*
X5808670Y3596170D01*
X5802000Y3609000D01*
X5792670Y3618170D01*
X5783330Y3620000D01*
X5774000Y3616330D01*
X5767330Y3607170D01*
G01X5909330Y3312000D02*
X5901330Y3299160D01*
X5890670Y3291830D01*
X5878670Y3290000D01*
X5868000Y3291830D01*
X5857330Y3301000D01*
X5850670Y3312000D01*
X5849330Y3323000D01*
X5852000Y3335830D01*
X5861330Y3345000D01*
X5870670Y3348670D01*
X5882670D01*
G01X5870670D02*
X5862670Y3354170D01*
X5856000Y3363330D01*
X5853330Y3374330D01*
X5856000Y3385330D01*
X5862670Y3394500D01*
X5874670Y3400000D01*
X5886670Y3398170D01*
X5898670Y3390830D01*
G01X5815330Y3381670D02*
X5807330Y3392660D01*
X5798000Y3398170D01*
X5787330Y3400000D01*
X5774000Y3396330D01*
X5764670Y3387170D01*
X5762000Y3376170D01*
X5763330Y3365160D01*
X5768670Y3356000D01*
X5795330Y3337670D01*
X5807330Y3324830D01*
X5815330Y3306500D01*
X5818000Y3290000D01*
X5762000D01*
G01X5905330Y3831670D02*
X5897330Y3842660D01*
X5888000Y3848170D01*
X5877330Y3850000D01*
X5864000Y3846330D01*
X5854670Y3837170D01*
X5852000Y3826170D01*
X5853330Y3815160D01*
X5858670Y3806000D01*
X5885330Y3787670D01*
X5897330Y3774830D01*
X5905330Y3756500D01*
X5908000Y3740000D01*
X5852000D01*
G01X5790000Y3850000D02*
X5800670Y3846330D01*
X5808670Y3837170D01*
X5814000Y3826170D01*
X5818000Y3811500D01*
X5819330Y3795000D01*
X5818000Y3778500D01*
X5814000Y3763830D01*
X5808670Y3752830D01*
X5800670Y3743670D01*
X5790000Y3740000D01*
X5779330Y3743670D01*
X5771330Y3752830D01*
X5766000Y3763830D01*
X5762000Y3778500D01*
X5760670Y3795000D01*
X5762000Y3811500D01*
X5766000Y3826170D01*
X5771330Y3837170D01*
X5779330Y3846330D01*
X5790000Y3850000D01*
G01X5856000Y4050000D02*
Y3940000D01*
G01Y3956500D02*
X5861330Y3947330D01*
X5869330Y3941830D01*
X5878670Y3940000D01*
X5889330Y3943670D01*
X5897330Y3952830D01*
X5902670Y3963830D01*
X5904000Y3976670D01*
X5902670Y3989500D01*
X5897330Y4000500D01*
X5889330Y4009670D01*
X5878670Y4013330D01*
X5869330Y4011500D01*
X5862670Y4007830D01*
X5856000Y4000500D01*
G01X5779330Y3998670D02*
X5774000Y4004170D01*
X5770000Y4013330D01*
X5767330Y4026170D01*
X5770000Y4037170D01*
X5775330Y4044500D01*
X5784670Y4050000D01*
X5820670D01*
Y3940000D01*
X5776670D01*
X5767330Y3947330D01*
X5762000Y3958330D01*
X5759330Y3971170D01*
X5762000Y3984000D01*
X5770000Y3995000D01*
X5779330Y3998670D01*
X5820670D01*
G01X5658000Y4374660D02*
X5647330Y4365500D01*
X5635330Y4360000D01*
X5624670D01*
X5614000Y4365500D01*
X5606000Y4374660D01*
X5602000Y4387500D01*
X5604670Y4400330D01*
X5611330Y4411330D01*
X5623330Y4418670D01*
X5639330Y4422330D01*
X5648670Y4429670D01*
X5652670Y4442500D01*
X5650000Y4455330D01*
X5643330Y4464500D01*
X5634000Y4470000D01*
X5624670D01*
X5615330Y4466330D01*
X5607330Y4457170D01*
G01X5569330Y4360000D02*
Y4470000D01*
X5542670D01*
X5532000Y4464500D01*
X5524000Y4457170D01*
X5517330Y4446170D01*
X5512000Y4433330D01*
X5510670Y4415000D01*
X5512000Y4396670D01*
X5517330Y4383830D01*
X5524000Y4372830D01*
X5532000Y4365500D01*
X5542670Y4360000D01*
X5569330D01*
G01X6443330Y1740000D02*
X6410000Y1850000D01*
X6376670Y1740000D01*
G01X6388670Y1778500D02*
X6431330D01*
G01X6309330Y1798670D02*
X6304000Y1804170D01*
X6300000Y1813330D01*
X6297330Y1826170D01*
X6300000Y1837170D01*
X6305330Y1844500D01*
X6314670Y1850000D01*
X6350670D01*
Y1740000D01*
X6306670D01*
X6297330Y1747330D01*
X6292000Y1758330D01*
X6289330Y1771170D01*
X6292000Y1784000D01*
X6300000Y1795000D01*
X6309330Y1798670D01*
X6350670D01*
G01X6256670Y1850000D02*
Y1740000D01*
X6203330D01*
G01X6113330D02*
X6166670D01*
Y1850000D01*
X6113330D01*
G01X6134670Y1796830D02*
X6166670D01*
G01X6439330Y2060000D02*
Y1981170D01*
X6434000Y1964660D01*
X6423330Y1953670D01*
X6410000Y1950000D01*
X6396670Y1953670D01*
X6386000Y1964660D01*
X6380670Y1981170D01*
Y2060000D01*
G01X6350670Y1950000D02*
Y2060000D01*
X6289330Y1950000D01*
Y2060000D01*
G01X6263330Y1950000D02*
X6230000Y2060000D01*
X6196670Y1950000D01*
G01X6208670Y1988500D02*
X6251330D01*
G01X6129330Y2008670D02*
X6124000Y2014170D01*
X6120000Y2023330D01*
X6117330Y2036170D01*
X6120000Y2047170D01*
X6125330Y2054500D01*
X6134670Y2060000D01*
X6170670D01*
Y1950000D01*
X6126670D01*
X6117330Y1957330D01*
X6112000Y1968330D01*
X6109330Y1981170D01*
X6112000Y1994000D01*
X6120000Y2005000D01*
X6129330Y2008670D01*
X6170670D01*
G01X6076670Y2060000D02*
Y1950000D01*
X6023330D01*
G01X5933330D02*
X5986670D01*
Y2060000D01*
X5933330D01*
G01X5954670Y2006830D02*
X5986670D01*
G01X6420000Y3060000D02*
Y3170000D01*
X6436000Y3148000D01*
G01Y3060000D02*
X6404000D01*
G01X6420000Y3510000D02*
Y3620000D01*
X6436000Y3598000D01*
G01Y3510000D02*
X6404000D01*
G01X6420000Y3400000D02*
X6430670Y3396330D01*
X6438670Y3387170D01*
X6444000Y3376170D01*
X6448000Y3361500D01*
X6449330Y3345000D01*
X6448000Y3328500D01*
X6444000Y3313830D01*
X6438670Y3302830D01*
X6430670Y3293670D01*
X6420000Y3290000D01*
X6409330Y3293670D01*
X6401330Y3302830D01*
X6396000Y3313830D01*
X6392000Y3328500D01*
X6390670Y3345000D01*
X6392000Y3361500D01*
X6396000Y3376170D01*
X6401330Y3387170D01*
X6409330Y3396330D01*
X6420000Y3400000D01*
G01X6422000Y3995000D02*
X6395330D01*
Y3962000D01*
X6403330Y3951000D01*
X6412670Y3943670D01*
X6426000Y3940000D01*
X6439330Y3943670D01*
X6448670Y3951000D01*
X6456670Y3962000D01*
X6462000Y3974830D01*
X6464670Y3989500D01*
Y4002330D01*
X6462000Y4013330D01*
X6456670Y4026170D01*
X6448670Y4037170D01*
X6440670Y4044500D01*
X6430000Y4050000D01*
X6420670D01*
X6410000Y4046330D01*
X6402000Y4039000D01*
G01X6373330Y3940000D02*
X6340000Y4050000D01*
X6306670Y3940000D01*
G01X6318670Y3978500D02*
X6361330D01*
G01X6266000Y4050000D02*
X6234000D01*
G01X6250000D02*
Y3940000D01*
G01X6266000D02*
X6234000D01*
G01X6190670D02*
Y4050000D01*
X6129330Y3940000D01*
Y4050000D01*
G01X6070000D02*
X6080670Y4046330D01*
X6088670Y4037170D01*
X6094000Y4026170D01*
X6098000Y4011500D01*
X6099330Y3995000D01*
X6098000Y3978500D01*
X6094000Y3963830D01*
X6088670Y3952830D01*
X6080670Y3943670D01*
X6070000Y3940000D01*
X6059330Y3943670D01*
X6051330Y3952830D01*
X6046000Y3963830D01*
X6042000Y3978500D01*
X6040670Y3995000D01*
X6042000Y4011500D01*
X6046000Y4026170D01*
X6051330Y4037170D01*
X6059330Y4046330D01*
X6070000Y4050000D01*
G01X6420000Y3850000D02*
X6430670Y3846330D01*
X6438670Y3837170D01*
X6444000Y3826170D01*
X6448000Y3811500D01*
X6449330Y3795000D01*
X6448000Y3778500D01*
X6444000Y3763830D01*
X6438670Y3752830D01*
X6430670Y3743670D01*
X6420000Y3740000D01*
X6409330Y3743670D01*
X6401330Y3752830D01*
X6396000Y3763830D01*
X6392000Y3778500D01*
X6390670Y3795000D01*
X6392000Y3811500D01*
X6396000Y3826170D01*
X6401330Y3837170D01*
X6409330Y3846330D01*
X6420000Y3850000D01*
G01X6870000Y1730000D02*
Y1840000D01*
X6886000Y1818000D01*
G01Y1730000D02*
X6854000D01*
G01X6880000Y2060000D02*
X6890670Y2056330D01*
X6898670Y2047170D01*
X6904000Y2036170D01*
X6908000Y2021500D01*
X6909330Y2005000D01*
X6908000Y1988500D01*
X6904000Y1973830D01*
X6898670Y1962830D01*
X6890670Y1953670D01*
X6880000Y1950000D01*
X6869330Y1953670D01*
X6861330Y1962830D01*
X6856000Y1973830D01*
X6852000Y1988500D01*
X6850670Y2005000D01*
X6852000Y2021500D01*
X6856000Y2036170D01*
X6861330Y2047170D01*
X6869330Y2056330D01*
X6880000Y2060000D01*
G01X6958000Y2194660D02*
X6947330Y2185500D01*
X6935330Y2180000D01*
X6924670D01*
X6914000Y2185500D01*
X6906000Y2194660D01*
X6902000Y2207500D01*
X6904670Y2220330D01*
X6911330Y2231330D01*
X6923330Y2238670D01*
X6939330Y2242330D01*
X6948670Y2249670D01*
X6952670Y2262500D01*
X6950000Y2275330D01*
X6943330Y2284500D01*
X6934000Y2290000D01*
X6924670D01*
X6915330Y2286330D01*
X6907330Y2277170D01*
G01X6869330Y2180000D02*
Y2290000D01*
X6842670D01*
X6832000Y2284500D01*
X6824000Y2277170D01*
X6817330Y2266170D01*
X6812000Y2253330D01*
X6810670Y2235000D01*
X6812000Y2216670D01*
X6817330Y2203830D01*
X6824000Y2192830D01*
X6832000Y2185500D01*
X6842670Y2180000D01*
X6869330D01*
G01X6870000Y2380000D02*
Y2490000D01*
X6886000Y2468000D01*
G01Y2380000D02*
X6854000D01*
G01X6958000Y2844660D02*
X6947330Y2835500D01*
X6935330Y2830000D01*
X6924670D01*
X6914000Y2835500D01*
X6906000Y2844660D01*
X6902000Y2857500D01*
X6904670Y2870330D01*
X6911330Y2881330D01*
X6923330Y2888670D01*
X6939330Y2892330D01*
X6948670Y2899670D01*
X6952670Y2912500D01*
X6950000Y2925330D01*
X6943330Y2934500D01*
X6934000Y2940000D01*
X6924670D01*
X6915330Y2936330D01*
X6907330Y2927170D01*
G01X6840000Y2830000D02*
X6850670Y2831830D01*
X6860000Y2839160D01*
X6868000Y2850170D01*
X6873330Y2863000D01*
X6876000Y2877670D01*
Y2892330D01*
X6873330Y2907000D01*
X6868000Y2919830D01*
X6860000Y2930830D01*
X6850670Y2938170D01*
X6840000Y2940000D01*
X6829330Y2938170D01*
X6820000Y2930830D01*
X6812000Y2919830D01*
X6806670Y2907000D01*
X6804000Y2892330D01*
Y2877670D01*
X6806670Y2863000D01*
X6812000Y2850170D01*
X6820000Y2839160D01*
X6829330Y2831830D01*
X6840000Y2830000D01*
G01X6779330Y2940000D02*
Y2861170D01*
X6774000Y2844660D01*
X6763330Y2833670D01*
X6750000Y2830000D01*
X6736670Y2833670D01*
X6726000Y2844660D01*
X6720670Y2861170D01*
Y2940000D01*
G01X6686670Y2830000D02*
Y2940000D01*
X6653330D01*
X6642670Y2934500D01*
X6636000Y2927170D01*
X6633330Y2912500D01*
X6636000Y2897830D01*
X6644000Y2888670D01*
X6653330Y2883170D01*
X6686670D01*
G01X6653330D02*
X6633330Y2830000D01*
G01X6598000Y2844660D02*
X6587330Y2835500D01*
X6575330Y2830000D01*
X6564670D01*
X6554000Y2835500D01*
X6546000Y2844660D01*
X6542000Y2857500D01*
X6544670Y2870330D01*
X6551330Y2881330D01*
X6563330Y2888670D01*
X6579330Y2892330D01*
X6588670Y2899670D01*
X6592670Y2912500D01*
X6590000Y2925330D01*
X6583330Y2934500D01*
X6574000Y2940000D01*
X6564670D01*
X6555330Y2936330D01*
X6547330Y2927170D01*
G01X6453330Y2830000D02*
X6506670D01*
Y2940000D01*
X6453330D01*
G01X6474670Y2886830D02*
X6506670D01*
G01X6880000Y3050000D02*
Y3160000D01*
X6896000Y3138000D01*
G01Y3050000D02*
X6864000D01*
G01X6880000Y2710000D02*
X6890670Y2706330D01*
X6898670Y2697170D01*
X6904000Y2686170D01*
X6908000Y2671500D01*
X6909330Y2655000D01*
X6908000Y2638500D01*
X6904000Y2623830D01*
X6898670Y2612830D01*
X6890670Y2603670D01*
X6880000Y2600000D01*
X6869330Y2603670D01*
X6861330Y2612830D01*
X6856000Y2623830D01*
X6852000Y2638500D01*
X6850670Y2655000D01*
X6852000Y2671500D01*
X6856000Y2686170D01*
X6861330Y2697170D01*
X6869330Y2706330D01*
X6880000Y2710000D01*
G01Y3610000D02*
X6890670Y3606330D01*
X6898670Y3597170D01*
X6904000Y3586170D01*
X6908000Y3571500D01*
X6909330Y3555000D01*
X6908000Y3538500D01*
X6904000Y3523830D01*
X6898670Y3512830D01*
X6890670Y3503670D01*
X6880000Y3500000D01*
X6869330Y3503670D01*
X6861330Y3512830D01*
X6856000Y3523830D01*
X6852000Y3538500D01*
X6850670Y3555000D01*
X6852000Y3571500D01*
X6856000Y3586170D01*
X6861330Y3597170D01*
X6869330Y3606330D01*
X6880000Y3610000D01*
G01Y3280000D02*
Y3390000D01*
X6896000Y3368000D01*
G01Y3280000D02*
X6864000D01*
G01X6912000Y3995000D02*
X6885330D01*
Y3962000D01*
X6893330Y3951000D01*
X6902670Y3943670D01*
X6916000Y3940000D01*
X6929330Y3943670D01*
X6938670Y3951000D01*
X6946670Y3962000D01*
X6952000Y3974830D01*
X6954670Y3989500D01*
Y4002330D01*
X6952000Y4013330D01*
X6946670Y4026170D01*
X6938670Y4037170D01*
X6930670Y4044500D01*
X6920000Y4050000D01*
X6910670D01*
X6900000Y4046330D01*
X6892000Y4039000D01*
G01X6863330Y3940000D02*
X6830000Y4050000D01*
X6796670Y3940000D01*
G01X6808670Y3978500D02*
X6851330D01*
G01X6756000Y4050000D02*
X6724000D01*
G01X6740000D02*
Y3940000D01*
G01X6756000D02*
X6724000D01*
G01X6680670D02*
Y4050000D01*
X6619330Y3940000D01*
Y4050000D01*
G01X6560000Y3940000D02*
Y4050000D01*
X6576000Y4028000D01*
G01Y3940000D02*
X6544000D01*
G01X6880000Y3840000D02*
X6890670Y3836330D01*
X6898670Y3827170D01*
X6904000Y3816170D01*
X6908000Y3801500D01*
X6909330Y3785000D01*
X6908000Y3768500D01*
X6904000Y3753830D01*
X6898670Y3742830D01*
X6890670Y3733670D01*
X6880000Y3730000D01*
X6869330Y3733670D01*
X6861330Y3742830D01*
X6856000Y3753830D01*
X6852000Y3768500D01*
X6850670Y3785000D01*
X6852000Y3801500D01*
X6856000Y3816170D01*
X6861330Y3827170D01*
X6869330Y3836330D01*
X6880000Y3840000D01*
G01X7343000Y5144660D02*
X7332330Y5135500D01*
X7320330Y5130000D01*
X7309670D01*
X7299000Y5135500D01*
X7291000Y5144660D01*
X7287000Y5157500D01*
X7289670Y5170330D01*
X7296330Y5181330D01*
X7308330Y5188670D01*
X7324330Y5192330D01*
X7333670Y5199670D01*
X7337670Y5212500D01*
X7335000Y5225330D01*
X7328330Y5234500D01*
X7319000Y5240000D01*
X7309670D01*
X7300330Y5236330D01*
X7292330Y5227170D01*
G01X7265000Y5240000D02*
X7246330Y5130000D01*
X7225000Y5240000D01*
X7203670Y5130000D01*
X7185000Y5240000D01*
G01X7135000Y5130000D02*
Y5240000D01*
X7151000Y5218000D01*
G01Y5130000D02*
X7119000D01*
G01X7045000D02*
Y5240000D01*
X7061000Y5218000D01*
G01Y5130000D02*
X7029000D01*
G54D21*
X2945000Y420000D03*
X3645000D03*
X3945000D03*
X3855000Y4970000D03*
X4645000Y420000D03*
X4555000Y4970000D03*
X4985000Y420000D03*
X5685000D03*
X5985000D03*
X7035000D03*
X6685000D03*
X7735000D03*
G54D12*
X473000Y1459000D03*
Y1524000D03*
Y1589000D03*
Y1654000D03*
Y1719000D03*
G54D22*
X3760000Y1010000D03*
Y1510000D03*
Y3910000D03*
Y4410000D03*
G54D13*
X560000Y2080000D03*
X670000D03*
X780000D03*
X890000D03*
Y3430000D03*
X780000D03*
X670000D03*
X560000D03*
X1000000Y2080000D03*
X1110000D03*
X1220000D03*
X1330000D03*
X1440000D03*
Y3430000D03*
X1330000D03*
X1220000D03*
X1110000D03*
X1000000D03*
X1550000Y2080000D03*
X1660000D03*
X1770000D03*
X1880000D03*
X1990000D03*
Y3430000D03*
X1880000D03*
X1770000D03*
X1660000D03*
X1550000D03*
X2100000Y2080000D03*
X2210000D03*
X2320000D03*
Y3430000D03*
X2210000D03*
X2100000D03*
G54D23*
X5370000Y1090000D03*
Y2130000D03*
Y3200000D03*
Y4240000D03*
X7370000Y1090000D03*
Y2130000D03*
Y3200000D03*
Y4240000D03*
X7810000Y1356000D03*
Y1864000D03*
X7820000Y3476000D03*
Y3984000D03*
G54D14*
X1168420Y3806900D03*
G54D24*
X5860000Y4663000D03*
Y4409000D03*
Y5171000D03*
Y4917000D03*
X6840000Y4409000D03*
Y4663000D03*
Y4917000D03*
Y5171000D03*
G54D15*
X848420Y4286900D03*
X1448420D03*
G54D25*
G01X380000Y3280000D02*
X80000D01*
Y3080000D01*
X280000D01*
Y2880000D01*
X80000D01*
Y2680000D01*
X280000D01*
Y2480000D01*
X80000D01*
Y2280000D01*
G54D16*
X780000Y5140000D03*
X1610000D03*
G54D26*
G01X560000Y1270000D02*
G03I-70000J0D01*
G01X1160000D02*
G03I-70000J0D01*
G01X6160000Y5209370D02*
X6158690Y5217160D01*
X6153440Y5223970D01*
X6145570Y5229820D01*
X6136380Y5233710D01*
X6125880Y5235660D01*
X6115380D01*
X6104880Y5233710D01*
X6095690Y5229820D01*
X6087820Y5223970D01*
X6082570Y5217160D01*
X6081260Y5209370D01*
X6082570Y5201580D01*
X6087820Y5194770D01*
X6095690Y5188920D01*
X6104880Y5185030D01*
X6115380Y5183080D01*
X6125880D01*
X6136380Y5185030D01*
X6145570Y5188920D01*
X6153440Y5194770D01*
X6158690Y5201580D01*
X6160000Y5209370D01*
G01Y5153020D02*
X6081260D01*
X6160000Y5108240D01*
X6081260D01*
G01X6610000Y4388320D02*
X6531260D01*
X6587690Y4424340D01*
Y4375660D01*
G01X6594250Y4681420D02*
X6603440Y4675580D01*
X6608690Y4667790D01*
X6610000Y4659030D01*
X6608690Y4651240D01*
X6602130Y4643450D01*
X6594250Y4638580D01*
X6586380Y4637610D01*
X6577190Y4639550D01*
X6570630Y4646370D01*
X6568000Y4653180D01*
Y4661950D01*
G01Y4653180D02*
X6564070Y4647340D01*
X6557510Y4642470D01*
X6549630Y4640530D01*
X6541760Y4642470D01*
X6535200Y4647340D01*
X6531260Y4656110D01*
X6532570Y4664870D01*
X6537820Y4673630D01*
G01X6544380Y4928500D02*
X6536510Y4922660D01*
X6532570Y4915840D01*
X6531260Y4908050D01*
X6533880Y4898320D01*
X6540450Y4891500D01*
X6548320Y4889550D01*
X6556200Y4890530D01*
X6562760Y4894420D01*
X6575880Y4913890D01*
X6585070Y4922660D01*
X6598190Y4928500D01*
X6610000Y4930450D01*
Y4889550D01*
G01Y5160000D02*
X6531260D01*
X6547010Y5171680D01*
G01X6610000D02*
Y5148320D01*
G54D17*
X995000Y5140000D03*
X1195000D03*
X1395000D03*
X2457000Y5130000D03*
X2203000D03*
X3070000Y170000D03*
X2711000Y5130000D03*
X3520000Y170000D03*
X4070000D03*
X3980000Y5220000D03*
X4520000Y170000D03*
X4430000Y5220000D03*
X5110000Y170000D03*
X5560000D03*
X6110000D03*
X6560000D03*
X7160000D03*
X7610000D03*
G54D27*
G01X450000Y1390000D02*
G03I-30000J0D01*
G01Y1790000D02*
G03I-30000J0D01*
G54D18*
X1285000Y330000D03*
X1475000D03*
X2285000D03*
X2475000D03*
G54D28*
G01X2508600Y1428200D02*
X2343500D01*
G01X2546700Y1415500D02*
X2318100D01*
G01X2559400Y1402800D02*
X2305400D01*
G01X2559400Y1390100D02*
X2292700D01*
G01X2572100Y1377400D02*
X2483200D01*
G01X2368900D02*
X2292700D01*
G01X2572100Y1364700D02*
X2508600D01*
G01X2356200D02*
X2292700D01*
G01X2572100Y1352000D02*
X2508600D01*
G01X2356200D02*
X2292700D01*
G01X2572100Y1339300D02*
X2508600D01*
G01X2356200D02*
X2292700D01*
G01X2572100Y1326600D02*
X2508600D01*
G01X2356200D02*
X2292700D01*
G01X2572100Y1313900D02*
X2508600D01*
G01X2356200D02*
X2292700D01*
G01X2572100Y1301200D02*
X2508600D01*
G01X2356200D02*
X2292700D01*
G01X2572100Y1288500D02*
X2508600D01*
G01X2356200D02*
X2292700D01*
G01X2572100Y1275800D02*
X2508600D01*
G01X2356200D02*
X2292700D01*
G01X2572100Y1263100D02*
X2508600D01*
G01X2356200D02*
X2292700D01*
G01X2572100Y1250400D02*
X2508600D01*
G01X2356200D02*
X2292700D01*
G01X2572100Y1237700D02*
X2508600D01*
G01X2356200D02*
X2292700D01*
G01X2572100Y1225000D02*
X2508600D01*
G01X2356200D02*
X2292700D01*
G01X2572100Y1212300D02*
X2508600D01*
G01X2356200D02*
X2292700D01*
G01X2572100Y1199600D02*
X2508600D01*
G01X2356200D02*
X2292700D01*
G01X2572100Y1186900D02*
X2508600D01*
G01X2356200D02*
X2292700D01*
G01X2572100Y1174200D02*
X2508600D01*
G01X2356200D02*
X2292700D01*
G01X3054700Y818600D02*
X3016600D01*
G01X2927700D02*
X2838800D01*
G01X3054700Y805900D02*
X3016600D01*
G01X2953100D02*
X2813400D01*
G01X3054700Y793200D02*
X3029300D01*
G01X2965800D02*
X2902300D01*
G01X2864200D02*
X2800700D01*
G01X3067400Y780500D02*
X3029300D01*
G01X2978500D02*
X2940400D01*
G01X2826100D02*
X2788000D01*
G01X3067400Y767800D02*
X3042000D01*
G01X2991200D02*
X2953100D01*
G01X2813400D02*
X2775300D01*
G01X3080100Y755100D02*
X3042000D01*
G01X2991200D02*
X2953100D01*
G01X2813400D02*
X2775300D01*
G01X3080100Y742400D02*
X3042000D01*
G01X3003900D02*
X2965800D01*
G01X2800700D02*
X2762600D01*
G01X3092800Y729700D02*
X3054700D01*
G01X3003900D02*
X2965800D01*
G01X2800700D02*
X2762600D01*
G01X3092800Y717000D02*
X3054700D01*
G01X3003900D02*
X2762600D01*
G01X3092800Y704300D02*
X3067400D01*
G01X3003900D02*
X2762600D01*
G01X3105500Y691600D02*
X3067400D01*
G01X3003900D02*
X2965800D01*
G01X3105500Y678900D02*
X3067400D01*
G01X3003900D02*
X2965800D01*
G01X3118200Y666200D02*
X3080100D01*
G01X2991200D02*
X2965800D01*
G01X3118200Y653500D02*
X3080100D01*
G01X2991200D02*
X2953100D01*
G01X2813400D02*
X2775300D01*
G01X3118200Y640800D02*
X3092800D01*
G01X2991200D02*
X2940400D01*
G01X2813400D02*
X2775300D01*
G01X3156300Y628100D02*
X3092800D01*
G01X2978500D02*
X2927700D01*
G01X2838800D02*
X2788000D01*
G01X3156300Y615400D02*
X3105500D01*
G01X2965800D02*
X2902300D01*
G01X2876900D02*
X2800700D01*
G01X3156300Y602700D02*
X3105500D01*
G01X2953100D02*
X2813400D01*
G01X2927700Y590000D02*
X2838800D01*
G01X3181700Y1428200D02*
X2991200D01*
G01X2864200D02*
X2686400D01*
G01X3207100Y1415500D02*
X2991200D01*
G01X2889600D02*
X2661000D01*
G01X3219800Y1402800D02*
X2991200D01*
G01X2902300D02*
X2648300D01*
G01X3232500Y1390100D02*
X2991200D01*
G01X2915000D02*
X2635600D01*
G01X2915000Y1377400D02*
X2838800D01*
G01X2711800D02*
X2635600D01*
G01X2915000Y1364700D02*
X2851500D01*
G01X2699100D02*
X2635600D01*
G01X2915000Y1352000D02*
X2851500D01*
G01X2699100D02*
X2635600D01*
G01X2915000Y1339300D02*
X2851500D01*
G01X2699100D02*
X2635600D01*
G01X3232500Y1326600D02*
X3054700D01*
G01X2915000D02*
X2851500D01*
G01X2699100D02*
X2635600D01*
G01X3232500Y1313900D02*
X3003900D01*
G01X2915000D02*
X2851500D01*
G01X2699100D02*
X2635600D01*
G01X3219800Y1301200D02*
X2991200D01*
G01X2915000D02*
X2851500D01*
G01X2699100D02*
X2635600D01*
G01X3207100Y1288500D02*
X2978500D01*
G01X2915000D02*
X2851500D01*
G01X2699100D02*
X2635600D01*
G01X3080100Y1275800D02*
X2978500D01*
G01X2915000D02*
X2851500D01*
G01X2699100D02*
X2635600D01*
G01X3054700Y1263100D02*
X2978500D01*
G01X2915000D02*
X2851500D01*
G01X2699100D02*
X2635600D01*
G01X3042000Y1250400D02*
X2978500D01*
G01X2915000D02*
X2851500D01*
G01X2699100D02*
X2635600D01*
G01X3042000Y1237700D02*
X2978500D01*
G01X2915000D02*
X2851500D01*
G01X2699100D02*
X2635600D01*
G01X3054700Y1225000D02*
X2978500D01*
G01X2915000D02*
X2851500D01*
G01X2699100D02*
X2635600D01*
G01X3232500Y1212300D02*
X2978500D01*
G01X2915000D02*
X2635600D01*
G01X3232500Y1199600D02*
X2978500D01*
G01X2902300D02*
X2648300D01*
G01X3232500Y1186900D02*
X2991200D01*
G01X2902300D02*
X2648300D01*
G01X3232500Y1174200D02*
X3003900D01*
G01X2876900D02*
X2673700D01*
G01X3664300Y894800D02*
X3638900D01*
G01X3575400D02*
X3550000D01*
G01X3664300Y882100D02*
X3638900D01*
G01X3575400D02*
X3550000D01*
G01X3664300Y869400D02*
X3638900D01*
G01X3575400D02*
X3550000D01*
G01X3664300Y856700D02*
X3638900D01*
G01X3575400D02*
X3550000D01*
G01X3664300Y844000D02*
X3638900D01*
G01X3664300Y831300D02*
X3638900D01*
G01X3664300Y818600D02*
X3638900D01*
G01X3575400D02*
X3550000D01*
G01X3423000D02*
X3321400D01*
G01X3232500D02*
X3207100D01*
G01X3664300Y805900D02*
X3638900D01*
G01X3575400D02*
X3550000D01*
G01X3435700D02*
X3308700D01*
G01X3232500D02*
X3194400D01*
G01X3664300Y793200D02*
X3638900D01*
G01X3575400D02*
X3550000D01*
G01X3461100D02*
X3397600D01*
G01X3346800D02*
X3283300D01*
G01X3232500D02*
X3194400D01*
G01X3664300Y780500D02*
X3638900D01*
G01X3575400D02*
X3550000D01*
G01X3473800D02*
X3423000D01*
G01X3321400D02*
X3270600D01*
G01X3219800D02*
X3194400D01*
G01X3664300Y767800D02*
X3638900D01*
G01X3575400D02*
X3550000D01*
G01X3473800D02*
X3435700D01*
G01X3308700D02*
X3270600D01*
G01X3219800D02*
X3181700D01*
G01X3664300Y755100D02*
X3638900D01*
G01X3575400D02*
X3550000D01*
G01X3486500D02*
X3448400D01*
G01X3296000D02*
X3257900D01*
G01X3219800D02*
X3181700D01*
G01X3664300Y742400D02*
X3638900D01*
G01X3575400D02*
X3550000D01*
G01X3486500D02*
X3461100D01*
G01X3283300D02*
X3257900D01*
G01X3207100D02*
X3169000D01*
G01X3664300Y729700D02*
X3638900D01*
G01X3575400D02*
X3550000D01*
G01X3486500D02*
X3461100D01*
G01X3283300D02*
X3257900D01*
G01X3207100D02*
X3169000D01*
G01X3664300Y717000D02*
X3638900D01*
G01X3575400D02*
X3550000D01*
G01X3486500D02*
X3257900D01*
G01X3194400D02*
X3169000D01*
G01X3664300Y704300D02*
X3638900D01*
G01X3575400D02*
X3550000D01*
G01X3499200D02*
X3257900D01*
G01X3194400D02*
X3156300D01*
G01X3664300Y691600D02*
X3638900D01*
G01X3575400D02*
X3550000D01*
G01X3486500D02*
X3448400D01*
G01X3181700D02*
X3156300D01*
G01X3664300Y678900D02*
X3638900D01*
G01X3575400D02*
X3550000D01*
G01X3486500D02*
X3461100D01*
G01X3181700D02*
X3143600D01*
G01X3664300Y666200D02*
X3638900D01*
G01X3575400D02*
X3550000D01*
G01X3486500D02*
X3448400D01*
G01X3181700D02*
X3143600D01*
G01X3664300Y653500D02*
X3638900D01*
G01X3575400D02*
X3550000D01*
G01X3486500D02*
X3448400D01*
G01X3296000D02*
X3257900D01*
G01X3169000D02*
X3130900D01*
G01X3664300Y640800D02*
X3638900D01*
G01X3575400D02*
X3550000D01*
G01X3473800D02*
X3435700D01*
G01X3308700D02*
X3270600D01*
G01X3169000D02*
X3130900D01*
G01X3664300Y628100D02*
X3638900D01*
G01X3575400D02*
X3550000D01*
G01X3461100D02*
X3423000D01*
G01X3321400D02*
X3283300D01*
G01X3664300Y615400D02*
X3638900D01*
G01X3575400D02*
X3550000D01*
G01X3448400D02*
X3384900D01*
G01X3359500D02*
X3296000D01*
G01X3664300Y602700D02*
X3638900D01*
G01X3575400D02*
X3550000D01*
G01X3435700D02*
X3308700D01*
G01X3664300Y590000D02*
X3638900D01*
G01X3562700D02*
X3550000D01*
G01X3410300D02*
X3334100D01*
G01X3143600D02*
X3118200D01*
G01X3778600Y1428200D02*
X3613500D01*
G01X3499200D02*
X3308700D01*
G01X3804000Y1415500D02*
X3613500D01*
G01X3524600D02*
X3296000D01*
G01X3816700Y1402800D02*
X3613500D01*
G01X3537300D02*
X3296000D01*
G01X3829400Y1390100D02*
X3613500D01*
G01X3550000D02*
X3308700D01*
G01X3550000Y1377400D02*
X3473800D01*
G01X3232500D02*
X3156300D01*
G01X3550000Y1364700D02*
X3486500D01*
G01X3232500D02*
X3169000D01*
G01X3550000Y1352000D02*
X3486500D01*
G01X3232500D02*
X3169000D01*
G01X3550000Y1339300D02*
X3473800D01*
G01X3232500D02*
X3169000D01*
G01X3550000Y1326600D02*
X3359500D01*
G01X3537300Y1313900D02*
X3321400D01*
G01X3537300Y1301200D02*
X3308700D01*
G01X3511900Y1288500D02*
X3296000D01*
G01X3384900Y1275800D02*
X3296000D01*
G01X3359500Y1263100D02*
X3296000D01*
G01X3359500Y1250400D02*
X3296000D01*
G01X3359500Y1237700D02*
X3296000D01*
G01X3359500Y1225000D02*
X3296000D01*
G01X3829400Y1212300D02*
X3613500D01*
G01X3550000D02*
X3296000D01*
G01X3829400Y1199600D02*
X3600800D01*
G01X3550000D02*
X3296000D01*
G01X3816700Y1186900D02*
X3600800D01*
G01X3550000D02*
X3308700D01*
G01X3804000Y1174200D02*
X3600800D01*
G01X3550000D02*
X3321400D01*
G01X4172300Y818600D02*
X4083400D01*
G01X3892900D02*
X3791300D01*
G01X4185000Y805900D02*
X4045300D01*
G01X3905600D02*
X3778600D01*
G01X4197700Y793200D02*
X4146900D01*
G01X4096100D02*
X4032600D01*
G01X3918300D02*
X3867500D01*
G01X3816700D02*
X3753200D01*
G01X4248500Y780500D02*
X4172300D01*
G01X4070700D02*
X4019900D01*
G01X3931000D02*
X3892900D01*
G01X3791300D02*
X3740500D01*
G01X4248500Y767800D02*
X4185000D01*
G01X4058000D02*
X4019900D01*
G01X3943700D02*
X3905600D01*
G01X3778600D02*
X3740500D01*
G01X4248500Y755100D02*
X4197700D01*
G01X4045300D02*
X4007200D01*
G01X3956400D02*
X3918300D01*
G01X3765900D02*
X3727800D01*
G01X4032600Y742400D02*
X4007200D01*
G01X3956400D02*
X3918300D01*
G01X3753200D02*
X3727800D01*
G01X4032600Y729700D02*
X3994500D01*
G01X3956400D02*
X3931000D01*
G01X3753200D02*
X3727800D01*
G01X4032600Y717000D02*
X3994500D01*
G01X3956400D02*
X3715100D01*
G01X4032600Y704300D02*
X3994500D01*
G01X3956400D02*
X3715100D01*
G01X4032600Y691600D02*
X3994500D01*
G01X3956400D02*
X3931000D01*
G01X4032600Y678900D02*
X4007200D01*
G01X3956400D02*
X3931000D01*
G01X4248500Y666200D02*
X4197700D01*
G01X4045300D02*
X4007200D01*
G01X3956400D02*
X3918300D01*
G01X4248500Y653500D02*
X4197700D01*
G01X4045300D02*
X4007200D01*
G01X3943700D02*
X3918300D01*
G01X3765900D02*
X3727800D01*
G01X4248500Y640800D02*
X4185000D01*
G01X4058000D02*
X4019900D01*
G01X3943700D02*
X3905600D01*
G01X3778600D02*
X3740500D01*
G01X4248500Y628100D02*
X4172300D01*
G01X4070700D02*
X4032600D01*
G01X3931000D02*
X3892900D01*
G01X3791300D02*
X3740500D01*
G01X4197700Y615400D02*
X4134200D01*
G01X4108800D02*
X4045300D01*
G01X3918300D02*
X3854800D01*
G01X3829400D02*
X3753200D01*
G01X4185000Y602700D02*
X4058000D01*
G01X3905600D02*
X3778600D01*
G01X4159600Y590000D02*
X4083400D01*
G01X3880200D02*
X3804000D01*
G01X4146900Y1428200D02*
X4032600D01*
G01X3969100D02*
X3905600D01*
G01X4185000Y1415500D02*
X4032600D01*
G01X3969100D02*
X3905600D01*
G01X4197700Y1402800D02*
X4032600D01*
G01X3969100D02*
X3905600D01*
G01X4197700Y1390100D02*
X4032600D01*
G01X3969100D02*
X3905600D01*
G01X4197700Y1377400D02*
X4121500D01*
G01X3969100D02*
X3905600D01*
G01X3829400D02*
X3753200D01*
G01X4210400Y1364700D02*
X4134200D01*
G01X3969100D02*
X3905600D01*
G01X3829400D02*
X3765900D01*
G01X4210400Y1352000D02*
X4134200D01*
G01X3969100D02*
X3905600D01*
G01X3842100D02*
X3765900D01*
G01X4210400Y1339300D02*
X4134200D01*
G01X3969100D02*
X3905600D01*
G01X3842100D02*
X3765900D01*
G01X4210400Y1326600D02*
X4134200D01*
G01X3969100D02*
X3905600D01*
G01X3842100D02*
X3765900D01*
G01X4210400Y1313900D02*
X4134200D01*
G01X3969100D02*
X3905600D01*
G01X3842100D02*
X3765900D01*
G01X4210400Y1301200D02*
X4134200D01*
G01X3969100D02*
X3905600D01*
G01X3842100D02*
X3765900D01*
G01X4210400Y1288500D02*
X4134200D01*
G01X3969100D02*
X3905600D01*
G01X3842100D02*
X3765900D01*
G01X4210400Y1275800D02*
X4134200D01*
G01X3969100D02*
X3905600D01*
G01X3842100D02*
X3765900D01*
G01X4210400Y1263100D02*
X4134200D01*
G01X3969100D02*
X3905600D01*
G01X3842100D02*
X3765900D01*
G01X4210400Y1250400D02*
X4134200D01*
G01X3969100D02*
X3905600D01*
G01X3842100D02*
X3765900D01*
G01X4210400Y1237700D02*
X4134200D01*
G01X3969100D02*
X3905600D01*
G01X3842100D02*
X3765900D01*
G01X4210400Y1225000D02*
X4134200D01*
G01X3969100D02*
X3905600D01*
G01X3829400D02*
X3765900D01*
G01X4210400Y1212300D02*
X4134200D01*
G01X3969100D02*
X3905600D01*
G01X4210400Y1199600D02*
X4134200D01*
G01X3969100D02*
X3905600D01*
G01X4210400Y1186900D02*
X4134200D01*
G01X3969100D02*
X3905600D01*
G01X4210400Y1174200D02*
X4134200D01*
G01X3969100D02*
X3905600D01*
G01X3969100Y1517100D02*
X3905600D01*
G01X3969100Y1504400D02*
X3905600D01*
G01X3969100Y1491700D02*
X3905600D01*
G01X3969100Y1479000D02*
X3905600D01*
G01X4248500Y894800D02*
X4210400D01*
G01X4248500Y882100D02*
X4210400D01*
G01X4248500Y869400D02*
X4210400D01*
G01X4248500Y856700D02*
X4210400D01*
G01X4248500Y844000D02*
X4210400D01*
G01X4248500Y831300D02*
X4210400D01*
G01X4781900Y818600D02*
X4743800D01*
G01X4654900D02*
X4566000D01*
G01X4248500D02*
X4210400D01*
G01X4680300Y805900D02*
X4540600D01*
G01X4248500D02*
X4210400D01*
G01X4693000Y793200D02*
X4629500D01*
G01X4578700D02*
X4527900D01*
G01X4248500D02*
X4210400D01*
G01X4705700Y780500D02*
X4654900D01*
G01X4553300D02*
X4502500D01*
G01X4705700Y767800D02*
X4667600D01*
G01X4540600D02*
X4502500D01*
G01X4718400Y755100D02*
X4680300D01*
G01X4527900D02*
X4489800D01*
G01X4718400Y742400D02*
X4693000D01*
G01X4527900D02*
X4489800D01*
G01X4248500D02*
X4210400D01*
G01X4718400Y729700D02*
X4693000D01*
G01X4515200D02*
X4489800D01*
G01X4248500D02*
X4210400D01*
G01X4731100Y717000D02*
X4489800D01*
G01X4248500D02*
X4210400D01*
G01X4731100Y704300D02*
X4489800D01*
G01X4248500D02*
X4210400D01*
G01X4731100Y691600D02*
X4693000D01*
G01X4248500D02*
X4210400D01*
G01X4718400Y678900D02*
X4693000D01*
G01X4248500D02*
X4210400D01*
G01X4718400Y666200D02*
X4693000D01*
G01X4400900D02*
X4337400D01*
G01X4718400Y653500D02*
X4680300D01*
G01X4527900D02*
X4489800D01*
G01X4413600D02*
X4337400D01*
G01X4705700Y640800D02*
X4667600D01*
G01X4540600D02*
X4502500D01*
G01X4413600D02*
X4324700D01*
G01X4693000Y628100D02*
X4654900D01*
G01X4553300D02*
X4515200D01*
G01X4413600D02*
X4324700D01*
G01X4693000Y615400D02*
X4616800D01*
G01X4591400D02*
X4527900D01*
G01X4413600D02*
X4324700D01*
G01X4248500D02*
X4210400D01*
G01X4781900Y602700D02*
X4743800D01*
G01X4667600D02*
X4540600D01*
G01X4413600D02*
X4337400D01*
G01X4248500D02*
X4210400D01*
G01X4769200Y590000D02*
X4743800D01*
G01X4642200D02*
X4566000D01*
G01X4388200D02*
X4350100D01*
G01X4235800D02*
X4223100D01*
G01X4553300Y1466300D02*
X4464400D01*
G01X4566000Y1453600D02*
X4477100D01*
G01X4566000Y1440900D02*
X4489800D01*
G01X4566000Y1428200D02*
X4489800D01*
G01X4566000Y1415500D02*
X4489800D01*
G01X4566000Y1402800D02*
X4489800D01*
G01X4566000Y1390100D02*
X4489800D01*
G01X4566000Y1377400D02*
X4489800D01*
G01X4566000Y1364700D02*
X4286600D01*
G01X4566000Y1352000D02*
X4286600D01*
G01X4566000Y1339300D02*
X4286600D01*
G01X4566000Y1326600D02*
X4286600D01*
G01X4566000Y1313900D02*
X4489800D01*
G01X4566000Y1301200D02*
X4489800D01*
G01X4566000Y1288500D02*
X4489800D01*
G01X4566000Y1275800D02*
X4489800D01*
G01X4566000Y1263100D02*
X4489800D01*
G01X4566000Y1250400D02*
X4489800D01*
G01X4566000Y1237700D02*
X4489800D01*
G01X4566000Y1225000D02*
X4477100D01*
G01X4553300Y1212300D02*
X4273900D01*
G01X4540600Y1199600D02*
X4273900D01*
G01X4527900Y1186900D02*
X4273900D01*
G01X4515200Y1174200D02*
X4261200D01*
G01X4502500Y1517100D02*
X4273900D01*
G01X4527900Y1504400D02*
X4273900D01*
G01X4540600Y1491700D02*
X4273900D01*
G01X4553300Y1479000D02*
X4273900D01*
G01X4921600Y894800D02*
X4883500D01*
G01X4921600Y882100D02*
X4883500D01*
G01X4921600Y869400D02*
X4883500D01*
G01X4921600Y856700D02*
X4883500D01*
G01X4921600Y844000D02*
X4883500D01*
G01X4921600Y831300D02*
X4883500D01*
G01X5150200Y818600D02*
X5061300D01*
G01X5010500D02*
X4985100D01*
G01X4921600D02*
X4883500D01*
G01X5175600Y805900D02*
X5035900D01*
G01X5010500D02*
X4985100D01*
G01X4921600D02*
X4883500D01*
G01X4794600D02*
X4756500D01*
G01X5340700Y793200D02*
X5289900D01*
G01X5188300D02*
X5124800D01*
G01X5074000D02*
X5023200D01*
G01X5010500D02*
X4985100D01*
G01X4921600D02*
X4883500D01*
G01X4807300D02*
X4756500D01*
G01X5328000Y780500D02*
X5277200D01*
G01X5201000D02*
X5150200D01*
G01X5048600D02*
X4985100D01*
G01X4921600D02*
X4883500D01*
G01X4807300D02*
X4769200D01*
G01X5315300Y767800D02*
X5277200D01*
G01X5213700D02*
X5162900D01*
G01X5035900D02*
X4985100D01*
G01X4921600D02*
X4883500D01*
G01X4820000D02*
X4781900D01*
G01X5302600Y755100D02*
X5264500D01*
G01X5213700D02*
X5175600D01*
G01X5023200D02*
X4985100D01*
G01X4921600D02*
X4883500D01*
G01X4832700D02*
X4794600D01*
G01X5302600Y742400D02*
X5264500D01*
G01X5226400D02*
X5188300D01*
G01X5023200D02*
X4985100D01*
G01X4921600D02*
X4883500D01*
G01X4845400D02*
X4794600D01*
G01X5302600Y729700D02*
X5264500D01*
G01X5226400D02*
X5188300D01*
G01X5010500D02*
X4985100D01*
G01X4921600D02*
X4883500D01*
G01X4845400D02*
X4807300D01*
G01X5302600Y717000D02*
X5264500D01*
G01X5226400D02*
X5188300D01*
G01X5010500D02*
X4985100D01*
G01X4921600D02*
X4883500D01*
G01X4858100D02*
X4820000D01*
G01X5302600Y704300D02*
X5264500D01*
G01X5226400D02*
X5188300D01*
G01X5010500D02*
X4985100D01*
G01X4921600D02*
X4883500D01*
G01X4870800D02*
X4820000D01*
G01X5302600Y691600D02*
X5264500D01*
G01X5226400D02*
X5188300D01*
G01X5010500D02*
X4985100D01*
G01X4921600D02*
X4820000D01*
G01X5302600Y678900D02*
X5264500D01*
G01X5226400D02*
X5188300D01*
G01X5010500D02*
X4985100D01*
G01X4921600D02*
X4807300D01*
G01X5302600Y666200D02*
X5264500D01*
G01X5213700D02*
X5188300D01*
G01X5023200D02*
X4985100D01*
G01X4921600D02*
X4858100D01*
G01X4832700D02*
X4794600D01*
G01X5302600Y653500D02*
X5264500D01*
G01X5213700D02*
X5175600D01*
G01X5023200D02*
X4985100D01*
G01X4921600D02*
X4870800D01*
G01X4832700D02*
X4781900D01*
G01X5302600Y640800D02*
X5264500D01*
G01X5213700D02*
X5162900D01*
G01X5035900D02*
X4985100D01*
G01X4921600D02*
X4883500D01*
G01X4820000D02*
X4769200D01*
G01X5302600Y628100D02*
X5264500D01*
G01X5201000D02*
X5150200D01*
G01X5061300D02*
X4985100D01*
G01X4921600D02*
X4883500D01*
G01X4807300D02*
X4769200D01*
G01X5302600Y615400D02*
X5264500D01*
G01X5188300D02*
X5112100D01*
G01X5086700D02*
X5023200D01*
G01X5010500D02*
X4985100D01*
G01X4921600D02*
X4883500D01*
G01X4794600D02*
X4756500D01*
G01X5302600Y602700D02*
X5264500D01*
G01X5162900D02*
X5035900D01*
G01X5010500D02*
X4985100D01*
G01X4921600D02*
X4883500D01*
G01X5289900Y590000D02*
X5277200D01*
G01X5137500D02*
X5061300D01*
G01X4997800D02*
X4985100D01*
G01X4908900D02*
X4896200D01*
G01X5328000Y1428200D02*
X5162900D01*
G01X5353400Y1415500D02*
X5137500D01*
G01X5035900D02*
X4972400D01*
G01X4820000D02*
X4756500D01*
G01X5366100Y1402800D02*
X5124800D01*
G01X5035900D02*
X4972400D01*
G01X4820000D02*
X4756500D01*
G01X5378800Y1390100D02*
X5112100D01*
G01X5035900D02*
X4972400D01*
G01X4820000D02*
X4756500D01*
G01X5188300Y1377400D02*
X5112100D01*
G01X5035900D02*
X4972400D01*
G01X4820000D02*
X4756500D01*
G01X5175600Y1364700D02*
X5099400D01*
G01X5035900D02*
X4972400D01*
G01X4820000D02*
X4756500D01*
G01X5175600Y1352000D02*
X5099400D01*
G01X5035900D02*
X4972400D01*
G01X4820000D02*
X4756500D01*
G01X5175600Y1339300D02*
X5099400D01*
G01X5035900D02*
X4972400D01*
G01X4820000D02*
X4756500D01*
G01X5175600Y1326600D02*
X5099400D01*
G01X5035900D02*
X4972400D01*
G01X4820000D02*
X4756500D01*
G01X5175600Y1313900D02*
X5099400D01*
G01X5035900D02*
X4972400D01*
G01X4820000D02*
X4756500D01*
G01X5175600Y1301200D02*
X5099400D01*
G01X5035900D02*
X4972400D01*
G01X4820000D02*
X4756500D01*
G01X5175600Y1288500D02*
X5099400D01*
G01X5035900D02*
X4972400D01*
G01X4820000D02*
X4756500D01*
G01X5175600Y1275800D02*
X5099400D01*
G01X5035900D02*
X4972400D01*
G01X4820000D02*
X4756500D01*
G01X5175600Y1263100D02*
X5099400D01*
G01X5035900D02*
X4972400D01*
G01X4820000D02*
X4756500D01*
G01X5175600Y1250400D02*
X5099400D01*
G01X5035900D02*
X4972400D01*
G01X4820000D02*
X4756500D01*
G01X5175600Y1237700D02*
X5099400D01*
G01X5035900D02*
X4972400D01*
G01X4820000D02*
X4756500D01*
G01X5175600Y1225000D02*
X5099400D01*
G01X5035900D02*
X4972400D01*
G01X4832700D02*
X4756500D01*
G01X5175600Y1212300D02*
X5099400D01*
G01X5035900D02*
X4756500D01*
G01X5175600Y1199600D02*
X5099400D01*
G01X5035900D02*
X4756500D01*
G01X5175600Y1186900D02*
X5099400D01*
G01X5023200D02*
X4756500D01*
G01X5175600Y1174200D02*
X5099400D01*
G01X4997800D02*
X4756500D01*
G01X4820000Y1161500D02*
X4756500D01*
G01X4820000Y1148800D02*
X4756500D01*
G01X4820000Y1136100D02*
X4756500D01*
G01X4820000Y1123400D02*
X4756500D01*
G01X4845400Y1110700D02*
X4756500D01*
G01X5010500Y1098000D02*
X4769200D01*
G01X5010500Y1085300D02*
X4769200D01*
G01X5010500Y1072600D02*
X4781900D01*
G01X5010500Y1059900D02*
X4832700D01*
G01X5607400Y818600D02*
X5582000D01*
G01X5556600D02*
X5480400D01*
G01X5404200D02*
X5328000D01*
G01X5607400Y805900D02*
X5582000D01*
G01X5569300D02*
X5455000D01*
G01X5416900D02*
X5302600D01*
G01X5607400Y793200D02*
X5531200D01*
G01X5505800D02*
X5442300D01*
G01X5429600D02*
X5378800D01*
G01X5607400Y780500D02*
X5556600D01*
G01X5480400D02*
X5404200D01*
G01X5607400Y767800D02*
X5569300D01*
G01X5467700D02*
X5416900D01*
G01X5607400Y755100D02*
X5582000D01*
G01X5455000D02*
X5416900D01*
G01X5607400Y742400D02*
X5582000D01*
G01X5455000D02*
X5416900D01*
G01X5607400Y729700D02*
X5582000D01*
G01X5455000D02*
X5429600D01*
G01X5607400Y717000D02*
X5582000D01*
G01X5455000D02*
X5429600D01*
G01X5607400Y704300D02*
X5582000D01*
G01X5455000D02*
X5429600D01*
G01X5607400Y691600D02*
X5582000D01*
G01X5455000D02*
X5429600D01*
G01X5607400Y678900D02*
X5582000D01*
G01X5455000D02*
X5429600D01*
G01X5607400Y666200D02*
X5582000D01*
G01X5455000D02*
X5429600D01*
G01X5607400Y653500D02*
X5582000D01*
G01X5455000D02*
X5429600D01*
G01X5607400Y640800D02*
X5582000D01*
G01X5455000D02*
X5429600D01*
G01X5607400Y628100D02*
X5582000D01*
G01X5455000D02*
X5429600D01*
G01X5607400Y615400D02*
X5582000D01*
G01X5455000D02*
X5429600D01*
G01X5607400Y602700D02*
X5582000D01*
G01X5455000D02*
X5429600D01*
G01X5607400Y590000D02*
X5594700D01*
G01X5455000D02*
X5429600D01*
G01X5670900Y1428200D02*
X5505800D01*
G01X5709000Y1415500D02*
X5480400D01*
G01X5721700Y1402800D02*
X5467700D01*
G01X5734400Y1390100D02*
X5455000D01*
G01X5734400Y1377400D02*
X5658200D01*
G01X5531200D02*
X5455000D01*
G01X5378800D02*
X5302600D01*
G01X5734400Y1364700D02*
X5670900D01*
G01X5518500D02*
X5442300D01*
G01X5391500D02*
X5315300D01*
G01X6077300Y1352000D02*
X5823300D01*
G01X5734400D02*
X5670900D01*
G01X5518500D02*
X5442300D01*
G01X5391500D02*
X5315300D01*
G01X6064600Y1339300D02*
X5810600D01*
G01X5734400D02*
X5670900D01*
G01X5518500D02*
X5442300D01*
G01X5391500D02*
X5315300D01*
G01X6039200Y1326600D02*
X5797900D01*
G01X5734400D02*
X5670900D01*
G01X5518500D02*
X5442300D01*
G01X5391500D02*
X5315300D01*
G01X5899500Y1313900D02*
X5797900D01*
G01X5734400D02*
X5670900D01*
G01X5518500D02*
X5442300D01*
G01X5391500D02*
X5315300D01*
G01X5874100Y1301200D02*
X5797900D01*
G01X5734400D02*
X5670900D01*
G01X5518500D02*
X5442300D01*
G01X5391500D02*
X5315300D01*
G01X5861400Y1288500D02*
X5797900D01*
G01X5734400D02*
X5670900D01*
G01X5518500D02*
X5442300D01*
G01X5391500D02*
X5315300D01*
G01X5861400Y1275800D02*
X5797900D01*
G01X5734400D02*
X5670900D01*
G01X5518500D02*
X5442300D01*
G01X5391500D02*
X5315300D01*
G01X5861400Y1263100D02*
X5797900D01*
G01X5734400D02*
X5670900D01*
G01X5518500D02*
X5442300D01*
G01X5391500D02*
X5315300D01*
G01X5861400Y1250400D02*
X5797900D01*
G01X5734400D02*
X5670900D01*
G01X5518500D02*
X5442300D01*
G01X5391500D02*
X5315300D01*
G01X5874100Y1237700D02*
X5797900D01*
G01X5734400D02*
X5670900D01*
G01X5518500D02*
X5442300D01*
G01X5391500D02*
X5315300D01*
G01X5874100Y1225000D02*
X5797900D01*
G01X5734400D02*
X5658200D01*
G01X5518500D02*
X5455000D01*
G01X5391500D02*
X5315300D01*
G01X6077300Y1212300D02*
X5797900D01*
G01X5734400D02*
X5455000D01*
G01X5391500D02*
X5315300D01*
G01X6077300Y1199600D02*
X5810600D01*
G01X5721700D02*
X5455000D01*
G01X5391500D02*
X5315300D01*
G01X6077300Y1186900D02*
X5823300D01*
G01X5709000D02*
X5467700D01*
G01X5391500D02*
X5315300D01*
G01X6077300Y1174200D02*
X5836000D01*
G01X5696300D02*
X5493100D01*
G01X5391500D02*
X5315300D01*
G01X6026500Y1517100D02*
X5810600D01*
G01X6051900Y1504400D02*
X5810600D01*
G01X6064600Y1491700D02*
X5810600D01*
G01X6077300Y1479000D02*
X5810600D01*
G01X6090000Y1466300D02*
X5988400D01*
G01X6090000Y1453600D02*
X6013800D01*
G01X6090000Y1440900D02*
X6013800D01*
G01X6090000Y1428200D02*
X6013800D01*
G01X6090000Y1415500D02*
X6013800D01*
G01X6090000Y1402800D02*
X6013800D01*
G01X6090000Y1390100D02*
X6013800D01*
G01X6090000Y1377400D02*
X6001100D01*
G01X6077300Y1364700D02*
X5848700D01*
G54D19*
X1949000Y5130000D03*
G54D29*
G01X-30000Y1216000D02*
Y1956000D01*
X470000D01*
Y1216000D01*
X-30000D01*
G01X344000D02*
Y1947000D01*
G01X110000Y1390000D02*
Y1790000D01*
X300000D01*
Y1390000D01*
X110000D01*
G01X300000Y1550000D02*
X110000D01*
G01X300000Y1640000D02*
X110000D01*
G01X500000Y3440000D02*
X10000D01*
Y2070000D01*
X500000D01*
G01X460000Y3440000D02*
Y2070000D01*
G01X2530000Y2210000D02*
Y2070000D01*
X2380000D01*
G01X2530000Y3290000D02*
Y3440000D01*
X2380000D01*
G01X5710000Y1680000D02*
X6950000D01*
Y2130000D01*
X5710000D01*
Y1680000D01*
G01X6950000Y1900000D02*
X5710000D01*
G01X6950000Y2550000D02*
X5710000D01*
G01Y2330000D02*
X6950000D01*
Y2780000D01*
X5710000D01*
Y2330000D01*
G01X6950000Y3890000D02*
X5710000D01*
Y3010000D01*
X6950000D01*
Y3890000D01*
G01Y3450000D02*
X5710000D01*
G01X6950000Y3230000D02*
X5710000D01*
G01X6950000Y3680000D02*
X5710000D01*
G01X6350000Y4348000D02*
Y4468000D01*
X6250000D01*
Y4350000D01*
G01X6350000Y4602000D02*
Y4722000D01*
X6250000D01*
Y4610000D01*
G01X6200000Y4720000D02*
X6500000D01*
Y4600000D01*
X6200000D01*
Y4720000D01*
G01Y4470000D02*
X6500000D01*
Y4350000D01*
X6200000D01*
Y4470000D01*
G01X6650000Y5300000D02*
Y4280000D01*
X6050000D01*
Y5300000D01*
X6650000D01*
G01X6350000Y4856000D02*
Y4976000D01*
X6250000D01*
Y4860000D01*
G01Y5230000D02*
X6350000D01*
Y5110000D01*
G01X6200000Y4980000D02*
X6500000D01*
Y4850000D01*
X6200000D01*
Y4980000D01*
G01Y5230000D02*
X6500000D01*
Y5110000D01*
X6200000D01*
Y5230000D01*
X6250000D01*
Y5110000D01*
M02*
