M48
METRIC,TZ
T01C.3048
T02C.4572
T03C.8
T04C.889
T05C.9652
T06C1.524
T07C2.032
T08C3.4036
;LEADER: 12 
;HEADER: 
;CODE  : ASCII 
;FILE  : OPAMP_TEST_V10A-1-2.drl for board E:/GitHub/MBEDBoard/OPAMP_TEST_V10A/PCB/#Taaaack02832.tmp ... layers TOP and BOTTOM
;T01 Holesize 1. = 0.304800 Tolerance = +0.000000/-0.000000 PLATED MM Quantity = 222
;T02 Holesize 2. = 0.457200 Tolerance = +0.000000/-0.000000 PLATED MM Quantity = 15
;T03 Holesize 3. = 0.800000 Tolerance = +0.000000/-0.000000 PLATED MM Quantity = 4
;T04 Holesize 4. = 0.889000 Tolerance = +0.000000/-0.000000 PLATED MM Quantity = 19
;T05 Holesize 5. = 0.965200 Tolerance = +0.000000/-0.000000 PLATED MM Quantity = 4
;T06 Holesize 6. = 1.524000 Tolerance = +0.000000/-0.000000 PLATED MM Quantity = 12
;T07 Holesize 7. = 2.032000 Tolerance = +0.000000/-0.000000 PLATED MM Quantity = 12
;T08 Holesize 8. = 3.403600 Tolerance = +0.000000/-0.000000 PLATED MM Quantity = 4
%
G90
T01
X710000Y770000
X930000Y770000
X700000Y910000
X920000Y910000
X52590Y991310
X700000Y1070000
X920000Y1070000
X960000Y1400000
X52590Y1499310
X850000Y1670000
X850000Y1860000
X990000Y1860000
X52590Y2007310
X390000Y2010000
X930000Y2200000
X950000Y2530000
X930000Y2740000
X640000Y2830000
X930000Y2910000
X930000Y2990000
X620000Y3140000
X925000Y3175000
X630000Y3270000
X52590Y3531310
X670000Y3800000
X52590Y4039310
X180000Y4110000
X180000Y4460000
X710000Y4930000
X1670000Y4930000
X1880000Y3580000
X1780000Y3580000
X2000000Y3570000
X1456200Y3570000
X1900000Y3270000
X1830000Y3270000
X1180000Y3270000
X1190000Y3090000
X2010000Y3080000
X1640000Y3030000
X1650000Y2750000
X1460000Y2750000
X1190000Y2740000
X1570000Y2640000
X1660000Y2600000
X1190000Y2570000
X1650000Y2480000
X1570000Y2290000
X1860000Y2250000
X1190000Y2210000
X1990000Y1940000
X1880000Y1940000
X1770000Y1940000
X1660000Y1940000
X1330000Y1880000
X1110000Y1790000
X1440000Y1710000
X1220000Y1710000
X1030000Y1670000
X2000000Y1650000
X1550000Y1650000
X1440000Y1410000
X1100000Y1400000
X1240000Y1220000
X1390000Y1100000
X1400000Y900000
X1390000Y700000
X1940000Y680000
X1720000Y680000
X1940000Y490000
X1720000Y490000
X1940000Y270000
X1720000Y270000
X2410000Y670000
X2630000Y670000
X2300000Y880000
X2520000Y880000
X2990000Y1080000
X2210000Y1250000
X2730000Y1310000
X2950000Y1310000
X2100000Y1940000
X2090000Y2250000
X2300000Y2420000
X2740000Y2580000
X2250000Y2670000
X2340000Y2825000
X2340000Y2980000
X2050000Y3020000
X2150000Y3020000
X2380000Y3080000
X2570000Y3900000
X2340000Y4150000
X2320000Y4230000
X2450000Y4340000
X2540000Y4340000
X2630000Y4340000
X2720000Y4340000
X2450000Y4430000
X2540000Y4430000
X2630000Y4430000
X2720000Y4430000
X2450000Y4530000
X2540000Y4530000
X2630000Y4530000
X2720000Y4530000
X2450000Y4620000
X2540000Y4620000
X2630000Y4620000
X2720000Y4620000
X2450000Y4710000
X2540000Y4710000
X2630000Y4710000
X2720000Y4710000
X2450000Y4800000
X2540000Y4800000
X2630000Y4800000
X2720000Y4800000
X3040000Y4948400
X3630000Y5080000
X3370000Y5070000
X3620000Y4940000
X3370000Y4930000
X3190000Y4880000
X3250000Y4670000
X3340000Y4660000
X3970000Y4590000
X3570000Y4570000
X3240000Y4570000
X3450000Y4530000
X3990000Y4410000
X3570000Y4330000
X3450000Y4330000
X3580000Y4210000
X3990000Y4200000
X3810000Y4200000
X3460000Y4200000
X4010000Y3690000
X3390000Y3620000
X3230000Y3570000
X3230000Y3470000
X3480000Y3390000
X3460000Y3250000
X3720000Y3200000
X3610000Y3200000
X3720000Y3070000
X3610000Y3070000
X3310000Y2820000
X3220000Y2820000
X3222500Y2677500
X3720000Y2340000
X3610000Y2340000
X3720000Y2220000
X3610000Y2220000
X3440000Y2200000
X3440000Y2080000
X3440000Y1980000
X3440000Y1860000
X3830000Y1800000
X4010000Y1740000
X4000000Y1190000
X3830000Y1190000
X3580000Y1190000
X3450000Y1190000
X4000000Y1090000
X3580000Y1090000
X3450000Y1090000
X3210000Y1080000
X4000000Y990000
X3450000Y990000
X3930000Y890000
X3580000Y890000
X3390000Y820000
X3170000Y820000
X3300000Y80000
X4810000Y70000
X4300000Y160000
X4220000Y880000
X4220000Y1100000
X4220000Y1370000
X4220000Y1590000
X4790000Y3410000
X4790000Y3630000
X4150000Y3910000
X4150000Y4130000
X4250000Y4320000
X4250000Y4540000
X5030000Y4750000
X5030000Y4900000
X4770640Y4950000
X5030000Y5050000
X4670000Y5200000
X5030000Y5200000
X6022400Y3848660
X6022400Y3340660
X6022400Y2832660
X6022400Y2324660
X6022400Y1816660
X6022400Y1308660
X5340000Y90000
X5840000Y70000
X6860000Y70000
X6350000Y100000
X6530400Y1308660
X6530400Y1816660
X6530400Y2324660
X6530400Y2832660
X6530400Y3340660
X6530400Y3848660
X7047000Y4917000
X7030000Y5170000
X7880000Y2650000
X7880000Y2430000
X7340000Y100000
X7850000Y70000
X8442590Y1021310
X8442590Y1529310
X8442590Y2037310
X8442590Y2545310
X8442590Y3053310
X8442590Y3561310
X8442590Y4069310
T02
X3670000Y2460000
X3760000Y2460000
X3670000Y2590000
X3760000Y2590000
X3670000Y2710000
X3760000Y2710000
X3670000Y2840000
X3760000Y2840000
X3670000Y2960000
X3760000Y2960000
X3850000Y2960000
X3850000Y2840000
X3850000Y2710000
X3850000Y2590000
X3850000Y2460000
T03
X1285000Y330000
X1475000Y330000
X2285000Y330000
X2475000Y330000
T04
X3070000Y170000
X3520000Y170000
X4070000Y170000
X4520000Y170000
X5110000Y170000
X5560000Y170000
X6110000Y170000
X6560000Y170000
X7160000Y170000
X7610000Y170000
X4430000Y5220000
X3980000Y5220000
X2711000Y5130000
X2457000Y5130000
X2203000Y5130000
X1949000Y5130000
X1395000Y5140000
X1195000Y5140000
X995000Y5140000
T05
X3760000Y1010000
X3760000Y1510000
X3760000Y3910000
X3760000Y4410000
T06
X2945000Y420000
X3645000Y420000
X3945000Y420000
X4645000Y420000
X4985000Y420000
X5685000Y420000
X5985000Y420000
X6685000Y420000
X7035000Y420000
X7735000Y420000
X4555000Y4970000
X3855000Y4970000
T07
X5370000Y1090000
X5370000Y2130000
X5370000Y3200000
X5370000Y4240000
X7370000Y4240000
X7820000Y3984000
X7820000Y3476000
X7370000Y3200000
X7370000Y2130000
X7810000Y1864000
X7810000Y1356000
X7370000Y1090000
T08
X320000Y320000
X320000Y5080000
X8240000Y5080000
X8240000Y320000
M30
