G04 ================== begin FILE IDENTIFICATION RECORD ==================*
G04 Layout Name:  E:/GitHub/MBEDBoard/OPAMP_TEST_V10A/PCB/OPAMP_TEST_V10A.brd*
G04 Film Name:    SolderMask_Top*
G04 File Format:  Gerber RS274X*
G04 File Origin:  Cadence Allegro 16.6-2015-S082*
G04 Origin Date:  Wed May 10 21:03:18 2017*
G04 *
G04 Layer:  BOARD GEOMETRY/OUTLINE*
G04 Layer:  PIN/SOLDERMASK_TOP*
G04 Layer:  PACKAGE GEOMETRY/SOLDERMASK_TOP*
G04 Layer:  BOARD GEOMETRY/SOLDERMASK_TOP*
G04 *
G04 Offset:    (0.0000 0.0000)*
G04 Mirror:    No*
G04 Mode:      Positive*
G04 Rotation:  0*
G04 FullContactRelief:  No*
G04 UndefLineWidth:     0.1524*
G04 ================== end FILE IDENTIFICATION RECORD ====================*
%FSLAX55Y55*MOMM*%
%IR0*IPPOS*OFA0.00000B0.00000*MIA0B0*SFA1.00000B1.00000*%
%ADD31R,1.7X.35*%
%ADD14R,1.16X.75*%
%ADD15R,.9144X.9144*%
%ADD18O,1.6X3.1*%
%ADD24R,5.1X5.1*%
%ADD25R,1.5X1.6*%
%ADD16O,4.15X2.15*%
%ADD30R,2.6X6.1*%
%ADD17O,2.15X4.15*%
%ADD13R,1.6X3.6*%
%ADD32R,1.9X1.7*%
%ADD22R,1.9X2.6*%
%ADD21R,1.7X1.9*%
%ADD12C,1.016*%
%ADD28C,2.54*%
%ADD27R,1.46X1.77*%
%ADD10C,6.35*%
%ADD19C,1.905*%
%ADD11R,1.2192X1.4224*%
%ADD33C,3.175*%
%ADD23R,1.397X2.54*%
%ADD20C,1.397*%
%ADD26R,1.905X1.905*%
%ADD29R,1.2954X1.2954*%
%ADD34C,.2032*%
%ADD35C,.17*%
%ADD36C,.1524*%
G75*
%LPD*%
G75*
G36*
G01X1000000Y330000D02*
G03I-150000J0D01*
G37*
G36*
G01X7710000Y5100000D02*
G03I-150000J0D01*
G37*
G54D10*
X320000Y320000D03*
Y5080000D03*
X8240000Y320000D03*
Y5080000D03*
G54D20*
X1285000Y330000D03*
X1475000D03*
X2285000D03*
X2475000D03*
G54D11*
X411600Y3690000D03*
X208400D03*
X411600Y3490000D03*
X208400D03*
G54D12*
X850000Y330000D03*
X7560000Y5100000D03*
G54D21*
X2102240Y2540000D03*
X1817760D03*
X2102240Y2810000D03*
X1817760D03*
X2617760Y1540000D03*
X2616060Y1813530D03*
X2597760Y2710000D03*
Y2980000D03*
X2902240Y1540000D03*
X2900540Y1813530D03*
X2882240Y2710000D03*
Y2980000D03*
G54D30*
X3760000Y2710000D03*
G54D22*
X1670000Y3280000D03*
X2250000D03*
G54D13*
X490000Y890000D03*
X690000Y1650000D03*
X1190000Y890000D03*
G54D31*
X3440000Y2287500D03*
Y2352500D03*
Y2417500D03*
Y2482500D03*
Y2547500D03*
Y2612500D03*
Y2677500D03*
Y2742500D03*
Y2807500D03*
Y2872500D03*
Y2937500D03*
Y3002500D03*
Y3067500D03*
Y3132500D03*
X4080000Y2547500D03*
Y2482500D03*
Y2417500D03*
Y2352500D03*
Y2287500D03*
Y3067500D03*
Y3002500D03*
Y2937500D03*
Y2872500D03*
Y2807500D03*
Y2742500D03*
Y2677500D03*
Y2612500D03*
Y3132500D03*
G54D23*
X1804900Y3770000D03*
X1794900Y4110000D03*
X2135100Y3770000D03*
X2125100Y4110000D03*
G54D32*
X5040000Y827760D03*
Y1112240D03*
X5030000Y2137760D03*
Y2422240D03*
X5040000Y2917760D03*
Y3202240D03*
X5030000Y4237760D03*
Y4522240D03*
G54D14*
X794600Y2475000D03*
Y2570000D03*
Y2115000D03*
Y2210000D03*
Y2305000D03*
Y2665000D03*
Y2825000D03*
Y2920000D03*
Y3015000D03*
Y3175000D03*
Y3270000D03*
Y3365000D03*
X1065400Y2570000D03*
Y2475000D03*
Y2210000D03*
Y2305000D03*
Y2115000D03*
Y2665000D03*
Y2920000D03*
Y3015000D03*
Y2825000D03*
Y3270000D03*
Y3365000D03*
Y3175000D03*
X2414600Y3940000D03*
Y3845000D03*
Y4035000D03*
X2685400D03*
Y3940000D03*
Y3845000D03*
G54D33*
X5370000Y1090000D03*
Y2130000D03*
Y3200000D03*
Y4240000D03*
X7370000Y1090000D03*
Y2130000D03*
Y3200000D03*
Y4240000D03*
X7810000Y1356000D03*
Y1864000D03*
X7820000Y3476000D03*
Y3984000D03*
G54D24*
X2120000Y4575000D03*
G54D15*
X736200Y3690000D03*
X583800D03*
X736200Y3490000D03*
X583800D03*
X1323800Y2140000D03*
X1476200D03*
X1313800Y2510000D03*
X1466200D03*
X1313800Y2290000D03*
X1466200D03*
X1303800Y2850000D03*
X1456200D03*
X1303800Y3000000D03*
X1456200D03*
X1313800Y2640000D03*
X1466200D03*
X1303800Y3200000D03*
X1456200D03*
X1303800Y3350000D03*
X1456200D03*
X1923800Y950000D03*
X1696200D03*
X1543800D03*
X1696200Y1100000D03*
X1543800D03*
X1923800D03*
Y1250000D03*
X1543800D03*
X1696200D03*
X1923800Y1400000D03*
X1543800D03*
X1696200D03*
Y1550000D03*
X1543800D03*
X1923800D03*
X2076200Y950000D03*
Y1100000D03*
Y1250000D03*
Y1400000D03*
Y1550000D03*
X2453800Y2020000D03*
X2606200D03*
Y2350000D03*
X2453800D03*
X2606200Y2170000D03*
X2453800D03*
Y2500000D03*
X2606200D03*
X2473800Y3670000D03*
Y4210000D03*
X2783800Y2020000D03*
X2936200D03*
Y2170000D03*
X2783800D03*
X2626200Y3670000D03*
X3016200D03*
X2863800D03*
X2763800Y3200000D03*
X2916200D03*
X2863800Y3820000D03*
X3016200D03*
X2626200Y4210000D03*
X3033800Y5050000D03*
Y5200000D03*
X3186200Y5050000D03*
Y5200000D03*
X4093800Y1930000D03*
X4246200D03*
X4093800Y2080000D03*
X4246200D03*
X4083800Y3490000D03*
X4236200D03*
X4083800Y3340000D03*
X4236200D03*
X4773800Y5200000D03*
Y5050000D03*
X4960000Y1353800D03*
Y1506200D03*
X5110000D03*
Y1353800D03*
X4960000Y1866200D03*
Y1713800D03*
X5110000D03*
Y1866200D03*
X4960000Y3463800D03*
Y3616200D03*
X5110000D03*
Y3463800D03*
X4960000Y3976200D03*
Y3823800D03*
X5110000D03*
Y3976200D03*
X5286200Y4750000D03*
X5133800D03*
X4926200Y5200000D03*
Y5050000D03*
X5286200Y5200000D03*
X5133800D03*
X5286200Y5050000D03*
X5133800D03*
X5286200Y4900000D03*
X5133800D03*
X7470000Y806200D03*
Y653800D03*
Y2413800D03*
Y2566200D03*
Y2773800D03*
Y2926200D03*
Y4676200D03*
Y4523800D03*
G54D34*
G01X560000Y1270000D02*
G03I-70000J0D01*
G01X1160000D02*
G03I-70000J0D01*
G54D16*
X1168420Y3806900D03*
G54D25*
X1735000Y4476000D03*
Y4684000D03*
G54D35*
G01X450000Y1390000D02*
G03I-30000J0D01*
G01Y1790000D02*
G03I-30000J0D01*
G54D26*
X1949000Y5130000D03*
G54D17*
X848420Y4286900D03*
X1448420D03*
G54D36*
G01X318000Y0D02*
X8242000D01*
G03X8560000Y318000I0J318000D01*
G01Y5082000D01*
G03X8242000Y5400000I-318000J0D01*
G01X318000D01*
G03X0Y5082000I0J-318000D01*
G01Y318000D01*
G03X318000Y0I318000J0D01*
G54D27*
X2493500Y3430000D03*
X2886500D03*
G54D18*
X780000Y5140000D03*
X1610000D03*
G54D19*
X995000D03*
X1195000D03*
X1395000D03*
X2457000Y5130000D03*
X2203000D03*
X3070000Y170000D03*
X2711000Y5130000D03*
X3520000Y170000D03*
X4070000D03*
X3980000Y5220000D03*
X4520000Y170000D03*
X4430000Y5220000D03*
X5110000Y170000D03*
X5560000D03*
X6110000D03*
X6560000D03*
X7160000D03*
X7610000D03*
G54D28*
X2945000Y420000D03*
X3645000D03*
X3760000Y1010000D03*
Y1510000D03*
Y3910000D03*
Y4410000D03*
X3945000Y420000D03*
X3855000Y4970000D03*
X4645000Y420000D03*
X4555000Y4970000D03*
X4985000Y420000D03*
X5685000D03*
X5985000D03*
X7035000D03*
X6685000D03*
X7735000D03*
G54D29*
X3665860Y2060000D03*
X3655860Y3360000D03*
X3874140Y2060000D03*
X3864140Y3360000D03*
M02*
