G04 ================== begin FILE IDENTIFICATION RECORD ==================*
G04 Layout Name:  H:/MBEDBoard/TPA311X_TEST_V10A/PCB/TPA311X_TEST_V10A.brd*
G04 Film Name:    SolderMask_Bottom*
G04 File Format:  Gerber RS274X*
G04 File Origin:  Cadence Allegro 17.2-S058*
G04 Origin Date:  Fri Mar 06 18:50:16 2020*
G04 *
G04 Layer:  BOARD GEOMETRY/OUTLINE*
G04 Layer:  PIN/SOLDERMASK_BOTTOM*
G04 Layer:  PACKAGE GEOMETRY/SOLDERMASK_BOTTOM*
G04 Layer:  BOARD GEOMETRY/SOLDERMASK_BOTTOM*
G04 *
G04 Offset:    (0.0000 0.0000)*
G04 Mirror:    No*
G04 Mode:      Positive*
G04 Rotation:  0*
G04 FullContactRelief:  No*
G04 UndefLineWidth:     0.1524*
G04 ================== end FILE IDENTIFICATION RECORD ====================*
%FSLAX55Y55*MOMM*%
%IR0*IPPOS*OFA0.00000B0.00000*MIA0B0*SFA1.00000B1.00000*%
%ADD17R,1.6X.7*%
%ADD14R,.9X.9*%
%ADD19R,2.5X3.2*%
%ADD18R,5.1X5.1*%
%ADD20R,1.5X1.6*%
%ADD23C,3.1*%
%ADD21C,2.2*%
%ADD22R,1.7X2.8*%
%ADD15C,1.4*%
%ADD25C,2.032*%
%ADD10C,7.*%
%ADD16C,2.6*%
%ADD24C,1.9*%
%ADD13C,1.75*%
%ADD11R,3.65X2.65*%
%ADD12R,1.7X1.7*%
%ADD26C,.1*%
G75*
%LPD*%
G75*
G54D10*
X360000Y360000D03*
X370000Y8870000D03*
Y14440000D03*
X7340000Y360000D03*
Y8870000D03*
Y14440000D03*
G54D11*
X910000Y6498400D03*
Y7538400D03*
G54D20*
X2115000Y6816000D03*
Y7024000D03*
G54D12*
X470000Y10280000D03*
Y11588950D03*
Y12880000D03*
X1895000Y360000D03*
X7240000Y9825000D03*
Y11205000D03*
Y13075000D03*
G54D21*
X2965000Y460000D03*
X3715000Y360000D03*
G54D13*
X470000Y10780000D03*
Y10530000D03*
Y11838950D03*
Y12088950D03*
Y13380000D03*
Y13130000D03*
X1645000Y360000D03*
X7240000Y9575000D03*
Y10955000D03*
Y12325000D03*
Y12575000D03*
Y12825000D03*
G54D22*
X2850000Y6750000D03*
Y6400000D03*
Y7090000D03*
Y7430000D03*
X3130000Y6750000D03*
Y6400000D03*
Y7090000D03*
Y7430000D03*
G54D23*
X4120000Y9200000D03*
Y10200000D03*
Y11200000D03*
Y12200000D03*
Y13200000D03*
Y14200000D03*
X6120000Y9200000D03*
Y10200000D03*
Y11200000D03*
Y12200000D03*
Y13200000D03*
Y14200000D03*
G54D14*
X1073800Y6000000D03*
X1226200D03*
X1393800D03*
X1073800Y6170000D03*
X1226200D03*
X1393800Y6320000D03*
Y6170000D03*
X1546200Y6000000D03*
Y6320000D03*
Y6170000D03*
X1883800Y7350000D03*
X2310000Y6703800D03*
Y6856200D03*
X2036200Y7350000D03*
X2493800Y6080000D03*
X2646200D03*
X2493800Y5930000D03*
X2646200D03*
Y6230000D03*
X2493800D03*
G54D24*
X3610000Y10950000D03*
Y11450000D03*
Y13850000D03*
Y14350000D03*
G54D15*
X1400000Y8870000D03*
X1700000D03*
X3500000D03*
X3800000D03*
G54D16*
X1818000Y1455000D03*
Y7805000D03*
X2834000D03*
X3850000Y1455000D03*
Y7805000D03*
X4866000Y1455000D03*
Y7805000D03*
X5882000D03*
G54D25*
X4782540Y410000D03*
X5280000D03*
G54D26*
G01X360240Y0D02*
X7340000D01*
G03X7700000Y360000I0J360000D01*
G01Y14440000D01*
G03X7340000Y14800000I-360000J0D01*
G01X369760D01*
G03X9760Y14440240I-1J-359999D01*
G01X240Y360240D01*
G03X360240Y0I360001J-239D01*
G54D17*
X1770000Y6117400D03*
Y6498400D03*
Y6371400D03*
Y6244400D03*
X2310000Y6117400D03*
Y6244400D03*
Y6371400D03*
Y6498400D03*
G54D18*
X1730000Y6915000D03*
G54D19*
X2040000Y6308400D03*
M02*
