M48
METRIC,TZ
T01C.3048
T02C.8
T03C.9
T04C1.
T05C1.016
T06C1.8
T07C2.
T08C3.1
;LEADER: 12 
;HEADER: 
;CODE  : ASCII 
;FILE  : TPA311X_TEST_V10A-1-2.drl for board H:/MBEDBoard/TPA311X_TEST_V10A/PCB/#Taaaagc12020.tmp ... layers TOP and BOTTOM
;T01 Holesize 1. = 0.304800 Tolerance = +0.000000/-0.000000 PLATED MM Quantity = 362
;T02 Holesize 2. = 0.800000 Tolerance = +0.000000/-0.000000 PLATED MM Quantity = 4
;T03 Holesize 3. = 0.900000 Tolerance = +0.000000/-0.000000 PLATED MM Quantity = 11
;T04 Holesize 4. = 1.000000 Tolerance = +0.000000/-0.000000 PLATED MM Quantity = 14
;T05 Holesize 5. = 1.016000 Tolerance = +0.000000/-0.000000 PLATED MM Quantity = 2
;T06 Holesize 6. = 1.800000 Tolerance = +0.000000/-0.000000 PLATED MM Quantity = 8
;T07 Holesize 7. = 2.000000 Tolerance = +0.000000/-0.000000 PLATED MM Quantity = 12
;T08 Holesize 8. = 3.100000 Tolerance = +0.000000/-0.000000 PLATED MM Quantity = 6
%
G90
T01
X190000Y5870000
X190000Y6330000
X200000Y6850000
X200000Y7310000
X200000Y7770000
X210000Y8290000
X300000Y9380000
X130000Y9550000
X360000Y9660000
X270000Y9820000
X270000Y10020000
X270000Y10230000
X400000Y10950000
X400000Y11150000
X400000Y11360000
X260000Y11660000
X260000Y11860000
X260000Y12070000
X260000Y12290000
X260000Y12490000
X260000Y12700000
X110000Y12930000
X280000Y13130000
X980000Y13270000
X860000Y13270000
X750000Y13270000
X630000Y13270000
X980000Y13010000
X860000Y13010000
X750000Y13010000
X630000Y13010000
X520000Y12680000
X730000Y12660000
X520000Y12470000
X730000Y12450000
X520000Y12270000
X730000Y12250000
X980000Y12170000
X820000Y12090000
X980000Y11940000
X650000Y11890000
X830000Y11820000
X780000Y11650000
X780000Y11460000
X600000Y11370000
X780000Y11250000
X600000Y11160000
X780000Y11050000
X600000Y10960000
X780000Y10860000
X720000Y10600000
X720000Y10420000
X800000Y10150000
X610000Y10100000
X600000Y9870000
X820000Y9860000
X680000Y9670000
X520000Y9510000
X770000Y9500000
X600000Y9300000
X950000Y9280000
X600000Y7990000
X600000Y7650000
X590000Y7150000
X580000Y6630000
X950000Y6170000
X580000Y6170000
X1270000Y6320000
X1386200Y6856200
X1120000Y8780000
X1240000Y8780000
X1120000Y8890000
X1240000Y8891600
X1120000Y9010000
X1240000Y9010000
X1370000Y9010000
X1490000Y9010000
X1120000Y9120000
X1240000Y9121600
X1370000Y9120000
X1490000Y9121600
X1400000Y9380000
X1270000Y9381600
X1520000Y9381600
X1200000Y9732500
X1200000Y9880000
X1303710Y10874290
X1303710Y11274290
X1100000Y11940000
X1230000Y11940000
X1350000Y11940000
X1490000Y11940000
X1100000Y12170000
X1230000Y12170000
X1350000Y12170000
X1490000Y12170000
X1200000Y12350000
X1200000Y12490000
X1110000Y13010000
X1230000Y13010000
X1360000Y13010000
X1480000Y13010000
X1110000Y13270000
X1230000Y13270000
X1360000Y13270000
X1480000Y13270000
X1123710Y13942650
X1324180Y14314940
X1724180Y14314940
X1923710Y13942650
X1523710Y13942650
X1637000Y13400000
X1900000Y13270000
X1780000Y13270000
X1900000Y13010000
X1780000Y13010000
X1637000Y12953000
X1910000Y12590000
X1770000Y12590000
X1930000Y12330000
X1860000Y11940000
X1740000Y11940000
X1610000Y11940000
X1703710Y11274290
X1703710Y10874290
X1910000Y9600000
X1790000Y9600000
X1660000Y9600000
X1910000Y9490000
X1790000Y9490000
X1660000Y9490000
X1910000Y9380000
X1790000Y9380000
X1660000Y9380000
X1880000Y9121600
X1760000Y9120000
X1630000Y9121600
X1980000Y9080000
X1960000Y6420000
X1960000Y6310000
X1960000Y6200000
X1960000Y6010000
X1960000Y5920000
X1960000Y5830000
X2040000Y5830000
X2120000Y5830000
X2040000Y5920000
X2120000Y5920000
X2040000Y6010000
X2120000Y6010000
X2040000Y6200000
X2120000Y6200000
X2040000Y6308400
X2120000Y6310000
X2040000Y6420000
X2120000Y6420000
X2080000Y6568400
X2160000Y6570000
X2080000Y6680000
X2160000Y6680000
X2433800Y6856200
X2280000Y6998400
X2400000Y7000000
X2280000Y7110000
X2400000Y7110000
X2170000Y7298400
X2290000Y7300000
X2170000Y7410000
X2290000Y7410000
X2170000Y7528400
X2290000Y7530000
X2170000Y7640000
X2290000Y7640000
X2170000Y7768400
X2290000Y7770000
X2170000Y7880000
X2290000Y7880000
X2170000Y8008400
X2290000Y8010000
X2170000Y8120000
X2290000Y8120000
X2390000Y9735000
X2390000Y9840000
X2390000Y9940000
X2103710Y10874290
X2503710Y10874290
X2103710Y11274290
X2503710Y11274290
X2440000Y11960000
X2440000Y12070000
X2370000Y12602500
X2370000Y12790000
X2370000Y12870000
X2150000Y13310000
X2270000Y13310000
X2323710Y13942650
X2124180Y14314940
X2950000Y13870000
X2830000Y13870000
X2950000Y13760000
X2830000Y13760000
X2950000Y13640000
X2830000Y13640000
X2950000Y13530000
X2830000Y13530000
X2940000Y13210000
X2820000Y13210000
X2940000Y13100000
X2820000Y13100000
X2940000Y12931600
X2820000Y12930000
X2940000Y12820000
X2820000Y12820000
X2940000Y12701600
X2820000Y12700000
X2940000Y12590000
X2820000Y12590000
X2940000Y12480000
X2820000Y12480000
X2940000Y12310000
X2820000Y12310000
X2940000Y12200000
X2820000Y12200000
X2820000Y12070000
X2700000Y12070000
X2560000Y12070000
X2820000Y11960000
X2700000Y11960000
X2560000Y11960000
X2940000Y10210000
X2820000Y10210000
X2940000Y10100000
X2820000Y10100000
X2940000Y9931600
X2820000Y9930000
X2940000Y9820000
X2820000Y9820000
X2940000Y9701600
X2820000Y9700000
X2940000Y9590000
X2820000Y9590000
X2940000Y9480000
X2820000Y9480000
X2940000Y9310000
X2820000Y9310000
X2940000Y9200000
X2820000Y9200000
X2940000Y9070000
X2820000Y9070000
X2680000Y9070000
X2560000Y9070000
X3040000Y6190000
X3130000Y6190000
X3220000Y6190000
X3320000Y6290000
X3320000Y6380000
X3320000Y6470000
X3320000Y6560000
X3320000Y6650000
X3320000Y6740000
X3320000Y6840000
X3320000Y6930000
X3320000Y7020000
X3320000Y7110000
X3320000Y7200000
X3320000Y7290000
X3320000Y7380000
X3320000Y7470000
X3320000Y7560000
X3070000Y7640000
X3160000Y7640000
X3250000Y7640000
X3530000Y9360000
X3530000Y10030000
X3550000Y14070000
X3550000Y14180000
X3300000Y14290000
X3420000Y14290000
X3300000Y14400000
X3420000Y14401600
X3300000Y14520000
X3420000Y14520000
X3550000Y14520000
X3300000Y14630000
X3420000Y14631600
X3550000Y14630000
X3670000Y14631600
X3670000Y14520000
X3790000Y14411600
X3790000Y14300000
X3670000Y14181600
X3670000Y14070000
X3900000Y11780000
X3780000Y11780000
X3900000Y11670000
X3780000Y11670000
X3900000Y11540000
X3780000Y11540000
X3900000Y11430000
X3780000Y11430000
X3900000Y11270000
X3780000Y11270000
X3900000Y11160000
X3780000Y11160000
X3910000Y11020000
X3790000Y11020000
X3910000Y10910000
X3790000Y10910000
X3838800Y9788800
X3836200Y9616200
X3980000Y8910000
X3980000Y8798400
X3980000Y8680000
X3850000Y8680000
X3730000Y8680000
X3850000Y8570000
X3980000Y8568400
X3730000Y8568400
X3578420Y7230380
X3578420Y6830380
X3578420Y6430380
X3578420Y6030380
X4100000Y8570000
X4100000Y8680000
X4100000Y8800000
X4100000Y8910000
X4617540Y9082360
X5017540Y9082360
X4617540Y9482360
X5017540Y9482360
X4617540Y9882360
X5017540Y9882360
X4642100Y11136120
X5042100Y11136120
X4642100Y11536120
X5042100Y11536120
X4642100Y11936120
X5042100Y11936120
X4642100Y12336120
X5042100Y12336120
X4642100Y12736120
X5042100Y12736120
X4642100Y13136120
X5042100Y13136120
X4642100Y13536120
X5042100Y13536120
X4642100Y13936120
X5042100Y13936120
X4642100Y14336120
X5042100Y14336120
X5442100Y14336120
X5442100Y13936120
X5442100Y13536120
X5442100Y13136120
X5442100Y12736120
X5442100Y12336120
X5442100Y11936120
X5442100Y11536120
X5442100Y11136120
X5417540Y9882360
X5417540Y9482360
X5417540Y9082360
T02
X1400000Y8870000
X1700000Y8870000
X3500000Y8870000
X3800000Y8870000
T03
X1895000Y360000
X470000Y10280000
X470000Y11588950
X470000Y12880000
X3610000Y14350000
X3610000Y13850000
X3610000Y11450000
X3610000Y10950000
X7240000Y9825000
X7240000Y11205000
X7240000Y13075000
T04
X470000Y13380000
X470000Y13130000
X470000Y12088950
X470000Y11838950
X470000Y10780000
X470000Y10530000
X1645000Y360000
X2965000Y460000
X3715000Y360000
X7240000Y9575000
X7240000Y10955000
X7240000Y12325000
X7240000Y12575000
X7240000Y12825000
T05
X4782540Y410000
X5280000Y410000
T06
X1818000Y1455000
X3850000Y1455000
X4866000Y1455000
X5882000Y7805000
X4866000Y7805000
X3850000Y7805000
X2834000Y7805000
X1818000Y7805000
T07
X4120000Y9200000
X4120000Y10200000
X4120000Y11200000
X4120000Y12200000
X4120000Y13200000
X4120000Y14200000
X6120000Y14200000
X6120000Y13200000
X6120000Y12200000
X6120000Y11200000
X6120000Y10200000
X6120000Y9200000
T08
X360000Y360000
X7340000Y360000
X7340000Y8870000
X370000Y8870000
X370000Y14440000
X7340000Y14440000
M30
