G04 ================== begin FILE IDENTIFICATION RECORD ==================*
G04 Layout Name:  G:/github/MBEDBoard/F450_V10_220411/PCB/F450_V10_220411.brd*
G04 Film Name:    BOTTOM*
G04 File Format:  Gerber RS274X*
G04 File Origin:  Cadence Allegro 17.2-S071*
G04 Origin Date:  Thu Apr 14 16:07:37 2022*
G04 *
G04 Layer:  ETCH/BOTTOM*
G04 Layer:  PIN/BOTTOM*
G04 Layer:  VIA CLASS/BOTTOM*
G04 *
G04 Offset:    (0.0000 0.0000)*
G04 Mirror:    No*
G04 Mode:      Positive*
G04 Rotation:  0*
G04 FullContactRelief:  No*
G04 UndefLineWidth:     0.1524*
G04 ================== end FILE IDENTIFICATION RECORD ====================*
%FSLAX55Y55*MOMM*%
%IR0*IPPOS*OFA0.00000B0.00000*MIA0B0*SFA1.00000B1.00000*%
%ADD11C,.508*%
%ADD22O,2.1X1.*%
%ADD23O,1.6X1.*%
%ADD13C,1.*%
%ADD18C,2.2*%
%ADD20C,2.3*%
%ADD21C,2.5*%
%ADD19C,1.6*%
%ADD16C,1.7*%
%ADD12R,1.X1.*%
%ADD15C,1.8*%
%ADD17C,1.65*%
%ADD10C,6.9*%
%ADD14R,1.8X1.8*%
%ADD24C,.2032*%
%ADD25C,.254*%
%ADD26C,.7112*%
%ADD27C,.762*%
%ADD28C,1.2004*%
%ADD29C,3.2148*%
G75*
%LPD*%
G75*
G36*
G01X9090280Y6070000D02*
X9369690D01*
G02X9383050Y6034370I-1J-20320D01*
G03X9249260Y5740000I256947J-294370D01*
G03X9640000Y5349260I390740J0D01*
G03X9934370Y5483050I0J390737D01*
G02X9970000Y5469690I15310J-13361D01*
G01Y2970000D01*
X8771400D01*
X8769310Y2977400D01*
G03X8440690I-164310J-46408D01*
G01X8438600Y2970000D01*
X7860000D01*
Y1529540D01*
X6621070D01*
X6470300Y1680300D01*
G03X6420000Y1701140I-50306J-50297D01*
G01X6401140D01*
Y2050530D01*
X6449470Y2098860D01*
X6578890D01*
G03X6580010Y2098850I1195J71129D01*
G03X6651150Y2169990I0J71140D01*
G03X6630310Y2220290I-71123J0D01*
G01X6630300Y2220300D01*
G03X6580000Y2241140I-50306J-50297D01*
G01X6420000D01*
G03X6369700Y2220300I6J-71137D01*
G01X6279700Y2130300D01*
G03X6258860Y2080000I50283J-50300D01*
G01Y1701140D01*
X5139470D01*
X4861140Y1979470D01*
Y2250000D01*
G03X4860960Y2255000I-71138J-58D01*
G03X4861140Y2260000I-70958J5058D01*
G01Y2366390D01*
X4861150Y2366670D01*
G03X4861260Y2370530I-71027J3956D01*
G01Y2429470D01*
G03X4861150Y2433330I-71137J-96D01*
G01X4861140Y2433610D01*
Y2699990D01*
G03X4840300Y2750290I-71137J-6D01*
G01X4826610Y2763990D01*
G03X4821420Y2769770I-55448J-44568D01*
G01X4781140Y2810060D01*
Y3118860D01*
X5920000D01*
G03X5970300Y3139700I-6J71137D01*
G01X6180300Y3349700D01*
G03X6201140Y3400000I-50297J50306D01*
G01Y4248860D01*
X8088860D01*
Y3530000D01*
G03X8109700Y3479700I71137J6D01*
G01X8229700Y3359700D01*
G03X8280000Y3338860I50306J50297D01*
G01X9400000D01*
G03Y3481140I0J71140D01*
G01X8309470D01*
X8231140Y3559470D01*
Y4290530D01*
X8300300Y4359700D01*
G03X8321140Y4410000I-50297J50306D01*
G01Y4590000D01*
G03X8300300Y4640300I-71137J-6D01*
G01X8295300Y4645300D01*
G03X8245000Y4666140I-50306J-50297D01*
G03X8173860Y4595000I0J-71140D01*
G03X8178240Y4570440I71137J16D01*
G01X8178860Y4568740D01*
Y4439470D01*
X8130530Y4391140D01*
X5985740D01*
Y4438950D01*
X5928950Y4495740D01*
X5321050D01*
X5316450Y4491140D01*
X4420000D01*
G03X4369700Y4470300I6J-71137D01*
G01X3990530Y4091140D01*
X2979470D01*
X2761140Y4309470D01*
Y4750000D01*
G03X2740300Y4800300I-71137J-6D01*
G01X2630300Y4910300D01*
G03X2580000Y4931140I-50300J-50283D01*
G01X1529470D01*
X1481140Y4979470D01*
Y5340500D01*
G02X1511220Y5358320I20320J-2D01*
G03X1574000Y5342260I62780J114676D01*
G03X1683920Y5402210I0J130746D01*
G02X1718080I17080J-11003D01*
G03X1937920I109920J70796D01*
G02X1972080I17080J-11003D01*
G03X2191920I109920J70796D01*
G02X2226080I17080J-11003D01*
G03X2445920I109920J70796D01*
G02X2480080I17080J-11003D01*
G03X2699920I109920J70796D01*
G02X2734080I17080J-11003D01*
G03X2953920I109920J70796D01*
G02X2988080I17080J-11003D01*
G03X3207920I109920J70796D01*
G02X3242080I17080J-11003D01*
G03X3461920I109920J70796D01*
G02X3496080I17080J-11003D01*
G03X3715920I109920J70796D01*
G02X3750080I17080J-11003D01*
G03X3969920I109920J70796D01*
G02X4004080I17080J-11003D01*
G03X4223920I109920J70796D01*
G02X4258080I17080J-11003D01*
G03X4477920I109920J70796D01*
G02X4512080I17080J-11003D01*
G03X4731920I109920J70796D01*
G02X4766080I17080J-11003D01*
G03X4985920I109920J70796D01*
G02X5020080I17080J-11003D01*
G03X5130000Y5342260I109920J70796D01*
G03X5260740Y5473000I0J130740D01*
G03X5226730Y5560960I-130750J0D01*
G02X5235070Y5593810I15034J13667D01*
G03X5265740Y5637000I-15075J43190D01*
G01Y5817000D01*
G03X5220000Y5862740I-45740J0D01*
G01X5040000D01*
G03X4996810Y5832070I0J-45745D01*
G02X4963960Y5823730I-19183J6694D01*
G03X4876000Y5857740I-87960J-96740D01*
G03X4766080Y5797790I0J-130746D01*
G02X4731920I-17080J11003D01*
G03X4512080I-109920J-70796D01*
G02X4477920I-17080J11003D01*
G03X4258080I-109920J-70796D01*
G02X4223920I-17080J11003D01*
G03X4004080I-109920J-70796D01*
G02X3969920I-17080J11003D01*
G03X3750080I-109920J-70796D01*
G02X3715920I-17080J11003D01*
G03X3496080I-109920J-70796D01*
G02X3461920I-17080J11003D01*
G03X3242080I-109920J-70796D01*
G02X3207920I-17080J11003D01*
G03X2988080I-109920J-70796D01*
G02X2953920I-17080J11003D01*
G03X2734080I-109920J-70796D01*
G02X2699920I-17080J11003D01*
G03X2480080I-109920J-70796D01*
G02X2445920I-17080J11003D01*
G03X2226080I-109920J-70796D01*
G02X2191920I-17080J11003D01*
G03X1972080I-109920J-70796D01*
G02X1937920I-17080J11003D01*
G03X1718080I-109920J-70796D01*
G02X1683920I-17080J11003D01*
G03X1574000Y5857740I-109920J-70796D01*
G03X1443260Y5727000I0J-130740D01*
G03X1445150Y5704840I130741J-10D01*
G01X1446040Y5699650D01*
X1359700Y5613300D01*
G03X1338860Y5563000I50297J-50306D01*
G01Y4950000D01*
G03X1359700Y4899700I71137J6D01*
G01X1449700Y4809700D01*
G03X1470420Y4795300I50315J50291D01*
G01X1476360Y4792590D01*
Y4775900D01*
X826440D01*
Y4793920D01*
X834050Y4795890D01*
G03X859530Y4810470I-14050J54108D01*
G01X889530Y4840470D01*
G03X905900Y4880000I-39543J39530D01*
G01Y5080000D01*
G03X889530Y5119530I-55913J0D01*
G01X859530Y5149530D01*
G03X820000Y5165900I-39530J-39543D01*
G01X540000D01*
G03X500470Y5149530I0J-55913D01*
G01X440470Y5089530D01*
G03X424100Y5050000I39543J-39530D01*
G01Y4420000D01*
G03X440470Y4380470I55913J0D01*
G01X510470Y4310470D01*
G03X550000Y4294100I39530J39543D01*
G01X2376850D01*
X2384100Y4286850D01*
Y2700000D01*
G03X2400470Y2660470I55913J0D01*
G01X2417700Y2643240D01*
G02X2410520Y2625900I-7185J-7181D01*
G01X1643150D01*
X1585900Y2683150D01*
Y2950000D01*
G03X1569530Y2989530I-55913J0D01*
G01X1494530Y3064530D01*
G03X1455000Y3080900I-39530J-39543D01*
G01X1413700D01*
G03X1368890Y3135460I-123693J-55908D01*
G02Y3168540I11805J16540D01*
G03Y3389460I-78887J110460D01*
G02Y3422540I11805J16540D01*
G03X1425740Y3533000I-78887J110460D01*
G03X1290000Y3668740I-135740J0D01*
G03X1179540Y3611890I0J-135737D01*
G02X1146460I-16540J11805D01*
G03X1036000Y3668740I-110460J-78887D01*
G03X900260Y3533000I0J-135740D01*
G03X957110Y3422540I135737J0D01*
G02Y3389460I-11805J-16540D01*
G03Y3168540I78887J-110460D01*
G02Y3135460I-11805J-16540D01*
G03Y2914540I78887J-110460D01*
G02Y2881460I-11805J-16540D01*
G03Y2660540I78887J-110460D01*
G02Y2627460I-11805J-16540D01*
G03Y2406540I78887J-110460D01*
G02Y2373460I-11805J-16540D01*
G03Y2152540I78887J-110460D01*
G02Y2119460I-11805J-16540D01*
G03Y1898540I78887J-110460D01*
G02Y1865460I-11805J-16540D01*
G03Y1644540I78887J-110460D01*
G02Y1611460I-11805J-16540D01*
G03Y1390540I78887J-110460D01*
G02Y1357460I-11805J-16540D01*
G03X900260Y1247000I78887J-110460D01*
G03X1036000Y1111260I135740J0D01*
G03X1126100Y1145470I5J135742D01*
G02X1158170Y1138500I13490J-15195D01*
G03X1196730Y1111380I41829J18501D01*
G02X1206160Y1101240I-731J-10135D01*
G01Y740000D01*
G03X1230720Y680720I83837J7D01*
G01X1343720Y567720D01*
G03X1403000Y543160I59287J59277D01*
G01X1473680D01*
G03X1503210Y517080I100323J83836D01*
G02Y482920I-11003J-17080D01*
G03X1443260Y373000I70796J-109920D01*
G03X1574000Y242260I130740J0D01*
G03X1683920Y302210I0J130746D01*
G02X1718080I17080J-11003D01*
G03X1937920I109920J70796D01*
G02X1972080I17080J-11003D01*
G03X2191920I109920J70796D01*
G02X2226080I17080J-11003D01*
G03X2445920I109920J70796D01*
G02X2480080I17080J-11003D01*
G03X2699920I109920J70796D01*
G02X2734080I17080J-11003D01*
G03X2953920I109920J70796D01*
G02X2988080I17080J-11003D01*
G03X3207920I109920J70796D01*
G02X3242080I17080J-11003D01*
G03X3461920I109920J70796D01*
G02X3496080I17080J-11003D01*
G03X3715920I109920J70796D01*
G02X3750080I17080J-11003D01*
G03X3969920I109920J70796D01*
G02X4004080I17080J-11003D01*
G03X4223920I109920J70796D01*
G02X4258080I17080J-11003D01*
G03X4477920I109920J70796D01*
G02X4512080I17080J-11003D01*
G03X4622000Y242260I109920J70796D01*
G03X4690150Y261420I11J130743D01*
G02X4703830Y258480I5293J-8669D01*
G03X4710470Y250470I46171J31517D01*
G01X4760470Y200470D01*
G03X4800000Y184100I39530J39543D01*
G01X5410000D01*
G03X5449530Y200470I0J55913D01*
G01X5509530Y260470D01*
G03X5525900Y300000I-39543J39530D01*
G01Y626850D01*
X5542650Y643600D01*
X6936000D01*
G03X6980000Y628360I44000J55897D01*
G03X7050790Y692410I0J71145D01*
G01X7051700Y701560D01*
X7300000D01*
G03X7341320Y718680I-6J58438D01*
G01X7386510Y763860D01*
X7613860D01*
Y624470D01*
X7570530Y581140D01*
X6340000D01*
G03Y438860I0J-71140D01*
G01X7600000D01*
G03X7650300Y459700I-6J71137D01*
G01X7685000Y494390D01*
X7719700Y459700D01*
G03X7770000Y438860I50306J50297D01*
G01X8010000D01*
G03X8060300Y459700I-6J71137D01*
G01X8140300Y539700D01*
G03X8161140Y590000I-50283J50300D01*
G01Y1340000D01*
X8439330D01*
X8441510Y1332770D01*
G03X8768490I163490J49218D01*
G01X8770670Y1340000D01*
X9970000D01*
Y630310D01*
G02X9934370Y616950I-20320J1D01*
G03X9640000Y750740I-294370J-256947D01*
G03X9249260Y360000I0J-390740D01*
G03X9383050Y65630I390737J0D01*
G02X9369690Y30000I-13361J-15310D01*
G01X8841040D01*
G02X8822440Y58480I7J20318D01*
G03X8833240Y110000I-117442J51511D01*
G03X8576760I-128240J0D01*
G03X8587560Y58480I128242J-9D01*
G02X8568960Y30000I-18607J-8162D01*
G01X8091040D01*
G02X8072440Y58480I7J20318D01*
G03X8083240Y110000I-117442J51511D01*
G03X7826760I-128240J0D01*
G03X7837560Y58480I128242J-9D01*
G02X7818960Y30000I-18607J-8162D01*
G01X7251040D01*
G02X7232440Y58480I7J20318D01*
G03X7243240Y110000I-117442J51511D01*
G03X6986760I-128240J0D01*
G03X6997560Y58480I128242J-9D01*
G02X6978960Y30000I-18607J-8162D01*
G01X6501040D01*
G02X6482440Y58480I7J20318D01*
G03X6493240Y110000I-117442J51511D01*
G03X6236760I-128240J0D01*
G03X6247560Y58480I128242J-9D01*
G02X6228960Y30000I-18607J-8162D01*
G01X630310D01*
G02X616950Y65630I1J20320D01*
G03X750740Y360000I-256947J294370D01*
G03X360000Y750740I-390740J0D01*
G03X65630Y616950I0J-390737D01*
G02X30000Y630310I-15310J13361D01*
G01Y5469690D01*
G02X65630Y5483050I20320J-1D01*
G03X360000Y5349260I294370J256947D01*
G03X750740Y5740000I0J390740D01*
G03X616950Y6034370I-390737J0D01*
G02X630310Y6070000I13361J15310D01*
G01X7489720D01*
G02X7505330Y6036680I-2J-20317D01*
G03X7469260Y5937000I119673J-99671D01*
G03X7780740I155740J0D01*
G03X7744670Y6036680I-155743J9D01*
G02X7760280Y6070000I15612J13003D01*
G01X8819720D01*
G02X8835330Y6036680I-2J-20317D01*
G03X8799260Y5937000I119673J-99671D01*
G03X9110740I155740J0D01*
G03X9074670Y6036680I-155743J9D01*
G02X9090280Y6070000I15612J13003D01*
G37*
G36*
G01X827860Y4664100D02*
X2486850D01*
X2524100Y4626850D01*
Y4000000D01*
G03X2540470Y3960470I55913J0D01*
G01X2560950Y3940000D01*
X2540470Y3919530D01*
G03X2524100Y3880000I39543J-39530D01*
G01Y2754000D01*
G03X2515300Y2739580I55896J-44006D01*
G01X2512590Y2733640D01*
X2495900D01*
Y4310000D01*
G03X2479530Y4349530I-55913J0D01*
G01X2439530Y4389530D01*
G03X2400000Y4405900I-39530J-39543D01*
G01X819240D01*
Y4516000D01*
G03X807340Y4546770I-45731J0D01*
G03X819240Y4593000I-83849J46230D01*
G03X809590Y4634890I-95746J0D01*
G02X827860Y4664100I18271J8891D01*
G37*
G36*
G01X3143470Y2994100D02*
X3265990D01*
G02X3280360Y2959410I1J-20321D01*
G01X3270470Y2949530D01*
G03X3254100Y2910000I39543J-39530D01*
G01Y940000D01*
G03X3270470Y900470I55913J0D01*
G01X3379050Y791890D01*
G02X3362980Y757280I-14370J-14363D01*
G03X3352000Y757740I-10958J-130281D01*
G03X3242080Y697790I0J-130746D01*
G02X3207920I-17080J11003D01*
G03X2988080I-109920J-70796D01*
G02X2953920I-17080J11003D01*
G03X2734080I-109920J-70796D01*
G02X2699920I-17080J11003D01*
G03X2480080I-109920J-70796D01*
G02X2445920I-17080J11003D01*
G03X2226080I-109920J-70796D01*
G02X2191920I-17080J11003D01*
G03X1972080I-109920J-70796D01*
G02X1937920I-17080J11003D01*
G03X1718080I-109920J-70796D01*
G02X1683920I-17080J11003D01*
G03X1574000Y757740I-109920J-70796D01*
G03X1473680Y710840I0J-130743D01*
G01X1437730D01*
X1373840Y774730D01*
Y1101240D01*
G02X1383270Y1111380I10161J5D01*
G03X1425740Y1157000I-3267J45620D01*
G01Y1175860D01*
X2487000D01*
G03X2537300Y1196700I0J71123D01*
G01X2620300Y1279700D01*
G03X2641140Y1330000I-50297J50306D01*
G01Y2240000D01*
G03X2620300Y2290300I-71137J-6D01*
G01X2541140Y2369470D01*
Y2514100D01*
X3000000D01*
G03X3039530Y2530470I0J55913D01*
G01X3119530Y2610470D01*
G03X3135900Y2650000I-39543J39530D01*
G01Y2986530D01*
X3143470Y2994100D01*
G37*
G36*
G01X1368890Y1898540D02*
G03X1425740Y2009000I-78887J110460D01*
G03X1395810Y2094030I-135749J0D01*
G02X1411650Y2127080I15836J12731D01*
G01X2426000D01*
G03X2470000Y2111840I44000J55897D01*
G03X2476640Y2112150I6J71140D01*
G02X2498860Y2091920I1900J-20230D01*
G01Y1359470D01*
X2457530Y1318140D01*
X1425740D01*
Y1337000D01*
G03X1398500Y1378830I-45737J0D01*
G02X1391530Y1410900I8225J18580D01*
G03X1425740Y1501000I-101532J90095D01*
G03X1368890Y1611460I-135737J0D01*
G02Y1644540I11805J16540D01*
G03Y1865460I-78887J110460D01*
G02Y1898540I11805J16540D01*
G37*
G36*
G01X2281640Y2514100D02*
X2398860D01*
Y2340000D01*
G03X2419700Y2289700I71137J6D01*
G01X2435030Y2274360D01*
G02X2431630Y2242880I-14365J-14372D01*
G03X2426000Y2238880I38338J-59923D01*
G01X1446010D01*
G02X1425700Y2259690I4J20320D01*
G03X1425740Y2263000I-135700J3295D01*
G03X1418350Y2307170I-135739J-7D01*
G02X1437570Y2334100I19216J6610D01*
G01X1500000D01*
G03X1539530Y2350470I0J55913D01*
G01X1643150Y2454100D01*
X2166000D01*
G03X2210000Y2438860I44000J55897D01*
G03X2280940Y2504700I0J71138D01*
G01X2281640Y2514100D01*
G37*
G36*
G01X2663150Y3884100D02*
X2885990D01*
G02X2900360Y3849410I1J-20321D01*
G01X2880470Y3829530D01*
G03X2864100Y3790000I39543J-39530D01*
G01Y2754000D01*
G03X2849800Y2721550I55896J-44008D01*
G01X2849270Y2718330D01*
X2826850Y2695900D01*
X2671250D01*
G02X2650980Y2714840I1J20318D01*
G03X2635900Y2754000I-70976J-4848D01*
G01Y3856850D01*
X2663150Y3884100D01*
G37*
G36*
G01X3023150Y3814100D02*
X3825990D01*
G02X3840360Y3779410I1J-20321D01*
G01X3830470Y3769530D01*
G03X3814100Y3730000I39543J-39530D01*
G01Y3294000D01*
G03X3798860Y3250000I55897J-44000D01*
G03X3814900Y3205000I71143J0D01*
G03X3798860Y3160000I55103J-45000D01*
G03X3803890Y3133720I71141J-5D01*
G02X3785010Y3105900I-18884J-7501D01*
G01X3120320D01*
G03X3080790Y3089530I0J-55913D01*
G01X3040470Y3049210D01*
G03X3024100Y3009680I39543J-39530D01*
G01Y2673150D01*
X2976850Y2625900D01*
X2943640D01*
Y2642590D01*
X2949580Y2645300D01*
G03X2991140Y2710000I-29582J64700D01*
G03X2975900Y2754000I-71137J0D01*
G01Y3766850D01*
X3023150Y3814100D01*
G37*
G36*
G01X4251250Y2994100D02*
X4454100D01*
Y2330000D01*
G03X4470470Y2290470I55913J0D01*
G01X4559270Y2201670D01*
X4559800Y2198450D01*
G03X4630000Y2138860I70200J11555D01*
G03X4683310Y2162900I0J71129D01*
G02X4718860Y2149440I15229J-13454D01*
G01Y1979470D01*
X4705530Y1966140D01*
X4270000D01*
G03Y1823860I0J-71140D01*
G01X4735000D01*
G03X4783080Y1842570I0J71132D01*
G01X4790250Y1849140D01*
X5059700Y1579700D01*
G03X5110000Y1558860I50306J50297D01*
G01X6390530D01*
X6541300Y1408100D01*
G03X6591600Y1387260I50306J50297D01*
G01X7860000D01*
Y1340000D01*
X8018860D01*
Y1172450D01*
G02X7998860Y1152130I-20320J-3D01*
G03X7956000Y1136900I1140J-71130D01*
G01X7232150D01*
X7059530Y1309530D01*
G03X7020000Y1325900I-39530J-39543D01*
G01X3803150D01*
X3795900Y1333150D01*
Y1886850D01*
X3869530Y1960470D01*
G03X3885900Y2000000I-39543J39530D01*
G01Y2320000D01*
G03X3869530Y2359530I-55913J0D01*
G01X3860730Y2368330D01*
X3860200Y2371550D01*
G03X3790000Y2431140I-70200J-11555D01*
G03X3740000Y2410610I0J-71152D01*
G03X3640000I-50000J-50622D01*
G03X3590000Y2431140I-50000J-50622D01*
G03X3519800Y2371550I0J-71145D01*
G01X3519270Y2368330D01*
X3480590Y2329640D01*
G02X3445900Y2344010I-14369J14369D01*
G01Y2556850D01*
X3516130Y2627080D01*
X4126000D01*
G03X4170000Y2611840I44000J55897D01*
G03Y2754120I0J71140D01*
G03X4126000Y2738880I0J-71137D01*
G01X3492980D01*
G03X3453450Y2722510I0J-55913D01*
G01X3400590Y2669640D01*
G02X3365900Y2684010I-14369J14369D01*
G01Y2886850D01*
X3403150Y2924100D01*
X4116000D01*
G03X4160000Y2908860I44000J55897D01*
G03X4230980Y2975160I0J71145D01*
G02X4251250Y2994100I20271J-1378D01*
G37*
G36*
G01X4223150Y3194100D02*
X4638860D01*
Y2770000D01*
G03X4685420Y2703240I71142J0D01*
G01X4687510Y2702470D01*
X4715620Y2674360D01*
X4715950Y2673960D01*
G03X4718860Y2670600I55204J44871D01*
G01Y2429590D01*
G03X4718970Y2425730I71137J96D01*
G01X4718980Y2425450D01*
Y2374550D01*
X4718970Y2374270D01*
G03X4718860Y2370410I71027J-3956D01*
G01Y2281260D01*
X4718240Y2279560D01*
G03X4715380Y2269650I66740J-24629D01*
G02X4680950Y2259650I-19882J4184D01*
G03X4641550Y2280200I-50954J-49647D01*
G01X4638330Y2280730D01*
X4565900Y2353150D01*
Y3006000D01*
G03X4581140Y3050000I-55897J44000D01*
G03X4510000Y3121140I-71140J0D01*
G03X4466000Y3105900I0J-71137D01*
G01X4251250D01*
G02X4230980Y3124840I1J20318D01*
G03X4217800Y3161470I-70975J-4852D01*
G01X4215900Y3164120D01*
Y3186850D01*
X4223150Y3194100D01*
G37*
G36*
G01X4449470Y4348860D02*
X5274260D01*
Y4324870D01*
X5191300Y4241900D01*
G03X5170460Y4191600I50297J-50306D01*
G01Y3681600D01*
G03X5170620Y3676890I71138J59D01*
G01X5170640Y3676560D01*
Y3666060D01*
X4428360D01*
X4422460Y3684490D01*
G03X4429530Y3690470I-32442J45525D01*
G01X4499530Y3760470D01*
G03X4515900Y3800000I-39543J39530D01*
G01Y4002500D01*
G03X4531140Y4046500I-55897J44000D01*
G03X4523660Y4078250I-71139J-4D01*
G03X4531140Y4110000I-63659J31754D01*
G03X4460000Y4181140I-71140J0D01*
G03X4396260Y4141600I0J-71146D01*
G01X4395520Y4140110D01*
X4360470Y4105060D01*
G03X4344100Y4065530I39543J-39530D01*
G01Y4030420D01*
G02X4320720Y4010330I-20319J-3D01*
G03X4310000Y4011140I-10705J-70331D01*
G03X4266000Y3995900I0J-71137D01*
G01X4145560D01*
G02X4131200Y4030590I4J20319D01*
G01X4449470Y4348860D01*
G37*
G36*
G01X6651210Y1094100D02*
X6916850D01*
X6924100Y1086850D01*
Y870500D01*
G03X6908880Y828340I55897J-44006D01*
G01X6908630Y818440D01*
X6600570D01*
G03X6560000Y831140I-40570J-58450D01*
G03X6489030Y764870I0J-71137D01*
G01X6488380Y755400D01*
X5519500D01*
G03X5479970Y739030I0J-55913D01*
G01X5430470Y689530D01*
G03X5414100Y650000I39543J-39530D01*
G01Y323150D01*
X5386850Y295900D01*
X5269980D01*
G02X5251150Y323860I0J20321D01*
G03X5260740Y373000I-121148J49149D01*
G03X5255000Y411310I-130739J-4D01*
G01X5253210Y417160D01*
X5329530Y493470D01*
G03X5345900Y533000I-39543J39530D01*
G01Y790000D01*
G03X5329530Y829530I-55913J0D01*
G01X5296140Y862910D01*
G02X5310510Y897600I14369J14369D01*
G01X6516000D01*
G03X6560000Y882360I44000J55897D01*
G03X6631140Y953500I0J71140D01*
G03X6611200Y1002890I-71138J0D01*
G02Y1031110I14623J14110D01*
G03X6630950Y1075270I-51198J49394D01*
G02X6651210Y1094100I20264J-1489D01*
G37*
G36*
G01X5953550Y4248860D02*
X6058860D01*
Y3620270D01*
G02X6025530Y3604660I-20320J-1D01*
G03X5990380Y3620380I-45535J-54658D01*
G03X5920000Y3681140I-70380J-10382D01*
G03X5876200Y3666060I0J-71149D01*
G01X5312560D01*
Y3676560D01*
X5312580Y3676890D01*
G03X5312740Y3681600I-70978J4769D01*
G01Y4162130D01*
X5374870Y4224260D01*
X5928950D01*
X5953550Y4248860D01*
G37*
G36*
G01X5320000Y4430000D02*
X5340000Y4450000D01*
X5910000D01*
X5940000Y4420000D01*
Y4300000D01*
X5910000Y4270000D01*
X5350000D01*
X5320000Y4300000D01*
Y4430000D01*
G37*
%LPC*%
G75*
G36*
G01X9762000Y3923740D02*
X9822000D01*
G02Y3732260I0J-95740D01*
G01X9762000D01*
G02Y3923740I0J95740D01*
G37*
G36*
G01Y4787740D02*
X9822000D01*
G02Y4596260I0J-95740D01*
G01X9762000D01*
G02Y4787740I0J95740D01*
G37*
G36*
G01X7388870Y2360530D02*
G02X7368030Y2410830I50283J50300D01*
G01Y2569170D01*
G02X7510310I71140J0D01*
G01Y2440300D01*
X7610300Y2340300D01*
G02Y2239700I-50283J-50300D01*
G01X7531140Y2160530D01*
Y2119470D01*
X7610300Y2040300D01*
G02X7631140Y1990000I-50283J-50300D01*
G01Y1810000D01*
G02X7488860I-71140J0D01*
G01Y1960530D01*
X7409700Y2039700D01*
G02X7388860Y2090000I50283J50300D01*
G01Y2190000D01*
G02X7409700Y2240300I71123J0D01*
G01X7459390Y2290000D01*
X7388870Y2360530D01*
G37*
G36*
G01X9391190Y3953130D02*
G02X9386980Y3971000I35821J17870D01*
G02X9467020I40020J0D01*
G02X9458880Y3946810I-40013J0D01*
G03X9467000Y3915870I16186J-12288D01*
G02X9524740Y3828000I-37991J-87870D01*
G02X9429000Y3732260I-95740J0D01*
G01X9319000D01*
G02Y3923740I0J95740D01*
G01X9373010D01*
G03X9391190Y3953130I-2J20319D01*
G37*
G36*
G01X9319000Y4596260D02*
G02Y4787740I0J95740D01*
G01X9429000D01*
G02X9524740Y4692000I0J-95740D01*
G02X9467000Y4604130I-95731J0D01*
G03X9458880Y4573190I8066J-18652D01*
G02X9467020Y4549000I-31873J-24190D01*
G02X9386980I-40020J0D01*
G02X9391190Y4566870I40031J0D01*
G03X9373010Y4596260I-18182J9071D01*
G01X9319000D01*
G37*
G54D28*
X6625000Y140000D03*
X6855000D03*
X8215000D03*
X8445000D03*
G54D29*
X8770000Y5015000D03*
X8290000D03*
X7810000D03*
%LPD*%
G75*
G54D10*
X360000Y360000D03*
Y5740000D03*
X9640000Y360000D03*
Y5740000D03*
G54D20*
X7810000Y5015000D03*
X8290000D03*
X8770000D03*
G54D11*
G01X2470000Y2340000D02*
X2570000Y2240000D01*
Y1330000D01*
X2487000Y1247000D01*
X1290000D01*
G01X2855000Y4115000D02*
X2690000Y4280000D01*
Y4750000D01*
X2580000Y4860000D01*
X1500000D01*
X1410000Y4950000D01*
Y5563000D01*
X1574000Y5727000D01*
G01X2470000Y2510000D02*
Y2340000D01*
G01X4020000Y4020000D02*
X2950000D01*
X2855000Y4115000D01*
G01X4270000Y1895000D02*
X4735000D01*
X4790000Y1950000D01*
G01X5360000Y4420000D02*
X4420000D01*
X4020000Y4020000D01*
G01X4785000Y2255000D02*
X4790000Y2250000D01*
Y1950000D01*
G01X6330000Y1630000D02*
X5110000D01*
X4790000Y1950000D01*
G01X4710000Y2770000D02*
X4719990D01*
X4728870Y2761120D01*
X4729470D01*
X4771120Y2719470D01*
Y2718870D01*
X4790000Y2699990D01*
Y2429590D01*
X4790120Y2429470D01*
Y2370530D01*
X4790000Y2370410D01*
Y2260000D01*
X4785000Y2255000D01*
G01X4710000Y3190000D02*
Y2770000D01*
G01Y3190000D02*
X5920000D01*
X6130000Y3400000D01*
Y4320000D01*
G01X5340000Y4290000D02*
X5241600Y4191600D01*
Y3681600D01*
G01X7710000Y4320000D02*
X6130000D01*
G01X5870000Y4350000D02*
X5900000Y4320000D01*
G01D02*
X6130000D01*
G01X7685000Y595000D02*
X7600000Y510000D01*
X6340000D01*
G01X7538400Y1458400D02*
X6591600D01*
X6420000Y1630000D01*
G01D02*
X6330000D01*
G01Y1960000D02*
Y1630000D01*
G01X6580010Y2169990D02*
X6580000Y2170000D01*
X6420000D01*
X6330000Y2080000D01*
Y1960000D01*
G01X7375000Y835000D02*
X7680000D01*
X7685000Y830000D01*
G01X7820000Y510000D02*
X7770000D01*
X7685000Y595000D01*
G01D02*
Y830000D01*
G01X7820000Y510000D02*
X8010000D01*
X8090000Y590000D01*
Y1370000D01*
X8001600Y1458400D01*
X7538400D01*
G01X7560000Y1990000D02*
X7460000Y2090000D01*
Y2190000D01*
X7560000Y2290000D01*
G01Y1990000D02*
Y1810000D01*
G01X7439170Y2569170D02*
Y2410830D01*
X7560000Y2290000D01*
G01X7800000Y2600000D02*
X7800490Y2600490D01*
G01D02*
X8021000D01*
G01X8160000Y4320000D02*
X7710000D01*
G01X8430000Y1310000D02*
X8501990Y1381990D01*
X8605000D01*
G01X8430000Y3010000D02*
X8509010Y2930990D01*
X8605000D01*
G01X8160000Y4320000D02*
Y3530000D01*
X8280000Y3410000D01*
X9400000D01*
G01X8245000Y4595000D02*
X8250000Y4590000D01*
Y4410000D01*
X8160000Y4320000D01*
G01X8600000Y1170000D02*
X8605000Y1175000D01*
G01D02*
Y1381990D01*
G01X8770000Y1310000D02*
X8698010Y1381990D01*
X8605000D01*
G01X8610000Y3130000D02*
X8605000Y3125000D01*
G01X8770000Y3000000D02*
X8700990Y2930990D01*
X8605000D01*
G01Y3125000D02*
Y2930990D01*
X180000Y1980000D03*
Y2170000D03*
X190000Y3120000D03*
Y3310000D03*
X200000Y4170000D03*
Y4360000D03*
X630000Y1470000D03*
Y1660000D03*
X620000Y4060000D03*
Y4250000D03*
X1100000Y300000D03*
Y490000D03*
X1230000Y4910000D03*
X1040000D03*
X1200000Y5580000D03*
X1010000D03*
X1630000Y860000D03*
Y1050000D03*
Y1590000D03*
Y1780000D03*
X1620000Y2340000D03*
X1650000Y3220000D03*
X1840000D03*
X1650000Y4020000D03*
X1840000D03*
X1850000Y4540000D03*
X1660000D03*
X1840000Y5050000D03*
X1650000D03*
X2260000Y130000D03*
X2350000Y1570000D03*
Y1760000D03*
X2200000Y2340000D03*
X2210000Y2510000D03*
X2050000Y5950000D03*
X2240000D03*
X2450000Y130000D03*
X2550000Y850000D03*
Y1040000D03*
X2470000Y2182980D03*
Y2340000D03*
Y2510000D03*
X2580000Y2710000D03*
X2650000Y3770000D03*
X2780000Y1570000D03*
Y1760000D03*
X2980000Y2400000D03*
X2920000Y2710000D03*
X3000000Y2820000D03*
X3010000Y3170000D03*
X2840000Y3770000D03*
X2855000Y4115000D03*
X2930000Y4500000D03*
Y4310000D03*
X3100000Y5940000D03*
X3310000Y120000D03*
X3500000D03*
X3170000Y2400000D03*
X3190000Y2820000D03*
X3200000Y3170000D03*
X3290000Y5940000D03*
X3820000Y1500000D03*
Y1690000D03*
X3590000Y2360000D03*
X3640000Y2030000D03*
X3690000Y2360000D03*
X3740000Y2030000D03*
X3790000Y2360000D03*
X3570000Y2550000D03*
X3760000D03*
X3570000Y2820000D03*
X3760000D03*
X3570000Y3180000D03*
X3760000D03*
X3870000Y3160000D03*
Y3250000D03*
X4270000Y1500000D03*
Y1690000D03*
Y1895000D03*
Y2070000D03*
Y2260000D03*
X4170000Y2682980D03*
X4160000Y3120000D03*
Y2980000D03*
X4070000Y3490000D03*
X4120000Y3430000D03*
X4070000Y3370000D03*
X4120000Y3310000D03*
X4070000Y3610160D03*
X4120800Y3549200D03*
X4020000Y4020000D03*
X4050000Y4590000D03*
Y4400000D03*
X4240000Y5930000D03*
X4450000Y110000D03*
X4640000D03*
X4630000Y2210000D03*
Y2860000D03*
X4600000Y3130000D03*
X4510000Y3050000D03*
X4310000Y3876500D03*
X4460000Y4046500D03*
Y4110000D03*
X4310000Y3940000D03*
X4430000Y5930000D03*
X4710000Y1500000D03*
Y1690000D03*
X4785000Y2255000D03*
X4700000Y2690000D03*
X4719000Y2400000D03*
X4710000Y2770000D03*
Y3190000D03*
X4840000Y3700000D03*
Y4230000D03*
X5030000D03*
X4840000Y4550000D03*
X5030000D03*
X5370000Y370000D03*
Y560000D03*
X5270000Y1440000D03*
X5080000D03*
X5270000Y1870000D03*
X5080000D03*
X5250000Y2290000D03*
X5060000D03*
Y2540000D03*
X5250000D03*
Y2730000D03*
X5410000Y3060000D03*
Y2870000D03*
X5241600Y3681600D03*
X5370000Y4350000D03*
X5570000Y140000D03*
Y330000D03*
X5760000Y840000D03*
X5790000Y3310000D03*
X5500000Y3430000D03*
X5450000Y3370000D03*
X5500000Y3310000D03*
X5510000Y3690000D03*
X5470000Y4350000D03*
X5570000D03*
X5670000D03*
X5770000D03*
X5520000Y4740000D03*
X5620000D03*
Y4810000D03*
X5520000D03*
X5440000Y5410000D03*
Y5220000D03*
X6040000Y140000D03*
Y330000D03*
X5950000Y840000D03*
X6130000Y1540000D03*
X5940000D03*
X6130000Y1720000D03*
X5940000D03*
X6040000Y2180000D03*
Y3490000D03*
X6010000Y3690000D03*
X5920000Y3610000D03*
X5980000Y3550000D03*
X5870000Y4350000D03*
X6020000Y4740000D03*
X5920000D03*
X6020000Y4810000D03*
X5920000D03*
X6150000Y5390000D03*
X6050000D03*
X6150000Y5500000D03*
X6050000D03*
X5980000Y5940000D03*
X6170000D03*
X6560000Y760000D03*
X6340000Y510000D03*
X6560000Y953500D03*
Y1080500D03*
X6330000Y1960000D03*
X6420000Y1630000D03*
X6230000Y2180000D03*
X6390000Y2740000D03*
Y2550000D03*
X6470000Y5500000D03*
X6360000D03*
X6260000D03*
X6780000Y860000D03*
Y1050000D03*
X6940000Y2110000D03*
X6850000Y2200000D03*
X6940000D03*
X6850000Y2110000D03*
X6940000Y2020000D03*
X6850000D03*
X6580010Y2169990D03*
X6780000Y2490000D03*
X6670000Y2760000D03*
Y2950000D03*
Y3170000D03*
X6910000D03*
X6740000Y3600000D03*
X6930000D03*
X6680000Y4480000D03*
Y4580000D03*
Y4890000D03*
Y4990000D03*
X6570000Y5500000D03*
X6980000Y826500D03*
Y699500D03*
X7220000Y1320000D03*
X7030000Y2200000D03*
Y2110000D03*
Y2020000D03*
X7200000Y2740000D03*
X7180000Y3000000D03*
Y3170000D03*
X6980000Y4480000D03*
Y4580000D03*
X7270000Y4760000D03*
X7040000Y5940000D03*
X7230000D03*
X7520000Y150000D03*
Y340000D03*
X7375000Y835000D03*
X7685000Y830000D03*
X7650000Y1560000D03*
X7410000Y1320000D03*
X7538400Y1458400D03*
X7650000Y1760000D03*
X7560000Y1990000D03*
Y1810000D03*
Y2110000D03*
X7680000Y2370000D03*
X7560000Y2290000D03*
X7680000Y2540000D03*
Y2710000D03*
X7439170Y2569170D03*
X7670000Y3610000D03*
X7370000Y4760000D03*
X7820000Y510000D03*
X8000000Y954000D03*
Y1081000D03*
X7790000Y1310000D03*
X7980000D03*
X7810000Y2860000D03*
X7860000Y3610000D03*
X7770000Y4610000D03*
X7960000D03*
X7710000Y4320000D03*
X8230000Y810000D03*
Y1000000D03*
X8300000Y1310000D03*
X8410000Y3630000D03*
X8245000Y4595000D03*
X8210000Y5930000D03*
X8400000D03*
X8680000Y790000D03*
Y980000D03*
X8600000Y3630000D03*
X8750000Y4000000D03*
X9000000Y170000D03*
Y360000D03*
X9010000Y790000D03*
Y980000D03*
X9190000Y1300000D03*
X8870000Y4430000D03*
X9380000Y1300000D03*
X9400000Y3410000D03*
X9500000Y5100000D03*
X9890000Y1040000D03*
Y1230000D03*
X9880000Y3080000D03*
X9690000D03*
X9700000Y3590000D03*
X9890000D03*
X9720000Y4260000D03*
X9910000D03*
X9690000Y5100000D03*
G54D12*
X723500Y4466000D03*
G54D21*
X8605000Y1381990D03*
Y2930990D03*
G54D13*
X596500Y4593000D03*
X723500D03*
X596500Y4466000D03*
Y4974000D03*
X723500D03*
X596500Y4847000D03*
X723500D03*
X596500Y4720000D03*
X723500D03*
G54D22*
X9374000Y3828000D03*
Y4692000D03*
G54D14*
X1290000Y1247000D03*
X5130000Y627000D03*
Y5727000D03*
G54D23*
X9792000Y3828000D03*
Y4692000D03*
G54D24*
G01X723500Y4847000D02*
X726500Y4850000D01*
X820000D01*
X850000Y4880000D01*
Y5080000D01*
X820000Y5110000D01*
X540000D01*
X480000Y5050000D01*
Y4420000D01*
X550000Y4350000D01*
X2400000D01*
X2440000Y4310000D01*
Y2700000D01*
X2500000Y2640000D01*
X2850000D01*
X2920000Y2710000D01*
G01X2640000Y3940000D02*
X2580000Y4000000D01*
Y4650000D01*
X2510000Y4720000D01*
X723500D01*
G01X2210000Y2510000D02*
X1620000D01*
X1500000Y2390000D01*
X1200000D01*
X1160000Y2350000D01*
Y2140000D01*
X1290000Y2010000D01*
Y2009000D01*
G01Y2263000D02*
X1370020Y2182980D01*
X2470000D01*
G01X4510000Y3050000D02*
X3120320D01*
X3080000Y3009680D01*
Y2650000D01*
X3000000Y2570000D01*
X1620000D01*
X1530000Y2660000D01*
Y2950000D01*
X1455000Y3025000D01*
X1290000D01*
G01X2580000Y2710000D02*
Y3880000D01*
X2640000Y3940000D01*
G01X4310000D02*
X2640000D01*
G01X4310000Y3876500D02*
X4303500Y3870000D01*
X3000000D01*
X2920000Y3790000D01*
Y2710000D01*
G01X4160000Y2980000D02*
X3380000D01*
X3310000Y2910000D01*
Y940000D01*
X3460000Y790000D01*
X4967000D01*
X5130000Y627000D01*
G01X3590000Y2360000D02*
X3480000Y2250000D01*
Y1090000D01*
X3616500Y953500D01*
X6560000D01*
G01X5130000Y373000D02*
X5290000Y533000D01*
Y790000D01*
X5210000Y870000D01*
X3520000D01*
X3390000Y1000000D01*
Y2580000D01*
X3492980Y2682980D01*
X4170000D01*
G01X3640000Y2030000D02*
Y1200000D01*
X3690000Y1150000D01*
X6940000D01*
X6980000Y1110000D01*
Y826500D01*
G01X3690000Y2360000D02*
X3550000Y2220000D01*
Y1180000D01*
X3650000Y1080000D01*
X6559500D01*
X6560000Y1080500D01*
G01X8000000Y954000D02*
X7996000Y950000D01*
X7250000D01*
X6990000Y1210000D01*
X3730000D01*
X3690000Y1250000D01*
Y1980000D01*
X3740000Y2030000D01*
G01X3790000Y2360000D02*
X3830000Y2320000D01*
Y2000000D01*
X3740000Y1910000D01*
Y1310000D01*
X3780000Y1270000D01*
X7020000D01*
X7209000Y1081000D01*
X8000000D01*
G01X3870000Y3160000D02*
X3940000Y3230000D01*
Y3690000D01*
X3980000Y3730000D01*
X4390000D01*
X4460000Y3800000D01*
Y4046500D01*
G01Y4110000D02*
X4444470D01*
X4400000Y4065530D01*
Y3850000D01*
X4330000Y3780000D01*
X3920000D01*
X3870000Y3730000D01*
Y3250000D01*
G01X4160000Y3120000D02*
Y3210000D01*
X4200000Y3250000D01*
X5730000D01*
X5790000Y3310000D01*
G01X4070000Y3490000D02*
X6040000D01*
G01X5500000Y3430000D02*
X4120000D01*
G01X5450000Y3370000D02*
X4070000D01*
G01X5500000Y3310000D02*
X4120000D01*
G01X5920000Y3610000D02*
X5910000D01*
X5909840Y3610160D01*
X4070000D01*
G01X5980000Y3550000D02*
X5979200Y3549200D01*
X4120800D01*
G01X6980000Y699500D02*
X5519500D01*
X5470000Y650000D01*
Y300000D01*
X5410000Y240000D01*
X4800000D01*
X4750000Y290000D01*
Y499000D01*
X4622000Y627000D01*
G01X4630000Y2210000D02*
X4510000Y2330000D01*
Y3050000D01*
G54D15*
X1036000Y1247000D03*
Y1501000D03*
X1290000D03*
X1036000Y2009000D03*
X1290000D03*
X1036000Y1755000D03*
X1290000D03*
X1036000Y2263000D03*
X1290000D03*
X1036000Y2771000D03*
Y2517000D03*
X1290000Y2771000D03*
Y2517000D03*
X1036000Y3025000D03*
X1290000D03*
X1036000Y3533000D03*
Y3279000D03*
X1290000Y3533000D03*
Y3279000D03*
G54D25*
G01X6560000Y760000D02*
X7300000D01*
X7375000Y835000D01*
G54D16*
X1574000Y373000D03*
Y627000D03*
Y5473000D03*
Y5727000D03*
X1828000Y373000D03*
Y627000D03*
Y5473000D03*
Y5727000D03*
X2082000Y373000D03*
X2336000D03*
X2082000Y627000D03*
X2336000D03*
X2082000Y5473000D03*
X2336000D03*
X2082000Y5727000D03*
X2336000D03*
X2590000Y373000D03*
Y627000D03*
Y5473000D03*
Y5727000D03*
X2844000Y373000D03*
X3098000D03*
X2844000Y627000D03*
X3098000D03*
X2844000Y5473000D03*
X3098000D03*
X2844000Y5727000D03*
X3098000D03*
X3352000Y373000D03*
Y627000D03*
Y5473000D03*
Y5727000D03*
X3606000Y373000D03*
X3860000D03*
X3606000Y627000D03*
X3860000D03*
X3606000Y5473000D03*
X3860000D03*
X3606000Y5727000D03*
X3860000D03*
X4114000Y373000D03*
Y627000D03*
Y5473000D03*
Y5727000D03*
X4368000Y373000D03*
X4622000D03*
X4368000Y627000D03*
X4622000D03*
X4368000Y5473000D03*
X4622000D03*
X4368000Y5727000D03*
X4622000D03*
X4876000Y373000D03*
Y627000D03*
Y5473000D03*
Y5727000D03*
X5130000Y373000D03*
Y5473000D03*
G54D26*
G01X360000Y360000D02*
Y760900D01*
G01Y360000D02*
X760900D01*
G01X360000Y5339100D02*
Y5740000D01*
G01D02*
X760900D01*
G01X1036000Y3533000D02*
Y3678900D01*
G01X890100Y3533000D02*
X1036000D01*
G01X1574000Y232100D02*
Y373000D01*
G01X1433100D02*
X1574000D01*
G01X6365000Y110000D02*
Y248400D01*
G01X6226600Y110000D02*
X6365000D01*
G01D02*
X6503400D01*
G01X7115000D02*
Y248400D01*
G01X6976600Y110000D02*
X7115000D01*
G01D02*
X7253400D01*
G01X7625000Y5771100D02*
Y5937000D01*
G01X7459100D02*
X7625000D01*
G01D02*
X7790900D01*
G01X7955000Y110000D02*
Y248400D01*
G01X7816600Y110000D02*
X7955000D01*
G01D02*
X8093400D01*
G01X8705000D02*
Y248400D01*
G01X8566600Y110000D02*
X8705000D01*
G01D02*
X8843400D01*
G01X8789100Y5937000D02*
X8955000D01*
G01X9239100Y360000D02*
X9640000D01*
G01X9213100Y3828000D02*
X9374000D01*
G01X9213100Y4692000D02*
X9374000D01*
G01X9239100Y5740000D02*
X9640000D01*
G01X8955000Y5771100D02*
Y5937000D01*
G01D02*
X9120900D01*
G01X9374000Y3722100D02*
Y3828000D01*
G01D02*
X9534900D01*
G01X9374000Y4692000D02*
Y4797900D01*
G01Y4692000D02*
X9534900D01*
G01X9640000Y360000D02*
Y760900D01*
G01X9792000Y3722100D02*
Y3828000D01*
G01D02*
Y3933900D01*
G01X9656100Y3828000D02*
X9792000D01*
G01D02*
X9927900D01*
G01X9792000Y4586100D02*
Y4692000D01*
G01D02*
Y4797900D01*
G01X9656100Y4692000D02*
X9792000D01*
G01D02*
X9927900D01*
G01X9640000Y5339100D02*
Y5740000D01*
G54D17*
X6365000Y110000D03*
X7115000D03*
X7955000D03*
X8705000D03*
G54D27*
G01X870000Y3270000D02*
X879000Y3279000D01*
G01X1290000Y1247000D02*
X1036000D01*
G01Y1501000D02*
X879000D01*
G01X1036000Y1755000D02*
X879000D01*
G01X1036000Y2009000D02*
X879000D01*
G01X1036000Y2263000D02*
X879000D01*
G01X1036000Y2517000D02*
X879000D01*
G01X1036000Y2771000D02*
X879000D01*
G01X1036000Y3025000D02*
X879000D01*
G01Y3279000D02*
X1036000D01*
G01X1290000Y1247000D02*
Y740000D01*
X1403000Y627000D01*
X1574000D01*
G01X1570000Y5290000D02*
X1574000Y5294000D01*
G01D02*
Y5473000D01*
G54D18*
X7625000Y5937000D03*
X8955000D03*
G54D19*
X8021000Y1838490D03*
Y2346490D03*
Y2092490D03*
Y2600490D03*
X8275000Y1965490D03*
Y1711490D03*
Y2219490D03*
Y2473490D03*
X9400000Y1493990D03*
Y1747990D03*
Y2818990D03*
Y2564990D03*
M02*
