G04 ================== begin FILE IDENTIFICATION RECORD ==================*
G04 Layout Name:  G:/github/MBEDBoard/F450_V10_220411/PCB/F450_V10_220411.brd*
G04 Film Name:    SolderMask_Top*
G04 File Format:  Gerber RS274X*
G04 File Origin:  Cadence Allegro 17.2-S071*
G04 Origin Date:  Thu Apr 14 16:07:37 2022*
G04 *
G04 Layer:  PIN/SOLDERMASK_TOP*
G04 Layer:  PACKAGE GEOMETRY/SOLDERMASK_TOP*
G04 Layer:  BOARD GEOMETRY/SOLDERMASK_TOP*
G04 *
G04 Offset:    (0.0000 0.0000)*
G04 Mirror:    No*
G04 Mode:      Positive*
G04 Rotation:  0*
G04 FullContactRelief:  No*
G04 UndefLineWidth:     0.1524*
G04 ================== end FILE IDENTIFICATION RECORD ====================*
%FSLAX55Y55*MOMM*%
%IR0*IPPOS*OFA0.00000B0.00000*MIA0B0*SFA1.00000B1.00000*%
%ADD50R,1.3X.4*%
%ADD45R,.4X1.3*%
%ADD30R,1.1X.7*%
%ADD43R,1.X.8*%
%ADD49R,1.3X.7*%
%ADD47R,1.2X.8*%
%ADD39R,.8X1.2*%
%ADD25R,1.3X.8*%
%ADD41R,1.6X.7*%
%ADD29R,1.7X.7*%
%ADD17R,1.9X.35*%
%ADD18R,.35X1.9*%
%ADD23C,.85*%
%ADD37R,.8X.8*%
%ADD24R,.9X.9*%
%ADD48O,2.2X1.1*%
%ADD31R,1.3X1.1*%
%ADD51O,1.7X1.1*%
%ADD22R,1.1X1.3*%
%ADD28R,1.5X1.3*%
%ADD21R,1.3X1.5*%
%ADD35R,1.5X1.3*%
%ADD20R,1.9X1.1*%
%ADD26R,4.3X1.5*%
%ADD34R,2.5X2.5*%
%ADD12C,1.1*%
%ADD36R,1.9X3.3*%
%ADD16R,.6X.7*%
%ADD40C,2.3*%
%ADD38R,1.7X1.9*%
%ADD19R,.7X.6*%
%ADD44C,2.4*%
%ADD10C,7.*%
%ADD46C,2.6*%
%ADD42C,1.7*%
%ADD33R,.9X.35*%
%ADD32R,.35X.9*%
%ADD15C,1.8*%
%ADD11R,1.1X1.1*%
%ADD14C,1.9*%
%ADD27C,1.75*%
%ADD13R,1.9X1.9*%
%LPD*%
G75*
G54D10*
X360000Y360000D03*
Y5740000D03*
X9640000Y360000D03*
Y5740000D03*
G54D11*
X723500Y4466000D03*
G54D20*
X5080000Y2665000D03*
Y2415000D03*
G54D12*
X596500Y4593000D03*
X723500D03*
X596500Y4466000D03*
Y4974000D03*
X723500D03*
X596500Y4847000D03*
X723500D03*
X596500Y4720000D03*
X723500D03*
G54D21*
X5045000Y3112980D03*
Y2872980D03*
X5235000D03*
Y3112980D03*
G54D30*
X6550000Y1530000D03*
Y1730000D03*
X6310000Y1630000D03*
G54D13*
X1290000Y1247000D03*
X5130000Y627000D03*
Y5727000D03*
G54D40*
X7625000Y5937000D03*
X8955000D03*
G54D22*
X5038400Y3390000D03*
Y3570000D03*
X5241600Y3390000D03*
Y3570000D03*
G54D31*
X6300000Y5158400D03*
Y5361600D03*
X6510000Y5158400D03*
Y5361600D03*
X7410000Y1458400D03*
Y1661600D03*
G54D14*
X1036000Y1247000D03*
Y1501000D03*
X1290000D03*
X1036000Y2009000D03*
X1290000D03*
X1036000Y1755000D03*
X1290000D03*
X1036000Y2263000D03*
X1290000D03*
X1036000Y2771000D03*
Y2517000D03*
X1290000Y2771000D03*
Y2517000D03*
X1036000Y3025000D03*
X1290000D03*
X1036000Y3533000D03*
Y3279000D03*
X1290000Y3533000D03*
Y3279000D03*
G54D32*
X6915000Y1910000D03*
X6865000D03*
X6815000D03*
Y2310000D03*
X6865000D03*
X6915000D03*
X7065000Y1910000D03*
X7015000D03*
X6965000D03*
Y2310000D03*
X7015000D03*
X7065000D03*
G54D23*
X5390000Y4470000D03*
X7340000Y4260000D03*
X7540000D03*
G54D41*
X7850000Y700000D03*
Y827000D03*
Y954000D03*
Y1081000D03*
X8390000Y827000D03*
Y700000D03*
Y1081000D03*
Y954000D03*
G54D50*
X9270000Y4235000D03*
Y4185000D03*
Y4135000D03*
Y4085000D03*
Y4435000D03*
Y4385000D03*
Y4335000D03*
Y4285000D03*
G54D15*
X1574000Y373000D03*
Y627000D03*
Y5473000D03*
Y5727000D03*
X1828000Y373000D03*
Y627000D03*
Y5473000D03*
Y5727000D03*
X2082000Y373000D03*
X2336000D03*
X2082000Y627000D03*
X2336000D03*
X2082000Y5473000D03*
X2336000D03*
X2082000Y5727000D03*
X2336000D03*
X2590000Y373000D03*
Y627000D03*
Y5473000D03*
Y5727000D03*
X2844000Y373000D03*
X3098000D03*
X2844000Y627000D03*
X3098000D03*
X2844000Y5473000D03*
X3098000D03*
X2844000Y5727000D03*
X3098000D03*
X3352000Y373000D03*
Y627000D03*
Y5473000D03*
Y5727000D03*
X3606000Y373000D03*
X3860000D03*
X3606000Y627000D03*
X3860000D03*
X3606000Y5473000D03*
X3860000D03*
X3606000Y5727000D03*
X3860000D03*
X4114000Y373000D03*
Y627000D03*
Y5473000D03*
Y5727000D03*
X4368000Y373000D03*
X4622000D03*
X4368000Y627000D03*
X4622000D03*
X4368000Y5473000D03*
X4622000D03*
X4368000Y5727000D03*
X4622000D03*
X4876000Y373000D03*
Y627000D03*
Y5473000D03*
Y5727000D03*
X5130000Y373000D03*
Y5473000D03*
G54D33*
X6740000Y1985000D03*
Y2035000D03*
Y2085000D03*
Y2135000D03*
Y2185000D03*
Y2235000D03*
X7140000Y1985000D03*
Y2235000D03*
Y2185000D03*
Y2135000D03*
Y2085000D03*
Y2035000D03*
G54D42*
X8021000Y1838490D03*
Y2346490D03*
Y2092490D03*
Y2600490D03*
X8275000Y1965490D03*
Y1711490D03*
Y2219490D03*
Y2473490D03*
X9400000Y1493990D03*
Y1747990D03*
Y2818990D03*
Y2564990D03*
G54D51*
X9792000Y3828000D03*
Y4692000D03*
G54D24*
X5698230Y4474420D03*
Y4626820D03*
X5540000Y4474420D03*
Y4626820D03*
X5860000Y4474420D03*
Y4626820D03*
X6570000Y2736200D03*
Y2583800D03*
X6903800Y4760000D03*
X7250000Y1503800D03*
Y1656200D03*
X7056200Y4760000D03*
X9723800Y3270000D03*
X9876200D03*
X9723800Y3410000D03*
X9876200D03*
G54D16*
X2295000Y2190000D03*
Y2340000D03*
Y2510000D03*
X2385000Y2190000D03*
Y2340000D03*
Y2510000D03*
X4875000Y2340000D03*
X4785000D03*
X4875000Y2640000D03*
X4785000D03*
X4875000Y2460000D03*
X4785000D03*
X4875000Y2900000D03*
X4785000D03*
X4875000Y3090000D03*
X4785000D03*
X4875000Y2770000D03*
X4785000D03*
X4875000Y3260000D03*
X4785000D03*
X4875000Y3420000D03*
X4785000D03*
X5345000Y4860000D03*
Y4980000D03*
Y5100000D03*
X5435000Y4860000D03*
Y4980000D03*
X5725000Y4770000D03*
X5435000Y5100000D03*
X5725000Y5260000D03*
X5815000Y4770000D03*
Y5260000D03*
X6515000Y510000D03*
X6425000D03*
X6415000Y1960000D03*
X6505000D03*
X6415000Y2110000D03*
X6505000D03*
X6415000Y2230000D03*
X6505000D03*
X6725000Y510000D03*
X6635000D03*
X6855000Y4260000D03*
X6945000D03*
X7375000Y700000D03*
X7465000D03*
X7685000D03*
X7595000D03*
Y1090000D03*
X7685000D03*
X7595000Y950000D03*
X7685000D03*
X7375000D03*
X7465000D03*
X7385000Y1990000D03*
X7475000D03*
X7385000Y1810000D03*
X7475000D03*
X7385000Y2290000D03*
X7475000D03*
X7385000Y2110000D03*
X7475000D03*
X7645000D03*
X7385000Y2410000D03*
X7475000D03*
X7995000Y510000D03*
X7905000D03*
X7735000Y2110000D03*
X7795000Y4200000D03*
X7885000D03*
Y4080000D03*
X7795000D03*
Y4320000D03*
X7885000D03*
Y4440000D03*
X7795000D03*
X8205000Y510000D03*
X8115000D03*
X8245000Y4500000D03*
X8155000D03*
X8965000Y4000000D03*
X8875000D03*
Y4520000D03*
X8965000D03*
X9585000Y1120000D03*
Y1240000D03*
X9575000Y3270000D03*
X9485000D03*
X9575000Y3410000D03*
X9485000D03*
X9675000Y1120000D03*
Y1240000D03*
G54D34*
X6940000Y2110000D03*
G54D25*
X5640000Y5010000D03*
Y4915000D03*
Y5105000D03*
X5900000Y5010000D03*
Y4915000D03*
Y5105000D03*
X6850000Y4425000D03*
Y4615000D03*
X7110000D03*
Y4520000D03*
Y4425000D03*
G54D43*
X8024460Y4210000D03*
Y4310000D03*
X8204460Y4210000D03*
Y4310000D03*
G54D44*
X7810000Y5015000D03*
X8290000D03*
X8770000D03*
G54D26*
X6330000Y4535000D03*
Y4925000D03*
G54D35*
X6800000Y2855000D03*
Y3045000D03*
X7040000Y2855000D03*
Y3045000D03*
G54D17*
X2740000Y2382980D03*
Y2432980D03*
Y2482980D03*
Y2532980D03*
Y2582980D03*
Y2632980D03*
Y2682980D03*
Y2732980D03*
Y2782980D03*
Y2832980D03*
Y2882980D03*
Y2932980D03*
Y2982980D03*
Y3032980D03*
Y3082980D03*
Y3132980D03*
Y3182980D03*
Y3232980D03*
Y3282980D03*
Y3332980D03*
Y3382980D03*
Y3432980D03*
Y3482980D03*
Y3532980D03*
Y3582980D03*
X4340000Y2732980D03*
Y2682980D03*
Y2632980D03*
Y2582980D03*
Y2532980D03*
Y2482980D03*
Y2432980D03*
Y2382980D03*
Y3082980D03*
Y3032980D03*
Y2982980D03*
Y2932980D03*
Y2882980D03*
Y2832980D03*
Y2782980D03*
Y3482980D03*
Y3432980D03*
Y3382980D03*
Y3332980D03*
Y3282980D03*
Y3232980D03*
Y3182980D03*
Y3132980D03*
Y3582980D03*
Y3532980D03*
G54D27*
X6365000Y110000D03*
X7115000D03*
X7955000D03*
X8705000D03*
G54D36*
X6760000Y5260000D03*
X7400000D03*
G54D18*
X3090000Y2182980D03*
X3040000D03*
X2990000D03*
X2940000D03*
Y3782980D03*
X2990000D03*
X3040000D03*
X3090000D03*
X3490000Y2182980D03*
X3440000D03*
X3390000D03*
X3340000D03*
X3290000D03*
X3240000D03*
X3190000D03*
X3140000D03*
Y3782980D03*
X3190000D03*
X3240000D03*
X3290000D03*
X3340000D03*
X3390000D03*
X3440000D03*
X3490000D03*
X3890000Y2182980D03*
X3840000D03*
X3790000D03*
X3740000D03*
X3690000D03*
X3640000D03*
X3590000D03*
X3540000D03*
Y3782980D03*
X3590000D03*
X3640000D03*
X3690000D03*
X3740000D03*
X3790000D03*
X3840000D03*
X3890000D03*
X4140000Y2182980D03*
X4090000D03*
X4040000D03*
X3990000D03*
X3940000D03*
Y3782980D03*
X3990000D03*
X4040000D03*
X4090000D03*
X4140000D03*
G54D45*
X8460000Y4015000D03*
X8410000D03*
Y4505000D03*
X8460000D03*
X8610000Y4015000D03*
X8560000D03*
X8510000D03*
Y4505000D03*
X8560000D03*
X8610000D03*
G54D46*
X8605000Y1381990D03*
Y2930990D03*
G54D19*
X2940000Y4205000D03*
Y4115000D03*
X3810000Y1895000D03*
Y1805000D03*
X4190000D03*
Y1895000D03*
X4020000Y4205000D03*
Y4115000D03*
X6110000Y5275000D03*
Y5185000D03*
X6690000Y1585000D03*
X6810000D03*
X6690000Y1675000D03*
X6810000D03*
X6820000Y2659170D03*
Y2569170D03*
X6700000D03*
Y2659170D03*
X6900000Y4975000D03*
Y4885000D03*
X7120000Y1585000D03*
Y1675000D03*
X7200000Y2569170D03*
Y2659170D03*
X7020000D03*
Y2569170D03*
X7200000Y2825000D03*
Y2915000D03*
X7050000Y4975000D03*
Y4885000D03*
X7320000Y4875000D03*
Y4965000D03*
X7200000D03*
Y4875000D03*
X7340000Y2659170D03*
Y2569170D03*
X7440000Y4965000D03*
Y4875000D03*
G54D28*
X6520000Y310000D03*
X6960000D03*
X8110000D03*
X8550000D03*
G54D37*
X7330000Y4620000D03*
Y4420000D03*
X7550000Y4620000D03*
X8770000Y4370000D03*
X8970000Y4150000D03*
Y4370000D03*
G54D38*
X7140000Y5590000D03*
X7420000D03*
G54D29*
X6375000Y699500D03*
Y826500D03*
Y953500D03*
Y1080500D03*
X7165000Y826500D03*
Y699500D03*
Y1080500D03*
Y953500D03*
G54D47*
X8790000Y4150000D03*
G54D48*
X9374000Y3828000D03*
Y4692000D03*
G54D39*
X7550000Y4440000D03*
G54D49*
X9270000Y4020000D03*
Y3940000D03*
Y4580000D03*
Y4500000D03*
M02*
