G04 ================== begin FILE IDENTIFICATION RECORD ==================*
G04 Layout Name:  G:/github/MBEDBoard/F450_V10_220411/PCB/F450_V10_220411.brd*
G04 Film Name:    SolderMask_Bottom*
G04 File Format:  Gerber RS274X*
G04 File Origin:  Cadence Allegro 17.2-S071*
G04 Origin Date:  Thu Apr 14 16:07:37 2022*
G04 *
G04 Layer:  PIN/SOLDERMASK_BOTTOM*
G04 Layer:  PACKAGE GEOMETRY/SOLDERMASK_BOTTOM*
G04 Layer:  BOARD GEOMETRY/SOLDERMASK_BOTTOM*
G04 *
G04 Offset:    (0.0000 0.0000)*
G04 Mirror:    No*
G04 Mode:      Positive*
G04 Rotation:  0*
G04 FullContactRelief:  No*
G04 UndefLineWidth:     0.1524*
G04 ================== end FILE IDENTIFICATION RECORD ====================*
%FSLAX55Y55*MOMM*%
%IR0*IPPOS*OFA0.00000B0.00000*MIA0B0*SFA1.00000B1.00000*%
%ADD21O,2.2X1.1*%
%ADD22O,1.7X1.1*%
%ADD12C,1.1*%
%ADD17C,2.3*%
%ADD19C,2.4*%
%ADD10C,7.*%
%ADD20C,2.6*%
%ADD18C,1.7*%
%ADD15C,1.8*%
%ADD11R,1.1X1.1*%
%ADD14C,1.9*%
%ADD16C,1.75*%
%ADD13R,1.9X1.9*%
G75*
%LPD*%
G75*
G36*
G01X6810000Y2240000D02*
Y1980000D01*
X7070000D01*
Y2240000D01*
X6810000D01*
G37*
G54D10*
X360000Y360000D03*
Y5740000D03*
X9640000Y360000D03*
Y5740000D03*
G54D11*
X723500Y4466000D03*
G54D20*
X8605000Y1381990D03*
Y2930990D03*
G54D12*
X596500Y4593000D03*
X723500D03*
X596500Y4466000D03*
Y4974000D03*
X723500D03*
X596500Y4847000D03*
X723500D03*
X596500Y4720000D03*
X723500D03*
G54D21*
X9374000Y3828000D03*
Y4692000D03*
G54D13*
X1290000Y1247000D03*
X5130000Y627000D03*
Y5727000D03*
G54D22*
X9792000Y3828000D03*
Y4692000D03*
G54D14*
X1036000Y1247000D03*
Y1501000D03*
X1290000D03*
X1036000Y2009000D03*
X1290000D03*
X1036000Y1755000D03*
X1290000D03*
X1036000Y2263000D03*
X1290000D03*
X1036000Y2771000D03*
Y2517000D03*
X1290000Y2771000D03*
Y2517000D03*
X1036000Y3025000D03*
X1290000D03*
X1036000Y3533000D03*
Y3279000D03*
X1290000Y3533000D03*
Y3279000D03*
G54D15*
X1574000Y373000D03*
Y627000D03*
Y5473000D03*
Y5727000D03*
X1828000Y373000D03*
Y627000D03*
Y5473000D03*
Y5727000D03*
X2082000Y373000D03*
X2336000D03*
X2082000Y627000D03*
X2336000D03*
X2082000Y5473000D03*
X2336000D03*
X2082000Y5727000D03*
X2336000D03*
X2590000Y373000D03*
Y627000D03*
Y5473000D03*
Y5727000D03*
X2844000Y373000D03*
X3098000D03*
X2844000Y627000D03*
X3098000D03*
X2844000Y5473000D03*
X3098000D03*
X2844000Y5727000D03*
X3098000D03*
X3352000Y373000D03*
Y627000D03*
Y5473000D03*
Y5727000D03*
X3606000Y373000D03*
X3860000D03*
X3606000Y627000D03*
X3860000D03*
X3606000Y5473000D03*
X3860000D03*
X3606000Y5727000D03*
X3860000D03*
X4114000Y373000D03*
Y627000D03*
Y5473000D03*
Y5727000D03*
X4368000Y373000D03*
X4622000D03*
X4368000Y627000D03*
X4622000D03*
X4368000Y5473000D03*
X4622000D03*
X4368000Y5727000D03*
X4622000D03*
X4876000Y373000D03*
Y627000D03*
Y5473000D03*
Y5727000D03*
X5130000Y373000D03*
Y5473000D03*
G54D16*
X6365000Y110000D03*
X7115000D03*
X7955000D03*
X8705000D03*
G54D17*
X7625000Y5937000D03*
X8955000D03*
G54D18*
X8021000Y1838490D03*
Y2346490D03*
Y2092490D03*
Y2600490D03*
X8275000Y1965490D03*
Y1711490D03*
Y2219490D03*
Y2473490D03*
X9400000Y1493990D03*
Y1747990D03*
Y2818990D03*
Y2564990D03*
G54D19*
X7810000Y5015000D03*
X8290000D03*
X8770000D03*
M02*
