G04 ================== begin FILE IDENTIFICATION RECORD ==================*
G04 Layout Name:  H:/MBEDBoard/MYD-Y6ULX_TEST_V10A/PCB/MYD-Y6ULX_TEST_V10A.brd*
G04 Film Name:    ADT*
G04 File Format:  Gerber RS274X*
G04 File Origin:  Cadence Allegro 17.2-S045*
G04 Origin Date:  Sat Dec 29 10:55:41 2018*
G04 *
G04 Layer:  REF DES/SILKSCREEN_TOP*
G04 Layer:  PIN/TOP*
G04 Layer:  PACKAGE GEOMETRY/SILKSCREEN_TOP*
G04 Layer:  BOARD GEOMETRY/SILKSCREEN_TOP*
G04 Layer:  BOARD GEOMETRY/OUTLINE*
G04 *
G04 Offset:    (0.0000 0.0000)*
G04 Mirror:    No*
G04 Mode:      Positive*
G04 Rotation:  0*
G04 FullContactRelief:  No*
G04 UndefLineWidth:     0.1524*
G04 ================== end FILE IDENTIFICATION RECORD ====================*
%FSLAX55Y55*MOMM*%
%IR0*IPPOS*OFA0.00000B0.00000*MIA0B0*SFA1.00000B1.00000*%
%ADD44R,2.X.6*%
%ADD43R,.6X2.*%
%ADD21R,1.1X.6*%
%ADD46R,.3X1.5*%
%ADD53R,.4X1.6*%
%ADD22R,.55X1.*%
%ADD49R,.3X1.55*%
%ADD30R,.8X1.5*%
%ADD60R,.65X1.06*%
%ADD36R,2.4892X.5001*%
%ADD64O,4.X2.*%
%ADD63O,2.X4.*%
%ADD57R,2.2X1.1*%
%ADD19R,1.4X1.*%
%ADD47R,3.X3.*%
%ADD56R,1.4X1.2*%
%ADD26R,4.X2.3*%
%ADD11R,1.8X1.*%
%ADD32O,.8X.2*%
%ADD20R,1.4X2.4*%
%ADD51R,1.6X1.5*%
%ADD48R,1.4X1.15*%
%ADD33O,.2X.8*%
%ADD18R,1.4X3.4*%
%ADD12R,1.5X2.6*%
%ADD58R,3.8X2.3*%
%ADD52R,1.8X1.6*%
%ADD41C,1.3*%
%ADD54R,.4X.9*%
%ADD34R,2.7X2.7*%
%ADD61R,1.27X1.27*%
%ADD40C,3.3*%
%ADD29R,1.27X1.27*%
%ADD65C,2.7*%
%ADD50R,1.2192X1.016*%
%ADD38C,1.6002*%
%ADD45C,1.27*%
%ADD15R,1.016X1.2192*%
%ADD42R,1.3X1.3*%
%ADD55C,1.65*%
%ADD24C,1.524*%
%ADD16C,6.35*%
%ADD35C,3.048*%
%ADD23C,1.905*%
%ADD39C,1.1176*%
%ADD25R,1.524X1.524*%
%ADD37R,3.1999X2.3*%
%ADD17C,1.778*%
%ADD31R,.4318X.8128*%
%ADD59R,.8128X.4318*%
%ADD27R,.9144X.9144*%
%ADD62C,1.6993*%
%ADD14R,.9144X.9144*%
%ADD28R,1.1938X1.1938*%
%ADD13R,1.778X1.778*%
%ADD10C,5.9944*%
%ADD66C,.1*%
%ADD67C,.2*%
%ADD68C,.24*%
%ADD69C,.2032*%
%ADD70C,.17*%
%ADD71C,.127*%
%ADD72C,.254*%
%ADD73C,.381*%
%ADD74C,.1524*%
%ADD75C,.3048*%
%ADD76C,.1778*%
%ADD77C,.1999*%
G75*
%LPD*%
G75*
G36*
G01X69000Y6210000D02*
Y6160000D01*
X119000D01*
Y6210000D01*
X69000D01*
G37*
G36*
G01X1480000Y5480000D02*
X1430000D01*
Y5430000D01*
X1480000D01*
Y5480000D01*
G37*
G36*
G01X3221900Y1183270D02*
G03I-25400J0D01*
G37*
G36*
G01X3730000Y4840000D02*
G03I-30000J0D01*
G37*
G36*
G01X4500000Y5782500D02*
X4420000D01*
Y5702500D01*
X4500000D01*
Y5782500D01*
G37*
G36*
G01X4766360Y6488520D02*
G03I-31620J0D01*
G37*
G36*
G01X5820000Y590000D02*
Y670000D01*
X5730000D01*
Y590000D01*
X5820000D01*
G37*
G36*
G01X5973620Y6488520D02*
G03I-31620J0D01*
G37*
G36*
G01X6429990Y2150000D02*
X6350010Y2069990D01*
X6510000D01*
X6429990Y2150000D01*
G37*
G36*
G01X6210000Y2220000D02*
Y2360010D01*
X6350010Y2220000D01*
X6210000D01*
G37*
G36*
G01X7884100Y151100D02*
G03I-38100J0D01*
G37*
G36*
G01X7900000Y730000D02*
G03I-30000J0D01*
G37*
G36*
G01X9450000Y1520000D02*
G03I-20000J0D01*
G37*
G36*
G01X9535670Y6770000D02*
G03I-22360J0D01*
G37*
G36*
G01X10790000Y3709000D02*
X10840000D01*
Y3759000D01*
X10790000D01*
Y3709000D01*
G37*
G36*
G01X10590000Y7440000D02*
G03I-40000J0D01*
G37*
G36*
G01X11140000Y6610000D02*
X11040000D01*
Y6500000D01*
X11140000D01*
Y6610000D01*
G37*
G36*
G01Y6870000D02*
X11040000D01*
Y6760000D01*
X11140000D01*
Y6870000D01*
G37*
G36*
G01Y7120000D02*
X11040000D01*
Y7010000D01*
X11140000D01*
Y7120000D01*
G37*
G36*
G01Y7380000D02*
X11040000D01*
Y7260000D01*
X11140000D01*
Y7380000D01*
G37*
G36*
G01X11522200Y3813500D02*
G03I-25400J0D01*
G37*
G36*
G01Y5133500D02*
G03I-25400J0D01*
G37*
G36*
G01X11961980Y685380D02*
G03I-29620J0D01*
G37*
G36*
G01Y1705380D02*
G03I-29620J0D01*
G37*
G36*
G01Y2705380D02*
G03I-29620J0D01*
G37*
G36*
G01X11928600Y5876500D02*
G03I-25400J0D01*
G37*
G36*
G01Y5616500D02*
G03I-25400J0D01*
G37*
G36*
G01X12801620Y2208000D02*
G03I-31620J0D01*
G37*
G54D10*
X485000Y1155900D03*
Y3575900D03*
G54D20*
X1450000Y1600000D03*
X3000000D03*
G54D11*
X247800Y1562600D03*
Y3177400D03*
G54D12*
X280000Y4190000D03*
X380000Y4910000D03*
X280000Y5252500D03*
X380000Y5972500D03*
X872000Y4190000D03*
X583000D03*
X887000Y4910000D03*
X670000D03*
X872000Y5252500D03*
X583000D03*
X887000Y5972500D03*
X670000D03*
X1080000Y4190000D03*
Y5252500D03*
G54D30*
X2790000Y1613000D03*
G54D21*
X1322000Y2474000D03*
Y2364000D03*
Y2254000D03*
Y2144000D03*
Y2914000D03*
Y2804000D03*
Y2694000D03*
Y2584000D03*
Y3024000D03*
G54D13*
X199000Y6290000D03*
X5640000Y500000D03*
X10710000Y3839000D03*
G54D31*
X3196500Y1277250D03*
X3260000D03*
X3323500D03*
Y1495690D03*
X3260000D03*
X3196500D03*
X9326500Y820780D03*
X9390000D03*
X9453500D03*
Y1039220D03*
X9390000D03*
X9326500D03*
G54D40*
X6200000Y830000D03*
Y1410000D03*
X7530000Y830000D03*
Y1410000D03*
X13057160Y3865400D03*
Y5008400D03*
Y5500710D03*
Y6643710D03*
G54D22*
X1934500Y1715000D03*
X1834500D03*
X2453500D03*
X2353500D03*
X2253500D03*
X2075000D03*
X2553500D03*
G54D14*
X883800Y370000D03*
X1036200D03*
X2836200Y5100000D03*
X2683800D03*
X2836200Y4870000D03*
X2683800D03*
X3386200Y4167600D03*
X3233800D03*
X3166200Y4320000D03*
X3013800D03*
X3166200Y4470000D03*
X3013800D03*
X3166200Y5530000D03*
X3013800D03*
X3166200Y5680000D03*
X3013800D03*
X3533800Y900000D03*
X3686200D03*
Y1357250D03*
X3533800D03*
Y1200000D03*
X3686200D03*
Y1050000D03*
X3533800D03*
X3686200Y1660000D03*
X3533800D03*
X3686200Y1510000D03*
X3533800D03*
X3983800Y4510000D03*
Y4660000D03*
Y4810000D03*
Y4960000D03*
Y5130000D03*
X4136200Y4510000D03*
Y4660000D03*
Y4810000D03*
Y4960000D03*
Y5130000D03*
X11366200Y5580000D03*
X11213800D03*
X11366200Y5733500D03*
X11213800D03*
X11366200Y5880000D03*
X11213800D03*
X11366200Y6030000D03*
X11213800D03*
X12256200Y1130000D03*
X12408600D03*
X12256200Y1280000D03*
X12408600D03*
X11953800Y1130000D03*
X12106200D03*
Y1280000D03*
X11953800D03*
X12256200Y2150000D03*
X12408600D03*
X12256200Y2300000D03*
X12408600D03*
X11953800Y2150000D03*
X12106200D03*
X12256200Y3150000D03*
X12408600D03*
X12256200Y3300000D03*
X12408600D03*
X11953800D03*
X12106200D03*
Y3150000D03*
X11953800D03*
G54D23*
X1700000Y2590000D03*
X4240000D03*
G54D50*
X8730000Y341600D03*
Y138400D03*
G54D41*
X6075000Y1880000D03*
X6325000D03*
X6745000D03*
X6995000D03*
G54D32*
X3220000Y5040000D03*
Y5000000D03*
Y4960000D03*
Y4920000D03*
Y4880000D03*
Y4840000D03*
Y5120000D03*
Y5080000D03*
X3620000Y4840000D03*
Y4880000D03*
Y4920000D03*
Y4960000D03*
Y5000000D03*
Y5040000D03*
Y5080000D03*
Y5120000D03*
G54D24*
X1760000Y4975000D03*
X1952150Y6657320D03*
X1813650Y6941320D03*
X2506150Y6657320D03*
X2229150D03*
X2367650Y6941320D03*
X2090650D03*
X2783150Y6657320D03*
X2644650Y6941320D03*
X3354000Y246000D03*
Y500000D03*
X3608000Y246000D03*
X3862000D03*
X3608000Y500000D03*
X3862000D03*
X4116000Y246000D03*
X4370000D03*
X4116000Y500000D03*
X4370000D03*
X4590000Y4596500D03*
Y4850500D03*
Y5104500D03*
Y5358500D03*
X4624000Y246000D03*
X4878000D03*
X5132000D03*
X4624000Y500000D03*
X4878000D03*
X5132000D03*
X4844000Y4596500D03*
Y4850500D03*
Y5104500D03*
Y5358500D03*
Y5612500D03*
X5386000Y246000D03*
X5640000D03*
X5386000Y500000D03*
X13547160Y4028400D03*
Y3774400D03*
Y5099400D03*
Y4845400D03*
Y5409710D03*
Y5663710D03*
Y6480710D03*
Y6734710D03*
G54D42*
X6520000Y1360000D03*
Y1100000D03*
G54D15*
X858400Y190000D03*
X1061600D03*
X10051600Y1770000D03*
X9848400D03*
X10051600Y1981300D03*
X9848400D03*
X12106030Y7170000D03*
X12309230D03*
G54D33*
X3280000Y4780000D03*
X3320000D03*
X3360000D03*
X3400000D03*
X3440000D03*
X3480000D03*
Y5180000D03*
X3440000D03*
X3400000D03*
X3360000D03*
X3320000D03*
X3280000D03*
X3520000Y4780000D03*
X3560000D03*
Y5180000D03*
X3520000D03*
G54D51*
X9100000Y410000D03*
X9760000D03*
G54D60*
X12195000Y684600D03*
X12100000D03*
X12005000D03*
X12100000Y955400D03*
X12005000D03*
X12195000D03*
Y1704600D03*
X12100000D03*
X12005000D03*
X12100000Y1975400D03*
X12005000D03*
X12195000D03*
X12100000Y2975400D03*
X12005000D03*
X12195000D03*
Y2704600D03*
X12100000D03*
X12005000D03*
G54D70*
G01X9260000Y380000D02*
G03I-30000J0D01*
G01X9660000D02*
G03I-30000J0D01*
G54D25*
X1760000Y5225000D03*
X1675150Y6657320D03*
X4590000Y5612500D03*
G54D16*
X979150Y6799320D03*
X3479150D03*
G54D61*
X12410000Y715860D03*
Y924140D03*
X12390000Y1735860D03*
Y1944140D03*
X12400000Y2735860D03*
Y2944140D03*
G54D34*
X3420000Y4980000D03*
G54D52*
X9010000Y150000D03*
X9850000D03*
G54D43*
X6429990Y2260010D03*
X6529990D03*
X6629990D03*
Y5919990D03*
X6529990D03*
X6429990D03*
X6729990Y2260010D03*
X6829990D03*
X6929990D03*
X7029990D03*
X7129990D03*
Y5919990D03*
X7029990D03*
X6929990D03*
X6829990D03*
X6729990D03*
X7229990Y2260010D03*
X7329990D03*
X7429990D03*
X7529990D03*
X7629990D03*
Y5919990D03*
X7529990D03*
X7429990D03*
X7329990D03*
X7229990D03*
X7729990Y2260010D03*
X7829990D03*
X7929990D03*
X8029990D03*
X8129990D03*
Y5919990D03*
X8029990D03*
X7929990D03*
X7829990D03*
X7729990D03*
X8230010Y2260010D03*
X8330010D03*
X8430010D03*
X8530010D03*
X8630010D03*
X8730010D03*
Y5919990D03*
X8630010D03*
X8530010D03*
X8430010D03*
X8330010D03*
X8230010D03*
X8830010Y2260010D03*
X8930010D03*
X9030010D03*
X9130010D03*
X9230010D03*
Y5919990D03*
X9130010D03*
X9030010D03*
X8930010D03*
X8830010D03*
X9330010Y2260010D03*
X9430010D03*
X9530010D03*
X9630010D03*
X9730010D03*
Y5919990D03*
X9630010D03*
X9530010D03*
X9430010D03*
X9330010D03*
X9830010Y2260010D03*
X9930010D03*
Y5919990D03*
X9830010D03*
G54D71*
G01X2655000Y2590000D02*
G03I-75000J0D01*
G01X3405000D02*
G03I-75000J0D01*
G54D62*
X12422160Y3991900D03*
X12168160Y4372900D03*
Y4118900D03*
X12422160Y4499900D03*
Y4245900D03*
X12168160Y4880900D03*
Y4626900D03*
X12422160Y4753900D03*
Y5627210D03*
X12168160Y6008210D03*
Y5754210D03*
X12422160Y6135210D03*
Y5881210D03*
X12168160Y6516210D03*
Y6262210D03*
X12422160Y6389210D03*
G54D17*
X707000Y6290000D03*
X453000D03*
X961000D03*
X10710000Y4093000D03*
Y4601000D03*
Y4347000D03*
G54D35*
X4228740Y6718520D03*
X4736740D03*
X5436000D03*
X5944000D03*
X13000000Y2206000D03*
Y2714000D03*
G54D26*
X2170000Y2590000D03*
X3770000D03*
G54D53*
X9560000Y460000D03*
X9495000D03*
X9430000D03*
X9365000D03*
X9300000D03*
G54D44*
X6250010Y2439990D03*
Y2939990D03*
Y2839990D03*
Y2739990D03*
Y2639990D03*
Y2539990D03*
Y3439990D03*
Y3339990D03*
Y3239990D03*
Y3139990D03*
Y3039990D03*
Y3939990D03*
Y3839990D03*
Y3739990D03*
Y3639990D03*
Y3539990D03*
Y4540010D03*
Y4440010D03*
Y4340010D03*
Y4240010D03*
Y4140010D03*
Y4039990D03*
Y5040010D03*
Y4940010D03*
Y4840010D03*
Y4740010D03*
Y4640010D03*
Y5540010D03*
Y5440010D03*
Y5340010D03*
Y5240010D03*
Y5140010D03*
Y5740010D03*
Y5640010D03*
X10109990Y2439990D03*
Y2539990D03*
Y2639990D03*
Y2739990D03*
Y2839990D03*
Y2939990D03*
Y3039990D03*
Y3139990D03*
Y3239990D03*
Y3339990D03*
Y3439990D03*
Y3539990D03*
Y3639990D03*
Y3739990D03*
Y3839990D03*
Y3939990D03*
Y4039990D03*
Y4140010D03*
Y4240010D03*
Y4340010D03*
Y4440010D03*
Y4540010D03*
Y4640010D03*
Y4740010D03*
Y4840010D03*
Y4940010D03*
Y5040010D03*
Y5140010D03*
Y5240010D03*
Y5340010D03*
Y5440010D03*
Y5540010D03*
Y5640010D03*
Y5740010D03*
G54D72*
G01X1290000Y2370000D02*
Y3110000D01*
X-90000D01*
Y2310000D01*
X-210000Y2110000D01*
X-208600Y1633400D01*
X1099500D01*
Y1760400D01*
X1290000D01*
Y2370000D01*
G01X72000Y6163000D02*
Y6417000D01*
G01X1088000Y6163000D02*
X72000D01*
G01Y6417000D02*
X1088000D01*
G01X684150Y6541320D02*
X3774150D01*
Y7741320D01*
X3124150D01*
Y8341320D01*
X1334150D01*
Y7741320D01*
X684150D01*
Y6541320D01*
G01X1129150Y7459320D02*
X829150Y7429320D01*
G01X1129150Y7509320D02*
X829150Y7479320D01*
G01X1129150Y7559320D02*
X829150Y7529320D01*
G01X1129150Y7609320D02*
X829150Y7579320D01*
G01X1129150Y7659320D02*
X829150Y7629320D01*
G01X1129150Y7709320D02*
X829150Y7679320D01*
G01Y7741320D02*
Y7419320D01*
X879150Y7369320D01*
X1079150D01*
X1129150Y7419320D01*
Y8221320D01*
X829150D01*
Y7741320D01*
X1229150D01*
Y8221320D01*
X729150D01*
Y7741320D01*
X979150D01*
G01X1099500Y1798500D02*
G03X1048700I-25400J0D01*
G01X1099500Y1633400D02*
Y1798500D01*
G01X1048700Y1633400D02*
Y1798500D01*
G01X1088000Y6417000D02*
Y6163000D01*
G01X2020000Y4760000D02*
X1760000D01*
G01D02*
Y4710000D01*
G01X2020000Y5490000D02*
X1420000D01*
Y4710000D01*
X2020000D01*
G01Y5440000D02*
X1760000D01*
Y5490000D01*
G01X2510000Y3300000D02*
X2160000D01*
Y1880000D01*
X2510000D01*
Y3300000D01*
G01X3760000Y2590000D02*
G03I-800000J0D01*
G01X2750000Y4220000D02*
X2370000D01*
Y4380000D01*
X2750000D01*
Y4220000D01*
G01Y4410000D02*
X2370000D01*
Y4570000D01*
X2750000D01*
Y4410000D01*
G01X2020000Y5210000D02*
Y4890000D01*
G01D02*
X1970000D01*
G01X2020000Y4710000D02*
Y5150000D01*
X1970000D01*
Y5310000D01*
X2020000D01*
Y5490000D01*
G01X1970000Y5050000D02*
X2020000D01*
G01X1970000Y4890000D02*
Y5050000D01*
G01X2020000Y5310000D02*
Y4710000D01*
G01D02*
Y4760000D01*
G01X2750000Y5430000D02*
X2370000D01*
Y5590000D01*
X2750000D01*
Y5430000D01*
G01Y5620000D02*
X2370000D01*
Y5780000D01*
X2750000D01*
Y5620000D01*
G01X3329150Y7741320D02*
Y7419320D01*
X3379150Y7369320D01*
X3579150D01*
X3629150Y7419320D01*
Y8221320D01*
X3329150D01*
Y7741320D01*
X3729150D01*
Y8221320D01*
X3229150D01*
Y7741320D01*
X3479150D01*
G01X3629150Y7709320D02*
X3329150Y7679320D01*
G01X3629150Y7659320D02*
X3329150Y7629320D01*
G01X3629150Y7609320D02*
X3329150Y7579320D01*
G01X3629150Y7559320D02*
X3329150Y7529320D01*
G01X3629150Y7509320D02*
X3329150Y7479320D01*
G01X3629150Y7459320D02*
X3329150Y7429320D01*
G01X3479150Y7741320D02*
X3229150D01*
Y8221320D01*
X3729150D01*
Y7741320D01*
X3329150D01*
Y8221320D01*
X3629150D01*
Y7741320D01*
G01X5094740Y6538520D02*
X3888740D01*
Y7778520D01*
X5094740D01*
Y6538520D01*
G01Y7778520D02*
Y7468520D01*
X3888740D01*
Y7778520D01*
G01X4482740Y6540520D02*
X4484740Y6538520D01*
G01X4324740Y6858520D02*
Y7468520D01*
X4284740Y7618520D01*
X4174740D01*
X4134740Y7468520D01*
Y6858520D01*
G01X4484740Y7778520D02*
X4482740Y7776520D01*
G01X4834740Y6858520D02*
Y7468520D01*
X4794740Y7618520D01*
X4684740D01*
X4644740Y7468520D01*
Y6858520D01*
G01X6302000Y6538520D02*
X5096000D01*
Y7778520D01*
X6302000D01*
Y6538520D01*
G01X5532000Y6858520D02*
Y7468520D01*
X5492000Y7618520D01*
X5382000D01*
X5342000Y7468520D01*
Y6858520D01*
G01X6302000Y7778520D02*
Y7468520D01*
X5096000D01*
Y7778520D01*
G01X6455000Y1880000D02*
G03I-255000J0D01*
G01X5690000Y6540520D02*
X5692000Y6538520D01*
G01X6042000Y6858520D02*
Y7468520D01*
X6002000Y7618520D01*
X5892000D01*
X5852000Y7468520D01*
Y6858520D01*
G01X5692000Y7778520D02*
X5690000Y7776520D01*
G01X7540000Y1560000D02*
X6200000D01*
Y-220000D01*
X7540000D01*
Y1560000D01*
G01X6762800Y642800D02*
X6712000Y33200D01*
X6559600D01*
X6508800Y642800D01*
X6610400Y84000D01*
X6661200D01*
X6762800Y642800D01*
G01X6575000Y1880000D02*
X6495000D01*
G01X6535000Y1920000D02*
Y1840000D01*
G01X6305000Y1790000D02*
Y1710000D01*
G01X6345000Y1750000D02*
X6265000D01*
G01X6495000Y1880000D02*
X6575000D01*
G01X6535000Y1840000D02*
Y1920000D01*
G01X7125000Y1880000D02*
G03I-255000J0D01*
G01X6966000Y642800D02*
X7067600Y84000D01*
X7118400D01*
X7220000Y642800D01*
X7169200Y33200D01*
X7016800D01*
X6966000Y642800D01*
G01X6765000Y1970000D02*
Y2050000D01*
G01X6725000Y2010000D02*
X6805000D01*
G01X7900000Y400000D02*
X8300000D01*
Y80000D01*
X7900000D01*
Y400000D01*
G01X7840000Y1040000D02*
Y840000D01*
X8880000D01*
Y1400000D01*
X7840000D01*
Y1200000D01*
G01D02*
G02Y1040000I0J-80000D01*
G01X9470000Y1480000D02*
Y1140000D01*
X9310000D01*
Y1480000D01*
X9470000D01*
G01X10837000Y3712000D02*
X10583000D01*
G01D02*
Y4728000D01*
G01D02*
X10837000D01*
G01X10740000Y7450000D02*
Y6430000D01*
X11340000D01*
Y7450000D01*
X10740000D01*
G01X11160000Y590000D02*
X11020000D01*
Y1350000D01*
X11160000D01*
G01Y1620000D02*
X11020000D01*
Y2380000D01*
X11160000D01*
G01Y2650000D02*
X11020000D01*
Y3410000D01*
X11160000D01*
G01X10837000Y4728000D02*
Y3712000D01*
G01X11040000Y6498000D02*
Y6618000D01*
X11140000D01*
Y6500000D01*
G01X11190000Y6620000D02*
X10890000D01*
Y6500000D01*
X11190000D01*
Y6620000D01*
G01X11040000Y6752000D02*
Y6872000D01*
X11140000D01*
Y6760000D01*
G01X11040000Y7006000D02*
Y7126000D01*
X11140000D01*
Y7010000D01*
G01X11190000Y6870000D02*
X10890000D01*
Y6750000D01*
X11190000D01*
Y6870000D01*
G01Y7130000D02*
X10890000D01*
Y7000000D01*
X11190000D01*
Y7130000D01*
G01X11140000Y7380000D02*
X11040000D01*
Y7260000D01*
G01X11190000Y7380000D02*
X10890000D01*
Y7260000D01*
X11190000D01*
Y7380000D01*
X11140000D01*
Y7260000D01*
G01X11580000Y1350000D02*
X11720000D01*
Y590000D01*
X11580000D01*
G01Y2380000D02*
X11720000D01*
Y1620000D01*
X11580000D01*
G01Y3410000D02*
X11720000D01*
Y2650000D01*
X11580000D01*
G01X11960300Y858100D02*
G02Y781900I-12700J-38100D01*
G01Y858100D02*
Y883500D01*
X12239700D01*
Y756500D01*
X11960300D01*
Y781900D01*
G01Y1878100D02*
G02Y1801900I-12700J-38100D01*
G01Y1878100D02*
Y1903500D01*
X12239700D01*
Y1776500D01*
X11960300D01*
Y1801900D01*
G01Y2878100D02*
G02Y2801900I-12700J-38100D01*
G01Y2878100D02*
Y2903500D01*
X12239700D01*
Y2776500D01*
X11960300D01*
Y2801900D01*
G01X14149160Y5241900D02*
Y3631900D01*
X12019160D01*
Y5241900D01*
X14149160D01*
G01Y6877210D02*
Y5267210D01*
X12019160D01*
Y6877210D01*
X14149160D01*
G01X12027630Y7260000D02*
X12387630D01*
Y7080000D01*
X12027630D01*
Y7260000D01*
G01X14220000Y650000D02*
X12820000D01*
Y1550000D01*
X14220000D01*
Y650000D01*
G01X12820000Y1848000D02*
Y3054000D01*
X14060000D01*
Y1848000D01*
X12820000D01*
G01X12822000Y2460000D02*
X12820000Y2458000D01*
G01X13140000Y2108000D02*
X13750000D01*
X13900000Y2148000D01*
Y2258000D01*
X13750000Y2298000D01*
X13140000D01*
G01Y2618000D02*
X13750000D01*
X13900000Y2658000D01*
Y2768000D01*
X13750000Y2808000D01*
X13140000D01*
G01X14060000Y1848000D02*
X13750000D01*
Y3054000D01*
X14060000D01*
G01Y2458000D02*
X14058000Y2460000D01*
G54D27*
X2280000Y4300000D03*
Y4147600D03*
Y4493800D03*
Y4646200D03*
Y5510000D03*
Y5357600D03*
Y5700000D03*
Y5852400D03*
X2840000Y4470000D03*
Y4320000D03*
Y4167600D03*
Y4622400D03*
Y5373800D03*
Y5526200D03*
Y5836200D03*
Y5683800D03*
X3386200Y4486200D03*
Y4333800D03*
X3490000Y5493800D03*
Y5646200D03*
X3640000Y5493800D03*
X3820000D03*
X3970000D03*
X3640000Y5646200D03*
X3820000D03*
X3970000D03*
X4120000Y5493800D03*
Y5646200D03*
X7730000Y163800D03*
Y316200D03*
X8460000D03*
Y163800D03*
X8990000Y853800D03*
X9140000D03*
X8990000Y1006200D03*
X9140000D03*
X9730000Y853800D03*
Y1006200D03*
X11820000Y743800D03*
Y896200D03*
Y1763800D03*
Y1916200D03*
Y2763800D03*
Y2916200D03*
G54D45*
X6970000Y1360000D03*
X6770000D03*
X6970000Y1100000D03*
X6770000D03*
X7220000D03*
Y1360000D03*
G54D54*
X9430000Y1210000D03*
X9350000D03*
Y1410000D03*
X9430000D03*
G54D18*
X1450000Y235000D03*
Y765000D03*
X3000000Y235000D03*
Y765000D03*
G54D63*
X12820000Y1070000D03*
X13420000D03*
G54D36*
X4880010Y1385900D03*
Y1305890D03*
Y1225900D03*
Y1785900D03*
Y1705890D03*
Y1625900D03*
Y1545890D03*
Y1465910D03*
Y2425900D03*
Y2345890D03*
Y2265910D03*
Y2185900D03*
Y2985900D03*
Y2905910D03*
Y2825900D03*
Y2745890D03*
Y2665910D03*
Y2585900D03*
Y2505910D03*
Y3465910D03*
Y3385900D03*
Y3305910D03*
Y3225900D03*
Y3145890D03*
Y3065910D03*
Y3545890D03*
X5700000Y1345890D03*
Y1265910D03*
Y1185900D03*
Y1745890D03*
Y1665910D03*
Y1585900D03*
Y1505890D03*
Y1425900D03*
Y2385900D03*
Y2305890D03*
Y2225900D03*
Y2145890D03*
Y2945890D03*
Y2865910D03*
Y2785900D03*
Y2705910D03*
Y2625900D03*
Y2545890D03*
Y2465910D03*
Y3505910D03*
Y3425900D03*
Y3345890D03*
Y3265910D03*
Y3185900D03*
Y3105910D03*
Y3025900D03*
G54D73*
G01X4742400Y5790300D02*
X5021800D01*
Y4418700D01*
X4412200D01*
Y5790300D01*
X4742400D01*
G54D28*
X2455860Y4300000D03*
Y4490000D03*
Y5510000D03*
Y5700000D03*
X2664140Y4300000D03*
Y4490000D03*
Y5510000D03*
Y5700000D03*
G54D37*
X5640010Y900910D03*
Y3830900D03*
G54D55*
X10365000Y130000D03*
X11115000D03*
X11315000D03*
X12065000D03*
X12265000D03*
X13015000D03*
G54D19*
X1240000Y1680000D03*
Y3180000D03*
G54D64*
X13100000Y1550000D03*
G54D46*
X7063310Y6880000D03*
X7113310D03*
X7163310D03*
X7213310D03*
X7263310D03*
X7313310D03*
X7363310D03*
X7413310D03*
X7463310D03*
X7513310D03*
X7563310D03*
X7613310D03*
X7663310D03*
X7713310D03*
X7763310D03*
X7813310D03*
X7863310D03*
X7913310D03*
X7963310D03*
X8013310D03*
X8063310D03*
X8113310D03*
X8163310D03*
X8213310D03*
X8263310D03*
X8313310D03*
X8363310D03*
X8413310D03*
X8463310D03*
X8513310D03*
X8563310D03*
X8613310D03*
X8663310D03*
X8713310D03*
X8763310D03*
X8813310D03*
X8863310D03*
X8913310D03*
X8963310D03*
X9013310D03*
X9063310D03*
X9113310D03*
X9163310D03*
X9213310D03*
X9263310D03*
X9313310D03*
X9363310D03*
X9413310D03*
X9463310D03*
X9513310D03*
G54D74*
G01X83000Y3360000D02*
Y3295500D01*
X87000Y3282000D01*
X95000Y3273000D01*
X105000Y3270000D01*
X115000Y3273000D01*
X123000Y3282000D01*
X127000Y3295500D01*
Y3360000D01*
G01X187000Y3270000D02*
Y3360000D01*
X150000Y3295500D01*
X200000D01*
G01X245050Y4409370D02*
X264530D01*
Y4385750D01*
X258680Y4377870D01*
X251870Y4372620D01*
X242130Y4370000D01*
X232390Y4372620D01*
X225580Y4377870D01*
X219740Y4385750D01*
X215840Y4394930D01*
X213890Y4405430D01*
Y4414620D01*
X215840Y4422490D01*
X219740Y4431680D01*
X225580Y4439550D01*
X231420Y4444800D01*
X239210Y4448740D01*
X246030D01*
X253810Y4446120D01*
X259660Y4440870D01*
G01X25000Y4908000D02*
X30000Y4899000D01*
X36000Y4893000D01*
X43000Y4890000D01*
X51000Y4893000D01*
X57000Y4899000D01*
X63000Y4908000D01*
X65000Y4920000D01*
Y4980000D01*
G01X98000Y4900500D02*
X105000Y4893000D01*
X113000Y4890000D01*
X121000Y4893000D01*
X128000Y4902000D01*
X133000Y4915500D01*
X135000Y4929000D01*
Y4945500D01*
X133000Y4959000D01*
X128000Y4971000D01*
X122000Y4977000D01*
X115000Y4980000D01*
X107000Y4977000D01*
X101000Y4971000D01*
X97000Y4962000D01*
X95000Y4950000D01*
X97000Y4939500D01*
X102000Y4929000D01*
X108000Y4923000D01*
X115000Y4921500D01*
X123000Y4924500D01*
X129000Y4932000D01*
X135000Y4945500D01*
G01X245050Y5471870D02*
X264530D01*
Y5448250D01*
X258680Y5440370D01*
X251870Y5435120D01*
X242130Y5432500D01*
X232390Y5435120D01*
X225580Y5440370D01*
X219740Y5448250D01*
X215840Y5457430D01*
X213890Y5467930D01*
Y5477120D01*
X215840Y5484990D01*
X219740Y5494180D01*
X225580Y5502050D01*
X231420Y5507300D01*
X239210Y5511240D01*
X246030D01*
X253810Y5508620D01*
X259660Y5503370D01*
G01X35000Y5968000D02*
X40000Y5959000D01*
X46000Y5953000D01*
X53000Y5950000D01*
X61000Y5953000D01*
X67000Y5959000D01*
X73000Y5968000D01*
X75000Y5980000D01*
Y6040000D01*
G01X123000Y5950000D02*
X125000Y5969500D01*
X128000Y5986000D01*
X132000Y6001000D01*
X137000Y6017500D01*
X145000Y6040000D01*
X105000D01*
G01X85000Y6478000D02*
X90000Y6469000D01*
X96000Y6463000D01*
X103000Y6460000D01*
X111000Y6463000D01*
X117000Y6469000D01*
X123000Y6478000D01*
X125000Y6490000D01*
Y6550000D01*
G01X156000Y6535000D02*
X162000Y6544000D01*
X169000Y6548500D01*
X177000Y6550000D01*
X187000Y6547000D01*
X194000Y6539500D01*
X196000Y6530500D01*
X195000Y6521500D01*
X191000Y6514000D01*
X171000Y6499000D01*
X162000Y6488500D01*
X156000Y6473500D01*
X154000Y6460000D01*
X196000D01*
G01X503890Y4370000D02*
Y4448740D01*
X529210Y4383120D01*
X554530Y4448740D01*
Y4370000D01*
G01X596270Y4448740D02*
X619630D01*
G01X607950D02*
Y4370000D01*
G01X596270D02*
X619630D01*
G01X708110Y4442180D02*
X702270Y4446120D01*
X695450Y4448740D01*
X687660D01*
X678900Y4444800D01*
X672090Y4438240D01*
X667220Y4430370D01*
X663320Y4417240D01*
X662350Y4405430D01*
X664300Y4393620D01*
X667220Y4385750D01*
X673060Y4377870D01*
X679870Y4372620D01*
X686690Y4370000D01*
X693510D01*
X700320Y4372620D01*
X706160Y4376560D01*
X711030Y4381810D01*
G01X819740Y4370000D02*
Y4448740D01*
X844080D01*
X851870Y4444800D01*
X856740Y4439550D01*
X858680Y4429050D01*
X856740Y4418560D01*
X850890Y4412000D01*
X844080Y4408060D01*
X819740D01*
G01X844080D02*
X858680Y4370000D01*
G01X503890Y5432500D02*
Y5511240D01*
X529210Y5445620D01*
X554530Y5511240D01*
Y5432500D01*
G01X596270Y5511240D02*
X619630D01*
G01X607950D02*
Y5432500D01*
G01X596270D02*
X619630D01*
G01X708110Y5504680D02*
X702270Y5508620D01*
X695450Y5511240D01*
X687660D01*
X678900Y5507300D01*
X672090Y5500740D01*
X667220Y5492870D01*
X663320Y5479740D01*
X662350Y5467930D01*
X664300Y5456120D01*
X667220Y5448250D01*
X673060Y5440370D01*
X679870Y5435120D01*
X686690Y5432500D01*
X693510D01*
X700320Y5435120D01*
X706160Y5439060D01*
X711030Y5444310D01*
G01X819740Y5432500D02*
Y5511240D01*
X844080D01*
X851870Y5507300D01*
X856740Y5502050D01*
X858680Y5491550D01*
X856740Y5481060D01*
X850890Y5474500D01*
X844080Y5470560D01*
X819740D01*
G01X844080D02*
X858680Y5432500D01*
G01X450000Y6568000D02*
X455000Y6559000D01*
X461000Y6553000D01*
X468000Y6550000D01*
X476000Y6553000D01*
X482000Y6559000D01*
X488000Y6568000D01*
X490000Y6580000D01*
Y6640000D01*
G01X540000Y6550000D02*
Y6640000D01*
X528000Y6622000D01*
G01Y6550000D02*
X552000D01*
G01X591000Y6625000D02*
X597000Y6634000D01*
X604000Y6638500D01*
X612000Y6640000D01*
X622000Y6637000D01*
X629000Y6629500D01*
X631000Y6620500D01*
X630000Y6611500D01*
X626000Y6604000D01*
X606000Y6589000D01*
X597000Y6578500D01*
X591000Y6563500D01*
X589000Y6550000D01*
X631000D01*
G01X1130000Y320000D02*
Y410000D01*
X1155000D01*
X1163000Y405500D01*
X1168000Y399500D01*
X1170000Y387500D01*
X1168000Y375500D01*
X1162000Y368000D01*
X1155000Y363500D01*
X1130000D01*
G01X1155000D02*
X1170000Y320000D01*
G01X1198000Y338000D02*
X1204000Y327500D01*
X1212000Y321500D01*
X1221000Y320000D01*
X1229000Y321500D01*
X1237000Y329000D01*
X1242000Y338000D01*
X1243000Y347000D01*
X1241000Y357500D01*
X1234000Y365000D01*
X1227000Y368000D01*
X1218000D01*
G01X1227000D02*
X1233000Y372500D01*
X1238000Y380000D01*
X1240000Y389000D01*
X1238000Y398000D01*
X1233000Y405500D01*
X1224000Y410000D01*
X1215000Y408500D01*
X1206000Y402500D01*
G01X1290000Y320000D02*
Y410000D01*
X1278000Y392000D01*
G01Y320000D02*
X1302000D01*
G01X1173000Y150000D02*
Y240000D01*
X1193000D01*
X1201000Y235500D01*
X1207000Y229500D01*
X1212000Y220500D01*
X1216000Y210000D01*
X1217000Y195000D01*
X1216000Y180000D01*
X1212000Y169500D01*
X1207000Y160500D01*
X1201000Y154500D01*
X1193000Y150000D01*
X1173000D01*
G01X1243000Y163500D02*
X1249000Y156000D01*
X1256000Y151500D01*
X1265000Y150000D01*
X1274000Y153000D01*
X1281000Y159000D01*
X1286000Y169500D01*
X1287000Y181500D01*
X1285000Y193500D01*
X1280000Y201000D01*
X1273000Y207000D01*
X1266000Y208500D01*
X1259000Y207000D01*
X1250000Y201000D01*
X1253000Y240000D01*
X1280000D01*
G01X1119000Y542000D02*
X1127000Y534500D01*
X1136000Y530000D01*
X1144000D01*
X1152000Y534500D01*
X1158000Y542000D01*
X1161000Y552500D01*
X1159000Y563000D01*
X1154000Y572000D01*
X1145000Y578000D01*
X1133000Y581000D01*
X1126000Y587000D01*
X1123000Y597500D01*
X1125000Y608000D01*
X1130000Y615500D01*
X1137000Y620000D01*
X1144000D01*
X1151000Y617000D01*
X1157000Y609500D01*
G01X1198000Y620000D02*
X1222000D01*
G01X1210000D02*
Y530000D01*
G01X1198000D02*
X1222000D01*
G01X1254000D02*
Y620000D01*
X1280000Y545000D01*
X1306000Y620000D01*
Y530000D01*
G01X999740Y4448740D02*
Y4370000D01*
X1038680D01*
G01X999740Y5511240D02*
Y5432500D01*
X1038680D01*
G01X1166000Y6295000D02*
X1186000D01*
Y6268000D01*
X1180000Y6259000D01*
X1173000Y6253000D01*
X1163000Y6250000D01*
X1153000Y6253000D01*
X1146000Y6259000D01*
X1140000Y6268000D01*
X1136000Y6278500D01*
X1134000Y6290500D01*
Y6301000D01*
X1136000Y6310000D01*
X1140000Y6320500D01*
X1146000Y6329500D01*
X1152000Y6335500D01*
X1160000Y6340000D01*
X1167000D01*
X1175000Y6337000D01*
X1181000Y6331000D01*
G01X1275000Y6340000D02*
X1300000Y6250000D01*
X1325000Y6340000D01*
G01X1457000Y1852500D02*
X1451000Y1857000D01*
X1444000Y1860000D01*
X1436000D01*
X1427000Y1855500D01*
X1420000Y1848000D01*
X1415000Y1839000D01*
X1411000Y1824000D01*
X1410000Y1810500D01*
X1412000Y1797000D01*
X1415000Y1788000D01*
X1421000Y1779000D01*
X1428000Y1773000D01*
X1435000Y1770000D01*
X1442000D01*
X1449000Y1773000D01*
X1455000Y1777500D01*
X1460000Y1783500D01*
G01X1505000Y1770000D02*
X1497000Y1771500D01*
X1490000Y1777500D01*
X1484000Y1786500D01*
X1480000Y1797000D01*
X1478000Y1809000D01*
Y1821000D01*
X1480000Y1833000D01*
X1484000Y1843500D01*
X1490000Y1852500D01*
X1497000Y1858500D01*
X1505000Y1860000D01*
X1513000Y1858500D01*
X1520000Y1852500D01*
X1526000Y1843500D01*
X1530000Y1833000D01*
X1532000Y1821000D01*
Y1809000D01*
X1530000Y1797000D01*
X1526000Y1786500D01*
X1520000Y1777500D01*
X1513000Y1771500D01*
X1505000Y1770000D01*
G01X1552000D02*
Y1860000D01*
X1598000Y1770000D01*
Y1860000D01*
G01X1645000Y1770000D02*
Y1860000D01*
X1633000Y1842000D01*
G01Y1770000D02*
X1657000D01*
G01X1723000Y3388000D02*
X1727000Y3392500D01*
X1730000Y3400000D01*
X1732000Y3410500D01*
X1730000Y3419500D01*
X1726000Y3425500D01*
X1719000Y3430000D01*
X1692000D01*
Y3340000D01*
X1725000D01*
X1732000Y3346000D01*
X1736000Y3355000D01*
X1738000Y3365500D01*
X1736000Y3376000D01*
X1730000Y3385000D01*
X1723000Y3388000D01*
X1692000D01*
G01X1760000Y3340000D02*
X1785000Y3430000D01*
X1810000Y3340000D01*
G01X1801000Y3371500D02*
X1769000D01*
G01X1855000Y3430000D02*
Y3340000D01*
G01X1832000Y3430000D02*
X1878000D01*
G01X1906000Y3415000D02*
X1912000Y3424000D01*
X1919000Y3428500D01*
X1927000Y3430000D01*
X1937000Y3427000D01*
X1944000Y3419500D01*
X1946000Y3410500D01*
X1945000Y3401500D01*
X1941000Y3394000D01*
X1921000Y3379000D01*
X1912000Y3368500D01*
X1906000Y3353500D01*
X1904000Y3340000D01*
X1946000D01*
G01X1746000Y4605000D02*
X1766000D01*
Y4578000D01*
X1760000Y4569000D01*
X1753000Y4563000D01*
X1743000Y4560000D01*
X1733000Y4563000D01*
X1726000Y4569000D01*
X1720000Y4578000D01*
X1716000Y4588500D01*
X1714000Y4600500D01*
Y4611000D01*
X1716000Y4620000D01*
X1720000Y4630500D01*
X1726000Y4639500D01*
X1732000Y4645500D01*
X1740000Y4650000D01*
X1747000D01*
X1755000Y4647000D01*
X1761000Y4641000D01*
G01X1654000Y4370000D02*
Y4460000D01*
X1680000Y4385000D01*
X1706000Y4460000D01*
Y4370000D01*
G01X1738000Y4460000D02*
X1762000D01*
G01X1750000D02*
Y4370000D01*
G01X1738000D02*
X1762000D01*
G01X1842000Y4452500D02*
X1836000Y4457000D01*
X1829000Y4460000D01*
X1821000D01*
X1812000Y4455500D01*
X1805000Y4448000D01*
X1800000Y4439000D01*
X1796000Y4424000D01*
X1795000Y4410500D01*
X1797000Y4397000D01*
X1800000Y4388000D01*
X1806000Y4379000D01*
X1813000Y4373000D01*
X1820000Y4370000D01*
X1827000D01*
X1834000Y4373000D01*
X1840000Y4377500D01*
X1845000Y4383500D01*
G01X1425000Y5558000D02*
X1430000Y5549000D01*
X1436000Y5543000D01*
X1443000Y5540000D01*
X1451000Y5543000D01*
X1457000Y5549000D01*
X1463000Y5558000D01*
X1465000Y5570000D01*
Y5630000D01*
G01X1515000Y5540000D02*
X1522000Y5541500D01*
X1530000Y5546000D01*
X1535000Y5553500D01*
X1537000Y5564000D01*
X1535000Y5574500D01*
X1529000Y5583500D01*
X1520000Y5588000D01*
X1510000D01*
X1504000Y5591000D01*
X1499000Y5598500D01*
X1497000Y5609000D01*
X1500000Y5619500D01*
X1507000Y5627000D01*
X1515000Y5630000D01*
X1523000Y5627000D01*
X1530000Y5619500D01*
X1533000Y5609000D01*
X1531000Y5598500D01*
X1526000Y5591000D01*
X1520000Y5588000D01*
X1510000D01*
X1501000Y5583500D01*
X1495000Y5574500D01*
X1493000Y5564000D01*
X1495000Y5553500D01*
X1500000Y5546000D01*
X1508000Y5541500D01*
X1515000Y5540000D01*
G01X1440000Y6340000D02*
Y6250000D01*
G01X1417000Y6340000D02*
X1463000D01*
G01X1550000Y6250000D02*
Y6340000D01*
X1575000D01*
X1583000Y6335500D01*
X1588000Y6329500D01*
X1590000Y6317500D01*
X1588000Y6305500D01*
X1582000Y6298000D01*
X1575000Y6293500D01*
X1550000D01*
G01X1575000D02*
X1590000Y6250000D01*
G01X2213000Y3388000D02*
X2217000Y3392500D01*
X2220000Y3400000D01*
X2222000Y3410500D01*
X2220000Y3419500D01*
X2216000Y3425500D01*
X2209000Y3430000D01*
X2182000D01*
Y3340000D01*
X2215000D01*
X2222000Y3346000D01*
X2226000Y3355000D01*
X2228000Y3365500D01*
X2226000Y3376000D01*
X2220000Y3385000D01*
X2213000Y3388000D01*
X2182000D01*
G01X2250000Y3340000D02*
X2275000Y3430000D01*
X2300000Y3340000D01*
G01X2291000Y3371500D02*
X2259000D01*
G01X2345000Y3430000D02*
Y3340000D01*
G01X2322000Y3430000D02*
X2368000D01*
G01X2415000Y3340000D02*
Y3430000D01*
X2403000Y3412000D01*
G01Y3340000D02*
X2427000D01*
G01X2107500Y4242000D02*
X2103000Y4236000D01*
X2100000Y4229000D01*
Y4221000D01*
X2104500Y4212000D01*
X2112000Y4205000D01*
X2121000Y4200000D01*
X2136000Y4196000D01*
X2149500Y4195000D01*
X2163000Y4197000D01*
X2172000Y4200000D01*
X2181000Y4206000D01*
X2187000Y4213000D01*
X2190000Y4220000D01*
Y4227000D01*
X2187000Y4234000D01*
X2182500Y4240000D01*
X2176500Y4245000D01*
G01X2190000Y4302000D02*
X2100000D01*
X2164500Y4265000D01*
Y4315000D01*
G01X2179500Y4343000D02*
X2187000Y4350000D01*
X2190000Y4358000D01*
X2187000Y4366000D01*
X2178000Y4373000D01*
X2164500Y4378000D01*
X2151000Y4380000D01*
X2134500D01*
X2121000Y4378000D01*
X2109000Y4373000D01*
X2103000Y4367000D01*
X2100000Y4360000D01*
X2103000Y4352000D01*
X2109000Y4346000D01*
X2118000Y4342000D01*
X2130000Y4340000D01*
X2140500Y4342000D01*
X2151000Y4347000D01*
X2157000Y4353000D01*
X2158500Y4360000D01*
X2155500Y4368000D01*
X2148000Y4374000D01*
X2134500Y4380000D01*
G01X2107500Y4462000D02*
X2103000Y4456000D01*
X2100000Y4449000D01*
Y4441000D01*
X2104500Y4432000D01*
X2112000Y4425000D01*
X2121000Y4420000D01*
X2136000Y4416000D01*
X2149500Y4415000D01*
X2163000Y4417000D01*
X2172000Y4420000D01*
X2181000Y4426000D01*
X2187000Y4433000D01*
X2190000Y4440000D01*
Y4447000D01*
X2187000Y4454000D01*
X2182500Y4460000D01*
X2176500Y4465000D01*
G01Y4488000D02*
X2184000Y4494000D01*
X2188500Y4501000D01*
X2190000Y4510000D01*
X2187000Y4519000D01*
X2181000Y4526000D01*
X2170500Y4531000D01*
X2158500Y4532000D01*
X2146500Y4530000D01*
X2139000Y4525000D01*
X2133000Y4518000D01*
X2131500Y4511000D01*
X2133000Y4504000D01*
X2139000Y4495000D01*
X2100000Y4498000D01*
Y4525000D01*
G01Y4580000D02*
X2103000Y4572000D01*
X2110500Y4566000D01*
X2119500Y4562000D01*
X2131500Y4559000D01*
X2145000Y4558000D01*
X2158500Y4559000D01*
X2170500Y4562000D01*
X2179500Y4566000D01*
X2187000Y4572000D01*
X2190000Y4580000D01*
X2187000Y4588000D01*
X2179500Y4594000D01*
X2170500Y4598000D01*
X2158500Y4601000D01*
X2145000Y4602000D01*
X2131500Y4601000D01*
X2119500Y4598000D01*
X2110500Y4594000D01*
X2103000Y4588000D01*
X2100000Y4580000D01*
G01X2412000Y4772500D02*
X2406000Y4777000D01*
X2399000Y4780000D01*
X2391000D01*
X2382000Y4775500D01*
X2375000Y4768000D01*
X2370000Y4759000D01*
X2366000Y4744000D01*
X2365000Y4730500D01*
X2367000Y4717000D01*
X2370000Y4708000D01*
X2376000Y4699000D01*
X2383000Y4693000D01*
X2390000Y4690000D01*
X2397000D01*
X2404000Y4693000D01*
X2410000Y4697500D01*
X2415000Y4703500D01*
G01X2472000Y4690000D02*
Y4780000D01*
X2435000Y4715500D01*
X2485000D01*
G01X2508000Y4708000D02*
X2514000Y4697500D01*
X2522000Y4691500D01*
X2531000Y4690000D01*
X2539000Y4691500D01*
X2547000Y4699000D01*
X2552000Y4708000D01*
X2553000Y4717000D01*
X2551000Y4727500D01*
X2544000Y4735000D01*
X2537000Y4738000D01*
X2528000D01*
G01X2537000D02*
X2543000Y4742500D01*
X2548000Y4750000D01*
X2550000Y4759000D01*
X2548000Y4768000D01*
X2543000Y4775500D01*
X2534000Y4780000D01*
X2525000Y4778500D01*
X2516000Y4772500D01*
G01X2412000Y5272500D02*
X2406000Y5277000D01*
X2399000Y5280000D01*
X2391000D01*
X2382000Y5275500D01*
X2375000Y5268000D01*
X2370000Y5259000D01*
X2366000Y5244000D01*
X2365000Y5230500D01*
X2367000Y5217000D01*
X2370000Y5208000D01*
X2376000Y5199000D01*
X2383000Y5193000D01*
X2390000Y5190000D01*
X2397000D01*
X2404000Y5193000D01*
X2410000Y5197500D01*
X2415000Y5203500D01*
G01X2472000Y5190000D02*
Y5280000D01*
X2435000Y5215500D01*
X2485000D01*
G01X2542000Y5190000D02*
Y5280000D01*
X2505000Y5215500D01*
X2555000D01*
G01X2247500Y6012000D02*
X2243000Y6006000D01*
X2240000Y5999000D01*
Y5991000D01*
X2244500Y5982000D01*
X2252000Y5975000D01*
X2261000Y5970000D01*
X2276000Y5966000D01*
X2289500Y5965000D01*
X2303000Y5967000D01*
X2312000Y5970000D01*
X2321000Y5976000D01*
X2327000Y5983000D01*
X2330000Y5990000D01*
Y5997000D01*
X2327000Y6004000D01*
X2322500Y6010000D01*
X2316500Y6015000D01*
G01X2330000Y6072000D02*
X2240000D01*
X2304500Y6035000D01*
Y6085000D01*
G01X2240000Y6130000D02*
X2243000Y6122000D01*
X2250500Y6116000D01*
X2259500Y6112000D01*
X2271500Y6109000D01*
X2285000Y6108000D01*
X2298500Y6109000D01*
X2310500Y6112000D01*
X2319500Y6116000D01*
X2327000Y6122000D01*
X2330000Y6130000D01*
X2327000Y6138000D01*
X2319500Y6144000D01*
X2310500Y6148000D01*
X2298500Y6151000D01*
X2285000Y6152000D01*
X2271500Y6151000D01*
X2259500Y6148000D01*
X2250500Y6144000D01*
X2243000Y6138000D01*
X2240000Y6130000D01*
G01X2385000Y5915000D02*
Y5825000D01*
X2425000D01*
G01X2456000Y5862500D02*
X2463000Y5873000D01*
X2469000Y5879000D01*
X2477000Y5882000D01*
X2484000Y5879000D01*
X2489000Y5873000D01*
X2493000Y5864000D01*
X2494000Y5853500D01*
X2493000Y5844500D01*
X2489000Y5835500D01*
X2483000Y5828000D01*
X2476000Y5825000D01*
X2468000Y5828000D01*
X2461000Y5837000D01*
X2457000Y5850500D01*
X2456000Y5865500D01*
X2458000Y5885000D01*
X2461000Y5895500D01*
X2466000Y5906000D01*
X2473000Y5913500D01*
X2480000Y5915000D01*
X2487000Y5912000D01*
X2492000Y5904500D01*
G01X2385000Y6030000D02*
Y5940000D01*
X2425000D01*
G01X2473000D02*
X2475000Y5959500D01*
X2478000Y5976000D01*
X2482000Y5991000D01*
X2487000Y6007500D01*
X2495000Y6030000D01*
X2455000D01*
G01X2247500Y6222000D02*
X2243000Y6216000D01*
X2240000Y6209000D01*
Y6201000D01*
X2244500Y6192000D01*
X2252000Y6185000D01*
X2261000Y6180000D01*
X2276000Y6176000D01*
X2289500Y6175000D01*
X2303000Y6177000D01*
X2312000Y6180000D01*
X2321000Y6186000D01*
X2327000Y6193000D01*
X2330000Y6200000D01*
Y6207000D01*
X2327000Y6214000D01*
X2322500Y6220000D01*
X2316500Y6225000D01*
G01X2312000Y6248000D02*
X2322500Y6254000D01*
X2328500Y6262000D01*
X2330000Y6271000D01*
X2328500Y6279000D01*
X2321000Y6287000D01*
X2312000Y6292000D01*
X2303000Y6293000D01*
X2292500Y6291000D01*
X2285000Y6284000D01*
X2282000Y6277000D01*
Y6268000D01*
G01Y6277000D02*
X2277500Y6283000D01*
X2270000Y6288000D01*
X2261000Y6290000D01*
X2252000Y6288000D01*
X2244500Y6283000D01*
X2240000Y6274000D01*
X2241500Y6265000D01*
X2247500Y6256000D01*
G01X2319500Y6323000D02*
X2327000Y6330000D01*
X2330000Y6338000D01*
X2327000Y6346000D01*
X2318000Y6353000D01*
X2304500Y6358000D01*
X2291000Y6360000D01*
X2274500D01*
X2261000Y6358000D01*
X2249000Y6353000D01*
X2243000Y6347000D01*
X2240000Y6340000D01*
X2243000Y6332000D01*
X2249000Y6326000D01*
X2258000Y6322000D01*
X2270000Y6320000D01*
X2280500Y6322000D01*
X2291000Y6327000D01*
X2297000Y6333000D01*
X2298500Y6340000D01*
X2295500Y6348000D01*
X2288000Y6354000D01*
X2274500Y6360000D01*
G01X2885000Y3806200D02*
X2795000D01*
Y3831200D01*
X2799500Y3839200D01*
X2805500Y3844200D01*
X2817500Y3846200D01*
X2829500Y3844200D01*
X2837000Y3838200D01*
X2841500Y3831200D01*
Y3806200D01*
G01Y3831200D02*
X2885000Y3846200D01*
G01X2871500Y3874200D02*
X2879000Y3880200D01*
X2883500Y3887200D01*
X2885000Y3896200D01*
X2882000Y3905200D01*
X2876000Y3912200D01*
X2865500Y3917200D01*
X2853500Y3918200D01*
X2841500Y3916200D01*
X2834000Y3911200D01*
X2828000Y3904200D01*
X2826500Y3897200D01*
X2828000Y3890200D01*
X2834000Y3881200D01*
X2795000Y3884200D01*
Y3911200D01*
G01X2847500Y3947200D02*
X2837000Y3954200D01*
X2831000Y3960200D01*
X2828000Y3968200D01*
X2831000Y3975200D01*
X2837000Y3980200D01*
X2846000Y3984200D01*
X2856500Y3985200D01*
X2865500Y3984200D01*
X2874500Y3980200D01*
X2882000Y3974200D01*
X2885000Y3967200D01*
X2882000Y3959200D01*
X2873000Y3952200D01*
X2859500Y3948200D01*
X2844500Y3947200D01*
X2825000Y3949200D01*
X2814500Y3952200D01*
X2804000Y3957200D01*
X2796500Y3964200D01*
X2795000Y3971200D01*
X2798000Y3978200D01*
X2805500Y3983200D01*
G01X2890000Y3590000D02*
X2800000D01*
Y3615000D01*
X2804500Y3623000D01*
X2810500Y3628000D01*
X2822500Y3630000D01*
X2834500Y3628000D01*
X2842000Y3622000D01*
X2846500Y3615000D01*
Y3590000D01*
G01Y3615000D02*
X2890000Y3630000D01*
G01X2876500Y3658000D02*
X2884000Y3664000D01*
X2888500Y3671000D01*
X2890000Y3680000D01*
X2887000Y3689000D01*
X2881000Y3696000D01*
X2870500Y3701000D01*
X2858500Y3702000D01*
X2846500Y3700000D01*
X2839000Y3695000D01*
X2833000Y3688000D01*
X2831500Y3681000D01*
X2833000Y3674000D01*
X2839000Y3665000D01*
X2800000Y3668000D01*
Y3695000D01*
G01X2890000Y3748000D02*
X2870500Y3750000D01*
X2854000Y3753000D01*
X2839000Y3757000D01*
X2822500Y3762000D01*
X2800000Y3770000D01*
Y3730000D01*
G01X2992000Y4212500D02*
X2986000Y4217000D01*
X2979000Y4220000D01*
X2971000D01*
X2962000Y4215500D01*
X2955000Y4208000D01*
X2950000Y4199000D01*
X2946000Y4184000D01*
X2945000Y4170500D01*
X2947000Y4157000D01*
X2950000Y4148000D01*
X2956000Y4139000D01*
X2963000Y4133000D01*
X2970000Y4130000D01*
X2977000D01*
X2984000Y4133000D01*
X2990000Y4137500D01*
X2995000Y4143500D01*
G01X3052000Y4130000D02*
Y4220000D01*
X3015000Y4155500D01*
X3065000D01*
G01X3110000Y4130000D02*
X3117000Y4131500D01*
X3125000Y4136000D01*
X3130000Y4143500D01*
X3132000Y4154000D01*
X3130000Y4164500D01*
X3124000Y4173500D01*
X3115000Y4178000D01*
X3105000D01*
X3099000Y4181000D01*
X3094000Y4188500D01*
X3092000Y4199000D01*
X3095000Y4209500D01*
X3102000Y4217000D01*
X3110000Y4220000D01*
X3118000Y4217000D01*
X3125000Y4209500D01*
X3128000Y4199000D01*
X3126000Y4188500D01*
X3121000Y4181000D01*
X3115000Y4178000D01*
X3105000D01*
X3096000Y4173500D01*
X3090000Y4164500D01*
X3088000Y4154000D01*
X3090000Y4143500D01*
X3095000Y4136000D01*
X3103000Y4131500D01*
X3110000Y4130000D01*
G01X2595000Y4190000D02*
Y4100000D01*
X2635000D01*
G01X2668000Y4110500D02*
X2675000Y4103000D01*
X2683000Y4100000D01*
X2691000Y4103000D01*
X2698000Y4112000D01*
X2703000Y4125500D01*
X2705000Y4139000D01*
Y4155500D01*
X2703000Y4169000D01*
X2698000Y4181000D01*
X2692000Y4187000D01*
X2685000Y4190000D01*
X2677000Y4187000D01*
X2671000Y4181000D01*
X2667000Y4172000D01*
X2665000Y4160000D01*
X2667000Y4149500D01*
X2672000Y4139000D01*
X2678000Y4133000D01*
X2685000Y4131500D01*
X2693000Y4134500D01*
X2699000Y4142000D01*
X2705000Y4155500D01*
G01X2560000Y4249200D02*
Y4350800D01*
G01Y4439200D02*
Y4540800D01*
G01X2982000Y4652500D02*
X2976000Y4657000D01*
X2969000Y4660000D01*
X2961000D01*
X2952000Y4655500D01*
X2945000Y4648000D01*
X2940000Y4639000D01*
X2936000Y4624000D01*
X2935000Y4610500D01*
X2937000Y4597000D01*
X2940000Y4588000D01*
X2946000Y4579000D01*
X2953000Y4573000D01*
X2960000Y4570000D01*
X2967000D01*
X2974000Y4573000D01*
X2980000Y4577500D01*
X2985000Y4583500D01*
G01X3042000Y4570000D02*
Y4660000D01*
X3005000Y4595500D01*
X3055000D01*
G01X3098000Y4570000D02*
X3100000Y4589500D01*
X3103000Y4606000D01*
X3107000Y4621000D01*
X3112000Y4637500D01*
X3120000Y4660000D01*
X3080000D01*
G01X3002000Y5137500D02*
X2996000Y5142000D01*
X2989000Y5145000D01*
X2981000D01*
X2972000Y5140500D01*
X2965000Y5133000D01*
X2960000Y5124000D01*
X2956000Y5109000D01*
X2955000Y5095500D01*
X2957000Y5082000D01*
X2960000Y5073000D01*
X2966000Y5064000D01*
X2973000Y5058000D01*
X2980000Y5055000D01*
X2987000D01*
X2994000Y5058000D01*
X3000000Y5062500D01*
X3005000Y5068500D01*
G01X3028000Y5073000D02*
X3034000Y5062500D01*
X3042000Y5056500D01*
X3051000Y5055000D01*
X3059000Y5056500D01*
X3067000Y5064000D01*
X3072000Y5073000D01*
X3073000Y5082000D01*
X3071000Y5092500D01*
X3064000Y5100000D01*
X3057000Y5103000D01*
X3048000D01*
G01X3057000D02*
X3063000Y5107500D01*
X3068000Y5115000D01*
X3070000Y5124000D01*
X3068000Y5133000D01*
X3063000Y5140500D01*
X3054000Y5145000D01*
X3045000Y5143500D01*
X3036000Y5137500D01*
G01X3098000Y5068500D02*
X3104000Y5061000D01*
X3111000Y5056500D01*
X3120000Y5055000D01*
X3129000Y5058000D01*
X3136000Y5064000D01*
X3141000Y5074500D01*
X3142000Y5086500D01*
X3140000Y5098500D01*
X3135000Y5106000D01*
X3128000Y5112000D01*
X3121000Y5113500D01*
X3114000Y5112000D01*
X3105000Y5106000D01*
X3108000Y5145000D01*
X3135000D01*
G01X3002000Y4907500D02*
X2996000Y4912000D01*
X2989000Y4915000D01*
X2981000D01*
X2972000Y4910500D01*
X2965000Y4903000D01*
X2960000Y4894000D01*
X2956000Y4879000D01*
X2955000Y4865500D01*
X2957000Y4852000D01*
X2960000Y4843000D01*
X2966000Y4834000D01*
X2973000Y4828000D01*
X2980000Y4825000D01*
X2987000D01*
X2994000Y4828000D01*
X3000000Y4832500D01*
X3005000Y4838500D01*
G01X3028000Y4843000D02*
X3034000Y4832500D01*
X3042000Y4826500D01*
X3051000Y4825000D01*
X3059000Y4826500D01*
X3067000Y4834000D01*
X3072000Y4843000D01*
X3073000Y4852000D01*
X3071000Y4862500D01*
X3064000Y4870000D01*
X3057000Y4873000D01*
X3048000D01*
G01X3057000D02*
X3063000Y4877500D01*
X3068000Y4885000D01*
X3070000Y4894000D01*
X3068000Y4903000D01*
X3063000Y4910500D01*
X3054000Y4915000D01*
X3045000Y4913500D01*
X3036000Y4907500D01*
G01X3101000Y4862500D02*
X3108000Y4873000D01*
X3114000Y4879000D01*
X3122000Y4882000D01*
X3129000Y4879000D01*
X3134000Y4873000D01*
X3138000Y4864000D01*
X3139000Y4853500D01*
X3138000Y4844500D01*
X3134000Y4835500D01*
X3128000Y4828000D01*
X3121000Y4825000D01*
X3113000Y4828000D01*
X3106000Y4837000D01*
X3102000Y4850500D01*
X3101000Y4865500D01*
X3103000Y4885000D01*
X3106000Y4895500D01*
X3111000Y4906000D01*
X3118000Y4913500D01*
X3125000Y4915000D01*
X3132000Y4912000D01*
X3137000Y4904500D01*
G01X2595000Y4700000D02*
Y4610000D01*
X2635000D01*
G01X2685000D02*
X2692000Y4611500D01*
X2700000Y4616000D01*
X2705000Y4623500D01*
X2707000Y4634000D01*
X2705000Y4644500D01*
X2699000Y4653500D01*
X2690000Y4658000D01*
X2680000D01*
X2674000Y4661000D01*
X2669000Y4668500D01*
X2667000Y4679000D01*
X2670000Y4689500D01*
X2677000Y4697000D01*
X2685000Y4700000D01*
X2693000Y4697000D01*
X2700000Y4689500D01*
X2703000Y4679000D01*
X2701000Y4668500D01*
X2696000Y4661000D01*
X2690000Y4658000D01*
X2680000D01*
X2671000Y4653500D01*
X2665000Y4644500D01*
X2663000Y4634000D01*
X2665000Y4623500D01*
X2670000Y4616000D01*
X2678000Y4611500D01*
X2685000Y4610000D01*
G01X2560000Y5459200D02*
Y5560800D01*
G01X2880000Y5940000D02*
X2790000D01*
Y5965000D01*
X2794500Y5973000D01*
X2800500Y5978000D01*
X2812500Y5980000D01*
X2824500Y5978000D01*
X2832000Y5972000D01*
X2836500Y5965000D01*
Y5940000D01*
G01Y5965000D02*
X2880000Y5980000D01*
G01X2866500Y6008000D02*
X2874000Y6014000D01*
X2878500Y6021000D01*
X2880000Y6030000D01*
X2877000Y6039000D01*
X2871000Y6046000D01*
X2860500Y6051000D01*
X2848500Y6052000D01*
X2836500Y6050000D01*
X2829000Y6045000D01*
X2823000Y6038000D01*
X2821500Y6031000D01*
X2823000Y6024000D01*
X2829000Y6015000D01*
X2790000Y6018000D01*
Y6045000D01*
G01X2862000Y6078000D02*
X2872500Y6084000D01*
X2878500Y6092000D01*
X2880000Y6101000D01*
X2878500Y6109000D01*
X2871000Y6117000D01*
X2862000Y6122000D01*
X2853000Y6123000D01*
X2842500Y6121000D01*
X2835000Y6114000D01*
X2832000Y6107000D01*
Y6098000D01*
G01Y6107000D02*
X2827500Y6113000D01*
X2820000Y6118000D01*
X2811000Y6120000D01*
X2802000Y6118000D01*
X2794500Y6113000D01*
X2790000Y6104000D01*
X2791500Y6095000D01*
X2797500Y6086000D01*
G01X2992000Y6007500D02*
X2986000Y6012000D01*
X2979000Y6015000D01*
X2971000D01*
X2962000Y6010500D01*
X2955000Y6003000D01*
X2950000Y5994000D01*
X2946000Y5979000D01*
X2945000Y5965500D01*
X2947000Y5952000D01*
X2950000Y5943000D01*
X2956000Y5934000D01*
X2963000Y5928000D01*
X2970000Y5925000D01*
X2977000D01*
X2984000Y5928000D01*
X2990000Y5932500D01*
X2995000Y5938500D01*
G01X3018000Y5943000D02*
X3024000Y5932500D01*
X3032000Y5926500D01*
X3041000Y5925000D01*
X3049000Y5926500D01*
X3057000Y5934000D01*
X3062000Y5943000D01*
X3063000Y5952000D01*
X3061000Y5962500D01*
X3054000Y5970000D01*
X3047000Y5973000D01*
X3038000D01*
G01X3047000D02*
X3053000Y5977500D01*
X3058000Y5985000D01*
X3060000Y5994000D01*
X3058000Y6003000D01*
X3053000Y6010500D01*
X3044000Y6015000D01*
X3035000Y6013500D01*
X3026000Y6007500D01*
G01X3108000Y5925000D02*
X3110000Y5944500D01*
X3113000Y5961000D01*
X3117000Y5976000D01*
X3122000Y5992500D01*
X3130000Y6015000D01*
X3090000D01*
G01X2992000Y5857500D02*
X2986000Y5862000D01*
X2979000Y5865000D01*
X2971000D01*
X2962000Y5860500D01*
X2955000Y5853000D01*
X2950000Y5844000D01*
X2946000Y5829000D01*
X2945000Y5815500D01*
X2947000Y5802000D01*
X2950000Y5793000D01*
X2956000Y5784000D01*
X2963000Y5778000D01*
X2970000Y5775000D01*
X2977000D01*
X2984000Y5778000D01*
X2990000Y5782500D01*
X2995000Y5788500D01*
G01X3018000Y5793000D02*
X3024000Y5782500D01*
X3032000Y5776500D01*
X3041000Y5775000D01*
X3049000Y5776500D01*
X3057000Y5784000D01*
X3062000Y5793000D01*
X3063000Y5802000D01*
X3061000Y5812500D01*
X3054000Y5820000D01*
X3047000Y5823000D01*
X3038000D01*
G01X3047000D02*
X3053000Y5827500D01*
X3058000Y5835000D01*
X3060000Y5844000D01*
X3058000Y5853000D01*
X3053000Y5860500D01*
X3044000Y5865000D01*
X3035000Y5863500D01*
X3026000Y5857500D01*
G01X3110000Y5775000D02*
X3117000Y5776500D01*
X3125000Y5781000D01*
X3130000Y5788500D01*
X3132000Y5799000D01*
X3130000Y5809500D01*
X3124000Y5818500D01*
X3115000Y5823000D01*
X3105000D01*
X3099000Y5826000D01*
X3094000Y5833500D01*
X3092000Y5844000D01*
X3095000Y5854500D01*
X3102000Y5862000D01*
X3110000Y5865000D01*
X3118000Y5862000D01*
X3125000Y5854500D01*
X3128000Y5844000D01*
X3126000Y5833500D01*
X3121000Y5826000D01*
X3115000Y5823000D01*
X3105000D01*
X3096000Y5818500D01*
X3090000Y5809500D01*
X3088000Y5799000D01*
X3090000Y5788500D01*
X3095000Y5781000D01*
X3103000Y5776500D01*
X3110000Y5775000D01*
G01X2560000Y5649200D02*
Y5750800D01*
G01X2880000Y6160000D02*
X2790000D01*
Y6185000D01*
X2794500Y6193000D01*
X2800500Y6198000D01*
X2812500Y6200000D01*
X2824500Y6198000D01*
X2832000Y6192000D01*
X2836500Y6185000D01*
Y6160000D01*
G01Y6185000D02*
X2880000Y6200000D01*
G01X2866500Y6228000D02*
X2874000Y6234000D01*
X2878500Y6241000D01*
X2880000Y6250000D01*
X2877000Y6259000D01*
X2871000Y6266000D01*
X2860500Y6271000D01*
X2848500Y6272000D01*
X2836500Y6270000D01*
X2829000Y6265000D01*
X2823000Y6258000D01*
X2821500Y6251000D01*
X2823000Y6244000D01*
X2829000Y6235000D01*
X2790000Y6238000D01*
Y6265000D01*
G01X2805000Y6301000D02*
X2796000Y6307000D01*
X2791500Y6314000D01*
X2790000Y6322000D01*
X2793000Y6332000D01*
X2800500Y6339000D01*
X2809500Y6341000D01*
X2818500Y6340000D01*
X2826000Y6336000D01*
X2841000Y6316000D01*
X2851500Y6307000D01*
X2866500Y6301000D01*
X2880000Y6299000D01*
Y6341000D01*
G01X3163000Y1680000D02*
Y1615500D01*
X3167000Y1602000D01*
X3175000Y1593000D01*
X3185000Y1590000D01*
X3195000Y1593000D01*
X3203000Y1602000D01*
X3207000Y1615500D01*
Y1680000D01*
G01X3238000Y1600500D02*
X3245000Y1593000D01*
X3253000Y1590000D01*
X3261000Y1593000D01*
X3268000Y1602000D01*
X3273000Y1615500D01*
X3275000Y1629000D01*
Y1645500D01*
X3273000Y1659000D01*
X3268000Y1671000D01*
X3262000Y1677000D01*
X3255000Y1680000D01*
X3247000Y1677000D01*
X3241000Y1671000D01*
X3237000Y1662000D01*
X3235000Y1650000D01*
X3237000Y1639500D01*
X3242000Y1629000D01*
X3248000Y1623000D01*
X3255000Y1621500D01*
X3263000Y1624500D01*
X3269000Y1632000D01*
X3275000Y1645500D01*
G01X3480000Y4120000D02*
Y4210000D01*
X3505000D01*
X3513000Y4205500D01*
X3518000Y4199500D01*
X3520000Y4187500D01*
X3518000Y4175500D01*
X3512000Y4168000D01*
X3505000Y4163500D01*
X3480000D01*
G01X3505000D02*
X3520000Y4120000D01*
G01X3548000Y4133500D02*
X3554000Y4126000D01*
X3561000Y4121500D01*
X3570000Y4120000D01*
X3579000Y4123000D01*
X3586000Y4129000D01*
X3591000Y4139500D01*
X3592000Y4151500D01*
X3590000Y4163500D01*
X3585000Y4171000D01*
X3578000Y4177000D01*
X3571000Y4178500D01*
X3564000Y4177000D01*
X3555000Y4171000D01*
X3558000Y4210000D01*
X3585000D01*
G01X3618000Y4133500D02*
X3624000Y4126000D01*
X3631000Y4121500D01*
X3640000Y4120000D01*
X3649000Y4123000D01*
X3656000Y4129000D01*
X3661000Y4139500D01*
X3662000Y4151500D01*
X3660000Y4163500D01*
X3655000Y4171000D01*
X3648000Y4177000D01*
X3641000Y4178500D01*
X3634000Y4177000D01*
X3625000Y4171000D01*
X3628000Y4210000D01*
X3655000D01*
G01X3487500Y4332000D02*
X3483000Y4326000D01*
X3480000Y4319000D01*
Y4311000D01*
X3484500Y4302000D01*
X3492000Y4295000D01*
X3501000Y4290000D01*
X3516000Y4286000D01*
X3529500Y4285000D01*
X3543000Y4287000D01*
X3552000Y4290000D01*
X3561000Y4296000D01*
X3567000Y4303000D01*
X3570000Y4310000D01*
Y4317000D01*
X3567000Y4324000D01*
X3562500Y4330000D01*
X3556500Y4335000D01*
G01X3570000Y4392000D02*
X3480000D01*
X3544500Y4355000D01*
Y4405000D01*
G01X3570000Y4450000D02*
X3480000D01*
X3498000Y4438000D01*
G01X3570000D02*
Y4462000D01*
G01X3375000Y4888000D02*
X3439500D01*
X3453000Y4892000D01*
X3462000Y4900000D01*
X3465000Y4910000D01*
X3462000Y4920000D01*
X3453000Y4928000D01*
X3439500Y4932000D01*
X3375000D01*
G01X3465000Y4980000D02*
X3375000D01*
X3393000Y4968000D01*
G01X3465000D02*
Y4992000D01*
G01X3451500Y5028000D02*
X3459000Y5034000D01*
X3463500Y5041000D01*
X3465000Y5050000D01*
X3462000Y5059000D01*
X3456000Y5066000D01*
X3445500Y5071000D01*
X3433500Y5072000D01*
X3421500Y5070000D01*
X3414000Y5065000D01*
X3408000Y5058000D01*
X3406500Y5051000D01*
X3408000Y5044000D01*
X3414000Y5035000D01*
X3375000Y5038000D01*
Y5065000D01*
G01X3442500Y5812000D02*
X3438000Y5806000D01*
X3435000Y5799000D01*
Y5791000D01*
X3439500Y5782000D01*
X3447000Y5775000D01*
X3456000Y5770000D01*
X3471000Y5766000D01*
X3484500Y5765000D01*
X3498000Y5767000D01*
X3507000Y5770000D01*
X3516000Y5776000D01*
X3522000Y5783000D01*
X3525000Y5790000D01*
Y5797000D01*
X3522000Y5804000D01*
X3517500Y5810000D01*
X3511500Y5815000D01*
G01X3525000Y5872000D02*
X3435000D01*
X3499500Y5835000D01*
Y5885000D01*
G01X3487500Y5911000D02*
X3477000Y5918000D01*
X3471000Y5924000D01*
X3468000Y5932000D01*
X3471000Y5939000D01*
X3477000Y5944000D01*
X3486000Y5948000D01*
X3496500Y5949000D01*
X3505500Y5948000D01*
X3514500Y5944000D01*
X3522000Y5938000D01*
X3525000Y5931000D01*
X3522000Y5923000D01*
X3513000Y5916000D01*
X3499500Y5912000D01*
X3484500Y5911000D01*
X3465000Y5913000D01*
X3454500Y5916000D01*
X3444000Y5921000D01*
X3436500Y5928000D01*
X3435000Y5935000D01*
X3438000Y5942000D01*
X3445500Y5947000D01*
G01X3852000Y942500D02*
X3846000Y947000D01*
X3839000Y950000D01*
X3831000D01*
X3822000Y945500D01*
X3815000Y938000D01*
X3810000Y929000D01*
X3806000Y914000D01*
X3805000Y900500D01*
X3807000Y887000D01*
X3810000Y878000D01*
X3816000Y869000D01*
X3823000Y863000D01*
X3830000Y860000D01*
X3837000D01*
X3844000Y863000D01*
X3850000Y867500D01*
X3855000Y873500D01*
G01X3900000Y860000D02*
Y950000D01*
X3888000Y932000D01*
G01Y860000D02*
X3912000D01*
G01X3970000D02*
X3977000Y861500D01*
X3985000Y866000D01*
X3990000Y873500D01*
X3992000Y884000D01*
X3990000Y894500D01*
X3984000Y903500D01*
X3975000Y908000D01*
X3965000D01*
X3959000Y911000D01*
X3954000Y918500D01*
X3952000Y929000D01*
X3955000Y939500D01*
X3962000Y947000D01*
X3970000Y950000D01*
X3978000Y947000D01*
X3985000Y939500D01*
X3988000Y929000D01*
X3986000Y918500D01*
X3981000Y911000D01*
X3975000Y908000D01*
X3965000D01*
X3956000Y903500D01*
X3950000Y894500D01*
X3948000Y884000D01*
X3950000Y873500D01*
X3955000Y866000D01*
X3963000Y861500D01*
X3970000Y860000D01*
G01X3810000Y1312250D02*
Y1402250D01*
X3835000D01*
X3843000Y1397750D01*
X3848000Y1391750D01*
X3850000Y1379750D01*
X3848000Y1367750D01*
X3842000Y1360250D01*
X3835000Y1355750D01*
X3810000D01*
G01X3835000D02*
X3850000Y1312250D01*
G01X3878000Y1330250D02*
X3884000Y1319750D01*
X3892000Y1313750D01*
X3901000Y1312250D01*
X3909000Y1313750D01*
X3917000Y1321250D01*
X3922000Y1330250D01*
X3923000Y1339250D01*
X3921000Y1349750D01*
X3914000Y1357250D01*
X3907000Y1360250D01*
X3898000D01*
G01X3907000D02*
X3913000Y1364750D01*
X3918000Y1372250D01*
X3920000Y1381250D01*
X3918000Y1390250D01*
X3913000Y1397750D01*
X3904000Y1402250D01*
X3895000Y1400750D01*
X3886000Y1394750D01*
G01X3970000Y1402250D02*
X3962000Y1399250D01*
X3956000Y1391750D01*
X3952000Y1382750D01*
X3949000Y1370750D01*
X3948000Y1357250D01*
X3949000Y1343750D01*
X3952000Y1331750D01*
X3956000Y1322750D01*
X3962000Y1315250D01*
X3970000Y1312250D01*
X3978000Y1315250D01*
X3984000Y1322750D01*
X3988000Y1331750D01*
X3991000Y1343750D01*
X3992000Y1357250D01*
X3991000Y1370750D01*
X3988000Y1382750D01*
X3984000Y1391750D01*
X3978000Y1399250D01*
X3970000Y1402250D01*
G01X3852000Y1237500D02*
X3846000Y1242000D01*
X3839000Y1245000D01*
X3831000D01*
X3822000Y1240500D01*
X3815000Y1233000D01*
X3810000Y1224000D01*
X3806000Y1209000D01*
X3805000Y1195500D01*
X3807000Y1182000D01*
X3810000Y1173000D01*
X3816000Y1164000D01*
X3823000Y1158000D01*
X3830000Y1155000D01*
X3837000D01*
X3844000Y1158000D01*
X3850000Y1162500D01*
X3855000Y1168500D01*
G01X3900000Y1155000D02*
Y1245000D01*
X3888000Y1227000D01*
G01Y1155000D02*
X3912000D01*
G01X3968000D02*
X3970000Y1174500D01*
X3973000Y1191000D01*
X3977000Y1206000D01*
X3982000Y1222500D01*
X3990000Y1245000D01*
X3950000D01*
G01X3852000Y1087500D02*
X3846000Y1092000D01*
X3839000Y1095000D01*
X3831000D01*
X3822000Y1090500D01*
X3815000Y1083000D01*
X3810000Y1074000D01*
X3806000Y1059000D01*
X3805000Y1045500D01*
X3807000Y1032000D01*
X3810000Y1023000D01*
X3816000Y1014000D01*
X3823000Y1008000D01*
X3830000Y1005000D01*
X3837000D01*
X3844000Y1008000D01*
X3850000Y1012500D01*
X3855000Y1018500D01*
G01X3900000Y1005000D02*
Y1095000D01*
X3888000Y1077000D01*
G01Y1005000D02*
X3912000D01*
G01X3951000Y1042500D02*
X3958000Y1053000D01*
X3964000Y1059000D01*
X3972000Y1062000D01*
X3979000Y1059000D01*
X3984000Y1053000D01*
X3988000Y1044000D01*
X3989000Y1033500D01*
X3988000Y1024500D01*
X3984000Y1015500D01*
X3978000Y1008000D01*
X3971000Y1005000D01*
X3963000Y1008000D01*
X3956000Y1017000D01*
X3952000Y1030500D01*
X3951000Y1045500D01*
X3953000Y1065000D01*
X3956000Y1075500D01*
X3961000Y1086000D01*
X3968000Y1093500D01*
X3975000Y1095000D01*
X3982000Y1092000D01*
X3987000Y1084500D01*
G01X3810000Y1615000D02*
Y1705000D01*
X3835000D01*
X3843000Y1700500D01*
X3848000Y1694500D01*
X3850000Y1682500D01*
X3848000Y1670500D01*
X3842000Y1663000D01*
X3835000Y1658500D01*
X3810000D01*
G01X3835000D02*
X3850000Y1615000D01*
G01X3881000Y1690000D02*
X3887000Y1699000D01*
X3894000Y1703500D01*
X3902000Y1705000D01*
X3912000Y1702000D01*
X3919000Y1694500D01*
X3921000Y1685500D01*
X3920000Y1676500D01*
X3916000Y1669000D01*
X3896000Y1654000D01*
X3887000Y1643500D01*
X3881000Y1628500D01*
X3879000Y1615000D01*
X3921000D01*
G01X3970000D02*
X3977000Y1616500D01*
X3985000Y1621000D01*
X3990000Y1628500D01*
X3992000Y1639000D01*
X3990000Y1649500D01*
X3984000Y1658500D01*
X3975000Y1663000D01*
X3965000D01*
X3959000Y1666000D01*
X3954000Y1673500D01*
X3952000Y1684000D01*
X3955000Y1694500D01*
X3962000Y1702000D01*
X3970000Y1705000D01*
X3978000Y1702000D01*
X3985000Y1694500D01*
X3988000Y1684000D01*
X3986000Y1673500D01*
X3981000Y1666000D01*
X3975000Y1663000D01*
X3965000D01*
X3956000Y1658500D01*
X3950000Y1649500D01*
X3948000Y1639000D01*
X3950000Y1628500D01*
X3955000Y1621000D01*
X3963000Y1616500D01*
X3970000Y1615000D01*
G01X3810000Y1465000D02*
Y1555000D01*
X3835000D01*
X3843000Y1550500D01*
X3848000Y1544500D01*
X3850000Y1532500D01*
X3848000Y1520500D01*
X3842000Y1513000D01*
X3835000Y1508500D01*
X3810000D01*
G01X3835000D02*
X3850000Y1465000D01*
G01X3881000Y1540000D02*
X3887000Y1549000D01*
X3894000Y1553500D01*
X3902000Y1555000D01*
X3912000Y1552000D01*
X3919000Y1544500D01*
X3921000Y1535500D01*
X3920000Y1526500D01*
X3916000Y1519000D01*
X3896000Y1504000D01*
X3887000Y1493500D01*
X3881000Y1478500D01*
X3879000Y1465000D01*
X3921000D01*
G01X3953000Y1475500D02*
X3960000Y1468000D01*
X3968000Y1465000D01*
X3976000Y1468000D01*
X3983000Y1477000D01*
X3988000Y1490500D01*
X3990000Y1504000D01*
Y1520500D01*
X3988000Y1534000D01*
X3983000Y1546000D01*
X3977000Y1552000D01*
X3970000Y1555000D01*
X3962000Y1552000D01*
X3956000Y1546000D01*
X3952000Y1537000D01*
X3950000Y1525000D01*
X3952000Y1514500D01*
X3957000Y1504000D01*
X3963000Y1498000D01*
X3970000Y1496500D01*
X3978000Y1499500D01*
X3984000Y1507000D01*
X3990000Y1520500D01*
G01X3720000Y4460000D02*
Y4550000D01*
X3745000D01*
X3753000Y4545500D01*
X3758000Y4539500D01*
X3760000Y4527500D01*
X3758000Y4515500D01*
X3752000Y4508000D01*
X3745000Y4503500D01*
X3720000D01*
G01X3745000D02*
X3760000Y4460000D01*
G01X3788000Y4473500D02*
X3794000Y4466000D01*
X3801000Y4461500D01*
X3810000Y4460000D01*
X3819000Y4463000D01*
X3826000Y4469000D01*
X3831000Y4479500D01*
X3832000Y4491500D01*
X3830000Y4503500D01*
X3825000Y4511000D01*
X3818000Y4517000D01*
X3811000Y4518500D01*
X3804000Y4517000D01*
X3795000Y4511000D01*
X3798000Y4550000D01*
X3825000D01*
G01X3892000Y4460000D02*
Y4550000D01*
X3855000Y4485500D01*
X3905000D01*
G01X3720000Y4615000D02*
Y4705000D01*
X3745000D01*
X3753000Y4700500D01*
X3758000Y4694500D01*
X3760000Y4682500D01*
X3758000Y4670500D01*
X3752000Y4663000D01*
X3745000Y4658500D01*
X3720000D01*
G01X3745000D02*
X3760000Y4615000D01*
G01X3788000Y4628500D02*
X3794000Y4621000D01*
X3801000Y4616500D01*
X3810000Y4615000D01*
X3819000Y4618000D01*
X3826000Y4624000D01*
X3831000Y4634500D01*
X3832000Y4646500D01*
X3830000Y4658500D01*
X3825000Y4666000D01*
X3818000Y4672000D01*
X3811000Y4673500D01*
X3804000Y4672000D01*
X3795000Y4666000D01*
X3798000Y4705000D01*
X3825000D01*
G01X3880000Y4615000D02*
Y4705000D01*
X3868000Y4687000D01*
G01Y4615000D02*
X3892000D01*
G01X3720000Y4765000D02*
Y4855000D01*
X3745000D01*
X3753000Y4850500D01*
X3758000Y4844500D01*
X3760000Y4832500D01*
X3758000Y4820500D01*
X3752000Y4813000D01*
X3745000Y4808500D01*
X3720000D01*
G01X3745000D02*
X3760000Y4765000D01*
G01X3788000Y4778500D02*
X3794000Y4771000D01*
X3801000Y4766500D01*
X3810000Y4765000D01*
X3819000Y4768000D01*
X3826000Y4774000D01*
X3831000Y4784500D01*
X3832000Y4796500D01*
X3830000Y4808500D01*
X3825000Y4816000D01*
X3818000Y4822000D01*
X3811000Y4823500D01*
X3804000Y4822000D01*
X3795000Y4816000D01*
X3798000Y4855000D01*
X3825000D01*
G01X3880000D02*
X3872000Y4852000D01*
X3866000Y4844500D01*
X3862000Y4835500D01*
X3859000Y4823500D01*
X3858000Y4810000D01*
X3859000Y4796500D01*
X3862000Y4784500D01*
X3866000Y4775500D01*
X3872000Y4768000D01*
X3880000Y4765000D01*
X3888000Y4768000D01*
X3894000Y4775500D01*
X3898000Y4784500D01*
X3901000Y4796500D01*
X3902000Y4810000D01*
X3901000Y4823500D01*
X3898000Y4835500D01*
X3894000Y4844500D01*
X3888000Y4852000D01*
X3880000Y4855000D01*
G01X3742000Y5167500D02*
X3736000Y5172000D01*
X3729000Y5175000D01*
X3721000D01*
X3712000Y5170500D01*
X3705000Y5163000D01*
X3700000Y5154000D01*
X3696000Y5139000D01*
X3695000Y5125500D01*
X3697000Y5112000D01*
X3700000Y5103000D01*
X3706000Y5094000D01*
X3713000Y5088000D01*
X3720000Y5085000D01*
X3727000D01*
X3734000Y5088000D01*
X3740000Y5092500D01*
X3745000Y5098500D01*
G01X3768000Y5103000D02*
X3774000Y5092500D01*
X3782000Y5086500D01*
X3791000Y5085000D01*
X3799000Y5086500D01*
X3807000Y5094000D01*
X3812000Y5103000D01*
X3813000Y5112000D01*
X3811000Y5122500D01*
X3804000Y5130000D01*
X3797000Y5133000D01*
X3788000D01*
G01X3797000D02*
X3803000Y5137500D01*
X3808000Y5145000D01*
X3810000Y5154000D01*
X3808000Y5163000D01*
X3803000Y5170500D01*
X3794000Y5175000D01*
X3785000Y5173500D01*
X3776000Y5167500D01*
G01X3841000Y5160000D02*
X3847000Y5169000D01*
X3854000Y5173500D01*
X3862000Y5175000D01*
X3872000Y5172000D01*
X3879000Y5164500D01*
X3881000Y5155500D01*
X3880000Y5146500D01*
X3876000Y5139000D01*
X3856000Y5124000D01*
X3847000Y5113500D01*
X3841000Y5098500D01*
X3839000Y5085000D01*
X3881000D01*
G01X3742000Y4997500D02*
X3736000Y5002000D01*
X3729000Y5005000D01*
X3721000D01*
X3712000Y5000500D01*
X3705000Y4993000D01*
X3700000Y4984000D01*
X3696000Y4969000D01*
X3695000Y4955500D01*
X3697000Y4942000D01*
X3700000Y4933000D01*
X3706000Y4924000D01*
X3713000Y4918000D01*
X3720000Y4915000D01*
X3727000D01*
X3734000Y4918000D01*
X3740000Y4922500D01*
X3745000Y4928500D01*
G01X3768000Y4933000D02*
X3774000Y4922500D01*
X3782000Y4916500D01*
X3791000Y4915000D01*
X3799000Y4916500D01*
X3807000Y4924000D01*
X3812000Y4933000D01*
X3813000Y4942000D01*
X3811000Y4952500D01*
X3804000Y4960000D01*
X3797000Y4963000D01*
X3788000D01*
G01X3797000D02*
X3803000Y4967500D01*
X3808000Y4975000D01*
X3810000Y4984000D01*
X3808000Y4993000D01*
X3803000Y5000500D01*
X3794000Y5005000D01*
X3785000Y5003500D01*
X3776000Y4997500D01*
G01X3872000Y4915000D02*
Y5005000D01*
X3835000Y4940500D01*
X3885000D01*
G01X3592500Y5812000D02*
X3588000Y5806000D01*
X3585000Y5799000D01*
Y5791000D01*
X3589500Y5782000D01*
X3597000Y5775000D01*
X3606000Y5770000D01*
X3621000Y5766000D01*
X3634500Y5765000D01*
X3648000Y5767000D01*
X3657000Y5770000D01*
X3666000Y5776000D01*
X3672000Y5783000D01*
X3675000Y5790000D01*
Y5797000D01*
X3672000Y5804000D01*
X3667500Y5810000D01*
X3661500Y5815000D01*
G01X3675000Y5872000D02*
X3585000D01*
X3649500Y5835000D01*
Y5885000D01*
G01X3661500Y5908000D02*
X3669000Y5914000D01*
X3673500Y5921000D01*
X3675000Y5930000D01*
X3672000Y5939000D01*
X3666000Y5946000D01*
X3655500Y5951000D01*
X3643500Y5952000D01*
X3631500Y5950000D01*
X3624000Y5945000D01*
X3618000Y5938000D01*
X3616500Y5931000D01*
X3618000Y5924000D01*
X3624000Y5915000D01*
X3585000Y5918000D01*
Y5945000D01*
G01X3772500Y5812000D02*
X3768000Y5806000D01*
X3765000Y5799000D01*
Y5791000D01*
X3769500Y5782000D01*
X3777000Y5775000D01*
X3786000Y5770000D01*
X3801000Y5766000D01*
X3814500Y5765000D01*
X3828000Y5767000D01*
X3837000Y5770000D01*
X3846000Y5776000D01*
X3852000Y5783000D01*
X3855000Y5790000D01*
Y5797000D01*
X3852000Y5804000D01*
X3847500Y5810000D01*
X3841500Y5815000D01*
G01X3855000Y5872000D02*
X3765000D01*
X3829500Y5835000D01*
Y5885000D01*
G01X3780000Y5911000D02*
X3771000Y5917000D01*
X3766500Y5924000D01*
X3765000Y5932000D01*
X3768000Y5942000D01*
X3775500Y5949000D01*
X3784500Y5951000D01*
X3793500Y5950000D01*
X3801000Y5946000D01*
X3816000Y5926000D01*
X3826500Y5917000D01*
X3841500Y5911000D01*
X3855000Y5909000D01*
Y5951000D01*
G01X3922500Y5812000D02*
X3918000Y5806000D01*
X3915000Y5799000D01*
Y5791000D01*
X3919500Y5782000D01*
X3927000Y5775000D01*
X3936000Y5770000D01*
X3951000Y5766000D01*
X3964500Y5765000D01*
X3978000Y5767000D01*
X3987000Y5770000D01*
X3996000Y5776000D01*
X4002000Y5783000D01*
X4005000Y5790000D01*
Y5797000D01*
X4002000Y5804000D01*
X3997500Y5810000D01*
X3991500Y5815000D01*
G01X3987000Y5838000D02*
X3997500Y5844000D01*
X4003500Y5852000D01*
X4005000Y5861000D01*
X4003500Y5869000D01*
X3996000Y5877000D01*
X3987000Y5882000D01*
X3978000Y5883000D01*
X3967500Y5881000D01*
X3960000Y5874000D01*
X3957000Y5867000D01*
Y5858000D01*
G01Y5867000D02*
X3952500Y5873000D01*
X3945000Y5878000D01*
X3936000Y5880000D01*
X3927000Y5878000D01*
X3919500Y5873000D01*
X3915000Y5864000D01*
X3916500Y5855000D01*
X3922500Y5846000D01*
G01X3987000Y5908000D02*
X3997500Y5914000D01*
X4003500Y5922000D01*
X4005000Y5931000D01*
X4003500Y5939000D01*
X3996000Y5947000D01*
X3987000Y5952000D01*
X3978000Y5953000D01*
X3967500Y5951000D01*
X3960000Y5944000D01*
X3957000Y5937000D01*
Y5928000D01*
G01Y5937000D02*
X3952500Y5943000D01*
X3945000Y5948000D01*
X3936000Y5950000D01*
X3927000Y5948000D01*
X3919500Y5943000D01*
X3915000Y5934000D01*
X3916500Y5925000D01*
X3922500Y5916000D01*
G01X3864740Y6436520D02*
X3869740Y6427520D01*
X3875740Y6421520D01*
X3882740Y6418520D01*
X3890740Y6421520D01*
X3896740Y6427520D01*
X3902740Y6436520D01*
X3904740Y6448520D01*
Y6508520D01*
G01X3954740Y6418520D02*
Y6508520D01*
X3942740Y6490520D01*
G01Y6418520D02*
X3966740D01*
G01X4022740D02*
X4024740Y6438020D01*
X4027740Y6454520D01*
X4031740Y6469520D01*
X4036740Y6486020D01*
X4044740Y6508520D01*
X4004740D01*
G01X4420000Y5848000D02*
X4425000Y5839000D01*
X4431000Y5833000D01*
X4438000Y5830000D01*
X4446000Y5833000D01*
X4452000Y5839000D01*
X4458000Y5848000D01*
X4460000Y5860000D01*
Y5920000D01*
G01X4510000Y5830000D02*
Y5920000D01*
X4498000Y5902000D01*
G01Y5830000D02*
X4522000D01*
G01X4558000Y5848000D02*
X4564000Y5837500D01*
X4572000Y5831500D01*
X4581000Y5830000D01*
X4589000Y5831500D01*
X4597000Y5839000D01*
X4602000Y5848000D01*
X4603000Y5857000D01*
X4601000Y5867500D01*
X4594000Y5875000D01*
X4587000Y5878000D01*
X4578000D01*
G01X4587000D02*
X4593000Y5882500D01*
X4598000Y5890000D01*
X4600000Y5899000D01*
X4598000Y5908000D01*
X4593000Y5915500D01*
X4584000Y5920000D01*
X4575000Y5918500D01*
X4566000Y5912500D01*
G01X4160000Y5770000D02*
X4070000D01*
Y5795000D01*
X4074500Y5803000D01*
X4080500Y5808000D01*
X4092500Y5810000D01*
X4104500Y5808000D01*
X4112000Y5802000D01*
X4116500Y5795000D01*
Y5770000D01*
G01Y5795000D02*
X4160000Y5810000D01*
G01X4146500Y5838000D02*
X4154000Y5844000D01*
X4158500Y5851000D01*
X4160000Y5860000D01*
X4157000Y5869000D01*
X4151000Y5876000D01*
X4140500Y5881000D01*
X4128500Y5882000D01*
X4116500Y5880000D01*
X4109000Y5875000D01*
X4103000Y5868000D01*
X4101500Y5861000D01*
X4103000Y5854000D01*
X4109000Y5845000D01*
X4070000Y5848000D01*
Y5875000D01*
G01X4160000Y5930000D02*
X4158500Y5937000D01*
X4154000Y5945000D01*
X4146500Y5950000D01*
X4136000Y5952000D01*
X4125500Y5950000D01*
X4116500Y5944000D01*
X4112000Y5935000D01*
Y5925000D01*
X4109000Y5919000D01*
X4101500Y5914000D01*
X4091000Y5912000D01*
X4080500Y5915000D01*
X4073000Y5922000D01*
X4070000Y5930000D01*
X4073000Y5938000D01*
X4080500Y5945000D01*
X4091000Y5948000D01*
X4101500Y5946000D01*
X4109000Y5941000D01*
X4112000Y5935000D01*
Y5925000D01*
X4116500Y5916000D01*
X4125500Y5910000D01*
X4136000Y5908000D01*
X4146500Y5910000D01*
X4154000Y5915000D01*
X4158500Y5923000D01*
X4160000Y5930000D01*
G01X4152000Y6422500D02*
X4146000Y6427000D01*
X4139000Y6430000D01*
X4131000D01*
X4122000Y6425500D01*
X4115000Y6418000D01*
X4110000Y6409000D01*
X4106000Y6394000D01*
X4105000Y6380500D01*
X4107000Y6367000D01*
X4110000Y6358000D01*
X4116000Y6349000D01*
X4123000Y6343000D01*
X4130000Y6340000D01*
X4137000D01*
X4144000Y6343000D01*
X4150000Y6347500D01*
X4155000Y6353500D01*
G01X4175000Y6340000D02*
X4200000Y6430000D01*
X4225000Y6340000D01*
G01X4216000Y6371500D02*
X4184000D01*
G01X4247000Y6340000D02*
Y6430000D01*
X4293000Y6340000D01*
Y6430000D01*
G01X4320000D02*
Y6340000D01*
X4360000D01*
G01X4662000Y6422500D02*
X4656000Y6427000D01*
X4649000Y6430000D01*
X4641000D01*
X4632000Y6425500D01*
X4625000Y6418000D01*
X4620000Y6409000D01*
X4616000Y6394000D01*
X4615000Y6380500D01*
X4617000Y6367000D01*
X4620000Y6358000D01*
X4626000Y6349000D01*
X4633000Y6343000D01*
X4640000Y6340000D01*
X4647000D01*
X4654000Y6343000D01*
X4660000Y6347500D01*
X4665000Y6353500D01*
G01X4685000Y6340000D02*
X4710000Y6430000D01*
X4735000Y6340000D01*
G01X4726000Y6371500D02*
X4694000D01*
G01X4757000Y6340000D02*
Y6430000D01*
X4803000Y6340000D01*
Y6430000D01*
G01X4829000Y6340000D02*
Y6430000D01*
G01X4871000D02*
Y6340000D01*
G01Y6385000D02*
X4829000D01*
G01X5352000Y4636500D02*
X5346000Y4641000D01*
X5339000Y4644000D01*
X5331000D01*
X5322000Y4639500D01*
X5315000Y4632000D01*
X5310000Y4623000D01*
X5306000Y4608000D01*
X5305000Y4594500D01*
X5307000Y4581000D01*
X5310000Y4572000D01*
X5316000Y4563000D01*
X5323000Y4557000D01*
X5330000Y4554000D01*
X5337000D01*
X5344000Y4557000D01*
X5350000Y4561500D01*
X5355000Y4567500D01*
G01X5380000Y4644000D02*
Y4554000D01*
X5420000D01*
G01X5448000D02*
Y4644000D01*
G01X5486000D02*
X5448000Y4588500D01*
G01X5492000Y4554000D02*
X5465000Y4614000D01*
G01X5116000Y4599000D02*
X5136000D01*
Y4572000D01*
X5130000Y4563000D01*
X5123000Y4557000D01*
X5113000Y4554000D01*
X5103000Y4557000D01*
X5096000Y4563000D01*
X5090000Y4572000D01*
X5086000Y4582500D01*
X5084000Y4594500D01*
Y4605000D01*
X5086000Y4614000D01*
X5090000Y4624500D01*
X5096000Y4633500D01*
X5102000Y4639500D01*
X5110000Y4644000D01*
X5117000D01*
X5125000Y4641000D01*
X5131000Y4635000D01*
G01X5352000Y4890500D02*
X5346000Y4895000D01*
X5339000Y4898000D01*
X5331000D01*
X5322000Y4893500D01*
X5315000Y4886000D01*
X5310000Y4877000D01*
X5306000Y4862000D01*
X5305000Y4848500D01*
X5307000Y4835000D01*
X5310000Y4826000D01*
X5316000Y4817000D01*
X5323000Y4811000D01*
X5330000Y4808000D01*
X5337000D01*
X5344000Y4811000D01*
X5350000Y4815500D01*
X5355000Y4821500D01*
G01X5374000Y4808000D02*
Y4898000D01*
X5400000Y4823000D01*
X5426000Y4898000D01*
Y4808000D01*
G01X5448000D02*
Y4898000D01*
X5468000D01*
X5476000Y4893500D01*
X5482000Y4887500D01*
X5487000Y4878500D01*
X5491000Y4868000D01*
X5492000Y4853000D01*
X5491000Y4838000D01*
X5487000Y4827500D01*
X5482000Y4818500D01*
X5476000Y4812500D01*
X5468000Y4808000D01*
X5448000D01*
G01X5088000Y5062000D02*
Y5152000D01*
X5108000D01*
X5116000Y5147500D01*
X5122000Y5141500D01*
X5127000Y5132500D01*
X5131000Y5122000D01*
X5132000Y5107000D01*
X5131000Y5092000D01*
X5127000Y5081500D01*
X5122000Y5072500D01*
X5116000Y5066500D01*
X5108000Y5062000D01*
X5088000D01*
G01X5180000D02*
Y5152000D01*
X5168000Y5134000D01*
G01Y5062000D02*
X5192000D01*
G01X5088000Y4808000D02*
Y4898000D01*
X5108000D01*
X5116000Y4893500D01*
X5122000Y4887500D01*
X5127000Y4878500D01*
X5131000Y4868000D01*
X5132000Y4853000D01*
X5131000Y4838000D01*
X5127000Y4827500D01*
X5122000Y4818500D01*
X5116000Y4812500D01*
X5108000Y4808000D01*
X5088000D01*
G01X5161000Y4883000D02*
X5167000Y4892000D01*
X5174000Y4896500D01*
X5182000Y4898000D01*
X5192000Y4895000D01*
X5199000Y4887500D01*
X5201000Y4878500D01*
X5200000Y4869500D01*
X5196000Y4862000D01*
X5176000Y4847000D01*
X5167000Y4836500D01*
X5161000Y4821500D01*
X5159000Y4808000D01*
X5201000D01*
G01X5308000Y5062000D02*
Y5152000D01*
X5328000D01*
X5336000Y5147500D01*
X5342000Y5141500D01*
X5347000Y5132500D01*
X5351000Y5122000D01*
X5352000Y5107000D01*
X5351000Y5092000D01*
X5347000Y5081500D01*
X5342000Y5072500D01*
X5336000Y5066500D01*
X5328000Y5062000D01*
X5308000D01*
G01X5378000Y5080000D02*
X5384000Y5069500D01*
X5392000Y5063500D01*
X5401000Y5062000D01*
X5409000Y5063500D01*
X5417000Y5071000D01*
X5422000Y5080000D01*
X5423000Y5089000D01*
X5421000Y5099500D01*
X5414000Y5107000D01*
X5407000Y5110000D01*
X5398000D01*
G01X5407000D02*
X5413000Y5114500D01*
X5418000Y5122000D01*
X5420000Y5131000D01*
X5418000Y5140000D01*
X5413000Y5147500D01*
X5404000Y5152000D01*
X5395000Y5150500D01*
X5386000Y5144500D01*
G01X5085000Y5660000D02*
X5110000Y5570000D01*
X5135000Y5660000D01*
G01X5336000Y5615000D02*
X5356000D01*
Y5588000D01*
X5350000Y5579000D01*
X5343000Y5573000D01*
X5333000Y5570000D01*
X5323000Y5573000D01*
X5316000Y5579000D01*
X5310000Y5588000D01*
X5306000Y5598500D01*
X5304000Y5610500D01*
Y5621000D01*
X5306000Y5630000D01*
X5310000Y5640500D01*
X5316000Y5649500D01*
X5322000Y5655500D01*
X5330000Y5660000D01*
X5337000D01*
X5345000Y5657000D01*
X5351000Y5651000D01*
G01X5336000Y5361000D02*
X5356000D01*
Y5334000D01*
X5350000Y5325000D01*
X5343000Y5319000D01*
X5333000Y5316000D01*
X5323000Y5319000D01*
X5316000Y5325000D01*
X5310000Y5334000D01*
X5306000Y5344500D01*
X5304000Y5356500D01*
Y5367000D01*
X5306000Y5376000D01*
X5310000Y5386500D01*
X5316000Y5395500D01*
X5322000Y5401500D01*
X5330000Y5406000D01*
X5337000D01*
X5345000Y5403000D01*
X5351000Y5397000D01*
G01X5380000Y5316000D02*
Y5406000D01*
X5404000D01*
X5412000Y5401500D01*
X5418000Y5391000D01*
X5420000Y5379000D01*
X5418000Y5367000D01*
X5413000Y5358000D01*
X5404000Y5353500D01*
X5380000D01*
G01X5458000Y5406000D02*
X5482000D01*
G01X5470000D02*
Y5316000D01*
G01X5458000D02*
X5482000D01*
G01X5540000D02*
X5532000Y5317500D01*
X5525000Y5323500D01*
X5519000Y5332500D01*
X5515000Y5343000D01*
X5513000Y5355000D01*
Y5367000D01*
X5515000Y5379000D01*
X5519000Y5389500D01*
X5525000Y5398500D01*
X5532000Y5404500D01*
X5540000Y5406000D01*
X5548000Y5404500D01*
X5555000Y5398500D01*
X5561000Y5389500D01*
X5565000Y5379000D01*
X5567000Y5367000D01*
Y5355000D01*
X5565000Y5343000D01*
X5561000Y5332500D01*
X5555000Y5323500D01*
X5548000Y5317500D01*
X5540000Y5316000D01*
G01X5610000D02*
Y5406000D01*
X5598000Y5388000D01*
G01Y5316000D02*
X5622000D01*
G01X5088000D02*
Y5406000D01*
X5108000D01*
X5116000Y5401500D01*
X5122000Y5395500D01*
X5127000Y5386500D01*
X5131000Y5376000D01*
X5132000Y5361000D01*
X5131000Y5346000D01*
X5127000Y5335500D01*
X5122000Y5326500D01*
X5116000Y5320500D01*
X5108000Y5316000D01*
X5088000D01*
G01X5180000Y5406000D02*
X5172000Y5403000D01*
X5166000Y5395500D01*
X5162000Y5386500D01*
X5159000Y5374500D01*
X5158000Y5361000D01*
X5159000Y5347500D01*
X5162000Y5335500D01*
X5166000Y5326500D01*
X5172000Y5319000D01*
X5180000Y5316000D01*
X5188000Y5319000D01*
X5194000Y5326500D01*
X5198000Y5335500D01*
X5201000Y5347500D01*
X5202000Y5361000D01*
X5201000Y5374500D01*
X5198000Y5386500D01*
X5194000Y5395500D01*
X5188000Y5403000D01*
X5180000Y5406000D01*
G01X5352000Y6340000D02*
Y6430000D01*
X5315000Y6365500D01*
X5365000D01*
G01X5410000Y6340000D02*
X5417000Y6341500D01*
X5425000Y6346000D01*
X5430000Y6353500D01*
X5432000Y6364000D01*
X5430000Y6374500D01*
X5424000Y6383500D01*
X5415000Y6388000D01*
X5405000D01*
X5399000Y6391000D01*
X5394000Y6398500D01*
X5392000Y6409000D01*
X5395000Y6419500D01*
X5402000Y6427000D01*
X5410000Y6430000D01*
X5418000Y6427000D01*
X5425000Y6419500D01*
X5428000Y6409000D01*
X5426000Y6398500D01*
X5421000Y6391000D01*
X5415000Y6388000D01*
X5405000D01*
X5396000Y6383500D01*
X5390000Y6374500D01*
X5388000Y6364000D01*
X5390000Y6353500D01*
X5395000Y6346000D01*
X5403000Y6341500D01*
X5410000Y6340000D01*
G01X5458000Y6353500D02*
X5464000Y6346000D01*
X5471000Y6341500D01*
X5480000Y6340000D01*
X5489000Y6343000D01*
X5496000Y6349000D01*
X5501000Y6359500D01*
X5502000Y6371500D01*
X5500000Y6383500D01*
X5495000Y6391000D01*
X5488000Y6397000D01*
X5481000Y6398500D01*
X5474000Y6397000D01*
X5465000Y6391000D01*
X5468000Y6430000D01*
X5495000D01*
G01X5525000Y6340000D02*
X5550000Y6430000D01*
X5575000Y6340000D01*
G01X5566000Y6371500D02*
X5534000D01*
G01X5072000Y6436520D02*
X5077000Y6427520D01*
X5083000Y6421520D01*
X5090000Y6418520D01*
X5098000Y6421520D01*
X5104000Y6427520D01*
X5110000Y6436520D01*
X5112000Y6448520D01*
Y6508520D01*
G01X5162000Y6418520D02*
Y6508520D01*
X5150000Y6490520D01*
G01Y6418520D02*
X5174000D01*
G01X5213000Y6456020D02*
X5220000Y6466520D01*
X5226000Y6472520D01*
X5234000Y6475520D01*
X5241000Y6472520D01*
X5246000Y6466520D01*
X5250000Y6457520D01*
X5251000Y6447020D01*
X5250000Y6438020D01*
X5246000Y6429020D01*
X5240000Y6421520D01*
X5233000Y6418520D01*
X5225000Y6421520D01*
X5218000Y6430520D01*
X5214000Y6444020D01*
X5213000Y6459020D01*
X5215000Y6478520D01*
X5218000Y6489020D01*
X5223000Y6499520D01*
X5230000Y6507020D01*
X5237000Y6508520D01*
X5244000Y6505520D01*
X5249000Y6498020D01*
G01X5860000Y98000D02*
X5865000Y89000D01*
X5871000Y83000D01*
X5878000Y80000D01*
X5886000Y83000D01*
X5892000Y89000D01*
X5898000Y98000D01*
X5900000Y110000D01*
Y170000D01*
G01X5950000Y80000D02*
Y170000D01*
X5938000Y152000D01*
G01Y80000D02*
X5962000D01*
G01X6032000D02*
Y170000D01*
X5995000Y105500D01*
X6045000D01*
G01X5907000Y1712500D02*
X5901000Y1717000D01*
X5894000Y1720000D01*
X5886000D01*
X5877000Y1715500D01*
X5870000Y1708000D01*
X5865000Y1699000D01*
X5861000Y1684000D01*
X5860000Y1670500D01*
X5862000Y1657000D01*
X5865000Y1648000D01*
X5871000Y1639000D01*
X5878000Y1633000D01*
X5885000Y1630000D01*
X5892000D01*
X5899000Y1633000D01*
X5905000Y1637500D01*
X5910000Y1643500D01*
G01X5953000Y1630000D02*
X5955000Y1649500D01*
X5958000Y1666000D01*
X5962000Y1681000D01*
X5967000Y1697500D01*
X5975000Y1720000D01*
X5935000D01*
G01X5703000Y4130000D02*
Y4065500D01*
X5707000Y4052000D01*
X5715000Y4043000D01*
X5725000Y4040000D01*
X5735000Y4043000D01*
X5743000Y4052000D01*
X5747000Y4065500D01*
Y4130000D01*
G01X5795000Y4040000D02*
X5802000Y4041500D01*
X5810000Y4046000D01*
X5815000Y4053500D01*
X5817000Y4064000D01*
X5815000Y4074500D01*
X5809000Y4083500D01*
X5800000Y4088000D01*
X5790000D01*
X5784000Y4091000D01*
X5779000Y4098500D01*
X5777000Y4109000D01*
X5780000Y4119500D01*
X5787000Y4127000D01*
X5795000Y4130000D01*
X5803000Y4127000D01*
X5810000Y4119500D01*
X5813000Y4109000D01*
X5811000Y4098500D01*
X5806000Y4091000D01*
X5800000Y4088000D01*
X5790000D01*
X5781000Y4083500D01*
X5775000Y4074500D01*
X5773000Y4064000D01*
X5775000Y4053500D01*
X5780000Y4046000D01*
X5788000Y4041500D01*
X5795000Y4040000D01*
G01X5983000Y5790000D02*
Y5725500D01*
X5987000Y5712000D01*
X5995000Y5703000D01*
X6005000Y5700000D01*
X6015000Y5703000D01*
X6023000Y5712000D01*
X6027000Y5725500D01*
Y5790000D01*
G01X6075000Y5700000D02*
Y5790000D01*
X6063000Y5772000D01*
G01Y5700000D02*
X6087000D01*
G01X5862000Y6340000D02*
Y6430000D01*
X5825000Y6365500D01*
X5875000D01*
G01X5920000Y6340000D02*
X5927000Y6341500D01*
X5935000Y6346000D01*
X5940000Y6353500D01*
X5942000Y6364000D01*
X5940000Y6374500D01*
X5934000Y6383500D01*
X5925000Y6388000D01*
X5915000D01*
X5909000Y6391000D01*
X5904000Y6398500D01*
X5902000Y6409000D01*
X5905000Y6419500D01*
X5912000Y6427000D01*
X5920000Y6430000D01*
X5928000Y6427000D01*
X5935000Y6419500D01*
X5938000Y6409000D01*
X5936000Y6398500D01*
X5931000Y6391000D01*
X5925000Y6388000D01*
X5915000D01*
X5906000Y6383500D01*
X5900000Y6374500D01*
X5898000Y6364000D01*
X5900000Y6353500D01*
X5905000Y6346000D01*
X5913000Y6341500D01*
X5920000Y6340000D01*
G01X5968000Y6353500D02*
X5974000Y6346000D01*
X5981000Y6341500D01*
X5990000Y6340000D01*
X5999000Y6343000D01*
X6006000Y6349000D01*
X6011000Y6359500D01*
X6012000Y6371500D01*
X6010000Y6383500D01*
X6005000Y6391000D01*
X5998000Y6397000D01*
X5991000Y6398500D01*
X5984000Y6397000D01*
X5975000Y6391000D01*
X5978000Y6430000D01*
X6005000D01*
G01X6068000Y6388000D02*
X6072000Y6392500D01*
X6075000Y6400000D01*
X6077000Y6410500D01*
X6075000Y6419500D01*
X6071000Y6425500D01*
X6064000Y6430000D01*
X6037000D01*
Y6340000D01*
X6070000D01*
X6077000Y6346000D01*
X6081000Y6355000D01*
X6083000Y6365500D01*
X6081000Y6376000D01*
X6075000Y6385000D01*
X6068000Y6388000D01*
X6037000D01*
G01X6587000Y1702500D02*
X6581000Y1707000D01*
X6574000Y1710000D01*
X6566000D01*
X6557000Y1705500D01*
X6550000Y1698000D01*
X6545000Y1689000D01*
X6541000Y1674000D01*
X6540000Y1660500D01*
X6542000Y1647000D01*
X6545000Y1638000D01*
X6551000Y1629000D01*
X6558000Y1623000D01*
X6565000Y1620000D01*
X6572000D01*
X6579000Y1623000D01*
X6585000Y1627500D01*
X6590000Y1633500D01*
G01X6635000Y1620000D02*
X6642000Y1621500D01*
X6650000Y1626000D01*
X6655000Y1633500D01*
X6657000Y1644000D01*
X6655000Y1654500D01*
X6649000Y1663500D01*
X6640000Y1668000D01*
X6630000D01*
X6624000Y1671000D01*
X6619000Y1678500D01*
X6617000Y1689000D01*
X6620000Y1699500D01*
X6627000Y1707000D01*
X6635000Y1710000D01*
X6643000Y1707000D01*
X6650000Y1699500D01*
X6653000Y1689000D01*
X6651000Y1678500D01*
X6646000Y1671000D01*
X6640000Y1668000D01*
X6630000D01*
X6621000Y1663500D01*
X6615000Y1654500D01*
X6613000Y1644000D01*
X6615000Y1633500D01*
X6620000Y1626000D01*
X6628000Y1621500D01*
X6635000Y1620000D01*
G01X6229990Y2239990D02*
Y5940010D01*
X10130010D01*
Y2239990D01*
X6229990D01*
G01X6420000Y7348000D02*
X6425000Y7339000D01*
X6431000Y7333000D01*
X6438000Y7330000D01*
X6446000Y7333000D01*
X6452000Y7339000D01*
X6458000Y7348000D01*
X6460000Y7360000D01*
Y7420000D01*
G01X6510000Y7330000D02*
Y7420000D01*
X6498000Y7402000D01*
G01Y7330000D02*
X6522000D01*
G01X6580000Y7420000D02*
X6572000Y7417000D01*
X6566000Y7409500D01*
X6562000Y7400500D01*
X6559000Y7388500D01*
X6558000Y7375000D01*
X6559000Y7361500D01*
X6562000Y7349500D01*
X6566000Y7340500D01*
X6572000Y7333000D01*
X6580000Y7330000D01*
X6588000Y7333000D01*
X6594000Y7340500D01*
X6598000Y7349500D01*
X6601000Y7361500D01*
X6602000Y7375000D01*
X6601000Y7388500D01*
X6598000Y7400500D01*
X6594000Y7409500D01*
X6588000Y7417000D01*
X6580000Y7420000D01*
G01X7283000Y1710000D02*
Y1645500D01*
X7287000Y1632000D01*
X7295000Y1623000D01*
X7305000Y1620000D01*
X7315000Y1623000D01*
X7323000Y1632000D01*
X7327000Y1645500D01*
Y1710000D01*
G01X7354000Y1632000D02*
X7362000Y1624500D01*
X7371000Y1620000D01*
X7379000D01*
X7387000Y1624500D01*
X7393000Y1632000D01*
X7396000Y1642500D01*
X7394000Y1653000D01*
X7389000Y1662000D01*
X7380000Y1668000D01*
X7368000Y1671000D01*
X7361000Y1677000D01*
X7358000Y1687500D01*
X7360000Y1698000D01*
X7365000Y1705500D01*
X7372000Y1710000D01*
X7379000D01*
X7386000Y1707000D01*
X7392000Y1699500D01*
G01X7453000Y1668000D02*
X7457000Y1672500D01*
X7460000Y1680000D01*
X7462000Y1690500D01*
X7460000Y1699500D01*
X7456000Y1705500D01*
X7449000Y1710000D01*
X7422000D01*
Y1620000D01*
X7455000D01*
X7462000Y1626000D01*
X7466000Y1635000D01*
X7468000Y1645500D01*
X7466000Y1656000D01*
X7460000Y1665000D01*
X7453000Y1668000D01*
X7422000D01*
G01X7496000Y1695000D02*
X7502000Y1704000D01*
X7509000Y1708500D01*
X7517000Y1710000D01*
X7527000Y1707000D01*
X7534000Y1699500D01*
X7536000Y1690500D01*
X7535000Y1681500D01*
X7531000Y1674000D01*
X7511000Y1659000D01*
X7502000Y1648500D01*
X7496000Y1633500D01*
X7494000Y1620000D01*
X7536000D01*
G01X8043000Y545000D02*
Y480500D01*
X8047000Y467000D01*
X8055000Y458000D01*
X8065000Y455000D01*
X8075000Y458000D01*
X8083000Y467000D01*
X8087000Y480500D01*
Y545000D01*
G01X8113000Y468500D02*
X8119000Y461000D01*
X8126000Y456500D01*
X8135000Y455000D01*
X8144000Y458000D01*
X8151000Y464000D01*
X8156000Y474500D01*
X8157000Y486500D01*
X8155000Y498500D01*
X8150000Y506000D01*
X8143000Y512000D01*
X8136000Y513500D01*
X8129000Y512000D01*
X8120000Y506000D01*
X8123000Y545000D01*
X8150000D01*
G01X7687500Y487000D02*
X7683000Y481000D01*
X7680000Y474000D01*
Y466000D01*
X7684500Y457000D01*
X7692000Y450000D01*
X7701000Y445000D01*
X7716000Y441000D01*
X7729500Y440000D01*
X7743000Y442000D01*
X7752000Y445000D01*
X7761000Y451000D01*
X7767000Y458000D01*
X7770000Y465000D01*
Y472000D01*
X7767000Y479000D01*
X7762500Y485000D01*
X7756500Y490000D01*
G01Y513000D02*
X7764000Y519000D01*
X7768500Y526000D01*
X7770000Y535000D01*
X7767000Y544000D01*
X7761000Y551000D01*
X7750500Y556000D01*
X7738500Y557000D01*
X7726500Y555000D01*
X7719000Y550000D01*
X7713000Y543000D01*
X7711500Y536000D01*
X7713000Y529000D01*
X7719000Y520000D01*
X7680000Y523000D01*
Y550000D01*
G01X7710000Y1073000D02*
X7774500D01*
X7788000Y1077000D01*
X7797000Y1085000D01*
X7800000Y1095000D01*
X7797000Y1105000D01*
X7788000Y1113000D01*
X7774500Y1117000D01*
X7710000D01*
G01X7762500Y1146000D02*
X7752000Y1153000D01*
X7746000Y1159000D01*
X7743000Y1167000D01*
X7746000Y1174000D01*
X7752000Y1179000D01*
X7761000Y1183000D01*
X7771500Y1184000D01*
X7780500Y1183000D01*
X7789500Y1179000D01*
X7797000Y1173000D01*
X7800000Y1166000D01*
X7797000Y1158000D01*
X7788000Y1151000D01*
X7774500Y1147000D01*
X7759500Y1146000D01*
X7740000Y1148000D01*
X7729500Y1151000D01*
X7719000Y1156000D01*
X7711500Y1163000D01*
X7710000Y1170000D01*
X7713000Y1177000D01*
X7720500Y1182000D01*
G01X8422500Y487000D02*
X8418000Y481000D01*
X8415000Y474000D01*
Y466000D01*
X8419500Y457000D01*
X8427000Y450000D01*
X8436000Y445000D01*
X8451000Y441000D01*
X8464500Y440000D01*
X8478000Y442000D01*
X8487000Y445000D01*
X8496000Y451000D01*
X8502000Y458000D01*
X8505000Y465000D01*
Y472000D01*
X8502000Y479000D01*
X8497500Y485000D01*
X8491500Y490000D01*
G01X8505000Y547000D02*
X8415000D01*
X8479500Y510000D01*
Y560000D01*
G01X8770000Y453000D02*
X8680000D01*
Y473000D01*
X8684500Y481000D01*
X8690500Y487000D01*
X8699500Y492000D01*
X8710000Y496000D01*
X8725000Y497000D01*
X8740000Y496000D01*
X8750500Y492000D01*
X8759500Y487000D01*
X8765500Y481000D01*
X8770000Y473000D01*
Y453000D01*
G01Y557000D02*
X8680000D01*
X8744500Y520000D01*
Y570000D01*
G01X9015000Y1110000D02*
X8925000D01*
Y1135000D01*
X8929500Y1143000D01*
X8935500Y1148000D01*
X8947500Y1150000D01*
X8959500Y1148000D01*
X8967000Y1142000D01*
X8971500Y1135000D01*
Y1110000D01*
G01Y1135000D02*
X9015000Y1150000D01*
G01X8940000Y1181000D02*
X8931000Y1187000D01*
X8926500Y1194000D01*
X8925000Y1202000D01*
X8928000Y1212000D01*
X8935500Y1219000D01*
X8944500Y1221000D01*
X8953500Y1220000D01*
X8961000Y1216000D01*
X8976000Y1196000D01*
X8986500Y1187000D01*
X9001500Y1181000D01*
X9015000Y1179000D01*
Y1221000D01*
G01Y1270000D02*
X8925000D01*
X8943000Y1258000D01*
G01X9015000D02*
Y1282000D01*
G01X9165000Y1110000D02*
X9075000D01*
Y1135000D01*
X9079500Y1143000D01*
X9085500Y1148000D01*
X9097500Y1150000D01*
X9109500Y1148000D01*
X9117000Y1142000D01*
X9121500Y1135000D01*
Y1110000D01*
G01Y1135000D02*
X9165000Y1150000D01*
G01X9090000Y1181000D02*
X9081000Y1187000D01*
X9076500Y1194000D01*
X9075000Y1202000D01*
X9078000Y1212000D01*
X9085500Y1219000D01*
X9094500Y1221000D01*
X9103500Y1220000D01*
X9111000Y1216000D01*
X9126000Y1196000D01*
X9136500Y1187000D01*
X9151500Y1181000D01*
X9165000Y1179000D01*
Y1221000D01*
G01X9090000Y1251000D02*
X9081000Y1257000D01*
X9076500Y1264000D01*
X9075000Y1272000D01*
X9078000Y1282000D01*
X9085500Y1289000D01*
X9094500Y1291000D01*
X9103500Y1290000D01*
X9111000Y1286000D01*
X9126000Y1266000D01*
X9136500Y1257000D01*
X9151500Y1251000D01*
X9165000Y1249000D01*
Y1291000D01*
G01X9520000Y793000D02*
X9584500D01*
X9598000Y797000D01*
X9607000Y805000D01*
X9610000Y815000D01*
X9607000Y825000D01*
X9598000Y833000D01*
X9584500Y837000D01*
X9520000D01*
G01X9592000Y863000D02*
X9602500Y869000D01*
X9608500Y877000D01*
X9610000Y886000D01*
X9608500Y894000D01*
X9601000Y902000D01*
X9592000Y907000D01*
X9583000Y908000D01*
X9572500Y906000D01*
X9565000Y899000D01*
X9562000Y892000D01*
Y883000D01*
G01Y892000D02*
X9557500Y898000D01*
X9550000Y903000D01*
X9541000Y905000D01*
X9532000Y903000D01*
X9524500Y898000D01*
X9520000Y889000D01*
X9521500Y880000D01*
X9527500Y871000D01*
G01X9500000Y1155000D02*
X9590000D01*
Y1195000D01*
G01Y1245000D02*
X9500000D01*
X9518000Y1233000D01*
G01X9590000D02*
Y1257000D01*
G01X9770000Y1105000D02*
X9680000D01*
Y1130000D01*
X9684500Y1138000D01*
X9690500Y1143000D01*
X9702500Y1145000D01*
X9714500Y1143000D01*
X9722000Y1137000D01*
X9726500Y1130000D01*
Y1105000D01*
G01Y1130000D02*
X9770000Y1145000D01*
G01Y1195000D02*
X9680000D01*
X9698000Y1183000D01*
G01X9770000D02*
Y1207000D01*
G01X9633000Y1740000D02*
Y1830000D01*
X9653000D01*
X9661000Y1825500D01*
X9667000Y1819500D01*
X9672000Y1810500D01*
X9676000Y1800000D01*
X9677000Y1785000D01*
X9676000Y1770000D01*
X9672000Y1759500D01*
X9667000Y1750500D01*
X9661000Y1744500D01*
X9653000Y1740000D01*
X9633000D01*
G01X9706000Y1815000D02*
X9712000Y1824000D01*
X9719000Y1828500D01*
X9727000Y1830000D01*
X9737000Y1827000D01*
X9744000Y1819500D01*
X9746000Y1810500D01*
X9745000Y1801500D01*
X9741000Y1794000D01*
X9721000Y1779000D01*
X9712000Y1768500D01*
X9706000Y1753500D01*
X9704000Y1740000D01*
X9746000D01*
G01X9643000Y1940000D02*
Y2030000D01*
X9663000D01*
X9671000Y2025500D01*
X9677000Y2019500D01*
X9682000Y2010500D01*
X9686000Y2000000D01*
X9687000Y1985000D01*
X9686000Y1970000D01*
X9682000Y1959500D01*
X9677000Y1950500D01*
X9671000Y1944500D01*
X9663000Y1940000D01*
X9643000D01*
G01X9735000D02*
Y2030000D01*
X9723000Y2012000D01*
G01Y1940000D02*
X9747000D01*
G01X9983000Y120000D02*
Y55500D01*
X9987000Y42000D01*
X9995000Y33000D01*
X10005000Y30000D01*
X10015000Y33000D01*
X10023000Y42000D01*
X10027000Y55500D01*
Y120000D01*
G01X10054000Y42000D02*
X10062000Y34500D01*
X10071000Y30000D01*
X10079000D01*
X10087000Y34500D01*
X10093000Y42000D01*
X10096000Y52500D01*
X10094000Y63000D01*
X10089000Y72000D01*
X10080000Y78000D01*
X10068000Y81000D01*
X10061000Y87000D01*
X10058000Y97500D01*
X10060000Y108000D01*
X10065000Y115500D01*
X10072000Y120000D01*
X10079000D01*
X10086000Y117000D01*
X10092000Y109500D01*
G01X10153000Y78000D02*
X10157000Y82500D01*
X10160000Y90000D01*
X10162000Y100500D01*
X10160000Y109500D01*
X10156000Y115500D01*
X10149000Y120000D01*
X10122000D01*
Y30000D01*
X10155000D01*
X10162000Y36000D01*
X10166000Y45000D01*
X10168000Y55500D01*
X10166000Y66000D01*
X10160000Y75000D01*
X10153000Y78000D01*
X10122000D01*
G01X10215000Y30000D02*
Y120000D01*
X10203000Y102000D01*
G01Y30000D02*
X10227000D01*
G01X10159000Y342000D02*
X10167000Y334500D01*
X10176000Y330000D01*
X10184000D01*
X10192000Y334500D01*
X10198000Y342000D01*
X10201000Y352500D01*
X10199000Y363000D01*
X10194000Y372000D01*
X10185000Y378000D01*
X10173000Y381000D01*
X10166000Y387000D01*
X10163000Y397500D01*
X10165000Y408000D01*
X10170000Y415500D01*
X10177000Y420000D01*
X10184000D01*
X10191000Y417000D01*
X10197000Y409500D01*
G01X10220000Y420000D02*
X10234000Y330000D01*
X10250000Y420000D01*
X10266000Y330000D01*
X10280000Y420000D01*
G01X10301000Y405000D02*
X10307000Y414000D01*
X10314000Y418500D01*
X10322000Y420000D01*
X10332000Y417000D01*
X10339000Y409500D01*
X10341000Y400500D01*
X10340000Y391500D01*
X10336000Y384000D01*
X10316000Y369000D01*
X10307000Y358500D01*
X10301000Y343500D01*
X10299000Y330000D01*
X10341000D01*
G01X9994000Y6520000D02*
Y6610000D01*
X10020000Y6535000D01*
X10046000Y6610000D01*
Y6520000D01*
G01X10090000D02*
X10082000Y6521500D01*
X10075000Y6527500D01*
X10069000Y6536500D01*
X10065000Y6547000D01*
X10063000Y6559000D01*
Y6571000D01*
X10065000Y6583000D01*
X10069000Y6593500D01*
X10075000Y6602500D01*
X10082000Y6608500D01*
X10090000Y6610000D01*
X10098000Y6608500D01*
X10105000Y6602500D01*
X10111000Y6593500D01*
X10115000Y6583000D01*
X10117000Y6571000D01*
Y6559000D01*
X10115000Y6547000D01*
X10111000Y6536500D01*
X10105000Y6527500D01*
X10098000Y6521500D01*
X10090000Y6520000D01*
G01X10138000D02*
Y6610000D01*
X10158000D01*
X10166000Y6605500D01*
X10172000Y6599500D01*
X10177000Y6590500D01*
X10181000Y6580000D01*
X10182000Y6565000D01*
X10181000Y6550000D01*
X10177000Y6539500D01*
X10172000Y6530500D01*
X10166000Y6524500D01*
X10158000Y6520000D01*
X10138000D01*
G01X10250000D02*
X10210000D01*
Y6610000D01*
X10250000D01*
G01X10234000Y6566500D02*
X10210000D01*
G01X10300000Y6520000D02*
Y6610000D01*
X10288000Y6592000D01*
G01Y6520000D02*
X10312000D01*
G01X9998000Y6940000D02*
Y7030000D01*
X10018000D01*
X10026000Y7025500D01*
X10032000Y7019500D01*
X10037000Y7010500D01*
X10041000Y7000000D01*
X10042000Y6985000D01*
X10041000Y6970000D01*
X10037000Y6959500D01*
X10032000Y6950500D01*
X10026000Y6944500D01*
X10018000Y6940000D01*
X9998000D01*
G01X10065000D02*
X10090000Y7030000D01*
X10115000Y6940000D01*
G01X10106000Y6971500D02*
X10074000D01*
G01X10160000Y7030000D02*
Y6940000D01*
G01X10137000Y7030000D02*
X10183000D01*
G01X10205000Y6940000D02*
X10230000Y7030000D01*
X10255000Y6940000D01*
G01X10246000Y6971500D02*
X10214000D01*
G01X10300000Y6940000D02*
Y7030000D01*
X10288000Y7012000D01*
G01Y6940000D02*
X10312000D01*
G01X10370000D02*
Y7030000D01*
X10358000Y7012000D01*
G01Y6940000D02*
X10382000D01*
G01X9998000Y7060000D02*
Y7150000D01*
X10018000D01*
X10026000Y7145500D01*
X10032000Y7139500D01*
X10037000Y7130500D01*
X10041000Y7120000D01*
X10042000Y7105000D01*
X10041000Y7090000D01*
X10037000Y7079500D01*
X10032000Y7070500D01*
X10026000Y7064500D01*
X10018000Y7060000D01*
X9998000D01*
G01X10065000D02*
X10090000Y7150000D01*
X10115000Y7060000D01*
G01X10106000Y7091500D02*
X10074000D01*
G01X10160000Y7150000D02*
Y7060000D01*
G01X10137000Y7150000D02*
X10183000D01*
G01X10205000Y7060000D02*
X10230000Y7150000D01*
X10255000Y7060000D01*
G01X10246000Y7091500D02*
X10214000D01*
G01X10281000Y7097500D02*
X10288000Y7108000D01*
X10294000Y7114000D01*
X10302000Y7117000D01*
X10309000Y7114000D01*
X10314000Y7108000D01*
X10318000Y7099000D01*
X10319000Y7088500D01*
X10318000Y7079500D01*
X10314000Y7070500D01*
X10308000Y7063000D01*
X10301000Y7060000D01*
X10293000Y7063000D01*
X10286000Y7072000D01*
X10282000Y7085500D01*
X10281000Y7100500D01*
X10283000Y7120000D01*
X10286000Y7130500D01*
X10291000Y7141000D01*
X10298000Y7148500D01*
X10305000Y7150000D01*
X10312000Y7147000D01*
X10317000Y7139500D01*
G01X9994000Y6770000D02*
Y6860000D01*
X10020000Y6785000D01*
X10046000Y6860000D01*
Y6770000D01*
G01X10090000D02*
X10082000Y6771500D01*
X10075000Y6777500D01*
X10069000Y6786500D01*
X10065000Y6797000D01*
X10063000Y6809000D01*
Y6821000D01*
X10065000Y6833000D01*
X10069000Y6843500D01*
X10075000Y6852500D01*
X10082000Y6858500D01*
X10090000Y6860000D01*
X10098000Y6858500D01*
X10105000Y6852500D01*
X10111000Y6843500D01*
X10115000Y6833000D01*
X10117000Y6821000D01*
Y6809000D01*
X10115000Y6797000D01*
X10111000Y6786500D01*
X10105000Y6777500D01*
X10098000Y6771500D01*
X10090000Y6770000D01*
G01X10138000D02*
Y6860000D01*
X10158000D01*
X10166000Y6855500D01*
X10172000Y6849500D01*
X10177000Y6840500D01*
X10181000Y6830000D01*
X10182000Y6815000D01*
X10181000Y6800000D01*
X10177000Y6789500D01*
X10172000Y6780500D01*
X10166000Y6774500D01*
X10158000Y6770000D01*
X10138000D01*
G01X10250000D02*
X10210000D01*
Y6860000D01*
X10250000D01*
G01X10234000Y6816500D02*
X10210000D01*
G01X10300000Y6860000D02*
X10292000Y6857000D01*
X10286000Y6849500D01*
X10282000Y6840500D01*
X10279000Y6828500D01*
X10278000Y6815000D01*
X10279000Y6801500D01*
X10282000Y6789500D01*
X10286000Y6780500D01*
X10292000Y6773000D01*
X10300000Y6770000D01*
X10308000Y6773000D01*
X10314000Y6780500D01*
X10318000Y6789500D01*
X10321000Y6801500D01*
X10322000Y6815000D01*
X10321000Y6828500D01*
X10318000Y6840500D01*
X10314000Y6849500D01*
X10308000Y6857000D01*
X10300000Y6860000D01*
G01X9998000Y7340000D02*
Y7430000D01*
X10018000D01*
X10026000Y7425500D01*
X10032000Y7419500D01*
X10037000Y7410500D01*
X10041000Y7400000D01*
X10042000Y7385000D01*
X10041000Y7370000D01*
X10037000Y7359500D01*
X10032000Y7350500D01*
X10026000Y7344500D01*
X10018000Y7340000D01*
X9998000D01*
G01X10065000D02*
X10090000Y7430000D01*
X10115000Y7340000D01*
G01X10106000Y7371500D02*
X10074000D01*
G01X10160000Y7430000D02*
Y7340000D01*
G01X10137000Y7430000D02*
X10183000D01*
G01X10205000Y7340000D02*
X10230000Y7430000D01*
X10255000Y7340000D01*
G01X10246000Y7371500D02*
X10214000D01*
G01X10298000Y7340000D02*
X10300000Y7359500D01*
X10303000Y7376000D01*
X10307000Y7391000D01*
X10312000Y7407500D01*
X10320000Y7430000D01*
X10280000D01*
G01X9998000Y7220000D02*
Y7310000D01*
X10018000D01*
X10026000Y7305500D01*
X10032000Y7299500D01*
X10037000Y7290500D01*
X10041000Y7280000D01*
X10042000Y7265000D01*
X10041000Y7250000D01*
X10037000Y7239500D01*
X10032000Y7230500D01*
X10026000Y7224500D01*
X10018000Y7220000D01*
X9998000D01*
G01X10065000D02*
X10090000Y7310000D01*
X10115000Y7220000D01*
G01X10106000Y7251500D02*
X10074000D01*
G01X10160000Y7310000D02*
Y7220000D01*
G01X10137000Y7310000D02*
X10183000D01*
G01X10205000Y7220000D02*
X10230000Y7310000D01*
X10255000Y7220000D01*
G01X10246000Y7251500D02*
X10214000D01*
G01X10278000Y7233500D02*
X10284000Y7226000D01*
X10291000Y7221500D01*
X10300000Y7220000D01*
X10309000Y7223000D01*
X10316000Y7229000D01*
X10321000Y7239500D01*
X10322000Y7251500D01*
X10320000Y7263500D01*
X10315000Y7271000D01*
X10308000Y7277000D01*
X10301000Y7278500D01*
X10294000Y7277000D01*
X10285000Y7271000D01*
X10288000Y7310000D01*
X10315000D01*
G01X10675000Y160000D02*
G03I-50000J0D01*
G01X10905000D02*
G03I-50000J0D01*
G01X10600000Y430000D02*
X10592000Y431500D01*
X10585000Y437500D01*
X10579000Y446500D01*
X10575000Y457000D01*
X10573000Y469000D01*
Y481000D01*
X10575000Y493000D01*
X10579000Y503500D01*
X10585000Y512500D01*
X10592000Y518500D01*
X10600000Y520000D01*
X10608000Y518500D01*
X10615000Y512500D01*
X10621000Y503500D01*
X10625000Y493000D01*
X10627000Y481000D01*
Y469000D01*
X10625000Y457000D01*
X10621000Y446500D01*
X10615000Y437500D01*
X10608000Y431500D01*
X10600000Y430000D01*
G01X10647000D02*
Y520000D01*
X10693000Y430000D01*
Y520000D01*
G01X10722000Y427000D02*
X10758000Y520000D01*
G01X10810000Y430000D02*
X10802000Y431500D01*
X10795000Y437500D01*
X10789000Y446500D01*
X10785000Y457000D01*
X10783000Y469000D01*
Y481000D01*
X10785000Y493000D01*
X10789000Y503500D01*
X10795000Y512500D01*
X10802000Y518500D01*
X10810000Y520000D01*
X10818000Y518500D01*
X10825000Y512500D01*
X10831000Y503500D01*
X10835000Y493000D01*
X10837000Y481000D01*
Y469000D01*
X10835000Y457000D01*
X10831000Y446500D01*
X10825000Y437500D01*
X10818000Y431500D01*
X10810000Y430000D01*
G01X10861000D02*
Y520000D01*
X10899000D01*
G01X10885000Y476500D02*
X10861000D01*
G01X10931000Y430000D02*
Y520000D01*
X10969000D01*
G01X10955000Y476500D02*
X10931000D01*
G01X10382000Y1317500D02*
X10376000Y1322000D01*
X10369000Y1325000D01*
X10361000D01*
X10352000Y1320500D01*
X10345000Y1313000D01*
X10340000Y1304000D01*
X10336000Y1289000D01*
X10335000Y1275500D01*
X10337000Y1262000D01*
X10340000Y1253000D01*
X10346000Y1244000D01*
X10353000Y1238000D01*
X10360000Y1235000D01*
X10367000D01*
X10374000Y1238000D01*
X10380000Y1242500D01*
X10385000Y1248500D01*
G01X10411000Y1272500D02*
X10418000Y1283000D01*
X10424000Y1289000D01*
X10432000Y1292000D01*
X10439000Y1289000D01*
X10444000Y1283000D01*
X10448000Y1274000D01*
X10449000Y1263500D01*
X10448000Y1254500D01*
X10444000Y1245500D01*
X10438000Y1238000D01*
X10431000Y1235000D01*
X10423000Y1238000D01*
X10416000Y1247000D01*
X10412000Y1260500D01*
X10411000Y1275500D01*
X10413000Y1295000D01*
X10416000Y1305500D01*
X10421000Y1316000D01*
X10428000Y1323500D01*
X10435000Y1325000D01*
X10442000Y1322000D01*
X10447000Y1314500D01*
G01X10512000Y1235000D02*
Y1325000D01*
X10475000Y1260500D01*
X10525000D01*
G01X10382000Y1102500D02*
X10376000Y1107000D01*
X10369000Y1110000D01*
X10361000D01*
X10352000Y1105500D01*
X10345000Y1098000D01*
X10340000Y1089000D01*
X10336000Y1074000D01*
X10335000Y1060500D01*
X10337000Y1047000D01*
X10340000Y1038000D01*
X10346000Y1029000D01*
X10353000Y1023000D01*
X10360000Y1020000D01*
X10367000D01*
X10374000Y1023000D01*
X10380000Y1027500D01*
X10385000Y1033500D01*
G01X10411000Y1057500D02*
X10418000Y1068000D01*
X10424000Y1074000D01*
X10432000Y1077000D01*
X10439000Y1074000D01*
X10444000Y1068000D01*
X10448000Y1059000D01*
X10449000Y1048500D01*
X10448000Y1039500D01*
X10444000Y1030500D01*
X10438000Y1023000D01*
X10431000Y1020000D01*
X10423000Y1023000D01*
X10416000Y1032000D01*
X10412000Y1045500D01*
X10411000Y1060500D01*
X10413000Y1080000D01*
X10416000Y1090500D01*
X10421000Y1101000D01*
X10428000Y1108500D01*
X10435000Y1110000D01*
X10442000Y1107000D01*
X10447000Y1099500D01*
G01X10478000Y1033500D02*
X10484000Y1026000D01*
X10491000Y1021500D01*
X10500000Y1020000D01*
X10509000Y1023000D01*
X10516000Y1029000D01*
X10521000Y1039500D01*
X10522000Y1051500D01*
X10520000Y1063500D01*
X10515000Y1071000D01*
X10508000Y1077000D01*
X10501000Y1078500D01*
X10494000Y1077000D01*
X10485000Y1071000D01*
X10488000Y1110000D01*
X10515000D01*
G01X10382000Y2337500D02*
X10376000Y2342000D01*
X10369000Y2345000D01*
X10361000D01*
X10352000Y2340500D01*
X10345000Y2333000D01*
X10340000Y2324000D01*
X10336000Y2309000D01*
X10335000Y2295500D01*
X10337000Y2282000D01*
X10340000Y2273000D01*
X10346000Y2264000D01*
X10353000Y2258000D01*
X10360000Y2255000D01*
X10367000D01*
X10374000Y2258000D01*
X10380000Y2262500D01*
X10385000Y2268500D01*
G01X10411000Y2292500D02*
X10418000Y2303000D01*
X10424000Y2309000D01*
X10432000Y2312000D01*
X10439000Y2309000D01*
X10444000Y2303000D01*
X10448000Y2294000D01*
X10449000Y2283500D01*
X10448000Y2274500D01*
X10444000Y2265500D01*
X10438000Y2258000D01*
X10431000Y2255000D01*
X10423000Y2258000D01*
X10416000Y2267000D01*
X10412000Y2280500D01*
X10411000Y2295500D01*
X10413000Y2315000D01*
X10416000Y2325500D01*
X10421000Y2336000D01*
X10428000Y2343500D01*
X10435000Y2345000D01*
X10442000Y2342000D01*
X10447000Y2334500D01*
G01X10481000Y2292500D02*
X10488000Y2303000D01*
X10494000Y2309000D01*
X10502000Y2312000D01*
X10509000Y2309000D01*
X10514000Y2303000D01*
X10518000Y2294000D01*
X10519000Y2283500D01*
X10518000Y2274500D01*
X10514000Y2265500D01*
X10508000Y2258000D01*
X10501000Y2255000D01*
X10493000Y2258000D01*
X10486000Y2267000D01*
X10482000Y2280500D01*
X10481000Y2295500D01*
X10483000Y2315000D01*
X10486000Y2325500D01*
X10491000Y2336000D01*
X10498000Y2343500D01*
X10505000Y2345000D01*
X10512000Y2342000D01*
X10517000Y2334500D01*
G01X10382000Y2132500D02*
X10376000Y2137000D01*
X10369000Y2140000D01*
X10361000D01*
X10352000Y2135500D01*
X10345000Y2128000D01*
X10340000Y2119000D01*
X10336000Y2104000D01*
X10335000Y2090500D01*
X10337000Y2077000D01*
X10340000Y2068000D01*
X10346000Y2059000D01*
X10353000Y2053000D01*
X10360000Y2050000D01*
X10367000D01*
X10374000Y2053000D01*
X10380000Y2057500D01*
X10385000Y2063500D01*
G01X10411000Y2087500D02*
X10418000Y2098000D01*
X10424000Y2104000D01*
X10432000Y2107000D01*
X10439000Y2104000D01*
X10444000Y2098000D01*
X10448000Y2089000D01*
X10449000Y2078500D01*
X10448000Y2069500D01*
X10444000Y2060500D01*
X10438000Y2053000D01*
X10431000Y2050000D01*
X10423000Y2053000D01*
X10416000Y2062000D01*
X10412000Y2075500D01*
X10411000Y2090500D01*
X10413000Y2110000D01*
X10416000Y2120500D01*
X10421000Y2131000D01*
X10428000Y2138500D01*
X10435000Y2140000D01*
X10442000Y2137000D01*
X10447000Y2129500D01*
G01X10498000Y2050000D02*
X10500000Y2069500D01*
X10503000Y2086000D01*
X10507000Y2101000D01*
X10512000Y2117500D01*
X10520000Y2140000D01*
X10480000D01*
G01X10382000Y3352500D02*
X10376000Y3357000D01*
X10369000Y3360000D01*
X10361000D01*
X10352000Y3355500D01*
X10345000Y3348000D01*
X10340000Y3339000D01*
X10336000Y3324000D01*
X10335000Y3310500D01*
X10337000Y3297000D01*
X10340000Y3288000D01*
X10346000Y3279000D01*
X10353000Y3273000D01*
X10360000Y3270000D01*
X10367000D01*
X10374000Y3273000D01*
X10380000Y3277500D01*
X10385000Y3283500D01*
G01X10428000Y3270000D02*
X10430000Y3289500D01*
X10433000Y3306000D01*
X10437000Y3321000D01*
X10442000Y3337500D01*
X10450000Y3360000D01*
X10410000D01*
G01X10500000Y3270000D02*
Y3360000D01*
X10488000Y3342000D01*
G01Y3270000D02*
X10512000D01*
G01X10372000Y3132500D02*
X10366000Y3137000D01*
X10359000Y3140000D01*
X10351000D01*
X10342000Y3135500D01*
X10335000Y3128000D01*
X10330000Y3119000D01*
X10326000Y3104000D01*
X10325000Y3090500D01*
X10327000Y3077000D01*
X10330000Y3068000D01*
X10336000Y3059000D01*
X10343000Y3053000D01*
X10350000Y3050000D01*
X10357000D01*
X10364000Y3053000D01*
X10370000Y3057500D01*
X10375000Y3063500D01*
G01X10418000Y3050000D02*
X10420000Y3069500D01*
X10423000Y3086000D01*
X10427000Y3101000D01*
X10432000Y3117500D01*
X10440000Y3140000D01*
X10400000D01*
G01X10471000Y3125000D02*
X10477000Y3134000D01*
X10484000Y3138500D01*
X10492000Y3140000D01*
X10502000Y3137000D01*
X10509000Y3129500D01*
X10511000Y3120500D01*
X10510000Y3111500D01*
X10506000Y3104000D01*
X10486000Y3089000D01*
X10477000Y3078500D01*
X10471000Y3063500D01*
X10469000Y3050000D01*
X10511000D01*
G01X10605000Y4788000D02*
X10610000Y4779000D01*
X10616000Y4773000D01*
X10623000Y4770000D01*
X10631000Y4773000D01*
X10637000Y4779000D01*
X10643000Y4788000D01*
X10645000Y4800000D01*
Y4860000D01*
G01X10695000Y4770000D02*
Y4860000D01*
X10683000Y4842000D01*
G01Y4770000D02*
X10707000D01*
G01X10470000Y6320000D02*
Y6410000D01*
X10458000Y6392000D01*
G01Y6320000D02*
X10482000D01*
G01X10739000Y6312000D02*
X10747000Y6304500D01*
X10756000Y6300000D01*
X10764000D01*
X10772000Y6304500D01*
X10778000Y6312000D01*
X10781000Y6322500D01*
X10779000Y6333000D01*
X10774000Y6342000D01*
X10765000Y6348000D01*
X10753000Y6351000D01*
X10746000Y6357000D01*
X10743000Y6367500D01*
X10745000Y6378000D01*
X10750000Y6385500D01*
X10757000Y6390000D01*
X10764000D01*
X10771000Y6387000D01*
X10777000Y6379500D01*
G01X10800000Y6390000D02*
X10814000Y6300000D01*
X10830000Y6390000D01*
X10846000Y6300000D01*
X10860000Y6390000D01*
G01X10900000Y6300000D02*
Y6390000D01*
X10888000Y6372000D01*
G01Y6300000D02*
X10912000D01*
G01X11109000Y342000D02*
X11117000Y334500D01*
X11126000Y330000D01*
X11134000D01*
X11142000Y334500D01*
X11148000Y342000D01*
X11151000Y352500D01*
X11149000Y363000D01*
X11144000Y372000D01*
X11135000Y378000D01*
X11123000Y381000D01*
X11116000Y387000D01*
X11113000Y397500D01*
X11115000Y408000D01*
X11120000Y415500D01*
X11127000Y420000D01*
X11134000D01*
X11141000Y417000D01*
X11147000Y409500D01*
G01X11170000Y420000D02*
X11184000Y330000D01*
X11200000Y420000D01*
X11216000Y330000D01*
X11230000Y420000D01*
G01X11248000Y348000D02*
X11254000Y337500D01*
X11262000Y331500D01*
X11271000Y330000D01*
X11279000Y331500D01*
X11287000Y339000D01*
X11292000Y348000D01*
X11293000Y357000D01*
X11291000Y367500D01*
X11284000Y375000D01*
X11277000Y378000D01*
X11268000D01*
G01X11277000D02*
X11283000Y382500D01*
X11288000Y390000D01*
X11290000Y399000D01*
X11288000Y408000D01*
X11283000Y415500D01*
X11274000Y420000D01*
X11265000Y418500D01*
X11256000Y412500D01*
G01X10965000Y1490000D02*
Y1400000D01*
X11005000D01*
G01X11055000D02*
Y1490000D01*
X11043000Y1472000D01*
G01Y1400000D02*
X11067000D01*
G01X11125000Y1490000D02*
X11117000Y1487000D01*
X11111000Y1479500D01*
X11107000Y1470500D01*
X11104000Y1458500D01*
X11103000Y1445000D01*
X11104000Y1431500D01*
X11107000Y1419500D01*
X11111000Y1410500D01*
X11117000Y1403000D01*
X11125000Y1400000D01*
X11133000Y1403000D01*
X11139000Y1410500D01*
X11143000Y1419500D01*
X11146000Y1431500D01*
X11147000Y1445000D01*
X11146000Y1458500D01*
X11143000Y1470500D01*
X11139000Y1479500D01*
X11133000Y1487000D01*
X11125000Y1490000D01*
G01X10965000Y2520000D02*
Y2430000D01*
X11005000D01*
G01X11055000D02*
Y2520000D01*
X11043000Y2502000D01*
G01Y2430000D02*
X11067000D01*
G01X11125000D02*
Y2520000D01*
X11113000Y2502000D01*
G01Y2430000D02*
X11137000D01*
G01X10960000Y3570000D02*
Y3480000D01*
X11000000D01*
G01X11050000D02*
Y3570000D01*
X11038000Y3552000D01*
G01Y3480000D02*
X11062000D01*
G01X11101000Y3555000D02*
X11107000Y3564000D01*
X11114000Y3568500D01*
X11122000Y3570000D01*
X11132000Y3567000D01*
X11139000Y3559500D01*
X11141000Y3550500D01*
X11140000Y3541500D01*
X11136000Y3534000D01*
X11116000Y3519000D01*
X11107000Y3508500D01*
X11101000Y3493500D01*
X11099000Y3480000D01*
X11141000D01*
G01X10936000Y3835000D02*
X10956000D01*
Y3808000D01*
X10950000Y3799000D01*
X10943000Y3793000D01*
X10933000Y3790000D01*
X10923000Y3793000D01*
X10916000Y3799000D01*
X10910000Y3808000D01*
X10906000Y3818500D01*
X10904000Y3830500D01*
Y3841000D01*
X10906000Y3850000D01*
X10910000Y3860500D01*
X10916000Y3869500D01*
X10922000Y3875500D01*
X10930000Y3880000D01*
X10937000D01*
X10945000Y3877000D01*
X10951000Y3871000D01*
G01X10905000Y4140000D02*
X10930000Y4050000D01*
X10955000Y4140000D01*
G01X10930000Y4390000D02*
Y4300000D01*
G01X10907000Y4390000D02*
X10953000D01*
G01X10910000Y4550000D02*
Y4640000D01*
X10935000D01*
X10943000Y4635500D01*
X10948000Y4629500D01*
X10950000Y4617500D01*
X10948000Y4605500D01*
X10942000Y4598000D01*
X10935000Y4593500D01*
X10910000D01*
G01X10935000D02*
X10950000Y4550000D01*
G01X11170000Y5050000D02*
Y5140000D01*
X11195000D01*
X11203000Y5135500D01*
X11208000Y5129500D01*
X11210000Y5117500D01*
X11208000Y5105500D01*
X11202000Y5098000D01*
X11195000Y5093500D01*
X11170000D01*
G01X11195000D02*
X11210000Y5050000D01*
G01X11272000D02*
Y5140000D01*
X11235000Y5075500D01*
X11285000D01*
G01X11330000Y5140000D02*
X11322000Y5137000D01*
X11316000Y5129500D01*
X11312000Y5120500D01*
X11309000Y5108500D01*
X11308000Y5095000D01*
X11309000Y5081500D01*
X11312000Y5069500D01*
X11316000Y5060500D01*
X11322000Y5053000D01*
X11330000Y5050000D01*
X11338000Y5053000D01*
X11344000Y5060500D01*
X11348000Y5069500D01*
X11351000Y5081500D01*
X11352000Y5095000D01*
X11351000Y5108500D01*
X11348000Y5120500D01*
X11344000Y5129500D01*
X11338000Y5137000D01*
X11330000Y5140000D01*
G01X11170000Y5160000D02*
Y5250000D01*
X11195000D01*
X11203000Y5245500D01*
X11208000Y5239500D01*
X11210000Y5227500D01*
X11208000Y5215500D01*
X11202000Y5208000D01*
X11195000Y5203500D01*
X11170000D01*
G01X11195000D02*
X11210000Y5160000D01*
G01X11272000D02*
Y5250000D01*
X11235000Y5185500D01*
X11285000D01*
G01X11330000Y5160000D02*
Y5250000D01*
X11318000Y5232000D01*
G01Y5160000D02*
X11342000D01*
G01X11170000Y5270000D02*
Y5360000D01*
X11195000D01*
X11203000Y5355500D01*
X11208000Y5349500D01*
X11210000Y5337500D01*
X11208000Y5325500D01*
X11202000Y5318000D01*
X11195000Y5313500D01*
X11170000D01*
G01X11195000D02*
X11210000Y5270000D01*
G01X11272000D02*
Y5360000D01*
X11235000Y5295500D01*
X11285000D01*
G01X11311000Y5345000D02*
X11317000Y5354000D01*
X11324000Y5358500D01*
X11332000Y5360000D01*
X11342000Y5357000D01*
X11349000Y5349500D01*
X11351000Y5340500D01*
X11350000Y5331500D01*
X11346000Y5324000D01*
X11326000Y5309000D01*
X11317000Y5298500D01*
X11311000Y5283500D01*
X11309000Y5270000D01*
X11351000D01*
G01X11170000Y5385000D02*
Y5475000D01*
X11195000D01*
X11203000Y5470500D01*
X11208000Y5464500D01*
X11210000Y5452500D01*
X11208000Y5440500D01*
X11202000Y5433000D01*
X11195000Y5428500D01*
X11170000D01*
G01X11195000D02*
X11210000Y5385000D01*
G01X11272000D02*
Y5475000D01*
X11235000Y5410500D01*
X11285000D01*
G01X11308000Y5403000D02*
X11314000Y5392500D01*
X11322000Y5386500D01*
X11331000Y5385000D01*
X11339000Y5386500D01*
X11347000Y5394000D01*
X11352000Y5403000D01*
X11353000Y5412000D01*
X11351000Y5422500D01*
X11344000Y5430000D01*
X11337000Y5433000D01*
X11328000D01*
G01X11337000D02*
X11343000Y5437500D01*
X11348000Y5445000D01*
X11350000Y5454000D01*
X11348000Y5463000D01*
X11343000Y5470500D01*
X11334000Y5475000D01*
X11325000Y5473500D01*
X11316000Y5467500D01*
G01X11625000Y160000D02*
G03I-50000J0D01*
G01X11855000D02*
G03I-50000J0D01*
G01X11600000Y430000D02*
Y520000D01*
X11625000D01*
X11633000Y515500D01*
X11638000Y509500D01*
X11640000Y497500D01*
X11638000Y485500D01*
X11632000Y478000D01*
X11625000Y473500D01*
X11600000D01*
G01X11625000D02*
X11640000Y430000D01*
G01X11669000Y442000D02*
X11677000Y434500D01*
X11686000Y430000D01*
X11694000D01*
X11702000Y434500D01*
X11708000Y442000D01*
X11711000Y452500D01*
X11709000Y463000D01*
X11704000Y472000D01*
X11695000Y478000D01*
X11683000Y481000D01*
X11676000Y487000D01*
X11673000Y497500D01*
X11675000Y508000D01*
X11680000Y515500D01*
X11687000Y520000D01*
X11694000D01*
X11701000Y517000D01*
X11707000Y509500D01*
G01X11760000Y520000D02*
Y430000D01*
G01X11737000Y520000D02*
X11783000D01*
G01X11767500Y1062000D02*
X11763000Y1056000D01*
X11760000Y1049000D01*
Y1041000D01*
X11764500Y1032000D01*
X11772000Y1025000D01*
X11781000Y1020000D01*
X11796000Y1016000D01*
X11809500Y1015000D01*
X11823000Y1017000D01*
X11832000Y1020000D01*
X11841000Y1026000D01*
X11847000Y1033000D01*
X11850000Y1040000D01*
Y1047000D01*
X11847000Y1054000D01*
X11842500Y1060000D01*
X11836500Y1065000D01*
G01X11812500Y1091000D02*
X11802000Y1098000D01*
X11796000Y1104000D01*
X11793000Y1112000D01*
X11796000Y1119000D01*
X11802000Y1124000D01*
X11811000Y1128000D01*
X11821500Y1129000D01*
X11830500Y1128000D01*
X11839500Y1124000D01*
X11847000Y1118000D01*
X11850000Y1111000D01*
X11847000Y1103000D01*
X11838000Y1096000D01*
X11824500Y1092000D01*
X11809500Y1091000D01*
X11790000Y1093000D01*
X11779500Y1096000D01*
X11769000Y1101000D01*
X11761500Y1108000D01*
X11760000Y1115000D01*
X11763000Y1122000D01*
X11770500Y1127000D01*
G01X11775000Y1161000D02*
X11766000Y1167000D01*
X11761500Y1174000D01*
X11760000Y1182000D01*
X11763000Y1192000D01*
X11770500Y1199000D01*
X11779500Y1201000D01*
X11788500Y1200000D01*
X11796000Y1196000D01*
X11811000Y1176000D01*
X11821500Y1167000D01*
X11836500Y1161000D01*
X11850000Y1159000D01*
Y1201000D01*
G01X11777500Y2082000D02*
X11773000Y2076000D01*
X11770000Y2069000D01*
Y2061000D01*
X11774500Y2052000D01*
X11782000Y2045000D01*
X11791000Y2040000D01*
X11806000Y2036000D01*
X11819500Y2035000D01*
X11833000Y2037000D01*
X11842000Y2040000D01*
X11851000Y2046000D01*
X11857000Y2053000D01*
X11860000Y2060000D01*
Y2067000D01*
X11857000Y2074000D01*
X11852500Y2080000D01*
X11846500Y2085000D01*
G01X11822500Y2111000D02*
X11812000Y2118000D01*
X11806000Y2124000D01*
X11803000Y2132000D01*
X11806000Y2139000D01*
X11812000Y2144000D01*
X11821000Y2148000D01*
X11831500Y2149000D01*
X11840500Y2148000D01*
X11849500Y2144000D01*
X11857000Y2138000D01*
X11860000Y2131000D01*
X11857000Y2123000D01*
X11848000Y2116000D01*
X11834500Y2112000D01*
X11819500Y2111000D01*
X11800000Y2113000D01*
X11789500Y2116000D01*
X11779000Y2121000D01*
X11771500Y2128000D01*
X11770000Y2135000D01*
X11773000Y2142000D01*
X11780500Y2147000D01*
G01X11842000Y2178000D02*
X11852500Y2184000D01*
X11858500Y2192000D01*
X11860000Y2201000D01*
X11858500Y2209000D01*
X11851000Y2217000D01*
X11842000Y2222000D01*
X11833000Y2223000D01*
X11822500Y2221000D01*
X11815000Y2214000D01*
X11812000Y2207000D01*
Y2198000D01*
G01Y2207000D02*
X11807500Y2213000D01*
X11800000Y2218000D01*
X11791000Y2220000D01*
X11782000Y2218000D01*
X11774500Y2213000D01*
X11770000Y2204000D01*
X11771500Y2195000D01*
X11777500Y2186000D01*
G01X11767500Y3092000D02*
X11763000Y3086000D01*
X11760000Y3079000D01*
Y3071000D01*
X11764500Y3062000D01*
X11772000Y3055000D01*
X11781000Y3050000D01*
X11796000Y3046000D01*
X11809500Y3045000D01*
X11823000Y3047000D01*
X11832000Y3050000D01*
X11841000Y3056000D01*
X11847000Y3063000D01*
X11850000Y3070000D01*
Y3077000D01*
X11847000Y3084000D01*
X11842500Y3090000D01*
X11836500Y3095000D01*
G01X11850000Y3138000D02*
X11830500Y3140000D01*
X11814000Y3143000D01*
X11799000Y3147000D01*
X11782500Y3152000D01*
X11760000Y3160000D01*
Y3120000D01*
G01Y3210000D02*
X11763000Y3202000D01*
X11770500Y3196000D01*
X11779500Y3192000D01*
X11791500Y3189000D01*
X11805000Y3188000D01*
X11818500Y3189000D01*
X11830500Y3192000D01*
X11839500Y3196000D01*
X11847000Y3202000D01*
X11850000Y3210000D01*
X11847000Y3218000D01*
X11839500Y3224000D01*
X11830500Y3228000D01*
X11818500Y3231000D01*
X11805000Y3232000D01*
X11791500Y3231000D01*
X11779500Y3228000D01*
X11770500Y3224000D01*
X11763000Y3218000D01*
X11760000Y3210000D01*
G01X11538000Y3980000D02*
Y3915500D01*
X11542000Y3902000D01*
X11550000Y3893000D01*
X11560000Y3890000D01*
X11570000Y3893000D01*
X11578000Y3902000D01*
X11582000Y3915500D01*
Y3980000D01*
G01X11630000Y3890000D02*
Y3980000D01*
X11618000Y3962000D01*
G01Y3890000D02*
X11642000D01*
G01X11700000Y3980000D02*
X11692000Y3977000D01*
X11686000Y3969500D01*
X11682000Y3960500D01*
X11679000Y3948500D01*
X11678000Y3935000D01*
X11679000Y3921500D01*
X11682000Y3909500D01*
X11686000Y3900500D01*
X11692000Y3893000D01*
X11700000Y3890000D01*
X11708000Y3893000D01*
X11714000Y3900500D01*
X11718000Y3909500D01*
X11721000Y3921500D01*
X11722000Y3935000D01*
X11721000Y3948500D01*
X11718000Y3960500D01*
X11714000Y3969500D01*
X11708000Y3977000D01*
X11700000Y3980000D01*
G01X11548000Y4940000D02*
Y4875500D01*
X11552000Y4862000D01*
X11560000Y4853000D01*
X11570000Y4850000D01*
X11580000Y4853000D01*
X11588000Y4862000D01*
X11592000Y4875500D01*
Y4940000D01*
G01X11640000Y4850000D02*
Y4940000D01*
X11628000Y4922000D01*
G01Y4850000D02*
X11652000D01*
G01X11710000D02*
Y4940000D01*
X11698000Y4922000D01*
G01Y4850000D02*
X11722000D01*
G01X11538000Y5540000D02*
Y5475500D01*
X11542000Y5462000D01*
X11550000Y5453000D01*
X11560000Y5450000D01*
X11570000Y5453000D01*
X11578000Y5462000D01*
X11582000Y5475500D01*
Y5540000D01*
G01X11630000Y5450000D02*
Y5540000D01*
X11618000Y5522000D01*
G01Y5450000D02*
X11642000D01*
G01X11678000Y5468000D02*
X11684000Y5457500D01*
X11692000Y5451500D01*
X11701000Y5450000D01*
X11709000Y5451500D01*
X11717000Y5459000D01*
X11722000Y5468000D01*
X11723000Y5477000D01*
X11721000Y5487500D01*
X11714000Y5495000D01*
X11707000Y5498000D01*
X11698000D01*
G01X11707000D02*
X11713000Y5502500D01*
X11718000Y5510000D01*
X11720000Y5519000D01*
X11718000Y5528000D01*
X11713000Y5535500D01*
X11704000Y5540000D01*
X11695000Y5538500D01*
X11686000Y5532500D01*
G01X11538000Y6160000D02*
Y6095500D01*
X11542000Y6082000D01*
X11550000Y6073000D01*
X11560000Y6070000D01*
X11570000Y6073000D01*
X11578000Y6082000D01*
X11582000Y6095500D01*
Y6160000D01*
G01X11630000Y6070000D02*
Y6160000D01*
X11618000Y6142000D01*
G01Y6070000D02*
X11642000D01*
G01X11712000D02*
Y6160000D01*
X11675000Y6095500D01*
X11725000D01*
G01X11440000Y6400000D02*
X11432000Y6397000D01*
X11426000Y6389500D01*
X11422000Y6380500D01*
X11419000Y6368500D01*
X11418000Y6355000D01*
X11419000Y6341500D01*
X11422000Y6329500D01*
X11426000Y6320500D01*
X11432000Y6313000D01*
X11440000Y6310000D01*
X11448000Y6313000D01*
X11454000Y6320500D01*
X11458000Y6329500D01*
X11461000Y6341500D01*
X11462000Y6355000D01*
X11461000Y6368500D01*
X11458000Y6380500D01*
X11454000Y6389500D01*
X11448000Y6397000D01*
X11440000Y6400000D01*
G01X11777630Y7135000D02*
Y7225000D01*
X11802630D01*
X11810630Y7220500D01*
X11815630Y7214500D01*
X11817630Y7202500D01*
X11815630Y7190500D01*
X11809630Y7183000D01*
X11802630Y7178500D01*
X11777630D01*
G01X11802630D02*
X11817630Y7135000D01*
G01X11845630Y7153000D02*
X11851630Y7142500D01*
X11859630Y7136500D01*
X11868630Y7135000D01*
X11876630Y7136500D01*
X11884630Y7144000D01*
X11889630Y7153000D01*
X11890630Y7162000D01*
X11888630Y7172500D01*
X11881630Y7180000D01*
X11874630Y7183000D01*
X11865630D01*
G01X11874630D02*
X11880630Y7187500D01*
X11885630Y7195000D01*
X11887630Y7204000D01*
X11885630Y7213000D01*
X11880630Y7220500D01*
X11871630Y7225000D01*
X11862630Y7223500D01*
X11853630Y7217500D01*
G01X11920630Y7145500D02*
X11927630Y7138000D01*
X11935630Y7135000D01*
X11943630Y7138000D01*
X11950630Y7147000D01*
X11955630Y7160500D01*
X11957630Y7174000D01*
Y7190500D01*
X11955630Y7204000D01*
X11950630Y7216000D01*
X11944630Y7222000D01*
X11937630Y7225000D01*
X11929630Y7222000D01*
X11923630Y7216000D01*
X11919630Y7207000D01*
X11917630Y7195000D01*
X11919630Y7184500D01*
X11924630Y7174000D01*
X11930630Y7168000D01*
X11937630Y7166500D01*
X11945630Y7169500D01*
X11951630Y7177000D01*
X11957630Y7190500D01*
G01X11817090Y7417500D02*
X11811090Y7422000D01*
X11804090Y7425000D01*
X11796090D01*
X11787090Y7420500D01*
X11780090Y7413000D01*
X11775090Y7404000D01*
X11771090Y7389000D01*
X11770090Y7375500D01*
X11772090Y7362000D01*
X11775090Y7353000D01*
X11781090Y7344000D01*
X11788090Y7338000D01*
X11795090Y7335000D01*
X11802090D01*
X11809090Y7338000D01*
X11815090Y7342500D01*
X11820090Y7348500D01*
G01X11846090Y7410000D02*
X11852090Y7419000D01*
X11859090Y7423500D01*
X11867090Y7425000D01*
X11877090Y7422000D01*
X11884090Y7414500D01*
X11886090Y7405500D01*
X11885090Y7396500D01*
X11881090Y7389000D01*
X11861090Y7374000D01*
X11852090Y7363500D01*
X11846090Y7348500D01*
X11844090Y7335000D01*
X11886090D01*
G01X11935090Y7425000D02*
X11927090Y7422000D01*
X11921090Y7414500D01*
X11917090Y7405500D01*
X11914090Y7393500D01*
X11913090Y7380000D01*
X11914090Y7366500D01*
X11917090Y7354500D01*
X11921090Y7345500D01*
X11927090Y7338000D01*
X11935090Y7335000D01*
X11943090Y7338000D01*
X11949090Y7345500D01*
X11953090Y7354500D01*
X11956090Y7366500D01*
X11957090Y7380000D01*
X11956090Y7393500D01*
X11953090Y7405500D01*
X11949090Y7414500D01*
X11943090Y7422000D01*
X11935090Y7425000D01*
G01X12059000Y342000D02*
X12067000Y334500D01*
X12076000Y330000D01*
X12084000D01*
X12092000Y334500D01*
X12098000Y342000D01*
X12101000Y352500D01*
X12099000Y363000D01*
X12094000Y372000D01*
X12085000Y378000D01*
X12073000Y381000D01*
X12066000Y387000D01*
X12063000Y397500D01*
X12065000Y408000D01*
X12070000Y415500D01*
X12077000Y420000D01*
X12084000D01*
X12091000Y417000D01*
X12097000Y409500D01*
G01X12120000Y420000D02*
X12134000Y330000D01*
X12150000Y420000D01*
X12166000Y330000D01*
X12180000Y420000D01*
G01X12232000Y330000D02*
Y420000D01*
X12195000Y355500D01*
X12245000D01*
G01X12202400Y1365000D02*
Y1455000D01*
X12227400D01*
X12235400Y1450500D01*
X12240400Y1444500D01*
X12242400Y1432500D01*
X12240400Y1420500D01*
X12234400Y1413000D01*
X12227400Y1408500D01*
X12202400D01*
G01X12227400D02*
X12242400Y1365000D01*
G01X12290400D02*
X12292400Y1384500D01*
X12295400Y1401000D01*
X12299400Y1416000D01*
X12304400Y1432500D01*
X12312400Y1455000D01*
X12272400D01*
G01X12362400Y1365000D02*
Y1455000D01*
X12350400Y1437000D01*
G01Y1365000D02*
X12374400D01*
G01X11900000D02*
Y1455000D01*
X11925000D01*
X11933000Y1450500D01*
X11938000Y1444500D01*
X11940000Y1432500D01*
X11938000Y1420500D01*
X11932000Y1413000D01*
X11925000Y1408500D01*
X11900000D01*
G01X11925000D02*
X11940000Y1365000D01*
G01X11988000D02*
X11990000Y1384500D01*
X11993000Y1401000D01*
X11997000Y1416000D01*
X12002000Y1432500D01*
X12010000Y1455000D01*
X11970000D01*
G01X12038000Y1383000D02*
X12044000Y1372500D01*
X12052000Y1366500D01*
X12061000Y1365000D01*
X12069000Y1366500D01*
X12077000Y1374000D01*
X12082000Y1383000D01*
X12083000Y1392000D01*
X12081000Y1402500D01*
X12074000Y1410000D01*
X12067000Y1413000D01*
X12058000D01*
G01X12067000D02*
X12073000Y1417500D01*
X12078000Y1425000D01*
X12080000Y1434000D01*
X12078000Y1443000D01*
X12073000Y1450500D01*
X12064000Y1455000D01*
X12055000Y1453500D01*
X12046000Y1447500D01*
G01X12202400Y1485000D02*
Y1575000D01*
X12227400D01*
X12235400Y1570500D01*
X12240400Y1564500D01*
X12242400Y1552500D01*
X12240400Y1540500D01*
X12234400Y1533000D01*
X12227400Y1528500D01*
X12202400D01*
G01X12227400D02*
X12242400Y1485000D01*
G01X12273400Y1522500D02*
X12280400Y1533000D01*
X12286400Y1539000D01*
X12294400Y1542000D01*
X12301400Y1539000D01*
X12306400Y1533000D01*
X12310400Y1524000D01*
X12311400Y1513500D01*
X12310400Y1504500D01*
X12306400Y1495500D01*
X12300400Y1488000D01*
X12293400Y1485000D01*
X12285400Y1488000D01*
X12278400Y1497000D01*
X12274400Y1510500D01*
X12273400Y1525500D01*
X12275400Y1545000D01*
X12278400Y1555500D01*
X12283400Y1566000D01*
X12290400Y1573500D01*
X12297400Y1575000D01*
X12304400Y1572000D01*
X12309400Y1564500D01*
G01X12345400Y1495500D02*
X12352400Y1488000D01*
X12360400Y1485000D01*
X12368400Y1488000D01*
X12375400Y1497000D01*
X12380400Y1510500D01*
X12382400Y1524000D01*
Y1540500D01*
X12380400Y1554000D01*
X12375400Y1566000D01*
X12369400Y1572000D01*
X12362400Y1575000D01*
X12354400Y1572000D01*
X12348400Y1566000D01*
X12344400Y1557000D01*
X12342400Y1545000D01*
X12344400Y1534500D01*
X12349400Y1524000D01*
X12355400Y1518000D01*
X12362400Y1516500D01*
X12370400Y1519500D01*
X12376400Y1527000D01*
X12382400Y1540500D01*
G01X11900000Y1480000D02*
Y1570000D01*
X11925000D01*
X11933000Y1565500D01*
X11938000Y1559500D01*
X11940000Y1547500D01*
X11938000Y1535500D01*
X11932000Y1528000D01*
X11925000Y1523500D01*
X11900000D01*
G01X11925000D02*
X11940000Y1480000D01*
G01X11988000D02*
X11990000Y1499500D01*
X11993000Y1516000D01*
X11997000Y1531000D01*
X12002000Y1547500D01*
X12010000Y1570000D01*
X11970000D01*
G01X12072000Y1480000D02*
Y1570000D01*
X12035000Y1505500D01*
X12085000D01*
G01X12210000Y2390000D02*
Y2480000D01*
X12235000D01*
X12243000Y2475500D01*
X12248000Y2469500D01*
X12250000Y2457500D01*
X12248000Y2445500D01*
X12242000Y2438000D01*
X12235000Y2433500D01*
X12210000D01*
G01X12235000D02*
X12250000Y2390000D01*
G01X12298000D02*
X12300000Y2409500D01*
X12303000Y2426000D01*
X12307000Y2441000D01*
X12312000Y2457500D01*
X12320000Y2480000D01*
X12280000D01*
G01X12351000Y2465000D02*
X12357000Y2474000D01*
X12364000Y2478500D01*
X12372000Y2480000D01*
X12382000Y2477000D01*
X12389000Y2469500D01*
X12391000Y2460500D01*
X12390000Y2451500D01*
X12386000Y2444000D01*
X12366000Y2429000D01*
X12357000Y2418500D01*
X12351000Y2403500D01*
X12349000Y2390000D01*
X12391000D01*
G01X11920000Y2240000D02*
Y2330000D01*
X11945000D01*
X11953000Y2325500D01*
X11958000Y2319500D01*
X11960000Y2307500D01*
X11958000Y2295500D01*
X11952000Y2288000D01*
X11945000Y2283500D01*
X11920000D01*
G01X11945000D02*
X11960000Y2240000D01*
G01X12008000D02*
X12010000Y2259500D01*
X12013000Y2276000D01*
X12017000Y2291000D01*
X12022000Y2307500D01*
X12030000Y2330000D01*
X11990000D01*
G01X12058000Y2253500D02*
X12064000Y2246000D01*
X12071000Y2241500D01*
X12080000Y2240000D01*
X12089000Y2243000D01*
X12096000Y2249000D01*
X12101000Y2259500D01*
X12102000Y2271500D01*
X12100000Y2283500D01*
X12095000Y2291000D01*
X12088000Y2297000D01*
X12081000Y2298500D01*
X12074000Y2297000D01*
X12065000Y2291000D01*
X12068000Y2330000D01*
X12095000D01*
G01X12210000Y2500000D02*
Y2590000D01*
X12235000D01*
X12243000Y2585500D01*
X12248000Y2579500D01*
X12250000Y2567500D01*
X12248000Y2555500D01*
X12242000Y2548000D01*
X12235000Y2543500D01*
X12210000D01*
G01X12235000D02*
X12250000Y2500000D01*
G01X12298000D02*
X12300000Y2519500D01*
X12303000Y2536000D01*
X12307000Y2551000D01*
X12312000Y2567500D01*
X12320000Y2590000D01*
X12280000D01*
G01X12370000D02*
X12362000Y2587000D01*
X12356000Y2579500D01*
X12352000Y2570500D01*
X12349000Y2558500D01*
X12348000Y2545000D01*
X12349000Y2531500D01*
X12352000Y2519500D01*
X12356000Y2510500D01*
X12362000Y2503000D01*
X12370000Y2500000D01*
X12378000Y2503000D01*
X12384000Y2510500D01*
X12388000Y2519500D01*
X12391000Y2531500D01*
X12392000Y2545000D01*
X12391000Y2558500D01*
X12388000Y2570500D01*
X12384000Y2579500D01*
X12378000Y2587000D01*
X12370000Y2590000D01*
G01X12200000Y3390000D02*
Y3480000D01*
X12225000D01*
X12233000Y3475500D01*
X12238000Y3469500D01*
X12240000Y3457500D01*
X12238000Y3445500D01*
X12232000Y3438000D01*
X12225000Y3433500D01*
X12200000D01*
G01X12225000D02*
X12240000Y3390000D01*
G01X12288000D02*
X12290000Y3409500D01*
X12293000Y3426000D01*
X12297000Y3441000D01*
X12302000Y3457500D01*
X12310000Y3480000D01*
X12270000D01*
G01X12358000Y3390000D02*
X12360000Y3409500D01*
X12363000Y3426000D01*
X12367000Y3441000D01*
X12372000Y3457500D01*
X12380000Y3480000D01*
X12340000D01*
G01X12202400Y3505000D02*
Y3595000D01*
X12227400D01*
X12235400Y3590500D01*
X12240400Y3584500D01*
X12242400Y3572500D01*
X12240400Y3560500D01*
X12234400Y3553000D01*
X12227400Y3548500D01*
X12202400D01*
G01X12227400D02*
X12242400Y3505000D01*
G01X12290400D02*
X12292400Y3524500D01*
X12295400Y3541000D01*
X12299400Y3556000D01*
X12304400Y3572500D01*
X12312400Y3595000D01*
X12272400D01*
G01X12343400Y3542500D02*
X12350400Y3553000D01*
X12356400Y3559000D01*
X12364400Y3562000D01*
X12371400Y3559000D01*
X12376400Y3553000D01*
X12380400Y3544000D01*
X12381400Y3533500D01*
X12380400Y3524500D01*
X12376400Y3515500D01*
X12370400Y3508000D01*
X12363400Y3505000D01*
X12355400Y3508000D01*
X12348400Y3517000D01*
X12344400Y3530500D01*
X12343400Y3545500D01*
X12345400Y3565000D01*
X12348400Y3575500D01*
X12353400Y3586000D01*
X12360400Y3593500D01*
X12367400Y3595000D01*
X12374400Y3592000D01*
X12379400Y3584500D01*
G01X11900000Y3505000D02*
Y3595000D01*
X11925000D01*
X11933000Y3590500D01*
X11938000Y3584500D01*
X11940000Y3572500D01*
X11938000Y3560500D01*
X11932000Y3553000D01*
X11925000Y3548500D01*
X11900000D01*
G01X11925000D02*
X11940000Y3505000D01*
G01X11988000D02*
X11990000Y3524500D01*
X11993000Y3541000D01*
X11997000Y3556000D01*
X12002000Y3572500D01*
X12010000Y3595000D01*
X11970000D01*
G01X12060000Y3505000D02*
X12067000Y3506500D01*
X12075000Y3511000D01*
X12080000Y3518500D01*
X12082000Y3529000D01*
X12080000Y3539500D01*
X12074000Y3548500D01*
X12065000Y3553000D01*
X12055000D01*
X12049000Y3556000D01*
X12044000Y3563500D01*
X12042000Y3574000D01*
X12045000Y3584500D01*
X12052000Y3592000D01*
X12060000Y3595000D01*
X12068000Y3592000D01*
X12075000Y3584500D01*
X12078000Y3574000D01*
X12076000Y3563500D01*
X12071000Y3556000D01*
X12065000Y3553000D01*
X12055000D01*
X12046000Y3548500D01*
X12040000Y3539500D01*
X12038000Y3529000D01*
X12040000Y3518500D01*
X12045000Y3511000D01*
X12053000Y3506500D01*
X12060000Y3505000D01*
G01X11900000Y3390000D02*
Y3480000D01*
X11925000D01*
X11933000Y3475500D01*
X11938000Y3469500D01*
X11940000Y3457500D01*
X11938000Y3445500D01*
X11932000Y3438000D01*
X11925000Y3433500D01*
X11900000D01*
G01X11925000D02*
X11940000Y3390000D01*
G01X11988000D02*
X11990000Y3409500D01*
X11993000Y3426000D01*
X11997000Y3441000D01*
X12002000Y3457500D01*
X12010000Y3480000D01*
X11970000D01*
G01X12043000Y3400500D02*
X12050000Y3393000D01*
X12058000Y3390000D01*
X12066000Y3393000D01*
X12073000Y3402000D01*
X12078000Y3415500D01*
X12080000Y3429000D01*
Y3445500D01*
X12078000Y3459000D01*
X12073000Y3471000D01*
X12067000Y3477000D01*
X12060000Y3480000D01*
X12052000Y3477000D01*
X12046000Y3471000D01*
X12042000Y3462000D01*
X12040000Y3450000D01*
X12042000Y3439500D01*
X12047000Y3429000D01*
X12053000Y3423000D01*
X12060000Y3421500D01*
X12068000Y3424500D01*
X12074000Y3432000D01*
X12080000Y3445500D01*
G01X11872160Y5159900D02*
X11877160Y5150900D01*
X11883160Y5144900D01*
X11890160Y5141900D01*
X11898160Y5144900D01*
X11904160Y5150900D01*
X11910160Y5159900D01*
X11912160Y5171900D01*
Y5231900D01*
G01X11940160Y5155400D02*
X11946160Y5147900D01*
X11953160Y5143400D01*
X11962160Y5141900D01*
X11971160Y5144900D01*
X11978160Y5150900D01*
X11983160Y5161400D01*
X11984160Y5173400D01*
X11982160Y5185400D01*
X11977160Y5192900D01*
X11970160Y5198900D01*
X11963160Y5200400D01*
X11956160Y5198900D01*
X11947160Y5192900D01*
X11950160Y5231900D01*
X11977160D01*
G01X11872160Y6795210D02*
X11877160Y6786210D01*
X11883160Y6780210D01*
X11890160Y6777210D01*
X11898160Y6780210D01*
X11904160Y6786210D01*
X11910160Y6795210D01*
X11912160Y6807210D01*
Y6867210D01*
G01X11943160Y6814710D02*
X11950160Y6825210D01*
X11956160Y6831210D01*
X11964160Y6834210D01*
X11971160Y6831210D01*
X11976160Y6825210D01*
X11980160Y6816210D01*
X11981160Y6805710D01*
X11980160Y6796710D01*
X11976160Y6787710D01*
X11970160Y6780210D01*
X11963160Y6777210D01*
X11955160Y6780210D01*
X11948160Y6789210D01*
X11944160Y6802710D01*
X11943160Y6817710D01*
X11945160Y6837210D01*
X11948160Y6847710D01*
X11953160Y6858210D01*
X11960160Y6865710D01*
X11967160Y6867210D01*
X11974160Y6864210D01*
X11979160Y6856710D01*
G01X12575000Y160000D02*
G03I-50000J0D01*
G01X12805000D02*
G03I-50000J0D01*
G01X12508000Y510000D02*
Y445500D01*
X12512000Y432000D01*
X12520000Y423000D01*
X12530000Y420000D01*
X12540000Y423000D01*
X12548000Y432000D01*
X12552000Y445500D01*
Y510000D01*
G01X12579000Y432000D02*
X12587000Y424500D01*
X12596000Y420000D01*
X12604000D01*
X12612000Y424500D01*
X12618000Y432000D01*
X12621000Y442500D01*
X12619000Y453000D01*
X12614000Y462000D01*
X12605000Y468000D01*
X12593000Y471000D01*
X12586000Y477000D01*
X12583000Y487500D01*
X12585000Y498000D01*
X12590000Y505500D01*
X12597000Y510000D01*
X12604000D01*
X12611000Y507000D01*
X12617000Y499500D01*
G01X12690000Y420000D02*
X12650000D01*
Y510000D01*
X12690000D01*
G01X12674000Y466500D02*
X12650000D01*
G01X12720000Y420000D02*
Y510000D01*
X12745000D01*
X12753000Y505500D01*
X12758000Y499500D01*
X12760000Y487500D01*
X12758000Y475500D01*
X12752000Y468000D01*
X12745000Y463500D01*
X12720000D01*
G01X12745000D02*
X12760000Y420000D01*
G01X12520000Y638000D02*
X12584500D01*
X12598000Y642000D01*
X12607000Y650000D01*
X12610000Y660000D01*
X12607000Y670000D01*
X12598000Y678000D01*
X12584500Y682000D01*
X12520000D01*
G01X12535000Y711000D02*
X12526000Y717000D01*
X12521500Y724000D01*
X12520000Y732000D01*
X12523000Y742000D01*
X12530500Y749000D01*
X12539500Y751000D01*
X12548500Y750000D01*
X12556000Y746000D01*
X12571000Y726000D01*
X12581500Y717000D01*
X12596500Y711000D01*
X12610000Y709000D01*
Y751000D01*
G01Y800000D02*
X12520000D01*
X12538000Y788000D01*
G01X12610000D02*
Y812000D01*
G01X12647500Y682000D02*
X12643000Y676000D01*
X12640000Y669000D01*
Y661000D01*
X12644500Y652000D01*
X12652000Y645000D01*
X12661000Y640000D01*
X12676000Y636000D01*
X12689500Y635000D01*
X12703000Y637000D01*
X12712000Y640000D01*
X12721000Y646000D01*
X12727000Y653000D01*
X12730000Y660000D01*
Y667000D01*
X12727000Y674000D01*
X12722500Y680000D01*
X12716500Y685000D01*
G01X12692500Y711000D02*
X12682000Y718000D01*
X12676000Y724000D01*
X12673000Y732000D01*
X12676000Y739000D01*
X12682000Y744000D01*
X12691000Y748000D01*
X12701500Y749000D01*
X12710500Y748000D01*
X12719500Y744000D01*
X12727000Y738000D01*
X12730000Y731000D01*
X12727000Y723000D01*
X12718000Y716000D01*
X12704500Y712000D01*
X12689500Y711000D01*
X12670000Y713000D01*
X12659500Y716000D01*
X12649000Y721000D01*
X12641500Y728000D01*
X12640000Y735000D01*
X12643000Y742000D01*
X12650500Y747000D01*
G01X12730000Y800000D02*
X12728500Y807000D01*
X12724000Y815000D01*
X12716500Y820000D01*
X12706000Y822000D01*
X12695500Y820000D01*
X12686500Y814000D01*
X12682000Y805000D01*
Y795000D01*
X12679000Y789000D01*
X12671500Y784000D01*
X12661000Y782000D01*
X12650500Y785000D01*
X12643000Y792000D01*
X12640000Y800000D01*
X12643000Y808000D01*
X12650500Y815000D01*
X12661000Y818000D01*
X12671500Y816000D01*
X12679000Y811000D01*
X12682000Y805000D01*
Y795000D01*
X12686500Y786000D01*
X12695500Y780000D01*
X12706000Y778000D01*
X12716500Y780000D01*
X12724000Y785000D01*
X12728500Y793000D01*
X12730000Y800000D01*
G01X12510000Y1668000D02*
X12574500D01*
X12588000Y1672000D01*
X12597000Y1680000D01*
X12600000Y1690000D01*
X12597000Y1700000D01*
X12588000Y1708000D01*
X12574500Y1712000D01*
X12510000D01*
G01X12525000Y1741000D02*
X12516000Y1747000D01*
X12511500Y1754000D01*
X12510000Y1762000D01*
X12513000Y1772000D01*
X12520500Y1779000D01*
X12529500Y1781000D01*
X12538500Y1780000D01*
X12546000Y1776000D01*
X12561000Y1756000D01*
X12571500Y1747000D01*
X12586500Y1741000D01*
X12600000Y1739000D01*
Y1781000D01*
G01X12525000Y1811000D02*
X12516000Y1817000D01*
X12511500Y1824000D01*
X12510000Y1832000D01*
X12513000Y1842000D01*
X12520500Y1849000D01*
X12529500Y1851000D01*
X12538500Y1850000D01*
X12546000Y1846000D01*
X12561000Y1826000D01*
X12571500Y1817000D01*
X12586500Y1811000D01*
X12600000Y1809000D01*
Y1851000D01*
G01X12637500Y1712000D02*
X12633000Y1706000D01*
X12630000Y1699000D01*
Y1691000D01*
X12634500Y1682000D01*
X12642000Y1675000D01*
X12651000Y1670000D01*
X12666000Y1666000D01*
X12679500Y1665000D01*
X12693000Y1667000D01*
X12702000Y1670000D01*
X12711000Y1676000D01*
X12717000Y1683000D01*
X12720000Y1690000D01*
Y1697000D01*
X12717000Y1704000D01*
X12712500Y1710000D01*
X12706500Y1715000D01*
G01X12682500Y1741000D02*
X12672000Y1748000D01*
X12666000Y1754000D01*
X12663000Y1762000D01*
X12666000Y1769000D01*
X12672000Y1774000D01*
X12681000Y1778000D01*
X12691500Y1779000D01*
X12700500Y1778000D01*
X12709500Y1774000D01*
X12717000Y1768000D01*
X12720000Y1761000D01*
X12717000Y1753000D01*
X12708000Y1746000D01*
X12694500Y1742000D01*
X12679500Y1741000D01*
X12660000Y1743000D01*
X12649500Y1746000D01*
X12639000Y1751000D01*
X12631500Y1758000D01*
X12630000Y1765000D01*
X12633000Y1772000D01*
X12640500Y1777000D01*
G01X12709500Y1813000D02*
X12717000Y1820000D01*
X12720000Y1828000D01*
X12717000Y1836000D01*
X12708000Y1843000D01*
X12694500Y1848000D01*
X12681000Y1850000D01*
X12664500D01*
X12651000Y1848000D01*
X12639000Y1843000D01*
X12633000Y1837000D01*
X12630000Y1830000D01*
X12633000Y1822000D01*
X12639000Y1816000D01*
X12648000Y1812000D01*
X12660000Y1810000D01*
X12670500Y1812000D01*
X12681000Y1817000D01*
X12687000Y1823000D01*
X12688500Y1830000D01*
X12685500Y1838000D01*
X12678000Y1844000D01*
X12664500Y1850000D01*
G01X12616000Y2395000D02*
X12636000D01*
Y2368000D01*
X12630000Y2359000D01*
X12623000Y2353000D01*
X12613000Y2350000D01*
X12603000Y2353000D01*
X12596000Y2359000D01*
X12590000Y2368000D01*
X12586000Y2378500D01*
X12584000Y2390500D01*
Y2401000D01*
X12586000Y2410000D01*
X12590000Y2420500D01*
X12596000Y2429500D01*
X12602000Y2435500D01*
X12610000Y2440000D01*
X12617000D01*
X12625000Y2437000D01*
X12631000Y2431000D01*
G01X12657000Y2350000D02*
Y2440000D01*
X12703000Y2350000D01*
Y2440000D01*
G01X12728000Y2350000D02*
Y2440000D01*
X12748000D01*
X12756000Y2435500D01*
X12762000Y2429500D01*
X12767000Y2420500D01*
X12771000Y2410000D01*
X12772000Y2395000D01*
X12771000Y2380000D01*
X12767000Y2369500D01*
X12762000Y2360500D01*
X12756000Y2354500D01*
X12748000Y2350000D01*
X12728000D01*
G01X12610000Y2470000D02*
Y2560000D01*
X12598000Y2542000D01*
G01Y2470000D02*
X12622000D01*
G01X12661000Y2545000D02*
X12667000Y2554000D01*
X12674000Y2558500D01*
X12682000Y2560000D01*
X12692000Y2557000D01*
X12699000Y2549500D01*
X12701000Y2540500D01*
X12700000Y2531500D01*
X12696000Y2524000D01*
X12676000Y2509000D01*
X12667000Y2498500D01*
X12661000Y2483500D01*
X12659000Y2470000D01*
X12701000D01*
G01X12725000Y2560000D02*
X12750000Y2470000D01*
X12775000Y2560000D01*
G01X12510000Y2668000D02*
X12574500D01*
X12588000Y2672000D01*
X12597000Y2680000D01*
X12600000Y2690000D01*
X12597000Y2700000D01*
X12588000Y2708000D01*
X12574500Y2712000D01*
X12510000D01*
G01X12525000Y2741000D02*
X12516000Y2747000D01*
X12511500Y2754000D01*
X12510000Y2762000D01*
X12513000Y2772000D01*
X12520500Y2779000D01*
X12529500Y2781000D01*
X12538500Y2780000D01*
X12546000Y2776000D01*
X12561000Y2756000D01*
X12571500Y2747000D01*
X12586500Y2741000D01*
X12600000Y2739000D01*
Y2781000D01*
G01X12582000Y2808000D02*
X12592500Y2814000D01*
X12598500Y2822000D01*
X12600000Y2831000D01*
X12598500Y2839000D01*
X12591000Y2847000D01*
X12582000Y2852000D01*
X12573000Y2853000D01*
X12562500Y2851000D01*
X12555000Y2844000D01*
X12552000Y2837000D01*
Y2828000D01*
G01Y2837000D02*
X12547500Y2843000D01*
X12540000Y2848000D01*
X12531000Y2850000D01*
X12522000Y2848000D01*
X12514500Y2843000D01*
X12510000Y2834000D01*
X12511500Y2825000D01*
X12517500Y2816000D01*
G01X12637500Y2712000D02*
X12633000Y2706000D01*
X12630000Y2699000D01*
Y2691000D01*
X12634500Y2682000D01*
X12642000Y2675000D01*
X12651000Y2670000D01*
X12666000Y2666000D01*
X12679500Y2665000D01*
X12693000Y2667000D01*
X12702000Y2670000D01*
X12711000Y2676000D01*
X12717000Y2683000D01*
X12720000Y2690000D01*
Y2697000D01*
X12717000Y2704000D01*
X12712500Y2710000D01*
X12706500Y2715000D01*
G01X12720000Y2758000D02*
X12700500Y2760000D01*
X12684000Y2763000D01*
X12669000Y2767000D01*
X12652500Y2772000D01*
X12630000Y2780000D01*
Y2740000D01*
G01X12702000Y2808000D02*
X12712500Y2814000D01*
X12718500Y2822000D01*
X12720000Y2831000D01*
X12718500Y2839000D01*
X12711000Y2847000D01*
X12702000Y2852000D01*
X12693000Y2853000D01*
X12682500Y2851000D01*
X12675000Y2844000D01*
X12672000Y2837000D01*
Y2828000D01*
G01Y2837000D02*
X12667500Y2843000D01*
X12660000Y2848000D01*
X12651000Y2850000D01*
X12642000Y2848000D01*
X12634500Y2843000D01*
X12630000Y2834000D01*
X12631500Y2825000D01*
X12637500Y2816000D01*
G01X13478000Y1590000D02*
Y1680000D01*
X13498000D01*
X13506000Y1675500D01*
X13512000Y1669500D01*
X13517000Y1660500D01*
X13521000Y1650000D01*
X13522000Y1635000D01*
X13521000Y1620000D01*
X13517000Y1609500D01*
X13512000Y1600500D01*
X13506000Y1594500D01*
X13498000Y1590000D01*
X13478000D01*
G01X13592000Y1672500D02*
X13586000Y1677000D01*
X13579000Y1680000D01*
X13571000D01*
X13562000Y1675500D01*
X13555000Y1668000D01*
X13550000Y1659000D01*
X13546000Y1644000D01*
X13545000Y1630500D01*
X13547000Y1617000D01*
X13550000Y1608000D01*
X13556000Y1599000D01*
X13563000Y1593000D01*
X13570000Y1590000D01*
X13577000D01*
X13584000Y1593000D01*
X13590000Y1597500D01*
X13595000Y1603500D01*
G01X13640000Y1590000D02*
Y1680000D01*
X13628000Y1662000D01*
G01Y1590000D02*
X13652000D01*
G01X13470000Y3118000D02*
X13475000Y3109000D01*
X13481000Y3103000D01*
X13488000Y3100000D01*
X13496000Y3103000D01*
X13502000Y3109000D01*
X13508000Y3118000D01*
X13510000Y3130000D01*
Y3190000D01*
G01X13560000Y3100000D02*
Y3190000D01*
X13548000Y3172000D01*
G01Y3100000D02*
X13572000D01*
G01X13608000Y3113500D02*
X13614000Y3106000D01*
X13621000Y3101500D01*
X13630000Y3100000D01*
X13639000Y3103000D01*
X13646000Y3109000D01*
X13651000Y3119500D01*
X13652000Y3131500D01*
X13650000Y3143500D01*
X13645000Y3151000D01*
X13638000Y3157000D01*
X13631000Y3158500D01*
X13624000Y3157000D01*
X13615000Y3151000D01*
X13618000Y3190000D01*
X13645000D01*
G54D38*
X5289990Y1115900D03*
G54D65*
X12752160Y3662400D03*
Y5297710D03*
Y5211400D03*
Y6846710D03*
G54D29*
X2464140Y4890000D03*
X2255860D03*
X2464140Y5080000D03*
X2255860D03*
X10864140Y1280000D03*
X10655860D03*
Y1070000D03*
X10864140D03*
Y2300000D03*
X10655860D03*
Y2090000D03*
X10864140D03*
Y3320000D03*
X10655860D03*
Y3100000D03*
X10864140D03*
X12309230Y7370000D03*
X12100950D03*
G54D56*
X10520000Y330000D03*
X10960000D03*
X11470000D03*
X11910000D03*
X12420000D03*
X12860000D03*
G54D47*
X6813310Y7265000D03*
X9763310D03*
G54D75*
G01X5817800Y675260D02*
Y677800D01*
X3176200D01*
Y68200D01*
X5817800D01*
Y677800D01*
G54D66*
G01X470000Y310000D02*
G03I-160000J0D01*
G01X580000D02*
G03I-270000J0D01*
G01X300000Y0D02*
X13400000D01*
G03X13700000Y300000I0J300000D01*
G01Y7200000D01*
G03X13400000Y7500000I-300000J0D01*
G01X300000D01*
G03X0Y7200000I0J-300000D01*
G01Y300000D01*
G03X300000Y0I300000J0D01*
G01X305000Y4550000D02*
G03I-75000J0D01*
G01Y5612500D02*
G03I-75000J0D01*
G01X580000Y7190000D02*
G03I-270000J0D01*
G01X470000D02*
G03I-160000J0D01*
G01X1005000Y4550000D02*
G03I-75000J0D01*
G01Y5612500D02*
G03I-75000J0D01*
G01X13660000Y310000D02*
G03I-270000J0D01*
G01X13550000D02*
G03I-160000J0D01*
G01Y7190000D02*
G03I-160000J0D01*
G01X13660000D02*
G03I-270000J0D01*
G54D39*
X5289990Y3615890D03*
G54D48*
X7990000Y160000D03*
X8210000D03*
Y320000D03*
X7990000D03*
G54D57*
X10550000Y6559000D03*
Y6813000D03*
Y7067000D03*
Y7321000D03*
X11530000Y6559000D03*
Y7067000D03*
Y6813000D03*
Y7321000D03*
G54D76*
G01X990480Y126500D02*
X926980Y190000D01*
X990480Y253500D01*
Y126500D01*
X972700Y144280D01*
Y228100D01*
X960000Y215400D01*
Y164600D01*
X947300Y177300D01*
Y202700D01*
G01X8793500Y270480D02*
X8730000Y206980D01*
X8666500Y270480D01*
X8793500D01*
X8775720Y252700D01*
X8691900D01*
X8704600Y240000D01*
X8755400D01*
X8742700Y227300D01*
X8717300D01*
G01X9980480Y1706500D02*
X9916980Y1770000D01*
X9980480Y1833500D01*
Y1706500D01*
X9962700Y1724280D01*
Y1808100D01*
X9950000Y1795400D01*
Y1744600D01*
X9937300Y1757300D01*
Y1782700D01*
G01X9980480Y1917800D02*
X9916980Y1981300D01*
X9980480Y2044800D01*
Y1917800D01*
X9962700Y1935580D01*
Y2019400D01*
X9950000Y2006700D01*
Y1955900D01*
X9937300Y1968600D01*
Y1994000D01*
G54D67*
G01X190000Y4250000D02*
X0D01*
Y4280000D01*
X-60000D01*
X-100000Y4320000D01*
Y4780000D01*
X-60000Y4820000D01*
X0D01*
Y4850000D01*
X290000D01*
G01X190000Y5312500D02*
X0D01*
Y5342500D01*
X-60000D01*
X-100000Y5382500D01*
Y5842500D01*
X-60000Y5882500D01*
X0D01*
Y5912500D01*
X290000D01*
G01X740000Y40000D02*
X1340000D01*
Y660000D01*
X890000D01*
X740000Y510000D01*
Y40000D01*
G01X1170000Y4250000D02*
X1340000D01*
Y4850000D01*
X980000D01*
G01X1170000Y5312500D02*
X1340000D01*
Y5912500D01*
X980000D01*
G01X1090000Y6420000D02*
X1660000D01*
Y6160000D01*
X1090000D01*
G01X3030000Y1720000D02*
X1420000D01*
Y30000D01*
X3030000D01*
Y1720000D01*
G01X4240000Y2460000D02*
Y1870000D01*
X1700000D01*
Y2460000D01*
G01X1900000Y2540000D02*
Y2640000D01*
G01X1850000Y2590000D02*
X1950000D01*
G01X1700000Y2720000D02*
Y3310000D01*
X4240000D01*
Y2720000D01*
G01X1420000Y4710000D02*
Y4310000D01*
X2020000D01*
Y4710000D01*
G01X3210000Y4810000D02*
Y4770000D01*
X3250000D01*
G01Y5190000D02*
X3210000D01*
Y5150000D01*
G01X4000000Y2590000D02*
X4100000D01*
G01X3590000Y4770000D02*
X3630000D01*
Y4810000D01*
G01Y5150000D02*
Y5190000D01*
X3590000D01*
G01X5020000Y5790000D02*
X5680000D01*
Y4420000D01*
X5010000D01*
G01X6748310Y7090000D02*
Y6950000D01*
X7028310D01*
G01X9828310Y7440000D02*
Y7460000D01*
X6748310D01*
Y7440000D01*
G01X9070000Y250000D02*
Y310000D01*
G01Y50000D02*
Y-80000D01*
X9790000D01*
Y50000D01*
G01X9200000Y470000D02*
X9260000D01*
G01X9600000D02*
X9660000D01*
G01X9828310Y7090000D02*
Y6950000D01*
X9548310D01*
G01X9790000Y250000D02*
Y310000D01*
G54D58*
X11370000Y610000D03*
Y1330000D03*
Y1640000D03*
Y2360000D03*
Y2670000D03*
Y3390000D03*
G54D49*
X8197500Y730000D03*
X8132500D03*
X8067500D03*
X8002500D03*
X7937500D03*
Y1510000D03*
X8002500D03*
X8067500D03*
X8132500D03*
X8197500D03*
X8717500Y730000D03*
X8652500D03*
X8587500D03*
X8522500D03*
X8457500D03*
X8392500D03*
X8327500D03*
X8262500D03*
Y1510000D03*
X8327500D03*
X8392500D03*
X8457500D03*
X8522500D03*
X8587500D03*
X8652500D03*
X8717500D03*
X8782500Y730000D03*
Y1510000D03*
G54D77*
G01X5821010Y738910D02*
Y4007890D01*
X33010D01*
Y738910D01*
X5819990D01*
G54D68*
G01X2478820Y1057060D02*
X2059720D01*
X1902240Y899580D01*
Y307760D01*
X1904780Y305220D01*
X2496600D01*
Y1057060D01*
X2478820D01*
G54D59*
X11590780Y3813500D03*
Y3750000D03*
Y3686500D03*
X11809220D03*
Y3750000D03*
Y3813500D03*
X11590780Y5070000D03*
Y5006500D03*
X11809220D03*
Y5070000D03*
X11590780Y5133500D03*
X11809220D03*
Y5876500D03*
Y5940000D03*
Y6003500D03*
X11590780D03*
Y5940000D03*
Y5876500D03*
X11809220Y5616500D03*
Y5680000D03*
Y5743500D03*
X11590780D03*
Y5680000D03*
Y5616500D03*
G54D69*
G01X270000Y2070000D02*
G03I-50000J0D01*
G01Y2870000D02*
G03I-50000J0D01*
G01X1099700Y306500D02*
X820300D01*
Y433500D01*
X1099700D01*
G01X782200Y101100D02*
X1137800D01*
Y278900D01*
X782200D01*
Y101100D01*
G01X1099700Y433500D02*
Y306500D01*
G01X2216500Y4363500D02*
Y4084100D01*
G01X2343500D02*
Y4363500D01*
G01X2216500Y4366040D02*
G02X2343500I63500J-73330D01*
G01X2216500Y4084100D02*
G03X2343500I63500J71651D01*
G01Y4430300D02*
Y4709700D01*
G01X2216500D02*
Y4430300D01*
G01X2343500Y4427760D02*
G02X2216500I-63500J73330D01*
G01X2343500Y4709700D02*
G03X2216500I-63500J-71651D01*
G01X2174580Y4971280D02*
G03Y4808720I106888J-81280D01*
G01D02*
X2545420D01*
G01Y4971280D02*
X2174580D01*
G01Y5161280D02*
G03Y4998720I106888J-81280D01*
G01D02*
X2545420D01*
G01X2216500Y5573500D02*
Y5294100D01*
G01X2343500D02*
Y5573500D01*
G01X2216500Y5576040D02*
G02X2343500I63500J-73330D01*
G01X2216500Y5294100D02*
G03X2343500I63500J71651D01*
G01X2545420Y5161280D02*
X2174580D01*
G01X2343500Y5636500D02*
Y5915900D01*
G01X2216500D02*
Y5636500D01*
G01X2343500Y5633960D02*
G02X2216500I-63500J73330D01*
G01X2343500Y5915900D02*
G03X2216500I-63500J-71651D01*
G01X2903500Y4685900D02*
Y4406500D01*
X2776500D01*
Y4685900D01*
G01X2903500Y4104100D02*
X2776500D01*
G01D02*
Y4383500D01*
X2903500D01*
Y4104100D01*
G01X3229700Y4383500D02*
X2950300D01*
G01Y4256500D02*
X3229700D01*
G01X2950300Y4383500D02*
G03Y4256500I71651J-63500D01*
G01X3229700Y4533500D02*
X2950300D01*
G01Y4406500D02*
X3229700D01*
G01X2950300Y4533500D02*
G03Y4406500I71651J-63500D01*
G01X2776500Y4685900D02*
X2903500D01*
G01X2620300Y5036500D02*
X2899700D01*
G01X2902240Y5163500D02*
G02Y5036500I-73330J-63500D01*
G01X2620300Y5163500D02*
G03Y5036500I71651J-63500D01*
G01X2899700Y4933500D02*
X2620300D01*
G01Y4806500D02*
X2899700D01*
G01X2902240Y4933500D02*
G02Y4806500I-73330J-63500D01*
G01X2620300Y4933500D02*
G03Y4806500I71651J-63500D01*
G01X2547960Y4971280D02*
G02Y4808720I-106888J-81280D01*
G01Y5161280D02*
G02Y4998720I-106888J-81280D01*
G01X2903500Y5589700D02*
Y5310300D01*
X2776500D01*
Y5589700D01*
G01X2899700Y5163500D02*
X2620300D01*
G01X2950300Y5466500D02*
X3229700D01*
G01X2950300Y5593500D02*
G03Y5466500I71651J-63500D01*
G01X2903500Y5620300D02*
X2776500D01*
G01D02*
Y5899700D01*
X2903500D01*
Y5620300D01*
G01X2776500Y5589700D02*
X2903500D01*
G01X3229700Y5743500D02*
X2950300D01*
G01Y5616500D02*
X3229700D01*
G01X2950300Y5743500D02*
G03Y5616500I71651J-63500D01*
G01X3229700Y5593500D02*
X2950300D01*
G01X3470300Y836500D02*
X3749700D01*
G01X3467760D02*
G02Y963500I73330J63500D01*
G01X3183800Y1361070D02*
G03Y1411870I0J25400D01*
G01D02*
Y1437270D01*
X3336200D01*
Y1335670D01*
X3183800D01*
Y1361070D01*
G01X3158400Y1221370D02*
Y1551570D01*
X3361600D01*
Y1221370D01*
X3158400D01*
G01X3470300Y1293750D02*
Y1420750D01*
G01D02*
X3749700D01*
Y1293750D01*
X3470300D01*
G01Y1136500D02*
X3749700D01*
G01Y1263500D02*
X3470300D01*
G01X3467760Y1136500D02*
G02Y1263500I73330J63500D01*
G01X3749700Y963500D02*
X3470300D01*
G01X3749700Y1113500D02*
X3470300D01*
G01Y986500D02*
X3749700D01*
G01X3470300Y1113500D02*
G03Y986500I71651J-63500D01*
G01Y1596500D02*
Y1723500D01*
G01D02*
X3749700D01*
Y1596500D01*
X3470300D01*
G01Y1446500D02*
Y1573500D01*
G01D02*
X3749700D01*
Y1446500D01*
X3470300D01*
G01X3170300Y4104100D02*
Y4231100D01*
G01D02*
X3449700D01*
Y4104100D01*
X3170300D01*
G01X3322700Y4549700D02*
Y4270300D01*
G01X3449700D02*
Y4549700D01*
G01X3322700Y4270300D02*
G03X3449700I63500J71651D01*
G01X3232240Y4383500D02*
G02Y4256500I-73330J-63500D01*
G01Y4533500D02*
G02Y4406500I-73330J-63500D01*
G01X3322700Y4552240D02*
G02X3449700I63500J-73330D01*
G01X3426500Y5709700D02*
Y5430300D01*
G01X3553500Y5427760D02*
G02X3426500I-63500J73330D01*
G01X3232240Y5593500D02*
G02Y5466500I-73330J-63500D01*
G01X3553500Y5709700D02*
G03X3426500I-63500J-71651D01*
G01X3232240Y5743500D02*
G02Y5616500I-73330J-63500D01*
G01X3749700Y836500D02*
G03Y963500I-71651J63500D01*
G01Y1136500D02*
G03Y1263500I-71651J63500D01*
G01X3752240Y1113500D02*
G02Y986500I-73330J-63500D01*
G01X3920300Y4446500D02*
Y4573500D01*
G01D02*
X4199700D01*
Y4446500D01*
X3920300D01*
G01X4199700Y4596500D02*
X3920300D01*
Y4723500D01*
X4199700D01*
G01Y4746500D02*
X3920300D01*
Y4873500D01*
X4199700D01*
G01X3920300Y4896500D02*
X4199700D01*
G01Y5023500D02*
X3920300D01*
G01X3917760Y4896500D02*
G02Y5023500I73330J63500D01*
G01X3553500Y5430300D02*
Y5709700D01*
G01X3703500Y5430300D02*
Y5709700D01*
G01X3576500D02*
Y5430300D01*
G01X3703500Y5427760D02*
G02X3576500I-63500J73330D01*
G01X3883500Y5430300D02*
Y5709700D01*
G01X3756500D02*
Y5430300D01*
G01X3883500Y5427760D02*
G02X3756500I-63500J73330D01*
G01X3906500Y5709700D02*
Y5430300D01*
G01X4033500Y5427760D02*
G02X3906500I-63500J73330D01*
G01X3920300Y5066500D02*
X4199700D01*
G01Y5193500D02*
X3920300D01*
G01X3917760Y5066500D02*
G02Y5193500I73330J63500D01*
G01X3703500Y5709700D02*
G03X3576500I-63500J-71651D01*
G01X3883500D02*
G03X3756500I-63500J-71651D01*
G01X4033500D02*
G03X3906500I-63500J-71651D01*
G01X4199700Y4723500D02*
Y4596500D01*
G01Y4873500D02*
Y4746500D01*
G01Y4896500D02*
G03Y5023500I-71651J63500D01*
G01X4183500Y5709700D02*
Y5430300D01*
X4056500D01*
Y5709700D01*
G01X4033500Y5430300D02*
Y5709700D01*
G01X4199700Y5066500D02*
G03Y5193500I-71651J63500D01*
G01X4056500Y5709700D02*
X4183500D01*
G01X7666500Y379700D02*
Y100300D01*
G01X7793500Y97760D02*
G02X7666500I-63500J73330D01*
G01X7793500Y379700D02*
G03X7666500I-63500J-71651D01*
G01X7793500Y100300D02*
Y379700D01*
G01X8396500D02*
Y100300D01*
G01X8523500D02*
Y379700D01*
G01X8396500Y100300D02*
G03X8523500I63500J71651D01*
G01X8818900Y62200D02*
Y417800D01*
X8641100D01*
Y62200D01*
X8818900D01*
G01X8396500Y382240D02*
G02X8523500I63500J-73330D01*
G01X9053500Y1069700D02*
Y790300D01*
X8926500D01*
Y1069700D01*
G01X9203500D02*
Y790300D01*
X9076500D01*
Y1069700D01*
G01X8926500D02*
X9053500D01*
G01X9076500D02*
X9203500D01*
G01X9288400Y764900D02*
Y1095100D01*
X9491600D01*
Y764900D01*
X9288400D01*
G01X9793500Y790300D02*
X9666500D01*
G01D02*
Y1069700D01*
X9793500D01*
Y790300D01*
G01X9313800Y904600D02*
G03Y955400I0J25400D01*
G01D02*
Y980800D01*
X9466200D01*
Y879200D01*
X9313800D01*
Y904600D01*
G01X9772200Y1681100D02*
X10127800D01*
Y1858900D01*
X9772200D01*
Y1681100D01*
G01Y1892400D02*
X10127800D01*
Y2070200D01*
X9772200D01*
Y1892400D01*
G01X11130000Y20000D02*
X10910000D01*
Y-90000D01*
X10570000D01*
Y20000D01*
X10350000D01*
G01X10610000Y300000D02*
X10870000D01*
G01X10340000Y240000D02*
Y300000D01*
X10430000D01*
G01X10574580Y1361280D02*
G03Y1198720I106888J-81280D01*
G01D02*
X10945420D01*
G01Y1361280D02*
X10574580D01*
G01X10572040Y988720D02*
G02Y1151280I106888J81280D01*
G01X10945420D02*
X10574580D01*
G01Y988720D02*
X10945420D01*
G01X10574580Y2381280D02*
G03Y2218720I106888J-81280D01*
G01D02*
X10945420D01*
G01Y2381280D02*
X10574580D01*
G01X10572040Y2008720D02*
G02Y2171280I106888J81280D01*
G01X10945420D02*
X10574580D01*
G01Y2008720D02*
X10945420D01*
G01X10574580Y3401280D02*
G03Y3238720I106888J-81280D01*
G01D02*
X10945420D01*
G01Y3401280D02*
X10574580D01*
G01X10572040Y3018720D02*
G02Y3181280I106888J81280D01*
G01X10945420D02*
X10574580D01*
G01Y3018720D02*
X10945420D01*
G01X10780000Y6538320D02*
X10858740D01*
X10802310Y6574340D01*
Y6525660D01*
G01X10795750Y6831420D02*
X10786560Y6825580D01*
X10781310Y6817790D01*
X10780000Y6809030D01*
X10781310Y6801240D01*
X10787870Y6793450D01*
X10795750Y6788580D01*
X10803620Y6787610D01*
X10812810Y6789550D01*
X10819370Y6796370D01*
X10822000Y6803180D01*
Y6811950D01*
G01Y6803180D02*
X10825930Y6797340D01*
X10832490Y6792470D01*
X10840370Y6790530D01*
X10848240Y6792470D01*
X10854800Y6797340D01*
X10858740Y6806110D01*
X10857430Y6814870D01*
X10852180Y6823630D01*
G01X10845620Y7078500D02*
X10853490Y7072660D01*
X10857430Y7065840D01*
X10858740Y7058050D01*
X10856120Y7048320D01*
X10849550Y7041500D01*
X10841680Y7039550D01*
X10833800Y7040530D01*
X10827240Y7044420D01*
X10814120Y7063890D01*
X10804930Y7072660D01*
X10791810Y7078500D01*
X10780000Y7080450D01*
Y7039550D01*
G01Y7310000D02*
X10858740D01*
X10842990Y7321680D01*
G01X10780000D02*
Y7298320D01*
G01X11050000Y300000D02*
X11140000D01*
Y240000D01*
G01X12080000Y20000D02*
X11860000D01*
Y-90000D01*
X11520000D01*
Y20000D01*
X11300000D01*
G01X11290000Y240000D02*
Y300000D01*
X11380000D01*
G01X10947960Y1361280D02*
G02Y1198720I-106888J-81280D01*
G01X10945420Y988720D02*
G03Y1151280I-106888J81280D01*
G01X10947960Y2381280D02*
G02Y2218720I-106888J-81280D01*
G01X10945420Y2008720D02*
G03Y2171280I-106888J81280D01*
G01X10947960Y3401280D02*
G02Y3238720I-106888J-81280D01*
G01X10945420Y3018720D02*
G03Y3181280I-106888J81280D01*
G01X11150300Y5516500D02*
Y5643500D01*
G01D02*
X11429700D01*
Y5516500D01*
X11150300D01*
G01Y5670000D02*
Y5797000D01*
G01D02*
X11429700D01*
Y5670000D01*
X11150300D01*
G01Y5816500D02*
Y5943500D01*
G01D02*
X11429700D01*
Y5816500D01*
X11150300D01*
G01Y5966500D02*
Y6093500D01*
G01D02*
X11429700D01*
Y5966500D01*
X11150300D01*
G01X11230000Y7359370D02*
X11231310Y7367160D01*
X11236560Y7373970D01*
X11244430Y7379820D01*
X11253620Y7383710D01*
X11264120Y7385660D01*
X11274620D01*
X11285120Y7383710D01*
X11294310Y7379820D01*
X11302180Y7373970D01*
X11307430Y7367160D01*
X11308740Y7359370D01*
X11307430Y7351580D01*
X11302180Y7344770D01*
X11294310Y7338920D01*
X11285120Y7335030D01*
X11274620Y7333080D01*
X11264120D01*
X11253620Y7335030D01*
X11244430Y7338920D01*
X11236560Y7344770D01*
X11231310Y7351580D01*
X11230000Y7359370D01*
G01Y7303020D02*
X11308740D01*
X11230000Y7258240D01*
X11308740D01*
G01X11560000Y300000D02*
X11820000D01*
G01X11756500Y959700D02*
Y680300D01*
G01X11883500Y677760D02*
G02X11756500I-63500J73330D01*
G01X11883500Y959700D02*
G03X11756500I-63500J-71651D01*
G01Y1979700D02*
Y1700300D01*
G01X11883500Y1697760D02*
G02X11756500I-63500J73330D01*
G01X11883500Y1979700D02*
G03X11756500I-63500J-71651D01*
G01Y2979700D02*
Y2700300D01*
G01X11883500Y2697760D02*
G02X11756500I-63500J73330D01*
G01X11883500Y2979700D02*
G03X11756500I-63500J-71651D01*
G01X11674600Y3826200D02*
G03X11725400I25400J0D01*
G01D02*
X11750800D01*
Y3673800D01*
X11649200D01*
Y3826200D01*
X11674600D01*
G01X11534900Y3851600D02*
X11865100D01*
Y3648400D01*
X11534900D01*
Y3851600D01*
G01X11725400Y5146200D02*
X11750800D01*
Y4993800D01*
X11649200D01*
Y5146200D01*
X11674600D01*
G01X11534900Y5171600D02*
X11865100D01*
Y4968400D01*
X11534900D01*
Y5171600D01*
G01X11865100Y5578400D02*
X11534900D01*
Y5781600D01*
X11865100D01*
Y5578400D01*
G01X11674600Y5146200D02*
G03X11725400I25400J0D01*
G01Y5863800D02*
G03X11674600I-25400J0D01*
G01D02*
X11649200D01*
Y6016200D01*
X11750800D01*
Y5863800D01*
X11725400D01*
G01X11865100Y5838400D02*
X11534900D01*
Y6041600D01*
X11865100D01*
Y5838400D01*
G01X11725400Y5603800D02*
G03X11674600I-25400J0D01*
G01D02*
X11649200D01*
Y5756200D01*
X11750800D01*
Y5603800D01*
X11725400D01*
G01X12000000Y300000D02*
X12090000D01*
Y240000D01*
G01X13030000Y20000D02*
X12810000D01*
Y-90000D01*
X12470000D01*
Y20000D01*
X12250000D01*
G01X12240000Y240000D02*
Y300000D01*
X12330000D01*
G01X11883500Y680300D02*
Y959700D01*
G01X12491280Y632040D02*
G02X12328720I-81280J106888D01*
G01Y1005420D02*
Y634580D01*
G01X12472100Y1066500D02*
X12192700D01*
Y1193500D01*
X12472100D01*
G01Y1216500D02*
X12192700D01*
Y1343500D01*
X12472100D01*
G01X12169700Y1193500D02*
Y1066500D01*
G01D02*
X11890300D01*
Y1193500D01*
X12169700D01*
G01X11890300Y1216500D02*
Y1343500D01*
G01D02*
X12169700D01*
Y1216500D01*
X11890300D01*
G01X12491280Y1005420D02*
G03X12328720I-81280J-106888D01*
G01X11883500Y1700300D02*
Y1979700D01*
G01X12471280Y1652040D02*
G02X12308720I-81280J106888D01*
G01Y2025420D02*
Y1654580D01*
G01X12472100Y2086500D02*
X12192700D01*
Y2213500D01*
X12472100D01*
G01Y2236500D02*
X12192700D01*
Y2363500D01*
X12472100D01*
G01X12169700Y2213500D02*
Y2086500D01*
G01D02*
X11890300D01*
Y2213500D01*
X12169700D01*
G01X12471280Y2025420D02*
G03X12308720I-81280J-106888D01*
G01X11883500Y2700300D02*
Y2979700D01*
G01X12481280Y2652040D02*
G02X12318720I-81280J106888D01*
G01Y3025420D02*
Y2654580D01*
G01X12472100Y3086500D02*
X12192700D01*
Y3213500D01*
X12472100D01*
G01Y3236500D02*
X12192700D01*
Y3363500D01*
X12472100D01*
G01X12169700D02*
Y3236500D01*
G01D02*
X11890300D01*
Y3363500D01*
X12169700D01*
G01X11890300Y3086500D02*
Y3213500D01*
G01D02*
X12169700D01*
Y3086500D01*
X11890300D01*
G01X12481280Y3025420D02*
G03X12318720I-81280J-106888D01*
G01X12019670Y7451280D02*
G03Y7288720I106888J-81280D01*
G01D02*
X12390510D01*
G01Y7451280D02*
X12019670D01*
G01X12510000Y300000D02*
X12770000D01*
G01X12491280Y634580D02*
Y1005420D01*
G01X12472100Y1193500D02*
Y1066500D01*
G01Y1343500D02*
Y1216500D01*
G01X12471280Y1654580D02*
Y2025420D01*
G01X12472100Y2213500D02*
Y2086500D01*
G01Y2363500D02*
Y2236500D01*
G01X12481280Y2654580D02*
Y3025420D01*
G01X12472100Y3213500D02*
Y3086500D01*
G01Y3363500D02*
Y3236500D01*
G01X12393050Y7451280D02*
G02Y7288720I-106888J-81280D01*
G01X12950000Y300000D02*
X13040000D01*
Y240000D01*
M02*
