G04 ================== begin FILE IDENTIFICATION RECORD ==================*
G04 Layout Name:  H:/MBEDBoard/MYD-Y6ULX_TEST_V10A/PCB/MYD-Y6ULX_TEST_V10A.brd*
G04 Film Name:    BOTTOM*
G04 File Format:  Gerber RS274X*
G04 File Origin:  Cadence Allegro 17.2-S045*
G04 Origin Date:  Sat Dec 29 10:55:41 2018*
G04 *
G04 Layer:  BOARD GEOMETRY/OUTLINE*
G04 Layer:  ETCH/BOTTOM*
G04 Layer:  PIN/BOTTOM*
G04 Layer:  VIA CLASS/BOTTOM*
G04 *
G04 Offset:    (0.0000 0.0000)*
G04 Mirror:    No*
G04 Mode:      Positive*
G04 Rotation:  0*
G04 FullContactRelief:  No*
G04 UndefLineWidth:     0.1524*
G04 ================== end FILE IDENTIFICATION RECORD ====================*
%FSLAX55Y55*MOMM*%
%IR0*IPPOS*OFA0.00000B0.00000*MIA0B0*SFA1.00000B1.00000*%
%ADD17R,.3X1.5*%
%ADD20R,1.5X.6*%
%ADD22R,.65X1.06*%
%ADD25R,1.016X.6604*%
%ADD28R,.6604X1.016*%
%ADD11C,.6096*%
%ADD47O,4.X2.*%
%ADD46O,2.X4.*%
%ADD13R,3.X3.*%
%ADD43R,5.X5.*%
%ADD44R,1.5X1.4*%
%ADD42R,2.4X2.4*%
%ADD41R,2.5X6.*%
%ADD35R,1.6X2.7*%
%ADD33C,1.3*%
%ADD37R,1.27X1.27*%
%ADD32C,3.3*%
%ADD23R,1.27X1.27*%
%ADD48C,2.7*%
%ADD30C,1.6002*%
%ADD36C,1.27*%
%ADD34R,1.3X1.3*%
%ADD38C,1.65*%
%ADD19C,1.524*%
%ADD26R,2.54X3.048*%
%ADD40R,.85X.28*%
%ADD15C,6.35*%
%ADD39R,.28X.85*%
%ADD27C,3.048*%
%ADD18C,1.905*%
%ADD31C,1.1176*%
%ADD21R,1.524X1.524*%
%ADD16C,1.778*%
%ADD29R,.9144X.9144*%
%ADD45C,1.6993*%
%ADD14R,.9144X.9144*%
%ADD24R,1.1938X1.1938*%
%ADD12R,1.778X1.778*%
%ADD10C,5.9944*%
%ADD49C,.1*%
%ADD50C,.7*%
%ADD51C,.2032*%
%ADD52C,.17*%
%ADD53C,.127*%
%ADD54C,.254*%
%ADD55C,.7112*%
%ADD56C,.1524*%
%ADD57C,.508*%
%ADD58C,.762*%
%ADD59C,2.*%
%ADD71C,.6328*%
%ADD60C,1.0202*%
%ADD73C,1.2004*%
%ADD63C,1.6004*%
%ADD64C,2.5404*%
%ADD68C,1.4146*%
%ADD62C,7.0108*%
%ADD67C,2.3626*%
%ADD61C,1.0774*%
%ADD70C,2.1848*%
%ADD65C,2.4388*%
%ADD66C,7.2648*%
%ADD69C,2.8198*%
%ADD72O,2.9148X4.9148*%
G75*
%LPD*%
G75*
G36*
G01X2475280Y4004260D02*
X2936150D01*
G02X2950520Y3969570I1J-20321D01*
G01X2486850Y3505900D01*
X852520D01*
G02X832380Y3528940I-3J20320D01*
G03X835540Y3575900I-347380J46962D01*
G03X485000Y3225360I-350540J0D01*
G03X578370Y3238020I13J350542D01*
G02X604100Y3218440I5412J-19585D01*
G01Y1616850D01*
X974100Y1246850D01*
Y1036850D01*
X1033740Y977200D01*
X1034060Y973510D01*
G03X1110000Y903780I75940J6487D01*
G03X1186220Y980000I0J76220D01*
G03X1164830Y1032940I-76208J0D01*
G02Y1047060I7311J7060D01*
G03X1186220Y1100000I-54818J52940D01*
G03X1165900Y1151810I-76210J0D01*
G01Y1293150D01*
X772460Y1686590D01*
Y2903500D01*
G02X792190Y2923810I20319J-1D01*
G03X794570Y2923920I-2329J76184D01*
G02X804790Y2910490I606J-10143D01*
G03X802340Y2895720I43296J-14770D01*
G01Y2804280D01*
G03X812940Y2775000I45740J0D01*
G03X802340Y2745720I35140J-29280D01*
G01Y2654280D01*
G03X824730Y2614950I45738J0D01*
G01X893060Y2574370D01*
X938080Y2529360D01*
X945530Y2501980D01*
X914410Y2470850D01*
X841950Y2461050D01*
G03X802340Y2415720I6133J-45330D01*
G01Y2324280D01*
G03X812940Y2295000I45740J0D01*
G03X802340Y2265720I35140J-29280D01*
G01Y2174280D01*
G03X812940Y2145000I45740J0D01*
G03X802340Y2115720I35140J-29280D01*
G01Y2024280D01*
G03X829520Y1982480I45732J0D01*
G01X900820Y1950810D01*
Y1707420D01*
X900220Y1705750D01*
G03X895740Y1680000I71741J-25746D01*
G03X1048180I76220J0D01*
G03X1043700Y1705750I-76221J4D01*
G01X1043100Y1707420D01*
Y1978540D01*
X1091920D01*
G03X1137660Y2024280I0J45740D01*
G01Y2051030D01*
G02X1163460Y2070600I20320J3D01*
G03X1184000Y2067780I20540J73393D01*
G03X1260220Y2144000I0J76220D01*
G03X1243640Y2191460I-76217J0D01*
G02X1243870Y2204400I7948J6331D01*
G03X1262220Y2254000I-57859J49600D01*
G03X1257400Y2280670I-76219J-4D01*
G02X1276440Y2308100I19036J7110D01*
G01X1427150D01*
X1505900Y2386850D01*
Y2658190D01*
G03X1526220Y2710000I-55890J51810D01*
G03X1373780I-76220J0D01*
G03X1394100Y2658190I76210J0D01*
G01Y2433150D01*
X1380850Y2419900D01*
X1274440D01*
G02X1255400Y2447330I-4J20320D01*
G03X1260220Y2474000I-71399J26674D01*
G03X1184000Y2550220I-76220J0D01*
G03X1158250Y2545740I-4J-76221D01*
G01X1156580Y2545140D01*
X1137660D01*
Y2565720D01*
G03X1125860Y2596380I-45732J0D01*
G02Y2623620I15082J13620D01*
G03X1137660Y2654280I-33932J30660D01*
G01Y2712410D01*
X1158070Y2732820D01*
X1163900Y2731050D01*
G03X1186000Y2727780I22086J72952D01*
G03X1262220Y2804000I0J76220D01*
G03X1243870Y2853600I-76209J0D01*
G02X1243640Y2866540I7718J6609D01*
G03Y2961460I-59637J47460D01*
G02X1243870Y2974400I7948J6331D01*
G03X1262220Y3024000I-57859J49600D01*
G03X1186000Y3100220I-76220J0D01*
G03X1152250Y3092340I0J-76216D01*
G02X1137600Y3101960I-4503J9108D01*
G03X1137660Y3104280I-45679J2342D01*
G01Y3184100D01*
X2354440D01*
G02X2368800Y3149410I-4J-20319D01*
G01X1880530Y2661140D01*
X1835420D01*
X1804820Y2691730D01*
X1804770Y2691780D01*
G03X1700000Y2736070I-104770J-101774D01*
G03Y2443930I0J-146070D01*
G03X1727170Y2446480I-4J146070D01*
G02X1745320Y2412150I3781J-19964D01*
G01X1359100Y2025920D01*
Y730740D01*
X1200000D01*
G03X1170550Y720000I0J-45747D01*
G01X1120000D01*
Y510000D01*
X1161700D01*
G03X1200000Y489260I38300J24994D01*
G01X1380000D01*
G03X1390000Y490370I-15J45738D01*
G03X1400000Y489260I10015J44628D01*
G01X1430000D01*
G03X1440000Y490370I-15J45738D01*
G03X1450000Y489260I10015J44628D01*
G01X1480000D01*
G03X1490000Y490370I-15J45738D01*
G03X1500000Y489260I10015J44628D01*
G01X1530000D01*
G03X1540000Y490370I-15J45738D01*
G03X1550000Y489260I10015J44628D01*
G01X1580000D01*
G03X1590000Y490370I-15J45738D01*
G03X1600000Y489260I10015J44628D01*
G01X1630000D01*
G03X1658640Y499340I0J45727D01*
G02X1671360I6360J-7927D01*
G03X1700000Y489260I28640J35647D01*
G01X1730000D01*
G03X1758640Y499340I0J45727D01*
G02X1771360I6360J-7927D01*
G03X1800000Y489260I28640J35647D01*
G01X1830000D01*
G03X1840000Y490370I-15J45738D01*
G03X1850000Y489260I10015J44628D01*
G01X1880000D01*
G03X1908640Y499340I0J45727D01*
G02X1921360I6360J-7927D01*
G03X1950000Y489260I28640J35647D01*
G01X1980000D01*
G03X2008640Y499340I0J45727D01*
G02X2021360I6360J-7927D01*
G03X2050000Y489260I28640J35647D01*
G01X2080000D01*
G03X2090000Y490370I-15J45738D01*
G03X2100000Y489260I10015J44628D01*
G01X2130000D01*
G03X2140000Y490370I-15J45738D01*
G03X2150000Y489260I10015J44628D01*
G01X2180000D01*
G03X2208640Y499340I0J45727D01*
G02X2221360I6360J-7927D01*
G03X2250000Y489260I28640J35647D01*
G01X2280000D01*
G03X2290000Y490370I-15J45738D01*
G03X2299130Y489270I10008J44630D01*
G02X2309100Y479110I-190J-10159D01*
G01Y261850D01*
X2406850Y164100D01*
X2593150D01*
X2685900Y256850D01*
Y367530D01*
X2693150Y374780D01*
X3146170D01*
X3226980Y293970D01*
Y246000D01*
G03X3354000Y118980I127020J0D01*
G03X3463490Y181600I0J127031D01*
G02X3498510I17510J-10299D01*
G03X3717490I109490J64411D01*
G02X3752510I17510J-10299D01*
G03X3971490I109490J64411D01*
G02X4006510I17510J-10299D01*
G03X4225490I109490J64411D01*
G02X4260510I17510J-10299D01*
G03X4479490I109490J64411D01*
G02X4514510I17510J-10299D01*
G03X4733490I109490J64411D01*
G02X4768510I17510J-10299D01*
G03X4987490I109490J64411D01*
G02X5022510I17510J-10299D01*
G03X5241490I109490J64411D01*
G02X5276510I17510J-10299D01*
G03X5495490I109490J64411D01*
G02X5530510I17510J-10299D01*
G03X5640000Y118980I109490J64411D01*
G03X5766900Y240460I0J127021D01*
G02X5801570Y253940I20300J-885D01*
G01X5990820Y64690D01*
G02X5976460Y30000I-14365J-14371D01*
G01X660000D01*
Y450000D01*
X460000Y650000D01*
X30000D01*
Y4004260D01*
X1238860D01*
Y3967420D01*
X1238260Y3965750D01*
G03X1233780Y3940000I71741J-25746D01*
G03X1310000Y3863780I76220J0D01*
G03X1353740Y3877580I0J76218D01*
G01X2001140D01*
Y4004260D01*
X2333000D01*
Y3967420D01*
X2332400Y3965750D01*
G03X2327920Y3940000I71741J-25746D01*
G03X2480360I76220J0D01*
G03X2475880Y3965750I-76221J4D01*
G01X2475280Y3967420D01*
Y4004260D01*
G37*
G36*
G01X40000Y6090000D02*
X381860D01*
Y5627530D01*
X620530Y5388860D01*
X1136850D01*
X1149210Y5378800D01*
G03X1155460Y5374520I28882J35472D01*
G01X1223680Y5335710D01*
X1238860Y5320530D01*
Y4050000D01*
X40000D01*
Y6090000D01*
G37*
G36*
G01X30000Y6840000D02*
X464100D01*
Y6439880D01*
G02X453880Y6429720I-10159J-1D01*
G01X453000D01*
G03X360000Y6394270I0J-139714D01*
G02X328460Y6400050I-13520J15168D01*
G03X287900Y6424640I-40560J-21156D01*
G01X110100D01*
G03X64360Y6378900I0J-45740D01*
G01Y6201100D01*
G03X76640Y6169910I45750J0D01*
G02X61780Y6135740I-14866J-13851D01*
G01X30000D01*
Y6840000D01*
G37*
G36*
G01X964920Y2010480D02*
X939520Y2115720D01*
X889930Y2075040D01*
X848080Y2024280D01*
X935730Y1985360D01*
G03X964920Y2010480I3786J25120D01*
G37*
G36*
G01X883490Y2159240D02*
X848080Y2115720D01*
X893800Y2063650D01*
X939520Y2115720D01*
X904110Y2159240D01*
G03X883490I-10310J-23210D01*
G37*
G36*
G01X904110Y2130760D02*
X939520Y2174280D01*
X893800Y2226350D01*
X848080Y2174280D01*
X883490Y2130760D01*
G03X904110I10310J23210D01*
G37*
G36*
G01X883490Y2309240D02*
X848080Y2265720D01*
X893800Y2213650D01*
X939520Y2265720D01*
X904110Y2309240D01*
G03X883490I-10310J-23210D01*
G37*
G36*
G01X941920Y2428420D02*
X848080Y2415720D01*
X891500Y2367810D01*
X939520Y2324280D01*
X954620Y2415390D01*
G03X941920Y2428420I-12700J326D01*
G37*
G36*
G01X904110Y2280760D02*
X939520Y2324280D01*
X893800Y2376350D01*
X848080Y2324280D01*
X883490Y2280760D01*
G03X904110I10310J23210D01*
G37*
G36*
G01X804560Y2989690D02*
X848080Y2954280D01*
X900150Y3000000D01*
X848080Y3045720D01*
X804560Y3010310D01*
G03Y2989690I23210J-10310D01*
G37*
G36*
G01X904110Y2910760D02*
X939520Y2954280D01*
X893800Y3006350D01*
X848080Y2954280D01*
X883490Y2910760D01*
G03X904110I10310J23210D01*
G37*
G36*
G01X883490Y2939240D02*
X848080Y2895720D01*
X893800Y2843650D01*
X939520Y2895720D01*
X904110Y2939240D01*
G03X883490I-10310J-23210D01*
G37*
G36*
G01X904110Y2760760D02*
X939520Y2804280D01*
X893800Y2856350D01*
X848080Y2804280D01*
X883490Y2760760D01*
G03X904110I10310J23210D01*
G37*
G36*
G01X964920Y2628520D02*
X939520Y2745720D01*
X890380Y2705350D01*
X848080Y2654280D01*
X932630Y2604070D01*
G03X964920Y2628520I6888J24450D01*
G37*
G36*
G01X883490Y2789240D02*
X848080Y2745720D01*
X893800Y2693650D01*
X939520Y2745720D01*
X904110Y2789240D01*
G03X883490I-10310J-23210D01*
G37*
G36*
G01X524140Y6090000D02*
X905100D01*
Y5855850D01*
X1192140Y5568800D01*
G02X1184960Y5551460I-7185J-7181D01*
G01X1178080D01*
G03X1149210Y5541200I0J-45748D01*
G01X1136850Y5531140D01*
X1009640D01*
G02X993510Y5563820I-2J20320D01*
G03X1010020Y5612500I-63512J48680D01*
G03X849980I-80020J0D01*
G03X866490Y5563820I80022J0D01*
G02X850360Y5531140I-16128J-12360D01*
G01X679470D01*
X524140Y5686470D01*
Y6090000D01*
G37*
G36*
G01X618100Y6368740D02*
Y6290000D01*
X708800Y6288200D01*
X707000Y6378900D01*
X628260D01*
G03X618100Y6368740I0J-10160D01*
G37*
G36*
G01X785740Y6378900D02*
X707000D01*
X705200Y6288200D01*
X795900Y6290000D01*
Y6368740D01*
G03X785740Y6378900I-10160J0D01*
G37*
G36*
G01X470960Y6182240D02*
X515850Y6227150D01*
X453000Y6296350D01*
X390150Y6227150D01*
X435040Y6182240D01*
G03X470960I17960J17960D01*
G37*
G36*
G01X670000Y7470000D02*
X13040000D01*
Y7030000D01*
X13125310Y6944690D01*
G02X13110940Y6910000I-14366J-14370D01*
G01X12926870D01*
G03X12752160Y7032530I-174710J-63291D01*
G03X12588030Y6933840I0J-185826D01*
G01X12235270D01*
X12211430Y6910000D01*
X12030000D01*
Y6296030D01*
G02X11995310Y6281670I-20319J4D01*
G01X11942040Y6334940D01*
X11306950D01*
X11294590Y6345000D01*
G03X11265720Y6355260I-28870J-35488D01*
G01X11174280D01*
G03X11145000Y6344660I0J-45740D01*
G03X11115720Y6355260I-29280J-35140D01*
G01X11035900D01*
Y6593150D01*
X11030320Y6598730D01*
G02X11044690Y6633420I14369J14369D01*
G01X11167530D01*
X11244740Y6556200D01*
X11245060Y6552510D01*
G03X11321000Y6482780I75940J6487D01*
G03X11397220Y6559000I0J76220D01*
G03X11327490Y6634940I-76217J0D01*
G01X11323800Y6635260D01*
X11271050Y6688000D01*
X11319800Y6736740D01*
X11323490Y6737060D01*
G03X11393220Y6813000I-6487J75940D01*
G03X11317000Y6889220I-76220J0D01*
G03X11241060Y6819490I0J-76217D01*
G01X11240740Y6815800D01*
X11209490Y6784540D01*
X10833200D01*
G02X10812950Y6806570I-3J20319D01*
G03X10813220Y6813000I-75951J6410D01*
G03X10737000Y6889220I-76220J0D01*
G03X10698490Y6878780I-7J-76222D01*
G01X10692060Y6875010D01*
X10672630Y6892610D01*
G03X10641920Y6904460I-30717J-33887D01*
G01X10550480D01*
G03X10504740Y6858720I0J-45740D01*
G01Y6784540D01*
X9895490D01*
X9770430Y6659480D01*
G02X9735740Y6673850I-14369J14369D01*
G01Y6708950D01*
X9725740Y6718950D01*
Y7008950D01*
X9688950Y7045740D01*
X9328440D01*
X8933440Y7440740D01*
X6396560D01*
X6136560Y7180740D01*
X5516560D01*
X5407420Y7071600D01*
X5403780Y7071260D01*
G03X5362340Y7025720I4303J-45540D01*
G01Y6934280D01*
G03X5364850Y6919350I45738J13D01*
G02X5359090Y6906620I-9604J-3322D01*
G03X5232780Y6718520I76904J-188100D01*
G03X5296410Y6570830I203215J0D01*
G02X5282450Y6535740I-13956J-14770D01*
G01X5245000D01*
G03X5215140Y6524650I0J-45744D01*
G01X5204990Y6515900D01*
X5176850D01*
X5150590Y6489640D01*
G02X5115900Y6504010I-14369J14369D01*
G01Y7163150D01*
X4883150Y7395900D01*
X896850D01*
X704690Y7203740D01*
G02X670000Y7218110I-14369J14369D01*
G01Y7470000D01*
G37*
G36*
G01X1166920Y520160D02*
X1180000Y535000D01*
X1165000Y613180D01*
X1150000Y535000D01*
X1163080Y520160D01*
G03X1166920I1920J12550D01*
G37*
G36*
G01X1163080Y699840D02*
X1150000Y685000D01*
X1165000Y606820D01*
X1180000Y685000D01*
X1166920Y699840D01*
G03X1163080I-1920J-12550D01*
G37*
G36*
G01X1079520Y1000320D02*
Y980000D01*
X1111800Y978200D01*
X1110000Y1010480D01*
X1089680D01*
G03X1079520Y1000320I0J-10160D01*
G37*
G36*
G01X1102820Y1135920D02*
X1088450Y1121550D01*
X1110000Y1097460D01*
X1131550Y1121550D01*
X1117180Y1135920D01*
G03X1102820I-7180J-7180D01*
G37*
G36*
G01X1141390Y2370360D02*
X1091920Y2415720D01*
X1043670Y2370170D01*
X1091920Y2324280D01*
X1140490Y2356660D01*
G03X1141390Y2370360I-7021J7341D01*
G37*
G36*
G01X1219920Y2371180D02*
X1205550Y2385550D01*
X1181460Y2364000D01*
X1205550Y2342450D01*
X1219920Y2356820D01*
G03Y2371180I-7180J7180D01*
G37*
G36*
G01X1148080Y2356820D02*
X1162450Y2342450D01*
X1186540Y2364000D01*
X1162450Y2385550D01*
X1148080Y2371180D01*
G03Y2356820I7180J-7180D01*
G37*
G36*
G01Y2136820D02*
X1162450Y2122450D01*
X1186540Y2144000D01*
X1162450Y2165550D01*
X1148080Y2151180D01*
G03Y2136820I7180J-7180D01*
G37*
G36*
G01X1157260Y2263990D02*
X1091920Y2265720D01*
X1043770Y2219250D01*
X1091920Y2176120D01*
X1163290Y2247580D01*
G03X1157260Y2263990I-7872J6420D01*
G37*
G36*
G01X1150080Y2246820D02*
X1164450Y2232450D01*
X1188540Y2254000D01*
X1164450Y2275550D01*
X1150080Y2261180D01*
G03Y2246820I7180J-7180D01*
G37*
G36*
G01Y2796820D02*
X1164450Y2782450D01*
X1188540Y2804000D01*
X1164450Y2825550D01*
X1150080Y2811180D01*
G03Y2796820I7180J-7180D01*
G37*
G36*
G01X1148080Y2906820D02*
X1162450Y2892450D01*
X1186540Y2914000D01*
X1162450Y2935550D01*
X1148080Y2921180D01*
G03Y2906820I7180J-7180D01*
G37*
G36*
G01X1154950Y3033540D02*
X1091920Y3045720D01*
X1043720Y2999440D01*
X1091920Y2954280D01*
X1159200Y3017400D01*
G03X1154950Y3033540I-7729J6594D01*
G37*
G36*
G01X975080Y2567560D02*
X1000480Y2474280D01*
X1050600Y2515420D01*
X1091920Y2565720D01*
X1000990Y2592950D01*
G03X975080Y2567560I-515J-25390D01*
G37*
G36*
G01X1052440Y3060710D02*
X1091920Y3104280D01*
X1046200Y3152540D01*
X1000480Y3104280D01*
X1039960Y3060710D01*
G03X1052440I6240J8020D01*
G37*
G36*
G01X1039960Y3089290D02*
X1000480Y3045720D01*
X1046200Y2997460D01*
X1091920Y3045720D01*
X1052440Y3089290D01*
G03X1039960I-6240J-8020D01*
G37*
G36*
G01X1150080Y3016820D02*
X1164450Y3002450D01*
X1188540Y3024000D01*
X1164450Y3045550D01*
X1150080Y3031180D01*
G03Y3016820I7180J-7180D01*
G37*
G36*
G01X1402960Y5278860D02*
X1638060D01*
Y5148800D01*
G03X1683800Y5103060I45740J0D01*
G01X1700030D01*
Y5087120D01*
X1695070Y5084170D01*
G03X1632980Y4975000I64929J-109170D01*
G03X1671550Y4883830I127023J-6D01*
G01X1671610Y4883780D01*
X1688860Y4866520D01*
Y4057360D01*
G03X1686450Y4050000I71137J-27368D01*
G01X1381140D01*
Y5257040D01*
X1402960Y5278860D01*
G37*
G36*
G01X1320320Y5509520D02*
X1330480Y5414280D01*
X1377920Y5458130D01*
X1421920Y5505720D01*
X1330900Y5519670D01*
G03X1320320Y5509520I-421J-10150D01*
G37*
G36*
G01X1486160Y5495140D02*
X1421920Y5505720D01*
X1373730Y5459410D01*
X1421920Y5414280D01*
X1490680Y5478890D01*
G03X1486160Y5495140I-7713J6608D01*
G37*
G36*
G01X1373500Y5350000D02*
X1310000D01*
X1325510Y5266100D01*
X1391460Y5332040D01*
X1373500Y5350000D01*
G37*
G36*
G01X1294920Y5390480D02*
X1269520Y5505720D01*
X1220310Y5465310D01*
X1178080Y5414280D01*
X1263120Y5365900D01*
G03X1294920Y5390480I6400J24580D01*
G37*
G36*
G01X1134560Y5449690D02*
X1178080Y5414280D01*
X1230150Y5460000D01*
X1178080Y5505720D01*
X1134560Y5470310D01*
G03Y5449690I23210J-10310D01*
G37*
G36*
G01X1165900Y6090000D02*
X1469260D01*
Y5709500D01*
G03X1471580Y5695110I45741J-7D01*
G02X1452290Y5668400I-19288J-6391D01*
G01X1320650D01*
X1165900Y5823150D01*
Y6090000D01*
G37*
G36*
G01X960730Y7241660D02*
X4819270D01*
X4961660Y7099270D01*
Y6516450D01*
G02X4926970Y6502080I-20321J-1D01*
G01X4913150Y6515900D01*
X4895010D01*
X4884860Y6524650D01*
G03X4874570Y6531340I-29851J-34656D01*
G02X4869950Y6565050I8700J18364D01*
G03X4939960Y6718520I-133207J153470D01*
G03X4736740Y6921740I-203220J0D01*
G03X4713050Y6920350I38J-203218D01*
G01X4708170Y6919780D01*
X4693440Y6934510D01*
X4659220Y7012230D01*
G03X4617360Y7039540I-41860J-18426D01*
G01X4551320D01*
G03X4505580Y6993800I0J-45740D01*
G01Y6892200D01*
G03X4538060Y6848430I45732J0D01*
G01X4546810Y6845770D01*
G02X4558710Y6816530I-5898J-19442D01*
G03X4548850Y6795950I178054J-97959D01*
G01X4546260Y6789660D01*
X4539050D01*
X4460000Y6710610D01*
X4430880Y6739730D01*
X4430460Y6743200D01*
G03X4406770Y6816530I-201720J-24676D01*
G02X4418670Y6845770I17798J9798D01*
G01X4427420Y6848430D01*
G03X4459900Y6892200I-13252J43770D01*
G01Y6993800D01*
G03X4414160Y7039540I-45740J0D01*
G01X4348120D01*
G03X4306260Y7012230I0J-45736D01*
G01X4272040Y6934510D01*
X4257310Y6919780D01*
X4252430Y6920350D01*
G03X4228740Y6921740I-23728J-201828D01*
G03Y6515300I0J-203220D01*
G03X4328560Y6541500I8J203222D01*
G02X4358860Y6523810I9982J-17697D01*
G01Y6322490D01*
X4480830Y6200520D01*
X4500460Y6134960D01*
G03X4544280Y6102340I43820J13123D01*
G01X4635720D01*
G03X4637950Y6102390I90J45742D01*
G02X4659260Y6082100I992J-20294D01*
G01Y6049000D01*
G03X4705000Y6003260I45740J0D01*
G01X4820290D01*
G02X4838800Y5974570I-3J-20318D01*
G03X4834740Y5955720I41682J-18840D01*
G01Y5885900D01*
X4506850D01*
X4490190Y5869240D01*
G02X4455500Y5883610I-14369J14369D01*
G01Y6072580D01*
X4456100Y6074250D01*
G03X4460580Y6100000I-71741J25746D01*
G03X4308140I-76220J0D01*
G03X4312620Y6074250I76221J-4D01*
G01X4313220Y6072580D01*
Y4906280D01*
G02X4294390Y4886010I-20321J-4D01*
G03X4248190Y4865900I5610J-76011D01*
G01X3921810D01*
G03X3916860Y4870120I-51879J-55840D01*
G02X3915920Y4885310I6245J8011D01*
G01X3921140Y4890530D01*
Y5054260D01*
X4178950D01*
X4235740Y5111050D01*
Y5968950D01*
X4068950Y6135740D01*
X2912400D01*
G03X2840000Y6180740I-72400J-35742D01*
G03X2789040Y6162630I0J-80754D01*
G02X2755900Y6178390I-12821J15763D01*
G01Y6373150D01*
X2673150Y6455900D01*
X2578800D01*
X2552630Y6479610D01*
G03X2521920Y6491460I-30717J-33887D01*
G01X2430480D01*
G03X2400000Y6479820I0J-45727D01*
G03X2369520Y6491460I-30480J-34087D01*
G01X2278080D01*
G03X2246760Y6479050I0J-45727D01*
G01X2215150Y6449350D01*
X2210440Y6449920D01*
G03X2205000Y6450240I-5401J-45422D01*
G01X2150180D01*
G02X2135810Y6484930I-1J20321D01*
G01X2181180Y6530300D01*
X2229150D01*
G03X2102130Y6657320I0J127020D01*
G01Y6609350D01*
X2075310Y6582530D01*
X2062990Y6594850D01*
X2066190Y6601370D01*
G03X2079170Y6657320I-114043J55938D01*
G03X1825130I-127020J0D01*
G03X1851210Y6580210I127021J-4D01*
G01X1852140Y6579000D01*
X1873490Y6521290D01*
G03X1874050Y6519820I57261J20972D01*
G01X1874780Y6518010D01*
Y6135740D01*
X1821140D01*
Y6363970D01*
X1739470Y6445640D01*
X1685100D01*
X1683170Y6446480D01*
G03X1665000Y6450240I-18162J-41982D01*
G01X1515000D01*
G03X1496830Y6446480I-8J-45742D01*
G01X1494900Y6445640D01*
X1460860D01*
X1445560Y6454880D01*
G03X1421920Y6461460I-23636J-39161D01*
G01X1330480D01*
G03X1284740Y6415720I0J-45740D01*
G01Y6324280D01*
G03X1330480Y6278540I45740J0D01*
G01X1421920D01*
G03X1450900Y6288890I0J45747D01*
G01X1468560Y6303360D01*
X1494900D01*
X1496830Y6302520D01*
G03X1515000Y6298760I18162J41982D01*
G01X1665000D01*
G03X1668030Y6298860I7J45740D01*
G02X1678860Y6288720I670J-10138D01*
G01Y6206280D01*
G02X1668030Y6196140I-10160J-2D01*
G03X1665000Y6196240I-3023J-45640D01*
G01X1515000D01*
G03X1469260Y6150500I0J-45740D01*
G01Y6135740D01*
X1165900D01*
Y6363150D01*
X1102200Y6426850D01*
G02X1109290Y6460190I14368J14368D01*
G03X1342390Y6799320I-130145J339130D01*
G03X979150Y7162560I-363240J0D01*
G03X929900Y7159210I-31J-363242D01*
G02X912780Y7193710I-2752J20132D01*
G01X960730Y7241660D01*
G37*
G36*
G01X882260Y6201100D02*
X961000D01*
X962800Y6291800D01*
X872100Y6290000D01*
Y6211260D01*
G03X882260Y6201100I10160J0D01*
G37*
G36*
G01X968180Y6171460D02*
X1023860Y6227140D01*
X961000Y6292540D01*
X898140Y6227140D01*
X953820Y6171460D01*
G03X968180I7180J7180D01*
G37*
G36*
G01X1468490Y6387600D02*
X1421920Y6415720D01*
X1369860Y6369600D01*
X1421920Y6324280D01*
X1469500Y6363250D01*
G03X1468490Y6387600I-22771J11251D01*
G37*
G36*
G01X1916920Y520160D02*
X1930000Y535000D01*
X1915000Y613180D01*
X1900000Y535000D01*
X1913080Y520160D01*
G03X1916920I1920J12550D01*
G37*
G36*
G01X1766920D02*
X1780000Y535000D01*
X1765000Y613180D01*
X1750000Y535000D01*
X1763080Y520160D01*
G03X1766920I1920J12550D01*
G37*
G36*
G01X1666920D02*
X1680000Y535000D01*
X1665000Y613180D01*
X1650000Y535000D01*
X1663080Y520160D01*
G03X1666920I1920J12550D01*
G37*
G36*
G01X1711890Y699500D02*
X1700000Y685000D01*
X1715000Y607460D01*
X1730000Y685000D01*
X1718110Y699500D01*
G03X1711890I-3110J-9670D01*
G37*
G36*
G01X1561890D02*
X1550000Y685000D01*
X1565000Y607460D01*
X1580000Y685000D01*
X1568110Y699500D01*
G03X1561890I-3110J-9670D01*
G37*
G36*
G01X1461890D02*
X1450000Y685000D01*
X1465000Y607460D01*
X1480000Y685000D01*
X1468110Y699500D01*
G03X1461890I-3110J-9670D01*
G37*
G36*
G01X1411890D02*
X1400000Y685000D01*
X1415000Y607460D01*
X1430000Y685000D01*
X1418110Y699500D01*
G03X1411890I-3110J-9670D01*
G37*
G36*
G01X1511890D02*
X1500000Y685000D01*
X1515000Y607460D01*
X1530000Y685000D01*
X1518110Y699500D01*
G03X1511890I-3110J-9670D01*
G37*
G36*
G01X1611890D02*
X1600000Y685000D01*
X1615000Y607460D01*
X1630000Y685000D01*
X1618110Y699500D01*
G03X1611890I-3110J-9670D01*
G37*
G36*
G01X1811890D02*
X1800000Y685000D01*
X1815000Y607460D01*
X1830000Y685000D01*
X1818110Y699500D01*
G03X1811890I-3110J-9670D01*
G37*
G36*
G01X1861890D02*
X1850000Y685000D01*
X1865000Y607460D01*
X1880000Y685000D01*
X1868110Y699500D01*
G03X1861890I-3110J-9670D01*
G37*
G36*
G01X1609520Y1110320D02*
Y1090000D01*
X1641800Y1088200D01*
X1640000Y1120480D01*
X1619680D01*
G03X1609520Y1110320I0J-10160D01*
G37*
G36*
G01X1619680Y1059520D02*
X1640000D01*
X1641800Y1091800D01*
X1609520Y1090000D01*
Y1069680D01*
G03X1619680Y1059520I10160J0D01*
G37*
G36*
G01X1820480Y1069680D02*
Y1090000D01*
X1788200Y1091800D01*
X1790000Y1059520D01*
X1810320D01*
G03X1820480Y1069680I0J10160D01*
G37*
G36*
G01X1810320Y1120480D02*
X1790000D01*
X1788200Y1088200D01*
X1820480Y1090000D01*
Y1110320D01*
G03X1810320Y1120480I-10160J0D01*
G37*
G36*
G01X1869680Y1169520D02*
X1890000D01*
X1891800Y1201800D01*
X1859520Y1200000D01*
Y1179680D01*
G03X1869680Y1169520I10160J0D01*
G37*
G36*
G01X1859520Y1220320D02*
Y1200000D01*
X1891800Y1198200D01*
X1890000Y1230480D01*
X1869680D01*
G03X1859520Y1220320I0J-10160D01*
G37*
G36*
G01X1457180Y2674080D02*
X1471550Y2688450D01*
X1450000Y2712540D01*
X1428450Y2688450D01*
X1442820Y2674080D01*
G03X1457180I7180J7180D01*
G37*
G36*
G01X1816740Y2607960D02*
X1767340Y2657340D01*
X1693650Y2590000D01*
X1767340Y2522660D01*
X1816740Y2572040D01*
G03Y2607960I-17960J17960D01*
G37*
G36*
G01X1821140Y6090000D02*
X1874780D01*
Y5410560D01*
X2011240Y5274100D01*
X2523150D01*
X2625900Y5376850D01*
Y5543150D01*
X2576230Y5592830D01*
X2567300Y5663920D01*
G03X2567100Y5665370I-45405J-5524D01*
G02X2587170Y5688860I20070J3171D01*
G01X2649470D01*
X2724570Y5763960D01*
G02X2759260Y5749600I14371J-14364D01*
G01Y5363440D01*
X2601250Y5205430D01*
X2566170D01*
G03X2536850Y5194790I7J-45737D01*
G01X2508530Y5171140D01*
X2170530D01*
X1858860Y4859470D01*
Y4050000D01*
X1833550D01*
G03X1831140Y4057360I-73547J-20008D01*
G01Y4866520D01*
X1848390Y4883780D01*
X1848450Y4883830D01*
G03X1887020Y4975000I-88453J91164D01*
G03X1824930Y5084170I-127019J0D01*
G01X1819970Y5087120D01*
Y5103060D01*
X1836200D01*
G03X1881940Y5148800I0J45740D01*
G01Y5301200D01*
G03X1836200Y5346940I-45740J0D01*
G01X1786600D01*
G02X1772240Y5381630I4J20319D01*
G01X1821140Y5430530D01*
Y6090000D01*
G37*
G36*
G01X1777960Y4885200D02*
X1813870Y4921130D01*
X1760000Y4981350D01*
X1706130Y4921130D01*
X1742040Y4885200D01*
G03X1777960I17960J17960D01*
G37*
G36*
G01X1486690Y5479900D02*
X1515000Y5455500D01*
X1592540Y5485500D01*
X1515000Y5515500D01*
X1486690Y5491100D01*
G03Y5479900I8480J-5600D01*
G37*
G36*
G01Y5606900D02*
X1515000Y5582500D01*
X1592540Y5612500D01*
X1515000Y5642500D01*
X1486690Y5618100D01*
G03Y5606900I8480J-5600D01*
G37*
G36*
G01X1937860Y6535280D02*
X2006020Y6603440D01*
X1952620Y6659820D01*
X1895930Y6607100D01*
X1921150Y6538930D01*
G03X1937860Y6535280I9525J3532D01*
G37*
G36*
G01X1694700Y6378340D02*
X1665000Y6404500D01*
X1583650Y6374500D01*
X1665000Y6344500D01*
X1694700Y6370660D01*
G03Y6378340I-25110J3840D01*
G37*
G36*
G01X1485300Y6370660D02*
X1515000Y6344500D01*
X1596350Y6374500D01*
X1515000Y6404500D01*
X1485300Y6378340D01*
G03Y6370660I25110J-3840D01*
G37*
G36*
G01X2216920Y520160D02*
X2230000Y535000D01*
X2215000Y613180D01*
X2200000Y535000D01*
X2213080Y520160D01*
G03X2216920I1920J12550D01*
G37*
G36*
G01X2016920D02*
X2030000Y535000D01*
X2015000Y613180D01*
X2000000Y535000D01*
X2013080Y520160D01*
G03X2016920I1920J12550D01*
G37*
G36*
G01X2489910Y1740140D02*
X5595460D01*
Y985730D01*
X5524270Y914540D01*
X4745490D01*
X4438310Y607360D01*
X4431610Y611080D01*
G03X4370000Y627020I-61606J-111081D01*
G03X4258020Y559950I0J-127016D01*
G02X4222380Y559610I-17913J9592D01*
G03X4009620I-106380J-59616D01*
G02X3973980Y559950I-17727J9932D01*
G03X3862000Y627020I-111980J-59946D01*
G03X3831150Y623220I-13J-127022D01*
G02X3805900Y642930I-4931J19711D01*
G01Y693150D01*
X3673150Y825900D01*
X2441810D01*
G03X2390960Y846210I-51809J-55902D01*
G02X2370900Y866530I261J20319D01*
G01Y1621130D01*
X2489910Y1740140D01*
G37*
G36*
G01X2418110Y520500D02*
X2430000Y535000D01*
X2415000Y612540D01*
X2400000Y535000D01*
X2411890Y520500D01*
G03X2418110I3110J9670D01*
G37*
G36*
G01X2368110D02*
X2380000Y535000D01*
X2365000Y612540D01*
X2350000Y535000D01*
X2361890Y520500D01*
G03X2368110I3110J9670D01*
G37*
G36*
G01X1961890Y699500D02*
X1950000Y685000D01*
X1965000Y607460D01*
X1980000Y685000D01*
X1968110Y699500D01*
G03X1961890I-3110J-9670D01*
G37*
G36*
G01X2111890D02*
X2100000Y685000D01*
X2115000Y607460D01*
X2130000Y685000D01*
X2118110Y699500D01*
G03X2111890I-3110J-9670D01*
G37*
G36*
G01X2161890D02*
X2150000Y685000D01*
X2165000Y607460D01*
X2180000Y685000D01*
X2168110Y699500D01*
G03X2161890I-3110J-9670D01*
G37*
G36*
G01X2070480Y749680D02*
Y770000D01*
X2038200Y771800D01*
X2040000Y739520D01*
X2060320D01*
G03X2070480Y749680I0J10160D01*
G37*
G36*
G01X2060320Y800480D02*
X2040000D01*
X2038200Y768200D01*
X2070480Y770000D01*
Y790320D01*
G03X2060320Y800480I-10160J0D01*
G37*
G36*
G01X2425920Y777180D02*
X2411550Y791550D01*
X2387460Y770000D01*
X2411550Y748450D01*
X2425920Y762820D01*
G03Y777180I-7180J7180D01*
G37*
G36*
G01X2061890Y699500D02*
X2050000Y685000D01*
X2065000Y607460D01*
X2080000Y685000D01*
X2068110Y699500D01*
G03X2061890I-3110J-9670D01*
G37*
G36*
G01X2261890D02*
X2250000Y685000D01*
X2265000Y607460D01*
X2280000Y685000D01*
X2268110Y699500D01*
G03X2261890I-3110J-9670D01*
G37*
G36*
G01X2311890D02*
X2300000Y685000D01*
X2315000Y607460D01*
X2330000Y685000D01*
X2318110Y699500D01*
G03X2311890I-3110J-9670D01*
G37*
G36*
G01X2480680Y2571620D02*
G02X2514000Y2564560I14363J-14370D01*
G03X2580000Y2519270I66000J25445D01*
G03X2580910Y2519280I-322J70726D01*
G02X2595540Y2484590I260J-20320D01*
G01X1955590Y1844640D01*
G02X1920900Y1859010I-14369J14369D01*
G01Y2011850D01*
X2480680Y2571620D01*
G37*
G36*
G01X4091340Y3655460D02*
X5177300D01*
G02X5197330Y3631720I1J-20319D01*
G03X5195990Y3615890I92661J-15815D01*
G03X5196340Y3607810I93999J24D01*
G02X5176090Y3585740I-20245J-1750D01*
G01X5044260D01*
Y3218950D01*
X5031050Y3205740D01*
X4854260D01*
Y3171430D01*
X4853510Y3169590D01*
G03X4850160Y3152400I42391J-17183D01*
G01Y2847600D01*
G03X4853510Y2830410I45741J-7D01*
G01X4854260Y2828570D01*
Y2804260D01*
X4881200D01*
X4882640Y2803820D01*
G03X4895900Y2801860I13246J43782D01*
G01X5149900D01*
G03X5163160Y2803820I14J45742D01*
G01X5164600Y2804260D01*
X5241050D01*
X5461050Y2584260D01*
X6276140D01*
G02X6290510Y2549570I1J-20321D01*
G01X6176840Y2435900D01*
X5308890D01*
G02X5288920Y2459960I1J20318D01*
G03X5290220Y2474000I-74922J14017D01*
G03X5214000Y2550220I-76220J0D01*
G03X5203070Y2549430I15J-76219D01*
G01X5198660Y2548790D01*
X5190790Y2555200D01*
G03X5161920Y2565460I-28870J-35488D01*
G01X5070480D01*
G03X5040000Y2553820I0J-45727D01*
G03X5032850Y2559060I-30484J-34098D01*
G02Y2576540I5185J8740D01*
G03X5055260Y2615880I-23325J39340D01*
G01Y2707320D01*
G03X5009520Y2753060I-45740J0D01*
G01X4918080D01*
G03X4887370Y2741210I7J-45737D01*
G01X4866080Y2721920D01*
X4857880Y2729080D01*
G03X4827800Y2740360I-30080J-34467D01*
G01X4726200D01*
G03X4699610Y2731830I9J-45737D01*
G03X4670000Y2737820I-29618J-70228D01*
G03X4593780Y2661600I0J-76220D01*
G03X4594750Y2649460I76221J-19D01*
G02X4582740Y2637880I-10029J-1617D01*
G03X4573800Y2638760I-8929J-44861D01*
G01X4472200D01*
G03X4426460Y2593020I0J-45740D01*
G01Y2526980D01*
G03X4472200Y2481240I45740J0D01*
G01X4573800D01*
G03X4577090Y2481360I-21J45739D01*
G01X4615140Y2484100D01*
X4872340D01*
Y2428280D01*
G03X4894010Y2389380I45750J0D01*
G02Y2372110I-5345J-8635D01*
G03X4887370Y2367100I24115J-38866D01*
G01X4866080Y2347810D01*
X4857880Y2354970D01*
G03X4827800Y2366250I-30080J-34467D01*
G01X4726200D01*
G03X4695330Y2354260I0J-45735D01*
G01X4682910Y2342900D01*
X4677670Y2344140D01*
G03X4660000Y2346220I-17685J-74138D01*
G03X4627820Y2339100I-13J-76223D01*
G02X4598990Y2355930I-8575J18419D01*
G03X4523000Y2426220I-75990J-5931D01*
G03X4446780Y2350000I0J-76220D01*
G03X4464710Y2300890I76221J0D01*
G01X4467100Y2298050D01*
Y2281080D01*
X4438460Y2249790D01*
G03X4426460Y2218910I33732J-30880D01*
G01Y2152870D01*
G03X4472200Y2107130I45740J0D01*
G01X4573800D01*
G03X4580710Y2107660I-33J45737D01*
G02X4604100Y2087570I3069J-20088D01*
G01Y1966850D01*
X4645000Y1925950D01*
G02X4630630Y1891260I-14369J-14369D01*
G01X2412210D01*
X2255590Y1734640D01*
G02X2220900Y1749010I-14369J14369D01*
G01Y1785020D01*
X4091340Y3655460D01*
G37*
G36*
G01X2305410Y4325890D02*
X2332500Y4357800D01*
X2300000Y4417150D01*
X2267500Y4357800D01*
X2294590Y4325890D01*
G03X2305410I5410J24820D01*
G37*
G36*
G01X2199250Y4494500D02*
X2172500Y4463800D01*
X2205000Y4408260D01*
X2237500Y4463800D01*
X2210750Y4494500D01*
G03X2199250I-5750J-8370D01*
G37*
G36*
G01X2417210Y4044230D02*
X2467640Y4104100D01*
X2404140Y4173950D01*
X2340640Y4104100D01*
X2391070Y4044230D01*
G03X2417210I13070J21780D01*
G37*
G36*
G01X2378340Y4297500D02*
X2340640Y4231100D01*
X2404660Y4161270D01*
X2467640Y4231100D01*
X2408850Y4299620D01*
G03X2378340Y4297500I-13849J-21291D01*
G37*
G36*
G01X2400410Y4325890D02*
X2427500Y4357800D01*
X2395000Y4417150D01*
X2362500Y4357800D01*
X2389590Y4325890D01*
G03X2400410I5410J24820D01*
G37*
G36*
G01X2389250Y4494500D02*
X2362500Y4463800D01*
X2395000Y4408260D01*
X2427500Y4463800D01*
X2400750Y4494500D01*
G03X2389250I-5750J-8370D01*
G37*
G36*
G01X2389590Y4766510D02*
X2362500Y4734600D01*
X2395000Y4675250D01*
X2427500Y4734600D01*
X2400410Y4766510D01*
G03X2389590I-5410J-24820D01*
G37*
G36*
G01X2408850Y4737980D02*
X2467640Y4806500D01*
X2404660Y4876330D01*
X2340640Y4806500D01*
X2378340Y4740100D01*
G03X2408850Y4737980I16661J19171D01*
G37*
G36*
G01X2527510Y4883070D02*
X2467640Y4933500D01*
X2397790Y4870000D01*
X2467640Y4806500D01*
X2527510Y4856930D01*
G03Y4883070I-21780J13070D01*
G37*
G36*
G01X2533380Y5566920D02*
X2521920Y5658220D01*
X2474380Y5614270D01*
X2430480Y5566780D01*
X2523220Y5556620D01*
G03X2533380Y5566920I0J10161D01*
G37*
G36*
G01X2430900Y5400330D02*
X2521920Y5414280D01*
X2477920Y5461870D01*
X2430480Y5505720D01*
X2420320Y5410480D01*
G03X2430900Y5400330I10159J0D01*
G37*
G36*
G01X2233310Y5491100D02*
X2205000Y5515500D01*
X2127460Y5485500D01*
X2205000Y5455500D01*
X2233310Y5479900D01*
G03Y5491100I-8480J5600D01*
G37*
G36*
G01X2209320Y5478890D02*
X2278080Y5414280D01*
X2326270Y5459410D01*
X2278080Y5505720D01*
X2213840Y5495140D01*
G03X2209320Y5478890I3193J-9642D01*
G37*
G36*
G01X2234510Y5606260D02*
X2278080Y5566780D01*
X2326340Y5612500D01*
X2278080Y5658220D01*
X2234510Y5618740D01*
G03Y5606260I8020J-6240D01*
G37*
G36*
G01X2233310Y6126100D02*
X2205000Y6150500D01*
X2127460Y6120500D01*
X2205000Y6090500D01*
X2233310Y6114900D01*
G03Y6126100I-8480J5600D01*
G37*
G36*
G01Y5745100D02*
X2205000Y5769500D01*
X2127460Y5739500D01*
X2205000Y5709500D01*
X2233310Y5733900D01*
G03Y5745100I-8480J5600D01*
G37*
G36*
G01X2217860Y5730230D02*
X2278080Y5714280D01*
X2326290Y5760500D01*
X2278080Y5805720D01*
X2214280Y5746060D01*
G03X2217860Y5730230I7752J-6567D01*
G37*
G36*
G01X2233310Y5999100D02*
X2205000Y6023500D01*
X2127460Y5993500D01*
X2205000Y5963500D01*
X2233310Y5987900D01*
G03Y5999100I-8480J5600D01*
G37*
G36*
G01Y5872100D02*
X2205000Y5896500D01*
X2127460Y5866500D01*
X2205000Y5836500D01*
X2233310Y5860900D01*
G03Y5872100I-8480J5600D01*
G37*
G36*
G01X2214430Y5856340D02*
X2369520Y5864280D01*
X2326160Y5910940D01*
X2285860Y5952150D01*
X2206770Y5873000D01*
G03X2214430Y5856340I7809J-6500D01*
G37*
G36*
G01X2233310Y5618100D02*
X2205000Y5642500D01*
X2127460Y5612500D01*
X2205000Y5582500D01*
X2233310Y5606900D01*
G03Y5618100I-8480J5600D01*
G37*
G36*
G01X2578800Y6344100D02*
X2626850D01*
X2644100Y6326850D01*
Y6203150D01*
X2617350Y6176400D01*
X2435390D01*
G02X2415130Y6198280I-2J20318D01*
G03X2415260Y6201780I-45612J3447D01*
G01Y6293220D01*
G03X2415040Y6297650I-45737J-51D01*
G02X2426120Y6308750I10114J984D01*
G03X2430480Y6308540I4378J45529D01*
G01X2521920D01*
G03X2552630Y6320390I-7J45737D01*
G01X2578800Y6344100D01*
G37*
G36*
G01X2163110Y6581120D02*
X2229150D01*
X2230950Y6659120D01*
X2152950Y6657320D01*
Y6591280D01*
G03X2163110Y6581120I10160J0D01*
G37*
G36*
G01X2233310Y6380100D02*
X2205000Y6404500D01*
X2127460Y6374500D01*
X2205000Y6344500D01*
X2233310Y6368900D01*
G03Y6380100I-8480J5600D01*
G37*
G36*
G01X2213840Y6364860D02*
X2278080Y6354280D01*
X2326270Y6400590D01*
X2278080Y6445720D01*
X2209320Y6381110D01*
G03X2213840Y6364860I7713J-6608D01*
G37*
G36*
G01X2233310Y6253100D02*
X2205000Y6277500D01*
X2127460Y6247500D01*
X2205000Y6217500D01*
X2233310Y6241900D01*
G03Y6253100I-8480J5600D01*
G37*
G36*
G01X2234510Y6241260D02*
X2278080Y6201780D01*
X2326340Y6247500D01*
X2278080Y6293220D01*
X2234510Y6253740D01*
G03Y6241260I8020J-6240D01*
G37*
G36*
G01X2473150Y315900D02*
X2470900Y318150D01*
Y386690D01*
G02X2501490Y404230I20321J4D01*
G03X2526430Y395000I38518J65768D01*
G01X2534780Y393490D01*
Y319440D01*
X2531240Y315900D01*
X2473150D01*
G37*
G36*
G01X2469520Y367780D02*
Y350000D01*
X2502250Y347750D01*
X2500000Y380480D01*
X2482220D01*
G03X2469520Y367780I0J-12700D01*
G37*
G36*
G01X2466920Y520160D02*
X2480000Y535000D01*
X2465000Y613180D01*
X2450000Y535000D01*
X2463080Y520160D01*
G03X2466920I1920J12550D01*
G37*
G36*
G01X2680450Y617210D02*
X2630000Y667970D01*
X2611820Y610000D01*
X2630000Y552030D01*
X2680450Y602790D01*
G03Y617210I-10450J7210D01*
G37*
G36*
G01X2650000Y540000D02*
Y690000D01*
X2810000D01*
X2830000Y670000D01*
Y570000D01*
X2800000Y540000D01*
X2650000D01*
G37*
G36*
G01X2566920Y520160D02*
X2580000Y535000D01*
X2565000Y613180D01*
X2550000Y535000D01*
X2563080Y520160D01*
G03X2566920I1920J12550D01*
G37*
G36*
G01X2516920D02*
X2530000Y535000D01*
X2515000Y613180D01*
X2500000Y535000D01*
X2513080Y520160D01*
G03X2516920I1920J12550D01*
G37*
G36*
G01X3723150Y3814100D02*
X3875990D01*
G02X3890360Y3779410I1J-20321D01*
G01X2685410Y2574460D01*
G02X2650720Y2589090I-14370J14370D01*
G03X2650730Y2590000I-70716J1232D01*
G03X2605440Y2656000I-70735J0D01*
G02X2598380Y2689320I7310J18957D01*
G01X3723150Y3814100D01*
G37*
G36*
G01X2499940Y4773900D02*
X2519090Y4790040D01*
X2536850Y4775210D01*
G03X2554480Y4766090I29329J35096D01*
G01X2648030Y4741370D01*
X2740530Y4648860D01*
X2861260D01*
G02X2881530Y4627250I-7J-20318D01*
G03X2881380Y4622400I76072J-4780D01*
G03X2887980Y4591370I76221J-5D01*
G01X2888860Y4589400D01*
Y4195020D01*
X2888260Y4193350D01*
G03X2883780Y4167600I71741J-25746D01*
G03X3036220I76220J0D01*
G03X3031740Y4193350I-76221J4D01*
G01X3031140Y4195020D01*
Y4602330D01*
X3031460Y4603560D01*
G03X3033820Y4622400I-73862J18820D01*
G03X3033670Y4627250I-76222J70D01*
G02X3053940Y4648860I20277J1292D01*
G01X3580750D01*
G02X3595120Y4614170I1J-20321D01*
G01X3030950Y4050000D01*
X2503720D01*
G02X2495950Y4066710I-4J10160D01*
G01X2502620Y4074630D01*
G03X2513380Y4104100I-34977J29470D01*
G01Y4231100D01*
G03X2502350Y4260880I-45737J-8D01*
G01X2466140Y4303090D01*
Y4333180D01*
X2467430Y4335490D01*
G03X2473240Y4357800I-39929J22310D01*
G01Y4463800D01*
G03X2461990Y4493850I-45742J6D01*
G01X2450900Y4506570D01*
Y4548150D01*
X2443490Y4555560D01*
G02X2448520Y4587980I14369J14371D01*
G03X2473240Y4628600I-21013J40620D01*
G01Y4734600D01*
G03X2473110Y4738070I-45741J24D01*
G01X2472790Y4742260D01*
X2499940Y4773900D01*
G37*
G36*
G01X2710940Y4804460D02*
X2685550Y4929690D01*
X2621580Y4874700D01*
X2566170Y4810310D01*
X2684300Y4779090D01*
G03X2710940Y4804460I1240J25370D01*
G37*
G36*
G01X2509860Y4857350D02*
X2566170Y4810310D01*
X2632210Y4870000D01*
X2566170Y4929690D01*
X2509860Y4882650D01*
G03Y4857350I22030J-12650D01*
G37*
G36*
G01X2957070Y4896900D02*
X2893830Y4929690D01*
X2827820Y4869390D01*
X2893830Y4810310D01*
X2959550Y4866380D01*
G03X2957070Y4896900I-21440J13619D01*
G37*
G36*
G01X2951170Y5106490D02*
X2893830Y5159690D01*
X2831600Y5100000D01*
X2893830Y5040310D01*
X2951170Y5093510D01*
G03Y5106490I-7820J6490D01*
G37*
G36*
G01X2509860Y5087350D02*
X2566170Y5040310D01*
X2632210Y5100000D01*
X2566170Y5159690D01*
X2509860Y5112650D01*
G03Y5087350I22030J-12650D01*
G37*
G36*
G01X2920740Y6090000D02*
X4050000D01*
X4190000Y5950000D01*
Y5130000D01*
X4160000Y5100000D01*
X3946050D01*
G02X3925840Y5122360I6J20318D01*
G03X3926220Y5130000I-75842J7602D01*
G03X3773780I-76220J0D01*
G03X3778260Y5104250I76221J-4D01*
G01X3778860Y5102580D01*
Y5078860D01*
X3670000Y4970000D01*
Y4840610D01*
X3620530Y4791140D01*
X3047990D01*
G02X3033680Y4825890I-4J20320D01*
G03X3048940Y4847480I-53671J54123D01*
G01X3049690Y4849080D01*
X3151140Y4950530D01*
Y5240530D01*
X3229470Y5318860D01*
X3862580D01*
X3864250Y5318260D01*
G03X3890000Y5313780I25746J71741D01*
G03Y5466220I0J76220D01*
G03X3864250Y5461740I-4J-76221D01*
G01X3862580Y5461140D01*
X3170530D01*
X3008860Y5299470D01*
Y5196160D01*
G02X2986740Y5175920I-20320J0D01*
G03X2980000Y5176220I-6756J-75919D01*
G03X2955470Y5172170I-15J-76222D01*
G01X2949740Y5170220D01*
X2924940Y5193220D01*
G03X2893830Y5205430I-31110J-33528D01*
G01X2878670D01*
G02X2864300Y5240120I-2J20321D01*
G01X2920740Y5296560D01*
Y6090000D01*
G37*
G36*
G01X2944080Y5092820D02*
X2958450Y5078450D01*
X2982540Y5100000D01*
X2958450Y5121550D01*
X2944080Y5107180D01*
G03Y5092820I7180J-7180D01*
G37*
G36*
G01X2565440Y5770310D02*
X2521920Y5805720D01*
X2469850Y5760000D01*
X2521920Y5714280D01*
X2565440Y5749690D01*
G03Y5770310I-23210J10310D01*
G37*
G36*
G01X2565490Y6406240D02*
X2521920Y6445720D01*
X2473660Y6400000D01*
X2521920Y6354280D01*
X2565490Y6393760D01*
G03Y6406240I-8020J6240D01*
G37*
G36*
G01X3277800Y312040D02*
Y246000D01*
X3355800Y244200D01*
X3354000Y322200D01*
X3287960D01*
G03X3277800Y312040I0J-10160D01*
G37*
G36*
G01X3228450Y460070D02*
X3305140Y443380D01*
X3356470Y500600D01*
X3300120Y553870D01*
X3223430Y477180D01*
G03X3228450Y460070I7183J-7184D01*
G37*
G36*
G01X3785800Y314040D02*
Y246000D01*
X3863770Y244180D01*
X3862310Y322190D01*
X3796270Y324200D01*
G03X3785800Y314040I-305J-10160D01*
G37*
G36*
G01X3905920Y4817180D02*
X3891550Y4831550D01*
X3867460Y4810000D01*
X3891550Y4788450D01*
X3905920Y4802820D01*
G03Y4817180I-7180J7180D01*
G37*
G36*
G01X3849680Y4779520D02*
X3870000D01*
X3871800Y4811800D01*
X3839520Y4810000D01*
Y4789680D01*
G03X3849680Y4779520I10160J0D01*
G37*
G36*
G01X3834080Y4652820D02*
X3848450Y4638450D01*
X3872540Y4660000D01*
X3848450Y4681550D01*
X3834080Y4667180D01*
G03Y4652820I7180J-7180D01*
G37*
G36*
G01X3904120Y4668980D02*
X3891540Y4681540D01*
X3866820Y4660000D01*
X3891540Y4638460D01*
X3904120Y4651020D01*
G03Y4668980I-8980J8980D01*
G37*
G36*
G01X4516650Y2267470D02*
X4472200Y2218910D01*
X4523000Y2183350D01*
X4573800Y2218910D01*
X4529350Y2267470D01*
G03X4516650I-6350J-7930D01*
G37*
G36*
G01X4530180Y2314080D02*
X4544550Y2328450D01*
X4523000Y2352540D01*
X4501450Y2328450D01*
X4515820Y2314080D01*
G03X4530180I7180J7180D01*
G37*
G36*
G01X4624550Y2546390D02*
X4573800Y2593020D01*
X4520520Y2560530D01*
X4573800Y2526980D01*
X4619600Y2530280D01*
G03X4624550Y2546390I-2950J9722D01*
G37*
G36*
G01X4264080Y4802820D02*
X4278450Y4788450D01*
X4302540Y4810000D01*
X4278450Y4831550D01*
X4264080Y4817180D01*
G03Y4802820I7180J-7180D01*
G37*
G36*
G01X4205880Y4651020D02*
X4218460Y4638460D01*
X4243180Y4660000D01*
X4218460Y4681540D01*
X4205880Y4668980D01*
G03Y4651020I8980J-8980D01*
G37*
G36*
G01X4517050Y6239010D02*
X4544280Y6148080D01*
X4594580Y6189400D01*
X4635720Y6239520D01*
X4542440Y6264920D01*
G03X4517050Y6239010I0J-25395D01*
G37*
G36*
G01X4330340Y6866800D02*
X4414160Y6892200D01*
X4385630Y6947490D01*
X4348120Y6993800D01*
X4305320Y6896580D01*
G03X4330340Y6866800I25020J-4380D01*
G37*
G36*
G01X5028610Y308070D02*
X5056620Y242040D01*
X5134080Y244540D01*
X5132000Y322200D01*
X5037960D01*
G03X5028610Y308070I0J-10159D01*
G37*
G36*
G01X4801800Y312040D02*
Y246000D01*
X4879800Y244200D01*
X4878000Y322200D01*
X4811960D01*
G03X4801800Y312040I0J-10160D01*
G37*
G36*
G01X4547800D02*
Y246000D01*
X4625800Y244200D01*
X4624000Y322200D01*
X4557960D01*
G03X4547800Y312040I0J-10160D01*
G37*
G36*
G01X4944040Y576200D02*
X4878000D01*
X4876200Y498200D01*
X4954200Y500000D01*
Y566040D01*
G03X4944040Y576200I-10160J0D01*
G37*
G36*
G01X4706040D02*
X4624000D01*
X4622020Y498410D01*
X4699900Y497610D01*
X4715910Y563650D01*
G03X4706040Y576200I-9870J2394D01*
G37*
G36*
G01X5055260Y2324100D02*
X5430460D01*
Y2254470D01*
G03X5430510Y2252410I45738J80D01*
G01X5430520Y2252180D01*
Y2241790D01*
X5367140D01*
X5353880Y2253370D01*
G03X5323800Y2264650I-30080J-34467D01*
G01X5222200D01*
G03X5176460Y2218910I0J-45740D01*
G01Y2181450D01*
G02X5165500Y2171320I-10160J-2D01*
G03X5161920Y2171460I-3576J-45600D01*
G01X5070480D01*
G03X5024740Y2125720I0J-45740D01*
G01Y2034280D01*
G03X5065630Y1988800I45738J0D01*
G01X5140090Y1980850D01*
X5155680Y1965270D01*
G02X5141310Y1930580I-14369J-14369D01*
G01X4798470D01*
X4715900Y2013150D01*
Y2198570D01*
G02X4726090Y2208730I10160J0D01*
G01X4827800D01*
G03X4857880Y2220010I0J45747D01*
G01X4866080Y2227170D01*
X4887370Y2207880D01*
G03X4918080Y2196030I30717J33887D01*
G01X5009520D01*
G03X5055260Y2241770I0J45740D01*
G01Y2324100D01*
G37*
G36*
G01X4874510Y2281250D02*
X4918080Y2241770D01*
X4966340Y2287490D01*
X4918080Y2333210D01*
X4874510Y2293730D01*
G03Y2281250I8020J-6240D01*
G37*
G36*
G01X4682210Y2260520D02*
X4726200Y2254470D01*
X4779490Y2287970D01*
X4726200Y2320510D01*
X4677920Y2276340D01*
G03X4682210Y2260520I7940J-6339D01*
G37*
G36*
G01X4859000Y2293270D02*
X4827800Y2320510D01*
X4774460Y2287490D01*
X4827800Y2254470D01*
X4859000Y2281710D01*
G03Y2293270I-8350J5780D01*
G37*
G36*
G01X4667180Y2234080D02*
X4681550Y2248450D01*
X4660000Y2272540D01*
X4638450Y2248450D01*
X4652820Y2234080D01*
G03X4667180I7180J7180D01*
G37*
G36*
G01X4695920Y2277180D02*
X4681550Y2291550D01*
X4657460Y2270000D01*
X4681550Y2248450D01*
X4695920Y2262820D01*
G03Y2277180I-7180J7180D01*
G37*
G36*
G01X5345460Y3540000D02*
X5460000D01*
X5490000Y3510000D01*
Y2960000D01*
X5660000Y2790000D01*
X6355120D01*
G03X6484880I64880J39999D01*
G01X6500000D01*
X6880000Y3170000D01*
X8679390D01*
X8690530Y3158860D01*
X10291140D01*
X11050000Y2400000D01*
Y2150000D01*
X11020000Y2120000D01*
X10970000D01*
X10090000Y3000000D01*
X6990000D01*
X6625220Y2635220D01*
X6376160D01*
X6370940Y2630000D01*
X5530220D01*
X5528400Y2630730D01*
G03X5500000Y2636220I-28403J-70729D01*
G03X5482590Y2634210I-21J-76222D01*
G01X5477090Y2632910D01*
X5260000Y2850000D01*
X4900000D01*
Y3160000D01*
X5050000D01*
X5090000Y3200000D01*
Y3540000D01*
X5234520D01*
G03X5345460I55470J75896D01*
G37*
G36*
G01X4695000Y2655820D02*
X4726200Y2628580D01*
X4779540Y2661600D01*
X4726200Y2694620D01*
X4695000Y2667380D01*
G03Y2655820I8350J-5780D01*
G37*
G36*
G01X4859000Y2667380D02*
X4827800Y2694620D01*
X4774460Y2661600D01*
X4827800Y2628580D01*
X4859000Y2655820D01*
G03Y2667380I-8350J5780D01*
G37*
G36*
G01X4874510Y2655360D02*
X4918080Y2615880D01*
X4966340Y2661600D01*
X4918080Y2707320D01*
X4874510Y2667840D01*
G03Y2655360I8020J-6240D01*
G37*
G36*
G01X4705920Y2668780D02*
X4691550Y2683150D01*
X4667460Y2661600D01*
X4691550Y2640050D01*
X4705920Y2654420D01*
G03Y2668780I-7180J7180D01*
G37*
G36*
G01X6147530Y5690010D02*
G03X6157920Y5705410I-57521J50013D01*
G02X6190390Y5710560I18106J-9221D01*
G01X6594100Y5306850D01*
Y4736850D01*
X7100360Y4230590D01*
G02X7085990Y4195900I-14369J-14369D01*
G01X7053140D01*
X6463140Y4785900D01*
X5336850D01*
X5070590Y4519640D01*
G02X5035900Y4534010I-14369J14369D01*
G01Y4737650D01*
X4971020Y4802530D01*
Y4850500D01*
G03X4908400Y4959990I-127031J0D01*
G02Y4995010I10299J17510D01*
G03X4971020Y5104500I-64411J109490D01*
G01Y5152470D01*
X5002660Y5184110D01*
X6038190D01*
G03X6090000Y5163790I51810J55890D01*
G03X6166220Y5240010I0J76220D01*
G03X6147530Y5290010I-76226J0D01*
G03Y5390010I-57536J50000D01*
G03Y5490010I-57536J50000D01*
G03Y5590010I-57536J50000D01*
G03Y5690010I-57536J50000D01*
G37*
G36*
G01X4777960Y4520300D02*
X4844000D01*
X4845800Y4598300D01*
X4767800Y4596500D01*
Y4530460D01*
G03X4777960Y4520300I10160J0D01*
G37*
G36*
G01X4920200Y4784460D02*
Y4850500D01*
X4842200Y4852300D01*
X4844000Y4774300D01*
X4910040D01*
G03X4920200Y4784460I0J10160D01*
G37*
G36*
G01X4656040Y4926700D02*
X4590000D01*
X4588200Y4848700D01*
X4666200Y4850500D01*
Y4916540D01*
G03X4656040Y4926700I-10160J0D01*
G37*
G36*
G01Y5434700D02*
X4590000D01*
X4588200Y5356700D01*
X4666200Y5358500D01*
Y5424540D01*
G03X4656040Y5434700I-10160J0D01*
G37*
G36*
G01X4654350Y5191670D02*
X4588320Y5180550D01*
X4588350Y5102570D01*
X4666200Y5104500D01*
Y5181650D01*
G03X4654350Y5191670I-10161J0D01*
G37*
G36*
G01X4910040Y5180700D02*
X4844000D01*
X4842200Y5102700D01*
X4920200Y5104500D01*
Y5170540D01*
G03X4910040Y5180700I-10160J0D01*
G37*
G36*
G01X4919960Y5999290D02*
X4880480Y5955720D01*
X4926200Y5907460D01*
X4971920Y5955720D01*
X4932440Y5999290D01*
G03X4919960I-6240J-8020D01*
G37*
G36*
G01X4675300Y6202160D02*
X4705000Y6176000D01*
X4786350Y6206000D01*
X4705000Y6236000D01*
X4675300Y6209840D01*
G03Y6202160I25110J-3840D01*
G37*
G36*
G01X4686460Y6223680D02*
X4635720Y6239520D01*
X4583730Y6192820D01*
X4635720Y6148080D01*
X4690380Y6193570D01*
G03X4686460Y6223680I-22151J12426D01*
G37*
G36*
G01X4883310Y6465600D02*
X4855000Y6490000D01*
X4777460Y6460000D01*
X4855000Y6430000D01*
X4883310Y6454400D01*
G03Y6465600I-8480J5600D01*
G37*
G36*
G01X4675300Y6329160D02*
X4705000Y6303000D01*
X4786350Y6333000D01*
X4705000Y6363000D01*
X4675300Y6336840D01*
G03Y6329160I25110J-3840D01*
G37*
G36*
G01X4691310Y6345560D02*
X4635720Y6391920D01*
X4583740Y6347240D01*
X4635720Y6300480D01*
X4686920Y6314770D01*
G03X4691310Y6345560I-17689J18230D01*
G37*
G36*
G01X4660160Y6896580D02*
X4617360Y6993800D01*
X4579850Y6947490D01*
X4551320Y6892200D01*
X4635140Y6866800D01*
G03X4660160Y6896580I0J25400D01*
G37*
G36*
G01X5198040Y576200D02*
X5132000D01*
X5130200Y498200D01*
X5208200Y500000D01*
Y566040D01*
G03X5198040Y576200I-10160J0D01*
G37*
G36*
G01X5458190Y2129990D02*
G03X5510000Y2109670I51810J55890D01*
G03X5536670Y2114490I-4J76219D01*
G02X5564100Y2095450I7110J-19036D01*
G01Y2053150D01*
X5556850Y2045900D01*
X5233150D01*
X5218120Y2060930D01*
X5214630Y2083730D01*
G02X5234710Y2107130I20085J3080D01*
G01X5323800D01*
G03X5353880Y2118410I0J45747D01*
G01X5367140Y2129990D01*
X5458190D01*
G37*
G36*
G01X5474080Y2178710D02*
X5488450Y2164340D01*
X5512540Y2185890D01*
X5488450Y2207440D01*
X5474080Y2193070D01*
G03Y2178710I7180J-7180D01*
G37*
G36*
G01X5355000Y2191670D02*
X5323800Y2218910D01*
X5270460Y2185890D01*
X5323800Y2152870D01*
X5355000Y2180110D01*
G03Y2191670I-8350J5780D01*
G37*
G36*
G01X5175870Y2034700D02*
X5161920Y2125720D01*
X5114330Y2081720D01*
X5070480Y2034280D01*
X5165720Y2024120D01*
G03X5175870Y2034700I0J10159D01*
G37*
G36*
G01X5205440Y2484310D02*
X5161920Y2519720D01*
X5109850Y2474000D01*
X5161920Y2428280D01*
X5205440Y2463690D01*
G03Y2484310I-23210J10310D01*
G37*
G36*
G01X5547400Y6548560D02*
G02X5578860Y6531560I11139J-16997D01*
G01Y6372490D01*
X5750830Y6200520D01*
X5770460Y6134960D01*
G03X5814280Y6102340I43820J13123D01*
G01X5839910D01*
G02X5860160Y6083700I0J-20319D01*
G03X5936120Y6013780I75960J6301D01*
G03X6012340Y6090000I0J76220D01*
G03X6010700Y6105740I-76221J14D01*
G02X6030580Y6130260I19880J4201D01*
G01X6142000D01*
G03X6187740Y6176000I0J45740D01*
G01Y6236000D01*
G03X6178620Y6263410I-45750J0D01*
G02Y6275590I8130J6090D01*
G03X6187740Y6303000I-36630J27410D01*
G01Y6363000D01*
G03X6178620Y6390410I-45750J0D01*
G02Y6402590I8130J6090D01*
G03X6185650Y6416340I-36626J27398D01*
G01X6202910Y6471500D01*
X6251480Y6520070D01*
X6264710Y6514690D01*
X6320530Y6458860D01*
X6360740D01*
G02X6375110Y6424170I1J-20321D01*
G01X6373400Y6422460D01*
Y6067550D01*
X6496850Y5944100D01*
X6746850D01*
X6774100Y5916850D01*
Y5711810D01*
G03X6753780Y5660000I55890J-51810D01*
G03X6823890Y5584030I76215J0D01*
G03X6823780Y5580000I76108J-4094D01*
G03X6894560Y5503970I76225J0D01*
G02X6903970Y5494560I-720J-10130D01*
G03X6980000Y5423780I76030J5445D01*
G03X7056220Y5500000I0J76220D01*
G03X7035900Y5551810I-76210J0D01*
G01Y6121330D01*
G03X7057660Y6160280I-23980J38950D01*
G01Y6251720D01*
G03X7047400Y6280590I-45748J0D01*
G01X7037340Y6292950D01*
Y6304550D01*
G02X7072030Y6318920I20321J1D01*
G01X7204100Y6186850D01*
Y4836850D01*
X7513040Y4527910D01*
G02X7498670Y4493220I-14369J-14369D01*
G01X7165830D01*
X6845900Y4813150D01*
Y5403140D01*
X6263140Y5985900D01*
X5533150D01*
X5529090Y5989960D01*
G02X5537220Y6023670I14369J14370D01*
G03X5590020Y6096200I-23416J72530D01*
G03X5587510Y6115600I-76227J0D01*
G01X5586200Y6120590D01*
X5595000Y6131410D01*
G03X5605260Y6160280I-35488J28870D01*
G01Y6251720D01*
G03X5559520Y6297460I-45740J0D01*
G01X5468080D01*
G03X5439210Y6287200I0J-45748D01*
G01X5426850Y6277140D01*
X5415100D01*
X5413170Y6277980D01*
G03X5395000Y6281740I-18162J-41982D01*
G01X5235900D01*
Y6384260D01*
X5395000D01*
G03X5440740Y6430000I0J45740D01*
G01Y6490000D01*
G03X5440530Y6494400I-45741J22D01*
G02X5458500Y6516550I20225J1956D01*
G03X5547400Y6548560I-22509J201968D01*
G37*
G36*
G01X5326570Y5977750D02*
X5395000Y6049000D01*
X5320000Y6081540D01*
X5245000Y6049000D01*
X5313430Y5977750D01*
G03X5326570I6570J7750D01*
G37*
G36*
G01X5216690Y6454400D02*
X5245000Y6430000D01*
X5322540Y6460000D01*
X5245000Y6490000D01*
X5216690Y6465600D01*
G03Y6454400I8480J-5600D01*
G37*
G36*
G01X5424700Y6209840D02*
X5395000Y6236000D01*
X5313650Y6206000D01*
X5395000Y6176000D01*
X5424700Y6202160D01*
G03Y6209840I-25110J3840D01*
G37*
G36*
G01X5524110Y6116760D02*
X5559520Y6160280D01*
X5513800Y6212350D01*
X5468080Y6160280D01*
X5503490Y6116760D01*
G03X5524110I10310J23210D01*
G37*
G36*
G01X5424560Y6195690D02*
X5468080Y6160280D01*
X5520150Y6206000D01*
X5468080Y6251720D01*
X5424560Y6216310D01*
G03Y6195690I23210J-10310D01*
G37*
G36*
G01X5616510Y6890760D02*
X5651920Y6934280D01*
X5606200Y6986350D01*
X5560480Y6934280D01*
X5595890Y6890760D01*
G03X5616510I10310J23210D01*
G37*
G36*
G01X6023150Y1594100D02*
X6037010D01*
G02X6051350Y1559380I4J-20320D01*
G03X5989260Y1410000I148649J-149380D01*
G03X6200000Y1199260I210740J0D01*
G03X6250930Y1205510I-13J210738D01*
G02X6276160Y1185790I4909J-19719D01*
G01Y1054210D01*
G02X6250930Y1034490I-20321J-1D01*
G03X6200000Y1040740I-50943J-204488D01*
G03Y619260I0J-210740D01*
G03X6410120Y813870I0J210738D01*
G02X6444750Y826680I20260J-1556D01*
G01X6456160Y815270D01*
Y555270D01*
X6604260Y407170D01*
Y265000D01*
G03X6604490Y260420I45740J1D01*
G01X6604540Y259910D01*
Y249240D01*
X6115250D01*
X5779730Y584760D01*
X5779720Y588960D01*
G03X5728900Y639720I-50820J-60D01*
G01X5713300D01*
G02X5706120Y657060I5J10159D01*
G01X5905900Y856850D01*
Y1476850D01*
X6023150Y1594100D01*
G37*
G36*
G01X5675900Y2231590D02*
X5773480D01*
G02X5787850Y2196900I1J-20321D01*
G01X5728740Y2137790D01*
Y2037790D01*
X5710590Y2019640D01*
G02X5675900Y2034010I-14369J14369D01*
G01Y2231590D01*
G37*
G36*
G01X5869680Y2189520D02*
X5890000D01*
X5891800Y2221800D01*
X5859520Y2220000D01*
Y2199680D01*
G03X5869680Y2189520I10160J0D01*
G37*
G36*
G01X5997180Y2184080D02*
X6011550Y2198450D01*
X5990000Y2222540D01*
X5968450Y2198450D01*
X5982820Y2184080D01*
G03X5997180I7180J7180D01*
G37*
G36*
G01X5897180Y2014080D02*
X5911550Y2028450D01*
X5890000Y2052540D01*
X5868450Y2028450D01*
X5882820Y2014080D01*
G03X5897180I7180J7180D01*
G37*
G36*
G01X6040320Y3200480D02*
X6020000D01*
X6018200Y3168200D01*
X6050480Y3170000D01*
Y3190320D01*
G03X6040320Y3200480I-10160J0D01*
G37*
G36*
G01X5989520Y3290320D02*
Y3270000D01*
X6021800Y3268200D01*
X6020000Y3300480D01*
X5999680D01*
G03X5989520Y3290320I0J-10160D01*
G37*
G36*
G01X6072820Y3465920D02*
X6058450Y3451550D01*
X6080000Y3427460D01*
X6101550Y3451550D01*
X6087180Y3465920D01*
G03X6072820I-7180J-7180D01*
G37*
G36*
G01X5979520Y3520320D02*
Y3500000D01*
X6011800Y3498200D01*
X6010000Y3530480D01*
X5989680D01*
G03X5979520Y3520320I0J-10160D01*
G37*
G36*
G01X6002820Y3635920D02*
X5988450Y3621550D01*
X6010000Y3597460D01*
X6031550Y3621550D01*
X6017180Y3635920D01*
G03X6002820I-7180J-7180D01*
G37*
G36*
G01X5839520Y3750320D02*
Y3730000D01*
X5871800Y3728200D01*
X5870000Y3760480D01*
X5849680D01*
G03X5839520Y3750320I0J-10160D01*
G37*
G36*
G01X5655920Y4483520D02*
X5641550Y4497890D01*
X5617460Y4476340D01*
X5641550Y4454790D01*
X5655920Y4469160D01*
G03Y4483520I-7180J7180D01*
G37*
G36*
G01Y4336200D02*
X5641550Y4350570D01*
X5617460Y4329020D01*
X5641550Y4307470D01*
X5655920Y4321840D01*
G03Y4336200I-7180J7180D01*
G37*
G36*
G01Y4262540D02*
X5641550Y4276910D01*
X5617460Y4255360D01*
X5641550Y4233810D01*
X5655920Y4248180D01*
G03Y4262540I-7180J7180D01*
G37*
G36*
G01Y4409860D02*
X5641550Y4424230D01*
X5617460Y4402680D01*
X5641550Y4381130D01*
X5655920Y4395500D01*
G03Y4409860I-7180J7180D01*
G37*
G36*
G01Y4557180D02*
X5641550Y4571550D01*
X5617460Y4550000D01*
X5641550Y4528450D01*
X5655920Y4542820D01*
G03Y4557180I-7180J7180D01*
G37*
G36*
G01X6054080Y5532830D02*
X6068450Y5518460D01*
X6092540Y5540010D01*
X6068450Y5561560D01*
X6054080Y5547190D01*
G03Y5532830I7180J-7180D01*
G37*
G36*
G01Y5432830D02*
X6068450Y5418460D01*
X6092540Y5440010D01*
X6068450Y5461560D01*
X6054080Y5447190D01*
G03Y5432830I7180J-7180D01*
G37*
G36*
G01Y5332830D02*
X6068450Y5318460D01*
X6092540Y5340010D01*
X6068450Y5361560D01*
X6054080Y5347190D01*
G03Y5332830I7180J-7180D01*
G37*
G36*
G01Y5232830D02*
X6068450Y5218460D01*
X6092540Y5240010D01*
X6068450Y5261560D01*
X6054080Y5247190D01*
G03Y5232830I7180J-7180D01*
G37*
G36*
G01Y5732830D02*
X6068450Y5718460D01*
X6092540Y5740010D01*
X6068450Y5761560D01*
X6054080Y5747190D01*
G03Y5732830I7180J-7180D01*
G37*
G36*
G01Y5632830D02*
X6068450Y5618460D01*
X6092540Y5640010D01*
X6068450Y5661560D01*
X6054080Y5647190D01*
G03Y5632830I7180J-7180D01*
G37*
G36*
G01X5962300Y6329160D02*
X5992000Y6303000D01*
X6073350Y6333000D01*
X5992000Y6363000D01*
X5962300Y6336840D01*
G03Y6329160I25110J-3840D01*
G37*
G36*
G01X5961310Y6345560D02*
X5905720Y6391920D01*
X5853740Y6347240D01*
X5905720Y6300480D01*
X5956920Y6314770D01*
G03X5961310Y6345560I-17689J18230D01*
G37*
G36*
G01X5962300Y6202160D02*
X5992000Y6176000D01*
X6073350Y6206000D01*
X5992000Y6236000D01*
X5962300Y6209840D01*
G03Y6202160I25110J-3840D01*
G37*
G36*
G01X5956460Y6223680D02*
X5905720Y6239520D01*
X5853730Y6192820D01*
X5905720Y6148080D01*
X5960380Y6193570D01*
G03X5956460Y6223680I-22151J12426D01*
G37*
G36*
G01X5787050Y6239010D02*
X5814280Y6148080D01*
X5864580Y6189400D01*
X5905720Y6239520D01*
X5812440Y6264920D01*
G03X5787050Y6239010I0J-25395D01*
G37*
G36*
G01X6138450Y6536350D02*
X5992000Y6490000D01*
X6046020Y6445680D01*
X6142000Y6430000D01*
X6167400Y6511200D01*
G03X6138450Y6536350I-25399J0D01*
G37*
G36*
G01X5855260Y7019260D02*
X6146560D01*
X6179260Y6986560D01*
Y6740000D01*
G03X6182910Y6715980I80743J-18D01*
G01X6184490Y6710930D01*
X6178900Y6703710D01*
G03X6169340Y6675720I36182J-27985D01*
G01Y6639150D01*
X6130290Y6600090D01*
X6117670Y6612710D01*
X6121420Y6619420D01*
G03X6147220Y6718520I-177426J99100D01*
G03X5944000Y6921740I-203220J0D01*
G03X5881740Y6911970I-7J-203221D01*
G02X5855210Y6932220I-6230J19342D01*
G03X5855260Y6934280I-45688J2140D01*
G01Y7019260D01*
G37*
G36*
G01X5774110Y6890760D02*
X5809520Y6934280D01*
X5763800Y6986350D01*
X5718080Y6934280D01*
X5753490Y6890760D01*
G03X5774110I10310J23210D01*
G37*
G36*
G01X7008950Y2954260D02*
X8056150D01*
G02X8070520Y2919570I1J-20321D01*
G01X7799500Y2648560D01*
X7792560Y2653230D01*
G03X7750000Y2666220I-42560J-63226D01*
G03X7673780Y2590000I0J-76220D01*
G03X7705590Y2528050I76229J0D01*
G02X7708120Y2497170I-11840J-16514D01*
G01X7302200Y2091260D01*
X7298510Y2090940D01*
G03X7295400Y2090610I6486J-75942D01*
G01X7290460Y2089990D01*
X7279760Y2100690D01*
X7625900Y2446840D01*
Y2798190D01*
G03X7646220Y2850000I-55890J51810D01*
G03X7570000Y2926220I-76220J0D01*
G03X7530000Y2914880I0J-76217D01*
G03X7450000I-40000J-64877D01*
G03X7410000Y2926220I-40000J-64877D01*
G03X7333780Y2850000I0J-76220D01*
G03X7354100Y2798190I76210J0D01*
G01Y2453150D01*
X7166850Y2265900D01*
X6785630D01*
X6455840Y1936120D01*
G02X6424090Y1939960I-14370J14365D01*
G03X6325000Y1995820I-99090J-59958D01*
G03X6209180Y1880000I0J-115820D01*
G03X6218600Y1834250I115807J0D01*
G02X6199930Y1805900I-18666J-8030D01*
G01X6194520D01*
G02X6175990Y1834560I-2J20319D01*
G03X6185740Y1880000I-100991J45436D01*
G03X6135990Y1972430I-110737J0D01*
G02X6132810Y2003760I11191J16962D01*
G01X6433150Y2304100D01*
X7113150D01*
X7255900Y2446850D01*
Y2798190D01*
G03X7276220Y2850000I-55890J51810D01*
G03X7123780I-76220J0D01*
G03X7144100Y2798190I76210J0D01*
G01Y2493150D01*
X7106560Y2455610D01*
X7098270Y2463900D01*
X7097550Y2465280D01*
G03X7087520Y2479990I-67556J-35288D01*
G03X7106220Y2530000I-57522J50010D01*
G03X7036490Y2605940I-76217J0D01*
G01X7032800Y2606260D01*
X7003830Y2635220D01*
X6738960D01*
G02X6724590Y2669910I0J20321D01*
G01X7008950Y2954260D01*
G37*
G36*
G01X6504080Y2422820D02*
X6518450Y2408450D01*
X6542540Y2430000D01*
X6518450Y2451550D01*
X6504080Y2437180D01*
G03Y2422820I7180J-7180D01*
G37*
G36*
G01X6609520Y2450320D02*
Y2430000D01*
X6641800Y2428200D01*
X6640000Y2460480D01*
X6619680D01*
G03X6609520Y2450320I0J-10160D01*
G37*
G36*
G01X6625900Y3676000D02*
G02X6660590Y3690370I20321J1D01*
G01X6786860Y3564100D01*
X8278200D01*
G03X8330010Y3543780I51810J55890D01*
G03X8406230Y3620000I0J76220D01*
G03X8397640Y3655160I-76222J7D01*
G02X8418680Y3684630I18028J9375D01*
G03X8430010Y3683780I11351J75368D01*
G03X8452540Y3687180I19J76223D01*
G02X8478860Y3667770I6002J-19411D01*
G01Y3370530D01*
X8598960Y3250430D01*
G02X8584600Y3215740I-14364J-14371D01*
G01X6861050D01*
X6514610Y2869300D01*
G02X6483360Y2872370I-14364J14370D01*
G03X6472490Y2885270I-63364J-42363D01*
G02Y2914730I13992J14730D01*
G03X6493600Y2950200I-52496J55260D01*
G02X6516760Y2964930I19623J-5281D01*
G03X6530000Y2963770I13247J75059D01*
G03X6605940Y3033500I0J76217D01*
G01X6606260Y3037190D01*
X6625900Y3056840D01*
Y3676000D01*
G37*
G36*
G01X6389520Y2850320D02*
Y2830000D01*
X6421800Y2828200D01*
X6420000Y2860480D01*
X6399680D01*
G03X6389520Y2850320I0J-10160D01*
G37*
G36*
G01X6412820Y3375920D02*
X6398450Y3361550D01*
X6420000Y3337460D01*
X6441550Y3361550D01*
X6427180Y3375920D01*
G03X6412820I-7180J-7180D01*
G37*
G36*
G01Y3005920D02*
X6398450Y2991550D01*
X6420000Y2967460D01*
X6441550Y2991550D01*
X6427180Y3005920D01*
G03X6412820I-7180J-7180D01*
G37*
G36*
G01X6550320Y3070470D02*
X6530000D01*
X6528200Y3038190D01*
X6560480Y3039990D01*
Y3060310D01*
G03X6550320Y3070470I-10160J0D01*
G37*
G36*
G01X6440320Y3170470D02*
X6420000D01*
X6418200Y3138190D01*
X6450480Y3139990D01*
Y3160310D01*
G03X6440320Y3170470I-10160J0D01*
G37*
G36*
G01X6389520Y3260310D02*
Y3239990D01*
X6421800Y3238190D01*
X6420000Y3270470D01*
X6399680D01*
G03X6389520Y3260310I0J-10160D01*
G37*
G36*
G01X6285560Y4674100D02*
X6416840D01*
X7006840Y4084100D01*
X8995510D01*
G03X9047320Y4063780I51810J55890D01*
G03X9123540Y4140000I0J76220D01*
G03X9114050Y4176830I-76212J0D01*
G03X9123540Y4213660I-66722J36830D01*
G03X9113290Y4251830I-76218J-6D01*
G03X9123540Y4290000I-65968J38176D01*
G03X9114050Y4326830I-76212J0D01*
G03Y4400490I-66722J36830D01*
G03X9123490Y4434530I-66729J36834D01*
G02X9143790Y4454100I20306J-749D01*
G01X9176850D01*
X9264100Y4366850D01*
Y3716850D01*
X9553740Y3427200D01*
X9554060Y3423510D01*
G03X9630000Y3353780I75940J6487D01*
G03X9643990Y3355080I-27J76217D01*
G01X9649260Y3356060D01*
X9669490Y3335830D01*
G02X9655120Y3301140I-14370J-14369D01*
G01X8749470D01*
X8621140Y3429470D01*
Y3829470D01*
X8419470Y4031140D01*
X6879470D01*
X6271200Y4639410D01*
G02X6285560Y4674100I14364J14371D01*
G37*
G36*
G01X6710310Y6084600D02*
X6682000Y6109000D01*
X6604460Y6079000D01*
X6682000Y6049000D01*
X6710310Y6073400D01*
G03Y6084600I-8480J5600D01*
G37*
G36*
G01X6463440Y7279260D02*
X8866560D01*
X9055390Y7090430D01*
G02X9041020Y7055740I-14368J-14369D01*
G01X8401050D01*
X8154260Y6808950D01*
Y5009330D01*
G02X8136920Y5002150I-10159J5D01*
G01X8125900Y5013160D01*
Y7143150D01*
X8043150Y7225900D01*
X7971810D01*
G03X7920000Y7246220I-51810J-55890D01*
G03X7871470Y7228770I0J-76208D01*
G02X7858530I-6470J7837D01*
G03X7810000Y7246220I-48530J-58758D01*
G03X7761660Y7228930I0J-76220D01*
G03X7713310Y7246220I-48341J-58933D01*
G03X7639410Y7188680I0J-76226D01*
G02X7612880Y7174520I-19699J4975D01*
G03X7587270Y7178950I-25606J-71791D01*
G03X7511050Y7102730I0J-76220D01*
G03X7569600Y7028590I76216J0D01*
G01X7577410Y7026730D01*
Y6646340D01*
G02X7558400Y6626060I-20320J-2D01*
G03X7511500Y6605900I4912J-76060D01*
G01X7361810D01*
G03X7332810Y6622730I-51821J-55893D01*
G01X7330430Y6623470D01*
X7321480Y6632420D01*
X7335900Y6646850D01*
Y6793150D01*
X7273150Y6855900D01*
X7267410D01*
G02X7253040Y6890590I-1J20321D01*
G01X7316200Y6953740D01*
X7319890Y6954060D01*
G03X7389530Y7030000I-6585J75940D01*
G03X7313310Y7106220I-76220J0D01*
G03X7266660Y7090270I8J-76217D01*
G03X7220000Y7106220I-46660J-60274D01*
G03X7144060Y7036490I0J-76217D01*
G01X7143740Y7032800D01*
X6953060Y6842110D01*
Y6647890D01*
X7005750Y6595200D01*
G02X6985550Y6561360I-14366J-14373D01*
G01X6959480Y6569170D01*
X6887510Y6641140D01*
X6500530D01*
X6460530Y6601140D01*
X6379470D01*
X6369770Y6610840D01*
X6350910Y6686750D01*
G03X6341990Y6704600I-44390J-11029D01*
G01X6335930Y6712040D01*
X6337450Y6717170D01*
G03X6340740Y6740000I-77452J22814D01*
G01Y7053440D01*
X6289180Y7105000D01*
X6463440Y7279260D01*
G37*
G36*
G01X6503690Y6454400D02*
X6532000Y6430000D01*
X6609540Y6460000D01*
X6532000Y6490000D01*
X6503690Y6465600D01*
G03Y6454400I8480J-5600D01*
G37*
G36*
G01X6710310Y6465600D02*
X6682000Y6490000D01*
X6604460Y6460000D01*
X6682000Y6430000D01*
X6710310Y6454400D01*
G03Y6465600I-8480J5600D01*
G37*
G36*
G01X6499850Y6204170D02*
X6532000Y6176000D01*
X6609540Y6205900D01*
X6532000Y6236000D01*
X6500680Y6216860D01*
G03X6499850Y6204170I7491J-6862D01*
G37*
G36*
G01X6710310Y6211600D02*
X6682000Y6236000D01*
X6604460Y6206000D01*
X6682000Y6176000D01*
X6710310Y6200400D01*
G03Y6211600I-8480J5600D01*
G37*
G36*
G01X6503690Y6327400D02*
X6532000Y6303000D01*
X6609540Y6333000D01*
X6532000Y6363000D01*
X6503690Y6338600D01*
G03Y6327400I8480J-5600D01*
G37*
G36*
G01X6331920Y6573480D02*
X6306520Y6675720D01*
X6256810Y6634940D01*
X6215080Y6584280D01*
X6303540Y6548260D01*
G03X6331920Y6573480I2984J25220D01*
G37*
G36*
G01X6249200Y6719820D02*
X6215080Y6675720D01*
X6260880Y6623650D01*
X6306520Y6675720D01*
X6270500Y6719960D01*
G03X6249200Y6719820I-10498J-23130D01*
G37*
G36*
G01X8692180Y2682180D02*
X9802850D01*
X10347490Y2137540D01*
Y986540D01*
X10074100Y713150D01*
Y371810D01*
G03X10053780Y320000I55890J-51810D01*
G03X10112210Y245880I76227J0D01*
G01X10120000Y244020D01*
Y100000D01*
X10060000Y40000D01*
X7160000D01*
X6930000Y270000D01*
X6920000D01*
Y370000D01*
X7090000Y540000D01*
X7380000Y250000D01*
X9770000D01*
X9880000Y360000D01*
Y740000D01*
X10210000Y1070000D01*
Y1699660D01*
X10215440Y1702520D01*
G03Y1837480I-35441J67480D01*
G01X10210000Y1840340D01*
Y1910960D01*
X10215440Y1913820D01*
G03Y2048780I-35441J67480D01*
G01X10210000Y2051640D01*
Y2100000D01*
X9760000Y2550000D01*
X8700000D01*
X8670000Y2580000D01*
Y2660000D01*
X8692180Y2682180D01*
G37*
G36*
G01X8311230D02*
X8624260D01*
Y2561050D01*
X8681050Y2504260D01*
X8734480D01*
G02X8754590Y2481000I4J-20320D01*
G03X8753790Y2469990I75420J-11014D01*
G03X8830010Y2393770I76220J0D01*
G03X8855760Y2398250I4J76221D01*
G01X8857430Y2398850D01*
X9570540D01*
X9698860Y2270530D01*
Y2156530D01*
G02X9678850Y2136210I-20320J-2D01*
G03X9628190Y2115900I1152J-76210D01*
G01X8921810D01*
G03X8870000Y2136220I-51810J-55890D01*
G03X8815850Y2113640I0J-76220D01*
G02X8787040Y2113570I-14440J14295D01*
G01X8581140Y2319470D01*
Y2542580D01*
X8581740Y2544250D01*
G03X8586220Y2570000I-71741J25746D01*
G03X8433780I-76220J0D01*
G03X8438260Y2544250I76221J-4D01*
G01X8438860Y2542580D01*
Y2260530D01*
X8639590Y2059800D01*
G02X8632400Y2042460I-7186J-7181D01*
G01X8628080D01*
G03X8597370Y2030610I7J-45737D01*
G01X8568180Y2004170D01*
X8554860Y2015650D01*
G03X8525000Y2026740I-29860J-34654D01*
G01X8375000D01*
G03X8345060Y2015580I0J-45741D01*
G01X8333880Y2005900D01*
X8316850D01*
X8214100Y1903150D01*
Y1731810D01*
G03X8193780Y1680000I55890J-51810D01*
G03X8265090Y1603940I76218J0D01*
G02X8284100Y1583660I-1310J-20278D01*
G01Y1431980D01*
X8278180Y1429260D01*
G03X8257640Y1415380I31836J-69249D01*
G01X8250460Y1408600D01*
X8153150Y1505900D01*
X7826850D01*
X7769330Y1448380D01*
G02X7735170Y1458110I-14374J14367D01*
G03X7530000Y1620740I-205170J-48104D01*
G03X7323970Y1454280I0J-210733D01*
G02X7290910Y1443100I-19866J4275D01*
G03X7220000Y1469240I-70910J-83109D01*
G03Y1250760I0J-109240D01*
G03X7313440Y1303410I0J109241D01*
G02X7348340Y1303180I17381J-10526D01*
G03X7530000Y1199260I181660J106818D01*
G03X7679380Y1261350I0J210739D01*
G02X7714100Y1247010I14400J-14336D01*
G01Y992990D01*
G02X7679380Y978650I-20320J-4D01*
G03X7530000Y1040740I-149380J-148649D01*
G03Y619260I0J-210740D01*
G03X7679380Y681350I0J210739D01*
G02X7714100Y667010I14400J-14336D01*
G01Y295740D01*
X7398950D01*
X7119240Y575450D01*
Y589570D01*
X7122240Y592550D01*
G03X7135740Y625000I-32250J32450D01*
G01Y895000D01*
G03X7090000Y940740I-45740J0D01*
G01X6930000D01*
G03X6884260Y895000I0J-45740D01*
G01Y625000D01*
G03X6900760Y589830I45733J0D01*
G01Y570170D01*
G03X6884260Y535000I29233J-35170D01*
G01Y398950D01*
X6873080Y387770D01*
G02X6855740Y394950I-7181J7186D01*
G01Y535000D01*
G03X6843490Y566160I-45742J5D01*
G02Y593840I14872J13840D01*
G03X6855740Y625000I-33492J31155D01*
G01Y895000D01*
G03X6810000Y940740I-45740J0D01*
G01X6757830D01*
X6747320Y951250D01*
G02X6762940Y985900I14368J14369D01*
G03X6770000Y985680I7089J114099D01*
G03X6854910Y1023450I0J114327D01*
G02X6885090I15090J-13605D01*
G03X6970000Y985680I84910J76557D01*
G03Y1214320I0J114320D01*
G03X6885090Y1176550I0J-114327D01*
G02X6854910I-15090J13605D01*
G03X6770000Y1214320I-84910J-76557D01*
G03X6756550Y1213530I-33J-114322D01*
G02X6733840Y1233700I-2392J20177D01*
G01Y1248430D01*
X6745070D01*
X6746120Y1248200D01*
G03X6770000Y1245680I23871J111801D01*
G03X6854910Y1283450I0J114327D01*
G02X6885090I15090J-13605D01*
G03X6970000Y1245680I84910J76557D01*
G03Y1474320I0J114320D01*
G03X6885090Y1436550I0J-114327D01*
G02X6854910I-15090J13605D01*
G03X6770000Y1474320I-84910J-76557D01*
G03X6756390Y1473510I-25J-114322D01*
G02X6733690Y1494910I-2420J20172D01*
G03X6733840Y1500000I-83692J5014D01*
G01Y1750270D01*
X6747710Y1764150D01*
X6751580Y1764370D01*
G03X6860820Y1880000I-6577J115630D01*
G03X6804320Y1979480I-115828J0D01*
G02X6800350Y2011300I10402J17455D01*
G01X6863150Y2074100D01*
X7216590D01*
G02X7235200Y2045620I1J-20319D01*
G03X7230380Y2030560I69794J-30639D01*
G02X7207040Y2014680I-19892J4144D01*
G03X7194090Y2015790I-12960J-75109D01*
G03X7117870Y1939570I0J-76220D01*
G03X7127360Y1902740I76212J0D01*
G03X7123750Y1895260I66736J-36819D01*
G02X7104340Y1897560I-9378J3909D01*
G03X6995000Y1990740I-109340J-17561D01*
G03Y1769260I0J-110740D01*
G03X7092490Y1827470I0J110743D01*
G02X7128000Y1827950I17889J-9640D01*
G03X7194090Y1789690I66090J37952D01*
G03X7245900Y1810010I0J76210D01*
G01X7439060D01*
X8311230Y2682180D01*
G37*
G36*
G01X6999510Y2450320D02*
Y2430000D01*
X7031790Y2428200D01*
X7029990Y2460480D01*
X7009670D01*
G03X6999510Y2450320I0J-10160D01*
G37*
G36*
G01X6999520Y2550320D02*
Y2530000D01*
X7031800Y2528200D01*
X7030000Y2560480D01*
X7009680D01*
G03X6999520Y2550320I0J-10160D01*
G37*
G36*
G01X6972820Y5535920D02*
X6958450Y5521550D01*
X6980000Y5497460D01*
X7001550Y5521550D01*
X6987180Y5535920D01*
G03X6972820I-7180J-7180D01*
G37*
G36*
G01X6892820Y5615920D02*
X6878450Y5601550D01*
X6900000Y5577460D01*
X6921550Y5601550D01*
X6907180Y5615920D01*
G03X6892820I-7180J-7180D01*
G37*
G36*
G01X6822820Y5695920D02*
X6808450Y5681550D01*
X6830000Y5657460D01*
X6851550Y5681550D01*
X6837180Y5695920D01*
G03X6822820I-7180J-7180D01*
G37*
G36*
G01X6724510Y6453760D02*
X6768080Y6414280D01*
X6816340Y6460000D01*
X6768080Y6505720D01*
X6724510Y6466240D01*
G03Y6453760I8020J-6240D01*
G37*
G36*
G01Y6199760D02*
X6768080Y6160280D01*
X6816340Y6206000D01*
X6768080Y6251720D01*
X6724510Y6212240D01*
G03Y6199760I8020J-6240D01*
G37*
G36*
G01X6895080Y6507560D02*
X6920480Y6414280D01*
X6970600Y6455420D01*
X7011920Y6505720D01*
X6920990Y6532950D01*
G03X6895080Y6507560I-515J-25390D01*
G37*
G36*
G01X6976510Y6370760D02*
X7011920Y6414280D01*
X6966200Y6466350D01*
X6920480Y6414280D01*
X6955890Y6370760D01*
G03X6976510I10310J23210D01*
G37*
G36*
G01X6955890Y6295240D02*
X6920480Y6251720D01*
X6966200Y6199650D01*
X7011920Y6251720D01*
X6976510Y6295240D01*
G03X6955890I-10310J-23210D01*
G37*
G36*
G01X7140280Y6760570D02*
X7119960Y6760470D01*
X7118210Y6728200D01*
X7150480Y6730000D01*
Y6750410D01*
G03X7140280Y6760570I-10160J0D01*
G37*
G36*
G01X7230010Y1873090D02*
X7215640Y1887460D01*
X7191550Y1865910D01*
X7215640Y1844360D01*
X7230010Y1858730D01*
G03Y1873090I-7180J7180D01*
G37*
G36*
G01Y1946750D02*
X7215640Y1961120D01*
X7191550Y1939570D01*
X7215640Y1918020D01*
X7230010Y1932390D01*
G03Y1946750I-7180J7180D01*
G37*
G36*
G01X7325320Y2045480D02*
X7305000D01*
X7303200Y2013200D01*
X7335480Y2015000D01*
Y2035320D01*
G03X7325320Y2045480I-10160J0D01*
G37*
G36*
G01X7577180Y2814080D02*
X7591550Y2828450D01*
X7570000Y2852540D01*
X7548450Y2828450D01*
X7562820Y2814080D01*
G03X7577180I7180J7180D01*
G37*
G36*
G01X7497180D02*
X7511550Y2828450D01*
X7490000Y2852540D01*
X7468450Y2828450D01*
X7482820Y2814080D01*
G03X7497180I7180J7180D01*
G37*
G36*
G01X7417180D02*
X7431550Y2828450D01*
X7410000Y2852540D01*
X7388450Y2828450D01*
X7402820Y2814080D01*
G03X7417180I7180J7180D01*
G37*
G36*
G01X7207180D02*
X7221550Y2828450D01*
X7200000Y2852540D01*
X7178450Y2828450D01*
X7192820Y2814080D01*
G03X7207180I7180J7180D01*
G37*
G36*
G01X7845900Y5281810D02*
Y6965990D01*
G02X7880590Y6980360I20321J1D01*
G01X7894100Y6966850D01*
Y4926850D01*
X8100360Y4720590D01*
G02X8085990Y4685900I-14369J-14369D01*
G01X7682860D01*
X7435900Y4932860D01*
Y6282860D01*
X7275900Y6442860D01*
Y6454450D01*
G02X7299120Y6474560I20320J-1D01*
G03X7310000Y6473780I10876J75440D01*
G03X7361810Y6494100I0J76210D01*
G01X7511500D01*
G03X7558400Y6473940I51812J55900D01*
G02X7577410Y6453660I-1310J-20278D01*
G01Y5761810D01*
G03X7557090Y5710000I55890J-51810D01*
G03X7633310Y5633780I76220J0D01*
G03X7637340Y5633890I-64J76218D01*
G03X7713310Y5563780I75970J6105D01*
G01X7713680D01*
G02X7734100Y5543460I101J-20319D01*
G01Y5281810D01*
G03X7713780Y5230000I55890J-51810D01*
G03X7866220I76220J0D01*
G03X7845900Y5281810I-76210J0D01*
G37*
G36*
G01X7626130Y5745920D02*
X7611760Y5731550D01*
X7633310Y5707460D01*
X7654860Y5731550D01*
X7640490Y5745920D01*
G03X7626130I-7180J-7180D01*
G37*
G36*
G01X7345920Y6557180D02*
X7331550Y6571550D01*
X7307460Y6550000D01*
X7331550Y6528450D01*
X7345920Y6542820D01*
G03Y6557180I-7180J7180D01*
G37*
G36*
G01X7527390Y6542820D02*
X7541760Y6528450D01*
X7565850Y6550000D01*
X7541760Y6571550D01*
X7527390Y6557180D01*
G03Y6542820I7180J-7180D01*
G37*
G36*
G01X7617750Y7082410D02*
Y7102730D01*
X7585470Y7104530D01*
X7587270Y7072250D01*
X7607590D01*
G03X7617750Y7082410I0J10160D01*
G37*
G36*
G01X7199680Y6999520D02*
X7220000D01*
X7221800Y7031800D01*
X7189520Y7030000D01*
Y7009680D01*
G03X7199680Y6999520I10160J0D01*
G37*
G36*
G01X7292990D02*
X7313310D01*
X7315110Y7031800D01*
X7282830Y7030000D01*
Y7009680D01*
G03X7292990Y6999520I10160J0D01*
G37*
G36*
G01X7192990Y6699520D02*
X7213310D01*
X7215110Y6731800D01*
X7182830Y6730000D01*
Y6709680D01*
G03X7192990Y6699520I10160J0D01*
G37*
G36*
G01X8917660Y2004100D02*
X9314440D01*
G02X9328800Y1969410I-4J-20319D01*
G01X9168860Y1809470D01*
Y687420D01*
X9168260Y685750D01*
G03X9163780Y660000I71741J-25746D01*
G03X9240000Y583780I76220J0D01*
G03X9265750Y588260I4J76221D01*
G01X9267420Y588860D01*
X9629470D01*
X9917000Y876390D01*
Y994570D01*
X9944340Y1027030D01*
G03X9955100Y1056500I-34977J29470D01*
G01Y1183500D01*
G03X9954400Y1191450I-45738J-21D01*
G01X9944690Y1246480D01*
X9946410Y1249610D01*
G03X9952040Y1271600I-40111J21985D01*
G01Y1377600D01*
G03X9906300Y1423340I-45740J0D01*
G01X9841300D01*
G03X9795560Y1377600I0J-45740D01*
G01Y1271600D01*
G03X9795580Y1270140I45741J-104D01*
G01X9795720Y1266010D01*
X9768920Y1236640D01*
X9756230Y1248220D01*
X9758820Y1254740D01*
G03X9762040Y1271600I-42530J16860D01*
G01Y1377600D01*
G03X9716300Y1423340I-45740J0D01*
G01X9655900D01*
Y1489160D01*
X9721700Y1496980D01*
G03X9762040Y1542400I-5400J45420D01*
G01Y1648400D01*
G03X9748860Y1680520I-45729J0D01*
G02X9753030Y1697340I7235J7133D01*
G03X9755750Y1698260I-23057J72650D01*
G01X9757420Y1698860D01*
X9786850D01*
X9799210Y1688800D01*
G03X9800830Y1687550I28744J35578D01*
G02X9803230Y1673750I-6055J-8162D01*
G03X9795560Y1648400I38057J-25350D01*
G01Y1542400D01*
G03X9841300Y1496660I45740J0D01*
G01X9906300D01*
G03X9933160Y1505380I0J45728D01*
G01X9940010Y1510350D01*
X9984950Y1467530D01*
G03X10016500Y1454900I31556J33107D01*
G01X10143500D01*
X10143800D01*
G02X10164260Y1434580I141J-20319D01*
G01Y1088950D01*
X9834260Y758950D01*
Y378950D01*
X9751050Y295740D01*
X7825900D01*
Y909980D01*
G02X7843860Y916490I10160J-2D01*
G01X7858850Y898540D01*
X7858860Y894870D01*
G03X7863180Y870590I71140J133D01*
G03X7904980Y818560I74323J16904D01*
G01X7906580Y817810D01*
X8029330Y695060D01*
X8103050D01*
X8115410Y685000D01*
G03X8144280Y674740I28870J35488D01*
G01X8235720D01*
G03X8264590Y685000I0J45748D01*
G01X8276950Y695060D01*
X8463050D01*
X8475410Y685000D01*
G03X8504280Y674740I28870J35488D01*
G01X8595720D01*
G03X8599580Y674900I37J45742D01*
G01X8603760Y675260D01*
X8627030Y655660D01*
G03X8656500Y644900I29470J34977D01*
G01X8783500D01*
G03X8812970Y655660I0J45737D01*
G01X8845430Y683000D01*
X8953610D01*
X9061140Y790530D01*
Y1082580D01*
X9061740Y1084250D01*
G03X9066220Y1110000I-71741J25746D01*
G03X8990000Y1186220I-76220J0D01*
G03X8919730Y1139530I0J-76224D01*
G02X8907700Y1133660I-9367J3935D01*
G03X8895720Y1135260I-11992J-44138D01*
G01X8804280D01*
G03X8801910Y1135200I-28J-45741D01*
G02X8791270Y1146280I-525J10145D01*
G03X8791460Y1150480I-45552J4165D01*
G01Y1241920D01*
G03X8781200Y1270790I-45748J0D01*
G01X8773710Y1280000D01*
X8774670Y1284710D01*
G03X8776220Y1300000I-74670J15293D01*
G03X8771740Y1325750I-76221J4D01*
G01X8771140Y1327420D01*
Y1609470D01*
X8755550Y1625060D01*
X8759340Y1631780D01*
G03X8763650Y1642260I-39820J22503D01*
G01X8781920Y1709360D01*
X8897340Y1824770D01*
Y1864050D01*
X8907400Y1876410D01*
G03X8917660Y1905280I-35488J28870D01*
G01Y2004100D01*
G37*
G36*
G01X8279240Y776510D02*
X8235720Y811920D01*
X8183650Y766200D01*
X8235720Y720480D01*
X8279240Y755890D01*
G03Y776510I-23210J10310D01*
G37*
G36*
G01X8100760Y755890D02*
X8144280Y720480D01*
X8196350Y766200D01*
X8144280Y811920D01*
X8100760Y776510D01*
G03Y755890I23210J-10310D01*
G37*
G36*
G01X8189810Y862540D02*
X8144280Y811920D01*
X8189720Y763040D01*
X8235720Y811920D01*
X8206740Y861150D01*
G03X8189810Y862540I-9238J-8719D01*
G37*
G36*
G01X8206480Y853380D02*
X8219040Y865960D01*
X8197500Y890680D01*
X8175960Y865960D01*
X8188520Y853380D01*
G03X8206480I8980J8980D01*
G37*
G36*
G01X8026470Y1394100D02*
X8106850D01*
X8197920Y1303020D01*
X8170390Y1272630D01*
G03X8158540Y1241920I33887J-30717D01*
G01Y1150480D01*
G03X8158730Y1146280I45742J-35D01*
G02X8148090Y1135200I-10115J-935D01*
G03X8145720Y1135260I-2342J-45681D01*
G01X8054280D01*
G03X8043990Y1134090I-11J-45741D01*
G02X8032260Y1147710I-2278J9899D01*
G03X8035430Y1164450I-42572J16732D01*
G01Y1283830D01*
G03X8023220Y1314940I-45738J0D01*
G01X8000220Y1339740D01*
X8002170Y1345470D01*
G03X8006220Y1370000I-72172J24515D01*
G03X8006160Y1372980I-76219J-44D01*
G02X8026470Y1394100I20305J800D01*
G37*
G36*
G01X8141360Y934170D02*
X8145720Y998080D01*
X8099290Y1046240D01*
X8055460Y998080D01*
X8125060Y928570D01*
G03X8141360Y934170I6401J7890D01*
G37*
G36*
G01X8124280Y972380D02*
X8109910Y958010D01*
X8131460Y933920D01*
X8153010Y958010D01*
X8138640Y972380D01*
G03X8124280I-7180J-7180D01*
G37*
G36*
G01X7923510Y1341170D02*
X7870310Y1283830D01*
X7930000Y1221600D01*
X7989690Y1283830D01*
X7936490Y1341170D01*
G03X7923510I-6490J-7820D01*
G37*
G36*
G01X7937180Y1334080D02*
X7951550Y1348450D01*
X7930000Y1372540D01*
X7908450Y1348450D01*
X7922820Y1334080D01*
G03X7937180I7180J7180D01*
G37*
G36*
G01X7942650Y899860D02*
X7989690Y956170D01*
X7930000Y1022210D01*
X7870310Y956170D01*
X7917350Y899860D01*
G03X7942650I12650J22030D01*
G37*
G36*
G01X7930000Y902180D02*
Y895000D01*
X7940390Y881850D01*
X7959040Y909040D01*
X7947960Y920140D01*
X7930000Y902180D01*
G37*
G36*
G01X7850310Y2470480D02*
X7829990D01*
X7828190Y2438200D01*
X7860470Y2440000D01*
Y2460320D01*
G03X7850310Y2470480I-10160J0D01*
G37*
G36*
G01X7785920Y2597180D02*
X7771550Y2611550D01*
X7747460Y2590000D01*
X7771550Y2568450D01*
X7785920Y2582820D01*
G03Y2597180I-7180J7180D01*
G37*
G36*
G01X7994070Y3822820D02*
X8008440Y3808450D01*
X8032530Y3830000D01*
X8008440Y3851550D01*
X7994070Y3837180D01*
G03Y3822820I7180J-7180D01*
G37*
G36*
G01X8094070Y3682820D02*
X8108440Y3668450D01*
X8132530Y3690000D01*
X8108440Y3711550D01*
X8094070Y3697180D01*
G03Y3682820I7180J-7180D01*
G37*
G36*
G01X7782820Y5265920D02*
X7768450Y5251550D01*
X7790000Y5227460D01*
X7811550Y5251550D01*
X7797180Y5265920D01*
G03X7782820I-7180J-7180D01*
G37*
G36*
G01X7706130Y5675920D02*
X7691760Y5661550D01*
X7713310Y5637460D01*
X7734860Y5661550D01*
X7720490Y5675920D01*
G03X7706130I-7180J-7180D01*
G37*
G36*
G01X7720490Y7134080D02*
X7734860Y7148450D01*
X7713310Y7172540D01*
X7691760Y7148450D01*
X7706130Y7134080D01*
G03X7720490I7180J7180D01*
G37*
G36*
G01X7789680Y7139520D02*
X7810000D01*
X7811800Y7171800D01*
X7779520Y7170000D01*
Y7149680D01*
G03X7789680Y7139520I10160J0D01*
G37*
G36*
G01X7870480Y7079680D02*
Y7100000D01*
X7838200Y7101800D01*
X7840000Y7069520D01*
X7860320D01*
G03X7870480Y7079680I0J10160D01*
G37*
G36*
G01X7997180Y7064080D02*
X8011550Y7078450D01*
X7990000Y7102540D01*
X7968450Y7078450D01*
X7982820Y7064080D01*
G03X7997180I7180J7180D01*
G37*
G36*
G01X7955920Y7177180D02*
X7941550Y7191550D01*
X7917460Y7170000D01*
X7941550Y7148450D01*
X7955920Y7162820D01*
G03Y7177180I-7180J7180D01*
G37*
G36*
G01X8457280Y1105900D02*
X8458820Y1094700D01*
X8458720Y1093550D01*
G03X8458540Y1089520I45559J-4054D01*
G01Y998080D01*
G03X8483250Y957460I45742J0D01*
G02X8489930Y926910I-9339J-18047D01*
G03X8473780Y880000I60068J-46915D01*
G03X8477140Y857620I76213J0D01*
G01X8478810Y852170D01*
X8472500Y845030D01*
X8463050Y837340D01*
X8276950D01*
X8270970Y842210D01*
X8265170Y852050D01*
X8267270Y856810D01*
G03X8273720Y887500I-69771J30686D01*
G03X8265130Y922650I-76211J0D01*
G02X8283160Y952340I18031J9370D01*
G01X8295720D01*
G03X8341460Y998080I0J45740D01*
G01Y1056210D01*
X8380590Y1095340D01*
X8457280Y1105900D01*
G37*
G36*
G01X8596630Y741070D02*
X8656500Y690640D01*
X8726350Y754140D01*
X8656500Y817640D01*
X8596630Y767210D01*
G03Y741070I21780J-13070D01*
G37*
G36*
G01X8460760Y755890D02*
X8504280Y720480D01*
X8556350Y766200D01*
X8504280Y811920D01*
X8460760Y776510D01*
G03Y755890I23210J-10310D01*
G37*
G36*
G01X8650250Y766550D02*
X8595720Y811920D01*
X8543720Y767170D01*
X8595720Y720480D01*
X8646400Y736530D01*
G03X8650250Y766550I-18310J17605D01*
G37*
G36*
G01X8542570Y855230D02*
X8504280Y811920D01*
X8550000Y763020D01*
X8595720Y811920D01*
X8557430Y855230D01*
G03X8542570I-7430J-10300D01*
G37*
G36*
G01X8558980Y845880D02*
X8571540Y858460D01*
X8550000Y883180D01*
X8528460Y858460D01*
X8541020Y845880D01*
G03X8558980I8980J8980D01*
G37*
G36*
G01X8545100Y1498860D02*
X8628860D01*
Y1327420D01*
X8628260Y1325750D01*
G03X8623780Y1300000I71741J-25746D01*
G03X8625330Y1284710I76220J3D01*
G01X8626290Y1280000D01*
X8618800Y1270790D01*
G03X8608540Y1241920I35488J-28870D01*
G01Y1150480D01*
G03X8608730Y1146280I45742J-35D01*
G02X8598090Y1135200I-10115J-935D01*
G03X8595720Y1135260I-2342J-45681D01*
G01X8504280D01*
G03X8501910Y1135200I-28J-45741D01*
G02X8491270Y1146280I-525J10145D01*
G03X8491460Y1150480I-45552J4165D01*
G01Y1241920D01*
G03X8479400Y1272870I-45744J0D01*
G01X8448400Y1306600D01*
Y1311020D01*
G03X8466220Y1360000I-58403J48980D01*
G03X8404170Y1434890I-76218J0D01*
G01X8395900Y1436460D01*
Y1494260D01*
X8525000D01*
G03X8543170Y1498020I8J45742D01*
G01X8545100Y1498860D01*
G37*
G36*
G01X8384900Y1291720D02*
X8354280Y1241920D01*
X8400210Y1193670D01*
X8445720Y1241920D01*
X8398890Y1292870D01*
G03X8384900Y1291720I-6393J-7899D01*
G37*
G36*
G01X8354550Y1137920D02*
X8445720Y1150480D01*
X8401750Y1198040D01*
X8354280Y1241920D01*
X8344120Y1148080D01*
G03X8354550Y1137920I10163J0D01*
G37*
G36*
G01X8400810Y1322910D02*
X8412670Y1339790D01*
X8389800Y1362530D01*
X8368450Y1338450D01*
X8385320Y1321580D01*
G03X8400810Y1322910I7185J7181D01*
G37*
G36*
G01X8639290Y1050040D02*
X8595720Y1089520D01*
X8547460Y1043800D01*
X8595720Y998080D01*
X8639290Y1037560D01*
G03Y1050040I-8020J6240D01*
G37*
G36*
G01X8726470Y940260D02*
X8745720Y998080D01*
X8699560Y1046300D01*
X8654280Y998080D01*
X8710970Y937250D01*
G03X8726470Y940260I6531J7781D01*
G37*
G36*
G01X8610710Y1037560D02*
X8654280Y998080D01*
X8702540Y1043800D01*
X8654280Y1089520D01*
X8610710Y1050040D01*
G03Y1037560I8020J-6240D01*
G37*
G36*
G01X8789290Y1050040D02*
X8745720Y1089520D01*
X8697460Y1043800D01*
X8745720Y998080D01*
X8789290Y1037560D01*
G03Y1050040I-8020J6240D01*
G37*
G36*
G01X8710320Y973420D02*
X8695950Y959050D01*
X8717500Y934960D01*
X8739050Y959050D01*
X8724680Y973420D01*
G03X8710320I-7180J-7180D01*
G37*
G36*
G01X8323190Y1407560D02*
X8302880Y1387550D01*
X8308860Y1357730D01*
X8340480Y1360000D01*
Y1400320D01*
G03X8323190Y1407560I-10161J0D01*
G37*
G36*
G01X8243760Y1285490D02*
X8204280Y1241920D01*
X8250000Y1193660D01*
X8295720Y1241920D01*
X8256240Y1285490D01*
G03X8243760I-6240J-8020D01*
G37*
G36*
G01X8689690Y1285440D02*
X8654280Y1241920D01*
X8700000Y1189850D01*
X8745720Y1241920D01*
X8710310Y1285440D01*
G03X8689690I-10310J-23210D01*
G37*
G36*
G01X8374000Y1783840D02*
X8525000Y1794000D01*
X8459450Y1827730D01*
X8375000Y1854000D01*
X8363840Y1794170D01*
G03X8374000Y1783840I10160J-169D01*
G37*
G36*
G01X8584510Y1944760D02*
X8628080Y1905280D01*
X8676340Y1951000D01*
X8628080Y1996720D01*
X8584510Y1957240D01*
G03Y1944760I8020J-6240D01*
G37*
G36*
G01X8262820Y1715920D02*
X8248450Y1701550D01*
X8270000Y1677460D01*
X8291550Y1701550D01*
X8277180Y1715920D01*
G03X8262820I-7180J-7180D01*
G37*
G36*
G01X8554700Y1700840D02*
X8525000Y1727000D01*
X8443650Y1697000D01*
X8525000Y1667000D01*
X8554700Y1693160D01*
G03Y1700840I-25110J3840D01*
G37*
G36*
G01X8719010Y1772950D02*
X8628080Y1745720D01*
X8669400Y1695420D01*
X8719520Y1654280D01*
X8744920Y1747560D01*
G03X8719010Y1772950I-25395J0D01*
G37*
G36*
G01X8554700Y1573840D02*
X8525000Y1600000D01*
X8443650Y1570000D01*
X8525000Y1540000D01*
X8554700Y1566160D01*
G03Y1573840I-25110J3840D01*
G37*
G36*
G01X8345920Y1944070D02*
X8375000Y1921000D01*
X8452540Y1951030D01*
X8375000Y1981000D01*
X8345740Y1955670D01*
G03X8345920Y1944070I8430J-5671D01*
G37*
G36*
G01X8553310Y1956600D02*
X8525000Y1981000D01*
X8447460Y1951000D01*
X8525000Y1921000D01*
X8553310Y1945400D01*
G03Y1956600I-8480J5600D01*
G37*
G36*
G01X8199520Y3850320D02*
Y3830000D01*
X8231800Y3828200D01*
X8230000Y3860480D01*
X8209680D01*
G03X8199520Y3850320I0J-10160D01*
G37*
G36*
G01X8294090Y3612820D02*
X8308460Y3598450D01*
X8332550Y3620000D01*
X8308460Y3641550D01*
X8294090Y3627180D01*
G03Y3612820I7180J-7180D01*
G37*
G36*
G01X8392290Y3747210D02*
X8410630Y3736800D01*
X8432530Y3760310D01*
X8408460Y3781550D01*
X8390130Y3763220D01*
G03X8392290Y3747210I7183J-7182D01*
G37*
G36*
G01X9470000Y7000000D02*
X9670000D01*
X9680000Y6990000D01*
Y6700000D01*
X9690000Y6690000D01*
Y6579050D01*
X9596850Y6485900D01*
X9236840D01*
X9210940Y6460000D01*
X9040000D01*
X8800000Y6220000D01*
Y5400000D01*
X8980000Y5220000D01*
Y5070000D01*
X8940000Y5030000D01*
X8680000D01*
X8630000Y5080000D01*
Y6300000D01*
X8924260Y6594260D01*
X9438950D01*
X9485740Y6641050D01*
Y6671440D01*
X9485800Y6671980D01*
G03X9486220Y6680000I-75802J7991D01*
G03X9485800Y6688020I-76222J29D01*
G01X9485740Y6688560D01*
Y6768950D01*
X9470000Y6784690D01*
Y7000000D01*
G37*
G36*
G01X8420000Y7010000D02*
X9270000D01*
X9280000Y7000000D01*
X9400000D01*
Y6790000D01*
X9440000Y6750000D01*
Y6735590D01*
X9439270Y6733770D01*
G03X9433780Y6705370I70729J-28403D01*
G03X9439270Y6676970I76219J3D01*
G01X9440000Y6675150D01*
Y6660000D01*
X9420000Y6640000D01*
X8580000D01*
X8440000Y6500000D01*
Y5140000D01*
X8610000Y4970000D01*
X9470000D01*
X9890000Y4550000D01*
Y4187020D01*
G03Y4093000I60014J-47010D01*
G01Y3710000D01*
X10000000Y3600000D01*
X10222470D01*
G03X10280000Y3573780I57530J50004D01*
G03X10320000Y3585120I0J76217D01*
G03X10360000Y3573780I40000J64877D01*
G03X10417530Y3600000I0J76224D01*
G01X10650000D01*
X10785000Y3465000D01*
X10790000Y3470000D01*
X11060000D01*
X11070000Y3460000D01*
Y2960000D01*
X11010000Y2900000D01*
X10830000D01*
X10760000Y2970000D01*
Y2980000D01*
X10470000Y3270000D01*
X10424880D01*
G03X10360000Y3306220I-64880J-39999D01*
G03X10334250Y3301740I-4J-76221D01*
G01X10332580Y3301140D01*
X9768860D01*
X9688660Y3381340D01*
G03X9706220Y3430000I-58658J48666D01*
G03X9687530Y3480000I-76226J0D01*
G03Y3580000I-57536J50000D01*
G03Y3680000I-57536J50000D01*
G03Y3780000I-57536J50000D01*
G03X9706220Y3830000I-57536J50000D01*
G03X9688770Y3878530I-76208J0D01*
G02Y3891470I7837J6470D01*
G03X9706220Y3940000I-58758J48530D01*
G03X9687530Y3990000I-76226J0D01*
G03X9706220Y4040000I-57536J50000D01*
G03X9685900Y4091810I-76210J0D01*
G01Y4463150D01*
X9343150Y4805900D01*
X8414100D01*
X8200000Y5020000D01*
Y6790000D01*
X8420000Y7010000D01*
G37*
G36*
G01X8598950Y6594260D02*
X8810520D01*
G02X8824890Y6559570I0J-20321D01*
G01X8584260Y6318950D01*
Y5109480D01*
G02X8549570Y5095110I-20321J0D01*
G01X8485740Y5158950D01*
Y6481050D01*
X8598950Y6594260D01*
G37*
G36*
G01X8843370Y767210D02*
X8783500Y817640D01*
X8713650Y754140D01*
X8783500Y690640D01*
X8843370Y741070D01*
G03Y767210I-21780J13070D01*
G37*
G36*
G01X8760710Y1037560D02*
X8804280Y998080D01*
X8852540Y1043800D01*
X8804280Y1089520D01*
X8760710Y1050040D01*
G03Y1037560I8020J-6240D01*
G37*
G36*
G01X8836510Y1861760D02*
X8871920Y1905280D01*
X8826200Y1957350D01*
X8780480Y1905280D01*
X8815890Y1861760D01*
G03X8836510I10310J23210D01*
G37*
G36*
G01X8905920Y2067180D02*
X8891550Y2081550D01*
X8867460Y2060000D01*
X8891550Y2038450D01*
X8905920Y2052820D01*
G03Y2067180I-7180J7180D01*
G37*
G36*
G01X9011400Y4132820D02*
X9025770Y4118450D01*
X9049860Y4140000D01*
X9025770Y4161550D01*
X9011400Y4147180D01*
G03Y4132820I7180J-7180D01*
G37*
G36*
G01Y4206480D02*
X9025770Y4192110D01*
X9049860Y4213660D01*
X9025770Y4235210D01*
X9011400Y4220840D01*
G03Y4206480I7180J-7180D01*
G37*
G36*
G01Y4282820D02*
X9025770Y4268450D01*
X9049860Y4290000D01*
X9025770Y4311550D01*
X9011400Y4297180D01*
G03Y4282820I7180J-7180D01*
G37*
G36*
G01Y4430140D02*
X9025770Y4415770D01*
X9049860Y4437320D01*
X9025770Y4458870D01*
X9011400Y4444500D01*
G03Y4430140I7180J-7180D01*
G37*
G36*
G01Y4356480D02*
X9025770Y4342110D01*
X9049860Y4363660D01*
X9025770Y4385210D01*
X9011400Y4370840D01*
G03Y4356480I7180J-7180D01*
G37*
G36*
G01X9058950Y6414260D02*
X9116140D01*
G02X9130510Y6379570I1J-20321D01*
G01X8954100Y6203160D01*
Y5471810D01*
G03X8933780Y5420000I55890J-51810D01*
G03X9010000Y5343780I76220J0D01*
G03X9060000Y5362470I0J76226D01*
G03X9160000I50000J57536D01*
G03X9210000Y5343780I50000J57536D01*
G03X9265130Y5367360I6J76223D01*
G03X9308510Y5349060I49867J57642D01*
G01X9312200Y5348740D01*
X9894100Y4766850D01*
Y4659640D01*
G02X9859410Y4645270I-20321J0D01*
G01X9488950Y5015740D01*
X9039480D01*
G02X9025110Y5050430I0J20321D01*
G01X9025740Y5051050D01*
Y5238950D01*
X8845740Y5418950D01*
Y6201050D01*
X9058950Y6414260D01*
G37*
G36*
G01X9002820Y5455920D02*
X8988450Y5441550D01*
X9010000Y5417460D01*
X9031550Y5441550D01*
X9017180Y5455920D01*
G03X9002820I-7180J-7180D01*
G37*
G36*
G01X9102820D02*
X9088450Y5441550D01*
X9110000Y5417460D01*
X9131550Y5441550D01*
X9117180Y5455920D01*
G03X9102820I-7180J-7180D01*
G37*
G36*
G01X9202820D02*
X9188450Y5441550D01*
X9210000Y5417460D01*
X9231550Y5441550D01*
X9217180Y5455920D01*
G03X9202820I-7180J-7180D01*
G37*
G36*
G01X9409470Y1848860D02*
X9653230D01*
G02X9669390Y1816220I3J-20319D01*
G03X9653780Y1770000I60622J-46220D01*
G03X9680520Y1712030I76207J0D01*
G02X9673920Y1694140I-6597J-7729D01*
G01X9651300D01*
G03X9607400Y1661260I0J-45747D01*
G01X9581230Y1571880D01*
X9544100Y1534750D01*
Y936850D01*
X9553740Y927200D01*
X9554060Y923510D01*
G03X9630000Y853780I75940J6487D01*
G03X9706220Y930000I0J76220D01*
G03X9661820Y999260I-76220J0D01*
G01X9655900Y1001980D01*
Y1225860D01*
X9716300D01*
G03X9736990Y1230810I-6J45739D01*
G01X9743250Y1233980D01*
X9755940Y1222400D01*
X9748570Y1214320D01*
G03X9736620Y1183500I33787J-30827D01*
G01Y1056500D01*
G03X9747380Y1027030I45737J0D01*
G01X9774720Y994570D01*
Y935330D01*
X9570530Y731140D01*
X9311140D01*
Y1750530D01*
X9409470Y1848860D01*
G37*
G36*
G01X9599520Y950320D02*
Y930000D01*
X9631800Y928200D01*
X9630000Y960480D01*
X9609680D01*
G03X9599520Y950320I0J-10160D01*
G37*
G36*
G01X9630800Y1532240D02*
X9716300Y1542400D01*
X9685600Y1597200D01*
X9651300Y1648400D01*
X9620820Y1544330D01*
G03X9630800Y1532240I9980J-1926D01*
G37*
G36*
G01X9644080Y2052820D02*
X9658450Y2038450D01*
X9682540Y2060000D01*
X9658450Y2081550D01*
X9644080Y2067180D01*
G03Y2052820I7180J-7180D01*
G37*
G36*
G01X9599520Y3450320D02*
Y3430000D01*
X9631800Y3428200D01*
X9630000Y3460480D01*
X9609680D01*
G03X9599520Y3450320I0J-10160D01*
G37*
G36*
G01Y3550320D02*
Y3530000D01*
X9631800Y3528200D01*
X9630000Y3560480D01*
X9609680D01*
G03X9599520Y3550320I0J-10160D01*
G37*
G36*
G01Y3650320D02*
Y3630000D01*
X9631800Y3628200D01*
X9630000Y3660480D01*
X9609680D01*
G03X9599520Y3650320I0J-10160D01*
G37*
G36*
G01Y3750320D02*
Y3730000D01*
X9631800Y3728200D01*
X9630000Y3760480D01*
X9609680D01*
G03X9599520Y3750320I0J-10160D01*
G37*
G36*
G01Y3850320D02*
Y3830000D01*
X9631800Y3828200D01*
X9630000Y3860480D01*
X9609680D01*
G03X9599520Y3850320I0J-10160D01*
G37*
G36*
G01Y3960320D02*
Y3940000D01*
X9631800Y3938200D01*
X9630000Y3970480D01*
X9609680D01*
G03X9599520Y3960320I0J-10160D01*
G37*
G36*
G01X9622820Y4075920D02*
X9608450Y4061550D01*
X9630000Y4037460D01*
X9651550Y4061550D01*
X9637180Y4075920D01*
G03X9622820I-7180J-7180D01*
G37*
G36*
G01X9421810Y6124100D02*
X10316850D01*
X10454800Y5986150D01*
G02X10440430Y5951460I-14369J-14369D01*
G01X10400480D01*
G03X10370000Y5939820I0J-45727D01*
G03X10339520Y5951460I-30480J-34087D01*
G01X10248080D01*
G03X10219210Y5941200I0J-45748D01*
G01X10210000Y5933710D01*
X10205290Y5934670D01*
G03X10190000Y5936220I-15293J-74670D01*
G03X10164250Y5931740I-4J-76221D01*
G01X10162580Y5931140D01*
X9650530D01*
X9498860Y5779470D01*
Y5549250D01*
G02X9464170Y5534880I-20321J-1D01*
G01X9349860Y5649190D01*
Y6083460D01*
G02X9370140Y6103780I20320J0D01*
G03X9421810Y6124100I-144J76219D01*
G37*
G36*
G01X9709470Y5788860D02*
X9940750D01*
G02X9955120Y5754170I1J-20321D01*
G01X9947200Y5746260D01*
X9943510Y5745940D01*
G03X9882890Y5706140I6485J-75943D01*
G02X9847110I-17890J9630D01*
G03X9780000Y5746220I-67110J-36145D01*
G03X9703780Y5670000I0J-76220D01*
G03X9724100Y5618190I76210J0D01*
G01Y5546850D01*
X9956850Y5314100D01*
X10727390D01*
X10809100Y5395810D01*
G02X10843790Y5381140I14371J-14368D01*
G03X10843780Y5380000I76209J-1239D01*
G03X10868960Y5323390I76226J0D01*
G03X10864570Y5303830I41351J-19553D01*
G01Y5204580D01*
X10853620D01*
X10852830Y5204700D01*
G03X10845720Y5205260I-7135J-45178D01*
G01X10754280D01*
G03X10725410Y5195000I0J-45748D01*
G01X10713050Y5184940D01*
X10678470D01*
X10638630Y5145100D01*
X10566500D01*
G03X10523140Y5113920I0J-45739D01*
G01X10520810Y5107000D01*
X10013610D01*
X9641140Y5479470D01*
Y5720530D01*
X9709470Y5788860D01*
G37*
G36*
G01X9345480Y5404680D02*
Y5425000D01*
X9313200Y5426800D01*
X9315000Y5394520D01*
X9335320D01*
G03X9345480Y5404680I0J10160D01*
G37*
G36*
G01X9787180Y5634080D02*
X9801550Y5648450D01*
X9780000Y5672540D01*
X9758450Y5648450D01*
X9772820Y5634080D01*
G03X9787180I7180J7180D01*
G37*
G36*
G01X9405920Y6187180D02*
X9391550Y6201550D01*
X9367460Y6180000D01*
X9391550Y6158450D01*
X9405920Y6172820D01*
G03Y6187180I-7180J7180D01*
G37*
G36*
G01X10165740Y252680D02*
G03X10172560Y256770I-35737J67322D01*
G01X10179500Y261440D01*
X10236850Y204100D01*
X10242260D01*
G02X10251270Y189250I-3J-10160D01*
G03X10236760Y130000I113729J-59253D01*
G03X10256770Y61220I128238J7D01*
G02X10239620Y30000I-17151J-10899D01*
G01X10163740D01*
G02X10149370Y64690I0J20321D01*
G01X10165740Y81050D01*
Y252680D01*
G37*
G36*
G01X10122820Y355920D02*
X10108450Y341550D01*
X10130000Y317460D01*
X10151550Y341550D01*
X10137180Y355920D01*
G03X10122820I-7180J-7180D01*
G37*
G36*
G01X10316370Y739030D02*
X10278080Y695720D01*
X10323800Y646820D01*
X10369520Y695720D01*
X10331230Y739030D01*
G03X10316370I-7430J-10300D01*
G37*
G36*
G01X10334110Y560760D02*
X10369520Y604280D01*
X10323800Y656350D01*
X10278080Y604280D01*
X10313490Y560760D01*
G03X10334110I10310J23210D01*
G37*
G36*
G01Y410760D02*
X10369520Y454280D01*
X10323800Y506350D01*
X10278080Y454280D01*
X10313490Y410760D01*
G03X10334110I10310J23210D01*
G37*
G36*
G01X10313490Y589240D02*
X10278080Y545720D01*
X10323800Y493650D01*
X10369520Y545720D01*
X10334110Y589240D01*
G03X10313490I-10310J-23210D01*
G37*
G36*
G01Y439240D02*
X10278080Y395720D01*
X10323800Y343650D01*
X10369520Y395720D01*
X10334110Y439240D01*
G03X10313490I-10310J-23210D01*
G37*
G36*
G01X9879210Y1239690D02*
X9906300Y1271600D01*
X9873800Y1330950D01*
X9841300Y1271600D01*
X9868390Y1239690D01*
G03X9879210I5410J24820D01*
G37*
G36*
G01X9858930Y996630D02*
X9909360Y1056500D01*
X9845860Y1126350D01*
X9782360Y1056500D01*
X9832790Y996630D01*
G03X9858930I13070J21780D01*
G37*
G36*
G01X9859310Y1267860D02*
X9782360Y1183500D01*
X9844500Y1113800D01*
X9909360Y1183500D01*
X9895960Y1259410D01*
G03X9859310Y1267860I-22160J-12411D01*
G37*
G36*
G01X10115490Y1776240D02*
X10071920Y1815720D01*
X10023660Y1770000D01*
X10071920Y1724280D01*
X10115490Y1763760D01*
G03Y1776240I-8020J6240D01*
G37*
G36*
G01X10144080Y1762820D02*
X10158450Y1748450D01*
X10182540Y1770000D01*
X10158450Y1791550D01*
X10144080Y1777180D01*
G03Y1762820I7180J-7180D01*
G37*
G36*
G01X9956420Y1607130D02*
X9906300Y1648400D01*
X9867450Y1595400D01*
X9906300Y1542400D01*
X9956420Y1583670D01*
G03Y1607130I-22530J11730D01*
G37*
G36*
G01X10203370Y1577210D02*
X10143500Y1627640D01*
X10073650Y1564140D01*
X10143500Y1500640D01*
X10203370Y1551070D01*
G03Y1577210I-21780J13070D01*
G37*
G36*
G01X9931900Y1581260D02*
X10016500Y1500640D01*
X10086170Y1562620D01*
X10016500Y1627640D01*
X9941500Y1618050D01*
G03X9931900Y1581260I11500J-22648D01*
G37*
G36*
G01X9784560Y1759690D02*
X9828080Y1724280D01*
X9880150Y1770000D01*
X9828080Y1815720D01*
X9784560Y1780310D01*
G03Y1759690I23210J-10310D01*
G37*
G36*
G01X10144080Y1974120D02*
X10158450Y1959750D01*
X10182540Y1981300D01*
X10158450Y2002850D01*
X10144080Y1988480D01*
G03Y1974120I7180J-7180D01*
G37*
G36*
G01X10115490Y1987540D02*
X10071920Y2027020D01*
X10023660Y1981300D01*
X10071920Y1935580D01*
X10115490Y1975060D01*
G03Y1987540I-8020J6240D01*
G37*
G36*
G01X9911010Y2083450D02*
X9828080Y2027020D01*
X9870600Y1975820D01*
X9919520Y1935580D01*
X9944920Y2059520D01*
G03X9911010Y2083450I-25399J0D01*
G37*
G36*
G01X10272820Y3685920D02*
X10258450Y3671550D01*
X10280000Y3647460D01*
X10301550Y3671550D01*
X10287180Y3685920D01*
G03X10272820I-7180J-7180D01*
G37*
G36*
G01X9942820Y4175930D02*
X9928450Y4161560D01*
X9950000Y4137470D01*
X9971550Y4161560D01*
X9957180Y4175930D01*
G03X9942820I-7180J-7180D01*
G37*
G36*
G01X10083390Y4964720D02*
X10520810D01*
X10523140Y4957800D01*
G03X10542020Y4933720I43362J14557D01*
G01Y4800590D01*
X10456160Y4714730D01*
Y4228270D01*
X10571680Y4112750D01*
G03X10571300Y4109870I138324J-19716D01*
G01X10446160Y3984730D01*
Y3691050D01*
X10427060Y3686230D01*
G03X10413390Y3704390I-67048J-36246D01*
G01X10413360Y3704420D01*
X10401940Y3715850D01*
Y4597110D01*
X10069020Y4930030D01*
G02X10083390Y4964720I14369J14369D01*
G37*
G36*
G01X10033150Y5674100D02*
X10314900D01*
Y5566500D01*
G03X10327180Y5535310I45750J0D01*
G01X10354740Y5505750D01*
Y5425900D01*
X10003150D01*
X9835900Y5593150D01*
Y5618050D01*
X9838290Y5620890D01*
G03X9847110Y5633860I-58284J49119D01*
G02X9882890I17890J-9630D01*
G03X9950000Y5593780I67110J36145D01*
G03X10025940Y5663510I0J76217D01*
G01X10026260Y5667200D01*
X10033150Y5674100D01*
G37*
G36*
G01X9970320Y5700480D02*
X9950000D01*
X9948200Y5668200D01*
X9980480Y5670000D01*
Y5690320D01*
G03X9970320Y5700480I-10160J0D01*
G37*
G36*
G01X10204560Y5849690D02*
X10248080Y5814280D01*
X10300150Y5860000D01*
X10248080Y5905720D01*
X10204560Y5870310D01*
G03Y5849690I23210J-10310D01*
G37*
G36*
G01X9983150Y6594100D02*
X10504740D01*
Y6513280D01*
G03X10550480Y6467540I45740J0D01*
G01X10650910D01*
Y6370480D01*
G03X10662550Y6340000I45727J0D01*
G03X10650910Y6309520I34087J-30480D01*
G01Y6301880D01*
G02X10616220Y6287510I-20321J-1D01*
G01X10547830Y6355900D01*
X9794010D01*
G02X9779640Y6390590I-1J20321D01*
G01X9983150Y6594100D01*
G37*
G36*
G01X10940360Y273800D02*
Y286060D01*
G02X10957700Y293240I10159J-5D01*
G01X10976850Y274100D01*
X11032850D01*
G02X11044090Y236850I2J-20320D01*
G03X10986760Y130000I70907J-106850D01*
G03X11006770Y61220I128238J7D01*
G02X10989620Y30000I-17151J-10899D01*
G01X10490380D01*
G02X10473230Y61220I1J20321D01*
G03X10493240Y130000I-108228J68787D01*
G03X10455240Y221110I-128238J-6D01*
G02X10455170Y249920I14300J14440D01*
G01X10463790Y258540D01*
X10521920D01*
G03X10551400Y269310I0J45732D01*
G01X10558450Y275250D01*
X10593410Y241090D01*
G03X10593640Y240870I31730J32942D01*
G02X10591030Y209480I-14103J-14631D01*
G03X10564980Y160000I33967J-49480D01*
G03X10685020I60020J0D01*
G03X10673270Y195670I-60018J0D01*
G02X10689620Y228060I16346J12070D01*
G01X10691420D01*
G03X10730320Y249740I0J45739D01*
G02X10754420Y258200I17285J-10683D01*
G03X10778990Y253790I25568J71803D01*
G01X10782890Y253740D01*
X10797550Y240190D01*
G03X10806800Y233580I31013J33622D01*
G02X10811760Y201620I-9681J-17867D01*
G03X10794980Y160000I43238J-41625D01*
G03X10915020I60020J0D01*
G03X10901050Y198490I-60009J0D01*
G02X10909870Y230680I15594J13031D01*
G03X10940360Y273800I-15246J43120D01*
G37*
G36*
G01X10565490Y356240D02*
X10521920Y395720D01*
X10473660Y350000D01*
X10521920Y304280D01*
X10565490Y343760D01*
G03Y356240I-8020J6240D01*
G37*
G36*
G01X10554070Y343500D02*
X10625380Y273800D01*
X10660860Y323950D01*
X10625380Y375400D01*
X10558110Y359430D01*
G03X10554070Y343500I3770J-9433D01*
G37*
G36*
G01X10774690Y323560D02*
X10828580Y273800D01*
X10864130Y324430D01*
X10828580Y375400D01*
X10775420Y337230D01*
G03X10774690Y323560I7131J-7235D01*
G37*
G36*
G01X10595900Y856850D02*
Y2205990D01*
G02X10630590Y2220360I20321J1D01*
G01X10886850Y1964100D01*
X10891680D01*
X10896880Y1951560D01*
X10734260Y1788950D01*
Y1371050D01*
X10791050Y1314260D01*
X11014260D01*
Y591050D01*
X11122070Y483240D01*
G02X11114890Y465900I-7186J-7181D01*
G01X11103150D01*
X10843150Y725900D01*
X10556290D01*
G03X10541670Y736980I-34377J-30174D01*
G01X10535900Y739740D01*
Y796850D01*
X10595900Y856850D01*
G37*
G36*
G01X10565490Y506240D02*
X10521920Y545720D01*
X10473660Y500000D01*
X10521920Y454280D01*
X10565490Y493760D01*
G03Y506240I-8020J6240D01*
G37*
G36*
G01X12170000Y2630000D02*
X12450000D01*
X12490000Y2590000D01*
Y1940000D01*
X12395740Y1845740D01*
X11221050D01*
X11215310Y1840000D01*
X11210000D01*
X11030000Y1660000D01*
Y1654690D01*
X11014260Y1638950D01*
Y1374260D01*
X11000000Y1360000D01*
X10810000D01*
X10780000Y1390000D01*
Y1770000D01*
X10974100Y1964100D01*
X11903150D01*
X11909050Y1970000D01*
X12110000D01*
X12170000Y2030000D01*
Y2530000D01*
X12155900Y2544100D01*
Y2615900D01*
X12170000Y2630000D01*
G37*
G36*
G01X10335480Y2427220D02*
Y2445000D01*
X10302750Y2447250D01*
X10305000Y2414520D01*
X10322780D01*
G03X10335480Y2427220I0J12700D01*
G37*
G36*
G01X11917730Y4021860D02*
X11995310Y4099440D01*
G02X12030000Y4085080I14371J-14364D01*
G01Y3620000D01*
X12571080D01*
X12573150Y3612560D01*
G03X12931170I179010J49838D01*
G01X12933240Y3620000D01*
X13670000D01*
Y660000D01*
X13260000D01*
X13070000Y470000D01*
Y274460D01*
G02X13044940Y254700I-20318J-3D01*
G03X13015000Y258240I-29924J-124702D01*
G03X12886760Y130000I0J-128240D01*
G03X12906770Y61220I128238J7D01*
G02X12889620Y30000I-17151J-10899D01*
G01X12390380D01*
G02X12373230Y61220I1J20321D01*
G03X12393240Y130000I-108228J68787D01*
G03X12336880Y236200I-128237J0D01*
G02X12336010Y269230I11390J16826D01*
G03X12366220Y330000I-46017J60770D01*
G03X12339010Y388380I-76233J0D01*
G02X12352070Y424260I13063J15562D01*
G01X12628950D01*
X12695740Y491050D01*
Y608950D01*
X12666550Y638140D01*
G02X12666790Y667120I14365J14372D01*
G03X12680740Y700000I-31788J32886D01*
G01Y846950D01*
G02X12715180Y861560I20320J-2D01*
G03X12820000Y819180I104820J108438D01*
G03X12970820Y970000I0J150820D01*
G01Y1170000D01*
G03X12848920Y1318020I-150818J0D01*
G01X12845870Y1318620D01*
X12750910Y1413580D01*
X12834000Y1496670D01*
G02X12866920Y1490590I14368J-14369D01*
G03X13000000Y1404260I133080J59408D01*
G01X13200000D01*
G03X13345740Y1550000I0J145740D01*
G03X13238170Y1690650I-145736J0D01*
G02X13229120Y1724630I5319J19612D01*
G01X13379240Y1874750D01*
Y2485250D01*
X13197730Y2666760D01*
X13198860Y2672140D01*
G03X13203220Y2714000I-198859J41870D01*
G03X13000000Y2510780I-203220J0D01*
G03X13035470Y2513900I-3J203220D01*
G01X13040690Y2514820D01*
X13160760Y2394750D01*
Y2373340D01*
G02X13127380Y2357770I-20319J-4D01*
G03X13000000Y2404140I-127380J-151774D01*
G03Y2007860I0J-198140D01*
G03X13127380Y2054230I0J198144D01*
G02X13160760Y2038660I13061J-15566D01*
G01Y1965250D01*
X13043650Y1848140D01*
X12876490D01*
X12710430Y1682080D01*
G02X12675740Y1696440I-14371J14365D01*
G01Y1778950D01*
X12608950Y1845740D01*
X12509480D01*
G02X12495110Y1880430I0J20321D01*
G01X12535740Y1921050D01*
Y2608950D01*
X12468950Y2675740D01*
X12245900D01*
Y3373150D01*
X12159350Y3459700D01*
X12005610D01*
G03X11953800Y3480020I-51810J-55890D01*
G03Y3327580I0J-76220D01*
G03X12005610Y3347900I0J76210D01*
G01X12113050D01*
X12134100Y3326850D01*
Y3184010D01*
G02X12099410Y3169640I-20321J-1D01*
G01X12063150Y3205900D01*
X11891810D01*
G03X11840000Y3226220I-51810J-55890D01*
G03Y3073780I0J-76220D01*
G03X11891810Y3094100I0J76210D01*
G01X12016850D01*
X12044100Y3066850D01*
Y2355550D01*
G02X12020880Y2335440I-20320J1D01*
G03X12010000Y2336220I-10876J-75440D01*
G03X11934060Y2266490I0J-76217D01*
G01X11933740Y2262800D01*
X11786850Y2115900D01*
X11098320D01*
X11093120Y2128440D01*
X11095740Y2131050D01*
Y2418950D01*
X10386510Y3128170D01*
G02X10392280Y3160950I14368J14369D01*
G03X10434920Y3215970I-32279J69049D01*
G01X10436470Y3224260D01*
X10451050D01*
X10714260Y2961050D01*
Y2951050D01*
X10811050Y2854260D01*
X11028950D01*
X11115740Y2941050D01*
Y3478950D01*
X11078950Y3515740D01*
X11038560D01*
X11038020Y3515800D01*
G03X11030000Y3516220I-7991J-75802D01*
G03X11021980Y3515800I-29J-76222D01*
G01X11021440Y3515740D01*
X10948560D01*
X10948020Y3515800D01*
G03X10940000Y3516220I-7991J-75802D01*
G03X10931980Y3515800I-29J-76222D01*
G01X10931440Y3515740D01*
X10858560D01*
X10858020Y3515800D01*
G03X10850000Y3516220I-7991J-75802D01*
G03X10841980Y3515800I-29J-76222D01*
G01X10841440Y3515740D01*
X10798950D01*
X10668950Y3645740D01*
X10613840D01*
Y3704360D01*
X10798900D01*
G03X10844640Y3750100I0J45740D01*
G01Y3927900D01*
G03X10808950Y3972520I-45737J0D01*
G02X10804330Y3989930I2237J9911D01*
G03X10810240Y3995670I-94347J103054D01*
G01X10810290Y3995720D01*
X10836440Y4021860D01*
X11917730D01*
G37*
G36*
G01X10335880Y3692850D02*
X10335480Y3664520D01*
X10360790Y3647590D01*
X10381550Y3671550D01*
X10353220Y3699880D01*
G03X10335880Y3692850I-7183J-7183D01*
G37*
G36*
G01X11306950Y6192660D02*
X11883100D01*
X12030000Y6045760D01*
Y4335350D01*
X11858790Y4164140D01*
X10836440D01*
X10810290Y4190280D01*
X10810240Y4190330D01*
G03X10795020Y4203880I-100269J-97304D01*
G02Y4236120I12364J16120D01*
G03Y4457880I-85030J110880D01*
G02Y4490120I12364J16120D01*
G03X10849720Y4601000I-85030J110880D01*
G03X10710000Y4740720I-139720J0D01*
G01X10709700D01*
Y4929150D01*
X10715070Y4932020D01*
G03X10739240Y4972360I-21579J40340D01*
G01Y5012390D01*
G02X10750290Y5022510I10158J1D01*
G03X10754280Y5022340I3940J45572D01*
G01X10845720D01*
G03X10852830Y5022900I-25J45738D01*
G01X10853620Y5023020D01*
X10864570D01*
Y4976170D01*
G03X10910310Y4930430I45740J0D01*
G01X11029690D01*
G03X11075430Y4976170I0J45740D01*
G01Y5095550D01*
G03X11057430Y5131920I-45744J0D01*
G02Y5148080I6157J8080D01*
G03X11059010Y5149350I-27858J36275D01*
G01X11087330Y5173000D01*
X11147410D01*
X11148780Y5174380D01*
X11186170Y5174740D01*
G03X11215000Y5185340I-453J45738D01*
G03X11244280Y5174740I29280J35140D01*
G01X11335720D01*
G03X11381460Y5220480I0J45740D01*
G01Y5311920D01*
G03X11369610Y5342630I-45737J-7D01*
G01X11345900Y5368800D01*
Y5553150D01*
X11329960Y5569090D01*
G02X11344330Y5603780I14369J14369D01*
G01X11410950D01*
X11413000Y5596310D01*
G03X11486500Y5540280I73500J20194D01*
G03X11562720Y5616500I0J76220D01*
G03X11542700Y5667990I-76224J0D01*
G02X11542070Y5694720I14981J13726D01*
G03X11559720Y5743500I-58583J48780D01*
G03X11538750Y5796000I-76218J-6D01*
G02Y5824000I14733J14000D01*
G03X11559720Y5876500I-55248J52506D01*
G03X11540910Y5926630I-76218J-5D01*
G02Y5953370I15306J13370D01*
G03X11559720Y6003500I-57408J50135D01*
G03X11483500Y6079720I-76220J0D01*
G03X11410000Y6023690I0J-76224D01*
G01X11407950Y6016220D01*
X11350010D01*
X11305830Y5972040D01*
G02X11271140Y5986410I-14369J14369D01*
G01Y6112580D01*
X11271740Y6114250D01*
G03X11276220Y6140000I-71741J25746D01*
G03X11275140Y6152800I-76221J14D01*
G01X11274340Y6157470D01*
X11297890Y6185280D01*
X11306950Y6192660D01*
G37*
G36*
G01X10817760Y4110960D02*
X10772850Y4155850D01*
X10703650Y4093000D01*
X10772850Y4030150D01*
X10817760Y4075040D01*
G03Y4110960I-17960J17960D01*
G37*
G36*
G01X10672820Y5605920D02*
X10658450Y5591550D01*
X10680000Y5567460D01*
X10701550Y5591550D01*
X10687180Y5605920D01*
G03X10672820I-7180J-7180D01*
G37*
G36*
G01X10430670Y5505390D02*
X10487640Y5566500D01*
X10424140Y5632540D01*
X10360640Y5566500D01*
X10417610Y5505390D01*
G03X10430670I6530J7780D01*
G37*
G36*
G01X10535490Y5466240D02*
X10491920Y5505720D01*
X10443660Y5460000D01*
X10491920Y5414280D01*
X10535490Y5453760D01*
G03Y5466240I-8020J6240D01*
G37*
G36*
G01X10414740Y5567190D02*
X10400480Y5505720D01*
X10446730Y5457520D01*
X10491920Y5505720D01*
X10430720Y5571070D01*
G03X10414740Y5567190I-6582J-7740D01*
G37*
G36*
G01X10786000Y5515840D02*
X10819000Y5526000D01*
X10809150Y5577780D01*
X10791000Y5611000D01*
X10775860Y5526600D01*
G03X10786000Y5515840I10140J-602D01*
G37*
G36*
G01X10889240Y5124110D02*
X10845720Y5159520D01*
X10793650Y5113800D01*
X10845720Y5068080D01*
X10889240Y5103490D01*
G03Y5124110I-23210J10310D01*
G37*
G36*
G01X10710760Y5103490D02*
X10754280Y5068080D01*
X10806350Y5113800D01*
X10754280Y5159520D01*
X10710760Y5124110D01*
G03Y5103490I23210J-10310D01*
G37*
G36*
G01X10662500Y5915710D02*
X10677500Y5889500D01*
X10729750Y5900630D01*
X10762500Y5917500D01*
X10672500Y5927660D01*
G03X10662500Y5915710I0J-10159D01*
G37*
G36*
G01X10780840Y6033680D02*
X10791000Y5946000D01*
X10808010Y5978800D01*
X10819000Y6031000D01*
X10791970Y6043790D01*
G03X10780840Y6033680I-973J-10110D01*
G37*
G36*
G01X10680780Y5623050D02*
X10762500Y5639500D01*
X10729060Y5658100D01*
X10677500Y5667500D01*
X10669870Y5632440D01*
G03X10680780Y5623050I10132J739D01*
G37*
G36*
G01X10559520Y5850320D02*
Y5830000D01*
X10591800Y5828200D01*
X10590000Y5860480D01*
X10569680D01*
G03X10559520Y5850320I0J-10160D01*
G37*
G36*
G01X10620480Y5809680D02*
Y5830000D01*
X10588200Y5831800D01*
X10590000Y5799520D01*
X10610320D01*
G03X10620480Y5809680I0J10160D01*
G37*
G36*
G01X10663870Y5800820D02*
X10677500Y5789500D01*
X10722540Y5803500D01*
X10677500Y5817500D01*
X10663870Y5806180D01*
G03Y5800820I9800J-2680D01*
G37*
G36*
G01X10535490Y5866240D02*
X10491920Y5905720D01*
X10443660Y5860000D01*
X10491920Y5814280D01*
X10535490Y5853760D01*
G03Y5866240I-8020J6240D01*
G37*
G36*
G01X10663870Y5850820D02*
X10677500Y5839500D01*
X10722540Y5853500D01*
X10677500Y5867500D01*
X10663870Y5856180D01*
G03Y5850820I9800J-2680D01*
G37*
G36*
G01Y5700820D02*
X10677500Y5689500D01*
X10722540Y5703500D01*
X10677500Y5717500D01*
X10663870Y5706180D01*
G03Y5700820I9800J-2680D01*
G37*
G36*
G01Y5750820D02*
X10677500Y5739500D01*
X10722540Y5753500D01*
X10677500Y5767500D01*
X10663870Y5756180D01*
G03Y5750820I9800J-2680D01*
G37*
G36*
G01X10703080Y6551820D02*
X10717450Y6537450D01*
X10741540Y6559000D01*
X10717450Y6580550D01*
X10703080Y6566180D01*
G03Y6551820I7180J-7180D01*
G37*
G36*
G01X10685490Y6565240D02*
X10641920Y6604720D01*
X10593660Y6559000D01*
X10641920Y6513280D01*
X10685490Y6552760D01*
G03Y6565240I-8020J6240D01*
G37*
G36*
G01X10831610Y6426510D02*
X10788090Y6461920D01*
X10736020Y6416200D01*
X10788090Y6370480D01*
X10831610Y6405890D01*
G03Y6426510I-23210J10310D01*
G37*
G36*
G01X10800760Y6405890D02*
X10844280Y6370480D01*
X10896350Y6416200D01*
X10844280Y6461920D01*
X10800760Y6426510D01*
G03Y6405890I23210J-10310D01*
G37*
G36*
G01X10685490Y6819240D02*
X10641920Y6858720D01*
X10593660Y6813000D01*
X10641920Y6767280D01*
X10685490Y6806760D01*
G03Y6819240I-8020J6240D01*
G37*
G36*
G01X10701080Y6805820D02*
X10715450Y6791450D01*
X10739540Y6813000D01*
X10715450Y6834550D01*
X10701080Y6820180D01*
G03Y6805820I7180J-7180D01*
G37*
G36*
G01X11216290Y112040D02*
X11256660Y71670D01*
X11321350Y130000D01*
X11256660Y188330D01*
X11216290Y147960D01*
G03Y112040I17960J-17960D01*
G37*
G36*
G01X11213710Y147960D02*
X11173340Y188330D01*
X11108650Y130000D01*
X11173340Y71670D01*
X11213710Y112040D01*
G03Y147960I-17960J17960D01*
G37*
G36*
G01X11304080Y322820D02*
X11318450Y308450D01*
X11342540Y330000D01*
X11318450Y351550D01*
X11304080Y337180D01*
G03Y322820I7180J-7180D01*
G37*
G36*
G01X11240000Y1800000D02*
X12590000D01*
X12630000Y1760000D01*
Y1620000D01*
X12629240Y1619240D01*
X12357750D01*
X12335250Y1596740D01*
X12329570D01*
X12212830Y1480000D01*
X11410000D01*
X11320000Y1390000D01*
Y690000D01*
X11390000Y620000D01*
X12620000D01*
X12650000Y590000D01*
Y510000D01*
X12610000Y470000D01*
X11200000D01*
X11060000Y610000D01*
Y1620000D01*
X11240000Y1800000D01*
G37*
G36*
G01X11109520Y5477780D02*
Y5460000D01*
X11142250Y5457750D01*
X11140000Y5490480D01*
X11122220D01*
G03X11109520Y5477780I0J-12700D01*
G37*
G36*
G01X11086000Y5256790D02*
X11029690Y5303830D01*
X10963650Y5244140D01*
X11029690Y5184450D01*
X11086000Y5231490D01*
G03Y5256790I-22030J12650D01*
G37*
G36*
G01X11047490Y5219130D02*
X11185720Y5220480D01*
X11146160Y5267740D01*
X11094280Y5311920D01*
X11030370Y5257600D01*
G03X11047490Y5219130I21540J-13459D01*
G37*
G36*
G01X11129690Y5355440D02*
X11094280Y5311920D01*
X11140000Y5259850D01*
X11185720Y5311920D01*
X11150310Y5355440D01*
G03X11129690I-10310J-23210D01*
G37*
G36*
G01X11086680Y5526750D02*
X11069000Y5611000D01*
X11049820Y5580090D01*
X11041000Y5526000D01*
X11074000Y5513300D01*
G03X11086680Y5526750I0J12702D01*
G37*
G36*
G01X11283760Y5355490D02*
X11244280Y5311920D01*
X11290000Y5263660D01*
X11335720Y5311920D01*
X11296240Y5355490D01*
G03X11283760I-6240J-8020D01*
G37*
G36*
G01X11005000Y5423740D02*
Y5395000D01*
X11020820Y5377600D01*
X11041550Y5401550D01*
X11012180Y5430920D01*
X11005000Y5423740D01*
G37*
G36*
G01X11007680Y5512370D02*
X11019000Y5526000D01*
X11005000Y5571040D01*
X10991000Y5526000D01*
X11002320Y5512370D01*
G03X11007680I2680J9800D01*
G37*
G36*
G01X10940320Y5410480D02*
X10920000D01*
X10918200Y5378200D01*
X10950480Y5380000D01*
Y5400320D01*
G03X10940320Y5410480I-10160J0D01*
G37*
G36*
G01X10957680Y5512370D02*
X10969000Y5526000D01*
X10955000Y5571040D01*
X10941000Y5526000D01*
X10952320Y5512370D01*
G03X10957680I2680J9800D01*
G37*
G36*
G01X10857680D02*
X10869000Y5526000D01*
X10855000Y5571040D01*
X10841000Y5526000D01*
X10852320Y5512370D01*
G03X10857680I2680J9800D01*
G37*
G36*
G01X11019000Y5900260D02*
G03X11030000Y5901600I10J45741D01*
G03X11041000Y5900260I10990J44401D01*
G01X11051760D01*
Y5889500D01*
G03X11053100Y5878500I45741J-10D01*
G03X11051760Y5867500I44401J-10990D01*
G01Y5839500D01*
G03X11053100Y5828500I45741J-10D01*
G03X11051760Y5817500I44401J-10990D01*
G01Y5789500D01*
G03X11053100Y5778500I45741J-10D01*
G03X11051760Y5767500I44401J-10990D01*
G01Y5739500D01*
G03X11053100Y5728500I45741J-10D01*
G03X11051760Y5717500I44401J-10990D01*
G01Y5689500D01*
G03X11053100Y5678500I45741J-10D01*
G03X11051760Y5667500I44401J-10990D01*
G01Y5656740D01*
X11041000D01*
G03X11030000Y5655400I-10J-45741D01*
G03X11019000Y5656740I-10990J-44401D01*
G01X10991000D01*
G03X10980000Y5655400I-10J-45741D01*
G03X10969000Y5656740I-10990J-44401D01*
G01X10941000D01*
G03X10930000Y5655400I-10J-45741D01*
G03X10919000Y5656740I-10990J-44401D01*
G01X10891000D01*
G03X10880000Y5655400I-10J-45741D01*
G03X10869000Y5656740I-10990J-44401D01*
G01X10841000D01*
G03X10830000Y5655400I-10J-45741D01*
G03X10819000Y5656740I-10990J-44401D01*
G01X10808240D01*
Y5667500D01*
G03X10806900Y5678500I-45741J10D01*
G03X10808240Y5689500I-44401J10990D01*
G01Y5717500D01*
G03X10806900Y5728500I-45741J10D01*
G03X10808240Y5739500I-44401J10990D01*
G01Y5767500D01*
G03X10806900Y5778500I-45741J10D01*
G03X10808240Y5789500I-44401J10990D01*
G01Y5817500D01*
G03X10806900Y5828500I-45741J10D01*
G03X10808240Y5839500I-44401J10990D01*
G01Y5867500D01*
G03X10806900Y5878500I-45741J10D01*
G03X10808240Y5889500I-44401J10990D01*
G01Y5900260D01*
X10819000D01*
G03X10830000Y5901600I10J45741D01*
G03X10841000Y5900260I10990J44401D01*
G01X10869000D01*
G03X10880000Y5901600I10J45741D01*
G03X10891000Y5900260I10990J44401D01*
G01X10919000D01*
G03X10930000Y5901600I10J45741D01*
G03X10941000Y5900260I10990J44401D01*
G01X10969000D01*
G03X10980000Y5901600I10J45741D01*
G03X10991000Y5900260I10990J44401D01*
G01X11019000D01*
G37*
G36*
G01X11181750Y5935180D02*
X11097500Y5917500D01*
X11128410Y5898320D01*
X11182500Y5889500D01*
X11195200Y5922500D01*
G03X11181750Y5935180I-12702J0D01*
G37*
G36*
G01X11196130Y5856180D02*
X11182500Y5867500D01*
X11137460Y5853500D01*
X11182500Y5839500D01*
X11196130Y5850820D01*
G03Y5856180I-9800J2680D01*
G37*
G36*
G01Y5806180D02*
X11182500Y5817500D01*
X11137460Y5803500D01*
X11182500Y5789500D01*
X11196130Y5800820D01*
G03Y5806180I-9800J2680D01*
G37*
G36*
G01Y5756180D02*
X11182500Y5767500D01*
X11137460Y5753500D01*
X11182500Y5739500D01*
X11196130Y5750820D01*
G03Y5756180I-9800J2680D01*
G37*
G36*
G01Y5706180D02*
X11182500Y5717500D01*
X11137460Y5703500D01*
X11182500Y5689500D01*
X11196130Y5700820D01*
G03Y5706180I-9800J2680D01*
G37*
G36*
G01X10852320Y6044630D02*
X10841000Y6031000D01*
X10855000Y5985960D01*
X10869000Y6031000D01*
X10857680Y6044630D01*
G03X10852320I-2680J-9800D01*
G37*
G36*
G01X11192660Y5637500D02*
X11182500Y5667500D01*
X11130490Y5657080D01*
X11097500Y5639500D01*
X11182260Y5627340D01*
G03X11192660Y5637500I237J10160D01*
G37*
G36*
G01X10902320Y6044630D02*
X10891000Y6031000D01*
X10905000Y5985960D01*
X10919000Y6031000D01*
X10907680Y6044630D01*
G03X10902320I-2680J-9800D01*
G37*
G36*
G01X11002320D02*
X10991000Y6031000D01*
X11005000Y5985960D01*
X11019000Y6031000D01*
X11007680Y6044630D01*
G03X11002320I-2680J-9800D01*
G37*
G36*
G01X11079680Y6019520D02*
X11110000D01*
X11112110Y6051410D01*
X11080570Y6054480D01*
X11070560Y6034170D01*
G03X11079680Y6019520I9120J-4486D01*
G37*
G36*
G01X11081000Y6041160D02*
X11041000Y6031000D01*
X11049700Y5979830D01*
X11069000Y5946000D01*
X11091060Y6029580D01*
G03X11081000Y6041160I-10060J1420D01*
G37*
G36*
G01X10952320Y6044630D02*
X10941000Y6031000D01*
X10955000Y5985960D01*
X10969000Y6031000D01*
X10957680Y6044630D01*
G03X10952320I-2680J-9800D01*
G37*
G36*
G01X11213280Y6156120D02*
X11265720Y6218080D01*
X11221440Y6269990D01*
X11174280Y6218080D01*
X11178590Y6164110D01*
G03X11213280Y6156120I21412J13661D01*
G37*
G36*
G01X11309240Y6274110D02*
X11265720Y6309520D01*
X11213650Y6263800D01*
X11265720Y6218080D01*
X11309240Y6253490D01*
G03Y6274110I-23210J10310D01*
G37*
G36*
G01X11290520Y6579320D02*
Y6559000D01*
X11322800Y6557200D01*
X11321000Y6589480D01*
X11300680D01*
G03X11290520Y6579320I0J-10160D01*
G37*
G36*
G01X10972820Y6299720D02*
X10944080Y6270980D01*
X10969840Y6261260D01*
X10990160D01*
X11015920Y6270980D01*
X10987180Y6299720D01*
G03X10972820I-7180J-7180D01*
G37*
G36*
G01X10980710Y6257560D02*
X11024280Y6218080D01*
X11072540Y6263800D01*
X11024280Y6309520D01*
X10980710Y6270040D01*
G03Y6257560I8020J-6240D01*
G37*
G36*
G01X10979290Y6270040D02*
X10935720Y6309520D01*
X10887460Y6263800D01*
X10935720Y6218080D01*
X10979290Y6257560D01*
G03Y6270040I-8020J6240D01*
G37*
G36*
G01X10913680Y6162250D02*
X10935720Y6218080D01*
X10889610Y6266310D01*
X10844280Y6218080D01*
X10898500Y6159720D01*
G03X10913680Y6162250I6499J7810D01*
G37*
G36*
G01X11082800Y6132820D02*
X11097170Y6118450D01*
X11121260Y6140000D01*
X11097170Y6161550D01*
X11082800Y6147180D01*
G03Y6132820I7180J-7180D01*
G37*
G36*
G01X10959680Y6109520D02*
X10980000D01*
X10981800Y6141800D01*
X10949520Y6140000D01*
Y6119680D01*
G03X10959680Y6109520I10160J0D01*
G37*
G36*
G01X10879690Y6505440D02*
X10844280Y6461920D01*
X10890000Y6409850D01*
X10935720Y6461920D01*
X10900310Y6505440D01*
G03X10879690I-10310J-23210D01*
G37*
G36*
G01X11296680Y6782520D02*
X11317000D01*
X11318800Y6814800D01*
X11286520Y6813000D01*
Y6792680D01*
G03X11296680Y6782520I10160J0D01*
G37*
G36*
G01X11436470Y354100D02*
X12186850D01*
X12213740Y327200D01*
X12214060Y323510D01*
G03X12230450Y282420I75944J6479D01*
G02X12221470Y250630I-15876J-12679D01*
G03X12178680Y224840I43535J-120626D01*
G02X12151320I-13680J15023D01*
G03X12065000Y258240I-86320J-94844D01*
G03X11936760Y130000I0J-128240D01*
G03X11956770Y61220I128238J7D01*
G02X11939620Y30000I-17151J-10899D01*
G01X11440380D01*
G02X11423230Y61220I1J20321D01*
G03X11443240Y130000I-108228J68787D01*
G03X11386880Y236200I-128237J0D01*
G02X11386010Y269230I11390J16826D01*
G03X11416220Y330000I-46017J60770D01*
G03X11416160Y332980I-76219J-44D01*
G02X11436470Y354100I20305J800D01*
G37*
G36*
G01X11704080Y1122820D02*
X11718450Y1108450D01*
X11742540Y1130000D01*
X11718450Y1151550D01*
X11704080Y1137180D01*
G03Y1122820I7180J-7180D01*
G37*
G36*
G01X11875920Y3157180D02*
X11861550Y3171550D01*
X11837460Y3150000D01*
X11861550Y3128450D01*
X11875920Y3142820D01*
G03Y3157180I-7180J7180D01*
G37*
G36*
G01X11463180Y5973020D02*
X11483500D01*
X11485300Y6005300D01*
X11453020Y6003500D01*
Y5983180D01*
G03X11463180Y5973020I10160J0D01*
G37*
G36*
G01X11453020Y5896820D02*
Y5876500D01*
X11485300Y5874700D01*
X11483500Y5906980D01*
X11463180D01*
G03X11453020Y5896820I0J-10160D01*
G37*
G36*
G01X11463180Y5713020D02*
X11483500D01*
X11485300Y5745300D01*
X11453020Y5743500D01*
Y5723180D01*
G03X11463180Y5713020I10160J0D01*
G37*
G36*
G01X11453130Y5635340D02*
X11456140Y5615020D01*
X11488410Y5614830D01*
X11486500Y5646980D01*
X11463180D01*
G03X11453130Y5635340I0J-10159D01*
G37*
G36*
G01X12166290Y112040D02*
X12206660Y71670D01*
X12271350Y130000D01*
X12206660Y188330D01*
X12166290Y147960D01*
G03Y112040I17960J-17960D01*
G37*
G36*
G01X12163710Y147960D02*
X12123340Y188330D01*
X12058650Y130000D01*
X12123340Y71670D01*
X12163710Y112040D01*
G03Y147960I-17960J17960D01*
G37*
G36*
G01X12259520Y350320D02*
Y330000D01*
X12291800Y328200D01*
X12290000Y360480D01*
X12269680D01*
G03X12259520Y350320I0J-10160D01*
G37*
G36*
G01X11989680Y2229520D02*
X12010000D01*
X12011800Y2261800D01*
X11979520Y2260000D01*
Y2239680D01*
G03X11989680Y2229520I10160J0D01*
G37*
G36*
G01X11989720Y3410980D02*
X11975350Y3425350D01*
X11951260Y3403800D01*
X11975350Y3382250D01*
X11989720Y3396620D01*
G03Y3410980I-7180J7180D01*
G37*
G36*
G01X12362600Y4414940D02*
X12422160Y4414950D01*
X12426650Y4504390D01*
X12337210Y4499900D01*
X12337200Y4440340D01*
G03X12362600Y4414940I25400J0D01*
G37*
G36*
G01X12108600Y4287940D02*
X12168160Y4287950D01*
X12172650Y4377390D01*
X12083210Y4372900D01*
X12083200Y4313340D01*
G03X12108600Y4287940I25400J0D01*
G37*
G36*
G01X12270360Y4390860D02*
X12228230Y4432970D01*
X12161810Y4372900D01*
X12228230Y4312830D01*
X12270360Y4354940D01*
G03Y4390860I-17960J17960D01*
G37*
G36*
G01X12083200Y6067770D02*
X12083210Y6008210D01*
X12172650Y6003720D01*
X12168160Y6093170D01*
X12108600D01*
G03X12083200Y6067770I0J-25400D01*
G37*
G36*
G01X12227720Y6093170D02*
X12168160D01*
X12163670Y6003720D01*
X12253110Y6008210D01*
X12253120Y6067770D01*
G03X12227720Y6093170I-25400J0D01*
G37*
G36*
G01X12319960Y6117250D02*
X12362090Y6075140D01*
X12428510Y6135210D01*
X12362090Y6195280D01*
X12319960Y6153170D01*
G03Y6117250I17960J-17960D01*
G37*
G36*
G01X12915440Y4510210D02*
X12871920Y4545620D01*
X12819850Y4499900D01*
X12871920Y4454180D01*
X12915440Y4489590D01*
G03Y4510210I-23210J10310D01*
G37*
G36*
G01X12713100Y4594090D02*
X12628080Y4545620D01*
X12670310Y4494590D01*
X12719520Y4454180D01*
X12744920Y4569520D01*
G03X12713100Y4594090I-25396J0D01*
G37*
G36*
G01X12584560Y4489590D02*
X12628080Y4454180D01*
X12680150Y4499900D01*
X12628080Y4545620D01*
X12584560Y4510210D01*
G03Y4489590I23210J-10310D01*
G37*
G36*
G01X12524360Y4517860D02*
X12482230Y4559970D01*
X12415810Y4499900D01*
X12482230Y4439830D01*
X12524360Y4481940D01*
G03Y4517860I-17960J17960D01*
G37*
G36*
G01X12836510Y6045970D02*
X12871920Y6089490D01*
X12826200Y6141560D01*
X12780480Y6089490D01*
X12815890Y6045970D01*
G03X12836510I10310J23210D01*
G37*
G36*
G01X12524360Y6153170D02*
X12482230Y6195280D01*
X12415810Y6135210D01*
X12482230Y6075140D01*
X12524360Y6117250D01*
G03Y6153170I-17960J17960D01*
G37*
G36*
G01X12584560Y6124900D02*
X12628080Y6089490D01*
X12680150Y6135210D01*
X12628080Y6180930D01*
X12584560Y6145520D01*
G03Y6124900I23210J-10310D01*
G37*
G36*
G01X13556240Y4124510D02*
X13595720Y4168080D01*
X13550000Y4216340D01*
X13504280Y4168080D01*
X13543760Y4124510D01*
G03X13556240I6240J8020D01*
G37*
G36*
G01X13542820Y4131810D02*
X13493290Y4082280D01*
X13547090Y4025860D01*
X13601460Y4081830D01*
X13557610Y4131370D01*
G03X13542820Y4131810I-7602J-6740D01*
G37*
G36*
G01X13599520Y4572220D02*
X13504280Y4559520D01*
X13547670Y4511650D01*
X13595720Y4468080D01*
X13612210Y4558990D01*
G03X13599520Y4572220I-12690J529D01*
G37*
G36*
G01X13455900Y4553120D02*
X13504280Y4468080D01*
X13555310Y4510310D01*
X13595720Y4559520D01*
X13480480Y4584920D01*
G03X13455900Y4553120I0J-25400D01*
G37*
G36*
G01X13481120Y5023200D02*
X13547160D01*
X13548960Y5101200D01*
X13470960Y5099400D01*
Y5033360D01*
G03X13481120Y5023200I10160J0D01*
G37*
G36*
G01X13487940Y4711230D02*
X13504280Y4620480D01*
X13551910Y4664520D01*
X13595720Y4711920D01*
X13498080Y4722080D01*
G03X13487940Y4711230I0J-10163D01*
G37*
G36*
G01X13463070Y6037490D02*
X13504280Y5950480D01*
X13555110Y5992430D01*
X13595720Y6041920D01*
X13488080Y6067320D01*
G03X13463070Y6037490I0J-25399D01*
G37*
G36*
G01X13556240Y5754510D02*
X13595720Y5798080D01*
X13550000Y5846340D01*
X13504280Y5798080D01*
X13543760Y5754510D01*
G03X13556240I6240J8020D01*
G37*
G36*
G01X13542820Y5767120D02*
X13493290Y5717590D01*
X13547090Y5661170D01*
X13601460Y5717140D01*
X13557610Y5766680D01*
G03X13542820Y5767120I-7602J-6740D01*
G37*
G36*
G01X13478080Y6340150D02*
X13504280Y6250480D01*
X13552040Y6294690D01*
X13595720Y6341920D01*
X13488080Y6352080D01*
G03X13478080Y6340150I0J-10156D01*
G37*
G36*
G01X13481120Y6658510D02*
X13547160D01*
X13548960Y6736510D01*
X13470960Y6734710D01*
Y6668670D01*
G03X13481120Y6658510I10160J0D01*
G37*
%LPC*%
G75*
G36*
G01X11550000Y7400820D02*
G02X11580480Y7412460I30480J-34087D01*
G01X11671920D01*
G02X11702670Y7400580I0J-45736D01*
G01X11712760Y7391420D01*
X11718250Y7393050D01*
G02X11740000Y7396220I21753J-73050D01*
G02Y7243780I0J-76220D01*
G02X11716960Y7247340I-18J76223D01*
G01X11711560Y7249060D01*
X11701780Y7240630D01*
G02X11671920Y7229540I-29860J34654D01*
G01X11580480D01*
G02X11550000Y7241180I0J45727D01*
G02X11519520Y7229540I-30480J34087D01*
G01X11428080D01*
G02X11397370Y7241390I7J45737D01*
G01X11388300Y7249610D01*
X11382810Y7247970D01*
G02X11361000Y7244780I-21820J73029D01*
G02X11344680Y7246550I10J76219D01*
G01X11339570Y7247670D01*
X11332630Y7241390D01*
G02X11301920Y7229540I-30717J33887D01*
G01X11210480D01*
G02X11180000Y7241180I0J45727D01*
G02X11149520Y7229540I-30480J34087D01*
G01X11058080D01*
G02X11045480Y7231310I0J45732D01*
G01X11039730Y7232960D01*
X11028310Y7221540D01*
X11091390Y7158460D01*
X11149520D01*
G02X11180000Y7146820I0J-45727D01*
G02X11210480Y7158460I30480J-34087D01*
G01X11301920D01*
G02X11332630Y7146610I-7J-45737D01*
G01X11341130Y7138910D01*
X11346530Y7140420D01*
G02X11367000Y7143220I20470J-73425D01*
G02X11384730Y7141130I3J-76220D01*
G01X11389940Y7139880D01*
X11397370Y7146610D01*
G02X11428080Y7158460I30717J-33887D01*
G01X11519520D01*
G02X11550000Y7146820I0J-45727D01*
G02X11580480Y7158460I30480J-34087D01*
G01X11671920D01*
G02X11702860Y7146410I0J-45746D01*
G01X11717450Y7133010D01*
X11722680Y7134230D01*
G02X11740000Y7136220I17303J-74232D01*
G02Y6983780I0J-76220D01*
G02X11713330Y6988600I4J76219D01*
G01X11708610Y6990360D01*
X11696350Y6982610D01*
G02X11671920Y6975540I-24430J38673D01*
G01X11580480D01*
G02X11550000Y6987180I0J45727D01*
G02X11519520Y6975540I-30480J34087D01*
G01X11428080D01*
G02X11397370Y6987390I7J45737D01*
G01X11389940Y6994120D01*
X11384730Y6992870D01*
G02X11367000Y6990780I-17727J74130D01*
G02X11346530Y6993580I0J76225D01*
G01X11341130Y6995090D01*
X11332630Y6987390D01*
G02X11301920Y6975540I-30717J33887D01*
G01X11210480D01*
G02X11180000Y6987180I0J45727D01*
G02X11149520Y6975540I-30480J34087D01*
G01X11058080D01*
G02X11012340Y7021280I0J45740D01*
G01Y7079410D01*
X10937650Y7154100D01*
X10806720D01*
G03X10792040Y7119720I-7J-20321D01*
G02X10813220Y7067000I-55038J-52726D01*
G02X10737000Y6990780I-76220J0D01*
G02X10698490Y7001220I-7J76222D01*
G01X10692060Y7004990D01*
X10672630Y6987390D01*
G02X10641920Y6975540I-30717J33887D01*
G01X10550480D01*
G02X10504740Y7021280I0J45740D01*
G01Y7112720D01*
G02X10507130Y7127300I45738J-12D01*
G03X10487870Y7154100I-19260J6479D01*
G01X10326850D01*
X10226850Y7254100D01*
X9551810D01*
G02X9500000Y7233780I-51810J55890D01*
G02Y7386220I0J76220D01*
G02X9551810Y7365900I0J-76210D01*
G01X10273150D01*
X10373150Y7265900D01*
X10504740D01*
Y7366720D01*
G02X10550480Y7412460I45740J0D01*
G01X10641920D01*
G02X10672630Y7400610I-7J-45737D01*
G01X10692950Y7382210D01*
X10699430Y7386140D01*
G02X10739000Y7397220I39576J-65138D01*
G02X10815220Y7321000I0J-76220D01*
G02X10810100Y7293540I-76219J4D01*
G03X10829060Y7265900I18956J-7320D01*
G01X10899560D01*
G03X10918600Y7293330I4J20320D01*
G02X10913780Y7320000I71399J26674D01*
G02X10990000Y7396220I76220J0D01*
G02X11011750Y7393050I-3J-76220D01*
G01X11017240Y7391420D01*
X11027330Y7400580D01*
G02X11058080Y7412460I30750J-33856D01*
G01X11149520D01*
G02X11180000Y7400820I0J-45727D01*
G02X11210480Y7412460I30480J-34087D01*
G01X11301920D01*
G02X11332630Y7400610I-7J-45737D01*
G01X11339570Y7394330D01*
X11344680Y7395450D01*
G02X11361000Y7397220I16330J-74449D01*
G02X11382810Y7394030I-10J-76219D01*
G01X11388300Y7392390D01*
X11397370Y7400610D01*
G02X11428080Y7412460I30717J-33887D01*
G01X11519520D01*
G02X11550000Y7400820I0J-45727D01*
G37*
G36*
G01X1548130Y6581120D02*
Y6733520D01*
G02X1598950Y6784340I50820J0D01*
G01X1751350D01*
G02X1802170Y6733520I0J-50820D01*
G01Y6581120D01*
G02X1751350Y6530300I-50820J0D01*
G01X1598950D01*
G02X1548130Y6581120I0J50820D01*
G37*
G36*
G01X4141810Y3144100D02*
G02X4090000Y3276220I-51810J55902D01*
G02X4141810Y3255900I0J-76210D01*
G01X4628190D01*
G02X4680000Y3276220I51810J-55890D01*
G02Y3123780I0J-76220D01*
G02X4628190Y3144100I0J76210D01*
G01X4141810D01*
G37*
G54D71*
X9230000Y380000D03*
X9630000D03*
G54D60*
X220000Y2070000D03*
G54D73*
X12525000Y160000D03*
X12755000D03*
X11575000D03*
X11805000D03*
G54D63*
X230000Y4550000D03*
Y5612500D03*
X930000Y4550000D03*
G54D64*
X1813650Y6941320D03*
X2506150Y6657320D03*
X2367650Y6941320D03*
X2090650D03*
X2644650D03*
G54D68*
X3330000Y2590000D03*
G54D62*
X485000Y1155900D03*
G54D67*
X5289990Y1115900D03*
G54D61*
X220000Y2870000D03*
G54D70*
X7220000Y1100000D03*
G54D65*
X2783150Y6657320D03*
G54D66*
X3479150Y6799320D03*
G54D69*
X4240000Y2590000D03*
G54D72*
X13420000Y1070000D03*
%LPD*%
G75*
G36*
G01X2565440Y6257810D02*
X2521920Y6293220D01*
X2469850Y6247500D01*
X2521920Y6201780D01*
X2565440Y6237190D01*
G03Y6257810I-23210J10310D01*
G37*
G36*
G01X4125920Y3207180D02*
X4111550Y3221550D01*
X4087460Y3200000D01*
X4111550Y3178450D01*
X4125920Y3192820D01*
G03Y3207180I-7180J7180D01*
G37*
G36*
G01X4644080Y3192820D02*
X4658450Y3178450D01*
X4682540Y3200000D01*
X4658450Y3221550D01*
X4644080Y3207180D01*
G03Y3192820I7180J-7180D01*
G37*
G36*
G01X9535920Y7317180D02*
X9521550Y7331550D01*
X9497460Y7310000D01*
X9521550Y7288450D01*
X9535920Y7302820D01*
G03Y7317180I-7180J7180D01*
G37*
G36*
G01X10815920Y337180D02*
X10801550Y351550D01*
X10777460Y330000D01*
X10801550Y308450D01*
X10815920Y322820D01*
G03Y337180I-7180J7180D01*
G37*
G36*
G01X10701080Y7059820D02*
X10715450Y7045450D01*
X10739540Y7067000D01*
X10715450Y7088550D01*
X10701080Y7074180D01*
G03Y7059820I7180J-7180D01*
G37*
G36*
G01X10685490Y7073240D02*
X10641920Y7112720D01*
X10593660Y7067000D01*
X10641920Y7021280D01*
X10685490Y7060760D01*
G03Y7073240I-8020J6240D01*
G37*
G36*
G01Y7327240D02*
X10641920Y7366720D01*
X10593660Y7321000D01*
X10641920Y7275280D01*
X10685490Y7314760D01*
G03Y7327240I-8020J6240D01*
G37*
G36*
G01X10703080Y7313820D02*
X10717450Y7299450D01*
X10741540Y7321000D01*
X10717450Y7342550D01*
X10703080Y7328180D01*
G03Y7313820I7180J-7180D01*
G37*
G36*
G01X11345490Y7073240D02*
X11301920Y7112720D01*
X11253660Y7067000D01*
X11301920Y7021280D01*
X11345490Y7060760D01*
G03Y7073240I-8020J6240D01*
G37*
G36*
G01X11013660Y7313570D02*
X11058080Y7275280D01*
X11106340Y7321030D01*
X11058080Y7366720D01*
X11013530Y7326260D01*
G03X11013660Y7313570I8000J-6264D01*
G37*
G36*
G01X11025920Y7327180D02*
X11011550Y7341550D01*
X10987460Y7320000D01*
X11011550Y7298450D01*
X11025920Y7312820D01*
G03Y7327180I-7180J7180D01*
G37*
G36*
G01X11345490Y7327240D02*
X11301920Y7366720D01*
X11253660Y7321000D01*
X11301920Y7275280D01*
X11345490Y7314760D01*
G03Y7327240I-8020J6240D01*
G37*
G36*
G01X11325080Y7313820D02*
X11339450Y7299450D01*
X11363540Y7321000D01*
X11339450Y7342550D01*
X11325080Y7328180D01*
G03Y7313820I7180J-7180D01*
G37*
G36*
G01X11722380Y7066380D02*
X11671920Y7112720D01*
X11623670Y7067200D01*
X11671920Y7021280D01*
X11721310Y7052490D01*
G03X11722380Y7066380I-6840J7513D01*
G37*
G36*
G01X11704080Y7052820D02*
X11718450Y7038450D01*
X11742540Y7060000D01*
X11718450Y7081550D01*
X11704080Y7067180D01*
G03Y7052820I7180J-7180D01*
G37*
G36*
G01X11384510Y7060760D02*
X11428080Y7021280D01*
X11476340Y7067000D01*
X11428080Y7112720D01*
X11384510Y7073240D01*
G03Y7060760I8020J-6240D01*
G37*
G36*
G01X11331080Y7059820D02*
X11345450Y7045450D01*
X11369540Y7067000D01*
X11345450Y7088550D01*
X11331080Y7074180D01*
G03Y7059820I7180J-7180D01*
G37*
G36*
G01X11402920Y7074180D02*
X11388550Y7088550D01*
X11364460Y7067000D01*
X11388550Y7045450D01*
X11402920Y7059820D01*
G03Y7074180I-7180J7180D01*
G37*
G36*
G01X11716470Y7326260D02*
X11671920Y7366720D01*
X11623660Y7321030D01*
X11671920Y7275280D01*
X11716340Y7313570D01*
G03X11716470Y7326260I-7870J6426D01*
G37*
G36*
G01X11704080Y7312820D02*
X11718450Y7298450D01*
X11742540Y7320000D01*
X11718450Y7341550D01*
X11704080Y7327180D01*
G03Y7312820I7180J-7180D01*
G37*
G36*
G01X11384510Y7314760D02*
X11428080Y7275280D01*
X11476340Y7321000D01*
X11428080Y7366720D01*
X11384510Y7327240D01*
G03Y7314760I8020J-6240D01*
G37*
G36*
G01X11396920Y7328180D02*
X11382550Y7342550D01*
X11358460Y7321000D01*
X11382550Y7299450D01*
X11396920Y7313820D01*
G03Y7328180I-7180J7180D01*
G37*
G36*
G01X12182820Y2625920D02*
X12168450Y2611550D01*
X12190000Y2587460D01*
X12211550Y2611550D01*
X12197180Y2625920D01*
G03X12182820I-7180J-7180D01*
G37*
G54D10*
X485000Y1155900D03*
Y3575900D03*
G54D11*
X110000Y1350000D03*
Y1680000D03*
X120000Y2300000D03*
Y1970000D03*
X110000Y2680000D03*
Y3010000D03*
X100000Y4490000D03*
Y4240000D03*
Y4740000D03*
Y4990000D03*
Y5510000D03*
Y5250000D03*
Y6020000D03*
Y5760000D03*
X700000Y200000D03*
Y530000D03*
X830000Y1880000D03*
X790000Y3000000D03*
X830000Y3850000D03*
X510000Y4430000D03*
Y4680000D03*
X570000Y5760000D03*
X890000D03*
X1260000Y830000D03*
X1250000Y1390000D03*
Y1190000D03*
X1110000Y980000D03*
Y1100000D03*
X971960Y1680000D03*
X1184000Y2364000D03*
Y2144000D03*
X1186000Y2254000D03*
X1190000Y2680000D03*
X1186000Y2804000D03*
X1184000Y2914000D03*
Y2474000D03*
X1186000Y3024000D03*
X1160000Y3850000D03*
X1310000Y3940000D03*
X1200000Y4400000D03*
Y5010000D03*
Y4760000D03*
X1320000Y6020000D03*
X1310000Y5820000D03*
X1240000Y6220000D03*
X1700000Y230000D03*
X1640000Y1090000D03*
X1790000D03*
X1890000Y1200000D03*
X1570000Y2380000D03*
X1450000Y2710000D03*
X1780000Y3150000D03*
X1460000Y3050000D03*
X1900000Y3730000D03*
X1570000D03*
X1760000Y4030000D03*
X1520000Y4400000D03*
Y4150000D03*
X1530000Y5030000D03*
Y4780000D03*
X1850000Y6040000D03*
Y5820000D03*
X1500000Y7120000D03*
X2030000Y230000D03*
X2220000Y100000D03*
X2390000Y770000D03*
X2040000D03*
X2470000Y1230000D03*
Y1510000D03*
X1970000Y1950000D03*
X2260000Y2250000D03*
X2250000Y3140000D03*
X2400000Y3730000D03*
X2404140Y3940000D03*
X2060000Y5110000D03*
X2280000Y7120000D03*
X2550000Y100000D03*
X2500000Y350000D03*
X2850000Y870000D03*
X2520000D03*
X2800000Y610000D03*
X2540000Y470000D03*
X2670000Y1230000D03*
X2860000D03*
X2670000Y1510000D03*
X2630000Y1710000D03*
X2760000Y2750000D03*
X2730000Y3870000D03*
X2670000Y4150000D03*
X2960000Y4167600D03*
X2510000Y4630000D03*
X2980000Y4880000D03*
X2957600Y4622400D03*
X2480000Y5240000D03*
X2950000Y5400000D03*
X2980000Y5210000D03*
Y5100000D03*
X2950000Y5820000D03*
X2840000Y6100000D03*
X2607500Y6247500D03*
X2990000Y6430000D03*
X3350000Y1140000D03*
X3060000Y1230000D03*
X3330000Y1730000D03*
X3010000Y2310000D03*
Y1980000D03*
X3160000Y3150000D03*
X3420000Y4980000D03*
X3350000Y5050000D03*
Y4910000D03*
X3490000Y5050000D03*
Y4910000D03*
X3070000Y4620000D03*
X3080000Y5400000D03*
X3200000Y5240000D03*
X3080000Y5820000D03*
X3450000Y5810000D03*
Y5970000D03*
X3330000D03*
X3200000D03*
X3000000Y6260000D03*
X3010000Y7130000D03*
X3790000Y970000D03*
Y1120000D03*
X3800000Y1340000D03*
X3930000Y1450000D03*
X3660000Y2310000D03*
Y1980000D03*
X4010000Y2960000D03*
X3680000D03*
X3560000Y3520000D03*
X3810000Y3770000D03*
X3870000Y4810000D03*
Y4660000D03*
X3640000Y5220000D03*
X3850000Y5130000D03*
X3890000Y5390000D03*
X3580000Y5810000D03*
X3740000D03*
X3870000D03*
X4010000D03*
X3580000Y5970000D03*
X3850000D03*
X3720000D03*
X3530000Y6270000D03*
X4130000Y870000D03*
Y1280000D03*
X4250000Y2310000D03*
Y1980000D03*
X4523000Y2350000D03*
X4380000Y3460000D03*
X4050000D03*
X4090000Y3200000D03*
X4310000Y4510000D03*
X4260000Y5040000D03*
X4300000Y4810000D03*
X4240000Y4660000D03*
X4270000Y5230000D03*
Y5420000D03*
Y5660000D03*
X4280000Y5970000D03*
X4550000Y5980000D03*
X4140000Y5810000D03*
X4384360Y6100000D03*
X4210000Y6270000D03*
X4620000Y880000D03*
Y1290000D03*
X4970000Y1980000D03*
X4660000Y2270000D03*
X4680000Y2830000D03*
Y2940000D03*
X4670000Y2661600D03*
X4680000Y3060000D03*
Y3390000D03*
Y3200000D03*
X5110000Y1050000D03*
X5390000Y1400000D03*
Y1640000D03*
X5500000Y2470000D03*
X5310000Y2070000D03*
Y2300000D03*
X5510000Y2185890D03*
X5500000Y2560000D03*
X5220000Y2590000D03*
Y2700000D03*
X5214000Y2474000D03*
X5260000Y3480000D03*
X5400000D03*
Y3350000D03*
X5260000D03*
X5400000Y3210000D03*
X5260000D03*
X5400000Y3080000D03*
X5330000Y3420000D03*
Y3270000D03*
Y3140000D03*
X5130000Y5040000D03*
Y4850000D03*
X5570000Y5040000D03*
Y4850000D03*
X5513800Y6096200D03*
X5510000Y6340000D03*
Y6470000D03*
X5180000Y6600000D03*
Y6930000D03*
X5200000Y7410000D03*
X5530000D03*
X5840000Y620000D03*
Y710000D03*
X5700000Y2040000D03*
X5890000Y2220000D03*
X5990000D03*
X5890000Y2050000D03*
X6010000Y3500000D03*
X6020000Y3170000D03*
Y3270000D03*
X6080000Y3430000D03*
X6010000Y3600000D03*
X5870000Y3730000D03*
X5620000Y4476340D03*
Y4329020D03*
Y4550000D03*
Y4255360D03*
Y4402680D03*
X6090000Y5540010D03*
Y5440010D03*
Y5340010D03*
Y5240010D03*
Y5740010D03*
Y5640010D03*
X5936120Y6090000D03*
X6120000Y6980000D03*
X5890000Y7410000D03*
X6270000Y370000D03*
X6150000D03*
Y460000D03*
X6270000D03*
X6540000Y2430000D03*
X6640000D03*
X6420000Y2830000D03*
Y2970000D03*
Y3340000D03*
X6530000Y3039990D03*
X6420000Y3139990D03*
Y3239990D03*
X6490000Y4540000D03*
X6630000Y4320000D03*
X6480000Y4820000D03*
Y5010000D03*
Y5200000D03*
Y5390000D03*
X6630000Y5750000D03*
X6340000Y6050000D03*
X6410000Y7030000D03*
Y6790000D03*
X6260000Y6740000D03*
X6220000Y7410000D03*
X6830000Y1630000D03*
X7040000D03*
X7029990Y2430000D03*
X7030000Y2630000D03*
Y2530000D03*
X7080000Y3330000D03*
X6660000Y3390000D03*
X7080000Y3520000D03*
X6660000Y3530000D03*
Y3660000D03*
X7080000Y4220000D03*
Y4060000D03*
X7100000Y4830000D03*
Y4640000D03*
X6910000Y5140000D03*
Y5330000D03*
X7100000D03*
X6900000Y5580000D03*
X6980000Y5500000D03*
X7110000Y5710000D03*
X6830000Y5660000D03*
X6740000Y7030000D03*
X6870000Y6720000D03*
X6920000Y6780000D03*
X7120000Y6730000D03*
X7420000Y510000D03*
X7540000D03*
Y420000D03*
X7420000D03*
X7570000Y1830000D03*
X7220000Y1630000D03*
X7194090Y1865910D03*
Y1939570D03*
X7305000Y2015000D03*
X7680000Y2760000D03*
Y2890000D03*
X7570000Y2850000D03*
X7490000D03*
X7410000D03*
X7200000D03*
X7630000Y3430000D03*
X7490000Y4950000D03*
Y5140000D03*
X7500000Y5710000D03*
X7633310D03*
X7563310Y6550000D03*
X7310000D03*
X7420000Y7030000D03*
X7587270Y7102730D03*
X7220000Y7030000D03*
X7313310D03*
X7213310Y6730000D03*
X7920000Y470000D03*
X8040000D03*
Y560000D03*
X7920000D03*
X8197500Y887500D03*
X7937500D03*
X8100000Y1290000D03*
X8131460Y936460D03*
X7930000Y1370000D03*
X7740000Y1830000D03*
Y1580000D03*
Y1950000D03*
X7829990Y2440000D03*
X7830000Y2890000D03*
X7750000Y2590000D03*
X7820000Y3430000D03*
X8029990Y3830000D03*
X8129990Y3690000D03*
X7820000Y4740000D03*
X8010000D03*
X7790000Y5230000D03*
X7713310Y5640000D03*
Y7170000D03*
X7810000D03*
X7840000Y7100000D03*
X7990000D03*
X7920000Y7170000D03*
X8180000Y7200000D03*
X8370000Y460000D03*
X8550000D03*
Y880000D03*
X8590000Y1300000D03*
X8390000Y1360000D03*
X8717500Y937500D03*
X8310000Y1360000D03*
X8700000Y1300000D03*
X8270000Y1680000D03*
X8720000Y2620000D03*
X8510000Y2570000D03*
X8230000Y3830000D03*
X8330010Y3620000D03*
X8430010Y3760000D03*
X8709580Y5072920D03*
X8511290Y4850000D03*
X8530000Y5740000D03*
X8900000Y360000D03*
X9120000Y580000D03*
X9240000Y660000D03*
X9020000Y1280000D03*
X8990000Y1110000D03*
X9010000Y1590000D03*
X9210000Y1930000D03*
X8830010Y2469990D03*
X8870000Y2060000D03*
X8810000Y2620000D03*
X8910000D03*
X9010000D03*
X9120000D03*
X9220000Y3380000D03*
X9030000D03*
X9190000Y3920000D03*
X9000000D03*
X9200000Y3640000D03*
X9010000D03*
X9047320Y4140000D03*
Y4213660D03*
Y4290000D03*
Y4437320D03*
Y4363660D03*
X9130000Y5060000D03*
X8940000Y5070000D03*
X8783180Y5069860D03*
X8863660Y5070000D03*
X9010000Y5420000D03*
X9110000D03*
X9210000D03*
X8900000Y5740000D03*
X9070000Y7420000D03*
X9770000Y550000D03*
X9670000D03*
X9560000Y820000D03*
X9390000Y940000D03*
X9630000Y930000D03*
X9500000Y1800000D03*
Y1560000D03*
X9730000Y1770000D03*
X9680000Y2060000D03*
X9630000Y3430000D03*
Y3530000D03*
Y3630000D03*
Y3730000D03*
Y3830000D03*
Y3940000D03*
Y4040000D03*
X9320000Y5060000D03*
X9550000Y5020000D03*
X9690000Y4890000D03*
X9315000Y5425000D03*
X9630000Y6090000D03*
X9780000Y5670000D03*
X9370000Y6180000D03*
X9570000Y6750000D03*
X9510000Y6705370D03*
X9336340Y6680000D03*
X9410000D03*
X9400000Y7420000D03*
X9500000Y7310000D03*
X10130000Y320000D03*
X9970000Y570000D03*
X10040000D03*
X9970000Y500000D03*
X10040000D03*
X9970000Y430000D03*
X10040000D03*
X9950000Y1460000D03*
X10180000Y1770000D03*
Y1981300D03*
X10305000Y2445000D03*
X10280000Y3650000D03*
X9950000Y4140010D03*
X9850000Y4720000D03*
X9940000Y5540000D03*
X10210000Y5970000D03*
X10040000Y6030000D03*
X9860000Y5750000D03*
X9950000Y5670000D03*
X10190000Y5860000D03*
X10020000Y6560000D03*
X10170000D03*
X10000000Y7420000D03*
X10780000Y330000D03*
X10660000Y1410000D03*
X10830000D03*
X10650000Y1900000D03*
X10780000Y1910000D03*
X10650000Y1760000D03*
Y1580000D03*
X10610000Y2970000D03*
X10700000Y2870000D03*
X10840000Y2970000D03*
X10460000Y3140000D03*
X10520000Y3060000D03*
X10360000Y3230000D03*
X10760000Y3630000D03*
X10360000Y3650000D03*
X10440000Y4650000D03*
X10810000Y5380000D03*
X10680000Y5570000D03*
X10590000Y5830000D03*
X10530000Y6420000D03*
X10330000Y6560000D03*
X10620000Y6350000D03*
X10739000Y6559000D03*
X10737000Y7067000D03*
Y6813000D03*
X10330000Y7420000D03*
X10739000Y7321000D03*
X11340000Y330000D03*
X10910000Y1410000D03*
X10990000D03*
X11000000Y2390000D03*
Y2316340D03*
Y2240000D03*
Y2166340D03*
X10950000Y2970000D03*
X11030000Y3040000D03*
Y3140000D03*
Y3240000D03*
Y3340000D03*
Y3440000D03*
X10940000D03*
X10850000D03*
X11290000Y3970000D03*
X10880000Y3630000D03*
X11280000Y4440000D03*
Y4770000D03*
X11130000Y4950000D03*
X11140000Y5460000D03*
X11020000Y5380000D03*
X10920000D03*
X10930000Y5778500D03*
X11010000Y5700000D03*
Y5860000D03*
X10850000D03*
Y5700000D03*
X11110000Y6050000D03*
X11360000Y6400000D03*
X11200000Y6140000D03*
X11321000Y6559000D03*
X11118720Y6140000D03*
X10980000D03*
X10890000Y6560000D03*
X11317000Y6813000D03*
X10990000Y7320000D03*
X11361000Y7321000D03*
X11740000Y1130000D03*
X11650000Y2310000D03*
X11660000Y2170000D03*
X11860000Y2320000D03*
X11840000Y3150000D03*
X11700000Y3750000D03*
X11600000Y3970000D03*
X11590000Y4440000D03*
Y4770000D03*
X11430000Y4940000D03*
X11700000Y5070000D03*
X11480000Y5460000D03*
X11700000D03*
X11480000Y5220000D03*
X11700000D03*
Y5680000D03*
Y5940000D03*
X11483500Y6003500D03*
Y5876500D03*
Y5743500D03*
X11486500Y5616500D03*
X11720000Y6410000D03*
X11370000Y6150000D03*
X11730000Y6140000D03*
X11740000Y7060000D03*
X11367000Y7067000D03*
X11740000Y7320000D03*
X12290000Y330000D03*
X12220000Y580000D03*
X12340000D03*
X12280000Y510000D03*
X12400000D03*
X12220000Y1550000D03*
X12280000Y1610000D03*
X12010000Y2260000D03*
X11900000Y2660000D03*
X12190000Y2590000D03*
X12290000D03*
X12240000Y2520000D03*
X12390000Y2590000D03*
X12340000Y2520000D03*
X11953800Y3403800D03*
X11920000Y3970000D03*
X11910000Y4440000D03*
Y4770000D03*
X11920000Y5450000D03*
Y5220000D03*
X11940000Y6430000D03*
Y7050000D03*
Y6760000D03*
Y7380000D03*
X12730000Y380000D03*
Y710000D03*
X12460000Y580000D03*
X12580000D03*
X12530000Y510000D03*
X12510000Y1650000D03*
X12590000D03*
Y1740000D03*
X12510000D03*
X12670000Y2380000D03*
X12610000Y1960000D03*
Y2160000D03*
X12800000Y1960000D03*
X12670000Y2710000D03*
X12600000Y2960000D03*
X12440000Y2520000D03*
X12930000Y3190000D03*
X12600000D03*
X12610000Y7400000D03*
X13130000Y860000D03*
Y1190000D03*
X13290000Y3190000D03*
X12940000Y7400000D03*
X13590000Y1740000D03*
X13600000Y2380000D03*
X13590000Y2070000D03*
X13600000Y2710000D03*
X13620000Y3190000D03*
G54D20*
X1590000Y5485500D03*
Y6120500D03*
Y5993500D03*
Y5866500D03*
Y5739500D03*
Y5612500D03*
Y6374500D03*
Y6247500D03*
X2130000Y5485500D03*
Y5612500D03*
Y5739500D03*
Y5866500D03*
Y5993500D03*
Y6120500D03*
Y6247500D03*
Y6374500D03*
X4780000Y6079000D03*
Y6460000D03*
Y6333000D03*
Y6206000D03*
X5320000Y6079000D03*
Y6206000D03*
Y6333000D03*
Y6460000D03*
X6067000Y6079000D03*
Y6460000D03*
Y6333000D03*
Y6206000D03*
X6607000Y6079000D03*
Y6206000D03*
Y6333000D03*
Y6460000D03*
X7910000Y1824000D03*
Y1697000D03*
Y1570000D03*
Y1951000D03*
X8450000Y1570000D03*
Y1697000D03*
Y1824000D03*
Y1951000D03*
G54D12*
X199000Y6290000D03*
X5640000Y500000D03*
X10710000Y3839000D03*
G54D21*
X1760000Y5225000D03*
X1675150Y6657320D03*
X4590000Y5612500D03*
G54D30*
X5289990Y1115900D03*
G54D31*
Y3615890D03*
G54D40*
X10720000Y5903500D03*
Y5853500D03*
Y5803500D03*
Y5753500D03*
Y5703500D03*
Y5653500D03*
X11140000D03*
Y5703500D03*
Y5753500D03*
Y5803500D03*
Y5853500D03*
Y5903500D03*
G54D13*
X950000Y225000D03*
X2830000D03*
G54D22*
X2205000Y4410800D03*
X2300000D03*
X2395000D03*
Y4681600D03*
X2205000D03*
X9683800Y1324600D03*
X9778800D03*
X9683800Y1595400D03*
X9873800Y1324600D03*
Y1595400D03*
G54D50*
G01X2840000Y6100000D02*
Y5330000D01*
X2650000Y5140000D01*
Y5124140D01*
X2625860Y5100000D01*
G01X6180000Y7100000D02*
X5550000D01*
X5453800Y7003800D01*
Y6980000D01*
G01X6260000Y6740000D02*
Y7020000D01*
X6180000Y7100000D01*
G01X9324140Y6935860D02*
X8900000Y7360000D01*
X6430000D01*
X6180000Y7110000D01*
Y7100000D01*
G54D14*
X893800Y2370000D03*
Y2070000D03*
Y2220000D03*
Y2700000D03*
Y2850000D03*
Y3000000D03*
Y2520000D03*
Y3150000D03*
X1046200Y2370000D03*
Y2070000D03*
Y2220000D03*
Y2700000D03*
Y2850000D03*
Y3000000D03*
Y2520000D03*
Y3150000D03*
X1223800Y5460000D03*
X1376200D03*
Y6370000D03*
X1223800D03*
X2476200Y5460000D03*
X2323800D03*
X2476200Y5612500D03*
X2323800D03*
Y5910000D03*
X2476200D03*
X2323800Y5760000D03*
X2476200D03*
Y6400000D03*
X2323800D03*
Y6247500D03*
X2476200D03*
X4963800Y2474000D03*
Y2287490D03*
Y2080000D03*
Y2661600D03*
X4983800Y3325900D03*
Y3490000D03*
X4773800Y5910000D03*
X4926200D03*
X5116200Y2474000D03*
Y2287490D03*
Y2080000D03*
Y2661600D03*
X5136200Y3325900D03*
Y3490000D03*
X5513800Y6206000D03*
X5606200Y6980000D03*
X5453800D03*
X5666200Y6206000D03*
X5916200Y6980000D03*
X5763800D03*
X6260800Y6630000D03*
X6413200D03*
X6966200Y6460000D03*
X6813800D03*
Y6206000D03*
X6966200D03*
X8673800Y1951000D03*
Y1700000D03*
X8826200Y1951000D03*
Y1700000D03*
X10323800Y350000D03*
Y500000D03*
Y650000D03*
X9873800Y1770000D03*
X10026200D03*
X9873800Y1981300D03*
X10026200D03*
X10293800Y5460000D03*
Y5860000D03*
X10476200Y350000D03*
Y500000D03*
Y650000D03*
X10446200Y5460000D03*
Y5860000D03*
X10596200Y6559000D03*
X10443800D03*
X10596200Y7067000D03*
X10443800D03*
X10596200Y6813000D03*
X10443800D03*
X10596200Y7321000D03*
X10443800D03*
X11103800Y7067000D03*
X11256200D03*
X11103800Y7321000D03*
X11256200D03*
X11626200Y7067000D03*
X11473800D03*
X11626200Y7321000D03*
X11473800D03*
X12826200Y4499900D03*
X12673800D03*
X12826200Y6135210D03*
X12673800D03*
G54D23*
X2404140Y4167600D03*
X2195860D03*
X2404140Y4870000D03*
X2195860D03*
X10054140Y1120000D03*
X9845860D03*
X10215860Y5630000D03*
X10424140D03*
G54D32*
X6200000Y830000D03*
Y1410000D03*
X7530000Y830000D03*
Y1410000D03*
X13057160Y3865400D03*
Y5008400D03*
Y5500710D03*
Y6643710D03*
G54D41*
X11190000Y984200D03*
X11930000D03*
G54D51*
G01X270000Y2070000D02*
G03I-50000J0D01*
G01Y2870000D02*
G03I-50000J0D01*
G01X1110000Y980000D02*
X1030000Y1060000D01*
Y1270000D01*
X660000Y1640000D01*
Y3240000D01*
X870000Y3450000D01*
X2510000D01*
X3870000Y4810000D01*
G01X1110000Y1100000D02*
Y1270000D01*
X716560Y1663440D01*
Y3216570D01*
X893430Y3393440D01*
X2513440D01*
X3780000Y4660000D01*
X3870000D01*
G01X1590000Y5612500D02*
X1297500D01*
X1110000Y5800000D01*
Y6340000D01*
X1030000Y6420000D01*
X837000D01*
X707000Y6290000D01*
G01X9047320Y4213660D02*
X7196340D01*
X6650000Y4760000D01*
Y5330000D01*
X6170000Y5810000D01*
X5249980D01*
X5017560Y6042420D01*
Y7122420D01*
X4842420Y7297560D01*
X937580D01*
X562440Y6922420D01*
Y6434560D01*
X707000Y6290000D01*
G01X9047320Y4290000D02*
X7175610D01*
X6700000Y4765610D01*
Y5350000D01*
X6199320Y5850680D01*
X5393710D01*
X5391950Y5852440D01*
X5267560D01*
X5060000Y6060000D01*
Y7140000D01*
X4860000Y7340000D01*
X920000D01*
X520000Y6940000D01*
Y6416980D01*
X582540Y6354440D01*
Y6197470D01*
X640010Y6140000D01*
X811000D01*
X961000Y6290000D01*
G01X1184000Y2364000D02*
X1052200D01*
X1046200Y2370000D01*
G01X1184000Y2364000D02*
X1404000D01*
X1450000Y2410000D01*
Y2710000D01*
G01X1184000Y2144000D02*
X1120200D01*
X1046200Y2070000D01*
G01X1186000Y2254000D02*
X1080200D01*
X1046200Y2220000D01*
G01X1186000Y2804000D02*
X1150200D01*
X1046200Y2700000D01*
G01X1184000Y2914000D02*
X1110200D01*
X1046200Y2850000D01*
G01X9047320Y4140000D02*
X7029990D01*
X6439990Y4730000D01*
X5360000D01*
X4980000Y4350000D01*
X3549990D01*
X2439990Y3240000D01*
X983800D01*
X893800Y3150000D01*
G01X1186000Y3024000D02*
X1070200D01*
X1046200Y3000000D01*
G01Y3150000D02*
Y3000000D01*
G01X1590000Y5485500D02*
X1401700D01*
X1376200Y5460000D01*
G01X961000Y6290000D02*
Y5879000D01*
X1376200Y5463800D01*
Y5460000D01*
G01X1715000Y610000D02*
Y2005000D01*
X3660000Y3950000D01*
X6010000D01*
X6310000Y3650000D01*
Y2940000D01*
X6420000Y2830000D01*
G01Y3340000D02*
Y3670000D01*
X6060000Y4030000D01*
X3620000D01*
X1565000Y1975000D01*
Y610000D01*
G01X1465000D02*
Y1997160D01*
X3577840Y4110000D01*
X6110000D01*
X6530000Y3690000D01*
Y3149990D01*
X6420000Y3039990D01*
Y2970000D01*
G01X1415000Y610000D02*
Y2002770D01*
X3561550Y4149320D01*
X6150680D01*
X6570000Y3730000D01*
Y3079990D01*
X6530000Y3039990D01*
G01X1515000Y610000D02*
Y1985000D01*
X3600000Y4070000D01*
X6090000D01*
X6490000Y3670000D01*
Y3209990D01*
X6420000Y3139990D01*
G01X1615000Y610000D02*
Y1065000D01*
X1640000Y1090000D01*
G01X1815000Y610000D02*
Y1065000D01*
X1790000Y1090000D01*
G01X1865000Y610000D02*
Y1175000D01*
X1890000Y1200000D01*
G01X1640000Y1090000D02*
X1615000Y1115000D01*
Y1965000D01*
X3640000Y3990000D01*
X6030000D01*
X6350000Y3670000D01*
Y3309990D01*
X6420000Y3239990D01*
G01X6080000Y3430000D02*
Y3790000D01*
X5960000Y3910000D01*
X3680000D01*
X1815000Y2045000D01*
Y1115000D01*
X1790000Y1090000D01*
G01X6010000Y3600000D02*
Y3790000D01*
X5930000Y3870000D01*
X3700000D01*
X1865000Y2035000D01*
Y1225000D01*
X1890000Y1200000D01*
G01X2415000Y610000D02*
Y295000D01*
X2450000Y260000D01*
X2554390D01*
X2590680Y296290D01*
Y406970D01*
X2653710Y470000D01*
X3324000D01*
X3354000Y500000D01*
G01Y246000D02*
X3169320Y430680D01*
X2670000D01*
X2630000Y390680D01*
Y280000D01*
X2570000Y220000D01*
X2430000D01*
X2365000Y285000D01*
Y610000D01*
G01X6010000Y3500000D02*
X5940000Y3570000D01*
Y3790000D01*
X5900000Y3830000D01*
X4020000D01*
X1965000Y1775000D01*
Y610000D01*
G01X6020000Y3170000D02*
X6100000Y3250000D01*
Y3300000D01*
X5649320Y3750680D01*
X4051900D01*
X2115000Y1813780D01*
Y610000D01*
G01X6020000Y3270000D02*
X5578640Y3711360D01*
X4068190D01*
X2165000Y1808170D01*
Y610000D01*
G01X2390000Y770000D02*
X3650000D01*
X3750000Y670000D01*
Y360000D01*
X3862000Y248000D01*
Y246000D01*
G01X2065000Y610000D02*
Y745000D01*
X2040000Y770000D01*
G01X5870000Y3730000D02*
X5810000Y3790000D01*
X4035610D01*
X2065000Y1819390D01*
Y795000D01*
X2040000Y770000D01*
G01X5990000Y2220000D02*
Y2170000D01*
X5936040Y2116040D01*
X5862640D01*
X5823960Y2077360D01*
Y1998350D01*
X5660970Y1835360D01*
X2435360D01*
X2265000Y1665000D01*
Y610000D01*
G01X2315000D02*
Y1644280D01*
X2466760Y1796040D01*
X5677260D01*
X5863280Y1982060D01*
Y1983280D01*
X5890000Y2010000D01*
Y2050000D01*
G01X2205000Y4410800D02*
Y4525000D01*
X2230000Y4550000D01*
X2370000D01*
X2395000Y4525000D01*
Y4410800D01*
G01X1952150Y6657320D02*
X1930680Y6635850D01*
Y5433710D01*
X2034390Y5330000D01*
X2500000D01*
X2570000Y5400000D01*
Y5520000D01*
X2477500Y5612500D01*
X2476200D01*
G01X2229150Y6657320D02*
X1970000Y6398170D01*
Y5450000D01*
X2050000Y5370000D01*
X2390000D01*
X2476200Y5456200D01*
Y5460000D01*
G01X2130000Y5485500D02*
X2298300D01*
X2323800Y5460000D01*
G01X2130000Y5739500D02*
X2303300D01*
X2323800Y5760000D01*
G01X2130000Y5993500D02*
X2392700D01*
X2476200Y5910000D01*
G01X2130000Y5866500D02*
X2280300D01*
X2323800Y5910000D01*
G01X2130000Y5612500D02*
X2323800D01*
G01X2476200Y6400000D02*
X2650000D01*
X2700000Y6350000D01*
Y6180000D01*
X2640500Y6120500D01*
X2130000D01*
G01Y6374500D02*
X2298300D01*
X2323800Y6400000D01*
G01X2130000Y6247500D02*
X2323800D01*
G01X2980000Y5100000D02*
X2834140D01*
G01X3370000Y516000D02*
X3354000Y500000D01*
G01X4300000Y4810000D02*
X3870000D01*
G01X4624000Y246000D02*
X4500000Y370000D01*
Y590000D01*
X4768640Y858640D01*
X5547420D01*
X5651360Y962580D01*
Y1712580D01*
X6434820Y2496040D01*
X6573960D01*
X6640000Y2430000D01*
G01X4523000Y2350000D02*
Y2185890D01*
G01Y2560000D02*
X4543000Y2540000D01*
X4897800D01*
X4963800Y2474000D01*
G01X4680000Y3200000D02*
X4090000D01*
G01X6090000Y5740010D02*
X5089990D01*
X5000000Y5830000D01*
X4530000D01*
X4440000Y5740000D01*
Y5720800D01*
X4438920Y5719720D01*
Y4481080D01*
X4500000Y4420000D01*
X4910000D01*
X4980000Y4490000D01*
Y4714500D01*
X4844000Y4850500D01*
G01X6090000Y5640010D02*
X5099990D01*
X4970000Y5770000D01*
X4525610D01*
X4480000Y5724390D01*
Y5705190D01*
X4478240Y5703430D01*
Y4511760D01*
X4530680Y4459320D01*
X4706820D01*
X4844000Y4596500D01*
G01X7490000Y2850000D02*
Y2450000D01*
X7210000Y2170000D01*
X6824390D01*
X6354390Y1700000D01*
X5990000D01*
X5810680Y1520680D01*
Y896290D01*
X5613710Y699320D01*
X5149320D01*
X5000000Y550000D01*
Y350000D01*
X5104000Y246000D01*
X5132000D01*
G01X7200000Y2850000D02*
Y2470000D01*
X7090000Y2360000D01*
X6410000D01*
X5730000Y1680000D01*
Y930000D01*
X5580000Y780000D01*
X4980000D01*
X4750000Y550000D01*
Y374000D01*
X4878000Y246000D01*
G01X7410000Y2850000D02*
Y2430000D01*
X7190000Y2210000D01*
X6808780D01*
X6348780Y1750000D01*
X5980000D01*
X5770000Y1540000D01*
Y911220D01*
X5597420Y738640D01*
X5116640D01*
X4878000Y500000D01*
G01X6540000Y2430000D02*
X6424390D01*
X5690680Y1696290D01*
Y946290D01*
X5563710Y819320D01*
X4959320D01*
X4640000Y500000D01*
X4624000D01*
G01X5890000Y2220000D02*
X5784640Y2114640D01*
Y2014640D01*
X5644680Y1874680D01*
X4775320D01*
X4660000Y1990000D01*
Y2270000D01*
G01X4777000Y2287490D02*
X4963800D01*
G01X4660000Y2270000D02*
X4750000D01*
X4767490Y2287490D01*
X4777000D01*
G01X7030000Y2530000D02*
X6980680Y2579320D01*
X6399310D01*
X6199990Y2380000D01*
X5057800D01*
X4963800Y2474000D01*
G01X4777000Y2661600D02*
X4963800D01*
G01X4670000D02*
X4777000D01*
G01X4590000Y4850500D02*
X4720000Y4980500D01*
Y5170000D01*
X4790000Y5240000D01*
X4900000D01*
X5000010Y5340010D01*
X6090000D01*
G01Y5540010D02*
X5110000D01*
X4925750Y5724260D01*
X4764260D01*
X4720000Y5680000D01*
Y5488500D01*
X4590000Y5358500D01*
G01Y5104500D02*
Y5115610D01*
X4720000Y5245610D01*
Y5400000D01*
X4800000Y5480000D01*
X4930000D01*
X4969990Y5440010D01*
X6090000D01*
G01X4844000Y5104500D02*
X4979510Y5240010D01*
X6090000D01*
G01X4780000Y6460000D02*
X4890000D01*
X4926200Y6423800D01*
Y5910000D01*
G01X7570000Y2850000D02*
Y2469990D01*
X7230010Y2130000D01*
X6840000D01*
X6360000Y1650000D01*
X6000000D01*
X5850000Y1500000D01*
Y880000D01*
X5630000Y660000D01*
X5292000D01*
X5132000Y500000D01*
G01X5273000Y2185890D02*
X5510000D01*
G01X5527000Y2287490D02*
X5542520D01*
G01D02*
X5620000Y2210010D01*
Y2030000D01*
X5580000Y1990000D01*
X5210000D01*
X5120000Y2080000D01*
X5116200D01*
G01X7029990Y2430000D02*
X6919990Y2540000D01*
X6420000D01*
X6167490Y2287490D01*
X5542520D01*
G01X9047320Y4437320D02*
X7142680D01*
X6790000Y4790000D01*
Y5379990D01*
X6239990Y5930000D01*
X5510000D01*
X5440000Y6000000D01*
Y6105240D01*
X5405240Y6140000D01*
X5210000D01*
X5180000Y6170000D01*
Y6440000D01*
X5200000Y6460000D01*
X5320000D01*
G01X9047320Y4363660D02*
X7157560D01*
X6750000Y4771220D01*
Y5360000D01*
X6220000Y5890000D01*
X5410000D01*
X5320000Y5980000D01*
Y6079000D01*
G01X8029990Y3830000D02*
X6820010D01*
X6173670Y4476340D01*
X5620000D01*
G01X8129990Y3690000D02*
X6809990D01*
X6170970Y4329020D01*
X5620000D01*
G01X8330010Y3620000D02*
X6810010D01*
X6174650Y4255360D01*
X5620000D01*
G01X8430010Y3760000D02*
X8426050Y3756040D01*
X6823970D01*
X6177330Y4402680D01*
X5620000D01*
G01X8230000Y3830000D02*
X8160000Y3900000D01*
X6830000D01*
X6180000Y4550000D01*
X5620000D01*
G01X6900000Y5580000D02*
Y6058680D01*
X6879680Y6079000D01*
X6607000D01*
G01X6830000Y5660000D02*
Y5940000D01*
X6770000Y6000000D01*
X6520000D01*
X6429300Y6090700D01*
Y6399310D01*
X6489990Y6460000D01*
X6607000D01*
G01D02*
X6813800D01*
G01X6607000Y6206000D02*
X6813800D01*
G01X6607000Y6333000D02*
X6493000D01*
X6468620Y6308620D01*
Y6231380D01*
X6490000Y6210000D01*
X6603000D01*
X6607000Y6206000D01*
G01X6980000Y5500000D02*
Y6098000D01*
X6959680Y6118320D01*
X6901480D01*
X6813800Y6206000D01*
G01X7220000Y7030000D02*
X7008960Y6818960D01*
Y6671040D01*
X7100000Y6580000D01*
Y6370000D01*
X7260000Y6210000D01*
Y4860000D01*
X7610000Y4510000D01*
X9200000D01*
X9320000Y4390000D01*
Y3740000D01*
X9630000Y3430000D01*
G01X7313310Y7030000D02*
X7286040Y7002730D01*
Y7002640D01*
X7048280Y6764880D01*
Y6688290D01*
X7140000Y6596570D01*
Y6386570D01*
X7300000Y6226570D01*
Y4876570D01*
X7626570Y4550000D01*
X9216570D01*
X9360000Y4406570D01*
Y3800000D01*
X9630000Y3530000D01*
G01X7120000Y6730000D02*
Y6730090D01*
X7189910Y6800000D01*
X7250000D01*
X7280000Y6770000D01*
Y6670000D01*
X7220000Y6610000D01*
Y6419710D01*
X7380000Y6259710D01*
Y4909710D01*
X7659710Y4630000D01*
X9249710D01*
X9440000Y4439710D01*
Y3920000D01*
X9630000Y3730000D01*
G01X7194090Y1865910D02*
X7415910D01*
X8288080Y2738080D01*
X9826000D01*
X10403390Y2160690D01*
Y963390D01*
X10130000Y690000D01*
Y320000D01*
G01X7194090Y1939570D02*
X7423650D01*
X8268770Y2784690D01*
X9845310D01*
X10450000Y2180000D01*
Y944080D01*
X10200000Y694080D01*
Y320000D01*
X10260000Y260000D01*
X10386200D01*
X10476200Y350000D01*
G01X7305000Y2015000D02*
X8160000Y2870000D01*
X10060000D01*
X10910000Y2020000D01*
X11880000D01*
X12100000Y2240000D01*
Y3090000D01*
X12040000Y3150000D01*
X11840000D01*
G01X7213310Y6730000D02*
X7180000Y6696690D01*
Y6403140D01*
X7340000Y6243140D01*
Y4893140D01*
X7643140Y4590000D01*
X9233140D01*
X9400000Y4423140D01*
Y3860000D01*
X9630000Y3630000D01*
G01X7587270Y7102730D02*
X7633310Y7056690D01*
Y5710000D01*
G01X7310000Y6550000D02*
X7563310D01*
G01X7770000Y210000D02*
Y1370000D01*
X7850000Y1450000D01*
X8130000D01*
X8250000Y1330000D01*
Y1196200D01*
G01X8131460Y936460D02*
Y1012340D01*
X8100000Y1043800D01*
G01X7930000Y1370000D02*
Y1224140D01*
G01X7829990Y2440000D02*
X8219990Y2830000D01*
X10040000D01*
X10540000Y2330000D01*
Y880000D01*
X10480000Y820000D01*
Y670000D01*
G01X7750000Y2590000D02*
X7820000D01*
X8140000Y2910000D01*
X10080000D01*
X10930000Y2060000D01*
X11810000D01*
X12010000Y2260000D01*
G01X7840000Y7100000D02*
X7950000Y6990000D01*
Y4950000D01*
X8230000Y4670000D01*
X9270000D01*
X9500000Y4440000D01*
Y3960000D01*
X9630000Y3830000D01*
G01Y3940000D02*
X9563960Y4006040D01*
Y4444610D01*
X9298570Y4710000D01*
X8270000D01*
X7990000Y4990000D01*
Y7100000D01*
G01X7920000Y7170000D02*
X8020000D01*
X8070000Y7120000D01*
Y4990010D01*
X8310010Y4750000D01*
X9320000D01*
X9630000Y4440000D01*
Y4040000D01*
G01X7810000Y7170000D02*
X7760000Y7120000D01*
Y7070000D01*
X7790000Y7040000D01*
Y5230000D01*
G01X7713310Y7170000D02*
Y5640000D01*
G01X8311890Y1105690D02*
Y1108090D01*
G01Y1105690D02*
X8250000Y1043800D01*
G01X8400000Y1196200D02*
Y1193800D01*
X8311890Y1105690D01*
G01X8390000Y1360000D02*
X8392500Y1357500D01*
Y1203700D01*
X8400000Y1196200D01*
G01X8700000Y1043800D02*
X8850000D01*
G01X8550000D02*
X8700000D01*
G01X8717500Y937500D02*
Y1026300D01*
X8700000Y1043800D01*
G01X8310000Y1360000D02*
Y1380000D01*
X8340000Y1410000D01*
Y1760000D01*
X8404000Y1824000D01*
X8450000D01*
G01X8270000Y1680000D02*
Y1880000D01*
X8340000Y1950000D01*
X8449000D01*
X8450000Y1951000D01*
G01D02*
X8673800D01*
G01X8870000Y2060000D02*
X9680000D01*
G01X9010000Y5420000D02*
Y6180010D01*
X9259990Y6430000D01*
X9620000D01*
X9918640Y6728640D01*
X11232640D01*
X11317000Y6813000D01*
G01X9110000Y5420000D02*
Y6220000D01*
X9280000Y6390000D01*
X9640000D01*
X9939320Y6689320D01*
X11190680D01*
X11321000Y6559000D01*
G01X9210000Y5420000D02*
Y6260000D01*
X9300000Y6350000D01*
X9660000D01*
X9960000Y6650000D01*
X10900000D01*
X10980000Y6570000D01*
Y6263800D01*
G01X9630000Y930000D02*
X9600000Y960000D01*
Y1511600D01*
X9683800Y1595400D01*
G01X9950000Y4140010D02*
Y4790000D01*
X9315000Y5425000D01*
G01X10360000Y3650000D02*
X10346040Y3663960D01*
Y4573960D01*
X9293960Y5626040D01*
Y6203960D01*
X9346700Y6256700D01*
X10333300D01*
X10686500Y5903500D01*
X10720000D01*
G01X10280000Y3650000D02*
Y4570000D01*
X9250000Y5600000D01*
Y6230000D01*
X9320000Y6300000D01*
X10524680D01*
X10805000Y6019680D01*
Y5988500D01*
G01X9370000Y6180000D02*
X10340000D01*
X10666500Y5853500D01*
X10720000D01*
G01X9500000Y7310000D02*
X10250000D01*
X10350000Y7210000D01*
X10960800D01*
X11103800Y7067000D01*
G01X10180000Y1770000D02*
X10026200D01*
G01Y1981300D02*
X10180000D01*
G01X9780000Y5670000D02*
Y5570000D01*
X9980000Y5370000D01*
X10704240D01*
X10855000Y5520760D01*
Y5568500D01*
G01X9950000Y5670000D02*
X10010000Y5730000D01*
X10530000D01*
X10556500Y5703500D01*
X10720000D01*
G01Y5753500D02*
X10566500D01*
X10544880Y5775120D01*
X10378680D01*
X10293800Y5860000D01*
G01X10476200Y350000D02*
X10633000D01*
X10658400Y324600D01*
G01X10780000Y330000D02*
X10856200D01*
X10861600Y324600D01*
G01X12290000Y330000D02*
X12210000Y410000D01*
X11080000D01*
X10820000Y670000D01*
X10480000D01*
G01D02*
X10476200Y666200D01*
Y650000D01*
G01Y500000D02*
X10700000D01*
X10760000Y560000D01*
Y570000D01*
G01D02*
Y578600D01*
G01X11340000Y330000D02*
X11000000D01*
X10760000Y570000D01*
G01X10680000Y5570000D02*
Y5633180D01*
X10700320Y5653500D01*
X10720000D01*
G01X10424140Y5630000D02*
Y5482060D01*
X10446200Y5460000D01*
G01D02*
X10720000D01*
X10805000Y5545000D01*
Y5568500D01*
G01X10720000Y5803500D02*
X10616500D01*
X10590000Y5830000D01*
G01D02*
X10560000Y5860000D01*
X10446200D01*
G01X10855000Y5988500D02*
Y6151170D01*
X10742370Y6263800D01*
G01X10596200Y6559000D02*
X10739000D01*
G01X10596200Y7067000D02*
X10737000D01*
G01Y6813000D02*
X10596200D01*
G01X10739000Y7321000D02*
X10596200D01*
G01X11190000Y984200D02*
Y1060000D01*
X11260000Y1130000D01*
G01D02*
X11740000D01*
G01X11290000Y5266200D02*
Y5530000D01*
X11166500Y5653500D01*
X11140000D01*
G01X11005000Y5568500D02*
Y5395000D01*
X11020000Y5380000D01*
G01X10955000Y5568500D02*
Y5415000D01*
X10920000Y5380000D01*
G01X11140000Y5853500D02*
X11221000D01*
X11225680Y5848820D01*
X11261660D01*
X11373160Y5960320D01*
X11440320D01*
X11483500Y6003500D01*
G01X11140000Y5803500D02*
X11221000D01*
X11225680Y5808180D01*
X11278500D01*
X11390000Y5919680D01*
X11440320D01*
X11483500Y5876500D01*
G01Y5743500D02*
X11440320Y5700320D01*
X11335340D01*
X11286840Y5748820D01*
X11225680D01*
X11221000Y5753500D01*
X11140000D01*
G01X11486500Y5616500D02*
X11483500D01*
X11440320Y5659680D01*
X11318500D01*
X11270000Y5708180D01*
X11225680D01*
X11221000Y5703500D01*
X11140000D01*
G01X10905000Y5988500D02*
Y6248800D01*
X10890000Y6263800D01*
G01X11118720Y6140000D02*
X11073400D01*
X11005000Y6071600D01*
Y5988500D01*
G01X11110000Y6050000D02*
X11100000D01*
X11055000Y6005000D01*
Y5988500D01*
G01X10955000D02*
Y6115000D01*
X10980000Y6140000D01*
G01X10890000Y6263800D02*
X10980000D01*
G01D02*
X11070000D01*
G01X11256200Y7067000D02*
X11367000D01*
G01X10990000Y7320000D02*
X11102800D01*
X11103800Y7321000D01*
G01X11361000D02*
X11256200D01*
G01X11740000Y7060000D02*
X11633200D01*
X11626200Y7067000D01*
G01X11367000D02*
X11473800D01*
G01X11740000Y7320000D02*
X11627200D01*
X11626200Y7321000D01*
G01X11361000D02*
X11473800D01*
G01X12190000Y2590000D02*
Y3350000D01*
X12136200Y3403800D01*
X11953800D01*
G01X13547160Y5099400D02*
X13430000Y4982240D01*
Y4780000D01*
X13543800Y4666200D01*
X13550000D01*
G01X13547160Y6734710D02*
X13430000Y6617550D01*
Y6400000D01*
X13533800Y6296200D01*
X13550000D01*
G01Y4213800D02*
Y4031240D01*
X13547160Y4028400D01*
G01X13550000Y5843800D02*
Y5666550D01*
X13547160Y5663710D01*
G54D24*
X2625860Y5100000D03*
X2834140D03*
X2625860Y4870000D03*
X2834140D03*
X7930000Y1224140D03*
Y1015860D03*
X10970000Y5035860D03*
Y5244140D03*
G54D15*
X979150Y6799320D03*
X3479150D03*
G54D33*
X6075000Y1880000D03*
X6325000D03*
X6745000D03*
X6995000D03*
G54D42*
X10930000Y5778500D03*
G54D52*
G01X9260000Y380000D02*
G03I-30000J0D01*
G01X9660000D02*
G03I-30000J0D01*
G54D16*
X707000Y6290000D03*
X453000D03*
X961000D03*
X10710000Y4093000D03*
Y4601000D03*
Y4347000D03*
G54D34*
X6520000Y1360000D03*
Y1100000D03*
G54D43*
X12385000Y950000D03*
G54D25*
X4523000Y2185890D03*
Y2560000D03*
X4777000Y2458400D03*
Y2084290D03*
Y2287490D03*
Y2661600D03*
X5527000Y2084290D03*
Y2287490D03*
X5273000Y2185890D03*
G54D53*
G01X2655000Y2590000D02*
G03I-75000J0D01*
G01X3405000D02*
G03I-75000J0D01*
G54D26*
X4337100Y3000000D03*
X5022900D03*
G54D35*
X6730000Y400000D03*
X7010000D03*
X6730000Y760000D03*
X7010000D03*
G54D44*
X12276000Y1335000D03*
X12484000D03*
G54D17*
X1165000Y610000D03*
X1215000D03*
X1265000D03*
X1315000D03*
X1365000D03*
X1415000D03*
X1465000D03*
X1515000D03*
X1565000D03*
X1615000D03*
X1665000D03*
X1715000D03*
X1765000D03*
X1815000D03*
X1865000D03*
X1915000D03*
X1965000D03*
X2015000D03*
X2065000D03*
X2115000D03*
X2165000D03*
X2215000D03*
X2265000D03*
X2315000D03*
X2365000D03*
X2415000D03*
X2465000D03*
X2515000D03*
X2565000D03*
X2615000D03*
G54D54*
G01X1170000Y730000D02*
X1165000Y725000D01*
G01X1170000Y490000D02*
X1165000Y495000D01*
G01X1100000Y600000D02*
X1110000Y610000D01*
G01X1165000Y725000D02*
Y610000D01*
G01Y495000D02*
Y610000D01*
G01X1110000D02*
X1165000D01*
G01X893800Y2370000D02*
X896200D01*
X1046200Y2520000D01*
G01X1660000Y470000D02*
X1665000Y475000D01*
G01X1770000Y470000D02*
X1765000Y475000D01*
G01X1910000Y460000D02*
X1915000Y465000D01*
G01X1665000Y475000D02*
Y610000D01*
G01X1765000Y475000D02*
Y610000D01*
G01X1915000Y465000D02*
Y610000D01*
G01X2020000Y470000D02*
X2015000Y475000D01*
G01X2210000Y470000D02*
X2215000Y475000D01*
G01X2015000D02*
Y610000D01*
G01X2215000Y475000D02*
Y610000D01*
G01X2465000D02*
Y385000D01*
X2500000Y350000D01*
G01X2615000Y610000D02*
Y629600D01*
X2640400Y655000D01*
X2660000D01*
G01X2615000Y610000D02*
X2670000D01*
G01X2615000D02*
Y590400D01*
X2640400Y565000D01*
X2660000D01*
G01D02*
Y550000D01*
G01Y655000D02*
Y680000D01*
G01X2515000Y610000D02*
Y495000D01*
X2540000Y470000D01*
G01X2565000Y610000D02*
Y495000D01*
X2540000Y470000D01*
G01X4240000Y4660000D02*
X3870000D01*
G01X8197500Y887500D02*
Y773700D01*
X8190000Y766200D01*
G01X8550000Y880000D02*
Y766200D01*
G01Y1196200D02*
Y1193800D01*
G01D02*
X8400000Y1043800D01*
G01X9710000Y1200000D02*
X9778800Y1268800D01*
G01D02*
Y1324600D01*
G01X10305000Y2445000D02*
X10498140Y2251860D01*
Y918140D01*
X10323800Y743800D01*
Y650000D01*
G01X11140000Y5460000D02*
X11055000Y5545000D01*
Y5568500D01*
G01X11200000Y5940000D02*
X11163500Y5903500D01*
X11140000D01*
G01X13550000Y6143800D02*
X13661460Y6032340D01*
Y4621460D01*
X13553800Y4513800D01*
X13550000D01*
G54D45*
X12422160Y3991900D03*
X12168160Y4372900D03*
Y4118900D03*
X12422160Y4499900D03*
Y4245900D03*
X12168160Y4880900D03*
Y4626900D03*
X12422160Y4753900D03*
Y5627210D03*
X12168160Y6008210D03*
Y5754210D03*
X12422160Y6135210D03*
Y5881210D03*
X12168160Y6516210D03*
Y6262210D03*
X12422160Y6389210D03*
G54D18*
X1700000Y2590000D03*
X4240000D03*
G54D27*
X4228740Y6718520D03*
X4736740D03*
X5436000D03*
X5944000D03*
X13000000Y2206000D03*
Y2714000D03*
G54D36*
G01X7010000Y320000D02*
X6830000Y140000D01*
X6070000D01*
X5710000Y500000D01*
X5640000D01*
G01X7010000Y400000D02*
Y760000D01*
G01Y400000D02*
Y320000D01*
G01X12276000Y1335000D02*
Y1383000D01*
X12326500Y1433500D01*
Y1439180D01*
X12374820Y1487500D01*
X12380500D01*
X12403000Y1510000D01*
X12692840D01*
X12921740Y1738900D01*
X13088900D01*
X13270000Y1920000D01*
Y2440000D01*
X13000000Y2710000D01*
Y2714000D01*
G01X12820000Y1070000D02*
Y1190000D01*
X12675000Y1335000D01*
X12484000D01*
X6970000Y1360000D03*
X6770000D03*
X6970000Y1100000D03*
X6770000D03*
X7220000D03*
Y1360000D03*
G54D55*
G01X199000Y6290000D02*
Y6434800D01*
G01X54200Y6290000D02*
X199000D01*
G01X979150Y6799320D02*
Y7172720D01*
G01Y6799320D02*
X1352550D01*
G01X1627900Y5225000D02*
X1760000D01*
G01D02*
X1892100D01*
G01X2783150Y6525220D02*
Y6657320D01*
G01D02*
Y6789420D01*
G01X2651050Y6657320D02*
X2783150D01*
G01D02*
X2915250D01*
G01X3479150Y6425920D02*
Y6799320D01*
G01D02*
Y7172720D01*
G01X3105750Y6799320D02*
X3479150D01*
G01D02*
X3852550D01*
G01X4240000Y2438850D02*
Y2590000D01*
G01D02*
Y2741150D01*
G01X4088850Y2590000D02*
X4240000D01*
G01X5979100Y830000D02*
X6200000D01*
G01X5979100Y1410000D02*
X6200000D01*
G01Y609100D02*
Y830000D01*
G01D02*
Y1050900D01*
G01Y830000D02*
X6420900D01*
G01X6200000Y1189100D02*
Y1410000D01*
G01X7100600Y1360000D02*
X7220000D01*
G01X6995000Y1759100D02*
Y1880000D01*
G01D02*
Y2000900D01*
G01X6874100Y1880000D02*
X6995000D01*
G01X7530000Y609100D02*
Y830000D01*
G01D02*
Y1050900D01*
G01X7309100Y830000D02*
X7530000D01*
G01Y1189100D02*
Y1410000D01*
G01D02*
Y1630900D01*
G01X7220000Y1240600D02*
Y1360000D01*
G01D02*
Y1479400D01*
G01Y980600D02*
Y1100000D01*
G01D02*
X7339400D01*
G01X10226600Y130000D02*
X10365000D01*
G01D02*
X10503400D01*
G01X10710000Y3694200D02*
Y3839000D01*
G01D02*
X10854800D01*
G01X12065000Y130000D02*
Y268400D01*
G01X11926600Y130000D02*
X12065000D01*
G01X12876600D02*
X13015000D01*
G01X12791700Y2206000D02*
X13000000D01*
G01X13015000Y130000D02*
Y268400D01*
G01X13420000Y814100D02*
Y1070000D01*
G01D02*
Y1325900D01*
G01X13264100Y1070000D02*
X13420000D01*
G01D02*
X13575900D01*
G01X13100000Y1394100D02*
Y1550000D01*
G01D02*
X13355900D01*
G01X13000000Y1997700D02*
Y2206000D01*
G01D02*
Y2414300D01*
G54D19*
X1760000Y4975000D03*
X1952150Y6657320D03*
X1813650Y6941320D03*
X2506150Y6657320D03*
X2229150D03*
X2367650Y6941320D03*
X2090650D03*
X2783150Y6657320D03*
X2644650Y6941320D03*
X3354000Y246000D03*
Y500000D03*
X3608000Y246000D03*
X3862000D03*
X3608000Y500000D03*
X3862000D03*
X4116000Y246000D03*
X4370000D03*
X4116000Y500000D03*
X4370000D03*
X4590000Y4596500D03*
Y4850500D03*
Y5104500D03*
Y5358500D03*
X4624000Y246000D03*
X4878000D03*
X5132000D03*
X4624000Y500000D03*
X4878000D03*
X5132000D03*
X4844000Y4596500D03*
Y4850500D03*
Y5104500D03*
Y5358500D03*
Y5612500D03*
X5386000Y246000D03*
X5640000D03*
X5386000Y500000D03*
X13547160Y4028400D03*
Y3774400D03*
Y5099400D03*
Y4845400D03*
Y5409710D03*
Y5663710D03*
Y6480710D03*
Y6734710D03*
G54D37*
X8720000Y545860D03*
Y754140D03*
X9530000Y6935860D03*
Y7144140D03*
X9340000Y6935860D03*
Y7144140D03*
X10080000Y1355860D03*
Y1564140D03*
X10630000Y5035860D03*
Y5244140D03*
G54D46*
X12820000Y1070000D03*
X13420000D03*
G54D28*
X4381140Y6943000D03*
X4482740Y7197000D03*
X4584340Y6943000D03*
X10658400Y324600D03*
X10760000Y578600D03*
X10861600Y324600D03*
G54D56*
G01X10675000Y160000D02*
G03I-50000J0D01*
G01X10905000D02*
G03I-50000J0D01*
G01X11625000D02*
G03I-50000J0D01*
G01X11855000D02*
G03I-50000J0D01*
G01X12575000D02*
G03I-50000J0D01*
G01X12805000D02*
G03I-50000J0D01*
G54D29*
X4590000Y6193800D03*
Y6346200D03*
X5860000Y6193800D03*
Y6346200D03*
X8190000Y766200D03*
Y613800D03*
X8100000Y1196200D03*
Y1043800D03*
X8550000Y766200D03*
Y613800D03*
X8250000Y1196200D03*
Y1043800D03*
X8400000Y1196200D03*
Y1043800D03*
X8550000Y1196200D03*
Y1043800D03*
X8700000Y1196200D03*
Y1043800D03*
X8850000D03*
Y1196200D03*
X10800000Y5113800D03*
Y5266200D03*
X10742370Y6263800D03*
Y6416200D03*
X11290000Y5266200D03*
Y5113800D03*
X11140000Y5266200D03*
Y5113800D03*
X10890000Y6263800D03*
Y6416200D03*
X11220000Y6263800D03*
Y6416200D03*
X11070000Y6263800D03*
Y6416200D03*
X13550000Y4366200D03*
Y4213800D03*
Y4513800D03*
Y4666200D03*
Y5996200D03*
Y5843800D03*
Y6143800D03*
Y6296200D03*
G54D38*
X10365000Y130000D03*
X11115000D03*
X11315000D03*
X12065000D03*
X12265000D03*
X13015000D03*
G54D47*
X13100000Y1550000D03*
G54D57*
G01X971960Y1680000D02*
Y1978040D01*
X893800Y2056200D01*
Y2070000D01*
G01Y2700000D02*
Y2674240D01*
X1046200Y2521840D01*
Y2520000D01*
G01X790000Y3000000D02*
X893800D01*
G01X1223800Y5460000D02*
X650000D01*
X453000Y5657000D01*
Y6290000D01*
G01X893800Y2220000D02*
Y2370000D01*
G01Y2070000D02*
Y2220000D01*
G01Y2850000D02*
Y2700000D01*
G01Y3000000D02*
Y2850000D01*
G01X1184000Y2474000D02*
X1092200D01*
X1046200Y2520000D01*
G01X2625860Y5100000D02*
X2200000D01*
X1930000Y4830000D01*
Y3948720D01*
X1321060D01*
X1319890Y3949890D01*
G01D02*
X1310000Y3959780D01*
Y5350000D01*
G01X1319890Y3949890D02*
X1310000Y3940000D01*
G01X1590000Y6374500D02*
X1710000D01*
X1750000Y6334500D01*
Y5460000D01*
X1640000Y5350000D01*
X1310000D01*
G01D02*
X1223800Y5436200D01*
Y5460000D01*
G01X1590000Y6374500D02*
X1380700D01*
X1376200Y6370000D01*
G01X10360000Y3230000D02*
X8720000D01*
X8550000Y3400000D01*
Y3800000D01*
X8390000Y3960000D01*
X6850000D01*
X6160000Y4650000D01*
X5477840D01*
X5057840Y4230000D01*
X3550000D01*
X1910000Y2590000D01*
X1700000D01*
G01X1760000Y4030000D02*
Y4975000D01*
G01X2404140Y4167600D02*
Y3940000D01*
G01X2300000Y4410800D02*
Y4271740D01*
X2195860Y4167600D01*
G01X2404140D02*
X2395000Y4176740D01*
Y4410800D01*
G01X2404140Y4870000D02*
X2625860D01*
G01X2395000Y4681600D02*
Y4860860D01*
X2404140Y4870000D01*
G01X2960000Y4167600D02*
Y4620000D01*
X2957600Y4622400D01*
G01X3850000Y5130000D02*
Y4920000D01*
X3650000Y4720000D01*
X2770000D01*
X2625860Y4864140D01*
Y4870000D01*
G01X2980000Y4880000D02*
X2844140D01*
X2834140Y4870000D01*
G01X3890000Y5390000D02*
X3200000D01*
X3080000Y5270000D01*
Y4980000D01*
X2980000Y4880000D01*
G01X2780000Y6190000D02*
X2754560Y6164560D01*
Y5894560D01*
X2620000Y5760000D01*
X2476200D01*
G01Y6247500D02*
X2607500D01*
G01X4384360Y6100000D02*
Y4584360D01*
X4310000Y4510000D01*
G01X4590000Y6193800D02*
X4588160D01*
X4430000Y6351960D01*
Y6640000D01*
X4351480Y6718520D01*
X4228740D01*
G01X4590000Y6346200D02*
X4500000Y6436200D01*
Y6650000D01*
X4568520Y6718520D01*
X4736740D01*
G01X4228740D02*
Y6790600D01*
X4381140Y6943000D01*
G01X4780000Y6206000D02*
X4602200D01*
X4590000Y6193800D01*
G01X4780000Y6333000D02*
X4603200D01*
X4590000Y6346200D01*
G01X4736740Y6718520D02*
Y6790600D01*
X4584340Y6943000D01*
G01X5700000Y2032840D02*
X5602600Y1935440D01*
X5114560D01*
G01D02*
X5100000Y1950000D01*
G01X5116200Y2474000D02*
X5214000D01*
G01X5513800Y6206000D02*
Y6096200D01*
G01Y6206000D02*
X5320000D01*
G01X5436000Y6718520D02*
X5551480D01*
X5650000Y6620000D01*
Y6401960D01*
X5858160Y6193800D01*
X5860000D01*
G01X5606200Y6980000D02*
Y6888720D01*
X5436000Y6718520D01*
G01X5700000Y2040000D02*
Y2032840D01*
G01X5860000Y6346200D02*
X5719800Y6486400D01*
Y6620000D01*
X5818320Y6718520D01*
X5944000D01*
G01X6067000Y6333000D02*
X5873200D01*
X5860000Y6346200D01*
G01X6067000Y6206000D02*
X5872200D01*
X5860000Y6193800D01*
G01X6260800Y6630000D02*
X6090800Y6460000D01*
X6067000D01*
G01X5763800Y6980000D02*
Y6898720D01*
X5944000Y6718520D01*
G01X6650000Y1500000D02*
Y1270000D01*
G01X6260800Y6630000D02*
X6260000Y6630800D01*
Y6740000D01*
G01X6260800Y6630000D02*
Y6619200D01*
X6350000Y6530000D01*
X6490000D01*
X6530000Y6570000D01*
X6858040D01*
X6966200Y6461840D01*
Y6460000D01*
G01D02*
Y6206000D01*
G01X8190000Y766200D02*
X8058800D01*
X7937500Y887500D01*
G01X7930000Y1015860D02*
Y895000D01*
X7937500Y887500D01*
G01X8190000Y766200D02*
X8550000D01*
G01X8720000Y754140D02*
X8562060D01*
X8550000Y766200D01*
G01X8990000Y1110000D02*
Y820000D01*
X8924140Y754140D01*
X8720000D01*
G01X8700000Y1196200D02*
Y1300000D01*
G01D02*
Y1580000D01*
X8670000Y1610000D01*
G01X8450000Y1697000D02*
X8670800D01*
G01D02*
X8673800Y1700000D01*
G01X8670800Y1697000D02*
X8670000Y1696200D01*
Y1610000D01*
G01X8826200Y1951000D02*
Y1854240D01*
X8673800Y1701840D01*
Y1700000D01*
G01X8670000Y1610000D02*
X8630000Y1570000D01*
X8450000D01*
G01X8510000Y2570000D02*
Y2290000D01*
X8826200Y1973800D01*
Y1951000D01*
G01X9240000Y660000D02*
Y1780000D01*
X9380000Y1920000D01*
X9709200D01*
X9770000Y1980800D01*
Y2300000D01*
X9600010Y2469990D01*
X8830010D01*
G01X9845860Y1120000D02*
Y905860D01*
X9600000Y660000D01*
X9240000D01*
G01X9730000Y1770000D02*
X9873800D01*
G01X10625860Y5035860D02*
X9984140D01*
X9570000Y5450000D01*
Y5750000D01*
X9680000Y5860000D01*
X10190000D01*
G01X9340000Y6935860D02*
X9324140D01*
G01X9873800Y1324600D02*
Y1147940D01*
X9845860Y1120000D01*
G01X9873800Y1595400D02*
X10048740D01*
X10080000Y1564140D01*
G01X10250000Y1560000D02*
X10245860Y1564140D01*
G01D02*
X10080000D01*
G01Y2230000D02*
Y2220000D01*
X9873800Y2013800D01*
Y1981300D01*
G01X9870000Y5610000D02*
X9861280Y5618720D01*
G01D02*
Y5748720D01*
G01D02*
X9860000Y5750000D01*
G01X10293800Y5860000D02*
X10190000D01*
G01X10323800Y350000D02*
Y500000D01*
G01D02*
Y650000D01*
G01X10710000Y4093000D02*
X11888260D01*
X12168160Y4372900D01*
G01X10800000Y5113800D02*
X10707940D01*
X10630000Y5035860D01*
G01X10800000Y5113800D02*
X10892060D01*
X10970000Y5035860D01*
G01X10890000Y6416200D02*
X10742370D01*
G01X11315000Y130000D02*
X11115000D01*
G01X11140000Y5266200D02*
Y5460000D01*
G01X10970000Y5244140D02*
X11117940D01*
X11140000Y5266200D01*
G01X11200000Y6140000D02*
Y5940000D01*
G01Y6140000D02*
Y6243800D01*
X11220000Y6263800D01*
G01D02*
X11912570D01*
X12168160Y6008210D01*
G01X10890000Y6416200D02*
Y6560000D01*
G01X12265000Y130000D02*
X12065000D01*
G01X12168160Y4372900D02*
X12295160D01*
X12422160Y4499900D01*
G01X12000000Y5430000D02*
X12510000D01*
X12620000Y5540000D01*
Y5710000D01*
X12826200Y5916200D01*
Y6135210D01*
G01X12422160D02*
X12295160D01*
X12168160Y6008210D01*
G01X12826200Y4499900D02*
X13409660D01*
X13543360Y4366200D01*
G01X12673800Y4499900D02*
Y4523800D01*
X12750000Y4600000D01*
X13440000D01*
X13526200Y4513800D01*
X13550000D01*
G01X12422160Y4499900D02*
X12673800D01*
G01X12422160Y6135210D02*
X12673800D01*
G01X13380000Y3570000D02*
Y4220000D01*
X13526200Y4366200D01*
X13543360D01*
G01X13100000Y6950000D02*
X13360000Y6690000D01*
Y6170000D01*
X13533800Y5996200D01*
X13550000D01*
G01Y4366200D02*
X13543360D01*
G54D39*
X10805000Y5568500D03*
Y5988500D03*
X10855000Y5568500D03*
X10905000D03*
X10955000D03*
X11005000D03*
X11055000D03*
Y5988500D03*
X11005000D03*
X10955000D03*
X10905000D03*
X10855000D03*
G54D48*
X12752160Y3662400D03*
Y5297710D03*
Y5211400D03*
Y6846710D03*
G54D58*
G01X2200000Y3940000D02*
X2195860Y3944140D01*
G01D02*
Y4167600D01*
G01D02*
X2070000Y4293460D01*
Y4760000D01*
X2180000Y4870000D01*
X2195860D01*
G01X4120000Y710000D02*
X4116000Y706000D01*
G01D02*
Y500000D01*
G01X6730000Y400000D02*
X6540000Y590000D01*
Y850000D01*
X6360000Y1030000D01*
Y1190000D01*
X6520000Y1350000D01*
Y1360000D01*
G01X6745000Y1880000D02*
X6650000Y1785000D01*
Y1500000D01*
G01Y1270000D02*
Y1230000D01*
X6520000Y1100000D01*
G01D02*
Y1060000D01*
X6730000Y850000D01*
Y760000D01*
G01X10768720Y3431280D02*
X10608720D01*
X10530000Y3510000D01*
G01D02*
Y3950000D01*
X10673000Y4093000D01*
X10710000D01*
G01D02*
X10540000Y4263000D01*
Y4680000D01*
X10625860Y4765860D01*
Y5035860D01*
G01D02*
X10630000D01*
G01X11315000Y130000D02*
X11460000D01*
G01X12265000D02*
X12410000D01*
G01X12752160Y5297710D02*
X12664450Y5210000D01*
X12280000D01*
X12168160Y5098160D01*
Y4880900D01*
G01X12752160Y6846710D02*
X12748870Y6850000D01*
X12270000D01*
X12168160Y6748160D01*
Y6516210D01*
G01X12752160Y6846710D02*
X12750000Y6844550D01*
Y6510000D01*
X13030000Y6230000D01*
Y5890000D01*
X12752160Y5612160D01*
Y5297710D01*
G54D49*
G01X470000Y310000D02*
G03I-160000J0D01*
G01X300000Y0D02*
X13400000D01*
G03X13700000Y300000I0J300000D01*
G01Y7200000D01*
G03X13400000Y7500000I-300000J0D01*
G01X300000D01*
G03X0Y7200000I0J-300000D01*
G01Y300000D01*
G03X300000Y0I300000J0D01*
G01X305000Y4550000D02*
G03I-75000J0D01*
G01Y5612500D02*
G03I-75000J0D01*
G01X470000Y7190000D02*
G03I-160000J0D01*
G01X1005000Y4550000D02*
G03I-75000J0D01*
G01Y5612500D02*
G03I-75000J0D01*
G01X13550000Y310000D02*
G03I-160000J0D01*
G01Y7190000D02*
G03I-160000J0D01*
G54D59*
G01X12385000Y950000D02*
X11964200D01*
X11930000Y984200D01*
M02*
