M48
METRIC,TZ
T01C.3048
T02C.4572
T03C.889
T04C1.016
T05C1.524
T06C3.4036
;LEADER: 12 
;HEADER: 
;CODE  : ASCII 
;FILE  : F407_PACK_V11A-1-2.drl for  ... layers TOP and BOTTOM
;DESIGN: F407_PACK_V11A.brd
;T01 Holesize 1. = 0.304800 Tolerance = +0.000000/-0.000000 PLATED MM Quantity = 343
;T02 Holesize 2. = 0.457200 Tolerance = +0.000000/-0.000000 PLATED MM Quantity = 32
;T03 Holesize 3. = 0.889000 Tolerance = +0.000000/-0.000000 PLATED MM Quantity = 49
;T04 Holesize 4. = 1.016000 Tolerance = +0.000000/-0.000000 PLATED MM Quantity = 48
;T05 Holesize 5. = 1.524000 Tolerance = +0.000000/-0.000000 PLATED MM Quantity = 10
;T06 Holesize 6. = 3.403600 Tolerance = +0.000000/-0.000000 PLATED MM Quantity = 2
%
G90
T01
X1170000Y5830000
X3109740Y5380250
X3320000Y7880000
X4170000Y7880000
X1376200Y5570000
X1080000Y5570000
X1172100Y5572100
X946570Y6706570
X3850000Y4740000
X1740000Y2100000
X1530000Y2100000
X2410000Y4622220
X2410000Y4698420
X3835000Y3584280
X3930000Y1090000
X2610000Y4935000
X2352000Y2920000
X3640000Y2770000
X1611900Y5581900
X3985000Y6495000
X3030000Y5380000
X3320000Y7750000
X4170000Y7750000
X2950000Y5380000
X4170000Y7815720
X3320000Y7815720
X4230000Y5450000
X2560000Y5740000
X5010000Y5450000
X4230000Y5940000
X4490000Y6910000
X4549990Y6269990
X3370000Y5550000
X890000Y4730000
X2450000Y5550000
X185000Y6335000
X3335000Y3920000
X3075000Y3465000
X1170000Y3465000
X2395000Y4435000
X4040000Y3900000
X4620000Y3520000
X1715000Y7385000
X1835400Y7655400
X3470000Y5480000
X3880000Y6810000
X3430000Y8960000
X2935000Y4290000
X2780000Y8000000
X3230000Y4280000
X3720000Y8000000
X3800000Y6810000
X3720000Y5640000
X3690000Y6740000
X3670000Y5680000
X2830000Y7550000
X2730000Y7490000
X2670000Y7430000
X2550000Y7360000
X2420000Y7300000
X2890000Y6620000
X2920000Y8000000
X2290700Y8530000
X2940000Y6670000
X3000000Y8000000
X2160700Y8580000
X3000000Y6620000
X3085000Y8000000
X2040700Y8630000
X3040000Y6700000
X3160000Y8000000
X1910700Y8680000
X3621440Y5785000
X3620000Y6660000
X2735000Y4280000
X1780700Y8730000
X3570000Y5835000
X3560000Y6600000
X3180000Y5380000
X3420000Y8000000
X3520000Y5885000
X3500000Y6570000
X3560000Y8000000
X3280000Y5435000
X3640000Y8000000
X3320500Y5480570
X2850000Y5635000
X2840000Y6920000
X4565000Y4585000
X2110000Y6920000
X2440000Y6924190
X4170000Y5035000
X4229990Y7059990
X4124280Y4985000
X4120000Y8000000
X4040000Y8000000
X4078560Y4935000
X3960000Y8000000
X4032840Y4885000
X3880000Y8000000
X3987120Y4835000
X3800000Y8000000
X3941400Y4785000
X3420000Y5985000
X3930000Y2200000
X4230000Y5870000
X4570000Y2830000
X4230000Y6020000
X4600000Y5990000
X554410Y2087780
X554410Y2011580
X2485000Y6145000
X118400Y2280000
X3180000Y7280000
X3320000Y8000000
X118400Y1821600
X1170000Y6020000
X900000Y6340000
X1310000Y3704000
X2580000Y3020000
X2580000Y3790000
X1310000Y3814000
X2930000Y3710000
X2880000Y3760000
X1310000Y3924000
X4145000Y4535000
X3830000Y1090000
X3785000Y3630000
X1550000Y4150000
X1550000Y3584000
X780000Y6466500
X510000Y6466500
X780000Y6530000
X510000Y6530000
X1300000Y4364000
X3470000Y3750000
X3920000Y6140000
X4205000Y4485000
X1300000Y4030000
X1304000Y4474000
X2660000Y4770000
X2660000Y3020000
X3990000Y6140000
X4250000Y3760000
X4250000Y1740000
X4320000Y3760000
X4319040Y1860000
X142780Y582780
X153800Y863800
X4235000Y5135000
X4180000Y3900000
X3720000Y4280000
X3535000Y4285000
X3035000Y4285000
X2280000Y3770000
X2395000Y4335000
X2280000Y2800000
X1240000Y2800000
X770000Y4550000
X2375000Y5535000
X2385000Y4985000
X1300000Y4170000
X1279190Y5450000
X1430000Y5970000
X4980000Y5270000
X2930000Y6140000
X3435000Y6145000
X4085000Y6145000
X4320000Y6280000
X4703800Y8053800
X4703800Y8313800
X4700000Y7600000
X4700000Y7050000
X2395000Y6145000
X4230000Y5790000
X4150000Y6050000
X150000Y1320000
X4640000Y4590000
X2510000Y5690000
X4565500Y2894500
X4760000Y8820000
X3960000Y3610000
X4050000Y3320000
X3960000Y3320000
X4370000Y7360000
X4370000Y7210000
X4370000Y7050000
X4170000Y7680000
X3100000Y7390000
X3110000Y7830000
X3110000Y7730000
X3110000Y7620000
X2480000Y7900000
X2070000Y8540000
X2230000Y8930000
X2360000Y8930000
X2490000Y8940000
X3100000Y8930000
X2980000Y8930000
X3690000Y8510000
X3960000Y8520000
X3690000Y8670000
X3960000Y8670000
X2240000Y6690000
X2240000Y6540000
X2710000Y6140000
X2560000Y6140000
X2480000Y7780000
X2480000Y7650000
X4010000Y6730000
X2940000Y6530000
X4590000Y5840000
X3940000Y2590000
X3940000Y2450000
X4380000Y2590000
X3770000Y4380000
X3970000Y5660000
X3790000Y5430000
X1740000Y4400000
X1740000Y4250000
X1910000Y4400000
X1910000Y4250000
X1830000Y4480000
X1830000Y4330000
X2170000Y3380000
X2170000Y3230000
X1970000Y3380000
X1970000Y3230000
X1720000Y3390000
X1530000Y3390000
X810000Y7310000
X810000Y7390000
X1910000Y8230000
X1750000Y7780000
X1750000Y7940000
X1750000Y8090000
R02Y140000
X450000Y6980000
X450000Y6830000
X520000Y5390000
X520000Y5240000
X760000Y4370000
X760000Y4220000
X590000Y4370000
X590000Y4220000
X1520000Y3230000
X2470000Y3220000
X2470000Y3370000
X3060000Y3220000
X3060000Y3370000
X3310000Y3220000
X3310000Y3370000
X3070000Y4810000
X3070000Y4960000
X3070000Y4490000
X3070000Y4640000
X3320000Y4810000
X3320000Y4960000
X3320000Y4490000
X3320000Y4640000
X3520000Y4810000
X3520000Y4960000
X3530000Y5150000
X3530000Y5300000
X3010000Y6140000
X3840000Y6140000
X4210000Y6490000
X4300000Y6410000
X3960000Y4690000
X4190000Y4700000
X4190000Y4620000
X4680000Y4080000
R02Y-180000
X4380000Y2450000
X1220000Y5390000
X2030000Y5620000
X2030000Y5450000
X1720000Y5560000
X1820000Y4960000
X1990000Y5110000
X850000Y6750000
X850000Y6600000
X1840000Y6680000
X1840000Y6580000
X1990000Y4960000
X1440000Y5160000
X1390000Y5160000
X1780000Y6810000
X1850000Y6810000
X2920000Y5620000
X3000000Y5620000
X5430000Y5720000
X2850000Y5370000
X2610000Y5340000
X2610000Y5230000
X2610000Y5080000
X4580000Y5040000
X4580000Y4970000
X4580000Y4890000
X4580000Y4490000
X4990000Y4400000
R02Y80000
X4900000Y4680000
X4980000Y5360000
X4890000Y5540000
X3430000Y6520000
X3530000Y3870000
X178050Y3449480
X432050Y3449480
X178050Y3703480
X432050Y3703480
X178050Y3957480
X432050Y3957480
X99650Y2796190
R02X254000
X1902710Y1970450
X2156710Y1970450
X1902710Y2224450
X2156710Y2224450
X1902710Y2478450
X2156710Y2478450
X2456700Y1698690
R03Y254000
X1986330Y987920
X2240330Y987920
X1986330Y1241920
X2240330Y1241920
X5187420Y567210
X5441420Y567210
X5187420Y821210
X5441420Y821210
X5187420Y1075210
X5441420Y1075210
X5187420Y1329210
X5441420Y1329210
X4920000Y8820000
X4760000Y8650000
T02
X920000Y6180000
X1000000Y6180000
X920000Y6090000
X1000000Y6090000
X780000Y5070000
X780000Y4910000
X860000Y5070000
X860000Y4910000
X780000Y4990000
X830000Y7190000
X830000Y7100000
X910000Y7190000
X910000Y7100000
X1400000Y7530000
X1400000Y7430000
X1590000Y7270000
R02Y-90000
X1590000Y6990000
X1720000Y5200000
R03Y-80000
X1290000Y6520000
X1290000Y6410000
X1180000Y6300000
R02X110000
X1400000Y6410000
X1400000Y6520000
X1180000Y6520000
X1180000Y6410000
T03
X670000Y2540000
X1320000Y2540000
X764700Y9083200
X764700Y9337200
X1018700Y9083200
X1018700Y9337200
X1272700Y9083200
X1272700Y9337200
X1526700Y9083200
X1526700Y9337200
X1780700Y9083200
X1780700Y9337200
X2034700Y9083200
X2034700Y9337200
X2288700Y9083200
X2288700Y9337200
X2542700Y9083200
X2542700Y9337200
X2796700Y9083200
X2796700Y9337200
X3050700Y9083200
X3050700Y9337200
X3304700Y9083200
X3304700Y9337200
X3558700Y9083200
X3558700Y9337200
X3812700Y9083200
X3812700Y9337200
X4066700Y9083200
X4066700Y9337200
X4320700Y9083200
X4320700Y9337200
X4574700Y9083200
X4574700Y9337200
X4828700Y9083200
X4828700Y9337200
X270000Y6535000
R02Y-200000
X270000Y5550000
X270000Y5100000
X5340000Y4140000
X5340000Y4590000
X5340000Y3170000
X5340000Y3620000
X5340000Y2200000
X5340000Y2650000
X5340000Y5110000
X5340000Y5560000
T04
X1590000Y300000
X1590000Y554000
X1844000Y300000
X1844000Y554000
X2098000Y300000
X2098000Y554000
X2352000Y300000
X2352000Y554000
X2606000Y300000
X2606000Y554000
X2860000Y300000
X2860000Y554000
X3114000Y300000
X3114000Y554000
X3368000Y300000
X3368000Y554000
X3622000Y300000
X3622000Y554000
X750000Y300000
X750000Y554000
X1004000Y300000
X1004000Y554000
X4190000Y310000
X4190000Y564000
X4444000Y310000
X4444000Y564000
X4698000Y310000
X4698000Y564000
X5140000Y8460000
X5394000Y8460000
X5140000Y8206000
X5394000Y8206000
X5140000Y7952000
X5394000Y7952000
X5140000Y7698000
X5394000Y7698000
X5140000Y7444000
X5394000Y7444000
X5140000Y7190000
X5394000Y7190000
X5140000Y6936000
X5394000Y6936000
X5140000Y6682000
X5394000Y6682000
X5140000Y6428000
X5394000Y6428000
X5140000Y6174000
X5394000Y6174000
T05
X520000Y5675000
X520000Y4975000
X5090000Y4015000
X5090000Y4715000
X5090000Y3045000
X5090000Y3745000
X5090000Y2075000
X5090000Y2775000
X5090000Y4985000
X5090000Y5685000
T06
X230000Y9410000
X5360000Y9410000
M30
