G04 ================== begin FILE IDENTIFICATION RECORD ==================*
G04 Layout Name:  E:/GitHub/test.cc/45_STM32F407/F407_PACK_V10C/PCB/F407_PACK_V10C.brd*
G04 Film Name:    SolderMask_Bottom*
G04 File Format:  Gerber RS274X*
G04 File Origin:  Cadence Allegro 16.6-2015-S071*
G04 Origin Date:  Tue Oct 25 19:29:15 2016*
G04 *
G04 Layer:  BOARD GEOMETRY/OUTLINE*
G04 Layer:  VIA CLASS/SOLDERMASK_BOTTOM*
G04 Layer:  PIN/SOLDERMASK_BOTTOM*
G04 Layer:  PACKAGE GEOMETRY/SOLDERMASK_BOTTOM*
G04 Layer:  BOARD GEOMETRY/SOLDERMASK_BOTTOM*
G04 *
G04 Offset:    (0.0000 0.0000)*
G04 Mirror:    No*
G04 Mode:      Positive*
G04 Rotation:  0*
G04 FullContactRelief:  No*
G04 UndefLineWidth:     0.1524*
G04 ================== end FILE IDENTIFICATION RECORD ====================*
%FSLAX55Y55*MOMM*%
%IR0*IPPOS*OFA0.00000B0.00000*MIA0B0*SFA1.00000B1.00000*%
%ADD17O,4.15X2.15*%
%ADD14O,2.15X4.15*%
%ADD25C,3.3*%
%ADD21C,2.5*%
%ADD15C,1.7*%
%ADD13C,3.5*%
%ADD26C,2.7*%
%ADD12C,1.524*%
%ADD10C,6.35*%
%ADD18C,1.905*%
%ADD16R,1.7X1.7*%
%ADD22C,6.604*%
%ADD19C,3.175*%
%ADD24C,1.8009*%
%ADD11R,1.524X1.524*%
%ADD20C,1.397*%
%ADD23R,1.905X1.905*%
%ADD27C,.2032*%
%ADD28C,.17*%
%ADD29C,.127*%
G75*
%LPD*%
G75*
G36*
G01X5750000Y1400000D02*
Y1060000D01*
X6090000D01*
Y1400000D01*
X5750000D01*
G37*
G36*
G01X12320000Y5440000D02*
Y5180000D01*
X12580000D01*
Y5440000D01*
X12320000D01*
G37*
G54D10*
X330000Y330000D03*
Y9870000D03*
X14670000Y330000D03*
Y9870000D03*
G54D20*
X7115000Y340000D03*
X6925000D03*
G54D11*
X190000Y4620000D03*
X471170Y6733010D03*
X1620000Y160000D03*
X2490000Y6680000D03*
X3910000Y7170000D03*
X5290000Y9830000D03*
X10770000Y7170000D03*
X12680000Y2090000D03*
G54D12*
X190000Y5128000D03*
Y4874000D03*
Y5636000D03*
Y5382000D03*
Y5890000D03*
X217170Y6733010D03*
Y7241010D03*
Y6987010D03*
Y7749010D03*
Y7495010D03*
Y8257010D03*
Y8003010D03*
Y8765010D03*
Y8511010D03*
Y9019010D03*
X858000Y160000D03*
X471170Y7241010D03*
Y6987010D03*
Y7749010D03*
Y7495010D03*
Y8257010D03*
Y8003010D03*
Y8765010D03*
Y8511010D03*
Y9019010D03*
X1366000Y160000D03*
X1112000D03*
X2490000Y5410000D03*
Y5664000D03*
Y5918000D03*
Y6172000D03*
Y6426000D03*
X2744000Y5410000D03*
Y5664000D03*
Y5918000D03*
Y6172000D03*
Y6426000D03*
Y6680000D03*
X3910000Y1582000D03*
Y1836000D03*
Y2090000D03*
Y2344000D03*
Y2598000D03*
Y2852000D03*
Y3106000D03*
Y3360000D03*
Y3614000D03*
Y3868000D03*
Y4122000D03*
Y4376000D03*
Y4630000D03*
Y4884000D03*
Y5138000D03*
Y5392000D03*
Y5646000D03*
Y5900000D03*
Y6154000D03*
Y6408000D03*
Y6662000D03*
Y6916000D03*
X4164000Y1582000D03*
Y1836000D03*
Y2090000D03*
Y2344000D03*
Y2598000D03*
Y2852000D03*
Y3106000D03*
Y3360000D03*
Y3614000D03*
Y3868000D03*
Y4122000D03*
Y4376000D03*
Y4630000D03*
Y4884000D03*
Y5138000D03*
Y5392000D03*
Y5646000D03*
Y5900000D03*
Y6154000D03*
Y6408000D03*
Y6662000D03*
Y6916000D03*
Y7170000D03*
X5544000Y9830000D03*
X6052000D03*
X5798000D03*
X6814000D03*
X6560000D03*
X6306000D03*
X7322000D03*
X7068000D03*
X7830000D03*
X7576000D03*
X8338000D03*
X8084000D03*
X8846000D03*
X8592000D03*
X9354000D03*
X9100000D03*
X9608000D03*
X11024000Y1582000D03*
X10770000D03*
X11024000Y1836000D03*
X10770000D03*
X11024000Y2090000D03*
X10770000D03*
X11024000Y2344000D03*
X10770000D03*
X11024000Y2598000D03*
X10770000D03*
X11024000Y2852000D03*
X10770000D03*
X11024000Y3106000D03*
X10770000D03*
X11024000Y3360000D03*
X10770000D03*
X11024000Y3614000D03*
Y3868000D03*
X10770000Y3614000D03*
Y3868000D03*
X11024000Y4122000D03*
Y4376000D03*
Y4630000D03*
X10770000Y4122000D03*
Y4376000D03*
Y4630000D03*
X11024000Y4884000D03*
Y5138000D03*
X10770000Y4884000D03*
Y5138000D03*
X11024000Y5392000D03*
Y5646000D03*
X10770000Y5392000D03*
Y5646000D03*
X11024000Y5900000D03*
Y6154000D03*
X10770000Y5900000D03*
Y6154000D03*
X11024000Y6408000D03*
X10770000D03*
X11024000Y6662000D03*
X10770000D03*
X11024000Y6916000D03*
X10770000D03*
X11024000Y7170000D03*
X12426000Y2344000D03*
X12680000D03*
X12426000Y2090000D03*
Y2852000D03*
X12680000D03*
X12426000Y2598000D03*
X12680000D03*
X12426000Y3360000D03*
Y3106000D03*
X12680000Y3360000D03*
Y3106000D03*
X12426000Y3868000D03*
Y3614000D03*
X12680000Y3868000D03*
Y3614000D03*
X12426000Y4122000D03*
X12680000D03*
G54D21*
X10470000Y250000D03*
Y710000D03*
X11110000Y250000D03*
Y700000D03*
X11550000Y240000D03*
Y700000D03*
X12190000Y240000D03*
Y690000D03*
X12500000Y230000D03*
Y690000D03*
Y1010000D03*
Y1470000D03*
X13140000Y230000D03*
Y680000D03*
Y1010000D03*
Y1460000D03*
X13450000Y230000D03*
Y690000D03*
X14090000Y230000D03*
Y680000D03*
G54D22*
X13988500Y1349400D03*
Y3848300D03*
Y6509400D03*
Y9008300D03*
G54D13*
X830000Y3090000D03*
Y4420000D03*
G54D23*
X13851300Y3147500D03*
Y8307500D03*
G54D14*
X700000Y9520000D03*
G54D24*
X13441000Y5116000D03*
Y4862000D03*
X13695000Y4989000D03*
Y4735000D03*
X13441000Y5624000D03*
Y5370000D03*
X13695000Y5497000D03*
Y5243000D03*
X14820000Y4517500D03*
Y4771500D03*
Y5588500D03*
Y5842500D03*
G54D15*
X1100000Y3400000D03*
Y3850000D03*
Y3650000D03*
G54D16*
Y4100000D03*
G54D25*
X14330000Y4608500D03*
Y5751500D03*
G54D26*
X14025000Y4405500D03*
Y5954500D03*
G54D17*
X1180000Y9240000D03*
Y9840000D03*
G54D27*
G01X330000Y0D02*
X14670000D01*
G03X15000000Y330000I0J330000D01*
G01Y9870000D01*
G03X14670000Y10200000I-330000J0D01*
G01X330000D01*
G03X0Y9870000I0J-330000D01*
G01Y330000D01*
G03X330000Y0I330000J0D01*
G01X7980000Y130000D02*
G03I-70000J0D01*
G01Y730000D02*
G03I-70000J0D01*
G01X9160000Y130000D02*
G03I-70000J0D01*
G01Y730000D02*
G03I-70000J0D01*
G01X12420000Y9940000D02*
G03I-50000J0D01*
G01X13220000D02*
G03I-50000J0D01*
G54D18*
X1866000Y9415000D03*
Y9945000D03*
X2273000Y310000D03*
X2019000D03*
X2490000Y2092000D03*
Y2346000D03*
Y2600000D03*
X2486000Y2986000D03*
Y3240000D03*
X2490000Y3622000D03*
Y3876000D03*
Y4130000D03*
Y4512000D03*
Y4766000D03*
Y5020000D03*
X2374000Y9415000D03*
X2120000D03*
X2374000Y9945000D03*
X2120000D03*
X2781000Y310000D03*
X2527000D03*
X2744000Y2092000D03*
Y2346000D03*
Y2600000D03*
X2740000Y2986000D03*
Y3240000D03*
X2744000Y3622000D03*
Y3876000D03*
Y4130000D03*
Y4512000D03*
Y4766000D03*
Y5020000D03*
X3433000Y400000D03*
X3179000D03*
X3941000D03*
X3916000Y1080000D03*
X4530000Y260000D03*
X4230000D03*
X4170000Y1080000D03*
X5124000Y4770000D03*
X4870000D03*
X5704000Y290000D03*
X5450000D03*
X5340000Y2260000D03*
Y3020000D03*
X5446000Y9096000D03*
Y9350000D03*
X5700000Y9096000D03*
Y9350000D03*
X5954000Y9096000D03*
Y9350000D03*
X6208000Y9096000D03*
Y9350000D03*
X6462000Y9096000D03*
Y9350000D03*
X6716000Y9096000D03*
Y9350000D03*
X6970000Y9096000D03*
Y9350000D03*
X7224000Y9096000D03*
Y9350000D03*
X7478000Y9096000D03*
Y9350000D03*
X7732000Y9096000D03*
Y9350000D03*
X7986000Y9096000D03*
Y9350000D03*
X8240000Y9096000D03*
Y9350000D03*
X8494000Y9096000D03*
Y9350000D03*
X8748000Y9096000D03*
Y9350000D03*
X9002000Y9096000D03*
Y9350000D03*
X9256000Y9096000D03*
Y9350000D03*
X9510000Y9096000D03*
Y9350000D03*
X10504000Y9804000D03*
Y9550000D03*
X11024000Y7992000D03*
X10770000D03*
X11024000Y8246000D03*
X10770000D03*
X11024000Y8500000D03*
X10770000D03*
X11012000Y9804000D03*
Y9550000D03*
X10758000Y9804000D03*
Y9550000D03*
X11266000Y9804000D03*
Y9550000D03*
X13851300Y2050200D03*
Y2324500D03*
Y2873200D03*
Y2598800D03*
Y7210200D03*
Y7758800D03*
Y7484500D03*
Y8033200D03*
X14125600Y2461700D03*
Y2187400D03*
Y3010300D03*
Y2736000D03*
Y7347400D03*
Y7896000D03*
Y7621700D03*
Y8170300D03*
G54D28*
G01X450000Y1350000D02*
G03I-30000J0D01*
G01Y950000D02*
G03I-30000J0D01*
G01Y2100000D02*
G03I-30000J0D01*
G01Y2500000D02*
G03I-30000J0D01*
G54D19*
X3168000Y9450000D03*
X3676000D03*
X4184000D03*
X4692000D03*
G54D29*
G01X5187000Y283000D02*
G03I-160000J0D01*
G01X5402000Y1641000D02*
G03I-160000J0D01*
G01X9295000Y2240000D02*
G03I-75000J0D01*
G01Y2990000D02*
G03I-75000J0D01*
G01X10051000Y283000D02*
G03I-160000J0D01*
G01X9860000Y1641000D02*
G03I-160000J0D01*
M02*
