G04 ================== begin FILE IDENTIFICATION RECORD ==================*
G04 Layout Name:  H:/MBEDBoard/6UL_WIFI_V10A/PCB/6UL_WIFI_V10A.brd*
G04 Film Name:    Drill_Legend*
G04 File Format:  Gerber RS274X*
G04 File Origin:  Cadence Allegro 17.2-S058*
G04 Origin Date:  Wed May 27 18:17:02 2020*
G04 *
G04 Layer:  MANUFACTURING/NCLEGEND-1-2*
G04 Layer:  MANUFACTURING/NCLEGEND-1-4*
G04 Layer:  MANUFACTURING/NCDRILL_FIGURE*
G04 Layer:  BOARD GEOMETRY/DIMENSION*
G04 Layer:  MANUFACTURING/NCDRILL_LEGEND*
G04 *
G04 Offset:    (0.0000 0.0000)*
G04 Mirror:    No*
G04 Mode:      Positive*
G04 Rotation:  0*
G04 FullContactRelief:  No*
G04 UndefLineWidth:     0.1524*
G04 ================== end FILE IDENTIFICATION RECORD ====================*
%FSLAX55Y55*MOMM*%
%IR0*IPPOS*OFA0.00000B0.00000*MIA0B0*SFA1.00000B1.00000*%
%AMMACRO20*
1,1,.1524,.65,0.0*
20,1,.1524,.65,0.0,0.0,-.65,0.0*
1,1,.1524,0.0,-.65*
20,1,.1524,0.0,-.65,-.65,0.0,0.0*
1,1,.1524,-.65,0.0*
20,1,.1524,-.65,0.0,0.0,.65,0.0*
1,1,.1524,0.0,.65*
20,1,.1524,0.0,.65,.65,0.0,0.0*
1,1,.1524,.65,0.0*
%
%ADD20MACRO20*%
%AMMACRO14*
1,1,.1524,-.2,-.3*
20,1,.1524,-.2,-.3,-.2,.3,0.0*
1,1,.1524,-.2,.3*
20,1,.1524,-.2,.3,-.196962,.33473,0.0*
1,1,.1524,-.196962,.33473*
20,1,.1524,-.196962,.33473,-.187939,.368404,0.0*
1,1,.1524,-.187939,.368404*
20,1,.1524,-.187939,.368404,-.173205,.4,0.0*
1,1,.1524,-.173205,.4*
20,1,.1524,-.173205,.4,-.153209,.428558,0.0*
1,1,.1524,-.153209,.428558*
20,1,.1524,-.153209,.428558,-.128558,.453209,0.0*
1,1,.1524,-.128558,.453209*
20,1,.1524,-.128558,.453209,-.1,.473205,0.0*
1,1,.1524,-.1,.473205*
20,1,.1524,-.1,.473205,-.068404,.487939,0.0*
1,1,.1524,-.068404,.487939*
20,1,.1524,-.068404,.487939,-.03473,.496962,0.0*
1,1,.1524,-.03473,.496962*
20,1,.1524,-.03473,.496962,0.0,.5,0.0*
1,1,.1524,0.0,.5*
20,1,.1524,0.0,.5,.03473,.496962,0.0*
1,1,.1524,.03473,.496962*
20,1,.1524,.03473,.496962,.068404,.487939,0.0*
1,1,.1524,.068404,.487939*
20,1,.1524,.068404,.487939,.1,.473205,0.0*
1,1,.1524,.1,.473205*
20,1,.1524,.1,.473205,.128558,.453209,0.0*
1,1,.1524,.128558,.453209*
20,1,.1524,.128558,.453209,.153209,.428558,0.0*
1,1,.1524,.153209,.428558*
20,1,.1524,.153209,.428558,.173205,.4,0.0*
1,1,.1524,.173205,.4*
20,1,.1524,.173205,.4,.187939,.368404,0.0*
1,1,.1524,.187939,.368404*
20,1,.1524,.187939,.368404,.196962,.33473,0.0*
1,1,.1524,.196962,.33473*
20,1,.1524,.196962,.33473,.2,.3,0.0*
1,1,.1524,.2,.3*
20,1,.1524,.2,.3,.2,-.3,0.0*
1,1,.1524,.2,-.3*
20,1,.1524,.2,-.3,.196962,-.33473,0.0*
1,1,.1524,.196962,-.33473*
20,1,.1524,.196962,-.33473,.187939,-.368404,0.0*
1,1,.1524,.187939,-.368404*
20,1,.1524,.187939,-.368404,.173205,-.4,0.0*
1,1,.1524,.173205,-.4*
20,1,.1524,.173205,-.4,.153209,-.428558,0.0*
1,1,.1524,.153209,-.428558*
20,1,.1524,.153209,-.428558,.128558,-.453209,0.0*
1,1,.1524,.128558,-.453209*
20,1,.1524,.128558,-.453209,.1,-.473205,0.0*
1,1,.1524,.1,-.473205*
20,1,.1524,.1,-.473205,.068404,-.487939,0.0*
1,1,.1524,.068404,-.487939*
20,1,.1524,.068404,-.487939,.03473,-.496962,0.0*
1,1,.1524,.03473,-.496962*
20,1,.1524,.03473,-.496962,0.0,-.5,0.0*
1,1,.1524,0.0,-.5*
20,1,.1524,0.0,-.5,-.03473,-.496962,0.0*
1,1,.1524,-.03473,-.496962*
20,1,.1524,-.03473,-.496962,-.068404,-.487939,0.0*
1,1,.1524,-.068404,-.487939*
20,1,.1524,-.068404,-.487939,-.1,-.473205,0.0*
1,1,.1524,-.1,-.473205*
20,1,.1524,-.1,-.473205,-.128558,-.453209,0.0*
1,1,.1524,-.128558,-.453209*
20,1,.1524,-.128558,-.453209,-.153209,-.428558,0.0*
1,1,.1524,-.153209,-.428558*
20,1,.1524,-.153209,-.428558,-.173205,-.4,0.0*
1,1,.1524,-.173205,-.4*
20,1,.1524,-.173205,-.4,-.187939,-.368404,0.0*
1,1,.1524,-.187939,-.368404*
20,1,.1524,-.187939,-.368404,-.196962,-.33473,0.0*
1,1,.1524,-.196962,-.33473*
20,1,.1524,-.196962,-.33473,-.2,-.3,0.0*
1,1,.1524,-.2,-.3*
1,1,.1524,-.1,-.1*
20,1,.1524,-.1,-.1,-.1267,-.0967,0.0*
1,1,.1524,-.1267,-.0967*
20,1,.1524,-.1267,-.0967,-.15,-.0833,0.0*
1,1,.1524,-.15,-.0833*
20,1,.1524,-.15,-.0833,-.17,-.0633,0.0*
1,1,.1524,-.17,-.0633*
20,1,.1524,-.17,-.0633,-.1833,-.04,0.0*
1,1,.1524,-.1833,-.04*
20,1,.1524,-.1833,-.04,-.19,-.0133,0.0*
1,1,.1524,-.19,-.0133*
20,1,.1524,-.19,-.0133,-.19,.0133,0.0*
1,1,.1524,-.19,.0133*
20,1,.1524,-.19,.0133,-.1833,.04,0.0*
1,1,.1524,-.1833,.04*
20,1,.1524,-.1833,.04,-.17,.0633,0.0*
1,1,.1524,-.17,.0633*
20,1,.1524,-.17,.0633,-.15,.0833,0.0*
1,1,.1524,-.15,.0833*
20,1,.1524,-.15,.0833,-.1267,.0967,0.0*
1,1,.1524,-.1267,.0967*
20,1,.1524,-.1267,.0967,-.1,.1,0.0*
1,1,.1524,-.1,.1*
20,1,.1524,-.1,.1,-.0733,.0967,0.0*
1,1,.1524,-.0733,.0967*
20,1,.1524,-.0733,.0967,-.05,.0833,0.0*
1,1,.1524,-.05,.0833*
20,1,.1524,-.05,.0833,-.03,.0633,0.0*
1,1,.1524,-.03,.0633*
20,1,.1524,-.03,.0633,-.0167,.04,0.0*
1,1,.1524,-.0167,.04*
20,1,.1524,-.0167,.04,-.01,.0133,0.0*
1,1,.1524,-.01,.0133*
20,1,.1524,-.01,.0133,-.01,-.0133,0.0*
1,1,.1524,-.01,-.0133*
20,1,.1524,-.01,-.0133,-.0167,-.04,0.0*
1,1,.1524,-.0167,-.04*
20,1,.1524,-.0167,-.04,-.03,-.0633,0.0*
1,1,.1524,-.03,-.0633*
20,1,.1524,-.03,-.0633,-.05,-.0833,0.0*
1,1,.1524,-.05,-.0833*
20,1,.1524,-.05,-.0833,-.0733,-.0967,0.0*
1,1,.1524,-.0733,-.0967*
20,1,.1524,-.0733,-.0967,-.1,-.1,0.0*
1,1,.1524,-.1,-.1*
1,1,.1524,.0168,-.1*
20,1,.1524,.0168,-.1,.1001,.1,0.0*
1,1,.1524,.1001,.1*
20,1,.1524,.1001,.1,.1834,-.1,0.0*
1,1,.1524,.1834,-.1*
1,1,.1524,.1534,-.03*
20,1,.1524,.1534,-.03,.0468,-.03,0.0*
1,1,.1524,.0468,-.03*
%
%ADD14MACRO14*%
%AMMACRO13*
1,1,.1524,.2,.2*
20,1,.1524,.2,.2,.2,-.2,0.0*
1,1,.1524,.2,-.2*
20,1,.1524,.2,-.2,-.2,-.2,0.0*
1,1,.1524,-.2,-.2*
20,1,.1524,-.2,-.2,-.2,.2,0.0*
1,1,.1524,-.2,.2*
20,1,.1524,-.2,.2,.2,.2,0.0*
1,1,.1524,.2,.2*
%
%ADD13MACRO13*%
%AMMACRO11*
1,1,.1524,.1524,0.0*
20,1,.1524,.1524,0.0,-.1524,0.0,0.0*
1,1,.1524,-.1524,0.0*
1,1,.1524,0.0,.1524*
20,1,.1524,0.0,.1524,0.0,-.1524,0.0*
1,1,.1524,0.0,-.1524*
%
%ADD11MACRO11*%
%AMMACRO17*
1,1,.1524,0.0,.55*
20,1,.1524,0.0,.55,-.476314,.275,0.0*
1,1,.1524,-.476314,.275*
20,1,.1524,-.476314,.275,-.476314,-.275,0.0*
1,1,.1524,-.476314,-.275*
20,1,.1524,-.476314,-.275,0.0,-.55,0.0*
1,1,.1524,0.0,-.55*
20,1,.1524,0.0,-.55,.476314,-.275,0.0*
1,1,.1524,.476314,-.275*
20,1,.1524,.476314,-.275,.476314,.275,0.0*
1,1,.1524,.476314,.275*
20,1,.1524,.476314,.275,0.0,.55,0.0*
1,1,.1524,0.0,.55*
%
%ADD17MACRO17*%
%AMMACRO12*
1,1,.1524,-.5,-1.*
20,1,.1524,-.5,-1.,-.5,1.,0.0*
1,1,.1524,-.5,1.*
20,1,.1524,-.5,1.,-.492404,1.086824,0.0*
1,1,.1524,-.492404,1.086824*
20,1,.1524,-.492404,1.086824,-.469846,1.17101,0.0*
1,1,.1524,-.469846,1.17101*
20,1,.1524,-.469846,1.17101,-.433013,1.25,0.0*
1,1,.1524,-.433013,1.25*
20,1,.1524,-.433013,1.25,-.383022,1.321394,0.0*
1,1,.1524,-.383022,1.321394*
20,1,.1524,-.383022,1.321394,-.321394,1.383022,0.0*
1,1,.1524,-.321394,1.383022*
20,1,.1524,-.321394,1.383022,-.25,1.433013,0.0*
1,1,.1524,-.25,1.433013*
20,1,.1524,-.25,1.433013,-.17101,1.469846,0.0*
1,1,.1524,-.17101,1.469846*
20,1,.1524,-.17101,1.469846,-.086824,1.492404,0.0*
1,1,.1524,-.086824,1.492404*
20,1,.1524,-.086824,1.492404,0.0,1.5,0.0*
1,1,.1524,0.0,1.5*
20,1,.1524,0.0,1.5,.086824,1.492404,0.0*
1,1,.1524,.086824,1.492404*
20,1,.1524,.086824,1.492404,.17101,1.469846,0.0*
1,1,.1524,.17101,1.469846*
20,1,.1524,.17101,1.469846,.25,1.433013,0.0*
1,1,.1524,.25,1.433013*
20,1,.1524,.25,1.433013,.321394,1.383022,0.0*
1,1,.1524,.321394,1.383022*
20,1,.1524,.321394,1.383022,.383022,1.321394,0.0*
1,1,.1524,.383022,1.321394*
20,1,.1524,.383022,1.321394,.433013,1.25,0.0*
1,1,.1524,.433013,1.25*
20,1,.1524,.433013,1.25,.469846,1.17101,0.0*
1,1,.1524,.469846,1.17101*
20,1,.1524,.469846,1.17101,.492404,1.086824,0.0*
1,1,.1524,.492404,1.086824*
20,1,.1524,.492404,1.086824,.5,1.,0.0*
1,1,.1524,.5,1.*
20,1,.1524,.5,1.,.5,-1.,0.0*
1,1,.1524,.5,-1.*
20,1,.1524,.5,-1.,.492404,-1.086824,0.0*
1,1,.1524,.492404,-1.086824*
20,1,.1524,.492404,-1.086824,.469846,-1.17101,0.0*
1,1,.1524,.469846,-1.17101*
20,1,.1524,.469846,-1.17101,.433013,-1.25,0.0*
1,1,.1524,.433013,-1.25*
20,1,.1524,.433013,-1.25,.383022,-1.321394,0.0*
1,1,.1524,.383022,-1.321394*
20,1,.1524,.383022,-1.321394,.321394,-1.383022,0.0*
1,1,.1524,.321394,-1.383022*
20,1,.1524,.321394,-1.383022,.25,-1.433013,0.0*
1,1,.1524,.25,-1.433013*
20,1,.1524,.25,-1.433013,.17101,-1.469846,0.0*
1,1,.1524,.17101,-1.469846*
20,1,.1524,.17101,-1.469846,.086824,-1.492404,0.0*
1,1,.1524,.086824,-1.492404*
20,1,.1524,.086824,-1.492404,0.0,-1.5,0.0*
1,1,.1524,0.0,-1.5*
20,1,.1524,0.0,-1.5,-.086824,-1.492404,0.0*
1,1,.1524,-.086824,-1.492404*
20,1,.1524,-.086824,-1.492404,-.17101,-1.469846,0.0*
1,1,.1524,-.17101,-1.469846*
20,1,.1524,-.17101,-1.469846,-.25,-1.433013,0.0*
1,1,.1524,-.25,-1.433013*
20,1,.1524,-.25,-1.433013,-.321394,-1.383022,0.0*
1,1,.1524,-.321394,-1.383022*
20,1,.1524,-.321394,-1.383022,-.383022,-1.321394,0.0*
1,1,.1524,-.383022,-1.321394*
20,1,.1524,-.383022,-1.321394,-.433013,-1.25,0.0*
1,1,.1524,-.433013,-1.25*
20,1,.1524,-.433013,-1.25,-.469846,-1.17101,0.0*
1,1,.1524,-.469846,-1.17101*
20,1,.1524,-.469846,-1.17101,-.492404,-1.086824,0.0*
1,1,.1524,-.492404,-1.086824*
20,1,.1524,-.492404,-1.086824,-.5,-1.,0.0*
1,1,.1524,-.5,-1.*
1,1,.1524,-.25,-.25*
20,1,.1524,-.25,-.25,-.3167,-.2417,0.0*
1,1,.1524,-.3167,-.2417*
20,1,.1524,-.3167,-.2417,-.375,-.2083,0.0*
1,1,.1524,-.375,-.2083*
20,1,.1524,-.375,-.2083,-.425,-.1583,0.0*
1,1,.1524,-.425,-.1583*
20,1,.1524,-.425,-.1583,-.4583,-.1,0.0*
1,1,.1524,-.4583,-.1*
20,1,.1524,-.4583,-.1,-.475,-.0333,0.0*
1,1,.1524,-.475,-.0333*
20,1,.1524,-.475,-.0333,-.475,.0333,0.0*
1,1,.1524,-.475,.0333*
20,1,.1524,-.475,.0333,-.4583,.1,0.0*
1,1,.1524,-.4583,.1*
20,1,.1524,-.4583,.1,-.425,.1583,0.0*
1,1,.1524,-.425,.1583*
20,1,.1524,-.425,.1583,-.375,.2083,0.0*
1,1,.1524,-.375,.2083*
20,1,.1524,-.375,.2083,-.3167,.2417,0.0*
1,1,.1524,-.3167,.2417*
20,1,.1524,-.3167,.2417,-.25,.25,0.0*
1,1,.1524,-.25,.25*
20,1,.1524,-.25,.25,-.1833,.2417,0.0*
1,1,.1524,-.1833,.2417*
20,1,.1524,-.1833,.2417,-.125,.2083,0.0*
1,1,.1524,-.125,.2083*
20,1,.1524,-.125,.2083,-.075,.1583,0.0*
1,1,.1524,-.075,.1583*
20,1,.1524,-.075,.1583,-.0417,.1,0.0*
1,1,.1524,-.0417,.1*
20,1,.1524,-.0417,.1,-.025,.0333,0.0*
1,1,.1524,-.025,.0333*
20,1,.1524,-.025,.0333,-.025,-.0333,0.0*
1,1,.1524,-.025,-.0333*
20,1,.1524,-.025,-.0333,-.0417,-.1,0.0*
1,1,.1524,-.0417,-.1*
20,1,.1524,-.0417,-.1,-.075,-.1583,0.0*
1,1,.1524,-.075,-.1583*
20,1,.1524,-.075,-.1583,-.125,-.2083,0.0*
1,1,.1524,-.125,-.2083*
20,1,.1524,-.125,-.2083,-.1833,-.2417,0.0*
1,1,.1524,-.1833,-.2417*
20,1,.1524,-.1833,-.2417,-.25,-.25,0.0*
1,1,.1524,-.25,-.25*
1,1,.1524,.3168,.0167*
20,1,.1524,.3168,.0167,.3501,.0417,0.0*
1,1,.1524,.3501,.0417*
20,1,.1524,.3501,.0417,.3751,.0833,0.0*
1,1,.1524,.3751,.0833*
20,1,.1524,.3751,.0833,.3918,.1417,0.0*
1,1,.1524,.3918,.1417*
20,1,.1524,.3918,.1417,.3751,.1917,0.0*
1,1,.1524,.3751,.1917*
20,1,.1524,.3751,.1917,.3418,.225,0.0*
1,1,.1524,.3418,.225*
20,1,.1524,.3418,.225,.2834,.25,0.0*
1,1,.1524,.2834,.25*
20,1,.1524,.2834,.25,.0584,.25,0.0*
1,1,.1524,.0584,.25*
20,1,.1524,.0584,.25,.0584,-.25,0.0*
1,1,.1524,.0584,-.25*
20,1,.1524,.0584,-.25,.3334,-.25,0.0*
1,1,.1524,.3334,-.25*
20,1,.1524,.3334,-.25,.3918,-.2167,0.0*
1,1,.1524,.3918,-.2167*
20,1,.1524,.3918,-.2167,.4251,-.1667,0.0*
1,1,.1524,.4251,-.1667*
20,1,.1524,.4251,-.1667,.4418,-.1083,0.0*
1,1,.1524,.4418,-.1083*
20,1,.1524,.4418,-.1083,.4251,-.05,0.0*
1,1,.1524,.4251,-.05*
20,1,.1524,.4251,-.05,.3751,0.0,0.0*
1,1,.1524,.3751,0.0*
20,1,.1524,.3751,0.0,.3168,.0167,0.0*
1,1,.1524,.3168,.0167*
20,1,.1524,.3168,.0167,.0584,.0167,0.0*
1,1,.1524,.0584,.0167*
%
%ADD12MACRO12*%
%AMMACRO16*
1,1,.1524,-1.,.5*
20,1,.1524,-1.,.5,1.,.5,0.0*
1,1,.1524,1.,.5*
20,1,.1524,1.,.5,1.086824,.492404,0.0*
1,1,.1524,1.086824,.492404*
20,1,.1524,1.086824,.492404,1.17101,.469846,0.0*
1,1,.1524,1.17101,.469846*
20,1,.1524,1.17101,.469846,1.25,.433013,0.0*
1,1,.1524,1.25,.433013*
20,1,.1524,1.25,.433013,1.321394,.383022,0.0*
1,1,.1524,1.321394,.383022*
20,1,.1524,1.321394,.383022,1.383022,.321394,0.0*
1,1,.1524,1.383022,.321394*
20,1,.1524,1.383022,.321394,1.433013,.25,0.0*
1,1,.1524,1.433013,.25*
20,1,.1524,1.433013,.25,1.469846,.17101,0.0*
1,1,.1524,1.469846,.17101*
20,1,.1524,1.469846,.17101,1.492404,.086824,0.0*
1,1,.1524,1.492404,.086824*
20,1,.1524,1.492404,.086824,1.5,0.0,0.0*
1,1,.1524,1.5,0.0*
20,1,.1524,1.5,0.0,1.492404,-.086824,0.0*
1,1,.1524,1.492404,-.086824*
20,1,.1524,1.492404,-.086824,1.469846,-.17101,0.0*
1,1,.1524,1.469846,-.17101*
20,1,.1524,1.469846,-.17101,1.433013,-.25,0.0*
1,1,.1524,1.433013,-.25*
20,1,.1524,1.433013,-.25,1.383022,-.321394,0.0*
1,1,.1524,1.383022,-.321394*
20,1,.1524,1.383022,-.321394,1.321394,-.383022,0.0*
1,1,.1524,1.321394,-.383022*
20,1,.1524,1.321394,-.383022,1.25,-.433013,0.0*
1,1,.1524,1.25,-.433013*
20,1,.1524,1.25,-.433013,1.17101,-.469846,0.0*
1,1,.1524,1.17101,-.469846*
20,1,.1524,1.17101,-.469846,1.086824,-.492404,0.0*
1,1,.1524,1.086824,-.492404*
20,1,.1524,1.086824,-.492404,1.,-.5,0.0*
1,1,.1524,1.,-.5*
20,1,.1524,1.,-.5,-1.,-.5,0.0*
1,1,.1524,-1.,-.5*
20,1,.1524,-1.,-.5,-1.086824,-.492404,0.0*
1,1,.1524,-1.086824,-.492404*
20,1,.1524,-1.086824,-.492404,-1.17101,-.469846,0.0*
1,1,.1524,-1.17101,-.469846*
20,1,.1524,-1.17101,-.469846,-1.25,-.433013,0.0*
1,1,.1524,-1.25,-.433013*
20,1,.1524,-1.25,-.433013,-1.321394,-.383022,0.0*
1,1,.1524,-1.321394,-.383022*
20,1,.1524,-1.321394,-.383022,-1.383022,-.321394,0.0*
1,1,.1524,-1.383022,-.321394*
20,1,.1524,-1.383022,-.321394,-1.433013,-.25,0.0*
1,1,.1524,-1.433013,-.25*
20,1,.1524,-1.433013,-.25,-1.469846,-.17101,0.0*
1,1,.1524,-1.469846,-.17101*
20,1,.1524,-1.469846,-.17101,-1.492404,-.086824,0.0*
1,1,.1524,-1.492404,-.086824*
20,1,.1524,-1.492404,-.086824,-1.5,0.0,0.0*
1,1,.1524,-1.5,0.0*
20,1,.1524,-1.5,0.0,-1.492404,.086824,0.0*
1,1,.1524,-1.492404,.086824*
20,1,.1524,-1.492404,.086824,-1.469846,.17101,0.0*
1,1,.1524,-1.469846,.17101*
20,1,.1524,-1.469846,.17101,-1.433013,.25,0.0*
1,1,.1524,-1.433013,.25*
20,1,.1524,-1.433013,.25,-1.383022,.321394,0.0*
1,1,.1524,-1.383022,.321394*
20,1,.1524,-1.383022,.321394,-1.321394,.383022,0.0*
1,1,.1524,-1.321394,.383022*
20,1,.1524,-1.321394,.383022,-1.25,.433013,0.0*
1,1,.1524,-1.25,.433013*
20,1,.1524,-1.25,.433013,-1.17101,.469846,0.0*
1,1,.1524,-1.17101,.469846*
20,1,.1524,-1.17101,.469846,-1.086824,.492404,0.0*
1,1,.1524,-1.086824,.492404*
20,1,.1524,-1.086824,.492404,-1.,.5,0.0*
1,1,.1524,-1.,.5*
1,1,.1524,-.25,-.25*
20,1,.1524,-.25,-.25,-.3167,-.2417,0.0*
1,1,.1524,-.3167,-.2417*
20,1,.1524,-.3167,-.2417,-.375,-.2083,0.0*
1,1,.1524,-.375,-.2083*
20,1,.1524,-.375,-.2083,-.425,-.1583,0.0*
1,1,.1524,-.425,-.1583*
20,1,.1524,-.425,-.1583,-.4583,-.1,0.0*
1,1,.1524,-.4583,-.1*
20,1,.1524,-.4583,-.1,-.475,-.0333,0.0*
1,1,.1524,-.475,-.0333*
20,1,.1524,-.475,-.0333,-.475,.0333,0.0*
1,1,.1524,-.475,.0333*
20,1,.1524,-.475,.0333,-.4583,.1,0.0*
1,1,.1524,-.4583,.1*
20,1,.1524,-.4583,.1,-.425,.1583,0.0*
1,1,.1524,-.425,.1583*
20,1,.1524,-.425,.1583,-.375,.2083,0.0*
1,1,.1524,-.375,.2083*
20,1,.1524,-.375,.2083,-.3167,.2417,0.0*
1,1,.1524,-.3167,.2417*
20,1,.1524,-.3167,.2417,-.25,.25,0.0*
1,1,.1524,-.25,.25*
20,1,.1524,-.25,.25,-.1833,.2417,0.0*
1,1,.1524,-.1833,.2417*
20,1,.1524,-.1833,.2417,-.125,.2083,0.0*
1,1,.1524,-.125,.2083*
20,1,.1524,-.125,.2083,-.075,.1583,0.0*
1,1,.1524,-.075,.1583*
20,1,.1524,-.075,.1583,-.0417,.1,0.0*
1,1,.1524,-.0417,.1*
20,1,.1524,-.0417,.1,-.025,.0333,0.0*
1,1,.1524,-.025,.0333*
20,1,.1524,-.025,.0333,-.025,-.0333,0.0*
1,1,.1524,-.025,-.0333*
20,1,.1524,-.025,-.0333,-.0417,-.1,0.0*
1,1,.1524,-.0417,-.1*
20,1,.1524,-.0417,-.1,-.075,-.1583,0.0*
1,1,.1524,-.075,-.1583*
20,1,.1524,-.075,-.1583,-.125,-.2083,0.0*
1,1,.1524,-.125,-.2083*
20,1,.1524,-.125,-.2083,-.1833,-.2417,0.0*
1,1,.1524,-.1833,-.2417*
20,1,.1524,-.1833,-.2417,-.25,-.25,0.0*
1,1,.1524,-.25,-.25*
1,1,.1524,.3168,.0167*
20,1,.1524,.3168,.0167,.3501,.0417,0.0*
1,1,.1524,.3501,.0417*
20,1,.1524,.3501,.0417,.3751,.0833,0.0*
1,1,.1524,.3751,.0833*
20,1,.1524,.3751,.0833,.3918,.1417,0.0*
1,1,.1524,.3918,.1417*
20,1,.1524,.3918,.1417,.3751,.1917,0.0*
1,1,.1524,.3751,.1917*
20,1,.1524,.3751,.1917,.3418,.225,0.0*
1,1,.1524,.3418,.225*
20,1,.1524,.3418,.225,.2834,.25,0.0*
1,1,.1524,.2834,.25*
20,1,.1524,.2834,.25,.0584,.25,0.0*
1,1,.1524,.0584,.25*
20,1,.1524,.0584,.25,.0584,-.25,0.0*
1,1,.1524,.0584,-.25*
20,1,.1524,.0584,-.25,.3334,-.25,0.0*
1,1,.1524,.3334,-.25*
20,1,.1524,.3334,-.25,.3918,-.2167,0.0*
1,1,.1524,.3918,-.2167*
20,1,.1524,.3918,-.2167,.4251,-.1667,0.0*
1,1,.1524,.4251,-.1667*
20,1,.1524,.4251,-.1667,.4418,-.1083,0.0*
1,1,.1524,.4418,-.1083*
20,1,.1524,.4418,-.1083,.4251,-.05,0.0*
1,1,.1524,.4251,-.05*
20,1,.1524,.4251,-.05,.3751,0.0,0.0*
1,1,.1524,.3751,0.0*
20,1,.1524,.3751,0.0,.3168,.0167,0.0*
1,1,.1524,.3168,.0167*
20,1,.1524,.3168,.0167,.0584,.0167,0.0*
1,1,.1524,.0584,.0167*
%
%ADD16MACRO16*%
%AMMACRO10*
1,1,.1524,-1.1625,.3875*
20,1,.1524,-1.1625,.3875,-1.144839,.589366,0.0*
1,1,.1524,-1.144839,.589366*
20,1,.1524,-1.144839,.589366,-1.092393,.785098,0.0*
1,1,.1524,-1.092393,.785098*
20,1,.1524,-1.092393,.785098,-1.006755,.96875,0.0*
1,1,.1524,-1.006755,.96875*
20,1,.1524,-1.006755,.96875,-.890527,1.134741,0.0*
1,1,.1524,-.890527,1.134741*
20,1,.1524,-.890527,1.134741,-.747241,1.278027,0.0*
1,1,.1524,-.747241,1.278027*
20,1,.1524,-.747241,1.278027,-.58125,1.394255,0.0*
1,1,.1524,-.58125,1.394255*
20,1,.1524,-.58125,1.394255,-.397598,1.479893,0.0*
1,1,.1524,-.397598,1.479893*
20,1,.1524,-.397598,1.479893,-.201866,1.532339,0.0*
1,1,.1524,-.201866,1.532339*
20,1,.1524,-.201866,1.532339,0.0,1.55,0.0*
1,1,.1524,0.0,1.55*
20,1,.1524,0.0,1.55,.201866,1.532339,0.0*
1,1,.1524,.201866,1.532339*
20,1,.1524,.201866,1.532339,.397598,1.479893,0.0*
1,1,.1524,.397598,1.479893*
20,1,.1524,.397598,1.479893,.58125,1.394255,0.0*
1,1,.1524,.58125,1.394255*
20,1,.1524,.58125,1.394255,.747241,1.278027,0.0*
1,1,.1524,.747241,1.278027*
20,1,.1524,.747241,1.278027,.890527,1.134741,0.0*
1,1,.1524,.890527,1.134741*
20,1,.1524,.890527,1.134741,1.006755,.96875,0.0*
1,1,.1524,1.006755,.96875*
20,1,.1524,1.006755,.96875,1.092393,.785098,0.0*
1,1,.1524,1.092393,.785098*
20,1,.1524,1.092393,.785098,1.144839,.589366,0.0*
1,1,.1524,1.144839,.589366*
20,1,.1524,1.144839,.589366,1.1625,.3875,0.0*
1,1,.1524,1.1625,.3875*
20,1,.1524,1.1625,.3875,1.1625,-.3875,0.0*
1,1,.1524,1.1625,-.3875*
20,1,.1524,1.1625,-.3875,1.144839,-.589366,0.0*
1,1,.1524,1.144839,-.589366*
20,1,.1524,1.144839,-.589366,1.092393,-.785098,0.0*
1,1,.1524,1.092393,-.785098*
20,1,.1524,1.092393,-.785098,1.006755,-.96875,0.0*
1,1,.1524,1.006755,-.96875*
20,1,.1524,1.006755,-.96875,.890527,-1.134741,0.0*
1,1,.1524,.890527,-1.134741*
20,1,.1524,.890527,-1.134741,.747241,-1.278027,0.0*
1,1,.1524,.747241,-1.278027*
20,1,.1524,.747241,-1.278027,.58125,-1.394255,0.0*
1,1,.1524,.58125,-1.394255*
20,1,.1524,.58125,-1.394255,.397598,-1.479893,0.0*
1,1,.1524,.397598,-1.479893*
20,1,.1524,.397598,-1.479893,.201866,-1.532339,0.0*
1,1,.1524,.201866,-1.532339*
20,1,.1524,.201866,-1.532339,0.0,-1.55,0.0*
1,1,.1524,0.0,-1.55*
20,1,.1524,0.0,-1.55,-.201866,-1.532339,0.0*
1,1,.1524,-.201866,-1.532339*
20,1,.1524,-.201866,-1.532339,-.397598,-1.479893,0.0*
1,1,.1524,-.397598,-1.479893*
20,1,.1524,-.397598,-1.479893,-.58125,-1.394255,0.0*
1,1,.1524,-.58125,-1.394255*
20,1,.1524,-.58125,-1.394255,-.747241,-1.278027,0.0*
1,1,.1524,-.747241,-1.278027*
20,1,.1524,-.747241,-1.278027,-.890527,-1.134741,0.0*
1,1,.1524,-.890527,-1.134741*
20,1,.1524,-.890527,-1.134741,-1.006755,-.96875,0.0*
1,1,.1524,-1.006755,-.96875*
20,1,.1524,-1.006755,-.96875,-1.092393,-.785098,0.0*
1,1,.1524,-1.092393,-.785098*
20,1,.1524,-1.092393,-.785098,-1.144839,-.589366,0.0*
1,1,.1524,-1.144839,-.589366*
20,1,.1524,-1.144839,-.589366,-1.1625,-.3875,0.0*
1,1,.1524,-1.1625,-.3875*
20,1,.1524,-1.1625,-.3875,-1.1625,.3875,0.0*
1,1,.1524,-1.1625,.3875*
%
%ADD10MACRO10*%
%AMMACRO19*
1,1,.1524,-.225,.675*
20,1,.1524,-.225,.675,.225,.675,0.0*
1,1,.1524,.225,.675*
20,1,.1524,.225,.675,.342213,.664745,0.0*
1,1,.1524,.342213,.664745*
20,1,.1524,.342213,.664745,.455864,.634293,0.0*
1,1,.1524,.455864,.634293*
20,1,.1524,.455864,.634293,.5625,.584567,0.0*
1,1,.1524,.5625,.584567*
20,1,.1524,.5625,.584567,.658882,.51708,0.0*
1,1,.1524,.658882,.51708*
20,1,.1524,.658882,.51708,.74208,.433882,0.0*
1,1,.1524,.74208,.433882*
20,1,.1524,.74208,.433882,.809567,.3375,0.0*
1,1,.1524,.809567,.3375*
20,1,.1524,.809567,.3375,.859293,.230864,0.0*
1,1,.1524,.859293,.230864*
20,1,.1524,.859293,.230864,.889745,.117213,0.0*
1,1,.1524,.889745,.117213*
20,1,.1524,.889745,.117213,.9,0.0,0.0*
1,1,.1524,.9,0.0*
20,1,.1524,.9,0.0,.889745,-.117213,0.0*
1,1,.1524,.889745,-.117213*
20,1,.1524,.889745,-.117213,.859293,-.230864,0.0*
1,1,.1524,.859293,-.230864*
20,1,.1524,.859293,-.230864,.809567,-.3375,0.0*
1,1,.1524,.809567,-.3375*
20,1,.1524,.809567,-.3375,.74208,-.433882,0.0*
1,1,.1524,.74208,-.433882*
20,1,.1524,.74208,-.433882,.658882,-.51708,0.0*
1,1,.1524,.658882,-.51708*
20,1,.1524,.658882,-.51708,.5625,-.584567,0.0*
1,1,.1524,.5625,-.584567*
20,1,.1524,.5625,-.584567,.455864,-.634293,0.0*
1,1,.1524,.455864,-.634293*
20,1,.1524,.455864,-.634293,.342213,-.664745,0.0*
1,1,.1524,.342213,-.664745*
20,1,.1524,.342213,-.664745,.225,-.675,0.0*
1,1,.1524,.225,-.675*
20,1,.1524,.225,-.675,-.225,-.675,0.0*
1,1,.1524,-.225,-.675*
20,1,.1524,-.225,-.675,-.342213,-.664745,0.0*
1,1,.1524,-.342213,-.664745*
20,1,.1524,-.342213,-.664745,-.455864,-.634293,0.0*
1,1,.1524,-.455864,-.634293*
20,1,.1524,-.455864,-.634293,-.5625,-.584567,0.0*
1,1,.1524,-.5625,-.584567*
20,1,.1524,-.5625,-.584567,-.658882,-.51708,0.0*
1,1,.1524,-.658882,-.51708*
20,1,.1524,-.658882,-.51708,-.74208,-.433882,0.0*
1,1,.1524,-.74208,-.433882*
20,1,.1524,-.74208,-.433882,-.809567,-.3375,0.0*
1,1,.1524,-.809567,-.3375*
20,1,.1524,-.809567,-.3375,-.859293,-.230864,0.0*
1,1,.1524,-.859293,-.230864*
20,1,.1524,-.859293,-.230864,-.889745,-.117213,0.0*
1,1,.1524,-.889745,-.117213*
20,1,.1524,-.889745,-.117213,-.9,0.0,0.0*
1,1,.1524,-.9,0.0*
20,1,.1524,-.9,0.0,-.889745,.117213,0.0*
1,1,.1524,-.889745,.117213*
20,1,.1524,-.889745,.117213,-.859293,.230864,0.0*
1,1,.1524,-.859293,.230864*
20,1,.1524,-.859293,.230864,-.809567,.3375,0.0*
1,1,.1524,-.809567,.3375*
20,1,.1524,-.809567,.3375,-.74208,.433882,0.0*
1,1,.1524,-.74208,.433882*
20,1,.1524,-.74208,.433882,-.658882,.51708,0.0*
1,1,.1524,-.658882,.51708*
20,1,.1524,-.658882,.51708,-.5625,.584567,0.0*
1,1,.1524,-.5625,.584567*
20,1,.1524,-.5625,.584567,-.455864,.634293,0.0*
1,1,.1524,-.455864,.634293*
20,1,.1524,-.455864,.634293,-.342213,.664745,0.0*
1,1,.1524,-.342213,.664745*
20,1,.1524,-.342213,.664745,-.225,.675,0.0*
1,1,.1524,-.225,.675*
%
%ADD19MACRO19*%
%AMMACRO15*
1,1,.1524,0.0,.85*
20,1,.1524,0.0,.85,.85,-.85,0.0*
1,1,.1524,.85,-.85*
20,1,.1524,.85,-.85,-.85,-.85,0.0*
1,1,.1524,-.85,-.85*
20,1,.1524,-.85,-.85,0.0,.85,0.0*
1,1,.1524,0.0,.85*
%
%ADD15MACRO15*%
%AMMACRO18*
1,1,.1524,.45,0.0*
20,1,.1524,.45,0.0,.225,.389711,0.0*
1,1,.1524,.225,.389711*
20,1,.1524,.225,.389711,-.225,.389711,0.0*
1,1,.1524,-.225,.389711*
20,1,.1524,-.225,.389711,-.45,0.0,0.0*
1,1,.1524,-.45,0.0*
20,1,.1524,-.45,0.0,-.225,-.389711,0.0*
1,1,.1524,-.225,-.389711*
20,1,.1524,-.225,-.389711,.225,-.389711,0.0*
1,1,.1524,.225,-.389711*
20,1,.1524,.225,-.389711,.45,0.0,0.0*
1,1,.1524,.45,0.0*
%
%ADD18MACRO18*%
%ADD21C,.1524*%
G75*
%LPD*%
G75*
G54D10*
X330000Y330000D03*
Y9670000D03*
X9670000Y330000D03*
Y9670000D03*
X12291730Y2357500D03*
G54D11*
X127680Y817600D03*
Y1117600D03*
Y1407600D03*
Y1707600D03*
X237680Y4897600D03*
Y5197600D03*
X268930Y7124180D03*
Y7724180D03*
Y7424180D03*
Y8024180D03*
Y8624180D03*
Y8324180D03*
Y8924180D03*
X707680Y2507600D03*
Y2807600D03*
Y3677600D03*
Y3977600D03*
Y4387600D03*
Y4687600D03*
X463800Y5113800D03*
X657680Y5507600D03*
Y5807600D03*
X568930Y7124180D03*
Y7724180D03*
Y7424180D03*
Y8024180D03*
Y8624180D03*
Y8324180D03*
Y8924180D03*
X827680Y1337600D03*
Y1637600D03*
X806200Y1903800D03*
X1070000Y3680000D03*
X1170000D03*
X1250000D03*
X1080000Y5800000D03*
X816200Y6436200D03*
X940000Y6750000D03*
X1080000Y6460000D03*
X1258820Y9713660D03*
Y9413660D03*
X1335000Y1350000D03*
X1670000Y1970000D03*
Y1870000D03*
Y2070000D03*
X1770000Y1970000D03*
Y1870000D03*
Y2070000D03*
X1330000Y3681670D03*
X1558820Y9713660D03*
Y9413660D03*
X2182380Y272210D03*
X2237680Y3757600D03*
Y3457600D03*
Y4057600D03*
Y4657600D03*
Y4357600D03*
Y4957600D03*
X2010960Y7212650D03*
Y7512650D03*
Y7812650D03*
X2158820Y9713660D03*
X1858820D03*
X2158820Y9413660D03*
X1858820D03*
X2782380Y272210D03*
X2482380D03*
X2692530Y1600830D03*
X2392530D03*
X2692530Y1300830D03*
X2392530D03*
X2692530Y1900830D03*
X2392530D03*
X2537680Y3757600D03*
Y3457600D03*
Y4057600D03*
Y4657600D03*
Y4357600D03*
Y4957600D03*
X2659340Y5614400D03*
X2359340D03*
X2758820Y9713660D03*
X2458820D03*
X2758820Y9413660D03*
X2458820D03*
X3082380Y272210D03*
X3195780Y2517480D03*
X2895780D03*
X3137680Y3757600D03*
X2837680D03*
X3137680Y3457600D03*
X2837680D03*
X3137680Y4057600D03*
X2837680D03*
X3137680Y4657600D03*
X2837680D03*
X3137680Y4357600D03*
X2837680D03*
X3137680Y4957600D03*
X2837680D03*
X3259340Y5614400D03*
X2959340D03*
X3022960Y7251340D03*
Y7551340D03*
X2960000Y8510000D03*
X2840000D03*
X3070000D03*
X2840000Y8640000D03*
X3160000Y8960000D03*
X3040000D03*
X3270000D03*
X2840000Y8750000D03*
Y8870000D03*
X3682380Y272210D03*
X3382380D03*
X3776450Y1755680D03*
X3476450D03*
X3776450Y1455680D03*
X3476450D03*
X3495780Y2517480D03*
X3737680Y3757600D03*
X3437680D03*
X3737680Y3457600D03*
X3437680D03*
X3737680Y4057600D03*
X3437680D03*
X3737680Y4657600D03*
X3437680D03*
X3737680Y4357600D03*
X3437680D03*
X3737680Y4957600D03*
X3437680D03*
X3559340Y5614400D03*
X3622960Y7251340D03*
X3322960D03*
X3622960Y7551340D03*
X3322960D03*
X3580000Y9030000D03*
X3470000D03*
X3580000Y8930000D03*
X3470000D03*
X3580000Y8820000D03*
X3470000D03*
X3708820Y9703660D03*
X3982380Y272210D03*
X4076450Y1755680D03*
Y1455680D03*
X4095780Y2517480D03*
X3795780D03*
X4037680Y3757600D03*
Y3457600D03*
Y4057600D03*
Y4657600D03*
Y4357600D03*
Y4957600D03*
X3859340Y5614400D03*
X3922960Y7251340D03*
Y7551340D03*
X3940000Y8230000D03*
X4050000D03*
X4170000D03*
X4100000Y9030000D03*
X3980000D03*
X4210000D03*
X4100000Y8890000D03*
X3980000D03*
X4210000D03*
X4008820Y9703660D03*
X4376450Y1755680D03*
Y1455680D03*
X4695780Y2517480D03*
X4395780D03*
X4280000Y8230000D03*
X4700000Y8480000D03*
X4540000Y9200000D03*
X4440000D03*
X4540000Y9100000D03*
X4440000D03*
X4540000Y9000000D03*
X4440000D03*
X4308820Y9703660D03*
X4608820D03*
X4440000Y9300000D03*
X4540000D03*
X4820000Y3230000D03*
Y2990000D03*
Y3063660D03*
X4800000Y5270000D03*
Y5370000D03*
X4990000Y5780000D03*
X5142410Y7700660D03*
X4842410D03*
X5142410Y7400660D03*
X4842410D03*
X4880000Y8480000D03*
X4790000D03*
X4850000Y8960000D03*
X4940000D03*
X5030000D03*
X5180000Y8990000D03*
X5270000D03*
Y8800000D03*
Y8900000D03*
X4908820Y9703660D03*
X5208820D03*
X5489450Y616460D03*
Y316460D03*
X5589000Y1494400D03*
X5330000Y1720000D03*
X5716210Y2028070D03*
Y2258070D03*
X5300000Y2030000D03*
X5530000Y2690000D03*
X5310000Y2310000D03*
X5720000Y2910000D03*
X5308330Y3181670D03*
Y3281670D03*
X5610000Y3780000D03*
X5310000Y3781670D03*
Y3681670D03*
X5370000Y4090000D03*
X5731680Y4231680D03*
X5310000Y3881670D03*
X5610000Y3920000D03*
X5370000Y4280000D03*
Y4470000D03*
X5616640Y5636520D03*
Y5936520D03*
X5442410Y7700660D03*
Y7400660D03*
X5550000Y8190000D03*
X5360000Y8990000D03*
Y8800000D03*
Y8900000D03*
X5750000Y9240000D03*
Y9140000D03*
Y9340000D03*
X6089450Y616460D03*
X5789450D03*
X6089450Y316460D03*
X5789450D03*
X6189000Y1494400D03*
X5889000D03*
X6016210Y2028070D03*
Y2258070D03*
X5866210Y2508070D03*
X6166210D03*
X5820000Y2990000D03*
X5816900Y3113100D03*
X6211200Y3645000D03*
X5820000Y3530000D03*
X6180000Y4420000D03*
X6053560Y5017150D03*
X6216640Y5636520D03*
X5916640D03*
X6216640Y5936520D03*
X5916640D03*
X5950000Y9240000D03*
X5850000D03*
X5950000Y9140000D03*
X5850000D03*
Y9340000D03*
X5950000D03*
X6689450Y616460D03*
X6389450D03*
X6689450Y316460D03*
X6389450D03*
X6489000Y1494400D03*
X6616210Y2028070D03*
X6316210D03*
Y2258070D03*
X6616210D03*
X6466210Y2508070D03*
X6620000Y2810000D03*
X6480000D03*
X6620000Y3190000D03*
X6665000Y3620000D03*
X6590000Y3690000D03*
X6730000D03*
Y3550000D03*
X6590000D03*
X6340000Y4450000D03*
X6480000D03*
X6653560Y5017150D03*
X6353560D03*
X6516640Y5636520D03*
Y5936520D03*
X6740000Y7150000D03*
X6291330Y7689600D03*
Y7389600D03*
X6740000Y7350000D03*
Y7490000D03*
X6540000D03*
X6291330Y7989600D03*
X6540000Y7780000D03*
X6700000Y7950000D03*
X6291330Y8589600D03*
Y8289600D03*
X6607920Y9586470D03*
X6307920D03*
X6607920Y9286470D03*
X6307920D03*
X6989450Y616460D03*
Y316460D03*
X7089000Y1494400D03*
X6789000D03*
X6916210Y2028070D03*
Y2258070D03*
X6900000Y2810000D03*
X7040000D03*
X6760000D03*
X7120000Y3290000D03*
X7140000Y3620000D03*
X6960000Y3820000D03*
X6830000Y4000000D03*
X7123560Y4307150D03*
X7253560Y5017150D03*
X6953560D03*
X7116640Y5636520D03*
X6816640D03*
X7116640Y5936520D03*
X6816640D03*
X7207920Y9586470D03*
X6907920D03*
X7207920Y9286470D03*
X6907920D03*
X7589450Y616460D03*
X7289450D03*
X7589450Y316460D03*
X7289450D03*
X7670000Y1760000D03*
X7680000Y1500000D03*
X7480000Y2140000D03*
X7670000Y2380000D03*
X7560000Y2590000D03*
X7700000Y3230000D03*
X7510000Y3190000D03*
X7690000Y3410000D03*
X7510000Y3620000D03*
X7690000Y3830000D03*
X7490000Y4020000D03*
X7423560Y4307150D03*
X7713560D03*
X7553560Y5017150D03*
X7716640Y5636520D03*
X7416640D03*
X7716640Y5936520D03*
X7416640D03*
X7290000Y7150000D03*
X7680000Y7130000D03*
X7480000Y6860000D03*
Y7050000D03*
Y6960000D03*
Y6760000D03*
X7290000Y7580000D03*
Y7350000D03*
Y7790000D03*
Y8160000D03*
X7280000Y8610000D03*
Y8760000D03*
X7507920Y9586470D03*
Y9286470D03*
X8189450Y616460D03*
X7889450D03*
X8189450Y316460D03*
X7889450D03*
X8140000Y970000D03*
Y1120000D03*
X7920000Y1600000D03*
X8090000Y1730000D03*
X7890000Y2230000D03*
X8090000Y2130000D03*
Y2400000D03*
Y2570000D03*
X7900000Y2780000D03*
X7770000Y2590000D03*
X8090000Y3190000D03*
Y2890000D03*
X7880000Y3100000D03*
X8090000Y3360000D03*
Y3720000D03*
X8020000Y3950000D03*
X8050000Y4670000D03*
X8013560Y4307150D03*
X8050000Y4820000D03*
X8016640Y5636520D03*
Y5936520D03*
X8000000Y7130000D03*
X8160000D03*
X8080000Y6760000D03*
X8180000Y8390000D03*
X8000000D03*
X7800000Y8610000D03*
X8000000Y8760000D03*
X8180000D03*
X7880000D03*
X8107920Y9586470D03*
X7807920D03*
X8107920Y9286470D03*
X7807920D03*
X8316640Y5636520D03*
Y5936520D03*
X8320000Y7130000D03*
X8480000D03*
X8560000Y6860000D03*
X8630000Y7050000D03*
X8400000Y6960000D03*
X8730000Y7400000D03*
X8613480Y8696640D03*
Y8516640D03*
X8343480Y8576640D03*
X8340000Y8390000D03*
X8720000Y8340000D03*
X8613480Y8886640D03*
Y9076640D03*
X8340000Y8760000D03*
X8707920Y9586470D03*
X8407920D03*
X8707920Y9286470D03*
X8407920D03*
X9153560Y4867150D03*
X8863560D03*
X9040000Y7120000D03*
X8780000Y6800000D03*
X9190000D03*
X9040000Y7410000D03*
X8913480Y8696640D03*
Y8516640D03*
X9063480Y8696640D03*
X8763480D03*
X9063480Y8516640D03*
X8763480D03*
X9213480Y8696640D03*
X8820000Y8340000D03*
X8920000D03*
X9020000D03*
X9213480Y8886640D03*
X8763480D03*
X9063480D03*
X8913480D03*
Y9076640D03*
X9063480D03*
X8763480D03*
X9007920Y9586470D03*
Y9286470D03*
X9453560Y4867150D03*
X9710000Y4870000D03*
X9557000Y6033000D03*
X9330000Y7120000D03*
X9510000Y7960000D03*
X9610000D03*
X9710000D03*
Y7860000D03*
X9610000D03*
X9510000D03*
X9363480Y8696640D03*
Y8886640D03*
X9811000Y6041000D03*
X9886640Y6686520D03*
Y6986520D03*
Y7986520D03*
Y8286520D03*
X12291730Y6802500D03*
G54D20*
X9266000Y8535870D03*
Y9043870D03*
X9518400Y8791470D03*
X9774000Y8535870D03*
Y9043870D03*
X12291730Y4262500D03*
G54D21*
G01X-1010020Y4729990D02*
Y4890010D01*
X-1033900Y4858010D01*
G01Y4729990D02*
X-986150D01*
G01X-850000Y4890010D02*
X-865920Y4884680D01*
X-877850Y4871340D01*
X-885820Y4855340D01*
X-891780Y4834000D01*
X-893770Y4810000D01*
X-891780Y4785990D01*
X-885820Y4764660D01*
X-877850Y4748660D01*
X-865920Y4735320D01*
X-850000Y4729990D01*
X-834080Y4735320D01*
X-822150Y4748660D01*
X-814180Y4764660D01*
X-808220Y4785990D01*
X-806230Y4810000D01*
X-808220Y4834000D01*
X-814180Y4855340D01*
X-822150Y4871340D01*
X-834080Y4884680D01*
X-850000Y4890010D01*
G01X-689980D02*
X-705900Y4884680D01*
X-717830Y4871340D01*
X-725800Y4855340D01*
X-731760Y4834000D01*
X-733750Y4810000D01*
X-731760Y4785990D01*
X-725800Y4764660D01*
X-717830Y4748660D01*
X-705900Y4735320D01*
X-689980Y4729990D01*
X-674060Y4735320D01*
X-662130Y4748660D01*
X-654160Y4764660D01*
X-648200Y4785990D01*
X-646210Y4810000D01*
X-648200Y4834000D01*
X-654160Y4855340D01*
X-662130Y4871340D01*
X-674060Y4884680D01*
X-689980Y4890010D01*
G01X4939980Y-710010D02*
Y-549990D01*
X4916100Y-581990D01*
G01Y-710010D02*
X4963850D01*
G01X5100000Y-549990D02*
X5084080Y-555320D01*
X5072150Y-568660D01*
X5064180Y-584660D01*
X5058220Y-606000D01*
X5056230Y-630000D01*
X5058220Y-654010D01*
X5064180Y-675340D01*
X5072150Y-691340D01*
X5084080Y-704680D01*
X5100000Y-710010D01*
X5115920Y-704680D01*
X5127850Y-691340D01*
X5135820Y-675340D01*
X5141780Y-654010D01*
X5143770Y-630000D01*
X5141780Y-606000D01*
X5135820Y-584660D01*
X5127850Y-568660D01*
X5115920Y-555320D01*
X5100000Y-549990D01*
G01X5260020D02*
X5244100Y-555320D01*
X5232170Y-568660D01*
X5224200Y-584660D01*
X5218240Y-606000D01*
X5216250Y-630000D01*
X5218240Y-654010D01*
X5224200Y-675340D01*
X5232170Y-691340D01*
X5244100Y-704680D01*
X5260020Y-710010D01*
X5275940Y-704680D01*
X5287870Y-691340D01*
X5295840Y-675340D01*
X5301800Y-654010D01*
X5303790Y-630000D01*
X5301800Y-606000D01*
X5295840Y-584660D01*
X5287870Y-568660D01*
X5275940Y-555320D01*
X5260020Y-549990D01*
G01X-250000Y0D02*
X-1100000D01*
G01X-850000Y4602360D02*
Y0D01*
G01X-912500Y400000D02*
X-850000Y0D01*
X-787500Y400000D01*
X-912500D01*
G01X-850000Y5017640D02*
Y10000000D01*
G01X-787500Y9600000D02*
X-850000Y10000000D01*
X-912500Y9600000D01*
X-787500D01*
G01X780000Y10000000D02*
X-1100000D01*
G01X0Y-250000D02*
Y-880000D01*
G01X4752660Y-630000D02*
X0D01*
G01X400000Y-567500D02*
X0Y-630000D01*
X400000Y-692500D01*
Y-567500D01*
G01X5447340Y-630000D02*
X10000000D01*
G01X9600000Y-692500D02*
X10000000Y-630000D01*
X9600000Y-567500D01*
Y-692500D01*
G01X10000000Y240000D02*
Y-880000D01*
G01X11150000Y135000D02*
Y9040000D01*
X26976740D01*
Y135000D01*
X11150000D01*
G01Y770000D02*
X26976740D01*
G01X11150000Y1405000D02*
X26976740D01*
G01X11150000Y2040000D02*
X26976740D01*
G01X11150000Y2675000D02*
X26976740D01*
G01X11150000Y3310000D02*
X26976740D01*
G01X11150000Y3945000D02*
X26976740D01*
G01X11150000Y4580000D02*
X26976740D01*
G01X11150000Y5215000D02*
X26976740D01*
G01X11150000Y5850000D02*
X26976740D01*
G01X11150000Y6485000D02*
X26976740D01*
G01X11150000Y7120000D02*
X26976740D01*
G01X11150000Y7755000D02*
X26976740D01*
G01X11150000Y8390000D02*
X26976740D01*
G01X11429520Y7278750D02*
Y7596250D01*
X11579140D01*
G01X11524010Y7442800D02*
X11429520D01*
G01X11772050Y7596250D02*
X11866530D01*
G01X11819290D02*
Y7278750D01*
G01X11772050D02*
X11866530D01*
G01X12157870Y7437500D02*
X12236620D01*
Y7342250D01*
X12212990Y7310490D01*
X12185430Y7289330D01*
X12146060Y7278750D01*
X12106690Y7289330D01*
X12079130Y7310490D01*
X12055510Y7342250D01*
X12039760Y7379290D01*
X12031880Y7421620D01*
Y7458670D01*
X12039760Y7490410D01*
X12055510Y7527460D01*
X12079130Y7559210D01*
X12102750Y7580370D01*
X12134250Y7596250D01*
X12161810D01*
X12193300Y7585670D01*
X12216930Y7564500D01*
G01X12362600Y7596250D02*
Y7368710D01*
X12378340Y7321070D01*
X12409840Y7289330D01*
X12449210Y7278750D01*
X12488580Y7289330D01*
X12520080Y7321070D01*
X12535820Y7368710D01*
Y7596250D01*
G01X12685430Y7278750D02*
Y7596250D01*
X12783850D01*
X12815350Y7580370D01*
X12835040Y7559210D01*
X12842910Y7516870D01*
X12835040Y7474540D01*
X12811410Y7448090D01*
X12783850Y7432200D01*
X12685430D01*
G01X12783850D02*
X12842910Y7278750D01*
G01X13157870D02*
X13000390D01*
Y7596250D01*
X13157870D01*
G01X13094880Y7442800D02*
X13000390D01*
G01X13433460Y7755000D02*
Y135000D01*
G01X14027940Y7278750D02*
Y7596250D01*
X14177560D01*
G01X14122430Y7442800D02*
X14027940D01*
G01X14370470Y7596250D02*
X14464950D01*
G01X14417710D02*
Y7278750D01*
G01X14370470D02*
X14464950D01*
G01X14642120D02*
Y7596250D01*
X14823220Y7278750D01*
Y7596250D01*
G01X15000390D02*
X15094870D01*
G01X15047630D02*
Y7278750D01*
G01X15000390D02*
X15094870D01*
G01X15279910Y7321070D02*
X15311410Y7294620D01*
X15346840Y7278750D01*
X15378340D01*
X15409830Y7294620D01*
X15433460Y7321070D01*
X15445270Y7358130D01*
X15437400Y7395160D01*
X15417710Y7426910D01*
X15382270Y7448090D01*
X15335030Y7458670D01*
X15307470Y7479830D01*
X15295660Y7516870D01*
X15303540Y7553920D01*
X15323220Y7580370D01*
X15350780Y7596250D01*
X15378340D01*
X15405900Y7585670D01*
X15429520Y7559210D01*
G01X15594870Y7278750D02*
Y7596250D01*
G01X15760230D02*
Y7278750D01*
G01Y7437500D02*
X15594870D01*
G01X16071250Y7278750D02*
X15913770D01*
Y7596250D01*
X16071250D01*
G01X16008260Y7442800D02*
X15913770D01*
G01X16220860Y7278750D02*
Y7596250D01*
X16299590D01*
X16331090Y7580370D01*
X16354710Y7559210D01*
X16374400Y7527460D01*
X16390150Y7490410D01*
X16394080Y7437500D01*
X16390150Y7384580D01*
X16374400Y7347540D01*
X16354710Y7315780D01*
X16331090Y7294620D01*
X16299590Y7278750D01*
X16220860D01*
G01X16504320Y7172920D02*
X16740540D01*
G01X16854710Y7321070D02*
X16886210Y7294620D01*
X16921640Y7278750D01*
X16953140D01*
X16984630Y7294620D01*
X17008260Y7321070D01*
X17020070Y7358130D01*
X17012200Y7395160D01*
X16992510Y7426910D01*
X16957070Y7448090D01*
X16909830Y7458670D01*
X16882270Y7479830D01*
X16870460Y7516870D01*
X16878340Y7553920D01*
X16898020Y7580370D01*
X16925580Y7596250D01*
X16953140D01*
X16980700Y7585670D01*
X17004320Y7559210D01*
G01X17205110Y7596250D02*
X17299590D01*
G01X17252350D02*
Y7278750D01*
G01X17205110D02*
X17299590D01*
G01X17492500Y7596250D02*
X17642120D01*
X17492500Y7278750D01*
X17642120D01*
G01X17961010D02*
X17803530D01*
Y7596250D01*
X17961010D01*
G01X17898020Y7442800D02*
X17803530D01*
G01X14961020Y357250D02*
X14984630Y320200D01*
X15016130Y299040D01*
X15051570Y293750D01*
X15083070Y299040D01*
X15114560Y325490D01*
X15134240Y357250D01*
X15138180Y389000D01*
X15130310Y426030D01*
X15102750Y452500D01*
X15075190Y463090D01*
X15039750D01*
G01X15075190D02*
X15098810Y478960D01*
X15118500Y505410D01*
X15126370Y537160D01*
X15118500Y568920D01*
X15098810Y595370D01*
X15063380Y611250D01*
X15027950Y605960D01*
X14992510Y584790D01*
G01X15362590Y283170D02*
X15354710Y288460D01*
Y299040D01*
X15362590Y304330D01*
X15370470Y299040D01*
Y288460D01*
X15362590Y283170D01*
G01X15677550Y611250D02*
X15646050Y600670D01*
X15622430Y574210D01*
X15606680Y542460D01*
X15594870Y500120D01*
X15590940Y452500D01*
X15594870Y404870D01*
X15606680Y362540D01*
X15622430Y330780D01*
X15646050Y304330D01*
X15677550Y293750D01*
X15709040Y304330D01*
X15732670Y330780D01*
X15748420Y362540D01*
X15760230Y404870D01*
X15764160Y452500D01*
X15760230Y500120D01*
X15748420Y542460D01*
X15732670Y574210D01*
X15709040Y600670D01*
X15677550Y611250D01*
G01X15933460Y505410D02*
X16051560Y293750D01*
G01Y505410D02*
X15933460Y293750D01*
G01X16307470D02*
Y611250D01*
X16260230Y547750D01*
G01Y293750D02*
X16354710D01*
G01X16622430Y283170D02*
X16614550Y288460D01*
Y299040D01*
X16622430Y304330D01*
X16630310Y299040D01*
Y288460D01*
X16622430Y283170D01*
G01X16937390Y611250D02*
X16905890Y600670D01*
X16882270Y574210D01*
X16866520Y542460D01*
X16854710Y500120D01*
X16850780Y452500D01*
X16854710Y404870D01*
X16866520Y362540D01*
X16882270Y330780D01*
X16905890Y304330D01*
X16937390Y293750D01*
X16968880Y304330D01*
X16992510Y330780D01*
X17008260Y362540D01*
X17020070Y404870D01*
X17024000Y452500D01*
X17020070Y500120D01*
X17008260Y542460D01*
X16992510Y574210D01*
X16968880Y600670D01*
X16937390Y611250D01*
G01X14961020Y992250D02*
X14984630Y955200D01*
X15016130Y934040D01*
X15051570Y928750D01*
X15083070Y934040D01*
X15114560Y960490D01*
X15134240Y992250D01*
X15138180Y1024000D01*
X15130310Y1061030D01*
X15102750Y1087500D01*
X15075190Y1098090D01*
X15039750D01*
G01X15075190D02*
X15098810Y1113960D01*
X15118500Y1140410D01*
X15126370Y1172160D01*
X15118500Y1203920D01*
X15098810Y1230370D01*
X15063380Y1246250D01*
X15027950Y1240960D01*
X14992510Y1219790D01*
G01X15362590Y918170D02*
X15354710Y923460D01*
Y934040D01*
X15362590Y939330D01*
X15370470Y934040D01*
Y923460D01*
X15362590Y918170D01*
G01X15677550Y1246250D02*
X15646050Y1235670D01*
X15622430Y1209210D01*
X15606680Y1177460D01*
X15594870Y1135120D01*
X15590940Y1087500D01*
X15594870Y1039870D01*
X15606680Y997540D01*
X15622430Y965780D01*
X15646050Y939330D01*
X15677550Y928750D01*
X15709040Y939330D01*
X15732670Y965780D01*
X15748420Y997540D01*
X15760230Y1039870D01*
X15764160Y1087500D01*
X15760230Y1135120D01*
X15748420Y1177460D01*
X15732670Y1209210D01*
X15709040Y1235670D01*
X15677550Y1246250D01*
G01X15933460Y1140410D02*
X16051560Y928750D01*
G01Y1140410D02*
X15933460Y928750D01*
G01X16307470D02*
Y1246250D01*
X16260230Y1182750D01*
G01Y928750D02*
X16354710D01*
G01X16622430Y918170D02*
X16614550Y923460D01*
Y934040D01*
X16622430Y939330D01*
X16630310Y934040D01*
Y923460D01*
X16622430Y918170D01*
G01X16937390Y1246250D02*
X16905890Y1235670D01*
X16882270Y1209210D01*
X16866520Y1177460D01*
X16854710Y1135120D01*
X16850780Y1087500D01*
X16854710Y1039870D01*
X16866520Y997540D01*
X16882270Y965780D01*
X16905890Y939330D01*
X16937390Y928750D01*
X16968880Y939330D01*
X16992510Y965780D01*
X17008260Y997540D01*
X17020070Y1039870D01*
X17024000Y1087500D01*
X17020070Y1135120D01*
X17008260Y1177460D01*
X16992510Y1209210D01*
X16968880Y1235670D01*
X16937390Y1246250D01*
G01X15047630Y1563750D02*
Y1881250D01*
X15000390Y1817750D01*
G01Y1563750D02*
X15094870D01*
G01X15362590Y1553170D02*
X15354710Y1558460D01*
Y1569040D01*
X15362590Y1574330D01*
X15370470Y1569040D01*
Y1558460D01*
X15362590Y1553170D01*
G01X15677550Y1881250D02*
X15646050Y1870670D01*
X15622430Y1844210D01*
X15606680Y1812460D01*
X15594870Y1770120D01*
X15590940Y1722500D01*
X15594870Y1674870D01*
X15606680Y1632540D01*
X15622430Y1600780D01*
X15646050Y1574330D01*
X15677550Y1563750D01*
X15709040Y1574330D01*
X15732670Y1600780D01*
X15748420Y1632540D01*
X15760230Y1674870D01*
X15764160Y1722500D01*
X15760230Y1770120D01*
X15748420Y1812460D01*
X15732670Y1844210D01*
X15709040Y1870670D01*
X15677550Y1881250D01*
G01X15933460Y1775410D02*
X16051560Y1563750D01*
G01Y1775410D02*
X15933460Y1563750D01*
G01X16307470Y1881250D02*
X16275970Y1870670D01*
X16252350Y1844210D01*
X16236600Y1812460D01*
X16224790Y1770120D01*
X16220860Y1722500D01*
X16224790Y1674870D01*
X16236600Y1632540D01*
X16252350Y1600780D01*
X16275970Y1574330D01*
X16307470Y1563750D01*
X16338960Y1574330D01*
X16362590Y1600780D01*
X16378340Y1632540D01*
X16390150Y1674870D01*
X16394080Y1722500D01*
X16390150Y1770120D01*
X16378340Y1812460D01*
X16362590Y1844210D01*
X16338960Y1870670D01*
X16307470Y1881250D01*
G01X16622430Y1553170D02*
X16614550Y1558460D01*
Y1569040D01*
X16622430Y1574330D01*
X16630310Y1569040D01*
Y1558460D01*
X16622430Y1553170D01*
G01X16984630Y1563750D02*
Y1881250D01*
X16838960Y1653710D01*
X17035820D01*
G01X15205110Y6961250D02*
X15173610Y6950670D01*
X15149990Y6924210D01*
X15134240Y6892460D01*
X15122430Y6850120D01*
X15118500Y6802500D01*
X15122430Y6754870D01*
X15134240Y6712540D01*
X15149990Y6680780D01*
X15173610Y6654330D01*
X15205110Y6643750D01*
X15236600Y6654330D01*
X15260230Y6680780D01*
X15275980Y6712540D01*
X15287790Y6754870D01*
X15291720Y6802500D01*
X15287790Y6850120D01*
X15275980Y6892460D01*
X15260230Y6924210D01*
X15236600Y6950670D01*
X15205110Y6961250D01*
G01X15520070Y6633170D02*
X15512190Y6638460D01*
Y6649040D01*
X15520070Y6654330D01*
X15527950Y6649040D01*
Y6638460D01*
X15520070Y6633170D01*
G01X15748420Y6707250D02*
X15772030Y6670200D01*
X15803530Y6649040D01*
X15838970Y6643750D01*
X15870470Y6649040D01*
X15901960Y6675490D01*
X15921640Y6707250D01*
X15925580Y6739000D01*
X15917710Y6776030D01*
X15890150Y6802500D01*
X15862590Y6813090D01*
X15827150D01*
G01X15862590D02*
X15886210Y6828960D01*
X15905900Y6855410D01*
X15913770Y6887160D01*
X15905900Y6918920D01*
X15886210Y6945370D01*
X15850780Y6961250D01*
X15815350Y6955960D01*
X15779910Y6934790D01*
G01X16149990Y6961250D02*
X16118490Y6950670D01*
X16094870Y6924210D01*
X16079120Y6892460D01*
X16067310Y6850120D01*
X16063380Y6802500D01*
X16067310Y6754870D01*
X16079120Y6712540D01*
X16094870Y6680780D01*
X16118490Y6654330D01*
X16149990Y6643750D01*
X16181480Y6654330D01*
X16205110Y6680780D01*
X16220860Y6712540D01*
X16232670Y6754870D01*
X16236600Y6802500D01*
X16232670Y6850120D01*
X16220860Y6892460D01*
X16205110Y6924210D01*
X16181480Y6950670D01*
X16149990Y6961250D01*
G01X16512190Y6643750D02*
Y6961250D01*
X16366520Y6733710D01*
X16563380D01*
G01X16779910Y6643750D02*
X16807470Y6649040D01*
X16838960Y6664910D01*
X16858650Y6691360D01*
X16866520Y6728420D01*
X16858650Y6765450D01*
X16835030Y6797200D01*
X16799590Y6813090D01*
X16760230D01*
X16736600Y6823670D01*
X16716910Y6850120D01*
X16709040Y6887160D01*
X16720860Y6924210D01*
X16748410Y6950670D01*
X16779910Y6961250D01*
X16811400Y6950670D01*
X16838960Y6924210D01*
X16850780Y6887160D01*
X16842900Y6850120D01*
X16823220Y6823670D01*
X16799590Y6813090D01*
X16760230D01*
X16724790Y6797200D01*
X16701170Y6765450D01*
X16693300Y6728420D01*
X16701170Y6691360D01*
X16720860Y6664910D01*
X16752350Y6649040D01*
X16779910Y6643750D01*
G01X14712980Y7913750D02*
X14811410Y8231250D01*
X14909840Y7913750D01*
G01X14874400Y8024870D02*
X14748410D01*
G01X15047630Y8231250D02*
Y7913750D01*
X15205110D01*
G01X15362590Y8231250D02*
Y7913750D01*
X15520070D01*
G01X15984640Y8231250D02*
Y8003710D01*
X16000380Y7956070D01*
X16031880Y7924330D01*
X16071250Y7913750D01*
X16110620Y7924330D01*
X16142120Y7956070D01*
X16157860Y8003710D01*
Y8231250D01*
G01X16295660Y7913750D02*
Y8231250D01*
X16476760Y7913750D01*
Y8231250D01*
G01X16653930D02*
X16748410D01*
G01X16701170D02*
Y7913750D01*
G01X16653930D02*
X16748410D01*
G01X17016130Y8231250D02*
Y7913750D01*
G01X16925580Y8231250D02*
X17106680D01*
G01X17248410Y7956070D02*
X17279910Y7929620D01*
X17315340Y7913750D01*
X17346840D01*
X17378330Y7929620D01*
X17401960Y7956070D01*
X17413770Y7993130D01*
X17405900Y8030160D01*
X17386210Y8061910D01*
X17350770Y8083090D01*
X17303530Y8093670D01*
X17275970Y8114830D01*
X17264160Y8151870D01*
X17272040Y8188920D01*
X17291720Y8215370D01*
X17319280Y8231250D01*
X17346840D01*
X17374400Y8220670D01*
X17398020Y8194210D01*
G01X17862580Y7913750D02*
X17961010Y8231250D01*
X18059440Y7913750D01*
G01X18024000Y8024870D02*
X17898010D01*
G01X18197230Y7913750D02*
Y8231250D01*
X18295650D01*
X18327150Y8215370D01*
X18346840Y8194210D01*
X18354710Y8151870D01*
X18346840Y8109540D01*
X18323210Y8083090D01*
X18295650Y8067200D01*
X18197230D01*
G01X18295650D02*
X18354710Y7913750D01*
G01X18669670D02*
X18512190D01*
Y8231250D01*
X18669670D01*
G01X18606680Y8077800D02*
X18512190D01*
G01X19173610Y8231250D02*
X19268090D01*
G01X19220850D02*
Y7913750D01*
G01X19173610D02*
X19268090D01*
G01X19445260D02*
Y8231250D01*
X19626360Y7913750D01*
Y8231250D01*
G01X20063360Y7913750D02*
Y8231250D01*
X20165730Y7966670D01*
X20268100Y8231250D01*
Y7913750D01*
G01X20433450Y8231250D02*
X20527930D01*
G01X20480690D02*
Y7913750D01*
G01X20433450D02*
X20527930D01*
G01X20716910Y8231250D02*
Y7913750D01*
X20874390D01*
G01X21031870Y8231250D02*
Y7913750D01*
X21189350D01*
G01X21378330Y8231250D02*
X21472810D01*
G01X21425570D02*
Y7913750D01*
G01X21378330D02*
X21472810D01*
G01X21638160D02*
Y8231250D01*
X21740530Y7966670D01*
X21842900Y8231250D01*
Y7913750D01*
G01X22134230D02*
X21976750D01*
Y8231250D01*
X22134230D01*
G01X22071240Y8077800D02*
X21976750D01*
G01X22370450Y8231250D02*
Y7913750D01*
G01X22279900Y8231250D02*
X22461000D01*
G01X22764150Y7913750D02*
X22606670D01*
Y8231250D01*
X22764150D01*
G01X22701160Y8077800D02*
X22606670D01*
G01X22921630Y7913750D02*
Y8231250D01*
X23020050D01*
X23051550Y8215370D01*
X23071240Y8194210D01*
X23079110Y8151870D01*
X23071240Y8109540D01*
X23047610Y8083090D01*
X23020050Y8067200D01*
X22921630D01*
G01X23020050D02*
X23079110Y7913750D01*
G01X23232650Y7956070D02*
X23264150Y7929620D01*
X23299580Y7913750D01*
X23331080D01*
X23362570Y7929620D01*
X23386200Y7956070D01*
X23398010Y7993130D01*
X23390140Y8030160D01*
X23370450Y8061910D01*
X23335010Y8083090D01*
X23287770Y8093670D01*
X23260210Y8114830D01*
X23248400Y8151870D01*
X23256280Y8188920D01*
X23275960Y8215370D01*
X23303520Y8231250D01*
X23331080D01*
X23358640Y8220670D01*
X23382260Y8194210D01*
G01X15039760Y8563750D02*
Y8881250D01*
X15118490D01*
X15149990Y8865370D01*
X15173610Y8844210D01*
X15193300Y8812460D01*
X15209050Y8775410D01*
X15212980Y8722500D01*
X15209050Y8669580D01*
X15193300Y8632540D01*
X15173610Y8600780D01*
X15149990Y8579620D01*
X15118490Y8563750D01*
X15039760D01*
G01X15362590D02*
Y8881250D01*
X15461010D01*
X15492510Y8865370D01*
X15512200Y8844210D01*
X15520070Y8801870D01*
X15512200Y8759540D01*
X15488570Y8733090D01*
X15461010Y8717200D01*
X15362590D01*
G01X15461010D02*
X15520070Y8563750D01*
G01X15709050Y8881250D02*
X15803530D01*
G01X15756290D02*
Y8563750D01*
G01X15709050D02*
X15803530D01*
G01X15992510Y8881250D02*
Y8563750D01*
X16149990D01*
G01X16307470Y8881250D02*
Y8563750D01*
X16464950D01*
G01X17102740Y8854790D02*
X17079120Y8870670D01*
X17051570Y8881250D01*
X17020070D01*
X16984630Y8865370D01*
X16957080Y8838920D01*
X16937390Y8807160D01*
X16921640Y8754250D01*
X16917700Y8706620D01*
X16925580Y8659000D01*
X16937390Y8627250D01*
X16961010Y8595490D01*
X16988570Y8574330D01*
X17016130Y8563750D01*
X17043690D01*
X17071250Y8574330D01*
X17094870Y8590200D01*
X17114560Y8611360D01*
G01X17248410Y8563750D02*
Y8881250D01*
G01X17413770D02*
Y8563750D01*
G01Y8722500D02*
X17248410D01*
G01X17547620Y8563750D02*
X17646050Y8881250D01*
X17744480Y8563750D01*
G01X17709040Y8674870D02*
X17583050D01*
G01X17882270Y8563750D02*
Y8881250D01*
X17980690D01*
X18012190Y8865370D01*
X18031880Y8844210D01*
X18039750Y8801870D01*
X18031880Y8759540D01*
X18008250Y8733090D01*
X17980690Y8717200D01*
X17882270D01*
G01X17980690D02*
X18039750Y8563750D01*
G01X18275970Y8881250D02*
Y8563750D01*
G01X18185420Y8881250D02*
X18366520D01*
G01X18590930Y8553170D02*
X18583050Y8558460D01*
Y8569040D01*
X18590930Y8574330D01*
X18598810Y8569040D01*
Y8558460D01*
X18590930Y8553170D01*
G01Y8696030D02*
X18583050Y8701330D01*
Y8711910D01*
X18590930Y8717200D01*
X18598810Y8711910D01*
Y8701330D01*
X18590930Y8696030D01*
G01X19220850Y8881250D02*
Y8563750D01*
G01X19130300Y8881250D02*
X19311400D01*
G01X19535810Y8563750D02*
X19504310Y8569040D01*
X19476760Y8590200D01*
X19453130Y8621960D01*
X19437380Y8659000D01*
X19429510Y8701330D01*
Y8743670D01*
X19437380Y8786000D01*
X19453130Y8823040D01*
X19476760Y8854790D01*
X19504310Y8875960D01*
X19535810Y8881250D01*
X19567300Y8875960D01*
X19594860Y8854790D01*
X19618490Y8823040D01*
X19634240Y8786000D01*
X19642110Y8743670D01*
Y8701330D01*
X19634240Y8659000D01*
X19618490Y8621960D01*
X19594860Y8590200D01*
X19567300Y8569040D01*
X19535810Y8563750D01*
G01X19772030D02*
Y8881250D01*
X19866520D01*
X19898010Y8865370D01*
X19921640Y8828330D01*
X19929510Y8786000D01*
X19921640Y8743670D01*
X19901950Y8711910D01*
X19866520Y8696030D01*
X19772030D01*
G01X20480690Y8881250D02*
Y8563750D01*
G01X20425570Y8775410D02*
X20535810D01*
G01X20795650Y8563750D02*
X20772030Y8569040D01*
X20748410Y8590200D01*
X20732650Y8627250D01*
X20724780Y8669580D01*
X20732650Y8711910D01*
X20748410Y8748960D01*
X20772030Y8770120D01*
X20795650Y8775410D01*
X20819270Y8770120D01*
X20842890Y8748960D01*
X20858640Y8711910D01*
X20862580Y8669580D01*
X20858640Y8627250D01*
X20842890Y8590200D01*
X20819270Y8569040D01*
X20795650Y8563750D01*
G01X21457060Y8733090D02*
X21472810Y8748960D01*
X21484620Y8775410D01*
X21492500Y8812460D01*
X21484620Y8844210D01*
X21468880Y8865370D01*
X21441320Y8881250D01*
X21335020D01*
Y8563750D01*
X21464940D01*
X21492500Y8584910D01*
X21508250Y8616670D01*
X21516120Y8653710D01*
X21508250Y8690740D01*
X21484620Y8722500D01*
X21457060Y8733090D01*
X21335020D01*
G01X21740530Y8563750D02*
X21709030Y8569040D01*
X21681480Y8590200D01*
X21657850Y8621960D01*
X21642100Y8659000D01*
X21634230Y8701330D01*
Y8743670D01*
X21642100Y8786000D01*
X21657850Y8823040D01*
X21681480Y8854790D01*
X21709030Y8875960D01*
X21740530Y8881250D01*
X21772020Y8875960D01*
X21799580Y8854790D01*
X21823210Y8823040D01*
X21838960Y8786000D01*
X21846830Y8743670D01*
Y8701330D01*
X21838960Y8659000D01*
X21823210Y8621960D01*
X21799580Y8590200D01*
X21772020Y8569040D01*
X21740530Y8563750D01*
G01X22055490Y8881250D02*
Y8563750D01*
G01X21964940Y8881250D02*
X22146040D01*
G01X22370450D02*
Y8563750D01*
G01X22279900Y8881250D02*
X22461000D01*
G01X22685410Y8563750D02*
X22653910Y8569040D01*
X22626360Y8590200D01*
X22602730Y8621960D01*
X22586980Y8659000D01*
X22579110Y8701330D01*
Y8743670D01*
X22586980Y8786000D01*
X22602730Y8823040D01*
X22626360Y8854790D01*
X22653910Y8875960D01*
X22685410Y8881250D01*
X22716900Y8875960D01*
X22744460Y8854790D01*
X22768090Y8823040D01*
X22783840Y8786000D01*
X22791710Y8743670D01*
Y8701330D01*
X22783840Y8659000D01*
X22768090Y8621960D01*
X22744460Y8590200D01*
X22716900Y8569040D01*
X22685410Y8563750D01*
G01X22898000D02*
Y8881250D01*
X23000370Y8616670D01*
X23102740Y8881250D01*
Y8563750D01*
G01X15590940Y2262250D02*
X15614550Y2225200D01*
X15646050Y2204040D01*
X15681490Y2198750D01*
X15712990Y2204040D01*
X15744480Y2230490D01*
X15764160Y2262250D01*
X15768100Y2294000D01*
X15760230Y2331030D01*
X15732670Y2357500D01*
X15705110Y2368090D01*
X15669670D01*
G01X15705110D02*
X15728730Y2383960D01*
X15748420Y2410410D01*
X15756290Y2442160D01*
X15748420Y2473920D01*
X15728730Y2500370D01*
X15693300Y2516250D01*
X15657870Y2510960D01*
X15622430Y2489790D01*
G01X15992510Y2188170D02*
X15984630Y2193460D01*
Y2204040D01*
X15992510Y2209330D01*
X16000390Y2204040D01*
Y2193460D01*
X15992510Y2188170D01*
G01X16307470Y2198750D02*
Y2516250D01*
X16260230Y2452750D01*
G01Y2198750D02*
X16354710D01*
G01X15677550Y2833750D02*
Y3151250D01*
X15630310Y3087750D01*
G01Y2833750D02*
X15724790D01*
G01X15992510Y2823170D02*
X15984630Y2828460D01*
Y2839040D01*
X15992510Y2844330D01*
X16000390Y2839040D01*
Y2828460D01*
X15992510Y2823170D01*
G01X16307470Y2833750D02*
X16335030Y2839040D01*
X16366520Y2854910D01*
X16386210Y2881360D01*
X16394080Y2918420D01*
X16386210Y2955450D01*
X16362590Y2987200D01*
X16327150Y3003090D01*
X16287790D01*
X16264160Y3013670D01*
X16244470Y3040120D01*
X16236600Y3077160D01*
X16248420Y3114210D01*
X16275970Y3140670D01*
X16307470Y3151250D01*
X16338960Y3140670D01*
X16366520Y3114210D01*
X16378340Y3077160D01*
X16370460Y3040120D01*
X16350780Y3013670D01*
X16327150Y3003090D01*
X16287790D01*
X16252350Y2987200D01*
X16228730Y2955450D01*
X16220860Y2918420D01*
X16228730Y2881360D01*
X16248420Y2854910D01*
X16279910Y2839040D01*
X16307470Y2833750D01*
G01X15677550Y3468750D02*
Y3786250D01*
X15630310Y3722750D01*
G01Y3468750D02*
X15724790D01*
G01X15992510Y3458170D02*
X15984630Y3463460D01*
Y3474040D01*
X15992510Y3479330D01*
X16000390Y3474040D01*
Y3463460D01*
X15992510Y3458170D01*
G01X16299590Y3468750D02*
X16307470Y3537540D01*
X16319280Y3595740D01*
X16335030Y3648670D01*
X16354710Y3706870D01*
X16386210Y3786250D01*
X16228730D01*
G01X15677550Y4103750D02*
Y4421250D01*
X15630310Y4357750D01*
G01Y4103750D02*
X15724790D01*
G01X15992510Y4093170D02*
X15984630Y4098460D01*
Y4109040D01*
X15992510Y4114330D01*
X16000390Y4109040D01*
Y4098460D01*
X15992510Y4093170D01*
G01X16220860Y4167250D02*
X16244470Y4130200D01*
X16275970Y4109040D01*
X16311410Y4103750D01*
X16342910Y4109040D01*
X16374400Y4135490D01*
X16394080Y4167250D01*
X16398020Y4199000D01*
X16390150Y4236030D01*
X16362590Y4262500D01*
X16335030Y4273090D01*
X16299590D01*
G01X16335030D02*
X16358650Y4288960D01*
X16378340Y4315410D01*
X16386210Y4347160D01*
X16378340Y4378920D01*
X16358650Y4405370D01*
X16323220Y4421250D01*
X16287790Y4415960D01*
X16252350Y4394790D01*
G01X15677550Y4738750D02*
Y5056250D01*
X15630310Y4992750D01*
G01Y4738750D02*
X15724790D01*
G01X15992510Y4728170D02*
X15984630Y4733460D01*
Y4744040D01*
X15992510Y4749330D01*
X16000390Y4744040D01*
Y4733460D01*
X15992510Y4728170D01*
G01X16307470Y4738750D02*
Y5056250D01*
X16260230Y4992750D01*
G01Y4738750D02*
X16354710D01*
G01X15677550Y5691250D02*
X15646050Y5680670D01*
X15622430Y5654210D01*
X15606680Y5622460D01*
X15594870Y5580120D01*
X15590940Y5532500D01*
X15594870Y5484870D01*
X15606680Y5442540D01*
X15622430Y5410780D01*
X15646050Y5384330D01*
X15677550Y5373750D01*
X15709040Y5384330D01*
X15732670Y5410780D01*
X15748420Y5442540D01*
X15760230Y5484870D01*
X15764160Y5532500D01*
X15760230Y5580120D01*
X15748420Y5622460D01*
X15732670Y5654210D01*
X15709040Y5680670D01*
X15677550Y5691250D01*
G01X15992510Y5363170D02*
X15984630Y5368460D01*
Y5379040D01*
X15992510Y5384330D01*
X16000390Y5379040D01*
Y5368460D01*
X15992510Y5363170D01*
G01X16240540Y5410780D02*
X16268100Y5384330D01*
X16299590Y5373750D01*
X16331090Y5384330D01*
X16358650Y5416070D01*
X16378340Y5463710D01*
X16386210Y5511330D01*
Y5569540D01*
X16378340Y5617160D01*
X16358650Y5659500D01*
X16335030Y5680670D01*
X16307470Y5691250D01*
X16275970Y5680670D01*
X16252350Y5659500D01*
X16236600Y5627750D01*
X16228730Y5585410D01*
X16236600Y5548380D01*
X16256290Y5511330D01*
X16279910Y5490160D01*
X16307470Y5484870D01*
X16338960Y5495450D01*
X16362590Y5521910D01*
X16386210Y5569540D01*
G01X15677550Y6326250D02*
X15646050Y6315670D01*
X15622430Y6289210D01*
X15606680Y6257460D01*
X15594870Y6215120D01*
X15590940Y6167500D01*
X15594870Y6119870D01*
X15606680Y6077540D01*
X15622430Y6045780D01*
X15646050Y6019330D01*
X15677550Y6008750D01*
X15709040Y6019330D01*
X15732670Y6045780D01*
X15748420Y6077540D01*
X15760230Y6119870D01*
X15764160Y6167500D01*
X15760230Y6215120D01*
X15748420Y6257460D01*
X15732670Y6289210D01*
X15709040Y6315670D01*
X15677550Y6326250D01*
G01X15992510Y5998170D02*
X15984630Y6003460D01*
Y6014040D01*
X15992510Y6019330D01*
X16000390Y6014040D01*
Y6003460D01*
X15992510Y5998170D01*
G01X16354710Y6008750D02*
Y6326250D01*
X16209040Y6098710D01*
X16405900D01*
G01X18551560Y7755000D02*
Y135000D01*
G01X18984630Y7278750D02*
Y7596250D01*
X19083050D01*
X19114550Y7580370D01*
X19134240Y7559210D01*
X19142110Y7516870D01*
X19134240Y7474540D01*
X19110610Y7448090D01*
X19083050Y7432200D01*
X18984630D01*
G01X19083050D02*
X19142110Y7278750D01*
G01X19378330D02*
X19346830Y7284040D01*
X19319280Y7305200D01*
X19295650Y7336960D01*
X19279900Y7374000D01*
X19272030Y7416330D01*
Y7458670D01*
X19279900Y7501000D01*
X19295650Y7538040D01*
X19319280Y7569790D01*
X19346830Y7590960D01*
X19378330Y7596250D01*
X19409820Y7590960D01*
X19437380Y7569790D01*
X19461010Y7538040D01*
X19476760Y7501000D01*
X19484630Y7458670D01*
Y7416330D01*
X19476760Y7374000D01*
X19461010Y7336960D01*
X19437380Y7305200D01*
X19409820Y7284040D01*
X19378330Y7278750D01*
G01X19693290Y7596250D02*
Y7278750D01*
G01X19602740Y7596250D02*
X19783840D01*
G01X19909820Y7278750D02*
X20008250Y7596250D01*
X20106680Y7278750D01*
G01X20071240Y7389870D02*
X19945250D01*
G01X20323210Y7596250D02*
Y7278750D01*
G01X20232660Y7596250D02*
X20413760D01*
G01X20590930D02*
X20685410D01*
G01X20638170D02*
Y7278750D01*
G01X20590930D02*
X20685410D01*
G01X20953130D02*
X20921630Y7284040D01*
X20894080Y7305200D01*
X20870450Y7336960D01*
X20854700Y7374000D01*
X20846830Y7416330D01*
Y7458670D01*
X20854700Y7501000D01*
X20870450Y7538040D01*
X20894080Y7569790D01*
X20921630Y7590960D01*
X20953130Y7596250D01*
X20984620Y7590960D01*
X21012180Y7569790D01*
X21035810Y7538040D01*
X21051560Y7501000D01*
X21059430Y7458670D01*
Y7416330D01*
X21051560Y7374000D01*
X21035810Y7336960D01*
X21012180Y7305200D01*
X20984620Y7284040D01*
X20953130Y7278750D01*
G01X21177540D02*
Y7596250D01*
X21358640Y7278750D01*
Y7596250D01*
G01X19311400Y330780D02*
X19338960Y304330D01*
X19370450Y293750D01*
X19401950Y304330D01*
X19429510Y336070D01*
X19449200Y383710D01*
X19457070Y431330D01*
Y489540D01*
X19449200Y537160D01*
X19429510Y579500D01*
X19405890Y600670D01*
X19378330Y611250D01*
X19346830Y600670D01*
X19323210Y579500D01*
X19307460Y547750D01*
X19299590Y505410D01*
X19307460Y468380D01*
X19327150Y431330D01*
X19350770Y410160D01*
X19378330Y404870D01*
X19409820Y415450D01*
X19433450Y441910D01*
X19457070Y489540D01*
G01X19693290Y611250D02*
X19661790Y600670D01*
X19638170Y574210D01*
X19622420Y542460D01*
X19610610Y500120D01*
X19606680Y452500D01*
X19610610Y404870D01*
X19622420Y362540D01*
X19638170Y330780D01*
X19661790Y304330D01*
X19693290Y293750D01*
X19724780Y304330D01*
X19748410Y330780D01*
X19764160Y362540D01*
X19775970Y404870D01*
X19779900Y452500D01*
X19775970Y500120D01*
X19764160Y542460D01*
X19748410Y574210D01*
X19724780Y600670D01*
X19693290Y611250D01*
G01X20008250Y283170D02*
X20000370Y288460D01*
Y299040D01*
X20008250Y304330D01*
X20016130Y299040D01*
Y288460D01*
X20008250Y283170D01*
G01X20323210Y611250D02*
X20291710Y600670D01*
X20268090Y574210D01*
X20252340Y542460D01*
X20240530Y500120D01*
X20236600Y452500D01*
X20240530Y404870D01*
X20252340Y362540D01*
X20268090Y330780D01*
X20291710Y304330D01*
X20323210Y293750D01*
X20354700Y304330D01*
X20378330Y330780D01*
X20394080Y362540D01*
X20405890Y404870D01*
X20409820Y452500D01*
X20405890Y500120D01*
X20394080Y542460D01*
X20378330Y574210D01*
X20354700Y600670D01*
X20323210Y611250D01*
G01X20638170D02*
X20606670Y600670D01*
X20583050Y574210D01*
X20567300Y542460D01*
X20555490Y500120D01*
X20551560Y452500D01*
X20555490Y404870D01*
X20567300Y362540D01*
X20583050Y330780D01*
X20606670Y304330D01*
X20638170Y293750D01*
X20669660Y304330D01*
X20693290Y330780D01*
X20709040Y362540D01*
X20720850Y404870D01*
X20724780Y452500D01*
X20720850Y500120D01*
X20709040Y542460D01*
X20693290Y574210D01*
X20669660Y600670D01*
X20638170Y611250D01*
G01X20953130D02*
X20921630Y600670D01*
X20898010Y574210D01*
X20882260Y542460D01*
X20870450Y500120D01*
X20866520Y452500D01*
X20870450Y404870D01*
X20882260Y362540D01*
X20898010Y330780D01*
X20921630Y304330D01*
X20953130Y293750D01*
X20984620Y304330D01*
X21008250Y330780D01*
X21024000Y362540D01*
X21035810Y404870D01*
X21039740Y452500D01*
X21035810Y500120D01*
X21024000Y542460D01*
X21008250Y574210D01*
X20984620Y600670D01*
X20953130Y611250D01*
G01X19535810Y1246250D02*
X19504310Y1235670D01*
X19480690Y1209210D01*
X19464940Y1177460D01*
X19453130Y1135120D01*
X19449200Y1087500D01*
X19453130Y1039870D01*
X19464940Y997540D01*
X19480690Y965780D01*
X19504310Y939330D01*
X19535810Y928750D01*
X19567300Y939330D01*
X19590930Y965780D01*
X19606680Y997540D01*
X19618490Y1039870D01*
X19622420Y1087500D01*
X19618490Y1135120D01*
X19606680Y1177460D01*
X19590930Y1209210D01*
X19567300Y1235670D01*
X19535810Y1246250D01*
G01X19850770Y918170D02*
X19842890Y923460D01*
Y934040D01*
X19850770Y939330D01*
X19858650Y934040D01*
Y923460D01*
X19850770Y918170D01*
G01X20165730Y1246250D02*
X20134230Y1235670D01*
X20110610Y1209210D01*
X20094860Y1177460D01*
X20083050Y1135120D01*
X20079120Y1087500D01*
X20083050Y1039870D01*
X20094860Y997540D01*
X20110610Y965780D01*
X20134230Y939330D01*
X20165730Y928750D01*
X20197220Y939330D01*
X20220850Y965780D01*
X20236600Y997540D01*
X20248410Y1039870D01*
X20252340Y1087500D01*
X20248410Y1135120D01*
X20236600Y1177460D01*
X20220850Y1209210D01*
X20197220Y1235670D01*
X20165730Y1246250D01*
G01X20480690D02*
X20449190Y1235670D01*
X20425570Y1209210D01*
X20409820Y1177460D01*
X20398010Y1135120D01*
X20394080Y1087500D01*
X20398010Y1039870D01*
X20409820Y997540D01*
X20425570Y965780D01*
X20449190Y939330D01*
X20480690Y928750D01*
X20512180Y939330D01*
X20535810Y965780D01*
X20551560Y997540D01*
X20563370Y1039870D01*
X20567300Y1087500D01*
X20563370Y1135120D01*
X20551560Y1177460D01*
X20535810Y1209210D01*
X20512180Y1235670D01*
X20480690Y1246250D01*
G01X20795650D02*
X20764150Y1235670D01*
X20740530Y1209210D01*
X20724780Y1177460D01*
X20712970Y1135120D01*
X20709040Y1087500D01*
X20712970Y1039870D01*
X20724780Y997540D01*
X20740530Y965780D01*
X20764150Y939330D01*
X20795650Y928750D01*
X20827140Y939330D01*
X20850770Y965780D01*
X20866520Y997540D01*
X20878330Y1039870D01*
X20882260Y1087500D01*
X20878330Y1135120D01*
X20866520Y1177460D01*
X20850770Y1209210D01*
X20827140Y1235670D01*
X20795650Y1246250D01*
G01X19311400Y1600780D02*
X19338960Y1574330D01*
X19370450Y1563750D01*
X19401950Y1574330D01*
X19429510Y1606070D01*
X19449200Y1653710D01*
X19457070Y1701330D01*
Y1759540D01*
X19449200Y1807160D01*
X19429510Y1849500D01*
X19405890Y1870670D01*
X19378330Y1881250D01*
X19346830Y1870670D01*
X19323210Y1849500D01*
X19307460Y1817750D01*
X19299590Y1775410D01*
X19307460Y1738380D01*
X19327150Y1701330D01*
X19350770Y1680160D01*
X19378330Y1674870D01*
X19409820Y1685450D01*
X19433450Y1711910D01*
X19457070Y1759540D01*
G01X19693290Y1881250D02*
X19661790Y1870670D01*
X19638170Y1844210D01*
X19622420Y1812460D01*
X19610610Y1770120D01*
X19606680Y1722500D01*
X19610610Y1674870D01*
X19622420Y1632540D01*
X19638170Y1600780D01*
X19661790Y1574330D01*
X19693290Y1563750D01*
X19724780Y1574330D01*
X19748410Y1600780D01*
X19764160Y1632540D01*
X19775970Y1674870D01*
X19779900Y1722500D01*
X19775970Y1770120D01*
X19764160Y1812460D01*
X19748410Y1844210D01*
X19724780Y1870670D01*
X19693290Y1881250D01*
G01X20008250Y1553170D02*
X20000370Y1558460D01*
Y1569040D01*
X20008250Y1574330D01*
X20016130Y1569040D01*
Y1558460D01*
X20008250Y1553170D01*
G01X20323210Y1881250D02*
X20291710Y1870670D01*
X20268090Y1844210D01*
X20252340Y1812460D01*
X20240530Y1770120D01*
X20236600Y1722500D01*
X20240530Y1674870D01*
X20252340Y1632540D01*
X20268090Y1600780D01*
X20291710Y1574330D01*
X20323210Y1563750D01*
X20354700Y1574330D01*
X20378330Y1600780D01*
X20394080Y1632540D01*
X20405890Y1674870D01*
X20409820Y1722500D01*
X20405890Y1770120D01*
X20394080Y1812460D01*
X20378330Y1844210D01*
X20354700Y1870670D01*
X20323210Y1881250D01*
G01X20638170D02*
X20606670Y1870670D01*
X20583050Y1844210D01*
X20567300Y1812460D01*
X20555490Y1770120D01*
X20551560Y1722500D01*
X20555490Y1674870D01*
X20567300Y1632540D01*
X20583050Y1600780D01*
X20606670Y1574330D01*
X20638170Y1563750D01*
X20669660Y1574330D01*
X20693290Y1600780D01*
X20709040Y1632540D01*
X20720850Y1674870D01*
X20724780Y1722500D01*
X20720850Y1770120D01*
X20709040Y1812460D01*
X20693290Y1844210D01*
X20669660Y1870670D01*
X20638170Y1881250D01*
G01X20953130D02*
X20921630Y1870670D01*
X20898010Y1844210D01*
X20882260Y1812460D01*
X20870450Y1770120D01*
X20866520Y1722500D01*
X20870450Y1674870D01*
X20882260Y1632540D01*
X20898010Y1600780D01*
X20921630Y1574330D01*
X20953130Y1563750D01*
X20984620Y1574330D01*
X21008250Y1600780D01*
X21024000Y1632540D01*
X21035810Y1674870D01*
X21039740Y1722500D01*
X21035810Y1770120D01*
X21024000Y1812460D01*
X21008250Y1844210D01*
X20984620Y1870670D01*
X20953130Y1881250D01*
G01X20114550Y2304580D02*
X20216910D01*
G01X20114550Y2939580D02*
X20216910D01*
G01X20114550Y3574580D02*
X20216910D01*
G01X20114550Y4209580D02*
X20216910D01*
G01X20114550Y4844580D02*
X20216910D01*
G01X20114550Y5479580D02*
X20216910D01*
G01X20114550Y6114580D02*
X20216910D01*
G01X20114550Y6749580D02*
X20216910D01*
G01X21108070Y-23750D02*
Y-341250D01*
G01X21017520Y-23750D02*
X21198620D01*
G01X21423030Y-341250D02*
X21391530Y-335960D01*
X21363980Y-314800D01*
X21340350Y-283040D01*
X21324600Y-246000D01*
X21316730Y-203670D01*
Y-161330D01*
X21324600Y-119000D01*
X21340350Y-81960D01*
X21363980Y-50210D01*
X21391530Y-29040D01*
X21423030Y-23750D01*
X21454520Y-29040D01*
X21482080Y-50210D01*
X21505710Y-81960D01*
X21521460Y-119000D01*
X21529330Y-161330D01*
Y-203670D01*
X21521460Y-246000D01*
X21505710Y-283040D01*
X21482080Y-314800D01*
X21454520Y-335960D01*
X21423030Y-341250D01*
G01X21737990Y-23750D02*
Y-341250D01*
G01X21647440Y-23750D02*
X21828540D01*
G01X21954520Y-341250D02*
X22052950Y-23750D01*
X22151380Y-341250D01*
G01X22115940Y-230130D02*
X21989950D01*
G01X22289170Y-23750D02*
Y-341250D01*
X22446650D01*
G01X22915150D02*
Y-23750D01*
G01X23080510D02*
Y-341250D01*
G01Y-182500D02*
X22915150D01*
G01X23312790Y-341250D02*
X23281290Y-335960D01*
X23253740Y-314800D01*
X23230110Y-283040D01*
X23214360Y-246000D01*
X23206490Y-203670D01*
Y-161330D01*
X23214360Y-119000D01*
X23230110Y-81960D01*
X23253740Y-50210D01*
X23281290Y-29040D01*
X23312790Y-23750D01*
X23344280Y-29040D01*
X23371840Y-50210D01*
X23395470Y-81960D01*
X23411220Y-119000D01*
X23419090Y-161330D01*
Y-203670D01*
X23411220Y-246000D01*
X23395470Y-283040D01*
X23371840Y-314800D01*
X23344280Y-335960D01*
X23312790Y-341250D01*
G01X23549010Y-23750D02*
Y-341250D01*
X23706490D01*
G01X24021450D02*
X23863970D01*
Y-23750D01*
X24021450D01*
G01X23958460Y-177200D02*
X23863970D01*
G01X24174990Y-298930D02*
X24206490Y-325380D01*
X24241920Y-341250D01*
X24273420D01*
X24304910Y-325380D01*
X24328540Y-298930D01*
X24340350Y-261870D01*
X24332480Y-224840D01*
X24312790Y-193090D01*
X24277350Y-171910D01*
X24230110Y-161330D01*
X24202550Y-140170D01*
X24190740Y-103130D01*
X24198620Y-66080D01*
X24218300Y-39630D01*
X24245860Y-23750D01*
X24273420D01*
X24300980Y-34330D01*
X24324600Y-60790D01*
G01X24572630Y-351830D02*
X24564750Y-346540D01*
Y-335960D01*
X24572630Y-330670D01*
X24580510Y-335960D01*
Y-346540D01*
X24572630Y-351830D01*
G01Y-208970D02*
X24564750Y-203670D01*
Y-193090D01*
X24572630Y-187800D01*
X24580510Y-193090D01*
Y-203670D01*
X24572630Y-208970D01*
G01X21779900Y7755000D02*
Y135000D01*
G01X22527930Y293750D02*
Y611250D01*
X22622420D01*
X22653910Y595370D01*
X22677540Y558330D01*
X22685410Y516000D01*
X22677540Y473670D01*
X22657850Y441910D01*
X22622420Y426030D01*
X22527930D01*
G01X22842890Y611250D02*
Y293750D01*
X23000370D01*
G01X23138160D02*
X23236590Y611250D01*
X23335020Y293750D01*
G01X23299580Y404870D02*
X23173590D01*
G01X23551550Y611250D02*
Y293750D01*
G01X23461000Y611250D02*
X23642100D01*
G01X23945250Y293750D02*
X23787770D01*
Y611250D01*
X23945250D01*
G01X23882260Y457800D02*
X23787770D01*
G01X24094860Y293750D02*
Y611250D01*
X24173590D01*
X24205090Y595370D01*
X24228710Y574210D01*
X24248400Y542460D01*
X24264150Y505410D01*
X24268080Y452500D01*
X24264150Y399580D01*
X24248400Y362540D01*
X24228710Y330780D01*
X24205090Y309620D01*
X24173590Y293750D01*
X24094860D01*
G01X22527930Y928750D02*
Y1246250D01*
X22622420D01*
X22653910Y1230370D01*
X22677540Y1193330D01*
X22685410Y1151000D01*
X22677540Y1108670D01*
X22657850Y1076910D01*
X22622420Y1061030D01*
X22527930D01*
G01X22842890Y1246250D02*
Y928750D01*
X23000370D01*
G01X23138160D02*
X23236590Y1246250D01*
X23335020Y928750D01*
G01X23299580Y1039870D02*
X23173590D01*
G01X23551550Y1246250D02*
Y928750D01*
G01X23461000Y1246250D02*
X23642100D01*
G01X23945250Y928750D02*
X23787770D01*
Y1246250D01*
X23945250D01*
G01X23882260Y1092800D02*
X23787770D01*
G01X24094860Y928750D02*
Y1246250D01*
X24173590D01*
X24205090Y1230370D01*
X24228710Y1209210D01*
X24248400Y1177460D01*
X24264150Y1140410D01*
X24268080Y1087500D01*
X24264150Y1034580D01*
X24248400Y997540D01*
X24228710Y965780D01*
X24205090Y944620D01*
X24173590Y928750D01*
X24094860D01*
G01X22527930Y1563750D02*
Y1881250D01*
X22622420D01*
X22653910Y1865370D01*
X22677540Y1828330D01*
X22685410Y1786000D01*
X22677540Y1743670D01*
X22657850Y1711910D01*
X22622420Y1696030D01*
X22527930D01*
G01X22842890Y1881250D02*
Y1563750D01*
X23000370D01*
G01X23138160D02*
X23236590Y1881250D01*
X23335020Y1563750D01*
G01X23299580Y1674870D02*
X23173590D01*
G01X23551550Y1881250D02*
Y1563750D01*
G01X23461000Y1881250D02*
X23642100D01*
G01X23945250Y1563750D02*
X23787770D01*
Y1881250D01*
X23945250D01*
G01X23882260Y1727800D02*
X23787770D01*
G01X24094860Y1563750D02*
Y1881250D01*
X24173590D01*
X24205090Y1865370D01*
X24228710Y1844210D01*
X24248400Y1812460D01*
X24264150Y1775410D01*
X24268080Y1722500D01*
X24264150Y1669580D01*
X24248400Y1632540D01*
X24228710Y1600780D01*
X24205090Y1579620D01*
X24173590Y1563750D01*
X24094860D01*
G01X22527930Y2198750D02*
Y2516250D01*
X22622420D01*
X22653910Y2500370D01*
X22677540Y2463330D01*
X22685410Y2421000D01*
X22677540Y2378670D01*
X22657850Y2346910D01*
X22622420Y2331030D01*
X22527930D01*
G01X22842890Y2516250D02*
Y2198750D01*
X23000370D01*
G01X23138160D02*
X23236590Y2516250D01*
X23335020Y2198750D01*
G01X23299580Y2309870D02*
X23173590D01*
G01X23551550Y2516250D02*
Y2198750D01*
G01X23461000Y2516250D02*
X23642100D01*
G01X23945250Y2198750D02*
X23787770D01*
Y2516250D01*
X23945250D01*
G01X23882260Y2362800D02*
X23787770D01*
G01X24094860Y2198750D02*
Y2516250D01*
X24173590D01*
X24205090Y2500370D01*
X24228710Y2479210D01*
X24248400Y2447460D01*
X24264150Y2410410D01*
X24268080Y2357500D01*
X24264150Y2304580D01*
X24248400Y2267540D01*
X24228710Y2235780D01*
X24205090Y2214620D01*
X24173590Y2198750D01*
X24094860D01*
G01X22527930Y2833750D02*
Y3151250D01*
X22622420D01*
X22653910Y3135370D01*
X22677540Y3098330D01*
X22685410Y3056000D01*
X22677540Y3013670D01*
X22657850Y2981910D01*
X22622420Y2966030D01*
X22527930D01*
G01X22842890Y3151250D02*
Y2833750D01*
X23000370D01*
G01X23138160D02*
X23236590Y3151250D01*
X23335020Y2833750D01*
G01X23299580Y2944870D02*
X23173590D01*
G01X23551550Y3151250D02*
Y2833750D01*
G01X23461000Y3151250D02*
X23642100D01*
G01X23945250Y2833750D02*
X23787770D01*
Y3151250D01*
X23945250D01*
G01X23882260Y2997800D02*
X23787770D01*
G01X24094860Y2833750D02*
Y3151250D01*
X24173590D01*
X24205090Y3135370D01*
X24228710Y3114210D01*
X24248400Y3082460D01*
X24264150Y3045410D01*
X24268080Y2992500D01*
X24264150Y2939580D01*
X24248400Y2902540D01*
X24228710Y2870780D01*
X24205090Y2849620D01*
X24173590Y2833750D01*
X24094860D01*
G01X22527930Y3468750D02*
Y3786250D01*
X22622420D01*
X22653910Y3770370D01*
X22677540Y3733330D01*
X22685410Y3691000D01*
X22677540Y3648670D01*
X22657850Y3616910D01*
X22622420Y3601030D01*
X22527930D01*
G01X22842890Y3786250D02*
Y3468750D01*
X23000370D01*
G01X23138160D02*
X23236590Y3786250D01*
X23335020Y3468750D01*
G01X23299580Y3579870D02*
X23173590D01*
G01X23551550Y3786250D02*
Y3468750D01*
G01X23461000Y3786250D02*
X23642100D01*
G01X23945250Y3468750D02*
X23787770D01*
Y3786250D01*
X23945250D01*
G01X23882260Y3632800D02*
X23787770D01*
G01X24094860Y3468750D02*
Y3786250D01*
X24173590D01*
X24205090Y3770370D01*
X24228710Y3749210D01*
X24248400Y3717460D01*
X24264150Y3680410D01*
X24268080Y3627500D01*
X24264150Y3574580D01*
X24248400Y3537540D01*
X24228710Y3505780D01*
X24205090Y3484620D01*
X24173590Y3468750D01*
X24094860D01*
G01X22527930Y4103750D02*
Y4421250D01*
X22622420D01*
X22653910Y4405370D01*
X22677540Y4368330D01*
X22685410Y4326000D01*
X22677540Y4283670D01*
X22657850Y4251910D01*
X22622420Y4236030D01*
X22527930D01*
G01X22842890Y4421250D02*
Y4103750D01*
X23000370D01*
G01X23138160D02*
X23236590Y4421250D01*
X23335020Y4103750D01*
G01X23299580Y4214870D02*
X23173590D01*
G01X23551550Y4421250D02*
Y4103750D01*
G01X23461000Y4421250D02*
X23642100D01*
G01X23945250Y4103750D02*
X23787770D01*
Y4421250D01*
X23945250D01*
G01X23882260Y4267800D02*
X23787770D01*
G01X24094860Y4103750D02*
Y4421250D01*
X24173590D01*
X24205090Y4405370D01*
X24228710Y4384210D01*
X24248400Y4352460D01*
X24264150Y4315410D01*
X24268080Y4262500D01*
X24264150Y4209580D01*
X24248400Y4172540D01*
X24228710Y4140780D01*
X24205090Y4119620D01*
X24173590Y4103750D01*
X24094860D01*
G01X22527930Y4738750D02*
Y5056250D01*
X22622420D01*
X22653910Y5040370D01*
X22677540Y5003330D01*
X22685410Y4961000D01*
X22677540Y4918670D01*
X22657850Y4886910D01*
X22622420Y4871030D01*
X22527930D01*
G01X22842890Y5056250D02*
Y4738750D01*
X23000370D01*
G01X23138160D02*
X23236590Y5056250D01*
X23335020Y4738750D01*
G01X23299580Y4849870D02*
X23173590D01*
G01X23551550Y5056250D02*
Y4738750D01*
G01X23461000Y5056250D02*
X23642100D01*
G01X23945250Y4738750D02*
X23787770D01*
Y5056250D01*
X23945250D01*
G01X23882260Y4902800D02*
X23787770D01*
G01X24094860Y4738750D02*
Y5056250D01*
X24173590D01*
X24205090Y5040370D01*
X24228710Y5019210D01*
X24248400Y4987460D01*
X24264150Y4950410D01*
X24268080Y4897500D01*
X24264150Y4844580D01*
X24248400Y4807540D01*
X24228710Y4775780D01*
X24205090Y4754620D01*
X24173590Y4738750D01*
X24094860D01*
G01X22527930Y5373750D02*
Y5691250D01*
X22622420D01*
X22653910Y5675370D01*
X22677540Y5638330D01*
X22685410Y5596000D01*
X22677540Y5553670D01*
X22657850Y5521910D01*
X22622420Y5506030D01*
X22527930D01*
G01X22842890Y5691250D02*
Y5373750D01*
X23000370D01*
G01X23138160D02*
X23236590Y5691250D01*
X23335020Y5373750D01*
G01X23299580Y5484870D02*
X23173590D01*
G01X23551550Y5691250D02*
Y5373750D01*
G01X23461000Y5691250D02*
X23642100D01*
G01X23945250Y5373750D02*
X23787770D01*
Y5691250D01*
X23945250D01*
G01X23882260Y5537800D02*
X23787770D01*
G01X24094860Y5373750D02*
Y5691250D01*
X24173590D01*
X24205090Y5675370D01*
X24228710Y5654210D01*
X24248400Y5622460D01*
X24264150Y5585410D01*
X24268080Y5532500D01*
X24264150Y5479580D01*
X24248400Y5442540D01*
X24228710Y5410780D01*
X24205090Y5389620D01*
X24173590Y5373750D01*
X24094860D01*
G01X22527930Y6008750D02*
Y6326250D01*
X22622420D01*
X22653910Y6310370D01*
X22677540Y6273330D01*
X22685410Y6231000D01*
X22677540Y6188670D01*
X22657850Y6156910D01*
X22622420Y6141030D01*
X22527930D01*
G01X22842890Y6326250D02*
Y6008750D01*
X23000370D01*
G01X23138160D02*
X23236590Y6326250D01*
X23335020Y6008750D01*
G01X23299580Y6119870D02*
X23173590D01*
G01X23551550Y6326250D02*
Y6008750D01*
G01X23461000Y6326250D02*
X23642100D01*
G01X23945250Y6008750D02*
X23787770D01*
Y6326250D01*
X23945250D01*
G01X23882260Y6172800D02*
X23787770D01*
G01X24094860Y6008750D02*
Y6326250D01*
X24173590D01*
X24205090Y6310370D01*
X24228710Y6289210D01*
X24248400Y6257460D01*
X24264150Y6220410D01*
X24268080Y6167500D01*
X24264150Y6114580D01*
X24248400Y6077540D01*
X24228710Y6045780D01*
X24205090Y6024620D01*
X24173590Y6008750D01*
X24094860D01*
G01X22527930Y6643750D02*
Y6961250D01*
X22622420D01*
X22653910Y6945370D01*
X22677540Y6908330D01*
X22685410Y6866000D01*
X22677540Y6823670D01*
X22657850Y6791910D01*
X22622420Y6776030D01*
X22527930D01*
G01X22842890Y6961250D02*
Y6643750D01*
X23000370D01*
G01X23138160D02*
X23236590Y6961250D01*
X23335020Y6643750D01*
G01X23299580Y6754870D02*
X23173590D01*
G01X23551550Y6961250D02*
Y6643750D01*
G01X23461000Y6961250D02*
X23642100D01*
G01X23945250Y6643750D02*
X23787770D01*
Y6961250D01*
X23945250D01*
G01X23882260Y6807800D02*
X23787770D01*
G01X24094860Y6643750D02*
Y6961250D01*
X24173590D01*
X24205090Y6945370D01*
X24228710Y6924210D01*
X24248400Y6892460D01*
X24264150Y6855410D01*
X24268080Y6802500D01*
X24264150Y6749580D01*
X24248400Y6712540D01*
X24228710Y6680780D01*
X24205090Y6659620D01*
X24173590Y6643750D01*
X24094860D01*
G01X22527930Y7278750D02*
Y7596250D01*
X22622420D01*
X22653910Y7580370D01*
X22677540Y7543330D01*
X22685410Y7501000D01*
X22677540Y7458670D01*
X22657850Y7426910D01*
X22622420Y7411030D01*
X22527930D01*
G01X22842890Y7596250D02*
Y7278750D01*
X23000370D01*
G01X23138160D02*
X23236590Y7596250D01*
X23335020Y7278750D01*
G01X23299580Y7389870D02*
X23173590D01*
G01X23551550Y7596250D02*
Y7278750D01*
G01X23461000Y7596250D02*
X23642100D01*
G01X23945250Y7278750D02*
X23787770D01*
Y7596250D01*
X23945250D01*
G01X23882260Y7442800D02*
X23787770D01*
G01X24094860Y7278750D02*
Y7596250D01*
X24173590D01*
X24205090Y7580370D01*
X24228710Y7559210D01*
X24248400Y7527460D01*
X24264150Y7490410D01*
X24268080Y7437500D01*
X24264150Y7384580D01*
X24248400Y7347540D01*
X24228710Y7315780D01*
X24205090Y7294620D01*
X24173590Y7278750D01*
X24094860D01*
G01X25008240Y7755000D02*
Y135000D01*
G01X25590920Y-293640D02*
X25614530Y-320090D01*
X25642090Y-335960D01*
X25677530Y-341250D01*
X25712970Y-330670D01*
X25740520Y-309510D01*
X25760210Y-272460D01*
X25764140Y-230130D01*
X25756270Y-187800D01*
X25736580Y-161330D01*
X25709020Y-140170D01*
X25681470Y-134880D01*
X25653910Y-140170D01*
X25618480Y-161330D01*
X25630290Y-23750D01*
X25736580D01*
G01X25992490Y-341250D02*
Y-23750D01*
X25945250Y-87250D01*
G01Y-341250D02*
X26039730D01*
G01X26220840Y-293640D02*
X26244450Y-320090D01*
X26272010Y-335960D01*
X26307450Y-341250D01*
X26342890Y-330670D01*
X26370440Y-309510D01*
X26390130Y-272460D01*
X26394060Y-230130D01*
X26386190Y-187800D01*
X26366500Y-161330D01*
X26338940Y-140170D01*
X26311390Y-134880D01*
X26283830Y-140170D01*
X26248400Y-161330D01*
X26260210Y-23750D01*
X26366500D01*
G01X25724770Y6643750D02*
Y6961250D01*
X25579100Y6733710D01*
X25775960D01*
G01X25917680Y6776030D02*
X25945250Y6813090D01*
X25968870Y6834250D01*
X26000370Y6844830D01*
X26027930Y6834250D01*
X26047610Y6813090D01*
X26063360Y6781330D01*
X26067300Y6744290D01*
X26063360Y6712540D01*
X26047610Y6680780D01*
X26023980Y6654330D01*
X25996430Y6643750D01*
X25964930Y6654330D01*
X25937370Y6686070D01*
X25921620Y6733710D01*
X25917680Y6786620D01*
X25925560Y6855410D01*
X25937370Y6892460D01*
X25957050Y6929500D01*
X25984610Y6955960D01*
X26012170Y6961250D01*
X26039730Y6950670D01*
X26059420Y6924210D01*
G01X26232640Y6908330D02*
X26256270Y6940080D01*
X26283830Y6955960D01*
X26315330Y6961250D01*
X26354690Y6950670D01*
X26382260Y6924210D01*
X26390130Y6892460D01*
X26386190Y6860700D01*
X26370440Y6834250D01*
X26291700Y6781330D01*
X26256270Y6744290D01*
X26232640Y6691360D01*
X26224770Y6643750D01*
X26390130D01*
G01X25677530Y7278750D02*
X25646030Y7284040D01*
X25618480Y7305200D01*
X25594850Y7336960D01*
X25579100Y7374000D01*
X25571230Y7416330D01*
Y7458670D01*
X25579100Y7501000D01*
X25594850Y7538040D01*
X25618480Y7569790D01*
X25646030Y7590960D01*
X25677530Y7596250D01*
X25709020Y7590960D01*
X25736580Y7569790D01*
X25760210Y7538040D01*
X25775960Y7501000D01*
X25783830Y7458670D01*
Y7416330D01*
X25775960Y7374000D01*
X25760210Y7336960D01*
X25736580Y7305200D01*
X25709020Y7284040D01*
X25677530Y7278750D01*
G01X25709020Y7363420D02*
X25756270Y7278750D01*
G01X25992490Y7596250D02*
Y7278750D01*
G01X25901940Y7596250D02*
X26083040D01*
G01X26307450Y7278750D02*
Y7421620D01*
X26228710Y7596250D01*
G01X26386190D02*
X26307450Y7421620D01*
G01X25917680Y558330D02*
X25941310Y590080D01*
X25968870Y605960D01*
X26000370Y611250D01*
X26039730Y600670D01*
X26067300Y574210D01*
X26075170Y542460D01*
X26071230Y510700D01*
X26055480Y484250D01*
X25976740Y431330D01*
X25941310Y394290D01*
X25917680Y341360D01*
X25909810Y293750D01*
X26075170D01*
G01X25992490Y928750D02*
Y1246250D01*
X25945250Y1182750D01*
G01Y928750D02*
X26039730D01*
G01X25917680Y1828330D02*
X25941310Y1860080D01*
X25968870Y1875960D01*
X26000370Y1881250D01*
X26039730Y1870670D01*
X26067300Y1844210D01*
X26075170Y1812460D01*
X26071230Y1780700D01*
X26055480Y1754250D01*
X25976740Y1701330D01*
X25941310Y1664290D01*
X25917680Y1611360D01*
X25909810Y1563750D01*
X26075170D01*
G01X26039730Y2198750D02*
Y2516250D01*
X25894060Y2288710D01*
X26090920D01*
G01X26039730Y2833750D02*
Y3151250D01*
X25894060Y2923710D01*
X26090920D01*
G01X25917680Y3733330D02*
X25941310Y3765080D01*
X25968870Y3780960D01*
X26000370Y3786250D01*
X26039730Y3775670D01*
X26067300Y3749210D01*
X26075170Y3717460D01*
X26071230Y3685700D01*
X26055480Y3659250D01*
X25976740Y3606330D01*
X25941310Y3569290D01*
X25917680Y3516360D01*
X25909810Y3468750D01*
X26075170D01*
G01X25905880Y4151360D02*
X25929490Y4124910D01*
X25957050Y4109040D01*
X25992490Y4103750D01*
X26027930Y4114330D01*
X26055480Y4135490D01*
X26075170Y4172540D01*
X26079100Y4214870D01*
X26071230Y4257200D01*
X26051540Y4283670D01*
X26023980Y4304830D01*
X25996430Y4310120D01*
X25968870Y4304830D01*
X25933440Y4283670D01*
X25945250Y4421250D01*
X26051540D01*
G01X26039730Y4738750D02*
Y5056250D01*
X25894060Y4828710D01*
X26090920D01*
G01X25760200Y5638330D02*
X25783830Y5670080D01*
X25811390Y5685960D01*
X25842890Y5691250D01*
X25882250Y5680670D01*
X25909820Y5654210D01*
X25917690Y5622460D01*
X25913750Y5590700D01*
X25898000Y5564250D01*
X25819260Y5511330D01*
X25783830Y5474290D01*
X25760200Y5421360D01*
X25752330Y5373750D01*
X25917690D01*
G01X26197210D02*
Y5691250D01*
X26051540Y5463710D01*
X26248400D01*
G01X25905880Y6056360D02*
X25929490Y6029910D01*
X25957050Y6014040D01*
X25992490Y6008750D01*
X26027930Y6019330D01*
X26055480Y6040490D01*
X26075170Y6077540D01*
X26079100Y6119870D01*
X26071230Y6162200D01*
X26051540Y6188670D01*
X26023980Y6209830D01*
X25996430Y6215120D01*
X25968870Y6209830D01*
X25933440Y6188670D01*
X25945250Y6326250D01*
X26051540D01*
G54D12*
X790000Y8840000D03*
X1390000D03*
X12291730Y452500D03*
G54D13*
X1270000Y910000D03*
X1400000D03*
X1530000D03*
X1335000Y810000D03*
X1465000D03*
X12291730Y6167500D03*
G54D14*
X1042500Y888000D03*
X1757500D03*
X12291730Y1722500D03*
G54D15*
X1050000Y7436000D03*
Y7944000D03*
X12291730Y3627500D03*
G54D16*
X1110000Y8360000D03*
X12291730Y1087500D03*
G54D17*
X4478200Y330000D03*
X4732200D03*
X5240200D03*
X4986200D03*
X12291730Y4897500D03*
G54D18*
X8331400Y1742000D03*
X8585400Y1615000D03*
X8331400Y2250000D03*
Y1996000D03*
X8585400Y2123000D03*
Y1869000D03*
X8331400Y2504000D03*
X8585400Y2377000D03*
Y3235000D03*
X8331400Y3616000D03*
Y3362000D03*
X8585400Y3743000D03*
Y3489000D03*
X8331400Y4124000D03*
Y3870000D03*
X8585400Y3997000D03*
X9710400Y1651500D03*
Y1397500D03*
Y2722500D03*
Y2468500D03*
Y3271500D03*
Y3017500D03*
Y4088500D03*
Y4342500D03*
X12291730Y5532500D03*
G54D19*
X8915400Y1285500D03*
Y2834500D03*
Y2905500D03*
Y4454500D03*
X12291730Y2992500D03*
M02*
