G04 ================== begin FILE IDENTIFICATION RECORD ==================*
G04 Layout Name:  F:/迅雷下载/47_MSP430F5438A最小系统板/PCB/F5438A_MINI_V10A.brd*
G04 Film Name:    SilkScreen_Bottom*
G04 File Format:  Gerber RS274X*
G04 File Origin:  Cadence Allegro 16.6-2015-S071*
G04 Origin Date:  Thu Jun 30 19:48:49 2016*
G04 *
G04 Layer:  REF DES/SILKSCREEN_BOTTOM*
G04 Layer:  PACKAGE GEOMETRY/SILKSCREEN_BOTTOM*
G04 Layer:  BOARD GEOMETRY/SILKSCREEN_BOTTOM*
G04 *
G04 Offset:    (0.0000 0.0000)*
G04 Mirror:    No*
G04 Mode:      Positive*
G04 Rotation:  0*
G04 FullContactRelief:  No*
G04 UndefLineWidth:     0.1524*
G04 ================== end FILE IDENTIFICATION RECORD ====================*
%FSLAX25Y25*MOMM*%
%IR0*IPPOS*OFA0.00000B0.00000*MIA0B0*SFA1.00000B1.00000*%
%ADD10C,.2032*%
%ADD11C,.127*%
%ADD12C,.254*%
%ADD13C,.1524*%
G75*
%LPD*%
G75*
G54D10*
G01X1667760Y3373500D02*
G03Y3246500I73330J-63500D01*
G01X1949700D02*
X1670300D01*
G01Y3373500D02*
X1949700D01*
G01D02*
G02Y3246500I-71651J-63500D01*
G01X1937760Y4813500D02*
G03Y4686500I73330J-63500D01*
G01X2219700D02*
X1940300D01*
G01Y4813500D02*
X2219700D01*
G01D02*
G02Y4686500I-71651J-63500D01*
G01X2573500Y2340300D02*
G02X2446500I-63500J71651D01*
G01D02*
Y2619700D01*
G01X2573500Y2622240D02*
G03X2446500I-63500J-73330D01*
G01X2416500Y3977760D02*
G03X2543500I63500J73330D01*
G01Y4259700D02*
Y3980300D01*
G01X2416500D02*
Y4259700D01*
G01D02*
G02X2543500I63500J-71651D01*
G01X2596500Y2337760D02*
G03X2723500I63500J73330D01*
G01X2596500Y2340300D02*
Y2619700D01*
G01X2573500D02*
Y2340300D01*
G01X2596500Y2619700D02*
G02X2723500I63500J-71651D01*
G01X2566500Y3977760D02*
G03X2693500I63500J73330D01*
G01Y4259700D02*
Y3980300D01*
G01X2566500D02*
Y4259700D01*
G01D02*
G02X2693500I63500J-71651D01*
G01X2723500Y2619700D02*
Y2340300D01*
G54D11*
G01X2893500Y3350000D02*
G03I-63500J0D01*
G01X3033500D02*
G03I-63500J0D01*
G01X3173500D02*
G03I-63500J0D01*
G54D12*
G01X2718560Y3944580D02*
X2901440D01*
G01X2718560Y4315420D02*
Y3944580D01*
G01X2901440Y4315420D02*
X2718560D01*
G01X2901440Y3944580D02*
Y4315420D01*
G01X2928560Y3944580D02*
X3111440D01*
G01X2928560Y4315420D02*
Y3944580D01*
G01X3111440Y4315420D02*
X2928560D01*
G01X3111440Y3944580D02*
Y4315420D01*
G54D13*
G01X3573180Y910000D02*
Y1001440D01*
X3528400Y910000D01*
Y1001440D01*
G01X3496390Y910000D02*
X3472050Y1001440D01*
X3447710Y910000D01*
G01X3456470Y942000D02*
X3487630D01*
G01X3418630Y910000D02*
Y1001440D01*
X3393310Y925240D01*
X3367990Y1001440D01*
Y910000D01*
G01X3295100D02*
X3334040D01*
Y1001440D01*
X3295100D01*
G01X3310680Y957250D02*
X3334040D01*
G01X3235830Y906950D02*
X3237780Y908480D01*
Y911520D01*
X3235830Y913050D01*
X3233880Y911520D01*
Y908480D01*
X3235830Y906950D01*
G01Y948100D02*
X3237780Y949620D01*
Y952670D01*
X3235830Y954190D01*
X3233880Y952670D01*
Y949620D01*
X3235830Y948100D01*
G01X3175590Y910000D02*
Y1001440D01*
X3138590D01*
G01X3152220Y957250D02*
X3175590D01*
G01X3099770Y923710D02*
X3093930Y916090D01*
X3087110Y911520D01*
X3078350Y910000D01*
X3069590Y913050D01*
X3062770Y919140D01*
X3057900Y929810D01*
X3056930Y942000D01*
X3058880Y954190D01*
X3063750Y961820D01*
X3070560Y967910D01*
X3077380Y969430D01*
X3084190Y967910D01*
X3092950Y961820D01*
X3090030Y1001440D01*
X3063750D01*
G01X2987930Y910000D02*
Y1001440D01*
X3023950Y935910D01*
X2975270D01*
G01X2942290Y928290D02*
X2936450Y917620D01*
X2928660Y911520D01*
X2919900Y910000D01*
X2912110Y911520D01*
X2904320Y919140D01*
X2899450Y928290D01*
X2898480Y937430D01*
X2900420Y948100D01*
X2907240Y955720D01*
X2914050Y958770D01*
X2922820D01*
G01X2914050D02*
X2908210Y963340D01*
X2903340Y970960D01*
X2901400Y980100D01*
X2903340Y989250D01*
X2908210Y996870D01*
X2916980Y1001440D01*
X2925740Y999920D01*
X2934500Y993820D01*
G01X2842130Y910000D02*
X2835310Y911520D01*
X2827530Y916090D01*
X2822660Y923710D01*
X2820710Y934380D01*
X2822660Y945050D01*
X2828500Y954190D01*
X2837260Y958770D01*
X2847000D01*
X2852840Y961820D01*
X2857710Y969430D01*
X2859660Y980100D01*
X2856730Y990770D01*
X2849920Y998390D01*
X2842130Y1001440D01*
X2834340Y998390D01*
X2827530Y990770D01*
X2824600Y980100D01*
X2826550Y969430D01*
X2831420Y961820D01*
X2837260Y958770D01*
X2847000D01*
X2855760Y954190D01*
X2861600Y945050D01*
X2863550Y934380D01*
X2861600Y923710D01*
X2856730Y916090D01*
X2848950Y911520D01*
X2842130Y910000D01*
G01X2787730D02*
X2763390Y1001440D01*
X2739050Y910000D01*
G01X2747810Y942000D02*
X2778970D01*
G01X2713860Y879520D02*
X2655440D01*
G01X2631230Y910000D02*
Y1001440D01*
X2605910Y925240D01*
X2580590Y1001440D01*
Y910000D01*
G01X2538850Y1001440D02*
X2515490D01*
G01X2527170D02*
Y910000D01*
G01X2538850D02*
X2515490D01*
G01X2470820D02*
Y1001440D01*
X2426040Y910000D01*
Y1001440D01*
G01X2381370D02*
X2358010D01*
G01X2369690D02*
Y910000D01*
G01X2381370D02*
X2358010D01*
G01X2320160Y879520D02*
X2261740D01*
G01X2236550Y1001440D02*
X2212210Y910000D01*
X2187870Y1001440D01*
G01X2133470Y910000D02*
Y1001440D01*
X2145150Y983150D01*
G01Y910000D02*
X2121790D01*
G01X2054730Y1001440D02*
X2062520Y998390D01*
X2068360Y990770D01*
X2072260Y981630D01*
X2075180Y969430D01*
X2076150Y955720D01*
X2075180Y942000D01*
X2072260Y929810D01*
X2068360Y920670D01*
X2062520Y913050D01*
X2054730Y910000D01*
X2046940Y913050D01*
X2041100Y920670D01*
X2037200Y929810D01*
X2034280Y942000D01*
X2033310Y955720D01*
X2034280Y969430D01*
X2037200Y981630D01*
X2041100Y990770D01*
X2046940Y998390D01*
X2054730Y1001440D01*
G01X2000330Y910000D02*
X1975990Y1001440D01*
X1951650Y910000D01*
G01X1960410Y942000D02*
X1991570D01*
G01X1897250Y906950D02*
X1899200Y908480D01*
Y911520D01*
X1897250Y913050D01*
X1895300Y911520D01*
Y908480D01*
X1897250Y906950D01*
G01X1810720Y958770D02*
X1806830Y963340D01*
X1803910Y970960D01*
X1801960Y981630D01*
X1803910Y990770D01*
X1807800Y996870D01*
X1814620Y1001440D01*
X1840900D01*
Y910000D01*
X1808770D01*
X1801960Y916090D01*
X1798060Y925240D01*
X1796120Y935910D01*
X1798060Y946570D01*
X1803910Y955720D01*
X1810720Y958770D01*
X1840900D01*
G01X1759240Y910000D02*
Y1001440D01*
X1734900D01*
X1727110Y996870D01*
X1722240Y990770D01*
X1720300Y978580D01*
X1722240Y966390D01*
X1728090Y958770D01*
X1734900Y954190D01*
X1759240D01*
G01X1734900D02*
X1720300Y910000D01*
G01X1682450D02*
Y1001440D01*
X1662980D01*
X1655190Y996870D01*
X1649350Y990770D01*
X1644480Y981630D01*
X1640580Y970960D01*
X1639610Y955720D01*
X1640580Y940480D01*
X1644480Y929810D01*
X1649350Y920670D01*
X1655190Y914570D01*
X1662980Y910000D01*
X1682450D01*
G01X2079370Y3353820D02*
X2085210Y3358390D01*
X2092030Y3361440D01*
X2099820D01*
X2108580Y3356870D01*
X2115390Y3349250D01*
X2120260Y3340100D01*
X2124160Y3324860D01*
X2125130Y3311150D01*
X2123180Y3297430D01*
X2120260Y3288290D01*
X2114420Y3279140D01*
X2107610Y3273050D01*
X2100790Y3270000D01*
X2093970D01*
X2087160Y3273050D01*
X2081320Y3277620D01*
X2076450Y3283710D01*
G01X2038600Y3280670D02*
X2031790Y3273050D01*
X2024000Y3270000D01*
X2016210Y3273050D01*
X2009390Y3282190D01*
X2004520Y3295910D01*
X2002580Y3309620D01*
Y3326390D01*
X2004520Y3340100D01*
X2009390Y3352300D01*
X2015230Y3358390D01*
X2022050Y3361440D01*
X2029840Y3358390D01*
X2035680Y3352300D01*
X2039580Y3343150D01*
X2041520Y3330960D01*
X2039580Y3320290D01*
X2034710Y3309620D01*
X2028870Y3303530D01*
X2022050Y3302000D01*
X2014260Y3305050D01*
X2008420Y3312670D01*
X2002580Y3326390D01*
G01X2257970Y4935420D02*
X2263810Y4939990D01*
X2270630Y4943040D01*
X2278420D01*
X2287180Y4938470D01*
X2293990Y4930850D01*
X2298860Y4921700D01*
X2302760Y4906460D01*
X2303730Y4892750D01*
X2301780Y4879030D01*
X2298860Y4869890D01*
X2293020Y4860740D01*
X2286210Y4854650D01*
X2279390Y4851600D01*
X2272570D01*
X2265760Y4854650D01*
X2259920Y4859220D01*
X2255050Y4865310D01*
G01X2200650Y4851600D02*
Y4943040D01*
X2212330Y4924750D01*
G01Y4851600D02*
X2188970D01*
G01X2143330Y4865310D02*
X2137490Y4857690D01*
X2130670Y4853120D01*
X2121910Y4851600D01*
X2113150Y4854650D01*
X2106330Y4860740D01*
X2101460Y4871410D01*
X2100490Y4883600D01*
X2102440Y4895790D01*
X2107310Y4903420D01*
X2114120Y4909510D01*
X2120940Y4911030D01*
X2127750Y4909510D01*
X2136510Y4903420D01*
X2133590Y4943040D01*
X2107310D01*
G01X3572210Y760000D02*
Y851440D01*
X3552740D01*
X3544950Y846870D01*
X3539110Y840770D01*
X3534240Y831630D01*
X3530340Y820960D01*
X3529370Y805720D01*
X3530340Y790480D01*
X3534240Y779810D01*
X3539110Y770670D01*
X3544950Y764570D01*
X3552740Y760000D01*
X3572210D01*
G01X3496390D02*
X3472050Y851440D01*
X3447710Y760000D01*
G01X3456470Y792000D02*
X3487630D01*
G01X3393310Y851440D02*
Y760000D01*
G01X3415700Y851440D02*
X3370920D01*
G01X3295100Y760000D02*
X3334040D01*
Y851440D01*
X3295100D01*
G01X3310680Y807250D02*
X3334040D01*
G01X3235830Y756950D02*
X3237780Y758480D01*
Y761520D01*
X3235830Y763050D01*
X3233880Y761520D01*
Y758480D01*
X3235830Y756950D01*
G01Y798100D02*
X3237780Y799620D01*
Y802670D01*
X3235830Y804190D01*
X3233880Y802670D01*
Y799620D01*
X3235830Y798100D01*
G01X3175590Y836200D02*
X3169750Y845340D01*
X3162930Y849920D01*
X3155140Y851440D01*
X3145410Y848390D01*
X3138590Y840770D01*
X3136640Y831630D01*
X3137620Y822480D01*
X3141510Y814860D01*
X3160980Y799620D01*
X3169750Y788960D01*
X3175590Y773710D01*
X3177540Y760000D01*
X3136640D01*
G01X3078350Y851440D02*
X3086140Y848390D01*
X3091980Y840770D01*
X3095880Y831630D01*
X3098800Y819430D01*
X3099770Y805720D01*
X3098800Y792000D01*
X3095880Y779810D01*
X3091980Y770670D01*
X3086140Y763050D01*
X3078350Y760000D01*
X3070560Y763050D01*
X3064720Y770670D01*
X3060820Y779810D01*
X3057900Y792000D01*
X3056930Y805720D01*
X3057900Y819430D01*
X3060820Y831630D01*
X3064720Y840770D01*
X3070560Y848390D01*
X3078350Y851440D01*
G01X2999610Y760000D02*
Y851440D01*
X3011290Y833150D01*
G01Y760000D02*
X2987930D01*
G01X2939370Y798100D02*
X2932550Y808770D01*
X2926710Y814860D01*
X2918920Y817910D01*
X2912110Y814860D01*
X2907240Y808770D01*
X2903340Y799620D01*
X2902370Y788960D01*
X2903340Y779810D01*
X2907240Y770670D01*
X2913080Y763050D01*
X2919900Y760000D01*
X2927690Y763050D01*
X2934500Y772190D01*
X2938400Y785910D01*
X2939370Y801150D01*
X2937420Y820960D01*
X2934500Y831630D01*
X2929630Y842300D01*
X2922820Y849920D01*
X2916000Y851440D01*
X2909190Y848390D01*
X2904320Y840770D01*
G01X2871340Y729520D02*
X2812920D01*
G01X2763390Y851440D02*
X2771180Y848390D01*
X2777020Y840770D01*
X2780920Y831630D01*
X2783840Y819430D01*
X2784810Y805720D01*
X2783840Y792000D01*
X2780920Y779810D01*
X2777020Y770670D01*
X2771180Y763050D01*
X2763390Y760000D01*
X2755600Y763050D01*
X2749760Y770670D01*
X2745860Y779810D01*
X2742940Y792000D01*
X2741970Y805720D01*
X2742940Y819430D01*
X2745860Y831630D01*
X2749760Y840770D01*
X2755600Y848390D01*
X2763390Y851440D01*
G01X2703150Y798100D02*
X2696330Y808770D01*
X2690490Y814860D01*
X2682700Y817910D01*
X2675890Y814860D01*
X2671020Y808770D01*
X2667120Y799620D01*
X2666150Y788960D01*
X2667120Y779810D01*
X2671020Y770670D01*
X2676860Y763050D01*
X2683680Y760000D01*
X2691470Y763050D01*
X2698280Y772190D01*
X2702180Y785910D01*
X2703150Y801150D01*
X2701200Y820960D01*
X2698280Y831630D01*
X2693410Y842300D01*
X2686600Y849920D01*
X2679780Y851440D01*
X2672970Y848390D01*
X2668100Y840770D01*
G01X2635120Y729520D02*
X2576700D01*
G01X2548590Y778290D02*
X2542750Y767620D01*
X2534960Y761520D01*
X2526200Y760000D01*
X2518410Y761520D01*
X2510620Y769140D01*
X2505750Y778290D01*
X2504780Y787430D01*
X2506720Y798100D01*
X2513540Y805720D01*
X2520350Y808770D01*
X2529120D01*
G01X2520350D02*
X2514510Y813340D01*
X2509640Y820960D01*
X2507700Y830100D01*
X2509640Y839250D01*
X2514510Y846870D01*
X2523280Y851440D01*
X2532040Y849920D01*
X2540800Y843820D01*
G01X2448430Y851440D02*
X2456220Y848390D01*
X2462060Y840770D01*
X2465960Y831630D01*
X2468880Y819430D01*
X2469850Y805720D01*
X2468880Y792000D01*
X2465960Y779810D01*
X2462060Y770670D01*
X2456220Y763050D01*
X2448430Y760000D01*
X2440640Y763050D01*
X2434800Y770670D01*
X2430900Y779810D01*
X2427980Y792000D01*
X2427010Y805720D01*
X2427980Y819430D01*
X2430900Y831630D01*
X2434800Y840770D01*
X2440640Y848390D01*
X2448430Y851440D01*
G01X2553820Y2720630D02*
X2558390Y2714790D01*
X2561440Y2707970D01*
Y2700180D01*
X2556870Y2691420D01*
X2549250Y2684610D01*
X2540100Y2679740D01*
X2524860Y2675840D01*
X2511150Y2674870D01*
X2497430Y2676820D01*
X2488290Y2679740D01*
X2479140Y2685580D01*
X2473050Y2692390D01*
X2470000Y2699210D01*
Y2706030D01*
X2473050Y2712840D01*
X2477620Y2718680D01*
X2483710Y2723550D01*
G01X2470000Y2777950D02*
X2561440D01*
X2543150Y2766270D01*
G01X2470000D02*
Y2789630D01*
G01Y2856690D02*
X2561440D01*
X2543150Y2845010D01*
G01X2470000D02*
Y2868370D01*
G01X2513820Y3830630D02*
X2518390Y3824790D01*
X2521440Y3817970D01*
Y3810180D01*
X2516870Y3801420D01*
X2509250Y3794610D01*
X2500100Y3789740D01*
X2484860Y3785840D01*
X2471150Y3784870D01*
X2457430Y3786820D01*
X2448290Y3789740D01*
X2439140Y3795580D01*
X2433050Y3802390D01*
X2430000Y3809210D01*
Y3816030D01*
X2433050Y3822840D01*
X2437620Y3828680D01*
X2443710Y3833550D01*
G01X2430000Y3887950D02*
X2431520Y3894770D01*
X2436090Y3902550D01*
X2443710Y3907420D01*
X2454380Y3909370D01*
X2465050Y3907420D01*
X2474190Y3901580D01*
X2478770Y3892820D01*
Y3883080D01*
X2481820Y3877240D01*
X2489430Y3872370D01*
X2500100Y3870420D01*
X2510770Y3873350D01*
X2518390Y3880160D01*
X2521440Y3887950D01*
X2518390Y3895740D01*
X2510770Y3902550D01*
X2500100Y3905480D01*
X2489430Y3903530D01*
X2481820Y3898660D01*
X2478770Y3892820D01*
Y3883080D01*
X2474190Y3874320D01*
X2465050Y3868480D01*
X2454380Y3866530D01*
X2443710Y3868480D01*
X2436090Y3873350D01*
X2431520Y3881130D01*
X2430000Y3887950D01*
G01X3543000Y658770D02*
X3539110Y663340D01*
X3536190Y670960D01*
X3534240Y681630D01*
X3536190Y690770D01*
X3540080Y696870D01*
X3546900Y701440D01*
X3573180D01*
Y610000D01*
X3541050D01*
X3534240Y616090D01*
X3530340Y625240D01*
X3528400Y635910D01*
X3530340Y646570D01*
X3536190Y655720D01*
X3543000Y658770D01*
X3573180D01*
G01X3472050Y610000D02*
Y651150D01*
X3491520Y701440D01*
G01X3452580D02*
X3472050Y651150D01*
G01X3393310Y606950D02*
X3395260Y608480D01*
Y611520D01*
X3393310Y613050D01*
X3391360Y611520D01*
Y608480D01*
X3393310Y606950D01*
G01Y648100D02*
X3395260Y649620D01*
Y652670D01*
X3393310Y654190D01*
X3391360Y652670D01*
Y649620D01*
X3393310Y648100D01*
G01X3335020Y610000D02*
X3294120Y701440D01*
G01X3335020D02*
X3294120Y610000D01*
G01X3256280D02*
X3215380Y701440D01*
G01X3256280D02*
X3215380Y610000D01*
G01X3177540D02*
X3136640Y701440D01*
G01X3177540D02*
X3136640Y610000D01*
G01X3097820Y701440D02*
Y610000D01*
X3058880D01*
G01X3018110Y701440D02*
X2981110D01*
X3018110Y610000D01*
X2981110D01*
G01X2940340Y628290D02*
X2935470Y619140D01*
X2929630Y613050D01*
X2922820Y610000D01*
X2915030Y613050D01*
X2909190Y619140D01*
X2903340Y628290D01*
X2901400Y640480D01*
Y701440D01*
G01X2862580Y610000D02*
X2821680Y701440D01*
G01X2862580D02*
X2821680Y610000D01*
G01X2783840D02*
X2742940Y701440D01*
G01X2783840D02*
X2742940Y610000D01*
G01X2705100D02*
X2664200Y701440D01*
G01X2705100D02*
X2664200Y610000D01*
G01X2703820Y2720630D02*
X2708390Y2714790D01*
X2711440Y2707970D01*
Y2700180D01*
X2706870Y2691420D01*
X2699250Y2684610D01*
X2690100Y2679740D01*
X2674860Y2675840D01*
X2661150Y2674870D01*
X2647430Y2676820D01*
X2638290Y2679740D01*
X2629140Y2685580D01*
X2623050Y2692390D01*
X2620000Y2699210D01*
Y2706030D01*
X2623050Y2712840D01*
X2627620Y2718680D01*
X2633710Y2723550D01*
G01X2620000Y2776000D02*
X2639810Y2777950D01*
X2656570Y2780870D01*
X2671820Y2784770D01*
X2688580Y2789630D01*
X2711440Y2797420D01*
Y2758480D01*
G01X2770790Y3281440D02*
Y3190000D01*
G01X2793180Y3281440D02*
X2748400D01*
G01X2711520Y3190000D02*
Y3281440D01*
X2688160D01*
X2680370Y3276870D01*
X2674520Y3266200D01*
X2672580Y3254010D01*
X2674520Y3241820D01*
X2679390Y3232670D01*
X2688160Y3228100D01*
X2711520D01*
G01X2634730Y3208290D02*
X2628890Y3197620D01*
X2621100Y3191520D01*
X2612340Y3190000D01*
X2604550Y3191520D01*
X2596760Y3199140D01*
X2591890Y3208290D01*
X2590920Y3217430D01*
X2592860Y3228100D01*
X2599680Y3235720D01*
X2606490Y3238770D01*
X2615260D01*
G01X2606490D02*
X2600650Y3243340D01*
X2595780Y3250960D01*
X2593840Y3260100D01*
X2595780Y3269250D01*
X2600650Y3276870D01*
X2609420Y3281440D01*
X2618180Y3279920D01*
X2626940Y3273820D01*
G01X2663820Y3830630D02*
X2668390Y3824790D01*
X2671440Y3817970D01*
Y3810180D01*
X2666870Y3801420D01*
X2659250Y3794610D01*
X2650100Y3789740D01*
X2634860Y3785840D01*
X2621150Y3784870D01*
X2607430Y3786820D01*
X2598290Y3789740D01*
X2589140Y3795580D01*
X2583050Y3802390D01*
X2580000Y3809210D01*
Y3816030D01*
X2583050Y3822840D01*
X2587620Y3828680D01*
X2593710Y3833550D01*
G01Y3866530D02*
X2586090Y3872370D01*
X2581520Y3879190D01*
X2580000Y3887950D01*
X2583050Y3896710D01*
X2589140Y3903530D01*
X2599810Y3908400D01*
X2612000Y3909370D01*
X2624190Y3907420D01*
X2631820Y3902550D01*
X2637910Y3895740D01*
X2639430Y3888920D01*
X2637910Y3882110D01*
X2631820Y3873350D01*
X2671440Y3876270D01*
Y3902550D01*
G01X3040790Y3281440D02*
Y3190000D01*
G01X3063180Y3281440D02*
X3018400D01*
G01X2981520Y3190000D02*
Y3281440D01*
X2958160D01*
X2950370Y3276870D01*
X2944520Y3266200D01*
X2942580Y3254010D01*
X2944520Y3241820D01*
X2949390Y3232670D01*
X2958160Y3228100D01*
X2981520D01*
G01X2901810Y3266200D02*
X2895970Y3275340D01*
X2889150Y3279920D01*
X2881360Y3281440D01*
X2871630Y3278390D01*
X2864810Y3270770D01*
X2862860Y3261630D01*
X2863840Y3252480D01*
X2867730Y3244860D01*
X2887200Y3229620D01*
X2895970Y3218960D01*
X2901810Y3203710D01*
X2903760Y3190000D01*
X2862860D01*
G01X2864440Y3797540D02*
X2773000D01*
Y3836480D01*
G01X2849200Y3877250D02*
X2858340Y3883090D01*
X2862920Y3889910D01*
X2864440Y3897700D01*
X2861390Y3907430D01*
X2853770Y3914250D01*
X2844630Y3916200D01*
X2835480Y3915220D01*
X2827860Y3911330D01*
X2812620Y3891860D01*
X2801960Y3883090D01*
X2786710Y3877250D01*
X2773000Y3875300D01*
Y3916200D01*
G01X2759200Y4130000D02*
X2860800D01*
G01X3074440Y3797540D02*
X2983000D01*
Y3836480D01*
G01Y3895750D02*
X3074440D01*
X3056150Y3884070D01*
G01X2983000D02*
Y3907430D01*
G01X2969200Y4130000D02*
X3070800D01*
G01X3300790Y3281440D02*
Y3190000D01*
G01X3323180Y3281440D02*
X3278400D01*
G01X3241520Y3190000D02*
Y3281440D01*
X3218160D01*
X3210370Y3276870D01*
X3204520Y3266200D01*
X3202580Y3254010D01*
X3204520Y3241820D01*
X3209390Y3232670D01*
X3218160Y3228100D01*
X3241520D01*
G01X3143310Y3190000D02*
Y3281440D01*
X3154990Y3263150D01*
G01Y3190000D02*
X3131630D01*
M02*
