G04 ================== begin FILE IDENTIFICATION RECORD ==================*
G04 Layout Name:  LAN9500_TEST_V10A.brd*
G04 Film Name:    ADB*
G04 File Format:  Gerber RS274X*
G04 File Origin:  Cadence Allegro 16.6-2015-S075*
G04 Origin Date:  Fri Aug 11 23:33:33 2017*
G04 *
G04 Layer:  REF DES/SILKSCREEN_BOTTOM*
G04 Layer:  PIN/BOTTOM*
G04 Layer:  PACKAGE GEOMETRY/SILKSCREEN_BOTTOM*
G04 Layer:  BOARD GEOMETRY/SILKSCREEN_BOTTOM*
G04 Layer:  BOARD GEOMETRY/OUTLINE*
G04 *
G04 Offset:    (0.0000 0.0000)*
G04 Mirror:    No*
G04 Mode:      Positive*
G04 Rotation:  0*
G04 FullContactRelief:  No*
G04 UndefLineWidth:     0.1524*
G04 ================== end FILE IDENTIFICATION RECORD ====================*
%FSLAX55Y55*MOMM*%
%IR0*IPPOS*OFA0.00000B0.00000*MIA0B0*SFA1.00000B1.00000*%
%ADD14R,.6604X1.016*%
%ADD10C,3.3*%
%ADD13C,1.6*%
%ADD18C,2.7*%
%ADD12R,1.6X1.6*%
%ADD15R,.9144X.9144*%
%ADD17C,1.6993*%
%ADD11R,.9144X.9144*%
%ADD16R,1.1938X1.1938*%
%ADD19C,.2032*%
%ADD20C,.254*%
%ADD21C,.1524*%
G75*
%LPD*%
G75*
G54D10*
X270000Y330000D03*
Y1530000D03*
X5060000Y358500D03*
Y1501500D03*
G54D20*
G01X2760000Y110000D02*
X3140000D01*
Y270000D01*
X2760000D01*
Y110000D01*
G01X3090000Y1040000D02*
X3470000D01*
Y1200000D01*
X3090000D01*
Y1040000D01*
G01X3470000Y1390000D02*
X3090000D01*
Y1230000D01*
X3470000D01*
Y1390000D01*
G54D11*
X193800Y850000D03*
Y1010000D03*
X346200Y850000D03*
Y1010000D03*
X1873800Y580000D03*
Y730000D03*
X1733800Y1620000D03*
X1886200D03*
X1733800Y1470000D03*
X1886200D03*
Y1320000D03*
X1733800D03*
X2026200Y580000D03*
Y730000D03*
X2406200Y1470000D03*
X2253800D03*
X2833800Y390000D03*
X2823800Y610000D03*
Y760000D03*
Y1310000D03*
X2986200Y390000D03*
X2976200Y610000D03*
Y760000D03*
X3253800Y950000D03*
X3406200D03*
X2976200Y1310000D03*
X3773800Y1680000D03*
X3926200D03*
Y1530000D03*
X3773800D03*
X4673800Y1000000D03*
X4826200D03*
X4673800Y1150000D03*
X4826200D03*
X4673800Y850000D03*
X4826200D03*
X5556200Y870000D03*
X5403800D03*
X5556200Y1020000D03*
X5403800D03*
G54D21*
G01X300000Y0D02*
X5830000D01*
G03X6130000Y300000I0J300000D01*
G01Y1560000D01*
G03X5830000Y1860000I-300000J0D01*
G01X300000D01*
G03X0Y1560000I0J-300000D01*
G01Y300000D01*
G03X300000Y0I300000J0D01*
G01X345000Y1155000D02*
G03I-75000J0D01*
G01Y705000D02*
G03I-75000J0D01*
G01X2196670Y170000D02*
Y60000D01*
X2143330D01*
G01X2113330D02*
X2080000Y170000D01*
X2046670Y60000D01*
G01X2058670Y98500D02*
X2101330D01*
G01X2020670Y60000D02*
Y170000D01*
X1959330Y60000D01*
Y170000D01*
G01X1922670Y72830D02*
X1913330Y63670D01*
X1902670Y60000D01*
X1892000Y63670D01*
X1882670Y74660D01*
X1876000Y91170D01*
X1873330Y107670D01*
Y127830D01*
X1876000Y144330D01*
X1882670Y159000D01*
X1890670Y166330D01*
X1900000Y170000D01*
X1910670Y166330D01*
X1918670Y159000D01*
X1924000Y148000D01*
X1926670Y133330D01*
X1924000Y120500D01*
X1917330Y107670D01*
X1909330Y100330D01*
X1900000Y98500D01*
X1889330Y102160D01*
X1881330Y111330D01*
X1873330Y127830D01*
G01X1839330Y76500D02*
X1831330Y67330D01*
X1822000Y61830D01*
X1810000Y60000D01*
X1798000Y63670D01*
X1788670Y71000D01*
X1782000Y83830D01*
X1780670Y98500D01*
X1783330Y113170D01*
X1790000Y122330D01*
X1799330Y129670D01*
X1808670Y131500D01*
X1818000Y129670D01*
X1830000Y122330D01*
X1826000Y170000D01*
X1790000D01*
G01X1720000D02*
X1730670Y166330D01*
X1738670Y157170D01*
X1744000Y146170D01*
X1748000Y131500D01*
X1749330Y115000D01*
X1748000Y98500D01*
X1744000Y83830D01*
X1738670Y72830D01*
X1730670Y63670D01*
X1720000Y60000D01*
X1709330Y63670D01*
X1701330Y72830D01*
X1696000Y83830D01*
X1692000Y98500D01*
X1690670Y115000D01*
X1692000Y131500D01*
X1696000Y146170D01*
X1701330Y157170D01*
X1709330Y166330D01*
X1720000Y170000D01*
G01X1630000D02*
X1640670Y166330D01*
X1648670Y157170D01*
X1654000Y146170D01*
X1658000Y131500D01*
X1659330Y115000D01*
X1658000Y98500D01*
X1654000Y83830D01*
X1648670Y72830D01*
X1640670Y63670D01*
X1630000Y60000D01*
X1619330Y63670D01*
X1611330Y72830D01*
X1606000Y83830D01*
X1602000Y98500D01*
X1600670Y115000D01*
X1602000Y131500D01*
X1606000Y146170D01*
X1611330Y157170D01*
X1619330Y166330D01*
X1630000Y170000D01*
G01X1580000Y23330D02*
X1500000D01*
G01X1450000Y170000D02*
Y60000D01*
G01X1480670Y170000D02*
X1419330D01*
G01X1333330Y60000D02*
X1386670D01*
Y170000D01*
X1333330D01*
G01X1354670Y116830D02*
X1386670D01*
G01X1298000Y74660D02*
X1287330Y65500D01*
X1275330Y60000D01*
X1264670D01*
X1254000Y65500D01*
X1246000Y74660D01*
X1242000Y87500D01*
X1244670Y100330D01*
X1251330Y111330D01*
X1263330Y118670D01*
X1279330Y122330D01*
X1288670Y129670D01*
X1292670Y142500D01*
X1290000Y155330D01*
X1283330Y164500D01*
X1274000Y170000D01*
X1264670D01*
X1255330Y166330D01*
X1247330Y157170D01*
G01X1180000Y170000D02*
Y60000D01*
G01X1210670Y170000D02*
X1149330D01*
G01X1130000Y23330D02*
X1050000D01*
G01X1033330Y170000D02*
X1000000Y60000D01*
X966670Y170000D01*
G01X910000Y60000D02*
Y170000D01*
X926000Y148000D01*
G01Y60000D02*
X894000D01*
G01X820000Y170000D02*
X830670Y166330D01*
X838670Y157170D01*
X844000Y146170D01*
X848000Y131500D01*
X849330Y115000D01*
X848000Y98500D01*
X844000Y83830D01*
X838670Y72830D01*
X830670Y63670D01*
X820000Y60000D01*
X809330Y63670D01*
X801330Y72830D01*
X796000Y83830D01*
X792000Y98500D01*
X790670Y115000D01*
X792000Y131500D01*
X796000Y146170D01*
X801330Y157170D01*
X809330Y166330D01*
X820000Y170000D01*
G01X763330Y60000D02*
X730000Y170000D01*
X696670Y60000D01*
G01X708670Y98500D02*
X751330D01*
G01X640000Y56330D02*
X642670Y58170D01*
Y61830D01*
X640000Y63670D01*
X637330Y61830D01*
Y58170D01*
X640000Y56330D01*
G01X539330Y118670D02*
X534000Y124170D01*
X530000Y133330D01*
X527330Y146170D01*
X530000Y157170D01*
X535330Y164500D01*
X544670Y170000D01*
X580670D01*
Y60000D01*
X536670D01*
X527330Y67330D01*
X522000Y78330D01*
X519330Y91170D01*
X522000Y104000D01*
X530000Y115000D01*
X539330Y118670D01*
X580670D01*
G01X486670Y60000D02*
Y170000D01*
X453330D01*
X442670Y164500D01*
X436000Y157170D01*
X433330Y142500D01*
X436000Y127830D01*
X444000Y118670D01*
X453330Y113170D01*
X486670D01*
G01X453330D02*
X433330Y60000D01*
G01X399330D02*
Y170000D01*
X372670D01*
X362000Y164500D01*
X354000Y157170D01*
X347330Y146170D01*
X342000Y133330D01*
X340670Y115000D01*
X342000Y96670D01*
X347330Y83830D01*
X354000Y72830D01*
X362000Y65500D01*
X372670Y60000D01*
X399330D01*
G01X830670Y890830D02*
X838670Y896330D01*
X848000Y900000D01*
X858670D01*
X870670Y894500D01*
X880000Y885330D01*
X886670Y874330D01*
X892000Y856000D01*
X893330Y839500D01*
X890670Y823000D01*
X886670Y812000D01*
X878670Y801000D01*
X869330Y793670D01*
X860000Y790000D01*
X850670D01*
X841330Y793670D01*
X833330Y799160D01*
X826670Y806500D01*
G01X770000Y790000D02*
Y900000D01*
X786000Y878000D01*
G01Y790000D02*
X754000D01*
G01X682670D02*
X680000Y813830D01*
X676000Y834000D01*
X670670Y852330D01*
X664000Y872500D01*
X653330Y900000D01*
X706670D01*
G01X886670Y960000D02*
Y1070000D01*
X853330D01*
X842670Y1064500D01*
X836000Y1057170D01*
X833330Y1042500D01*
X836000Y1027830D01*
X844000Y1018670D01*
X853330Y1013170D01*
X886670D01*
G01X853330D02*
X833330Y960000D01*
G01X770000D02*
Y1070000D01*
X786000Y1048000D01*
G01Y960000D02*
X754000D01*
G01X680000D02*
X670670Y961830D01*
X660000Y967330D01*
X653330Y976500D01*
X650670Y989330D01*
X653330Y1002160D01*
X661330Y1013170D01*
X673330Y1018670D01*
X686670D01*
X694670Y1022330D01*
X701330Y1031500D01*
X704000Y1044330D01*
X700000Y1057170D01*
X690670Y1066330D01*
X680000Y1070000D01*
X669330Y1066330D01*
X660000Y1057170D01*
X656000Y1044330D01*
X658670Y1031500D01*
X665330Y1022330D01*
X673330Y1018670D01*
X686670D01*
X698670Y1013170D01*
X706670Y1002160D01*
X709330Y989330D01*
X706670Y976500D01*
X700000Y967330D01*
X689330Y961830D01*
X680000Y960000D01*
G01X2195330Y351670D02*
X2187330Y362660D01*
X2178000Y368170D01*
X2167330Y370000D01*
X2154000Y366330D01*
X2144670Y357170D01*
X2142000Y346170D01*
X2143330Y335160D01*
X2148670Y326000D01*
X2175330Y307670D01*
X2187330Y294830D01*
X2195330Y276500D01*
X2198000Y260000D01*
X2142000D01*
G01X2080000Y370000D02*
X2090670Y366330D01*
X2098670Y357170D01*
X2104000Y346170D01*
X2108000Y331500D01*
X2109330Y315000D01*
X2108000Y298500D01*
X2104000Y283830D01*
X2098670Y272830D01*
X2090670Y263670D01*
X2080000Y260000D01*
X2069330Y263670D01*
X2061330Y272830D01*
X2056000Y283830D01*
X2052000Y298500D01*
X2050670Y315000D01*
X2052000Y331500D01*
X2056000Y346170D01*
X2061330Y357170D01*
X2069330Y366330D01*
X2080000Y370000D01*
G01X1990000Y260000D02*
Y370000D01*
X2006000Y348000D01*
G01Y260000D02*
X1974000D01*
G01X1902670D02*
X1900000Y283830D01*
X1896000Y304000D01*
X1890670Y322330D01*
X1884000Y342500D01*
X1873330Y370000D01*
X1926670D01*
G01X1850000Y223330D02*
X1770000D01*
G01X1720000Y370000D02*
X1730670Y366330D01*
X1738670Y357170D01*
X1744000Y346170D01*
X1748000Y331500D01*
X1749330Y315000D01*
X1748000Y298500D01*
X1744000Y283830D01*
X1738670Y272830D01*
X1730670Y263670D01*
X1720000Y260000D01*
X1709330Y263670D01*
X1701330Y272830D01*
X1696000Y283830D01*
X1692000Y298500D01*
X1690670Y315000D01*
X1692000Y331500D01*
X1696000Y346170D01*
X1701330Y357170D01*
X1709330Y366330D01*
X1720000Y370000D01*
G01X1630000Y260000D02*
X1620670Y261830D01*
X1610000Y267330D01*
X1603330Y276500D01*
X1600670Y289330D01*
X1603330Y302160D01*
X1611330Y313170D01*
X1623330Y318670D01*
X1636670D01*
X1644670Y322330D01*
X1651330Y331500D01*
X1654000Y344330D01*
X1650000Y357170D01*
X1640670Y366330D01*
X1630000Y370000D01*
X1619330Y366330D01*
X1610000Y357170D01*
X1606000Y344330D01*
X1608670Y331500D01*
X1615330Y322330D01*
X1623330Y318670D01*
X1636670D01*
X1648670Y313170D01*
X1656670Y302160D01*
X1659330Y289330D01*
X1656670Y276500D01*
X1650000Y267330D01*
X1639330Y261830D01*
X1630000Y260000D01*
G01X1580000Y223330D02*
X1500000D01*
G01X1450000Y260000D02*
Y370000D01*
X1466000Y348000D01*
G01Y260000D02*
X1434000D01*
G01X1360000D02*
Y370000D01*
X1376000Y348000D01*
G01Y260000D02*
X1344000D01*
G01X1680670Y630830D02*
X1688670Y636330D01*
X1698000Y640000D01*
X1708670D01*
X1720670Y634500D01*
X1730000Y625330D01*
X1736670Y614330D01*
X1742000Y596000D01*
X1743330Y579500D01*
X1740670Y563000D01*
X1736670Y552000D01*
X1728670Y541000D01*
X1719330Y533670D01*
X1710000Y530000D01*
X1700670D01*
X1691330Y533670D01*
X1683330Y539160D01*
X1676670Y546500D01*
G01X1620000Y530000D02*
Y640000D01*
X1636000Y618000D01*
G01Y530000D02*
X1604000D01*
G01X1555330Y621670D02*
X1547330Y632660D01*
X1538000Y638170D01*
X1527330Y640000D01*
X1514000Y636330D01*
X1504670Y627170D01*
X1502000Y616170D01*
X1503330Y605160D01*
X1508670Y596000D01*
X1535330Y577670D01*
X1547330Y564830D01*
X1555330Y546500D01*
X1558000Y530000D01*
X1502000D01*
G01X1489330Y1220000D02*
Y1141170D01*
X1484000Y1124660D01*
X1473330Y1113670D01*
X1460000Y1110000D01*
X1446670Y1113670D01*
X1436000Y1124660D01*
X1430670Y1141170D01*
Y1220000D01*
G01X1395330Y1201670D02*
X1387330Y1212660D01*
X1378000Y1218170D01*
X1367330Y1220000D01*
X1354000Y1216330D01*
X1344670Y1207170D01*
X1342000Y1196170D01*
X1343330Y1185160D01*
X1348670Y1176000D01*
X1375330Y1157670D01*
X1387330Y1144830D01*
X1395330Y1126500D01*
X1398000Y1110000D01*
X1342000D01*
G01X1680670Y780830D02*
X1688670Y786330D01*
X1698000Y790000D01*
X1708670D01*
X1720670Y784500D01*
X1730000Y775330D01*
X1736670Y764330D01*
X1742000Y746000D01*
X1743330Y729500D01*
X1740670Y713000D01*
X1736670Y702000D01*
X1728670Y691000D01*
X1719330Y683670D01*
X1710000Y680000D01*
X1700670D01*
X1691330Y683670D01*
X1683330Y689160D01*
X1676670Y696500D01*
G01X1620000Y680000D02*
Y790000D01*
X1636000Y768000D01*
G01Y680000D02*
X1604000D01*
G01X1530000D02*
Y790000D01*
X1546000Y768000D01*
G01Y680000D02*
X1514000D01*
G01X1936670Y1120000D02*
Y1230000D01*
X1903330D01*
X1892670Y1224500D01*
X1886000Y1217170D01*
X1883330Y1202500D01*
X1886000Y1187830D01*
X1894000Y1178670D01*
X1903330Y1173170D01*
X1936670D01*
G01X1903330D02*
X1883330Y1120000D01*
G01X1820000D02*
Y1230000D01*
X1836000Y1208000D01*
G01Y1120000D02*
X1804000D01*
G01X1755330Y1165830D02*
X1746000Y1178670D01*
X1738000Y1186000D01*
X1727330Y1189670D01*
X1718000Y1186000D01*
X1711330Y1178670D01*
X1706000Y1167670D01*
X1704670Y1154830D01*
X1706000Y1143830D01*
X1711330Y1132830D01*
X1719330Y1123670D01*
X1728670Y1120000D01*
X1739330Y1123670D01*
X1748670Y1134660D01*
X1754000Y1151170D01*
X1755330Y1169500D01*
X1752670Y1193330D01*
X1748670Y1206170D01*
X1742000Y1219000D01*
X1732670Y1228170D01*
X1723330Y1230000D01*
X1714000Y1226330D01*
X1707330Y1217170D01*
G01X1936670Y980000D02*
Y1090000D01*
X1903330D01*
X1892670Y1084500D01*
X1886000Y1077170D01*
X1883330Y1062500D01*
X1886000Y1047830D01*
X1894000Y1038670D01*
X1903330Y1033170D01*
X1936670D01*
G01X1903330D02*
X1883330Y980000D01*
G01X1820000D02*
Y1090000D01*
X1836000Y1068000D01*
G01Y980000D02*
X1804000D01*
G01X1732670D02*
X1730000Y1003830D01*
X1726000Y1024000D01*
X1720670Y1042330D01*
X1714000Y1062500D01*
X1703330Y1090000D01*
X1756670D01*
G01X1936670Y840000D02*
Y950000D01*
X1903330D01*
X1892670Y944500D01*
X1886000Y937170D01*
X1883330Y922500D01*
X1886000Y907830D01*
X1894000Y898670D01*
X1903330Y893170D01*
X1936670D01*
G01X1903330D02*
X1883330Y840000D01*
G01X1820000D02*
Y950000D01*
X1836000Y928000D01*
G01Y840000D02*
X1804000D01*
G01X1755330Y931670D02*
X1747330Y942660D01*
X1738000Y948170D01*
X1727330Y950000D01*
X1714000Y946330D01*
X1704670Y937170D01*
X1702000Y926170D01*
X1703330Y915160D01*
X1708670Y906000D01*
X1735330Y887670D01*
X1747330Y874830D01*
X1755330Y856500D01*
X1758000Y840000D01*
X1702000D01*
G01X2480830Y539330D02*
X2486330Y531330D01*
X2490000Y522000D01*
Y511330D01*
X2484500Y499330D01*
X2475330Y490000D01*
X2464330Y483330D01*
X2446000Y478000D01*
X2429500Y476670D01*
X2413000Y479330D01*
X2402000Y483330D01*
X2391000Y491330D01*
X2383670Y500670D01*
X2380000Y510000D01*
Y519330D01*
X2383670Y528670D01*
X2389160Y536670D01*
X2396500Y543330D01*
G01X2380000Y600000D02*
X2381830Y609330D01*
X2387330Y620000D01*
X2396500Y626670D01*
X2409330Y629330D01*
X2422160Y626670D01*
X2433170Y618670D01*
X2438670Y606670D01*
Y593330D01*
X2442330Y585330D01*
X2451500Y578670D01*
X2464330Y576000D01*
X2477170Y580000D01*
X2486330Y589330D01*
X2490000Y600000D01*
X2486330Y610670D01*
X2477170Y620000D01*
X2464330Y624000D01*
X2451500Y621330D01*
X2442330Y614670D01*
X2438670Y606670D01*
Y593330D01*
X2433170Y581330D01*
X2422160Y573330D01*
X2409330Y570670D01*
X2396500Y573330D01*
X2387330Y580000D01*
X2381830Y590670D01*
X2380000Y600000D01*
G01X2330830Y539330D02*
X2336330Y531330D01*
X2340000Y522000D01*
Y511330D01*
X2334500Y499330D01*
X2325330Y490000D01*
X2314330Y483330D01*
X2296000Y478000D01*
X2279500Y476670D01*
X2263000Y479330D01*
X2252000Y483330D01*
X2241000Y491330D01*
X2233670Y500670D01*
X2230000Y510000D01*
Y519330D01*
X2233670Y528670D01*
X2239160Y536670D01*
X2246500Y543330D01*
G01X2230000Y600000D02*
X2340000D01*
X2318000Y584000D01*
G01X2230000D02*
Y616000D01*
G01Y706000D02*
X2340000D01*
X2261170Y656670D01*
Y723330D01*
G01X2640670Y1360830D02*
X2648670Y1366330D01*
X2658000Y1370000D01*
X2668670D01*
X2680670Y1364500D01*
X2690000Y1355330D01*
X2696670Y1344330D01*
X2702000Y1326000D01*
X2703330Y1309500D01*
X2700670Y1293000D01*
X2696670Y1282000D01*
X2688670Y1271000D01*
X2679330Y1263670D01*
X2670000Y1260000D01*
X2660670D01*
X2651330Y1263670D01*
X2643330Y1269160D01*
X2636670Y1276500D01*
G01X2580000Y1260000D02*
Y1370000D01*
X2596000Y1348000D01*
G01Y1260000D02*
X2564000D01*
G01X2490000Y1370000D02*
X2500670Y1366330D01*
X2508670Y1357170D01*
X2514000Y1346170D01*
X2518000Y1331500D01*
X2519330Y1315000D01*
X2518000Y1298500D01*
X2514000Y1283830D01*
X2508670Y1272830D01*
X2500670Y1263670D01*
X2490000Y1260000D01*
X2479330Y1263670D01*
X2471330Y1272830D01*
X2466000Y1283830D01*
X2462000Y1298500D01*
X2460670Y1315000D01*
X2462000Y1331500D01*
X2466000Y1346170D01*
X2471330Y1357170D01*
X2479330Y1366330D01*
X2490000Y1370000D01*
G01X2610670Y1530830D02*
X2618670Y1536330D01*
X2628000Y1540000D01*
X2638670D01*
X2650670Y1534500D01*
X2660000Y1525330D01*
X2666670Y1514330D01*
X2672000Y1496000D01*
X2673330Y1479500D01*
X2670670Y1463000D01*
X2666670Y1452000D01*
X2658670Y1441000D01*
X2649330Y1433670D01*
X2640000Y1430000D01*
X2630670D01*
X2621330Y1433670D01*
X2613330Y1439160D01*
X2606670Y1446500D01*
G01X2572670Y1442830D02*
X2563330Y1433670D01*
X2552670Y1430000D01*
X2542000Y1433670D01*
X2532670Y1444660D01*
X2526000Y1461170D01*
X2523330Y1477670D01*
Y1497830D01*
X2526000Y1514330D01*
X2532670Y1529000D01*
X2540670Y1536330D01*
X2550000Y1540000D01*
X2560670Y1536330D01*
X2568670Y1529000D01*
X2574000Y1518000D01*
X2576670Y1503330D01*
X2574000Y1490500D01*
X2567330Y1477670D01*
X2559330Y1470330D01*
X2550000Y1468500D01*
X2539330Y1472160D01*
X2531330Y1481330D01*
X2523330Y1497830D01*
G01X3290670Y440830D02*
X3298670Y446330D01*
X3308000Y450000D01*
X3318670D01*
X3330670Y444500D01*
X3340000Y435330D01*
X3346670Y424330D01*
X3352000Y406000D01*
X3353330Y389500D01*
X3350670Y373000D01*
X3346670Y362000D01*
X3338670Y351000D01*
X3329330Y343670D01*
X3320000Y340000D01*
X3310670D01*
X3301330Y343670D01*
X3293330Y349160D01*
X3286670Y356500D01*
G01X3230000Y340000D02*
Y450000D01*
X3246000Y428000D01*
G01Y340000D02*
X3214000D01*
G01X3169330Y362000D02*
X3161330Y349160D01*
X3150670Y341830D01*
X3138670Y340000D01*
X3128000Y341830D01*
X3117330Y351000D01*
X3110670Y362000D01*
X3109330Y373000D01*
X3112000Y385830D01*
X3121330Y395000D01*
X3130670Y398670D01*
X3142670D01*
G01X3130670D02*
X3122670Y404170D01*
X3116000Y413330D01*
X3113330Y424330D01*
X3116000Y435330D01*
X3122670Y444500D01*
X3134670Y450000D01*
X3146670Y448170D01*
X3158670Y440830D01*
G01X3290670Y660830D02*
X3298670Y666330D01*
X3308000Y670000D01*
X3318670D01*
X3330670Y664500D01*
X3340000Y655330D01*
X3346670Y644330D01*
X3352000Y626000D01*
X3353330Y609500D01*
X3350670Y593000D01*
X3346670Y582000D01*
X3338670Y571000D01*
X3329330Y563670D01*
X3320000Y560000D01*
X3310670D01*
X3301330Y563670D01*
X3293330Y569160D01*
X3286670Y576500D01*
G01X3230000Y560000D02*
Y670000D01*
X3246000Y648000D01*
G01Y560000D02*
X3214000D01*
G01X3169330Y576500D02*
X3161330Y567330D01*
X3152000Y561830D01*
X3140000Y560000D01*
X3128000Y563670D01*
X3118670Y571000D01*
X3112000Y583830D01*
X3110670Y598500D01*
X3113330Y613170D01*
X3120000Y622330D01*
X3129330Y629670D01*
X3138670Y631500D01*
X3148000Y629670D01*
X3160000Y622330D01*
X3156000Y670000D01*
X3120000D01*
G01X3346670Y250000D02*
Y140000D01*
X3293330D01*
G01X3255330Y231670D02*
X3247330Y242660D01*
X3238000Y248170D01*
X3227330Y250000D01*
X3214000Y246330D01*
X3204670Y237170D01*
X3202000Y226170D01*
X3203330Y215160D01*
X3208670Y206000D01*
X3235330Y187670D01*
X3247330Y174830D01*
X3255330Y156500D01*
X3258000Y140000D01*
X3202000D01*
G01X2950000Y139200D02*
Y240800D01*
G01X3290670Y810830D02*
X3298670Y816330D01*
X3308000Y820000D01*
X3318670D01*
X3330670Y814500D01*
X3340000Y805330D01*
X3346670Y794330D01*
X3352000Y776000D01*
X3353330Y759500D01*
X3350670Y743000D01*
X3346670Y732000D01*
X3338670Y721000D01*
X3329330Y713670D01*
X3320000Y710000D01*
X3310670D01*
X3301330Y713670D01*
X3293330Y719160D01*
X3286670Y726500D01*
G01X3230000Y710000D02*
Y820000D01*
X3246000Y798000D01*
G01Y710000D02*
X3214000D01*
G01X3165330Y755830D02*
X3156000Y768670D01*
X3148000Y776000D01*
X3137330Y779670D01*
X3128000Y776000D01*
X3121330Y768670D01*
X3116000Y757670D01*
X3114670Y744830D01*
X3116000Y733830D01*
X3121330Y722830D01*
X3129330Y713670D01*
X3138670Y710000D01*
X3149330Y713670D01*
X3158670Y724660D01*
X3164000Y741170D01*
X3165330Y759500D01*
X3162670Y783330D01*
X3158670Y796170D01*
X3152000Y809000D01*
X3142670Y818170D01*
X3133330Y820000D01*
X3124000Y816330D01*
X3117330Y807170D01*
G01X3280000Y1069200D02*
Y1170800D01*
G01Y1360800D02*
Y1259200D01*
G01X3700670Y1000830D02*
X3708670Y1006330D01*
X3718000Y1010000D01*
X3728670D01*
X3740670Y1004500D01*
X3750000Y995330D01*
X3756670Y984330D01*
X3762000Y966000D01*
X3763330Y949500D01*
X3760670Y933000D01*
X3756670Y922000D01*
X3748670Y911000D01*
X3739330Y903670D01*
X3730000Y900000D01*
X3720670D01*
X3711330Y903670D01*
X3703330Y909160D01*
X3696670Y916500D01*
G01X3665330Y991670D02*
X3657330Y1002660D01*
X3648000Y1008170D01*
X3637330Y1010000D01*
X3624000Y1006330D01*
X3614670Y997170D01*
X3612000Y986170D01*
X3613330Y975160D01*
X3618670Y966000D01*
X3645330Y947670D01*
X3657330Y934830D01*
X3665330Y916500D01*
X3668000Y900000D01*
X3612000D01*
G01X3550000Y1010000D02*
X3560670Y1006330D01*
X3568670Y997170D01*
X3574000Y986170D01*
X3578000Y971500D01*
X3579330Y955000D01*
X3578000Y938500D01*
X3574000Y923830D01*
X3568670Y912830D01*
X3560670Y903670D01*
X3550000Y900000D01*
X3539330Y903670D01*
X3531330Y912830D01*
X3526000Y923830D01*
X3522000Y938500D01*
X3520670Y955000D01*
X3522000Y971500D01*
X3526000Y986170D01*
X3531330Y997170D01*
X3539330Y1006330D01*
X3550000Y1010000D01*
G01X3666670Y1180000D02*
Y1070000D01*
X3613330D01*
G01X3534000D02*
Y1180000D01*
X3583330Y1101170D01*
X3516670D01*
G01X3590670Y1730830D02*
X3598670Y1736330D01*
X3608000Y1740000D01*
X3618670D01*
X3630670Y1734500D01*
X3640000Y1725330D01*
X3646670Y1714330D01*
X3652000Y1696000D01*
X3653330Y1679500D01*
X3650670Y1663000D01*
X3646670Y1652000D01*
X3638670Y1641000D01*
X3629330Y1633670D01*
X3620000Y1630000D01*
X3610670D01*
X3601330Y1633670D01*
X3593330Y1639160D01*
X3586670Y1646500D01*
G01X3559330Y1652000D02*
X3551330Y1639160D01*
X3540670Y1631830D01*
X3528670Y1630000D01*
X3518000Y1631830D01*
X3507330Y1641000D01*
X3500670Y1652000D01*
X3499330Y1663000D01*
X3502000Y1675830D01*
X3511330Y1685000D01*
X3520670Y1688670D01*
X3532670D01*
G01X3520670D02*
X3512670Y1694170D01*
X3506000Y1703330D01*
X3503330Y1714330D01*
X3506000Y1725330D01*
X3512670Y1734500D01*
X3524670Y1740000D01*
X3536670Y1738170D01*
X3548670Y1730830D01*
G01X3636670Y1470000D02*
Y1580000D01*
X3603330D01*
X3592670Y1574500D01*
X3586000Y1567170D01*
X3583330Y1552500D01*
X3586000Y1537830D01*
X3594000Y1528670D01*
X3603330Y1523170D01*
X3636670D01*
G01X3603330D02*
X3583330Y1470000D01*
G01X3522670D02*
X3520000Y1493830D01*
X3516000Y1514000D01*
X3510670Y1532330D01*
X3504000Y1552500D01*
X3493330Y1580000D01*
X3546670D01*
G01X3666670Y1360000D02*
Y1250000D01*
X3613330D01*
G01X3579330Y1272000D02*
X3571330Y1259160D01*
X3560670Y1251830D01*
X3548670Y1250000D01*
X3538000Y1251830D01*
X3527330Y1261000D01*
X3520670Y1272000D01*
X3519330Y1283000D01*
X3522000Y1295830D01*
X3531330Y1305000D01*
X3540670Y1308670D01*
X3552670D01*
G01X3540670D02*
X3532670Y1314170D01*
X3526000Y1323330D01*
X3523330Y1334330D01*
X3526000Y1345330D01*
X3532670Y1354500D01*
X3544670Y1360000D01*
X3556670Y1358170D01*
X3568670Y1350830D01*
G01X5030670Y1060830D02*
X5038670Y1066330D01*
X5048000Y1070000D01*
X5058670D01*
X5070670Y1064500D01*
X5080000Y1055330D01*
X5086670Y1044330D01*
X5092000Y1026000D01*
X5093330Y1009500D01*
X5090670Y993000D01*
X5086670Y982000D01*
X5078670Y971000D01*
X5069330Y963670D01*
X5060000Y960000D01*
X5050670D01*
X5041330Y963670D01*
X5033330Y969160D01*
X5026670Y976500D01*
G01X4995330Y1051670D02*
X4987330Y1062660D01*
X4978000Y1068170D01*
X4967330Y1070000D01*
X4954000Y1066330D01*
X4944670Y1057170D01*
X4942000Y1046170D01*
X4943330Y1035160D01*
X4948670Y1026000D01*
X4975330Y1007670D01*
X4987330Y994830D01*
X4995330Y976500D01*
X4998000Y960000D01*
X4942000D01*
G01X5030670Y1210830D02*
X5038670Y1216330D01*
X5048000Y1220000D01*
X5058670D01*
X5070670Y1214500D01*
X5080000Y1205330D01*
X5086670Y1194330D01*
X5092000Y1176000D01*
X5093330Y1159500D01*
X5090670Y1143000D01*
X5086670Y1132000D01*
X5078670Y1121000D01*
X5069330Y1113670D01*
X5060000Y1110000D01*
X5050670D01*
X5041330Y1113670D01*
X5033330Y1119160D01*
X5026670Y1126500D01*
G01X4970000Y1110000D02*
Y1220000D01*
X4986000Y1198000D01*
G01Y1110000D02*
X4954000D01*
G01X5086670Y810000D02*
Y920000D01*
X5053330D01*
X5042670Y914500D01*
X5036000Y907170D01*
X5033330Y892500D01*
X5036000Y877830D01*
X5044000Y868670D01*
X5053330Y863170D01*
X5086670D01*
G01X5053330D02*
X5033330Y810000D01*
G01X4995330Y855830D02*
X4986000Y868670D01*
X4978000Y876000D01*
X4967330Y879670D01*
X4958000Y876000D01*
X4951330Y868670D01*
X4946000Y857670D01*
X4944670Y844830D01*
X4946000Y833830D01*
X4951330Y822830D01*
X4959330Y813670D01*
X4968670Y810000D01*
X4979330Y813670D01*
X4988670Y824660D01*
X4994000Y841170D01*
X4995330Y859500D01*
X4992670Y883330D01*
X4988670Y896170D01*
X4982000Y909000D01*
X4972670Y918170D01*
X4963330Y920000D01*
X4954000Y916330D01*
X4947330Y907170D01*
G01X5306670Y820000D02*
Y930000D01*
X5273330D01*
X5262670Y924500D01*
X5256000Y917170D01*
X5253330Y902500D01*
X5256000Y887830D01*
X5264000Y878670D01*
X5273330Y873170D01*
X5306670D01*
G01X5273330D02*
X5253330Y820000D01*
G01X5219330Y836500D02*
X5211330Y827330D01*
X5202000Y821830D01*
X5190000Y820000D01*
X5178000Y823670D01*
X5168670Y831000D01*
X5162000Y843830D01*
X5160670Y858500D01*
X5163330Y873170D01*
X5170000Y882330D01*
X5179330Y889670D01*
X5188670Y891500D01*
X5198000Y889670D01*
X5210000Y882330D01*
X5206000Y930000D01*
X5170000D01*
G01X5306670Y970000D02*
Y1080000D01*
X5273330D01*
X5262670Y1074500D01*
X5256000Y1067170D01*
X5253330Y1052500D01*
X5256000Y1037830D01*
X5264000Y1028670D01*
X5273330Y1023170D01*
X5306670D01*
G01X5273330D02*
X5253330Y970000D01*
G01X5190000D02*
X5180670Y971830D01*
X5170000Y977330D01*
X5163330Y986500D01*
X5160670Y999330D01*
X5163330Y1012160D01*
X5171330Y1023170D01*
X5183330Y1028670D01*
X5196670D01*
X5204670Y1032330D01*
X5211330Y1041500D01*
X5214000Y1054330D01*
X5210000Y1067170D01*
X5200670Y1076330D01*
X5190000Y1080000D01*
X5179330Y1076330D01*
X5170000Y1067170D01*
X5166000Y1054330D01*
X5168670Y1041500D01*
X5175330Y1032330D01*
X5183330Y1028670D01*
X5196670D01*
X5208670Y1023170D01*
X5216670Y1012160D01*
X5219330Y999330D01*
X5216670Y986500D01*
X5210000Y977330D01*
X5199330Y971830D01*
X5190000Y970000D01*
G01X350000Y1155000D02*
G03I-80000J0D01*
G01Y705000D02*
G03I-80000J0D01*
G54D12*
X540000Y580000D03*
G54D13*
Y1030000D03*
Y830000D03*
Y1280000D03*
G54D14*
X1338400Y1333000D03*
X1541600D03*
X1440000Y1587000D03*
G54D15*
X2290000Y193800D03*
Y346200D03*
X2440000Y193800D03*
Y346200D03*
G54D16*
X2845860Y190000D03*
X3054140D03*
X3384140Y1120000D03*
X3175860D03*
Y1310000D03*
X3384140D03*
G54D17*
X4171000Y612000D03*
X4425000Y485000D03*
X4171000Y1120000D03*
Y866000D03*
X4425000Y993000D03*
Y739000D03*
X4171000Y1374000D03*
X4425000Y1247000D03*
X5550000Y267500D03*
Y521500D03*
Y1592500D03*
Y1338500D03*
G54D18*
X4755000Y155500D03*
Y1704500D03*
G54D19*
G01X409700Y786500D02*
X130300D01*
G01Y913500D02*
X409700D01*
G01X130300Y786500D02*
G02Y913500I71651J63500D01*
G01X409700Y1073500D02*
X130300D01*
Y946500D01*
X409700D01*
G01X412240Y786500D02*
G03Y913500I-73330J63500D01*
G01X409700Y946500D02*
Y1073500D01*
G01X1277650Y1366870D02*
X1268760Y1377030D01*
X1258390Y1382110D01*
X1246540Y1383800D01*
X1231720Y1380410D01*
X1221350Y1371950D01*
X1218380Y1361790D01*
X1219870Y1351620D01*
X1225790Y1343160D01*
X1255430Y1326230D01*
X1268760Y1314370D01*
X1277650Y1297440D01*
X1280620Y1282200D01*
X1218380D01*
G01X1383700Y1581920D02*
X1374810Y1570060D01*
X1362950Y1563290D01*
X1349620Y1561600D01*
X1337760Y1563290D01*
X1325910Y1571760D01*
X1318500Y1581920D01*
X1317020Y1592080D01*
X1319980Y1603930D01*
X1330360Y1612400D01*
X1340730Y1615790D01*
X1354060D01*
G01X1340730D02*
X1331840Y1620870D01*
X1324430Y1629330D01*
X1321470Y1639490D01*
X1324430Y1649650D01*
X1331840Y1658120D01*
X1345170Y1663200D01*
X1358510Y1661510D01*
X1371840Y1654730D01*
G01X1490800Y1548900D02*
X1605100D01*
Y1383800D01*
X1274900D01*
Y1548900D01*
X1389200D01*
G01X2089700Y516500D02*
X1810300D01*
G01X1807760Y643500D02*
G03Y516500I73330J-63500D01*
G01X1810300Y793500D02*
X2089700D01*
G01Y666500D02*
X1810300D01*
G01X1807760Y793500D02*
G03Y666500I73330J-63500D01*
G01X1810300Y643500D02*
X2089700D01*
G01X1617800Y1282200D02*
Y1383800D01*
X1635580Y1363480D01*
G01Y1282200D02*
X1600020D01*
G01X1949700Y1683500D02*
X1670300D01*
Y1556500D01*
X1949700D01*
G01Y1533500D02*
X1670300D01*
Y1406500D01*
X1949700D01*
G01X1670300Y1383500D02*
Y1256500D01*
G01D02*
X1949700D01*
Y1383500D01*
X1670300D01*
G01X2089700Y643500D02*
G02Y516500I-71651J-63500D01*
G01X2376500Y130300D02*
Y409700D01*
G01Y127760D02*
G03X2503500I63500J73330D01*
G01X2376500Y409700D02*
G02X2503500I63500J-71651D01*
G01X2226500Y130300D02*
Y409700D01*
G01X2353500D02*
Y130300D01*
G01X2226500Y127760D02*
G03X2353500I63500J73330D01*
G01X2226500Y409700D02*
G02X2353500I63500J-71651D01*
G01X2089700Y793500D02*
G02Y666500I-71651J-63500D01*
G01X2469700Y1406500D02*
X2190300D01*
G01Y1533500D02*
X2469700D01*
G01X2190300Y1406500D02*
G02Y1533500I71651J63500D01*
G01X1949700Y1556500D02*
Y1683500D01*
G01Y1406500D02*
Y1533500D01*
G01X2503500Y409700D02*
Y130300D01*
G01X2770300Y453500D02*
X3049700D01*
G01Y326500D02*
X2770300D01*
G01X2767760Y453500D02*
G03Y326500I73330J-63500D01*
G01X3039700Y546500D02*
X2760300D01*
G01D02*
G02Y673500I71651J63500D01*
G01X3039700Y696500D02*
X2760300D01*
G01Y823500D02*
X3039700D01*
G01X2760300Y696500D02*
G02Y823500I71651J63500D01*
G01Y673500D02*
X3039700D01*
G01Y1246500D02*
X2760300D01*
G01Y1373500D02*
X3039700D01*
G01X2760300Y1246500D02*
G02Y1373500I71651J63500D01*
G01X2472240Y1406500D02*
G03Y1533500I-73330J63500D01*
G01X3049700Y453500D02*
G02Y326500I-71651J-63500D01*
G01X3042240Y546500D02*
G03Y673500I-73330J63500D01*
G01Y696500D02*
G03Y823500I-73330J63500D01*
G01X3190300Y1013500D02*
X3469700D01*
G01Y886500D02*
X3190300D01*
G01X3187760Y1013500D02*
G03Y886500I73330J-63500D01*
G01X3469700Y1013500D02*
G02Y886500I-71651J-63500D01*
G01X3042240Y1246500D02*
G03Y1373500I-73330J63500D01*
G01X3989700Y1616500D02*
X3710300D01*
G01X3707760Y1743500D02*
G03Y1616500I73330J-63500D01*
G01X3989700Y1743500D02*
G02Y1616500I-71651J-63500D01*
G01X3710300Y1593500D02*
Y1466500D01*
G01D02*
X3989700D01*
Y1593500D01*
X3710300D01*
G01Y1743500D02*
X3989700D01*
G01X4610300Y1063500D02*
X4889700D01*
G01Y936500D02*
X4610300D01*
G01X4607760Y1063500D02*
G03Y936500I73330J-63500D01*
G01X4889700Y1063500D02*
G02Y936500I-71651J-63500D01*
G01Y1086500D02*
X4610300D01*
G01X4607760Y1213500D02*
G03Y1086500I73330J-63500D01*
G01X4889700Y1213500D02*
G02Y1086500I-71651J-63500D01*
G01Y786500D02*
Y913500D01*
G01D02*
X4610300D01*
Y786500D01*
X4889700D01*
G01X4610300Y1213500D02*
X4889700D01*
G01X5340300Y933500D02*
Y806500D01*
G01D02*
X5619700D01*
Y933500D01*
X5340300D01*
G01Y1083500D02*
Y956500D01*
G01D02*
X5619700D01*
Y1083500D01*
X5340300D01*
M02*
