G04 ================== begin FILE IDENTIFICATION RECORD ==================*
G04 Layout Name:  H:/GitHub/MBEDBoard/DRV10983_TEST_V10A/PCB/DRV10983_TEST_V10A.brd*
G04 Film Name:    Drill_Legend*
G04 File Format:  Gerber RS274X*
G04 File Origin:  Cadence Allegro 16.6-2015-S088*
G04 Origin Date:  Fri Aug 18 17:14:35 2017*
G04 *
G04 Layer:  MANUFACTURING/NCDRILL_LEGEND*
G04 Layer:  MANUFACTURING/NCDRILL_FIGURE*
G04 Layer:  BOARD GEOMETRY/DIMENSION*
G04 Layer:  MANUFACTURING/NCLEGEND-1-2*
G04 Layer:  BOARD GEOMETRY/OUTLINE*
G04 *
G04 Offset:    (0.0000 0.0000)*
G04 Mirror:    No*
G04 Mode:      Positive*
G04 Rotation:  0*
G04 FullContactRelief:  No*
G04 UndefLineWidth:     0.1524*
G04 ================== end FILE IDENTIFICATION RECORD ====================*
%FSLAX55Y55*MOMM*%
%IR0*IPPOS*OFA0.00000B0.00000*MIA0B0*SFA1.00000B1.00000*%
%AMMACRO17*
1,1,.1524,-.4,-.8*
20,1,.1524,-.4,-.8,-.4,.8,0.0*
1,1,.1524,-.4,.8*
20,1,.1524,-.4,.8,-.393923,.869459,0.0*
1,1,.1524,-.393923,.869459*
20,1,.1524,-.393923,.869459,-.375877,.936808,0.0*
1,1,.1524,-.375877,.936808*
20,1,.1524,-.375877,.936808,-.34641,1.,0.0*
1,1,.1524,-.34641,1.*
20,1,.1524,-.34641,1.,-.306418,1.057115,0.0*
1,1,.1524,-.306418,1.057115*
20,1,.1524,-.306418,1.057115,-.257115,1.106418,0.0*
1,1,.1524,-.257115,1.106418*
20,1,.1524,-.257115,1.106418,-.2,1.14641,0.0*
1,1,.1524,-.2,1.14641*
20,1,.1524,-.2,1.14641,-.136808,1.175877,0.0*
1,1,.1524,-.136808,1.175877*
20,1,.1524,-.136808,1.175877,-.069459,1.193923,0.0*
1,1,.1524,-.069459,1.193923*
20,1,.1524,-.069459,1.193923,0.0,1.2,0.0*
1,1,.1524,0.0,1.2*
20,1,.1524,0.0,1.2,.069459,1.193923,0.0*
1,1,.1524,.069459,1.193923*
20,1,.1524,.069459,1.193923,.136808,1.175877,0.0*
1,1,.1524,.136808,1.175877*
20,1,.1524,.136808,1.175877,.2,1.14641,0.0*
1,1,.1524,.2,1.14641*
20,1,.1524,.2,1.14641,.257115,1.106418,0.0*
1,1,.1524,.257115,1.106418*
20,1,.1524,.257115,1.106418,.306418,1.057115,0.0*
1,1,.1524,.306418,1.057115*
20,1,.1524,.306418,1.057115,.34641,1.,0.0*
1,1,.1524,.34641,1.*
20,1,.1524,.34641,1.,.375877,.936808,0.0*
1,1,.1524,.375877,.936808*
20,1,.1524,.375877,.936808,.393923,.869459,0.0*
1,1,.1524,.393923,.869459*
20,1,.1524,.393923,.869459,.4,.8,0.0*
1,1,.1524,.4,.8*
20,1,.1524,.4,.8,.4,-.8,0.0*
1,1,.1524,.4,-.8*
20,1,.1524,.4,-.8,.393923,-.869459,0.0*
1,1,.1524,.393923,-.869459*
20,1,.1524,.393923,-.869459,.375877,-.936808,0.0*
1,1,.1524,.375877,-.936808*
20,1,.1524,.375877,-.936808,.34641,-1.,0.0*
1,1,.1524,.34641,-1.*
20,1,.1524,.34641,-1.,.306418,-1.057115,0.0*
1,1,.1524,.306418,-1.057115*
20,1,.1524,.306418,-1.057115,.257115,-1.106418,0.0*
1,1,.1524,.257115,-1.106418*
20,1,.1524,.257115,-1.106418,.2,-1.14641,0.0*
1,1,.1524,.2,-1.14641*
20,1,.1524,.2,-1.14641,.136808,-1.175877,0.0*
1,1,.1524,.136808,-1.175877*
20,1,.1524,.136808,-1.175877,.069459,-1.193923,0.0*
1,1,.1524,.069459,-1.193923*
20,1,.1524,.069459,-1.193923,0.0,-1.2,0.0*
1,1,.1524,0.0,-1.2*
20,1,.1524,0.0,-1.2,-.069459,-1.193923,0.0*
1,1,.1524,-.069459,-1.193923*
20,1,.1524,-.069459,-1.193923,-.136808,-1.175877,0.0*
1,1,.1524,-.136808,-1.175877*
20,1,.1524,-.136808,-1.175877,-.2,-1.14641,0.0*
1,1,.1524,-.2,-1.14641*
20,1,.1524,-.2,-1.14641,-.257115,-1.106418,0.0*
1,1,.1524,-.257115,-1.106418*
20,1,.1524,-.257115,-1.106418,-.306418,-1.057115,0.0*
1,1,.1524,-.306418,-1.057115*
20,1,.1524,-.306418,-1.057115,-.34641,-1.,0.0*
1,1,.1524,-.34641,-1.*
20,1,.1524,-.34641,-1.,-.375877,-.936808,0.0*
1,1,.1524,-.375877,-.936808*
20,1,.1524,-.375877,-.936808,-.393923,-.869459,0.0*
1,1,.1524,-.393923,-.869459*
20,1,.1524,-.393923,-.869459,-.4,-.8,0.0*
1,1,.1524,-.4,-.8*
1,1,.1524,-.2,-.2*
20,1,.1524,-.2,-.2,-.2533,-.1933,0.0*
1,1,.1524,-.2533,-.1933*
20,1,.1524,-.2533,-.1933,-.3,-.1667,0.0*
1,1,.1524,-.3,-.1667*
20,1,.1524,-.3,-.1667,-.34,-.1267,0.0*
1,1,.1524,-.34,-.1267*
20,1,.1524,-.34,-.1267,-.3667,-.08,0.0*
1,1,.1524,-.3667,-.08*
20,1,.1524,-.3667,-.08,-.38,-.0267,0.0*
1,1,.1524,-.38,-.0267*
20,1,.1524,-.38,-.0267,-.38,.0267,0.0*
1,1,.1524,-.38,.0267*
20,1,.1524,-.38,.0267,-.3667,.08,0.0*
1,1,.1524,-.3667,.08*
20,1,.1524,-.3667,.08,-.34,.1267,0.0*
1,1,.1524,-.34,.1267*
20,1,.1524,-.34,.1267,-.3,.1667,0.0*
1,1,.1524,-.3,.1667*
20,1,.1524,-.3,.1667,-.2533,.1933,0.0*
1,1,.1524,-.2533,.1933*
20,1,.1524,-.2533,.1933,-.2,.2,0.0*
1,1,.1524,-.2,.2*
20,1,.1524,-.2,.2,-.1467,.1933,0.0*
1,1,.1524,-.1467,.1933*
20,1,.1524,-.1467,.1933,-.1,.1667,0.0*
1,1,.1524,-.1,.1667*
20,1,.1524,-.1,.1667,-.06,.1267,0.0*
1,1,.1524,-.06,.1267*
20,1,.1524,-.06,.1267,-.0333,.08,0.0*
1,1,.1524,-.0333,.08*
20,1,.1524,-.0333,.08,-.02,.0267,0.0*
1,1,.1524,-.02,.0267*
20,1,.1524,-.02,.0267,-.02,-.0267,0.0*
1,1,.1524,-.02,-.0267*
20,1,.1524,-.02,-.0267,-.0333,-.08,0.0*
1,1,.1524,-.0333,-.08*
20,1,.1524,-.0333,-.08,-.06,-.1267,0.0*
1,1,.1524,-.06,-.1267*
20,1,.1524,-.06,-.1267,-.1,-.1667,0.0*
1,1,.1524,-.1,-.1667*
20,1,.1524,-.1,-.1667,-.1467,-.1933,0.0*
1,1,.1524,-.1467,-.1933*
20,1,.1524,-.1467,-.1933,-.2,-.2,0.0*
1,1,.1524,-.2,-.2*
1,1,.1524,.0334,-.2*
20,1,.1524,.0334,-.2,.2001,.2,0.0*
1,1,.1524,.2001,.2*
20,1,.1524,.2001,.2,.3668,-.2,0.0*
1,1,.1524,.3668,-.2*
1,1,.1524,.3068,-.06*
20,1,.1524,.3068,-.06,.0934,-.06,0.0*
1,1,.1524,.0934,-.06*
%
%ADD17MACRO17*%
%AMMACRO14*
1,1,.1524,.762,0.0*
20,1,.1524,.762,0.0,0.0,-.762,0.0*
1,1,.1524,0.0,-.762*
20,1,.1524,0.0,-.762,-.762,0.0,0.0*
1,1,.1524,-.762,0.0*
20,1,.1524,-.762,0.0,0.0,.762,0.0*
1,1,.1524,0.0,.762*
20,1,.1524,0.0,.762,.762,0.0,0.0*
1,1,.1524,.762,0.0*
%
%ADD14MACRO14*%
%AMMACRO12*
1,1,.1524,.1524,0.0*
20,1,.1524,.1524,0.0,-.1524,0.0,0.0*
1,1,.1524,-.1524,0.0*
1,1,.1524,0.0,.1524*
20,1,.1524,0.0,.1524,0.0,-.1524,0.0*
1,1,.1524,0.0,-.1524*
%
%ADD12MACRO12*%
%AMMACRO15*
1,1,.1524,.289328,-.6985*
20,1,.1524,.289328,-.6985,-.289328,-.6985,0.0*
1,1,.1524,-.289328,-.6985*
20,1,.1524,-.289328,-.6985,-.6985,-.289328,0.0*
1,1,.1524,-.6985,-.289328*
20,1,.1524,-.6985,-.289328,-.6985,.289328,0.0*
1,1,.1524,-.6985,.289328*
20,1,.1524,-.6985,.289328,-.289328,.6985,0.0*
1,1,.1524,-.289328,.6985*
20,1,.1524,-.289328,.6985,.289328,.6985,0.0*
1,1,.1524,.289328,.6985*
20,1,.1524,.289328,.6985,.6985,.289328,0.0*
1,1,.1524,.6985,.289328*
20,1,.1524,.6985,.289328,.6985,-.289328,0.0*
1,1,.1524,.6985,-.289328*
20,1,.1524,.6985,-.289328,.289328,-.6985,0.0*
1,1,.1524,.289328,-.6985*
%
%ADD15MACRO15*%
%AMMACRO18*
1,1,.1524,0.0,.5*
20,1,.1524,0.0,.5,-.433013,.25,0.0*
1,1,.1524,-.433013,.25*
20,1,.1524,-.433013,.25,-.433013,-.25,0.0*
1,1,.1524,-.433013,-.25*
20,1,.1524,-.433013,-.25,0.0,-.5,0.0*
1,1,.1524,0.0,-.5*
20,1,.1524,0.0,-.5,.433013,-.25,0.0*
1,1,.1524,.433013,-.25*
20,1,.1524,.433013,-.25,.433013,.25,0.0*
1,1,.1524,.433013,.25*
20,1,.1524,.433013,.25,0.0,.5,0.0*
1,1,.1524,0.0,.5*
%
%ADD18MACRO18*%
%AMMACRO11*
1,1,.1524,.4445,.4445*
20,1,.1524,.4445,.4445,.4445,-.4445,0.0*
1,1,.1524,.4445,-.4445*
20,1,.1524,.4445,-.4445,-.4445,-.4445,0.0*
1,1,.1524,-.4445,-.4445*
20,1,.1524,-.4445,-.4445,-.4445,.4445,0.0*
1,1,.1524,-.4445,.4445*
20,1,.1524,-.4445,.4445,.4445,.4445,0.0*
1,1,.1524,.4445,.4445*
%
%ADD11MACRO11*%
%AMMACRO13*
1,1,.1524,-.5,-.75*
20,1,.1524,-.5,-.75,-.5,.75,0.0*
1,1,.1524,-.5,.75*
20,1,.1524,-.5,.75,-.492404,.836824,0.0*
1,1,.1524,-.492404,.836824*
20,1,.1524,-.492404,.836824,-.469846,.92101,0.0*
1,1,.1524,-.469846,.92101*
20,1,.1524,-.469846,.92101,-.433013,1.,0.0*
1,1,.1524,-.433013,1.*
20,1,.1524,-.433013,1.,-.383022,1.071394,0.0*
1,1,.1524,-.383022,1.071394*
20,1,.1524,-.383022,1.071394,-.321394,1.133022,0.0*
1,1,.1524,-.321394,1.133022*
20,1,.1524,-.321394,1.133022,-.25,1.183013,0.0*
1,1,.1524,-.25,1.183013*
20,1,.1524,-.25,1.183013,-.17101,1.219846,0.0*
1,1,.1524,-.17101,1.219846*
20,1,.1524,-.17101,1.219846,-.086824,1.242404,0.0*
1,1,.1524,-.086824,1.242404*
20,1,.1524,-.086824,1.242404,0.0,1.25,0.0*
1,1,.1524,0.0,1.25*
20,1,.1524,0.0,1.25,.086824,1.242404,0.0*
1,1,.1524,.086824,1.242404*
20,1,.1524,.086824,1.242404,.17101,1.219846,0.0*
1,1,.1524,.17101,1.219846*
20,1,.1524,.17101,1.219846,.25,1.183013,0.0*
1,1,.1524,.25,1.183013*
20,1,.1524,.25,1.183013,.321394,1.133022,0.0*
1,1,.1524,.321394,1.133022*
20,1,.1524,.321394,1.133022,.383022,1.071394,0.0*
1,1,.1524,.383022,1.071394*
20,1,.1524,.383022,1.071394,.433013,1.,0.0*
1,1,.1524,.433013,1.*
20,1,.1524,.433013,1.,.469846,.92101,0.0*
1,1,.1524,.469846,.92101*
20,1,.1524,.469846,.92101,.492404,.836824,0.0*
1,1,.1524,.492404,.836824*
20,1,.1524,.492404,.836824,.5,.75,0.0*
1,1,.1524,.5,.75*
20,1,.1524,.5,.75,.5,-.75,0.0*
1,1,.1524,.5,-.75*
20,1,.1524,.5,-.75,.492404,-.836824,0.0*
1,1,.1524,.492404,-.836824*
20,1,.1524,.492404,-.836824,.469846,-.92101,0.0*
1,1,.1524,.469846,-.92101*
20,1,.1524,.469846,-.92101,.433013,-1.,0.0*
1,1,.1524,.433013,-1.*
20,1,.1524,.433013,-1.,.383022,-1.071394,0.0*
1,1,.1524,.383022,-1.071394*
20,1,.1524,.383022,-1.071394,.321394,-1.133022,0.0*
1,1,.1524,.321394,-1.133022*
20,1,.1524,.321394,-1.133022,.25,-1.183013,0.0*
1,1,.1524,.25,-1.183013*
20,1,.1524,.25,-1.183013,.17101,-1.219846,0.0*
1,1,.1524,.17101,-1.219846*
20,1,.1524,.17101,-1.219846,.086824,-1.242404,0.0*
1,1,.1524,.086824,-1.242404*
20,1,.1524,.086824,-1.242404,0.0,-1.25,0.0*
1,1,.1524,0.0,-1.25*
20,1,.1524,0.0,-1.25,-.086824,-1.242404,0.0*
1,1,.1524,-.086824,-1.242404*
20,1,.1524,-.086824,-1.242404,-.17101,-1.219846,0.0*
1,1,.1524,-.17101,-1.219846*
20,1,.1524,-.17101,-1.219846,-.25,-1.183013,0.0*
1,1,.1524,-.25,-1.183013*
20,1,.1524,-.25,-1.183013,-.321394,-1.133022,0.0*
1,1,.1524,-.321394,-1.133022*
20,1,.1524,-.321394,-1.133022,-.383022,-1.071394,0.0*
1,1,.1524,-.383022,-1.071394*
20,1,.1524,-.383022,-1.071394,-.433013,-1.,0.0*
1,1,.1524,-.433013,-1.*
20,1,.1524,-.433013,-1.,-.469846,-.92101,0.0*
1,1,.1524,-.469846,-.92101*
20,1,.1524,-.469846,-.92101,-.492404,-.836824,0.0*
1,1,.1524,-.492404,-.836824*
20,1,.1524,-.492404,-.836824,-.5,-.75,0.0*
1,1,.1524,-.5,-.75*
1,1,.1524,-.25,-.25*
20,1,.1524,-.25,-.25,-.3167,-.2417,0.0*
1,1,.1524,-.3167,-.2417*
20,1,.1524,-.3167,-.2417,-.375,-.2083,0.0*
1,1,.1524,-.375,-.2083*
20,1,.1524,-.375,-.2083,-.425,-.1583,0.0*
1,1,.1524,-.425,-.1583*
20,1,.1524,-.425,-.1583,-.4583,-.1,0.0*
1,1,.1524,-.4583,-.1*
20,1,.1524,-.4583,-.1,-.475,-.0333,0.0*
1,1,.1524,-.475,-.0333*
20,1,.1524,-.475,-.0333,-.475,.0333,0.0*
1,1,.1524,-.475,.0333*
20,1,.1524,-.475,.0333,-.4583,.1,0.0*
1,1,.1524,-.4583,.1*
20,1,.1524,-.4583,.1,-.425,.1583,0.0*
1,1,.1524,-.425,.1583*
20,1,.1524,-.425,.1583,-.375,.2083,0.0*
1,1,.1524,-.375,.2083*
20,1,.1524,-.375,.2083,-.3167,.2417,0.0*
1,1,.1524,-.3167,.2417*
20,1,.1524,-.3167,.2417,-.25,.25,0.0*
1,1,.1524,-.25,.25*
20,1,.1524,-.25,.25,-.1833,.2417,0.0*
1,1,.1524,-.1833,.2417*
20,1,.1524,-.1833,.2417,-.125,.2083,0.0*
1,1,.1524,-.125,.2083*
20,1,.1524,-.125,.2083,-.075,.1583,0.0*
1,1,.1524,-.075,.1583*
20,1,.1524,-.075,.1583,-.0417,.1,0.0*
1,1,.1524,-.0417,.1*
20,1,.1524,-.0417,.1,-.025,.0333,0.0*
1,1,.1524,-.025,.0333*
20,1,.1524,-.025,.0333,-.025,-.0333,0.0*
1,1,.1524,-.025,-.0333*
20,1,.1524,-.025,-.0333,-.0417,-.1,0.0*
1,1,.1524,-.0417,-.1*
20,1,.1524,-.0417,-.1,-.075,-.1583,0.0*
1,1,.1524,-.075,-.1583*
20,1,.1524,-.075,-.1583,-.125,-.2083,0.0*
1,1,.1524,-.125,-.2083*
20,1,.1524,-.125,-.2083,-.1833,-.2417,0.0*
1,1,.1524,-.1833,-.2417*
20,1,.1524,-.1833,-.2417,-.25,-.25,0.0*
1,1,.1524,-.25,-.25*
1,1,.1524,.3168,.0167*
20,1,.1524,.3168,.0167,.3501,.0417,0.0*
1,1,.1524,.3501,.0417*
20,1,.1524,.3501,.0417,.3751,.0833,0.0*
1,1,.1524,.3751,.0833*
20,1,.1524,.3751,.0833,.3918,.1417,0.0*
1,1,.1524,.3918,.1417*
20,1,.1524,.3918,.1417,.3751,.1917,0.0*
1,1,.1524,.3751,.1917*
20,1,.1524,.3751,.1917,.3418,.225,0.0*
1,1,.1524,.3418,.225*
20,1,.1524,.3418,.225,.2834,.25,0.0*
1,1,.1524,.2834,.25*
20,1,.1524,.2834,.25,.0584,.25,0.0*
1,1,.1524,.0584,.25*
20,1,.1524,.0584,.25,.0584,-.25,0.0*
1,1,.1524,.0584,-.25*
20,1,.1524,.0584,-.25,.3334,-.25,0.0*
1,1,.1524,.3334,-.25*
20,1,.1524,.3334,-.25,.3918,-.2167,0.0*
1,1,.1524,.3918,-.2167*
20,1,.1524,.3918,-.2167,.4251,-.1667,0.0*
1,1,.1524,.4251,-.1667*
20,1,.1524,.4251,-.1667,.4418,-.1083,0.0*
1,1,.1524,.4418,-.1083*
20,1,.1524,.4418,-.1083,.4251,-.05,0.0*
1,1,.1524,.4251,-.05*
20,1,.1524,.4251,-.05,.3751,0.0,0.0*
1,1,.1524,.3751,0.0*
20,1,.1524,.3751,0.0,.3168,.0167,0.0*
1,1,.1524,.3168,.0167*
20,1,.1524,.3168,.0167,.0584,.0167,0.0*
1,1,.1524,.0584,.0167*
%
%ADD13MACRO13*%
%AMMACRO16*
1,1,.1524,.45,0.0*
20,1,.1524,.45,0.0,.225,.389711,0.0*
1,1,.1524,.225,.389711*
20,1,.1524,.225,.389711,-.225,.389711,0.0*
1,1,.1524,-.225,.389711*
20,1,.1524,-.225,.389711,-.45,0.0,0.0*
1,1,.1524,-.45,0.0*
20,1,.1524,-.45,0.0,-.225,-.389711,0.0*
1,1,.1524,-.225,-.389711*
20,1,.1524,-.225,-.389711,.225,-.389711,0.0*
1,1,.1524,.225,-.389711*
20,1,.1524,.225,-.389711,.45,0.0,0.0*
1,1,.1524,.45,0.0*
%
%ADD16MACRO16*%
%AMMACRO10*
1,1,.1524,0.0,1.7018*
20,1,.1524,0.0,1.7018,1.7018,-1.7018,0.0*
1,1,.1524,1.7018,-1.7018*
20,1,.1524,1.7018,-1.7018,-1.7018,-1.7018,0.0*
1,1,.1524,-1.7018,-1.7018*
20,1,.1524,-1.7018,-1.7018,0.0,1.7018,0.0*
1,1,.1524,0.0,1.7018*
%
%ADD10MACRO10*%
%ADD19C,.2032*%
%ADD20C,.1524*%
G75*
%LPD*%
G75*
G54D10*
X330000Y330000D03*
Y4670000D03*
X4670000Y330000D03*
Y4670000D03*
X6831730Y1512500D03*
G54D20*
G01X-1697400Y2273320D02*
X-1683180Y2257450D01*
X-1666590Y2247920D01*
X-1645250Y2244750D01*
X-1623910Y2251100D01*
X-1607320Y2263800D01*
X-1595470Y2286020D01*
X-1593100Y2311420D01*
X-1597840Y2336820D01*
X-1609690Y2352700D01*
X-1626290Y2365400D01*
X-1642880Y2368570D01*
X-1659470Y2365400D01*
X-1680810Y2352700D01*
X-1673700Y2435250D01*
X-1609690D01*
G01X-1454750D02*
X-1473720Y2428900D01*
X-1487940Y2413020D01*
X-1497420Y2393980D01*
X-1504530Y2368570D01*
X-1506900Y2340000D01*
X-1504530Y2311420D01*
X-1497420Y2286020D01*
X-1487940Y2266970D01*
X-1473720Y2251100D01*
X-1454750Y2244750D01*
X-1435790Y2251100D01*
X-1421560Y2266970D01*
X-1412080Y2286020D01*
X-1404970Y2311420D01*
X-1402600Y2340000D01*
X-1404970Y2368570D01*
X-1412080Y2393980D01*
X-1421560Y2413020D01*
X-1435790Y2428900D01*
X-1454750Y2435250D01*
G01X-1167300Y2004750D02*
Y2195250D01*
X-1255020Y2058730D01*
X-1136480D01*
G01X-1050290Y2084120D02*
X-1033700Y2106350D01*
X-1019470Y2119050D01*
X-1000510Y2125400D01*
X-983910Y2119050D01*
X-972060Y2106350D01*
X-962580Y2087300D01*
X-960210Y2065070D01*
X-962580Y2046020D01*
X-972060Y2026970D01*
X-986290Y2011100D01*
X-1002880Y2004750D01*
X-1021840Y2011100D01*
X-1038440Y2030140D01*
X-1047920Y2058730D01*
X-1050290Y2090470D01*
X-1045550Y2131750D01*
X-1038440Y2153980D01*
X-1026590Y2176200D01*
X-1009990Y2192080D01*
X-993400Y2195250D01*
X-976800Y2188900D01*
X-964950Y2173020D01*
G01X-814750Y1998400D02*
X-819490Y2001580D01*
Y2007920D01*
X-814750Y2011100D01*
X-810010Y2007920D01*
Y2001580D01*
X-814750Y1998400D01*
G01X-628990Y2004750D02*
X-624250Y2046020D01*
X-617140Y2080950D01*
X-607660Y2112700D01*
X-595800Y2147620D01*
X-576840Y2195250D01*
X-671660D01*
G01X-712650Y122850D02*
X-698430Y100620D01*
X-679470Y87920D01*
X-658130Y84750D01*
X-639160Y87920D01*
X-620200Y103800D01*
X-608350Y122850D01*
X-605980Y141900D01*
X-610720Y164120D01*
X-627310Y180000D01*
X-643910Y186350D01*
X-665240D01*
G01X-643910D02*
X-629680Y195870D01*
X-617830Y211750D01*
X-613090Y230800D01*
X-617830Y249850D01*
X-629680Y265720D01*
X-651020Y275250D01*
X-672350Y272080D01*
X-693690Y259370D01*
G01X-470000Y78400D02*
X-474740Y81580D01*
Y87920D01*
X-470000Y91100D01*
X-465260Y87920D01*
Y81580D01*
X-470000Y78400D01*
G01X-331650Y122850D02*
X-317430Y100620D01*
X-298470Y87920D01*
X-277130Y84750D01*
X-258160Y87920D01*
X-239200Y103800D01*
X-227350Y122850D01*
X-224980Y141900D01*
X-229720Y164120D01*
X-246310Y180000D01*
X-262910Y186350D01*
X-284240D01*
G01X-262910D02*
X-248680Y195870D01*
X-236830Y211750D01*
X-232090Y230800D01*
X-236830Y249850D01*
X-248680Y265720D01*
X-270020Y275250D01*
X-291350Y272080D01*
X-312690Y259370D01*
G01X-92650Y-517150D02*
X-78430Y-539380D01*
X-59470Y-552080D01*
X-38130Y-555250D01*
X-19160Y-552080D01*
X-200Y-536200D01*
X11650Y-517150D01*
X14020Y-498100D01*
X9280Y-475880D01*
X-7310Y-460000D01*
X-23910Y-453650D01*
X-45240D01*
G01X-23910D02*
X-9680Y-444130D01*
X2170Y-428250D01*
X6910Y-409200D01*
X2170Y-390150D01*
X-9680Y-374280D01*
X-31020Y-364750D01*
X-52350Y-367920D01*
X-73690Y-380630D01*
G01X150000Y-561600D02*
X145260Y-558420D01*
Y-552080D01*
X150000Y-548900D01*
X154740Y-552080D01*
Y-558420D01*
X150000Y-561600D01*
G01X288350Y-517150D02*
X302570Y-539380D01*
X321530Y-552080D01*
X342870Y-555250D01*
X361840Y-552080D01*
X380800Y-536200D01*
X392650Y-517150D01*
X395020Y-498100D01*
X390280Y-475880D01*
X373690Y-460000D01*
X357090Y-453650D01*
X335760D01*
G01X357090D02*
X371320Y-444130D01*
X383170Y-428250D01*
X387910Y-409200D01*
X383170Y-390150D01*
X371320Y-374280D01*
X349980Y-364750D01*
X328650Y-367920D01*
X307310Y-380630D01*
G01X330000Y0D02*
X4670000D01*
G03X5000000Y330000I0J330000D01*
G01Y4670000D01*
G03X4670000Y5000000I-330000J0D01*
G01X330000D01*
G03X0Y4670000I0J-330000D01*
G01Y330000D01*
G03X330000Y0I330000J0D01*
G01X2092700Y-1175250D02*
Y-984750D01*
X2004980Y-1121270D01*
X2123520D01*
G01X2209710Y-1095880D02*
X2226300Y-1073650D01*
X2240530Y-1060950D01*
X2259490Y-1054600D01*
X2276090Y-1060950D01*
X2287940Y-1073650D01*
X2297420Y-1092700D01*
X2299790Y-1114930D01*
X2297420Y-1133980D01*
X2287940Y-1153030D01*
X2273710Y-1168900D01*
X2257120Y-1175250D01*
X2238160Y-1168900D01*
X2221560Y-1149860D01*
X2212080Y-1121270D01*
X2209710Y-1089530D01*
X2214450Y-1048250D01*
X2221560Y-1026020D01*
X2233410Y-1003800D01*
X2250010Y-987920D01*
X2266600Y-984750D01*
X2283200Y-991100D01*
X2295050Y-1006980D01*
G01X2445250Y-1181600D02*
X2440510Y-1178420D01*
Y-1172080D01*
X2445250Y-1168900D01*
X2449990Y-1172080D01*
Y-1178420D01*
X2445250Y-1181600D01*
G01X2631010Y-1175250D02*
X2635750Y-1133980D01*
X2642860Y-1099050D01*
X2652340Y-1067300D01*
X2664200Y-1032380D01*
X2683160Y-984750D01*
X2588340D01*
G01X2352600Y-1406680D02*
X2366820Y-1422550D01*
X2383410Y-1432080D01*
X2404750Y-1435250D01*
X2426090Y-1428900D01*
X2442680Y-1416200D01*
X2454530Y-1393980D01*
X2456900Y-1368580D01*
X2452160Y-1343180D01*
X2440310Y-1327300D01*
X2423710Y-1314600D01*
X2407120Y-1311430D01*
X2390530Y-1314600D01*
X2369190Y-1327300D01*
X2376300Y-1244750D01*
X2440310D01*
G01X2595250D02*
X2576280Y-1251100D01*
X2562060Y-1266980D01*
X2552580Y-1286020D01*
X2545470Y-1311430D01*
X2543100Y-1340000D01*
X2545470Y-1368580D01*
X2552580Y-1393980D01*
X2562060Y-1413030D01*
X2576280Y-1428900D01*
X2595250Y-1435250D01*
X2614210Y-1428900D01*
X2628440Y-1413030D01*
X2637920Y-1393980D01*
X2645030Y-1368580D01*
X2647400Y-1340000D01*
X2645030Y-1311430D01*
X2637920Y-1286020D01*
X2628440Y-1266980D01*
X2614210Y-1251100D01*
X2595250Y-1244750D01*
G01X-250000Y0D02*
X-1800000D01*
G01X-1550000Y2094260D02*
Y0D01*
G01X-1612500Y400000D02*
X-1550000Y0D01*
X-1487500Y400000D01*
X-1612500D01*
G01X-1550000Y2585740D02*
Y5000000D01*
G01X-1487500Y4600000D02*
X-1550000Y5000000D01*
X-1612500Y4600000D01*
X-1487500D01*
G01X360000Y5000000D02*
X-1800000D01*
G01X-250000Y0D02*
X-1160000D01*
G01X-910000Y1854260D02*
Y0D01*
G01X-972500Y400000D02*
X-910000Y0D01*
X-847500Y400000D01*
X-972500D01*
G01X-910000Y2345740D02*
Y4670000D01*
G01X-847500Y4270000D02*
X-910000Y4670000D01*
X-972500Y4270000D01*
X-847500D01*
G01X80000Y4670000D02*
X-1160000D01*
G01X-400000Y-522500D02*
X0Y-460000D01*
X-400000Y-397500D01*
Y-522500D01*
G01X-250000Y0D02*
X-720000D01*
G01X-470000Y-65740D02*
Y0D01*
G01X-407500Y-400000D02*
X-470000Y0D01*
X-532500Y-400000D01*
X-407500D01*
G01X80000Y330000D02*
X-720000D01*
G01X-470000Y425740D02*
Y330000D01*
G01X-532500Y730000D02*
X-470000Y330000D01*
X-407500Y730000D01*
X-532500D01*
G01X0Y-250000D02*
Y-1590000D01*
G01Y-250000D02*
Y-1330000D01*
G01X1842640Y-1080000D02*
X0D01*
G01X400000Y-1017500D02*
X0Y-1080000D01*
X400000Y-1142500D01*
Y-1017500D01*
G01X2183140Y-1340000D02*
X0D01*
G01X400000Y-1277500D02*
X0Y-1340000D01*
X400000Y-1402500D01*
Y-1277500D01*
G01X0Y-250000D02*
Y-710000D01*
G01X-262110Y-460000D02*
X0D01*
G01X330000Y80000D02*
Y-710000D01*
G01X562110Y-460000D02*
X330000D01*
G01X730000Y-397500D02*
X330000Y-460000D01*
X730000Y-522500D01*
Y-397500D01*
G01X2857360Y-1080000D02*
X4670000D01*
G01X2816860Y-1340000D02*
X5000000D01*
G01X4270000Y-1142500D02*
X4670000Y-1080000D01*
X4270000Y-1017500D01*
Y-1142500D01*
G01X5000000Y190000D02*
Y-1590000D01*
G01X4670000Y80000D02*
Y-1330000D01*
G01X4600000Y-1402500D02*
X5000000Y-1340000D01*
X4600000Y-1277500D01*
Y-1402500D01*
G01X5690000Y-75000D02*
Y7560000D01*
X17973440D01*
Y-75000D01*
X5690000D01*
G01Y560000D02*
X17973440D01*
G01X5690000Y1195000D02*
X17973440D01*
G01X5690000Y1830000D02*
X17973440D01*
G01X5690000Y2465000D02*
X17973440D01*
G01X5690000Y3100000D02*
X17973440D01*
G01X5690000Y3735000D02*
X17973440D01*
G01X5690000Y4370000D02*
X17973440D01*
G01X5690000Y5005000D02*
X17973440D01*
G01X5969520Y5798750D02*
Y6116250D01*
X6119140D01*
G01X6064010Y5962800D02*
X5969520D01*
G01X6312050Y6116250D02*
X6406530D01*
G01X6359290D02*
Y5798750D01*
G01X6312050D02*
X6406530D01*
G01X6697870Y5957500D02*
X6776620D01*
Y5862250D01*
X6752990Y5830490D01*
X6725430Y5809330D01*
X6686060Y5798750D01*
X6646690Y5809330D01*
X6619130Y5830490D01*
X6595510Y5862250D01*
X6579760Y5899290D01*
X6571880Y5941620D01*
Y5978670D01*
X6579760Y6010410D01*
X6595510Y6047460D01*
X6619130Y6079210D01*
X6642750Y6100370D01*
X6674250Y6116250D01*
X6701810D01*
X6733300Y6105670D01*
X6756930Y6084500D01*
G01X6902600Y6116250D02*
Y5888710D01*
X6918340Y5841070D01*
X6949840Y5809330D01*
X6989210Y5798750D01*
X7028580Y5809330D01*
X7060080Y5841070D01*
X7075820Y5888710D01*
Y6116250D01*
G01X7225430Y5798750D02*
Y6116250D01*
X7323850D01*
X7355350Y6100370D01*
X7375040Y6079210D01*
X7382910Y6036870D01*
X7375040Y5994540D01*
X7351410Y5968090D01*
X7323850Y5952200D01*
X7225430D01*
G01X7323850D02*
X7382910Y5798750D01*
G01X7697870D02*
X7540390D01*
Y6116250D01*
X7697870D01*
G01X7634880Y5962800D02*
X7540390D01*
G01X5690000Y5640000D02*
X17973440D01*
G01X5690000Y6275000D02*
X17973440D01*
G01X5690000Y6910000D02*
X17973440D01*
G01X7481330Y6433750D02*
X7579760Y6751250D01*
X7678190Y6433750D01*
G01X7642750Y6544870D02*
X7516760D01*
G01X7815980Y6751250D02*
Y6433750D01*
X7973460D01*
G01X8130940Y6751250D02*
Y6433750D01*
X8288420D01*
G01X8752990Y6751250D02*
Y6523710D01*
X8768730Y6476070D01*
X8800230Y6444330D01*
X8839600Y6433750D01*
X8878970Y6444330D01*
X8910470Y6476070D01*
X8926210Y6523710D01*
Y6751250D01*
G01X9064010Y6433750D02*
Y6751250D01*
X9245110Y6433750D01*
Y6751250D01*
G01X9422280D02*
X9516760D01*
G01X9469520D02*
Y6433750D01*
G01X9422280D02*
X9516760D01*
G01X9784480Y6751250D02*
Y6433750D01*
G01X9693930Y6751250D02*
X9875030D01*
G01X10016760Y6476070D02*
X10048260Y6449620D01*
X10083690Y6433750D01*
X10115190D01*
X10146680Y6449620D01*
X10170310Y6476070D01*
X10182120Y6513130D01*
X10174250Y6550160D01*
X10154560Y6581910D01*
X10119120Y6603090D01*
X10071880Y6613670D01*
X10044320Y6634830D01*
X10032510Y6671870D01*
X10040390Y6708920D01*
X10060070Y6735370D01*
X10087630Y6751250D01*
X10115190D01*
X10142750Y6740670D01*
X10166370Y6714210D01*
G01X10630930Y6433750D02*
X10729360Y6751250D01*
X10827790Y6433750D01*
G01X10792350Y6544870D02*
X10666360D01*
G01X10965580Y6433750D02*
Y6751250D01*
X11064000D01*
X11095500Y6735370D01*
X11115190Y6714210D01*
X11123060Y6671870D01*
X11115190Y6629540D01*
X11091560Y6603090D01*
X11064000Y6587200D01*
X10965580D01*
G01X11064000D02*
X11123060Y6433750D01*
G01X11438020D02*
X11280540D01*
Y6751250D01*
X11438020D01*
G01X11375030Y6597800D02*
X11280540D01*
G01X11941960Y6751250D02*
X12036440D01*
G01X11989200D02*
Y6433750D01*
G01X11941960D02*
X12036440D01*
G01X12213610D02*
Y6751250D01*
X12394710Y6433750D01*
Y6751250D01*
G01X12831710Y6433750D02*
Y6751250D01*
X12934080Y6486670D01*
X13036450Y6751250D01*
Y6433750D01*
G01X13201800Y6751250D02*
X13296280D01*
G01X13249040D02*
Y6433750D01*
G01X13201800D02*
X13296280D01*
G01X13485260Y6751250D02*
Y6433750D01*
X13642740D01*
G01X13800220Y6751250D02*
Y6433750D01*
X13957700D01*
G01X14146680Y6751250D02*
X14241160D01*
G01X14193920D02*
Y6433750D01*
G01X14146680D02*
X14241160D01*
G01X14406510D02*
Y6751250D01*
X14508880Y6486670D01*
X14611250Y6751250D01*
Y6433750D01*
G01X14902580D02*
X14745100D01*
Y6751250D01*
X14902580D01*
G01X14839590Y6597800D02*
X14745100D01*
G01X15138800Y6751250D02*
Y6433750D01*
G01X15048250Y6751250D02*
X15229350D01*
G01X15532500Y6433750D02*
X15375020D01*
Y6751250D01*
X15532500D01*
G01X15469510Y6597800D02*
X15375020D01*
G01X15689980Y6433750D02*
Y6751250D01*
X15788400D01*
X15819900Y6735370D01*
X15839590Y6714210D01*
X15847460Y6671870D01*
X15839590Y6629540D01*
X15815960Y6603090D01*
X15788400Y6587200D01*
X15689980D01*
G01X15788400D02*
X15847460Y6433750D01*
G01X16001000Y6476070D02*
X16032500Y6449620D01*
X16067930Y6433750D01*
X16099430D01*
X16130920Y6449620D01*
X16154550Y6476070D01*
X16166360Y6513130D01*
X16158490Y6550160D01*
X16138800Y6581910D01*
X16103360Y6603090D01*
X16056120Y6613670D01*
X16028560Y6634830D01*
X16016750Y6671870D01*
X16024630Y6708920D01*
X16044310Y6735370D01*
X16071870Y6751250D01*
X16099430D01*
X16126990Y6740670D01*
X16150610Y6714210D01*
G01X7973460Y6275000D02*
Y-75000D01*
G01X7808110Y7083750D02*
Y7401250D01*
X7886840D01*
X7918340Y7385370D01*
X7941960Y7364210D01*
X7961650Y7332460D01*
X7977400Y7295410D01*
X7981330Y7242500D01*
X7977400Y7189580D01*
X7961650Y7152540D01*
X7941960Y7120780D01*
X7918340Y7099620D01*
X7886840Y7083750D01*
X7808110D01*
G01X8130940D02*
Y7401250D01*
X8229360D01*
X8260860Y7385370D01*
X8280550Y7364210D01*
X8288420Y7321870D01*
X8280550Y7279540D01*
X8256920Y7253090D01*
X8229360Y7237200D01*
X8130940D01*
G01X8229360D02*
X8288420Y7083750D01*
G01X8477400Y7401250D02*
X8571880D01*
G01X8524640D02*
Y7083750D01*
G01X8477400D02*
X8571880D01*
G01X8760860Y7401250D02*
Y7083750D01*
X8918340D01*
G01X9075820Y7401250D02*
Y7083750D01*
X9233300D01*
G01X9871090Y7374790D02*
X9847470Y7390670D01*
X9819920Y7401250D01*
X9788420D01*
X9752980Y7385370D01*
X9725430Y7358920D01*
X9705740Y7327160D01*
X9689990Y7274250D01*
X9686050Y7226620D01*
X9693930Y7179000D01*
X9705740Y7147250D01*
X9729360Y7115490D01*
X9756920Y7094330D01*
X9784480Y7083750D01*
X9812040D01*
X9839600Y7094330D01*
X9863220Y7110200D01*
X9882910Y7131360D01*
G01X10016760Y7083750D02*
Y7401250D01*
G01X10182120D02*
Y7083750D01*
G01Y7242500D02*
X10016760D01*
G01X10315970Y7083750D02*
X10414400Y7401250D01*
X10512830Y7083750D01*
G01X10477390Y7194870D02*
X10351400D01*
G01X10650620Y7083750D02*
Y7401250D01*
X10749040D01*
X10780540Y7385370D01*
X10800230Y7364210D01*
X10808100Y7321870D01*
X10800230Y7279540D01*
X10776600Y7253090D01*
X10749040Y7237200D01*
X10650620D01*
G01X10749040D02*
X10808100Y7083750D01*
G01X11044320Y7401250D02*
Y7083750D01*
G01X10953770Y7401250D02*
X11134870D01*
G01X11359280Y7073170D02*
X11351400Y7078460D01*
Y7089040D01*
X11359280Y7094330D01*
X11367160Y7089040D01*
Y7078460D01*
X11359280Y7073170D01*
G01Y7216030D02*
X11351400Y7221330D01*
Y7231910D01*
X11359280Y7237200D01*
X11367160Y7231910D01*
Y7221330D01*
X11359280Y7216030D01*
G01X11989200Y7401250D02*
Y7083750D01*
G01X11898650Y7401250D02*
X12079750D01*
G01X12304160Y7083750D02*
X12272660Y7089040D01*
X12245110Y7110200D01*
X12221480Y7141960D01*
X12205730Y7179000D01*
X12197860Y7221330D01*
Y7263670D01*
X12205730Y7306000D01*
X12221480Y7343040D01*
X12245110Y7374790D01*
X12272660Y7395960D01*
X12304160Y7401250D01*
X12335650Y7395960D01*
X12363210Y7374790D01*
X12386840Y7343040D01*
X12402590Y7306000D01*
X12410460Y7263670D01*
Y7221330D01*
X12402590Y7179000D01*
X12386840Y7141960D01*
X12363210Y7110200D01*
X12335650Y7089040D01*
X12304160Y7083750D01*
G01X12540380D02*
Y7401250D01*
X12634870D01*
X12666360Y7385370D01*
X12689990Y7348330D01*
X12697860Y7306000D01*
X12689990Y7263670D01*
X12670300Y7231910D01*
X12634870Y7216030D01*
X12540380D01*
G01X13249040Y7401250D02*
Y7083750D01*
G01X13193920Y7295410D02*
X13304160D01*
G01X13564000Y7083750D02*
X13540380Y7089040D01*
X13516760Y7110200D01*
X13501000Y7147250D01*
X13493130Y7189580D01*
X13501000Y7231910D01*
X13516760Y7268960D01*
X13540380Y7290120D01*
X13564000Y7295410D01*
X13587620Y7290120D01*
X13611240Y7268960D01*
X13626990Y7231910D01*
X13630930Y7189580D01*
X13626990Y7147250D01*
X13611240Y7110200D01*
X13587620Y7089040D01*
X13564000Y7083750D01*
G01X14225410Y7253090D02*
X14241160Y7268960D01*
X14252970Y7295410D01*
X14260850Y7332460D01*
X14252970Y7364210D01*
X14237230Y7385370D01*
X14209670Y7401250D01*
X14103370D01*
Y7083750D01*
X14233290D01*
X14260850Y7104910D01*
X14276600Y7136670D01*
X14284470Y7173710D01*
X14276600Y7210740D01*
X14252970Y7242500D01*
X14225410Y7253090D01*
X14103370D01*
G01X14508880Y7083750D02*
X14477380Y7089040D01*
X14449830Y7110200D01*
X14426200Y7141960D01*
X14410450Y7179000D01*
X14402580Y7221330D01*
Y7263670D01*
X14410450Y7306000D01*
X14426200Y7343040D01*
X14449830Y7374790D01*
X14477380Y7395960D01*
X14508880Y7401250D01*
X14540370Y7395960D01*
X14567930Y7374790D01*
X14591560Y7343040D01*
X14607310Y7306000D01*
X14615180Y7263670D01*
Y7221330D01*
X14607310Y7179000D01*
X14591560Y7141960D01*
X14567930Y7110200D01*
X14540370Y7089040D01*
X14508880Y7083750D01*
G01X14823840Y7401250D02*
Y7083750D01*
G01X14733290Y7401250D02*
X14914390D01*
G01X15138800D02*
Y7083750D01*
G01X15048250Y7401250D02*
X15229350D01*
G01X15453760Y7083750D02*
X15422260Y7089040D01*
X15394710Y7110200D01*
X15371080Y7141960D01*
X15355330Y7179000D01*
X15347460Y7221330D01*
Y7263670D01*
X15355330Y7306000D01*
X15371080Y7343040D01*
X15394710Y7374790D01*
X15422260Y7395960D01*
X15453760Y7401250D01*
X15485250Y7395960D01*
X15512810Y7374790D01*
X15536440Y7343040D01*
X15552190Y7306000D01*
X15560060Y7263670D01*
Y7221330D01*
X15552190Y7179000D01*
X15536440Y7141960D01*
X15512810Y7110200D01*
X15485250Y7089040D01*
X15453760Y7083750D01*
G01X15666350D02*
Y7401250D01*
X15768720Y7136670D01*
X15871090Y7401250D01*
Y7083750D01*
G01X9355340Y348330D02*
X9378970Y380080D01*
X9406530Y395960D01*
X9438030Y401250D01*
X9477390Y390670D01*
X9504960Y364210D01*
X9512830Y332460D01*
X9508890Y300700D01*
X9493140Y274250D01*
X9414400Y221330D01*
X9378970Y184290D01*
X9355340Y131360D01*
X9347470Y83750D01*
X9512830D01*
G01X9745110Y73170D02*
X9737230Y78460D01*
Y89040D01*
X9745110Y94330D01*
X9752990Y89040D01*
Y78460D01*
X9745110Y73170D01*
G01X9973460Y131360D02*
X9997070Y104910D01*
X10024630Y89040D01*
X10060070Y83750D01*
X10095510Y94330D01*
X10123060Y115490D01*
X10142750Y152540D01*
X10146680Y194870D01*
X10138810Y237200D01*
X10119120Y263670D01*
X10091560Y284830D01*
X10064010Y290120D01*
X10036450Y284830D01*
X10001020Y263670D01*
X10012830Y401250D01*
X10119120D01*
G01X10315980Y295410D02*
X10434080Y83750D01*
G01Y295410D02*
X10315980Y83750D01*
G01X10689990D02*
Y401250D01*
X10642750Y337750D01*
G01Y83750D02*
X10737230D01*
G01X11004950Y73170D02*
X10997070Y78460D01*
Y89040D01*
X11004950Y94330D01*
X11012830Y89040D01*
Y78460D01*
X11004950Y73170D01*
G01X11319910Y401250D02*
X11288410Y390670D01*
X11264790Y364210D01*
X11249040Y332460D01*
X11237230Y290120D01*
X11233300Y242500D01*
X11237230Y194870D01*
X11249040Y152540D01*
X11264790Y120780D01*
X11288410Y94330D01*
X11319910Y83750D01*
X11351400Y94330D01*
X11375030Y120780D01*
X11390780Y152540D01*
X11402590Y194870D01*
X11406520Y242500D01*
X11402590Y290120D01*
X11390780Y332460D01*
X11375030Y364210D01*
X11351400Y390670D01*
X11319910Y401250D01*
G01X9355340Y983330D02*
X9378970Y1015080D01*
X9406530Y1030960D01*
X9438030Y1036250D01*
X9477390Y1025670D01*
X9504960Y999210D01*
X9512830Y967460D01*
X9508890Y935700D01*
X9493140Y909250D01*
X9414400Y856330D01*
X9378970Y819290D01*
X9355340Y766360D01*
X9347470Y718750D01*
X9512830D01*
G01X9745110Y708170D02*
X9737230Y713460D01*
Y724040D01*
X9745110Y729330D01*
X9752990Y724040D01*
Y713460D01*
X9745110Y708170D01*
G01X10107310Y718750D02*
Y1036250D01*
X9961640Y808710D01*
X10158500D01*
G01X10315980Y930410D02*
X10434080Y718750D01*
G01Y930410D02*
X10315980Y718750D01*
G01X10689990Y1036250D02*
X10658490Y1025670D01*
X10634870Y999210D01*
X10619120Y967460D01*
X10607310Y925120D01*
X10603380Y877500D01*
X10607310Y829870D01*
X10619120Y787540D01*
X10634870Y755780D01*
X10658490Y729330D01*
X10689990Y718750D01*
X10721480Y729330D01*
X10745110Y755780D01*
X10760860Y787540D01*
X10772670Y829870D01*
X10776600Y877500D01*
X10772670Y925120D01*
X10760860Y967460D01*
X10745110Y999210D01*
X10721480Y1025670D01*
X10689990Y1036250D01*
G01X11004950Y708170D02*
X10997070Y713460D01*
Y724040D01*
X11004950Y729330D01*
X11012830Y724040D01*
Y713460D01*
X11004950Y708170D01*
G01X11319910Y718750D02*
X11347470Y724040D01*
X11378960Y739910D01*
X11398650Y766360D01*
X11406520Y803420D01*
X11398650Y840450D01*
X11375030Y872200D01*
X11339590Y888090D01*
X11300230D01*
X11276600Y898670D01*
X11256910Y925120D01*
X11249040Y962160D01*
X11260860Y999210D01*
X11288410Y1025670D01*
X11319910Y1036250D01*
X11351400Y1025670D01*
X11378960Y999210D01*
X11390780Y962160D01*
X11382900Y925120D01*
X11363220Y898670D01*
X11339590Y888090D01*
X11300230D01*
X11264790Y872200D01*
X11241170Y840450D01*
X11233300Y803420D01*
X11241170Y766360D01*
X11260860Y739910D01*
X11292350Y724040D01*
X11319910Y718750D01*
G01X9501020Y1417250D02*
X9524630Y1380200D01*
X9556130Y1359040D01*
X9591570Y1353750D01*
X9623070Y1359040D01*
X9654560Y1385490D01*
X9674240Y1417250D01*
X9678180Y1449000D01*
X9670310Y1486030D01*
X9642750Y1512500D01*
X9615190Y1523090D01*
X9579750D01*
G01X9615190D02*
X9638810Y1538960D01*
X9658500Y1565410D01*
X9666370Y1597160D01*
X9658500Y1628920D01*
X9638810Y1655370D01*
X9603380Y1671250D01*
X9567950Y1665960D01*
X9532510Y1644790D01*
G01X9902590Y1343170D02*
X9894710Y1348460D01*
Y1359040D01*
X9902590Y1364330D01*
X9910470Y1359040D01*
Y1348460D01*
X9902590Y1343170D01*
G01X10264790Y1353750D02*
Y1671250D01*
X10119120Y1443710D01*
X10315980D01*
G01X10532510Y1671250D02*
X10501010Y1660670D01*
X10477390Y1634210D01*
X10461640Y1602460D01*
X10449830Y1560120D01*
X10445900Y1512500D01*
X10449830Y1464870D01*
X10461640Y1422540D01*
X10477390Y1390780D01*
X10501010Y1364330D01*
X10532510Y1353750D01*
X10564000Y1364330D01*
X10587630Y1390780D01*
X10603380Y1422540D01*
X10615190Y1464870D01*
X10619120Y1512500D01*
X10615190Y1560120D01*
X10603380Y1602460D01*
X10587630Y1634210D01*
X10564000Y1660670D01*
X10532510Y1671250D01*
G01X10760860Y1417250D02*
X10784470Y1380200D01*
X10815970Y1359040D01*
X10851410Y1353750D01*
X10882910Y1359040D01*
X10914400Y1385490D01*
X10934080Y1417250D01*
X10938020Y1449000D01*
X10930150Y1486030D01*
X10902590Y1512500D01*
X10875030Y1523090D01*
X10839590D01*
G01X10875030D02*
X10898650Y1538960D01*
X10918340Y1565410D01*
X10926210Y1597160D01*
X10918340Y1628920D01*
X10898650Y1655370D01*
X10863220Y1671250D01*
X10827790Y1665960D01*
X10792350Y1644790D01*
G01X11087620Y1486030D02*
X11115190Y1523090D01*
X11138810Y1544250D01*
X11170310Y1554830D01*
X11197870Y1544250D01*
X11217550Y1523090D01*
X11233300Y1491330D01*
X11237240Y1454290D01*
X11233300Y1422540D01*
X11217550Y1390780D01*
X11193920Y1364330D01*
X11166370Y1353750D01*
X11134870Y1364330D01*
X11107310Y1396070D01*
X11091560Y1443710D01*
X11087620Y1496620D01*
X11095500Y1565410D01*
X11107310Y1602460D01*
X11126990Y1639500D01*
X11154550Y1665960D01*
X11182110Y1671250D01*
X11209670Y1660670D01*
X11229360Y1634210D01*
G01X9745110Y1988750D02*
Y2306250D01*
X9697870Y2242750D01*
G01Y1988750D02*
X9792350D01*
G01X10060070Y1978170D02*
X10052190Y1983460D01*
Y1994040D01*
X10060070Y1999330D01*
X10067950Y1994040D01*
Y1983460D01*
X10060070Y1978170D01*
G01X10288420Y2036360D02*
X10312030Y2009910D01*
X10339590Y1994040D01*
X10375030Y1988750D01*
X10410470Y1999330D01*
X10438020Y2020490D01*
X10457710Y2057540D01*
X10461640Y2099870D01*
X10453770Y2142200D01*
X10434080Y2168670D01*
X10406520Y2189830D01*
X10378970Y2195120D01*
X10351410Y2189830D01*
X10315980Y2168670D01*
X10327790Y2306250D01*
X10434080D01*
G01X10615180Y2253330D02*
X10638810Y2285080D01*
X10666370Y2300960D01*
X10697870Y2306250D01*
X10737230Y2295670D01*
X10764800Y2269210D01*
X10772670Y2237460D01*
X10768730Y2205700D01*
X10752980Y2179250D01*
X10674240Y2126330D01*
X10638810Y2089290D01*
X10615180Y2036360D01*
X10607310Y1988750D01*
X10772670D01*
G01X11052190D02*
Y2306250D01*
X10906520Y2078710D01*
X11103380D01*
G01X9745110Y2623750D02*
Y2941250D01*
X9697870Y2877750D01*
G01Y2623750D02*
X9792350D01*
G01X10060070Y2613170D02*
X10052190Y2618460D01*
Y2629040D01*
X10060070Y2634330D01*
X10067950Y2629040D01*
Y2618460D01*
X10060070Y2613170D01*
G01X10288420Y2687250D02*
X10312030Y2650200D01*
X10343530Y2629040D01*
X10378970Y2623750D01*
X10410470Y2629040D01*
X10441960Y2655490D01*
X10461640Y2687250D01*
X10465580Y2719000D01*
X10457710Y2756030D01*
X10430150Y2782500D01*
X10402590Y2793090D01*
X10367150D01*
G01X10402590D02*
X10426210Y2808960D01*
X10445900Y2835410D01*
X10453770Y2867160D01*
X10445900Y2898920D01*
X10426210Y2925370D01*
X10390780Y2941250D01*
X10355350Y2935960D01*
X10319910Y2914790D01*
G01X10623060Y2660780D02*
X10650620Y2634330D01*
X10682110Y2623750D01*
X10713610Y2634330D01*
X10741170Y2666070D01*
X10760860Y2713710D01*
X10768730Y2761330D01*
Y2819540D01*
X10760860Y2867160D01*
X10741170Y2909500D01*
X10717550Y2930670D01*
X10689990Y2941250D01*
X10658490Y2930670D01*
X10634870Y2909500D01*
X10619120Y2877750D01*
X10611250Y2835410D01*
X10619120Y2798380D01*
X10638810Y2761330D01*
X10662430Y2740160D01*
X10689990Y2734870D01*
X10721480Y2745450D01*
X10745110Y2771910D01*
X10768730Y2819540D01*
G01X10997070Y2623750D02*
X11004950Y2692540D01*
X11016760Y2750740D01*
X11032510Y2803670D01*
X11052190Y2861870D01*
X11083690Y2941250D01*
X10926210D01*
G01X9745110Y4846250D02*
X9713610Y4835670D01*
X9689990Y4809210D01*
X9674240Y4777460D01*
X9662430Y4735120D01*
X9658500Y4687500D01*
X9662430Y4639870D01*
X9674240Y4597540D01*
X9689990Y4565780D01*
X9713610Y4539330D01*
X9745110Y4528750D01*
X9776600Y4539330D01*
X9800230Y4565780D01*
X9815980Y4597540D01*
X9827790Y4639870D01*
X9831720Y4687500D01*
X9827790Y4735120D01*
X9815980Y4777460D01*
X9800230Y4809210D01*
X9776600Y4835670D01*
X9745110Y4846250D01*
G01X10060070Y4518170D02*
X10052190Y4523460D01*
Y4534040D01*
X10060070Y4539330D01*
X10067950Y4534040D01*
Y4523460D01*
X10060070Y4518170D01*
G01X10375030Y4528750D02*
X10402590Y4534040D01*
X10434080Y4549910D01*
X10453770Y4576360D01*
X10461640Y4613420D01*
X10453770Y4650450D01*
X10430150Y4682200D01*
X10394710Y4698090D01*
X10355350D01*
X10331720Y4708670D01*
X10312030Y4735120D01*
X10304160Y4772160D01*
X10315980Y4809210D01*
X10343530Y4835670D01*
X10375030Y4846250D01*
X10406520Y4835670D01*
X10434080Y4809210D01*
X10445900Y4772160D01*
X10438020Y4735120D01*
X10418340Y4708670D01*
X10394710Y4698090D01*
X10355350D01*
X10319910Y4682200D01*
X10296290Y4650450D01*
X10288420Y4613420D01*
X10296290Y4576360D01*
X10315980Y4549910D01*
X10347470Y4534040D01*
X10375030Y4528750D01*
G01X10689990D02*
X10717550Y4534040D01*
X10749040Y4549910D01*
X10768730Y4576360D01*
X10776600Y4613420D01*
X10768730Y4650450D01*
X10745110Y4682200D01*
X10709670Y4698090D01*
X10670310D01*
X10646680Y4708670D01*
X10626990Y4735120D01*
X10619120Y4772160D01*
X10630940Y4809210D01*
X10658490Y4835670D01*
X10689990Y4846250D01*
X10721480Y4835670D01*
X10749040Y4809210D01*
X10760860Y4772160D01*
X10752980Y4735120D01*
X10733300Y4708670D01*
X10709670Y4698090D01*
X10670310D01*
X10634870Y4682200D01*
X10611250Y4650450D01*
X10603380Y4613420D01*
X10611250Y4576360D01*
X10630940Y4549910D01*
X10662430Y4534040D01*
X10689990Y4528750D01*
G01X10938020Y4565780D02*
X10965580Y4539330D01*
X10997070Y4528750D01*
X11028570Y4539330D01*
X11056130Y4571070D01*
X11075820Y4618710D01*
X11083690Y4666330D01*
Y4724540D01*
X11075820Y4772160D01*
X11056130Y4814500D01*
X11032510Y4835670D01*
X11004950Y4846250D01*
X10973450Y4835670D01*
X10949830Y4814500D01*
X10934080Y4782750D01*
X10926210Y4740410D01*
X10934080Y4703380D01*
X10953770Y4666330D01*
X10977390Y4645160D01*
X11004950Y4639870D01*
X11036440Y4650450D01*
X11060070Y4676910D01*
X11083690Y4724540D01*
G01X9587630Y5481250D02*
X9556130Y5470670D01*
X9532510Y5444210D01*
X9516760Y5412460D01*
X9504950Y5370120D01*
X9501020Y5322500D01*
X9504950Y5274870D01*
X9516760Y5232540D01*
X9532510Y5200780D01*
X9556130Y5174330D01*
X9587630Y5163750D01*
X9619120Y5174330D01*
X9642750Y5200780D01*
X9658500Y5232540D01*
X9670310Y5274870D01*
X9674240Y5322500D01*
X9670310Y5370120D01*
X9658500Y5412460D01*
X9642750Y5444210D01*
X9619120Y5470670D01*
X9587630Y5481250D01*
G01X9902590Y5153170D02*
X9894710Y5158460D01*
Y5169040D01*
X9902590Y5174330D01*
X9910470Y5169040D01*
Y5158460D01*
X9902590Y5153170D01*
G01X10130940Y5227250D02*
X10154550Y5190200D01*
X10186050Y5169040D01*
X10221490Y5163750D01*
X10252990Y5169040D01*
X10284480Y5195490D01*
X10304160Y5227250D01*
X10308100Y5259000D01*
X10300230Y5296030D01*
X10272670Y5322500D01*
X10245110Y5333090D01*
X10209670D01*
G01X10245110D02*
X10268730Y5348960D01*
X10288420Y5375410D01*
X10296290Y5407160D01*
X10288420Y5438920D01*
X10268730Y5465370D01*
X10233300Y5481250D01*
X10197870Y5475960D01*
X10162430Y5454790D01*
G01X10532510Y5481250D02*
X10501010Y5470670D01*
X10477390Y5444210D01*
X10461640Y5412460D01*
X10449830Y5370120D01*
X10445900Y5322500D01*
X10449830Y5274870D01*
X10461640Y5232540D01*
X10477390Y5200780D01*
X10501010Y5174330D01*
X10532510Y5163750D01*
X10564000Y5174330D01*
X10587630Y5200780D01*
X10603380Y5232540D01*
X10615190Y5274870D01*
X10619120Y5322500D01*
X10615190Y5370120D01*
X10603380Y5412460D01*
X10587630Y5444210D01*
X10564000Y5470670D01*
X10532510Y5481250D01*
G01X10894710Y5163750D02*
Y5481250D01*
X10749040Y5253710D01*
X10945900D01*
G01X11162430Y5163750D02*
X11189990Y5169040D01*
X11221480Y5184910D01*
X11241170Y5211360D01*
X11249040Y5248420D01*
X11241170Y5285450D01*
X11217550Y5317200D01*
X11182110Y5333090D01*
X11142750D01*
X11119120Y5343670D01*
X11099430Y5370120D01*
X11091560Y5407160D01*
X11103380Y5444210D01*
X11130930Y5470670D01*
X11162430Y5481250D01*
X11193920Y5470670D01*
X11221480Y5444210D01*
X11233300Y5407160D01*
X11225420Y5370120D01*
X11205740Y5343670D01*
X11182110Y5333090D01*
X11142750D01*
X11107310Y5317200D01*
X11083690Y5285450D01*
X11075820Y5248420D01*
X11083690Y5211360D01*
X11103380Y5184910D01*
X11134870Y5169040D01*
X11162430Y5163750D01*
G01X9819910Y5841070D02*
X9851410Y5814620D01*
X9886840Y5798750D01*
X9918340D01*
X9949830Y5814620D01*
X9973460Y5841070D01*
X9985270Y5878130D01*
X9977400Y5915160D01*
X9957710Y5946910D01*
X9922270Y5968090D01*
X9875030Y5978670D01*
X9847470Y5999830D01*
X9835660Y6036870D01*
X9843540Y6073920D01*
X9863220Y6100370D01*
X9890780Y6116250D01*
X9918340D01*
X9945900Y6105670D01*
X9969520Y6079210D01*
G01X10170310Y6116250D02*
X10264790D01*
G01X10217550D02*
Y5798750D01*
G01X10170310D02*
X10264790D01*
G01X10457700Y6116250D02*
X10607320D01*
X10457700Y5798750D01*
X10607320D01*
G01X10926210D02*
X10768730D01*
Y6116250D01*
X10926210D01*
G01X10863220Y5962800D02*
X10768730D01*
G01X10060070Y3258750D02*
Y3576250D01*
X10012830Y3512750D01*
G01Y3258750D02*
X10107310D01*
G01X10375030Y3248170D02*
X10367150Y3253460D01*
Y3264040D01*
X10375030Y3269330D01*
X10382910Y3264040D01*
Y3253460D01*
X10375030Y3248170D01*
G01X10689990Y3576250D02*
X10658490Y3565670D01*
X10634870Y3539210D01*
X10619120Y3507460D01*
X10607310Y3465120D01*
X10603380Y3417500D01*
X10607310Y3369870D01*
X10619120Y3327540D01*
X10634870Y3295780D01*
X10658490Y3269330D01*
X10689990Y3258750D01*
X10721480Y3269330D01*
X10745110Y3295780D01*
X10760860Y3327540D01*
X10772670Y3369870D01*
X10776600Y3417500D01*
X10772670Y3465120D01*
X10760860Y3507460D01*
X10745110Y3539210D01*
X10721480Y3565670D01*
X10689990Y3576250D01*
G01X10060070Y4211250D02*
X10028570Y4200670D01*
X10004950Y4174210D01*
X9989200Y4142460D01*
X9977390Y4100120D01*
X9973460Y4052500D01*
X9977390Y4004870D01*
X9989200Y3962540D01*
X10004950Y3930780D01*
X10028570Y3904330D01*
X10060070Y3893750D01*
X10091560Y3904330D01*
X10115190Y3930780D01*
X10130940Y3962540D01*
X10142750Y4004870D01*
X10146680Y4052500D01*
X10142750Y4100120D01*
X10130940Y4142460D01*
X10115190Y4174210D01*
X10091560Y4200670D01*
X10060070Y4211250D01*
G01X10375030Y3883170D02*
X10367150Y3888460D01*
Y3899040D01*
X10375030Y3904330D01*
X10382910Y3899040D01*
Y3888460D01*
X10375030Y3883170D01*
G01X10623060Y3930780D02*
X10650620Y3904330D01*
X10682110Y3893750D01*
X10713610Y3904330D01*
X10741170Y3936070D01*
X10760860Y3983710D01*
X10768730Y4031330D01*
Y4089540D01*
X10760860Y4137160D01*
X10741170Y4179500D01*
X10717550Y4200670D01*
X10689990Y4211250D01*
X10658490Y4200670D01*
X10634870Y4179500D01*
X10619120Y4147750D01*
X10611250Y4105410D01*
X10619120Y4068380D01*
X10638810Y4031330D01*
X10662430Y4010160D01*
X10689990Y4004870D01*
X10721480Y4015450D01*
X10745110Y4041910D01*
X10768730Y4089540D01*
G01X12776600Y6275000D02*
Y-75000D01*
G01X13524630Y83750D02*
Y401250D01*
X13619120D01*
X13650610Y385370D01*
X13674240Y348330D01*
X13682110Y306000D01*
X13674240Y263670D01*
X13654550Y231910D01*
X13619120Y216030D01*
X13524630D01*
G01X13839590Y401250D02*
Y83750D01*
X13997070D01*
G01X14134860D02*
X14233290Y401250D01*
X14331720Y83750D01*
G01X14296280Y194870D02*
X14170290D01*
G01X14548250Y401250D02*
Y83750D01*
G01X14457700Y401250D02*
X14638800D01*
G01X14941950Y83750D02*
X14784470D01*
Y401250D01*
X14941950D01*
G01X14878960Y247800D02*
X14784470D01*
G01X15091560Y83750D02*
Y401250D01*
X15170290D01*
X15201790Y385370D01*
X15225410Y364210D01*
X15245100Y332460D01*
X15260850Y295410D01*
X15264780Y242500D01*
X15260850Y189580D01*
X15245100Y152540D01*
X15225410Y120780D01*
X15201790Y99620D01*
X15170290Y83750D01*
X15091560D01*
G01X13524630Y718750D02*
Y1036250D01*
X13619120D01*
X13650610Y1020370D01*
X13674240Y983330D01*
X13682110Y941000D01*
X13674240Y898670D01*
X13654550Y866910D01*
X13619120Y851030D01*
X13524630D01*
G01X13839590Y1036250D02*
Y718750D01*
X13997070D01*
G01X14134860D02*
X14233290Y1036250D01*
X14331720Y718750D01*
G01X14296280Y829870D02*
X14170290D01*
G01X14548250Y1036250D02*
Y718750D01*
G01X14457700Y1036250D02*
X14638800D01*
G01X14941950Y718750D02*
X14784470D01*
Y1036250D01*
X14941950D01*
G01X14878960Y882800D02*
X14784470D01*
G01X15091560Y718750D02*
Y1036250D01*
X15170290D01*
X15201790Y1020370D01*
X15225410Y999210D01*
X15245100Y967460D01*
X15260850Y930410D01*
X15264780Y877500D01*
X15260850Y824580D01*
X15245100Y787540D01*
X15225410Y755780D01*
X15201790Y734620D01*
X15170290Y718750D01*
X15091560D01*
G01X13524630Y1353750D02*
Y1671250D01*
X13619120D01*
X13650610Y1655370D01*
X13674240Y1618330D01*
X13682110Y1576000D01*
X13674240Y1533670D01*
X13654550Y1501910D01*
X13619120Y1486030D01*
X13524630D01*
G01X13839590Y1671250D02*
Y1353750D01*
X13997070D01*
G01X14134860D02*
X14233290Y1671250D01*
X14331720Y1353750D01*
G01X14296280Y1464870D02*
X14170290D01*
G01X14548250Y1671250D02*
Y1353750D01*
G01X14457700Y1671250D02*
X14638800D01*
G01X14941950Y1353750D02*
X14784470D01*
Y1671250D01*
X14941950D01*
G01X14878960Y1517800D02*
X14784470D01*
G01X15091560Y1353750D02*
Y1671250D01*
X15170290D01*
X15201790Y1655370D01*
X15225410Y1634210D01*
X15245100Y1602460D01*
X15260850Y1565410D01*
X15264780Y1512500D01*
X15260850Y1459580D01*
X15245100Y1422540D01*
X15225410Y1390780D01*
X15201790Y1369620D01*
X15170290Y1353750D01*
X15091560D01*
G01X13524630Y1988750D02*
Y2306250D01*
X13619120D01*
X13650610Y2290370D01*
X13674240Y2253330D01*
X13682110Y2211000D01*
X13674240Y2168670D01*
X13654550Y2136910D01*
X13619120Y2121030D01*
X13524630D01*
G01X13839590Y2306250D02*
Y1988750D01*
X13997070D01*
G01X14134860D02*
X14233290Y2306250D01*
X14331720Y1988750D01*
G01X14296280Y2099870D02*
X14170290D01*
G01X14548250Y2306250D02*
Y1988750D01*
G01X14457700Y2306250D02*
X14638800D01*
G01X14941950Y1988750D02*
X14784470D01*
Y2306250D01*
X14941950D01*
G01X14878960Y2152800D02*
X14784470D01*
G01X15091560Y1988750D02*
Y2306250D01*
X15170290D01*
X15201790Y2290370D01*
X15225410Y2269210D01*
X15245100Y2237460D01*
X15260850Y2200410D01*
X15264780Y2147500D01*
X15260850Y2094580D01*
X15245100Y2057540D01*
X15225410Y2025780D01*
X15201790Y2004620D01*
X15170290Y1988750D01*
X15091560D01*
G01X13524630Y2623750D02*
Y2941250D01*
X13619120D01*
X13650610Y2925370D01*
X13674240Y2888330D01*
X13682110Y2846000D01*
X13674240Y2803670D01*
X13654550Y2771910D01*
X13619120Y2756030D01*
X13524630D01*
G01X13839590Y2941250D02*
Y2623750D01*
X13997070D01*
G01X14134860D02*
X14233290Y2941250D01*
X14331720Y2623750D01*
G01X14296280Y2734870D02*
X14170290D01*
G01X14548250Y2941250D02*
Y2623750D01*
G01X14457700Y2941250D02*
X14638800D01*
G01X14941950Y2623750D02*
X14784470D01*
Y2941250D01*
X14941950D01*
G01X14878960Y2787800D02*
X14784470D01*
G01X15091560Y2623750D02*
Y2941250D01*
X15170290D01*
X15201790Y2925370D01*
X15225410Y2904210D01*
X15245100Y2872460D01*
X15260850Y2835410D01*
X15264780Y2782500D01*
X15260850Y2729580D01*
X15245100Y2692540D01*
X15225410Y2660780D01*
X15201790Y2639620D01*
X15170290Y2623750D01*
X15091560D01*
G01X13524630Y3258750D02*
Y3576250D01*
X13619120D01*
X13650610Y3560370D01*
X13674240Y3523330D01*
X13682110Y3481000D01*
X13674240Y3438670D01*
X13654550Y3406910D01*
X13619120Y3391030D01*
X13524630D01*
G01X13839590Y3576250D02*
Y3258750D01*
X13997070D01*
G01X14134860D02*
X14233290Y3576250D01*
X14331720Y3258750D01*
G01X14296280Y3369870D02*
X14170290D01*
G01X14548250Y3576250D02*
Y3258750D01*
G01X14457700Y3576250D02*
X14638800D01*
G01X14941950Y3258750D02*
X14784470D01*
Y3576250D01*
X14941950D01*
G01X14878960Y3422800D02*
X14784470D01*
G01X15091560Y3258750D02*
Y3576250D01*
X15170290D01*
X15201790Y3560370D01*
X15225410Y3539210D01*
X15245100Y3507460D01*
X15260850Y3470410D01*
X15264780Y3417500D01*
X15260850Y3364580D01*
X15245100Y3327540D01*
X15225410Y3295780D01*
X15201790Y3274620D01*
X15170290Y3258750D01*
X15091560D01*
G01X13524630Y3893750D02*
Y4211250D01*
X13619120D01*
X13650610Y4195370D01*
X13674240Y4158330D01*
X13682110Y4116000D01*
X13674240Y4073670D01*
X13654550Y4041910D01*
X13619120Y4026030D01*
X13524630D01*
G01X13839590Y4211250D02*
Y3893750D01*
X13997070D01*
G01X14134860D02*
X14233290Y4211250D01*
X14331720Y3893750D01*
G01X14296280Y4004870D02*
X14170290D01*
G01X14548250Y4211250D02*
Y3893750D01*
G01X14457700Y4211250D02*
X14638800D01*
G01X14941950Y3893750D02*
X14784470D01*
Y4211250D01*
X14941950D01*
G01X14878960Y4057800D02*
X14784470D01*
G01X15091560Y3893750D02*
Y4211250D01*
X15170290D01*
X15201790Y4195370D01*
X15225410Y4174210D01*
X15245100Y4142460D01*
X15260850Y4105410D01*
X15264780Y4052500D01*
X15260850Y3999580D01*
X15245100Y3962540D01*
X15225410Y3930780D01*
X15201790Y3909620D01*
X15170290Y3893750D01*
X15091560D01*
G01X13524630Y4528750D02*
Y4846250D01*
X13619120D01*
X13650610Y4830370D01*
X13674240Y4793330D01*
X13682110Y4751000D01*
X13674240Y4708670D01*
X13654550Y4676910D01*
X13619120Y4661030D01*
X13524630D01*
G01X13839590Y4846250D02*
Y4528750D01*
X13997070D01*
G01X14134860D02*
X14233290Y4846250D01*
X14331720Y4528750D01*
G01X14296280Y4639870D02*
X14170290D01*
G01X14548250Y4846250D02*
Y4528750D01*
G01X14457700Y4846250D02*
X14638800D01*
G01X14941950Y4528750D02*
X14784470D01*
Y4846250D01*
X14941950D01*
G01X14878960Y4692800D02*
X14784470D01*
G01X15091560Y4528750D02*
Y4846250D01*
X15170290D01*
X15201790Y4830370D01*
X15225410Y4809210D01*
X15245100Y4777460D01*
X15260850Y4740410D01*
X15264780Y4687500D01*
X15260850Y4634580D01*
X15245100Y4597540D01*
X15225410Y4565780D01*
X15201790Y4544620D01*
X15170290Y4528750D01*
X15091560D01*
G01X13524630Y5163750D02*
Y5481250D01*
X13619120D01*
X13650610Y5465370D01*
X13674240Y5428330D01*
X13682110Y5386000D01*
X13674240Y5343670D01*
X13654550Y5311910D01*
X13619120Y5296030D01*
X13524630D01*
G01X13839590Y5481250D02*
Y5163750D01*
X13997070D01*
G01X14134860D02*
X14233290Y5481250D01*
X14331720Y5163750D01*
G01X14296280Y5274870D02*
X14170290D01*
G01X14548250Y5481250D02*
Y5163750D01*
G01X14457700Y5481250D02*
X14638800D01*
G01X14941950Y5163750D02*
X14784470D01*
Y5481250D01*
X14941950D01*
G01X14878960Y5327800D02*
X14784470D01*
G01X15091560Y5163750D02*
Y5481250D01*
X15170290D01*
X15201790Y5465370D01*
X15225410Y5444210D01*
X15245100Y5412460D01*
X15260850Y5375410D01*
X15264780Y5322500D01*
X15260850Y5269580D01*
X15245100Y5232540D01*
X15225410Y5200780D01*
X15201790Y5179620D01*
X15170290Y5163750D01*
X15091560D01*
G01X13524630Y5798750D02*
Y6116250D01*
X13619120D01*
X13650610Y6100370D01*
X13674240Y6063330D01*
X13682110Y6021000D01*
X13674240Y5978670D01*
X13654550Y5946910D01*
X13619120Y5931030D01*
X13524630D01*
G01X13839590Y6116250D02*
Y5798750D01*
X13997070D01*
G01X14134860D02*
X14233290Y6116250D01*
X14331720Y5798750D01*
G01X14296280Y5909870D02*
X14170290D01*
G01X14548250Y6116250D02*
Y5798750D01*
G01X14457700Y6116250D02*
X14638800D01*
G01X14941950Y5798750D02*
X14784470D01*
Y6116250D01*
X14941950D01*
G01X14878960Y5962800D02*
X14784470D01*
G01X15091560Y5798750D02*
Y6116250D01*
X15170290D01*
X15201790Y6100370D01*
X15225410Y6079210D01*
X15245100Y6047460D01*
X15260850Y6010410D01*
X15264780Y5957500D01*
X15260850Y5904580D01*
X15245100Y5867540D01*
X15225410Y5835780D01*
X15201790Y5814620D01*
X15170290Y5798750D01*
X15091560D01*
G01X16004940Y6275000D02*
Y-75000D01*
G01X16914380Y348330D02*
X16938010Y380080D01*
X16965570Y395960D01*
X16997070Y401250D01*
X17036430Y390670D01*
X17064000Y364210D01*
X17071870Y332460D01*
X17067930Y300700D01*
X17052180Y274250D01*
X16973440Y221330D01*
X16938010Y184290D01*
X16914380Y131360D01*
X16906510Y83750D01*
X17071870D01*
G01X16914380Y983330D02*
X16938010Y1015080D01*
X16965570Y1030960D01*
X16997070Y1036250D01*
X17036430Y1025670D01*
X17064000Y999210D01*
X17071870Y967460D01*
X17067930Y935700D01*
X17052180Y909250D01*
X16973440Y856330D01*
X16938010Y819290D01*
X16914380Y766360D01*
X16906510Y718750D01*
X17071870D01*
G01X17036430Y1353750D02*
Y1671250D01*
X16890760Y1443710D01*
X17087620D01*
G01X16914380Y2253330D02*
X16938010Y2285080D01*
X16965570Y2300960D01*
X16997070Y2306250D01*
X17036430Y2295670D01*
X17064000Y2269210D01*
X17071870Y2237460D01*
X17067930Y2205700D01*
X17052180Y2179250D01*
X16973440Y2126330D01*
X16938010Y2089290D01*
X16914380Y2036360D01*
X16906510Y1988750D01*
X17071870D01*
G01X16902580Y2687250D02*
X16926190Y2650200D01*
X16957690Y2629040D01*
X16993130Y2623750D01*
X17024630Y2629040D01*
X17056120Y2655490D01*
X17075800Y2687250D01*
X17079740Y2719000D01*
X17071870Y2756030D01*
X17044310Y2782500D01*
X17016750Y2793090D01*
X16981310D01*
G01X17016750D02*
X17040370Y2808960D01*
X17060060Y2835410D01*
X17067930Y2867160D01*
X17060060Y2898920D01*
X17040370Y2925370D01*
X17004940Y2941250D01*
X16969510Y2935960D01*
X16934070Y2914790D01*
G01X16989190Y3258750D02*
X17016750Y3264040D01*
X17048240Y3279910D01*
X17067930Y3306360D01*
X17075800Y3343420D01*
X17067930Y3380450D01*
X17044310Y3412200D01*
X17008870Y3428090D01*
X16969510D01*
X16945880Y3438670D01*
X16926190Y3465120D01*
X16918320Y3502160D01*
X16930140Y3539210D01*
X16957690Y3565670D01*
X16989190Y3576250D01*
X17020680Y3565670D01*
X17048240Y3539210D01*
X17060060Y3502160D01*
X17052180Y3465120D01*
X17032500Y3438670D01*
X17008870Y3428090D01*
X16969510D01*
X16934070Y3412200D01*
X16910450Y3380450D01*
X16902580Y3343420D01*
X16910450Y3306360D01*
X16930140Y3279910D01*
X16961630Y3264040D01*
X16989190Y3258750D01*
G01X16914380Y4158330D02*
X16938010Y4190080D01*
X16965570Y4205960D01*
X16997070Y4211250D01*
X17036430Y4200670D01*
X17064000Y4174210D01*
X17071870Y4142460D01*
X17067930Y4110700D01*
X17052180Y4084250D01*
X16973440Y4031330D01*
X16938010Y3994290D01*
X16914380Y3941360D01*
X16906510Y3893750D01*
X17071870D01*
G01X16831710Y4528750D02*
Y4846250D01*
X16784470Y4782750D01*
G01Y4528750D02*
X16878950D01*
G01X17146670Y4846250D02*
X17115170Y4835670D01*
X17091550Y4809210D01*
X17075800Y4777460D01*
X17063990Y4735120D01*
X17060060Y4687500D01*
X17063990Y4639870D01*
X17075800Y4597540D01*
X17091550Y4565780D01*
X17115170Y4539330D01*
X17146670Y4528750D01*
X17178160Y4539330D01*
X17201790Y4565780D01*
X17217540Y4597540D01*
X17229350Y4639870D01*
X17233280Y4687500D01*
X17229350Y4735120D01*
X17217540Y4777460D01*
X17201790Y4809210D01*
X17178160Y4835670D01*
X17146670Y4846250D01*
G01X16674230Y5163750D02*
Y5481250D01*
X16626990Y5417750D01*
G01Y5163750D02*
X16721470D01*
G01X17036430D02*
Y5481250D01*
X16890760Y5253710D01*
X17087620D01*
G01X17217540Y5211360D02*
X17241150Y5184910D01*
X17268710Y5169040D01*
X17304150Y5163750D01*
X17339590Y5174330D01*
X17367140Y5195490D01*
X17386830Y5232540D01*
X17390760Y5274870D01*
X17382890Y5317200D01*
X17363200Y5343670D01*
X17335640Y5364830D01*
X17308090Y5370120D01*
X17280530Y5364830D01*
X17245100Y5343670D01*
X17256910Y5481250D01*
X17363200D01*
G01X16674230Y5798750D02*
X16642730Y5804040D01*
X16615180Y5825200D01*
X16591550Y5856960D01*
X16575800Y5894000D01*
X16567930Y5936330D01*
Y5978670D01*
X16575800Y6021000D01*
X16591550Y6058040D01*
X16615180Y6089790D01*
X16642730Y6110960D01*
X16674230Y6116250D01*
X16705720Y6110960D01*
X16733280Y6089790D01*
X16756910Y6058040D01*
X16772660Y6021000D01*
X16780530Y5978670D01*
Y5936330D01*
X16772660Y5894000D01*
X16756910Y5856960D01*
X16733280Y5825200D01*
X16705720Y5804040D01*
X16674230Y5798750D01*
G01X16705720Y5883420D02*
X16752970Y5798750D01*
G01X16989190Y6116250D02*
Y5798750D01*
G01X16898640Y6116250D02*
X17079740D01*
G01X17304150Y5798750D02*
Y5941620D01*
X17225410Y6116250D01*
G01X17382890D02*
X17304150Y5941620D01*
G54D11*
X270000Y1392000D03*
Y1646000D03*
Y1900000D03*
X260000Y2659000D03*
Y3421000D03*
Y2913000D03*
Y3167000D03*
X3525000Y270000D03*
X3325000D03*
X3125000D03*
X6831730Y4687500D03*
G54D12*
X73800Y1917910D03*
Y2217910D03*
Y2807910D03*
Y3107910D03*
X93800Y3757910D03*
Y4057910D03*
X280950Y786080D03*
X580950D03*
X280950Y1086080D03*
X580950D03*
X630000Y1560000D03*
X760000Y2000000D03*
Y1840000D03*
X670000Y2710000D03*
Y2920000D03*
X703800Y3437910D03*
Y3737910D03*
X820770Y93320D03*
X1120770D03*
X880950Y786080D03*
Y1086080D03*
X1120000Y1580000D03*
X940000Y1840000D03*
X1180000Y3010000D03*
X900000D03*
X1003800Y3437910D03*
X1303800D03*
X1003800Y3737910D03*
X1303800D03*
X916910Y4916090D03*
X1216910D03*
X1420770Y93320D03*
X1720770D03*
X1560000Y1110000D03*
X1830000Y830000D03*
X1670000Y1700000D03*
Y1550000D03*
X1660000Y3030000D03*
X1450000Y3020000D03*
X1603800Y3437910D03*
Y3737910D03*
X1826910Y4916090D03*
X1516910D03*
X2020770Y93320D03*
X1967870Y1064990D03*
X2267870D03*
X1987870Y1574990D03*
X2317870Y1584990D03*
X1967870Y1314990D03*
X2267870D03*
X2317870Y2164990D03*
Y2024990D03*
Y1874990D03*
Y1734990D03*
X2037870Y2684990D03*
X2207870D03*
X2317870Y2754990D03*
Y2604990D03*
Y2444990D03*
Y2304990D03*
X1900000Y3020000D03*
X1903800Y3437910D03*
X2203800D03*
X1903800Y3737910D03*
X2203800D03*
X2126910Y4916090D03*
X2567870Y1064990D03*
X2487870Y1584990D03*
X2657870D03*
X2567870Y1314990D03*
X2437870Y2164990D03*
Y2024990D03*
X2657870Y2164990D03*
X2537870D03*
X2657870Y2024990D03*
X2537870D03*
X2657870Y1874990D03*
X2487870D03*
Y1734990D03*
X2657870D03*
X2820000Y1790000D03*
X2437870Y2444990D03*
Y2304990D03*
X2487870Y2754990D03*
Y2604990D03*
X2657870Y2444990D03*
X2537870D03*
X2657870Y2304990D03*
X2537870D03*
X2946910Y4906090D03*
X2426910Y4916090D03*
X3500000Y1230000D03*
X3490000Y1600000D03*
Y1430000D03*
X3276910Y2726090D03*
Y2916090D03*
Y3216090D03*
Y3516090D03*
Y3816090D03*
Y4116090D03*
Y4416090D03*
X3246910Y4906090D03*
X3276910Y4716090D03*
X3516910Y606090D03*
X3816910D03*
X3528830Y943530D03*
X3828830D03*
X3920000Y1590000D03*
X3930000Y1420000D03*
Y1230000D03*
X3690000D03*
X3576910Y2726090D03*
X3876910D03*
X3576910Y2916090D03*
X3876910D03*
X3576910Y3216090D03*
X3876910D03*
X3576910Y3516090D03*
X3876910D03*
X3576910Y3816090D03*
X3876910D03*
X3576910Y4116090D03*
X3876910D03*
X3576910Y4416090D03*
X3876910D03*
X3556910Y4906090D03*
X3856910D03*
X3576910Y4716090D03*
X3876910D03*
X4116910Y606090D03*
X4128830Y943530D03*
X4428830D03*
X4131620Y1258420D03*
X4431620D03*
X4466910Y2446090D03*
Y2746090D03*
Y3046090D03*
Y3346090D03*
X4156910Y4906090D03*
X4728830Y943530D03*
X4731620Y1258420D03*
X4766910Y2446090D03*
Y2746090D03*
Y3046090D03*
Y3346090D03*
X6831730Y5322500D03*
G54D13*
X1310000Y710000D03*
X2110000D03*
X6831730Y242500D03*
G54D14*
X1070000Y4040000D03*
X1832000D03*
X6831730Y2147500D03*
G54D15*
X1960000Y380000D03*
X1710000D03*
X1460000D03*
X6831730Y2782500D03*
G54D16*
X2250000Y3290000D03*
X2750000D03*
X6831730Y4052500D03*
G54D17*
X2910000Y270000D03*
X3740000D03*
X6831730Y877500D03*
G54D18*
X4090000Y2160000D03*
Y1860000D03*
Y2760000D03*
Y2460000D03*
Y3360000D03*
Y3060000D03*
Y3660000D03*
Y3960000D03*
X6831730Y3417500D03*
G54D19*
G01X4670000Y2075000D02*
G03I-150000J0D01*
G01Y3745000D02*
G03I-150000J0D01*
M02*
