G04 ================== begin FILE IDENTIFICATION RECORD ==================*
G04 Layout Name:  H:/GitHub/MBEDBoard/DRV10983_TEST_V10A/PCB/DRV10983_TEST_V10A.brd*
G04 Film Name:    PasteMask_Top*
G04 File Format:  Gerber RS274X*
G04 File Origin:  Cadence Allegro 16.6-2015-S088*
G04 Origin Date:  Fri Aug 18 17:11:18 2017*
G04 *
G04 Layer:  BOARD GEOMETRY/OUTLINE*
G04 Layer:  PIN/PASTEMASK_TOP*
G04 Layer:  PACKAGE GEOMETRY/PASTEMASK_TOP*
G04 *
G04 Offset:    (0.0000 0.0000)*
G04 Mirror:    No*
G04 Mode:      Positive*
G04 Rotation:  0*
G04 FullContactRelief:  No*
G04 UndefLineWidth:     0.1524*
G04 ================== end FILE IDENTIFICATION RECORD ====================*
%FSLAX55Y55*MOMM*%
%IR0*IPPOS*OFA0.00000B0.00000*MIA0B0*SFA1.00000B1.00000*%
%ADD19R,1.55X.3*%
%ADD14R,.8X1.4*%
%ADD15C,.75*%
%ADD17R,.9144X.9144*%
%ADD21R,1.8X3.2*%
%ADD16R,3.6X1.8*%
%ADD18R,2.4X4.9*%
%ADD13R,1.27X1.27*%
%ADD12R,1.016X1.2192*%
%ADD20C,1.524*%
%ADD10C,6.35*%
%ADD11C,1.778*%
%ADD22R,1.1938X1.1938*%
%ADD23C,.2032*%
%ADD24C,.1524*%
G75*
%LPD*%
G75*
G54D10*
X330000Y330000D03*
Y4670000D03*
X4670000Y330000D03*
Y4670000D03*
G54D11*
X270000Y1392000D03*
Y1646000D03*
X260000Y2659000D03*
Y2913000D03*
Y3167000D03*
G54D20*
X3525000Y270000D03*
X3325000D03*
X3125000D03*
G54D12*
X218400Y3920000D03*
X421600D03*
G54D21*
X3190000Y1480000D03*
X3750000D03*
G54D22*
X3774140Y2160000D03*
X3565860D03*
X3774140Y1860000D03*
X3565860D03*
X3774140Y2460000D03*
X3565860D03*
G54D13*
X805860Y2200000D03*
X1014140D03*
G54D23*
G01X4670000Y2075000D02*
G03I-150000J0D01*
G01Y3745000D02*
G03I-150000J0D01*
G54D14*
X717300Y2430000D03*
X1062700D03*
G54D24*
G01X330000Y0D02*
X4670000D01*
G03X5000000Y330000I0J330000D01*
G01Y4670000D01*
G03X4670000Y5000000I-330000J0D01*
G01X330000D01*
G03X0Y4670000I0J-330000D01*
G01Y330000D01*
G03X330000Y0I330000J0D01*
G54D15*
X850000Y1640000D03*
X840000Y2840000D03*
X1000000D03*
X3180000Y1160000D03*
G54D16*
X1450000Y2220000D03*
Y2620000D03*
G54D17*
X996200Y2650000D03*
X843800D03*
X1566200Y1700000D03*
X1413800D03*
X1566200Y1550000D03*
X1413800D03*
X1566200Y1400000D03*
X1413800D03*
X1566200Y2000000D03*
X1413800D03*
X1566200Y1850000D03*
X1413800D03*
X1873800Y2850000D03*
X1576200D03*
X1423800D03*
Y3210000D03*
X1576200D03*
X2026200Y2850000D03*
X2823800Y1600000D03*
X2976200D03*
X3146200Y2850000D03*
X2993800D03*
G54D18*
X2490000Y2230000D03*
G54D19*
X2160000Y1872500D03*
Y1937500D03*
Y2002500D03*
Y2067500D03*
Y2132500D03*
Y2197500D03*
Y2262500D03*
Y2327500D03*
Y2392500D03*
Y2457500D03*
Y2522500D03*
Y2587500D03*
X2820000Y2197500D03*
Y2132500D03*
Y2067500D03*
Y2002500D03*
Y1937500D03*
Y1872500D03*
Y2587500D03*
Y2522500D03*
Y2457500D03*
Y2392500D03*
Y2327500D03*
Y2262500D03*
M02*
