G04 ================== begin FILE IDENTIFICATION RECORD ==================*
G04 Layout Name:  H:/GitHub/MBEDBoard/DRV10983_TEST_V10A/PCB/DRV10983_TEST_V10A.brd*
G04 Film Name:    TOP*
G04 File Format:  Gerber RS274X*
G04 File Origin:  Cadence Allegro 16.6-2015-S088*
G04 Origin Date:  Fri Aug 18 17:11:18 2017*
G04 *
G04 Layer:  BOARD GEOMETRY/OUTLINE*
G04 Layer:  VIA CLASS/TOP*
G04 Layer:  PIN/TOP*
G04 Layer:  ETCH/TOP*
G04 *
G04 Offset:    (0.0000 0.0000)*
G04 Mirror:    No*
G04 Mode:      Positive*
G04 Rotation:  0*
G04 FullContactRelief:  No*
G04 UndefLineWidth:     0.1524*
G04 ================== end FILE IDENTIFICATION RECORD ====================*
%FSLAX55Y55*MOMM*%
%IR0*IPPOS*OFA0.00000B0.00000*MIA0B0*SFA1.00000B1.00000*%
%ADD24R,1.55X.3*%
%ADD16R,.8X1.4*%
%ADD18C,.75*%
%ADD13C,.6096*%
%ADD17O,2.X4.*%
%ADD26O,1.5X3.*%
%ADD28R,1.8X3.2*%
%ADD19R,3.6X1.8*%
%ADD23R,2.4X4.9*%
%ADD30C,1.5*%
%ADD22C,2.032*%
%ADD15R,1.27X1.27*%
%ADD25C,1.8*%
%ADD14R,1.016X1.2192*%
%ADD21C,2.54*%
%ADD27C,1.524*%
%ADD31R,1.5X1.5*%
%ADD10C,6.35*%
%ADD11C,1.778*%
%ADD20R,.9144X.9144*%
%ADD29R,1.1938X1.1938*%
%ADD12R,1.778X1.778*%
%ADD32C,.3*%
%ADD33C,.4*%
%ADD34C,.2032*%
%ADD35C,.254*%
%ADD36C,.7112*%
%ADD37C,.1524*%
%ADD38C,.508*%
%ADD39C,.762*%
%ADD40C,2.*%
%ADD44C,2.5164*%
%ADD41C,3.2562*%
%ADD43C,2.7148*%
%ADD42C,3.4548*%
G75*
%LPD*%
G75*
G36*
G01X581400Y20000D02*
G02X568080Y55670I-1J20322D01*
G03X55670Y568080I-238080J274330D01*
G02X20000Y581400I-15348J13319D01*
G01Y4418600D01*
G02X55670Y4431920I20322J1D01*
G03X568080Y4944330I274330J238080D01*
G02X581400Y4980000I13319J15348D01*
G01X4418600D01*
G02X4431920Y4944330I1J-20322D01*
G03X4944330Y4431920I238080J-274330D01*
G02X4980000Y4418600I15348J-13319D01*
G01Y581400D01*
G02X4944330Y568080I-20322J-1D01*
G03X4431920Y55670I-274330J-238080D01*
G02X4418600Y20000I-13319J-15348D01*
G01X581400D01*
G37*
%LPC*%
G75*
G36*
G01X3023740Y154480D02*
G02X2789260Y195000I-113739J40520D01*
G01Y345000D01*
G02X3023740Y385520I120741J0D01*
G03X3054210Y375460I19145J6812D01*
G02X3217590Y356950I70790J-105462D01*
G03X3232410I7410J6956D01*
G02X3236560Y361170I92614J-86927D01*
G01X3236620Y361230D01*
X3271640Y396270D01*
Y642900D01*
X2922840Y991700D01*
Y1501530D01*
X2915390Y1509970D01*
G03X2884800Y1509810I-15225J-13461D01*
G01X2879460Y1503640D01*
Y620740D01*
X2583060Y324340D01*
X2119900D01*
X2068990Y273450D01*
X2068950Y273410D01*
G02X1849700Y274800I-108954J106589D01*
G03X1820300I-14700J-14022D01*
G02X1596650Y278100I-110297J105199D01*
G03X1566810Y278510I-15110J-13587D01*
G02X1323820Y436260I-106813J101490D01*
G03X1305650Y464320I-18780J7752D01*
G02X1164260Y610000I4355J145680D01*
G01Y810000D01*
G02X1455740I145740J0D01*
G01Y610000D01*
G02X1445060Y555250I-145738J12D01*
G03X1463420Y527300I18833J-7634D01*
G02X1566810Y481490I-3422J-147300D01*
G03X1596650Y481900I14730J13997D01*
G02X1603780Y489310I113334J-101917D01*
G01X1603830Y489360D01*
X1656640Y542190D01*
Y767900D01*
X1085900Y1338640D01*
X414230D01*
X370290Y1294720D01*
X370240Y1294670D01*
G02X184980Y1502880I-100238J97335D01*
G03Y1535120I-12364J16120D01*
G02X156900Y1728030I85021J110874D01*
G03X140450Y1760280I-16451J11929D01*
G01X130280D01*
Y2033050D01*
X344590Y2063300D01*
X374340Y2093060D01*
Y2529490D01*
G03X342080Y2545930I-20319J-1D01*
G02X174980Y2769880I-82081J113071D01*
G03Y2802120I-12364J16120D01*
G02Y3023880I85020J110880D01*
G03Y3056120I-12364J16120D01*
G02X150250Y3253470I85019J110878D01*
G03X134290Y3286360I-15964J12571D01*
G01X125360D01*
Y3555640D01*
X368240D01*
Y3800930D01*
X330140Y3843500D01*
Y4021620D01*
X513060D01*
Y3843500D01*
X474960Y3800930D01*
Y3440500D01*
X652100Y3263360D01*
X1325330D01*
X1362680Y3296380D01*
X1662580D01*
Y3129390D01*
X1550960Y3112240D01*
X1503060Y3064340D01*
X703060D01*
X595660Y2956940D01*
Y1903060D01*
X713060Y1785660D01*
X1329020D01*
X1367700Y1786380D01*
X1421460D01*
X1466870Y1831790D01*
X1482500Y1913620D01*
X1479820D01*
Y2084260D01*
X904260D01*
Y2563620D01*
X757420D01*
Y2708580D01*
X784340Y2746880D01*
Y2785130D01*
G02X903490Y2885580I55653J54877D01*
G03X936510I16510J11850D01*
G02X1055660Y2785130I63497J-45573D01*
G01Y2736380D01*
X1082580D01*
Y2735740D01*
X1108950D01*
X1185740Y2658950D01*
Y2368950D01*
X1188950Y2365740D01*
X1770520D01*
G03X1784890Y2400430I0J20321D01*
G01X1711050Y2474260D01*
X1214260D01*
Y2765740D01*
X1337420D01*
Y2936380D01*
X1637320D01*
X1674670Y2903360D01*
X1702100D01*
X1752730Y2852730D01*
G03X1787420Y2867100I14370J14367D01*
G01Y2936380D01*
X2086370D01*
X2111350Y2916060D01*
X2524260D01*
Y4251050D01*
X2461050Y4314260D01*
X1528950D01*
X1475740Y4261050D01*
Y3901050D01*
X1338950Y3764260D01*
X861050D01*
X754260Y3871050D01*
Y4498950D01*
X1061050Y4805740D01*
X2978950D01*
X3085740Y4698950D01*
Y2589480D01*
G03X3120430Y2575110I20321J0D01*
G01X3191050Y2645740D01*
X3578950D01*
X3664340Y2560350D01*
X3675490D01*
X3678420Y2563070D01*
G02X3774140Y2600660I95720J-103077D01*
G01X4090000D01*
G02X4141060Y2328930I0J-140662D01*
G03Y2291070I7373J-18930D01*
G02Y2028930I-51060J-131070D01*
G03Y1991070I7373J-18930D01*
G02X4150840Y1986820I-51131J-131039D01*
G01X4152930Y1985820D01*
X4215820D01*
Y1922930D01*
X4216820Y1920840D01*
G02Y1799160I-126820J-60840D01*
G01X4215820Y1797070D01*
Y1734180D01*
X4152930D01*
X4150840Y1733180D01*
G02X4090000Y1719340I-60843J126819D01*
G01X3774140D01*
G02X3694210Y1744260I0J140646D01*
G01X3471050D01*
X3370430Y1844890D01*
G03X3335740Y1830520I-14369J-14370D01*
G01Y1264260D01*
X3233360D01*
Y1217110D01*
G02X3126640I-53360J-57110D01*
G01Y1264260D01*
X3029560D01*
Y1035900D01*
X3378360Y687100D01*
Y396270D01*
X3413380Y361230D01*
X3413440Y361170D01*
G02X3414380Y360250I-88374J-91235D01*
G03X3442440Y359740I14297J14439D01*
G02X3593950Y370570I82557J-89741D01*
G03X3624830Y381230I11494J16760D01*
G02X3860740Y345000I115173J-36230D01*
G01Y195000D01*
G02X3624830Y158770I-120737J0D01*
G03X3593950Y169430I-19386J-6100D01*
G02X3442440Y180260I-68953J100571D01*
G03X3414380Y179750I-13763J-14949D01*
G02X3238790Y176710I-89384J90249D01*
G03X3211210I-13790J-14918D01*
G02X3054210Y164540I-86203J93290D01*
G03X3023740Y154480I-11325J-16872D01*
G37*
G54D44*
X4090000Y2760000D03*
Y3360000D03*
Y3060000D03*
Y3660000D03*
Y3960000D03*
G54D41*
X4520000Y2075000D03*
Y3745000D03*
G54D43*
X2250000Y3290000D03*
G54D42*
X1832000Y4040000D03*
%LPD*%
G75*
G36*
G01X358060Y2013880D02*
X181100Y1988900D01*
X267490Y1897210D01*
X358900Y1811100D01*
X373900Y1998900D01*
G03X358060Y2013880I-15003J0D01*
G37*
G36*
G01X1904340Y830740D02*
Y539900D01*
X1853450Y488990D01*
X1853410Y488950D01*
G03X1849700Y485200I106483J-109057D01*
G02X1820300I-14700J14022D01*
G03X1816220Y489310I-110192J-105308D01*
G01X1816170Y489360D01*
X1763360Y542190D01*
Y812100D01*
X1130100Y1445360D01*
X414230D01*
X370290Y1489280D01*
X370240Y1489330D01*
G03X355020Y1502880I-100269J-97304D01*
G02Y1535120I12364J16120D01*
G03X370240Y1548670I-85049J110854D01*
G01X370290Y1548720D01*
X414230Y1592640D01*
X786830D01*
X794330Y1585140D01*
X794350Y1585120D01*
G03X927360Y1651130I55648J54882D01*
G02X947480Y1674340I20114J2889D01*
G01X1285990D01*
X1339740Y1625100D01*
X1327420Y1610870D01*
Y1489130D01*
X1339650Y1475000D01*
X1327420Y1460870D01*
Y1313620D01*
X1421460D01*
X1904340Y830740D01*
G37*
G36*
G01X386740Y1400980D02*
X332850Y1454850D01*
X266820Y1392000D01*
X332850Y1329150D01*
X386740Y1383020D01*
G03Y1400980I-8980J8980D01*
G37*
G36*
G01Y1654980D02*
X332850Y1708850D01*
X266820Y1646000D01*
X332850Y1583150D01*
X386740Y1637020D01*
G03Y1654980I-8980J8980D01*
G37*
G36*
G01X348900Y3093100D02*
Y3167000D01*
X257350Y3169650D01*
X260000Y3078100D01*
X333900D01*
G03X348900Y3093100I0J15000D01*
G37*
G36*
G01X429220Y3810790D02*
X472400Y3859040D01*
X421600Y3923180D01*
X370800Y3859040D01*
X413980Y3810790D01*
G03X429220I7620J10160D01*
G37*
G36*
G01X799950Y1637020D02*
X823480Y1613490D01*
X853140Y1639540D01*
X826870Y1668930D01*
X803340Y1657400D01*
G03X799950Y1637020I5591J-11402D01*
G37*
G36*
G01X1295670Y1720620D02*
X1368080Y1654280D01*
X1417410Y1698980D01*
X1368080Y1745720D01*
X1303610Y1744520D01*
G03X1295670Y1720620I3762J-14519D01*
G37*
G36*
G01X950000Y2130000D02*
Y2690000D01*
X1090000D01*
X1140000Y2640000D01*
Y2350000D01*
X1170000Y2320000D01*
X1830000D01*
X1860000Y2290000D01*
X1960000D01*
Y2253160D01*
X1740640D01*
X1617480Y2130000D01*
X950000D01*
G37*
G36*
G01X1870000Y2380000D02*
X1730000Y2520000D01*
X1260000D01*
Y2720000D01*
X1478340D01*
X1491700Y2706640D01*
X1673360D01*
X1960000Y2420000D01*
Y2380000D01*
X1870000D01*
G37*
G36*
G01X830470Y2741810D02*
X798080Y2695720D01*
X843980Y2646250D01*
X889520Y2695720D01*
X848580Y2742540D01*
G03X830470Y2741810I-8574J-12309D01*
G37*
G36*
G01X1010610Y2797570D02*
X1026510Y2813490D01*
X1000000Y2843750D01*
X973490Y2813490D01*
X989390Y2797570D01*
G03X1010610I10610J10610D01*
G37*
G36*
G01X850610D02*
X866510Y2813490D01*
X840000Y2843750D01*
X813490Y2813490D01*
X829390Y2797570D01*
G03X850610I10610J10610D01*
G37*
G36*
G01X800000Y3890000D02*
Y4480000D01*
X1080000Y4760000D01*
X2960000D01*
X3040000Y4680000D01*
Y2570000D01*
X2980000Y2510000D01*
X2930000D01*
Y2630000D01*
X2710000D01*
Y2510000D01*
X2680000D01*
X2570000Y2620000D01*
Y4270000D01*
X2480000Y4360000D01*
X1510000D01*
X1430000Y4280000D01*
Y3920000D01*
X1320000Y3810000D01*
X880000D01*
X800000Y3890000D01*
G37*
G36*
G01X1701020Y514700D02*
X1638170Y451830D01*
X1710000Y376820D01*
X1781830Y451830D01*
X1718980Y514700D01*
G03X1701020I-8980J-8980D01*
G37*
G36*
G01X2768140Y1503640D02*
Y666860D01*
X2536940Y435660D01*
X2119900D01*
X2101350Y454200D01*
X2111350Y464210D01*
X2115340Y464360D01*
G03X2255740Y610000I-5338J145640D01*
G01Y810000D01*
G03X2007500Y913600I-145738J0D01*
G02X1978840Y913680I-14290J14446D01*
G01X1613580Y1278930D01*
G02X1627950Y1313620I14369J14369D01*
G01X1628810D01*
X1661690Y1346640D01*
X1662100D01*
X2108460Y1792990D01*
X2278160Y1823500D01*
Y2643160D01*
X2067140D01*
X2064530Y2640860D01*
X2034600D01*
X1925640Y2749820D01*
X1937840Y2763620D01*
X2086370D01*
X2111350Y2783940D01*
X2524260D01*
Y2601050D01*
X2661050Y2464260D01*
X2701840D01*
Y1841300D01*
X2748780Y1791750D01*
X2748890Y1787880D01*
G03X2891110I71110J2120D01*
G01X2891220Y1791750D01*
X2905300Y1806610D01*
G02X2922840Y1799630I7380J-6983D01*
G01Y1698470D01*
X2912160Y1686380D01*
X2737420D01*
Y1539130D01*
X2768140Y1503640D01*
G37*
G36*
G01X1422160Y1611120D02*
X1459520Y1654280D01*
X1413800Y1703750D01*
X1368080Y1654280D01*
X1405440Y1611120D01*
G03X1422160I8360J12450D01*
G37*
G36*
G01X1405440Y1488880D02*
X1368080Y1445720D01*
X1413800Y1396250D01*
X1459520Y1445720D01*
X1422160Y1488880D01*
G03X1405440I-8360J-12450D01*
G37*
G36*
G01Y1638880D02*
X1368080Y1595720D01*
X1413800Y1546250D01*
X1459520Y1595720D01*
X1422160Y1638880D01*
G03X1405440I-8360J-12450D01*
G37*
G36*
G01X1422160Y1461120D02*
X1459520Y1504280D01*
X1413800Y1553750D01*
X1368080Y1504280D01*
X1405440Y1461120D01*
G03X1422160I8360J12450D01*
G37*
G36*
G01X1650820Y1406650D02*
X1611920Y1445720D01*
X1563020Y1400000D01*
X1611920Y1354280D01*
X1650820Y1393350D01*
G03Y1406650I-10820J6650D01*
G37*
G36*
G01X1655230Y1707430D02*
X1611920Y1745720D01*
X1563020Y1700000D01*
X1611920Y1654280D01*
X1655230Y1692570D01*
G03Y1707430I-10300J7430D01*
G37*
G36*
G01X1635880Y1691020D02*
X1648460Y1678460D01*
X1673180Y1700000D01*
X1648460Y1721540D01*
X1635880Y1708980D01*
G03Y1691020I8980J-8980D01*
G37*
G36*
G01X1655230Y1557430D02*
X1611920Y1595720D01*
X1563020Y1550000D01*
X1611920Y1504280D01*
X1655230Y1542570D01*
G03Y1557430I-10300J7430D01*
G37*
G36*
G01X1687780Y1580480D02*
X1670000D01*
X1667750Y1547750D01*
X1700480Y1550000D01*
Y1567780D01*
G03X1687780Y1580480I-12700J0D01*
G37*
G36*
G01X1635880Y1541020D02*
X1648460Y1528460D01*
X1673180Y1550000D01*
X1648460Y1571540D01*
X1635880Y1558980D01*
G03Y1541020I8980J-8980D01*
G37*
G36*
G01X1518080Y1789280D02*
X1611920Y1804280D01*
X1568920Y1852580D01*
X1520480Y1895720D01*
X1503090Y1804670D01*
G03X1518080Y1789280I14990J-395D01*
G37*
G36*
G01X1687780Y1730480D02*
X1670000D01*
X1667750Y1697750D01*
X1700480Y1700000D01*
Y1717780D01*
G03X1687780Y1730480I-12700J0D01*
G37*
G36*
G01X1881230Y2760970D02*
X1919520Y2804280D01*
X1873800Y2853180D01*
X1828080Y2804280D01*
X1866370Y2760970D01*
G03X1881230I7430J10300D01*
G37*
G36*
G01X1665230Y2857430D02*
X1621920Y2895720D01*
X1573020Y2850000D01*
X1621920Y2804280D01*
X1665230Y2842570D01*
G03Y2857430I-10300J7430D01*
G37*
G36*
G01X1524280Y3149280D02*
X1621920Y3164280D01*
X1579010Y3212480D01*
X1530480Y3255720D01*
X1509310Y3165290D01*
G03X1524280Y3149280I14970J-1006D01*
G37*
G36*
G01X1334770Y3202570D02*
X1378080Y3164280D01*
X1426980Y3210000D01*
X1378080Y3255720D01*
X1334770Y3217430D01*
G03Y3202570I10300J-7430D01*
G37*
G36*
G01X1949390Y513080D02*
X1888170Y451840D01*
X1960000Y376250D01*
X2031830Y451840D01*
X1970610Y513080D01*
G03X1949390I-10610J-10610D01*
G37*
G36*
G01X2093080Y390610D02*
X2031840Y451830D01*
X1956250Y380000D01*
X2031840Y308170D01*
X2093080Y369390D01*
G03Y390610I-10610J10610D01*
G37*
G36*
G01X2083720Y1829860D02*
X2237500Y1857500D01*
X2171840Y1877080D01*
X2082500Y1887500D01*
X2069800Y1842500D01*
G03X2083720Y1829860I12699J0D01*
G37*
G36*
G01X2067660Y2000580D02*
X2082500Y1987500D01*
X2163180Y2002500D01*
X2082500Y2017500D01*
X2067660Y2004420D01*
G03Y2000580I12550J-1920D01*
G37*
G36*
G01Y1935580D02*
X2082500Y1922500D01*
X2163180Y1937500D01*
X2082500Y1952500D01*
X2067660Y1939420D01*
G03Y1935580I12550J-1920D01*
G37*
G36*
G01Y2585580D02*
X2082500Y2572500D01*
X2163180Y2587500D01*
X2082500Y2602500D01*
X2067660Y2589420D01*
G03Y2585580I12550J-1920D01*
G37*
G36*
G01Y2520580D02*
X2082500Y2507500D01*
X2163180Y2522500D01*
X2082500Y2537500D01*
X2067660Y2524420D01*
G03Y2520580I12550J-1920D01*
G37*
G36*
G01Y2455580D02*
X2082500Y2442500D01*
X2163180Y2457500D01*
X2082500Y2472500D01*
X2067660Y2459420D01*
G03Y2455580I12550J-1920D01*
G37*
G36*
G01X2115440Y2860310D02*
X2071920Y2895720D01*
X2019850Y2850000D01*
X2071920Y2804280D01*
X2115440Y2839690D01*
G03Y2860310I-23210J10310D01*
G37*
G36*
G01X2832160Y1511120D02*
X2869520Y1554280D01*
X2823800Y1603750D01*
X2778080Y1554280D01*
X2815440Y1511120D01*
G03X2832160I8360J12450D01*
G37*
G36*
G01X2912340Y1939420D02*
X2897500Y1952500D01*
X2816820Y1937500D01*
X2897500Y1922500D01*
X2912340Y1935580D01*
G03Y1939420I-12550J1920D01*
G37*
G36*
G01X2828050Y1784180D02*
X2897500Y1857500D01*
X2820000Y1875680D01*
X2742500Y1857500D01*
X2811950Y1784180D01*
G03X2828050I8050J9820D01*
G37*
G36*
G01X2912340Y2524420D02*
X2897500Y2537500D01*
X2816820Y2522500D01*
X2897500Y2507500D01*
X2912340Y2520580D01*
G03Y2524420I-12550J1920D01*
G37*
G36*
G01X2727660Y2520580D02*
X2742500Y2507500D01*
X2823180Y2522500D01*
X2742500Y2537500D01*
X2727660Y2524420D01*
G03Y2520580I12550J-1920D01*
G37*
G36*
G01X3316020Y368780D02*
X3271130Y323870D01*
X3325000Y266820D01*
X3378870Y323870D01*
X3333980Y368780D01*
G03X3316020I-8980J-8980D01*
G37*
G36*
G01X3090000Y1310000D02*
Y1920000D01*
X3020000Y1990000D01*
X2955460D01*
X2954600Y1990860D01*
X2930000D01*
Y2074260D01*
X3141050D01*
X3290000Y1925310D01*
Y1310000D01*
X3090000D01*
G37*
G36*
G01X3171020Y1204050D02*
X3153490Y1186520D01*
X3180000Y1156820D01*
X3206510Y1186520D01*
X3188980Y1204050D01*
G03X3171020I-8980J-8980D01*
G37*
G36*
G01X2983630Y1510970D02*
X3021920Y1554280D01*
X2976200Y1603180D01*
X2930480Y1554280D01*
X2968770Y1510970D01*
G03X2983630I7430J10300D01*
G37*
G36*
G01X2968770Y1689030D02*
X2930480Y1645720D01*
X2976200Y1596820D01*
X3021920Y1645720D01*
X2983630Y1689030D01*
G03X2968770I-7430J-10300D01*
G37*
G36*
G01X2930000Y2128160D02*
Y2204260D01*
X3301050D01*
X3461050Y2044260D01*
X3575740D01*
X3630000Y1990000D01*
Y1790000D01*
X3490000D01*
X3160000Y2120000D01*
X2972990D01*
X2970770Y2121170D01*
G03X2942500Y2128160I-28270J-53672D01*
G01X2930000D01*
G37*
G36*
G01Y2258160D02*
Y2340000D01*
X3580000D01*
X3630000Y2290000D01*
Y2090000D01*
X3480000D01*
X3320000Y2250000D01*
X2972990D01*
X2970770Y2251170D01*
G03X2942500Y2258160I-28270J-53672D01*
G01X2930000D01*
G37*
G36*
G01X3015780Y2370000D02*
G03X2972500Y2388160I-43280J-42494D01*
G01X2930000D01*
Y2464260D01*
X2998950D01*
X3024690Y2490000D01*
X3100000D01*
X3210000Y2600000D01*
X3560000D01*
X3630000Y2530000D01*
Y2390000D01*
X3610000Y2370000D01*
X3015780D01*
G37*
%LPC*%
G75*
G54D43*
X2750000Y3290000D03*
G54D42*
X1070000Y4040000D03*
%LPD*%
G75*
G36*
G01X2811020Y1824120D02*
X2798460Y1811540D01*
X2820000Y1786820D01*
X2841540Y1811540D01*
X2828980Y1824120D01*
G03X2811020I-8980J-8980D01*
G37*
G54D10*
X330000Y330000D03*
Y4670000D03*
X4670000Y330000D03*
Y4670000D03*
G54D20*
X996200Y2650000D03*
X843800D03*
X1566200Y1700000D03*
X1413800D03*
X1566200Y1550000D03*
X1413800D03*
X1566200Y1400000D03*
X1413800D03*
X1566200Y2000000D03*
X1413800D03*
X1566200Y1850000D03*
X1413800D03*
X1873800Y2850000D03*
X1576200D03*
X1423800D03*
Y3210000D03*
X1576200D03*
X2026200Y2850000D03*
X2823800Y1600000D03*
X2976200D03*
X3146200Y2850000D03*
X2993800D03*
G54D11*
X270000Y1392000D03*
Y1646000D03*
X260000Y2659000D03*
Y2913000D03*
Y3167000D03*
G54D12*
X270000Y1900000D03*
X260000Y3421000D03*
G54D21*
X1070000Y4040000D03*
X1832000D03*
G54D30*
X4090000Y2160000D03*
Y2760000D03*
Y2460000D03*
Y3360000D03*
Y3060000D03*
Y3660000D03*
Y3960000D03*
G54D40*
G01X3774140Y2160000D02*
X4090000D01*
G01X3774140Y1860000D02*
X4090000D01*
G01Y2460000D02*
X3774140D01*
G54D31*
X4090000Y1860000D03*
G54D22*
X1960000Y380000D03*
X1710000D03*
X1460000D03*
G54D13*
X73800Y1917910D03*
Y2217910D03*
Y2807910D03*
Y3107910D03*
X93800Y3757910D03*
Y4057910D03*
X280950Y786080D03*
X580950D03*
X280950Y1086080D03*
X580950D03*
X630000Y1560000D03*
X760000Y2000000D03*
Y1840000D03*
X670000Y2710000D03*
Y2920000D03*
X703800Y3437910D03*
Y3737910D03*
X820770Y93320D03*
X1120770D03*
X880950Y786080D03*
Y1086080D03*
X1120000Y1580000D03*
X940000Y1840000D03*
X1180000Y3010000D03*
X900000D03*
X1003800Y3437910D03*
X1303800D03*
X1003800Y3737910D03*
X1303800D03*
X916910Y4916090D03*
X1216910D03*
X1420770Y93320D03*
X1720770D03*
X1560000Y1110000D03*
X1830000Y830000D03*
X1670000Y1700000D03*
Y1550000D03*
X1660000Y3030000D03*
X1450000Y3020000D03*
X1603800Y3437910D03*
Y3737910D03*
X1826910Y4916090D03*
X1516910D03*
X2020770Y93320D03*
X1967870Y1064990D03*
X2267870D03*
X1987870Y1574990D03*
X2317870Y1584990D03*
X1967870Y1314990D03*
X2267870D03*
X2317870Y2164990D03*
Y2024990D03*
Y1874990D03*
Y1734990D03*
X2037870Y2684990D03*
X2207870D03*
X2317870Y2754990D03*
Y2604990D03*
Y2444990D03*
Y2304990D03*
X1900000Y3020000D03*
X1903800Y3437910D03*
X2203800D03*
X1903800Y3737910D03*
X2203800D03*
X2126910Y4916090D03*
X2567870Y1064990D03*
X2487870Y1584990D03*
X2657870D03*
X2567870Y1314990D03*
X2437870Y2164990D03*
Y2024990D03*
X2657870Y2164990D03*
X2537870D03*
X2657870Y2024990D03*
X2537870D03*
X2657870Y1874990D03*
X2487870D03*
Y1734990D03*
X2657870D03*
X2820000Y1790000D03*
X2437870Y2444990D03*
Y2304990D03*
X2487870Y2754990D03*
Y2604990D03*
X2657870Y2444990D03*
X2537870D03*
X2657870Y2304990D03*
X2537870D03*
X2946910Y4906090D03*
X2426910Y4916090D03*
X3500000Y1230000D03*
X3490000Y1600000D03*
Y1430000D03*
X3276910Y2726090D03*
Y2916090D03*
Y3216090D03*
Y3516090D03*
Y3816090D03*
Y4116090D03*
Y4416090D03*
X3246910Y4906090D03*
X3276910Y4716090D03*
X3516910Y606090D03*
X3816910D03*
X3528830Y943530D03*
X3828830D03*
X3920000Y1590000D03*
X3930000Y1420000D03*
Y1230000D03*
X3690000D03*
X3576910Y2726090D03*
X3876910D03*
X3576910Y2916090D03*
X3876910D03*
X3576910Y3216090D03*
X3876910D03*
X3576910Y3516090D03*
X3876910D03*
X3576910Y3816090D03*
X3876910D03*
X3576910Y4116090D03*
X3876910D03*
X3576910Y4416090D03*
X3876910D03*
X3556910Y4906090D03*
X3856910D03*
X3576910Y4716090D03*
X3876910D03*
X4116910Y606090D03*
X4128830Y943530D03*
X4428830D03*
X4131620Y1258420D03*
X4431620D03*
X4466910Y2446090D03*
Y2746090D03*
Y3046090D03*
Y3346090D03*
X4156910Y4906090D03*
X4728830Y943530D03*
X4731620Y1258420D03*
X4766910Y2446090D03*
Y2746090D03*
Y3046090D03*
Y3346090D03*
G54D32*
G01X1413800Y1700000D02*
X1383800Y1730000D01*
X690000D01*
X540000Y1880000D01*
Y2980000D01*
X680000Y3120000D01*
X1480000D01*
X1570000Y3210000D01*
X1576200D01*
G01X260000Y3167000D02*
X430000Y2997000D01*
Y2070000D01*
X270000Y1910000D01*
Y1900000D01*
G01X996200Y2650000D02*
X1000000Y2653800D01*
G01D02*
Y2840000D01*
G01X840000D02*
Y2653800D01*
X843800Y2650000D01*
G01X1960000Y380000D02*
Y853800D01*
X1413800Y1400000D01*
G01Y1550000D02*
Y1400000D01*
G01Y1700000D02*
Y1550000D01*
G01X1566200Y1850000D02*
X1563800D01*
X1413800Y1700000D01*
G01X2160000Y2197500D02*
X1763700D01*
X1566200Y2000000D01*
G01X2160000Y2067500D02*
X1783700D01*
X1566200Y1850000D01*
G01X1730000Y2260000D02*
X1732500Y2262500D01*
G01D02*
X2160000D01*
G01X1960000Y380000D02*
X2560000D01*
X2823800Y643800D01*
Y1600000D01*
G01X2317870Y2164990D02*
X2285380Y2132500D01*
G01D02*
X2160000D01*
G01X2317870Y2304990D02*
X2295360Y2327500D01*
G01D02*
X2160000D01*
G01X1940000Y2420000D02*
X1967500Y2392500D01*
X2160000D01*
G54D14*
X218400Y3920000D03*
X421600D03*
G54D23*
X2490000Y2230000D03*
G54D33*
G01X2942500Y2067500D02*
X2820000D01*
G01X2932500Y2002500D02*
X2820000D01*
G01X2950000Y2060000D02*
X2942500Y2067500D01*
G01X2950000Y2020000D02*
X2932500Y2002500D01*
G01Y2132500D02*
X2820000D01*
G01X2942500Y2197500D02*
X2820000D01*
G01X2950000Y2150000D02*
X2932500Y2132500D01*
G01X2950000Y2190000D02*
X2942500Y2197500D01*
G01X2952500Y2262500D02*
X2820000D01*
G01X2972500Y2327500D02*
X2820000D01*
G01X2960000Y2270000D02*
X2952500Y2262500D01*
G01X2962500Y2392500D02*
X2820000D01*
G01X3107500Y2457500D02*
X2820000D01*
G01Y2587500D02*
Y2640000D01*
G01X2670000Y2590000D02*
X2672500Y2587500D01*
G01X2940000Y2590000D02*
X2937500Y2587500D01*
G01X2672500D02*
X2820000D01*
G01X2937500D02*
X2820000D01*
G01X2980000Y2320000D02*
X2972500Y2327500D01*
G01X2970000Y2400000D02*
X2962500Y2392500D01*
G01X3110000Y2460000D02*
X3107500Y2457500D01*
G54D15*
X805860Y2200000D03*
X1014140D03*
G54D24*
X2160000Y1872500D03*
Y1937500D03*
Y2002500D03*
Y2067500D03*
Y2132500D03*
Y2197500D03*
Y2262500D03*
Y2327500D03*
Y2392500D03*
Y2457500D03*
Y2522500D03*
Y2587500D03*
X2820000Y2197500D03*
Y2132500D03*
Y2067500D03*
Y2002500D03*
Y1937500D03*
Y1872500D03*
Y2587500D03*
Y2522500D03*
Y2457500D03*
Y2392500D03*
Y2327500D03*
Y2262500D03*
G54D34*
G01X4670000Y2075000D02*
G03I-150000J0D01*
G01Y3745000D02*
G03I-150000J0D01*
G54D25*
X2250000Y3290000D03*
X2750000D03*
G54D16*
X717300Y2430000D03*
X1062700D03*
G54D35*
G01X270000Y1392000D02*
X1108000D01*
X1710000Y790000D01*
Y380000D01*
G01X270000Y1646000D02*
X844000D01*
X850000Y1640000D01*
G01X1423800Y3210000D02*
X630000D01*
X421600Y3418400D01*
Y3920000D01*
G01X2160000Y1872500D02*
X2112500D01*
X1640000Y1400000D01*
X1566200D01*
G01Y1700000D02*
X1670000D01*
G01D02*
X1972500Y2002500D01*
X2160000D01*
G01X1566200Y1550000D02*
X1670000D01*
G01D02*
X2057500Y1937500D01*
X2160000D01*
G01X1576200Y2850000D02*
X1680000D01*
X2007500Y2522500D01*
X2160000D01*
G01X1423800Y2850000D02*
X1513800Y2760000D01*
X1700000D01*
X2002500Y2457500D01*
X2160000D01*
G01X1873800Y2850000D02*
Y2726200D01*
X2012500Y2587500D01*
X2160000D01*
G01X2976200Y1600000D02*
Y1893800D01*
X2932500Y1937500D01*
X2820000D01*
G01Y1872500D02*
Y1790000D01*
G01X2690000Y2540000D02*
X2707500Y2522500D01*
G01X2940000Y2530000D02*
X2932500Y2522500D01*
G01X2707500D02*
X2820000D01*
G01X2932500D02*
X2820000D01*
G01X3325000Y270000D02*
Y665000D01*
X2976200Y1013800D01*
Y1600000D01*
G01X3180000Y1160000D02*
Y1470000D01*
G01D02*
X3190000Y1480000D01*
G54D26*
X2910000Y270000D03*
X3740000D03*
G54D17*
X1310000Y710000D03*
X2110000D03*
G54D36*
G01X260000Y3421000D02*
Y3565800D01*
G01X115200Y3421000D02*
X260000D01*
G01X330000Y330000D02*
Y703400D01*
G01Y330000D02*
X703400D01*
G01X330000Y4296600D02*
Y4670000D01*
G01D02*
X703400D01*
G01X1302500Y380000D02*
X1460000D01*
G01X1310000Y454100D02*
Y710000D01*
G01D02*
Y965900D01*
G01X1154100Y710000D02*
X1310000D01*
G01D02*
X1465900D01*
G01X1070000Y4040000D02*
Y4222900D01*
G01X887100Y4040000D02*
X1070000D01*
G01D02*
X1252900D01*
G01X1460000Y222500D02*
Y380000D01*
G01D02*
Y537500D01*
G01X1832000Y3857100D02*
Y4032000D01*
G01X1649100Y4040000D02*
X1832000D01*
G01D02*
X2014900D01*
G01X1832000Y4048000D02*
Y4222900D01*
G01X2110000Y454100D02*
Y710000D01*
G01D02*
Y965900D01*
G01Y710000D02*
X2265900D01*
G01X2250000Y3144100D02*
Y3290000D01*
G01D02*
Y3435900D01*
G01X2104100Y3290000D02*
X2250000D01*
G01D02*
X2395900D01*
G01X2910000Y64100D02*
Y270000D01*
G01D02*
Y475900D01*
G01X2779100Y270000D02*
X2910000D01*
G01X2750000Y3144100D02*
Y3290000D01*
G01D02*
Y3435900D01*
G01X2604100Y3290000D02*
X2750000D01*
G01D02*
X2895900D01*
G01X3740000Y64100D02*
Y270000D01*
G01D02*
Y475900D01*
G01Y270000D02*
X3870900D01*
G01X3525000Y137900D02*
Y270000D01*
G01D02*
Y402100D01*
G01X4296600Y330000D02*
X4670000D01*
G01X4296600Y4670000D02*
X4670000D01*
G01Y330000D02*
Y703400D01*
G01Y4296600D02*
Y4670000D01*
G54D27*
X3525000Y270000D03*
X3325000D03*
X3125000D03*
G54D18*
X850000Y1640000D03*
X840000Y2840000D03*
X1000000D03*
X3180000Y1160000D03*
G54D37*
G01X330000Y0D02*
X4670000D01*
G03X5000000Y330000I0J330000D01*
G01Y4670000D01*
G03X4670000Y5000000I-330000J0D01*
G01X330000D01*
G03X0Y4670000I0J-330000D01*
G01Y330000D01*
G03X330000Y0I330000J0D01*
G54D19*
X1450000Y2220000D03*
Y2620000D03*
G54D28*
X3190000Y1480000D03*
X3750000D03*
G54D38*
G01X2026200Y2850000D02*
X2580000D01*
G54D29*
X3774140Y2160000D03*
X3565860D03*
X3774140Y1860000D03*
X3565860D03*
X3774140Y2460000D03*
X3565860D03*
G54D39*
G01X1070000Y4030000D02*
X940000Y3900000D01*
G01X1210000Y3890000D02*
X1070000Y4030000D01*
G01Y4040000D02*
X1210000Y4180000D01*
G01X1070000Y4040000D02*
X930000Y4180000D01*
G01X1070000Y4030000D02*
Y4040000D01*
G01X1832000Y4042000D02*
X1960000Y4170000D01*
G01X1832000Y4032000D02*
X1710000Y3910000D01*
G01X1832000Y4038000D02*
Y4032000D01*
G01Y4038000D02*
X1980000Y3890000D01*
G01X1832000Y4040000D02*
Y4038000D01*
G01Y4048000D02*
X1700000Y4180000D01*
G01X1832000Y4042000D02*
Y4048000D01*
G01Y4040000D02*
Y4042000D01*
M02*
