G04 ================== begin FILE IDENTIFICATION RECORD ==================*
G04 Layout Name:  E:/GitHub/MBEDBoard/USBHUB_V10A/PCB/USBHUB_V10A.brd*
G04 Film Name:    BOTTOM*
G04 File Format:  Gerber RS274X*
G04 File Origin:  Cadence Allegro 16.6-2015-S071*
G04 Origin Date:  Wed Nov 02 15:51:48 2016*
G04 *
G04 Layer:  BOARD GEOMETRY/OUTLINE*
G04 Layer:  ETCH/BOTTOM*
G04 Layer:  PIN/BOTTOM*
G04 Layer:  VIA CLASS/BOTTOM*
G04 *
G04 Offset:    (0.0000 0.0000)*
G04 Mirror:    No*
G04 Mode:      Positive*
G04 Rotation:  0*
G04 FullContactRelief:  No*
G04 UndefLineWidth:     0.1524*
G04 ================== end FILE IDENTIFICATION RECORD ====================*
%FSLAX55Y55*MOMM*%
%IR0*IPPOS*OFA0.00000B0.00000*MIA0B0*SFA1.00000B1.00000*%
%ADD11C,.6096*%
%ADD14O,4.X2.*%
%ADD12O,2.X4.*%
%ADD13C,3.3*%
%ADD15C,1.6*%
%ADD18C,1.27*%
%ADD16R,1.6X1.6*%
%ADD10C,6.35*%
%ADD17R,1.27X1.27*%
%ADD19C,.2032*%
%ADD20C,.254*%
%ADD21C,.7112*%
%ADD22C,.1524*%
%ADD23C,.508*%
%ADD25C,4.2148*%
%ADD26C,2.1848*%
%ADD24O,2.9148X4.9148*%
G75*
%LPD*%
G75*
G36*
G01X692530Y469540D02*
G02X661890Y477630I-12073J16344D01*
G03X46200Y556710I-331885J-147631D01*
G02X10000Y569390I-15879J12681D01*
G01Y3910610D01*
G02X46200Y3923290I20321J-1D01*
G03X661890Y4002370I283805J226711D01*
G02X692530Y4010460I18567J-8254D01*
G03X759770Y3989990I62472J84540D01*
G01X760010Y3990000D01*
X4473300D01*
G02X4487670Y3955310I0J-20321D01*
G01X4483360Y3951010D01*
X4479950Y3950550D01*
G03X4413780Y3875840I10045J-75555D01*
G02X4393470Y3855740I-20317J218D01*
G01X4198560D01*
X4198020Y3855800D01*
G03X4181980I-8020J-75800D01*
G01X4181440Y3855740D01*
X4108560D01*
X4108020Y3855800D01*
G03X4091980I-8020J-75800D01*
G01X4091440Y3855740D01*
X4018560D01*
X4018020Y3855800D01*
G03X4001980I-8020J-75800D01*
G01X4001440Y3855740D01*
X1831050D01*
X1741050Y3765740D01*
X1014260D01*
Y3435040D01*
G03Y3324960I59840J-55040D01*
G01Y3045740D01*
X850000D01*
G03Y2754260I0J-145740D01*
G01X1050000D01*
G03X1184500Y2956120I0J145739D01*
G02X1203260Y2984260I18755J7820D01*
G01X1521050D01*
X1554260Y2951050D01*
Y1061050D01*
X2090630Y524690D01*
G02X2076260Y490000I-14370J-14369D01*
G01X1704290D01*
G02X1693960Y527820I-3J20320D01*
G03X1526040I-83960J142180D01*
G02X1515710Y490000I-10327J-17500D01*
G01X997970D01*
G02X983990Y525070I-1J20321D01*
G03X709140Y512030I-144990J152932D01*
G02X706070Y478040I-12523J-16003D01*
G03X692530Y469540I48958J-93022D01*
G37*
G36*
G01X1126460Y3030000D02*
G03X1068890Y3049630I-76459J-130001D01*
G01X1060000Y3050750D01*
Y3720000D01*
X1760000D01*
X1850000Y3810000D01*
X4767350D01*
X4780000Y3797350D01*
Y3612650D01*
X4727350Y3560000D01*
X1890000D01*
X1830000Y3500000D01*
Y1280000D01*
X2360000Y750000D01*
X4770000D01*
Y500000D01*
X2180000D01*
X1600000Y1080000D01*
Y2970000D01*
X1540000Y3030000D01*
X1126460D01*
G37*
G36*
G01X4198560Y3514260D02*
X4632560D01*
G02X4646930Y3479570I0J-20321D01*
G01X3608360Y2441010D01*
X3602510Y2442820D01*
G03X3503970Y2375440I-22513J-72821D01*
G02X3494560Y2366030I-10131J721D01*
G03X3491130Y2365700I5583J-76016D01*
G02X3468440Y2385880I-2370J20182D01*
G01Y2445790D01*
X4228440Y3205790D01*
Y3304210D01*
X4144210Y3388440D01*
X4078930D01*
G03X3988600Y3266000I-48926J-58445D01*
G02X3991930Y3234580I-11040J-17057D01*
G01X3790430Y3033070D01*
G02X3755740Y3047440I-14369J14370D01*
G01Y3168950D01*
X3698950Y3225740D01*
X2071050D01*
X2014260Y3168950D01*
Y2961050D01*
X2071050Y2904260D01*
X3612560D01*
G02X3626930Y2869570I0J-20321D01*
G01X3291560Y2534210D01*
Y2255790D01*
X3334230Y2213130D01*
G02X3319860Y2178440I-14370J-14369D01*
G01X2905790D01*
X2741560Y2014210D01*
Y1185790D01*
X2804230Y1123130D01*
G02X2789860Y1088440I-14370J-14369D01*
G01X2734210D01*
X2709810Y1112840D01*
X2709350Y1116250D01*
G03X2623750Y1030650I-75550J-10050D01*
G01X2627160Y1030190D01*
X2685790Y971560D01*
X2984210D01*
X3048440Y1035790D01*
Y1154210D01*
X2938440Y1264210D01*
Y1599860D01*
G02X2973130Y1614230I20321J0D01*
G01X3419780Y1167570D01*
X3412580Y1160370D01*
X3412560Y1160350D01*
G03X3453660Y1031020I53640J-54149D01*
G01X3456870Y1030480D01*
X3584230Y903130D01*
G02X3569860Y868440I-14370J-14369D01*
G01X3504210D01*
X3262400Y1110250D01*
X3262030Y1113850D01*
G03X3173660Y1031020I-75833J-7650D01*
G01X3176870Y1030480D01*
X3376930Y830430D01*
G02X3362560Y795740I-14370J-14369D01*
G01X2378950D01*
X1875740Y1298950D01*
Y3481050D01*
X1908950Y3514260D01*
X4001440D01*
X4001980Y3514200D01*
G03X4018020I8020J75800D01*
G01X4018560Y3514260D01*
X4091440D01*
X4091980Y3514200D01*
G03X4108020I8020J75800D01*
G01X4108560Y3514260D01*
X4181440D01*
X4181980Y3514200D01*
G03X4198020I8020J75800D01*
G01X4198560Y3514260D01*
G37*
G36*
G01X2060000Y3150000D02*
X2090000Y3180000D01*
X3680000D01*
X3710000Y3150000D01*
Y2980000D01*
X3680000Y2950000D01*
X2090000D01*
X2060000Y2980000D01*
Y3150000D01*
G37*
G36*
G01X2664280Y1088420D02*
Y1106200D01*
X2631550Y1108450D01*
X2633800Y1075720D01*
X2651580D01*
G03X2664280Y1088420I0J12700D01*
G37*
G36*
G01X2873320Y1123980D02*
Y1106200D01*
X2906050Y1103950D01*
X2903800Y1136680D01*
X2886020D01*
G03X2873320Y1123980I0J-12700D01*
G37*
G36*
G01X2988980Y1945880D02*
X3001540Y1958460D01*
X2980000Y1983180D01*
X2958460Y1958460D01*
X2971020Y1945880D01*
G03X2988980I8980J8980D01*
G37*
G36*
G01X3068980D02*
X3081540Y1958460D01*
X3060000Y1983180D01*
X3038460Y1958460D01*
X3051020Y1945880D01*
G03X3068980I8980J8980D01*
G37*
G36*
G01X3216680Y1086020D02*
Y1106200D01*
X3184100Y1108580D01*
X3184500Y1075840D01*
X3202280Y1073430D01*
G03X3216680Y1086020I1696J12590D01*
G37*
G36*
G01X3206870Y1645770D02*
X3118440Y1734210D01*
Y1931070D01*
G03X3135700Y1988870I-58441J48928D01*
G02X3155880Y2011560I20182J2370D01*
G01X3204120D01*
G02X3224300Y1988870I-2J-20320D01*
G03X3241560Y1931070I75701J-8872D01*
G01Y1660140D01*
G02X3206870Y1645770I-20321J0D01*
G37*
G36*
G01X3308980Y1945880D02*
X3321540Y1958460D01*
X3300000Y1983180D01*
X3278460Y1958460D01*
X3291020Y1945880D01*
G03X3308980I8980J8980D01*
G37*
G36*
G01X3388980D02*
X3401540Y1958460D01*
X3380000Y1983180D01*
X3358460Y1958460D01*
X3371020Y1945880D01*
G03X3388980I8980J8980D01*
G37*
G36*
G01X3496680Y1086020D02*
Y1106200D01*
X3464100Y1108580D01*
X3464500Y1075840D01*
X3482280Y1073430D01*
G03X3496680Y1086020I1696J12590D01*
G37*
G36*
G01X5480320Y1178440D02*
X5475790D01*
X5225790Y928440D01*
X4931610D01*
Y938760D01*
G03X4871210Y1014560I-76209J1238D01*
G01X4868260Y1015190D01*
X4821510Y1061940D01*
X4361910D01*
G02X4341600Y1081780I4J20319D01*
G03X4275450Y1155550I-76198J-1784D01*
G01X4272040Y1156010D01*
X4219610Y1208440D01*
X3844210D01*
X3438440Y1614210D01*
Y1879860D01*
G02X3473130Y1894230I20321J0D01*
G01X3755790Y1611560D01*
X4194210D01*
X4614210Y2031560D01*
X4899690D01*
G02X4916590Y1999960I-2J-20320D01*
G03X4923510Y1906510I63411J-42286D01*
G02Y1892860I-7535J-6825D01*
G03X5051980Y1816640I56488J-51168D01*
G01X5054360Y1823460D01*
X5190010D01*
X5193460Y1820010D01*
Y1580010D01*
X5280010Y1493460D01*
X5477170D01*
G02X5496920Y1468350I2J-20321D01*
G03X5493740Y1438480I111101J-26932D01*
G02X5473420Y1417640I-20314J-520D01*
G01X5278590D01*
X5237490Y1376540D01*
X5054360D01*
X5051980Y1383360D01*
G03X4923510Y1307140I-71982J-25052D01*
G02Y1293490I-7535J-6825D01*
G03X5051990Y1217280I56493J-51165D01*
G01X5054360Y1224100D01*
X5300630D01*
X5341730Y1265200D01*
X5473420D01*
G02X5493740Y1244360I6J-20320D01*
G03X5499590Y1205200I114281J-2945D01*
G02X5480320Y1178440I-19272J-6440D01*
G37*
G36*
G01X3824210Y1778440D02*
X3555770Y2046870D01*
G02X3570140Y2081560I14370J14369D01*
G01X3655790D01*
X3773990Y1963360D01*
X3774450Y1959950D01*
G03X3925200Y1982400I75550J10050D01*
G03X3900050Y2125550I-35205J67599D01*
G01X3896640Y2126010D01*
X3764210Y2258440D01*
X3710140D01*
G02X3695770Y2293130I0J20321D01*
G01X4958440Y3555790D01*
Y3904210D01*
X4907330Y3955310D01*
G02X4921700Y3990000I14370J14369D01*
G01X5403170D01*
G02X5416960Y3954760I-4J-20320D01*
G03X5359930Y3866210I143038J-154763D01*
G02X5321940Y3864640I-19291J6383D01*
G03Y3735360I-151940J-64640D01*
G02X5359930Y3733790I18699J-7953D01*
G03X5515720Y3593970I200066J66215D01*
G02X5526900Y3560910I-4275J-19866D01*
G03X5503370Y3466270I83101J-70906D01*
G02X5483530Y3441540I-19836J-4410D01*
G01X5192490D01*
X5054100Y3303150D01*
Y3068470D01*
G02X5022460Y3051600I-20319J3D01*
G03X4923510Y2937140I-42452J-63301D01*
G02Y2923490I-7535J-6825D01*
G03X5051990Y2847280I56493J-51165D01*
G01X5054360Y2854100D01*
X5120630D01*
X5206540Y2940010D01*
Y3240010D01*
X5255630Y3289100D01*
X5478470D01*
G02X5498320Y3264440I0J-20319D01*
G03X5495720Y3237060I111682J-24419D01*
G02X5475400Y3216220I-20314J-520D01*
G01X5337170D01*
X5243460Y3122510D01*
Y2469990D01*
X5189370Y2415900D01*
X5054360D01*
X5051990Y2422720D01*
G03X4923510Y2346510I-71987J-25045D01*
G02Y2332860I-7535J-6825D01*
G03X4916260Y2239900I56490J-51168D01*
G02X4899270Y2208440I-16991J-11141D01*
G01X4545790D01*
X4115790Y1778440D01*
X3824210D01*
G37*
G36*
G01X3534120Y2298980D02*
X3521540Y2311540D01*
X3496820Y2290000D01*
X3521540Y2268460D01*
X3534120Y2281020D01*
G03Y2298980I-8980J8980D01*
G37*
G36*
G01X3614120Y2378980D02*
X3601540Y2391540D01*
X3576820Y2370000D01*
X3601540Y2348460D01*
X3614120Y2361020D01*
G03Y2378980I-8980J8980D01*
G37*
G36*
G01X3819520Y1987780D02*
Y1970000D01*
X3852250Y1967750D01*
X3850000Y2000480D01*
X3832220D01*
G03X3819520Y1987780I0J-12700D01*
G37*
G36*
G01X3859520Y2067780D02*
Y2050000D01*
X3892250Y2047750D01*
X3890000Y2080480D01*
X3872220D01*
G03X3859520Y2067780I0J-12700D01*
G37*
G36*
G01X3960480Y1071020D02*
X3973060Y1058460D01*
X3997780Y1080000D01*
X3973060Y1101540D01*
X3960480Y1088980D01*
G03Y1071020I8980J-8980D01*
G37*
G36*
G01X4064120Y3338980D02*
X4051540Y3351540D01*
X4026820Y3330000D01*
X4051540Y3308460D01*
X4064120Y3321020D01*
G03Y3338980I-8980J8980D01*
G37*
G36*
G01X4082220Y3229520D02*
X4100000D01*
X4102250Y3262250D01*
X4069520Y3260000D01*
Y3242220D01*
G03X4082220Y3229520I12700J0D01*
G37*
G36*
G01X4234920Y1097780D02*
Y1080000D01*
X4267650Y1077750D01*
X4265400Y1110480D01*
X4247620D01*
G03X4234920Y1097780I0J-12700D01*
G37*
G36*
G01X4550480Y931020D02*
X4563060Y918460D01*
X4587780Y940000D01*
X4563060Y961540D01*
X4550480Y948980D01*
G03Y931020I8980J-8980D01*
G37*
G36*
G01X4507780Y3905480D02*
X4490000D01*
X4487750Y3872750D01*
X4520480Y3875000D01*
Y3892780D01*
G03X4507780Y3905480I-12700J0D01*
G37*
G36*
G01X4754120Y3883980D02*
X4741540Y3896540D01*
X4716820Y3875000D01*
X4741540Y3853460D01*
X4754120Y3866020D01*
G03Y3883980I-8980J8980D01*
G37*
G36*
G01X4815740Y751560D02*
X5294210D01*
X5468960Y926320D01*
X5494040Y904480D01*
G02X5487500Y870010I-13343J-15324D01*
G03X5406950Y524490I70521J-198590D01*
G02X5392380Y490000I-14565J-14170D01*
G01X4815740D01*
Y521440D01*
X4815800Y521980D01*
G03Y538020I-75800J8020D01*
G01X4815740Y538560D01*
Y621440D01*
X4815800Y621980D01*
G03Y638020I-75800J8020D01*
G01X4815740Y638560D01*
Y711440D01*
X4815800Y711980D01*
G03Y728020I-75800J8020D01*
G01X4815740Y728560D01*
Y751560D01*
G37*
G36*
G01X4824920Y963180D02*
Y940000D01*
X4857330Y937480D01*
X4859090Y969920D01*
X4841310Y975330D01*
G03X4824920Y963180I-3692J-12150D01*
G37*
G36*
G01X5000320Y1272810D02*
X4980000D01*
X4978200Y1240530D01*
X5010480Y1242330D01*
Y1262650D01*
G03X5000320Y1272810I-10160J0D01*
G37*
G36*
G01X5010480Y1337980D02*
Y1358300D01*
X4978200Y1360100D01*
X4980000Y1327820D01*
X5000320D01*
G03X5010480Y1337980I0J10160D01*
G37*
G36*
G01X5000320Y1872180D02*
X4980000D01*
X4978200Y1839900D01*
X5010480Y1841700D01*
Y1862020D01*
G03X5000320Y1872180I-10160J0D01*
G37*
G36*
G01X5060310Y2031560D02*
X5298870D01*
X5314770Y2047470D01*
G02X5349270Y2030310I14371J-14367D01*
G03X5513740Y1795390I208749J-28886D01*
G02X5524920Y1762330I-4275J-19866D01*
G03X5500870Y1670170I83102J-70904D01*
G02X5480930Y1645900I-19933J-3949D01*
G01X5345900D01*
Y1883150D01*
X5253150Y1975900D01*
X5054360D01*
X5051990Y1982720D01*
G03X5043410Y1999960I-71981J-25068D01*
G02X5060310Y2031560I16902J11280D01*
G37*
G36*
G01X5010480Y1937350D02*
Y1957670D01*
X4978200Y1959470D01*
X4980000Y1927190D01*
X5000320D01*
G03X5010480Y1937350I0J10160D01*
G37*
G36*
G01X5054360Y2263460D02*
X5252510D01*
X5350180Y2361130D01*
G02X5381740Y2357600I14370J-14369D01*
G03X5386550Y2350300I178342J112275D01*
G02X5369830Y2318440I-16722J-11542D01*
G01X5355790D01*
X5245790Y2208440D01*
X5060730D01*
G02X5043740Y2239900I1J20319D01*
G03X5051980Y2256640I-63751J41778D01*
G01X5054360Y2263460D01*
G37*
G36*
G01X5010480Y2377350D02*
Y2397670D01*
X4978200Y2399470D01*
X4980000Y2367190D01*
X5000320D01*
G03X5010480Y2377350I0J10160D01*
G37*
G36*
G01X5000320Y2312180D02*
X4980000D01*
X4978200Y2279900D01*
X5010480Y2281700D01*
Y2302020D01*
G03X5000320Y2312180I-10160J0D01*
G37*
G36*
G01Y2902810D02*
X4980000D01*
X4978200Y2870530D01*
X5010480Y2872330D01*
Y2892650D01*
G03X5000320Y2902810I-10160J0D01*
G37*
G36*
G01X5010480Y2967980D02*
Y2988300D01*
X4978200Y2990100D01*
X4980000Y2957820D01*
X5000320D01*
G03X5010480Y2967980I0J10160D01*
G37*
G36*
G01X6468470Y478440D02*
G02X6437930Y470340I-18546J8300D01*
G03X6370320Y490020I-60928J-83341D01*
G01X6369990Y490000D01*
X6303660D01*
G02X6289090Y524490I-5J20320D01*
G03X5986950I-151070J146930D01*
G02X5972380Y490000I-14565J-14170D01*
G01X5723660D01*
G02X5709090Y524490I-5J20320D01*
G03X5683840Y840480I-151070J146932D01*
G02X5695970Y877100I12131J16301D01*
G01X5722340D01*
Y1029930D01*
G02X5739680Y1037110I10159J-6D01*
G01X5753700Y1023090D01*
Y877100D01*
X5982340D01*
Y1105740D01*
X5836350D01*
X5820710Y1121380D01*
X5832070Y1132740D01*
X5837770Y1131180D01*
G03X5944570Y1326330I30250J110244D01*
G02Y1356510I13605J15090D01*
G03X5815890Y1543160I-76548J84908D01*
G01X5709230Y1649820D01*
X5711300Y1655830D01*
G03X5664610Y1784860I-103280J35590D01*
G02X5664840Y1819760I10526J17381D01*
G03X5732350Y2119820I-106822J181658D01*
G02X5749160Y2151560I16809J11419D01*
G01X5774210D01*
X5928440Y2305790D01*
Y2340320D01*
G02X5965580Y2351730I20321J7D01*
G03Y2588270I174420J118270D01*
G02X5928440Y2599680I-16819J11403D01*
G01Y2645700D01*
X5984320Y2706750D01*
Y2904320D01*
X5755680D01*
Y2751490D01*
G02X5738340Y2744310I-10159J6D01*
G01X5724320Y2758330D01*
Y2904320D01*
X5495680D01*
Y2670680D01*
G03X5428860Y2634970I64301J-200690D01*
G02X5395900Y2650880I-12641J15907D01*
G01Y3059370D01*
X5400310Y3063780D01*
X5475400D01*
G02X5495720Y3042940I6J-20320D01*
G03X5717490Y3078910I114280J-2946D01*
G01X5715290Y3084990D01*
X5727050Y3096740D01*
X5758410Y3065380D01*
X5757470Y3060160D01*
G03X5946550Y3124910I112530J-20159D01*
G02Y3155090I13605J15090D01*
G03X5828570Y3346550I-76547J84911D01*
G01X5822390Y3344150D01*
X5724990Y3441540D01*
X5712930D01*
Y3453370D01*
X5713470Y3454960D01*
G03X5666590Y3583440I-103469J35039D01*
G02X5666820Y3618340I10526J17381D01*
G03X5703040Y3954760I-106820J181660D01*
G02X5716830Y3990000I13794J14920D01*
G01X5983170D01*
G02X5996960Y3954760I-4J-20320D01*
G03X6283040I143040J-154760D01*
G02X6296830Y3990000I13794J14920D01*
G01X6369990D01*
X6370230Y3989990D01*
G03X6437470Y4010460I4768J105010D01*
G02X6468110Y4002370I12073J-16344D01*
G03X7083800Y3923290I331885J147631D01*
G02X7120000Y3910610I15879J-12681D01*
G01Y569390D01*
G02X7083800Y556710I-20321J1D01*
G03X6468470Y478440I-283805J-226711D01*
G37*
G36*
G01X5482590Y981830D02*
X5544520Y927920D01*
X5611190Y991460D01*
X5544520Y1054920D01*
X5482410Y997960D01*
G03X5482590Y981830I9900J-7956D01*
G37*
G36*
G01X5577540Y1321100D02*
X5577550Y1274440D01*
X5608650Y1238960D01*
X5608020Y1300780D01*
X5587700Y1321100D01*
X5577540D01*
G37*
G36*
G01X5587700Y1361740D02*
X5608020Y1382060D01*
X5608650Y1443880D01*
X5577550Y1408400D01*
X5577540Y1361740D01*
X5587700D01*
G37*
G36*
G01X5589680Y3160320D02*
X5610000Y3180640D01*
X5610630Y3242460D01*
X5579530Y3206980D01*
X5579520Y3160320D01*
X5589680D01*
G37*
G36*
G01X5579520Y3119680D02*
X5579530Y3073020D01*
X5610630Y3037540D01*
X5610000Y3099360D01*
X5589680Y3119680D01*
X5579520D01*
G37*
G36*
G01X5837540Y1321100D02*
X5837550Y1274440D01*
X5868650Y1238960D01*
X5868020Y1300780D01*
X5847700Y1321100D01*
X5837540D01*
G37*
G36*
G01X5847700Y1361740D02*
X5868020Y1382060D01*
X5868650Y1443880D01*
X5837550Y1408400D01*
X5837540Y1361740D01*
X5847700D01*
G37*
G36*
G01X5877930Y2665790D02*
X5933500Y2726500D01*
X5870000Y2793180D01*
X5806500Y2726500D01*
X5862070Y2665790D01*
G03X5877930I7930J9920D01*
G37*
G36*
G01X5839520Y3119680D02*
X5839530Y3073020D01*
X5870630Y3037540D01*
X5870000Y3099360D01*
X5849680Y3119680D01*
X5839520D01*
G37*
G36*
G01X5849680Y3160320D02*
X5870000Y3180640D01*
X5870630Y3242460D01*
X5839530Y3206980D01*
X5839520Y3160320D01*
X5849680D01*
G37*
%LPC*%
G75*
G36*
G01X1040840Y1260010D02*
G03X1040460Y1294190I-11179J16968D01*
G02X1202790Y1497210I69536J110808D01*
G03X1217210I7210J7165D01*
G02X1408950Y1319430I92791J-92211D01*
G03X1424320Y1285820I15372J-13290D01*
G01X1440820D01*
Y1024180D01*
X1178000D01*
G03X1152060Y1036500I-19138J-6826D01*
G02X1040840Y1260010I-42061J118497D01*
G37*
G54D25*
X839000Y1882000D03*
X6138020Y2001420D03*
G54D26*
X5868020Y1691420D03*
X5870000Y3490000D03*
G54D24*
X630000Y3380000D03*
X1230000D03*
%LPD*%
G75*
G54D10*
X330000Y330000D03*
Y4150000D03*
X6800000Y330000D03*
Y4150000D03*
G54D20*
G01X2633800Y1106200D02*
X2710000Y1030000D01*
X2960000D01*
X2990000Y1060000D01*
Y1130000D01*
X2880000Y1240000D01*
Y1990000D01*
X2960000Y2070000D01*
X3380000D01*
X3780000Y1670000D01*
X4170000D01*
X4590000Y2090000D01*
X5274660D01*
X5394660Y2210000D01*
X5750000D01*
X5870000Y2330000D01*
Y2790000D01*
G01X5610000D02*
X5770000Y2630000D01*
Y2310000D01*
X5720000Y2260000D01*
X5380000D01*
X5270000Y2150000D01*
X4570000D01*
X4140000Y1720000D01*
X3800000D01*
X3400000Y2120000D01*
X2930000D01*
X2800000Y1990000D01*
Y1210000D01*
X2903800Y1106200D01*
G01X4584600Y940000D02*
X3730000D01*
X2980000Y1690000D01*
Y1980000D01*
G01X4855400Y940000D02*
Y945400D01*
X4797300Y1003500D01*
X3766500D01*
X3060000Y1710000D01*
Y1980000D01*
G01X5608020Y991420D02*
X5606600Y990000D01*
X5450000D01*
X5270000Y810000D01*
X3480000D01*
X3186200Y1103800D01*
Y1106200D01*
G01X3994600Y1080000D02*
X3790000D01*
X3300000Y1570000D01*
Y1980000D01*
G01X3380000D02*
Y1590000D01*
X3820000Y1150000D01*
X4195400D01*
X4265400Y1080000D01*
G01X3850000Y1970000D02*
X3680000Y2140000D01*
X3490000D01*
X3350000Y2280000D01*
Y2510000D01*
X4100000Y3260000D01*
G01X3466200Y1106200D02*
Y1103800D01*
X3700000Y870000D01*
X5250000D01*
X5500000Y1120000D01*
X5739440D01*
X5868020Y991420D01*
G01X3890000Y2050000D02*
X3740000Y2200000D01*
X3500000D01*
X3410000Y2290000D01*
Y2470000D01*
X4170000Y3230000D01*
Y3280000D01*
X4120000Y3330000D01*
X4030000D01*
G01X4490000Y3875000D02*
X4565000Y3950000D01*
X4830000D01*
X4900000Y3880000D01*
Y3580000D01*
X3610000Y2290000D01*
X3500000D01*
G01X3580000Y2370000D02*
X3620000D01*
X4850000Y3600000D01*
Y3810000D01*
X4785000Y3875000D01*
X4720000D01*
G01X4890000Y2020000D02*
X4900000Y2030000D01*
G01D02*
X5050000D01*
X5060000Y2020000D01*
G01Y2220000D02*
X5050000Y2210000D01*
X4910000D01*
X4900000Y2220000D01*
G54D11*
X148680Y754840D03*
Y1008840D03*
Y1262840D03*
Y1516840D03*
Y1770840D03*
Y2024840D03*
Y2278840D03*
Y2532840D03*
Y2786840D03*
Y3040840D03*
Y3294840D03*
Y3548840D03*
X811040Y1175900D03*
Y1429900D03*
X841040Y2305900D03*
Y2559900D03*
X1002100Y3861040D03*
X1090000Y1600000D03*
Y1820000D03*
Y2060000D03*
Y2230000D03*
X1320000Y1600000D03*
Y1820000D03*
Y2060000D03*
Y2230000D03*
X1250100Y2641040D03*
X1256100Y3861040D03*
X1500000Y1090000D03*
Y1180000D03*
X1504100Y2641040D03*
X1440000Y3100000D03*
Y3260000D03*
Y3410000D03*
Y3570000D03*
X1510100Y3861040D03*
X1590000Y3100000D03*
Y3260000D03*
Y3410000D03*
Y3570000D03*
X1764100Y3861040D03*
X2050000Y2020000D03*
X2020000Y2380000D03*
X2060000Y2610000D03*
Y2740000D03*
X2020000Y3920000D03*
X2123640Y1505380D03*
X2180000Y3050000D03*
X2100000D03*
Y3140000D03*
X2180000D03*
X2377640Y1505380D03*
X2380000Y2270000D03*
X2270000Y2610000D03*
X2274420Y2739410D03*
X2260000Y3050000D03*
Y3140000D03*
X2330100Y3461040D03*
X2430100Y1241040D03*
Y1891040D03*
X2500000Y2610000D03*
Y2740000D03*
X2470100Y3941040D03*
X2633800Y1106200D03*
X2684100Y1241040D03*
Y1891040D03*
X2584100Y3461040D03*
X2724100Y3941040D03*
X2903800Y1106200D03*
X2800000Y2630000D03*
X2810000Y2860000D03*
X3010000Y1290000D03*
Y1490000D03*
X2980000Y1980000D03*
X3060000D03*
X2990100Y2231040D03*
X2980100Y2501040D03*
X3024100Y2851040D03*
X2930100Y3461040D03*
X2990100Y3941040D03*
X3186200Y1106200D03*
X3170000Y1980000D03*
X3244100Y2231040D03*
X3234100Y2501040D03*
X3184100Y3461040D03*
X3244100Y3941040D03*
X3300000Y1980000D03*
X3380000D03*
X3340000Y2850000D03*
X3466200Y1106200D03*
X3500000Y2290000D03*
X3580000Y2370000D03*
X3590000Y3000000D03*
X3500000D03*
Y3120000D03*
X3450100Y3461040D03*
X3510100Y3941040D03*
X3710000Y1430000D03*
X3650000Y1680000D03*
X3760000Y2650000D03*
X3670000Y3000000D03*
X3704100Y3461040D03*
X3930000Y1430000D03*
X3780000Y1870000D03*
X3850000Y1970000D03*
X3890000Y2050000D03*
X3860000Y2380000D03*
X3764100Y3941040D03*
X3970000Y530000D03*
X4060000D03*
X3970000Y720000D03*
X4060000D03*
X3994600Y1080000D03*
X4050000Y2120000D03*
X4080000Y2560000D03*
X4100000Y3260000D03*
X4030000Y3330000D03*
X4010000Y3590000D03*
X4100000D03*
Y3780000D03*
X4010000D03*
X4150000Y530000D03*
Y630000D03*
Y720000D03*
X4265400Y1080000D03*
X4140000Y1530000D03*
X4180000Y3450000D03*
X4190000Y3590000D03*
Y3690000D03*
Y3780000D03*
X4410000Y1090000D03*
X4400000Y1530000D03*
Y1660000D03*
X4310000Y2120000D03*
X4300000Y2560000D03*
Y2710000D03*
X4560000Y530000D03*
Y720000D03*
X4584600Y940000D03*
X4520000Y3450000D03*
X4490000Y3875000D03*
X4570000Y3780000D03*
X4740000Y530000D03*
X4650000D03*
X4740000Y630000D03*
Y720000D03*
X4650000D03*
X4630000Y1530000D03*
Y1660000D03*
X4620000Y2560000D03*
Y2710000D03*
X4750000Y3680000D03*
X4720000Y3875000D03*
X4750000Y3780000D03*
X4660000D03*
X4855400Y940000D03*
X4850000Y1530000D03*
Y1670000D03*
X4910000Y2560000D03*
X4880000Y3350000D03*
X4980000Y1242330D03*
Y1358300D03*
Y1841700D03*
Y1957670D03*
Y2397670D03*
Y2281700D03*
Y2872330D03*
Y2988300D03*
Y3100000D03*
X5210000Y970000D03*
X5130000D03*
X5250000Y2000000D03*
X5450000Y1230000D03*
X5370000D03*
X6515560Y822840D03*
Y1076840D03*
Y1330840D03*
Y1584840D03*
Y1838840D03*
Y2092840D03*
Y2346840D03*
Y2600840D03*
Y2854840D03*
Y3108840D03*
Y3362840D03*
Y3616840D03*
X6769560Y822840D03*
Y1076840D03*
Y1330840D03*
Y1584840D03*
Y1838840D03*
Y2092840D03*
Y2346840D03*
Y2600840D03*
Y2854840D03*
Y3108840D03*
Y3362840D03*
Y3616840D03*
X7023560Y822840D03*
Y1076840D03*
Y1330840D03*
Y1584840D03*
Y1838840D03*
Y2092840D03*
Y2346840D03*
Y2600840D03*
Y2854840D03*
Y3108840D03*
Y3362840D03*
Y3616840D03*
G54D21*
G01X474100Y3380000D02*
X630000D01*
G01X618100Y678000D02*
X839000D01*
G01X618100Y1882000D02*
X839000D01*
G01X694100Y2900000D02*
X950000D01*
G01X630000Y3124100D02*
Y3380000D01*
G01D02*
Y3635900D01*
G01Y3380000D02*
X785900D01*
G01X839000Y678000D02*
Y898900D01*
G01Y678000D02*
X1059900D01*
G01X839000Y1661100D02*
Y1882000D01*
G01D02*
Y2102900D01*
G01Y1882000D02*
X1059900D01*
G01X974100Y1155000D02*
X1110000D01*
G01X950000Y2744100D02*
Y2900000D01*
G01D02*
Y3055900D01*
G01Y2900000D02*
X1205900D01*
G01X1110000Y1019100D02*
Y1155000D01*
G01X1074100Y3380000D02*
X1230000D01*
G01Y3124100D02*
Y3380000D01*
G01D02*
Y3635900D01*
G01Y3380000D02*
X1385900D01*
G01X5337120Y671420D02*
X5558020D01*
G01X5337120Y2001420D02*
X5558020D01*
G01Y671420D02*
X5778920D01*
G01X5488620Y1691420D02*
X5608020D01*
G01D02*
X5727420D01*
G01X5558020Y2001420D02*
X5778920D01*
G01X5490600Y3490000D02*
X5610000D01*
G01D02*
X5729400D01*
G01X5748620Y1691420D02*
X5868020D01*
G01X5750600Y3490000D02*
X5870000D01*
G01X5917120Y671420D02*
X6138020D01*
G01X5868020Y1572020D02*
Y1691420D01*
G01D02*
Y1810820D01*
G01Y1691420D02*
X5987420D01*
G01X5917120Y2001420D02*
X6138020D01*
G01X5870000Y3370600D02*
Y3490000D01*
G01D02*
Y3609400D01*
G01Y3490000D02*
X5989400D01*
G01X5919100Y3800000D02*
X6140000D01*
G01X6138020Y671420D02*
Y892320D01*
G01Y671420D02*
X6358920D01*
G01X6138020Y1780520D02*
Y2001420D01*
G01D02*
Y2222320D01*
G01Y2001420D02*
X6358920D01*
G01X6140000Y2249100D02*
Y2470000D01*
G01D02*
Y2690900D01*
G01Y2470000D02*
X6360900D01*
G01X6140000Y3579100D02*
Y3800000D01*
G01D02*
X6360900D01*
G54D12*
X630000Y3380000D03*
X1230000D03*
G54D22*
G01X6800000Y4480000D02*
G02X7130000Y4150000I0J-330000D01*
G01Y330000D01*
G02X6800000Y0I-330000J0D01*
G02X6470000Y330000I0J330000D01*
G01Y380000D01*
G03X6370000Y480000I-100000J0D01*
G01X760000D01*
G03X660000Y380000I0J-100000D01*
G01Y330000D01*
G02X330000Y0I-330000J0D01*
G02X0Y330000I0J330000D01*
G01Y4150000D01*
G02X330000Y4480000I330000J0D01*
G02X660000Y4150000I0J-330000D01*
G01Y4100000D01*
G03X760000Y4000000I100000J0D01*
G01X6370000D01*
G03X6470000Y4100000I0J100000D01*
G01Y4150000D01*
G02X6800000Y4480000I330000J0D01*
G54D13*
X839000Y678000D03*
Y1882000D03*
X5558020Y671420D03*
Y2001420D03*
X5560000Y2470000D03*
Y3800000D03*
X6138020Y671420D03*
Y2001420D03*
X6140000Y2470000D03*
Y3800000D03*
G54D23*
G01X330000Y330000D02*
X60000Y600000D01*
G01X330000Y4150000D02*
X60000Y3880000D01*
G01X330000Y330000D02*
X600000Y600000D01*
G01X330000Y330000D02*
Y720000D01*
G01Y4150000D02*
Y3760000D01*
G01Y4150000D02*
X600000Y3880000D01*
G01X5370000Y2350000D02*
X5490000Y2470000D01*
X5560000D01*
G01X5440000Y2660000D02*
X5560000Y2540000D01*
Y2470000D01*
G01Y3800000D02*
X5390000Y3630000D01*
G01Y3960000D02*
X5550000Y3800000D01*
X5560000D01*
G01D02*
X5820000D01*
G01X6800000Y330000D02*
X6530000Y600000D01*
G01X6800000Y4150000D02*
X6530000Y3880000D01*
G01X6800000Y330000D02*
X7070000Y600000D01*
G01X6800000Y4150000D02*
X7070000Y3880000D01*
G01X6800000Y330000D02*
Y720000D01*
G01Y4150000D02*
Y3760000D01*
G54D14*
X950000Y2900000D03*
G54D15*
X1110000Y1155000D03*
Y1405000D03*
X1310000D03*
G54D16*
Y1155000D03*
G54D17*
X5608020Y991420D03*
X5610000Y2790000D03*
X5868020Y991420D03*
X5870000Y2790000D03*
G54D18*
X5608020Y1241420D03*
Y1441420D03*
Y1691420D03*
X5610000Y3040000D03*
Y3240000D03*
Y3490000D03*
X5868020Y1241420D03*
Y1441420D03*
Y1691420D03*
X5870000Y3040000D03*
Y3240000D03*
Y3490000D03*
G54D19*
G01X4980000Y1242330D02*
X5017670Y1280000D01*
X5277480D01*
X5318580Y1321100D01*
X5587700D01*
X5608020Y1300780D01*
Y1241420D01*
G01Y1441420D02*
Y1382060D01*
X5587700Y1361740D01*
X5301740D01*
X5260640Y1320640D01*
X5017660D01*
X4980000Y1358300D01*
G01Y1841700D02*
X5017660Y1879360D01*
X5213160D01*
X5249360Y1843160D01*
Y1603160D01*
X5303160Y1549360D01*
X5673160D01*
X5719360Y1503160D01*
Y1384900D01*
X5783160Y1321100D01*
X5847700D01*
X5868020Y1300780D01*
Y1241420D01*
G01X4980000Y1957670D02*
X5017670Y1920000D01*
X5230000D01*
X5290000Y1860000D01*
Y1620000D01*
X5320000Y1590000D01*
X5690000D01*
X5760000Y1520000D01*
Y1401740D01*
X5800000Y1361740D01*
X5847700D01*
X5868020Y1382060D01*
Y1441420D01*
G01X5610000Y3240000D02*
Y3180640D01*
X5589680Y3160320D01*
X5360320D01*
X5299360Y3099360D01*
Y2446840D01*
X5212520Y2360000D01*
X5017670D01*
X4980000Y2397670D01*
G01X5610000Y3040000D02*
Y3099360D01*
X5589680Y3119680D01*
X5377160D01*
X5340000Y3082520D01*
Y2430000D01*
X5229360Y2319360D01*
X5017660D01*
X4980000Y2281700D01*
G01Y2872330D02*
X5017670Y2910000D01*
X5097480D01*
X5150640Y2963160D01*
Y3263160D01*
X5232480Y3345000D01*
X5685000D01*
X5720000Y3310000D01*
Y3182840D01*
X5783160Y3119680D01*
X5849680D01*
X5870000Y3099360D01*
Y3040000D01*
G01X4980000Y2988300D02*
X5017660Y2950640D01*
X5080640D01*
X5110000Y2980000D01*
Y3280000D01*
X5215640Y3385640D01*
X5701840D01*
X5760640Y3326840D01*
Y3199680D01*
X5800000Y3160320D01*
X5849680D01*
X5870000Y3180640D01*
Y3240000D01*
M02*
