  0
SECTION
  2
HEADER
  9
$ACADVER
  1
AC1014
  9
$INSBASE
 10
0.000000
 20
0.000000
  9
$LIMMIN
 10
-132.420600
 20
-100.000000
  9
$LIMMAX
 10
521.579400
 20
300.000000
  9
$EXTMIN
 10
-132.420600
 20
-100.000000
  9
$EXTMAX
 10
521.579400
 20
300.000000
  9
$ATTMODE
 70
0
  9
$LUNITS
 70
2
  9
$LUPREC
 70
4
  9
$THICKNESS
 40
1.600000
  9
$MEASUREMENT
 70
1
  9
$HANDSEED
  5
1e1
  0
ENDSEC
  0
SECTION
  2
TABLES
  0
TABLE
  2
LTYPE
  5
4
100
AcDbSymbolTable
 70
3
  0
LTYPE
  5
1
100
AcDbSymbolTableRecord
100
AcDbLinetypeTableRecord
  3

  2
BYBLOCK
 70
0
 72
65
 73
0
 40
0.000000
  0
LTYPE
  5
2
100
AcDbSymbolTableRecord
100
AcDbLinetypeTableRecord
  3

  2
BYLAYER
 70
0
 72
65
 73
0
 40
0.000000
  0
LTYPE
  5
3
100
AcDbSymbolTableRecord
100
AcDbLinetypeTableRecord
  3
Solid Line
  2
CONTINUOUS
 70
0
 72
65
 73
0
 40
0.000000
  0
ENDTAB
  0
TABLE
  2
LAYER
  5
8
100
AcDbSymbolTable
 70
3
  0
LAYER
  5
5
100
AcDbSymbolTableRecord
100
AcDbLayerTableRecord
  2
0
 70
0
 62
7
  6
CONTINUOUS
  0
LAYER
  5
6
100
AcDbSymbolTableRecord
100
AcDbLayerTableRecord
  2
OUTLINE
 70
0
 62
9
  6
CONTINUOUS
  0
LAYER
  5
7
100
AcDbSymbolTableRecord
100
AcDbLayerTableRecord
  2
OUTLINE
 70
0
 62
3
  6
CONTINUOUS
  0
ENDTAB
  0
TABLE
  2
STYLE
  5
a
100
AcDbSymbolTable
 70
1
  0
STYLE
  5
9
100
AcDbSymbolTableRecord
100
AcDbTextStyleTableRecord
  2
STANDARD
 70
0
 40
0.000000
 41
1.000000
 50
0.000000
 71
0
 42
0.200000
  3
txt
  0
ENDTAB
  0
TABLE
  2
VPORT
  5
b
100
AcDbSymbolTable
 70
1
  0
ENDTAB
  0
TABLE
  2
VIEW
  5
c
100
AcDbSymbolTable
 70
1
  0
ENDTAB
  0
TABLE
  2
APPID
  5
e
100
AcDbSymbolTable
 70
1
  0
APPID
  5
d
100
AcDbSymbolTableRecord
100
AcDbRegAppTableRecord
  2
ACAD
 70
0
  0
ENDTAB
  0
TABLE
  2
UCS
  5
f
100
AcDbSymbolTable
 70
1
  0
ENDTAB
  0
TABLE
  2
BLOCK_RECORD
  5
10
100
AcDbSymbolTable
 70
10
  0
BLOCK_RECORD
  5
6c
100
AcDbSymbolTableRecord
100
AcDbBlockTableRecord
  2
FIGURE_DIAMOND
  0
BLOCK_RECORD
  5
63
100
AcDbSymbolTableRecord
100
AcDbBlockTableRecord
  2
FIGURE_CROSS
  0
BLOCK_RECORD
  5
58
100
AcDbSymbolTableRecord
100
AcDbBlockTableRecord
  2
FIGURE_TRI
  0
BLOCK_RECORD
  5
50
100
AcDbSymbolTableRecord
100
AcDbBlockTableRecord
  2
FIGURE_OBLONG
  0
BLOCK_RECORD
  5
3f
100
AcDbSymbolTableRecord
100
AcDbBlockTableRecord
  2
FIGURE_OCT
  0
BLOCK_RECORD
  5
32
100
AcDbSymbolTableRecord
100
AcDbBlockTableRecord
  2
FIGURE_HEX
  0
BLOCK_RECORD
  5
27
100
AcDbSymbolTableRecord
100
AcDbBlockTableRecord
  2
FIGURE_SQUARE
  0
BLOCK_RECORD
  5
1e
100
AcDbSymbolTableRecord
100
AcDbBlockTableRecord
  2
FIGURE_CIRCLE
  0
BLOCK_RECORD
  5
1a
100
AcDbSymbolTableRecord
100
AcDbBlockTableRecord
  2
*PAPER_SPACE
  0
BLOCK_RECORD
  5
17
100
AcDbSymbolTableRecord
100
AcDbBlockTableRecord
  2
*MODEL_SPACE
  0
ENDTAB
  0
TABLE
  2
DIMSTYLE
  5
11
100
AcDbSymbolTable
 70
1
  0
ENDTAB
  0
ENDSEC
  0
SECTION
  2
BLOCKS
  0
BLOCK
  5
15
100
AcDbEntity
  8
0
100
AcDbBlockBegin
  2
*MODEL_SPACE
 70
0
 10
0.000000
 20
0.000000
  3
*MODEL_SPACE
  0
ENDBLK
  5
16
100
AcDbEntity
  8
0
100
AcDbBlockEnd
  0
BLOCK
  5
18
100
AcDbEntity
  8
0
100
AcDbBlockBegin
  2
*PAPER_SPACE
 70
0
 10
0.000000
 20
0.000000
  3
*PAPER_SPACE
  0
ENDBLK
  5
19
100
AcDbEntity
  8
0
100
AcDbBlockEnd
  0
BLOCK
  5
1b
100
AcDbEntity
  8
0
100
AcDbBlockBegin
  2
FIGURE_CIRCLE
 70
0
 10
0.000000
 20
0.000000
  3
FIGURE_CIRCLE
  0
CIRCLE
  5
1d
100
AcDbEntity
  8
0
100
AcDbCircle
 10
0.000000
 20
0.000000
 40
0.500000
  0
ENDBLK
  5
1c
100
AcDbEntity
  8
0
100
AcDbBlockEnd
  0
BLOCK
  5
1f
100
AcDbEntity
  8
0
100
AcDbBlockBegin
  2
FIGURE_SQUARE
 70
0
 10
0.000000
 20
0.000000
  3
FIGURE_SQUARE
  0
POLYLINE
  5
21
100
AcDbEntity
  8
0
100
AcDb2dPolyline
 66
1
 70
1
 40
0.000000
 41
0.000000
 39
0.000000
  0
VERTEX
  5
23
100
AcDbEntity
  8
0
100
AcDbVertex
100
AcDb2dVertex
 10
-0.500000
 20
-0.500000
 40
0.000000
 41
0.000000
 42
0.000000
  0
VERTEX
  5
24
100
AcDbEntity
  8
0
100
AcDbVertex
100
AcDb2dVertex
 10
-0.500000
 20
0.500000
 40
0.000000
 41
0.000000
 42
0.000000
  0
VERTEX
  5
25
100
AcDbEntity
  8
0
100
AcDbVertex
100
AcDb2dVertex
 10
0.500000
 20
0.500000
 40
0.000000
 41
0.000000
 42
0.000000
  0
VERTEX
  5
26
100
AcDbEntity
  8
0
100
AcDbVertex
100
AcDb2dVertex
 10
0.500000
 20
-0.500000
 40
0.000000
 41
0.000000
 42
0.000000
  0
SEQEND
  5
22
100
AcDbEntity
  0
ENDBLK
  5
20
100
AcDbEntity
  8
0
100
AcDbBlockEnd
  0
BLOCK
  5
28
100
AcDbEntity
  8
0
100
AcDbBlockBegin
  2
FIGURE_HEX
 70
0
 10
0.000000
 20
0.000000
  3
FIGURE_HEX
  0
POLYLINE
  5
2a
100
AcDbEntity
  8
0
100
AcDb2dPolyline
 66
1
 70
1
 40
0.000000
 41
0.000000
 39
0.000000
  0
VERTEX
  5
2c
100
AcDbEntity
  8
0
100
AcDbVertex
100
AcDb2dVertex
 10
-0.500000
 20
0.000000
 40
0.000000
 41
0.000000
 42
0.000000
  0
VERTEX
  5
2d
100
AcDbEntity
  8
0
100
AcDbVertex
100
AcDb2dVertex
 10
-0.250000
 20
0.500000
 40
0.000000
 41
0.000000
 42
0.000000
  0
VERTEX
  5
2e
100
AcDbEntity
  8
0
100
AcDbVertex
100
AcDb2dVertex
 10
0.250000
 20
0.500000
 40
0.000000
 41
0.000000
 42
0.000000
  0
VERTEX
  5
2f
100
AcDbEntity
  8
0
100
AcDbVertex
100
AcDb2dVertex
 10
0.500000
 20
0.000000
 40
0.000000
 41
0.000000
 42
0.000000
  0
VERTEX
  5
30
100
AcDbEntity
  8
0
100
AcDbVertex
100
AcDb2dVertex
 10
0.250000
 20
-0.500000
 40
0.000000
 41
0.000000
 42
0.000000
  0
VERTEX
  5
31
100
AcDbEntity
  8
0
100
AcDbVertex
100
AcDb2dVertex
 10
-0.250000
 20
-0.500000
 40
0.000000
 41
0.000000
 42
0.000000
  0
SEQEND
  5
2b
100
AcDbEntity
  0
ENDBLK
  5
29
100
AcDbEntity
  8
0
100
AcDbBlockEnd
  0
BLOCK
  5
33
100
AcDbEntity
  8
0
100
AcDbBlockBegin
  2
FIGURE_OCT
 70
0
 10
0.000000
 20
0.000000
  3
FIGURE_OCT
  0
POLYLINE
  5
35
100
AcDbEntity
  8
0
100
AcDb2dPolyline
 66
1
 70
1
 40
0.000000
 41
0.000000
 39
0.000000
  0
VERTEX
  5
37
100
AcDbEntity
  8
0
100
AcDbVertex
100
AcDb2dVertex
 10
-0.500000
 20
-0.207100
 40
0.000000
 41
0.000000
 42
0.000000
  0
VERTEX
  5
38
100
AcDbEntity
  8
0
100
AcDbVertex
100
AcDb2dVertex
 10
-0.500000
 20
0.207100
 40
0.000000
 41
0.000000
 42
0.000000
  0
VERTEX
  5
39
100
AcDbEntity
  8
0
100
AcDbVertex
100
AcDb2dVertex
 10
-0.207100
 20
0.500000
 40
0.000000
 41
0.000000
 42
0.000000
  0
VERTEX
  5
3a
100
AcDbEntity
  8
0
100
AcDbVertex
100
AcDb2dVertex
 10
0.207100
 20
0.500000
 40
0.000000
 41
0.000000
 42
0.000000
  0
VERTEX
  5
3b
100
AcDbEntity
  8
0
100
AcDbVertex
100
AcDb2dVertex
 10
0.500000
 20
0.207100
 40
0.000000
 41
0.000000
 42
0.000000
  0
VERTEX
  5
3c
100
AcDbEntity
  8
0
100
AcDbVertex
100
AcDb2dVertex
 10
0.500000
 20
-0.207100
 40
0.000000
 41
0.000000
 42
0.000000
  0
VERTEX
  5
3d
100
AcDbEntity
  8
0
100
AcDbVertex
100
AcDb2dVertex
 10
0.207100
 20
-0.500000
 40
0.000000
 41
0.000000
 42
0.000000
  0
VERTEX
  5
3e
100
AcDbEntity
  8
0
100
AcDbVertex
100
AcDb2dVertex
 10
-0.207100
 20
-0.500000
 40
0.000000
 41
0.000000
 42
0.000000
  0
SEQEND
  5
36
100
AcDbEntity
  0
ENDBLK
  5
34
100
AcDbEntity
  8
0
100
AcDbBlockEnd
  0
BLOCK
  5
40
100
AcDbEntity
  8
0
100
AcDbBlockBegin
  2
FIGURE_OBLONG
 70
0
 10
0.000000
 20
0.000000
  3
FIGURE_OBLONG
  0
POLYLINE
  5
42
100
AcDbEntity
  8
0
100
AcDb2dPolyline
 66
1
 70
1
 40
0.000000
 41
0.000000
 39
0.000000
  0
VERTEX
  5
44
100
AcDbEntity
  8
0
100
AcDbVertex
100
AcDb2dVertex
 10
-0.500000
 20
-0.125000
 40
0.000000
 41
0.000000
 42
0.000000
  0
VERTEX
  5
45
100
AcDbEntity
  8
0
100
AcDbVertex
100
AcDb2dVertex
 10
-0.500000
 20
0.125000
 40
0.000000
 41
0.000000
 42
0.000000
  0
VERTEX
  5
46
100
AcDbEntity
  8
0
100
AcDbVertex
100
AcDb2dVertex
 10
-0.416000
 20
0.375000
 40
0.000000
 41
0.000000
 42
0.000000
  0
VERTEX
  5
47
100
AcDbEntity
  8
0
100
AcDbVertex
100
AcDb2dVertex
 10
-0.250000
 20
0.500000
 40
0.000000
 41
0.000000
 42
0.000000
  0
VERTEX
  5
48
100
AcDbEntity
  8
0
100
AcDbVertex
100
AcDb2dVertex
 10
0.250000
 20
0.500000
 40
0.000000
 41
0.000000
 42
0.000000
  0
VERTEX
  5
49
100
AcDbEntity
  8
0
100
AcDbVertex
100
AcDb2dVertex
 10
0.416000
 20
0.375000
 40
0.000000
 41
0.000000
 42
0.000000
  0
VERTEX
  5
4a
100
AcDbEntity
  8
0
100
AcDbVertex
100
AcDb2dVertex
 10
0.500000
 20
0.125000
 40
0.000000
 41
0.000000
 42
0.000000
  0
VERTEX
  5
4b
100
AcDbEntity
  8
0
100
AcDbVertex
100
AcDb2dVertex
 10
0.500000
 20
-0.125000
 40
0.000000
 41
0.000000
 42
0.000000
  0
VERTEX
  5
4c
100
AcDbEntity
  8
0
100
AcDbVertex
100
AcDb2dVertex
 10
0.416000
 20
-0.375000
 40
0.000000
 41
0.000000
 42
0.000000
  0
VERTEX
  5
4d
100
AcDbEntity
  8
0
100
AcDbVertex
100
AcDb2dVertex
 10
0.250000
 20
-0.500000
 40
0.000000
 41
0.000000
 42
0.000000
  0
VERTEX
  5
4e
100
AcDbEntity
  8
0
100
AcDbVertex
100
AcDb2dVertex
 10
-0.250000
 20
-0.500000
 40
0.000000
 41
0.000000
 42
0.000000
  0
VERTEX
  5
4f
100
AcDbEntity
  8
0
100
AcDbVertex
100
AcDb2dVertex
 10
-0.416000
 20
-0.375000
 40
0.000000
 41
0.000000
 42
0.000000
  0
SEQEND
  5
43
100
AcDbEntity
  0
ENDBLK
  5
41
100
AcDbEntity
  8
0
100
AcDbBlockEnd
  0
BLOCK
  5
51
100
AcDbEntity
  8
0
100
AcDbBlockBegin
  2
FIGURE_TRI
 70
0
 10
0.000000
 20
0.000000
  3
FIGURE_TRI
  0
POLYLINE
  5
53
100
AcDbEntity
  8
0
100
AcDb2dPolyline
 66
1
 70
1
 40
0.000000
 41
0.000000
 39
0.000000
  0
VERTEX
  5
55
100
AcDbEntity
  8
0
100
AcDbVertex
100
AcDb2dVertex
 10
-0.500000
 20
-0.500000
 40
0.000000
 41
0.000000
 42
0.000000
  0
VERTEX
  5
56
100
AcDbEntity
  8
0
100
AcDbVertex
100
AcDb2dVertex
 10
0.000000
 20
0.500000
 40
0.000000
 41
0.000000
 42
0.000000
  0
VERTEX
  5
57
100
AcDbEntity
  8
0
100
AcDbVertex
100
AcDb2dVertex
 10
0.500000
 20
-0.500000
 40
0.000000
 41
0.000000
 42
0.000000
  0
SEQEND
  5
54
100
AcDbEntity
  0
ENDBLK
  5
52
100
AcDbEntity
  8
0
100
AcDbBlockEnd
  0
BLOCK
  5
59
100
AcDbEntity
  8
0
100
AcDbBlockBegin
  2
FIGURE_CROSS
 70
0
 10
0.000000
 20
0.000000
  3
FIGURE_CROSS
  0
POLYLINE
  5
5b
100
AcDbEntity
  8
0
100
AcDb2dPolyline
 66
1
 70
0
 40
0.000000
 41
0.000000
 39
0.000000
  0
VERTEX
  5
5f
100
AcDbEntity
  8
0
100
AcDbVertex
100
AcDb2dVertex
 10
-0.500000
 20
0.000000
 40
0.000000
 41
0.000000
 42
0.000000
  0
VERTEX
  5
60
100
AcDbEntity
  8
0
100
AcDbVertex
100
AcDb2dVertex
 10
0.500000
 20
0.000000
 40
0.000000
 41
0.000000
 42
0.000000
  0
SEQEND
  5
5c
100
AcDbEntity
  0
POLYLINE
  5
5d
100
AcDbEntity
  8
0
100
AcDb2dPolyline
 66
1
 70
0
 40
0.000000
 41
0.000000
 39
0.000000
  0
VERTEX
  5
61
100
AcDbEntity
  8
0
100
AcDbVertex
100
AcDb2dVertex
 10
0.000000
 20
0.500000
 40
0.000000
 41
0.000000
 42
0.000000
  0
VERTEX
  5
62
100
AcDbEntity
  8
0
100
AcDbVertex
100
AcDb2dVertex
 10
0.000000
 20
-0.500000
 40
0.000000
 41
0.000000
 42
0.000000
  0
SEQEND
  5
5e
100
AcDbEntity
  0
ENDBLK
  5
5a
100
AcDbEntity
  8
0
100
AcDbBlockEnd
  0
BLOCK
  5
64
100
AcDbEntity
  8
0
100
AcDbBlockBegin
  2
FIGURE_DIAMOND
 70
0
 10
0.000000
 20
0.000000
  3
FIGURE_DIAMOND
  0
POLYLINE
  5
66
100
AcDbEntity
  8
0
100
AcDb2dPolyline
 66
1
 70
1
 40
0.000000
 41
0.000000
 39
0.000000
  0
VERTEX
  5
68
100
AcDbEntity
  8
0
100
AcDbVertex
100
AcDb2dVertex
 10
-0.500000
 20
0.000000
 40
0.000000
 41
0.000000
 42
0.000000
  0
VERTEX
  5
69
100
AcDbEntity
  8
0
100
AcDbVertex
100
AcDb2dVertex
 10
0.000000
 20
0.500000
 40
0.000000
 41
0.000000
 42
0.000000
  0
VERTEX
  5
6a
100
AcDbEntity
  8
0
100
AcDbVertex
100
AcDb2dVertex
 10
0.500000
 20
0.000000
 40
0.000000
 41
0.000000
 42
0.000000
  0
VERTEX
  5
6b
100
AcDbEntity
  8
0
100
AcDbVertex
100
AcDb2dVertex
 10
0.000000
 20
-0.500000
 40
0.000000
 41
0.000000
 42
0.000000
  0
SEQEND
  5
67
100
AcDbEntity
  0
ENDBLK
  5
65
100
AcDbEntity
  8
0
100
AcDbBlockEnd
  0
ENDSEC
  0
SECTION
  2
ENTITIES
  0
POLYLINE
  5
6d
100
AcDbEntity
  8
OUTLINE
100
AcDb2dPolyline
 66
1
 70
0
 40
0.000000
 41
0.000000
 39
0.000000
  0
VERTEX
  5
6f
100
AcDbEntity
  8
OUTLINE
100
AcDbVertex
100
AcDb2dVertex
 10
18.359900
 20
96.981200
 40
0.000000
 41
0.000000
 42
0.000000
  0
VERTEX
  5
70
100
AcDbEntity
  8
OUTLINE
100
AcDbVertex
100
AcDb2dVertex
 10
15.184900
 20
92.218800
 40
0.000000
 41
0.000000
 42
0.000000
  0
SEQEND
  5
6e
100
AcDbEntity
  0
POLYLINE
  5
71
100
AcDbEntity
  8
OUTLINE
100
AcDb2dPolyline
 66
1
 70
0
 40
0.000000
 41
0.000000
 39
0.000000
  0
VERTEX
  5
73
100
AcDbEntity
  8
OUTLINE
100
AcDbVertex
100
AcDb2dVertex
 10
18.359900
 20
94.600000
 40
0.000000
 41
0.000000
 42
1.000000
  0
VERTEX
  5
74
100
AcDbEntity
  8
OUTLINE
100
AcDbVertex
100
AcDb2dVertex
 10
15.184900
 20
94.600000
 40
0.000000
 41
0.000000
 42
1.000000
  0
VERTEX
  5
75
100
AcDbEntity
  8
OUTLINE
100
AcDbVertex
100
AcDb2dVertex
 10
18.359900
 20
94.600000
 40
0.000000
 41
0.000000
 42
0.000000
  0
SEQEND
  5
72
100
AcDbEntity
  0
POLYLINE
  5
76
100
AcDbEntity
  8
OUTLINE
100
AcDb2dPolyline
 66
1
 70
0
 40
0.000000
 41
0.000000
 39
0.000000
  0
VERTEX
  5
78
100
AcDbEntity
  8
OUTLINE
100
AcDbVertex
100
AcDb2dVertex
 10
4.287700
 20
87.974700
 40
0.000000
 41
0.000000
 42
0.000000
  0
VERTEX
  5
79
100
AcDbEntity
  8
OUTLINE
100
AcDbVertex
100
AcDb2dVertex
 10
10.700000
 20
94.600000
 40
0.000000
 41
0.000000
 42
0.000000
  0
VERTEX
  5
7a
100
AcDbEntity
  8
OUTLINE
100
AcDbVertex
100
AcDb2dVertex
 10
12.803700
 20
94.600000
 40
0.000000
 41
0.000000
 42
0.000000
  0
SEQEND
  5
77
100
AcDbEntity
  0
POLYLINE
  5
7b
100
AcDbEntity
  8
OUTLINE
100
AcDb2dPolyline
 66
1
 70
0
 40
0.000000
 41
0.000000
 39
0.000000
  0
VERTEX
  5
7d
100
AcDbEntity
  8
OUTLINE
100
AcDbVertex
100
AcDb2dVertex
 10
6.620400
 20
91.283600
 40
0.000000
 41
0.000000
 42
0.000000
  0
VERTEX
  5
7e
100
AcDbEntity
  8
OUTLINE
100
AcDbVertex
100
AcDb2dVertex
 10
4.287700
 20
87.974700
 40
0.000000
 41
0.000000
 42
0.000000
  0
VERTEX
  5
7f
100
AcDbEntity
  8
OUTLINE
100
AcDbVertex
100
AcDb2dVertex
 10
7.518600
 20
90.414300
 40
0.000000
 41
0.000000
 42
0.000000
  0
VERTEX
  5
80
100
AcDbEntity
  8
OUTLINE
100
AcDbVertex
100
AcDb2dVertex
 10
6.620400
 20
91.283600
 40
0.000000
 41
0.000000
 42
0.000000
  0
SEQEND
  5
7c
100
AcDbEntity
  0
TEXT
  5
81
100
AcDbEntity
  8
OUTLINE
100
AcDbText
 10
19.553700
 20
93.012500
 11
0.000000
 21
0.000000
 40
3.175000
 41
0.992000
 50
0.000000
  7
STANDARD
 71
0
 72
0
  1
3.2
100
AcDbText
 73
0
  0
POLYLINE
  5
82
100
AcDbEntity
  8
OUTLINE
100
AcDb2dPolyline
 66
1
 70
0
 40
0.000000
 41
0.000000
 39
0.000000
  0
VERTEX
  5
84
100
AcDbEntity
  8
OUTLINE
100
AcDbVertex
100
AcDb2dVertex
 10
-21.975000
 20
76.500000
 40
0.000000
 41
0.000000
 42
0.000000
  0
VERTEX
  5
85
100
AcDbEntity
  8
OUTLINE
100
AcDbVertex
100
AcDb2dVertex
 10
-22.600000
 20
80.500000
 40
0.000000
 41
0.000000
 42
0.000000
  0
VERTEX
  5
86
100
AcDbEntity
  8
OUTLINE
100
AcDbVertex
100
AcDb2dVertex
 10
-23.225000
 20
76.500000
 40
0.000000
 41
0.000000
 42
0.000000
  0
VERTEX
  5
87
100
AcDbEntity
  8
OUTLINE
100
AcDbVertex
100
AcDb2dVertex
 10
-21.975000
 20
76.500000
 40
0.000000
 41
0.000000
 42
0.000000
  0
SEQEND
  5
83
100
AcDbEntity
  0
POLYLINE
  5
88
100
AcDbEntity
  8
OUTLINE
100
AcDb2dPolyline
 66
1
 70
0
 40
0.000000
 41
0.000000
 39
0.000000
  0
VERTEX
  5
8a
100
AcDbEntity
  8
OUTLINE
100
AcDbVertex
100
AcDb2dVertex
 10
-22.600000
 20
43.368700
 40
0.000000
 41
0.000000
 42
0.000000
  0
VERTEX
  5
8b
100
AcDbEntity
  8
OUTLINE
100
AcDbVertex
100
AcDb2dVertex
 10
-22.600000
 20
80.500000
 40
0.000000
 41
0.000000
 42
0.000000
  0
SEQEND
  5
89
100
AcDbEntity
  0
POLYLINE
  5
8c
100
AcDbEntity
  8
OUTLINE
100
AcDb2dPolyline
 66
1
 70
0
 40
0.000000
 41
0.000000
 39
0.000000
  0
VERTEX
  5
8e
100
AcDbEntity
  8
OUTLINE
100
AcDbVertex
100
AcDb2dVertex
 10
-23.225000
 20
4.000000
 40
0.000000
 41
0.000000
 42
0.000000
  0
VERTEX
  5
8f
100
AcDbEntity
  8
OUTLINE
100
AcDbVertex
100
AcDb2dVertex
 10
-22.600000
 20
0.000000
 40
0.000000
 41
0.000000
 42
0.000000
  0
VERTEX
  5
90
100
AcDbEntity
  8
OUTLINE
100
AcDbVertex
100
AcDb2dVertex
 10
-21.975000
 20
4.000000
 40
0.000000
 41
0.000000
 42
0.000000
  0
VERTEX
  5
91
100
AcDbEntity
  8
OUTLINE
100
AcDbVertex
100
AcDb2dVertex
 10
-23.225000
 20
4.000000
 40
0.000000
 41
0.000000
 42
0.000000
  0
SEQEND
  5
8d
100
AcDbEntity
  0
POLYLINE
  5
92
100
AcDbEntity
  8
OUTLINE
100
AcDb2dPolyline
 66
1
 70
0
 40
0.000000
 41
0.000000
 39
0.000000
  0
VERTEX
  5
94
100
AcDbEntity
  8
OUTLINE
100
AcDbVertex
100
AcDb2dVertex
 10
-22.600000
 20
35.431300
 40
0.000000
 41
0.000000
 42
0.000000
  0
VERTEX
  5
95
100
AcDbEntity
  8
OUTLINE
100
AcDbVertex
100
AcDb2dVertex
 10
-22.600000
 20
0.000000
 40
0.000000
 41
0.000000
 42
0.000000
  0
SEQEND
  5
93
100
AcDbEntity
  0
POLYLINE
  5
96
100
AcDbEntity
  8
OUTLINE
100
AcDb2dPolyline
 66
1
 70
0
 40
0.000000
 41
0.000000
 39
0.000000
  0
VERTEX
  5
98
100
AcDbEntity
  8
OUTLINE
100
AcDbVertex
100
AcDb2dVertex
 10
-2.500000
 20
0.000000
 40
0.000000
 41
0.000000
 42
0.000000
  0
VERTEX
  5
99
100
AcDbEntity
  8
OUTLINE
100
AcDbVertex
100
AcDb2dVertex
 10
-25.100000
 20
0.000000
 40
0.000000
 41
0.000000
 42
0.000000
  0
SEQEND
  5
97
100
AcDbEntity
  0
POLYLINE
  5
9a
100
AcDbEntity
  8
OUTLINE
100
AcDb2dPolyline
 66
1
 70
0
 40
0.000000
 41
0.000000
 39
0.000000
  0
VERTEX
  5
9c
100
AcDbEntity
  8
OUTLINE
100
AcDbVertex
100
AcDb2dVertex
 10
0.700000
 20
80.500000
 40
0.000000
 41
0.000000
 42
0.000000
  0
VERTEX
  5
9d
100
AcDbEntity
  8
OUTLINE
100
AcDbVertex
100
AcDb2dVertex
 10
-25.100000
 20
80.500000
 40
0.000000
 41
0.000000
 42
0.000000
  0
SEQEND
  5
9b
100
AcDbEntity
  0
TEXT
  5
9e
100
AcDbEntity
  8
OUTLINE
100
AcDbText
 10
-28.505500
 20
37.812500
 11
0.000000
 21
0.000000
 40
3.175000
 41
0.992000
 50
0.000000
  7
STANDARD
 71
0
 72
0
  1
80.5
100
AcDbText
 73
0
  0
POLYLINE
  5
9f
100
AcDbEntity
  8
OUTLINE
100
AcDb2dPolyline
 66
1
 70
0
 40
0.000000
 41
0.000000
 39
0.000000
  0
VERTEX
  5
a1
100
AcDbEntity
  8
OUTLINE
100
AcDbVertex
100
AcDb2dVertex
 10
-41.775000
 20
86.000000
 40
0.000000
 41
0.000000
 42
0.000000
  0
VERTEX
  5
a2
100
AcDbEntity
  8
OUTLINE
100
AcDbVertex
100
AcDb2dVertex
 10
-42.400000
 20
90.000000
 40
0.000000
 41
0.000000
 42
0.000000
  0
VERTEX
  5
a3
100
AcDbEntity
  8
OUTLINE
100
AcDbVertex
100
AcDb2dVertex
 10
-43.025000
 20
86.000000
 40
0.000000
 41
0.000000
 42
0.000000
  0
VERTEX
  5
a4
100
AcDbEntity
  8
OUTLINE
100
AcDbVertex
100
AcDb2dVertex
 10
-41.775000
 20
86.000000
 40
0.000000
 41
0.000000
 42
0.000000
  0
SEQEND
  5
a0
100
AcDbEntity
  0
POLYLINE
  5
a5
100
AcDbEntity
  8
OUTLINE
100
AcDb2dPolyline
 66
1
 70
0
 40
0.000000
 41
0.000000
 39
0.000000
  0
VERTEX
  5
a7
100
AcDbEntity
  8
OUTLINE
100
AcDbVertex
100
AcDb2dVertex
 10
-42.400000
 20
52.068700
 40
0.000000
 41
0.000000
 42
0.000000
  0
VERTEX
  5
a8
100
AcDbEntity
  8
OUTLINE
100
AcDbVertex
100
AcDb2dVertex
 10
-42.400000
 20
90.000000
 40
0.000000
 41
0.000000
 42
0.000000
  0
SEQEND
  5
a6
100
AcDbEntity
  0
POLYLINE
  5
a9
100
AcDbEntity
  8
OUTLINE
100
AcDb2dPolyline
 66
1
 70
0
 40
0.000000
 41
0.000000
 39
0.000000
  0
VERTEX
  5
ab
100
AcDbEntity
  8
OUTLINE
100
AcDbVertex
100
AcDb2dVertex
 10
-43.025000
 20
4.000000
 40
0.000000
 41
0.000000
 42
0.000000
  0
VERTEX
  5
ac
100
AcDbEntity
  8
OUTLINE
100
AcDbVertex
100
AcDb2dVertex
 10
-42.400000
 20
0.000000
 40
0.000000
 41
0.000000
 42
0.000000
  0
VERTEX
  5
ad
100
AcDbEntity
  8
OUTLINE
100
AcDbVertex
100
AcDb2dVertex
 10
-41.775000
 20
4.000000
 40
0.000000
 41
0.000000
 42
0.000000
  0
VERTEX
  5
ae
100
AcDbEntity
  8
OUTLINE
100
AcDbVertex
100
AcDb2dVertex
 10
-43.025000
 20
4.000000
 40
0.000000
 41
0.000000
 42
0.000000
  0
SEQEND
  5
aa
100
AcDbEntity
  0
POLYLINE
  5
af
100
AcDbEntity
  8
OUTLINE
100
AcDb2dPolyline
 66
1
 70
0
 40
0.000000
 41
0.000000
 39
0.000000
  0
VERTEX
  5
b1
100
AcDbEntity
  8
OUTLINE
100
AcDbVertex
100
AcDb2dVertex
 10
-42.400000
 20
44.131300
 40
0.000000
 41
0.000000
 42
0.000000
  0
VERTEX
  5
b2
100
AcDbEntity
  8
OUTLINE
100
AcDbVertex
100
AcDb2dVertex
 10
-42.400000
 20
0.000000
 40
0.000000
 41
0.000000
 42
0.000000
  0
SEQEND
  5
b0
100
AcDbEntity
  0
POLYLINE
  5
b3
100
AcDbEntity
  8
OUTLINE
100
AcDb2dPolyline
 66
1
 70
0
 40
0.000000
 41
0.000000
 39
0.000000
  0
VERTEX
  5
b5
100
AcDbEntity
  8
OUTLINE
100
AcDbVertex
100
AcDb2dVertex
 10
-2.500000
 20
0.000000
 40
0.000000
 41
0.000000
 42
0.000000
  0
VERTEX
  5
b6
100
AcDbEntity
  8
OUTLINE
100
AcDbVertex
100
AcDb2dVertex
 10
-44.900000
 20
0.000000
 40
0.000000
 41
0.000000
 42
0.000000
  0
SEQEND
  5
b4
100
AcDbEntity
  0
POLYLINE
  5
b7
100
AcDbEntity
  8
OUTLINE
100
AcDb2dPolyline
 66
1
 70
0
 40
0.000000
 41
0.000000
 39
0.000000
  0
VERTEX
  5
b9
100
AcDbEntity
  8
OUTLINE
100
AcDbVertex
100
AcDb2dVertex
 10
2.400000
 20
90.000000
 40
0.000000
 41
0.000000
 42
0.000000
  0
VERTEX
  5
ba
100
AcDbEntity
  8
OUTLINE
100
AcDbVertex
100
AcDb2dVertex
 10
-44.900000
 20
90.000000
 40
0.000000
 41
0.000000
 42
0.000000
  0
SEQEND
  5
b8
100
AcDbEntity
  0
TEXT
  5
bb
100
AcDbEntity
  8
OUTLINE
100
AcDbText
 10
-45.155900
 20
46.512500
 11
0.000000
 21
0.000000
 40
3.175000
 41
0.992000
 50
0.000000
  7
STANDARD
 71
0
 72
0
  1
90
100
AcDbText
 73
0
  0
POLYLINE
  5
bc
100
AcDbEntity
  8
OUTLINE
100
AcDb2dPolyline
 66
1
 70
0
 40
0.000000
 41
0.000000
 39
0.000000
  0
VERTEX
  5
be
100
AcDbEntity
  8
OUTLINE
100
AcDbVertex
100
AcDb2dVertex
 10
146.000000
 20
-28.625000
 40
0.000000
 41
0.000000
 42
0.000000
  0
VERTEX
  5
bf
100
AcDbEntity
  8
OUTLINE
100
AcDbVertex
100
AcDb2dVertex
 10
150.000000
 20
-28.000000
 40
0.000000
 41
0.000000
 42
0.000000
  0
VERTEX
  5
c0
100
AcDbEntity
  8
OUTLINE
100
AcDbVertex
100
AcDb2dVertex
 10
146.000000
 20
-27.375000
 40
0.000000
 41
0.000000
 42
0.000000
  0
VERTEX
  5
c1
100
AcDbEntity
  8
OUTLINE
100
AcDbVertex
100
AcDb2dVertex
 10
146.000000
 20
-28.625000
 40
0.000000
 41
0.000000
 42
0.000000
  0
SEQEND
  5
bd
100
AcDbEntity
  0
POLYLINE
  5
c2
100
AcDbEntity
  8
OUTLINE
100
AcDb2dPolyline
 66
1
 70
0
 40
0.000000
 41
0.000000
 39
0.000000
  0
VERTEX
  5
c4
100
AcDbEntity
  8
OUTLINE
100
AcDbVertex
100
AcDb2dVertex
 10
88.311900
 20
-28.000000
 40
0.000000
 41
0.000000
 42
0.000000
  0
VERTEX
  5
c5
100
AcDbEntity
  8
OUTLINE
100
AcDbVertex
100
AcDb2dVertex
 10
150.000000
 20
-28.000000
 40
0.000000
 41
0.000000
 42
0.000000
  0
SEQEND
  5
c3
100
AcDbEntity
  0
POLYLINE
  5
c6
100
AcDbEntity
  8
OUTLINE
100
AcDb2dPolyline
 66
1
 70
0
 40
0.000000
 41
0.000000
 39
0.000000
  0
VERTEX
  5
c8
100
AcDbEntity
  8
OUTLINE
100
AcDbVertex
100
AcDb2dVertex
 10
4.000000
 20
-27.375000
 40
0.000000
 41
0.000000
 42
0.000000
  0
VERTEX
  5
c9
100
AcDbEntity
  8
OUTLINE
100
AcDbVertex
100
AcDb2dVertex
 10
0.000000
 20
-28.000000
 40
0.000000
 41
0.000000
 42
0.000000
  0
VERTEX
  5
ca
100
AcDbEntity
  8
OUTLINE
100
AcDbVertex
100
AcDb2dVertex
 10
4.000000
 20
-28.625000
 40
0.000000
 41
0.000000
 42
0.000000
  0
VERTEX
  5
cb
100
AcDbEntity
  8
OUTLINE
100
AcDbVertex
100
AcDb2dVertex
 10
4.000000
 20
-27.375000
 40
0.000000
 41
0.000000
 42
0.000000
  0
SEQEND
  5
c7
100
AcDbEntity
  0
POLYLINE
  5
cc
100
AcDbEntity
  8
OUTLINE
100
AcDb2dPolyline
 66
1
 70
0
 40
0.000000
 41
0.000000
 39
0.000000
  0
VERTEX
  5
ce
100
AcDbEntity
  8
OUTLINE
100
AcDbVertex
100
AcDb2dVertex
 10
74.888100
 20
-28.000000
 40
0.000000
 41
0.000000
 42
0.000000
  0
VERTEX
  5
cf
100
AcDbEntity
  8
OUTLINE
100
AcDbVertex
100
AcDb2dVertex
 10
0.000000
 20
-28.000000
 40
0.000000
 41
0.000000
 42
0.000000
  0
SEQEND
  5
cd
100
AcDbEntity
  0
POLYLINE
  5
d0
100
AcDbEntity
  8
OUTLINE
100
AcDb2dPolyline
 66
1
 70
0
 40
0.000000
 41
0.000000
 39
0.000000
  0
VERTEX
  5
d2
100
AcDbEntity
  8
OUTLINE
100
AcDbVertex
100
AcDb2dVertex
 10
150.000000
 20
3.800000
 40
0.000000
 41
0.000000
 42
0.000000
  0
VERTEX
  5
d3
100
AcDbEntity
  8
OUTLINE
100
AcDbVertex
100
AcDb2dVertex
 10
150.000000
 20
-30.500000
 40
0.000000
 41
0.000000
 42
0.000000
  0
SEQEND
  5
d1
100
AcDbEntity
  0
POLYLINE
  5
d4
100
AcDbEntity
  8
OUTLINE
100
AcDb2dPolyline
 66
1
 70
0
 40
0.000000
 41
0.000000
 39
0.000000
  0
VERTEX
  5
d6
100
AcDbEntity
  8
OUTLINE
100
AcDbVertex
100
AcDb2dVertex
 10
0.000000
 20
-2.500000
 40
0.000000
 41
0.000000
 42
0.000000
  0
VERTEX
  5
d7
100
AcDbEntity
  8
OUTLINE
100
AcDbVertex
100
AcDb2dVertex
 10
0.000000
 20
-30.500000
 40
0.000000
 41
0.000000
 42
0.000000
  0
SEQEND
  5
d5
100
AcDbEntity
  0
TEXT
  5
d8
100
AcDbEntity
  8
OUTLINE
100
AcDbText
 10
77.269300
 20
-29.587500
 11
0.000000
 21
0.000000
 40
3.175000
 41
0.992000
 50
0.000000
  7
STANDARD
 71
0
 72
0
  1
150
100
AcDbText
 73
0
  0
POLYLINE
  5
d9
100
AcDbEntity
  8
OUTLINE
100
AcDb2dPolyline
 66
1
 70
0
 40
0.000000
 41
0.000000
 39
0.000000
  0
VERTEX
  5
db
100
AcDbEntity
  8
OUTLINE
100
AcDbVertex
100
AcDb2dVertex
 10
142.900000
 20
-22.625000
 40
0.000000
 41
0.000000
 42
0.000000
  0
VERTEX
  5
dc
100
AcDbEntity
  8
OUTLINE
100
AcDbVertex
100
AcDb2dVertex
 10
146.900000
 20
-22.000000
 40
0.000000
 41
0.000000
 42
0.000000
  0
VERTEX
  5
dd
100
AcDbEntity
  8
OUTLINE
100
AcDbVertex
100
AcDb2dVertex
 10
142.900000
 20
-21.375000
 40
0.000000
 41
0.000000
 42
0.000000
  0
VERTEX
  5
de
100
AcDbEntity
  8
OUTLINE
100
AcDbVertex
100
AcDb2dVertex
 10
142.900000
 20
-22.625000
 40
0.000000
 41
0.000000
 42
0.000000
  0
SEQEND
  5
da
100
AcDbEntity
  0
POLYLINE
  5
df
100
AcDbEntity
  8
OUTLINE
100
AcDb2dPolyline
 66
1
 70
0
 40
0.000000
 41
0.000000
 39
0.000000
  0
VERTEX
  5
e1
100
AcDbEntity
  8
OUTLINE
100
AcDbVertex
100
AcDb2dVertex
 10
87.961500
 20
-22.000000
 40
0.000000
 41
0.000000
 42
0.000000
  0
VERTEX
  5
e2
100
AcDbEntity
  8
OUTLINE
100
AcDbVertex
100
AcDb2dVertex
 10
146.900000
 20
-22.000000
 40
0.000000
 41
0.000000
 42
0.000000
  0
SEQEND
  5
e0
100
AcDbEntity
  0
POLYLINE
  5
e3
100
AcDbEntity
  8
OUTLINE
100
AcDb2dPolyline
 66
1
 70
0
 40
0.000000
 41
0.000000
 39
0.000000
  0
VERTEX
  5
e5
100
AcDbEntity
  8
OUTLINE
100
AcDbVertex
100
AcDb2dVertex
 10
4.000000
 20
-21.375000
 40
0.000000
 41
0.000000
 42
0.000000
  0
VERTEX
  5
e6
100
AcDbEntity
  8
OUTLINE
100
AcDbVertex
100
AcDb2dVertex
 10
0.000000
 20
-22.000000
 40
0.000000
 41
0.000000
 42
0.000000
  0
VERTEX
  5
e7
100
AcDbEntity
  8
OUTLINE
100
AcDbVertex
100
AcDb2dVertex
 10
4.000000
 20
-22.625000
 40
0.000000
 41
0.000000
 42
0.000000
  0
VERTEX
  5
e8
100
AcDbEntity
  8
OUTLINE
100
AcDbVertex
100
AcDb2dVertex
 10
4.000000
 20
-21.375000
 40
0.000000
 41
0.000000
 42
0.000000
  0
SEQEND
  5
e4
100
AcDbEntity
  0
POLYLINE
  5
e9
100
AcDbEntity
  8
OUTLINE
100
AcDb2dPolyline
 66
1
 70
0
 40
0.000000
 41
0.000000
 39
0.000000
  0
VERTEX
  5
eb
100
AcDbEntity
  8
OUTLINE
100
AcDbVertex
100
AcDb2dVertex
 10
68.238500
 20
-22.000000
 40
0.000000
 41
0.000000
 42
0.000000
  0
VERTEX
  5
ec
100
AcDbEntity
  8
OUTLINE
100
AcDbVertex
100
AcDb2dVertex
 10
0.000000
 20
-22.000000
 40
0.000000
 41
0.000000
 42
0.000000
  0
SEQEND
  5
ea
100
AcDbEntity
  0
POLYLINE
  5
ed
100
AcDbEntity
  8
OUTLINE
100
AcDb2dPolyline
 66
1
 70
0
 40
0.000000
 41
0.000000
 39
0.000000
  0
VERTEX
  5
ef
100
AcDbEntity
  8
OUTLINE
100
AcDbVertex
100
AcDb2dVertex
 10
146.900000
 20
0.700000
 40
0.000000
 41
0.000000
 42
0.000000
  0
VERTEX
  5
f0
100
AcDbEntity
  8
OUTLINE
100
AcDbVertex
100
AcDb2dVertex
 10
146.900000
 20
-24.500000
 40
0.000000
 41
0.000000
 42
0.000000
  0
SEQEND
  5
ee
100
AcDbEntity
  0
POLYLINE
  5
f1
100
AcDbEntity
  8
OUTLINE
100
AcDb2dPolyline
 66
1
 70
0
 40
0.000000
 41
0.000000
 39
0.000000
  0
VERTEX
  5
f3
100
AcDbEntity
  8
OUTLINE
100
AcDbVertex
100
AcDb2dVertex
 10
0.000000
 20
-2.500000
 40
0.000000
 41
0.000000
 42
0.000000
  0
VERTEX
  5
f4
100
AcDbEntity
  8
OUTLINE
100
AcDbVertex
100
AcDb2dVertex
 10
0.000000
 20
-24.500000
 40
0.000000
 41
0.000000
 42
0.000000
  0
SEQEND
  5
f2
100
AcDbEntity
  0
TEXT
  5
f5
100
AcDbEntity
  8
OUTLINE
100
AcDbText
 10
70.619700
 20
-23.587500
 11
0.000000
 21
0.000000
 40
3.175000
 41
0.992000
 50
0.000000
  7
STANDARD
 71
0
 72
0
  1
146.9
100
AcDbText
 73
0
  0
POLYLINE
  5
f6
100
AcDbEntity
  8
OUTLINE
100
AcDb2dPolyline
 66
1
 70
0
 40
0.000000
 41
0.000000
 39
0.000000
  0
VERTEX
  5
f8
100
AcDbEntity
  8
OUTLINE
100
AcDbVertex
100
AcDb2dVertex
 10
87.500000
 20
-17.625000
 40
0.000000
 41
0.000000
 42
0.000000
  0
VERTEX
  5
f9
100
AcDbEntity
  8
OUTLINE
100
AcDbVertex
100
AcDb2dVertex
 10
91.500000
 20
-17.000000
 40
0.000000
 41
0.000000
 42
0.000000
  0
VERTEX
  5
fa
100
AcDbEntity
  8
OUTLINE
100
AcDbVertex
100
AcDb2dVertex
 10
87.500000
 20
-16.375000
 40
0.000000
 41
0.000000
 42
0.000000
  0
VERTEX
  5
fb
100
AcDbEntity
  8
OUTLINE
100
AcDbVertex
100
AcDb2dVertex
 10
87.500000
 20
-17.625000
 40
0.000000
 41
0.000000
 42
0.000000
  0
SEQEND
  5
f7
100
AcDbEntity
  0
POLYLINE
  5
fc
100
AcDbEntity
  8
OUTLINE
100
AcDb2dPolyline
 66
1
 70
0
 40
0.000000
 41
0.000000
 39
0.000000
  0
VERTEX
  5
fe
100
AcDbEntity
  8
OUTLINE
100
AcDbVertex
100
AcDb2dVertex
 10
60.586700
 20
-17.000000
 40
0.000000
 41
0.000000
 42
0.000000
  0
VERTEX
  5
ff
100
AcDbEntity
  8
OUTLINE
100
AcDbVertex
100
AcDb2dVertex
 10
91.500000
 20
-17.000000
 40
0.000000
 41
0.000000
 42
0.000000
  0
SEQEND
  5
fd
100
AcDbEntity
  0
POLYLINE
  5
100
100
AcDbEntity
  8
OUTLINE
100
AcDb2dPolyline
 66
1
 70
0
 40
0.000000
 41
0.000000
 39
0.000000
  0
VERTEX
  5
102
100
AcDbEntity
  8
OUTLINE
100
AcDbVertex
100
AcDb2dVertex
 10
4.000000
 20
-16.375000
 40
0.000000
 41
0.000000
 42
0.000000
  0
VERTEX
  5
103
100
AcDbEntity
  8
OUTLINE
100
AcDbVertex
100
AcDb2dVertex
 10
0.000000
 20
-17.000000
 40
0.000000
 41
0.000000
 42
0.000000
  0
VERTEX
  5
104
100
AcDbEntity
  8
OUTLINE
100
AcDbVertex
100
AcDb2dVertex
 10
4.000000
 20
-17.625000
 40
0.000000
 41
0.000000
 42
0.000000
  0
VERTEX
  5
105
100
AcDbEntity
  8
OUTLINE
100
AcDbVertex
100
AcDb2dVertex
 10
4.000000
 20
-16.375000
 40
0.000000
 41
0.000000
 42
0.000000
  0
SEQEND
  5
101
100
AcDbEntity
  0
POLYLINE
  5
106
100
AcDbEntity
  8
OUTLINE
100
AcDb2dPolyline
 66
1
 70
0
 40
0.000000
 41
0.000000
 39
0.000000
  0
VERTEX
  5
108
100
AcDbEntity
  8
OUTLINE
100
AcDbVertex
100
AcDb2dVertex
 10
44.013300
 20
-17.000000
 40
0.000000
 41
0.000000
 42
0.000000
  0
VERTEX
  5
109
100
AcDbEntity
  8
OUTLINE
100
AcDbVertex
100
AcDb2dVertex
 10
0.000000
 20
-17.000000
 40
0.000000
 41
0.000000
 42
0.000000
  0
SEQEND
  5
107
100
AcDbEntity
  0
POLYLINE
  5
10a
100
AcDbEntity
  8
OUTLINE
100
AcDb2dPolyline
 66
1
 70
0
 40
0.000000
 41
0.000000
 39
0.000000
  0
VERTEX
  5
10c
100
AcDbEntity
  8
OUTLINE
100
AcDbVertex
100
AcDb2dVertex
 10
91.500000
 20
84.200000
 40
0.000000
 41
0.000000
 42
0.000000
  0
VERTEX
  5
10d
100
AcDbEntity
  8
OUTLINE
100
AcDbVertex
100
AcDb2dVertex
 10
91.500000
 20
-19.500000
 40
0.000000
 41
0.000000
 42
0.000000
  0
SEQEND
  5
10b
100
AcDbEntity
  0
POLYLINE
  5
10e
100
AcDbEntity
  8
OUTLINE
100
AcDb2dPolyline
 66
1
 70
0
 40
0.000000
 41
0.000000
 39
0.000000
  0
VERTEX
  5
110
100
AcDbEntity
  8
OUTLINE
100
AcDbVertex
100
AcDb2dVertex
 10
0.000000
 20
-2.500000
 40
0.000000
 41
0.000000
 42
0.000000
  0
VERTEX
  5
111
100
AcDbEntity
  8
OUTLINE
100
AcDbVertex
100
AcDb2dVertex
 10
0.000000
 20
-19.500000
 40
0.000000
 41
0.000000
 42
0.000000
  0
SEQEND
  5
10f
100
AcDbEntity
  0
TEXT
  5
112
100
AcDbEntity
  8
OUTLINE
100
AcDbText
 10
46.394500
 20
-18.587500
 11
0.000000
 21
0.000000
 40
3.175000
 41
0.992000
 50
0.000000
  7
STANDARD
 71
0
 72
0
  1
91.5
100
AcDbText
 73
0
  0
POLYLINE
  5
113
100
AcDbEntity
  8
OUTLINE
100
AcDb2dPolyline
 66
1
 70
0
 40
0.000000
 41
0.000000
 39
0.000000
  0
VERTEX
  5
115
100
AcDbEntity
  8
OUTLINE
100
AcDbVertex
100
AcDb2dVertex
 10
71.100000
 20
-10.925000
 40
0.000000
 41
0.000000
 42
0.000000
  0
VERTEX
  5
116
100
AcDbEntity
  8
OUTLINE
100
AcDbVertex
100
AcDb2dVertex
 10
75.100000
 20
-10.300000
 40
0.000000
 41
0.000000
 42
0.000000
  0
VERTEX
  5
117
100
AcDbEntity
  8
OUTLINE
100
AcDbVertex
100
AcDb2dVertex
 10
71.100000
 20
-9.675000
 40
0.000000
 41
0.000000
 42
0.000000
  0
VERTEX
  5
118
100
AcDbEntity
  8
OUTLINE
100
AcDbVertex
100
AcDb2dVertex
 10
71.100000
 20
-10.925000
 40
0.000000
 41
0.000000
 42
0.000000
  0
SEQEND
  5
114
100
AcDbEntity
  0
POLYLINE
  5
119
100
AcDbEntity
  8
OUTLINE
100
AcDb2dPolyline
 66
1
 70
0
 40
0.000000
 41
0.000000
 39
0.000000
  0
VERTEX
  5
11b
100
AcDbEntity
  8
OUTLINE
100
AcDbVertex
100
AcDb2dVertex
 10
41.186700
 20
-10.300000
 40
0.000000
 41
0.000000
 42
0.000000
  0
VERTEX
  5
11c
100
AcDbEntity
  8
OUTLINE
100
AcDbVertex
100
AcDb2dVertex
 10
75.100000
 20
-10.300000
 40
0.000000
 41
0.000000
 42
0.000000
  0
SEQEND
  5
11a
100
AcDbEntity
  0
POLYLINE
  5
11d
100
AcDbEntity
  8
OUTLINE
100
AcDb2dPolyline
 66
1
 70
0
 40
0.000000
 41
0.000000
 39
0.000000
  0
VERTEX
  5
11f
100
AcDbEntity
  8
OUTLINE
100
AcDbVertex
100
AcDb2dVertex
 10
4.000000
 20
-9.675000
 40
0.000000
 41
0.000000
 42
0.000000
  0
VERTEX
  5
120
100
AcDbEntity
  8
OUTLINE
100
AcDbVertex
100
AcDb2dVertex
 10
0.000000
 20
-10.300000
 40
0.000000
 41
0.000000
 42
0.000000
  0
VERTEX
  5
121
100
AcDbEntity
  8
OUTLINE
100
AcDbVertex
100
AcDb2dVertex
 10
4.000000
 20
-10.925000
 40
0.000000
 41
0.000000
 42
0.000000
  0
VERTEX
  5
122
100
AcDbEntity
  8
OUTLINE
100
AcDbVertex
100
AcDb2dVertex
 10
4.000000
 20
-9.675000
 40
0.000000
 41
0.000000
 42
0.000000
  0
SEQEND
  5
11e
100
AcDbEntity
  0
POLYLINE
  5
123
100
AcDbEntity
  8
OUTLINE
100
AcDb2dPolyline
 66
1
 70
0
 40
0.000000
 41
0.000000
 39
0.000000
  0
VERTEX
  5
125
100
AcDbEntity
  8
OUTLINE
100
AcDbVertex
100
AcDb2dVertex
 10
24.613300
 20
-10.300000
 40
0.000000
 41
0.000000
 42
0.000000
  0
VERTEX
  5
126
100
AcDbEntity
  8
OUTLINE
100
AcDbVertex
100
AcDb2dVertex
 10
0.000000
 20
-10.300000
 40
0.000000
 41
0.000000
 42
0.000000
  0
SEQEND
  5
124
100
AcDbEntity
  0
POLYLINE
  5
127
100
AcDbEntity
  8
OUTLINE
100
AcDb2dPolyline
 66
1
 70
0
 40
0.000000
 41
0.000000
 39
0.000000
  0
VERTEX
  5
129
100
AcDbEntity
  8
OUTLINE
100
AcDbVertex
100
AcDb2dVertex
 10
75.100000
 20
0.700000
 40
0.000000
 41
0.000000
 42
0.000000
  0
VERTEX
  5
12a
100
AcDbEntity
  8
OUTLINE
100
AcDbVertex
100
AcDb2dVertex
 10
75.100000
 20
-12.800000
 40
0.000000
 41
0.000000
 42
0.000000
  0
SEQEND
  5
128
100
AcDbEntity
  0
POLYLINE
  5
12b
100
AcDbEntity
  8
OUTLINE
100
AcDb2dPolyline
 66
1
 70
0
 40
0.000000
 41
0.000000
 39
0.000000
  0
VERTEX
  5
12d
100
AcDbEntity
  8
OUTLINE
100
AcDbVertex
100
AcDb2dVertex
 10
0.000000
 20
-2.500000
 40
0.000000
 41
0.000000
 42
0.000000
  0
VERTEX
  5
12e
100
AcDbEntity
  8
OUTLINE
100
AcDbVertex
100
AcDb2dVertex
 10
0.000000
 20
-12.800000
 40
0.000000
 41
0.000000
 42
0.000000
  0
SEQEND
  5
12c
100
AcDbEntity
  0
TEXT
  5
12f
100
AcDbEntity
  8
OUTLINE
100
AcDbText
 10
26.994500
 20
-11.887500
 11
0.000000
 21
0.000000
 40
3.175000
 41
0.992000
 50
0.000000
  7
STANDARD
 71
0
 72
0
  1
75.1
100
AcDbText
 73
0
  0
POLYLINE
  5
130
100
AcDbEntity
  8
OUTLINE
100
AcDb2dPolyline
 66
1
 70
0
 40
0.000000
 41
0.000000
 39
0.000000
  0
VERTEX
  5
132
100
AcDbEntity
  8
OUTLINE
100
AcDbVertex
100
AcDb2dVertex
 10
7.200000
 20
-3.375000
 40
0.000000
 41
0.000000
 42
0.000000
  0
VERTEX
  5
133
100
AcDbEntity
  8
OUTLINE
100
AcDbVertex
100
AcDb2dVertex
 10
3.200000
 20
-4.000000
 40
0.000000
 41
0.000000
 42
0.000000
  0
VERTEX
  5
134
100
AcDbEntity
  8
OUTLINE
100
AcDbVertex
100
AcDb2dVertex
 10
7.200000
 20
-4.625000
 40
0.000000
 41
0.000000
 42
0.000000
  0
VERTEX
  5
135
100
AcDbEntity
  8
OUTLINE
100
AcDbVertex
100
AcDb2dVertex
 10
7.200000
 20
-3.375000
 40
0.000000
 41
0.000000
 42
0.000000
  0
SEQEND
  5
131
100
AcDbEntity
  0
POLYLINE
  5
136
100
AcDbEntity
  8
OUTLINE
100
AcDb2dPolyline
 66
1
 70
0
 40
0.000000
 41
0.000000
 39
0.000000
  0
VERTEX
  5
138
100
AcDbEntity
  8
OUTLINE
100
AcDbVertex
100
AcDb2dVertex
 10
5.688100
 20
-4.000000
 40
0.000000
 41
0.000000
 42
0.000000
  0
VERTEX
  5
139
100
AcDbEntity
  8
OUTLINE
100
AcDbVertex
100
AcDb2dVertex
 10
3.200000
 20
-4.000000
 40
0.000000
 41
0.000000
 42
0.000000
  0
SEQEND
  5
137
100
AcDbEntity
  0
POLYLINE
  5
13a
100
AcDbEntity
  8
OUTLINE
100
AcDb2dPolyline
 66
1
 70
0
 40
0.000000
 41
0.000000
 39
0.000000
  0
VERTEX
  5
13c
100
AcDbEntity
  8
OUTLINE
100
AcDbVertex
100
AcDb2dVertex
 10
-4.000000
 20
-4.625000
 40
0.000000
 41
0.000000
 42
0.000000
  0
VERTEX
  5
13d
100
AcDbEntity
  8
OUTLINE
100
AcDbVertex
100
AcDb2dVertex
 10
0.000000
 20
-4.000000
 40
0.000000
 41
0.000000
 42
0.000000
  0
VERTEX
  5
13e
100
AcDbEntity
  8
OUTLINE
100
AcDbVertex
100
AcDb2dVertex
 10
-4.000000
 20
-3.375000
 40
0.000000
 41
0.000000
 42
0.000000
  0
VERTEX
  5
13f
100
AcDbEntity
  8
OUTLINE
100
AcDbVertex
100
AcDb2dVertex
 10
-4.000000
 20
-4.625000
 40
0.000000
 41
0.000000
 42
0.000000
  0
SEQEND
  5
13b
100
AcDbEntity
  0
POLYLINE
  5
140
100
AcDbEntity
  8
OUTLINE
100
AcDb2dPolyline
 66
1
 70
0
 40
0.000000
 41
0.000000
 39
0.000000
  0
VERTEX
  5
142
100
AcDbEntity
  8
OUTLINE
100
AcDbVertex
100
AcDb2dVertex
 10
-8.000000
 20
-4.000000
 40
0.000000
 41
0.000000
 42
0.000000
  0
VERTEX
  5
143
100
AcDbEntity
  8
OUTLINE
100
AcDbVertex
100
AcDb2dVertex
 10
0.000000
 20
-4.000000
 40
0.000000
 41
0.000000
 42
0.000000
  0
SEQEND
  5
141
100
AcDbEntity
  0
POLYLINE
  5
144
100
AcDbEntity
  8
OUTLINE
100
AcDb2dPolyline
 66
1
 70
0
 40
0.000000
 41
0.000000
 39
0.000000
  0
VERTEX
  5
146
100
AcDbEntity
  8
OUTLINE
100
AcDbVertex
100
AcDb2dVertex
 10
3.200000
 20
0.700000
 40
0.000000
 41
0.000000
 42
0.000000
  0
VERTEX
  5
147
100
AcDbEntity
  8
OUTLINE
100
AcDbVertex
100
AcDb2dVertex
 10
3.200000
 20
-6.500000
 40
0.000000
 41
0.000000
 42
0.000000
  0
SEQEND
  5
145
100
AcDbEntity
  0
POLYLINE
  5
148
100
AcDbEntity
  8
OUTLINE
100
AcDb2dPolyline
 66
1
 70
0
 40
0.000000
 41
0.000000
 39
0.000000
  0
VERTEX
  5
14a
100
AcDbEntity
  8
OUTLINE
100
AcDbVertex
100
AcDb2dVertex
 10
0.000000
 20
-2.500000
 40
0.000000
 41
0.000000
 42
0.000000
  0
VERTEX
  5
14b
100
AcDbEntity
  8
OUTLINE
100
AcDbVertex
100
AcDb2dVertex
 10
0.000000
 20
-6.500000
 40
0.000000
 41
0.000000
 42
0.000000
  0
SEQEND
  5
149
100
AcDbEntity
  0
TEXT
  5
14c
100
AcDbEntity
  8
OUTLINE
100
AcDbText
 10
8.069300
 20
-5.587500
 11
0.000000
 21
0.000000
 40
3.175000
 41
0.992000
 50
0.000000
  7
STANDARD
 71
0
 72
0
  1
3.2
100
AcDbText
 73
0
  0
POLYLINE
  5
14d
100
AcDbEntity
  8
OUTLINE
100
AcDb2dPolyline
 66
1
 70
0
 40
0.000000
 41
0.000000
 39
0.000000
  0
VERTEX
  5
14f
100
AcDbEntity
  8
OUTLINE
100
AcDbVertex
100
AcDb2dVertex
 10
-15.075000
 20
5.500000
 40
0.000000
 41
0.000000
 42
0.000000
  0
VERTEX
  5
150
100
AcDbEntity
  8
OUTLINE
100
AcDbVertex
100
AcDb2dVertex
 10
-15.700000
 20
9.500000
 40
0.000000
 41
0.000000
 42
0.000000
  0
VERTEX
  5
151
100
AcDbEntity
  8
OUTLINE
100
AcDbVertex
100
AcDb2dVertex
 10
-16.325000
 20
5.500000
 40
0.000000
 41
0.000000
 42
0.000000
  0
VERTEX
  5
152
100
AcDbEntity
  8
OUTLINE
100
AcDbVertex
100
AcDb2dVertex
 10
-15.075000
 20
5.500000
 40
0.000000
 41
0.000000
 42
0.000000
  0
SEQEND
  5
14e
100
AcDbEntity
  0
POLYLINE
  5
153
100
AcDbEntity
  8
OUTLINE
100
AcDb2dPolyline
 66
1
 70
0
 40
0.000000
 41
0.000000
 39
0.000000
  0
VERTEX
  5
155
100
AcDbEntity
  8
OUTLINE
100
AcDbVertex
100
AcDb2dVertex
 10
-15.700000
 20
18.231300
 40
0.000000
 41
0.000000
 42
0.000000
  0
VERTEX
  5
156
100
AcDbEntity
  8
OUTLINE
100
AcDbVertex
100
AcDb2dVertex
 10
-15.700000
 20
9.500000
 40
0.000000
 41
0.000000
 42
0.000000
  0
SEQEND
  5
154
100
AcDbEntity
  0
POLYLINE
  5
157
100
AcDbEntity
  8
OUTLINE
100
AcDb2dPolyline
 66
1
 70
0
 40
0.000000
 41
0.000000
 39
0.000000
  0
VERTEX
  5
159
100
AcDbEntity
  8
OUTLINE
100
AcDbVertex
100
AcDb2dVertex
 10
-16.325000
 20
4.000000
 40
0.000000
 41
0.000000
 42
0.000000
  0
VERTEX
  5
15a
100
AcDbEntity
  8
OUTLINE
100
AcDbVertex
100
AcDb2dVertex
 10
-15.700000
 20
0.000000
 40
0.000000
 41
0.000000
 42
0.000000
  0
VERTEX
  5
15b
100
AcDbEntity
  8
OUTLINE
100
AcDbVertex
100
AcDb2dVertex
 10
-15.075000
 20
4.000000
 40
0.000000
 41
0.000000
 42
0.000000
  0
VERTEX
  5
15c
100
AcDbEntity
  8
OUTLINE
100
AcDbVertex
100
AcDb2dVertex
 10
-16.325000
 20
4.000000
 40
0.000000
 41
0.000000
 42
0.000000
  0
SEQEND
  5
158
100
AcDbEntity
  0
POLYLINE
  5
15d
100
AcDbEntity
  8
OUTLINE
100
AcDb2dPolyline
 66
1
 70
0
 40
0.000000
 41
0.000000
 39
0.000000
  0
VERTEX
  5
15f
100
AcDbEntity
  8
OUTLINE
100
AcDbVertex
100
AcDb2dVertex
 10
-15.700000
 20
9.500000
 40
0.000000
 41
0.000000
 42
0.000000
  0
VERTEX
  5
160
100
AcDbEntity
  8
OUTLINE
100
AcDbVertex
100
AcDb2dVertex
 10
-15.700000
 20
0.000000
 40
0.000000
 41
0.000000
 42
0.000000
  0
SEQEND
  5
15e
100
AcDbEntity
  0
POLYLINE
  5
161
100
AcDbEntity
  8
OUTLINE
100
AcDb2dPolyline
 66
1
 70
0
 40
0.000000
 41
0.000000
 39
0.000000
  0
VERTEX
  5
163
100
AcDbEntity
  8
OUTLINE
100
AcDbVertex
100
AcDb2dVertex
 10
-2.500000
 20
0.000000
 40
0.000000
 41
0.000000
 42
0.000000
  0
VERTEX
  5
164
100
AcDbEntity
  8
OUTLINE
100
AcDbVertex
100
AcDb2dVertex
 10
-18.200000
 20
0.000000
 40
0.000000
 41
0.000000
 42
0.000000
  0
SEQEND
  5
162
100
AcDbEntity
  0
POLYLINE
  5
165
100
AcDbEntity
  8
OUTLINE
100
AcDb2dPolyline
 66
1
 70
0
 40
0.000000
 41
0.000000
 39
0.000000
  0
VERTEX
  5
167
100
AcDbEntity
  8
OUTLINE
100
AcDbVertex
100
AcDb2dVertex
 10
0.700000
 20
9.500000
 40
0.000000
 41
0.000000
 42
0.000000
  0
VERTEX
  5
168
100
AcDbEntity
  8
OUTLINE
100
AcDbVertex
100
AcDb2dVertex
 10
-18.200000
 20
9.500000
 40
0.000000
 41
0.000000
 42
0.000000
  0
SEQEND
  5
166
100
AcDbEntity
  0
TEXT
  5
169
100
AcDbEntity
  8
OUTLINE
100
AcDbText
 10
-20.030700
 20
20.612500
 11
0.000000
 21
0.000000
 40
3.175000
 41
0.992000
 50
0.000000
  7
STANDARD
 71
0
 72
0
  1
9.5
100
AcDbText
 73
0
  0
POLYLINE
  5
16a
100
AcDbEntity
  8
OUTLINE
100
AcDb2dPolyline
 66
1
 70
0
 40
0.000000
 41
0.000000
 39
0.000000
  0
VERTEX
  5
16c
100
AcDbEntity
  8
OUTLINE
100
AcDbVertex
100
AcDb2dVertex
 10
-6.425000
 20
7.200000
 40
0.000000
 41
0.000000
 42
0.000000
  0
VERTEX
  5
16d
100
AcDbEntity
  8
OUTLINE
100
AcDbVertex
100
AcDb2dVertex
 10
-5.800000
 20
3.200000
 40
0.000000
 41
0.000000
 42
0.000000
  0
VERTEX
  5
16e
100
AcDbEntity
  8
OUTLINE
100
AcDbVertex
100
AcDb2dVertex
 10
-5.175000
 20
7.200000
 40
0.000000
 41
0.000000
 42
0.000000
  0
VERTEX
  5
16f
100
AcDbEntity
  8
OUTLINE
100
AcDbVertex
100
AcDb2dVertex
 10
-6.425000
 20
7.200000
 40
0.000000
 41
0.000000
 42
0.000000
  0
SEQEND
  5
16b
100
AcDbEntity
  0
POLYLINE
  5
170
100
AcDbEntity
  8
OUTLINE
100
AcDb2dPolyline
 66
1
 70
0
 40
0.000000
 41
0.000000
 39
0.000000
  0
VERTEX
  5
172
100
AcDbEntity
  8
OUTLINE
100
AcDbVertex
100
AcDb2dVertex
 10
-5.800000
 20
10.731300
 40
0.000000
 41
0.000000
 42
0.000000
  0
VERTEX
  5
173
100
AcDbEntity
  8
OUTLINE
100
AcDbVertex
100
AcDb2dVertex
 10
-5.800000
 20
3.200000
 40
0.000000
 41
0.000000
 42
0.000000
  0
SEQEND
  5
171
100
AcDbEntity
  0
POLYLINE
  5
174
100
AcDbEntity
  8
OUTLINE
100
AcDb2dPolyline
 66
1
 70
0
 40
0.000000
 41
0.000000
 39
0.000000
  0
VERTEX
  5
176
100
AcDbEntity
  8
OUTLINE
100
AcDbVertex
100
AcDb2dVertex
 10
-5.175000
 20
-4.000000
 40
0.000000
 41
0.000000
 42
0.000000
  0
VERTEX
  5
177
100
AcDbEntity
  8
OUTLINE
100
AcDbVertex
100
AcDb2dVertex
 10
-5.800000
 20
0.000000
 40
0.000000
 41
0.000000
 42
0.000000
  0
VERTEX
  5
178
100
AcDbEntity
  8
OUTLINE
100
AcDbVertex
100
AcDb2dVertex
 10
-6.425000
 20
-4.000000
 40
0.000000
 41
0.000000
 42
0.000000
  0
VERTEX
  5
179
100
AcDbEntity
  8
OUTLINE
100
AcDbVertex
100
AcDb2dVertex
 10
-5.175000
 20
-4.000000
 40
0.000000
 41
0.000000
 42
0.000000
  0
SEQEND
  5
175
100
AcDbEntity
  0
POLYLINE
  5
17a
100
AcDbEntity
  8
OUTLINE
100
AcDb2dPolyline
 66
1
 70
0
 40
0.000000
 41
0.000000
 39
0.000000
  0
VERTEX
  5
17c
100
AcDbEntity
  8
OUTLINE
100
AcDbVertex
100
AcDb2dVertex
 10
-5.800000
 20
-8.000000
 40
0.000000
 41
0.000000
 42
0.000000
  0
VERTEX
  5
17d
100
AcDbEntity
  8
OUTLINE
100
AcDbVertex
100
AcDb2dVertex
 10
-5.800000
 20
0.000000
 40
0.000000
 41
0.000000
 42
0.000000
  0
SEQEND
  5
17b
100
AcDbEntity
  0
POLYLINE
  5
17e
100
AcDbEntity
  8
OUTLINE
100
AcDb2dPolyline
 66
1
 70
0
 40
0.000000
 41
0.000000
 39
0.000000
  0
VERTEX
  5
180
100
AcDbEntity
  8
OUTLINE
100
AcDbVertex
100
AcDb2dVertex
 10
-2.500000
 20
0.000000
 40
0.000000
 41
0.000000
 42
0.000000
  0
VERTEX
  5
181
100
AcDbEntity
  8
OUTLINE
100
AcDbVertex
100
AcDb2dVertex
 10
-8.300000
 20
0.000000
 40
0.000000
 41
0.000000
 42
0.000000
  0
SEQEND
  5
17f
100
AcDbEntity
  0
POLYLINE
  5
182
100
AcDbEntity
  8
OUTLINE
100
AcDb2dPolyline
 66
1
 70
0
 40
0.000000
 41
0.000000
 39
0.000000
  0
VERTEX
  5
184
100
AcDbEntity
  8
OUTLINE
100
AcDbVertex
100
AcDb2dVertex
 10
0.700000
 20
3.200000
 40
0.000000
 41
0.000000
 42
0.000000
  0
VERTEX
  5
185
100
AcDbEntity
  8
OUTLINE
100
AcDbVertex
100
AcDb2dVertex
 10
-8.300000
 20
3.200000
 40
0.000000
 41
0.000000
 42
0.000000
  0
SEQEND
  5
183
100
AcDbEntity
  0
TEXT
  5
186
100
AcDbEntity
  8
OUTLINE
100
AcDbText
 10
-10.130700
 20
13.112500
 11
0.000000
 21
0.000000
 40
3.175000
 41
0.992000
 50
0.000000
  7
STANDARD
 71
0
 72
0
  1
3.2
100
AcDbText
 73
0
  0
POLYLINE
  5
187
100
AcDbEntity
  8
OUTLINE
100
AcDb2dPolyline
 66
1
 70
0
 40
0.000000
 41
0.000000
 39
0.000000
  0
VERTEX
  5
189
100
AcDbEntity
  8
OUTLINE
100
AcDbVertex
100
AcDb2dVertex
 10
-30.975000
 20
82.800000
 40
0.000000
 41
0.000000
 42
0.000000
  0
VERTEX
  5
18a
100
AcDbEntity
  8
OUTLINE
100
AcDbVertex
100
AcDb2dVertex
 10
-31.600000
 20
86.800000
 40
0.000000
 41
0.000000
 42
0.000000
  0
VERTEX
  5
18b
100
AcDbEntity
  8
OUTLINE
100
AcDbVertex
100
AcDb2dVertex
 10
-32.225000
 20
82.800000
 40
0.000000
 41
0.000000
 42
0.000000
  0
VERTEX
  5
18c
100
AcDbEntity
  8
OUTLINE
100
AcDbVertex
100
AcDb2dVertex
 10
-30.975000
 20
82.800000
 40
0.000000
 41
0.000000
 42
0.000000
  0
SEQEND
  5
188
100
AcDbEntity
  0
POLYLINE
  5
18d
100
AcDbEntity
  8
OUTLINE
100
AcDb2dPolyline
 66
1
 70
0
 40
0.000000
 41
0.000000
 39
0.000000
  0
VERTEX
  5
18f
100
AcDbEntity
  8
OUTLINE
100
AcDbVertex
100
AcDb2dVertex
 10
-31.600000
 20
48.468700
 40
0.000000
 41
0.000000
 42
0.000000
  0
VERTEX
  5
190
100
AcDbEntity
  8
OUTLINE
100
AcDbVertex
100
AcDb2dVertex
 10
-31.600000
 20
86.800000
 40
0.000000
 41
0.000000
 42
0.000000
  0
SEQEND
  5
18e
100
AcDbEntity
  0
POLYLINE
  5
191
100
AcDbEntity
  8
OUTLINE
100
AcDb2dPolyline
 66
1
 70
0
 40
0.000000
 41
0.000000
 39
0.000000
  0
VERTEX
  5
193
100
AcDbEntity
  8
OUTLINE
100
AcDbVertex
100
AcDb2dVertex
 10
-32.225000
 20
4.000000
 40
0.000000
 41
0.000000
 42
0.000000
  0
VERTEX
  5
194
100
AcDbEntity
  8
OUTLINE
100
AcDbVertex
100
AcDb2dVertex
 10
-31.600000
 20
0.000000
 40
0.000000
 41
0.000000
 42
0.000000
  0
VERTEX
  5
195
100
AcDbEntity
  8
OUTLINE
100
AcDbVertex
100
AcDb2dVertex
 10
-30.975000
 20
4.000000
 40
0.000000
 41
0.000000
 42
0.000000
  0
VERTEX
  5
196
100
AcDbEntity
  8
OUTLINE
100
AcDbVertex
100
AcDb2dVertex
 10
-32.225000
 20
4.000000
 40
0.000000
 41
0.000000
 42
0.000000
  0
SEQEND
  5
192
100
AcDbEntity
  0
POLYLINE
  5
197
100
AcDbEntity
  8
OUTLINE
100
AcDb2dPolyline
 66
1
 70
0
 40
0.000000
 41
0.000000
 39
0.000000
  0
VERTEX
  5
199
100
AcDbEntity
  8
OUTLINE
100
AcDbVertex
100
AcDb2dVertex
 10
-31.600000
 20
40.531300
 40
0.000000
 41
0.000000
 42
0.000000
  0
VERTEX
  5
19a
100
AcDbEntity
  8
OUTLINE
100
AcDbVertex
100
AcDb2dVertex
 10
-31.600000
 20
0.000000
 40
0.000000
 41
0.000000
 42
0.000000
  0
SEQEND
  5
198
100
AcDbEntity
  0
POLYLINE
  5
19b
100
AcDbEntity
  8
OUTLINE
100
AcDb2dPolyline
 66
1
 70
0
 40
0.000000
 41
0.000000
 39
0.000000
  0
VERTEX
  5
19d
100
AcDbEntity
  8
OUTLINE
100
AcDbVertex
100
AcDb2dVertex
 10
-2.500000
 20
0.000000
 40
0.000000
 41
0.000000
 42
0.000000
  0
VERTEX
  5
19e
100
AcDbEntity
  8
OUTLINE
100
AcDbVertex
100
AcDb2dVertex
 10
-34.100000
 20
0.000000
 40
0.000000
 41
0.000000
 42
0.000000
  0
SEQEND
  5
19c
100
AcDbEntity
  0
POLYLINE
  5
19f
100
AcDbEntity
  8
OUTLINE
100
AcDb2dPolyline
 66
1
 70
0
 40
0.000000
 41
0.000000
 39
0.000000
  0
VERTEX
  5
1a1
100
AcDbEntity
  8
OUTLINE
100
AcDbVertex
100
AcDb2dVertex
 10
0.700000
 20
86.800000
 40
0.000000
 41
0.000000
 42
0.000000
  0
VERTEX
  5
1a2
100
AcDbEntity
  8
OUTLINE
100
AcDbVertex
100
AcDb2dVertex
 10
-34.100000
 20
86.800000
 40
0.000000
 41
0.000000
 42
0.000000
  0
SEQEND
  5
1a0
100
AcDbEntity
  0
TEXT
  5
1a3
100
AcDbEntity
  8
OUTLINE
100
AcDbText
 10
-37.505500
 20
42.912500
 11
0.000000
 21
0.000000
 40
3.175000
 41
0.992000
 50
0.000000
  7
STANDARD
 71
0
 72
0
  1
86.8
100
AcDbText
 73
0
  0
POLYLINE
  5
1a4
100
AcDbEntity
  8
OUTLINE
100
AcDb2dPolyline
 66
1
 70
0
 40
0.000000
 41
0.000000
 39
0.000000
  0
VERTEX
  5
1a6
100
AcDbEntity
  8
OUTLINE
100
AcDbVertex
100
AcDb2dVertex
 10
93.035000
 20
86.825000
 40
0.152400
 41
0.152400
 42
1.000000
  0
VERTEX
  5
1a7
100
AcDbEntity
  8
OUTLINE
100
AcDbVertex
100
AcDb2dVertex
 10
89.835000
 20
86.825000
 40
0.152400
 41
0.152400
 42
1.000000
  0
VERTEX
  5
1a8
100
AcDbEntity
  8
OUTLINE
100
AcDbVertex
100
AcDb2dVertex
 10
93.035000
 20
86.825000
 40
0.152400
 41
0.152400
 42
0.000000
  0
SEQEND
  5
1a5
100
AcDbEntity
  0
POLYLINE
  5
1a9
100
AcDbEntity
  8
OUTLINE
100
AcDb2dPolyline
 66
1
 70
0
 40
0.000000
 41
0.000000
 39
0.000000
  0
VERTEX
  5
1ab
100
AcDbEntity
  8
OUTLINE
100
AcDbVertex
100
AcDb2dVertex
 10
148.415000
 20
86.825000
 40
0.152400
 41
0.152400
 42
1.000000
  0
VERTEX
  5
1ac
100
AcDbEntity
  8
OUTLINE
100
AcDbVertex
100
AcDb2dVertex
 10
145.215000
 20
86.825000
 40
0.152400
 41
0.152400
 42
1.000000
  0
VERTEX
  5
1ad
100
AcDbEntity
  8
OUTLINE
100
AcDbVertex
100
AcDb2dVertex
 10
148.415000
 20
86.825000
 40
0.152400
 41
0.152400
 42
0.000000
  0
SEQEND
  5
1aa
100
AcDbEntity
  0
POLYLINE
  5
1ae
100
AcDbEntity
  8
OUTLINE
100
AcDb2dPolyline
 66
1
 70
0
 40
0.000000
 41
0.000000
 39
0.000000
  0
VERTEX
  5
1b0
100
AcDbEntity
  8
OUTLINE
100
AcDbVertex
100
AcDb2dVertex
 10
148.415000
 20
80.475000
 40
0.152400
 41
0.152400
 42
1.000000
  0
VERTEX
  5
1b1
100
AcDbEntity
  8
OUTLINE
100
AcDbVertex
100
AcDb2dVertex
 10
145.215000
 20
80.475000
 40
0.152400
 41
0.152400
 42
1.000000
  0
VERTEX
  5
1b2
100
AcDbEntity
  8
OUTLINE
100
AcDbVertex
100
AcDb2dVertex
 10
148.415000
 20
80.475000
 40
0.152400
 41
0.152400
 42
0.000000
  0
SEQEND
  5
1af
100
AcDbEntity
  0
POLYLINE
  5
1b3
100
AcDbEntity
  8
OUTLINE
100
AcDb2dPolyline
 66
1
 70
0
 40
0.000000
 41
0.000000
 39
0.000000
  0
VERTEX
  5
1b5
100
AcDbEntity
  8
OUTLINE
100
AcDbVertex
100
AcDb2dVertex
 10
4.775000
 20
86.825000
 40
0.152400
 41
0.152400
 42
1.000000
  0
VERTEX
  5
1b6
100
AcDbEntity
  8
OUTLINE
100
AcDbVertex
100
AcDb2dVertex
 10
1.575000
 20
86.825000
 40
0.152400
 41
0.152400
 42
1.000000
  0
VERTEX
  5
1b7
100
AcDbEntity
  8
OUTLINE
100
AcDbVertex
100
AcDb2dVertex
 10
4.775000
 20
86.825000
 40
0.152400
 41
0.152400
 42
0.000000
  0
SEQEND
  5
1b4
100
AcDbEntity
  0
POLYLINE
  5
1b8
100
AcDbEntity
  8
OUTLINE
100
AcDb2dPolyline
 66
1
 70
0
 40
0.000000
 41
0.000000
 39
0.000000
  0
VERTEX
  5
1ba
100
AcDbEntity
  8
OUTLINE
100
AcDbVertex
100
AcDb2dVertex
 10
4.775000
 20
80.475000
 40
0.152400
 41
0.152400
 42
1.000000
  0
VERTEX
  5
1bb
100
AcDbEntity
  8
OUTLINE
100
AcDbVertex
100
AcDb2dVertex
 10
1.575000
 20
80.475000
 40
0.152400
 41
0.152400
 42
1.000000
  0
VERTEX
  5
1bc
100
AcDbEntity
  8
OUTLINE
100
AcDbVertex
100
AcDb2dVertex
 10
4.775000
 20
80.475000
 40
0.152400
 41
0.152400
 42
0.000000
  0
SEQEND
  5
1b9
100
AcDbEntity
  0
POLYLINE
  5
1bd
100
AcDbEntity
  8
OUTLINE
100
AcDb2dPolyline
 66
1
 70
0
 40
0.000000
 41
0.000000
 39
0.000000
  0
VERTEX
  5
1bf
100
AcDbEntity
  8
OUTLINE
100
AcDbVertex
100
AcDb2dVertex
 10
148.415000
 20
9.525000
 40
0.152400
 41
0.152400
 42
1.000000
  0
VERTEX
  5
1c0
100
AcDbEntity
  8
OUTLINE
100
AcDbVertex
100
AcDb2dVertex
 10
145.215000
 20
9.525000
 40
0.152400
 41
0.152400
 42
1.000000
  0
VERTEX
  5
1c1
100
AcDbEntity
  8
OUTLINE
100
AcDbVertex
100
AcDb2dVertex
 10
148.415000
 20
9.525000
 40
0.152400
 41
0.152400
 42
0.000000
  0
SEQEND
  5
1be
100
AcDbEntity
  0
POLYLINE
  5
1c2
100
AcDbEntity
  8
OUTLINE
100
AcDb2dPolyline
 66
1
 70
0
 40
0.000000
 41
0.000000
 39
0.000000
  0
VERTEX
  5
1c4
100
AcDbEntity
  8
OUTLINE
100
AcDbVertex
100
AcDb2dVertex
 10
148.415000
 20
3.175000
 40
0.152400
 41
0.152400
 42
1.000000
  0
VERTEX
  5
1c5
100
AcDbEntity
  8
OUTLINE
100
AcDbVertex
100
AcDb2dVertex
 10
145.215000
 20
3.175000
 40
0.152400
 41
0.152400
 42
1.000000
  0
VERTEX
  5
1c6
100
AcDbEntity
  8
OUTLINE
100
AcDbVertex
100
AcDb2dVertex
 10
148.415000
 20
3.175000
 40
0.152400
 41
0.152400
 42
0.000000
  0
SEQEND
  5
1c3
100
AcDbEntity
  0
POLYLINE
  5
1c7
100
AcDbEntity
  8
OUTLINE
100
AcDb2dPolyline
 66
1
 70
0
 40
0.000000
 41
0.000000
 39
0.000000
  0
VERTEX
  5
1c9
100
AcDbEntity
  8
OUTLINE
100
AcDbVertex
100
AcDb2dVertex
 10
76.595000
 20
3.175000
 40
0.152400
 41
0.152400
 42
1.000000
  0
VERTEX
  5
1ca
100
AcDbEntity
  8
OUTLINE
100
AcDbVertex
100
AcDb2dVertex
 10
73.395000
 20
3.175000
 40
0.152400
 41
0.152400
 42
1.000000
  0
VERTEX
  5
1cb
100
AcDbEntity
  8
OUTLINE
100
AcDbVertex
100
AcDb2dVertex
 10
76.595000
 20
3.175000
 40
0.152400
 41
0.152400
 42
0.000000
  0
SEQEND
  5
1c8
100
AcDbEntity
  0
POLYLINE
  5
1cc
100
AcDbEntity
  8
OUTLINE
100
AcDb2dPolyline
 66
1
 70
0
 40
0.000000
 41
0.000000
 39
0.000000
  0
VERTEX
  5
1ce
100
AcDbEntity
  8
OUTLINE
100
AcDbVertex
100
AcDb2dVertex
 10
4.775000
 20
9.525000
 40
0.152400
 41
0.152400
 42
1.000000
  0
VERTEX
  5
1cf
100
AcDbEntity
  8
OUTLINE
100
AcDbVertex
100
AcDb2dVertex
 10
1.575000
 20
9.525000
 40
0.152400
 41
0.152400
 42
1.000000
  0
VERTEX
  5
1d0
100
AcDbEntity
  8
OUTLINE
100
AcDbVertex
100
AcDb2dVertex
 10
4.775000
 20
9.525000
 40
0.152400
 41
0.152400
 42
0.000000
  0
SEQEND
  5
1cd
100
AcDbEntity
  0
POLYLINE
  5
1d1
100
AcDbEntity
  8
OUTLINE
100
AcDb2dPolyline
 66
1
 70
0
 40
0.000000
 41
0.000000
 39
0.000000
  0
VERTEX
  5
1d3
100
AcDbEntity
  8
OUTLINE
100
AcDbVertex
100
AcDb2dVertex
 10
4.775000
 20
3.175000
 40
0.152400
 41
0.152400
 42
1.000000
  0
VERTEX
  5
1d4
100
AcDbEntity
  8
OUTLINE
100
AcDbVertex
100
AcDb2dVertex
 10
1.575000
 20
3.175000
 40
0.152400
 41
0.152400
 42
1.000000
  0
VERTEX
  5
1d5
100
AcDbEntity
  8
OUTLINE
100
AcDbVertex
100
AcDb2dVertex
 10
4.775000
 20
3.175000
 40
0.152400
 41
0.152400
 42
0.000000
  0
SEQEND
  5
1d2
100
AcDbEntity
  0
POLYLINE
  5
1d6
100
AcDbEntity
  8
OUTLINE
100
AcDb2dPolyline
 66
1
 70
0
 40
0.000000
 41
0.000000
 39
0.000000
  0
VERTEX
  5
1d8
100
AcDbEntity
  8
OUTLINE
100
AcDbVertex
100
AcDb2dVertex
 10
2.500000
 20
0.000000
 40
0.152400
 41
0.152400
 42
0.000000
  0
VERTEX
  5
1d9
100
AcDbEntity
  8
OUTLINE
100
AcDbVertex
100
AcDb2dVertex
 10
147.500000
 20
0.000000
 40
0.152400
 41
0.152400
 42
0.414214
  0
VERTEX
  5
1da
100
AcDbEntity
  8
OUTLINE
100
AcDbVertex
100
AcDb2dVertex
 10
150.000000
 20
2.500000
 40
0.152400
 41
0.152400
 42
0.000000
  0
VERTEX
  5
1db
100
AcDbEntity
  8
OUTLINE
100
AcDbVertex
100
AcDb2dVertex
 10
150.000000
 20
87.500000
 40
0.152400
 41
0.152400
 42
0.414214
  0
VERTEX
  5
1dc
100
AcDbEntity
  8
OUTLINE
100
AcDbVertex
100
AcDb2dVertex
 10
147.500000
 20
90.000000
 40
0.152400
 41
0.152400
 42
0.000000
  0
VERTEX
  5
1dd
100
AcDbEntity
  8
OUTLINE
100
AcDbVertex
100
AcDb2dVertex
 10
2.500000
 20
90.000000
 40
0.152400
 41
0.152400
 42
0.414214
  0
VERTEX
  5
1de
100
AcDbEntity
  8
OUTLINE
100
AcDbVertex
100
AcDb2dVertex
 10
0.000000
 20
87.500000
 40
0.152400
 41
0.152400
 42
0.000000
  0
VERTEX
  5
1df
100
AcDbEntity
  8
OUTLINE
100
AcDbVertex
100
AcDb2dVertex
 10
0.000000
 20
2.500000
 40
0.152400
 41
0.152400
 42
0.414214
  0
VERTEX
  5
1e0
100
AcDbEntity
  8
OUTLINE
100
AcDbVertex
100
AcDb2dVertex
 10
2.500000
 20
0.000000
 40
0.152400
 41
0.152400
 42
0.000000
  0
SEQEND
  5
1d7
100
AcDbEntity
  0
ENDSEC
  0
SECTION
  2
OBJECTS
  0
DICTIONARY
  5
12
100
AcDbDictionary
  3
ACAD_GROUP
350
13
  3
ACAD_MLINESTYLE
350
14
  0
DICTIONARY
  5
13
100
AcDbDictionary
  0
DICTIONARY
  5
14
100
AcDbDictionary
  0
ENDSEC
  0
EOF
