G04 ================== begin FILE IDENTIFICATION RECORD ==================*
G04 Layout Name:  MK60_88E6071_TEST_V10A.brd*
G04 Film Name:    Drill_Legend*
G04 File Format:  Gerber RS274X*
G04 File Origin:  Cadence Allegro 16.6-2015-S088*
G04 Origin Date:  Wed Jul 05 17:46:53 2017*
G04 *
G04 Layer:  BOARD GEOMETRY/OUTLINE*
G04 Layer:  MANUFACTURING/NCDRILL_LEGEND*
G04 Layer:  BOARD GEOMETRY/DIMENSION*
G04 Layer:  MANUFACTURING/NCDRILL_FIGURE*
G04 Layer:  MANUFACTURING/NCLEGEND-1-2*
G04 *
G04 Offset:    (0.0000 0.0000)*
G04 Mirror:    No*
G04 Mode:      Positive*
G04 Rotation:  0*
G04 FullContactRelief:  No*
G04 UndefLineWidth:     0.1524*
G04 ================== end FILE IDENTIFICATION RECORD ====================*
%FSLAX55Y55*MOMM*%
%IR0*IPPOS*OFA0.00000B0.00000*MIA0B0*SFA1.00000B1.00000*%
%AMMACRO20*
1,1,.1524,.21042,-.508*
20,1,.1524,.21042,-.508,-.21042,-.508,0.0*
1,1,.1524,-.21042,-.508*
20,1,.1524,-.21042,-.508,-.508,-.21042,0.0*
1,1,.1524,-.508,-.21042*
20,1,.1524,-.508,-.21042,-.508,.21042,0.0*
1,1,.1524,-.508,.21042*
20,1,.1524,-.508,.21042,-.21042,.508,0.0*
1,1,.1524,-.21042,.508*
20,1,.1524,-.21042,.508,.21042,.508,0.0*
1,1,.1524,.21042,.508*
20,1,.1524,.21042,.508,.508,.21042,0.0*
1,1,.1524,.508,.21042*
20,1,.1524,.508,.21042,.508,-.21042,0.0*
1,1,.1524,.508,-.21042*
20,1,.1524,.508,-.21042,.21042,-.508,0.0*
1,1,.1524,.21042,-.508*
%
%ADD20MACRO20*%
%AMMACRO12*
1,1,.1524,.85,0.0*
20,1,.1524,.85,0.0,0.0,-.85,0.0*
1,1,.1524,0.0,-.85*
20,1,.1524,0.0,-.85,-.85,0.0,0.0*
1,1,.1524,-.85,0.0*
20,1,.1524,-.85,0.0,0.0,.85,0.0*
1,1,.1524,0.0,.85*
20,1,.1524,0.0,.85,.85,0.0,0.0*
1,1,.1524,.85,0.0*
%
%ADD12MACRO12*%
%AMMACRO11*
1,1,.1524,.1524,0.0*
20,1,.1524,.1524,0.0,-.1524,0.0,0.0*
1,1,.1524,-.1524,0.0*
1,1,.1524,0.0,.1524*
20,1,.1524,0.0,.1524,0.0,-.1524,0.0*
1,1,.1524,0.0,-.1524*
%
%ADD11MACRO11*%
%AMMACRO17*
1,1,.1524,.2286,.2286*
20,1,.1524,.2286,.2286,.2286,-.2286,0.0*
1,1,.1524,.2286,-.2286*
20,1,.1524,.2286,-.2286,-.2286,-.2286,0.0*
1,1,.1524,-.2286,-.2286*
20,1,.1524,-.2286,-.2286,-.2286,.2286,0.0*
1,1,.1524,-.2286,.2286*
20,1,.1524,-.2286,.2286,.2286,.2286,0.0*
1,1,.1524,.2286,.2286*
%
%ADD17MACRO17*%
%AMMACRO13*
1,1,.1524,-.5,-1.*
20,1,.1524,-.5,-1.,-.5,1.,0.0*
1,1,.1524,-.5,1.*
20,1,.1524,-.5,1.,-.492404,1.086824,0.0*
1,1,.1524,-.492404,1.086824*
20,1,.1524,-.492404,1.086824,-.469846,1.17101,0.0*
1,1,.1524,-.469846,1.17101*
20,1,.1524,-.469846,1.17101,-.433013,1.25,0.0*
1,1,.1524,-.433013,1.25*
20,1,.1524,-.433013,1.25,-.383022,1.321394,0.0*
1,1,.1524,-.383022,1.321394*
20,1,.1524,-.383022,1.321394,-.321394,1.383022,0.0*
1,1,.1524,-.321394,1.383022*
20,1,.1524,-.321394,1.383022,-.25,1.433013,0.0*
1,1,.1524,-.25,1.433013*
20,1,.1524,-.25,1.433013,-.17101,1.469846,0.0*
1,1,.1524,-.17101,1.469846*
20,1,.1524,-.17101,1.469846,-.086824,1.492404,0.0*
1,1,.1524,-.086824,1.492404*
20,1,.1524,-.086824,1.492404,0.0,1.5,0.0*
1,1,.1524,0.0,1.5*
20,1,.1524,0.0,1.5,.086824,1.492404,0.0*
1,1,.1524,.086824,1.492404*
20,1,.1524,.086824,1.492404,.17101,1.469846,0.0*
1,1,.1524,.17101,1.469846*
20,1,.1524,.17101,1.469846,.25,1.433013,0.0*
1,1,.1524,.25,1.433013*
20,1,.1524,.25,1.433013,.321394,1.383022,0.0*
1,1,.1524,.321394,1.383022*
20,1,.1524,.321394,1.383022,.383022,1.321394,0.0*
1,1,.1524,.383022,1.321394*
20,1,.1524,.383022,1.321394,.433013,1.25,0.0*
1,1,.1524,.433013,1.25*
20,1,.1524,.433013,1.25,.469846,1.17101,0.0*
1,1,.1524,.469846,1.17101*
20,1,.1524,.469846,1.17101,.492404,1.086824,0.0*
1,1,.1524,.492404,1.086824*
20,1,.1524,.492404,1.086824,.5,1.,0.0*
1,1,.1524,.5,1.*
20,1,.1524,.5,1.,.5,-1.,0.0*
1,1,.1524,.5,-1.*
20,1,.1524,.5,-1.,.492404,-1.086824,0.0*
1,1,.1524,.492404,-1.086824*
20,1,.1524,.492404,-1.086824,.469846,-1.17101,0.0*
1,1,.1524,.469846,-1.17101*
20,1,.1524,.469846,-1.17101,.433013,-1.25,0.0*
1,1,.1524,.433013,-1.25*
20,1,.1524,.433013,-1.25,.383022,-1.321394,0.0*
1,1,.1524,.383022,-1.321394*
20,1,.1524,.383022,-1.321394,.321394,-1.383022,0.0*
1,1,.1524,.321394,-1.383022*
20,1,.1524,.321394,-1.383022,.25,-1.433013,0.0*
1,1,.1524,.25,-1.433013*
20,1,.1524,.25,-1.433013,.17101,-1.469846,0.0*
1,1,.1524,.17101,-1.469846*
20,1,.1524,.17101,-1.469846,.086824,-1.492404,0.0*
1,1,.1524,.086824,-1.492404*
20,1,.1524,.086824,-1.492404,0.0,-1.5,0.0*
1,1,.1524,0.0,-1.5*
20,1,.1524,0.0,-1.5,-.086824,-1.492404,0.0*
1,1,.1524,-.086824,-1.492404*
20,1,.1524,-.086824,-1.492404,-.17101,-1.469846,0.0*
1,1,.1524,-.17101,-1.469846*
20,1,.1524,-.17101,-1.469846,-.25,-1.433013,0.0*
1,1,.1524,-.25,-1.433013*
20,1,.1524,-.25,-1.433013,-.321394,-1.383022,0.0*
1,1,.1524,-.321394,-1.383022*
20,1,.1524,-.321394,-1.383022,-.383022,-1.321394,0.0*
1,1,.1524,-.383022,-1.321394*
20,1,.1524,-.383022,-1.321394,-.433013,-1.25,0.0*
1,1,.1524,-.433013,-1.25*
20,1,.1524,-.433013,-1.25,-.469846,-1.17101,0.0*
1,1,.1524,-.469846,-1.17101*
20,1,.1524,-.469846,-1.17101,-.492404,-1.086824,0.0*
1,1,.1524,-.492404,-1.086824*
20,1,.1524,-.492404,-1.086824,-.5,-1.,0.0*
1,1,.1524,-.5,-1.*
1,1,.1524,-.25,-.25*
20,1,.1524,-.25,-.25,-.3167,-.2417,0.0*
1,1,.1524,-.3167,-.2417*
20,1,.1524,-.3167,-.2417,-.375,-.2083,0.0*
1,1,.1524,-.375,-.2083*
20,1,.1524,-.375,-.2083,-.425,-.1583,0.0*
1,1,.1524,-.425,-.1583*
20,1,.1524,-.425,-.1583,-.4583,-.1,0.0*
1,1,.1524,-.4583,-.1*
20,1,.1524,-.4583,-.1,-.475,-.0333,0.0*
1,1,.1524,-.475,-.0333*
20,1,.1524,-.475,-.0333,-.475,.0333,0.0*
1,1,.1524,-.475,.0333*
20,1,.1524,-.475,.0333,-.4583,.1,0.0*
1,1,.1524,-.4583,.1*
20,1,.1524,-.4583,.1,-.425,.1583,0.0*
1,1,.1524,-.425,.1583*
20,1,.1524,-.425,.1583,-.375,.2083,0.0*
1,1,.1524,-.375,.2083*
20,1,.1524,-.375,.2083,-.3167,.2417,0.0*
1,1,.1524,-.3167,.2417*
20,1,.1524,-.3167,.2417,-.25,.25,0.0*
1,1,.1524,-.25,.25*
20,1,.1524,-.25,.25,-.1833,.2417,0.0*
1,1,.1524,-.1833,.2417*
20,1,.1524,-.1833,.2417,-.125,.2083,0.0*
1,1,.1524,-.125,.2083*
20,1,.1524,-.125,.2083,-.075,.1583,0.0*
1,1,.1524,-.075,.1583*
20,1,.1524,-.075,.1583,-.0417,.1,0.0*
1,1,.1524,-.0417,.1*
20,1,.1524,-.0417,.1,-.025,.0333,0.0*
1,1,.1524,-.025,.0333*
20,1,.1524,-.025,.0333,-.025,-.0333,0.0*
1,1,.1524,-.025,-.0333*
20,1,.1524,-.025,-.0333,-.0417,-.1,0.0*
1,1,.1524,-.0417,-.1*
20,1,.1524,-.0417,-.1,-.075,-.1583,0.0*
1,1,.1524,-.075,-.1583*
20,1,.1524,-.075,-.1583,-.125,-.2083,0.0*
1,1,.1524,-.125,-.2083*
20,1,.1524,-.125,-.2083,-.1833,-.2417,0.0*
1,1,.1524,-.1833,-.2417*
20,1,.1524,-.1833,-.2417,-.25,-.25,0.0*
1,1,.1524,-.25,-.25*
1,1,.1524,.0418,-.25*
20,1,.1524,.0418,-.25,.2501,.25,0.0*
1,1,.1524,.2501,.25*
20,1,.1524,.2501,.25,.4584,-.25,0.0*
1,1,.1524,.4584,-.25*
1,1,.1524,.3834,-.075*
20,1,.1524,.3834,-.075,.1168,-.075,0.0*
1,1,.1524,.1168,-.075*
%
%ADD13MACRO13*%
%AMMACRO16*
1,1,.1524,-1.,.5*
20,1,.1524,-1.,.5,1.,.5,0.0*
1,1,.1524,1.,.5*
20,1,.1524,1.,.5,1.086824,.492404,0.0*
1,1,.1524,1.086824,.492404*
20,1,.1524,1.086824,.492404,1.17101,.469846,0.0*
1,1,.1524,1.17101,.469846*
20,1,.1524,1.17101,.469846,1.25,.433013,0.0*
1,1,.1524,1.25,.433013*
20,1,.1524,1.25,.433013,1.321394,.383022,0.0*
1,1,.1524,1.321394,.383022*
20,1,.1524,1.321394,.383022,1.383022,.321394,0.0*
1,1,.1524,1.383022,.321394*
20,1,.1524,1.383022,.321394,1.433013,.25,0.0*
1,1,.1524,1.433013,.25*
20,1,.1524,1.433013,.25,1.469846,.17101,0.0*
1,1,.1524,1.469846,.17101*
20,1,.1524,1.469846,.17101,1.492404,.086824,0.0*
1,1,.1524,1.492404,.086824*
20,1,.1524,1.492404,.086824,1.5,0.0,0.0*
1,1,.1524,1.5,0.0*
20,1,.1524,1.5,0.0,1.492404,-.086824,0.0*
1,1,.1524,1.492404,-.086824*
20,1,.1524,1.492404,-.086824,1.469846,-.17101,0.0*
1,1,.1524,1.469846,-.17101*
20,1,.1524,1.469846,-.17101,1.433013,-.25,0.0*
1,1,.1524,1.433013,-.25*
20,1,.1524,1.433013,-.25,1.383022,-.321394,0.0*
1,1,.1524,1.383022,-.321394*
20,1,.1524,1.383022,-.321394,1.321394,-.383022,0.0*
1,1,.1524,1.321394,-.383022*
20,1,.1524,1.321394,-.383022,1.25,-.433013,0.0*
1,1,.1524,1.25,-.433013*
20,1,.1524,1.25,-.433013,1.17101,-.469846,0.0*
1,1,.1524,1.17101,-.469846*
20,1,.1524,1.17101,-.469846,1.086824,-.492404,0.0*
1,1,.1524,1.086824,-.492404*
20,1,.1524,1.086824,-.492404,1.,-.5,0.0*
1,1,.1524,1.,-.5*
20,1,.1524,1.,-.5,-1.,-.5,0.0*
1,1,.1524,-1.,-.5*
20,1,.1524,-1.,-.5,-1.086824,-.492404,0.0*
1,1,.1524,-1.086824,-.492404*
20,1,.1524,-1.086824,-.492404,-1.17101,-.469846,0.0*
1,1,.1524,-1.17101,-.469846*
20,1,.1524,-1.17101,-.469846,-1.25,-.433013,0.0*
1,1,.1524,-1.25,-.433013*
20,1,.1524,-1.25,-.433013,-1.321394,-.383022,0.0*
1,1,.1524,-1.321394,-.383022*
20,1,.1524,-1.321394,-.383022,-1.383022,-.321394,0.0*
1,1,.1524,-1.383022,-.321394*
20,1,.1524,-1.383022,-.321394,-1.433013,-.25,0.0*
1,1,.1524,-1.433013,-.25*
20,1,.1524,-1.433013,-.25,-1.469846,-.17101,0.0*
1,1,.1524,-1.469846,-.17101*
20,1,.1524,-1.469846,-.17101,-1.492404,-.086824,0.0*
1,1,.1524,-1.492404,-.086824*
20,1,.1524,-1.492404,-.086824,-1.5,0.0,0.0*
1,1,.1524,-1.5,0.0*
20,1,.1524,-1.5,0.0,-1.492404,.086824,0.0*
1,1,.1524,-1.492404,.086824*
20,1,.1524,-1.492404,.086824,-1.469846,.17101,0.0*
1,1,.1524,-1.469846,.17101*
20,1,.1524,-1.469846,.17101,-1.433013,.25,0.0*
1,1,.1524,-1.433013,.25*
20,1,.1524,-1.433013,.25,-1.383022,.321394,0.0*
1,1,.1524,-1.383022,.321394*
20,1,.1524,-1.383022,.321394,-1.321394,.383022,0.0*
1,1,.1524,-1.321394,.383022*
20,1,.1524,-1.321394,.383022,-1.25,.433013,0.0*
1,1,.1524,-1.25,.433013*
20,1,.1524,-1.25,.433013,-1.17101,.469846,0.0*
1,1,.1524,-1.17101,.469846*
20,1,.1524,-1.17101,.469846,-1.086824,.492404,0.0*
1,1,.1524,-1.086824,.492404*
20,1,.1524,-1.086824,.492404,-1.,.5,0.0*
1,1,.1524,-1.,.5*
1,1,.1524,-.25,-.25*
20,1,.1524,-.25,-.25,-.3167,-.2417,0.0*
1,1,.1524,-.3167,-.2417*
20,1,.1524,-.3167,-.2417,-.375,-.2083,0.0*
1,1,.1524,-.375,-.2083*
20,1,.1524,-.375,-.2083,-.425,-.1583,0.0*
1,1,.1524,-.425,-.1583*
20,1,.1524,-.425,-.1583,-.4583,-.1,0.0*
1,1,.1524,-.4583,-.1*
20,1,.1524,-.4583,-.1,-.475,-.0333,0.0*
1,1,.1524,-.475,-.0333*
20,1,.1524,-.475,-.0333,-.475,.0333,0.0*
1,1,.1524,-.475,.0333*
20,1,.1524,-.475,.0333,-.4583,.1,0.0*
1,1,.1524,-.4583,.1*
20,1,.1524,-.4583,.1,-.425,.1583,0.0*
1,1,.1524,-.425,.1583*
20,1,.1524,-.425,.1583,-.375,.2083,0.0*
1,1,.1524,-.375,.2083*
20,1,.1524,-.375,.2083,-.3167,.2417,0.0*
1,1,.1524,-.3167,.2417*
20,1,.1524,-.3167,.2417,-.25,.25,0.0*
1,1,.1524,-.25,.25*
20,1,.1524,-.25,.25,-.1833,.2417,0.0*
1,1,.1524,-.1833,.2417*
20,1,.1524,-.1833,.2417,-.125,.2083,0.0*
1,1,.1524,-.125,.2083*
20,1,.1524,-.125,.2083,-.075,.1583,0.0*
1,1,.1524,-.075,.1583*
20,1,.1524,-.075,.1583,-.0417,.1,0.0*
1,1,.1524,-.0417,.1*
20,1,.1524,-.0417,.1,-.025,.0333,0.0*
1,1,.1524,-.025,.0333*
20,1,.1524,-.025,.0333,-.025,-.0333,0.0*
1,1,.1524,-.025,-.0333*
20,1,.1524,-.025,-.0333,-.0417,-.1,0.0*
1,1,.1524,-.0417,-.1*
20,1,.1524,-.0417,-.1,-.075,-.1583,0.0*
1,1,.1524,-.075,-.1583*
20,1,.1524,-.075,-.1583,-.125,-.2083,0.0*
1,1,.1524,-.125,-.2083*
20,1,.1524,-.125,-.2083,-.1833,-.2417,0.0*
1,1,.1524,-.1833,-.2417*
20,1,.1524,-.1833,-.2417,-.25,-.25,0.0*
1,1,.1524,-.25,-.25*
1,1,.1524,.0418,-.25*
20,1,.1524,.0418,-.25,.2501,.25,0.0*
1,1,.1524,.2501,.25*
20,1,.1524,.2501,.25,.4584,-.25,0.0*
1,1,.1524,.4584,-.25*
1,1,.1524,.3834,-.075*
20,1,.1524,.3834,-.075,.1168,-.075,0.0*
1,1,.1524,.1168,-.075*
%
%ADD16MACRO16*%
%AMMACRO18*
1,1,.1524,0.0,1.651*
20,1,.1524,0.0,1.651,1.651,-1.651,0.0*
1,1,.1524,1.651,-1.651*
20,1,.1524,1.651,-1.651,-1.651,-1.651,0.0*
1,1,.1524,-1.651,-1.651*
20,1,.1524,-1.651,-1.651,0.0,1.651,0.0*
1,1,.1524,0.0,1.651*
%
%ADD18MACRO18*%
%AMMACRO14*
1,1,.1524,0.0,.5004*
20,1,.1524,0.0,.5004,-.433359,.2502,0.0*
1,1,.1524,-.433359,.2502*
20,1,.1524,-.433359,.2502,-.433359,-.2502,0.0*
1,1,.1524,-.433359,-.2502*
20,1,.1524,-.433359,-.2502,0.0,-.5004,0.0*
1,1,.1524,0.0,-.5004*
20,1,.1524,0.0,-.5004,.433359,-.2502,0.0*
1,1,.1524,.433359,-.2502*
20,1,.1524,.433359,-.2502,.433359,.2502,0.0*
1,1,.1524,.433359,.2502*
20,1,.1524,.433359,.2502,0.0,.5004,0.0*
1,1,.1524,0.0,.5004*
%
%ADD14MACRO14*%
%AMMACRO15*
1,1,.1524,-1.2375,.4125*
20,1,.1524,-1.2375,.4125,-1.2187,.62739,0.0*
1,1,.1524,-1.2187,.62739*
20,1,.1524,-1.2187,.62739,-1.16287,.83575,0.0*
1,1,.1524,-1.16287,.83575*
20,1,.1524,-1.16287,.83575,-1.071706,1.03125,0.0*
1,1,.1524,-1.071706,1.03125*
20,1,.1524,-1.071706,1.03125,-.94798,1.20795,0.0*
1,1,.1524,-.94798,1.20795*
20,1,.1524,-.94798,1.20795,-.79545,1.36048,0.0*
1,1,.1524,-.79545,1.36048*
20,1,.1524,-.79545,1.36048,-.61875,1.484206,0.0*
1,1,.1524,-.61875,1.484206*
20,1,.1524,-.61875,1.484206,-.42325,1.57537,0.0*
1,1,.1524,-.42325,1.57537*
20,1,.1524,-.42325,1.57537,-.21489,1.6312,0.0*
1,1,.1524,-.21489,1.6312*
20,1,.1524,-.21489,1.6312,0.0,1.65,0.0*
1,1,.1524,0.0,1.65*
20,1,.1524,0.0,1.65,.21489,1.6312,0.0*
1,1,.1524,.21489,1.6312*
20,1,.1524,.21489,1.6312,.42325,1.57537,0.0*
1,1,.1524,.42325,1.57537*
20,1,.1524,.42325,1.57537,.61875,1.484206,0.0*
1,1,.1524,.61875,1.484206*
20,1,.1524,.61875,1.484206,.79545,1.36048,0.0*
1,1,.1524,.79545,1.36048*
20,1,.1524,.79545,1.36048,.94798,1.20795,0.0*
1,1,.1524,.94798,1.20795*
20,1,.1524,.94798,1.20795,1.071706,1.03125,0.0*
1,1,.1524,1.071706,1.03125*
20,1,.1524,1.071706,1.03125,1.16287,.83575,0.0*
1,1,.1524,1.16287,.83575*
20,1,.1524,1.16287,.83575,1.2187,.62739,0.0*
1,1,.1524,1.2187,.62739*
20,1,.1524,1.2187,.62739,1.2375,.4125,0.0*
1,1,.1524,1.2375,.4125*
20,1,.1524,1.2375,.4125,1.2375,-.4125,0.0*
1,1,.1524,1.2375,-.4125*
20,1,.1524,1.2375,-.4125,1.2187,-.62739,0.0*
1,1,.1524,1.2187,-.62739*
20,1,.1524,1.2187,-.62739,1.16287,-.83575,0.0*
1,1,.1524,1.16287,-.83575*
20,1,.1524,1.16287,-.83575,1.071706,-1.03125,0.0*
1,1,.1524,1.071706,-1.03125*
20,1,.1524,1.071706,-1.03125,.94798,-1.20795,0.0*
1,1,.1524,.94798,-1.20795*
20,1,.1524,.94798,-1.20795,.79545,-1.36048,0.0*
1,1,.1524,.79545,-1.36048*
20,1,.1524,.79545,-1.36048,.61875,-1.484206,0.0*
1,1,.1524,.61875,-1.484206*
20,1,.1524,.61875,-1.484206,.42325,-1.57537,0.0*
1,1,.1524,.42325,-1.57537*
20,1,.1524,.42325,-1.57537,.21489,-1.6312,0.0*
1,1,.1524,.21489,-1.6312*
20,1,.1524,.21489,-1.6312,0.0,-1.65,0.0*
1,1,.1524,0.0,-1.65*
20,1,.1524,0.0,-1.65,-.21489,-1.6312,0.0*
1,1,.1524,-.21489,-1.6312*
20,1,.1524,-.21489,-1.6312,-.42325,-1.57537,0.0*
1,1,.1524,-.42325,-1.57537*
20,1,.1524,-.42325,-1.57537,-.61875,-1.484206,0.0*
1,1,.1524,-.61875,-1.484206*
20,1,.1524,-.61875,-1.484206,-.79545,-1.36048,0.0*
1,1,.1524,-.79545,-1.36048*
20,1,.1524,-.79545,-1.36048,-.94798,-1.20795,0.0*
1,1,.1524,-.94798,-1.20795*
20,1,.1524,-.94798,-1.20795,-1.071706,-1.03125,0.0*
1,1,.1524,-1.071706,-1.03125*
20,1,.1524,-1.071706,-1.03125,-1.16287,-.83575,0.0*
1,1,.1524,-1.16287,-.83575*
20,1,.1524,-1.16287,-.83575,-1.2187,-.62739,0.0*
1,1,.1524,-1.2187,-.62739*
20,1,.1524,-1.2187,-.62739,-1.2375,-.4125,0.0*
1,1,.1524,-1.2375,-.4125*
20,1,.1524,-1.2375,-.4125,-1.2375,.4125,0.0*
1,1,.1524,-1.2375,.4125*
%
%ADD15MACRO15*%
%AMMACRO10*
1,1,.1524,-.42545,1.27635*
20,1,.1524,-.42545,1.27635,.42545,1.27635,0.0*
1,1,.1524,.42545,1.27635*
20,1,.1524,.42545,1.27635,.647086,1.256959,0.0*
1,1,.1524,.647086,1.256959*
20,1,.1524,.647086,1.256959,.861987,1.199377,0.0*
1,1,.1524,.861987,1.199377*
20,1,.1524,.861987,1.199377,1.063625,1.105352,0.0*
1,1,.1524,1.063625,1.105352*
20,1,.1524,1.063625,1.105352,1.245872,.977741,0.0*
1,1,.1524,1.245872,.977741*
20,1,.1524,1.245872,.977741,1.403191,.820422,0.0*
1,1,.1524,1.403191,.820422*
20,1,.1524,1.403191,.820422,1.530802,.638175,0.0*
1,1,.1524,1.530802,.638175*
20,1,.1524,1.530802,.638175,1.624827,.436537,0.0*
1,1,.1524,1.624827,.436537*
20,1,.1524,1.624827,.436537,1.682409,.221636,0.0*
1,1,.1524,1.682409,.221636*
20,1,.1524,1.682409,.221636,1.7018,0.0,0.0*
1,1,.1524,1.7018,0.0*
20,1,.1524,1.7018,0.0,1.682409,-.221636,0.0*
1,1,.1524,1.682409,-.221636*
20,1,.1524,1.682409,-.221636,1.624827,-.436537,0.0*
1,1,.1524,1.624827,-.436537*
20,1,.1524,1.624827,-.436537,1.530802,-.638175,0.0*
1,1,.1524,1.530802,-.638175*
20,1,.1524,1.530802,-.638175,1.403191,-.820422,0.0*
1,1,.1524,1.403191,-.820422*
20,1,.1524,1.403191,-.820422,1.245872,-.977741,0.0*
1,1,.1524,1.245872,-.977741*
20,1,.1524,1.245872,-.977741,1.063625,-1.105352,0.0*
1,1,.1524,1.063625,-1.105352*
20,1,.1524,1.063625,-1.105352,.861987,-1.199377,0.0*
1,1,.1524,.861987,-1.199377*
20,1,.1524,.861987,-1.199377,.647086,-1.256959,0.0*
1,1,.1524,.647086,-1.256959*
20,1,.1524,.647086,-1.256959,.42545,-1.27635,0.0*
1,1,.1524,.42545,-1.27635*
20,1,.1524,.42545,-1.27635,-.42545,-1.27635,0.0*
1,1,.1524,-.42545,-1.27635*
20,1,.1524,-.42545,-1.27635,-.647086,-1.256959,0.0*
1,1,.1524,-.647086,-1.256959*
20,1,.1524,-.647086,-1.256959,-.861987,-1.199377,0.0*
1,1,.1524,-.861987,-1.199377*
20,1,.1524,-.861987,-1.199377,-1.063625,-1.105352,0.0*
1,1,.1524,-1.063625,-1.105352*
20,1,.1524,-1.063625,-1.105352,-1.245872,-.977741,0.0*
1,1,.1524,-1.245872,-.977741*
20,1,.1524,-1.245872,-.977741,-1.403191,-.820422,0.0*
1,1,.1524,-1.403191,-.820422*
20,1,.1524,-1.403191,-.820422,-1.530802,-.638175,0.0*
1,1,.1524,-1.530802,-.638175*
20,1,.1524,-1.530802,-.638175,-1.624827,-.436537,0.0*
1,1,.1524,-1.624827,-.436537*
20,1,.1524,-1.624827,-.436537,-1.682409,-.221636,0.0*
1,1,.1524,-1.682409,-.221636*
20,1,.1524,-1.682409,-.221636,-1.7018,0.0,0.0*
1,1,.1524,-1.7018,0.0*
20,1,.1524,-1.7018,0.0,-1.682409,.221636,0.0*
1,1,.1524,-1.682409,.221636*
20,1,.1524,-1.682409,.221636,-1.624827,.436537,0.0*
1,1,.1524,-1.624827,.436537*
20,1,.1524,-1.624827,.436537,-1.530802,.638175,0.0*
1,1,.1524,-1.530802,.638175*
20,1,.1524,-1.530802,.638175,-1.403191,.820422,0.0*
1,1,.1524,-1.403191,.820422*
20,1,.1524,-1.403191,.820422,-1.245872,.977741,0.0*
1,1,.1524,-1.245872,.977741*
20,1,.1524,-1.245872,.977741,-1.063625,1.105352,0.0*
1,1,.1524,-1.063625,1.105352*
20,1,.1524,-1.063625,1.105352,-.861987,1.199377,0.0*
1,1,.1524,-.861987,1.199377*
20,1,.1524,-.861987,1.199377,-.647086,1.256959,0.0*
1,1,.1524,-.647086,1.256959*
20,1,.1524,-.647086,1.256959,-.42545,1.27635,0.0*
1,1,.1524,-.42545,1.27635*
%
%ADD10MACRO10*%
%AMMACRO19*
1,1,.1524,.4572,0.0*
20,1,.1524,.4572,0.0,.2286,.395947,0.0*
1,1,.1524,.2286,.395947*
20,1,.1524,.2286,.395947,-.2286,.395947,0.0*
1,1,.1524,-.2286,.395947*
20,1,.1524,-.2286,.395947,-.4572,0.0,0.0*
1,1,.1524,-.4572,0.0*
20,1,.1524,-.4572,0.0,-.2286,-.395947,0.0*
1,1,.1524,-.2286,-.395947*
20,1,.1524,-.2286,-.395947,.2286,-.395947,0.0*
1,1,.1524,.2286,-.395947*
20,1,.1524,.2286,-.395947,.4572,0.0,0.0*
1,1,.1524,.4572,0.0*
%
%ADD19MACRO19*%
%ADD21C,.1524*%
G75*
%LPD*%
G75*
G54D10*
X330000Y330000D03*
Y9670000D03*
X9250000Y330000D03*
Y9670000D03*
X11321730Y2277500D03*
G54D11*
X116450Y1668100D03*
Y2176100D03*
X120000Y2750000D03*
X116450Y3192100D03*
Y3700100D03*
Y4208100D03*
Y4716100D03*
Y5224100D03*
Y5732100D03*
Y6240100D03*
Y6748100D03*
Y7256100D03*
Y7764100D03*
Y8272100D03*
Y8780100D03*
X435480Y2976890D03*
X393110Y5745480D03*
Y6145480D03*
X403110Y6445480D03*
Y6845480D03*
X443110Y7515480D03*
Y7915480D03*
X433110Y8675480D03*
Y9075480D03*
X710000Y3800000D03*
Y4650000D03*
Y5520000D03*
X783110Y2295480D03*
Y2695480D03*
X835480Y2976890D03*
X850000Y3370000D03*
X780000Y3600000D03*
X850000Y4230000D03*
X780000Y4450000D03*
X850000Y5080000D03*
X780000Y5320000D03*
X940000Y3170000D03*
Y4030000D03*
X1020000Y4760000D03*
X940000Y4880000D03*
X1020000Y5390000D03*
X980000Y7450000D03*
Y7770000D03*
Y8020000D03*
X1208100Y133550D03*
Y373550D03*
X1113110Y2295480D03*
Y2695480D03*
X1150000Y2910000D03*
X1093110Y3335480D03*
Y3735480D03*
X1100000Y3910000D03*
Y5310000D03*
X1070000Y6170000D03*
Y6720000D03*
X1208100Y9903550D03*
X1350000Y2910000D03*
X1250000Y6170000D03*
Y6360000D03*
X1270000Y7450000D03*
X1310000Y7820000D03*
X1500000Y2910000D03*
X1423110Y3315480D03*
Y3715480D03*
X1449800Y4138530D03*
X1430000Y6170000D03*
X1420000Y6760000D03*
X1479520Y8236880D03*
X1716100Y133550D03*
Y373550D03*
X1670000Y2280000D03*
X1600000D03*
X1670000Y2570000D03*
X1700000Y2910000D03*
X1579800Y3928530D03*
X1608690Y4392170D03*
Y4792170D03*
X1654520Y5693110D03*
X1660000Y6030000D03*
X1653110Y6355480D03*
Y6755480D03*
X1610000Y7490000D03*
X1716100Y9903550D03*
X1830000Y2420000D03*
X1849800Y4138530D03*
X1770000Y7790000D03*
X1879520Y8236880D03*
X1955820Y2692860D03*
Y3092860D03*
Y3492860D03*
X1979800Y3928530D03*
X2008690Y4392170D03*
Y4792170D03*
X2054520Y5693110D03*
X2053110Y6395480D03*
Y6795480D03*
X1940000Y7470000D03*
X1950000Y9630000D03*
X2224100Y133550D03*
Y373550D03*
X2229800Y4138530D03*
X2210000Y7470000D03*
X2080000D03*
X2090000Y8770000D03*
Y8940000D03*
X2120000Y9630000D03*
X2224100Y9903550D03*
X2300000Y2410000D03*
X2355820Y2692860D03*
Y3092860D03*
Y3492860D03*
X2249800Y3928530D03*
X2330000Y7470000D03*
X2279520Y8236880D03*
X2260000Y8770000D03*
Y8940000D03*
X2290000Y9640000D03*
X2479800Y3708530D03*
X2408690Y4392170D03*
Y4792170D03*
X2440000Y8770000D03*
Y8940000D03*
X2460000Y9640000D03*
X2732100Y133550D03*
Y373550D03*
X2700000Y2710000D03*
X2699800Y3448530D03*
X2649800Y3928530D03*
X2629800Y4138530D03*
X2679520Y8236880D03*
X2680000Y8770000D03*
Y9640000D03*
X2732100Y9903550D03*
X2830000Y2430000D03*
X2800000Y2910000D03*
X2879800Y3708530D03*
X2820000Y4500000D03*
X2810000Y4710000D03*
Y4870000D03*
X2910000Y5000000D03*
X2765120Y5895770D03*
Y6295770D03*
Y6695770D03*
X2850000Y8770000D03*
Y9640000D03*
X3040000Y2160000D03*
X3000000Y2910000D03*
X3035480Y4146890D03*
X2980000Y4500000D03*
X3080000Y8070000D03*
Y8150000D03*
X3060000Y8770000D03*
Y8990000D03*
X3050000Y9350000D03*
X3240100Y133550D03*
Y373550D03*
X3110000Y2160000D03*
X3150000Y2910000D03*
X3099800Y3448530D03*
Y3928530D03*
X3250000Y4500000D03*
X3090000Y4980000D03*
Y9640000D03*
X3240100Y9903550D03*
X3270000Y2580000D03*
X3350000Y2910000D03*
X3399800Y3338530D03*
X3260000Y4970000D03*
X3283110Y6875480D03*
Y7275480D03*
X3396350Y9270040D03*
X3395980Y9339830D03*
X3260000Y9640000D03*
X3440000Y2420000D03*
X3450000Y2800000D03*
X3499800Y3928530D03*
X3435480Y4146890D03*
X3440000Y4970000D03*
X3470000Y7560000D03*
Y7730000D03*
X3470010Y9269260D03*
X3469580Y9342920D03*
X3520000Y9640000D03*
X3748100Y133550D03*
Y373550D03*
X3760080Y2612130D03*
Y3012130D03*
X3740000Y4960000D03*
X3654520Y5763110D03*
X3700000Y7651260D03*
X3610000Y7650000D03*
X3600000Y8050000D03*
X3740000Y8180000D03*
X3650000Y9280000D03*
X3690000Y9640000D03*
X3748100Y9903550D03*
X3799800Y3338530D03*
X3790000Y3830000D03*
X3870000Y4960000D03*
X3820000Y9280000D03*
X4030000Y2410000D03*
X3940000Y3660000D03*
X3990000Y4960000D03*
X4054520Y5763110D03*
X4060000Y5960000D03*
X3960000Y8010000D03*
X4080000Y8680000D03*
X3949780Y9096620D03*
Y9496620D03*
X4256100Y133550D03*
Y373550D03*
X4160000Y3560000D03*
X4250000Y3950000D03*
X4170000Y7070000D03*
X4200000Y8680000D03*
X4256100Y9903550D03*
X4430000Y2410000D03*
Y2730000D03*
X4350000Y3300000D03*
Y3560000D03*
X4280000Y4090000D03*
X4425000Y4305000D03*
Y4555000D03*
Y4755000D03*
Y4905000D03*
X4364520Y5763110D03*
X4293110Y6285480D03*
Y6685480D03*
X4440000Y8010000D03*
X4349780Y9096620D03*
Y9496620D03*
X4450000Y2910000D03*
X4590000Y3440000D03*
X4545000Y4235000D03*
X4550000Y4930000D03*
X4474520Y6933110D03*
Y7203110D03*
X4764100Y133550D03*
Y373550D03*
X4650000Y2910000D03*
X4690000Y3300000D03*
X4745000Y4925000D03*
X4764520Y5763110D03*
X4730000Y7430000D03*
X4726500Y8110000D03*
X4749780Y9096620D03*
Y9496620D03*
X4764100Y9903550D03*
X4900000Y2280000D03*
X4920000Y2430000D03*
Y2630000D03*
X4800000Y2910000D03*
X4795000Y4235000D03*
X4880000Y6210000D03*
X4874520Y6933110D03*
Y7203110D03*
X4860000Y7430000D03*
X4853500Y8110000D03*
X4790000Y8380000D03*
X4970000Y2280000D03*
X5090000Y2810000D03*
X5000000Y2910000D03*
X5019800Y3318530D03*
X5045000Y4235000D03*
X5100000Y4320000D03*
X5060000Y4510000D03*
X4950000Y5610000D03*
Y5790000D03*
Y5700000D03*
X5070000Y6290000D03*
X4984520Y8103110D03*
X5272100Y133550D03*
Y373550D03*
X5140000Y2420000D03*
X5260000Y5070000D03*
X5280000Y6210000D03*
X5270000Y6462680D03*
Y6389020D03*
Y6610000D03*
Y6536340D03*
X5274520Y6933110D03*
Y7203110D03*
X5144520Y8303110D03*
X5149780Y9096620D03*
Y9496620D03*
X5272100Y9903550D03*
X5322160Y2721120D03*
Y3121120D03*
X5419800Y3318530D03*
X5420000Y5060000D03*
X5300000Y5610000D03*
X5380000Y6290000D03*
X5390000Y6720000D03*
X5384520Y8103110D03*
X5470000Y2420000D03*
X5560000Y4080000D03*
X5555000Y4205000D03*
X5560000Y5180000D03*
Y5330000D03*
X5580000Y5500000D03*
X5620000Y5960000D03*
X5480000D03*
X5564520Y7823110D03*
X5544520Y8303110D03*
X5549780Y9096620D03*
Y9496620D03*
X5780100Y133550D03*
Y373550D03*
X5700000Y2420000D03*
X5722160Y2721120D03*
Y3121120D03*
X5700000Y5410000D03*
X5760000Y6140000D03*
X5784520Y8103110D03*
X5780100Y9903550D03*
X5860000Y2570000D03*
X5810000Y4200000D03*
X5856200Y5050000D03*
X5850000Y5410000D03*
X5800000Y7020000D03*
Y7420000D03*
X5964520Y7823110D03*
X5944520Y8303110D03*
X6050000Y2410000D03*
X6060000Y2760000D03*
X6100000Y2910000D03*
X5969800Y3318530D03*
X6000000Y5410000D03*
X5976000Y5764000D03*
X6288100Y133550D03*
Y373550D03*
X6200000Y2550000D03*
X6300000Y2910000D03*
X6260000Y3490000D03*
X6169800Y4198530D03*
X6280000Y4490000D03*
Y4670000D03*
X6170000Y4810000D03*
X6280000D03*
X6210000Y5890000D03*
X6144520Y7303110D03*
X6288100Y9903550D03*
X6340000Y2160000D03*
X6410000D03*
X6450000Y2910000D03*
X6369800Y3318530D03*
X6439800Y3678530D03*
X6440000Y5260000D03*
X6364520Y7823110D03*
X6570000Y2570000D03*
X6569800Y4198530D03*
X6520000Y4670000D03*
X6510000Y5080000D03*
X6530900Y5769100D03*
X6544520Y7303110D03*
X6549210Y9403390D03*
X6796100Y133550D03*
Y373550D03*
X6740000Y2420000D03*
X6650000Y2910000D03*
X6670000Y3330000D03*
X6643800Y4830000D03*
X6770000Y5370000D03*
X6740000Y5760000D03*
X6770000Y6090000D03*
X6653800Y6293800D03*
X6800000Y6290000D03*
X6760000Y7410000D03*
X6796100Y9903550D03*
X6964970Y2721120D03*
Y3121120D03*
X6839800Y3678530D03*
X6969800Y4198530D03*
X6944520Y7303110D03*
X6949210Y9403390D03*
X7080000Y2430000D03*
X7119800Y3668530D03*
X7304100Y133550D03*
Y373550D03*
X7279800Y4428530D03*
X7180000Y5480000D03*
X7170000Y5750000D03*
X7150000Y6100000D03*
X7290000Y7300000D03*
Y8060000D03*
X7280000Y8620000D03*
X7304100Y9903550D03*
X7364970Y2721120D03*
Y3121120D03*
X7369800Y4198530D03*
X7349210Y9403390D03*
X7519800Y3668530D03*
X7513920Y5445700D03*
Y5845700D03*
X7570000Y7690000D03*
X7590000Y8620000D03*
X7812100Y133550D03*
Y373550D03*
X7690000Y2420000D03*
Y2700000D03*
X7750000Y2910000D03*
X7730000Y3310000D03*
X7670000Y3510000D03*
X7750000Y3830000D03*
X7819800Y4218530D03*
X7679800Y4428530D03*
X7720000Y8060000D03*
X7749210Y9403390D03*
X7812100Y9903550D03*
X7950000Y2910000D03*
X7913920Y5445700D03*
Y5845700D03*
X7880000Y8620000D03*
X8100000Y2910000D03*
X8030000Y3310000D03*
X8010000Y3560000D03*
X8110000Y3940000D03*
X8079800Y4428530D03*
X8123800Y7193800D03*
X8149210Y9403390D03*
X8320100Y133550D03*
Y373550D03*
X8200000Y2280000D03*
X8270000D03*
Y2580000D03*
X8300000Y2910000D03*
X8330000Y3310000D03*
X8320000Y3520000D03*
Y3710000D03*
X8219800Y4218530D03*
X8320000Y7190000D03*
X8310000Y7800000D03*
Y7970000D03*
X8320100Y9903550D03*
X8440000Y2400000D03*
X8400000Y2810000D03*
X8479800Y4428530D03*
X8480000Y5380000D03*
Y5640000D03*
X8400000Y6640000D03*
X8610000Y2230000D03*
X8650000Y6370000D03*
X8660000Y7610000D03*
X8540000Y8550000D03*
X8720000Y2460000D03*
X8750000Y6890000D03*
X8860000Y2230000D03*
X8898390Y2604080D03*
Y3004080D03*
Y3404080D03*
X9010000Y8210000D03*
X8880000D03*
X8970000Y8810000D03*
X9140000Y6800000D03*
Y6920000D03*
X9130000Y8030000D03*
X9140000Y8210000D03*
X9190000Y8600000D03*
Y8810000D03*
X9446450Y1478100D03*
Y1986100D03*
Y2494100D03*
Y3002100D03*
Y3510100D03*
Y4018100D03*
Y4526100D03*
Y5034100D03*
Y5542100D03*
Y6050100D03*
Y6558100D03*
Y7066100D03*
Y7574100D03*
Y8082100D03*
Y8590100D03*
X11321730Y6722500D03*
G54D20*
X8880000Y4284000D03*
Y4538000D03*
Y4792000D03*
Y5046000D03*
Y5300000D03*
Y5554000D03*
Y5808000D03*
Y6062000D03*
Y6316000D03*
Y6570000D03*
X9134000Y4284000D03*
Y4538000D03*
Y4792000D03*
Y5046000D03*
Y5300000D03*
Y5554000D03*
Y5808000D03*
Y6062000D03*
Y6316000D03*
Y6570000D03*
X11321730Y4182500D03*
G54D21*
G01X-1540500Y4804750D02*
Y4995250D01*
X-1568950Y4957150D01*
G01Y4804750D02*
X-1512060D01*
G01X-1350000Y4995250D02*
X-1368970Y4988900D01*
X-1383190Y4973020D01*
X-1392670Y4953980D01*
X-1399780Y4928570D01*
X-1402150Y4900000D01*
X-1399780Y4871420D01*
X-1392670Y4846020D01*
X-1383190Y4826970D01*
X-1368970Y4811100D01*
X-1350000Y4804750D01*
X-1331040Y4811100D01*
X-1316810Y4826970D01*
X-1307330Y4846020D01*
X-1300220Y4871420D01*
X-1297850Y4900000D01*
X-1300220Y4928570D01*
X-1307330Y4953980D01*
X-1316810Y4973020D01*
X-1331040Y4988900D01*
X-1350000Y4995250D01*
G01X-1159500D02*
X-1178470Y4988900D01*
X-1192690Y4973020D01*
X-1202170Y4953980D01*
X-1209280Y4928570D01*
X-1211650Y4900000D01*
X-1209280Y4871420D01*
X-1202170Y4846020D01*
X-1192690Y4826970D01*
X-1178470Y4811100D01*
X-1159500Y4804750D01*
X-1140540Y4811100D01*
X-1126310Y4826970D01*
X-1116830Y4846020D01*
X-1109720Y4871420D01*
X-1107350Y4900000D01*
X-1109720Y4928570D01*
X-1116830Y4953980D01*
X-1126310Y4973020D01*
X-1140540Y4988900D01*
X-1159500Y4995250D01*
G01X-1046050Y4506970D02*
X-1029460Y4491100D01*
X-1010490Y4484750D01*
X-991530Y4491100D01*
X-974930Y4510140D01*
X-963080Y4538730D01*
X-958340Y4567300D01*
Y4602220D01*
X-963080Y4630800D01*
X-974930Y4656200D01*
X-989160Y4668900D01*
X-1005750Y4675250D01*
X-1024720Y4668900D01*
X-1038940Y4656200D01*
X-1048420Y4637150D01*
X-1053160Y4611750D01*
X-1048420Y4589530D01*
X-1036570Y4567300D01*
X-1022340Y4554600D01*
X-1005750Y4551420D01*
X-986790Y4557770D01*
X-972560Y4573650D01*
X-958340Y4602220D01*
G01X-860290Y4564120D02*
X-843700Y4586350D01*
X-829470Y4599050D01*
X-810510Y4605400D01*
X-793910Y4599050D01*
X-782060Y4586350D01*
X-772580Y4567300D01*
X-770210Y4545070D01*
X-772580Y4526020D01*
X-782060Y4506970D01*
X-796290Y4491100D01*
X-812880Y4484750D01*
X-831840Y4491100D01*
X-848440Y4510140D01*
X-857920Y4538730D01*
X-860290Y4570470D01*
X-855550Y4611750D01*
X-848440Y4633980D01*
X-836590Y4656200D01*
X-819990Y4672080D01*
X-803400Y4675250D01*
X-786800Y4668900D01*
X-774950Y4653020D01*
G01X-624750Y4478400D02*
X-629490Y4481580D01*
Y4487920D01*
X-624750Y4491100D01*
X-620010Y4487920D01*
Y4481580D01*
X-624750Y4478400D01*
G01X-438990Y4484750D02*
X-434250Y4526020D01*
X-427140Y4560950D01*
X-417660Y4592700D01*
X-405800Y4627620D01*
X-386840Y4675250D01*
X-481660D01*
G01X-582650Y102850D02*
X-568430Y80620D01*
X-549470Y67920D01*
X-528130Y64750D01*
X-509160Y67920D01*
X-490200Y83800D01*
X-478350Y102850D01*
X-475980Y121900D01*
X-480720Y144120D01*
X-497310Y160000D01*
X-513910Y166350D01*
X-535240D01*
G01X-513910D02*
X-499680Y175870D01*
X-487830Y191750D01*
X-483090Y210800D01*
X-487830Y229850D01*
X-499680Y245720D01*
X-521020Y255250D01*
X-542350Y252080D01*
X-563690Y239370D01*
G01X-340000Y58400D02*
X-344740Y61580D01*
Y67920D01*
X-340000Y71100D01*
X-335260Y67920D01*
Y61580D01*
X-340000Y58400D01*
G01X-201650Y102850D02*
X-187430Y80620D01*
X-168470Y67920D01*
X-147130Y64750D01*
X-128160Y67920D01*
X-109200Y83800D01*
X-97350Y102850D01*
X-94980Y121900D01*
X-99720Y144120D01*
X-116310Y160000D01*
X-132910Y166350D01*
X-154240D01*
G01X-132910D02*
X-118680Y175870D01*
X-106830Y191750D01*
X-102090Y210800D01*
X-106830Y229850D01*
X-118680Y245720D01*
X-140020Y255250D01*
X-161350Y252080D01*
X-182690Y239370D01*
G01X-102650Y-617150D02*
X-88430Y-639380D01*
X-69470Y-652080D01*
X-48130Y-655250D01*
X-29160Y-652080D01*
X-10200Y-636200D01*
X1650Y-617150D01*
X4020Y-598100D01*
X-720Y-575880D01*
X-17310Y-560000D01*
X-33910Y-553650D01*
X-55240D01*
G01X-33910D02*
X-19680Y-544130D01*
X-7830Y-528250D01*
X-3090Y-509200D01*
X-7830Y-490150D01*
X-19680Y-474280D01*
X-41020Y-464750D01*
X-62350Y-467920D01*
X-83690Y-480630D01*
G01X140000Y-661600D02*
X135260Y-658420D01*
Y-652080D01*
X140000Y-648900D01*
X144740Y-652080D01*
Y-658420D01*
X140000Y-661600D01*
G01X278350Y-617150D02*
X292570Y-639380D01*
X311530Y-652080D01*
X332870Y-655250D01*
X351840Y-652080D01*
X370800Y-636200D01*
X382650Y-617150D01*
X385020Y-598100D01*
X380280Y-575880D01*
X363690Y-560000D01*
X347090Y-553650D01*
X325760D01*
G01X347090D02*
X361320Y-544130D01*
X373170Y-528250D01*
X377910Y-509200D01*
X373170Y-490150D01*
X361320Y-474280D01*
X339980Y-464750D01*
X318650Y-467920D01*
X297310Y-480630D01*
G01X330000Y0D02*
X9250000D01*
G03X9580000Y330000I0J330000D01*
G01Y9670000D01*
G03X9250000Y10000000I-330000J0D01*
G01X330000D01*
G03X0Y9670000I0J-330000D01*
G01Y330000D01*
G03X330000Y0I330000J0D01*
G01X4443950Y-943030D02*
X4460540Y-958900D01*
X4479510Y-965250D01*
X4498470Y-958900D01*
X4515070Y-939860D01*
X4526920Y-911270D01*
X4531660Y-882700D01*
Y-847780D01*
X4526920Y-819200D01*
X4515070Y-793800D01*
X4500840Y-781100D01*
X4484250Y-774750D01*
X4465280Y-781100D01*
X4451060Y-793800D01*
X4441580Y-812850D01*
X4436840Y-838250D01*
X4441580Y-860470D01*
X4453430Y-882700D01*
X4467660Y-895400D01*
X4484250Y-898580D01*
X4503210Y-892230D01*
X4517440Y-876350D01*
X4531660Y-847780D01*
G01X4629710Y-806500D02*
X4643930Y-787450D01*
X4660530Y-777920D01*
X4679490Y-774750D01*
X4703200Y-781100D01*
X4719790Y-796980D01*
X4724530Y-816020D01*
X4722160Y-835080D01*
X4712680Y-850950D01*
X4665270Y-882700D01*
X4643930Y-904930D01*
X4629710Y-936680D01*
X4624970Y-965250D01*
X4724530D01*
G01X4865250Y-971600D02*
X4860510Y-968420D01*
Y-962080D01*
X4865250Y-958900D01*
X4869990Y-962080D01*
Y-968420D01*
X4865250Y-971600D01*
G01X5003600Y-936680D02*
X5017820Y-952550D01*
X5034410Y-962080D01*
X5055750Y-965250D01*
X5077090Y-958900D01*
X5093680Y-946200D01*
X5105530Y-923980D01*
X5107900Y-898580D01*
X5103160Y-873180D01*
X5091310Y-857300D01*
X5074710Y-844600D01*
X5058120Y-841430D01*
X5041530Y-844600D01*
X5020190Y-857300D01*
X5027300Y-774750D01*
X5091310D01*
G01X4753950Y-1363030D02*
X4770540Y-1378900D01*
X4789510Y-1385250D01*
X4808470Y-1378900D01*
X4825070Y-1359860D01*
X4836920Y-1331270D01*
X4841660Y-1302700D01*
Y-1267780D01*
X4836920Y-1239200D01*
X4825070Y-1213800D01*
X4810840Y-1201100D01*
X4794250Y-1194750D01*
X4775280Y-1201100D01*
X4761060Y-1213800D01*
X4751580Y-1232850D01*
X4746840Y-1258250D01*
X4751580Y-1280470D01*
X4763430Y-1302700D01*
X4777660Y-1315400D01*
X4794250Y-1318580D01*
X4813210Y-1312230D01*
X4827440Y-1296350D01*
X4841660Y-1267780D01*
G01X4932600Y-1356680D02*
X4946820Y-1372550D01*
X4963410Y-1382080D01*
X4984750Y-1385250D01*
X5006090Y-1378900D01*
X5022680Y-1366200D01*
X5034530Y-1343980D01*
X5036900Y-1318580D01*
X5032160Y-1293180D01*
X5020310Y-1277300D01*
X5003710Y-1264600D01*
X4987120Y-1261430D01*
X4970530Y-1264600D01*
X4949190Y-1277300D01*
X4956300Y-1194750D01*
X5020310D01*
G01X5175250Y-1391600D02*
X5170510Y-1388420D01*
Y-1382080D01*
X5175250Y-1378900D01*
X5179990Y-1382080D01*
Y-1388420D01*
X5175250Y-1391600D01*
G01X5365750Y-1385250D02*
X5382340Y-1382080D01*
X5401310Y-1372550D01*
X5413160Y-1356680D01*
X5417900Y-1334450D01*
X5413160Y-1312230D01*
X5398940Y-1293180D01*
X5377600Y-1283650D01*
X5353900D01*
X5339670Y-1277300D01*
X5327820Y-1261430D01*
X5323080Y-1239200D01*
X5330190Y-1216980D01*
X5346780Y-1201100D01*
X5365750Y-1194750D01*
X5384710Y-1201100D01*
X5401310Y-1216980D01*
X5408420Y-1239200D01*
X5403680Y-1261430D01*
X5391830Y-1277300D01*
X5377600Y-1283650D01*
X5353900D01*
X5332560Y-1293180D01*
X5318340Y-1312230D01*
X5313600Y-1334450D01*
X5318340Y-1356680D01*
X5330190Y-1372550D01*
X5349160Y-1382080D01*
X5365750Y-1385250D01*
G01X10459520Y7198750D02*
Y7516250D01*
X10609140D01*
G01X10554010Y7362800D02*
X10459520D01*
G01X10802050Y7516250D02*
X10896530D01*
G01X10849290D02*
Y7198750D01*
G01X10802050D02*
X10896530D01*
G01X11187870Y7357500D02*
X11266620D01*
Y7262250D01*
X11242990Y7230490D01*
X11215430Y7209330D01*
X11176060Y7198750D01*
X11136690Y7209330D01*
X11109130Y7230490D01*
X11085510Y7262250D01*
X11069760Y7299290D01*
X11061880Y7341620D01*
Y7378670D01*
X11069760Y7410410D01*
X11085510Y7447460D01*
X11109130Y7479210D01*
X11132750Y7500370D01*
X11164250Y7516250D01*
X11191810D01*
X11223300Y7505670D01*
X11246930Y7484500D01*
G01X11392600Y7516250D02*
Y7288710D01*
X11408340Y7241070D01*
X11439840Y7209330D01*
X11479210Y7198750D01*
X11518580Y7209330D01*
X11550080Y7241070D01*
X11565820Y7288710D01*
Y7516250D01*
G01X11715430Y7198750D02*
Y7516250D01*
X11813850D01*
X11845350Y7500370D01*
X11865040Y7479210D01*
X11872910Y7436870D01*
X11865040Y7394540D01*
X11841410Y7368090D01*
X11813850Y7352200D01*
X11715430D01*
G01X11813850D02*
X11872910Y7198750D01*
G01X12187870D02*
X12030390D01*
Y7516250D01*
X12187870D01*
G01X12124880Y7362800D02*
X12030390D01*
G01X11971330Y7833750D02*
X12069760Y8151250D01*
X12168190Y7833750D01*
G01X12132750Y7944870D02*
X12006760D01*
G01X12305980Y8151250D02*
Y7833750D01*
X12463460D01*
G01X12620940Y8151250D02*
Y7833750D01*
X12778420D01*
G01X13242990Y8151250D02*
Y7923710D01*
X13258730Y7876070D01*
X13290230Y7844330D01*
X13329600Y7833750D01*
X13368970Y7844330D01*
X13400470Y7876070D01*
X13416210Y7923710D01*
Y8151250D01*
G01X13554010Y7833750D02*
Y8151250D01*
X13735110Y7833750D01*
Y8151250D01*
G01X13912280D02*
X14006760D01*
G01X13959520D02*
Y7833750D01*
G01X13912280D02*
X14006760D01*
G01X14274480Y8151250D02*
Y7833750D01*
G01X14183930Y8151250D02*
X14365030D01*
G01X14506760Y7876070D02*
X14538260Y7849620D01*
X14573690Y7833750D01*
X14605190D01*
X14636680Y7849620D01*
X14660310Y7876070D01*
X14672120Y7913130D01*
X14664250Y7950160D01*
X14644560Y7981910D01*
X14609120Y8003090D01*
X14561880Y8013670D01*
X14534320Y8034830D01*
X14522510Y8071870D01*
X14530390Y8108920D01*
X14550070Y8135370D01*
X14577630Y8151250D01*
X14605190D01*
X14632750Y8140670D01*
X14656370Y8114210D01*
G01X15120930Y7833750D02*
X15219360Y8151250D01*
X15317790Y7833750D01*
G01X15282350Y7944870D02*
X15156360D01*
G01X15455580Y7833750D02*
Y8151250D01*
X15554000D01*
X15585500Y8135370D01*
X15605190Y8114210D01*
X15613060Y8071870D01*
X15605190Y8029540D01*
X15581560Y8003090D01*
X15554000Y7987200D01*
X15455580D01*
G01X15554000D02*
X15613060Y7833750D01*
G01X15928020D02*
X15770540D01*
Y8151250D01*
X15928020D01*
G01X15865030Y7997800D02*
X15770540D01*
G01X16431960Y8151250D02*
X16526440D01*
G01X16479200D02*
Y7833750D01*
G01X16431960D02*
X16526440D01*
G01X16703610D02*
Y8151250D01*
X16884710Y7833750D01*
Y8151250D01*
G01X17321710Y7833750D02*
Y8151250D01*
X17424080Y7886670D01*
X17526450Y8151250D01*
Y7833750D01*
G01X17691800Y8151250D02*
X17786280D01*
G01X17739040D02*
Y7833750D01*
G01X17691800D02*
X17786280D01*
G01X17975260Y8151250D02*
Y7833750D01*
X18132740D01*
G01X18290220Y8151250D02*
Y7833750D01*
X18447700D01*
G01X18636680Y8151250D02*
X18731160D01*
G01X18683920D02*
Y7833750D01*
G01X18636680D02*
X18731160D01*
G01X18896510D02*
Y8151250D01*
X18998880Y7886670D01*
X19101250Y8151250D01*
Y7833750D01*
G01X19392580D02*
X19235100D01*
Y8151250D01*
X19392580D01*
G01X19329590Y7997800D02*
X19235100D01*
G01X19628800Y8151250D02*
Y7833750D01*
G01X19538250Y8151250D02*
X19719350D01*
G01X20022500Y7833750D02*
X19865020D01*
Y8151250D01*
X20022500D01*
G01X19959510Y7997800D02*
X19865020D01*
G01X20179980Y7833750D02*
Y8151250D01*
X20278400D01*
X20309900Y8135370D01*
X20329590Y8114210D01*
X20337460Y8071870D01*
X20329590Y8029540D01*
X20305960Y8003090D01*
X20278400Y7987200D01*
X20179980D01*
G01X20278400D02*
X20337460Y7833750D01*
G01X20491000Y7876070D02*
X20522500Y7849620D01*
X20557930Y7833750D01*
X20589430D01*
X20620920Y7849620D01*
X20644550Y7876070D01*
X20656360Y7913130D01*
X20648490Y7950160D01*
X20628800Y7981910D01*
X20593360Y8003090D01*
X20546120Y8013670D01*
X20518560Y8034830D01*
X20506750Y8071870D01*
X20514630Y8108920D01*
X20534310Y8135370D01*
X20561870Y8151250D01*
X20589430D01*
X20616990Y8140670D01*
X20640610Y8114210D01*
G01X12298110Y8483750D02*
Y8801250D01*
X12376840D01*
X12408340Y8785370D01*
X12431960Y8764210D01*
X12451650Y8732460D01*
X12467400Y8695410D01*
X12471330Y8642500D01*
X12467400Y8589580D01*
X12451650Y8552540D01*
X12431960Y8520780D01*
X12408340Y8499620D01*
X12376840Y8483750D01*
X12298110D01*
G01X12620940D02*
Y8801250D01*
X12719360D01*
X12750860Y8785370D01*
X12770550Y8764210D01*
X12778420Y8721870D01*
X12770550Y8679540D01*
X12746920Y8653090D01*
X12719360Y8637200D01*
X12620940D01*
G01X12719360D02*
X12778420Y8483750D01*
G01X12967400Y8801250D02*
X13061880D01*
G01X13014640D02*
Y8483750D01*
G01X12967400D02*
X13061880D01*
G01X13250860Y8801250D02*
Y8483750D01*
X13408340D01*
G01X13565820Y8801250D02*
Y8483750D01*
X13723300D01*
G01X14361090Y8774790D02*
X14337470Y8790670D01*
X14309920Y8801250D01*
X14278420D01*
X14242980Y8785370D01*
X14215430Y8758920D01*
X14195740Y8727160D01*
X14179990Y8674250D01*
X14176050Y8626620D01*
X14183930Y8579000D01*
X14195740Y8547250D01*
X14219360Y8515490D01*
X14246920Y8494330D01*
X14274480Y8483750D01*
X14302040D01*
X14329600Y8494330D01*
X14353220Y8510200D01*
X14372910Y8531360D01*
G01X14506760Y8483750D02*
Y8801250D01*
G01X14672120D02*
Y8483750D01*
G01Y8642500D02*
X14506760D01*
G01X14805970Y8483750D02*
X14904400Y8801250D01*
X15002830Y8483750D01*
G01X14967390Y8594870D02*
X14841400D01*
G01X15140620Y8483750D02*
Y8801250D01*
X15239040D01*
X15270540Y8785370D01*
X15290230Y8764210D01*
X15298100Y8721870D01*
X15290230Y8679540D01*
X15266600Y8653090D01*
X15239040Y8637200D01*
X15140620D01*
G01X15239040D02*
X15298100Y8483750D01*
G01X15534320Y8801250D02*
Y8483750D01*
G01X15443770Y8801250D02*
X15624870D01*
G01X15849280Y8473170D02*
X15841400Y8478460D01*
Y8489040D01*
X15849280Y8494330D01*
X15857160Y8489040D01*
Y8478460D01*
X15849280Y8473170D01*
G01Y8616030D02*
X15841400Y8621330D01*
Y8631910D01*
X15849280Y8637200D01*
X15857160Y8631910D01*
Y8621330D01*
X15849280Y8616030D01*
G01X16479200Y8801250D02*
Y8483750D01*
G01X16388650Y8801250D02*
X16569750D01*
G01X16794160Y8483750D02*
X16762660Y8489040D01*
X16735110Y8510200D01*
X16711480Y8541960D01*
X16695730Y8579000D01*
X16687860Y8621330D01*
Y8663670D01*
X16695730Y8706000D01*
X16711480Y8743040D01*
X16735110Y8774790D01*
X16762660Y8795960D01*
X16794160Y8801250D01*
X16825650Y8795960D01*
X16853210Y8774790D01*
X16876840Y8743040D01*
X16892590Y8706000D01*
X16900460Y8663670D01*
Y8621330D01*
X16892590Y8579000D01*
X16876840Y8541960D01*
X16853210Y8510200D01*
X16825650Y8489040D01*
X16794160Y8483750D01*
G01X17030380D02*
Y8801250D01*
X17124870D01*
X17156360Y8785370D01*
X17179990Y8748330D01*
X17187860Y8706000D01*
X17179990Y8663670D01*
X17160300Y8631910D01*
X17124870Y8616030D01*
X17030380D01*
G01X17739040Y8801250D02*
Y8483750D01*
G01X17683920Y8695410D02*
X17794160D01*
G01X18054000Y8483750D02*
X18030380Y8489040D01*
X18006760Y8510200D01*
X17991000Y8547250D01*
X17983130Y8589580D01*
X17991000Y8631910D01*
X18006760Y8668960D01*
X18030380Y8690120D01*
X18054000Y8695410D01*
X18077620Y8690120D01*
X18101240Y8668960D01*
X18116990Y8631910D01*
X18120930Y8589580D01*
X18116990Y8547250D01*
X18101240Y8510200D01*
X18077620Y8489040D01*
X18054000Y8483750D01*
G01X18715410Y8653090D02*
X18731160Y8668960D01*
X18742970Y8695410D01*
X18750850Y8732460D01*
X18742970Y8764210D01*
X18727230Y8785370D01*
X18699670Y8801250D01*
X18593370D01*
Y8483750D01*
X18723290D01*
X18750850Y8504910D01*
X18766600Y8536670D01*
X18774470Y8573710D01*
X18766600Y8610740D01*
X18742970Y8642500D01*
X18715410Y8653090D01*
X18593370D01*
G01X18998880Y8483750D02*
X18967380Y8489040D01*
X18939830Y8510200D01*
X18916200Y8541960D01*
X18900450Y8579000D01*
X18892580Y8621330D01*
Y8663670D01*
X18900450Y8706000D01*
X18916200Y8743040D01*
X18939830Y8774790D01*
X18967380Y8795960D01*
X18998880Y8801250D01*
X19030370Y8795960D01*
X19057930Y8774790D01*
X19081560Y8743040D01*
X19097310Y8706000D01*
X19105180Y8663670D01*
Y8621330D01*
X19097310Y8579000D01*
X19081560Y8541960D01*
X19057930Y8510200D01*
X19030370Y8489040D01*
X18998880Y8483750D01*
G01X19313840Y8801250D02*
Y8483750D01*
G01X19223290Y8801250D02*
X19404390D01*
G01X19628800D02*
Y8483750D01*
G01X19538250Y8801250D02*
X19719350D01*
G01X19943760Y8483750D02*
X19912260Y8489040D01*
X19884710Y8510200D01*
X19861080Y8541960D01*
X19845330Y8579000D01*
X19837460Y8621330D01*
Y8663670D01*
X19845330Y8706000D01*
X19861080Y8743040D01*
X19884710Y8774790D01*
X19912260Y8795960D01*
X19943760Y8801250D01*
X19975250Y8795960D01*
X20002810Y8774790D01*
X20026440Y8743040D01*
X20042190Y8706000D01*
X20050060Y8663670D01*
Y8621330D01*
X20042190Y8579000D01*
X20026440Y8541960D01*
X20002810Y8510200D01*
X19975250Y8489040D01*
X19943760Y8483750D01*
G01X20156350D02*
Y8801250D01*
X20258720Y8536670D01*
X20361090Y8801250D01*
Y8483750D01*
G01X13833540Y277250D02*
X13857150Y240200D01*
X13888650Y219040D01*
X13924090Y213750D01*
X13955590Y219040D01*
X13987080Y245490D01*
X14006760Y277250D01*
X14010700Y309000D01*
X14002830Y346030D01*
X13975270Y372500D01*
X13947710Y383090D01*
X13912270D01*
G01X13947710D02*
X13971330Y398960D01*
X13991020Y425410D01*
X13998890Y457160D01*
X13991020Y488920D01*
X13971330Y515370D01*
X13935900Y531250D01*
X13900470Y525960D01*
X13865030Y504790D01*
G01X14235110Y203170D02*
X14227230Y208460D01*
Y219040D01*
X14235110Y224330D01*
X14242990Y219040D01*
Y208460D01*
X14235110Y203170D01*
G01X14550070Y531250D02*
X14518570Y520670D01*
X14494950Y494210D01*
X14479200Y462460D01*
X14467390Y420120D01*
X14463460Y372500D01*
X14467390Y324870D01*
X14479200Y282540D01*
X14494950Y250780D01*
X14518570Y224330D01*
X14550070Y213750D01*
X14581560Y224330D01*
X14605190Y250780D01*
X14620940Y282540D01*
X14632750Y324870D01*
X14636680Y372500D01*
X14632750Y420120D01*
X14620940Y462460D01*
X14605190Y494210D01*
X14581560Y520670D01*
X14550070Y531250D01*
G01X14805980Y425410D02*
X14924080Y213750D01*
G01Y425410D02*
X14805980Y213750D01*
G01X15179990D02*
Y531250D01*
X15132750Y467750D01*
G01Y213750D02*
X15227230D01*
G01X15494950Y203170D02*
X15487070Y208460D01*
Y219040D01*
X15494950Y224330D01*
X15502830Y219040D01*
Y208460D01*
X15494950Y203170D01*
G01X15809910Y531250D02*
X15778410Y520670D01*
X15754790Y494210D01*
X15739040Y462460D01*
X15727230Y420120D01*
X15723300Y372500D01*
X15727230Y324870D01*
X15739040Y282540D01*
X15754790Y250780D01*
X15778410Y224330D01*
X15809910Y213750D01*
X15841400Y224330D01*
X15865030Y250780D01*
X15880780Y282540D01*
X15892590Y324870D01*
X15896520Y372500D01*
X15892590Y420120D01*
X15880780Y462460D01*
X15865030Y494210D01*
X15841400Y520670D01*
X15809910Y531250D01*
G01X13833540Y912250D02*
X13857150Y875200D01*
X13888650Y854040D01*
X13924090Y848750D01*
X13955590Y854040D01*
X13987080Y880490D01*
X14006760Y912250D01*
X14010700Y944000D01*
X14002830Y981030D01*
X13975270Y1007500D01*
X13947710Y1018090D01*
X13912270D01*
G01X13947710D02*
X13971330Y1033960D01*
X13991020Y1060410D01*
X13998890Y1092160D01*
X13991020Y1123920D01*
X13971330Y1150370D01*
X13935900Y1166250D01*
X13900470Y1160960D01*
X13865030Y1139790D01*
G01X14235110Y838170D02*
X14227230Y843460D01*
Y854040D01*
X14235110Y859330D01*
X14242990Y854040D01*
Y843460D01*
X14235110Y838170D01*
G01X14550070Y1166250D02*
X14518570Y1155670D01*
X14494950Y1129210D01*
X14479200Y1097460D01*
X14467390Y1055120D01*
X14463460Y1007500D01*
X14467390Y959870D01*
X14479200Y917540D01*
X14494950Y885780D01*
X14518570Y859330D01*
X14550070Y848750D01*
X14581560Y859330D01*
X14605190Y885780D01*
X14620940Y917540D01*
X14632750Y959870D01*
X14636680Y1007500D01*
X14632750Y1055120D01*
X14620940Y1097460D01*
X14605190Y1129210D01*
X14581560Y1155670D01*
X14550070Y1166250D01*
G01X14805980Y1060410D02*
X14924080Y848750D01*
G01Y1060410D02*
X14805980Y848750D01*
G01X15179990D02*
Y1166250D01*
X15132750Y1102750D01*
G01Y848750D02*
X15227230D01*
G01X15494950Y838170D02*
X15487070Y843460D01*
Y854040D01*
X15494950Y859330D01*
X15502830Y854040D01*
Y843460D01*
X15494950Y838170D01*
G01X15809910Y1166250D02*
X15778410Y1155670D01*
X15754790Y1129210D01*
X15739040Y1097460D01*
X15727230Y1055120D01*
X15723300Y1007500D01*
X15727230Y959870D01*
X15739040Y917540D01*
X15754790Y885780D01*
X15778410Y859330D01*
X15809910Y848750D01*
X15841400Y859330D01*
X15865030Y885780D01*
X15880780Y917540D01*
X15892590Y959870D01*
X15896520Y1007500D01*
X15892590Y1055120D01*
X15880780Y1097460D01*
X15865030Y1129210D01*
X15841400Y1155670D01*
X15809910Y1166250D01*
G01X13991020Y2182250D02*
X14014630Y2145200D01*
X14046130Y2124040D01*
X14081570Y2118750D01*
X14113070Y2124040D01*
X14144560Y2150490D01*
X14164240Y2182250D01*
X14168180Y2214000D01*
X14160310Y2251030D01*
X14132750Y2277500D01*
X14105190Y2288090D01*
X14069750D01*
G01X14105190D02*
X14128810Y2303960D01*
X14148500Y2330410D01*
X14156370Y2362160D01*
X14148500Y2393920D01*
X14128810Y2420370D01*
X14093380Y2436250D01*
X14057950Y2430960D01*
X14022510Y2409790D01*
G01X14392590Y2108170D02*
X14384710Y2113460D01*
Y2124040D01*
X14392590Y2129330D01*
X14400470Y2124040D01*
Y2113460D01*
X14392590Y2108170D01*
G01X14754790Y2118750D02*
Y2436250D01*
X14609120Y2208710D01*
X14805980D01*
G01X15022510Y2436250D02*
X14991010Y2425670D01*
X14967390Y2399210D01*
X14951640Y2367460D01*
X14939830Y2325120D01*
X14935900Y2277500D01*
X14939830Y2229870D01*
X14951640Y2187540D01*
X14967390Y2155780D01*
X14991010Y2129330D01*
X15022510Y2118750D01*
X15054000Y2129330D01*
X15077630Y2155780D01*
X15093380Y2187540D01*
X15105190Y2229870D01*
X15109120Y2277500D01*
X15105190Y2325120D01*
X15093380Y2367460D01*
X15077630Y2399210D01*
X15054000Y2425670D01*
X15022510Y2436250D01*
G01X15250860Y2182250D02*
X15274470Y2145200D01*
X15305970Y2124040D01*
X15341410Y2118750D01*
X15372910Y2124040D01*
X15404400Y2150490D01*
X15424080Y2182250D01*
X15428020Y2214000D01*
X15420150Y2251030D01*
X15392590Y2277500D01*
X15365030Y2288090D01*
X15329590D01*
G01X15365030D02*
X15388650Y2303960D01*
X15408340Y2330410D01*
X15416210Y2362160D01*
X15408340Y2393920D01*
X15388650Y2420370D01*
X15353220Y2436250D01*
X15317790Y2430960D01*
X15282350Y2409790D01*
G01X15577620Y2251030D02*
X15605190Y2288090D01*
X15628810Y2309250D01*
X15660310Y2319830D01*
X15687870Y2309250D01*
X15707550Y2288090D01*
X15723300Y2256330D01*
X15727240Y2219290D01*
X15723300Y2187540D01*
X15707550Y2155780D01*
X15683920Y2129330D01*
X15656370Y2118750D01*
X15624870Y2129330D01*
X15597310Y2161070D01*
X15581560Y2208710D01*
X15577620Y2261620D01*
X15585500Y2330410D01*
X15597310Y2367460D01*
X15616990Y2404500D01*
X15644550Y2430960D01*
X15672110Y2436250D01*
X15699670Y2425670D01*
X15719360Y2399210D01*
G01X14077630Y4658750D02*
Y4976250D01*
X14030390Y4912750D01*
G01Y4658750D02*
X14124870D01*
G01X14392590Y4648170D02*
X14384710Y4653460D01*
Y4664040D01*
X14392590Y4669330D01*
X14400470Y4664040D01*
Y4653460D01*
X14392590Y4648170D01*
G01X14707550Y4976250D02*
X14676050Y4965670D01*
X14652430Y4939210D01*
X14636680Y4907460D01*
X14624870Y4865120D01*
X14620940Y4817500D01*
X14624870Y4769870D01*
X14636680Y4727540D01*
X14652430Y4695780D01*
X14676050Y4669330D01*
X14707550Y4658750D01*
X14739040Y4669330D01*
X14762670Y4695780D01*
X14778420Y4727540D01*
X14790230Y4769870D01*
X14794160Y4817500D01*
X14790230Y4865120D01*
X14778420Y4907460D01*
X14762670Y4939210D01*
X14739040Y4965670D01*
X14707550Y4976250D01*
G01X15022510D02*
X14991010Y4965670D01*
X14967390Y4939210D01*
X14951640Y4907460D01*
X14939830Y4865120D01*
X14935900Y4817500D01*
X14939830Y4769870D01*
X14951640Y4727540D01*
X14967390Y4695780D01*
X14991010Y4669330D01*
X15022510Y4658750D01*
X15054000Y4669330D01*
X15077630Y4695780D01*
X15093380Y4727540D01*
X15105190Y4769870D01*
X15109120Y4817500D01*
X15105190Y4865120D01*
X15093380Y4907460D01*
X15077630Y4939210D01*
X15054000Y4965670D01*
X15022510Y4976250D01*
G01X15337470D02*
X15305970Y4965670D01*
X15282350Y4939210D01*
X15266600Y4907460D01*
X15254790Y4865120D01*
X15250860Y4817500D01*
X15254790Y4769870D01*
X15266600Y4727540D01*
X15282350Y4695780D01*
X15305970Y4669330D01*
X15337470Y4658750D01*
X15368960Y4669330D01*
X15392590Y4695780D01*
X15408340Y4727540D01*
X15420150Y4769870D01*
X15424080Y4817500D01*
X15420150Y4865120D01*
X15408340Y4907460D01*
X15392590Y4939210D01*
X15368960Y4965670D01*
X15337470Y4976250D01*
G01X15652430Y4658750D02*
X15679990Y4664040D01*
X15711480Y4679910D01*
X15731170Y4706360D01*
X15739040Y4743420D01*
X15731170Y4780450D01*
X15707550Y4812200D01*
X15672110Y4828090D01*
X15632750D01*
X15609120Y4838670D01*
X15589430Y4865120D01*
X15581560Y4902160D01*
X15593380Y4939210D01*
X15620930Y4965670D01*
X15652430Y4976250D01*
X15683920Y4965670D01*
X15711480Y4939210D01*
X15723300Y4902160D01*
X15715420Y4865120D01*
X15695740Y4838670D01*
X15672110Y4828090D01*
X15632750D01*
X15597310Y4812200D01*
X15573690Y4780450D01*
X15565820Y4743420D01*
X15573690Y4706360D01*
X15593380Y4679910D01*
X15624870Y4664040D01*
X15652430Y4658750D01*
G01X14077630Y5611250D02*
X14046130Y5600670D01*
X14022510Y5574210D01*
X14006760Y5542460D01*
X13994950Y5500120D01*
X13991020Y5452500D01*
X13994950Y5404870D01*
X14006760Y5362540D01*
X14022510Y5330780D01*
X14046130Y5304330D01*
X14077630Y5293750D01*
X14109120Y5304330D01*
X14132750Y5330780D01*
X14148500Y5362540D01*
X14160310Y5404870D01*
X14164240Y5452500D01*
X14160310Y5500120D01*
X14148500Y5542460D01*
X14132750Y5574210D01*
X14109120Y5600670D01*
X14077630Y5611250D01*
G01X14392590Y5283170D02*
X14384710Y5288460D01*
Y5299040D01*
X14392590Y5304330D01*
X14400470Y5299040D01*
Y5288460D01*
X14392590Y5283170D01*
G01X14640620Y5330780D02*
X14668180Y5304330D01*
X14699670Y5293750D01*
X14731170Y5304330D01*
X14758730Y5336070D01*
X14778420Y5383710D01*
X14786290Y5431330D01*
Y5489540D01*
X14778420Y5537160D01*
X14758730Y5579500D01*
X14735110Y5600670D01*
X14707550Y5611250D01*
X14676050Y5600670D01*
X14652430Y5579500D01*
X14636680Y5547750D01*
X14628810Y5505410D01*
X14636680Y5468380D01*
X14656370Y5431330D01*
X14679990Y5410160D01*
X14707550Y5404870D01*
X14739040Y5415450D01*
X14762670Y5441910D01*
X14786290Y5489540D01*
G01X15022510Y5293750D02*
Y5611250D01*
X14975270Y5547750D01*
G01Y5293750D02*
X15069750D01*
G01X15384710D02*
Y5611250D01*
X15239040Y5383710D01*
X15435900D01*
G01X15699670Y5293750D02*
Y5611250D01*
X15554000Y5383710D01*
X15750860D01*
G01X14077630Y6246250D02*
X14046130Y6235670D01*
X14022510Y6209210D01*
X14006760Y6177460D01*
X13994950Y6135120D01*
X13991020Y6087500D01*
X13994950Y6039870D01*
X14006760Y5997540D01*
X14022510Y5965780D01*
X14046130Y5939330D01*
X14077630Y5928750D01*
X14109120Y5939330D01*
X14132750Y5965780D01*
X14148500Y5997540D01*
X14160310Y6039870D01*
X14164240Y6087500D01*
X14160310Y6135120D01*
X14148500Y6177460D01*
X14132750Y6209210D01*
X14109120Y6235670D01*
X14077630Y6246250D01*
G01X14392590Y5918170D02*
X14384710Y5923460D01*
Y5934040D01*
X14392590Y5939330D01*
X14400470Y5934040D01*
Y5923460D01*
X14392590Y5918170D01*
G01X14754790Y5928750D02*
Y6246250D01*
X14609120Y6018710D01*
X14805980D01*
G01X14935900Y5976360D02*
X14959510Y5949910D01*
X14987070Y5934040D01*
X15022510Y5928750D01*
X15057950Y5939330D01*
X15085500Y5960490D01*
X15105190Y5997540D01*
X15109120Y6039870D01*
X15101250Y6082200D01*
X15081560Y6108670D01*
X15054000Y6129830D01*
X15026450Y6135120D01*
X14998890Y6129830D01*
X14963460Y6108670D01*
X14975270Y6246250D01*
X15081560D01*
G01X15329590Y5928750D02*
X15337470Y5997540D01*
X15349280Y6055740D01*
X15365030Y6108670D01*
X15384710Y6166870D01*
X15416210Y6246250D01*
X15258730D01*
G01X15577620Y6193330D02*
X15601250Y6225080D01*
X15628810Y6240960D01*
X15660310Y6246250D01*
X15699670Y6235670D01*
X15727240Y6209210D01*
X15735110Y6177460D01*
X15731170Y6145700D01*
X15715420Y6119250D01*
X15636680Y6066330D01*
X15601250Y6029290D01*
X15577620Y5976360D01*
X15569750Y5928750D01*
X15735110D01*
G01X14077630Y6881250D02*
X14046130Y6870670D01*
X14022510Y6844210D01*
X14006760Y6812460D01*
X13994950Y6770120D01*
X13991020Y6722500D01*
X13994950Y6674870D01*
X14006760Y6632540D01*
X14022510Y6600780D01*
X14046130Y6574330D01*
X14077630Y6563750D01*
X14109120Y6574330D01*
X14132750Y6600780D01*
X14148500Y6632540D01*
X14160310Y6674870D01*
X14164240Y6722500D01*
X14160310Y6770120D01*
X14148500Y6812460D01*
X14132750Y6844210D01*
X14109120Y6870670D01*
X14077630Y6881250D01*
G01X14392590Y6553170D02*
X14384710Y6558460D01*
Y6569040D01*
X14392590Y6574330D01*
X14400470Y6569040D01*
Y6558460D01*
X14392590Y6553170D01*
G01X14620940Y6627250D02*
X14644550Y6590200D01*
X14676050Y6569040D01*
X14711490Y6563750D01*
X14742990Y6569040D01*
X14774480Y6595490D01*
X14794160Y6627250D01*
X14798100Y6659000D01*
X14790230Y6696030D01*
X14762670Y6722500D01*
X14735110Y6733090D01*
X14699670D01*
G01X14735110D02*
X14758730Y6748960D01*
X14778420Y6775410D01*
X14786290Y6807160D01*
X14778420Y6838920D01*
X14758730Y6865370D01*
X14723300Y6881250D01*
X14687870Y6875960D01*
X14652430Y6854790D01*
G01X15022510Y6881250D02*
X14991010Y6870670D01*
X14967390Y6844210D01*
X14951640Y6812460D01*
X14939830Y6770120D01*
X14935900Y6722500D01*
X14939830Y6674870D01*
X14951640Y6632540D01*
X14967390Y6600780D01*
X14991010Y6574330D01*
X15022510Y6563750D01*
X15054000Y6574330D01*
X15077630Y6600780D01*
X15093380Y6632540D01*
X15105190Y6674870D01*
X15109120Y6722500D01*
X15105190Y6770120D01*
X15093380Y6812460D01*
X15077630Y6844210D01*
X15054000Y6870670D01*
X15022510Y6881250D01*
G01X15384710Y6563750D02*
Y6881250D01*
X15239040Y6653710D01*
X15435900D01*
G01X15652430Y6563750D02*
X15679990Y6569040D01*
X15711480Y6584910D01*
X15731170Y6611360D01*
X15739040Y6648420D01*
X15731170Y6685450D01*
X15707550Y6717200D01*
X15672110Y6733090D01*
X15632750D01*
X15609120Y6743670D01*
X15589430Y6770120D01*
X15581560Y6807160D01*
X15593380Y6844210D01*
X15620930Y6870670D01*
X15652430Y6881250D01*
X15683920Y6870670D01*
X15711480Y6844210D01*
X15723300Y6807160D01*
X15715420Y6770120D01*
X15695740Y6743670D01*
X15672110Y6733090D01*
X15632750D01*
X15597310Y6717200D01*
X15573690Y6685450D01*
X15565820Y6648420D01*
X15573690Y6611360D01*
X15593380Y6584910D01*
X15624870Y6569040D01*
X15652430Y6563750D01*
G01X14148500Y2817250D02*
X14172110Y2780200D01*
X14203610Y2759040D01*
X14239050Y2753750D01*
X14270550Y2759040D01*
X14302040Y2785490D01*
X14321720Y2817250D01*
X14325660Y2849000D01*
X14317790Y2886030D01*
X14290230Y2912500D01*
X14262670Y2923090D01*
X14227230D01*
G01X14262670D02*
X14286290Y2938960D01*
X14305980Y2965410D01*
X14313850Y2997160D01*
X14305980Y3028920D01*
X14286290Y3055370D01*
X14250860Y3071250D01*
X14215430Y3065960D01*
X14179990Y3044790D01*
G01X14550070Y2743170D02*
X14542190Y2748460D01*
Y2759040D01*
X14550070Y2764330D01*
X14557950Y2759040D01*
Y2748460D01*
X14550070Y2743170D01*
G01X14778420Y2817250D02*
X14802030Y2780200D01*
X14833530Y2759040D01*
X14868970Y2753750D01*
X14900470Y2759040D01*
X14931960Y2785490D01*
X14951640Y2817250D01*
X14955580Y2849000D01*
X14947710Y2886030D01*
X14920150Y2912500D01*
X14892590Y2923090D01*
X14857150D01*
G01X14892590D02*
X14916210Y2938960D01*
X14935900Y2965410D01*
X14943770Y2997160D01*
X14935900Y3028920D01*
X14916210Y3055370D01*
X14880780Y3071250D01*
X14845350Y3065960D01*
X14809910Y3044790D01*
G01X15179990Y3071250D02*
X15148490Y3060670D01*
X15124870Y3034210D01*
X15109120Y3002460D01*
X15097310Y2960120D01*
X15093380Y2912500D01*
X15097310Y2864870D01*
X15109120Y2822540D01*
X15124870Y2790780D01*
X15148490Y2764330D01*
X15179990Y2753750D01*
X15211480Y2764330D01*
X15235110Y2790780D01*
X15250860Y2822540D01*
X15262670Y2864870D01*
X15266600Y2912500D01*
X15262670Y2960120D01*
X15250860Y3002460D01*
X15235110Y3034210D01*
X15211480Y3060670D01*
X15179990Y3071250D01*
G01X15420140Y3018330D02*
X15443770Y3050080D01*
X15471330Y3065960D01*
X15502830Y3071250D01*
X15542190Y3060670D01*
X15569760Y3034210D01*
X15577630Y3002460D01*
X15573690Y2970700D01*
X15557940Y2944250D01*
X15479200Y2891330D01*
X15443770Y2854290D01*
X15420140Y2801360D01*
X15412270Y2753750D01*
X15577630D01*
G01X14235110Y4023750D02*
Y4341250D01*
X14187870Y4277750D01*
G01Y4023750D02*
X14282350D01*
G01X14550070Y4013170D02*
X14542190Y4018460D01*
Y4029040D01*
X14550070Y4034330D01*
X14557950Y4029040D01*
Y4018460D01*
X14550070Y4013170D01*
G01X14865030Y4341250D02*
X14833530Y4330670D01*
X14809910Y4304210D01*
X14794160Y4272460D01*
X14782350Y4230120D01*
X14778420Y4182500D01*
X14782350Y4134870D01*
X14794160Y4092540D01*
X14809910Y4060780D01*
X14833530Y4034330D01*
X14865030Y4023750D01*
X14896520Y4034330D01*
X14920150Y4060780D01*
X14935900Y4092540D01*
X14947710Y4134870D01*
X14951640Y4182500D01*
X14947710Y4230120D01*
X14935900Y4272460D01*
X14920150Y4304210D01*
X14896520Y4330670D01*
X14865030Y4341250D01*
G01X15179990Y4023750D02*
Y4341250D01*
X15132750Y4277750D01*
G01Y4023750D02*
X15227230D01*
G01X15420140Y4156030D02*
X15447710Y4193090D01*
X15471330Y4214250D01*
X15502830Y4224830D01*
X15530390Y4214250D01*
X15550070Y4193090D01*
X15565820Y4161330D01*
X15569760Y4124290D01*
X15565820Y4092540D01*
X15550070Y4060780D01*
X15526440Y4034330D01*
X15498890Y4023750D01*
X15467390Y4034330D01*
X15439830Y4066070D01*
X15424080Y4113710D01*
X15420140Y4166620D01*
X15428020Y4235410D01*
X15439830Y4272460D01*
X15459510Y4309500D01*
X15487070Y4335960D01*
X15514630Y4341250D01*
X15542190Y4330670D01*
X15561880Y4304210D01*
G01X14309910Y7241070D02*
X14341410Y7214620D01*
X14376840Y7198750D01*
X14408340D01*
X14439830Y7214620D01*
X14463460Y7241070D01*
X14475270Y7278130D01*
X14467400Y7315160D01*
X14447710Y7346910D01*
X14412270Y7368090D01*
X14365030Y7378670D01*
X14337470Y7399830D01*
X14325660Y7436870D01*
X14333540Y7473920D01*
X14353220Y7500370D01*
X14380780Y7516250D01*
X14408340D01*
X14435900Y7505670D01*
X14459520Y7479210D01*
G01X14660310Y7516250D02*
X14754790D01*
G01X14707550D02*
Y7198750D01*
G01X14660310D02*
X14754790D01*
G01X14947700Y7516250D02*
X15097320D01*
X14947700Y7198750D01*
X15097320D01*
G01X15416210D02*
X15258730D01*
Y7516250D01*
X15416210D01*
G01X15353220Y7362800D02*
X15258730D01*
G01X14463460Y1547250D02*
X14487070Y1510200D01*
X14518570Y1489040D01*
X14554010Y1483750D01*
X14585510Y1489040D01*
X14617000Y1515490D01*
X14636680Y1547250D01*
X14640620Y1579000D01*
X14632750Y1616030D01*
X14605190Y1642500D01*
X14577630Y1653090D01*
X14542190D01*
G01X14577630D02*
X14601250Y1668960D01*
X14620940Y1695410D01*
X14628810Y1727160D01*
X14620940Y1758920D01*
X14601250Y1785370D01*
X14565820Y1801250D01*
X14530390Y1795960D01*
X14494950Y1774790D01*
G01X14865030Y1473170D02*
X14857150Y1478460D01*
Y1489040D01*
X14865030Y1494330D01*
X14872910Y1489040D01*
Y1478460D01*
X14865030Y1473170D01*
G01X15093380Y1547250D02*
X15116990Y1510200D01*
X15148490Y1489040D01*
X15183930Y1483750D01*
X15215430Y1489040D01*
X15246920Y1515490D01*
X15266600Y1547250D01*
X15270540Y1579000D01*
X15262670Y1616030D01*
X15235110Y1642500D01*
X15207550Y1653090D01*
X15172110D01*
G01X15207550D02*
X15231170Y1668960D01*
X15250860Y1695410D01*
X15258730Y1727160D01*
X15250860Y1758920D01*
X15231170Y1785370D01*
X15195740Y1801250D01*
X15160310Y1795960D01*
X15124870Y1774790D01*
G01X14550070Y3388750D02*
Y3706250D01*
X14502830Y3642750D01*
G01Y3388750D02*
X14597310D01*
G01X14865030Y3378170D02*
X14857150Y3383460D01*
Y3394040D01*
X14865030Y3399330D01*
X14872910Y3394040D01*
Y3383460D01*
X14865030Y3378170D01*
G01X15172110Y3388750D02*
X15179990Y3457540D01*
X15191800Y3515740D01*
X15207550Y3568670D01*
X15227230Y3626870D01*
X15258730Y3706250D01*
X15101250D01*
G01X17372900Y1483750D02*
Y1801250D01*
X17554000Y1483750D01*
Y1801250D01*
G01X17778410Y1483750D02*
X17746910Y1489040D01*
X17719360Y1510200D01*
X17695730Y1541960D01*
X17679980Y1579000D01*
X17672110Y1621330D01*
Y1663670D01*
X17679980Y1706000D01*
X17695730Y1743040D01*
X17719360Y1774790D01*
X17746910Y1795960D01*
X17778410Y1801250D01*
X17809900Y1795960D01*
X17837460Y1774790D01*
X17861090Y1743040D01*
X17876840Y1706000D01*
X17884710Y1663670D01*
Y1621330D01*
X17876840Y1579000D01*
X17861090Y1541960D01*
X17837460Y1510200D01*
X17809900Y1489040D01*
X17778410Y1483750D01*
G01X18002820D02*
Y1801250D01*
X18183920Y1483750D01*
Y1801250D01*
G01X18357150Y1589580D02*
X18459510D01*
G01X18644550Y1483750D02*
Y1801250D01*
X18739040D01*
X18770530Y1785370D01*
X18794160Y1748330D01*
X18802030Y1706000D01*
X18794160Y1663670D01*
X18774470Y1631910D01*
X18739040Y1616030D01*
X18644550D01*
G01X18959510Y1801250D02*
Y1483750D01*
X19116990D01*
G01X19254780D02*
X19353210Y1801250D01*
X19451640Y1483750D01*
G01X19416200Y1594870D02*
X19290210D01*
G01X19668170Y1801250D02*
Y1483750D01*
G01X19577620Y1801250D02*
X19758720D01*
G01X20061870Y1483750D02*
X19904390D01*
Y1801250D01*
X20061870D01*
G01X19998880Y1647800D02*
X19904390D01*
G01X20211480Y1483750D02*
Y1801250D01*
X20290210D01*
X20321710Y1785370D01*
X20345330Y1764210D01*
X20365020Y1732460D01*
X20380770Y1695410D01*
X20384700Y1642500D01*
X20380770Y1589580D01*
X20365020Y1552540D01*
X20345330Y1520780D01*
X20321710Y1499620D01*
X20290210Y1483750D01*
X20211480D01*
G01X18014630Y213750D02*
Y531250D01*
X18109120D01*
X18140610Y515370D01*
X18164240Y478330D01*
X18172110Y436000D01*
X18164240Y393670D01*
X18144550Y361910D01*
X18109120Y346030D01*
X18014630D01*
G01X18329590Y531250D02*
Y213750D01*
X18487070D01*
G01X18624860D02*
X18723290Y531250D01*
X18821720Y213750D01*
G01X18786280Y324870D02*
X18660290D01*
G01X19038250Y531250D02*
Y213750D01*
G01X18947700Y531250D02*
X19128800D01*
G01X19431950Y213750D02*
X19274470D01*
Y531250D01*
X19431950D01*
G01X19368960Y377800D02*
X19274470D01*
G01X19581560Y213750D02*
Y531250D01*
X19660290D01*
X19691790Y515370D01*
X19715410Y494210D01*
X19735100Y462460D01*
X19750850Y425410D01*
X19754780Y372500D01*
X19750850Y319580D01*
X19735100Y282540D01*
X19715410Y250780D01*
X19691790Y229620D01*
X19660290Y213750D01*
X19581560D01*
G01X18014630Y848750D02*
Y1166250D01*
X18109120D01*
X18140610Y1150370D01*
X18164240Y1113330D01*
X18172110Y1071000D01*
X18164240Y1028670D01*
X18144550Y996910D01*
X18109120Y981030D01*
X18014630D01*
G01X18329590Y1166250D02*
Y848750D01*
X18487070D01*
G01X18624860D02*
X18723290Y1166250D01*
X18821720Y848750D01*
G01X18786280Y959870D02*
X18660290D01*
G01X19038250Y1166250D02*
Y848750D01*
G01X18947700Y1166250D02*
X19128800D01*
G01X19431950Y848750D02*
X19274470D01*
Y1166250D01*
X19431950D01*
G01X19368960Y1012800D02*
X19274470D01*
G01X19581560Y848750D02*
Y1166250D01*
X19660290D01*
X19691790Y1150370D01*
X19715410Y1129210D01*
X19735100Y1097460D01*
X19750850Y1060410D01*
X19754780Y1007500D01*
X19750850Y954580D01*
X19735100Y917540D01*
X19715410Y885780D01*
X19691790Y864620D01*
X19660290Y848750D01*
X19581560D01*
G01X18014630Y2118750D02*
Y2436250D01*
X18109120D01*
X18140610Y2420370D01*
X18164240Y2383330D01*
X18172110Y2341000D01*
X18164240Y2298670D01*
X18144550Y2266910D01*
X18109120Y2251030D01*
X18014630D01*
G01X18329590Y2436250D02*
Y2118750D01*
X18487070D01*
G01X18624860D02*
X18723290Y2436250D01*
X18821720Y2118750D01*
G01X18786280Y2229870D02*
X18660290D01*
G01X19038250Y2436250D02*
Y2118750D01*
G01X18947700Y2436250D02*
X19128800D01*
G01X19431950Y2118750D02*
X19274470D01*
Y2436250D01*
X19431950D01*
G01X19368960Y2282800D02*
X19274470D01*
G01X19581560Y2118750D02*
Y2436250D01*
X19660290D01*
X19691790Y2420370D01*
X19715410Y2399210D01*
X19735100Y2367460D01*
X19750850Y2330410D01*
X19754780Y2277500D01*
X19750850Y2224580D01*
X19735100Y2187540D01*
X19715410Y2155780D01*
X19691790Y2134620D01*
X19660290Y2118750D01*
X19581560D01*
G01X18014630Y2753750D02*
Y3071250D01*
X18109120D01*
X18140610Y3055370D01*
X18164240Y3018330D01*
X18172110Y2976000D01*
X18164240Y2933670D01*
X18144550Y2901910D01*
X18109120Y2886030D01*
X18014630D01*
G01X18329590Y3071250D02*
Y2753750D01*
X18487070D01*
G01X18624860D02*
X18723290Y3071250D01*
X18821720Y2753750D01*
G01X18786280Y2864870D02*
X18660290D01*
G01X19038250Y3071250D02*
Y2753750D01*
G01X18947700Y3071250D02*
X19128800D01*
G01X19431950Y2753750D02*
X19274470D01*
Y3071250D01*
X19431950D01*
G01X19368960Y2917800D02*
X19274470D01*
G01X19581560Y2753750D02*
Y3071250D01*
X19660290D01*
X19691790Y3055370D01*
X19715410Y3034210D01*
X19735100Y3002460D01*
X19750850Y2965410D01*
X19754780Y2912500D01*
X19750850Y2859580D01*
X19735100Y2822540D01*
X19715410Y2790780D01*
X19691790Y2769620D01*
X19660290Y2753750D01*
X19581560D01*
G01X18014630Y3388750D02*
Y3706250D01*
X18109120D01*
X18140610Y3690370D01*
X18164240Y3653330D01*
X18172110Y3611000D01*
X18164240Y3568670D01*
X18144550Y3536910D01*
X18109120Y3521030D01*
X18014630D01*
G01X18329590Y3706250D02*
Y3388750D01*
X18487070D01*
G01X18624860D02*
X18723290Y3706250D01*
X18821720Y3388750D01*
G01X18786280Y3499870D02*
X18660290D01*
G01X19038250Y3706250D02*
Y3388750D01*
G01X18947700Y3706250D02*
X19128800D01*
G01X19431950Y3388750D02*
X19274470D01*
Y3706250D01*
X19431950D01*
G01X19368960Y3552800D02*
X19274470D01*
G01X19581560Y3388750D02*
Y3706250D01*
X19660290D01*
X19691790Y3690370D01*
X19715410Y3669210D01*
X19735100Y3637460D01*
X19750850Y3600410D01*
X19754780Y3547500D01*
X19750850Y3494580D01*
X19735100Y3457540D01*
X19715410Y3425780D01*
X19691790Y3404620D01*
X19660290Y3388750D01*
X19581560D01*
G01X18014630Y4023750D02*
Y4341250D01*
X18109120D01*
X18140610Y4325370D01*
X18164240Y4288330D01*
X18172110Y4246000D01*
X18164240Y4203670D01*
X18144550Y4171910D01*
X18109120Y4156030D01*
X18014630D01*
G01X18329590Y4341250D02*
Y4023750D01*
X18487070D01*
G01X18624860D02*
X18723290Y4341250D01*
X18821720Y4023750D01*
G01X18786280Y4134870D02*
X18660290D01*
G01X19038250Y4341250D02*
Y4023750D01*
G01X18947700Y4341250D02*
X19128800D01*
G01X19431950Y4023750D02*
X19274470D01*
Y4341250D01*
X19431950D01*
G01X19368960Y4187800D02*
X19274470D01*
G01X19581560Y4023750D02*
Y4341250D01*
X19660290D01*
X19691790Y4325370D01*
X19715410Y4304210D01*
X19735100Y4272460D01*
X19750850Y4235410D01*
X19754780Y4182500D01*
X19750850Y4129580D01*
X19735100Y4092540D01*
X19715410Y4060780D01*
X19691790Y4039620D01*
X19660290Y4023750D01*
X19581560D01*
G01X18014630Y4658750D02*
Y4976250D01*
X18109120D01*
X18140610Y4960370D01*
X18164240Y4923330D01*
X18172110Y4881000D01*
X18164240Y4838670D01*
X18144550Y4806910D01*
X18109120Y4791030D01*
X18014630D01*
G01X18329590Y4976250D02*
Y4658750D01*
X18487070D01*
G01X18624860D02*
X18723290Y4976250D01*
X18821720Y4658750D01*
G01X18786280Y4769870D02*
X18660290D01*
G01X19038250Y4976250D02*
Y4658750D01*
G01X18947700Y4976250D02*
X19128800D01*
G01X19431950Y4658750D02*
X19274470D01*
Y4976250D01*
X19431950D01*
G01X19368960Y4822800D02*
X19274470D01*
G01X19581560Y4658750D02*
Y4976250D01*
X19660290D01*
X19691790Y4960370D01*
X19715410Y4939210D01*
X19735100Y4907460D01*
X19750850Y4870410D01*
X19754780Y4817500D01*
X19750850Y4764580D01*
X19735100Y4727540D01*
X19715410Y4695780D01*
X19691790Y4674620D01*
X19660290Y4658750D01*
X19581560D01*
G01X18014630Y5293750D02*
Y5611250D01*
X18109120D01*
X18140610Y5595370D01*
X18164240Y5558330D01*
X18172110Y5516000D01*
X18164240Y5473670D01*
X18144550Y5441910D01*
X18109120Y5426030D01*
X18014630D01*
G01X18329590Y5611250D02*
Y5293750D01*
X18487070D01*
G01X18624860D02*
X18723290Y5611250D01*
X18821720Y5293750D01*
G01X18786280Y5404870D02*
X18660290D01*
G01X19038250Y5611250D02*
Y5293750D01*
G01X18947700Y5611250D02*
X19128800D01*
G01X19431950Y5293750D02*
X19274470D01*
Y5611250D01*
X19431950D01*
G01X19368960Y5457800D02*
X19274470D01*
G01X19581560Y5293750D02*
Y5611250D01*
X19660290D01*
X19691790Y5595370D01*
X19715410Y5574210D01*
X19735100Y5542460D01*
X19750850Y5505410D01*
X19754780Y5452500D01*
X19750850Y5399580D01*
X19735100Y5362540D01*
X19715410Y5330780D01*
X19691790Y5309620D01*
X19660290Y5293750D01*
X19581560D01*
G01X18014630Y5928750D02*
Y6246250D01*
X18109120D01*
X18140610Y6230370D01*
X18164240Y6193330D01*
X18172110Y6151000D01*
X18164240Y6108670D01*
X18144550Y6076910D01*
X18109120Y6061030D01*
X18014630D01*
G01X18329590Y6246250D02*
Y5928750D01*
X18487070D01*
G01X18624860D02*
X18723290Y6246250D01*
X18821720Y5928750D01*
G01X18786280Y6039870D02*
X18660290D01*
G01X19038250Y6246250D02*
Y5928750D01*
G01X18947700Y6246250D02*
X19128800D01*
G01X19431950Y5928750D02*
X19274470D01*
Y6246250D01*
X19431950D01*
G01X19368960Y6092800D02*
X19274470D01*
G01X19581560Y5928750D02*
Y6246250D01*
X19660290D01*
X19691790Y6230370D01*
X19715410Y6209210D01*
X19735100Y6177460D01*
X19750850Y6140410D01*
X19754780Y6087500D01*
X19750850Y6034580D01*
X19735100Y5997540D01*
X19715410Y5965780D01*
X19691790Y5944620D01*
X19660290Y5928750D01*
X19581560D01*
G01X18014630Y6563750D02*
Y6881250D01*
X18109120D01*
X18140610Y6865370D01*
X18164240Y6828330D01*
X18172110Y6786000D01*
X18164240Y6743670D01*
X18144550Y6711910D01*
X18109120Y6696030D01*
X18014630D01*
G01X18329590Y6881250D02*
Y6563750D01*
X18487070D01*
G01X18624860D02*
X18723290Y6881250D01*
X18821720Y6563750D01*
G01X18786280Y6674870D02*
X18660290D01*
G01X19038250Y6881250D02*
Y6563750D01*
G01X18947700Y6881250D02*
X19128800D01*
G01X19431950Y6563750D02*
X19274470D01*
Y6881250D01*
X19431950D01*
G01X19368960Y6727800D02*
X19274470D01*
G01X19581560Y6563750D02*
Y6881250D01*
X19660290D01*
X19691790Y6865370D01*
X19715410Y6844210D01*
X19735100Y6812460D01*
X19750850Y6775410D01*
X19754780Y6722500D01*
X19750850Y6669580D01*
X19735100Y6632540D01*
X19715410Y6600780D01*
X19691790Y6579620D01*
X19660290Y6563750D01*
X19581560D01*
G01X18014630Y7198750D02*
Y7516250D01*
X18109120D01*
X18140610Y7500370D01*
X18164240Y7463330D01*
X18172110Y7421000D01*
X18164240Y7378670D01*
X18144550Y7346910D01*
X18109120Y7331030D01*
X18014630D01*
G01X18329590Y7516250D02*
Y7198750D01*
X18487070D01*
G01X18624860D02*
X18723290Y7516250D01*
X18821720Y7198750D01*
G01X18786280Y7309870D02*
X18660290D01*
G01X19038250Y7516250D02*
Y7198750D01*
G01X18947700Y7516250D02*
X19128800D01*
G01X19431950Y7198750D02*
X19274470D01*
Y7516250D01*
X19431950D01*
G01X19368960Y7362800D02*
X19274470D01*
G01X19581560Y7198750D02*
Y7516250D01*
X19660290D01*
X19691790Y7500370D01*
X19715410Y7479210D01*
X19735100Y7447460D01*
X19750850Y7410410D01*
X19754780Y7357500D01*
X19750850Y7304580D01*
X19735100Y7267540D01*
X19715410Y7235780D01*
X19691790Y7214620D01*
X19660290Y7198750D01*
X19581560D01*
G01X21211470Y6563750D02*
Y6881250D01*
X21065800Y6653710D01*
X21262660D01*
G01X21471310Y6563750D02*
X21479190Y6632540D01*
X21491000Y6690740D01*
X21506750Y6743670D01*
X21526430Y6801870D01*
X21557930Y6881250D01*
X21400450D01*
G01X21841390Y6563750D02*
Y6881250D01*
X21695720Y6653710D01*
X21892580D01*
G01X21164230Y7198750D02*
X21132730Y7204040D01*
X21105180Y7225200D01*
X21081550Y7256960D01*
X21065800Y7294000D01*
X21057930Y7336330D01*
Y7378670D01*
X21065800Y7421000D01*
X21081550Y7458040D01*
X21105180Y7489790D01*
X21132730Y7510960D01*
X21164230Y7516250D01*
X21195720Y7510960D01*
X21223280Y7489790D01*
X21246910Y7458040D01*
X21262660Y7421000D01*
X21270530Y7378670D01*
Y7336330D01*
X21262660Y7294000D01*
X21246910Y7256960D01*
X21223280Y7225200D01*
X21195720Y7204040D01*
X21164230Y7198750D01*
G01X21195720Y7283420D02*
X21242970Y7198750D01*
G01X21479190Y7516250D02*
Y7198750D01*
G01X21388640Y7516250D02*
X21569740D01*
G01X21794150Y7198750D02*
Y7341620D01*
X21715410Y7516250D01*
G01X21872890D02*
X21794150Y7341620D01*
G01X21321710Y1483750D02*
Y1801250D01*
X21274470Y1737750D01*
G01Y1483750D02*
X21368950D01*
G01X21636670Y1801250D02*
X21605170Y1790670D01*
X21581550Y1764210D01*
X21565800Y1732460D01*
X21553990Y1690120D01*
X21550060Y1642500D01*
X21553990Y1594870D01*
X21565800Y1552540D01*
X21581550Y1520780D01*
X21605170Y1494330D01*
X21636670Y1483750D01*
X21668160Y1494330D01*
X21691790Y1520780D01*
X21707540Y1552540D01*
X21719350Y1594870D01*
X21723280Y1642500D01*
X21719350Y1690120D01*
X21707540Y1732460D01*
X21691790Y1764210D01*
X21668160Y1790670D01*
X21636670Y1801250D01*
G01X21321710Y3388750D02*
Y3706250D01*
X21274470Y3642750D01*
G01Y3388750D02*
X21368950D01*
G01X21636670Y3706250D02*
X21605170Y3695670D01*
X21581550Y3669210D01*
X21565800Y3637460D01*
X21553990Y3595120D01*
X21550060Y3547500D01*
X21553990Y3499870D01*
X21565800Y3457540D01*
X21581550Y3425780D01*
X21605170Y3399330D01*
X21636670Y3388750D01*
X21668160Y3399330D01*
X21691790Y3425780D01*
X21707540Y3457540D01*
X21719350Y3499870D01*
X21723280Y3547500D01*
X21719350Y3595120D01*
X21707540Y3637460D01*
X21691790Y3669210D01*
X21668160Y3695670D01*
X21636670Y3706250D01*
G01X21246900Y4288330D02*
X21270530Y4320080D01*
X21298090Y4335960D01*
X21329590Y4341250D01*
X21368950Y4330670D01*
X21396520Y4304210D01*
X21404390Y4272460D01*
X21400450Y4240700D01*
X21384700Y4214250D01*
X21305960Y4161330D01*
X21270530Y4124290D01*
X21246900Y4071360D01*
X21239030Y4023750D01*
X21404390D01*
G01X21636670Y4341250D02*
X21605170Y4330670D01*
X21581550Y4304210D01*
X21565800Y4272460D01*
X21553990Y4230120D01*
X21550060Y4182500D01*
X21553990Y4134870D01*
X21565800Y4092540D01*
X21581550Y4060780D01*
X21605170Y4034330D01*
X21636670Y4023750D01*
X21668160Y4034330D01*
X21691790Y4060780D01*
X21707540Y4092540D01*
X21719350Y4134870D01*
X21723280Y4182500D01*
X21719350Y4230120D01*
X21707540Y4272460D01*
X21691790Y4304210D01*
X21668160Y4330670D01*
X21636670Y4341250D01*
G01X21246900Y4791030D02*
X21274470Y4828090D01*
X21298090Y4849250D01*
X21329590Y4859830D01*
X21357150Y4849250D01*
X21376830Y4828090D01*
X21392580Y4796330D01*
X21396520Y4759290D01*
X21392580Y4727540D01*
X21376830Y4695780D01*
X21353200Y4669330D01*
X21325650Y4658750D01*
X21294150Y4669330D01*
X21266590Y4701070D01*
X21250840Y4748710D01*
X21246900Y4801620D01*
X21254780Y4870410D01*
X21266590Y4907460D01*
X21286270Y4944500D01*
X21313830Y4970960D01*
X21341390Y4976250D01*
X21368950Y4965670D01*
X21388640Y4939210D01*
G01X21636670Y4976250D02*
X21605170Y4965670D01*
X21581550Y4939210D01*
X21565800Y4907460D01*
X21553990Y4865120D01*
X21550060Y4817500D01*
X21553990Y4769870D01*
X21565800Y4727540D01*
X21581550Y4695780D01*
X21605170Y4669330D01*
X21636670Y4658750D01*
X21668160Y4669330D01*
X21691790Y4695780D01*
X21707540Y4727540D01*
X21719350Y4769870D01*
X21723280Y4817500D01*
X21719350Y4865120D01*
X21707540Y4907460D01*
X21691790Y4939210D01*
X21668160Y4965670D01*
X21636670Y4976250D01*
G01X21404380Y478330D02*
X21428010Y510080D01*
X21455570Y525960D01*
X21487070Y531250D01*
X21526430Y520670D01*
X21554000Y494210D01*
X21561870Y462460D01*
X21557930Y430700D01*
X21542180Y404250D01*
X21463440Y351330D01*
X21428010Y314290D01*
X21404380Y261360D01*
X21396510Y213750D01*
X21561870D01*
G01X21479190Y848750D02*
Y1166250D01*
X21431950Y1102750D01*
G01Y848750D02*
X21526430D01*
G01Y2118750D02*
Y2436250D01*
X21380760Y2208710D01*
X21577620D01*
G01X21404380Y3018330D02*
X21428010Y3050080D01*
X21455570Y3065960D01*
X21487070Y3071250D01*
X21526430Y3060670D01*
X21554000Y3034210D01*
X21561870Y3002460D01*
X21557930Y2970700D01*
X21542180Y2944250D01*
X21463440Y2891330D01*
X21428010Y2854290D01*
X21404380Y2801360D01*
X21396510Y2753750D01*
X21561870D01*
G01X21412260Y5330780D02*
X21439820Y5304330D01*
X21471310Y5293750D01*
X21502810Y5304330D01*
X21530370Y5336070D01*
X21550060Y5383710D01*
X21557930Y5431330D01*
Y5489540D01*
X21550060Y5537160D01*
X21530370Y5579500D01*
X21506750Y5600670D01*
X21479190Y5611250D01*
X21447690Y5600670D01*
X21424070Y5579500D01*
X21408320Y5547750D01*
X21400450Y5505410D01*
X21408320Y5468380D01*
X21428010Y5431330D01*
X21451630Y5410160D01*
X21479190Y5404870D01*
X21510680Y5415450D01*
X21534310Y5441910D01*
X21557930Y5489540D01*
G01X21392580Y5976360D02*
X21416190Y5949910D01*
X21443750Y5934040D01*
X21479190Y5928750D01*
X21514630Y5939330D01*
X21542180Y5960490D01*
X21561870Y5997540D01*
X21565800Y6039870D01*
X21557930Y6082200D01*
X21538240Y6108670D01*
X21510680Y6129830D01*
X21483130Y6135120D01*
X21455570Y6129830D01*
X21420140Y6108670D01*
X21431950Y6246250D01*
X21538240D01*
G01X-250000Y0D02*
X-1600000D01*
G01X410000Y10000000D02*
X-1600000D01*
G01X-1412500Y400000D02*
X-1350000Y0D01*
X-1287500Y400000D01*
X-1412500D01*
G01X-1287500Y9600000D02*
X-1350000Y10000000D01*
X-1412500Y9600000D01*
X-1287500D01*
G01X-1350000Y4654260D02*
Y0D01*
G01Y5145740D02*
Y10000000D01*
G01X-250000Y0D02*
X-970000D01*
G01X80000Y9670000D02*
X-970000D01*
G01X-720000Y4334260D02*
Y0D01*
G01X-782500Y400000D02*
X-720000Y0D01*
X-657500Y400000D01*
X-782500D01*
G01X-720000Y4825740D02*
Y9670000D01*
G01X-657500Y9270000D02*
X-720000Y9670000D01*
X-782500Y9270000D01*
X-657500D01*
G01X-250000Y0D02*
X-590000D01*
G01X80000Y330000D02*
X-590000D01*
G01X-400000Y-622500D02*
X0Y-560000D01*
X-400000Y-497500D01*
Y-622500D01*
G01X-277500Y-400000D02*
X-340000Y0D01*
X-402500Y-400000D01*
X-277500D01*
G01X-340000Y-85740D02*
Y0D01*
G01Y405740D02*
Y330000D01*
G01X-402500Y730000D02*
X-340000Y330000D01*
X-277500Y730000D01*
X-402500D01*
G01X-272110Y-560000D02*
X0D01*
G01Y-250000D02*
Y-1540000D01*
G01X4572640Y-1290000D02*
X0D01*
G01X400000Y-1227500D02*
X0Y-1290000D01*
X400000Y-1352500D01*
Y-1227500D01*
G01X0Y-250000D02*
Y-1120000D01*
G01X4262640Y-870000D02*
X0D01*
G01X400000Y-807500D02*
X0Y-870000D01*
X400000Y-932500D01*
Y-807500D01*
G01X0Y-250000D02*
Y-810000D01*
G01X330000Y80000D02*
Y-810000D01*
G01X552110Y-560000D02*
X330000D01*
G01X730000Y-497500D02*
X330000Y-560000D01*
X730000Y-622500D01*
Y-497500D01*
G01X5277360Y-870000D02*
X9250000D01*
G01X5587360Y-1290000D02*
X9580000D01*
G01X8850000Y-932500D02*
X9250000Y-870000D01*
X8850000Y-807500D01*
Y-932500D01*
G01X9180000Y-1352500D02*
X9580000Y-1290000D01*
X9180000Y-1227500D01*
Y-1352500D01*
G01X9250000Y80000D02*
Y-1120000D01*
G01X9580000Y390000D02*
Y-1540000D01*
G01X10180000Y55000D02*
Y8960000D01*
X22463440D01*
Y55000D01*
X10180000D01*
G01Y690000D02*
X22463440D01*
G01X10180000Y1325000D02*
X22463440D01*
G01X10180000Y1960000D02*
X22463440D01*
G01X10180000Y2595000D02*
X22463440D01*
G01X10180000Y3230000D02*
X22463440D01*
G01X10180000Y3865000D02*
X22463440D01*
G01X10180000Y4500000D02*
X22463440D01*
G01X10180000Y5135000D02*
X22463440D01*
G01X10180000Y5770000D02*
X22463440D01*
G01X10180000Y6405000D02*
X22463440D01*
G01X10180000Y7040000D02*
X22463440D01*
G01X10180000Y7675000D02*
X22463440D01*
G01X10180000Y8310000D02*
X22463440D01*
G01X12463460Y7675000D02*
Y55000D01*
G01X17266600Y7675000D02*
Y55000D01*
G01X20494940Y7675000D02*
Y55000D01*
G54D12*
X715500Y1405000D03*
X2264500D03*
X2365500D03*
X3914500D03*
X4015500D03*
X5665500D03*
X5564500D03*
X7214500D03*
X7315500D03*
X8864500D03*
X11321730Y3547500D03*
G54D13*
X740000Y9110000D03*
X11321730Y1007500D03*
G54D14*
X827500Y610000D03*
X1081500D03*
X1045000Y1735000D03*
X1172000Y1989000D03*
X1299000Y1735000D03*
X1426000Y1989000D03*
X1553000Y1735000D03*
X1680000Y1989000D03*
X1898500Y610000D03*
X1807000Y1735000D03*
X1934000Y1989000D03*
X2152500Y610000D03*
X2477500D03*
X2731500D03*
X2695000Y1735000D03*
X2949000D03*
X2822000Y1989000D03*
X3076000D03*
X3203000Y1735000D03*
X3457000D03*
X3330000Y1989000D03*
X3548500Y610000D03*
X3584000Y1989000D03*
X3802500Y610000D03*
X4127500D03*
X4381500D03*
X4345000Y1735000D03*
X4472000Y1989000D03*
X4599000Y1735000D03*
X4726000Y1989000D03*
X4853000Y1735000D03*
X4980000Y1989000D03*
X5107000Y1735000D03*
X5198500Y610000D03*
X5234000Y1989000D03*
X5452500Y610000D03*
X5777500D03*
X5995000Y1735000D03*
X6031500Y610000D03*
X6122000Y1989000D03*
X6249000Y1735000D03*
X6503000D03*
X6376000Y1989000D03*
X6630000D03*
X6848500Y610000D03*
X6757000Y1735000D03*
X6884000Y1989000D03*
X7102500Y610000D03*
X7427500D03*
X7681500D03*
X7645000Y1735000D03*
X7772000Y1989000D03*
X7899000Y1735000D03*
X8026000Y1989000D03*
X8153000Y1735000D03*
X8280000Y1989000D03*
X8498500Y610000D03*
X8407000Y1735000D03*
X8534000Y1989000D03*
X8752500Y610000D03*
X11321730Y4817500D03*
G54D15*
X918500Y1100000D03*
X2061500D03*
X2568500D03*
X3711500D03*
X4218500D03*
X5361500D03*
X5868500D03*
X7011500D03*
X7518500D03*
X8661500D03*
X11321730Y1642500D03*
G54D16*
X1220000Y8830000D03*
Y9430000D03*
X11321730Y372500D03*
G54D17*
X4770000Y4580000D03*
X4650000Y4460000D03*
Y4700000D03*
X4890000Y4460000D03*
Y4700000D03*
X11321730Y6087500D03*
G54D18*
X6070000Y9050000D03*
X8570000D03*
X11321730Y2912500D03*
G54D19*
X6766000Y8908000D03*
X7043000D03*
X6904500Y9192000D03*
X7181500D03*
X7320000Y8908000D03*
X7458500Y9192000D03*
X7597000Y8908000D03*
X7874000D03*
X7735500Y9192000D03*
X11321730Y5452500D03*
M02*
