G04 ================== begin FILE IDENTIFICATION RECORD ==================*
G04 Layout Name:  RELAY_TEST_V10A.brd*
G04 Film Name:    PasteMask_Bottom*
G04 File Format:  Gerber RS274X*
G04 File Origin:  Cadence Allegro 16.6-2015-S082*
G04 Origin Date:  Tue Apr 25 10:12:06 2017*
G04 *
G04 Layer:  BOARD GEOMETRY/OUTLINE*
G04 Layer:  PIN/PASTEMASK_BOTTOM*
G04 Layer:  PACKAGE GEOMETRY/PASTEMASK_BOTTOM*
G04 *
G04 Offset:    (0.0000 0.0000)*
G04 Mirror:    No*
G04 Mode:      Positive*
G04 Rotation:  0*
G04 FullContactRelief:  No*
G04 UndefLineWidth:     0.1524*
G04 ================== end FILE IDENTIFICATION RECORD ====================*
%FSLAX55Y55*MOMM*%
%IR0*IPPOS*OFA0.00000B0.00000*MIA0B0*SFA1.00000B1.00000*%
%ADD15R,.4X4.*%
%ADD11C,2.032*%
%ADD14R,1.016X1.2192*%
%ADD12C,2.54*%
%ADD16C,1.524*%
%ADD10C,6.35*%
%ADD17R,1.524X1.524*%
%ADD13C,1.778*%
%ADD18C,.2032*%
%ADD19C,.17*%
%ADD20C,.127*%
%ADD21C,.1524*%
G75*
%LPD*%
G75*
G54D10*
X330000Y330000D03*
Y7730000D03*
X10470000Y330000D03*
Y7730000D03*
G54D20*
G01X4315000Y5970000D02*
G03I-75000J0D01*
G01X5065000D02*
G03I-75000J0D01*
G54D11*
X1472540Y4210000D03*
X1970000D03*
X2580000Y4220000D03*
X3327460D03*
G54D21*
G01X330000Y0D02*
X10470000D01*
G03X10800000Y330000I0J330000D01*
G01Y7730000D01*
G03X10470000Y8060000I-330000J0D01*
G01X330000D01*
G03X0Y7730000I0J-330000D01*
G01Y330000D01*
G03X330000Y0I330000J0D01*
G54D12*
X4060000Y1760000D03*
Y3347500D03*
X4695000Y1760000D03*
X5012500D03*
Y3347500D03*
G54D13*
X4240000Y7410000D03*
X4775000Y270000D03*
X4575000D03*
X4975000D03*
X5000000Y7410000D03*
X5990000Y250000D03*
X6440000D03*
X7371790Y253280D03*
X7821790D03*
X8340000Y250000D03*
X8790000D03*
X9064000Y7490000D03*
X8810000D03*
X9064000Y7744000D03*
X8810000D03*
X9310000Y250000D03*
X9318000Y7490000D03*
Y7744000D03*
X9760000Y250000D03*
G54D14*
X5798400Y7020000D03*
X6001600D03*
X7891600D03*
X7688400D03*
X9961600D03*
X9758400D03*
G54D15*
X6240000Y2830000D03*
X6320000D03*
X6400000D03*
X6480000D03*
X6560000D03*
X6640000D03*
X6720000D03*
X6800000D03*
X6880000D03*
X6960000D03*
X7040000D03*
X7120000D03*
X7200000D03*
X7280000D03*
X7360000D03*
X7440000D03*
X7520000D03*
X7600000D03*
X7680000D03*
X7760000D03*
X7840000D03*
X7920000D03*
X8000000D03*
X8080000D03*
X8160000D03*
X8240000D03*
X8320000D03*
X8400000D03*
X8480000D03*
X8560000D03*
X8640000D03*
X8720000D03*
X8800000D03*
X8880000D03*
X8960000D03*
X9040000D03*
X9120000D03*
G54D16*
X10460000Y5755000D03*
Y6005000D03*
Y6255000D03*
Y6755000D03*
Y6505000D03*
G54D17*
Y7005000D03*
G54D18*
G01X10570000Y3940000D02*
G03I-50000J0D01*
G01Y4740000D02*
G03I-50000J0D01*
G54D19*
G01X10400000Y1110000D02*
G03I-30000J0D01*
G01Y1510000D02*
G03I-30000J0D01*
M02*
