M48
METRIC,TZ
T01C.3048
T02C.889
T03C.9
T04C1.016
T05C1.143
T06C1.27
T07C1.524
T08C2.4892
T09C3.4036
;LEADER: 12 
;HEADER: 
;CODE  : ASCII 
;FILE  : RELAY_TEST_V10A-1-2.drl for board G:/HUIYUAN COMMUNICATION/16¼ÌµçÆ÷¿ª¹Ø/RELAY_TEST_V10A/PCB/#Taaaabp11752.tmp ... layers TOP and BOTTOM
;T01 Holesize 1. = 0.304800 Tolerance = +0.000000/-0.000000 PLATED MM Quantity = 332
;T02 Holesize 2. = 0.889000 Tolerance = +0.000000/-0.000000 PLATED MM Quantity = 19
;T03 Holesize 3. = 0.900000 Tolerance = +0.000000/-0.000000 PLATED MM Quantity = 2
;T04 Holesize 4. = 1.016000 Tolerance = +0.000000/-0.000000 PLATED MM Quantity = 10
;T05 Holesize 5. = 1.143000 Tolerance = +0.000000/-0.000000 PLATED MM Quantity = 4
;T06 Holesize 6. = 1.270000 Tolerance = +0.000000/-0.000000 PLATED MM Quantity = 5
;T07 Holesize 7. = 1.524000 Tolerance = +0.000000/-0.000000 PLATED MM Quantity = 8
;T08 Holesize 8. = 2.489200 Tolerance = +0.000000/-0.000000 PLATED MM Quantity = 12
;T09 Holesize 9. = 3.403600 Tolerance = +0.000000/-0.000000 PLATED MM Quantity = 4
%
G90
T01
X890420Y57560
X1398420Y57560
X1906420Y57560
X2249860Y227420
X2414420Y57560
X2799860Y217420
X2922420Y57560
X3397420Y220140
X3430420Y57560
X3905420Y220140
X3938420Y57560
X4446420Y57560
X4954420Y57560
X5462420Y57560
X5970420Y57560
X6478420Y57560
X6986420Y57560
X7494420Y57560
X8002420Y57560
X8510420Y57560
X9018420Y57560
X9526420Y57560
X10034420Y57560
X10737560Y715580
X10130000Y930000
X9884500Y930000
X9540000Y690000
X8570000Y570000
X7590000Y580000
X7020000Y890000
X6490000Y890000
X5925420Y850140
X5417420Y850140
X5410000Y550000
X4820000Y700000
X4650000Y850000
X2799860Y725420
X2249860Y735420
X4007420Y1430140
X4515420Y1430140
X5417420Y1190140
X5925420Y1190140
X6200000Y1450000
X6760000Y1450000
X6970000Y1450000
X7870000Y1060000
X7880000Y1410000
X8030000Y1070000
X8030000Y1360000
X8510000Y1150000
X9600000Y1430000
X9780000Y1430000
X10150000Y1460000
X10737560Y1223580
X10737560Y1731580
X10419860Y2017420
X10149860Y2027420
X9729860Y2027420
X9150000Y1820000
X8820000Y1710000
X8670000Y1960000
X8450000Y1710000
X8210000Y1710000
X8030000Y1580000
X7710000Y1830000
X7450000Y1550000
X6870000Y1820000
X6633800Y2006200
X6620000Y1710000
X6490000Y1550000
X6290000Y1720000
X5890000Y1740000
X5509860Y1617420
X4980000Y2010000
X4087420Y2400140
X4339860Y2157420
X4595420Y2400140
X5250000Y2360000
X5509860Y2125420
X6180000Y2280000
X6340000Y2280000
X6610000Y2290000
X6930000Y2230000
X7233800Y2230000
X7530000Y2230000
X7840000Y2230000
X8290000Y2230000
X8840000Y2510000
X8880000Y2240000
X9040000Y2510000
X9257390Y2308420
X9340000Y2250000
X9520000Y2260000
X9729860Y2535420
X9880000Y2350000
X9960000Y2270000
X10040000Y2190000
X10149860Y2535420
X10419860Y2525420
X10737560Y2239580
X10737560Y2747580
X10260000Y3000000
X9970000Y3000000
X8720000Y2540000
X6680000Y2540000
X6530000Y2540000
X6260000Y2540000
X5990000Y2540000
X5970000Y2690000
X5459860Y2937420
X4970000Y2980000
X4339860Y2665420
X4040000Y3070000
X4530000Y3080000
X5459860Y3445420
X5970000Y3510000
X6150000Y3510000
X6500000Y3410000
X6610000Y3270000
X6720000Y3140000
X7324580Y3149860
X7610000Y3300000
X7760000Y3500000
X7832580Y3149860
X7880000Y3410000
X8354580Y3209860
X8374580Y3399860
X8560000Y3210000
X8560000Y3400000
X8862580Y3209860
X8882580Y3399860
X9660000Y3250000
X10737560Y3255580
X10737560Y3763580
X10339860Y3857420
X9669860Y3607420
X9000000Y3870000
X9000000Y3760000
X8720000Y3640000
X8560000Y3620000
X8370000Y3620000
X8087500Y4057500
X8027500Y3992500
X8000000Y3910000
X7330000Y3660000
X7320000Y4050000
X7320000Y3890000
X6630000Y3900000
X6630000Y3660000
X5970000Y4060000
X4710000Y4380000
X4710000Y4470000
X4997420Y4440140
X5505420Y4440140
X6160000Y4360000
X6610000Y4400000
X7520000Y4300000
X7520000Y4520000
X7876200Y4260000
X8147500Y4122500
X8560000Y4340000
X8560000Y4520000
X8900000Y4490000
X9669860Y4115420
X9820000Y4220000
X10180000Y4220000
X10339860Y4365420
X10737560Y4271580
X10737560Y4779580
X10345420Y4720140
X10225420Y5070140
X9837420Y4720140
X9717420Y5070140
X9003800Y4786200
X8990000Y4920000
X8740000Y5070000
X8740000Y4930000
X8560000Y4840000
X8340000Y4670000
X8090000Y4860000
X7940000Y4845000
X7880000Y5070000
X7880000Y4630000
X7760000Y4630000
X6710000Y5050000
X6660000Y4620000
X6620000Y4970000
X6160000Y4980000
X6020000Y4830000
X5570000Y4810000
X4297420Y5160140
X4297420Y5550140
X4805420Y5160140
X4805420Y5550140
X5370000Y5150000
X5580000Y5230000
X5880000Y5420000
X5990000Y5160000
X5990000Y5250000
X5990000Y5340000
X6130000Y5450000
X6240000Y5390000
X6320000Y5448420
X6400000Y5506840
X6510000Y5510000
X7030000Y5350000
X7080000Y5570000
X7180000Y5570000
X7280000Y5570000
X7380000Y5570000
X7470000Y5570000
X7570000Y5570000
X7670000Y5570000
X7700000Y5280000
X7710000Y5150000
X7770000Y5570000
X7860000Y5390000
X7880000Y5570000
X7885000Y5255000
X8290000Y5360000
X8340000Y5155000
X8960000Y5250000
X9010000Y5090000
X9035000Y5555000
X9120000Y5470000
X9847420Y5430140
X10355420Y5430140
X10737560Y5287580
X10737560Y5795580
X10205420Y6010140
X10185420Y5610140
X9697420Y6010140
X9677420Y5610140
X9340000Y5990000
X9260000Y5920000
X9190000Y5640000
X8960000Y5650000
X8730000Y5920640
X8425420Y6020140
X8320000Y5805000
X7917420Y6020140
X7060000Y5690000
X6700000Y5800000
X6365420Y5940140
X6250000Y5770000
X5985000Y5735000
X5857420Y5940140
X4217420Y6560140
X4725420Y6560140
X4997420Y6490140
X5505420Y6490140
X6047420Y6600140
X6360000Y6260000
X6555420Y6600140
X6730000Y6150000
X6837420Y6600140
X7050000Y6160000
X7285000Y6290000
X7345420Y6600140
X7450000Y6160000
X8280000Y6570000
X8520000Y6210000
X8720000Y6130000
X9940000Y6560000
X10737560Y6303580
X10737560Y6811580
X10090000Y7020000
X9930000Y6870000
X9525420Y6930140
X9017420Y6930140
X8890000Y6770000
X8890000Y6620000
X8700000Y6770000
X8655420Y6920140
X8147420Y6920140
X8020000Y7020000
X7860000Y6610000
X6995420Y6890140
X6650000Y7020000
X6487420Y6890140
X6130000Y7020000
X5535420Y6910140
X5027420Y6910140
X4207420Y7600140
X4620000Y7270000
X4715420Y7600140
X4840000Y7190000
X5020000Y7180000
X5200000Y7200000
X5210000Y7370000
X5580000Y7500000
X6646200Y7310000
X6877420Y7140140
X6950000Y7430000
X7160000Y7430000
X7385420Y7140140
X8100000Y7610000
X8147420Y7260140
X8655420Y7260140
X9017420Y7190140
X9525420Y7190140
X10737560Y7319580
X10004420Y8017560
X9496420Y8017560
X8988420Y8017560
X8570000Y7620000
X8480420Y8017560
X7972420Y8017560
X7610000Y7620000
X7464420Y8017560
X6956420Y8017560
X6646200Y7700000
X6448420Y8017560
X6390000Y7700000
X6060000Y7680000
X5940420Y8017560
X5910000Y7840000
X5580000Y7630000
X5432420Y8017560
X5090000Y7840000
X4990000Y7660000
X4924420Y8017560
X4535420Y7840140
X4416420Y8017560
X4027420Y7840140
X3908420Y8017560
X3400420Y8017560
X2892420Y8017560
X2384420Y8017560
X1876420Y8017560
X1368420Y8017560
X860420Y8017560
T02
X4575000Y270000
X4775000Y270000
X4975000Y270000
X5990000Y250000
X6440000Y250000
X7371790Y253280
X7821790Y253280
X8340000Y250000
X8790000Y250000
X9310000Y250000
X9760000Y250000
X9318000Y7744000
X9318000Y7490000
X9064000Y7744000
X9064000Y7490000
X8810000Y7744000
X8810000Y7490000
X5000000Y7410000
X4240000Y7410000
T03
X3850000Y1030000
X4350000Y1030000
T04
X1472540Y4210000
X1970000Y4210000
X2580000Y4220000
X3327460Y4220000
X10460000Y5755000
X10460000Y6005000
X10460000Y6255000
X10460000Y6505000
X10460000Y6755000
X10460000Y7005000
T05
X1530000Y620000
X3070000Y620000
X2550000Y3560000
X2050000Y3560000
T06
X4060000Y1760000
X4695000Y1760000
X5012500Y1760000
X5012500Y3347500
X4060000Y3347500
T07
X5865000Y500000
X6565000Y500000
X7246790Y503280
X7946790Y503280
X8215000Y500000
X8915000Y500000
X9185000Y500000
X9885000Y500000
T08
X980000Y2270000
X980000Y3032000
X1000000Y5230000
X1000000Y5992000
X1680000Y6815000
X1890000Y6100000
X1890000Y5500000
X1890000Y5040000
X2890000Y5040000
X2890000Y5500000
X2890000Y6100000
X3100000Y6815000
T09
X330000Y330000
X330000Y7730000
X10470000Y7730000
X10470000Y330000
M30
